<svg xmlns="http://www.w3.org/2000/svg" xmlns:xlink="http://www.w3.org/1999/xlink" width="590" height="212" viewBox="0 0 590 212"><defs><filter id="a" x="0" y="11" width="590" height="201" filterUnits="userSpaceOnUse"><feOffset dy="15" input="SourceAlpha"/><feGaussianBlur stdDeviation="15" result="b"/><feFlood flood-opacity="0.02"/><feComposite operator="in" in2="b"/><feComposite in="SourceGraphic"/></filter><filter id="c" x="40.5" y="37.5" width="509" height="120" filterUnits="userSpaceOnUse"><feOffset dy="1" input="SourceAlpha"/><feGaussianBlur stdDeviation="1.5" result="d"/><feFlood flood-color="#17477d" flood-opacity="0.161"/><feComposite operator="in" in2="d"/><feComposite in="SourceGraphic"/></filter></defs><g transform="translate(-22 -272)"><g transform="translate(530.5 292.5)"><line x1="7" transform="translate(37.5 30.5)" fill="none" stroke="#ed1e79" stroke-width="1"/><line x1="7" transform="translate(37.5 40.5)" fill="none" stroke="#ed1e79" stroke-width="1"/><line y2="9" transform="translate(41 31)" fill="none" stroke="#ed1e79" stroke-width="1"/></g><text transform="translate(585 332)" fill="#ed1e79" font-size="10" font-family="SegoeUI, Segoe UI"><tspan x="-5.391" y="0">10</tspan></text><g transform="translate(0 145)"><g transform="matrix(1, 0, 0, 1, 22, 127)" filter="url(#a)"><rect width="500" height="111" rx="4" transform="translate(45 41)" fill="none"/></g><g transform="matrix(1, 0, 0, 1, 22, 127)" filter="url(#c)"><rect width="500" height="111" rx="4" transform="translate(45 41)" fill="#fff"/></g><path d="M4,0H496a4,4,0,0,1,4,4v6a0,0,0,0,1,0,0H0a0,0,0,0,1,0,0V4A4,4,0,0,1,4,0Z" transform="translate(67 168)" fill="#2777d3"/></g><g transform="translate(-48 215)"><circle cx="12" cy="12" r="12" transform="translate(125 118)" fill="#2777d3"/><path d="M153,35.709V25.291a.29.29,0,0,1,.29-.291h1.919a.29.29,0,0,1,.29.291V35.709a.29.29,0,0,1-.29.291H153.29A.29.29,0,0,1,153,35.709Zm.29-13.209h1.919a.29.29,0,0,0,.29-.291V20.291a.29.29,0,0,0-.29-.291H153.29a.29.29,0,0,0-.29.291v1.919A.29.29,0,0,0,153.29,22.5Z" transform="translate(-17 102)" fill="#fff"/></g><text transform="translate(121 400)" fill="#2777d3" font-size="14" font-family="SegoeUI-Bold, Segoe UI" font-weight="700"><tspan x="0" y="0">REMIND EMPLOYEES</tspan></text><text transform="translate(121 336)" fill="#31313a" font-size="14" font-family="SegoeUI, Segoe UI"><tspan x="0" y="15">Employees must sign their own enrollment forms.</tspan></text><rect width="500" height="20" transform="translate(67 293)" fill="rgba(31,210,219,0.2)"/><rect width="500" height="20" transform="translate(67 424)" fill="rgba(31,210,219,0.2)"/><path d="M0,0H10a0,0,0,0,1,0,0V101a0,0,0,0,1,0,0H4a4,4,0,0,1-4-4V0A0,0,0,0,1,0,0Z" transform="translate(67 323)" fill="rgba(31,210,219,0.4)"/><rect width="500" height="10" transform="translate(67 323)" fill="rgba(31,210,219,0.4)"/><path d="M0,0H500a0,0,0,0,1,0,0V16a4,4,0,0,1-4,4H4a4,4,0,0,1-4-4V0A0,0,0,0,1,0,0Z" transform="translate(67 404)" fill="rgba(31,210,219,0.4)"/><path d="M0,0H10a0,0,0,0,1,0,0V97a4,4,0,0,1-4,4H0a0,0,0,0,1,0,0V0A0,0,0,0,1,0,0Z" transform="translate(557 323)" fill="rgba(31,210,219,0.4)"/><rect width="20" height="101" transform="translate(101 323)" fill="rgba(31,210,219,0.4)"/><g transform="translate(22 282.5)"><line x1="7" transform="translate(37.5 30.5)" fill="none" stroke="#ed1e79" stroke-width="1"/><line x1="7" transform="translate(37.5 40.5)" fill="none" stroke="#ed1e79" stroke-width="1"/><line y2="9" transform="translate(41 31)" fill="none" stroke="#ed1e79" stroke-width="1"/></g><g transform="translate(530.5 262.5)"><line x1="7" transform="translate(37.5 30.5)" fill="none" stroke="#ed1e79" stroke-width="1"/><line x1="7" transform="translate(37.5 50.5)" fill="none" stroke="#ed1e79" stroke-width="1"/><line y2="19" transform="translate(41 31)" fill="none" stroke="#ed1e79" stroke-width="1"/></g><g transform="translate(530.5 373.5)"><line x1="7" transform="translate(37.5 30.5)" fill="none" stroke="#ed1e79" stroke-width="1"/><line x1="7" transform="translate(37.5 50.5)" fill="none" stroke="#ed1e79" stroke-width="1"/><line y2="19" transform="translate(41 31)" fill="none" stroke="#ed1e79" stroke-width="1"/></g><g transform="translate(567 355)"><line x1="7" fill="none" stroke="#ed1e79" stroke-width="1"/><line x1="7" transform="translate(0 30)" fill="none" stroke="#ed1e79" stroke-width="1"/><line y2="29" transform="translate(3.5 0.5)" fill="none" stroke="#ed1e79" stroke-width="1"/></g><g transform="translate(59.5 333)"><line x1="7" transform="translate(0 0)" fill="none" stroke="#ed1e79" stroke-width="1"/><line x1="7" transform="translate(0 24)" fill="none" stroke="#ed1e79" stroke-width="1"/><line y2="23" transform="translate(3.5 0.5)" fill="none" stroke="#ed1e79" stroke-width="1"/></g><g transform="translate(36.5 469.5) rotate(-90)"><line x1="7" transform="translate(37.5 30.5)" fill="none" stroke="#ed1e79" stroke-width="1"/><line x1="7" transform="translate(37.5 40.5)" fill="none" stroke="#ed1e79" stroke-width="1"/><line y2="9" transform="translate(41 31)" fill="none" stroke="#ed1e79" stroke-width="1"/></g><g transform="translate(70.5 469.5) rotate(-90)"><line x1="7" transform="translate(37.5 30.5)" fill="none" stroke="#ed1e79" stroke-width="1"/><line x1="7" transform="translate(37.5 50.5)" fill="none" stroke="#ed1e79" stroke-width="1"/><line y2="19" transform="translate(41 31)" fill="none" stroke="#ed1e79" stroke-width="1"/></g><g transform="translate(526.5 469.5) rotate(-90)"><line x1="7" transform="translate(37.5 30.5)" fill="none" stroke="#ed1e79" stroke-width="1"/><line x1="7" transform="translate(37.5 40.5)" fill="none" stroke="#ed1e79" stroke-width="1"/><line y2="9" transform="translate(41 31)" fill="none" stroke="#ed1e79" stroke-width="1"/></g><g transform="translate(66 312)" fill="none" stroke="#ed1e79" stroke-width="1"><rect width="502" height="113" rx="5" stroke="none"/><rect x="0.5" y="0.5" width="501" height="112" rx="4.5" fill="none"/></g><text transform="translate(49.5 321)" fill="#ed1e79" font-size="10" font-family="SegoeUI, Segoe UI"><tspan x="-5.391" y="0">10</tspan></text><text transform="translate(49.5 349)" fill="#ed1e79" font-size="10" font-family="SegoeUI, Segoe UI"><tspan x="-5.391" y="0">24</tspan></text><text transform="translate(111 444)" fill="#ed1e79" font-size="10" font-family="SegoeUI, Segoe UI"><tspan x="-5.391" y="0">20</tspan></text><text transform="translate(72 444)" fill="#ed1e79" font-size="10" font-family="SegoeUI, Segoe UI"><tspan x="-5.391" y="0">10</tspan></text><text transform="translate(562 444)" fill="#ed1e79" font-size="10" font-family="SegoeUI, Segoe UI"><tspan x="-5.391" y="0">10</tspan></text><text transform="translate(585 307)" fill="#ed1e79" font-size="10" font-family="SegoeUI, Segoe UI"><tspan x="-5.391" y="0">20</tspan></text><text transform="translate(585 418)" fill="#ed1e79" font-size="10" font-family="SegoeUI, Segoe UI"><tspan x="-5.391" y="0">20</tspan></text><text transform="translate(584 374)" fill="#ed1e79" font-size="10" font-family="SegoeUI, Segoe UI"><tspan x="-5.391" y="0">30</tspan></text><text transform="translate(317 285)" fill="#ed1e79" font-size="12" font-family="SegoeUI, Segoe UI"><tspan x="-46.518" y="0">Max width: 500px</tspan></text><rect width="466" height="30" transform="translate(101 355)" fill="rgba(31,210,219,0.4)"/></g></svg>