<svg xmlns="http://www.w3.org/2000/svg" xmlns:xlink="http://www.w3.org/1999/xlink" width="590" height="155" viewBox="0 0 590 155"><defs><filter id="a" x="0" y="11" width="590" height="144" filterUnits="userSpaceOnUse"><feOffset dy="15" input="SourceAlpha"/><feGaussianBlur stdDeviation="15" result="b"/><feFlood flood-opacity="0.02"/><feComposite operator="in" in2="b"/><feComposite in="SourceGraphic"/></filter><filter id="c" x="40.5" y="37.5" width="509" height="63" filterUnits="userSpaceOnUse"><feOffset dy="1" input="SourceAlpha"/><feGaussianBlur stdDeviation="1.5" result="d"/><feFlood flood-color="#17477d" flood-opacity="0.161"/><feComposite operator="in" in2="d"/><feComposite in="SourceGraphic"/></filter></defs><g transform="translate(-22 -525)"><g transform="matrix(1, 0, 0, 1, 22, 525)" filter="url(#a)"><rect width="500" height="54" rx="4" transform="translate(45 41)" fill="none"/></g><g transform="matrix(1, 0, 0, 1, 22, 525)" filter="url(#c)"><rect width="500" height="54" rx="4" transform="translate(45 41)" fill="#fff"/></g><path d="M4,0H496a4,4,0,0,1,4,4v6a0,0,0,0,1,0,0H0a0,0,0,0,1,0,0V4A4,4,0,0,1,4,0Z" transform="translate(67 566)" fill="#2777d3"/><g transform="translate(-48 468)"><circle cx="12" cy="12" r="12" transform="translate(125 118)" fill="#2777d3"/><path d="M153,35.709V25.291a.29.29,0,0,1,.29-.291h1.919a.29.29,0,0,1,.29.291V35.709a.29.29,0,0,1-.29.291H153.29A.29.29,0,0,1,153,35.709Zm.29-13.209h1.919a.29.29,0,0,0,.29-.291V20.291a.29.29,0,0,0-.29-.291H153.29a.29.29,0,0,0-.29.291v1.919A.29.29,0,0,0,153.29,22.5Z" transform="translate(-17 102)" fill="#fff"/></g><text transform="translate(121 589)" fill="#31313a" font-size="14" font-family="SegoeUI, Segoe UI"><tspan x="0" y="15">Employees must sign their own enrollment forms.</tspan></text><rect width="500" height="20" transform="translate(67 546)" fill="rgba(31,210,219,0.2)"/><rect width="500" height="20" transform="translate(67 620)" fill="rgba(31,210,219,0.2)"/><path d="M0,0H10a0,0,0,0,1,0,0V44a0,0,0,0,1,0,0H4a4,4,0,0,1-4-4V0A0,0,0,0,1,0,0Z" transform="translate(67 576)" fill="rgba(31,210,219,0.4)"/><rect width="500" height="10" transform="translate(67 576)" fill="rgba(31,210,219,0.4)"/><path d="M0,0H500a0,0,0,0,1,0,0V6a4,4,0,0,1-4,4H4A4,4,0,0,1,0,6V0A0,0,0,0,1,0,0Z" transform="translate(67 610)" fill="rgba(31,210,219,0.4)"/><path d="M0,0H10a0,0,0,0,1,0,0V40a4,4,0,0,1-4,4H0a0,0,0,0,1,0,0V0A0,0,0,0,1,0,0Z" transform="translate(557 576)" fill="rgba(31,210,219,0.4)"/><rect width="20" height="44" transform="translate(513 576)" fill="rgba(31,210,219,0.4)"/><rect width="20" height="44" transform="translate(101 576)" fill="rgba(31,210,219,0.4)"/><g transform="translate(22 535.5)"><line x1="7" transform="translate(37.5 30.5)" fill="none" stroke="#ed1e79" stroke-width="1"/><line x1="7" transform="translate(37.5 40.5)" fill="none" stroke="#ed1e79" stroke-width="1"/><line y2="9" transform="translate(41 31)" fill="none" stroke="#ed1e79" stroke-width="1"/></g><g transform="translate(530.5 515.5)"><line x1="7" transform="translate(37.5 30.5)" fill="none" stroke="#ed1e79" stroke-width="1"/><line x1="7" transform="translate(37.5 50.5)" fill="none" stroke="#ed1e79" stroke-width="1"/><line y2="19" transform="translate(41 31)" fill="none" stroke="#ed1e79" stroke-width="1"/></g><g transform="translate(530.5 545.5)"><line x1="7" transform="translate(37.5 30.5)" fill="none" stroke="#ed1e79" stroke-width="1"/><line x1="7" transform="translate(37.5 40.5)" fill="none" stroke="#ed1e79" stroke-width="1"/><line y2="9" transform="translate(41 31)" fill="none" stroke="#ed1e79" stroke-width="1"/></g><g transform="translate(22 555.5)"><line x1="7" transform="translate(37.5 30.5)" fill="none" stroke="#ed1e79" stroke-width="1"/><line x1="7" transform="translate(37.5 54.5)" fill="none" stroke="#ed1e79" stroke-width="1"/><line y2="23" transform="translate(41 31)" fill="none" stroke="#ed1e79" stroke-width="1"/></g><g transform="translate(530.5 579.5)"><line x1="7" transform="translate(37.5 30.5)" fill="none" stroke="#ed1e79" stroke-width="1"/><line x1="7" transform="translate(37.5 40.5)" fill="none" stroke="#ed1e79" stroke-width="1"/><line y2="9" transform="translate(41 31)" fill="none" stroke="#ed1e79" stroke-width="1"/></g><g transform="translate(36.5 665.5) rotate(-90)"><line x1="7" transform="translate(37.5 30.5)" fill="none" stroke="#ed1e79" stroke-width="1"/><line x1="7" transform="translate(37.5 40.5)" fill="none" stroke="#ed1e79" stroke-width="1"/><line y2="9" transform="translate(41 31)" fill="none" stroke="#ed1e79" stroke-width="1"/></g><g transform="translate(70.5 665.5) rotate(-90)"><line x1="7" transform="translate(37.5 30.5)" fill="none" stroke="#ed1e79" stroke-width="1"/><line x1="7" transform="translate(37.5 50.5)" fill="none" stroke="#ed1e79" stroke-width="1"/><line y2="19" transform="translate(41 31)" fill="none" stroke="#ed1e79" stroke-width="1"/></g><g transform="translate(526.5 665.5) rotate(-90)"><line x1="7" transform="translate(37.5 30.5)" fill="none" stroke="#ed1e79" stroke-width="1"/><line x1="7" transform="translate(37.5 40.5)" fill="none" stroke="#ed1e79" stroke-width="1"/><line y2="9" transform="translate(41 31)" fill="none" stroke="#ed1e79" stroke-width="1"/></g><g transform="translate(502.5 665.5) rotate(-90)"><line x1="7" transform="translate(37.5 30.5)" fill="none" stroke="#ed1e79" stroke-width="1"/><line x1="7" transform="translate(37.5 54.5)" fill="none" stroke="#ed1e79" stroke-width="1"/><line y2="23" transform="translate(41 31)" fill="none" stroke="#ed1e79" stroke-width="1"/></g><g transform="translate(482.5 665.5) rotate(-90)"><line x1="7" transform="translate(37.5 30.5)" fill="none" stroke="#ed1e79" stroke-width="1"/><line x1="7" transform="translate(37.5 50.5)" fill="none" stroke="#ed1e79" stroke-width="1"/><line y2="19" transform="translate(41 31)" fill="none" stroke="#ed1e79" stroke-width="1"/></g><g transform="translate(66 565)" fill="none" stroke="#ed1e79" stroke-width="1"><rect width="502" height="56" rx="5" stroke="none"/><rect x="0.5" y="0.5" width="501" height="55" rx="4.5" fill="none"/></g><text transform="translate(49.5 574)" fill="#ed1e79" font-size="10" font-family="SegoeUI, Segoe UI"><tspan x="-5.391" y="0">10</tspan></text><text transform="translate(49.5 602)" fill="#ed1e79" font-size="10" font-family="SegoeUI, Segoe UI"><tspan x="-5.391" y="0">24</tspan></text><text transform="translate(111 640)" fill="#ed1e79" font-size="10" font-family="SegoeUI, Segoe UI"><tspan x="-5.391" y="0">20</tspan></text><text transform="translate(72 640)" fill="#ed1e79" font-size="10" font-family="SegoeUI, Segoe UI"><tspan x="-5.391" y="0">10</tspan></text><text transform="translate(523 640)" fill="#ed1e79" font-size="10" font-family="SegoeUI, Segoe UI"><tspan x="-5.391" y="0">20</tspan></text><text transform="translate(545 640)" fill="#ed1e79" font-size="10" font-family="SegoeUI, Segoe UI"><tspan x="-5.391" y="0">24</tspan></text><text transform="translate(562 640)" fill="#ed1e79" font-size="10" font-family="SegoeUI, Segoe UI"><tspan x="-5.391" y="0">10</tspan></text><text transform="translate(585 560)" fill="#ed1e79" font-size="10" font-family="SegoeUI, Segoe UI"><tspan x="-5.391" y="0">20</tspan></text><text transform="translate(585 585)" fill="#ed1e79" font-size="10" font-family="SegoeUI, Segoe UI"><tspan x="-5.391" y="0">10</tspan></text><text transform="translate(585 619)" fill="#ed1e79" font-size="10" font-family="SegoeUI, Segoe UI"><tspan x="-5.391" y="0">10</tspan></text><text transform="translate(317 538)" fill="#ed1e79" font-size="12" font-family="SegoeUI, Segoe UI"><tspan x="-46.518" y="0">Max width: 500px</tspan></text><g transform="translate(533 586)"><rect width="24" height="24" fill="none"/><path d="M13.905,12l4.673-4.673a.227.227,0,0,0,0-.318L16.99,5.422a.227.227,0,0,0-.318,0L12,10.095,7.327,5.422a.227.227,0,0,0-.318,0L5.422,7.01a.227.227,0,0,0,0,.318L10.095,12,5.422,16.673a.227.227,0,0,0,0,.318L7.01,18.578a.227.227,0,0,0,.318,0L12,13.905l4.673,4.673a.227.227,0,0,0,.318,0l1.588-1.588a.227.227,0,0,0,0-.318Z" transform="translate(0 0)" fill="#31313a"/></g></g></svg>