<svg xmlns="http://www.w3.org/2000/svg" xmlns:xlink="http://www.w3.org/1999/xlink" width="590" height="144" viewBox="0 0 590 144"><defs><clipPath id="a"><rect width="590" height="144" fill="none"/></clipPath><filter id="b" x="0" y="0" width="590" height="144" filterUnits="userSpaceOnUse"><feOffset dy="15" input="SourceAlpha"/><feGaussianBlur stdDeviation="15" result="c"/><feFlood flood-opacity="0.02"/><feComposite operator="in" in2="c"/><feComposite in="SourceGraphic"/></filter><filter id="d" x="40.5" y="26.5" width="509" height="63" filterUnits="userSpaceOnUse"><feOffset dy="1" input="SourceAlpha"/><feGaussianBlur stdDeviation="1.5" result="e"/><feFlood flood-color="#4b8e2e" flood-opacity="0.161"/><feComposite operator="in" in2="e"/><feComposite in="SourceGraphic"/></filter></defs><g clip-path="url(#a)"><g transform="matrix(1, 0, 0, 1, 0, 0)" filter="url(#b)"><rect width="500" height="54" rx="4" transform="translate(45 30)" fill="none"/></g><g transform="matrix(1, 0, 0, 1, 0, 0)" filter="url(#d)"><rect width="500" height="54" rx="4" transform="translate(45 30)" fill="#fff"/></g><path d="M4,0H496a4,4,0,0,1,4,4v6a0,0,0,0,1,0,0H0a0,0,0,0,1,0,0V4A4,4,0,0,1,4,0Z" transform="translate(45 30)" fill="#7bc959"/><text transform="translate(99 53)" fill="#31313a" font-size="14" font-family="SegoeUI, Segoe UI"><tspan x="0" y="15">Well done! Your enrollment form was signed and submitted!</tspan></text><g transform="translate(-70 -68)"><circle cx="12" cy="12" r="12" transform="translate(125 118)" fill="#7bc959"/><g transform="translate(129 122.8)"><path d="M7.547,15.8a.2.2,0,0,1-.286,0l-4.2-4.2a.2.2,0,0,1,0-.286L4.2,10.17a.2.2,0,0,1,.286,0L7.4,13.083l7.464-7.465a.2.2,0,0,1,.287,0L16.3,6.764a.2.2,0,0,1,0,.286Z" transform="translate(-1.785 -3.308)" fill="#fff"/><rect width="16.2" height="16.2" transform="translate(0)" fill="none"/></g></g></g></svg>