<svg xmlns="http://www.w3.org/2000/svg" xmlns:xlink="http://www.w3.org/1999/xlink" width="1920" height="400" viewBox="0 0 1920 400">
  <defs>
    <filter id="Card" x="718.5" y="216.5" width="734" height="704" filterUnits="userSpaceOnUse">
      <feOffset dy="1" input="SourceAlpha"/>
      <feGaussianBlur stdDeviation="1.5" result="blur"/>
      <feFlood flood-opacity="0.161"/>
      <feComposite operator="in" in2="blur"/>
      <feComposite in="SourceGraphic"/>
    </filter>
    <clipPath id="clip-path">
      <rect id="Rectangle_9751" data-name="Rectangle 9751" width="20" height="20" fill="none"/>
    </clipPath>
    <clipPath id="clip-expandednav">
      <rect width="1920" height="400"/>
    </clipPath>
  </defs>
  <g id="expandednav" clip-path="url(#clip-expandednav)">
    <rect width="1920" height="400" fill="#f9f9fa"/>
    <text id="Add_an_account" data-name="Add an account" transform="translate(723 183)" fill="#31313a" font-size="26" font-family="SegoeUI-Semibold, Segoe UI" font-weight="600"><tspan x="0" y="0">Add an account</tspan></text>
    <g id="Basic_information" data-name="Basic information" transform="translate(0 -15)">
      <g transform="matrix(1, 0, 0, 1, 0, 15)" filter="url(#Card)">
        <rect id="Card-2" data-name="Card" width="725" height="695" rx="2" transform="translate(723 220)" fill="#fff"/>
      </g>
      <rect id="Card-3" data-name="Card" width="725" height="60" rx="2" transform="translate(723 235)" fill="#f4f4f6"/>
      <text id="Basic_account_information" data-name="Basic account information" transform="translate(748 271)" fill="#31313a" font-size="20" font-family="SegoeUI-Semibold, Segoe UI" font-weight="600"><tspan x="0" y="0">Basic account information</tspan></text>
      <g id="Input-Top" transform="translate(753 410)">
        <g id="Rectangle_288" data-name="Rectangle 288" transform="translate(0 23)" fill="#fff" stroke="#cbcbd2" stroke-width="1">
          <rect width="130" height="42" rx="4" stroke="none"/>
          <rect x="0.5" y="0.5" width="129" height="41" rx="3.5" fill="none"/>
        </g>
        <text id="_" data-name="#" transform="translate(15 50)" fill="#cbcbd2" font-size="14" font-family="SegoeUI, Segoe UI"><tspan x="0" y="0">#</tspan></text>
        <text id="_of_employees" data-name="# of employees" transform="translate(0 15)" fill="#31313a" font-size="14" font-family="SegoeUI-Semibold, Segoe UI" font-weight="600"><tspan x="0" y="0"># of employees</tspan></text>
      </g>
      <g id="Input-Top-2" data-name="Input-Top" transform="translate(753 495)">
        <g id="Rectangle_288-2" data-name="Rectangle 288" transform="translate(0 23)" fill="#fff" stroke="#cbcbd2" stroke-width="1">
          <rect width="64" height="42" rx="4" stroke="none"/>
          <rect x="0.5" y="0.5" width="63" height="41" rx="3.5" fill="none"/>
        </g>
        <text id="SIC" transform="translate(15 50)" fill="#cbcbd2" font-size="14" font-family="SegoeUI, Segoe UI"><tspan x="0" y="0">SIC</tspan></text>
        <text id="SIC_Code" data-name="SIC Code" transform="translate(0 15)" fill="#31313a" font-size="14" font-family="SegoeUI-Semibold, Segoe UI" font-weight="600"><tspan x="0" y="0">SIC Code</tspan></text>
      </g>
      <g id="Input-Top-3" data-name="Input-Top" transform="translate(847 495)">
        <g id="Rectangle_288-3" data-name="Rectangle 288" transform="translate(0 23)" fill="#fff" stroke="#cbcbd2" stroke-width="1">
          <rect width="86" height="42" rx="4" stroke="none"/>
          <rect x="0.5" y="0.5" width="85" height="41" rx="3.5" fill="none"/>
        </g>
        <text id="NAICS" transform="translate(15 50)" fill="#cbcbd2" font-size="14" font-family="SegoeUI, Segoe UI"><tspan x="0" y="0">NAICS</tspan></text>
        <text id="NAICS-2" data-name="NAICS" transform="translate(0 15)" fill="#31313a" font-size="14" font-family="SegoeUI-Semibold, Segoe UI" font-weight="600"><tspan x="0" y="0">NAICS</tspan></text>
      </g>
      <g id="Input-Top-4" data-name="Input-Top" transform="translate(963 495)">
        <g id="Rectangle_288-4" data-name="Rectangle 288" transform="translate(0 23)" fill="#fff" stroke="#cbcbd2" stroke-width="1">
          <rect width="226" height="42" rx="4" stroke="none"/>
          <rect x="0.5" y="0.5" width="225" height="41" rx="3.5" fill="none"/>
        </g>
        <text id="Begin_typing_industry" data-name="Begin typing industry" transform="translate(15 50)" fill="#cbcbd2" font-size="14" font-family="SegoeUI, Segoe UI"><tspan x="0" y="0">Begin typing industry</tspan></text>
        <text id="Industry" transform="translate(0 15)" fill="#31313a" font-size="14" font-family="SegoeUI-Semibold, Segoe UI" font-weight="600"><tspan x="0" y="0">Industry</tspan></text>
      </g>
      <g id="Input-Top-5" data-name="Input-Top" transform="translate(754 580)">
        <g id="Rectangle_288-5" data-name="Rectangle 288" transform="translate(0 23)" fill="#fff" stroke="#cbcbd2" stroke-width="1">
          <rect width="300" height="42" rx="4" stroke="none"/>
          <rect x="0.5" y="0.5" width="299" height="41" rx="3.5" fill="none"/>
        </g>
        <text id="www.website.com" transform="translate(15 50)" fill="#cbcbd2" font-size="14" font-family="SegoeUI, Segoe UI"><tspan x="0" y="0">www.website.com</tspan></text>
        <text id="Website_address" data-name="Website address" transform="translate(0 15)" fill="#31313a" font-size="14" font-family="SegoeUI-Semibold, Segoe UI" font-weight="600"><tspan x="0" y="0">Website address</tspan></text>
      </g>
      <g id="Input-Top-6" data-name="Input-Top" transform="translate(753 665)">
        <g id="Rectangle_288-6" data-name="Rectangle 288" transform="translate(0 23)" fill="#fff" stroke="#cbcbd2" stroke-width="1">
          <rect width="125" height="42" rx="4" stroke="none"/>
          <rect x="0.5" y="0.5" width="124" height="41" rx="3.5" fill="none"/>
        </g>
        <text id="_2" data-name="#" transform="translate(15 50)" fill="#cbcbd2" font-size="14" font-family="SegoeUI, Segoe UI"><tspan x="0" y="0">#</tspan></text>
        <text id="EIN" transform="translate(0 15)" fill="#31313a" font-size="14" font-family="SegoeUI-Semibold, Segoe UI" font-weight="600"><tspan x="0" y="0">EIN</tspan></text>
      </g>
      <g id="Input-Top-7" data-name="Input-Top" transform="translate(754 750)">
        <g id="Rectangle_288-7" data-name="Rectangle 288" transform="translate(0 23)" fill="#fff" stroke="#cbcbd2" stroke-width="1">
          <rect width="84" height="42" rx="4" stroke="none"/>
          <rect x="0.5" y="0.5" width="83" height="41" rx="3.5" fill="none"/>
        </g>
        <text id="_2020" data-name="2020" transform="translate(15 50)" fill="#cbcbd2" font-size="14" font-family="SegoeUI, Segoe UI"><tspan x="0" y="0">2020</tspan></text>
        <text id="Year_founded" data-name="Year founded" transform="translate(0 15)" fill="#31313a" font-size="14" font-family="SegoeUI-Semibold, Segoe UI" font-weight="600"><tspan x="0" y="0">Year founded</tspan></text>
      </g>
      <g id="Input-Top-8" data-name="Input-Top" transform="translate(753 835)">
        <g id="Rectangle_288-8" data-name="Rectangle 288" transform="translate(0 23)" fill="#fff" stroke="#cbcbd2" stroke-width="1">
          <rect width="143" height="42" rx="4" stroke="none"/>
          <rect x="0.5" y="0.5" width="142" height="41" rx="3.5" fill="none"/>
        </g>
        <text id="Hint_text" data-name="Hint text" transform="translate(15 50)" fill="#cbcbd2" font-size="14" font-family="SegoeUI, Segoe UI"><tspan x="0" y="0">Hint text</tspan></text>
        <text id="Number_of_retirees" data-name="Number of retirees" transform="translate(0 15)" fill="#31313a" font-size="14" font-family="SegoeUI-Semibold, Segoe UI" font-weight="600"><tspan x="0" y="0">Number of retirees</tspan></text>
      </g>
      <g id="Input-Top-9" data-name="Input-Top" transform="translate(753 325)">
        <g id="Rectangle_288-9" data-name="Rectangle 288" transform="translate(0 23)" fill="#fff" stroke="#cbcbd2" stroke-width="1">
          <rect width="400" height="42" rx="4" stroke="none"/>
          <rect x="0.5" y="0.5" width="399" height="41" rx="3.5" fill="none"/>
        </g>
        <text id="Enter_account_name" data-name="Enter account name" transform="translate(15 50)" fill="#cbcbd2" font-size="14" font-family="SegoeUI, Segoe UI"><tspan x="0" y="0">Enter account name</tspan></text>
        <text id="_Account_name" data-name="* Account name" transform="translate(0 15)" fill="#31313a" font-size="14" font-family="SegoeUI-Semibold, Segoe UI" font-weight="600"><tspan x="0" y="0">* Account name</tspan></text>
      </g>
      <g id="Dropdown_Select-Top-NEW" data-name="Dropdown Select-Top-NEW" transform="translate(1173 325)">
        <g id="Group_14579" data-name="Group 14579" transform="translate(0 23)">
          <g id="Rectangle_288-10" data-name="Rectangle 288" fill="#fff" stroke="#cbcbd2" stroke-width="1">
            <rect width="202" height="42" rx="4" stroke="none"/>
            <rect x="0.5" y="0.5" width="201" height="41" rx="3.5" fill="none"/>
          </g>
          <text id="Prospect" transform="translate(15 27)" fill="#31313a" font-size="14" font-family="SegoeUI, Segoe UI"><tspan x="0" y="0">Prospect</tspan></text>
          <g id="Group_7793" data-name="Group 7793" transform="translate(168 9)">
            <rect id="Rectangle_3867" data-name="Rectangle 3867" width="24" height="24" fill="none"/>
            <path id="Path_5558" data-name="Path 5558" d="M56,9.4l-3,3-3-3a.967.967,0,0,0-1.4,0h0a.967.967,0,0,0,0,1.4l3.7,3.7a.967.967,0,0,0,1.4,0l3.7-3.7a.967.967,0,0,0,0-1.4h0A.965.965,0,0,0,56,9.4Z" transform="translate(-41)" fill="#9494a4"/>
          </g>
        </g>
        <text id="Account_type" data-name="Account type" transform="translate(0 15)" fill="#31313a" font-size="14" font-family="SegoeUI-Semibold, Segoe UI" font-weight="600"><tspan x="0" y="0">Account type</tspan></text>
      </g>
    </g>
    <g id="Top_Bar" data-name="Top Bar">
      <rect id="Rectangle_1" data-name="Rectangle 1" width="1920" height="60" fill="#fff"/>
      <path id="Path_5690" data-name="Path 5690" d="M0,0H1920V5H0Z" transform="translate(0 60)" fill="#2777d3"/>
      <g id="Group_12278" data-name="Group 12278" transform="translate(1712)">
        <rect id="Rectangle_5392" data-name="Rectangle 5392" width="208" height="60" fill="none"/>
        <g id="Group_8927" data-name="Group 8927" transform="translate(72 14)">
          <text id="Adam_Gilson" data-name="Adam Gilson" transform="translate(81 15)" fill="#494955" font-size="14" font-family="SegoeUI-Semibold, Segoe UI" font-weight="600"><tspan x="-81.033" y="0">Adam Gilson</tspan></text>
        </g>
        <circle id="Ellipse_402" data-name="Ellipse 402" cx="18" cy="18" r="18" transform="translate(162 13)" fill="#78788c"/>
        <text id="Willis_Insurance_-_Nashville" data-name="Willis Insurance - Nashville" transform="translate(153 45)" fill="#494955" font-size="12" font-family="SegoeUI, Segoe UI"><tspan x="-141.047" y="0">Willis Insurance - Nashville</tspan></text>
        <text id="AG" transform="translate(171 36)" fill="#fff" font-size="14" font-family="SegoeUI-Semibold, Segoe UI" font-weight="600"><tspan x="0" y="0">AG</tspan></text>
      </g>
      <g id="Group_12989" data-name="Group 12989">
        <rect id="Rectangle_6530" data-name="Rectangle 6530" width="198" height="60" fill="none"/>
        <g id="Group_72" data-name="Group 72" transform="translate(57 20)">
          <g id="Group_6" data-name="Group 6">
            <path id="Path_467" data-name="Path 467" d="M440.678,0l-6.233,13.788L428.193,0H425.7l8.745,19.322L443.19,0Z" transform="translate(-345.294)" fill="#8b8d8e"/>
            <path id="Path_468" data-name="Path 468" d="M343.6,19.322h2.512L337.39,0h-.963L327.7,19.322h2.512l1.908-4.269H341.7ZM333.14,12.787,336.9,4.5l3.759,8.292Z" transform="translate(-265.804)" fill="#8b8d8e"/>
            <path id="Path_469" data-name="Path 469" d="M543.685,10.426h6.951V8.16h-6.951V2.267h7.555L552.45,0H541.4V19.322h9.859L552.468,17h-8.783Z" transform="translate(-439.14)" fill="#8b8d8e"/>
            <path id="Path_470" data-name="Path 470" d="M186.078,0l-6.2,13.788L174.348,1.681l-5.5,12.107L162.864,0h-3.721L155.8,7.385l1.247,2.758,3.834-8.462,7.971,17.641,5.5-12.126,5.534,12.126L188.571,0Z" transform="translate(-126.372)" fill="#8b8d8e"/>
            <path id="Path_471" data-name="Path 471" d="M4.193,17.018,15.262,0H1.851L.812,2.267H11.068L0,19.285H15.243l1.02-2.267Z" fill="#8b8d8e"/>
          </g>
          <path id="Path_472" data-name="Path 472" d="M103.468,0H98.5l5.591,12.409L98.5,24.8h4.968L109.1,12.409Z" transform="translate(-79.895)" fill="#5fb53b"/>
        </g>
        <g id="Group_12812" data-name="Group 12812" transform="translate(10 12)">
          <g id="Icon_Link_-_Hover" data-name="Icon Link - Hover">
            <rect id="Rectangle_5756" data-name="Rectangle 5756" width="36" height="36" rx="18" fill="none"/>
          </g>
          <path id="Path_8220" data-name="Path 8220" d="M172,94.5v3a.472.472,0,0,1-.5.5h-3a.472.472,0,0,1-.5-.5v-3a.472.472,0,0,1,.5-.5h3A.472.472,0,0,1,172,94.5Zm5.5-.5h-3a.472.472,0,0,0-.5.5v3a.472.472,0,0,0,.5.5h3a.472.472,0,0,0,.5-.5v-3A.472.472,0,0,0,177.5,94Zm-6,12h-3a.472.472,0,0,0-.5.5v3a.472.472,0,0,0,.5.5h3a.472.472,0,0,0,.5-.5v-3A.472.472,0,0,0,171.5,106Zm12-12h-3a.472.472,0,0,0-.5.5v3a.472.472,0,0,0,.5.5h3a.472.472,0,0,0,.5-.5v-3A.472.472,0,0,0,183.5,94Zm-12,6h-3a.472.472,0,0,0-.5.5v3a.472.472,0,0,0,.5.5h3a.472.472,0,0,0,.5-.5v-3A.472.472,0,0,0,171.5,100Zm6,0h-3a.472.472,0,0,0-.5.5v3a.472.472,0,0,0,.5.5h3a.472.472,0,0,0,.5-.5v-3A.472.472,0,0,0,177.5,100Zm0,6h-3a.472.472,0,0,0-.5.5v3a.472.472,0,0,0,.5.5h3a.472.472,0,0,0,.5-.5v-3A.472.472,0,0,0,177.5,106Zm6-6h-3a.472.472,0,0,0-.5.5v3a.472.472,0,0,0,.5.5h3a.472.472,0,0,0,.5-.5v-3A.472.472,0,0,0,183.5,100Zm0,6h-3a.472.472,0,0,0-.5.5v3a.472.472,0,0,0,.5.5h3a.472.472,0,0,0,.5-.5v-3A.472.472,0,0,0,183.5,106Z" transform="translate(-158 -84)" fill="#78788c"/>
        </g>
      </g>
      <g id="Group_70" data-name="Group 70" transform="translate(297.776 9)">
        <g id="Rectangle_2" data-name="Rectangle 2" transform="translate(0.224)" fill="#fff" stroke="#dbdbdb" stroke-width="1">
          <rect width="390" height="42" rx="2" stroke="none"/>
          <rect x="0.5" y="0.5" width="389" height="41" rx="1.5" fill="none"/>
        </g>
        <text id="Search_Content" data-name="Search Content" transform="translate(14.224 27)" fill="#c6c6c6" font-size="14" font-family="OpenSans-Regular, Open Sans"><tspan x="0" y="0">Search Content</tspan></text>
        <path id="Rectangle_3" data-name="Rectangle 3" d="M0,0H158a1,1,0,0,1,1,1V39a1,1,0,0,1-1,1H0a0,0,0,0,1,0,0V0A0,0,0,0,1,0,0Z" transform="translate(230.224 1)" fill="#fafafa"/>
        <text id="in_content" data-name="in content" transform="translate(241.224 27)" fill="#5c5c5c" font-size="14" font-family="OpenSans-Regular, Open Sans"><tspan x="0" y="0">in content</tspan></text>
        <rect id="Rectangle_4" data-name="Rectangle 4" width="1" height="40" transform="translate(229.224 1)" fill="#ebebeb"/>
        <rect id="Rectangle_5" data-name="Rectangle 5" width="1" height="40" transform="translate(347.224 1)" fill="#ebebeb"/>
        <path id="Path_3" data-name="Path 3" d="M303.8,258.3l-5-5a6.354,6.354,0,0,0,1.1-4.9,6.471,6.471,0,0,0-5.6-5.3,6.53,6.53,0,0,0-2,12.9,6.914,6.914,0,0,0,4.9-1.1l5,5a1.088,1.088,0,0,0,1.5,0A1.222,1.222,0,0,0,303.8,258.3Zm-14.7-9.5a4.458,4.458,0,0,1,3.7-3.7,4.57,4.57,0,0,1,5.2,5.2,4.458,4.458,0,0,1-3.7,3.7A4.609,4.609,0,0,1,289.1,248.8Z" transform="translate(73 -231.052)" fill="#4e92df"/>
        <path id="Path_4" data-name="Path 4" d="M284.1,240h24v24h-24Z" transform="translate(73 -231)" fill="none"/>
        <rect id="Rectangle_6" data-name="Rectangle 6" width="24" height="24" transform="translate(357.224 9)" fill="none"/>
        <path id="Path_5" data-name="Path 5" d="M150.8,40.2l-4.1,4.1a.967.967,0,0,1-1.4,0l-4.1-4.1a.539.539,0,0,1,.4-.9h8.9A.537.537,0,0,1,150.8,40.2Z" transform="translate(183 -21.3)" fill="#5c5c5c"/>
        <rect id="Rectangle_7" data-name="Rectangle 7" width="24" height="24" transform="translate(317.224 9)" fill="none"/>
      </g>
    </g>
    <g id="Side_nav" data-name="Side nav" transform="translate(0 64)">
      <path id="Path_5700" data-name="Path 5700" d="M0-1,249.5,0V1014H0V-1Z" transform="translate(0 1)" fill="#fff"/>
      <g id="Group_9278" data-name="Group 9278" transform="translate(0 964.5)">
        <rect id="Rectangle_5289" data-name="Rectangle 5289" width="249.5" height="50" transform="translate(0 0.5)" fill="none"/>
        <rect id="Rectangle_5290" data-name="Rectangle 5290" width="249.5" height="1" transform="translate(0 0.5)" fill="#e6e6ea"/>
        <g id="Group_9276" data-name="Group 9276">
          <g id="Group_9274" data-name="Group 9274">
            <text id="Collapse_" data-name="Collapse " transform="translate(59.845 31.5)" fill="#3d3d3d" font-size="14" font-family="SegoeUI, Segoe UI"><tspan x="0" y="0">Collapse </tspan></text>
            <g id="Chevron-left" transform="translate(20 15.5)">
              <g id="Group_8160" data-name="Group 8160">
                <rect id="Rectangle_5352" data-name="Rectangle 5352" width="20" height="20" fill="none"/>
                <path id="Path_5827" data-name="Path 5827" d="M18.35,18.75l-1.2,1.2a.25.25,0,0,1-.4,0L12,15.2a.25.25,0,0,1,0-.4l4.75-4.7a.25.25,0,0,1,.4,0l1.2,1.2a.25.25,0,0,1,0,.4L15,15l3.4,3.35a.25.25,0,0,1-.05.4Z" transform="translate(-5.95 -5)" fill="#2f2f2f"/>
              </g>
            </g>
            <rect id="Rectangle_5422" data-name="Rectangle 5422" width="249.5" height="50" fill="none"/>
          </g>
        </g>
      </g>
      <rect id="Rectangle_5301" data-name="Rectangle 5301" width="60" height="50" transform="translate(0 1)" fill="none" opacity="0.3"/>
      <rect id="Rectangle_5317" data-name="Rectangle 5317" width="20" height="20" transform="translate(20 16)" fill="none"/>
      <path id="zui-nav-home" d="M20,10.6H17.5v8.142a.833.833,0,0,1-.833.833H12V14.1H8v5.5H3.333a.833.833,0,0,1-.833-.833V10.6H0L10,.6Z" transform="translate(20 16.4)" fill="#494955"/>
      <g id="Group_9285" data-name="Group 9285" transform="translate(0 51)">
        <text id="Account_management" data-name="Account management" transform="translate(59.737 31)" fill="#31313a" font-size="14" font-family="SegoeUI, Segoe UI"><tspan x="0" y="0">Account management</tspan></text>
        <g id="Accounts" transform="translate(20 16)">
          <g id="Group_8145" data-name="Group 8145">
            <circle id="Ellipse_6" data-name="Ellipse 6" cx="3.167" cy="3.167" r="3.167" transform="translate(6.833)" fill="#494955"/>
            <path id="Path_5793" data-name="Path 5793" d="M14.55,11.615v8.75H8.3v-8.75a3.5,3.5,0,0,1,6.25,0Z" transform="translate(-1.383 -1.615)" fill="#494955"/>
            <circle id="Ellipse_7" data-name="Ellipse 7" cx="2.833" cy="2.833" r="2.833" transform="translate(14.333 0.583)" fill="#494955"/>
            <path id="Path_5794" data-name="Path 5794" d="M22.883,11.237v7.833H17.3V11.237a3.046,3.046,0,0,1,5.583,0Z" transform="translate(-2.883 -1.571)" fill="#494955"/>
            <circle id="Ellipse_8" data-name="Ellipse 8" cx="2.833" cy="2.833" r="2.833" transform="translate(0 0.583)" fill="#494955"/>
            <path id="Path_5795" data-name="Path 5795" d="M5.667,11.249v7.833H0V11.249a3.167,3.167,0,0,1,1.417-1.5A3.083,3.083,0,0,1,2.75,9.5a3.083,3.083,0,0,1,1.417.25,3.167,3.167,0,0,1,1.5,1.5Z" transform="translate(0 -1.582)" fill="#494955"/>
          </g>
        </g>
        <rect id="Rectangle_3681" data-name="Rectangle 3681" width="249.5" height="50" fill="none"/>
        <g id="Chevron-down" transform="translate(214.5 15)">
          <g id="Group_8144" data-name="Group 8144">
            <rect id="Rectangle_5318" data-name="Rectangle 5318" width="20" height="20" fill="none"/>
            <path id="Path_5792" data-name="Path 5792" d="M18.75,15.072l1.2,1.2a.25.25,0,0,1,0,.4l-4.75,4.75a.25.25,0,0,1-.4,0l-4.7-4.75a.25.25,0,0,1,0-.4l1.2-1.2a.25.25,0,0,1,.4,0l3.3,3.35,3.35-3.4a.25.25,0,0,1,.4.05Z" transform="translate(-5 -7.472)" fill="#494955"/>
          </g>
        </g>
      </g>
      <g id="Group_264130" data-name="Group 264130" transform="translate(0 101)">
        <text id="Content_library" data-name="Content library" transform="translate(59.737 31)" fill="#31313a" font-size="14" font-family="SegoeUI, Segoe UI"><tspan x="0" y="0">Content library</tspan></text>
        <rect id="Rectangle_3681-2" data-name="Rectangle 3681" width="249.5" height="50" fill="none"/>
        <g id="Chevron-down-2" data-name="Chevron-down" transform="translate(214.5 15)">
          <g id="Group_8144-2" data-name="Group 8144">
            <rect id="Rectangle_5318-2" data-name="Rectangle 5318" width="20" height="20" fill="none"/>
            <path id="Path_5792-2" data-name="Path 5792" d="M18.75,15.072l1.2,1.2a.25.25,0,0,1,0,.4l-4.75,4.75a.25.25,0,0,1-.4,0l-4.7-4.75a.25.25,0,0,1,0-.4l1.2-1.2a.25.25,0,0,1,.4,0l3.3,3.35,3.35-3.4a.25.25,0,0,1,.4.05Z" transform="translate(-5 -7.472)" fill="#494955"/>
          </g>
        </g>
        <g id="Content" transform="translate(30 25)">
          <g id="Content-2" data-name="Content" transform="translate(-10 -10)" clip-path="url(#clip-path)">
            <path id="Path_101123" data-name="Path 101123" d="M17.7,3.4h-3a.4.4,0,0,1-.4-.4V0Z" fill="#494a56"/>
            <path id="Path_101124" data-name="Path 101124" d="M13.8,4.2a.4.4,0,0,1-.4-.4V0H4.9A1.4,1.4,0,0,0,3.4,1.4V18.6A1.4,1.4,0,0,0,4.9,20H16.2a1.4,1.4,0,0,0,1.5-1.4V4.2Zm.8,4.2H6.2a.5.5,0,0,1-.5-.5V7.2a.5.5,0,0,1,.5-.5h8.4a.5.5,0,0,1,.5.5v.7a.5.5,0,0,1-.5.5m0,4.2H6.2a.5.5,0,0,1-.5-.5v-.7a.5.5,0,0,1,.5-.5h8.4a.5.5,0,0,1,.5.5v.7a.5.5,0,0,1-.5.5M12,16.8H6.2a.5.5,0,0,1-.5-.5v-.7a.5.5,0,0,1,.5-.5H12a.5.5,0,0,1,.5.5v.7a.5.5,0,0,1-.5.5" fill="#494a56"/>
          </g>
        </g>
      </g>
      <g id="Group_264128" data-name="Group 264128" transform="translate(0 251)">
        <text id="Quoting_and_renewals" data-name="Quoting and renewals" transform="translate(59.737 31)" fill="#31313a" font-size="14" font-family="SegoeUI, Segoe UI"><tspan x="0" y="0">Quoting and renewals</tspan></text>
        <rect id="Rectangle_3681-3" data-name="Rectangle 3681" width="249.5" height="50" fill="none"/>
        <g id="Chevron-down-3" data-name="Chevron-down" transform="translate(214.5 15)">
          <g id="Group_8144-3" data-name="Group 8144">
            <rect id="Rectangle_5318-3" data-name="Rectangle 5318" width="20" height="20" fill="none"/>
            <path id="Path_5792-3" data-name="Path 5792" d="M8.75.128l1.2,1.2a.25.25,0,0,1,0,.4L5.2,6.478a.25.25,0,0,1-.4,0L.1,1.728a.25.25,0,0,1,0-.4L1.3.128a.25.25,0,0,1,.4,0L5,3.478,8.35.078a.25.25,0,0,1,.4.05Z" transform="translate(5 7.472)" fill="#494955"/>
          </g>
        </g>
        <g id="Group_264129" data-name="Group 264129" transform="translate(20 15)">
          <path id="Path_101122" data-name="Path 101122" d="M17.361.835v18.33a.835.835,0,0,1-.835.835h-5.01V18.088c1.8-.343,3.223-1.378,3.223-3.274,0-2.613-2.246-3.507-4.334-4.05S7.641,9.654,7.641,8.785c0-1.01.927-1.712,2.505-1.712s2.246.785,2.305,1.938h2.037A3.675,3.675,0,0,0,11.532,5.5V3.483H8.685V5.47c-1.779.392-3.224,1.553-3.224,3.34,0,2.13,1.762,3.19,4.334,3.816,2.305.552,2.764,1.362,2.764,2.222,0,.634-.45,1.67-2.505,1.67-1.895,0-2.647-.835-2.747-1.938H5.294a3.864,3.864,0,0,0,3.391,3.533V20H3.474a.835.835,0,0,1-.835-.835V.835A.835.835,0,0,1,3.474,0H16.5a.836.836,0,0,1,.86.81Z" transform="translate(0 0)" fill="#494955"/>
          <rect id="Rectangle_9750" data-name="Rectangle 9750" width="20" height="20" transform="translate(0 0)" fill="none"/>
        </g>
      </g>
      <g id="Group_264132" data-name="Group 264132" transform="translate(0 301)">
        <text id="Client_portal_admin" data-name="Client portal admin" transform="translate(59.737 31)" fill="#31313a" font-size="14" font-family="SegoeUI, Segoe UI"><tspan x="0" y="0">Client portal admin</tspan></text>
        <rect id="Rectangle_3681-4" data-name="Rectangle 3681" width="249.5" height="50" fill="none"/>
        <g id="Chevron-down-4" data-name="Chevron-down" transform="translate(214.5 15)">
          <g id="Group_8144-4" data-name="Group 8144">
            <rect id="Rectangle_5318-4" data-name="Rectangle 5318" width="20" height="20" fill="none"/>
            <path id="Path_5792-4" data-name="Path 5792" d="M8.75.128l1.2,1.2a.25.25,0,0,1,0,.4L5.2,6.478a.25.25,0,0,1-.4,0L.1,1.728a.25.25,0,0,1,0-.4L1.3.128a.25.25,0,0,1,.4,0L5,3.478,8.35.078a.25.25,0,0,1,.4.05Z" transform="translate(5 7.472)" fill="#494955"/>
          </g>
        </g>
        <g id="Portal_admin" data-name="Portal admin" transform="translate(30.101 26.01)">
          <g id="Portal_admin-2" data-name="Portal admin" transform="translate(-10.101 -10.01)">
            <path id="Path_101127" data-name="Path 101127" d="M8.2,10.1l1.9,1.3L12,10.1v-5a5,5,0,0,1,.6,9.1,1.1,1.1,0,0,0-.6.9V20a10.1,10.1,0,1,0-3.8,0V15.1a1.1,1.1,0,0,0-.6-.9,5,5,0,0,1,.6-9.1" transform="translate(0.001 0.02)" fill="#494a56"/>
            <rect id="Rectangle_9753" data-name="Rectangle 9753" width="20" height="20" transform="translate(0.101 0.02)" fill="none"/>
          </g>
        </g>
      </g>
      <g id="Group_11709" data-name="Group 11709" transform="translate(0 201)">
        <text id="Prospecting" transform="translate(59.831 31)" fill="#31313a" font-size="14" font-family="SegoeUI, Segoe UI"><tspan x="0" y="0">Prospecting</tspan></text>
        <rect id="Rectangle_3681-5" data-name="Rectangle 3681" width="249.5" height="50" fill="none"/>
        <g id="Chevron-down-5" data-name="Chevron-down" transform="translate(214.5 15)">
          <g id="Group_8144-5" data-name="Group 8144">
            <rect id="Rectangle_5318-5" data-name="Rectangle 5318" width="20" height="20" fill="none"/>
            <path id="Path_5792-5" data-name="Path 5792" d="M18.75,15.072l1.2,1.2a.25.25,0,0,1,0,.4l-4.75,4.75a.25.25,0,0,1-.4,0l-4.7-4.75a.25.25,0,0,1,0-.4l1.2-1.2a.25.25,0,0,1,.4,0l3.3,3.35,3.35-3.4a.25.25,0,0,1,.4.05Z" transform="translate(-5 -7.472)" fill="#494955"/>
          </g>
        </g>
        <g id="Group_264122" data-name="Group 264122" transform="translate(20 16)">
          <path id="Path_101116" data-name="Path 101116" d="M3,11" transform="translate(0 -1.833)" fill="#383a45"/>
          <path id="Path_101117" data-name="Path 101117" d="M3,11" transform="translate(0 -1.833)" fill="#383a45"/>
          <g id="Group_264121" data-name="Group 264121">
            <g id="Group_264120" data-name="Group 264120" transform="translate(0 2.008)">
              <path id="Path_101118" data-name="Path 101118" d="M19.992,13.933a1.567,1.567,0,0,0,.008-.2,3.342,3.342,0,0,0-.183-1.085,1.487,1.487,0,0,0-.083-.2,2.632,2.632,0,0,0-.183-.372L15.942,5.466a2.436,2.436,0,0,0-2.15-1.224,2.612,2.612,0,0,0-.833.139A2.455,2.455,0,0,0,11.583,5.6,1.585,1.585,0,0,1,10,6.372,1.6,1.6,0,0,1,8.417,5.6,2.6,2.6,0,0,0,7.042,4.381a2.612,2.612,0,0,0-.833-.139,2.436,2.436,0,0,0-2.15,1.224L.45,12.074a2.632,2.632,0,0,0-.183.372,1.487,1.487,0,0,0-.083.2A3.341,3.341,0,0,0,0,13.731a1.567,1.567,0,0,0,.008.2v.015a1.167,1.167,0,0,0-.008.17,4.029,4.029,0,0,0,4.167,3.873,4.029,4.029,0,0,0,4.167-3.873,2.877,2.877,0,0,0-.067-.651A2.588,2.588,0,0,0,10,14.119a2.551,2.551,0,0,0,1.725-.651,3.325,3.325,0,0,0-.058.651,4.029,4.029,0,0,0,4.167,3.873A4.029,4.029,0,0,0,20,14.119a1.168,1.168,0,0,0-.008-.17Zm-15.825,2.5a2.411,2.411,0,0,1-2.493-2.318A2.411,2.411,0,0,1,4.167,11.8,2.411,2.411,0,0,1,6.66,14.119,2.411,2.411,0,0,1,4.167,16.437Zm11.667,0a2.411,2.411,0,0,1-2.493-2.318A2.411,2.411,0,0,1,15.833,11.8a2.411,2.411,0,0,1,2.493,2.318A2.411,2.411,0,0,1,15.833,16.437Z" transform="translate(0 -2.008)" fill="#494955"/>
              <g id="Group_264118" data-name="Group 264118" transform="translate(4.899)">
                <path id="Path_101119" data-name="Path 101119" d="M8.792,3.482a3.848,3.848,0,0,1,1.244.782,2,2,0,0,0-3.884-.87l-.033.1A3.89,3.89,0,0,1,8.792,3.482Z" transform="translate(-6.119 -2.008)" fill="#494955"/>
              </g>
              <g id="Group_264119" data-name="Group 264119" transform="translate(11.208)">
                <path id="Path_101120" data-name="Path 101120" d="M15.193,3.488a3.91,3.91,0,0,1,2.746.016l-.035-.11a2,2,0,0,0-3.892.835A4.031,4.031,0,0,1,15.193,3.488Z" transform="translate(-14 -2.008)" fill="#494955"/>
              </g>
            </g>
            <rect id="Rectangle_9737" data-name="Rectangle 9737" width="20" height="20" fill="none"/>
          </g>
        </g>
      </g>
      <g id="Group_11711" data-name="Group 11711" transform="translate(0 151)">
        <text id="Email_marketing" data-name="Email marketing" transform="translate(59.84 31)" fill="#31313a" font-size="14" font-family="SegoeUI, Segoe UI"><tspan x="0" y="0">Email marketing</tspan></text>
        <rect id="Rectangle_3681-6" data-name="Rectangle 3681" width="249.5" height="50" fill="none"/>
        <g id="Chevron-down-6" data-name="Chevron-down" transform="translate(214.5 15)">
          <g id="Group_8144-6" data-name="Group 8144">
            <rect id="Rectangle_5318-6" data-name="Rectangle 5318" width="20" height="20" fill="none"/>
            <path id="Path_5792-6" data-name="Path 5792" d="M18.75,15.072l1.2,1.2a.25.25,0,0,1,0,.4l-4.75,4.75a.25.25,0,0,1-.4,0l-4.7-4.75a.25.25,0,0,1,0-.4l1.2-1.2a.25.25,0,0,1,.4,0l3.3,3.35,3.35-3.4a.25.25,0,0,1,.4.05Z" transform="translate(-5 -7.472)" fill="#494955"/>
          </g>
        </g>
        <g id="Group_264117" data-name="Group 264117" transform="translate(20 16)">
          <path id="Path_101115" data-name="Path 101115" d="M18.575,3H1.425A1.425,1.425,0,0,0,0,4.425V14.908a1.425,1.425,0,0,0,1.425,1.425h17.15A1.425,1.425,0,0,0,20,14.908V4.425A1.425,1.425,0,0,0,18.575,3Zm.288,3.006-8.518,5.129a.657.657,0,0,1-.184.067c-.01,0-.018.007-.028.01a1.771,1.771,0,0,1-.266,0c-.01,0-.018-.008-.027-.01a.652.652,0,0,1-.185-.067L1.137,6.006a.617.617,0,0,1-.208-.86.649.649,0,0,1,.881-.2l7.975,4.8a.42.42,0,0,0,.43,0l7.975-4.8a.649.649,0,0,1,.881.2A.617.617,0,0,1,18.863,6.006Z" fill="#494955"/>
          <rect id="Rectangle_9736" data-name="Rectangle 9736" width="20" height="20" fill="none"/>
        </g>
      </g>
      <g id="Group_11712" data-name="Group 11712" transform="translate(0 351)">
        <text id="Reporting" transform="translate(59.841 31)" fill="#31313a" font-size="14" font-family="SegoeUI, Segoe UI"><tspan x="0" y="0">Reporting</tspan></text>
        <rect id="Rectangle_3681-7" data-name="Rectangle 3681" width="249.5" height="50" fill="none"/>
        <g id="Reports" transform="translate(19.945 15)">
          <path id="Path_5831" data-name="Path 5831" d="M17.215,19.96H0V11.976a.333.333,0,0,1,.333-.333H4.158a.333.333,0,0,1,.333.333V17.3H6.4V7.568a.333.333,0,0,1,.333-.333h3.826a.333.333,0,0,1,.333.333V17.3h1.913V.333A.333.333,0,0,1,13.14,0h3.826A.333.333,0,0,1,17.3.333h0Z" transform="translate(0 0)" fill="#494955"/>
        </g>
        <g id="Chevron-down-7" data-name="Chevron-down" transform="translate(214.5 15)">
          <g id="Group_8144-7" data-name="Group 8144">
            <rect id="Rectangle_5318-7" data-name="Rectangle 5318" width="20" height="20" fill="none"/>
            <path id="Path_5792-7" data-name="Path 5792" d="M18.75,15.072l1.2,1.2a.25.25,0,0,1,0,.4l-4.75,4.75a.25.25,0,0,1-.4,0l-4.7-4.75a.25.25,0,0,1,0-.4l1.2-1.2a.25.25,0,0,1,.4,0l3.3,3.35,3.35-3.4a.25.25,0,0,1,.4.05Z" transform="translate(-5 -7.472)" fill="#494955"/>
          </g>
        </g>
      </g>
      <g id="Group_11713" data-name="Group 11713" transform="translate(0 864)">
        <text id="Settings" transform="translate(59.85 31)" fill="#31313a" font-size="14" font-family="SegoeUI, Segoe UI"><tspan x="0" y="0">Settings</tspan></text>
        <rect id="Rectangle_3681-8" data-name="Rectangle 3681" width="249.5" height="50" fill="none"/>
        <g id="Group_8155" data-name="Group 8155" transform="translate(20 15)">
          <rect id="Rectangle_5334" data-name="Rectangle 5334" width="20" height="20" fill="none"/>
          <g id="GearSettings" transform="translate(0 0)">
            <path id="Path_5826" data-name="Path 5826" d="M18.784,12.583l-1.25-.75A7.667,7.667,0,0,0,17.784,10a8.167,8.167,0,0,0-.25-1.75l1.333-.75A.833.833,0,0,0,19.2,6.333h0L17.534,3.5a.917.917,0,0,0-1.167-.333l-1.25.75a7.917,7.917,0,0,0-2.833-1.583V.833A.833.833,0,0,0,11.451,0H8.117a.833.833,0,0,0-.833.833v1.5a8,8,0,0,0-2.917,1.5l-1.25-.75a.833.833,0,0,0-1.167.25h0L.284,6.167A.833.833,0,0,0,.451,7.333h0l1.25.75a7.833,7.833,0,0,0,0,3.583L.451,12.5a.833.833,0,0,0-.333,1.167h0L1.784,16.5a.833.833,0,0,0,1.167.333h.083L4.367,16a8,8,0,0,0,2.75,1.583v1.583A.833.833,0,0,0,7.951,20h3.333a.833.833,0,0,0,.833-.833V17.583a7.75,7.75,0,0,0,2.667-1.5l1.333.833a.833.833,0,0,0,1.167-.25h.083l1.75-2.833a.833.833,0,0,0-.25-1.167Zm-11.583.5A4,4,0,0,1,5.7,10.5a4.083,4.083,0,0,1,0-.583,4.917,4.917,0,0,1,0-.5A4,4,0,0,1,7.117,6.833L8.2,6.167a3.917,3.917,0,0,1,1.417-.25,3.833,3.833,0,0,1,1.5.25L12.2,6.75a3.917,3.917,0,0,1,1.5,2.667,4.084,4.084,0,0,1,0,.5,3.5,3.5,0,0,1,0,.583,4.083,4.083,0,0,1-2.667,3.167l-1.333.25-1.333-.25a4,4,0,0,1-1.25-.583Z" fill="#494955"/>
          </g>
        </g>
      </g>
      <rect id="Rectangle_4697" data-name="Rectangle 4697" width="249.5" height="50" transform="translate(0.5 1.5)" fill="none"/>
      <g id="Group_11714" data-name="Group 11714" transform="translate(0.5 914.5)">
        <g id="Group_11663" data-name="Group 11663" transform="translate(19.5 15.5)">
          <text id="Help_and_Training" data-name="Help and Training" transform="translate(40 16)" fill="#3d3d3d" font-size="14" font-family="SegoeUI, Segoe UI"><tspan x="0" y="0">Help and Training</tspan></text>
          <g id="Group_8157" data-name="Group 8157">
            <rect id="Rectangle_5332" data-name="Rectangle 5332" width="20" height="20" fill="none"/>
            <g id="HelpTraining" transform="translate(1 0)">
              <path id="Path_5824" data-name="Path 5824" d="M11.942.5A9.085,9.085,0,0,0,6.024.5a8.919,8.919,0,0,0-2.417,1.25l-.583.5-.333.333A9,9,0,0,0,9.025,18h.5l-.417,1.667A.25.25,0,0,0,9.275,20h.083a10.28,10.28,0,0,0,8.669-10V9A9,9,0,0,0,11.942.5ZM9.108,15.916a1.25,1.25,0,1,1,1.25-1.25h0A1.25,1.25,0,0,1,9.108,15.916Zm2.667-6.752-1.084.917c-.667.5-.667.5-.667,1.334H8.108A3,3,0,0,1,9.442,8.581l.917-.834a2.167,2.167,0,0,0,.25-2.251,1.584,1.584,0,0,0-1.584-1c-1.75,0-1.917,1.917-1.917,2.167l-2-.167a4.057,4.057,0,0,1,4-4,3.584,3.584,0,0,1,3.417,2.251,4.084,4.084,0,0,1-.75,4.418Z" transform="translate(0)" fill="#494955"/>
            </g>
          </g>
        </g>
        <rect id="Rectangle_5956" data-name="Rectangle 5956" width="249.5" height="50" fill="none"/>
      </g>
      <text id="Home" transform="translate(59.859 32)" fill="#3d3d3d" font-size="14" font-family="SegoeUI, Segoe UI"><tspan x="0" y="0">Home</tspan></text>
    </g>
    <g id="Focus_form" data-name="Focus form" transform="translate(0 1)">
      <rect id="Rectangle_9769" data-name="Rectangle 9769" width="1670" height="60" transform="translate(250 64)" fill="#2777d3"/>
      <text id="Add_a_new_account" data-name="Add a new account" transform="translate(280 100.855)" fill="#fff" font-size="16" font-family="SegoeUI-Semibold, Segoe UI" font-weight="600"><tspan x="0" y="0">Add a new account</tspan></text>
      <g id="Link_Button" data-name="Link Button" transform="translate(1751 77.2)">
        <g id="Group_264143" data-name="Group 264143">
          <rect id="Rectangle_6075" data-name="Rectangle 6075" width="71" height="36" rx="18" fill="rgba(255,255,255,0)"/>
          <text id="Action" transform="translate(15 23)" fill="#2777d3" font-size="14" font-family="SegoeUI-Semibold, Segoe UI" font-weight="600"><tspan x="0" y="0">Action</tspan></text>
        </g>
      </g>
      <g id="Primary_button_-_blue_bkg" data-name="Primary button - blue bkg" transform="translate(1831 76)">
        <rect id="Rectangle_3990" data-name="Rectangle 3990" width="59" height="36" rx="18" fill="#fff"/>
        <text id="Save" transform="translate(15 23)" fill="#2777d3" font-size="14" font-family="SegoeUI-Semibold, Segoe UI" font-weight="600"><tspan x="0" y="0">Save</tspan></text>
      </g>
      <g id="Link_Button-2" data-name="Link Button" transform="translate(1751 77)">
        <g id="Group_264143-2" data-name="Group 264143">
          <rect id="Rectangle_6075-2" data-name="Rectangle 6075" width="69" height="34" rx="17" fill="rgba(255,255,255,0)"/>
          <text id="Cancel" transform="translate(15 22)" fill="#fff" font-size="13" font-family="SegoeUI-Semibold, Segoe UI" font-weight="600"><tspan x="0" y="0">Cancel</tspan></text>
        </g>
      </g>
    </g>
  </g>
</svg>
