<svg xmlns="http://www.w3.org/2000/svg" xmlns:xlink="http://www.w3.org/1999/xlink" width="900" height="315" viewBox="0 0 900 315">
  <defs>
    <clipPath id="clip-Inline_error_message">
      <rect width="900" height="315"/>
    </clipPath>
  </defs>
  <g id="Inline_error_message" data-name="Inline error message" clip-path="url(#clip-Inline_error_message)">
    <g id="Group_267423" data-name="Group 267423" transform="translate(0 -15)">
      <g id="Input_Field" data-name="Input Field" transform="translate(300 35)">
        <g id="Rectangle_288" data-name="Rectangle 288" transform="translate(0 23)" fill="#fff" stroke="#d93911" stroke-width="2">
          <rect width="300" height="42" rx="4" stroke="none"/>
          <rect x="1" y="1" width="298" height="40" rx="3" fill="none"/>
        </g>
        <path id="Path_101954" data-name="Path 101954" d="M6.262-8.764H2.434v3.391H5.975v1.032H2.434V0H1.285V-9.8H6.262Zm2.283-.014a.71.71,0,0,1-.513-.205A.692.692,0,0,1,7.82-9.5a.7.7,0,0,1,.212-.523.7.7,0,0,1,.513-.208.724.724,0,0,1,.523.208.7.7,0,0,1,.215.523.693.693,0,0,1-.215.513A.718.718,0,0,1,8.545-8.777ZM9.092,0H7.971V-7H9.092Zm5.92-5.865a1.371,1.371,0,0,0-.848-.226,1.431,1.431,0,0,0-1.2.677,3.129,3.129,0,0,0-.482,1.846V0H11.361V-7h1.121v1.442h.027a2.444,2.444,0,0,1,.731-1.152,1.668,1.668,0,0,1,1.1-.414,1.83,1.83,0,0,1,.67.1ZM15.8-.253v-1.2a3.318,3.318,0,0,0,2.017.677q1.477,0,1.477-.984a.854.854,0,0,0-.126-.475,1.26,1.26,0,0,0-.342-.345,2.631,2.631,0,0,0-.506-.27q-.291-.12-.625-.25a8.056,8.056,0,0,1-.817-.373,2.468,2.468,0,0,1-.588-.424,1.577,1.577,0,0,1-.355-.537,1.9,1.9,0,0,1-.12-.7,1.673,1.673,0,0,1,.226-.872,2,2,0,0,1,.6-.636,2.805,2.805,0,0,1,.858-.386,3.805,3.805,0,0,1,.995-.13,4.016,4.016,0,0,1,1.627.314v1.135a3.171,3.171,0,0,0-1.777-.506,2.078,2.078,0,0,0-.567.072,1.389,1.389,0,0,0-.434.2.932.932,0,0,0-.28.311.819.819,0,0,0-.1.4.959.959,0,0,0,.1.458,1.008,1.008,0,0,0,.291.328,2.221,2.221,0,0,0,.465.26q.273.116.622.253a8.658,8.658,0,0,1,.834.366,2.86,2.86,0,0,1,.629.424,1.656,1.656,0,0,1,.4.543,1.753,1.753,0,0,1,.14.731,1.725,1.725,0,0,1-.229.9,1.963,1.963,0,0,1-.612.636,2.8,2.8,0,0,1-.882.376,4.354,4.354,0,0,1-1.046.123A3.971,3.971,0,0,1,15.8-.253Zm9.611.185A2.161,2.161,0,0,1,24.37.15Q22.531.15,22.531-1.9V-6.043h-1.2V-7h1.2V-8.709l1.121-.362V-7h1.764v.957H23.652V-2.1a1.635,1.635,0,0,0,.239,1,.955.955,0,0,0,.793.3,1.179,1.179,0,0,0,.731-.232ZM35.759,0H34.638V-1.094H34.61A2.347,2.347,0,0,1,32.457.164,2.3,2.3,0,0,1,30.82-.39a1.918,1.918,0,0,1-.591-1.47q0-1.962,2.311-2.283l2.1-.294q0-1.784-1.442-1.784a3.446,3.446,0,0,0-2.283.861V-6.508a4.338,4.338,0,0,1,2.379-.656q2.468,0,2.468,2.611ZM34.638-3.541l-1.688.232a2.741,2.741,0,0,0-1.176.386,1.114,1.114,0,0,0-.4.981,1.068,1.068,0,0,0,.366.837,1.413,1.413,0,0,0,.974.325,1.8,1.8,0,0,0,1.377-.584,2.088,2.088,0,0,0,.543-1.48ZM43.682,0H42.561V-3.992q0-2.229-1.627-2.229a1.765,1.765,0,0,0-1.391.632,2.344,2.344,0,0,0-.55,1.6V0H37.871V-7h1.121v1.162h.027a2.526,2.526,0,0,1,2.3-1.326,2.142,2.142,0,0,1,1.757.742,3.3,3.3,0,0,1,.608,2.143Zm8.087,0H50.647V-1.189H50.62A2.588,2.588,0,0,1,48.214.164,2.615,2.615,0,0,1,46.1-.776a3.856,3.856,0,0,1-.79-2.56,4.2,4.2,0,0,1,.875-2.782,2.886,2.886,0,0,1,2.331-1.046,2.244,2.244,0,0,1,2.1,1.135h.027v-4.334h1.121ZM50.647-3.165V-4.2a2,2,0,0,0-.561-1.436,1.88,1.88,0,0,0-1.422-.588,1.936,1.936,0,0,0-1.613.752,3.3,3.3,0,0,0-.588,2.078,2.964,2.964,0,0,0,.564,1.911,1.843,1.843,0,0,0,1.514.7,1.915,1.915,0,0,0,1.521-.677A2.521,2.521,0,0,0,50.647-3.165ZM58.994,0H57.873V-10.363h1.121Zm7.28,0H65.153V-1.094h-.027A2.347,2.347,0,0,1,62.973.164,2.3,2.3,0,0,1,61.335-.39a1.918,1.918,0,0,1-.591-1.47q0-1.962,2.311-2.283l2.1-.294q0-1.784-1.442-1.784a3.446,3.446,0,0,0-2.283.861V-6.508a4.338,4.338,0,0,1,2.379-.656q2.468,0,2.468,2.611ZM65.153-3.541l-1.688.232a2.741,2.741,0,0,0-1.176.386,1.114,1.114,0,0,0-.4.981,1.068,1.068,0,0,0,.366.837,1.413,1.413,0,0,0,.974.325,1.8,1.8,0,0,0,1.377-.584,2.088,2.088,0,0,0,.543-1.48Zm2.81,3.288v-1.2a3.318,3.318,0,0,0,2.017.677q1.477,0,1.477-.984a.854.854,0,0,0-.126-.475,1.26,1.26,0,0,0-.342-.345,2.631,2.631,0,0,0-.506-.27q-.291-.12-.625-.25a8.056,8.056,0,0,1-.817-.373,2.468,2.468,0,0,1-.588-.424,1.577,1.577,0,0,1-.355-.537,1.9,1.9,0,0,1-.12-.7,1.673,1.673,0,0,1,.226-.872,2,2,0,0,1,.6-.636,2.805,2.805,0,0,1,.858-.386,3.805,3.805,0,0,1,.995-.13,4.016,4.016,0,0,1,1.627.314v1.135a3.171,3.171,0,0,0-1.777-.506,2.078,2.078,0,0,0-.567.072,1.389,1.389,0,0,0-.434.2.932.932,0,0,0-.28.311.819.819,0,0,0-.1.4.959.959,0,0,0,.1.458,1.008,1.008,0,0,0,.291.328,2.221,2.221,0,0,0,.465.26q.273.116.622.253a8.658,8.658,0,0,1,.834.366,2.86,2.86,0,0,1,.629.424,1.656,1.656,0,0,1,.4.543,1.753,1.753,0,0,1,.14.731,1.725,1.725,0,0,1-.229.9,1.963,1.963,0,0,1-.612.636,2.8,2.8,0,0,1-.882.376,4.354,4.354,0,0,1-1.046.123A3.971,3.971,0,0,1,67.963-.253Zm9.611.185A2.161,2.161,0,0,1,76.528.15Q74.689.15,74.689-1.9V-6.043h-1.2V-7h1.2V-8.709l1.121-.362V-7h1.764v.957H75.811V-2.1a1.635,1.635,0,0,0,.239,1,.955.955,0,0,0,.793.3,1.179,1.179,0,0,0,.731-.232ZM88.717,0H87.6V-3.992q0-2.229-1.627-2.229a1.765,1.765,0,0,0-1.391.632,2.344,2.344,0,0,0-.55,1.6V0H82.906V-7h1.121v1.162h.027a2.526,2.526,0,0,1,2.3-1.326,2.142,2.142,0,0,1,1.757.742,3.3,3.3,0,0,1,.608,2.143ZM95.84,0H94.719V-1.094h-.027A2.347,2.347,0,0,1,92.538.164,2.3,2.3,0,0,1,90.9-.39a1.918,1.918,0,0,1-.591-1.47q0-1.962,2.311-2.283l2.1-.294q0-1.784-1.442-1.784a3.446,3.446,0,0,0-2.283.861V-6.508a4.338,4.338,0,0,1,2.379-.656q2.468,0,2.468,2.611ZM94.719-3.541l-1.688.232a2.741,2.741,0,0,0-1.176.386,1.114,1.114,0,0,0-.4.981,1.068,1.068,0,0,0,.366.837,1.413,1.413,0,0,0,.974.325,1.8,1.8,0,0,0,1.377-.584,2.088,2.088,0,0,0,.543-1.48ZM107.892,0h-1.121V-4.02a3.032,3.032,0,0,0-.359-1.682,1.361,1.361,0,0,0-1.207-.52,1.494,1.494,0,0,0-1.22.656,2.511,2.511,0,0,0-.5,1.572V0h-1.121V-4.156q0-2.064-1.593-2.064a1.475,1.475,0,0,0-1.217.619,2.557,2.557,0,0,0-.479,1.61V0H97.952V-7h1.121v1.107H99.1a2.378,2.378,0,0,1,2.174-1.271,2.027,2.027,0,0,1,1.251.4,2.012,2.012,0,0,1,.731,1.049,2.5,2.5,0,0,1,2.324-1.449q2.311,0,2.311,2.851Zm7.745-3.22h-4.942a2.618,2.618,0,0,0,.629,1.8,2.168,2.168,0,0,0,1.654.636,3.439,3.439,0,0,0,2.174-.779V-.506a4.063,4.063,0,0,1-2.44.67A2.959,2.959,0,0,1,110.38-.79a3.9,3.9,0,0,1-.848-2.683,3.828,3.828,0,0,1,.926-2.663,2.97,2.97,0,0,1,2.3-1.029,2.632,2.632,0,0,1,2.126.889,3.705,3.705,0,0,1,.752,2.468Zm-1.148-.95a2.281,2.281,0,0,0-.468-1.511,1.6,1.6,0,0,0-1.282-.54,1.811,1.811,0,0,0-1.347.567,2.575,2.575,0,0,0-.684,1.483Z" transform="translate(15 50)" fill="#cbcbd2"/>
        <path id="Path_101952" data-name="Path 101952" d="M6.5-8.422H2.837v2.946H6.214V-4.1H2.837V0H1.21V-9.8H6.5ZM14.171,0H12.585V-1.107h-.027A2.282,2.282,0,0,1,10.411.164Q7.93.164,7.93-2.816V-7H9.516v4.02q0,1.887,1.456,1.887a1.471,1.471,0,0,0,1.159-.52,1.991,1.991,0,0,0,.455-1.36V-7h1.586Zm3.657,0H16.235V-10.363h1.593Zm3.657,0H19.893V-10.363h1.593ZM33.633,0H32.047V-3.944q0-1.962-1.388-1.962a1.515,1.515,0,0,0-1.2.543,2.016,2.016,0,0,0-.472,1.371V0H27.4V-7h1.593v1.162h.027a2.5,2.5,0,0,1,2.27-1.326,2.114,2.114,0,0,1,1.743.742,3.33,3.33,0,0,1,.6,2.143ZM40.94,0H39.4V-1.094h-.027A2.316,2.316,0,0,1,37.249.164,2.239,2.239,0,0,1,35.632-.4a1.961,1.961,0,0,1-.584-1.483q0-1.982,2.283-2.311l2.078-.294q0-1.5-1.422-1.5a3.378,3.378,0,0,0-2.256.861V-6.508a4.919,4.919,0,0,1,2.557-.656A2.326,2.326,0,0,1,40.94-4.553ZM39.409-3.438l-1.47.205a2.33,2.33,0,0,0-1.029.332.969.969,0,0,0-.345.851.932.932,0,0,0,.318.728,1.231,1.231,0,0,0,.851.284,1.57,1.57,0,0,0,1.2-.509,1.806,1.806,0,0,0,.475-1.282ZM53.341,0H51.755V-3.814a3.091,3.091,0,0,0-.311-1.593A1.144,1.144,0,0,0,50.395-5.9a1.265,1.265,0,0,0-1.056.622,2.538,2.538,0,0,0-.434,1.49V0H47.312V-3.944q0-1.955-1.381-1.955a1.246,1.246,0,0,0-1.056.588,2.592,2.592,0,0,0-.414,1.524V0H42.875V-7h1.586v1.107h.027A2.425,2.425,0,0,1,46.7-7.164a2.082,2.082,0,0,1,1.268.4,1.992,1.992,0,0,1,.742,1.049A2.5,2.5,0,0,1,51.03-7.164q2.311,0,2.311,2.851ZM61.2-3.069H56.431a2.017,2.017,0,0,0,.6,1.5,2.225,2.225,0,0,0,1.569.526,3.459,3.459,0,0,0,2.058-.67V-.437a4.7,4.7,0,0,1-2.529.6A3.131,3.131,0,0,1,55.7-.79a3.814,3.814,0,0,1-.878-2.683,3.73,3.73,0,0,1,.967-2.663,3.164,3.164,0,0,1,2.4-1.029,2.759,2.759,0,0,1,2.222.923A3.832,3.832,0,0,1,61.2-3.678ZM59.671-4.19a2.044,2.044,0,0,0-.4-1.33A1.348,1.348,0,0,0,58.174-6a1.539,1.539,0,0,0-1.159.5,2.28,2.28,0,0,0-.584,1.306Z" transform="translate(0 15)" fill="#31313a"/>
        <path id="Path_101953" data-name="Path 101953" d="M5.367-7.512H2.086v2.906H5.121v.885H2.086V0H1.1V-8.4H5.367ZM11.684,0h-.961V-.949H10.7A1.973,1.973,0,0,1,8.848.141Q6.7.141,6.7-2.414V-6h.955v3.434q0,1.9,1.453,1.9a1.47,1.47,0,0,0,1.157-.519,1.984,1.984,0,0,0,.454-1.356V-6h.961Zm2.9,0h-.961V-8.883h.961ZM17.49,0h-.961V-8.883h.961ZM27.7,0h-.961V-3.422q0-1.91-1.395-1.91a1.513,1.513,0,0,0-1.192.542,2.009,2.009,0,0,0-.472,1.368V0h-.961V-6h.961v1h.023a2.166,2.166,0,0,1,1.969-1.137,1.836,1.836,0,0,1,1.506.636A2.832,2.832,0,0,1,27.7-3.668Zm6.105,0h-.961V-.937h-.023A2.012,2.012,0,0,1,30.979.141a1.973,1.973,0,0,1-1.4-.475,1.644,1.644,0,0,1-.507-1.26q0-1.682,1.98-1.957l1.8-.252q0-1.529-1.236-1.529a2.954,2.954,0,0,0-1.957.738v-.984a3.718,3.718,0,0,1,2.039-.562q2.115,0,2.115,2.238Zm-.961-3.035-1.447.2a2.35,2.35,0,0,0-1.008.331.955.955,0,0,0-.34.841.916.916,0,0,0,.313.718,1.211,1.211,0,0,0,.835.278,1.542,1.542,0,0,0,1.181-.5,1.79,1.79,0,0,0,.466-1.269ZM44.139,0h-.961V-3.445a2.6,2.6,0,0,0-.308-1.441,1.167,1.167,0,0,0-1.034-.445,1.281,1.281,0,0,0-1.046.563,2.152,2.152,0,0,0-.431,1.348V0H39.4V-3.562q0-1.77-1.365-1.77a1.265,1.265,0,0,0-1.043.53,2.192,2.192,0,0,0-.41,1.38V0h-.961V-6h.961v.949H36.6a2.038,2.038,0,0,1,1.863-1.09,1.737,1.737,0,0,1,1.072.343,1.724,1.724,0,0,1,.627.9,2.141,2.141,0,0,1,1.992-1.242q1.98,0,1.98,2.443Zm6.639-2.76H46.541a2.244,2.244,0,0,0,.539,1.547A1.858,1.858,0,0,0,48.5-.668a2.948,2.948,0,0,0,1.863-.668v.9A3.482,3.482,0,0,1,48.27.141a2.536,2.536,0,0,1-2-.817,3.346,3.346,0,0,1-.727-2.3,3.281,3.281,0,0,1,.794-2.282,2.546,2.546,0,0,1,1.972-.882,2.256,2.256,0,0,1,1.822.762,3.176,3.176,0,0,1,.645,2.115Zm-.984-.814a1.955,1.955,0,0,0-.4-1.295,1.368,1.368,0,0,0-1.1-.463,1.552,1.552,0,0,0-1.154.486,2.207,2.207,0,0,0-.586,1.271ZM56.01-7.523A.609.609,0,0,1,55.57-7.7a.593.593,0,0,1-.182-.445.6.6,0,0,1,.182-.448.6.6,0,0,1,.439-.179.621.621,0,0,1,.448.179.6.6,0,0,1,.185.448.594.594,0,0,1-.185.439A.615.615,0,0,1,56.01-7.523ZM56.479,0h-.961V-6h.961Zm1.582-.217V-1.248a2.844,2.844,0,0,0,1.729.58q1.266,0,1.266-.844a.732.732,0,0,0-.108-.407,1.08,1.08,0,0,0-.293-.3,2.255,2.255,0,0,0-.434-.231q-.249-.1-.536-.214a6.9,6.9,0,0,1-.7-.319,2.115,2.115,0,0,1-.5-.363,1.352,1.352,0,0,1-.3-.46,1.627,1.627,0,0,1-.1-.6,1.434,1.434,0,0,1,.193-.747,1.715,1.715,0,0,1,.516-.545,2.4,2.4,0,0,1,.735-.331,3.262,3.262,0,0,1,.853-.111,3.442,3.442,0,0,1,1.395.27V-4.9a2.718,2.718,0,0,0-1.523-.434,1.781,1.781,0,0,0-.486.062,1.191,1.191,0,0,0-.372.173.8.8,0,0,0-.24.267.7.7,0,0,0-.085.343.822.822,0,0,0,.085.393.864.864,0,0,0,.249.281,1.9,1.9,0,0,0,.4.223q.234.1.533.217a7.421,7.421,0,0,1,.715.313,2.452,2.452,0,0,1,.539.363,1.42,1.42,0,0,1,.343.466,1.5,1.5,0,0,1,.12.627,1.478,1.478,0,0,1-.2.773,1.682,1.682,0,0,1-.524.545,2.4,2.4,0,0,1-.756.322,3.732,3.732,0,0,1-.9.105A3.4,3.4,0,0,1,58.061-.217ZM69.932-5.027a1.175,1.175,0,0,0-.727-.193,1.226,1.226,0,0,0-1.028.58,2.682,2.682,0,0,0-.413,1.582V0H66.8V-6h.961v1.236h.023a2.1,2.1,0,0,1,.627-.987,1.43,1.43,0,0,1,.943-.354,1.569,1.569,0,0,1,.574.082ZM75.8-2.76H71.561A2.244,2.244,0,0,0,72.1-1.213a1.858,1.858,0,0,0,1.418.545,2.948,2.948,0,0,0,1.863-.668v.9a3.482,3.482,0,0,1-2.092.574,2.536,2.536,0,0,1-2-.817,3.346,3.346,0,0,1-.727-2.3,3.281,3.281,0,0,1,.794-2.282,2.546,2.546,0,0,1,1.972-.882,2.256,2.256,0,0,1,1.822.762A3.176,3.176,0,0,1,75.8-3.264Zm-.984-.814a1.955,1.955,0,0,0-.4-1.295,1.368,1.368,0,0,0-1.1-.463,1.552,1.552,0,0,0-1.154.486,2.207,2.207,0,0,0-.586,1.271ZM82.371,2.76H81.41V-1.031h-.023A2.15,2.15,0,0,1,79.336.141a2.258,2.258,0,0,1-1.813-.806,3.286,3.286,0,0,1-.683-2.194,3.593,3.593,0,0,1,.75-2.388,2.5,2.5,0,0,1,2.016-.894,1.892,1.892,0,0,1,1.781.973h.023V-6h.961ZM81.41-2.7v-.873a1.746,1.746,0,0,0-.483-1.248,1.619,1.619,0,0,0-1.228-.51,1.65,1.65,0,0,0-1.371.642,2.864,2.864,0,0,0-.5,1.808,2.481,2.481,0,0,0,.486,1.626,1.552,1.552,0,0,0,1.254.589,1.691,1.691,0,0,0,1.345-.577A2.141,2.141,0,0,0,81.41-2.7ZM89.168,0h-.961V-.949h-.023A1.973,1.973,0,0,1,86.332.141q-2.145,0-2.145-2.555V-6h.955v3.434q0,1.9,1.453,1.9a1.47,1.47,0,0,0,1.157-.519,1.984,1.984,0,0,0,.454-1.356V-6h.961ZM91.6-7.523A.609.609,0,0,1,91.16-7.7a.593.593,0,0,1-.182-.445.6.6,0,0,1,.182-.448.6.6,0,0,1,.439-.179.621.621,0,0,1,.448.179.6.6,0,0,1,.185.448.594.594,0,0,1-.185.439A.615.615,0,0,1,91.6-7.523ZM92.068,0h-.961V-6h.961Zm5.074-5.027a1.175,1.175,0,0,0-.727-.193,1.226,1.226,0,0,0-1.028.58,2.682,2.682,0,0,0-.413,1.582V0h-.961V-6h.961v1.236H95a2.1,2.1,0,0,1,.627-.987,1.43,1.43,0,0,1,.943-.354,1.569,1.569,0,0,1,.574.082Zm5.865,2.268H98.771a2.244,2.244,0,0,0,.539,1.547,1.858,1.858,0,0,0,1.418.545,2.948,2.948,0,0,0,1.863-.668v.9A3.482,3.482,0,0,1,100.5.141a2.536,2.536,0,0,1-2-.817,3.346,3.346,0,0,1-.727-2.3,3.281,3.281,0,0,1,.794-2.282,2.546,2.546,0,0,1,1.972-.882,2.256,2.256,0,0,1,1.822.762,3.176,3.176,0,0,1,.645,2.115Zm-.984-.814a1.955,1.955,0,0,0-.4-1.295,1.368,1.368,0,0,0-1.1-.463,1.552,1.552,0,0,0-1.154.486,2.207,2.207,0,0,0-.586,1.271ZM109.582,0h-.961V-1.02H108.6a2.218,2.218,0,0,1-2.062,1.16,2.241,2.241,0,0,1-1.808-.806,3.305,3.305,0,0,1-.677-2.194,3.6,3.6,0,0,1,.75-2.385,2.474,2.474,0,0,1,2-.9,1.923,1.923,0,0,1,1.8.973h.023V-8.883h.961Zm-.961-2.713V-3.6a1.717,1.717,0,0,0-.48-1.23,1.612,1.612,0,0,0-1.219-.5,1.659,1.659,0,0,0-1.383.645,2.824,2.824,0,0,0-.5,1.781,2.54,2.54,0,0,0,.483,1.638,1.58,1.58,0,0,0,1.3.6,1.641,1.641,0,0,0,1.3-.58A2.161,2.161,0,0,0,108.621-2.713Zm3.24,2.842a.622.622,0,0,1-.46-.193.636.636,0,0,1-.19-.463.646.646,0,0,1,.19-.466.617.617,0,0,1,.46-.2.634.634,0,0,1,.469.2.641.641,0,0,1,.193.466.632.632,0,0,1-.193.463A.638.638,0,0,1,111.861.129Z" transform="translate(0 82)" fill="#d93911"/>
        <path id="Path_101951" data-name="Path 101951" d="M5.332-7.547l-1.873.383L4.758-5.5l-.752.52L2.939-6.795,1.859-4.983,1.107-5.5l1.3-1.661L.52-7.547.827-8.4l1.791.677L2.461-9.8H3.4L3.247-7.725l1.8-.677Z" transform="translate(61 12)" fill="#78788c"/>
      </g>
      <g id="Input_Field-2" data-name="Input Field" transform="translate(300 140)">
        <g id="Rectangle_288-2" data-name="Rectangle 288" transform="translate(0 23)" fill="#fff" stroke="#cbcbd2" stroke-width="1">
          <rect width="300" height="42" rx="4" stroke="none"/>
          <rect x="0.5" y="0.5" width="299" height="41" rx="3.5" fill="none"/>
        </g>
        <path id="Path_101956" data-name="Path 101956" d="M9.953-7l-2.1,7H6.692L5.25-5.011a3.265,3.265,0,0,1-.109-.649H5.113a3.066,3.066,0,0,1-.144.636L3.4,0H2.283L.164-7H1.34L2.789-1.736a3.171,3.171,0,0,1,.1.629h.055a2.942,2.942,0,0,1,.123-.643L4.676-7H5.7L7.15-1.723a3.768,3.768,0,0,1,.1.629h.055a2.909,2.909,0,0,1,.116-.629L8.846-7ZM20.07-7l-2.1,7H16.81L15.367-5.011a3.265,3.265,0,0,1-.109-.649H15.23a3.066,3.066,0,0,1-.144.636L13.521,0H12.4L10.281-7h1.176l1.449,5.264a3.171,3.171,0,0,1,.1.629h.055a2.942,2.942,0,0,1,.123-.643L14.793-7h1.025l1.449,5.277a3.768,3.768,0,0,1,.1.629h.055a2.909,2.909,0,0,1,.116-.629L18.963-7ZM30.188-7l-2.1,7H26.927L25.484-5.011a3.265,3.265,0,0,1-.109-.649h-.027a3.066,3.066,0,0,1-.144.636L23.639,0H22.518L20.4-7h1.176l1.449,5.264a3.171,3.171,0,0,1,.1.629h.055A2.942,2.942,0,0,1,23.3-1.75L24.91-7h1.025l1.449,5.277a3.768,3.768,0,0,1,.1.629h.055a2.909,2.909,0,0,1,.116-.629L29.08-7ZM31.876.15a.726.726,0,0,1-.537-.226.742.742,0,0,1-.222-.54.754.754,0,0,1,.222-.543.72.72,0,0,1,.537-.229.739.739,0,0,1,.547.229.748.748,0,0,1,.226.543.737.737,0,0,1-.226.54A.745.745,0,0,1,31.876.15ZM39.4-6.679,35.26-.957h4.1V0H33.612V-.349l4.143-5.694H34V-7h5.4ZM46.423-7,43.2,1.121q-.861,2.174-2.42,2.174a2.565,2.565,0,0,1-.731-.089v-1a2.078,2.078,0,0,0,.663.123,1.374,1.374,0,0,0,1.271-1.012l.561-1.326L39.813-7h1.244L42.95-1.613q.034.1.144.533h.041q.034-.164.137-.52L45.261-7ZM56.444-7l-2.1,7H53.184L51.741-5.011a3.265,3.265,0,0,1-.109-.649H51.6a3.066,3.066,0,0,1-.144.636L49.9,0H48.774L46.655-7h1.176L49.28-1.736a3.171,3.171,0,0,1,.1.629h.055a2.942,2.942,0,0,1,.123-.643L51.167-7h1.025l1.449,5.277a3.767,3.767,0,0,1,.1.629H53.8a2.909,2.909,0,0,1,.116-.629L55.337-7Zm6.31,7H61.633V-1.094h-.027A2.347,2.347,0,0,1,59.452.164,2.3,2.3,0,0,1,57.815-.39a1.918,1.918,0,0,1-.591-1.47q0-1.962,2.311-2.283l2.1-.294q0-1.784-1.442-1.784a3.446,3.446,0,0,0-2.283.861V-6.508a4.338,4.338,0,0,1,2.379-.656q2.468,0,2.468,2.611ZM61.633-3.541l-1.688.232a2.741,2.741,0,0,0-1.176.386,1.114,1.114,0,0,0-.4.981,1.068,1.068,0,0,0,.366.837,1.413,1.413,0,0,0,.974.325,1.8,1.8,0,0,0,1.377-.584,2.088,2.088,0,0,0,.543-1.48ZM70.369-7,67.58,0h-1.1L63.827-7h1.23l1.777,5.086a4.565,4.565,0,0,1,.246.978h.027a4.622,4.622,0,0,1,.219-.95L69.187-7ZM77.2-3.22H72.256a2.618,2.618,0,0,0,.629,1.8,2.168,2.168,0,0,0,1.654.636,3.439,3.439,0,0,0,2.174-.779V-.506a4.063,4.063,0,0,1-2.44.67A2.959,2.959,0,0,1,71.941-.79a3.9,3.9,0,0,1-.848-2.683,3.828,3.828,0,0,1,.926-2.663,2.97,2.97,0,0,1,2.3-1.029,2.632,2.632,0,0,1,2.126.889A3.705,3.705,0,0,1,77.2-3.808ZM76.05-4.17a2.281,2.281,0,0,0-.468-1.511,1.6,1.6,0,0,0-1.282-.54,1.811,1.811,0,0,0-1.347.567A2.575,2.575,0,0,0,72.27-4.17ZM79.283.15a.726.726,0,0,1-.537-.226.742.742,0,0,1-.222-.54.754.754,0,0,1,.222-.543.72.72,0,0,1,.537-.229.739.739,0,0,1,.547.229.748.748,0,0,1,.226.543.737.737,0,0,1-.226.54A.745.745,0,0,1,79.283.15ZM86.7-.321a3.643,3.643,0,0,1-1.914.485A3.169,3.169,0,0,1,82.37-.81a3.53,3.53,0,0,1-.919-2.526,3.881,3.881,0,0,1,.991-2.779,3.467,3.467,0,0,1,2.646-1.049,3.682,3.682,0,0,1,1.627.342v1.148a2.85,2.85,0,0,0-1.668-.547,2.254,2.254,0,0,0-1.76.769,2.918,2.918,0,0,0-.687,2.02,2.779,2.779,0,0,0,.646,1.941,2.227,2.227,0,0,0,1.733.711A2.81,2.81,0,0,0,86.7-1.388Zm4.621.485a3.247,3.247,0,0,1-2.478-.981,3.633,3.633,0,0,1-.926-2.6,3.785,3.785,0,0,1,.964-2.755,3.465,3.465,0,0,1,2.6-.991,3.14,3.14,0,0,1,2.444.964,3.822,3.822,0,0,1,.878,2.673,3.761,3.761,0,0,1-.947,2.683A3.317,3.317,0,0,1,91.321.164ZM91.4-6.221a2.132,2.132,0,0,0-1.709.735,3.018,3.018,0,0,0-.629,2.027A2.854,2.854,0,0,0,89.7-1.5a2.161,2.161,0,0,0,1.7.718,2.049,2.049,0,0,0,1.671-.7,3.055,3.055,0,0,0,.584-2,3.108,3.108,0,0,0-.584-2.023A2.04,2.04,0,0,0,91.4-6.221ZM106.538,0h-1.121V-4.02a3.032,3.032,0,0,0-.359-1.682,1.361,1.361,0,0,0-1.207-.52,1.494,1.494,0,0,0-1.22.656,2.511,2.511,0,0,0-.5,1.572V0h-1.121V-4.156q0-2.064-1.593-2.064A1.475,1.475,0,0,0,98.2-5.6a2.557,2.557,0,0,0-.479,1.61V0H96.6V-7H97.72v1.107h.027a2.378,2.378,0,0,1,2.174-1.271,2.027,2.027,0,0,1,1.251.4,2.012,2.012,0,0,1,.731,1.049,2.5,2.5,0,0,1,2.324-1.449q2.311,0,2.311,2.851Z" transform="translate(15 50)" fill="#31313a"/>
        <path id="Path_101955" data-name="Path 101955" d="M13.371-9.8,10.685,0H8.846L6.979-6.856a4.687,4.687,0,0,1-.144-.957H6.809a4.644,4.644,0,0,1-.164.943L4.771,0H2.892L.15-9.8H1.935L3.712-2.625a5.228,5.228,0,0,1,.137.943h.034a5.352,5.352,0,0,1,.191-.943L6.084-9.8H7.759L9.618-2.57a5.648,5.648,0,0,1,.144.875h.027a5.372,5.372,0,0,1,.157-.9L11.689-9.8Zm6.754,6.733H15.354a2.017,2.017,0,0,0,.6,1.5,2.225,2.225,0,0,0,1.569.526,3.459,3.459,0,0,0,2.058-.67V-.437a4.7,4.7,0,0,1-2.529.6A3.131,3.131,0,0,1,14.625-.79a3.814,3.814,0,0,1-.878-2.683,3.73,3.73,0,0,1,.967-2.663,3.164,3.164,0,0,1,2.4-1.029,2.759,2.759,0,0,1,2.222.923,3.832,3.832,0,0,1,.786,2.563ZM18.594-4.19a2.044,2.044,0,0,0-.4-1.33A1.348,1.348,0,0,0,17.1-6a1.539,1.539,0,0,0-1.159.5,2.28,2.28,0,0,0-.584,1.306Zm4.655,3.179h-.027V0H21.636V-10.363h1.586V-5.77h.027a2.6,2.6,0,0,1,2.379-1.395,2.5,2.5,0,0,1,2.075.94,3.93,3.93,0,0,1,.749,2.519A4.387,4.387,0,0,1,27.61-.892a2.777,2.777,0,0,1-2.3,1.056A2.255,2.255,0,0,1,23.249-1.012Zm-.041-2.782v.868a1.852,1.852,0,0,0,.489,1.3,1.61,1.61,0,0,0,1.241.533,1.621,1.621,0,0,0,1.384-.687,3.2,3.2,0,0,0,.5-1.917,2.52,2.52,0,0,0-.468-1.617A1.539,1.539,0,0,0,25.088-5.9a1.709,1.709,0,0,0-1.364.6A2.228,2.228,0,0,0,23.208-3.794ZM39.293,0H37.755V-1.094h-.027A2.316,2.316,0,0,1,35.6.164,2.239,2.239,0,0,1,33.985-.4,1.961,1.961,0,0,1,33.4-1.88q0-1.982,2.283-2.311l2.078-.294q0-1.5-1.422-1.5a3.378,3.378,0,0,0-2.256.861V-6.508a4.919,4.919,0,0,1,2.557-.656,2.326,2.326,0,0,1,2.652,2.611ZM37.762-3.438l-1.47.205a2.33,2.33,0,0,0-1.029.332.969.969,0,0,0-.345.851.932.932,0,0,0,.318.728,1.231,1.231,0,0,0,.851.284,1.57,1.57,0,0,0,1.2-.509,1.806,1.806,0,0,0,.475-1.282ZM47.592,0H46.006V-1.189h-.027A2.53,2.53,0,0,1,43.62.164a2.546,2.546,0,0,1-2.068-.94,3.9,3.9,0,0,1-.776-2.56,4.251,4.251,0,0,1,.858-2.782,2.808,2.808,0,0,1,2.287-1.046,2.19,2.19,0,0,1,2.058,1.135h.027v-4.334h1.586ZM46.026-3.2v-.916a1.785,1.785,0,0,0-.485-1.265A1.619,1.619,0,0,0,44.3-5.9a1.666,1.666,0,0,0-1.4.663A2.955,2.955,0,0,0,42.4-3.4a2.648,2.648,0,0,0,.489,1.685,1.59,1.59,0,0,0,1.316.619,1.646,1.646,0,0,0,1.319-.6A2.253,2.253,0,0,0,46.026-3.2Zm10,3.2H54.441V-1.189h-.027A2.53,2.53,0,0,1,52.056.164a2.546,2.546,0,0,1-2.068-.94,3.9,3.9,0,0,1-.776-2.56,4.251,4.251,0,0,1,.858-2.782,2.808,2.808,0,0,1,2.287-1.046,2.19,2.19,0,0,1,2.058,1.135h.027v-4.334h1.586ZM54.462-3.2v-.916a1.785,1.785,0,0,0-.485-1.265,1.619,1.619,0,0,0-1.237-.52,1.666,1.666,0,0,0-1.4.663A2.955,2.955,0,0,0,50.832-3.4a2.648,2.648,0,0,0,.489,1.685,1.59,1.59,0,0,0,1.316.619,1.646,1.646,0,0,0,1.319-.6A2.253,2.253,0,0,0,54.462-3.2Zm7.7-2.29a1.315,1.315,0,0,0-.827-.226,1.416,1.416,0,0,0-1.176.636,2.843,2.843,0,0,0-.472,1.729V0H58.1V-7h1.586v1.442h.027a2.439,2.439,0,0,1,.714-1.152A1.612,1.612,0,0,1,61.5-7.123a1.337,1.337,0,0,1,.656.13Zm6.925,2.42H64.313a2.017,2.017,0,0,0,.6,1.5,2.225,2.225,0,0,0,1.569.526,3.459,3.459,0,0,0,2.058-.67V-.437a4.7,4.7,0,0,1-2.529.6A3.131,3.131,0,0,1,63.584-.79a3.814,3.814,0,0,1-.878-2.683,3.73,3.73,0,0,1,.967-2.663,3.164,3.164,0,0,1,2.4-1.029,2.759,2.759,0,0,1,2.222.923,3.832,3.832,0,0,1,.786,2.563ZM67.553-4.19a2.044,2.044,0,0,0-.4-1.33A1.348,1.348,0,0,0,66.056-6a1.539,1.539,0,0,0-1.159.5,2.28,2.28,0,0,0-.584,1.306Zm2.6,3.972v-1.47a3.164,3.164,0,0,0,1.962.677q1.436,0,1.436-.848a.668.668,0,0,0-.123-.407,1.175,1.175,0,0,0-.332-.3,2.607,2.607,0,0,0-.492-.232q-.284-.1-.632-.232a6.694,6.694,0,0,1-.776-.362,2.344,2.344,0,0,1-.574-.434,1.639,1.639,0,0,1-.345-.55,2.026,2.026,0,0,1-.116-.718,1.659,1.659,0,0,1,.239-.892,2.079,2.079,0,0,1,.643-.649,3.081,3.081,0,0,1,.916-.4,4.194,4.194,0,0,1,1.06-.133,4.817,4.817,0,0,1,1.736.294v1.388a2.927,2.927,0,0,0-1.7-.506,2.214,2.214,0,0,0-.543.062,1.4,1.4,0,0,0-.414.171.841.841,0,0,0-.267.263.628.628,0,0,0-.1.338.723.723,0,0,0,.1.383.869.869,0,0,0,.284.277,2.451,2.451,0,0,0,.451.219q.263.1.6.215a8.839,8.839,0,0,1,.81.376,2.737,2.737,0,0,1,.612.434,1.7,1.7,0,0,1,.39.561,1.9,1.9,0,0,1,.137.755,1.727,1.727,0,0,1-.246.93,2.051,2.051,0,0,1-.656.656,3.072,3.072,0,0,1-.947.386,4.919,4.919,0,0,1-1.131.126A4.767,4.767,0,0,1,70.157-.219Zm6.036,0v-1.47a3.164,3.164,0,0,0,1.962.677q1.436,0,1.436-.848a.668.668,0,0,0-.123-.407,1.175,1.175,0,0,0-.332-.3,2.607,2.607,0,0,0-.492-.232q-.284-.1-.632-.232a6.694,6.694,0,0,1-.776-.362,2.344,2.344,0,0,1-.574-.434,1.639,1.639,0,0,1-.345-.55,2.026,2.026,0,0,1-.116-.718,1.659,1.659,0,0,1,.239-.892,2.079,2.079,0,0,1,.643-.649,3.081,3.081,0,0,1,.916-.4,4.194,4.194,0,0,1,1.06-.133,4.817,4.817,0,0,1,1.736.294v1.388a2.927,2.927,0,0,0-1.7-.506,2.214,2.214,0,0,0-.543.062,1.4,1.4,0,0,0-.414.171.841.841,0,0,0-.267.263.628.628,0,0,0-.1.338.723.723,0,0,0,.1.383.869.869,0,0,0,.284.277,2.451,2.451,0,0,0,.451.219q.263.1.6.215a8.839,8.839,0,0,1,.81.376,2.737,2.737,0,0,1,.612.434,1.7,1.7,0,0,1,.39.561,1.9,1.9,0,0,1,.137.755,1.727,1.727,0,0,1-.246.93,2.051,2.051,0,0,1-.656.656,3.072,3.072,0,0,1-.947.386,4.919,4.919,0,0,1-1.131.126A4.767,4.767,0,0,1,76.193-.219Z" transform="translate(0 15)" fill="#31313a"/>
      </g>
      <g id="Input_Field-3" data-name="Input Field" transform="translate(300 225)">
        <g id="Rectangle_288-3" data-name="Rectangle 288" transform="translate(0 23)" fill="#fff" stroke="#d93911" stroke-width="2">
          <rect width="300" height="42" rx="4" stroke="none"/>
          <rect x="1" y="1" width="298" height="40" rx="3" fill="none"/>
        </g>
        <path id="Path_101958" data-name="Path 101958" d="M6.146,0H5.024V-1.094H5A2.347,2.347,0,0,1,2.844.164,2.3,2.3,0,0,1,1.207-.39a1.918,1.918,0,0,1-.591-1.47q0-1.962,2.311-2.283l2.1-.294q0-1.784-1.442-1.784A3.446,3.446,0,0,0,1.3-5.359V-6.508a4.338,4.338,0,0,1,2.379-.656q2.468,0,2.468,2.611ZM5.024-3.541l-1.688.232a2.741,2.741,0,0,0-1.176.386,1.114,1.114,0,0,0-.4.981,1.068,1.068,0,0,0,.366.837A1.413,1.413,0,0,0,3.1-.779a1.8,1.8,0,0,0,1.377-.584,2.088,2.088,0,0,0,.543-1.48ZM9.406-1.012H9.379V0H8.258V-10.363H9.379V-5.77h.027a2.651,2.651,0,0,1,2.42-1.395,2.566,2.566,0,0,1,2.109.94A3.881,3.881,0,0,1,14.7-3.705a4.339,4.339,0,0,1-.854,2.813A2.845,2.845,0,0,1,11.5.164,2.3,2.3,0,0,1,9.406-1.012ZM9.379-3.835v.978a2.081,2.081,0,0,0,.564,1.473,1.873,1.873,0,0,0,1.432.6,1.876,1.876,0,0,0,1.6-.779,3.575,3.575,0,0,0,.578-2.167,2.822,2.822,0,0,0-.54-1.832,1.787,1.787,0,0,0-1.463-.663,1.986,1.986,0,0,0-1.572.68A2.5,2.5,0,0,0,9.379-3.835ZM21.26-.321a3.643,3.643,0,0,1-1.914.485A3.169,3.169,0,0,1,16.929-.81a3.53,3.53,0,0,1-.919-2.526A3.881,3.881,0,0,1,17-6.115a3.467,3.467,0,0,1,2.646-1.049,3.682,3.682,0,0,1,1.627.342v1.148a2.85,2.85,0,0,0-1.668-.547,2.254,2.254,0,0,0-1.76.769,2.918,2.918,0,0,0-.687,2.02A2.779,2.779,0,0,0,17.8-1.49a2.227,2.227,0,0,0,1.733.711,2.81,2.81,0,0,0,1.723-.608Z" transform="translate(15 50)" fill="#31313a"/>
        <path id="Path_101957" data-name="Path 101957" d="M2.83-3.555V0H1.21V-9.8H4.184A3.939,3.939,0,0,1,6.8-9.017,2.741,2.741,0,0,1,7.731-6.8a3.06,3.06,0,0,1-.971,2.338,3.686,3.686,0,0,1-2.625.909Zm0-4.908v3.582H3.883a2.328,2.328,0,0,0,1.593-.485,1.732,1.732,0,0,0,.547-1.367q0-1.729-2.01-1.729ZM15.436,0H13.85V-3.828q0-2.078-1.388-2.078a1.451,1.451,0,0,0-1.176.6,2.394,2.394,0,0,0-.479,1.538V0H9.215V-10.363h1.593v4.525h.027A2.5,2.5,0,0,1,13.1-7.164q2.331,0,2.331,2.851Zm5.031.164a3.47,3.47,0,0,1-2.587-.981,3.544,3.544,0,0,1-.967-2.6A3.687,3.687,0,0,1,17.92-6.173a3.708,3.708,0,0,1,2.717-.991,3.358,3.358,0,0,1,2.557.964,3.723,3.723,0,0,1,.916,2.673,3.669,3.669,0,0,1-.988,2.683A3.548,3.548,0,0,1,20.467.164ZM20.542-5.9a1.81,1.81,0,0,0-1.47.649,2.719,2.719,0,0,0-.54,1.791,2.561,2.561,0,0,0,.547,1.733,1.837,1.837,0,0,0,1.463.632,1.743,1.743,0,0,0,1.439-.622,2.754,2.754,0,0,0,.5-1.771,2.8,2.8,0,0,0-.5-1.784A1.734,1.734,0,0,0,20.542-5.9ZM31.958,0H30.372V-3.944q0-1.962-1.388-1.962a1.515,1.515,0,0,0-1.2.543,2.016,2.016,0,0,0-.472,1.371V0H25.724V-7h1.593v1.162h.027a2.5,2.5,0,0,1,2.27-1.326,2.114,2.114,0,0,1,1.743.742,3.33,3.33,0,0,1,.6,2.143Zm7.861-3.069H35.048a2.017,2.017,0,0,0,.6,1.5,2.225,2.225,0,0,0,1.569.526,3.459,3.459,0,0,0,2.058-.67V-.437a4.7,4.7,0,0,1-2.529.6A3.131,3.131,0,0,1,34.32-.79a3.814,3.814,0,0,1-.878-2.683,3.73,3.73,0,0,1,.967-2.663,3.164,3.164,0,0,1,2.4-1.029,2.759,2.759,0,0,1,2.222.923,3.832,3.832,0,0,1,.786,2.563ZM38.288-4.19a2.044,2.044,0,0,0-.4-1.33A1.348,1.348,0,0,0,36.791-6a1.539,1.539,0,0,0-1.159.5,2.28,2.28,0,0,0-.584,1.306ZM51.413,0H49.827V-3.944q0-1.962-1.388-1.962a1.515,1.515,0,0,0-1.2.543,2.016,2.016,0,0,0-.472,1.371V0H45.179V-7h1.593v1.162H46.8a2.5,2.5,0,0,1,2.27-1.326,2.114,2.114,0,0,1,1.743.742,3.33,3.33,0,0,1,.6,2.143Zm8.039,0H57.866V-1.107h-.027A2.282,2.282,0,0,1,55.692.164q-2.481,0-2.481-2.98V-7H54.8v4.02q0,1.887,1.456,1.887a1.471,1.471,0,0,0,1.159-.52,1.991,1.991,0,0,0,.455-1.36V-7h1.586Zm12.53,0H70.4V-3.814a3.091,3.091,0,0,0-.311-1.593A1.144,1.144,0,0,0,69.036-5.9a1.265,1.265,0,0,0-1.056.622,2.538,2.538,0,0,0-.434,1.49V0H65.953V-3.944q0-1.955-1.381-1.955a1.246,1.246,0,0,0-1.056.588A2.592,2.592,0,0,0,63.1-3.787V0H61.517V-7H63.1v1.107h.027a2.425,2.425,0,0,1,2.208-1.271,2.082,2.082,0,0,1,1.268.4,1.992,1.992,0,0,1,.742,1.049,2.5,2.5,0,0,1,2.324-1.449q2.311,0,2.311,2.851ZM75.53-1.012H75.5V0H73.917V-10.363H75.5V-5.77h.027a2.6,2.6,0,0,1,2.379-1.395,2.5,2.5,0,0,1,2.075.94,3.93,3.93,0,0,1,.749,2.519,4.387,4.387,0,0,1-.841,2.813,2.777,2.777,0,0,1-2.3,1.056A2.255,2.255,0,0,1,75.53-1.012Zm-.041-2.782v.868a1.852,1.852,0,0,0,.489,1.3,1.61,1.61,0,0,0,1.241.533A1.621,1.621,0,0,0,78.6-1.781a3.2,3.2,0,0,0,.5-1.917,2.52,2.52,0,0,0-.468-1.617A1.539,1.539,0,0,0,77.369-5.9a1.709,1.709,0,0,0-1.364.6A2.228,2.228,0,0,0,75.489-3.794Zm12.79.725H83.508a2.017,2.017,0,0,0,.6,1.5,2.225,2.225,0,0,0,1.569.526,3.459,3.459,0,0,0,2.058-.67V-.437a4.7,4.7,0,0,1-2.529.6A3.131,3.131,0,0,1,82.78-.79,3.814,3.814,0,0,1,81.9-3.473a3.73,3.73,0,0,1,.967-2.663,3.164,3.164,0,0,1,2.4-1.029,2.759,2.759,0,0,1,2.222.923,3.832,3.832,0,0,1,.786,2.563ZM86.748-4.19a2.044,2.044,0,0,0-.4-1.33A1.348,1.348,0,0,0,85.251-6a1.539,1.539,0,0,0-1.159.5,2.28,2.28,0,0,0-.584,1.306Zm7.1-1.3a1.315,1.315,0,0,0-.827-.226,1.416,1.416,0,0,0-1.176.636,2.843,2.843,0,0,0-.472,1.729V0H89.79V-7h1.586v1.442H91.4a2.438,2.438,0,0,1,.714-1.152,1.612,1.612,0,0,1,1.077-.414,1.337,1.337,0,0,1,.656.13Z" transform="translate(0 15)" fill="#31313a"/>
        <path id="Path_101959" data-name="Path 101959" d="M7.348-8.4,4.236,0H3.152L.105-8.4H1.2L3.527-1.74A3.956,3.956,0,0,1,3.7-1h.023a3.65,3.65,0,0,1,.193-.756L6.287-8.4ZM11.842,0h-.961V-.937h-.023A2.012,2.012,0,0,1,9.012.141a1.973,1.973,0,0,1-1.4-.475A1.644,1.644,0,0,1,7.1-1.594q0-1.682,1.98-1.957l1.8-.252q0-1.529-1.236-1.529a2.954,2.954,0,0,0-1.957.738v-.984a3.718,3.718,0,0,1,2.039-.562q2.115,0,2.115,2.238Zm-.961-3.035-1.447.2A2.35,2.35,0,0,0,8.426-2.5a.955.955,0,0,0-.34.841A.916.916,0,0,0,8.4-.946a1.211,1.211,0,0,0,.835.278,1.542,1.542,0,0,0,1.181-.5,1.79,1.79,0,0,0,.466-1.269ZM14.613,0h-.961V-8.883h.961Zm6.8,0h-.961V-.949h-.023A1.973,1.973,0,0,1,18.574.141q-2.145,0-2.145-2.555V-6h.955v3.434q0,1.9,1.453,1.9A1.47,1.47,0,0,0,20-1.187a1.984,1.984,0,0,0,.454-1.356V-6h.961Zm6.762-2.76H23.936a2.244,2.244,0,0,0,.539,1.547,1.858,1.858,0,0,0,1.418.545,2.948,2.948,0,0,0,1.863-.668v.9a3.482,3.482,0,0,1-2.092.574,2.536,2.536,0,0,1-2-.817,3.346,3.346,0,0,1-.727-2.3,3.281,3.281,0,0,1,.794-2.282,2.546,2.546,0,0,1,1.972-.882,2.256,2.256,0,0,1,1.822.762,3.176,3.176,0,0,1,.645,2.115Zm-.984-.814a1.955,1.955,0,0,0-.4-1.295,1.368,1.368,0,0,0-1.1-.463,1.552,1.552,0,0,0-1.154.486,2.207,2.207,0,0,0-.586,1.271Zm10.547.814H33.5a2.244,2.244,0,0,0,.539,1.547,1.858,1.858,0,0,0,1.418.545,2.948,2.948,0,0,0,1.863-.668v.9a3.482,3.482,0,0,1-2.092.574,2.536,2.536,0,0,1-2-.817,3.346,3.346,0,0,1-.727-2.3A3.281,3.281,0,0,1,33.3-5.259a2.546,2.546,0,0,1,1.972-.882,2.256,2.256,0,0,1,1.822.762,3.176,3.176,0,0,1,.645,2.115Zm-.984-.814a1.955,1.955,0,0,0-.4-1.295,1.368,1.368,0,0,0-1.1-.463,1.552,1.552,0,0,0-1.154.486,2.207,2.207,0,0,0-.586,1.271ZM44.168,0h-.961V-3.422q0-1.91-1.395-1.91a1.513,1.513,0,0,0-1.192.542,2.009,2.009,0,0,0-.472,1.368V0h-.961V-6h.961v1h.023a2.166,2.166,0,0,1,1.969-1.137,1.836,1.836,0,0,1,1.506.636,2.832,2.832,0,0,1,.521,1.837Zm4.594-.059a1.853,1.853,0,0,1-.9.188q-1.576,0-1.576-1.758V-5.18H45.258V-6h1.031V-7.465l.961-.311V-6h1.512v.82H47.25V-1.8a1.4,1.4,0,0,0,.205.861.818.818,0,0,0,.68.258,1.01,1.01,0,0,0,.627-.2Zm6.105-2.7H50.631a2.244,2.244,0,0,0,.539,1.547,1.858,1.858,0,0,0,1.418.545,2.948,2.948,0,0,0,1.863-.668v.9a3.482,3.482,0,0,1-2.092.574,2.536,2.536,0,0,1-2-.817,3.346,3.346,0,0,1-.727-2.3,3.281,3.281,0,0,1,.794-2.282A2.546,2.546,0,0,1,52.4-6.141a2.256,2.256,0,0,1,1.822.762,3.176,3.176,0,0,1,.645,2.115Zm-.984-.814a1.955,1.955,0,0,0-.4-1.295,1.368,1.368,0,0,0-1.1-.463,1.552,1.552,0,0,0-1.154.486,2.207,2.207,0,0,0-.586,1.271Zm5.566-1.453a1.175,1.175,0,0,0-.727-.193,1.226,1.226,0,0,0-1.028.58,2.682,2.682,0,0,0-.413,1.582V0H56.32V-6h.961v1.236H57.3a2.1,2.1,0,0,1,.627-.987,1.43,1.43,0,0,1,.943-.354,1.569,1.569,0,0,1,.574.082ZM65.314-2.76H61.078a2.244,2.244,0,0,0,.539,1.547,1.858,1.858,0,0,0,1.418.545A2.948,2.948,0,0,0,64.9-1.336v.9a3.482,3.482,0,0,1-2.092.574,2.536,2.536,0,0,1-2-.817,3.346,3.346,0,0,1-.727-2.3,3.281,3.281,0,0,1,.794-2.282,2.546,2.546,0,0,1,1.972-.882,2.256,2.256,0,0,1,1.822.762,3.176,3.176,0,0,1,.645,2.115Zm-.984-.814a1.955,1.955,0,0,0-.4-1.295,1.368,1.368,0,0,0-1.1-.463,1.552,1.552,0,0,0-1.154.486,2.207,2.207,0,0,0-.586,1.271ZM71.889,0h-.961V-1.02H70.9A2.218,2.218,0,0,1,68.842.141a2.241,2.241,0,0,1-1.808-.806,3.305,3.305,0,0,1-.677-2.194,3.6,3.6,0,0,1,.75-2.385,2.474,2.474,0,0,1,2-.9,1.923,1.923,0,0,1,1.8.973h.023V-8.883h.961Zm-.961-2.713V-3.6a1.717,1.717,0,0,0-.48-1.23,1.612,1.612,0,0,0-1.219-.5,1.659,1.659,0,0,0-1.383.645,2.824,2.824,0,0,0-.5,1.781,2.54,2.54,0,0,0,.483,1.638,1.58,1.58,0,0,0,1.3.6,1.641,1.641,0,0,0,1.3-.58A2.161,2.161,0,0,0,70.928-2.713ZM85.641,0H84.68V-3.445a2.6,2.6,0,0,0-.308-1.441,1.167,1.167,0,0,0-1.034-.445,1.281,1.281,0,0,0-1.046.563,2.152,2.152,0,0,0-.431,1.348V0H80.9V-3.562q0-1.77-1.365-1.77a1.265,1.265,0,0,0-1.043.53,2.192,2.192,0,0,0-.41,1.38V0h-.961V-6h.961v.949h.023a2.038,2.038,0,0,1,1.863-1.09,1.737,1.737,0,0,1,1.072.343,1.724,1.724,0,0,1,.627.9A2.141,2.141,0,0,1,83.66-6.141q1.98,0,1.98,2.443Zm6.668,0h-.961V-.949h-.023A1.973,1.973,0,0,1,89.473.141q-2.145,0-2.145-2.555V-6h.955v3.434q0,1.9,1.453,1.9a1.47,1.47,0,0,0,1.157-.519,1.984,1.984,0,0,0,.454-1.356V-6h.961Zm1.576-.217V-1.248a2.844,2.844,0,0,0,1.729.58q1.266,0,1.266-.844a.732.732,0,0,0-.108-.407,1.08,1.08,0,0,0-.293-.3,2.255,2.255,0,0,0-.434-.231q-.249-.1-.536-.214a6.9,6.9,0,0,1-.7-.319,2.115,2.115,0,0,1-.5-.363A1.352,1.352,0,0,1,94-3.8a1.627,1.627,0,0,1-.1-.6,1.434,1.434,0,0,1,.193-.747,1.715,1.715,0,0,1,.516-.545,2.4,2.4,0,0,1,.735-.331,3.262,3.262,0,0,1,.853-.111,3.442,3.442,0,0,1,1.395.27V-4.9a2.718,2.718,0,0,0-1.523-.434,1.781,1.781,0,0,0-.486.062,1.191,1.191,0,0,0-.372.173.8.8,0,0,0-.24.267.7.7,0,0,0-.085.343.822.822,0,0,0,.085.393.864.864,0,0,0,.249.281,1.9,1.9,0,0,0,.4.223q.234.1.533.217a7.421,7.421,0,0,1,.715.313A2.452,2.452,0,0,1,97.4-2.7a1.42,1.42,0,0,1,.343.466,1.5,1.5,0,0,1,.12.627,1.478,1.478,0,0,1-.2.773,1.682,1.682,0,0,1-.524.545,2.4,2.4,0,0,1-.756.322,3.732,3.732,0,0,1-.9.105A3.4,3.4,0,0,1,93.885-.217Zm8.238.158a1.853,1.853,0,0,1-.9.188q-1.576,0-1.576-1.758V-5.18H98.619V-6H99.65V-7.465l.961-.311V-6h1.512v.82h-1.512V-1.8a1.4,1.4,0,0,0,.205.861.818.818,0,0,0,.68.258,1.01,1.01,0,0,0,.627-.2Zm5.555-.809h-.023V0h-.961V-8.883h.961v3.938h.023a2.272,2.272,0,0,1,2.074-1.2,2.2,2.2,0,0,1,1.808.806,3.327,3.327,0,0,1,.653,2.159,3.719,3.719,0,0,1-.732,2.411,2.439,2.439,0,0,1-2,.905A1.974,1.974,0,0,1,107.678-.867Zm-.023-2.42v.838a1.784,1.784,0,0,0,.483,1.263,1.605,1.605,0,0,0,1.228.519,1.608,1.608,0,0,0,1.368-.668,3.064,3.064,0,0,0,.5-1.857,2.419,2.419,0,0,0-.463-1.57,1.532,1.532,0,0,0-1.254-.568,1.7,1.7,0,0,0-1.348.583A2.141,2.141,0,0,0,107.654-3.287Zm10.916.527h-4.236a2.244,2.244,0,0,0,.539,1.547,1.858,1.858,0,0,0,1.418.545,2.948,2.948,0,0,0,1.863-.668v.9a3.482,3.482,0,0,1-2.092.574,2.536,2.536,0,0,1-2-.817,3.346,3.346,0,0,1-.727-2.3,3.281,3.281,0,0,1,.794-2.282,2.546,2.546,0,0,1,1.972-.882,2.256,2.256,0,0,1,1.822.762,3.176,3.176,0,0,1,.645,2.115Zm-.984-.814a1.955,1.955,0,0,0-.4-1.295,1.368,1.368,0,0,0-1.1-.463,1.552,1.552,0,0,0-1.154.486,2.207,2.207,0,0,0-.586,1.271ZM128.291,0h-.961V-3.422q0-1.91-1.395-1.91a1.513,1.513,0,0,0-1.192.542,2.009,2.009,0,0,0-.472,1.368V0h-.961V-6h.961v1h.023a2.166,2.166,0,0,1,1.969-1.137,1.836,1.836,0,0,1,1.506.636,2.832,2.832,0,0,1,.521,1.837Zm6.662,0h-.961V-.949h-.023a1.973,1.973,0,0,1-1.852,1.09q-2.145,0-2.145-2.555V-6h.955v3.434q0,1.9,1.453,1.9a1.47,1.47,0,0,0,1.157-.519,1.984,1.984,0,0,0,.454-1.356V-6h.961Zm10.459,0h-.961V-3.445a2.6,2.6,0,0,0-.308-1.441,1.167,1.167,0,0,0-1.034-.445,1.281,1.281,0,0,0-1.046.563,2.152,2.152,0,0,0-.431,1.348V0h-.961V-3.562q0-1.77-1.365-1.77a1.265,1.265,0,0,0-1.043.53,2.192,2.192,0,0,0-.41,1.38V0h-.961V-6h.961v.949h.023a2.038,2.038,0,0,1,1.863-1.09,1.737,1.737,0,0,1,1.072.343,1.724,1.724,0,0,1,.627.9,2.141,2.141,0,0,1,1.992-1.242q1.98,0,1.98,2.443Zm6.639-2.76h-4.236a2.244,2.244,0,0,0,.539,1.547,1.858,1.858,0,0,0,1.418.545,2.948,2.948,0,0,0,1.863-.668v.9a3.482,3.482,0,0,1-2.092.574,2.536,2.536,0,0,1-2-.817,3.346,3.346,0,0,1-.727-2.3,3.281,3.281,0,0,1,.794-2.282,2.546,2.546,0,0,1,1.972-.882,2.256,2.256,0,0,1,1.822.762,3.176,3.176,0,0,1,.645,2.115Zm-.984-.814a1.955,1.955,0,0,0-.4-1.295,1.368,1.368,0,0,0-1.1-.463,1.552,1.552,0,0,0-1.154.486,2.207,2.207,0,0,0-.586,1.271Zm5.566-1.453a1.175,1.175,0,0,0-.727-.193,1.226,1.226,0,0,0-1.028.58,2.682,2.682,0,0,0-.413,1.582V0H153.5V-6h.961v1.236h.023a2.1,2.1,0,0,1,.627-.987,1.43,1.43,0,0,1,.943-.354,1.569,1.569,0,0,1,.574.082Zm1.535-2.5a.609.609,0,0,1-.439-.176.593.593,0,0,1-.182-.445.6.6,0,0,1,.182-.448.6.6,0,0,1,.439-.179.621.621,0,0,1,.448.179.6.6,0,0,1,.185.448.594.594,0,0,1-.185.439A.615.615,0,0,1,158.168-7.523ZM158.637,0h-.961V-6h.961Zm6.035-.275a3.122,3.122,0,0,1-1.641.416,2.716,2.716,0,0,1-2.071-.835,3.026,3.026,0,0,1-.788-2.165,3.326,3.326,0,0,1,.85-2.382,2.972,2.972,0,0,1,2.268-.9,3.156,3.156,0,0,1,1.395.293v.984a2.443,2.443,0,0,0-1.43-.469,1.932,1.932,0,0,0-1.509.659,2.5,2.5,0,0,0-.589,1.731,2.382,2.382,0,0,0,.554,1.664,1.909,1.909,0,0,0,1.485.609,2.408,2.408,0,0,0,1.477-.521Zm1.787.4A.622.622,0,0,1,166-.064a.636.636,0,0,1-.19-.463A.646.646,0,0,1,166-.993a.617.617,0,0,1,.46-.2.634.634,0,0,1,.469.2.641.641,0,0,1,.193.466.632.632,0,0,1-.193.463A.638.638,0,0,1,166.459.129Z" transform="translate(0 82)" fill="#d93911"/>
      </g>
    </g>
  </g>
</svg>
