<svg xmlns="http://www.w3.org/2000/svg" xmlns:xlink="http://www.w3.org/1999/xlink" width="900" height="102" viewBox="0 0 900 102">
  <defs>
    <clipPath id="clip-Inline_message_file_upload_error">
      <rect width="900" height="102"/>
    </clipPath>
  </defs>
  <g id="Inline_message_file_upload_error" data-name="Inline message file upload error" clip-path="url(#clip-Inline_message_file_upload_error)">
    <g id="Group_267433" data-name="Group 267433" transform="translate(0 3)">
      <g id="Group_13274" data-name="Group 13274" transform="translate(312 17)">
        <g id="Group_13272" data-name="Group 13272" transform="translate(-472 -555)">
          <g id="Input-_no_label" data-name="Input- no label" transform="translate(474 555)">
            <g id="Rectangle_288" data-name="Rectangle 288" fill="#fff" stroke="#d93911" stroke-width="2">
              <rect width="274" height="40" rx="4" stroke="none"/>
              <rect x="-1" y="-1" width="276" height="42" rx="5" fill="none"/>
            </g>
          </g>
          <path id="Rectangle_10372" data-name="Rectangle 10372" d="M4,0h98a0,0,0,0,1,0,0V40a0,0,0,0,1,0,0H4a4,4,0,0,1-4-4V4A4,4,0,0,1,4,0Z" transform="translate(474 555)" fill="#f4f4f6"/>
          <path id="Path_101931" data-name="Path 101931" d="M-21.759,0V-9.8h3.11a3.675,3.675,0,0,1,2.252.622,1.934,1.934,0,0,1,.831,1.62,2.313,2.313,0,0,1-.472,1.449,2.545,2.545,0,0,1-1.306.875v.027a2.558,2.558,0,0,1,1.617.749,2.28,2.28,0,0,1,.6,1.644,2.469,2.469,0,0,1-.991,2.037,3.924,3.924,0,0,1-2.5.779Zm1.62-8.5v2.789h1.053a2.022,2.022,0,0,0,1.33-.4,1.388,1.388,0,0,0,.482-1.131q0-1.258-1.682-1.258Zm0,4.095v3.1h1.388a2.11,2.11,0,0,0,1.4-.42,1.438,1.438,0,0,0,.5-1.159q0-1.524-2.112-1.524ZM-9.42-5.489a1.315,1.315,0,0,0-.827-.226,1.416,1.416,0,0,0-1.176.636,2.843,2.843,0,0,0-.472,1.729V0H-13.48V-7h1.586v1.442h.027a2.439,2.439,0,0,1,.714-1.152,1.612,1.612,0,0,1,1.077-.414,1.337,1.337,0,0,1,.656.13Zm4.1,5.653A3.47,3.47,0,0,1-7.906-.817a3.544,3.544,0,0,1-.967-2.6A3.687,3.687,0,0,1-7.865-6.173a3.708,3.708,0,0,1,2.717-.991A3.358,3.358,0,0,1-2.591-6.2a3.723,3.723,0,0,1,.916,2.673A3.669,3.669,0,0,1-2.663-.844,3.548,3.548,0,0,1-5.318.164ZM-5.243-5.9a1.81,1.81,0,0,0-1.47.649,2.719,2.719,0,0,0-.54,1.791,2.561,2.561,0,0,0,.547,1.733,1.837,1.837,0,0,0,1.463.632A1.743,1.743,0,0,0-3.8-1.716a2.754,2.754,0,0,0,.5-1.771,2.8,2.8,0,0,0-.5-1.784A1.734,1.734,0,0,0-5.243-5.9ZM9.352-7,7.287,0H5.626L4.354-4.744a3,3,0,0,1-.1-.615H4.231a2.8,2.8,0,0,1-.123.6L2.728,0H1.1L-.957-7H.684L1.955-1.955a2.989,2.989,0,0,1,.082.6h.048a3.249,3.249,0,0,1,.109-.615L3.609-7H5.1L6.357-1.935a3.543,3.543,0,0,1,.089.6h.048a3.19,3.19,0,0,1,.1-.6L7.841-7ZM10.09-.219v-1.47a3.164,3.164,0,0,0,1.962.677q1.436,0,1.436-.848a.668.668,0,0,0-.123-.407,1.175,1.175,0,0,0-.332-.3,2.607,2.607,0,0,0-.492-.232q-.284-.1-.632-.232a6.694,6.694,0,0,1-.776-.362,2.344,2.344,0,0,1-.574-.434,1.639,1.639,0,0,1-.345-.55,2.026,2.026,0,0,1-.116-.718,1.659,1.659,0,0,1,.239-.892,2.079,2.079,0,0,1,.643-.649,3.081,3.081,0,0,1,.916-.4,4.194,4.194,0,0,1,1.06-.133,4.817,4.817,0,0,1,1.736.294v1.388A2.927,2.927,0,0,0,13-5.988a2.214,2.214,0,0,0-.543.062,1.4,1.4,0,0,0-.414.171.841.841,0,0,0-.267.263.628.628,0,0,0-.1.338.723.723,0,0,0,.1.383.869.869,0,0,0,.284.277,2.45,2.45,0,0,0,.451.219q.263.1.6.215a8.839,8.839,0,0,1,.81.376,2.737,2.737,0,0,1,.612.434,1.7,1.7,0,0,1,.39.561,1.9,1.9,0,0,1,.137.755,1.727,1.727,0,0,1-.246.93,2.051,2.051,0,0,1-.656.656,3.072,3.072,0,0,1-.947.386,4.918,4.918,0,0,1-1.131.126A4.767,4.767,0,0,1,10.09-.219Zm12.4-2.851H17.719a2.017,2.017,0,0,0,.6,1.5,2.225,2.225,0,0,0,1.569.526,3.459,3.459,0,0,0,2.058-.67V-.437a4.7,4.7,0,0,1-2.529.6A3.131,3.131,0,0,1,16.991-.79a3.814,3.814,0,0,1-.878-2.683,3.73,3.73,0,0,1,.967-2.663,3.164,3.164,0,0,1,2.4-1.029,2.759,2.759,0,0,1,2.222.923,3.832,3.832,0,0,1,.786,2.563ZM20.959-4.19a2.044,2.044,0,0,0-.4-1.33A1.348,1.348,0,0,0,19.462-6a1.539,1.539,0,0,0-1.159.5,2.28,2.28,0,0,0-.584,1.306Z" transform="translate(538 580)" fill="#2777d3"/>
          <g id="Upload" transform="translate(497 575)">
            <g id="Upload-2" data-name="Upload" transform="translate(-8 -8)">
              <g id="Group_267442" data-name="Group 267442">
                <path id="Path_101929" data-name="Path 101929" d="M8.2,4.1H7.8L4.3,7.8a.2.2,0,0,0,0,.3l.9,1h.3L7.1,7.5v8.3a.2.2,0,0,0,.2.2H8.7a.2.2,0,0,0,.2-.2V7.5l1.6,1.7h.3l.9-1a.2.2,0,0,0,0-.3Z" fill="#2777d3"/>
                <rect id="Rectangle_10368" data-name="Rectangle 10368" width="16" height="2" rx="0.5" transform="translate(16 2) rotate(180)" fill="#2777d3"/>
              </g>
              <rect id="Rectangle_10369" data-name="Rectangle 10369" width="16" height="16" transform="translate(16 16) rotate(180)" fill="none"/>
            </g>
          </g>
        </g>
        <line id="Line_2072" data-name="Line 2072" y2="39" transform="translate(103.5 0.5)" fill="none" stroke="#cbcbd2" stroke-linecap="square" stroke-width="1"/>
      </g>
      <path id="Path_101932" data-name="Path 101932" d="M4.92-6.886H1.912v2.664H4.694v.811H1.912V0h-.9V-7.7H4.92ZM6.714-6.9a.558.558,0,0,1-.4-.161.544.544,0,0,1-.167-.408.553.553,0,0,1,.167-.411.553.553,0,0,1,.4-.164.569.569,0,0,1,.411.164.548.548,0,0,1,.169.411.544.544,0,0,1-.169.4A.564.564,0,0,1,6.714-6.9ZM7.144,0H6.263V-5.5h.881ZM9.808,0H8.927V-8.143h.881Zm6.2-2.53H12.128a2.057,2.057,0,0,0,.494,1.418,1.7,1.7,0,0,0,1.3.5,2.7,2.7,0,0,0,1.708-.612V-.4a3.192,3.192,0,0,1-1.917.526A2.325,2.325,0,0,1,11.881-.62a3.067,3.067,0,0,1-.666-2.108,3.007,3.007,0,0,1,.728-2.092,2.334,2.334,0,0,1,1.807-.808,2.068,2.068,0,0,1,1.67.7,2.911,2.911,0,0,1,.591,1.939Zm-.9-.747a1.792,1.792,0,0,0-.368-1.187,1.254,1.254,0,0,0-1.007-.424,1.423,1.423,0,0,0-1.058.446,2.023,2.023,0,0,0-.537,1.166ZM28.166,0h-.881V-3.158A2.383,2.383,0,0,0,27-4.479a1.069,1.069,0,0,0-.948-.408,1.174,1.174,0,0,0-.959.516A1.973,1.973,0,0,0,24.7-3.137V0h-.881V-3.266q0-1.622-1.251-1.622a1.159,1.159,0,0,0-.956.486,2.009,2.009,0,0,0-.376,1.265V0h-.881V-5.5h.881v.87h.021a1.869,1.869,0,0,1,1.708-1,1.593,1.593,0,0,1,.983.314,1.581,1.581,0,0,1,.575.824,1.963,1.963,0,0,1,1.826-1.139q1.815,0,1.815,2.24Zm6.112,0H33.4V-.87h-.021a1.809,1.809,0,0,1-1.7,1q-1.966,0-1.966-2.342V-5.5h.875v3.147q0,1.74,1.332,1.74a1.348,1.348,0,0,0,1.061-.475A1.819,1.819,0,0,0,33.4-2.331V-5.5h.881Zm1.445-.2v-.945a2.607,2.607,0,0,0,1.584.532q1.16,0,1.16-.773a.671.671,0,0,0-.1-.373A.99.99,0,0,0,38.1-2.03a2.067,2.067,0,0,0-.4-.212q-.228-.094-.491-.2a6.33,6.33,0,0,1-.642-.293,1.939,1.939,0,0,1-.462-.333,1.239,1.239,0,0,1-.279-.422,1.492,1.492,0,0,1-.094-.553,1.314,1.314,0,0,1,.177-.685,1.572,1.572,0,0,1,.473-.5,2.2,2.2,0,0,1,.674-.3,2.99,2.99,0,0,1,.781-.1,3.156,3.156,0,0,1,1.278.247v.892a2.491,2.491,0,0,0-1.4-.4,1.632,1.632,0,0,0-.446.056,1.091,1.091,0,0,0-.341.158.732.732,0,0,0-.22.244.644.644,0,0,0-.078.314.754.754,0,0,0,.078.36.792.792,0,0,0,.228.258,1.745,1.745,0,0,0,.365.2q.215.091.489.2a6.8,6.8,0,0,1,.655.287,2.247,2.247,0,0,1,.494.333,1.3,1.3,0,0,1,.314.427,1.377,1.377,0,0,1,.11.575,1.355,1.355,0,0,1-.18.709,1.542,1.542,0,0,1-.481.5,2.2,2.2,0,0,1-.693.3,3.421,3.421,0,0,1-.822.1A3.12,3.12,0,0,1,35.723-.2Zm7.552.145a1.7,1.7,0,0,1-.822.172q-1.445,0-1.445-1.611V-4.748h-.945V-5.5h.945V-6.843l.881-.285V-5.5h1.386v.752H41.889v3.1a1.285,1.285,0,0,0,.188.79.75.75,0,0,0,.623.236.926.926,0,0,0,.575-.183Zm5.092-.741h-.021V0h-.881V-8.143h.881v3.609h.021a2.083,2.083,0,0,1,1.9-1.1,2.016,2.016,0,0,1,1.657.739,3.049,3.049,0,0,1,.6,1.979A3.409,3.409,0,0,1,51.853-.7a2.235,2.235,0,0,1-1.837.83A1.809,1.809,0,0,1,48.367-.795Zm-.021-2.218v.768a1.635,1.635,0,0,0,.443,1.157,1.471,1.471,0,0,0,1.125.475,1.474,1.474,0,0,0,1.254-.612,2.809,2.809,0,0,0,.454-1.7A2.217,2.217,0,0,0,51.2-4.367a1.4,1.4,0,0,0-1.149-.521,1.561,1.561,0,0,0-1.235.534A1.962,1.962,0,0,0,48.345-3.013Zm10.006.483H54.468a2.057,2.057,0,0,0,.494,1.418,1.7,1.7,0,0,0,1.3.5,2.7,2.7,0,0,0,1.708-.612V-.4a3.192,3.192,0,0,1-1.917.526A2.325,2.325,0,0,1,54.221-.62a3.067,3.067,0,0,1-.666-2.108,3.007,3.007,0,0,1,.728-2.092,2.334,2.334,0,0,1,1.807-.808,2.068,2.068,0,0,1,1.67.7,2.911,2.911,0,0,1,.591,1.939Zm-.9-.747a1.792,1.792,0,0,0-.368-1.187,1.254,1.254,0,0,0-1.007-.424,1.423,1.423,0,0,0-1.058.446,2.023,2.023,0,0,0-.537,1.166ZM63.578,0H62.7V-8.143h.881Zm6.2-2.53H65.9a2.057,2.057,0,0,0,.494,1.418,1.7,1.7,0,0,0,1.3.5A2.7,2.7,0,0,0,69.4-1.225V-.4a3.192,3.192,0,0,1-1.917.526A2.325,2.325,0,0,1,65.651-.62a3.067,3.067,0,0,1-.666-2.108,3.007,3.007,0,0,1,.728-2.092,2.334,2.334,0,0,1,1.807-.808,2.068,2.068,0,0,1,1.67.7,2.911,2.911,0,0,1,.591,1.939Zm-.9-.747a1.792,1.792,0,0,0-.368-1.187A1.254,1.254,0,0,0,67.5-4.888a1.423,1.423,0,0,0-1.058.446,2.023,2.023,0,0,0-.537,1.166ZM70.78-.2v-.945a2.607,2.607,0,0,0,1.584.532q1.16,0,1.16-.773a.671.671,0,0,0-.1-.373.99.99,0,0,0-.269-.271,2.067,2.067,0,0,0-.4-.212q-.228-.094-.491-.2a6.33,6.33,0,0,1-.642-.293,1.939,1.939,0,0,1-.462-.333,1.239,1.239,0,0,1-.279-.422,1.492,1.492,0,0,1-.094-.553,1.314,1.314,0,0,1,.177-.685,1.572,1.572,0,0,1,.473-.5,2.2,2.2,0,0,1,.674-.3,2.99,2.99,0,0,1,.781-.1,3.156,3.156,0,0,1,1.278.247v.892a2.491,2.491,0,0,0-1.4-.4,1.632,1.632,0,0,0-.446.056,1.091,1.091,0,0,0-.341.158.732.732,0,0,0-.22.244.644.644,0,0,0-.078.314.754.754,0,0,0,.078.36A.792.792,0,0,0,72-3.5a1.745,1.745,0,0,0,.365.2q.215.091.489.2a6.8,6.8,0,0,1,.655.287A2.247,2.247,0,0,1,74-2.473a1.3,1.3,0,0,1,.314.427,1.377,1.377,0,0,1,.11.575,1.355,1.355,0,0,1-.18.709,1.542,1.542,0,0,1-.481.5,2.2,2.2,0,0,1-.693.3,3.421,3.421,0,0,1-.822.1A3.12,3.12,0,0,1,70.78-.2Zm4.667,0v-.945a2.607,2.607,0,0,0,1.584.532q1.16,0,1.16-.773a.671.671,0,0,0-.1-.373.99.99,0,0,0-.269-.271,2.067,2.067,0,0,0-.4-.212q-.228-.094-.491-.2a6.33,6.33,0,0,1-.642-.293,1.939,1.939,0,0,1-.462-.333,1.239,1.239,0,0,1-.279-.422,1.492,1.492,0,0,1-.094-.553,1.314,1.314,0,0,1,.177-.685,1.572,1.572,0,0,1,.473-.5,2.2,2.2,0,0,1,.674-.3,2.99,2.99,0,0,1,.781-.1,3.156,3.156,0,0,1,1.278.247v.892a2.491,2.491,0,0,0-1.4-.4A1.632,1.632,0,0,0,77-4.831a1.091,1.091,0,0,0-.341.158.732.732,0,0,0-.22.244.644.644,0,0,0-.078.314.754.754,0,0,0,.078.36.792.792,0,0,0,.228.258,1.745,1.745,0,0,0,.365.2q.215.091.489.2a6.8,6.8,0,0,1,.655.287,2.247,2.247,0,0,1,.494.333,1.3,1.3,0,0,1,.314.427,1.377,1.377,0,0,1,.11.575,1.355,1.355,0,0,1-.18.709,1.542,1.542,0,0,1-.481.5,2.2,2.2,0,0,1-.693.3,3.421,3.421,0,0,1-.822.1A3.12,3.12,0,0,1,75.448-.2Zm10.565.145a1.7,1.7,0,0,1-.822.172q-1.445,0-1.445-1.611V-4.748H82.8V-5.5h.945V-6.843l.881-.285V-5.5h1.386v.752H84.627v3.1a1.285,1.285,0,0,0,.188.79.75.75,0,0,0,.623.236.926.926,0,0,0,.575-.183ZM91.754,0h-.881V-3.169q0-1.719-1.278-1.719a1.394,1.394,0,0,0-1.085.5,1.851,1.851,0,0,0-.44,1.276V0h-.881V-8.143h.881v3.556h.021a2,2,0,0,1,1.8-1.042q1.858,0,1.858,2.24Zm5.6,0H96.47V-.859h-.021a1.844,1.844,0,0,1-1.692.988A1.808,1.808,0,0,1,93.47-.306a1.507,1.507,0,0,1-.465-1.155q0-1.542,1.815-1.794l1.649-.231q0-1.4-1.133-1.4a2.708,2.708,0,0,0-1.794.677v-.9a3.408,3.408,0,0,1,1.869-.516q1.939,0,1.939,2.052ZM96.47-2.782,95.144-2.6a2.154,2.154,0,0,0-.924.3.875.875,0,0,0-.312.771.839.839,0,0,0,.287.658,1.11,1.11,0,0,0,.765.255,1.414,1.414,0,0,0,1.082-.459,1.641,1.641,0,0,0,.427-1.163ZM103.576,0H102.7V-3.137q0-1.751-1.278-1.751a1.387,1.387,0,0,0-1.093.5,1.842,1.842,0,0,0-.432,1.254V0h-.881V-5.5h.881v.913h.021a1.985,1.985,0,0,1,1.8-1.042,1.683,1.683,0,0,1,1.38.583,2.6,2.6,0,0,1,.478,1.684Zm8.986-2.353a2.592,2.592,0,0,1-.193,1.021,2.231,2.231,0,0,1-.551.784,2.465,2.465,0,0,1-.862.5,3.371,3.371,0,0,1-1.123.177,3.1,3.1,0,0,1-1.6-.322v-.935a2.933,2.933,0,0,0,1.606.5,2.173,2.173,0,0,0,.755-.124,1.677,1.677,0,0,0,.572-.344,1.472,1.472,0,0,0,.363-.532,1.8,1.8,0,0,0,.126-.682,1.461,1.461,0,0,0-.5-1.179,2.214,2.214,0,0,0-1.466-.427q-.156,0-.328.005l-.344.013q-.172.008-.336.019t-.3.027l.263-3.862h3.561v.795h-2.8l-.156,2.261q.172-.011.365-.019t.344-.008a3.457,3.457,0,0,1,1.1.161,2.321,2.321,0,0,1,.819.459,1.925,1.925,0,0,1,.51.73A2.569,2.569,0,0,1,112.562-2.353Zm6.2-1.531a7.566,7.566,0,0,1-.175,1.713,3.992,3.992,0,0,1-.5,1.26,2.272,2.272,0,0,1-.811.779,2.22,2.22,0,0,1-1.093.266,2.073,2.073,0,0,1-1.034-.255,2.167,2.167,0,0,1-.765-.744,3.77,3.77,0,0,1-.473-1.2,7.423,7.423,0,0,1-.161-1.63,8.4,8.4,0,0,1,.169-1.783,4.079,4.079,0,0,1,.5-1.3,2.211,2.211,0,0,1,.814-.79,2.285,2.285,0,0,1,1.115-.266Q118.766-7.831,118.766-3.883Zm-.9.086q0-3.287-1.563-3.287-1.649,0-1.649,3.346,0,3.121,1.617,3.121Q117.863-.618,117.863-3.8ZM128.079,0h-.9V-5.167q0-.612.075-1.5h-.021a4.791,4.791,0,0,1-.231.747L124.373,0h-.44l-2.626-5.876a4.6,4.6,0,0,1-.231-.79h-.021q.043.462.043,1.509V0h-.87V-7.7h1.192l2.363,5.371a6.877,6.877,0,0,1,.354.924h.032q.231-.634.371-.945l2.412-5.35h1.128ZM130.1,0V-7.7H132.3a2.4,2.4,0,0,1,1.584.489,1.58,1.58,0,0,1,.585,1.273,1.873,1.873,0,0,1-.354,1.139,1.912,1.912,0,0,1-.978.688v.021a1.96,1.96,0,0,1,1.246.588,1.809,1.809,0,0,1,.467,1.292,2.014,2.014,0,0,1-.709,1.6A2.639,2.639,0,0,1,132.349,0Zm.9-6.886V-4.4h.924a1.754,1.754,0,0,0,1.166-.357,1.244,1.244,0,0,0,.424-1.007q0-1.123-1.477-1.123Zm0,3.3V-.816h1.225a1.835,1.835,0,0,0,1.233-.376,1.288,1.288,0,0,0,.438-1.031q0-1.364-1.858-1.364ZM136.6.118a.57.57,0,0,1-.422-.177A.583.583,0,0,1,136-.483a.592.592,0,0,1,.175-.427.566.566,0,0,1,.422-.18.581.581,0,0,1,.43.18.588.588,0,0,1,.177.427.579.579,0,0,1-.177.424A.585.585,0,0,1,136.6.118Z" transform="translate(313 76)" fill="#d93911"/>
    </g>
  </g>
</svg>
