<svg xmlns="http://www.w3.org/2000/svg" xmlns:xlink="http://www.w3.org/1999/xlink" width="1024" height="800" viewBox="0 0 1024 800"><defs><clipPath id="b"><rect width="1024" height="800"/></clipPath></defs><g id="a" clip-path="url(#b)"><rect width="1024" height="800" fill="#f4f4f6"/><path d="M0,0H250V730H0V0Z" transform="translate(0 70)" fill="#fff"/><rect width="250" height="50" transform="translate(0 70)" fill="none"/><rect width="1024" height="60" fill="#fff"/><path d="M0,0H1024V10H0Z" transform="translate(0 60)" fill="#2372c0"/><path d="M284.1,240h24.865v24H284.1Z" transform="translate(662.564 -221)" fill="none"/><rect width="82" height="36" rx="18" transform="translate(840 12)" fill="none"/><text transform="translate(893.768 36)" fill="#1f5ea8" font-size="14" font-family="OpenSans-Semibold, Open Sans" font-weight="600"><tspan x="-16.758" y="0">Apps</tspan></text><path d="M172,94.5v3a.472.472,0,0,1-.5.5h-3a.472.472,0,0,1-.5-.5v-3a.472.472,0,0,1,.5-.5h3A.472.472,0,0,1,172,94.5Zm5.5-.5h-3a.472.472,0,0,0-.5.5v3a.472.472,0,0,0,.5.5h3a.472.472,0,0,0,.5-.5v-3A.472.472,0,0,0,177.5,94Zm-6,12h-3a.472.472,0,0,0-.5.5v3a.472.472,0,0,0,.5.5h3a.472.472,0,0,0,.5-.5v-3A.472.472,0,0,0,171.5,106Zm12-12h-3a.472.472,0,0,0-.5.5v3a.472.472,0,0,0,.5.5h3a.472.472,0,0,0,.5-.5v-3A.472.472,0,0,0,183.5,94Zm-12,6h-3a.472.472,0,0,0-.5.5v3a.472.472,0,0,0,.5.5h3a.472.472,0,0,0,.5-.5v-3A.472.472,0,0,0,171.5,100Zm6,0h-3a.472.472,0,0,0-.5.5v3a.472.472,0,0,0,.5.5h3a.472.472,0,0,0,.5-.5v-3A.472.472,0,0,0,177.5,100Zm0,6h-3a.472.472,0,0,0-.5.5v3a.472.472,0,0,0,.5.5h3a.472.472,0,0,0,.5-.5v-3A.472.472,0,0,0,177.5,106Zm6-6h-3a.472.472,0,0,0-.5.5v3a.472.472,0,0,0,.5.5h3a.472.472,0,0,0,.5-.5v-3A.472.472,0,0,0,183.5,100Zm0,6h-3a.472.472,0,0,0-.5.5v3a.472.472,0,0,0,.5.5h3a.472.472,0,0,0,.5-.5v-3A.472.472,0,0,0,183.5,106Z" transform="translate(685 -72)" fill="#2372c0"/><rect width="82" height="36" rx="18" transform="translate(932 12)" fill="none"/><rect width="60" height="50" transform="translate(0 70)" fill="none" opacity="0.3"/><text transform="translate(984.768 36)" fill="#1f5ea8" font-size="14" font-family="OpenSans-Semibold, Open Sans" font-weight="600"><tspan x="-19.742" y="0">Adam</tspan></text><g transform="translate(940 22)"><path d="M12.981,1.327a2.654,2.654,0,1,1-2.654,2.654,2.654,2.654,0,0,1,2.654-2.654m0-1.327a3.981,3.981,0,1,0,3.981,3.981A3.981,3.981,0,0,0,12.981,0Z" transform="translate(-2.231)" fill="#2372c0"/><path d="M10.75,21.327c3.048,0,4.065.765,4.366,1.1a.226.226,0,0,1,.057.146v2.955a.221.221,0,0,1-.221.221h-8.4a.221.221,0,0,1-.221-.221V22.574a.226.226,0,0,1,.057-.146c.3-.336,1.327-1.1,4.366-1.1m0-1.327c-4.423,0-5.471,1.544-5.693,2.052A.69.69,0,0,0,5,22.335v3.981a.761.761,0,0,0,.756.761h9.987a.765.765,0,0,0,.756-.756V22.34a.69.69,0,0,0-.057-.283C16.226,21.544,15.173,20,10.75,20Z" transform="translate(0 -11.154)" fill="#2372c0"/></g><rect width="40" height="50" transform="translate(210 170)" fill="none" opacity="0.3"/><rect width="250" height="50" transform="translate(0 220)" fill="none"/><rect width="250" height="42" transform="translate(0 270)" fill="none"/><rect width="250" height="42" transform="translate(0 312)" fill="none"/><rect width="250" height="42" transform="translate(0 354)" fill="none"/><rect width="250" height="50" transform="translate(0 396)" fill="none"/><rect width="250" height="50" transform="translate(0 446)" fill="#e6e6ea"/><rect width="250" height="50" transform="translate(0 496)" fill="none"/><text transform="translate(60 101)" fill="#3d3d3d" font-size="14" font-family="SegoeUI, Segoe UI"><tspan x="0" y="0">Home</tspan></text><rect width="250" height="50" transform="translate(0 120)" fill="none"/><rect width="250" height="50" transform="translate(0 750)" fill="none"/><text transform="translate(60 781)" fill="#3d3d3d" font-size="14" font-family="SegoeUI, Segoe UI"><tspan x="0" y="0">Collapse </tspan></text><rect width="250" height="1" transform="translate(0 750)" fill="#e6e6ea"/><text transform="translate(60 151)" fill="#2372c0" font-size="14" font-family="SegoeUI-Bold, Segoe UI" font-weight="700"><tspan x="0" y="0">Accounts</tspan></text><text transform="translate(60 201)" fill="#3d3d3d" font-size="14" font-family="SegoeUI, Segoe UI"><tspan x="0" y="0">Proposals</tspan></text><text transform="translate(60 251)" fill="#3d3d3d" font-size="14" font-family="SegoeUI, Segoe UI"><tspan x="0" y="0">Toolbox</tspan></text><text transform="translate(70 297)" fill="#3d3d3d" font-size="14" font-family="SegoeUI, Segoe UI"><tspan x="0" y="0">OHSA Log</tspan></text><text transform="translate(70 339)" fill="#2372c0" font-size="14" font-family="SegoeUI-Bold, Segoe UI" font-weight="700"><tspan x="0" y="0">Handbook Builder</tspan></text><text transform="translate(70 381)" fill="#3d3d3d" font-size="14" font-family="SegoeUI, Segoe UI"><tspan x="0" y="0">ACA Reporting</tspan></text><text transform="translate(60 427)" fill="#3d3d3d" font-size="14" font-family="SegoeUI, Segoe UI"><tspan x="0" y="0">Notifications</tspan></text><text transform="translate(60 477)" fill="#3d3d3d" font-size="14" font-family="SegoeUI, Segoe UI"><tspan x="0" y="0">Settings</tspan></text><text transform="translate(60 527)" fill="#3d3d3d" font-size="14" font-family="SegoeUI, Segoe UI"><tspan x="0" y="0">Help and Training</tspan></text><rect width="1" height="730" transform="translate(250 70)" fill="#e6e6ea"/><g transform="translate(-220.611 -32.669)"><path d="M340.587,52.669l-6.541,14.446L327.5,52.669h-2.616l9.16,20.259,9.167-20.259Z" fill="#8b8d8e"/><path d="M322.153,72.928h2.623L315.63,52.669h-1l-9.146,20.259h2.629l2.006-4.484h10.028Zm-10.965-6.865,3.938-8.684,3.938,8.684Z" fill="#8b8d8e"/><path d="M350.18,63.606h7.281V61.216H350.18V55.048H358.1l1.27-2.379H347.79V72.928h10.328l1.27-2.439H350.18Z" fill="#8b8d8e"/><path d="M303.177,52.669l-6.49,14.446-5.8-12.689-5.748,12.689-6.285-14.446h-3.9l-3.5,7.735,1.313,2.9,4.02-8.874,8.353,18.494,5.748-12.713,5.8,12.713,9.107-20.259Z" fill="#8b8d8e"/><path d="M245,70.511l11.6-17.834h-14.06l-1.085,2.373H252.21l-11.6,17.834h15.978l1.073-2.373Z" fill="#8b8d8e"/><path d="M265.319,52.669h-5.2l5.856,13-5.856,13h5.2l5.894-13Z" fill="#5FB53B"/></g><rect width="20" height="20" transform="translate(20 85)" fill="none"/><path d="M20,10.6H17.5v8.142a.833.833,0,0,1-.833.833H12V14.1H8v5.5H3.333a.833.833,0,0,1-.833-.833V10.6H0L10,.6Z" transform="translate(20 85.4)" fill="#31313a"/><rect width="20" height="20" transform="translate(20 135)" fill="none"/><g transform="translate(30 145.375)"><g transform="translate(-10 -9.375)"><circle cx="3.167" cy="3.167" r="3.167" transform="translate(6.833)" fill="#2372c0"/><path d="M14.55,11.615v8.75H8.3v-8.75a3.5,3.5,0,0,1,6.25,0Z" transform="translate(-1.383 -1.615)" fill="#2372c0"/><circle cx="2.833" cy="2.833" r="2.833" transform="translate(14.333 0.583)" fill="#2372c0"/><path d="M22.883,11.237v7.833H17.3V11.237a3.046,3.046,0,0,1,5.583,0Z" transform="translate(-2.883 -1.571)" fill="#2372c0"/><circle cx="2.833" cy="2.833" r="2.833" transform="translate(0 0.583)" fill="#2372c0"/><path d="M5.667,11.249v7.833H0V11.249a3.167,3.167,0,0,1,1.417-1.5A3.083,3.083,0,0,1,2.75,9.5a3.083,3.083,0,0,1,1.417.25,3.167,3.167,0,0,1,1.5,1.5Z" transform="translate(0 -1.582)" fill="#2372c0"/></g></g><rect width="20" height="20" transform="translate(20 185)" fill="none"/><g transform="translate(30.333 195)"><path d="M14.667.833V19.167a.833.833,0,0,1-.833.833h-5V18.083c1.75-.333,3.25-1.333,3.25-3.25s-2.25-3.5-4.333-4.083S5,9.667,5,8.75s.917-1.667,2.5-1.667S9.75,7.833,9.833,9h2A3.667,3.667,0,0,0,8.917,5.5v-2H6v2c-1.75.417-3.25,1.583-3.25,3.333S4.5,12,7.083,12.667s2.75,1.333,2.75,2.25-.417,1.667-2.5,1.667-2.667-.833-2.75-1.917H2.667a3.753,3.753,0,0,0,3.417,3.5V20H.833A.833.833,0,0,1,0,19.167V.833A.833.833,0,0,1,.833,0h13A.833.833,0,0,1,14.667.833Z" transform="translate(-7.333 -10)" fill="#31313a"/></g><rect width="20" height="20" transform="translate(20 235)" fill="none"/><g transform="translate(30 245.248)"><path d="M19.162,2.416H13.747V.833A.833.833,0,0,0,12.914,0H7.082a.833.833,0,0,0-.833.833V2.5H.833A.833.833,0,0,0,0,3.333v13.08a.833.833,0,0,0,.833.833H2v.916a.25.25,0,0,0,.25.25h1.5a.25.25,0,0,0,.25-.25v-.833H16v.916a.25.25,0,0,0,.25.25h1.5a.25.25,0,0,0,.25-.25v-.916h1.166A.833.833,0,0,0,20,16.5V3.333a.833.833,0,0,0-.75-.916ZM7.5,1.25h5V2.416h-5ZM18,11.414H2v-1H18Zm0-4.5H2v-1H18Z" transform="translate(-10 -9.248)" fill="#2372c0"/></g><g transform="translate(230 195)"><g transform="translate(-10 -10)"><rect width="20" height="20" fill="none"/><path d="M18.75,15.072l1.2,1.2a.25.25,0,0,1,0,.4l-4.75,4.75a.25.25,0,0,1-.4,0l-4.7-4.75a.25.25,0,0,1,0-.4l1.2-1.2a.25.25,0,0,1,.4,0l3.3,3.35,3.35-3.4a.25.25,0,0,1,.4.05Z" transform="translate(-5 -7.472)" fill="#31313a"/></g></g><g transform="translate(230 245) rotate(180)"><g transform="translate(-10 -10)"><rect width="20" height="20" fill="none" stroke="#d454a3" stroke-width="1"/><path d="M18.75,15.072l1.2,1.2a.25.25,0,0,1,0,.4l-4.75,4.75a.25.25,0,0,1-.4,0l-4.7-4.75a.25.25,0,0,1,0-.4l1.2-1.2a.25.25,0,0,1,.4,0l3.3,3.35,3.35-3.4a.25.25,0,0,1,.4.05Z" transform="translate(-5 -7.472)" fill="#31313a"/></g></g><g transform="translate(15002 2058)"><rect width="20" height="20" transform="translate(-14982 -1647)" fill="none"/><g transform="translate(-14971 -1635.444)"><path d="M19.038,16.923a.952.952,0,0,0-.952-.952h0a.692.692,0,0,1-.692-.692h0V9.221a7.875,7.875,0,0,0-6.231-7.7V1.346a1.731,1.731,0,0,0-3.375,0,1.3,1.3,0,0,0,0,.173A8.048,8.048,0,0,0,1.558,9.394v5.8a.692.692,0,0,1-.692.692h0A.952.952,0,0,0,0,16.837H0v1.3H7.875v.519a1.731,1.731,0,0,0,3.375,0v-.519h7.788Z" transform="translate(-11 -11.556)"/></g></g><g transform="translate(15085 2003)"><rect width="20" height="20" transform="translate(-15065 -1542)" fill="none"/><g transform="translate(-15053.409 -1530)"><path d="M18.784,12.583l-1.25-.75A7.667,7.667,0,0,0,17.784,10a8.167,8.167,0,0,0-.25-1.75l1.333-.75A.833.833,0,0,0,19.2,6.333h0L17.534,3.5a.917.917,0,0,0-1.167-.333l-1.25.75a7.917,7.917,0,0,0-2.833-1.583V.833A.833.833,0,0,0,11.451,0H8.117a.833.833,0,0,0-.833.833v1.5a8,8,0,0,0-2.917,1.5l-1.25-.75a.833.833,0,0,0-1.167.25h0L.284,6.167A.833.833,0,0,0,.451,7.333h0l1.25.75a7.833,7.833,0,0,0,0,3.583L.451,12.5a.833.833,0,0,0-.333,1.167h0L1.784,16.5a.833.833,0,0,0,1.167.333h.083L4.367,16a8,8,0,0,0,2.75,1.583v1.583A.833.833,0,0,0,7.951,20h3.333a.833.833,0,0,0,.833-.833V17.583a7.75,7.75,0,0,0,2.667-1.5l1.333.833a.833.833,0,0,0,1.167-.25h.083l1.75-2.833a.833.833,0,0,0-.25-1.167Zm-11.583.5A4,4,0,0,1,5.7,10.5a4.083,4.083,0,0,1,0-.583,4.917,4.917,0,0,1,0-.5A4,4,0,0,1,7.117,6.833L8.2,6.167a3.917,3.917,0,0,1,1.417-.25,3.833,3.833,0,0,1,1.5.25L12.2,6.75a3.917,3.917,0,0,1,1.5,2.667,4.084,4.084,0,0,1,0,.5,3.5,3.5,0,0,1,0,.583,4.083,4.083,0,0,1-2.667,3.167l-1.333.25-1.333-.25a4,4,0,0,1-1.25-.583Z" transform="translate(-11.591 -12)"/></g></g><g transform="translate(15059 2151)"><rect width="20" height="20" transform="translate(-15039 -1640)" fill="none"/><g transform="translate(-15027.187 -1628.003)"><path d="M11.942.5A9.085,9.085,0,0,0,6.024.5a8.919,8.919,0,0,0-2.417,1.25l-.583.5-.333.333A9,9,0,0,0,9.025,18h.5l-.417,1.667A.25.25,0,0,0,9.275,20h.083a10.28,10.28,0,0,0,8.669-10V9A9,9,0,0,0,11.942.5ZM9.108,15.916a1.25,1.25,0,1,1,1.25-1.25h0A1.25,1.25,0,0,1,9.108,15.916Zm2.667-6.752-1.084.917c-.667.5-.667.5-.667,1.334H8.108A3,3,0,0,1,9.442,8.581l.917-.834a2.167,2.167,0,0,0,.25-2.251,1.584,1.584,0,0,0-1.584-1c-1.75,0-1.917,1.917-1.917,2.167l-2-.167a4.057,4.057,0,0,1,4-4,3.584,3.584,0,0,1,3.417,2.251,4.084,4.084,0,0,1-.75,4.418Z" transform="translate(-10.814 -11.997)"/></g></g><g transform="translate(30 775)"><g transform="translate(-10 -10)"><rect width="20" height="20" fill="none"/><path d="M18.35,18.75l-1.2,1.2a.25.25,0,0,1-.4,0L12,15.2a.25.25,0,0,1,0-.4l4.75-4.7a.25.25,0,0,1,.4,0l1.2,1.2a.25.25,0,0,1,0,.4L15,15l3.4,3.35a.25.25,0,0,1-.05.4Z" transform="translate(-5.95 -5)" fill="#2f2f2f"/></g></g><g transform="translate(-161 67)"><circle cx="15" cy="15" r="15" transform="translate(474 13)" fill="#d454a3"/><text transform="translate(484 33)" fill="#fff" font-size="16" font-family="SegoeUI-Bold, Segoe UI" font-weight="700"><tspan x="0" y="0">1</tspan></text></g><g transform="translate(-161 117)"><circle cx="15" cy="15" r="15" transform="translate(474 13)" fill="#d454a3"/><text transform="translate(484 33)" fill="#fff" font-size="16" font-family="SegoeUI-Bold, Segoe UI" font-weight="700"><tspan x="0" y="0">2</tspan></text></g><g transform="translate(-161 443)"><circle cx="15" cy="15" r="15" transform="translate(474 13)" fill="#d454a3"/><text transform="translate(484 33)" fill="#fff" font-size="16" font-family="SegoeUI-Bold, Segoe UI" font-weight="700"><tspan x="0" y="0">5</tspan></text></g><g transform="translate(-161 216)"><circle cx="15" cy="15" r="15" transform="translate(474 13)" fill="#d454a3"/><text transform="translate(484 33)" fill="#fff" font-size="16" font-family="SegoeUI-Bold, Segoe UI" font-weight="700"><tspan x="0" y="0">3</tspan></text></g><g transform="translate(-161 305)"><circle cx="15" cy="15" r="15" transform="translate(474 13)" fill="#d454a3"/><text transform="translate(484 33)" fill="#fff" font-size="16" font-family="SegoeUI-Bold, Segoe UI" font-weight="700"><tspan x="0" y="0">4</tspan></text></g><rect width="79" height="1" transform="translate(234 95)" fill="#d454a3"/><rect width="183" height="1" transform="translate(130 146)" fill="#d454a3"/><rect width="79" height="1" transform="translate(234 471)" fill="#d454a3"/><rect width="73" height="1" transform="translate(240 244)" fill="#d454a3"/><rect width="103" height="1" transform="translate(210 333.5)" fill="#d454a3"/><rect width="237" height="1" transform="translate(31 269)" fill="#d454a3"/><rect width="1" height="65" transform="translate(267 269)" fill="#d454a3"/><rect width="1" height="10" transform="translate(30 260)" fill="#d454a3"/><g fill="none" stroke="#f4f4f6" stroke-width="1"><rect width="1024" height="800" stroke="none"/><rect x="0.5" y="0.5" width="1023" height="799" fill="none"/></g></g></svg>