<svg xmlns="http://www.w3.org/2000/svg" xmlns:xlink="http://www.w3.org/1999/xlink" viewBox="-12774 -11321 346 300">
  <defs>
    <style>
      .cls-1 {
        clip-path: url(#clip-Standard_Radio_1);
      }

      .cls-2 {
        fill: #fff;
      }

      .cls-3 {
        fill: #1f5ea8;
      }

      .cls-4 {
        fill: #999;
      }

      .cls-5 {
        fill: #3d3d3d;
      }
    </style>
    <clipPath id="clip-Standard_Radio_1">
      <rect x="-12774" y="-11321" width="346" height="300"/>
    </clipPath>
  </defs>
  <g id="Standard_Radio_1" data-name="Standard Radio – 1" class="cls-1">
    <g id="Group_7746" data-name="Group 7746" transform="translate(-13051 -11487)">
      <circle id="Ellipse_2" data-name="Ellipse 2" class="cls-2" cx="9" cy="9" r="9" transform="translate(420 285)"/>
      <path id="Path_6085" data-name="Path 6085" class="cls-3" d="M35,42.8a8,8,0,1,1-8,8,8.024,8.024,0,0,1,8-8m0-2a10,10,0,1,0,10,10,10.029,10.029,0,0,0-10-10Zm6,10a6,6,0,1,0-6,6A6.018,6.018,0,0,0,41,50.8Z" transform="translate(394 243.2)"/>
    </g>
    <path id="Path_6230" data-name="Path 6230" class="cls-4" d="M10,42.8a8,8,0,1,1-8,8,8.024,8.024,0,0,1,8-8m0-2a10,10,0,1,0,10,10,10.029,10.029,0,0,0-10-10Z" transform="translate(-12632 -11201)"/>
    <path id="Path_6235" data-name="Path 6235" class="cls-5" d="M1.374,0V-9.994H2.536v8.941H6.945V0Zm11.7,0-.226-1.066H12.8a3.153,3.153,0,0,1-1.118.954,3.407,3.407,0,0,1-1.391.25A2.5,2.5,0,0,1,8.542-.437a2.094,2.094,0,0,1-.632-1.634q0-2.27,3.63-2.379l1.271-.041v-.465a1.9,1.9,0,0,0-.379-1.3,1.56,1.56,0,0,0-1.213-.42A4.944,4.944,0,0,0,9.1-6.1L8.75-6.973a5.332,5.332,0,0,1,1.213-.472,5.255,5.255,0,0,1,1.323-.171,2.854,2.854,0,0,1,1.986.595,2.482,2.482,0,0,1,.646,1.907V0ZM10.514-.8a2.3,2.3,0,0,0,1.665-.581,2.15,2.15,0,0,0,.6-1.627v-.677l-1.135.048a4.128,4.128,0,0,0-1.952.42,1.268,1.268,0,0,0-.6,1.159,1.169,1.169,0,0,0,.373.937A1.546,1.546,0,0,0,10.514-.8Zm9.229-6.815a2.785,2.785,0,0,1,2.293,1.008,4.426,4.426,0,0,1,.817,2.854,4.458,4.458,0,0,1-.824,2.868A2.774,2.774,0,0,1,19.742.137a3.242,3.242,0,0,1-1.336-.27,2.513,2.513,0,0,1-1.015-.831h-.082L17.069,0h-.813V-10.637h1.135v2.584q0,.868-.055,1.559h.055A2.694,2.694,0,0,1,19.742-7.615Zm-.164.95A1.981,1.981,0,0,0,17.9-6a3.76,3.76,0,0,0-.513,2.246,3.749,3.749,0,0,0,.526,2.259,2,2,0,0,0,1.688.68,1.75,1.75,0,0,0,1.559-.762,3.917,3.917,0,0,0,.513-2.191,3.765,3.765,0,0,0-.513-2.181A1.817,1.817,0,0,0,19.578-6.665ZM28,.137A3.442,3.442,0,0,1,25.378-.875a3.917,3.917,0,0,1-.96-2.81,4.344,4.344,0,0,1,.892-2.878,2.963,2.963,0,0,1,2.4-1.066,2.825,2.825,0,0,1,2.229.926,3.55,3.55,0,0,1,.82,2.444v.718H25.594a2.97,2.97,0,0,0,.667,2,2.305,2.305,0,0,0,1.781.684,6.035,6.035,0,0,0,2.393-.506V-.349A6.005,6.005,0,0,1,29.3.024,6.4,6.4,0,0,1,28,.137Zm-.308-6.815a1.853,1.853,0,0,0-1.439.588,2.71,2.71,0,0,0-.632,1.627h3.917a2.5,2.5,0,0,0-.479-1.644A1.684,1.684,0,0,0,27.692-6.679ZM33.824,0H32.689V-10.637h1.135Z" transform="translate(-12601 -11188)"/>
    <path id="Path_6236" data-name="Path 6236" class="cls-5" d="M1.374,0V-9.994H2.536v8.941H6.945V0Zm11.7,0-.226-1.066H12.8a3.153,3.153,0,0,1-1.118.954,3.407,3.407,0,0,1-1.391.25A2.5,2.5,0,0,1,8.542-.437a2.094,2.094,0,0,1-.632-1.634q0-2.27,3.63-2.379l1.271-.041v-.465a1.9,1.9,0,0,0-.379-1.3,1.56,1.56,0,0,0-1.213-.42A4.944,4.944,0,0,0,9.1-6.1L8.75-6.973a5.332,5.332,0,0,1,1.213-.472,5.255,5.255,0,0,1,1.323-.171,2.854,2.854,0,0,1,1.986.595,2.482,2.482,0,0,1,.646,1.907V0ZM10.514-.8a2.3,2.3,0,0,0,1.665-.581,2.15,2.15,0,0,0,.6-1.627v-.677l-1.135.048a4.128,4.128,0,0,0-1.952.42,1.268,1.268,0,0,0-.6,1.159,1.169,1.169,0,0,0,.373.937A1.546,1.546,0,0,0,10.514-.8Zm9.229-6.815a2.785,2.785,0,0,1,2.293,1.008,4.426,4.426,0,0,1,.817,2.854,4.458,4.458,0,0,1-.824,2.868A2.774,2.774,0,0,1,19.742.137a3.242,3.242,0,0,1-1.336-.27,2.513,2.513,0,0,1-1.015-.831h-.082L17.069,0h-.813V-10.637h1.135v2.584q0,.868-.055,1.559h.055A2.694,2.694,0,0,1,19.742-7.615Zm-.164.95A1.981,1.981,0,0,0,17.9-6a3.76,3.76,0,0,0-.513,2.246,3.749,3.749,0,0,0,.526,2.259,2,2,0,0,0,1.688.68,1.75,1.75,0,0,0,1.559-.762,3.917,3.917,0,0,0,.513-2.191,3.765,3.765,0,0,0-.513-2.181A1.817,1.817,0,0,0,19.578-6.665ZM28,.137A3.442,3.442,0,0,1,25.378-.875a3.917,3.917,0,0,1-.96-2.81,4.344,4.344,0,0,1,.892-2.878,2.963,2.963,0,0,1,2.4-1.066,2.825,2.825,0,0,1,2.229.926,3.55,3.55,0,0,1,.82,2.444v.718H25.594a2.97,2.97,0,0,0,.667,2,2.305,2.305,0,0,0,1.781.684,6.035,6.035,0,0,0,2.393-.506V-.349A6.005,6.005,0,0,1,29.3.024,6.4,6.4,0,0,1,28,.137Zm-.308-6.815a1.853,1.853,0,0,0-1.439.588,2.71,2.71,0,0,0-.632,1.627h3.917a2.5,2.5,0,0,0-.479-1.644A1.684,1.684,0,0,0,27.692-6.679ZM33.824,0H32.689V-10.637h1.135Z" transform="translate(-12601 -11145)"/>
  </g>
</svg>
