<svg xmlns="http://www.w3.org/2000/svg" viewBox="0 0 190 198.88"><title>ehb-dupicate</title><path d="M187.12,101.65A92,92,0,1,1,15.86,55c.17-.27.33-.55.5-.83.44-.74.9-1.47,1.36-2.19.6-.91,1.2-1.81,1.82-2.7.85-1.24,1.74-2.46,2.66-3.64A90.57,90.57,0,0,1,30,36.79a91.78,91.78,0,0,1,60.53-27c.58,0,1.17-.06,1.75-.07,1,0,1.92-.05,2.89-.05A92.09,92.09,0,0,1,187.12,101.65Z" style="fill:#fff"/><circle cx="95.27" cy="99.24" r="93.65" style="fill:#f4f4f6"/><path d="M38.47,134.29s1.48,1.57,7.83.53c3.52-.58,41.93-10.88,41.93-10.88l.7-6.7L38.73,133.6Z" style="fill:#cac9d1"/><polygon points="169.61 100.38 168.87 158.39 164.44 160.22 166.79 98.63 169.61 100.38" style="fill:#cac9d1"/><path d="M80.23,174.4s1,1.56,5,2.61,53.24,5,53.24,5l10.27-4.17L83.1,173.41Z" style="fill:#cac9d1"/><path d="M119.06,105.13l-4,3.7-.91.83-2.7.78-69.81,20a1.76,1.76,0,0,1-2.13-1.22l-1.16-4.18-.95-3.41-.64-2.28-.94-3.4L20.25,60.14,17.3,49.55l-.11-.4c.59-.91,1.2-1.81,1.82-2.7q1.27-1.86,2.66-3.64l9.38,2.48,9,2.4,3.33.87,10.88,2.89h0l4.54,1.2,3.12.82,4.3,1.15,4.23,1.12,3.43.91,26.92,7.14,1.05.27.22.06c.86-.25,3.13-1.19,4.13-1a.54.54,0,0,1,.45.36L108.29,69Z" style="fill:#a5c6e8"/><path d="M41.17,131.52a2.78,2.78,0,0,1-2.69-2L16.08,49l.25-.39c.6-.92,1.21-1.83,1.84-2.73.85-1.23,1.75-2.47,2.69-3.68l.42-.53,80.79,21.42.39-.14c1.6-.55,3-1,4-.75a1.52,1.52,0,0,1,1.19,1l12.57,42.23-5.6,5.13L41.87,131.43A2.8,2.8,0,0,1,41.17,131.52ZM18.3,49.32,40.45,129a.73.73,0,0,0,.89.5l72.25-20.72,4.31-3.93L105.79,64.15a13.51,13.51,0,0,0-2.66.71c-.29.11-.55.19-.75.25l-.28.09-1.54-.42L22.06,44c-.76,1-1.5,2-2.21,3.06C19.32,47.79,18.81,48.55,18.3,49.32Z" style="fill:#494a56"/><path d="M111.06,98.46l-2.23,2.91.06.21.61,2.15,1.9,6.71.16.55a1.71,1.71,0,0,1,0,1,1.73,1.73,0,0,1-1.25,1.26L39.88,133.52a1.74,1.74,0,0,1-2.12-1.22L36,125.7,35,122.28,34.43,120l-.93-3.41L14.63,53.48c.44-.75,2.1-3.61,2.56-4.33.59-.91,1.2-1.81,1.82-2.7q1.27-1.86,2.66-3.64A90.57,90.57,0,0,1,29.42,34L44,37.82l3.61,1,2.44.65,21.62,5.71,3.7,1,22,5.82.81.21.17-.06c1.2-.39,4.11-1.55,4.41-.55l3.46,11.65,1.83,6.14,7.1,23.82-3.43,4.47-.51.67Z" style="fill:#a5c6e8"/><path d="M39.44,134.59a2.77,2.77,0,0,1-2.67-2l-4.26-15.72-19-63.5.69-1.18c.69-1.19,1.74-3,2.11-3.57.6-.93,1.21-1.84,1.84-2.74.85-1.23,1.75-2.47,2.69-3.68a92.26,92.26,0,0,1,7.83-8.94l.42-.42,69,18.24.41-.14c1.9-.65,3.43-1.11,4.43-.6a1.5,1.5,0,0,1,.76.91l12.54,42.11L110,101.58l2.59,9.13a2.69,2.69,0,0,1,0,1.49,2.75,2.75,0,0,1-2,2L40.17,134.5A3,3,0,0,1,39.44,134.59Zm-23.7-81,18.73,62.68L38.74,132a.72.72,0,0,0,.88.5l70.43-20.32a.75.75,0,0,0,.54-.91l-2.88-10.14L114,92.92,101.87,52.14a13.81,13.81,0,0,0-2.65.72l-.51.17-.17.06-.28.08-.34-.05-68.19-18a89.55,89.55,0,0,0-7.25,8.33c-.92,1.18-1.8,2.39-2.63,3.6-.62.89-1.22,1.78-1.8,2.68-.34.53-1.42,2.38-2.07,3.49Z" style="fill:#132e52"/><path d="M38.94,120.88l72.82-20.09-7.69-25.54L108.3,69,95.91,27.35A2,2,0,0,0,93.41,26L17,49.63Z" style="fill:#a5c7ee"/><path d="M38.26,122.13,15.74,49,93.11,25a3,3,0,0,1,2.31.24,3,3,0,0,1,1.47,1.79l12.52,42.07-4.23,6.28L113,101.49Zm-20-71.82,21.34,69.32,70.85-19.55-7.53-25,4.23-6.29L94.93,27.64a1.05,1.05,0,0,0-.48-.58,1,1,0,0,0-.74-.07Z" style="fill:#0f2e52"/><path d="M110.66,103.38l-1.16.35L44.14,123.3a2,2,0,0,1-2.5-1.34l-.5-1.68L19.72,48.8,19,46.45q1.27-1.86,2.66-3.64A90.57,90.57,0,0,1,29.42,34C45.08,18.24,65.44,6.72,89,5.54l6.42,19.92,6.05,20.31-.08.13L98,51l-.65,1-.09.14,3.54,11.74L104.21,75l7,23.23.79,2.62A2,2,0,0,1,110.66,103.38Z" style="fill:#a5c7ee"/><path d="M43.56,124.4a3,3,0,0,1-1.44-.36,3,3,0,0,1-1.46-1.79l-.5-1.68L17.89,46.27l.28-.4c.85-1.24,1.75-2.48,2.69-3.69a92.26,92.26,0,0,1,7.83-8.94C41,20.89,61.42,5.9,89,4.52l.79,0,6.66,20.67,6.2,20.79L98.4,52.23,113,100.6a3,3,0,0,1-2,3.76l-1.15.35L44.43,124.27A2.91,2.91,0,0,1,43.56,124.4ZM20.13,46.63l22.49,75a.94.94,0,0,0,.47.58,1,1,0,0,0,.75.08l66.52-19.92a1,1,0,0,0,.66-1.22L96.16,51.9l1-1.52,3.21-4.78L94.48,25.76,88.31,6.61C61.79,8.19,42.06,22.71,30.14,34.68a90.85,90.85,0,0,0-7.66,8.75C21.67,44.48,20.88,45.55,20.13,46.63Z" style="fill:#0f2e52"/><path d="M112.66,111.41l-1.92.56L40.37,132.61a2.18,2.18,0,0,1-2.7-1.47L36,125.49l-1-3.4-.67-2.27-1-3.4L14.49,52.21c.16-.28.33-.56.5-.83.44-.75.9-1.47,1.36-2.2.59-.91,1.2-1.81,1.82-2.7.85-1.23,1.74-2.45,2.66-3.64A91.75,91.75,0,0,1,28.58,34C44.24,18.27,62.88,6.73,86.47,5.55c.58,0,3-.08,3.57-.09l5.76,18.3L94.62,25.5l-.49.72-3,4.33,6,20.44.33,1.11,3.52,12,3,10.05,6.9,23.48,3.25,11.08a.83.83,0,0,1,0,.15A2.19,2.19,0,0,1,112.66,111.41Z" style="fill:#4e92df"/><path d="M37.87,129.12s1.12,1.5,2.09,1.42,73.82-22.06,73.82-22.06l.53,1.94s-2,2.32-2.47,2.25-72.4,20.64-72.4,20.64L38,132.19Z" style="fill:#4e92df"/><rect x="46.67" y="82.79" width="40.66" height="3.81" rx="0.5" transform="translate(-21.13 22.28) rotate(-16.35)" style="fill:#0f2e52"/><circle cx="57.54" cy="49.37" r="17.88" style="fill:#a5c7ee"/><rect x="49.53" y="92.54" width="40.66" height="3.81" rx="0.5" transform="translate(-23.76 23.48) rotate(-16.35)" style="fill:#0f2e52"/><path d="M71.67,45.13c0-.09,0-.19-.08-.29a14.41,14.41,0,0,0-8.75-9.38h0a14.41,14.41,0,0,0-15.22,3.31A15.91,15.91,0,0,0,46,40.66h0a14.27,14.27,0,0,0-2.62,7.89A14.38,14.38,0,0,0,55.25,63.11L53.7,57.94a6.85,6.85,0,0,1,2.69-2.7,13,13,0,0,1,5.55-1.76l.46,0a6.77,6.77,0,0,1,3.72.79l.12.38,1.43,4.79a14.45,14.45,0,0,0,4-14.29ZM58.89,52.64l-.07,0a4.59,4.59,0,0,1-4.54-1.2h0a4.56,4.56,0,0,1-1.14-1.92,4.62,4.62,0,1,1,5.75,3.11Z" style="fill:#0f2e52"/><path d="M57.79,67.35A18.3,18.3,0,1,1,75.36,43.82h0A18.31,18.31,0,0,1,63,66.58,18.07,18.07,0,0,1,57.79,67.35Zm0-35.59A17.28,17.28,0,1,0,74.38,44.12h0A17.31,17.31,0,0,0,57.81,31.76Z" style="fill:#0f2e52"/><path d="M39.89,134.19a3.16,3.16,0,0,1-1.52-.39,3.19,3.19,0,0,1-1.54-1.91l-4.32-14.72-19-64.64.22-.38c.17-.28.34-.57.52-.85.43-.73.89-1.47,1.36-2.2.61-.93,1.22-1.84,1.85-2.74.84-1.22,1.74-2.46,2.68-3.68A92.36,92.36,0,0,1,28,33.74c12.57-12.63,33.27-28,60.45-29.32.58,0,1.18-.06,1.78-.07l.78,0L97.07,24.4l-4.64,6.79,22.83,77.7s0,.12,0,.21a3.24,3.24,0,0,1-2.21,3.76h0l-1.92.56L40.8,134.06A3.51,3.51,0,0,1,39.89,134.19ZM15.74,52.81,38.8,131.32a1.1,1.1,0,0,0,.55.68,1.12,1.12,0,0,0,.88.09l72.28-21.19a1.18,1.18,0,0,0,.81-1.36L90.2,30.84l4.63-6.79L89.5,6.41l-.92,0C62,7.79,41.28,22.29,29,34.66a91,91,0,0,0-7.54,9c-.92,1.19-1.81,2.4-2.63,3.6-.62.89-1.22,1.78-1.81,2.68-.44.7-.9,1.42-1.33,2.15C15.55,52.22,15.83,52.67,15.74,52.81Z" style="fill:#0f2e52"/><path d="M36.71,124.18l2-.54a2,2,0,0,0,1.25-1,4.21,4.21,0,0,0,.53-2.31c-.15-1.72-2.43,1.31-2.43,1.31l-1.82.82Z" style="fill:#2777d3"/><path d="M34.84,117.79l2-.55a2,2,0,0,0,1.25-1,4.23,4.23,0,0,0,.53-2.31c-.15-1.72-2.43,1.31-2.43,1.31l-1.83.8Z" style="fill:#2777d3"/><rect x="28.1" y="112.83" width="10.17" height="3.81" rx="1.5" transform="matrix(0.96, -0.28, 0.28, 0.96, -30.7, 13.82)" style="fill:#ffe0a5"/><path d="M28.7,116.49a1.53,1.53,0,0,0,1.38.22l7-2.21s.63-.12.58-.61.78,1.17.78,1.17a4,4,0,0,0-.7.54c-.16.2-6,2.11-6.07,2.11s-1.84.08-2,.12a2.9,2.9,0,0,1-.86-.25A5.28,5.28,0,0,1,28.7,116.49Z" style="fill:#fdcf73"/><path d="M37.74,113.18a1.53,1.53,0,0,0-1.38-.22l-7,2.21s-.63.12-.58.61-.78-1.17-.78-1.17a4.16,4.16,0,0,0,.69-.54c.17-.21,6-1.62,6.11-1.63s1.81-.56,2-.59a2.41,2.41,0,0,1,.86.25A5.19,5.19,0,0,1,37.74,113.18Z" style="fill:#fdf1d8"/><rect x="29.73" y="119.03" width="10.17" height="3.81" rx="1.5" transform="translate(-32.37 14.52) rotate(-16.21)" style="fill:#ffe0a5"/><path d="M30.49,122.35a1.51,1.51,0,0,0,1.38.21l7-2.21s.63-.12.58-.6.79,1.16.79,1.16a4.56,4.56,0,0,0-.7.54c-.17.21-6,2.11-6.08,2.12s-1.83.07-2,.11a2.65,2.65,0,0,1-.85-.25A5.23,5.23,0,0,1,30.49,122.35Z" style="fill:#fdcf73"/><path d="M39.36,119.38a1.49,1.49,0,0,0-1.37-.21l-7,2.21s-.62.12-.57.6-.79-1.16-.79-1.16a4.19,4.19,0,0,0,.7-.55c.16-.2,6-1.62,6.1-1.62s1.81-.56,2-.6a2.65,2.65,0,0,1,.85.25A5.19,5.19,0,0,1,39.36,119.38Z" style="fill:#fdf1d8"/><path d="M29.88,118.13a2.07,2.07,0,0,1-2-1.48l-.21-.71a2.06,2.06,0,0,1,.17-1.56,2.09,2.09,0,0,1,1.22-1l6.82-2a2.06,2.06,0,0,1,2.53,1.39l.21.72a2.07,2.07,0,0,1-.17,1.56,2,2,0,0,1-1.22,1l-6.82,2A2.24,2.24,0,0,1,29.88,118.13Zm6.61-5.77a1.26,1.26,0,0,0-.28,0l-6.82,2a1,1,0,0,0-.61.49,1,1,0,0,0-.09.77l.21.72a1,1,0,0,0,.49.61,1,1,0,0,0,.78.08l6.81-2a1,1,0,0,0,.7-1.26l-.21-.72a1,1,0,0,0-.49-.61A1.05,1.05,0,0,0,36.49,112.36Z" style="fill:#132e52"/><path d="M31.66,124.23a2.06,2.06,0,0,1-1-.26,2,2,0,0,1-1-1.22l-.21-.71a2.06,2.06,0,0,1,1.4-2.54l6.81-2a2.06,2.06,0,0,1,2.54,1.4l.2.71a2,2,0,0,1-.17,1.56,2.06,2.06,0,0,1-1.22,1l-6.81,2A2.24,2.24,0,0,1,31.66,124.23Zm6.6-5.77a.92.92,0,0,0-.28.05l-6.82,2a1,1,0,0,0-.69,1.26l.2.72a1,1,0,0,0,.49.61,1,1,0,0,0,.78.08l6.82-2a1,1,0,0,0,.61-.49,1,1,0,0,0,.08-.77l-.21-.72A1,1,0,0,0,38.26,118.46Z" style="fill:#132e52"/><path d="M95.13,7.07a92,92,0,1,1-92,92,92.1,92.1,0,0,1,92-92m0-3.07a95.06,95.06,0,1,0,95.06,95.06A95.06,95.06,0,0,0,95.13,4Z" style="fill:#1e5fa8"/><path d="M83.33,171.08,158.6,176l6.38-5.24,2.21-40.69c.06-1.1-3.41-.92-4.51-1L88.45,77.91l-6.71,91.31A1.74,1.74,0,0,0,83.33,171.08Z" style="fill:#c8e8ea"/><path d="M158.94,177.06l-.4,0-75.3-4.93a2.79,2.79,0,0,1-2.52-2.95l6.84-93.1,75.45,52h.42c2,0,3.61.1,4.37.92a1.44,1.44,0,0,1,.41,1.11L166,171.27Zm-75.53-7,74.86,4.9,5.71-4.69,2.17-39.91a14.62,14.62,0,0,0-2.75-.22h-.78l-.29,0-73-50.35-6.57,89.53A.72.72,0,0,0,83.41,170.06Z" style="fill:#132e52"/><path d="M82,174.15l75.56,3.92a1.76,1.76,0,0,0,1.9-1.67l1.45-21.19,5-5.62,1.62-32.13c.06-1.11-3.41-.92-4.51-1L87.68,64.6,80.41,172.29A1.75,1.75,0,0,0,82,174.15Z" style="fill:#c8e8ea"/><path d="M166.46,142.19l-1.08-.72-1.14-.76a2.06,2.06,0,0,0-1-.36l-2.17-1.45c-.14,3.3-.38,8.78-.54,12.72l1.43,1a2.5,2.5,0,0,0,.6.28,2,2,0,0,0,.6.1,2.08,2.08,0,0,0,.83-.15v-1.1h1.15v-2.05h1.34Z" style="fill:#9ee6e1"/><path d="M168.17,116.39c-.76-.81-2.37-.89-4.37-.92h-.42L86.78,62.74,79.39,172.21a2.81,2.81,0,0,0,2.53,3l75.54,3.91.26,0a2.78,2.78,0,0,0,2.76-2.63l1.42-20.84,3-3.38,2-2.25.42-8.23,1.23-24.25A1.55,1.55,0,0,0,168.17,116.39Zm-3.23,32.78-2.4,2.67-2.63,2.94-1.47,21.58a.76.76,0,0,1-.25.51.68.68,0,0,1-.58.18l-75.53-3.92a.73.73,0,0,1-.65-.78L88.58,66.46l74.13,51,.28,0h.78a14.27,14.27,0,0,1,2.76.22l-1.15,22.7Z" style="fill:#132e52"/><path d="M84.07,161.18l75.33,5.69,1.87-33.78,6.1-4.48,1.91-36.21a2,2,0,0,0-1.89-2.11L87.5,86.72Z" style="fill:#c8e8ea"/><path d="M160.36,168,83,162.13l3.53-76.48,80.9,3.62a3,3,0,0,1,2.87,3.18l-1.93,36.69-6.11,4.49Zm-75.22-7.73,73.3,5.53,1.84-33.22,6.1-4.48,1.88-35.73a1,1,0,0,0-.25-.71,1,1,0,0,0-.68-.32L88.48,87.79Z" style="fill:#132e52"/><path d="M157.48,168.94l-69.34-3.72a2,2,0,0,1-1.89-2.11l5.29-99.06a2,2,0,0,1,2.11-1.89l75.18,4a2,2,0,0,1,1.89,2.1l-2.25,41.31-6.1,4.49-2.79,53A2,2,0,0,1,157.48,168.94Z" style="fill:#c8e8ea"/><path d="M157.59,170h-.17l-69.33-3.72a3,3,0,0,1-2.86-3.19L90.52,64a3,3,0,0,1,1-2.09,3,3,0,0,1,2.18-.77l75.19,4a3,3,0,0,1,2.86,3.19l-2.29,41.79-6.1,4.48L160.6,167.1a3,3,0,0,1-1,2.09A3,3,0,0,1,157.59,170Zm-.06-2.05a.93.93,0,0,0,.71-.25,1,1,0,0,0,.32-.68l2.81-53.45,6.11-4.49,2.22-40.82a1,1,0,0,0-.92-1l-75.19-4a1,1,0,0,0-.7.25,1,1,0,0,0-.33.68l-5.29,99.05a1,1,0,0,0,.93,1Z" style="fill:#132e52"/><path d="M158.3,177.87l-75.2-4.46a2.17,2.17,0,0,1-2-2.3L87.4,63.67a2.17,2.17,0,0,1,2.3-2l81.54,4.82a2.17,2.17,0,0,1,2,2.29l-1.24,20.94-6.65,4.83-4.8,81.32A2.17,2.17,0,0,1,158.3,177.87Z" style="fill:#75dbd5"/><path d="M80.05,171.35l1.1,1.7,76.31,4.54,2.25-2.17,5.61-80.56-1.8-1.12s-6.84,78.42-6.91,79.61-2.4,1-2.4,1l-71.52-2.87s-1,.24-1.64-1.46S80.05,171.35,80.05,171.35Z" style="fill:#75dbd5"/><path d="M143.77,140.29h-.06l-39.58-2.21a1,1,0,0,1-1-1.07l.15-2.79a1,1,0,0,1,1.08-1l39.58,2.2a1,1,0,0,1,1,1.08l-.15,2.78A1,1,0,0,1,143.77,140.29Zm0-1h0l.15-2.79-39.58-2.2-.15,2.78Z" style="fill:#0f2e52"/><path d="M143.2,150.44h0l-39.58-2.21a1,1,0,0,1-1-1.07l.16-2.79a1,1,0,0,1,.34-.7,1,1,0,0,1,.73-.26l39.58,2.2a1,1,0,0,1,1,1.08l-.16,2.78a1,1,0,0,1-1,1Zm0-1,0,.51,0-.51Zm-39.42-5-.16,2.78,39.58,2.21.16-2.79Z" style="fill:#0f2e52"/><path d="M161.4,138c-.14,3.3-.38,8.78-.54,12.71l-2.47-1.63a2.35,2.35,0,0,1-.74-.83l-40.23-28-4.23-7.14a2.08,2.08,0,0,1,.26-1.81c.37-.54.3-.29.93-.34h.11l8.11,1,.19.13Z" style="fill:#4dd1c8"/><path d="M170.9,66.24,89.7,61.63S87.13,60.26,87,64s-3.19,45.57-3.19,45.57L82.64,145l6.79-79.78s-.3-1.4,1.59-1.2,78.58,3.89,78.58,3.89,2.3.1,2.4,3.79.2-4.29.2-4.29Z" style="fill:#9ee6e1"/><path d="M157.58,178.45h-.19L82.19,174a3.2,3.2,0,0,1-3-3.38L85.54,63.16A3.17,3.17,0,0,1,86.6,61a3.22,3.22,0,0,1,2.31-.8L170.46,65a3.2,3.2,0,0,1,3,3.37l-1.27,21.42-6.65,4.83-4.77,80.84A3.21,3.21,0,0,1,157.58,178.45Zm-.07-2a1.17,1.17,0,0,0,1.22-1.08l4.83-81.81,6.65-4.83,1.21-20.45A1.15,1.15,0,0,0,170.34,67L88.79,62.2a1.24,1.24,0,0,0-.83.29,1.11,1.11,0,0,0-.38.79L81.23,170.72a1.16,1.16,0,0,0,1.08,1.22l75.2,4.46Z" style="fill:#0f2e52"/><path d="M122.8,102.2a4.16,4.16,0,0,1-1.27-3,4.27,4.27,0,0,1,4.25-4.27h.31A4.25,4.25,0,0,1,130,99.17a4.37,4.37,0,0,1-.16,1.15L131,100a4.91,4.91,0,0,0,.07-.86,5.27,5.27,0,0,0-5.28-5.26A5.25,5.25,0,0,0,122,95.45a5.27,5.27,0,0,0-.42,7l.32,0Z" style="fill:#0f2e52"/><path d="M117.34,111.52a14.31,14.31,0,1,1,22.57-13.85l1-.26a15.31,15.31,0,0,0-14-12.73c-.38,0-.75,0-1.13,0a15.33,15.33,0,0,0-8.49,28.06Z" style="fill:#0f2e52"/><path d="M144.09,96.57l-1,.26a17.29,17.29,0,0,0-15.82-14.12l-.23,0a17.28,17.28,0,0,0-12.8,29.83l-.71.74a18.3,18.3,0,0,1,13.57-31.59,18.28,18.28,0,0,1,17,14.9Z" style="fill:#0f2e52"/><path d="M176.66,97.93l-54.11,16.44-7.85-1.22a1.14,1.14,0,0,1-.5-1.67l5.79-5.42L174.2,89.6Z" style="fill:#ffe0a5"/><polygon points="122.79 110.38 114.3 112.25 121.84 114.35 124.83 113.18 125.2 111.46 122.79 110.38" style="fill:#fdcf73"/><polygon points="169.31 100.31 166.75 91.51 174.09 89.65 176.65 98.46 169.31 100.31" style="fill:#faab18"/><polygon points="168.83 100.6 124.36 114.12 124.97 111.55 122.79 110.25 123.44 108.81 167.91 97.86 168.83 100.6" style="fill:#fdcf73"/><polygon points="175.26 93.37 169.06 96.44 167.84 92.55 174.66 90.36 175.26 93.37" style="fill:#fbbc3e"/><path d="M181.38,95.3l-1.7-5.58a1.63,1.63,0,0,0-2.1-.94l-2.81.52a2.26,2.26,0,0,0-1.28-.4,2.52,2.52,0,0,0-.67.09l-4.55,1.36a2.36,2.36,0,0,0-.92.56L119.7,105.08l-.23.07-6,5.58-.14.16a2.16,2.16,0,0,0,.95,3.21l8.3,1.32,47.82-14.22a2.57,2.57,0,0,0,.4.06,2.5,2.5,0,0,0,.66-.09l4.55-1.36a2.26,2.26,0,0,0,1.51-1.48l2.57-1.09A1.63,1.63,0,0,0,181.38,95.3Zm-58.9,18L115,112.16l5.51-5.19,1.15-.34,1.58.89-1,1.79a1.06,1.06,0,0,0-.09.82,1.12,1.12,0,0,0,.53.64l1.8,1-.59,1.1Zm2.84-.85.11-.19a1,1,0,0,0,.08-.82,1,1,0,0,0-.52-.64l-1.8-1,1-1.78a1.07,1.07,0,0,0,.09-.82,1.09,1.09,0,0,0-.53-.64l-.63-.34,43.29-12.88,2,6.36Zm45.6-13.27h-.08c-.07,0-.13,0-.14-.08l-2-6.66c0-.06,0-.14.15-.17l.93-.28,2.11,6.88Zm4.55-1.36-2.59.77-2.11-6.88,2.64-.79h.08a.16.16,0,0,1,.14.07l2,6.67C175.63,97.74,175.57,97.82,175.47,97.85Z" style="fill:#0f2e52"/><rect x="81.2" y="72.68" width="10.17" height="3.81" rx="1.5" transform="translate(4.12 -4.52) rotate(3.07)" style="fill:#ffe0a5"/><path d="M81.46,74.77a1.52,1.52,0,0,0,1.23.65l7.32.22s.64.09.75-.38.35,1.36.35,1.36a3.92,3.92,0,0,0-.83.28c-.23.14-6.38,0-6.44,0s-1.75-.53-1.92-.55a2.79,2.79,0,0,1-.73-.52A5.19,5.19,0,0,1,81.46,74.77Z" style="fill:#fdcf73"/><path d="M91.09,74.62A1.51,1.51,0,0,0,89.86,74l-7.32-.22s-.63-.09-.74.38-.36-1.36-.36-1.36a4.15,4.15,0,0,0,.84-.28c.22-.14,6.24.47,6.29.48s1.9.07,2.07.09a2.52,2.52,0,0,1,.72.52A5.19,5.19,0,0,1,91.09,74.62Z" style="fill:#fdf1d8"/><rect x="80.68" y="79.07" width="10.17" height="3.81" rx="1.5" transform="translate(4.46 -4.48) rotate(3.07)" style="fill:#ffe0a5"/><path d="M81.23,80.88a1.51,1.51,0,0,0,1.22.66l7.33.22s.63.09.74-.38.35,1.36.35,1.36A3.92,3.92,0,0,0,90,83c-.23.14-6.38,0-6.44,0s-1.75-.54-1.92-.56a2.5,2.5,0,0,1-.72-.51A5.13,5.13,0,0,1,81.23,80.88Z" style="fill:#fdcf73"/><path d="M90.57,81a1.49,1.49,0,0,0-1.22-.65c-.86,0-7.32-.22-7.32-.22s-.64-.1-.75.38-.35-1.36-.35-1.36a4.63,4.63,0,0,0,.83-.28c.23-.14,6.24.46,6.3.48s1.89.06,2.06.09a2.5,2.5,0,0,1,.72.51A5,5,0,0,1,90.57,81Z" style="fill:#fdf1d8"/><path d="M86.49,160.89s1.14,2.2.67,3.18a2.31,2.31,0,0,1-.87.82c-.47.24-1.73.37-4.77.34l.13-1.78s3.47.38,3.82.05A12.37,12.37,0,0,0,86.49,160.89Z" style="fill:#4dd1c8"/><path d="M91.39,80.38s1.26,2.53.8,3.5a2.31,2.31,0,0,1-.87.82c-.47.24-2,.32-5,.28l.13-2s3.46.38,3.81.06A14.89,14.89,0,0,0,91.39,80.38Z" style="fill:#4dd1c8"/><polygon points="86.38 83.31 86.28 84.98 87.78 84.98 87.89 83.31 86.38 83.31" style="fill:#75dbd5"/><path d="M91.86,74.27s1.16,3.44-.35,3.83a17.1,17.1,0,0,1-4.88.43l.09-1.69s3.16.43,3.51.1A24.44,24.44,0,0,0,91.86,74.27Z" style="fill:#4dd1c8"/><polygon points="86.68 76.82 86.64 78.59 88.25 78.83 88.39 76.92 86.68 76.82" style="fill:#75dbd5"/><path d="M89.81,77.19h-.12l-7.08-.38a2.05,2.05,0,0,1-1.94-2.15l0-.75A2.05,2.05,0,0,1,82.86,72l7.09.38a2,2,0,0,1,1.93,2.15l0,.75a2,2,0,0,1-.67,1.41A2,2,0,0,1,89.81,77.19Zm-.06-1a1.05,1.05,0,0,0,.74-.26,1,1,0,0,0,.33-.71l0-.74a1,1,0,0,0-.26-.74,1,1,0,0,0-.7-.34L82.81,73a1,1,0,0,0-.74.27,1,1,0,0,0-.34.7l0,.74a1,1,0,0,0,1,1.08Z" style="fill:#0f2e52"/><path d="M89.46,83.54h-.11l-7.09-.38A2,2,0,0,1,80.33,81l0-.74a2.07,2.07,0,0,1,2.15-1.93l7.09.38a2,2,0,0,1,1.93,2.15l0,.74A2,2,0,0,1,90.83,83,2,2,0,0,1,89.46,83.54Zm0-1a1,1,0,0,0,1.07-1l0-.75a1,1,0,0,0-.26-.73,1,1,0,0,0-.7-.34l-7.09-.38a1,1,0,0,0-1.08,1l0,.75a1,1,0,0,0,.27.73,1,1,0,0,0,.7.34Z" style="fill:#0f2e52"/><path d="M86.75,154.38s1.51,3.19,0,3.59a18,18,0,0,1-4.82.38l0-1.09s3.16.44,3.51.11A17.87,17.87,0,0,0,86.75,154.38Z" style="fill:#4dd1c8"/><path d="M144.69,135.8a1.09,1.09,0,0,0-.71-.34l-5.09-.28,1.59,1.1,3.44.2-.11,2.12,1,.69.15-2.75A1,1,0,0,0,144.69,135.8Z" style="fill:#494a56"/><path d="M144.94,136.54l-.15,2.75-1-.69.11-2.12-3.44-.2-1.59-1.1,5.09.28a1.09,1.09,0,0,1,.71.34A1,1,0,0,1,144.94,136.54Z" style="fill:#26928b"/><rect x="76.21" y="153.06" width="10.17" height="3.81" rx="1.5" transform="translate(8.42 -4.14) rotate(3.07)" style="fill:#ffe0a5"/><path d="M76.48,155.14a1.51,1.51,0,0,0,1.23.66L85,156s.63.09.74-.38.36,1.36.36,1.36a4.15,4.15,0,0,0-.84.28c-.22.14-6.38,0-6.43,0s-1.76-.54-1.93-.56a2.34,2.34,0,0,1-.72-.52A5.19,5.19,0,0,1,76.48,155.14Z" style="fill:#fdcf73"/><path d="M86.1,155a1.48,1.48,0,0,0-1.22-.66l-7.32-.22s-.64-.09-.75.38-.35-1.36-.35-1.36a3.92,3.92,0,0,0,.83-.28c.23-.14,6.24.47,6.3.48s1.89.07,2.06.09a2.52,2.52,0,0,1,.72.52A5.19,5.19,0,0,1,86.1,155Z" style="fill:#fdf1d8"/><rect x="75.69" y="159.45" width="10.17" height="3.81" rx="1.5" transform="translate(8.77 -4.1) rotate(3.07)" style="fill:#ffe0a5"/><path d="M76.24,161.26a1.51,1.51,0,0,0,1.23.66l7.32.22s.63.09.74-.38.36,1.36.36,1.36a4.15,4.15,0,0,0-.84.28c-.22.14-6.38,0-6.43,0s-1.76-.53-1.93-.55a2.52,2.52,0,0,1-.72-.52A5.19,5.19,0,0,1,76.24,161.26Z" style="fill:#fdcf73"/><path d="M85.59,161.39a1.54,1.54,0,0,0-1.23-.66L77,160.51s-.63-.09-.75.38-.35-1.36-.35-1.36a4.15,4.15,0,0,0,.84-.28c.22-.14,6.24.47,6.29.48s1.9.07,2.07.09a2.67,2.67,0,0,1,.72.52A5.19,5.19,0,0,1,85.59,161.39Z" style="fill:#fdf1d8"/><path d="M84.82,157.57h-.11l-7.09-.38a2,2,0,0,1-1.41-.68,2,2,0,0,1-.52-1.47l0-.75a2.07,2.07,0,0,1,.67-1.41,2,2,0,0,1,1.48-.52l7.09.38a2.05,2.05,0,0,1,1.93,2.15l0,.75A2,2,0,0,1,84.82,157.57Zm-.06-1a1,1,0,0,0,1.08-1l0-.74a1,1,0,0,0-1-1.08l-7.09-.38a1,1,0,0,0-.73.26,1,1,0,0,0-.34.71l0,.74a1,1,0,0,0,.26.74,1,1,0,0,0,.7.34Z" style="fill:#132e52"/><path d="M84.48,163.92h-.11l-7.09-.38a2.05,2.05,0,0,1-1.93-2.15l0-.74a2.05,2.05,0,0,1,2.15-1.94l7.09.38a2.06,2.06,0,0,1,1.93,2.16l0,.74a2.07,2.07,0,0,1-2,1.94Zm-.06-1a1,1,0,0,0,.74-.26,1,1,0,0,0,.34-.7l0-.75a1,1,0,0,0-1-1.08l-7.09-.38a.94.94,0,0,0-.73.27,1,1,0,0,0-.34.7l0,.75a1,1,0,0,0,.26.73,1,1,0,0,0,.7.34Z" style="fill:#132e52"/></svg>