<svg xmlns="http://www.w3.org/2000/svg" xmlns:xlink="http://www.w3.org/1999/xlink" width="400" height="300" viewBox="0 0 400 300">
  <defs>
    <filter id="Card" x="24.5" y="9.5" width="351" height="284" filterUnits="userSpaceOnUse">
      <feOffset dy="1" input="SourceAlpha"/>
      <feGaussianBlur stdDeviation="1.5" result="blur"/>
      <feFlood flood-opacity="0.161"/>
      <feComposite operator="in" in2="blur"/>
      <feComposite in="SourceGraphic"/>
    </filter>
    <linearGradient id="linear-gradient" x1="0.5" x2="0.5" y2="1" gradientUnits="objectBoundingBox">
      <stop offset="0" stop-color="#fff" stop-opacity="0"/>
      <stop offset="1" stop-color="#fff"/>
    </linearGradient>
    <clipPath id="clip-Status_do">
      <rect width="400" height="300"/>
    </clipPath>
  </defs>
  <g id="Status_do" clip-path="url(#clip-Status_do)">
    <rect width="400" height="300" fill="#f4f4f6"/>
    <g id="Card-2" data-name="Card" transform="translate(29 13)">
      <g transform="matrix(1, 0, 0, 1, -29, -13)" filter="url(#Card)">
        <rect id="Card-3" data-name="Card" width="342" height="275" rx="2" transform="translate(29 13)" fill="#fff"/>
      </g>
    </g>
    <g id="Card-4" data-name="Card" transform="translate(29 13)">
      <path id="Card-5" data-name="Card" d="M2,0H340a2,2,0,0,1,2,2V50a0,0,0,0,1,0,0H0a0,0,0,0,1,0,0V2A2,2,0,0,1,2,0Z" fill="#2777d3"/>
    </g>
    <g id="Card-6" data-name="Card" transform="translate(29 63)">
      <rect id="Card-7" data-name="Card" width="342" height="30" fill="#e6e6ea"/>
    </g>
    <g id="Chevron_down" data-name="Chevron down" transform="translate(52 38)">
      <g id="Chevron_down-2" data-name="Chevron down" transform="translate(-8 -8)">
        <path id="Path_101156" data-name="Path 101156" d="M12,5.3l1.3,1.3a.3.3,0,0,1,0,.4L8.2,12a.3.3,0,0,1-.4,0l-5-5a.3.3,0,0,1,0-.4L4,5.3a.3.3,0,0,1,.4,0L8,8.9l3.6-3.6a.3.3,0,0,1,.4,0Z" fill="#fff"/>
        <rect id="Rectangle_9762" data-name="Rectangle 9762" width="16" height="16" fill="none"/>
      </g>
    </g>
    <path id="Path_101268" data-name="Path 101268" d="M10-4.531Q10,.188,5.531.188,1.25.188,1.25-4.352V-11.2H3.109v6.469q0,3.3,2.563,3.3,2.469,0,2.469-3.18V-11.2H10ZM14.273-1.18h-.031V3.68H12.43V-8h1.813v1.406h.031a2.97,2.97,0,0,1,2.719-1.594,2.864,2.864,0,0,1,2.375,1.07,4.489,4.489,0,0,1,.852,2.875,4.984,4.984,0,0,1-.961,3.2,3.178,3.178,0,0,1-2.625,1.2A2.621,2.621,0,0,1,14.273-1.18Zm-.047-3.156v.992a2.117,2.117,0,0,0,.559,1.484A1.84,1.84,0,0,0,16.2-1.25a1.852,1.852,0,0,0,1.582-.785,3.654,3.654,0,0,0,.574-2.191,2.88,2.88,0,0,0-.535-1.848,1.759,1.759,0,0,0-1.449-.668,1.953,1.953,0,0,0-1.559.688A2.547,2.547,0,0,0,14.227-4.336ZM23.891,0H22.07V-11.844h1.82ZM29.8.188A3.965,3.965,0,0,1,26.84-.934a4.05,4.05,0,0,1-1.105-2.973,4.214,4.214,0,0,1,1.152-3.148,4.237,4.237,0,0,1,3.105-1.133,3.838,3.838,0,0,1,2.922,1.1,4.255,4.255,0,0,1,1.047,3.055A4.193,4.193,0,0,1,32.832-.965,4.055,4.055,0,0,1,29.8.188Zm.086-6.93A2.069,2.069,0,0,0,28.2-6a3.108,3.108,0,0,0-.617,2.047,2.927,2.927,0,0,0,.625,1.98,2.1,2.1,0,0,0,1.672.723,1.992,1.992,0,0,0,1.645-.711A3.147,3.147,0,0,0,32.1-3.984a3.2,3.2,0,0,0-.574-2.039A1.982,1.982,0,0,0,29.883-6.742ZM41.758,0H40V-1.25h-.031A2.647,2.647,0,0,1,37.539.188a2.559,2.559,0,0,1-1.848-.641,2.241,2.241,0,0,1-.668-1.7q0-2.266,2.609-2.641l2.375-.336q0-1.711-1.625-1.711a3.86,3.86,0,0,0-2.578.984V-7.437a5.622,5.622,0,0,1,2.922-.75q3.031,0,3.031,2.984Zm-1.75-3.93-1.68.234a2.662,2.662,0,0,0-1.176.379,1.107,1.107,0,0,0-.395.973,1.065,1.065,0,0,0,.363.832,1.407,1.407,0,0,0,.973.324,1.8,1.8,0,0,0,1.371-.582,2.064,2.064,0,0,0,.543-1.465ZM51.242,0H49.43V-1.359H49.4A2.891,2.891,0,0,1,46.7.188,2.909,2.909,0,0,1,44.34-.887a4.459,4.459,0,0,1-.887-2.926,4.858,4.858,0,0,1,.98-3.18,3.209,3.209,0,0,1,2.613-1.2,2.5,2.5,0,0,1,2.352,1.3h.031v-4.953h1.813ZM49.453-3.656V-4.7A2.04,2.04,0,0,0,48.9-6.148a1.85,1.85,0,0,0-1.414-.594,1.9,1.9,0,0,0-1.6.758,3.377,3.377,0,0,0-.582,2.1,3.026,3.026,0,0,0,.559,1.926,1.817,1.817,0,0,0,1.5.707,1.881,1.881,0,0,0,1.508-.684A2.575,2.575,0,0,0,49.453-3.656ZM63.734-.367a4.47,4.47,0,0,1-2.273.555A3.85,3.85,0,0,1,58.586-.926a3.944,3.944,0,0,1-1.094-2.887,4.341,4.341,0,0,1,1.176-3.176,4.2,4.2,0,0,1,3.145-1.2,4.59,4.59,0,0,1,1.93.383v1.688a2.923,2.923,0,0,0-1.781-.625,2.475,2.475,0,0,0-1.883.777,2.842,2.842,0,0,0-.734,2.035,2.71,2.71,0,0,0,.691,1.961,2.455,2.455,0,0,0,1.855.719,2.9,2.9,0,0,0,1.844-.7Zm5.344.555A3.965,3.965,0,0,1,66.121-.934a4.05,4.05,0,0,1-1.105-2.973,4.214,4.214,0,0,1,1.152-3.148,4.237,4.237,0,0,1,3.105-1.133,3.838,3.838,0,0,1,2.922,1.1,4.255,4.255,0,0,1,1.047,3.055A4.193,4.193,0,0,1,72.113-.965,4.055,4.055,0,0,1,69.078.188Zm.086-6.93A2.069,2.069,0,0,0,67.484-6a3.108,3.108,0,0,0-.617,2.047,2.927,2.927,0,0,0,.625,1.98,2.1,2.1,0,0,0,1.672.723,1.992,1.992,0,0,0,1.645-.711,3.147,3.147,0,0,0,.574-2.023,3.2,3.2,0,0,0-.574-2.039A1.982,1.982,0,0,0,69.164-6.742ZM87.047,0H85.234V-4.359a3.533,3.533,0,0,0-.355-1.82,1.308,1.308,0,0,0-1.2-.562,1.445,1.445,0,0,0-1.207.711,2.9,2.9,0,0,0-.5,1.7V0h-1.82V-4.508q0-2.234-1.578-2.234a1.424,1.424,0,0,0-1.207.672A2.963,2.963,0,0,0,76.9-4.328V0H75.086V-8H76.9v1.266h.031a2.771,2.771,0,0,1,2.523-1.453A2.379,2.379,0,0,1,80.9-7.73a2.276,2.276,0,0,1,.848,1.2,2.855,2.855,0,0,1,2.656-1.656q2.641,0,2.641,3.258ZM91.1-1.18H91.07V3.68H89.258V-8H91.07v1.406H91.1A2.97,2.97,0,0,1,93.82-8.187,2.864,2.864,0,0,1,96.2-7.117a4.489,4.489,0,0,1,.852,2.875,4.984,4.984,0,0,1-.961,3.2,3.178,3.178,0,0,1-2.625,1.2A2.621,2.621,0,0,1,91.1-1.18Zm-.047-3.156v.992a2.117,2.117,0,0,0,.559,1.484,1.84,1.84,0,0,0,1.418.609,1.852,1.852,0,0,0,1.582-.785,3.654,3.654,0,0,0,.574-2.191,2.88,2.88,0,0,0-.535-1.848A1.759,1.759,0,0,0,93.2-6.742a1.953,1.953,0,0,0-1.559.688A2.547,2.547,0,0,0,91.055-4.336ZM100.719,0H98.9V-11.844h1.82Zm9.133-3.508H104.4a2.305,2.305,0,0,0,.684,1.711,2.543,2.543,0,0,0,1.793.6,3.954,3.954,0,0,0,2.352-.766V-.5a5.373,5.373,0,0,1-2.891.688,3.578,3.578,0,0,1-2.77-1.09,4.359,4.359,0,0,1-1-3.066,4.263,4.263,0,0,1,1.105-3.043,3.616,3.616,0,0,1,2.746-1.176,3.153,3.153,0,0,1,2.539,1.055,4.379,4.379,0,0,1,.9,2.93ZM108.1-4.789a2.336,2.336,0,0,0-.461-1.52,1.54,1.54,0,0,0-1.25-.543,1.759,1.759,0,0,0-1.324.57,2.605,2.605,0,0,0-.668,1.492Zm7.7,4.7a3.141,3.141,0,0,1-1.4.266q-2.328,0-2.328-2.234V-6.578h-1.336V-8h1.336V-9.852l1.813-.516V-8H115.8v1.422h-1.914v4a1.576,1.576,0,0,0,.258,1.016,1.07,1.07,0,0,0,.859.3,1.246,1.246,0,0,0,.8-.266Zm8.242-3.422h-5.453A2.305,2.305,0,0,0,119.27-1.8a2.543,2.543,0,0,0,1.793.6,3.954,3.954,0,0,0,2.352-.766V-.5a5.373,5.373,0,0,1-2.891.688,3.578,3.578,0,0,1-2.77-1.09,4.359,4.359,0,0,1-1-3.066,4.263,4.263,0,0,1,1.105-3.043A3.616,3.616,0,0,1,120.6-8.187a3.153,3.153,0,0,1,2.539,1.055,4.379,4.379,0,0,1,.9,2.93Zm-1.75-1.281a2.336,2.336,0,0,0-.461-1.52,1.54,1.54,0,0,0-1.25-.543,1.759,1.759,0,0,0-1.324.57,2.605,2.605,0,0,0-.668,1.492Z" transform="translate(70 45)" fill="#fff"/>
    <path id="Path_101269" data-name="Path 101269" d="M3.3-7.874V0H2.057V-6.349a3.969,3.969,0,0,1-.728.411,6,6,0,0,1-.889.3V-6.7q.312-.1.6-.215t.572-.252q.282-.14.569-.312t.594-.392ZM7.4.129A2.151,2.151,0,0,1,5.519-.854,5.009,5.009,0,0,1,4.845-3.7a5.558,5.558,0,0,1,.7-3.088,2.3,2.3,0,0,1,2.03-1.047q2.541,0,2.541,3.948A5.2,5.2,0,0,1,9.4-.9,2.307,2.307,0,0,1,7.4.129ZM7.52-6.837q-1.4,0-1.4,3.088,0,2.89,1.375,2.89,1.354,0,1.354-2.938Q8.846-6.837,7.52-6.837Zm7.67-.865-3.722,8.98H10.334L14.04-7.7Zm3.2-.172V0H17.139V-6.349a3.969,3.969,0,0,1-.728.411,6,6,0,0,1-.889.3V-6.7q.312-.1.6-.215T16.7-7.17q.282-.14.569-.312t.594-.392ZM20.168-.285V-1.456a2.661,2.661,0,0,0,1.7.6,1.978,1.978,0,0,0,1.227-.349,1.125,1.125,0,0,0,.459-.945q0-1.311-2-1.311h-.6v-1h.569Q23.3-4.463,23.3-5.7q0-1.139-1.386-1.139a2.272,2.272,0,0,0-1.456.553V-7.391a3.724,3.724,0,0,1,1.853-.44,2.482,2.482,0,0,1,1.644.516,1.644,1.644,0,0,1,.618,1.321,1.883,1.883,0,0,1-1.547,1.955v.021a2.027,2.027,0,0,1,1.316.583,1.737,1.737,0,0,1,.483,1.254,2.056,2.056,0,0,1-.779,1.673,3.141,3.141,0,0,1-2.052.636A3.5,3.5,0,0,1,20.168-.285Zm9.91-6.37a.749.749,0,0,1-.524-.2.654.654,0,0,1-.218-.5.671.671,0,0,1,.218-.51.738.738,0,0,1,.524-.2.761.761,0,0,1,.537.2.667.667,0,0,1,.22.51.657.657,0,0,1-.22.5A.756.756,0,0,1,30.078-6.655ZM30.7,0H29.45V-5.5H30.7Zm4.528-.059a2.159,2.159,0,0,1-.961.183q-1.6,0-1.6-1.536v-3.11h-.918V-5.5h.918V-6.773l1.246-.354V-5.5h1.316v.978H33.908v2.75a1.084,1.084,0,0,0,.177.7.736.736,0,0,0,.591.209.857.857,0,0,0,.548-.183ZM40.89-2.412H37.141a1.585,1.585,0,0,0,.47,1.176,1.749,1.749,0,0,0,1.233.414,2.718,2.718,0,0,0,1.617-.526v1a3.694,3.694,0,0,1-1.987.473,2.46,2.46,0,0,1-1.9-.749,3,3,0,0,1-.69-2.108,2.931,2.931,0,0,1,.76-2.092,2.486,2.486,0,0,1,1.888-.808,2.168,2.168,0,0,1,1.746.725A3.01,3.01,0,0,1,40.89-2.89Zm-1.2-.881a1.606,1.606,0,0,0-.317-1.045,1.059,1.059,0,0,0-.859-.373,1.209,1.209,0,0,0-.91.392,1.791,1.791,0,0,0-.459,1.026ZM50.3,0H49.054V-3a2.429,2.429,0,0,0-.244-1.251.9.9,0,0,0-.824-.387.994.994,0,0,0-.83.489,1.994,1.994,0,0,0-.341,1.171V0H45.563V-3.1q0-1.536-1.085-1.536a.979.979,0,0,0-.83.462,2.037,2.037,0,0,0-.325,1.2V0H42.077V-5.5h1.246v.87h.021a1.905,1.905,0,0,1,1.735-1,1.636,1.636,0,0,1,1,.314,1.565,1.565,0,0,1,.583.824,1.963,1.963,0,0,1,1.826-1.139q1.815,0,1.815,2.24Zm1.176-.172V-1.327a2.486,2.486,0,0,0,1.542.532q1.128,0,1.128-.666a.525.525,0,0,0-.1-.32.923.923,0,0,0-.26-.234A2.048,2.048,0,0,0,53.4-2.2l-.5-.183a5.26,5.26,0,0,1-.61-.285,1.842,1.842,0,0,1-.451-.341,1.287,1.287,0,0,1-.271-.432A1.592,1.592,0,0,1,51.482-4a1.3,1.3,0,0,1,.188-.7,1.634,1.634,0,0,1,.5-.51,2.421,2.421,0,0,1,.72-.312,3.3,3.3,0,0,1,.833-.1,3.785,3.785,0,0,1,1.364.231v1.09a2.3,2.3,0,0,0-1.332-.4,1.74,1.74,0,0,0-.427.048,1.1,1.1,0,0,0-.325.134.661.661,0,0,0-.209.207.493.493,0,0,0-.075.266.568.568,0,0,0,.075.3.683.683,0,0,0,.223.218,1.925,1.925,0,0,0,.354.172q.207.078.475.169a6.945,6.945,0,0,1,.636.3,2.151,2.151,0,0,1,.481.341,1.337,1.337,0,0,1,.306.44,1.5,1.5,0,0,1,.107.594,1.357,1.357,0,0,1-.193.73,1.612,1.612,0,0,1-.516.516,2.414,2.414,0,0,1-.744.3,3.865,3.865,0,0,1-.889.1A3.745,3.745,0,0,1,51.477-.172ZM64.383,0H63.137V-.87h-.021a1.793,1.793,0,0,1-1.687,1q-1.95,0-1.95-2.342V-5.5h1.246v3.158q0,1.482,1.144,1.482a1.156,1.156,0,0,0,.91-.408,1.564,1.564,0,0,0,.357-1.069V-5.5h1.246Zm2.89-.811h-.021V2.53H66.005V-5.5h1.246v.967h.021a2.042,2.042,0,0,1,1.869-1.1,1.969,1.969,0,0,1,1.633.736,3.086,3.086,0,0,1,.585,1.977,3.427,3.427,0,0,1-.661,2.2,2.185,2.185,0,0,1-1.8.827A1.8,1.8,0,0,1,67.273-.811Zm-.032-2.17V-2.3a1.456,1.456,0,0,0,.384,1.021,1.265,1.265,0,0,0,.975.419,1.274,1.274,0,0,0,1.088-.54,2.512,2.512,0,0,0,.395-1.507,1.98,1.98,0,0,0-.368-1.27,1.209,1.209,0,0,0-1-.459,1.342,1.342,0,0,0-1.072.473A1.751,1.751,0,0,0,67.241-2.981ZM73.885,0H72.633V-8.143h1.251Zm4.061.129a2.726,2.726,0,0,1-2.033-.771,2.784,2.784,0,0,1-.76-2.044,2.9,2.9,0,0,1,.792-2.165,2.913,2.913,0,0,1,2.135-.779,2.639,2.639,0,0,1,2.009.757,2.925,2.925,0,0,1,.72,2.1,2.883,2.883,0,0,1-.776,2.108A2.788,2.788,0,0,1,77.945.129ZM78-4.635a1.422,1.422,0,0,0-1.155.51,2.137,2.137,0,0,0-.424,1.407,2.012,2.012,0,0,0,.43,1.362A1.443,1.443,0,0,0,78-.859a1.369,1.369,0,0,0,1.131-.489,2.164,2.164,0,0,0,.395-1.391,2.2,2.2,0,0,0-.395-1.4A1.363,1.363,0,0,0,78-4.635ZM86.168,0H84.96V-.859h-.021a1.82,1.82,0,0,1-1.67.988A1.76,1.76,0,0,1,82-.312a1.54,1.54,0,0,1-.459-1.166q0-1.558,1.794-1.815l1.633-.231q0-1.176-1.117-1.176a2.654,2.654,0,0,0-1.772.677v-1.09a3.865,3.865,0,0,1,2.009-.516,1.828,1.828,0,0,1,2.084,2.052Zm-1.2-2.7-1.155.161A1.83,1.83,0,0,0,83-2.28a.761.761,0,0,0-.271.669.732.732,0,0,0,.25.572.967.967,0,0,0,.669.223,1.234,1.234,0,0,0,.943-.4,1.419,1.419,0,0,0,.373-1.007ZM92.689,0H91.443V-.935h-.021A1.988,1.988,0,0,1,89.568.129,2,2,0,0,1,87.944-.61a3.066,3.066,0,0,1-.61-2.011,3.34,3.34,0,0,1,.674-2.186,2.206,2.206,0,0,1,1.8-.822,1.72,1.72,0,0,1,1.617.892h.021V-8.143h1.246Zm-1.23-2.514v-.72a1.4,1.4,0,0,0-.381-.994,1.272,1.272,0,0,0-.972-.408,1.309,1.309,0,0,0-1.1.521,2.322,2.322,0,0,0-.4,1.445,2.08,2.08,0,0,0,.384,1.324,1.249,1.249,0,0,0,1.034.486,1.293,1.293,0,0,0,1.037-.47A1.771,1.771,0,0,0,91.459-2.514Zm7.514.1H95.224a1.585,1.585,0,0,0,.47,1.176,1.749,1.749,0,0,0,1.233.414,2.718,2.718,0,0,0,1.617-.526v1a3.694,3.694,0,0,1-1.987.473,2.46,2.46,0,0,1-1.9-.749,3,3,0,0,1-.69-2.108,2.931,2.931,0,0,1,.76-2.092,2.486,2.486,0,0,1,1.888-.808,2.168,2.168,0,0,1,1.746.725,3.011,3.011,0,0,1,.618,2.014Zm-1.2-.881a1.606,1.606,0,0,0-.317-1.045,1.059,1.059,0,0,0-.859-.373,1.209,1.209,0,0,0-.91.392,1.791,1.791,0,0,0-.459,1.026ZM105.161,0h-1.246V-.935h-.021A1.988,1.988,0,0,1,102.04.129a2,2,0,0,1-1.625-.739,3.066,3.066,0,0,1-.61-2.011,3.34,3.34,0,0,1,.674-2.186,2.206,2.206,0,0,1,1.8-.822,1.72,1.72,0,0,1,1.617.892h.021V-8.143h1.246Zm-1.23-2.514v-.72a1.4,1.4,0,0,0-.381-.994,1.272,1.272,0,0,0-.972-.408,1.309,1.309,0,0,0-1.1.521,2.322,2.322,0,0,0-.4,1.445,2.08,2.08,0,0,0,.384,1.324,1.249,1.249,0,0,0,1.034.486,1.293,1.293,0,0,0,1.037-.47A1.771,1.771,0,0,0,103.931-2.514Zm5.538,2.342V-1.327a2.486,2.486,0,0,0,1.542.532q1.128,0,1.128-.666a.525.525,0,0,0-.1-.32.923.923,0,0,0-.26-.234,2.048,2.048,0,0,0-.387-.183l-.5-.183a5.259,5.259,0,0,1-.61-.285,1.842,1.842,0,0,1-.451-.341,1.287,1.287,0,0,1-.271-.432A1.592,1.592,0,0,1,109.474-4a1.3,1.3,0,0,1,.188-.7,1.634,1.634,0,0,1,.5-.51,2.421,2.421,0,0,1,.72-.312,3.3,3.3,0,0,1,.833-.1,3.785,3.785,0,0,1,1.364.231v1.09a2.3,2.3,0,0,0-1.332-.4,1.74,1.74,0,0,0-.427.048,1.1,1.1,0,0,0-.325.134.661.661,0,0,0-.209.207.493.493,0,0,0-.075.266.568.568,0,0,0,.075.3.683.683,0,0,0,.223.218,1.925,1.925,0,0,0,.354.172q.207.078.475.169a6.945,6.945,0,0,1,.636.3,2.151,2.151,0,0,1,.481.341,1.337,1.337,0,0,1,.306.44,1.5,1.5,0,0,1,.107.594,1.357,1.357,0,0,1-.193.73,1.612,1.612,0,0,1-.516.516,2.414,2.414,0,0,1-.744.3,3.865,3.865,0,0,1-.889.1A3.745,3.745,0,0,1,109.468-.172ZM119.351,0H118.1V-.87h-.021a1.793,1.793,0,0,1-1.687,1q-1.95,0-1.95-2.342V-5.5h1.246v3.158q0,1.482,1.144,1.482a1.156,1.156,0,0,0,.91-.408,1.564,1.564,0,0,0,.357-1.069V-5.5h1.246Zm5.559-.252a3.073,3.073,0,0,1-1.563.381,2.647,2.647,0,0,1-1.977-.765,2.711,2.711,0,0,1-.752-1.985,2.984,2.984,0,0,1,.808-2.183,2.89,2.89,0,0,1,2.162-.824,3.156,3.156,0,0,1,1.327.263v1.16a2.009,2.009,0,0,0-1.225-.43A1.7,1.7,0,0,0,122.4-4.1a1.954,1.954,0,0,0-.5,1.4,1.863,1.863,0,0,0,.475,1.348,1.688,1.688,0,0,0,1.276.494,1.994,1.994,0,0,0,1.268-.478Zm5.172,0a3.073,3.073,0,0,1-1.563.381,2.647,2.647,0,0,1-1.977-.765,2.711,2.711,0,0,1-.752-1.985A2.984,2.984,0,0,1,126.6-4.8a2.89,2.89,0,0,1,2.162-.824,3.156,3.156,0,0,1,1.327.263v1.16a2.009,2.009,0,0,0-1.225-.43,1.7,1.7,0,0,0-1.294.534,1.954,1.954,0,0,0-.5,1.4,1.863,1.863,0,0,0,.475,1.348,1.688,1.688,0,0,0,1.276.494,1.994,1.994,0,0,0,1.268-.478Zm5.892-2.159h-3.749a1.585,1.585,0,0,0,.47,1.176,1.749,1.749,0,0,0,1.233.414,2.718,2.718,0,0,0,1.617-.526v1a3.694,3.694,0,0,1-1.987.473,2.46,2.46,0,0,1-1.9-.749,3,3,0,0,1-.69-2.108,2.931,2.931,0,0,1,.76-2.092,2.486,2.486,0,0,1,1.888-.808,2.168,2.168,0,0,1,1.746.725,3.01,3.01,0,0,1,.618,2.014Zm-1.2-.881a1.606,1.606,0,0,0-.317-1.045,1.059,1.059,0,0,0-.859-.373,1.209,1.209,0,0,0-.91.392,1.791,1.791,0,0,0-.459,1.026Zm2.046,3.121V-1.327a2.486,2.486,0,0,0,1.542.532q1.128,0,1.128-.666a.525.525,0,0,0-.1-.32.923.923,0,0,0-.26-.234,2.048,2.048,0,0,0-.387-.183l-.5-.183a5.26,5.26,0,0,1-.61-.285,1.842,1.842,0,0,1-.451-.341,1.287,1.287,0,0,1-.271-.432A1.592,1.592,0,0,1,136.823-4a1.3,1.3,0,0,1,.188-.7,1.634,1.634,0,0,1,.5-.51,2.421,2.421,0,0,1,.72-.312,3.3,3.3,0,0,1,.833-.1,3.785,3.785,0,0,1,1.364.231v1.09a2.3,2.3,0,0,0-1.332-.4,1.74,1.74,0,0,0-.427.048,1.1,1.1,0,0,0-.325.134.661.661,0,0,0-.209.207.493.493,0,0,0-.075.266.568.568,0,0,0,.075.3.683.683,0,0,0,.223.218,1.925,1.925,0,0,0,.354.172q.207.078.475.169a6.945,6.945,0,0,1,.636.3,2.151,2.151,0,0,1,.481.341,1.337,1.337,0,0,1,.306.44,1.5,1.5,0,0,1,.107.594,1.357,1.357,0,0,1-.193.73,1.612,1.612,0,0,1-.516.516,2.414,2.414,0,0,1-.744.3,3.865,3.865,0,0,1-.889.1A3.745,3.745,0,0,1,136.818-.172Zm4.743,0V-1.327a2.486,2.486,0,0,0,1.542.532q1.128,0,1.128-.666a.525.525,0,0,0-.1-.32.923.923,0,0,0-.26-.234,2.048,2.048,0,0,0-.387-.183l-.5-.183a5.26,5.26,0,0,1-.61-.285,1.842,1.842,0,0,1-.451-.341,1.287,1.287,0,0,1-.271-.432A1.592,1.592,0,0,1,141.566-4a1.3,1.3,0,0,1,.188-.7,1.634,1.634,0,0,1,.5-.51,2.421,2.421,0,0,1,.72-.312,3.3,3.3,0,0,1,.833-.1,3.785,3.785,0,0,1,1.364.231v1.09a2.3,2.3,0,0,0-1.332-.4,1.74,1.74,0,0,0-.427.048,1.1,1.1,0,0,0-.325.134.661.661,0,0,0-.209.207.493.493,0,0,0-.075.266.568.568,0,0,0,.075.3.683.683,0,0,0,.223.218,1.925,1.925,0,0,0,.354.172q.207.078.475.169a6.945,6.945,0,0,1,.636.3,2.151,2.151,0,0,1,.481.341,1.337,1.337,0,0,1,.306.44,1.5,1.5,0,0,1,.107.594,1.357,1.357,0,0,1-.193.73,1.612,1.612,0,0,1-.516.516,2.414,2.414,0,0,1-.744.3,3.865,3.865,0,0,1-.889.1A3.745,3.745,0,0,1,141.561-.172Zm8.2-6.956a1.133,1.133,0,0,0-.575-.145q-.908,0-.908,1.026V-5.5h1.278v.978H148.28V0h-1.246V-4.522h-.94V-5.5h.94v-.892a1.736,1.736,0,0,1,.569-1.372,2.073,2.073,0,0,1,1.423-.5,2.114,2.114,0,0,1,.73.1ZM155.235,0h-1.246V-.87h-.021a1.793,1.793,0,0,1-1.687,1q-1.95,0-1.95-2.342V-5.5h1.246v3.158q0,1.482,1.144,1.482a1.156,1.156,0,0,0,.91-.408,1.564,1.564,0,0,0,.357-1.069V-5.5h1.246Zm2.874,0h-1.251V-8.143h1.251Zm2.874,0h-1.251V-8.143h1.251Zm6.386-5.5L164.887.881a2.4,2.4,0,0,1-2.17,1.708,2.6,2.6,0,0,1-.655-.07V1.482a1.743,1.743,0,0,0,.537.1,1.108,1.108,0,0,0,1.042-.687l.371-.9L161.826-5.5h1.38l1.311,4q.021.075.1.4h.027q.027-.124.1-.387L166.112-5.5Z" transform="translate(44 84)" fill="#31313a"/>
    <g id="Remove" transform="translate(352 38)">
      <g id="Remove-2" data-name="Remove" transform="translate(-12 -8)">
        <path id="Path_101159" data-name="Path 101159" d="M12.8,11.4a.5.5,0,0,1,0,.7l-.7.7a.5.5,0,0,1-.7,0L8,9.4,4.6,12.8a.5.5,0,0,1-.7,0l-.7-.7a.5.5,0,0,1,0-.7L6.6,8,3.2,4.6a.5.5,0,0,1,0-.7l.7-.7a.5.5,0,0,1,.7,0L8,6.6l3.4-3.4a.5.5,0,0,1,.7,0l.7.7a.5.5,0,0,1,0,.7L9.4,8Z" fill="#fff"/>
        <rect id="Rectangle_9765" data-name="Rectangle 9765" width="16" height="16" fill="none"/>
      </g>
    </g>
    <g id="Word" transform="translate(47 111)">
      <g id="Group_264156" data-name="Group 264156" transform="translate(-8 -8.002)">
        <g id="Group_264155" data-name="Group 264155">
          <path id="Path_101164" data-name="Path 101164" d="M14.3,2.7,11.7.1H2.3a.7.7,0,0,0-.7.7v15A.4.4,0,0,0,2,16H14a.4.4,0,0,0,.4-.4V2.9ZM11.6,1.6l1.2,1.2H11.6Zm1.6,13.2H2.8V1.2h7.6V4h2.8Z" fill="#2f2f2f"/>
          <path id="Path_101165" data-name="Path 101165" d="M9.7,9.1l-.2,1.3-.2-.9L9.1,8.4,8.6,6.5H7.4L6.9,8.4l-.2,1-.2,1L6.3,9.1,5.7,6.5H4.4l1.3,5.1H7.3l.5-2.3v.1l.5,2.2H9.9l1.3-5.1h-.9Z" fill="#2f2f2f"/>
        </g>
        <rect id="Rectangle_9771" data-name="Rectangle 9771" width="16" height="16" fill="none"/>
      </g>
    </g>
    <g id="Word-2" data-name="Word" transform="translate(47 262)">
      <g id="Group_264200" data-name="Group 264200" transform="translate(-8 -8.002)">
        <g id="Group_264199" data-name="Group 264199">
          <path id="Path_101236" data-name="Path 101236" d="M14.3,2.7,11.7.1H2.3a.7.7,0,0,0-.7.7v15A.4.4,0,0,0,2,16H14a.4.4,0,0,0,.4-.4V2.9ZM11.6,1.6l1.2,1.2H11.6Zm1.6,13.2H2.8V1.2h7.6V4h2.8Z" fill="#2f2f2f"/>
          <path id="Path_101237" data-name="Path 101237" d="M9.7,9.1l-.2,1.3-.2-.9L9.1,8.4,8.6,6.5H7.4L6.9,8.4l-.2,1-.2,1L6.3,9.1,5.7,6.5H4.4l1.3,5.1H7.3l.5-2.3v.1l.5,2.2H9.9l1.3-5.1h-.9Z" fill="#2f2f2f"/>
        </g>
        <rect id="Rectangle_9797" data-name="Rectangle 9797" width="16" height="16" fill="none"/>
      </g>
    </g>
    <text id="_" data-name="  " transform="translate(195 303)" fill="#31313a" font-size="11" font-family="SegoeUI-Semibold, Segoe UI" font-weight="600"><tspan x="0" y="0" xml:space="preserve">  </tspan></text>
    <path id="Path_101270" data-name="Path 101270" d="M1.794-.795H1.772V2.53H.892V-5.5h.881v.967h.021a2.083,2.083,0,0,1,1.9-1.1,2.014,2.014,0,0,1,1.66.739,3.059,3.059,0,0,1,.6,1.979A3.409,3.409,0,0,1,5.28-.7a2.235,2.235,0,0,1-1.837.83A1.84,1.84,0,0,1,1.794-.795ZM1.772-3.013v.768a1.635,1.635,0,0,0,.443,1.157,1.471,1.471,0,0,0,1.125.475,1.474,1.474,0,0,0,1.254-.612,2.809,2.809,0,0,0,.454-1.7,2.217,2.217,0,0,0-.424-1.439,1.4,1.4,0,0,0-1.149-.521,1.561,1.561,0,0,0-1.235.534A1.962,1.962,0,0,0,1.772-3.013Zm8.454-1.6a1.077,1.077,0,0,0-.666-.177,1.124,1.124,0,0,0-.943.532A2.458,2.458,0,0,0,8.239-2.8V0H7.358V-5.5h.881v1.133h.021a1.921,1.921,0,0,1,.575-.905A1.311,1.311,0,0,1,9.7-5.6a1.438,1.438,0,0,1,.526.075ZM13.481.129a2.551,2.551,0,0,1-1.947-.771,2.855,2.855,0,0,1-.728-2.044,2.974,2.974,0,0,1,.757-2.165,2.723,2.723,0,0,1,2.046-.779,2.467,2.467,0,0,1,1.92.757,3,3,0,0,1,.69,2.1,2.955,2.955,0,0,1-.744,2.108A2.607,2.607,0,0,1,13.481.129Zm.064-5.017A1.675,1.675,0,0,0,12.2-4.31a2.371,2.371,0,0,0-.494,1.593,2.243,2.243,0,0,0,.5,1.542,1.7,1.7,0,0,0,1.337.564,1.61,1.61,0,0,0,1.313-.553,2.4,2.4,0,0,0,.459-1.574,2.442,2.442,0,0,0-.459-1.59A1.6,1.6,0,0,0,13.546-4.888ZM17.295-.2v-.945a2.607,2.607,0,0,0,1.584.532q1.16,0,1.16-.773a.671.671,0,0,0-.1-.373.99.99,0,0,0-.269-.271,2.067,2.067,0,0,0-.4-.212q-.228-.094-.491-.2a6.33,6.33,0,0,1-.642-.293,1.939,1.939,0,0,1-.462-.333,1.239,1.239,0,0,1-.279-.422,1.492,1.492,0,0,1-.094-.553,1.314,1.314,0,0,1,.177-.685,1.572,1.572,0,0,1,.473-.5,2.2,2.2,0,0,1,.674-.3,2.99,2.99,0,0,1,.781-.1,3.156,3.156,0,0,1,1.278.247v.892a2.491,2.491,0,0,0-1.4-.4,1.632,1.632,0,0,0-.446.056,1.091,1.091,0,0,0-.341.158.732.732,0,0,0-.22.244.644.644,0,0,0-.078.314.754.754,0,0,0,.078.36.792.792,0,0,0,.228.258,1.745,1.745,0,0,0,.365.2q.215.091.489.2a6.8,6.8,0,0,1,.655.287,2.247,2.247,0,0,1,.494.333,1.3,1.3,0,0,1,.314.427,1.377,1.377,0,0,1,.11.575,1.355,1.355,0,0,1-.18.709,1.542,1.542,0,0,1-.481.5,2.2,2.2,0,0,1-.693.3,3.421,3.421,0,0,1-.822.1A3.12,3.12,0,0,1,17.295-.2Zm5.9-.6h-.021V2.53H22.3V-5.5h.881v.967H23.2a2.083,2.083,0,0,1,1.9-1.1,2.014,2.014,0,0,1,1.66.739,3.059,3.059,0,0,1,.6,1.979A3.409,3.409,0,0,1,26.684-.7a2.235,2.235,0,0,1-1.837.83A1.84,1.84,0,0,1,23.2-.795Zm-.021-2.218v.768a1.635,1.635,0,0,0,.443,1.157,1.471,1.471,0,0,0,1.125.475A1.474,1.474,0,0,0,26-1.225a2.809,2.809,0,0,0,.454-1.7,2.217,2.217,0,0,0-.424-1.439,1.4,1.4,0,0,0-1.149-.521,1.561,1.561,0,0,0-1.235.534A1.962,1.962,0,0,0,23.176-3.013Zm10.006.483H29.3a2.057,2.057,0,0,0,.494,1.418,1.7,1.7,0,0,0,1.3.5A2.7,2.7,0,0,0,32.8-1.225V-.4a3.192,3.192,0,0,1-1.917.526A2.325,2.325,0,0,1,29.052-.62a3.067,3.067,0,0,1-.666-2.108,3.007,3.007,0,0,1,.728-2.092,2.334,2.334,0,0,1,1.807-.808,2.068,2.068,0,0,1,1.67.7,2.911,2.911,0,0,1,.591,1.939Zm-.9-.747a1.792,1.792,0,0,0-.368-1.187,1.254,1.254,0,0,0-1.007-.424,1.423,1.423,0,0,0-1.058.446,2.023,2.023,0,0,0-.537,1.166ZM38.264-.252a2.862,2.862,0,0,1-1.5.381,2.49,2.49,0,0,1-1.9-.765,2.774,2.774,0,0,1-.722-1.985A3.049,3.049,0,0,1,34.917-4.8,2.724,2.724,0,0,1,37-5.629a2.893,2.893,0,0,1,1.278.269v.9a2.24,2.24,0,0,0-1.311-.43,1.771,1.771,0,0,0-1.383.6,2.293,2.293,0,0,0-.54,1.587,2.183,2.183,0,0,0,.508,1.525,1.749,1.749,0,0,0,1.362.559,2.208,2.208,0,0,0,1.354-.478Zm3.883.2a1.7,1.7,0,0,1-.822.172q-1.445,0-1.445-1.611V-4.748h-.945V-5.5h.945V-6.843l.881-.285V-5.5h1.386v.752H40.761v3.1a1.285,1.285,0,0,0,.188.79.75.75,0,0,0,.623.236.926.926,0,0,0,.575-.183ZM47,1.6H42.432V.956H47Zm1.794-2.39H48.77V2.53h-.881V-5.5h.881v.967h.021a2.083,2.083,0,0,1,1.9-1.1,2.014,2.014,0,0,1,1.66.739,3.059,3.059,0,0,1,.6,1.979A3.409,3.409,0,0,1,52.277-.7a2.235,2.235,0,0,1-1.837.83A1.84,1.84,0,0,1,48.791-.795ZM48.77-3.013v.768a1.635,1.635,0,0,0,.443,1.157,1.471,1.471,0,0,0,1.125.475,1.474,1.474,0,0,0,1.254-.612,2.809,2.809,0,0,0,.454-1.7,2.217,2.217,0,0,0-.424-1.439,1.4,1.4,0,0,0-1.149-.521,1.561,1.561,0,0,0-1.235.534A1.962,1.962,0,0,0,48.77-3.013Zm8.454-1.6a1.077,1.077,0,0,0-.666-.177,1.124,1.124,0,0,0-.943.532,2.458,2.458,0,0,0-.379,1.45V0h-.881V-5.5h.881v1.133h.021a1.921,1.921,0,0,1,.575-.905A1.311,1.311,0,0,1,56.7-5.6a1.438,1.438,0,0,1,.526.075ZM62.6-2.53H58.717a2.057,2.057,0,0,0,.494,1.418,1.7,1.7,0,0,0,1.3.5,2.7,2.7,0,0,0,1.708-.612V-.4A3.192,3.192,0,0,1,60.3.129,2.325,2.325,0,0,1,58.47-.62,3.067,3.067,0,0,1,57.8-2.729a3.007,3.007,0,0,1,.728-2.092,2.334,2.334,0,0,1,1.807-.808,2.068,2.068,0,0,1,1.67.7A2.911,2.911,0,0,1,62.6-2.992Zm-.9-.747a1.792,1.792,0,0,0-.368-1.187,1.254,1.254,0,0,0-1.007-.424,1.423,1.423,0,0,0-1.058.446,2.023,2.023,0,0,0-.537,1.166ZM63.6-.2v-.945a2.607,2.607,0,0,0,1.584.532q1.16,0,1.16-.773a.671.671,0,0,0-.1-.373.99.99,0,0,0-.269-.271,2.067,2.067,0,0,0-.4-.212q-.228-.094-.491-.2a6.33,6.33,0,0,1-.642-.293,1.939,1.939,0,0,1-.462-.333,1.239,1.239,0,0,1-.279-.422,1.492,1.492,0,0,1-.094-.553,1.314,1.314,0,0,1,.177-.685,1.572,1.572,0,0,1,.473-.5,2.2,2.2,0,0,1,.674-.3,2.99,2.99,0,0,1,.781-.1,3.156,3.156,0,0,1,1.278.247v.892a2.491,2.491,0,0,0-1.4-.4,1.632,1.632,0,0,0-.446.056,1.091,1.091,0,0,0-.341.158.732.732,0,0,0-.22.244.644.644,0,0,0-.078.314.754.754,0,0,0,.078.36.792.792,0,0,0,.228.258,1.745,1.745,0,0,0,.365.2q.215.091.489.2a6.8,6.8,0,0,1,.655.287,2.247,2.247,0,0,1,.494.333,1.3,1.3,0,0,1,.314.427,1.377,1.377,0,0,1,.11.575,1.355,1.355,0,0,1-.18.709,1.542,1.542,0,0,1-.481.5,2.2,2.2,0,0,1-.693.3,3.421,3.421,0,0,1-.822.1A3.12,3.12,0,0,1,63.6-.2ZM73.02-2.53H69.137a2.057,2.057,0,0,0,.494,1.418,1.7,1.7,0,0,0,1.3.5,2.7,2.7,0,0,0,1.708-.612V-.4a3.192,3.192,0,0,1-1.917.526A2.325,2.325,0,0,1,68.89-.62a3.067,3.067,0,0,1-.666-2.108,3.007,3.007,0,0,1,.728-2.092,2.334,2.334,0,0,1,1.807-.808,2.068,2.068,0,0,1,1.67.7,2.911,2.911,0,0,1,.591,1.939Zm-.9-.747a1.792,1.792,0,0,0-.368-1.187,1.254,1.254,0,0,0-1.007-.424,1.423,1.423,0,0,0-1.058.446,2.023,2.023,0,0,0-.537,1.166ZM78.917,0h-.881V-3.137q0-1.751-1.278-1.751a1.387,1.387,0,0,0-1.093.5,1.842,1.842,0,0,0-.432,1.254V0h-.881V-5.5h.881v.913h.021a1.985,1.985,0,0,1,1.8-1.042,1.683,1.683,0,0,1,1.38.583,2.6,2.6,0,0,1,.478,1.684Zm4.211-.054a1.7,1.7,0,0,1-.822.172q-1.445,0-1.445-1.611V-4.748h-.945V-5.5h.945V-6.843l.881-.285V-5.5h1.386v.752H81.743v3.1a1.285,1.285,0,0,0,.188.79.75.75,0,0,0,.623.236.926.926,0,0,0,.575-.183ZM88.242,0h-.881V-.859h-.021a1.844,1.844,0,0,1-1.692.988,1.808,1.808,0,0,1-1.286-.435A1.507,1.507,0,0,1,83.9-1.461Q83.9-3,85.712-3.255l1.649-.231q0-1.4-1.133-1.4a2.708,2.708,0,0,0-1.794.677v-.9A3.408,3.408,0,0,1,86.3-5.629q1.939,0,1.939,2.052Zm-.881-2.782L86.034-2.6a2.154,2.154,0,0,0-.924.3.875.875,0,0,0-.312.771.839.839,0,0,0,.287.658,1.11,1.11,0,0,0,.765.255,1.414,1.414,0,0,0,1.082-.459,1.641,1.641,0,0,0,.427-1.163ZM92.453-.054a1.7,1.7,0,0,1-.822.172q-1.445,0-1.445-1.611V-4.748h-.945V-5.5h.945V-6.843l.881-.285V-5.5h1.386v.752H91.067v3.1a1.285,1.285,0,0,0,.188.79.75.75,0,0,0,.623.236.926.926,0,0,0,.575-.183ZM94.08-6.9a.558.558,0,0,1-.4-.161.544.544,0,0,1-.167-.408.553.553,0,0,1,.167-.411.553.553,0,0,1,.4-.164.569.569,0,0,1,.411.164.548.548,0,0,1,.169.411.544.544,0,0,1-.169.4A.564.564,0,0,1,94.08-6.9ZM94.51,0h-.881V-5.5h.881Zm4.082.129a2.551,2.551,0,0,1-1.947-.771,2.855,2.855,0,0,1-.728-2.044,2.974,2.974,0,0,1,.757-2.165,2.723,2.723,0,0,1,2.046-.779,2.467,2.467,0,0,1,1.92.757,3,3,0,0,1,.69,2.1,2.955,2.955,0,0,1-.744,2.108A2.607,2.607,0,0,1,98.592.129Zm.064-5.017a1.675,1.675,0,0,0-1.343.577,2.371,2.371,0,0,0-.494,1.593,2.243,2.243,0,0,0,.5,1.542,1.7,1.7,0,0,0,1.337.564,1.61,1.61,0,0,0,1.313-.553,2.4,2.4,0,0,0,.459-1.574,2.442,2.442,0,0,0-.459-1.59A1.6,1.6,0,0,0,98.656-4.888ZM107.3,0h-.881V-3.137q0-1.751-1.278-1.751a1.387,1.387,0,0,0-1.093.5,1.842,1.842,0,0,0-.432,1.254V0h-.881V-5.5h.881v.913h.021a1.985,1.985,0,0,1,1.8-1.042,1.683,1.683,0,0,1,1.38.583,2.6,2.6,0,0,1,.478,1.684Zm8.347,1.6h-4.565V.956h4.565ZM119.8-5.683a1.593,1.593,0,0,0-.11-.618,1.224,1.224,0,0,0-.3-.438,1.232,1.232,0,0,0-.448-.26,1.756,1.756,0,0,0-.559-.086,1.848,1.848,0,0,0-.5.07,2.455,2.455,0,0,0-.481.193,2.957,2.957,0,0,0-.451.3,3.259,3.259,0,0,0-.406.381V-7.09a2.634,2.634,0,0,1,.83-.551,2.922,2.922,0,0,1,1.12-.191,2.7,2.7,0,0,1,.875.137,2.007,2.007,0,0,1,.7.4,1.85,1.85,0,0,1,.465.65,2.192,2.192,0,0,1,.169.886,3.039,3.039,0,0,1-.1.827,2.558,2.558,0,0,1-.317.7,3.369,3.369,0,0,1-.534.628,7.57,7.57,0,0,1-.757.612q-.542.387-.894.661a3.953,3.953,0,0,0-.559.513,1.489,1.489,0,0,0-.29.478,1.671,1.671,0,0,0-.083.551h3.835V0h-4.753V-.381a3.178,3.178,0,0,1,.107-.87,2.26,2.26,0,0,1,.354-.714,3.964,3.964,0,0,1,.647-.677q.4-.338.98-.763a6.2,6.2,0,0,0,.7-.575,2.988,2.988,0,0,0,.454-.548,1.967,1.967,0,0,0,.244-.556A2.4,2.4,0,0,0,119.8-5.683Zm7.262,1.8a7.566,7.566,0,0,1-.175,1.713,3.992,3.992,0,0,1-.5,1.26,2.272,2.272,0,0,1-.811.779,2.22,2.22,0,0,1-1.093.266,2.073,2.073,0,0,1-1.034-.255,2.167,2.167,0,0,1-.765-.744,3.77,3.77,0,0,1-.473-1.2,7.423,7.423,0,0,1-.161-1.63,8.4,8.4,0,0,1,.169-1.783,4.079,4.079,0,0,1,.5-1.3,2.211,2.211,0,0,1,.814-.79,2.285,2.285,0,0,1,1.115-.266Q127.059-7.831,127.059-3.883Zm-.9.086q0-3.287-1.563-3.287-1.649,0-1.649,3.346,0,3.121,1.617,3.121Q126.156-.618,126.156-3.8ZM131.4,0h-.881V-6.655a2.039,2.039,0,0,1-.3.234,4.859,4.859,0,0,1-.44.26q-.244.129-.516.242a3.747,3.747,0,0,1-.529.177v-.892a5.12,5.12,0,0,0,.615-.218q.325-.137.639-.306t.594-.354a4.711,4.711,0,0,0,.483-.363h.333Zm7.434-4.313a7.672,7.672,0,0,1-.209,1.883,4.2,4.2,0,0,1-.612,1.4,2.71,2.71,0,0,1-.983.87,2.849,2.849,0,0,1-1.321.3,3.165,3.165,0,0,1-1.343-.269V-.978a2.737,2.737,0,0,0,1.364.36,1.981,1.981,0,0,0,.932-.215,1.93,1.93,0,0,0,.7-.626,3.072,3.072,0,0,0,.435-1.012,5.716,5.716,0,0,0,.15-1.38h-.021a1.759,1.759,0,0,1-1.719.994,2.311,2.311,0,0,1-.908-.175,2.079,2.079,0,0,1-.714-.494,2.262,2.262,0,0,1-.467-.76,2.729,2.729,0,0,1-.167-.972A2.832,2.832,0,0,1,134.13-6.3a2.428,2.428,0,0,1,.516-.814,2.307,2.307,0,0,1,.784-.529,2.564,2.564,0,0,1,.991-.188,2.194,2.194,0,0,1,1.029.234,2.061,2.061,0,0,1,.755.682,3.371,3.371,0,0,1,.467,1.1A6.3,6.3,0,0,1,138.832-4.313Zm-.951-.79a2.682,2.682,0,0,0-.115-.811,1.963,1.963,0,0,0-.32-.626,1.434,1.434,0,0,0-.486-.4,1.345,1.345,0,0,0-.615-.142,1.4,1.4,0,0,0-.591.126,1.42,1.42,0,0,0-.475.354,1.692,1.692,0,0,0-.317.542,1.971,1.971,0,0,0-.115.685,2.253,2.253,0,0,0,.11.73,1.526,1.526,0,0,0,.314.545,1.357,1.357,0,0,0,.491.341,1.658,1.658,0,0,0,.636.118,1.459,1.459,0,0,0,.577-.115,1.529,1.529,0,0,0,.473-.312,1.435,1.435,0,0,0,.317-.462A1.42,1.42,0,0,0,137.881-5.1ZM140.567.118a.57.57,0,0,1-.422-.177.583.583,0,0,1-.175-.424.592.592,0,0,1,.175-.427.566.566,0,0,1,.422-.18.581.581,0,0,1,.43.18.588.588,0,0,1,.177.427A.579.579,0,0,1,141-.059.585.585,0,0,1,140.567.118ZM147.34,0h-.881V-.935h-.021A2.033,2.033,0,0,1,144.547.129,2.054,2.054,0,0,1,142.89-.61a3.03,3.03,0,0,1-.62-2.011,3.3,3.3,0,0,1,.688-2.186,2.268,2.268,0,0,1,1.832-.822,1.763,1.763,0,0,1,1.649.892h.021V-8.143h.881Zm-.881-2.487V-3.3a1.573,1.573,0,0,0-.44-1.128,1.477,1.477,0,0,0-1.117-.462,1.521,1.521,0,0,0-1.268.591,2.589,2.589,0,0,0-.462,1.633,2.329,2.329,0,0,0,.443,1.5,1.448,1.448,0,0,0,1.19.551,1.5,1.5,0,0,0,1.2-.532A1.981,1.981,0,0,0,146.459-2.487ZM151.422.129a2.551,2.551,0,0,1-1.947-.771,2.855,2.855,0,0,1-.728-2.044A2.974,2.974,0,0,1,149.5-4.85a2.723,2.723,0,0,1,2.046-.779,2.467,2.467,0,0,1,1.92.757,3,3,0,0,1,.69,2.1,2.955,2.955,0,0,1-.744,2.108A2.607,2.607,0,0,1,151.422.129Zm.064-5.017a1.675,1.675,0,0,0-1.343.577,2.371,2.371,0,0,0-.494,1.593,2.243,2.243,0,0,0,.5,1.542,1.7,1.7,0,0,0,1.337.564,1.61,1.61,0,0,0,1.313-.553,2.4,2.4,0,0,0,.459-1.574,2.442,2.442,0,0,0-.459-1.59A1.6,1.6,0,0,0,151.486-4.888Zm7.831,4.635a2.862,2.862,0,0,1-1.5.381,2.49,2.49,0,0,1-1.9-.765,2.774,2.774,0,0,1-.722-1.985,3.049,3.049,0,0,1,.779-2.183,2.724,2.724,0,0,1,2.079-.824,2.893,2.893,0,0,1,1.278.269v.9a2.24,2.24,0,0,0-1.311-.43,1.771,1.771,0,0,0-1.383.6,2.293,2.293,0,0,0-.54,1.587,2.183,2.183,0,0,0,.508,1.525,1.749,1.749,0,0,0,1.362.559,2.208,2.208,0,0,0,1.354-.478Zm5.35-5.248-1.848,2.782L164.635,0h-1.026l-1.08-1.783q-.1-.167-.242-.419h-.021q-.027.048-.252.419L160.913,0H159.9l1.875-2.7-1.794-2.8H161l1.063,1.88q.118.209.231.43h.021l1.375-2.31Z" transform="translate(65 116)" fill="#31313a"/>
    <path id="Path_101271" data-name="Path 101271" d="M5.339,0H4.458V-.87H4.437a1.809,1.809,0,0,1-1.7,1Q.773.129.773-2.213V-5.5h.875v3.147q0,1.74,1.332,1.74a1.348,1.348,0,0,0,1.061-.475,1.819,1.819,0,0,0,.416-1.243V-5.5h.881Zm2.68-.795H8V2.53H7.117V-5.5H8v.967h.021a2.083,2.083,0,0,1,1.9-1.1,2.014,2.014,0,0,1,1.66.739,3.059,3.059,0,0,1,.6,1.979A3.409,3.409,0,0,1,11.5-.7a2.235,2.235,0,0,1-1.837.83A1.84,1.84,0,0,1,8.019-.795ZM8-3.013v.768a1.635,1.635,0,0,0,.443,1.157,1.471,1.471,0,0,0,1.125.475,1.474,1.474,0,0,0,1.254-.612,2.809,2.809,0,0,0,.454-1.7,2.217,2.217,0,0,0-.424-1.439A1.4,1.4,0,0,0,9.7-4.888a1.561,1.561,0,0,0-1.235.534A1.962,1.962,0,0,0,8-3.013ZM18.278,0H17.4V-.935h-.021A2.033,2.033,0,0,1,15.485.129,2.054,2.054,0,0,1,13.828-.61a3.03,3.03,0,0,1-.62-2.011A3.3,3.3,0,0,1,13.9-4.807a2.268,2.268,0,0,1,1.832-.822,1.763,1.763,0,0,1,1.649.892H17.4V-8.143h.881ZM17.4-2.487V-3.3a1.573,1.573,0,0,0-.44-1.128,1.477,1.477,0,0,0-1.117-.462,1.521,1.521,0,0,0-1.268.591,2.589,2.589,0,0,0-.462,1.633,2.329,2.329,0,0,0,.443,1.5,1.448,1.448,0,0,0,1.19.551,1.5,1.5,0,0,0,1.2-.532A1.981,1.981,0,0,0,17.4-2.487ZM24,0h-.881V-.859H23.1A1.844,1.844,0,0,1,21.4.129a1.808,1.808,0,0,1-1.286-.435,1.507,1.507,0,0,1-.465-1.155q0-1.542,1.815-1.794l1.649-.231q0-1.4-1.133-1.4a2.708,2.708,0,0,0-1.794.677v-.9a3.408,3.408,0,0,1,1.869-.516Q24-5.629,24-3.577Zm-.881-2.782L21.791-2.6a2.154,2.154,0,0,0-.924.3.875.875,0,0,0-.312.771.839.839,0,0,0,.287.658,1.11,1.11,0,0,0,.765.255,1.414,1.414,0,0,0,1.082-.459,1.641,1.641,0,0,0,.427-1.163ZM28.209-.054a1.7,1.7,0,0,1-.822.172q-1.445,0-1.445-1.611V-4.748H25V-5.5h.945V-6.843l.881-.285V-5.5h1.386v.752H26.823v3.1a1.285,1.285,0,0,0,.188.79.75.75,0,0,0,.623.236.926.926,0,0,0,.575-.183Zm5.6-2.476H29.922a2.057,2.057,0,0,0,.494,1.418,1.7,1.7,0,0,0,1.3.5,2.7,2.7,0,0,0,1.708-.612V-.4a3.192,3.192,0,0,1-1.917.526A2.325,2.325,0,0,1,29.675-.62a3.067,3.067,0,0,1-.666-2.108,3.007,3.007,0,0,1,.728-2.092,2.334,2.334,0,0,1,1.807-.808,2.068,2.068,0,0,1,1.67.7,2.911,2.911,0,0,1,.591,1.939Zm-.9-.747a1.792,1.792,0,0,0-.368-1.187,1.254,1.254,0,0,0-1.007-.424,1.423,1.423,0,0,0-1.058.446,2.023,2.023,0,0,0-.537,1.166ZM39.832,0h-.881V-.935H38.93A2.033,2.033,0,0,1,37.039.129,2.054,2.054,0,0,1,35.382-.61a3.03,3.03,0,0,1-.62-2.011,3.3,3.3,0,0,1,.688-2.186,2.268,2.268,0,0,1,1.832-.822,1.763,1.763,0,0,1,1.649.892h.021V-8.143h.881Zm-.881-2.487V-3.3a1.573,1.573,0,0,0-.44-1.128,1.477,1.477,0,0,0-1.117-.462,1.521,1.521,0,0,0-1.268.591,2.589,2.589,0,0,0-.462,1.633,2.329,2.329,0,0,0,.443,1.5,1.448,1.448,0,0,0,1.19.551,1.5,1.5,0,0,0,1.2-.532A1.981,1.981,0,0,0,38.951-2.487ZM45.289,1.6H40.724V.956h4.565ZM45.848-.2v-.945a2.607,2.607,0,0,0,1.584.532q1.16,0,1.16-.773a.671.671,0,0,0-.1-.373.99.99,0,0,0-.269-.271,2.067,2.067,0,0,0-.4-.212q-.228-.094-.491-.2a6.33,6.33,0,0,1-.642-.293,1.939,1.939,0,0,1-.462-.333,1.239,1.239,0,0,1-.279-.422,1.492,1.492,0,0,1-.094-.553,1.314,1.314,0,0,1,.177-.685,1.572,1.572,0,0,1,.473-.5,2.2,2.2,0,0,1,.674-.3,2.99,2.99,0,0,1,.781-.1,3.156,3.156,0,0,1,1.278.247v.892a2.491,2.491,0,0,0-1.4-.4,1.632,1.632,0,0,0-.446.056,1.091,1.091,0,0,0-.341.158.732.732,0,0,0-.22.244.644.644,0,0,0-.078.314.754.754,0,0,0,.078.36.792.792,0,0,0,.228.258,1.745,1.745,0,0,0,.365.2q.215.091.489.2a6.8,6.8,0,0,1,.655.287,2.247,2.247,0,0,1,.494.333,1.3,1.3,0,0,1,.314.427,1.377,1.377,0,0,1,.11.575,1.355,1.355,0,0,1-.18.709,1.542,1.542,0,0,1-.481.5,2.2,2.2,0,0,1-.693.3,3.421,3.421,0,0,1-.822.1A3.12,3.12,0,0,1,45.848-.2ZM53.4-.054a1.7,1.7,0,0,1-.822.172q-1.445,0-1.445-1.611V-4.748h-.945V-5.5h.945V-6.843l.881-.285V-5.5H53.4v.752H52.014v3.1a1.285,1.285,0,0,0,.188.79.75.75,0,0,0,.623.236A.926.926,0,0,0,53.4-.806ZM58.513,0h-.881V-.859H57.61a1.844,1.844,0,0,1-1.692.988,1.808,1.808,0,0,1-1.286-.435,1.507,1.507,0,0,1-.465-1.155q0-1.542,1.815-1.794l1.649-.231q0-1.4-1.133-1.4a2.708,2.708,0,0,0-1.794.677v-.9a3.408,3.408,0,0,1,1.869-.516q1.939,0,1.939,2.052Zm-.881-2.782L56.305-2.6a2.154,2.154,0,0,0-.924.3.875.875,0,0,0-.312.771.839.839,0,0,0,.287.658,1.11,1.11,0,0,0,.765.255A1.414,1.414,0,0,0,57.2-1.072a1.641,1.641,0,0,0,.427-1.163ZM62.724-.054A1.7,1.7,0,0,1,61.9.118q-1.445,0-1.445-1.611V-4.748h-.945V-5.5h.945V-6.843l.881-.285V-5.5h1.386v.752H61.338v3.1a1.285,1.285,0,0,0,.188.79.75.75,0,0,0,.623.236.926.926,0,0,0,.575-.183Zm5.6-2.476H64.437a2.057,2.057,0,0,0,.494,1.418,1.7,1.7,0,0,0,1.3.5,2.7,2.7,0,0,0,1.708-.612V-.4a3.192,3.192,0,0,1-1.917.526A2.325,2.325,0,0,1,64.19-.62a3.067,3.067,0,0,1-.666-2.108,3.007,3.007,0,0,1,.728-2.092,2.334,2.334,0,0,1,1.807-.808,2.068,2.068,0,0,1,1.67.7,2.911,2.911,0,0,1,.591,1.939Zm-.9-.747a1.792,1.792,0,0,0-.368-1.187,1.254,1.254,0,0,0-1.007-.424,1.423,1.423,0,0,0-1.058.446,2.023,2.023,0,0,0-.537,1.166ZM77.462,0h-.881V-3.158A2.383,2.383,0,0,0,76.3-4.479a1.069,1.069,0,0,0-.948-.408,1.174,1.174,0,0,0-.959.516A1.973,1.973,0,0,0,74-3.137V0h-.881V-3.266q0-1.622-1.251-1.622a1.159,1.159,0,0,0-.956.486,2.009,2.009,0,0,0-.376,1.265V0h-.881V-5.5h.881v.87h.021a1.869,1.869,0,0,1,1.708-1,1.593,1.593,0,0,1,.983.314,1.581,1.581,0,0,1,.575.824,1.963,1.963,0,0,1,1.826-1.139q1.815,0,1.815,2.24Zm6.085-2.53H79.664a2.057,2.057,0,0,0,.494,1.418,1.7,1.7,0,0,0,1.3.5,2.7,2.7,0,0,0,1.708-.612V-.4a3.192,3.192,0,0,1-1.917.526A2.325,2.325,0,0,1,79.417-.62a3.067,3.067,0,0,1-.666-2.108,3.007,3.007,0,0,1,.728-2.092,2.334,2.334,0,0,1,1.807-.808,2.068,2.068,0,0,1,1.67.7,2.911,2.911,0,0,1,.591,1.939Zm-.9-.747a1.792,1.792,0,0,0-.368-1.187,1.254,1.254,0,0,0-1.007-.424,1.423,1.423,0,0,0-1.058.446,2.023,2.023,0,0,0-.537,1.166ZM89.445,0h-.881V-3.137q0-1.751-1.278-1.751a1.387,1.387,0,0,0-1.093.5,1.842,1.842,0,0,0-.432,1.254V0h-.881V-5.5h.881v.913h.021a1.985,1.985,0,0,1,1.8-1.042,1.683,1.683,0,0,1,1.38.583,2.6,2.6,0,0,1,.478,1.684Zm4.211-.054a1.7,1.7,0,0,1-.822.172q-1.445,0-1.445-1.611V-4.748h-.945V-5.5h.945V-6.843l.881-.285V-5.5h1.386v.752H92.27v3.1a1.285,1.285,0,0,0,.188.79.75.75,0,0,0,.623.236.926.926,0,0,0,.575-.183ZM98.506,1.6H93.94V.956h4.565ZM101.7.129a2.551,2.551,0,0,1-1.947-.771,2.855,2.855,0,0,1-.728-2.044,2.974,2.974,0,0,1,.757-2.165,2.723,2.723,0,0,1,2.046-.779,2.467,2.467,0,0,1,1.92.757,3,3,0,0,1,.69,2.1,2.955,2.955,0,0,1-.744,2.108A2.607,2.607,0,0,1,101.7.129Zm.064-5.017a1.675,1.675,0,0,0-1.343.577,2.371,2.371,0,0,0-.494,1.593,2.243,2.243,0,0,0,.5,1.542,1.7,1.7,0,0,0,1.337.564,1.61,1.61,0,0,0,1.313-.553,2.4,2.4,0,0,0,.459-1.574,2.442,2.442,0,0,0-.459-1.59A1.6,1.6,0,0,0,101.761-4.888Zm6.8-2.481a1.173,1.173,0,0,0-.585-.145q-.924,0-.924,1.166V-5.5h1.289v.752h-1.289V0h-.875V-4.748h-.94V-5.5h.94v-.892a1.853,1.853,0,0,1,.5-1.367,1.686,1.686,0,0,1,1.246-.5,1.726,1.726,0,0,1,.639.1Zm4.4,8.964h-4.565V.956h4.565Zm7.82-7.1L119.131,0h-.913l-1.133-3.937a2.565,2.565,0,0,1-.086-.51h-.021a2.409,2.409,0,0,1-.113.5L115.634,0h-.881l-1.665-5.5h.924l1.139,4.136a2.491,2.491,0,0,1,.075.494h.043a2.311,2.311,0,0,1,.1-.5L116.633-5.5h.806l1.139,4.146a2.961,2.961,0,0,1,.081.494h.043a2.286,2.286,0,0,1,.091-.494L119.91-5.5ZM124.1.129a2.551,2.551,0,0,1-1.947-.771,2.855,2.855,0,0,1-.728-2.044,2.974,2.974,0,0,1,.757-2.165,2.723,2.723,0,0,1,2.046-.779,2.467,2.467,0,0,1,1.92.757,3,3,0,0,1,.69,2.1,2.955,2.955,0,0,1-.744,2.108A2.607,2.607,0,0,1,124.1.129Zm.064-5.017a1.675,1.675,0,0,0-1.343.577,2.371,2.371,0,0,0-.494,1.593,2.243,2.243,0,0,0,.5,1.542,1.7,1.7,0,0,0,1.337.564,1.61,1.61,0,0,0,1.313-.553,2.4,2.4,0,0,0,.459-1.574,2.442,2.442,0,0,0-.459-1.59A1.6,1.6,0,0,0,124.164-4.888Zm6.95.279a1.077,1.077,0,0,0-.666-.177,1.124,1.124,0,0,0-.943.532,2.458,2.458,0,0,0-.379,1.45V0h-.881V-5.5h.881v1.133h.021a1.92,1.92,0,0,1,.575-.905,1.311,1.311,0,0,1,.865-.325,1.438,1.438,0,0,1,.526.075ZM136.635,0H135.4l-2.428-2.643h-.021V0h-.881V-8.143h.881v5.162h.021l2.31-2.519h1.155l-2.551,2.653Zm1.208.118a.57.57,0,0,1-.422-.177.583.583,0,0,1-.175-.424.592.592,0,0,1,.175-.427.566.566,0,0,1,.422-.18.581.581,0,0,1,.43.18.588.588,0,0,1,.177.427.579.579,0,0,1-.177.424A.585.585,0,0,1,137.844.118Zm2.981-.913H140.8V2.53h-.881V-5.5h.881v.967h.021a2.083,2.083,0,0,1,1.9-1.1,2.014,2.014,0,0,1,1.66.739,3.059,3.059,0,0,1,.6,1.979,3.409,3.409,0,0,1-.671,2.21,2.235,2.235,0,0,1-1.837.83A1.84,1.84,0,0,1,140.825-.795ZM140.8-3.013v.768a1.635,1.635,0,0,0,.443,1.157,1.471,1.471,0,0,0,1.125.475,1.474,1.474,0,0,0,1.254-.612,2.809,2.809,0,0,0,.454-1.7,2.217,2.217,0,0,0-.424-1.439,1.4,1.4,0,0,0-1.149-.521,1.561,1.561,0,0,0-1.235.534A1.962,1.962,0,0,0,140.8-3.013ZM151.083,0H150.2V-.935h-.021A2.033,2.033,0,0,1,148.291.129a2.054,2.054,0,0,1-1.657-.739,3.03,3.03,0,0,1-.62-2.011,3.3,3.3,0,0,1,.688-2.186,2.268,2.268,0,0,1,1.832-.822,1.763,1.763,0,0,1,1.649.892h.021V-8.143h.881ZM150.2-2.487V-3.3a1.573,1.573,0,0,0-.44-1.128,1.477,1.477,0,0,0-1.117-.462,1.521,1.521,0,0,0-1.268.591,2.589,2.589,0,0,0-.462,1.633,2.329,2.329,0,0,0,.443,1.5,1.448,1.448,0,0,0,1.19.551,1.5,1.5,0,0,0,1.2-.532A1.981,1.981,0,0,0,150.2-2.487Zm5.382-4.882A1.173,1.173,0,0,0,155-7.514q-.924,0-.924,1.166V-5.5h1.289v.752h-1.289V0H153.2V-4.748h-.94V-5.5h.94v-.892a1.853,1.853,0,0,1,.5-1.367,1.686,1.686,0,0,1,1.246-.5,1.726,1.726,0,0,1,.639.1Z" transform="translate(65 155)" fill="#31313a"/>
    <path id="Path_101272" data-name="Path 101272" d="M5.457,0H4.576V-3.169q0-1.719-1.278-1.719a1.394,1.394,0,0,0-1.085.5,1.851,1.851,0,0,0-.44,1.276V0H.892V-8.143h.881v3.556h.021A2,2,0,0,1,3.6-5.629q1.858,0,1.858,2.24Zm6.107,0h-.881V-.87h-.021a1.809,1.809,0,0,1-1.7,1Q7,.129,7-2.213V-5.5h.875v3.147q0,1.74,1.332,1.74a1.348,1.348,0,0,0,1.061-.475,1.819,1.819,0,0,0,.416-1.243V-5.5h.881Zm6.343,0h-.881V-3.137q0-1.751-1.278-1.751a1.387,1.387,0,0,0-1.093.5,1.842,1.842,0,0,0-.432,1.254V0h-.881V-5.5h.881v.913h.021a1.985,1.985,0,0,1,1.8-1.042,1.683,1.683,0,0,1,1.38.583,2.6,2.6,0,0,1,.478,1.684Zm4.211-.054A1.7,1.7,0,0,1,21.3.118q-1.445,0-1.445-1.611V-4.748h-.945V-5.5h.945V-6.843l.881-.285V-5.5h1.386v.752H20.732v3.1a1.285,1.285,0,0,0,.188.79.75.75,0,0,0,.623.236.926.926,0,0,0,.575-.183ZM23.746-6.9a.558.558,0,0,1-.4-.161.544.544,0,0,1-.167-.408.553.553,0,0,1,.167-.411.553.553,0,0,1,.4-.164.569.569,0,0,1,.411.164.548.548,0,0,1,.169.411.544.544,0,0,1-.169.4A.564.564,0,0,1,23.746-6.9Zm.43,6.9h-.881V-5.5h.881Zm6.349,0h-.881V-3.137q0-1.751-1.278-1.751a1.387,1.387,0,0,0-1.093.5,1.842,1.842,0,0,0-.432,1.254V0h-.881V-5.5h.881v.913h.021a1.985,1.985,0,0,1,1.8-1.042,1.683,1.683,0,0,1,1.38.583,2.6,2.6,0,0,1,.478,1.684Zm6.354-.44q0,3.029-2.9,3.029A3.894,3.894,0,0,1,32.194,2.2V1.321a3.662,3.662,0,0,0,1.772.516Q36,1.837,36-.322v-.6h-.021A2.06,2.06,0,0,1,34.085.129,2.065,2.065,0,0,1,32.433-.6a2.931,2.931,0,0,1-.626-1.969A3.424,3.424,0,0,1,32.482-4.8a2.252,2.252,0,0,1,1.845-.827,1.793,1.793,0,0,1,1.649.892H36V-5.5h.881ZM36-2.487V-3.3a1.574,1.574,0,0,0-.443-1.123,1.459,1.459,0,0,0-1.1-.467,1.53,1.53,0,0,0-1.278.594,2.649,2.649,0,0,0-.462,1.662,2.274,2.274,0,0,0,.443,1.469,1.432,1.432,0,0,0,1.174.551,1.533,1.533,0,0,0,1.206-.526A1.962,1.962,0,0,0,36-2.487ZM41.212-.054a1.7,1.7,0,0,1-.822.172q-1.445,0-1.445-1.611V-4.748H38V-5.5h.945V-6.843l.881-.285V-5.5h1.386v.752H39.827v3.1a1.285,1.285,0,0,0,.188.79.75.75,0,0,0,.623.236.926.926,0,0,0,.575-.183Zm3.475.183A2.551,2.551,0,0,1,42.74-.642a2.855,2.855,0,0,1-.728-2.044A2.974,2.974,0,0,1,42.77-4.85a2.723,2.723,0,0,1,2.046-.779,2.467,2.467,0,0,1,1.92.757,3,3,0,0,1,.69,2.1,2.955,2.955,0,0,1-.744,2.108A2.607,2.607,0,0,1,44.688.129Zm.064-5.017a1.675,1.675,0,0,0-1.343.577,2.371,2.371,0,0,0-.494,1.593,2.243,2.243,0,0,0,.5,1.542,1.7,1.7,0,0,0,1.337.564,1.61,1.61,0,0,0,1.313-.553,2.4,2.4,0,0,0,.459-1.574,2.442,2.442,0,0,0-.459-1.59A1.6,1.6,0,0,0,44.752-4.888ZM53.4,0h-.881V-3.137q0-1.751-1.278-1.751a1.387,1.387,0,0,0-1.093.5,1.841,1.841,0,0,0-.432,1.254V0h-.881V-5.5h.881v.913h.021a1.985,1.985,0,0,1,1.8-1.042,1.683,1.683,0,0,1,1.38.583A2.6,2.6,0,0,1,53.4-3.362Zm5.333,1.6H54.167V.956h4.565ZM64.072,0h-.881V-.87h-.021a1.809,1.809,0,0,1-1.7,1q-1.966,0-1.966-2.342V-5.5h.875v3.147q0,1.74,1.332,1.74a1.348,1.348,0,0,0,1.061-.475,1.819,1.819,0,0,0,.416-1.243V-5.5h.881ZM68.4-.054a1.7,1.7,0,0,1-.822.172q-1.445,0-1.445-1.611V-4.748h-.945V-5.5h.945V-6.843l.881-.285V-5.5H68.4v.752H67.015v3.1a1.285,1.285,0,0,0,.188.79.75.75,0,0,0,.623.236A.926.926,0,0,0,68.4-.806ZM70.028-6.9a.558.558,0,0,1-.4-.161.544.544,0,0,1-.167-.408.553.553,0,0,1,.167-.411.553.553,0,0,1,.4-.164.569.569,0,0,1,.411.164.548.548,0,0,1,.169.411.544.544,0,0,1-.169.4A.564.564,0,0,1,70.028-6.9Zm.43,6.9h-.881V-5.5h.881Zm2.664,0h-.881V-8.143h.881Zm2.234-6.9a.558.558,0,0,1-.4-.161.544.544,0,0,1-.167-.408.553.553,0,0,1,.167-.411.553.553,0,0,1,.4-.164.569.569,0,0,1,.411.164.548.548,0,0,1,.169.411.544.544,0,0,1-.169.4A.564.564,0,0,1,75.356-6.9Zm.43,6.9h-.881V-5.5h.881ZM81.4-5.248l-3.255,4.5h3.223V0H76.855V-.274L80.11-4.748H77.161V-5.5H81.4ZM86.48,0H85.6V-.859h-.021a1.844,1.844,0,0,1-1.692.988A1.808,1.808,0,0,1,82.6-.306a1.507,1.507,0,0,1-.465-1.155q0-1.542,1.815-1.794L85.6-3.486q0-1.4-1.133-1.4a2.708,2.708,0,0,0-1.794.677v-.9a3.408,3.408,0,0,1,1.869-.516q1.939,0,1.939,2.052ZM85.6-2.782,84.272-2.6a2.154,2.154,0,0,0-.924.3.875.875,0,0,0-.312.771.839.839,0,0,0,.287.658,1.11,1.11,0,0,0,.765.255,1.414,1.414,0,0,0,1.082-.459A1.641,1.641,0,0,0,85.6-2.234ZM90.691-.054a1.7,1.7,0,0,1-.822.172q-1.445,0-1.445-1.611V-4.748h-.945V-5.5h.945V-6.843l.881-.285V-5.5h1.386v.752H89.305v3.1a1.285,1.285,0,0,0,.188.79.75.75,0,0,0,.623.236.926.926,0,0,0,.575-.183ZM92.318-6.9a.558.558,0,0,1-.4-.161.544.544,0,0,1-.167-.408.553.553,0,0,1,.167-.411.553.553,0,0,1,.4-.164.569.569,0,0,1,.411.164.548.548,0,0,1,.169.411.544.544,0,0,1-.169.4A.564.564,0,0,1,92.318-6.9Zm.43,6.9h-.881V-5.5h.881ZM96.83.129a2.551,2.551,0,0,1-1.947-.771,2.855,2.855,0,0,1-.728-2.044,2.974,2.974,0,0,1,.757-2.165,2.723,2.723,0,0,1,2.046-.779,2.467,2.467,0,0,1,1.92.757,3,3,0,0,1,.69,2.1,2.955,2.955,0,0,1-.744,2.108A2.607,2.607,0,0,1,96.83.129Zm.064-5.017a1.675,1.675,0,0,0-1.343.577,2.371,2.371,0,0,0-.494,1.593,2.243,2.243,0,0,0,.5,1.542,1.7,1.7,0,0,0,1.337.564,1.61,1.61,0,0,0,1.313-.553,2.4,2.4,0,0,0,.459-1.574,2.442,2.442,0,0,0-.459-1.59A1.6,1.6,0,0,0,96.895-4.888ZM105.542,0h-.881V-3.137q0-1.751-1.278-1.751a1.387,1.387,0,0,0-1.093.5,1.842,1.842,0,0,0-.432,1.254V0h-.881V-5.5h.881v.913h.021a1.985,1.985,0,0,1,1.8-1.042,1.683,1.683,0,0,1,1.38.583,2.6,2.6,0,0,1,.478,1.684Zm5.333,1.6H106.31V.956h4.565Zm1.794-2.39h-.021V2.53h-.881V-5.5h.881v.967h.021a2.083,2.083,0,0,1,1.9-1.1,2.014,2.014,0,0,1,1.66.739,3.059,3.059,0,0,1,.6,1.979,3.409,3.409,0,0,1-.671,2.21,2.235,2.235,0,0,1-1.837.83A1.84,1.84,0,0,1,112.669-.795Zm-.021-2.218v.768a1.635,1.635,0,0,0,.443,1.157,1.471,1.471,0,0,0,1.125.475,1.474,1.474,0,0,0,1.254-.612,2.809,2.809,0,0,0,.454-1.7,2.217,2.217,0,0,0-.424-1.439,1.4,1.4,0,0,0-1.149-.521,1.561,1.561,0,0,0-1.235.534A1.962,1.962,0,0,0,112.648-3.013Zm8.454-1.6a1.077,1.077,0,0,0-.666-.177,1.124,1.124,0,0,0-.943.532,2.458,2.458,0,0,0-.379,1.45V0h-.881V-5.5h.881v1.133h.021a1.921,1.921,0,0,1,.575-.905,1.311,1.311,0,0,1,.865-.325,1.438,1.438,0,0,1,.526.075ZM124.357.129a2.551,2.551,0,0,1-1.947-.771,2.855,2.855,0,0,1-.728-2.044,2.974,2.974,0,0,1,.757-2.165,2.723,2.723,0,0,1,2.046-.779,2.467,2.467,0,0,1,1.92.757,3,3,0,0,1,.69,2.1,2.955,2.955,0,0,1-.744,2.108A2.607,2.607,0,0,1,124.357.129Zm.064-5.017a1.675,1.675,0,0,0-1.343.577,2.371,2.371,0,0,0-.494,1.593,2.243,2.243,0,0,0,.5,1.542,1.7,1.7,0,0,0,1.337.564,1.61,1.61,0,0,0,1.313-.553,2.4,2.4,0,0,0,.459-1.574,2.442,2.442,0,0,0-.459-1.59A1.6,1.6,0,0,0,124.421-4.888ZM133.2-.44q0,3.029-2.9,3.029a3.894,3.894,0,0,1-1.783-.387V1.321a3.662,3.662,0,0,0,1.772.516q2.03,0,2.03-2.159v-.6H132.3A2.06,2.06,0,0,1,130.4.129,2.065,2.065,0,0,1,128.753-.6a2.931,2.931,0,0,1-.626-1.969A3.424,3.424,0,0,1,128.8-4.8a2.252,2.252,0,0,1,1.845-.827,1.793,1.793,0,0,1,1.649.892h.021V-5.5h.881Zm-.881-2.046V-3.3a1.574,1.574,0,0,0-.443-1.123,1.459,1.459,0,0,0-1.1-.467,1.53,1.53,0,0,0-1.278.594,2.649,2.649,0,0,0-.462,1.662,2.274,2.274,0,0,0,.443,1.469,1.432,1.432,0,0,0,1.174.551,1.533,1.533,0,0,0,1.206-.526A1.962,1.962,0,0,0,132.317-2.487Zm5.532-2.122a1.077,1.077,0,0,0-.666-.177,1.124,1.124,0,0,0-.943.532,2.458,2.458,0,0,0-.379,1.45V0h-.881V-5.5h.881v1.133h.021a1.92,1.92,0,0,1,.575-.905,1.311,1.311,0,0,1,.865-.325,1.438,1.438,0,0,1,.526.075ZM142.742,0h-.881V-.859h-.021a1.844,1.844,0,0,1-1.692.988,1.808,1.808,0,0,1-1.286-.435,1.507,1.507,0,0,1-.465-1.155q0-1.542,1.815-1.794l1.649-.231q0-1.4-1.133-1.4a2.708,2.708,0,0,0-1.794.677v-.9a3.408,3.408,0,0,1,1.869-.516q1.939,0,1.939,2.052Zm-.881-2.782-1.327.183a2.154,2.154,0,0,0-.924.3.875.875,0,0,0-.312.771.839.839,0,0,0,.287.658,1.11,1.11,0,0,0,.765.255,1.414,1.414,0,0,0,1.082-.459,1.641,1.641,0,0,0,.427-1.163ZM152.211,0h-.881V-3.158a2.383,2.383,0,0,0-.282-1.321,1.069,1.069,0,0,0-.948-.408,1.174,1.174,0,0,0-.959.516,1.973,1.973,0,0,0-.395,1.235V0h-.881V-3.266q0-1.622-1.251-1.622a1.159,1.159,0,0,0-.956.486,2.009,2.009,0,0,0-.376,1.265V0H144.4V-5.5h.881v.87h.021a1.869,1.869,0,0,1,1.708-1,1.593,1.593,0,0,1,.983.314,1.581,1.581,0,0,1,.575.824A1.963,1.963,0,0,1,150.4-5.629q1.815,0,1.815,2.24Zm1.971.118a.57.57,0,0,1-.422-.177.583.583,0,0,1-.175-.424.592.592,0,0,1,.175-.427.566.566,0,0,1,.422-.18.581.581,0,0,1,.43.18.588.588,0,0,1,.177.427.579.579,0,0,1-.177.424A.585.585,0,0,1,154.183.118ZM164.071,0h-.881V-3.158a2.383,2.383,0,0,0-.282-1.321,1.069,1.069,0,0,0-.948-.408,1.174,1.174,0,0,0-.959.516,1.973,1.973,0,0,0-.395,1.235V0h-.881V-3.266q0-1.622-1.251-1.622a1.159,1.159,0,0,0-.956.486,2.009,2.009,0,0,0-.376,1.265V0h-.881V-5.5h.881v.87h.021a1.869,1.869,0,0,1,1.708-1,1.593,1.593,0,0,1,.983.314,1.581,1.581,0,0,1,.575.824,1.963,1.963,0,0,1,1.826-1.139q1.815,0,1.815,2.24Zm2.567-.795h-.021V2.53h-.881V-5.5h.881v.967h.021a2.083,2.083,0,0,1,1.9-1.1,2.014,2.014,0,0,1,1.66.739,3.059,3.059,0,0,1,.6,1.979,3.409,3.409,0,0,1-.671,2.21,2.235,2.235,0,0,1-1.837.83A1.84,1.84,0,0,1,166.638-.795Zm-.021-2.218v.768a1.635,1.635,0,0,0,.443,1.157,1.471,1.471,0,0,0,1.125.475,1.474,1.474,0,0,0,1.254-.612,2.809,2.809,0,0,0,.454-1.7,2.217,2.217,0,0,0-.424-1.439,1.4,1.4,0,0,0-1.149-.521,1.561,1.561,0,0,0-1.235.534A1.962,1.962,0,0,0,166.617-3.013Zm9.26-4.689v5.086h.988v.806h-.988V0h-.87V-1.81h-3.62v-.763q.5-.569,1.021-1.217t.986-1.313q.47-.666.87-1.329a12.148,12.148,0,0,0,.674-1.27Zm-3.5,5.086h2.626V-6.386q-.4.7-.763,1.257t-.685,1q-.325.451-.62.816Z" transform="translate(65 192)" fill="#31313a"/>
    <path id="Path_101273" data-name="Path 101273" d="M1.794-.795H1.772V2.53H.892V-5.5h.881v.967h.021a2.083,2.083,0,0,1,1.9-1.1,2.014,2.014,0,0,1,1.66.739,3.059,3.059,0,0,1,.6,1.979A3.409,3.409,0,0,1,5.28-.7a2.235,2.235,0,0,1-1.837.83A1.84,1.84,0,0,1,1.794-.795ZM1.772-3.013v.768a1.635,1.635,0,0,0,.443,1.157,1.471,1.471,0,0,0,1.125.475,1.474,1.474,0,0,0,1.254-.612,2.809,2.809,0,0,0,.454-1.7,2.217,2.217,0,0,0-.424-1.439,1.4,1.4,0,0,0-1.149-.521,1.561,1.561,0,0,0-1.235.534A1.962,1.962,0,0,0,1.772-3.013Zm8.454-1.6a1.077,1.077,0,0,0-.666-.177,1.124,1.124,0,0,0-.943.532A2.458,2.458,0,0,0,8.239-2.8V0H7.358V-5.5h.881v1.133h.021a1.921,1.921,0,0,1,.575-.905A1.311,1.311,0,0,1,9.7-5.6a1.438,1.438,0,0,1,.526.075ZM13.481.129a2.551,2.551,0,0,1-1.947-.771,2.855,2.855,0,0,1-.728-2.044,2.974,2.974,0,0,1,.757-2.165,2.723,2.723,0,0,1,2.046-.779,2.467,2.467,0,0,1,1.92.757,3,3,0,0,1,.69,2.1,2.955,2.955,0,0,1-.744,2.108A2.607,2.607,0,0,1,13.481.129Zm.064-5.017A1.675,1.675,0,0,0,12.2-4.31a2.371,2.371,0,0,0-.494,1.593,2.243,2.243,0,0,0,.5,1.542,1.7,1.7,0,0,0,1.337.564,1.61,1.61,0,0,0,1.313-.553,2.4,2.4,0,0,0,.459-1.574,2.442,2.442,0,0,0-.459-1.59A1.6,1.6,0,0,0,13.546-4.888ZM22.322,0h-.881V-.935H21.42A2.033,2.033,0,0,1,19.529.129,2.054,2.054,0,0,1,17.872-.61a3.03,3.03,0,0,1-.62-2.011,3.3,3.3,0,0,1,.688-2.186,2.268,2.268,0,0,1,1.832-.822,1.763,1.763,0,0,1,1.649.892h.021V-8.143h.881Zm-.881-2.487V-3.3A1.573,1.573,0,0,0,21-4.426a1.477,1.477,0,0,0-1.117-.462,1.521,1.521,0,0,0-1.268.591,2.589,2.589,0,0,0-.462,1.633,2.329,2.329,0,0,0,.443,1.5,1.448,1.448,0,0,0,1.19.551,1.5,1.5,0,0,0,1.2-.532A1.981,1.981,0,0,0,21.441-2.487ZM28.553,0h-.881V-.87H27.65a1.809,1.809,0,0,1-1.7,1q-1.966,0-1.966-2.342V-5.5h.875v3.147q0,1.74,1.332,1.74a1.348,1.348,0,0,0,1.061-.475,1.819,1.819,0,0,0,.416-1.243V-5.5h.881ZM34.08-.252a2.862,2.862,0,0,1-1.5.381,2.49,2.49,0,0,1-1.9-.765,2.774,2.774,0,0,1-.722-1.985A3.049,3.049,0,0,1,30.733-4.8a2.724,2.724,0,0,1,2.079-.824,2.893,2.893,0,0,1,1.278.269v.9a2.24,2.24,0,0,0-1.311-.43,1.771,1.771,0,0,0-1.383.6,2.293,2.293,0,0,0-.54,1.587,2.183,2.183,0,0,0,.508,1.525,1.749,1.749,0,0,0,1.362.559A2.208,2.208,0,0,0,34.08-1.09ZM39.832-2.53H35.949a2.057,2.057,0,0,0,.494,1.418,1.7,1.7,0,0,0,1.3.5,2.7,2.7,0,0,0,1.708-.612V-.4a3.192,3.192,0,0,1-1.917.526A2.325,2.325,0,0,1,35.7-.62a3.067,3.067,0,0,1-.666-2.108,3.007,3.007,0,0,1,.728-2.092,2.334,2.334,0,0,1,1.807-.808,2.068,2.068,0,0,1,1.67.7,2.911,2.911,0,0,1,.591,1.939Zm-.9-.747a1.792,1.792,0,0,0-.368-1.187,1.254,1.254,0,0,0-1.007-.424,1.423,1.423,0,0,0-1.058.446,2.023,2.023,0,0,0-.537,1.166Zm5.1-1.332a1.077,1.077,0,0,0-.666-.177,1.124,1.124,0,0,0-.943.532,2.458,2.458,0,0,0-.379,1.45V0h-.881V-5.5h.881v1.133h.021a1.921,1.921,0,0,1,.575-.905,1.311,1.311,0,0,1,.865-.325,1.438,1.438,0,0,1,.526.075Zm4.63,6.2H44.1V.956h4.565ZM53.3-.252a2.862,2.862,0,0,1-1.5.381,2.49,2.49,0,0,1-1.9-.765,2.774,2.774,0,0,1-.722-1.985A3.049,3.049,0,0,1,49.957-4.8a2.724,2.724,0,0,1,2.079-.824,2.893,2.893,0,0,1,1.278.269v.9A2.24,2.24,0,0,0,52-4.888a1.771,1.771,0,0,0-1.383.6A2.293,2.293,0,0,0,50.08-2.7a2.183,2.183,0,0,0,.508,1.525,1.749,1.749,0,0,0,1.362.559A2.208,2.208,0,0,0,53.3-1.09Zm3.631.381a2.551,2.551,0,0,1-1.947-.771,2.855,2.855,0,0,1-.728-2.044,2.974,2.974,0,0,1,.757-2.165,2.723,2.723,0,0,1,2.046-.779,2.467,2.467,0,0,1,1.92.757,3,3,0,0,1,.69,2.1,2.955,2.955,0,0,1-.744,2.108A2.607,2.607,0,0,1,56.934.129ZM57-4.888a1.675,1.675,0,0,0-1.343.577,2.371,2.371,0,0,0-.494,1.593,2.243,2.243,0,0,0,.5,1.542A1.7,1.7,0,0,0,57-.612a1.61,1.61,0,0,0,1.313-.553,2.4,2.4,0,0,0,.459-1.574,2.442,2.442,0,0,0-.459-1.59A1.6,1.6,0,0,0,57-4.888ZM68.89,0h-.881V-3.158a2.383,2.383,0,0,0-.282-1.321,1.069,1.069,0,0,0-.948-.408,1.174,1.174,0,0,0-.959.516,1.973,1.973,0,0,0-.395,1.235V0h-.881V-3.266q0-1.622-1.251-1.622a1.159,1.159,0,0,0-.956.486,2.009,2.009,0,0,0-.376,1.265V0H61.08V-5.5h.881v.87h.021a1.869,1.869,0,0,1,1.708-1,1.593,1.593,0,0,1,.983.314,1.581,1.581,0,0,1,.575.824,1.963,1.963,0,0,1,1.826-1.139q1.815,0,1.815,2.24Zm2.567-.795h-.021V2.53h-.881V-5.5h.881v.967h.021a2.083,2.083,0,0,1,1.9-1.1,2.014,2.014,0,0,1,1.66.739,3.059,3.059,0,0,1,.6,1.979A3.409,3.409,0,0,1,74.943-.7a2.235,2.235,0,0,1-1.837.83A1.84,1.84,0,0,1,71.457-.795Zm-.021-2.218v.768a1.635,1.635,0,0,0,.443,1.157A1.471,1.471,0,0,0,73-.612a1.474,1.474,0,0,0,1.254-.612,2.809,2.809,0,0,0,.454-1.7,2.217,2.217,0,0,0-.424-1.439,1.4,1.4,0,0,0-1.149-.521,1.561,1.561,0,0,0-1.235.534A1.962,1.962,0,0,0,71.436-3.013Zm10.006.483H77.559a2.057,2.057,0,0,0,.494,1.418,1.7,1.7,0,0,0,1.3.5,2.7,2.7,0,0,0,1.708-.612V-.4a3.192,3.192,0,0,1-1.917.526A2.325,2.325,0,0,1,77.312-.62a3.067,3.067,0,0,1-.666-2.108,3.007,3.007,0,0,1,.728-2.092,2.334,2.334,0,0,1,1.807-.808,2.068,2.068,0,0,1,1.67.7,2.911,2.911,0,0,1,.591,1.939Zm-.9-.747a1.792,1.792,0,0,0-.368-1.187,1.254,1.254,0,0,0-1.007-.424,1.423,1.423,0,0,0-1.058.446,2.023,2.023,0,0,0-.537,1.166ZM87.339,0h-.881V-3.137q0-1.751-1.278-1.751a1.387,1.387,0,0,0-1.093.5,1.842,1.842,0,0,0-.432,1.254V0h-.881V-5.5h.881v.913h.021a1.985,1.985,0,0,1,1.8-1.042,1.683,1.683,0,0,1,1.38.583,2.6,2.6,0,0,1,.478,1.684Zm1.327-.2v-.945a2.607,2.607,0,0,0,1.584.532q1.16,0,1.16-.773a.671.671,0,0,0-.1-.373.99.99,0,0,0-.269-.271,2.067,2.067,0,0,0-.4-.212q-.228-.094-.491-.2a6.33,6.33,0,0,1-.642-.293,1.939,1.939,0,0,1-.462-.333,1.239,1.239,0,0,1-.279-.422,1.492,1.492,0,0,1-.094-.553,1.314,1.314,0,0,1,.177-.685,1.572,1.572,0,0,1,.473-.5,2.2,2.2,0,0,1,.674-.3,2.99,2.99,0,0,1,.781-.1,3.156,3.156,0,0,1,1.278.247v.892a2.491,2.491,0,0,0-1.4-.4,1.632,1.632,0,0,0-.446.056,1.091,1.091,0,0,0-.341.158.732.732,0,0,0-.22.244.644.644,0,0,0-.078.314.754.754,0,0,0,.078.36.792.792,0,0,0,.228.258,1.745,1.745,0,0,0,.365.2q.215.091.489.2a6.8,6.8,0,0,1,.655.287,2.247,2.247,0,0,1,.494.333,1.3,1.3,0,0,1,.314.427,1.377,1.377,0,0,1,.11.575,1.355,1.355,0,0,1-.18.709,1.542,1.542,0,0,1-.481.5,2.2,2.2,0,0,1-.693.3,3.421,3.421,0,0,1-.822.1A3.12,3.12,0,0,1,88.666-.2ZM97.6,0h-.881V-.859H96.7a1.844,1.844,0,0,1-1.692.988,1.808,1.808,0,0,1-1.286-.435,1.507,1.507,0,0,1-.465-1.155q0-1.542,1.815-1.794l1.649-.231q0-1.4-1.133-1.4a2.708,2.708,0,0,0-1.794.677v-.9a3.408,3.408,0,0,1,1.869-.516q1.939,0,1.939,2.052Zm-.881-2.782L95.4-2.6a2.154,2.154,0,0,0-.924.3.875.875,0,0,0-.312.771.839.839,0,0,0,.287.658,1.11,1.11,0,0,0,.765.255A1.414,1.414,0,0,0,96.3-1.072a1.641,1.641,0,0,0,.427-1.163Zm5.092,2.729a1.7,1.7,0,0,1-.822.172q-1.445,0-1.445-1.611V-4.748H98.6V-5.5h.945V-6.843l.881-.285V-5.5h1.386v.752h-1.386v3.1a1.285,1.285,0,0,0,.188.79.75.75,0,0,0,.623.236.926.926,0,0,0,.575-.183ZM103.442-6.9a.558.558,0,0,1-.4-.161.544.544,0,0,1-.167-.408.553.553,0,0,1,.167-.411.553.553,0,0,1,.4-.164.569.569,0,0,1,.411.164.548.548,0,0,1,.169.411.544.544,0,0,1-.169.4A.564.564,0,0,1,103.442-6.9Zm.43,6.9h-.881V-5.5h.881Zm4.082.129a2.551,2.551,0,0,1-1.947-.771,2.855,2.855,0,0,1-.728-2.044,2.974,2.974,0,0,1,.757-2.165,2.723,2.723,0,0,1,2.046-.779,2.467,2.467,0,0,1,1.92.757,3,3,0,0,1,.69,2.1,2.955,2.955,0,0,1-.744,2.108A2.607,2.607,0,0,1,107.954.129Zm.064-5.017a1.675,1.675,0,0,0-1.343.577,2.371,2.371,0,0,0-.494,1.593,2.243,2.243,0,0,0,.5,1.542,1.7,1.7,0,0,0,1.337.564,1.61,1.61,0,0,0,1.313-.553,2.4,2.4,0,0,0,.459-1.574,2.442,2.442,0,0,0-.459-1.59A1.6,1.6,0,0,0,108.018-4.888ZM116.666,0h-.881V-3.137q0-1.751-1.278-1.751a1.387,1.387,0,0,0-1.093.5,1.842,1.842,0,0,0-.432,1.254V0H112.1V-5.5h.881v.913H113a1.985,1.985,0,0,1,1.8-1.042,1.683,1.683,0,0,1,1.38.583,2.6,2.6,0,0,1,.478,1.684Zm1.966.118a.57.57,0,0,1-.422-.177.583.583,0,0,1-.175-.424.592.592,0,0,1,.175-.427.566.566,0,0,1,.422-.18.581.581,0,0,1,.43.18.588.588,0,0,1,.177.427.579.579,0,0,1-.177.424A.585.585,0,0,1,118.631.118ZM128.52,0h-.881V-3.158a2.383,2.383,0,0,0-.282-1.321,1.069,1.069,0,0,0-.948-.408,1.174,1.174,0,0,0-.959.516,1.973,1.973,0,0,0-.395,1.235V0h-.881V-3.266q0-1.622-1.251-1.622a1.159,1.159,0,0,0-.956.486,2.009,2.009,0,0,0-.376,1.265V0h-.881V-5.5h.881v.87h.021a1.869,1.869,0,0,1,1.708-1,1.593,1.593,0,0,1,.983.314,1.581,1.581,0,0,1,.575.824A1.963,1.963,0,0,1,126.7-5.629q1.815,0,1.815,2.24Zm3.964.129a2.551,2.551,0,0,1-1.947-.771,2.855,2.855,0,0,1-.728-2.044,2.974,2.974,0,0,1,.757-2.165,2.723,2.723,0,0,1,2.046-.779,2.467,2.467,0,0,1,1.92.757,3,3,0,0,1,.69,2.1,2.955,2.955,0,0,1-.744,2.108A2.607,2.607,0,0,1,132.483.129Zm.064-5.017a1.675,1.675,0,0,0-1.343.577,2.371,2.371,0,0,0-.494,1.593,2.243,2.243,0,0,0,.5,1.542,1.7,1.7,0,0,0,1.337.564,1.61,1.61,0,0,0,1.313-.553,2.4,2.4,0,0,0,.459-1.574,2.442,2.442,0,0,0-.459-1.59A1.6,1.6,0,0,0,132.548-4.888Zm8.406-.612L138.762,0H137.9l-2.084-5.5h.967l1.4,4a3.587,3.587,0,0,1,.193.768h.021a3.632,3.632,0,0,1,.172-.747L140.024-5.5Z" transform="translate(65 229)" fill="#31313a"/>
    <path id="Path_101278" data-name="Path 101278" d="M5.312-2.53H1.429a2.057,2.057,0,0,0,.494,1.418,1.7,1.7,0,0,0,1.3.5,2.7,2.7,0,0,0,1.708-.612V-.4A3.192,3.192,0,0,1,3.013.129,2.325,2.325,0,0,1,1.182-.62,3.067,3.067,0,0,1,.516-2.729a3.007,3.007,0,0,1,.728-2.092,2.334,2.334,0,0,1,1.807-.808,2.068,2.068,0,0,1,1.67.7,2.911,2.911,0,0,1,.591,1.939Zm-.9-.747a1.792,1.792,0,0,0-.368-1.187,1.254,1.254,0,0,0-1.007-.424,1.423,1.423,0,0,0-1.058.446,2.023,2.023,0,0,0-.537,1.166ZM10.662-5.5,8.814-2.718,10.629,0H9.6L8.524-1.783q-.1-.167-.242-.419H8.261q-.027.048-.252.419L6.907,0H5.892L7.767-2.7,5.973-5.5H7L8.062-3.62q.118.209.231.43h.021L9.689-5.5Zm5.6,5.5h-.881V-3.169q0-1.719-1.278-1.719a1.394,1.394,0,0,0-1.085.5,1.851,1.851,0,0,0-.44,1.276V0h-.881V-8.143h.881v3.556H12.6a2,2,0,0,1,1.8-1.042q1.858,0,1.858,2.24Zm2.111-6.9a.558.558,0,0,1-.4-.161.544.544,0,0,1-.167-.408.553.553,0,0,1,.167-.411.553.553,0,0,1,.4-.164.569.569,0,0,1,.411.164.548.548,0,0,1,.169.411.544.544,0,0,1-.169.4A.564.564,0,0,1,18.369-6.9ZM18.8,0h-.881V-5.5H18.8Zm2.686-.795h-.021V0h-.881V-8.143h.881v3.609h.021a2.083,2.083,0,0,1,1.9-1.1,2.016,2.016,0,0,1,1.657.739,3.049,3.049,0,0,1,.6,1.979A3.409,3.409,0,0,1,24.97-.7a2.235,2.235,0,0,1-1.837.83A1.809,1.809,0,0,1,21.484-.795Zm-.021-2.218v.768a1.635,1.635,0,0,0,.443,1.157,1.471,1.471,0,0,0,1.125.475,1.474,1.474,0,0,0,1.254-.612,2.809,2.809,0,0,0,.454-1.7,2.217,2.217,0,0,0-.424-1.439,1.4,1.4,0,0,0-1.149-.521,1.561,1.561,0,0,0-1.235.534A1.962,1.962,0,0,0,21.463-3.013ZM27.5-6.9a.558.558,0,0,1-.4-.161.544.544,0,0,1-.167-.408.553.553,0,0,1,.167-.411.553.553,0,0,1,.4-.164.569.569,0,0,1,.411.164.548.548,0,0,1,.169.411.544.544,0,0,1-.169.4A.564.564,0,0,1,27.5-6.9ZM27.93,0h-.881V-5.5h.881Zm4.334-.054a1.7,1.7,0,0,1-.822.172Q30,.118,30-1.493V-4.748h-.945V-5.5H30V-6.843l.881-.285V-5.5h1.386v.752H30.878v3.1a1.285,1.285,0,0,0,.188.79.75.75,0,0,0,.623.236.926.926,0,0,0,.575-.183ZM37.114,1.6H32.549V.956h4.565ZM40.3.129a2.551,2.551,0,0,1-1.947-.771,2.855,2.855,0,0,1-.728-2.044,2.974,2.974,0,0,1,.757-2.165,2.723,2.723,0,0,1,2.046-.779,2.467,2.467,0,0,1,1.92.757,3,3,0,0,1,.69,2.1A2.955,2.955,0,0,1,42.3-.663,2.607,2.607,0,0,1,40.3.129Zm.064-5.017a1.675,1.675,0,0,0-1.343.577,2.371,2.371,0,0,0-.494,1.593,2.243,2.243,0,0,0,.5,1.542,1.7,1.7,0,0,0,1.337.564,1.61,1.61,0,0,0,1.313-.553,2.4,2.4,0,0,0,.459-1.574,2.442,2.442,0,0,0-.459-1.59A1.6,1.6,0,0,0,40.369-4.888ZM49.017,0h-.881V-3.137q0-1.751-1.278-1.751a1.387,1.387,0,0,0-1.093.5,1.841,1.841,0,0,0-.432,1.254V0h-.881V-5.5h.881v.913h.021a1.985,1.985,0,0,1,1.8-1.042,1.683,1.683,0,0,1,1.38.583,2.6,2.6,0,0,1,.478,1.684ZM55.1-2.53H51.213a2.057,2.057,0,0,0,.494,1.418,1.7,1.7,0,0,0,1.3.5,2.7,2.7,0,0,0,1.708-.612V-.4A3.192,3.192,0,0,1,52.8.129,2.325,2.325,0,0,1,50.966-.62,3.067,3.067,0,0,1,50.3-2.729a3.007,3.007,0,0,1,.728-2.092,2.334,2.334,0,0,1,1.807-.808,2.068,2.068,0,0,1,1.67.7A2.911,2.911,0,0,1,55.1-2.992Zm-.9-.747a1.792,1.792,0,0,0-.368-1.187,1.254,1.254,0,0,0-1.007-.424,1.423,1.423,0,0,0-1.058.446,2.023,2.023,0,0,0-.537,1.166ZM60.1,1.6H55.537V.956H60.1ZM64.743-.252a2.862,2.862,0,0,1-1.5.381,2.49,2.49,0,0,1-1.9-.765,2.774,2.774,0,0,1-.722-1.985A3.049,3.049,0,0,1,61.4-4.8a2.724,2.724,0,0,1,2.079-.824,2.893,2.893,0,0,1,1.278.269v.9a2.24,2.24,0,0,0-1.311-.43,1.771,1.771,0,0,0-1.383.6,2.293,2.293,0,0,0-.54,1.587,2.183,2.183,0,0,0,.508,1.525,1.749,1.749,0,0,0,1.362.559,2.208,2.208,0,0,0,1.354-.478Zm3.631.381a2.551,2.551,0,0,1-1.947-.771A2.855,2.855,0,0,1,65.7-2.686a2.974,2.974,0,0,1,.757-2.165A2.723,2.723,0,0,1,68.5-5.629a2.467,2.467,0,0,1,1.92.757,3,3,0,0,1,.69,2.1,2.955,2.955,0,0,1-.744,2.108A2.607,2.607,0,0,1,68.374.129Zm.064-5.017A1.675,1.675,0,0,0,67.1-4.31,2.371,2.371,0,0,0,66.6-2.718a2.243,2.243,0,0,0,.5,1.542,1.7,1.7,0,0,0,1.337.564,1.61,1.61,0,0,0,1.313-.553,2.4,2.4,0,0,0,.459-1.574,2.442,2.442,0,0,0-.459-1.59A1.6,1.6,0,0,0,68.438-4.888ZM80.33,0h-.881V-3.158a2.383,2.383,0,0,0-.282-1.321,1.069,1.069,0,0,0-.948-.408,1.174,1.174,0,0,0-.959.516,1.973,1.973,0,0,0-.395,1.235V0h-.881V-3.266q0-1.622-1.251-1.622a1.159,1.159,0,0,0-.956.486A2.009,2.009,0,0,0,73.4-3.137V0h-.881V-5.5H73.4v.87h.021a1.869,1.869,0,0,1,1.708-1,1.593,1.593,0,0,1,.983.314,1.581,1.581,0,0,1,.575.824,1.963,1.963,0,0,1,1.826-1.139q1.815,0,1.815,2.24ZM89.8,0h-.881V-3.158a2.383,2.383,0,0,0-.282-1.321,1.069,1.069,0,0,0-.948-.408,1.174,1.174,0,0,0-.959.516,1.973,1.973,0,0,0-.395,1.235V0h-.881V-3.266q0-1.622-1.251-1.622a1.159,1.159,0,0,0-.956.486,2.009,2.009,0,0,0-.376,1.265V0H82V-5.5h.881v.87H82.9a1.869,1.869,0,0,1,1.708-1,1.593,1.593,0,0,1,.983.314,1.581,1.581,0,0,1,.575.824,1.963,1.963,0,0,1,1.826-1.139q1.815,0,1.815,2.24Zm6.112,0h-.881V-.87h-.021a1.809,1.809,0,0,1-1.7,1q-1.966,0-1.966-2.342V-5.5h.875v3.147q0,1.74,1.332,1.74a1.348,1.348,0,0,0,1.061-.475,1.819,1.819,0,0,0,.416-1.243V-5.5h.881Zm6.343,0h-.881V-3.137q0-1.751-1.278-1.751a1.387,1.387,0,0,0-1.093.5,1.842,1.842,0,0,0-.432,1.254V0h-.881V-5.5h.881v.913H98.6a1.985,1.985,0,0,1,1.8-1.042,1.683,1.683,0,0,1,1.38.583,2.6,2.6,0,0,1,.478,1.684Zm2.111-6.9a.558.558,0,0,1-.4-.161.544.544,0,0,1-.167-.408.553.553,0,0,1,.167-.411.553.553,0,0,1,.4-.164.569.569,0,0,1,.411.164.548.548,0,0,1,.169.411.544.544,0,0,1-.169.4A.564.564,0,0,1,104.371-6.9ZM104.8,0h-.881V-5.5h.881Zm4.334-.054a1.7,1.7,0,0,1-.822.172q-1.445,0-1.445-1.611V-4.748h-.945V-5.5h.945V-6.843l.881-.285V-5.5h1.386v.752H107.75v3.1a1.285,1.285,0,0,0,.188.79.75.75,0,0,0,.623.236.926.926,0,0,0,.575-.183ZM114.689-5.5,112.159.881q-.677,1.708-1.9,1.708a2.015,2.015,0,0,1-.575-.07v-.79a1.633,1.633,0,0,0,.521.1,1.08,1.08,0,0,0,1-.795l.44-1.042L109.5-5.5h.978l1.488,4.232q.027.081.113.419h.032q.027-.129.107-.408L113.776-5.5Zm4.619,7.1h-4.565V.956h4.565Zm3.443-1.649a1.7,1.7,0,0,1-.822.172q-1.445,0-1.445-1.611V-4.748h-.945V-5.5h.945V-6.843l.881-.285V-5.5h1.386v.752h-1.386v3.1a1.285,1.285,0,0,0,.188.79.75.75,0,0,0,.623.236.926.926,0,0,0,.575-.183Zm5.6-2.476h-3.883a2.057,2.057,0,0,0,.494,1.418,1.7,1.7,0,0,0,1.3.5,2.7,2.7,0,0,0,1.708-.612V-.4a3.192,3.192,0,0,1-1.917.526,2.325,2.325,0,0,1-1.832-.749,3.067,3.067,0,0,1-.666-2.108,3.007,3.007,0,0,1,.728-2.092,2.334,2.334,0,0,1,1.807-.808,2.068,2.068,0,0,1,1.67.7,2.911,2.911,0,0,1,.591,1.939Zm-.9-.747a1.792,1.792,0,0,0-.368-1.187,1.254,1.254,0,0,0-1.007-.424,1.423,1.423,0,0,0-1.058.446,2.023,2.023,0,0,0-.537,1.166ZM137.489,0h-.881V-3.158a2.383,2.383,0,0,0-.282-1.321,1.069,1.069,0,0,0-.948-.408,1.174,1.174,0,0,0-.959.516,1.973,1.973,0,0,0-.395,1.235V0h-.881V-3.266q0-1.622-1.251-1.622a1.159,1.159,0,0,0-.956.486,2.009,2.009,0,0,0-.376,1.265V0h-.881V-5.5h.881v.87h.021a1.869,1.869,0,0,1,1.708-1,1.593,1.593,0,0,1,.983.314,1.581,1.581,0,0,1,.575.824,1.963,1.963,0,0,1,1.826-1.139q1.815,0,1.815,2.24Zm2.567-.795h-.021V2.53h-.881V-5.5h.881v.967h.021a2.083,2.083,0,0,1,1.9-1.1,2.014,2.014,0,0,1,1.66.739,3.059,3.059,0,0,1,.6,1.979,3.409,3.409,0,0,1-.671,2.21,2.235,2.235,0,0,1-1.837.83A1.84,1.84,0,0,1,140.057-.795Zm-.021-2.218v.768a1.635,1.635,0,0,0,.443,1.157,1.471,1.471,0,0,0,1.125.475,1.474,1.474,0,0,0,1.254-.612,2.809,2.809,0,0,0,.454-1.7,2.217,2.217,0,0,0-.424-1.439,1.4,1.4,0,0,0-1.149-.521,1.561,1.561,0,0,0-1.235.534A1.962,1.962,0,0,0,140.035-3.013ZM146.5,0h-.881V-8.143h.881Zm5.72,0h-.881V-.859h-.021a1.844,1.844,0,0,1-1.692.988,1.808,1.808,0,0,1-1.286-.435,1.507,1.507,0,0,1-.465-1.155q0-1.542,1.815-1.794l1.649-.231q0-1.4-1.133-1.4a2.708,2.708,0,0,0-1.794.677v-.9a3.408,3.408,0,0,1,1.869-.516q1.939,0,1.939,2.052Zm-.881-2.782-1.327.183a2.154,2.154,0,0,0-.924.3.875.875,0,0,0-.312.771.839.839,0,0,0,.287.658,1.11,1.11,0,0,0,.765.255,1.414,1.414,0,0,0,1.082-.459,1.641,1.641,0,0,0,.427-1.163Zm5.092,2.729a1.7,1.7,0,0,1-.822.172q-1.445,0-1.445-1.611V-4.748h-.945V-5.5h.945V-6.843l.881-.285V-5.5h1.386v.752h-1.386v3.1a1.285,1.285,0,0,0,.188.79.75.75,0,0,0,.623.236.926.926,0,0,0,.575-.183Zm5.6-2.476h-3.883a2.057,2.057,0,0,0,.494,1.418,1.7,1.7,0,0,0,1.3.5,2.7,2.7,0,0,0,1.708-.612V-.4a3.192,3.192,0,0,1-1.917.526A2.325,2.325,0,0,1,157.9-.62a3.067,3.067,0,0,1-.666-2.108,3.008,3.008,0,0,1,.728-2.092,2.334,2.334,0,0,1,1.807-.808,2.068,2.068,0,0,1,1.67.7,2.911,2.911,0,0,1,.591,1.939Zm-.9-.747a1.792,1.792,0,0,0-.368-1.187,1.254,1.254,0,0,0-1.007-.424,1.423,1.423,0,0,0-1.058.446,2.023,2.023,0,0,0-.537,1.166ZM163.668.118a.57.57,0,0,1-.422-.177.583.583,0,0,1-.175-.424.592.592,0,0,1,.175-.427.566.566,0,0,1,.422-.18.581.581,0,0,1,.43.18.588.588,0,0,1,.177.427.579.579,0,0,1-.177.424A.585.585,0,0,1,163.668.118ZM170.441,0h-.881V-.935h-.021A2.033,2.033,0,0,1,167.648.129a2.054,2.054,0,0,1-1.657-.739,3.03,3.03,0,0,1-.62-2.011,3.3,3.3,0,0,1,.688-2.186,2.268,2.268,0,0,1,1.832-.822,1.763,1.763,0,0,1,1.649.892h.021V-8.143h.881Zm-.881-2.487V-3.3a1.573,1.573,0,0,0-.44-1.128A1.477,1.477,0,0,0,168-4.888a1.521,1.521,0,0,0-1.268.591,2.589,2.589,0,0,0-.462,1.633,2.329,2.329,0,0,0,.443,1.5,1.448,1.448,0,0,0,1.19.551,1.5,1.5,0,0,0,1.2-.532A1.981,1.981,0,0,0,169.56-2.487ZM174.523.129a2.551,2.551,0,0,1-1.947-.771,2.855,2.855,0,0,1-.728-2.044,2.974,2.974,0,0,1,.757-2.165,2.723,2.723,0,0,1,2.046-.779,2.467,2.467,0,0,1,1.92.757,3,3,0,0,1,.69,2.1,2.955,2.955,0,0,1-.744,2.108A2.607,2.607,0,0,1,174.523.129Zm.064-5.017a1.675,1.675,0,0,0-1.343.577,2.371,2.371,0,0,0-.494,1.593,2.243,2.243,0,0,0,.5,1.542,1.7,1.7,0,0,0,1.337.564,1.61,1.61,0,0,0,1.313-.553,2.4,2.4,0,0,0,.459-1.574,2.442,2.442,0,0,0-.459-1.59A1.6,1.6,0,0,0,174.587-4.888Zm7.831,4.635a2.862,2.862,0,0,1-1.5.381,2.49,2.49,0,0,1-1.9-.765,2.774,2.774,0,0,1-.722-1.985,3.049,3.049,0,0,1,.779-2.183,2.724,2.724,0,0,1,2.079-.824,2.893,2.893,0,0,1,1.278.269v.9a2.24,2.24,0,0,0-1.311-.43,1.771,1.771,0,0,0-1.383.6A2.293,2.293,0,0,0,179.2-2.7a2.183,2.183,0,0,0,.508,1.525,1.749,1.749,0,0,0,1.362.559,2.208,2.208,0,0,0,1.354-.478Z" transform="translate(65 266)" fill="#31313a"/>
    <path id="Path_101274" data-name="Path 101274" d="M5.274,0H.951V-7.7H5.1v1.085H2.229v2.181H4.877v1.08H2.229V-1.08H5.274ZM11.5,0H10.259V-.935h-.021A1.988,1.988,0,0,1,8.384.129,2,2,0,0,1,6.76-.61a3.066,3.066,0,0,1-.61-2.011,3.34,3.34,0,0,1,.674-2.186,2.206,2.206,0,0,1,1.8-.822,1.72,1.72,0,0,1,1.617.892h.021V-8.143H11.5Zm-1.23-2.514v-.72a1.4,1.4,0,0,0-.381-.994,1.272,1.272,0,0,0-.972-.408,1.309,1.309,0,0,0-1.1.521,2.322,2.322,0,0,0-.4,1.445,2.08,2.08,0,0,0,.384,1.324,1.249,1.249,0,0,0,1.034.486,1.293,1.293,0,0,0,1.037-.47A1.771,1.771,0,0,0,10.275-2.514Zm3.486-4.141a.749.749,0,0,1-.524-.2.654.654,0,0,1-.218-.5.671.671,0,0,1,.218-.51.738.738,0,0,1,.524-.2.761.761,0,0,1,.537.2.667.667,0,0,1,.22.51.658.658,0,0,1-.22.5A.756.756,0,0,1,13.761-6.655ZM14.378,0H13.132V-5.5h1.246Zm4.528-.059a2.16,2.16,0,0,1-.961.183q-1.6,0-1.6-1.536v-3.11h-.918V-5.5h.918V-6.773l1.246-.354V-5.5h1.316v.978H17.59v2.75a1.084,1.084,0,0,0,.177.7.736.736,0,0,0,.591.209.857.857,0,0,0,.548-.183ZM28,0H26.759V-.935h-.021A1.988,1.988,0,0,1,24.884.129,2,2,0,0,1,23.26-.61a3.066,3.066,0,0,1-.61-2.011,3.34,3.34,0,0,1,.674-2.186,2.206,2.206,0,0,1,1.8-.822,1.72,1.72,0,0,1,1.617.892h.021V-8.143H28Zm-1.23-2.514v-.72a1.4,1.4,0,0,0-.381-.994,1.272,1.272,0,0,0-.972-.408,1.309,1.309,0,0,0-1.1.521,2.322,2.322,0,0,0-.4,1.445,2.08,2.08,0,0,0,.384,1.324,1.249,1.249,0,0,0,1.034.486,1.293,1.293,0,0,0,1.037-.47A1.771,1.771,0,0,0,26.775-2.514Zm7.514.1H30.54a1.585,1.585,0,0,0,.47,1.176,1.749,1.749,0,0,0,1.233.414,2.718,2.718,0,0,0,1.617-.526v1a3.694,3.694,0,0,1-1.987.473,2.46,2.46,0,0,1-1.9-.749,3,3,0,0,1-.69-2.108,2.931,2.931,0,0,1,.76-2.092,2.486,2.486,0,0,1,1.888-.808,2.168,2.168,0,0,1,1.746.725,3.01,3.01,0,0,1,.618,2.014Zm-1.2-.881a1.606,1.606,0,0,0-.317-1.045,1.059,1.059,0,0,0-.859-.373,1.209,1.209,0,0,0-.91.392,1.791,1.791,0,0,0-.459,1.026ZM38.376-.059a2.159,2.159,0,0,1-.961.183q-1.6,0-1.6-1.536v-3.11H34.9V-5.5h.918V-6.773l1.246-.354V-5.5h1.316v.978H37.061v2.75a1.084,1.084,0,0,0,.177.7.736.736,0,0,0,.591.209.857.857,0,0,0,.548-.183Zm5.3.059H42.464V-.859h-.021a1.82,1.82,0,0,1-1.67.988,1.76,1.76,0,0,1-1.27-.44,1.54,1.54,0,0,1-.459-1.166q0-1.558,1.794-1.815l1.633-.231q0-1.176-1.117-1.176a2.654,2.654,0,0,0-1.772.677v-1.09a3.865,3.865,0,0,1,2.009-.516,1.828,1.828,0,0,1,2.084,2.052Zm-1.2-2.7-1.155.161a1.83,1.83,0,0,0-.808.26.761.761,0,0,0-.271.669.732.732,0,0,0,.25.572.967.967,0,0,0,.669.223,1.234,1.234,0,0,0,.943-.4,1.419,1.419,0,0,0,.373-1.007Zm3.352-3.953a.749.749,0,0,1-.524-.2.654.654,0,0,1-.218-.5.671.671,0,0,1,.218-.51.738.738,0,0,1,.524-.2.761.761,0,0,1,.537.2.667.667,0,0,1,.22.51.658.658,0,0,1-.22.5A.756.756,0,0,1,45.821-6.655ZM46.438,0H45.192V-5.5h1.246Zm2.879,0H48.066V-8.143h1.251ZM50.6-.172V-1.327a2.486,2.486,0,0,0,1.542.532q1.128,0,1.128-.666a.525.525,0,0,0-.1-.32.923.923,0,0,0-.26-.234,2.048,2.048,0,0,0-.387-.183l-.5-.183a5.26,5.26,0,0,1-.61-.285,1.842,1.842,0,0,1-.451-.341,1.287,1.287,0,0,1-.271-.432A1.592,1.592,0,0,1,50.6-4a1.3,1.3,0,0,1,.188-.7,1.634,1.634,0,0,1,.5-.51,2.421,2.421,0,0,1,.72-.312,3.3,3.3,0,0,1,.833-.1A3.785,3.785,0,0,1,54.21-5.4v1.09a2.3,2.3,0,0,0-1.332-.4,1.74,1.74,0,0,0-.427.048,1.1,1.1,0,0,0-.325.134.661.661,0,0,0-.209.207.493.493,0,0,0-.075.266.568.568,0,0,0,.075.3.683.683,0,0,0,.223.218,1.925,1.925,0,0,0,.354.172q.207.078.475.169a6.945,6.945,0,0,1,.636.3,2.151,2.151,0,0,1,.481.341,1.337,1.337,0,0,1,.306.44,1.5,1.5,0,0,1,.107.594,1.357,1.357,0,0,1-.193.73,1.612,1.612,0,0,1-.516.516,2.414,2.414,0,0,1-.744.3,3.865,3.865,0,0,1-.889.1A3.745,3.745,0,0,1,50.6-.172ZM0,1H54.871V2H0Z" transform="translate(263 117)" fill="#2777d3"/>
    <path id="Path_101275" data-name="Path 101275" d="M5.274,0H.951V-7.7H5.1v1.085H2.229v2.181H4.877v1.08H2.229V-1.08H5.274ZM11.5,0H10.259V-.935h-.021A1.988,1.988,0,0,1,8.384.129,2,2,0,0,1,6.76-.61a3.066,3.066,0,0,1-.61-2.011,3.34,3.34,0,0,1,.674-2.186,2.206,2.206,0,0,1,1.8-.822,1.72,1.72,0,0,1,1.617.892h.021V-8.143H11.5Zm-1.23-2.514v-.72a1.4,1.4,0,0,0-.381-.994,1.272,1.272,0,0,0-.972-.408,1.309,1.309,0,0,0-1.1.521,2.322,2.322,0,0,0-.4,1.445,2.08,2.08,0,0,0,.384,1.324,1.249,1.249,0,0,0,1.034.486,1.293,1.293,0,0,0,1.037-.47A1.771,1.771,0,0,0,10.275-2.514Zm3.486-4.141a.749.749,0,0,1-.524-.2.654.654,0,0,1-.218-.5.671.671,0,0,1,.218-.51.738.738,0,0,1,.524-.2.761.761,0,0,1,.537.2.667.667,0,0,1,.22.51.658.658,0,0,1-.22.5A.756.756,0,0,1,13.761-6.655ZM14.378,0H13.132V-5.5h1.246Zm4.528-.059a2.16,2.16,0,0,1-.961.183q-1.6,0-1.6-1.536v-3.11h-.918V-5.5h.918V-6.773l1.246-.354V-5.5h1.316v.978H17.59v2.75a1.084,1.084,0,0,0,.177.7.736.736,0,0,0,.591.209.857.857,0,0,0,.548-.183ZM28,0H26.759V-.935h-.021A1.988,1.988,0,0,1,24.884.129,2,2,0,0,1,23.26-.61a3.066,3.066,0,0,1-.61-2.011,3.34,3.34,0,0,1,.674-2.186,2.206,2.206,0,0,1,1.8-.822,1.72,1.72,0,0,1,1.617.892h.021V-8.143H28Zm-1.23-2.514v-.72a1.4,1.4,0,0,0-.381-.994,1.272,1.272,0,0,0-.972-.408,1.309,1.309,0,0,0-1.1.521,2.322,2.322,0,0,0-.4,1.445,2.08,2.08,0,0,0,.384,1.324,1.249,1.249,0,0,0,1.034.486,1.293,1.293,0,0,0,1.037-.47A1.771,1.771,0,0,0,26.775-2.514Zm7.514.1H30.54a1.585,1.585,0,0,0,.47,1.176,1.749,1.749,0,0,0,1.233.414,2.718,2.718,0,0,0,1.617-.526v1a3.694,3.694,0,0,1-1.987.473,2.46,2.46,0,0,1-1.9-.749,3,3,0,0,1-.69-2.108,2.931,2.931,0,0,1,.76-2.092,2.486,2.486,0,0,1,1.888-.808,2.168,2.168,0,0,1,1.746.725,3.01,3.01,0,0,1,.618,2.014Zm-1.2-.881a1.606,1.606,0,0,0-.317-1.045,1.059,1.059,0,0,0-.859-.373,1.209,1.209,0,0,0-.91.392,1.791,1.791,0,0,0-.459,1.026ZM38.376-.059a2.159,2.159,0,0,1-.961.183q-1.6,0-1.6-1.536v-3.11H34.9V-5.5h.918V-6.773l1.246-.354V-5.5h1.316v.978H37.061v2.75a1.084,1.084,0,0,0,.177.7.736.736,0,0,0,.591.209.857.857,0,0,0,.548-.183Zm5.3.059H42.464V-.859h-.021a1.82,1.82,0,0,1-1.67.988,1.76,1.76,0,0,1-1.27-.44,1.54,1.54,0,0,1-.459-1.166q0-1.558,1.794-1.815l1.633-.231q0-1.176-1.117-1.176a2.654,2.654,0,0,0-1.772.677v-1.09a3.865,3.865,0,0,1,2.009-.516,1.828,1.828,0,0,1,2.084,2.052Zm-1.2-2.7-1.155.161a1.83,1.83,0,0,0-.808.26.761.761,0,0,0-.271.669.732.732,0,0,0,.25.572.967.967,0,0,0,.669.223,1.234,1.234,0,0,0,.943-.4,1.419,1.419,0,0,0,.373-1.007Zm3.352-3.953a.749.749,0,0,1-.524-.2.654.654,0,0,1-.218-.5.671.671,0,0,1,.218-.51.738.738,0,0,1,.524-.2.761.761,0,0,1,.537.2.667.667,0,0,1,.22.51.658.658,0,0,1-.22.5A.756.756,0,0,1,45.821-6.655ZM46.438,0H45.192V-5.5h1.246Zm2.879,0H48.066V-8.143h1.251ZM50.6-.172V-1.327a2.486,2.486,0,0,0,1.542.532q1.128,0,1.128-.666a.525.525,0,0,0-.1-.32.923.923,0,0,0-.26-.234,2.048,2.048,0,0,0-.387-.183l-.5-.183a5.26,5.26,0,0,1-.61-.285,1.842,1.842,0,0,1-.451-.341,1.287,1.287,0,0,1-.271-.432A1.592,1.592,0,0,1,50.6-4a1.3,1.3,0,0,1,.188-.7,1.634,1.634,0,0,1,.5-.51,2.421,2.421,0,0,1,.72-.312,3.3,3.3,0,0,1,.833-.1A3.785,3.785,0,0,1,54.21-5.4v1.09a2.3,2.3,0,0,0-1.332-.4,1.74,1.74,0,0,0-.427.048,1.1,1.1,0,0,0-.325.134.661.661,0,0,0-.209.207.493.493,0,0,0-.075.266.568.568,0,0,0,.075.3.683.683,0,0,0,.223.218,1.925,1.925,0,0,0,.354.172q.207.078.475.169a6.945,6.945,0,0,1,.636.3,2.151,2.151,0,0,1,.481.341,1.337,1.337,0,0,1,.306.44,1.5,1.5,0,0,1,.107.594,1.357,1.357,0,0,1-.193.73,1.612,1.612,0,0,1-.516.516,2.414,2.414,0,0,1-.744.3,3.865,3.865,0,0,1-.889.1A3.745,3.745,0,0,1,50.6-.172ZM0,1H54.871V2H0Z" transform="translate(263 155)" fill="#2777d3"/>
    <path id="Path_101276" data-name="Path 101276" d="M5.274,0H.951V-7.7H5.1v1.085H2.229v2.181H4.877v1.08H2.229V-1.08H5.274ZM11.5,0H10.259V-.935h-.021A1.988,1.988,0,0,1,8.384.129,2,2,0,0,1,6.76-.61a3.066,3.066,0,0,1-.61-2.011,3.34,3.34,0,0,1,.674-2.186,2.206,2.206,0,0,1,1.8-.822,1.72,1.72,0,0,1,1.617.892h.021V-8.143H11.5Zm-1.23-2.514v-.72a1.4,1.4,0,0,0-.381-.994,1.272,1.272,0,0,0-.972-.408,1.309,1.309,0,0,0-1.1.521,2.322,2.322,0,0,0-.4,1.445,2.08,2.08,0,0,0,.384,1.324,1.249,1.249,0,0,0,1.034.486,1.293,1.293,0,0,0,1.037-.47A1.771,1.771,0,0,0,10.275-2.514Zm3.486-4.141a.749.749,0,0,1-.524-.2.654.654,0,0,1-.218-.5.671.671,0,0,1,.218-.51.738.738,0,0,1,.524-.2.761.761,0,0,1,.537.2.667.667,0,0,1,.22.51.658.658,0,0,1-.22.5A.756.756,0,0,1,13.761-6.655ZM14.378,0H13.132V-5.5h1.246Zm4.528-.059a2.16,2.16,0,0,1-.961.183q-1.6,0-1.6-1.536v-3.11h-.918V-5.5h.918V-6.773l1.246-.354V-5.5h1.316v.978H17.59v2.75a1.084,1.084,0,0,0,.177.7.736.736,0,0,0,.591.209.857.857,0,0,0,.548-.183ZM28,0H26.759V-.935h-.021A1.988,1.988,0,0,1,24.884.129,2,2,0,0,1,23.26-.61a3.066,3.066,0,0,1-.61-2.011,3.34,3.34,0,0,1,.674-2.186,2.206,2.206,0,0,1,1.8-.822,1.72,1.72,0,0,1,1.617.892h.021V-8.143H28Zm-1.23-2.514v-.72a1.4,1.4,0,0,0-.381-.994,1.272,1.272,0,0,0-.972-.408,1.309,1.309,0,0,0-1.1.521,2.322,2.322,0,0,0-.4,1.445,2.08,2.08,0,0,0,.384,1.324,1.249,1.249,0,0,0,1.034.486,1.293,1.293,0,0,0,1.037-.47A1.771,1.771,0,0,0,26.775-2.514Zm7.514.1H30.54a1.585,1.585,0,0,0,.47,1.176,1.749,1.749,0,0,0,1.233.414,2.718,2.718,0,0,0,1.617-.526v1a3.694,3.694,0,0,1-1.987.473,2.46,2.46,0,0,1-1.9-.749,3,3,0,0,1-.69-2.108,2.931,2.931,0,0,1,.76-2.092,2.486,2.486,0,0,1,1.888-.808,2.168,2.168,0,0,1,1.746.725,3.01,3.01,0,0,1,.618,2.014Zm-1.2-.881a1.606,1.606,0,0,0-.317-1.045,1.059,1.059,0,0,0-.859-.373,1.209,1.209,0,0,0-.91.392,1.791,1.791,0,0,0-.459,1.026ZM38.376-.059a2.159,2.159,0,0,1-.961.183q-1.6,0-1.6-1.536v-3.11H34.9V-5.5h.918V-6.773l1.246-.354V-5.5h1.316v.978H37.061v2.75a1.084,1.084,0,0,0,.177.7.736.736,0,0,0,.591.209.857.857,0,0,0,.548-.183Zm5.3.059H42.464V-.859h-.021a1.82,1.82,0,0,1-1.67.988,1.76,1.76,0,0,1-1.27-.44,1.54,1.54,0,0,1-.459-1.166q0-1.558,1.794-1.815l1.633-.231q0-1.176-1.117-1.176a2.654,2.654,0,0,0-1.772.677v-1.09a3.865,3.865,0,0,1,2.009-.516,1.828,1.828,0,0,1,2.084,2.052Zm-1.2-2.7-1.155.161a1.83,1.83,0,0,0-.808.26.761.761,0,0,0-.271.669.732.732,0,0,0,.25.572.967.967,0,0,0,.669.223,1.234,1.234,0,0,0,.943-.4,1.419,1.419,0,0,0,.373-1.007Zm3.352-3.953a.749.749,0,0,1-.524-.2.654.654,0,0,1-.218-.5.671.671,0,0,1,.218-.51.738.738,0,0,1,.524-.2.761.761,0,0,1,.537.2.667.667,0,0,1,.22.51.658.658,0,0,1-.22.5A.756.756,0,0,1,45.821-6.655ZM46.438,0H45.192V-5.5h1.246Zm2.879,0H48.066V-8.143h1.251ZM50.6-.172V-1.327a2.486,2.486,0,0,0,1.542.532q1.128,0,1.128-.666a.525.525,0,0,0-.1-.32.923.923,0,0,0-.26-.234,2.048,2.048,0,0,0-.387-.183l-.5-.183a5.26,5.26,0,0,1-.61-.285,1.842,1.842,0,0,1-.451-.341,1.287,1.287,0,0,1-.271-.432A1.592,1.592,0,0,1,50.6-4a1.3,1.3,0,0,1,.188-.7,1.634,1.634,0,0,1,.5-.51,2.421,2.421,0,0,1,.72-.312,3.3,3.3,0,0,1,.833-.1A3.785,3.785,0,0,1,54.21-5.4v1.09a2.3,2.3,0,0,0-1.332-.4,1.74,1.74,0,0,0-.427.048,1.1,1.1,0,0,0-.325.134.661.661,0,0,0-.209.207.493.493,0,0,0-.075.266.568.568,0,0,0,.075.3.683.683,0,0,0,.223.218,1.925,1.925,0,0,0,.354.172q.207.078.475.169a6.945,6.945,0,0,1,.636.3,2.151,2.151,0,0,1,.481.341,1.337,1.337,0,0,1,.306.44,1.5,1.5,0,0,1,.107.594,1.357,1.357,0,0,1-.193.73,1.612,1.612,0,0,1-.516.516,2.414,2.414,0,0,1-.744.3,3.865,3.865,0,0,1-.889.1A3.745,3.745,0,0,1,50.6-.172ZM0,1H54.871V2H0Z" transform="translate(263 192)" fill="#2777d3"/>
    <path id="Path_101277" data-name="Path 101277" d="M5.274,0H.951V-7.7H5.1v1.085H2.229v2.181H4.877v1.08H2.229V-1.08H5.274ZM11.5,0H10.259V-.935h-.021A1.988,1.988,0,0,1,8.384.129,2,2,0,0,1,6.76-.61a3.066,3.066,0,0,1-.61-2.011,3.34,3.34,0,0,1,.674-2.186,2.206,2.206,0,0,1,1.8-.822,1.72,1.72,0,0,1,1.617.892h.021V-8.143H11.5Zm-1.23-2.514v-.72a1.4,1.4,0,0,0-.381-.994,1.272,1.272,0,0,0-.972-.408,1.309,1.309,0,0,0-1.1.521,2.322,2.322,0,0,0-.4,1.445,2.08,2.08,0,0,0,.384,1.324,1.249,1.249,0,0,0,1.034.486,1.293,1.293,0,0,0,1.037-.47A1.771,1.771,0,0,0,10.275-2.514Zm3.486-4.141a.749.749,0,0,1-.524-.2.654.654,0,0,1-.218-.5.671.671,0,0,1,.218-.51.738.738,0,0,1,.524-.2.761.761,0,0,1,.537.2.667.667,0,0,1,.22.51.658.658,0,0,1-.22.5A.756.756,0,0,1,13.761-6.655ZM14.378,0H13.132V-5.5h1.246Zm4.528-.059a2.16,2.16,0,0,1-.961.183q-1.6,0-1.6-1.536v-3.11h-.918V-5.5h.918V-6.773l1.246-.354V-5.5h1.316v.978H17.59v2.75a1.084,1.084,0,0,0,.177.7.736.736,0,0,0,.591.209.857.857,0,0,0,.548-.183ZM28,0H26.759V-.935h-.021A1.988,1.988,0,0,1,24.884.129,2,2,0,0,1,23.26-.61a3.066,3.066,0,0,1-.61-2.011,3.34,3.34,0,0,1,.674-2.186,2.206,2.206,0,0,1,1.8-.822,1.72,1.72,0,0,1,1.617.892h.021V-8.143H28Zm-1.23-2.514v-.72a1.4,1.4,0,0,0-.381-.994,1.272,1.272,0,0,0-.972-.408,1.309,1.309,0,0,0-1.1.521,2.322,2.322,0,0,0-.4,1.445,2.08,2.08,0,0,0,.384,1.324,1.249,1.249,0,0,0,1.034.486,1.293,1.293,0,0,0,1.037-.47A1.771,1.771,0,0,0,26.775-2.514Zm7.514.1H30.54a1.585,1.585,0,0,0,.47,1.176,1.749,1.749,0,0,0,1.233.414,2.718,2.718,0,0,0,1.617-.526v1a3.694,3.694,0,0,1-1.987.473,2.46,2.46,0,0,1-1.9-.749,3,3,0,0,1-.69-2.108,2.931,2.931,0,0,1,.76-2.092,2.486,2.486,0,0,1,1.888-.808,2.168,2.168,0,0,1,1.746.725,3.01,3.01,0,0,1,.618,2.014Zm-1.2-.881a1.606,1.606,0,0,0-.317-1.045,1.059,1.059,0,0,0-.859-.373,1.209,1.209,0,0,0-.91.392,1.791,1.791,0,0,0-.459,1.026ZM38.376-.059a2.159,2.159,0,0,1-.961.183q-1.6,0-1.6-1.536v-3.11H34.9V-5.5h.918V-6.773l1.246-.354V-5.5h1.316v.978H37.061v2.75a1.084,1.084,0,0,0,.177.7.736.736,0,0,0,.591.209.857.857,0,0,0,.548-.183Zm5.3.059H42.464V-.859h-.021a1.82,1.82,0,0,1-1.67.988,1.76,1.76,0,0,1-1.27-.44,1.54,1.54,0,0,1-.459-1.166q0-1.558,1.794-1.815l1.633-.231q0-1.176-1.117-1.176a2.654,2.654,0,0,0-1.772.677v-1.09a3.865,3.865,0,0,1,2.009-.516,1.828,1.828,0,0,1,2.084,2.052Zm-1.2-2.7-1.155.161a1.83,1.83,0,0,0-.808.26.761.761,0,0,0-.271.669.732.732,0,0,0,.25.572.967.967,0,0,0,.669.223,1.234,1.234,0,0,0,.943-.4,1.419,1.419,0,0,0,.373-1.007Zm3.352-3.953a.749.749,0,0,1-.524-.2.654.654,0,0,1-.218-.5.671.671,0,0,1,.218-.51.738.738,0,0,1,.524-.2.761.761,0,0,1,.537.2.667.667,0,0,1,.22.51.658.658,0,0,1-.22.5A.756.756,0,0,1,45.821-6.655ZM46.438,0H45.192V-5.5h1.246Zm2.879,0H48.066V-8.143h1.251ZM50.6-.172V-1.327a2.486,2.486,0,0,0,1.542.532q1.128,0,1.128-.666a.525.525,0,0,0-.1-.32.923.923,0,0,0-.26-.234,2.048,2.048,0,0,0-.387-.183l-.5-.183a5.26,5.26,0,0,1-.61-.285,1.842,1.842,0,0,1-.451-.341,1.287,1.287,0,0,1-.271-.432A1.592,1.592,0,0,1,50.6-4a1.3,1.3,0,0,1,.188-.7,1.634,1.634,0,0,1,.5-.51,2.421,2.421,0,0,1,.72-.312,3.3,3.3,0,0,1,.833-.1A3.785,3.785,0,0,1,54.21-5.4v1.09a2.3,2.3,0,0,0-1.332-.4,1.74,1.74,0,0,0-.427.048,1.1,1.1,0,0,0-.325.134.661.661,0,0,0-.209.207.493.493,0,0,0-.075.266.568.568,0,0,0,.075.3.683.683,0,0,0,.223.218,1.925,1.925,0,0,0,.354.172q.207.078.475.169a6.945,6.945,0,0,1,.636.3,2.151,2.151,0,0,1,.481.341,1.337,1.337,0,0,1,.306.44,1.5,1.5,0,0,1,.107.594,1.357,1.357,0,0,1-.193.73,1.612,1.612,0,0,1-.516.516,2.414,2.414,0,0,1-.744.3,3.865,3.865,0,0,1-.889.1A3.745,3.745,0,0,1,50.6-.172ZM0,1H54.871V2H0Z" transform="translate(263 229)" fill="#2777d3"/>
    <path id="Path_101279" data-name="Path 101279" d="M5.274,0H.951V-7.7H5.1v1.085H2.229v2.181H4.877v1.08H2.229V-1.08H5.274ZM11.5,0H10.259V-.935h-.021A1.988,1.988,0,0,1,8.384.129,2,2,0,0,1,6.76-.61a3.066,3.066,0,0,1-.61-2.011,3.34,3.34,0,0,1,.674-2.186,2.206,2.206,0,0,1,1.8-.822,1.72,1.72,0,0,1,1.617.892h.021V-8.143H11.5Zm-1.23-2.514v-.72a1.4,1.4,0,0,0-.381-.994,1.272,1.272,0,0,0-.972-.408,1.309,1.309,0,0,0-1.1.521,2.322,2.322,0,0,0-.4,1.445,2.08,2.08,0,0,0,.384,1.324,1.249,1.249,0,0,0,1.034.486,1.293,1.293,0,0,0,1.037-.47A1.771,1.771,0,0,0,10.275-2.514Zm3.486-4.141a.749.749,0,0,1-.524-.2.654.654,0,0,1-.218-.5.671.671,0,0,1,.218-.51.738.738,0,0,1,.524-.2.761.761,0,0,1,.537.2.667.667,0,0,1,.22.51.658.658,0,0,1-.22.5A.756.756,0,0,1,13.761-6.655ZM14.378,0H13.132V-5.5h1.246Zm4.528-.059a2.16,2.16,0,0,1-.961.183q-1.6,0-1.6-1.536v-3.11h-.918V-5.5h.918V-6.773l1.246-.354V-5.5h1.316v.978H17.59v2.75a1.084,1.084,0,0,0,.177.7.736.736,0,0,0,.591.209.857.857,0,0,0,.548-.183ZM28,0H26.759V-.935h-.021A1.988,1.988,0,0,1,24.884.129,2,2,0,0,1,23.26-.61a3.066,3.066,0,0,1-.61-2.011,3.34,3.34,0,0,1,.674-2.186,2.206,2.206,0,0,1,1.8-.822,1.72,1.72,0,0,1,1.617.892h.021V-8.143H28Zm-1.23-2.514v-.72a1.4,1.4,0,0,0-.381-.994,1.272,1.272,0,0,0-.972-.408,1.309,1.309,0,0,0-1.1.521,2.322,2.322,0,0,0-.4,1.445,2.08,2.08,0,0,0,.384,1.324,1.249,1.249,0,0,0,1.034.486,1.293,1.293,0,0,0,1.037-.47A1.771,1.771,0,0,0,26.775-2.514Zm7.514.1H30.54a1.585,1.585,0,0,0,.47,1.176,1.749,1.749,0,0,0,1.233.414,2.718,2.718,0,0,0,1.617-.526v1a3.694,3.694,0,0,1-1.987.473,2.46,2.46,0,0,1-1.9-.749,3,3,0,0,1-.69-2.108,2.931,2.931,0,0,1,.76-2.092,2.486,2.486,0,0,1,1.888-.808,2.168,2.168,0,0,1,1.746.725,3.01,3.01,0,0,1,.618,2.014Zm-1.2-.881a1.606,1.606,0,0,0-.317-1.045,1.059,1.059,0,0,0-.859-.373,1.209,1.209,0,0,0-.91.392,1.791,1.791,0,0,0-.459,1.026ZM38.376-.059a2.159,2.159,0,0,1-.961.183q-1.6,0-1.6-1.536v-3.11H34.9V-5.5h.918V-6.773l1.246-.354V-5.5h1.316v.978H37.061v2.75a1.084,1.084,0,0,0,.177.7.736.736,0,0,0,.591.209.857.857,0,0,0,.548-.183Zm5.3.059H42.464V-.859h-.021a1.82,1.82,0,0,1-1.67.988,1.76,1.76,0,0,1-1.27-.44,1.54,1.54,0,0,1-.459-1.166q0-1.558,1.794-1.815l1.633-.231q0-1.176-1.117-1.176a2.654,2.654,0,0,0-1.772.677v-1.09a3.865,3.865,0,0,1,2.009-.516,1.828,1.828,0,0,1,2.084,2.052Zm-1.2-2.7-1.155.161a1.83,1.83,0,0,0-.808.26.761.761,0,0,0-.271.669.732.732,0,0,0,.25.572.967.967,0,0,0,.669.223,1.234,1.234,0,0,0,.943-.4,1.419,1.419,0,0,0,.373-1.007Zm3.352-3.953a.749.749,0,0,1-.524-.2.654.654,0,0,1-.218-.5.671.671,0,0,1,.218-.51.738.738,0,0,1,.524-.2.761.761,0,0,1,.537.2.667.667,0,0,1,.22.51.658.658,0,0,1-.22.5A.756.756,0,0,1,45.821-6.655ZM46.438,0H45.192V-5.5h1.246Zm2.879,0H48.066V-8.143h1.251ZM50.6-.172V-1.327a2.486,2.486,0,0,0,1.542.532q1.128,0,1.128-.666a.525.525,0,0,0-.1-.32.923.923,0,0,0-.26-.234,2.048,2.048,0,0,0-.387-.183l-.5-.183a5.26,5.26,0,0,1-.61-.285,1.842,1.842,0,0,1-.451-.341,1.287,1.287,0,0,1-.271-.432A1.592,1.592,0,0,1,50.6-4a1.3,1.3,0,0,1,.188-.7,1.634,1.634,0,0,1,.5-.51,2.421,2.421,0,0,1,.72-.312,3.3,3.3,0,0,1,.833-.1A3.785,3.785,0,0,1,54.21-5.4v1.09a2.3,2.3,0,0,0-1.332-.4,1.74,1.74,0,0,0-.427.048,1.1,1.1,0,0,0-.325.134.661.661,0,0,0-.209.207.493.493,0,0,0-.075.266.568.568,0,0,0,.075.3.683.683,0,0,0,.223.218,1.925,1.925,0,0,0,.354.172q.207.078.475.169a6.945,6.945,0,0,1,.636.3,2.151,2.151,0,0,1,.481.341,1.337,1.337,0,0,1,.306.44,1.5,1.5,0,0,1,.107.594,1.357,1.357,0,0,1-.193.73,1.612,1.612,0,0,1-.516.516,2.414,2.414,0,0,1-.744.3,3.865,3.865,0,0,1-.889.1A3.745,3.745,0,0,1,50.6-.172ZM0,1H54.871V2H0Z" transform="translate(263 266)" fill="#2777d3"/>
    <g id="indicator-success" transform="translate(343 114)">
      <g id="indicator-success-2" data-name="indicator-success" transform="translate(-8 -8)">
        <g id="Group_264167" data-name="Group 264167">
          <path id="Path_101182" data-name="Path 101182" d="M6.4,10.9a.5.5,0,0,0,.7,0l.7-.7h0l4.1-4.1a.494.494,0,0,0,.1-.3L11.2,5h-.3L6.8,9.1H6.7L5.2,7.5H4.8L4,8.3c-.1.1,0,.2.1.3l1.6,1.6h0Z" fill="#5ea732"/>
          <path id="Path_101183" data-name="Path 101183" d="M8,0a8,8,0,1,0,8,8A8,8,0,0,0,8,0ZM8,14.6A6.6,6.6,0,1,1,14.6,8,6.6,6.6,0,0,1,8,14.6Z" fill="#5ea732"/>
        </g>
        <rect id="Rectangle_9777" data-name="Rectangle 9777" width="16" height="16" fill="none"/>
      </g>
    </g>
    <g id="indicator-success-3" data-name="indicator-success" transform="translate(343 152)">
      <g id="indicator-success-4" data-name="indicator-success" transform="translate(-8 -8)">
        <g id="Group_264174" data-name="Group 264174">
          <path id="Path_101190" data-name="Path 101190" d="M6.4,10.9a.5.5,0,0,0,.7,0l.7-.7h0l4.1-4.1a.494.494,0,0,0,.1-.3L11.2,5h-.3L6.8,9.1H6.7L5.2,7.5H4.8L4,8.3c-.1.1,0,.2.1.3l1.6,1.6h0Z" fill="#5ea732"/>
          <path id="Path_101191" data-name="Path 101191" d="M8,0a8,8,0,1,0,8,8A8,8,0,0,0,8,0ZM8,14.6A6.6,6.6,0,1,1,14.6,8,6.6,6.6,0,0,1,8,14.6Z" fill="#5ea732"/>
        </g>
        <rect id="Rectangle_9781" data-name="Rectangle 9781" width="16" height="16" fill="none"/>
      </g>
    </g>
    <g id="indicator-success-5" data-name="indicator-success" transform="translate(343 189)">
      <g id="indicator-success-6" data-name="indicator-success" transform="translate(-8 -8)">
        <g id="Group_264182" data-name="Group 264182">
          <path id="Path_101204" data-name="Path 101204" d="M6.4,10.9a.5.5,0,0,0,.7,0l.7-.7h0l4.1-4.1a.494.494,0,0,0,.1-.3L11.2,5h-.3L6.8,9.1H6.7L5.2,7.5H4.8L4,8.3c-.1.1,0,.2.1.3l1.6,1.6h0Z" fill="#5ea732"/>
          <path id="Path_101205" data-name="Path 101205" d="M8,0a8,8,0,1,0,8,8A8,8,0,0,0,8,0ZM8,14.6A6.6,6.6,0,1,1,14.6,8,6.6,6.6,0,0,1,8,14.6Z" fill="#5ea732"/>
        </g>
        <rect id="Rectangle_9786" data-name="Rectangle 9786" width="16" height="16" fill="none"/>
      </g>
    </g>
    <g id="indicator-success-7" data-name="indicator-success" transform="translate(343 263)">
      <g id="indicator-success-8" data-name="indicator-success" transform="translate(-8 -8)">
        <g id="Group_264194" data-name="Group 264194">
          <path id="Path_101228" data-name="Path 101228" d="M6.4,10.9a.5.5,0,0,0,.7,0l.7-.7h0l4.1-4.1a.494.494,0,0,0,.1-.3L11.2,5h-.3L6.8,9.1H6.7L5.2,7.5H4.8L4,8.3c-.1.1,0,.2.1.3l1.6,1.6h0Z" fill="#5ea732"/>
          <path id="Path_101229" data-name="Path 101229" d="M8,0a8,8,0,1,0,8,8A8,8,0,0,0,8,0ZM8,14.6A6.6,6.6,0,1,1,14.6,8,6.6,6.6,0,0,1,8,14.6Z" fill="#5ea732"/>
        </g>
        <rect id="Rectangle_9794" data-name="Rectangle 9794" width="16" height="16" fill="none"/>
      </g>
    </g>
    <line id="Line_5" data-name="Line 5" x2="342" transform="translate(29.5 130.5)" fill="none" stroke="#e6e6ea" stroke-width="1"/>
    <line id="Line_6" data-name="Line 6" x2="342" transform="translate(29.5 168.5)" fill="none" stroke="#e6e6ea" stroke-width="1"/>
    <line id="Line_7" data-name="Line 7" x2="342" transform="translate(29.5 205.5)" fill="none" stroke="#e6e6ea" stroke-width="1"/>
    <line id="Line_8" data-name="Line 8" x2="342" transform="translate(29.5 242.5)" fill="none" stroke="#e6e6ea" stroke-width="1"/>
    <rect id="Rectangle_9770" data-name="Rectangle 9770" width="5" height="88" rx="2.5" transform="translate(361 98)" fill="#78788c"/>
    <line id="Line_9" data-name="Line 9" x2="342" transform="translate(29.5 279.5)" fill="none" stroke="#e6e6ea" stroke-width="1"/>
    <g id="PDF" transform="translate(47 150.002)">
      <g id="PDF-2" data-name="PDF" transform="translate(-8 -8.002)">
        <g id="Group_264157" data-name="Group 264157">
          <path id="Path_101166" data-name="Path 101166" d="M14.3,2.7,11.7.1H2.3a.7.7,0,0,0-.7.7v15A.4.4,0,0,0,2,16H14a.4.4,0,0,0,.4-.4V2.9ZM11.6,1.6l1.2,1.2H11.6Zm1.6,13.2H2.8V1.2h7.6V4h2.8Z" fill="#2f2f2f"/>
          <path id="Path_101167" data-name="Path 101167" d="M5,7.2H4v3.2h.7V9.3H5A1.4,1.4,0,0,0,5.9,9a1,1,0,0,0,.3-.8.9.9,0,0,0-.3-.8A1.4,1.4,0,0,0,5,7.2Zm.3,1.4H4.7v-1h.7a.4.4,0,0,1,.1.4.4.4,0,0,1-.1.6Z" fill="#2f2f2f"/>
          <path id="Path_101168" data-name="Path 101168" d="M7.8,7.2h-1v3.2h.9A1.8,1.8,0,0,0,9,10a1.6,1.6,0,0,0,.5-1.2,1.5,1.5,0,0,0-.4-1.2,1.7,1.7,0,0,0-1.3-.4Zm0,2.7H7.5V7.8h.4q.9,0,.9,1A.99.99,0,0,1,7.8,9.9Z" fill="#2f2f2f"/>
          <path id="Path_101169" data-name="Path 101169" d="M10.2,10.4h.6V9.1h1.1V8.6H10.8V7.8H12V7.2H10.2Z" fill="#2f2f2f"/>
        </g>
        <rect id="Rectangle_9772" data-name="Rectangle 9772" width="16" height="16" fill="none"/>
      </g>
    </g>
    <g id="video-horizontal" transform="translate(47 226)">
      <g id="Group_264164" data-name="Group 264164" transform="translate(-8 -8)">
        <rect id="Rectangle_9775" data-name="Rectangle 9775" width="16" height="16" transform="translate(0)" fill="none"/>
        <g id="Group_264163" data-name="Group 264163" transform="translate(0)">
          <path id="Path_101178" data-name="Path 101178" d="M14.7,2.9V13.1H1.3V2.9H14.7m1-1.3H.3a.3.3,0,0,0-.3.3V14.1a.3.3,0,0,0,.3.3H15.7a.3.3,0,0,0,.3-.3V1.9a.3.3,0,0,0-.3-.3Z" fill="#2f2f2f"/>
          <path id="Path_101179" data-name="Path 101179" d="M6.5,4.6,11,7.4a.5.5,0,0,1,0,.9L6.4,10.8a.5.5,0,0,1-.7-.4V5a.5.5,0,0,1,.8-.4Z" fill="#2f2f2f"/>
        </g>
      </g>
    </g>
    <g id="mp4" transform="translate(47 188)">
      <g id="Group_264162" data-name="Group 264162" transform="translate(-8 -8.002)">
        <g id="Group_264160" data-name="Group 264160">
          <path id="Path_101174" data-name="Path 101174" d="M14.3,2.7,11.7.1H2.3a.7.7,0,0,0-.7.7v15A.4.4,0,0,0,2,16H14a.4.4,0,0,0,.4-.4V2.9ZM11.6,1.6l1.2,1.2H11.6Zm1.6,13.2H2.8V1.2h7.6V4h2.8Z" fill="#2f2f2f"/>
          <rect id="Rectangle_9774" data-name="Rectangle 9774" width="16" height="16" fill="none"/>
        </g>
        <g id="Group_264161" data-name="Group 264161">
          <path id="Path_101175" data-name="Path 101175" d="M6.9,10.5H6.2V7.9h0v.4l-.7,2.1H4.8l-.7-2V7.9H4v2.5H3.4v-3h1L5,9.2v.5H5V9.2l.6-1.9h1Z" fill="#2f2f2f"/>
          <path id="Path_101176" data-name="Path 101176" d="M8.4,9.4v1.1H7.7V7.4H8.8q1.2,0,1.2,1a1,1,0,0,1-.3.8,1.4,1.4,0,0,1-.9.3Zm0-1.5v1h.3c.4,0,.6-.2.6-.5s-.2-.5-.6-.5Z" fill="#2f2f2f"/>
          <path id="Path_101177" data-name="Path 101177" d="M12.2,7.4v2h.4v.5h-.4v.6h-.6V9.9H10.1V9.3l.4-.4.4-.5.3-.5.3-.5Zm-1.4,2h.8V8.2l-.2.3-.2.3-.2.3Z" fill="#2f2f2f"/>
        </g>
      </g>
    </g>
    <g id="indicator-failure" transform="translate(343 226)">
      <g id="indicator-failure-2" data-name="indicator-failure" transform="translate(-8 -8)">
        <path id="Path_101246" data-name="Path 101246" d="M8,0a8,8,0,1,0,8,8A8,8,0,0,0,8,0ZM8,14.6A6.6,6.6,0,1,1,14.6,8,6.6,6.6,0,0,1,8,14.6Z" fill="#cc251b"/>
        <rect id="Rectangle_9801" data-name="Rectangle 9801" width="16" height="16" fill="none"/>
        <path id="Path_101247" data-name="Path 101247" d="M11.1,10.2,9,8.1H9L11.1,6c.1-.1.2-.2.1-.3l-.6-.6h-.3L8.1,7H7.9L5.8,4.9H5.5l-.6.6c-.1.1,0,.2.1.3L7,7.9H7L4.9,10.2c-.1.1-.2.2-.1.3l.6.6h.3L7.9,9h.3l2.1,2.1h.3l.6-.6A.494.494,0,0,0,11.1,10.2Z" fill="#cc251b"/>
      </g>
    </g>
    <g id="Card-8" data-name="Card" transform="translate(29 226)" style="isolation: isolate">
      <rect id="Card-9" data-name="Card" width="342" height="62" rx="2" transform="translate(0 0)" fill="url(#linear-gradient)"/>
    </g>
  </g>
</svg>
