<svg xmlns="http://www.w3.org/2000/svg" xmlns:xlink="http://www.w3.org/1999/xlink" width="800" height="300" viewBox="0 0 800 300">
  <defs>
    <filter id="Rectangle_3801" x="21.5" y="68.5" width="759" height="212" filterUnits="userSpaceOnUse">
      <feOffset dy="1" input="SourceAlpha"/>
      <feGaussianBlur stdDeviation="1.5" result="blur"/>
      <feFlood flood-opacity="0.161"/>
      <feComposite operator="in" in2="blur"/>
      <feComposite in="SourceGraphic"/>
    </filter>
    <clipPath id="clip-path">
      <rect width="750" height="147" fill="none"/>
    </clipPath>
    <clipPath id="clip-Table_icon_button">
      <rect width="800" height="300"/>
    </clipPath>
  </defs>
  <g id="Table_icon_button" clip-path="url(#clip-Table_icon_button)">
    <rect width="800" height="300" fill="#f4f4f6"/>
    <g id="Table" transform="translate(26 72)">
      <g transform="matrix(1, 0, 0, 1, -26, -72)" filter="url(#Rectangle_3801)">
        <rect id="Rectangle_3801-2" data-name="Rectangle 3801" width="750" height="203" rx="2" transform="translate(26 72)" fill="#fff"/>
      </g>
      <path id="Rectangle_3802" data-name="Rectangle 3802" d="M2,0H748a2,2,0,0,1,2,2V56a0,0,0,0,1,0,0H0a0,0,0,0,1,0,0V2A2,2,0,0,1,2,0Z" fill="#f9f9fa"/>
      <path id="Path_101131" data-name="Path 101131" d="M6.638,0H1.21V-9.8H2.837v8.429h3.8ZM8.675-8.47a.953.953,0,0,1-.667-.253.832.832,0,0,1-.277-.643.854.854,0,0,1,.277-.649.939.939,0,0,1,.667-.26.969.969,0,0,1,.684.26.849.849,0,0,1,.28.649.837.837,0,0,1-.28.632A.962.962,0,0,1,8.675-8.47ZM9.461,0H7.875V-7H9.461Zm1.634-.219v-1.47a3.164,3.164,0,0,0,1.962.677q1.436,0,1.436-.848a.668.668,0,0,0-.123-.407,1.175,1.175,0,0,0-.332-.3,2.607,2.607,0,0,0-.492-.232q-.284-.1-.632-.232a6.694,6.694,0,0,1-.776-.362,2.344,2.344,0,0,1-.574-.434,1.639,1.639,0,0,1-.345-.55,2.026,2.026,0,0,1-.116-.718,1.659,1.659,0,0,1,.239-.892,2.079,2.079,0,0,1,.643-.649,3.081,3.081,0,0,1,.916-.4,4.194,4.194,0,0,1,1.06-.133A4.817,4.817,0,0,1,15.7-6.87v1.388A2.927,2.927,0,0,0,14-5.988a2.214,2.214,0,0,0-.543.062,1.4,1.4,0,0,0-.414.171.841.841,0,0,0-.267.263.628.628,0,0,0-.1.338.723.723,0,0,0,.1.383.869.869,0,0,0,.284.277,2.45,2.45,0,0,0,.451.219q.263.1.6.215a8.839,8.839,0,0,1,.81.376,2.737,2.737,0,0,1,.612.434,1.7,1.7,0,0,1,.39.561,1.9,1.9,0,0,1,.137.755,1.727,1.727,0,0,1-.246.93,2.051,2.051,0,0,1-.656.656,3.072,3.072,0,0,1-.947.386,4.918,4.918,0,0,1-1.131.126A4.767,4.767,0,0,1,11.095-.219ZM21.26-.075a2.748,2.748,0,0,1-1.224.232Q18,.157,18-1.8V-5.756H16.83V-7H18V-8.62l1.586-.451V-7H21.26v1.244H19.585v3.5a1.379,1.379,0,0,0,.226.889.936.936,0,0,0,.752.267,1.09,1.09,0,0,0,.7-.232Z" transform="translate(20 34)" fill="#3d3d3d"/>
      <path id="Path_101132" data-name="Path 101132" d="M1.21,0V-9.8H4.04q5.421,0,5.421,4.778a4.709,4.709,0,0,1-1.5,3.647A5.74,5.74,0,0,1,3.924,0ZM2.83-8.422v7.048h1.3A3.632,3.632,0,0,0,6.8-2.317a3.583,3.583,0,0,0,.954-2.666q0-3.438-3.562-3.438ZM16.447,0H14.909V-1.094h-.027A2.316,2.316,0,0,1,12.756.164,2.239,2.239,0,0,1,11.139-.4a1.961,1.961,0,0,1-.584-1.483q0-1.982,2.283-2.311l2.078-.294q0-1.5-1.422-1.5a3.378,3.378,0,0,0-2.256.861V-6.508a4.919,4.919,0,0,1,2.557-.656,2.326,2.326,0,0,1,2.652,2.611ZM14.916-3.438l-1.47.205a2.33,2.33,0,0,0-1.029.332.969.969,0,0,0-.345.851.932.932,0,0,0,.318.728,1.231,1.231,0,0,0,.851.284,1.57,1.57,0,0,0,1.2-.509,1.806,1.806,0,0,0,.475-1.282ZM22.073-.075A2.748,2.748,0,0,1,20.85.157q-2.037,0-2.037-1.955V-5.756H17.644V-7h1.169V-8.62L20.4-9.071V-7h1.675v1.244H20.4v3.5a1.379,1.379,0,0,0,.226.889.936.936,0,0,0,.752.267,1.09,1.09,0,0,0,.7-.232Zm7.212-2.994H24.514a2.017,2.017,0,0,0,.6,1.5,2.225,2.225,0,0,0,1.569.526,3.459,3.459,0,0,0,2.058-.67V-.437a4.7,4.7,0,0,1-2.529.6A3.131,3.131,0,0,1,23.786-.79a3.814,3.814,0,0,1-.878-2.683,3.73,3.73,0,0,1,.967-2.663,3.164,3.164,0,0,1,2.4-1.029,2.759,2.759,0,0,1,2.222.923,3.832,3.832,0,0,1,.786,2.563ZM27.754-4.19a2.044,2.044,0,0,0-.4-1.33A1.348,1.348,0,0,0,26.257-6a1.539,1.539,0,0,0-1.159.5,2.28,2.28,0,0,0-.584,1.306ZM40.571-3.069H35.8a2.017,2.017,0,0,0,.6,1.5,2.225,2.225,0,0,0,1.569.526,3.459,3.459,0,0,0,2.058-.67V-.437a4.7,4.7,0,0,1-2.529.6A3.131,3.131,0,0,1,35.072-.79a3.814,3.814,0,0,1-.878-2.683,3.73,3.73,0,0,1,.967-2.663,3.164,3.164,0,0,1,2.4-1.029,2.759,2.759,0,0,1,2.222.923,3.832,3.832,0,0,1,.786,2.563ZM39.04-4.19a2.044,2.044,0,0,0-.4-1.33A1.348,1.348,0,0,0,37.543-6a1.539,1.539,0,0,0-1.159.5A2.28,2.28,0,0,0,35.8-4.19ZM48.446,0H46.86V-1.189h-.027A2.53,2.53,0,0,1,44.475.164a2.546,2.546,0,0,1-2.068-.94,3.9,3.9,0,0,1-.776-2.56,4.251,4.251,0,0,1,.858-2.782,2.808,2.808,0,0,1,2.287-1.046,2.19,2.19,0,0,1,2.058,1.135h.027v-4.334h1.586ZM46.881-3.2v-.916A1.785,1.785,0,0,0,46.4-5.38a1.619,1.619,0,0,0-1.237-.52,1.666,1.666,0,0,0-1.4.663A2.955,2.955,0,0,0,43.251-3.4a2.648,2.648,0,0,0,.489,1.685,1.59,1.59,0,0,0,1.316.619,1.646,1.646,0,0,0,1.319-.6A2.253,2.253,0,0,0,46.881-3.2ZM51.317-8.47a.953.953,0,0,1-.667-.253.832.832,0,0,1-.277-.643.854.854,0,0,1,.277-.649.939.939,0,0,1,.667-.26.969.969,0,0,1,.684.26.849.849,0,0,1,.28.649.837.837,0,0,1-.28.632A.962.962,0,0,1,51.317-8.47ZM52.1,0H50.518V-7H52.1Zm5.763-.075a2.748,2.748,0,0,1-1.224.232q-2.037,0-2.037-1.955V-5.756H53.437V-7h1.169V-8.62l1.586-.451V-7h1.675v1.244H56.191v3.5a1.379,1.379,0,0,0,.226.889.936.936,0,0,0,.752.267,1.09,1.09,0,0,0,.7-.232Zm7.212-2.994H60.307a2.017,2.017,0,0,0,.6,1.5,2.225,2.225,0,0,0,1.569.526,3.459,3.459,0,0,0,2.058-.67V-.437A4.7,4.7,0,0,1,62,.164,3.131,3.131,0,0,1,59.579-.79,3.814,3.814,0,0,1,58.7-3.473a3.73,3.73,0,0,1,.967-2.663,3.164,3.164,0,0,1,2.4-1.029,2.759,2.759,0,0,1,2.222.923,3.832,3.832,0,0,1,.786,2.563ZM63.547-4.19a2.044,2.044,0,0,0-.4-1.33A1.348,1.348,0,0,0,62.05-6a1.539,1.539,0,0,0-1.159.5,2.28,2.28,0,0,0-.584,1.306ZM72.953,0H71.367V-1.189H71.34A2.53,2.53,0,0,1,68.981.164a2.546,2.546,0,0,1-2.068-.94,3.9,3.9,0,0,1-.776-2.56A4.251,4.251,0,0,1,67-6.118a2.808,2.808,0,0,1,2.287-1.046A2.19,2.19,0,0,1,71.34-6.029h.027v-4.334h1.586ZM71.388-3.2v-.916A1.785,1.785,0,0,0,70.9-5.38a1.619,1.619,0,0,0-1.237-.52,1.666,1.666,0,0,0-1.4.663A2.955,2.955,0,0,0,67.758-3.4a2.648,2.648,0,0,0,.489,1.685,1.59,1.59,0,0,0,1.316.619,1.646,1.646,0,0,0,1.319-.6A2.253,2.253,0,0,0,71.388-3.2Z" transform="translate(325 34)" fill="#31313a"/>
      <rect id="Rectangle_3807" data-name="Rectangle 3807" width="1" height="146" transform="translate(304 57)" fill="#cbcbd2"/>
      <rect id="Rectangle_3808" data-name="Rectangle 3808" width="1" height="146" transform="translate(455 57)" fill="#cbcbd2"/>
      <rect id="Rectangle_9756" data-name="Rectangle 9756" width="1" height="146" transform="translate(586 57)" fill="#cbcbd2"/>
      <g id="Repeat_Grid_2" data-name="Repeat Grid 2" transform="translate(0 56)" clip-path="url(#clip-path)">
        <g transform="translate(-47 -119)">
          <rect id="Rectangle_3803" data-name="Rectangle 3803" width="750" height="1" transform="translate(47 119)" fill="#cbcbd2"/>
        </g>
        <g transform="translate(-47 -70)">
          <rect id="Rectangle_3803-2" data-name="Rectangle 3803" width="750" height="1" transform="translate(47 119)" fill="#cbcbd2"/>
        </g>
        <g transform="translate(-47 -21)">
          <rect id="Rectangle_3803-3" data-name="Rectangle 3803" width="750" height="1" transform="translate(47 119)" fill="#cbcbd2"/>
        </g>
      </g>
      <path id="Path_101133" data-name="Path 101133" d="M.759-.39V-2.064A2.587,2.587,0,0,0,1.3-1.7a4.146,4.146,0,0,0,.66.277,5.2,5.2,0,0,0,.7.174,3.717,3.717,0,0,0,.643.062,2.742,2.742,0,0,0,1.528-.342,1.124,1.124,0,0,0,.5-.991,1.081,1.081,0,0,0-.167-.6,1.757,1.757,0,0,0-.468-.468A4.92,4.92,0,0,0,3.982-4Q3.575-4.19,3.11-4.4q-.5-.267-.93-.54a4,4,0,0,1-.749-.6,2.531,2.531,0,0,1-.5-.749,2.438,2.438,0,0,1-.181-.978,2.256,2.256,0,0,1,.311-1.2,2.627,2.627,0,0,1,.82-.841,3.761,3.761,0,0,1,1.159-.492,5.5,5.5,0,0,1,1.326-.161,5.353,5.353,0,0,1,2.242.349v1.606a3.581,3.581,0,0,0-2.146-.6,3.846,3.846,0,0,0-.721.068,2.144,2.144,0,0,0-.643.226,1.391,1.391,0,0,0-.461.4.989.989,0,0,0-.178.595,1.125,1.125,0,0,0,.137.567,1.464,1.464,0,0,0,.4.438,4.086,4.086,0,0,0,.643.386q.379.188.878.407.513.267.967.561a4.56,4.56,0,0,1,.8.649,2.854,2.854,0,0,1,.547.79,2.319,2.319,0,0,1,.2.988,2.448,2.448,0,0,1-.3,1.258,2.424,2.424,0,0,1-.81.834A3.608,3.608,0,0,1,4.751.021a6.61,6.61,0,0,1-1.4.144,5.967,5.967,0,0,1-.6-.038Q2.386.089,2.01.017A6.759,6.759,0,0,1,1.3-.157,2.251,2.251,0,0,1,.759-.39Zm11.184.314a2.748,2.748,0,0,1-1.224.232Q8.682.157,8.682-1.8V-5.756H7.513V-7H8.682V-8.62l1.586-.451V-7h1.675v1.244H10.268v3.5a1.379,1.379,0,0,0,.226.889.936.936,0,0,0,.752.267,1.09,1.09,0,0,0,.7-.232ZM18.683,0H17.145V-1.094h-.027A2.316,2.316,0,0,1,14.991.164,2.239,2.239,0,0,1,13.375-.4,1.961,1.961,0,0,1,12.79-1.88q0-1.982,2.283-2.311l2.078-.294q0-1.5-1.422-1.5a3.378,3.378,0,0,0-2.256.861V-6.508a4.919,4.919,0,0,1,2.557-.656,2.326,2.326,0,0,1,2.652,2.611ZM17.151-3.438l-1.47.205a2.33,2.33,0,0,0-1.029.332.969.969,0,0,0-.345.851.932.932,0,0,0,.318.728,1.231,1.231,0,0,0,.851.284,1.57,1.57,0,0,0,1.2-.509,1.806,1.806,0,0,0,.475-1.282ZM24.309-.075a2.748,2.748,0,0,1-1.224.232q-2.037,0-2.037-1.955V-5.756H19.879V-7h1.169V-8.62l1.586-.451V-7h1.675v1.244H22.634v3.5a1.379,1.379,0,0,0,.226.889.936.936,0,0,0,.752.267,1.09,1.09,0,0,0,.7-.232ZM31.78,0H30.194V-1.107h-.027A2.282,2.282,0,0,1,28.021.164q-2.481,0-2.481-2.98V-7h1.586v4.02q0,1.887,1.456,1.887a1.471,1.471,0,0,0,1.159-.52,1.991,1.991,0,0,0,.455-1.36V-7H31.78Zm1.627-.219v-1.47a3.164,3.164,0,0,0,1.962.677q1.436,0,1.436-.848a.668.668,0,0,0-.123-.407,1.175,1.175,0,0,0-.332-.3,2.607,2.607,0,0,0-.492-.232q-.284-.1-.632-.232a6.694,6.694,0,0,1-.776-.362,2.344,2.344,0,0,1-.574-.434,1.639,1.639,0,0,1-.345-.55,2.026,2.026,0,0,1-.116-.718,1.659,1.659,0,0,1,.239-.892,2.079,2.079,0,0,1,.643-.649,3.081,3.081,0,0,1,.916-.4,4.194,4.194,0,0,1,1.06-.133,4.817,4.817,0,0,1,1.736.294v1.388a2.927,2.927,0,0,0-1.7-.506,2.214,2.214,0,0,0-.543.062,1.4,1.4,0,0,0-.414.171.841.841,0,0,0-.267.263.628.628,0,0,0-.1.338.723.723,0,0,0,.1.383.869.869,0,0,0,.284.277,2.45,2.45,0,0,0,.451.219q.263.1.6.215a8.839,8.839,0,0,1,.81.376,2.737,2.737,0,0,1,.612.434,1.7,1.7,0,0,1,.39.561,1.9,1.9,0,0,1,.137.755,1.727,1.727,0,0,1-.246.93,2.051,2.051,0,0,1-.656.656,3.072,3.072,0,0,1-.947.386A4.918,4.918,0,0,1,35.4.164,4.767,4.767,0,0,1,33.407-.219Z" transform="translate(476 36)" fill="#31313a"/>
      <path id="Path_101134" data-name="Path 101134" d="M6.638,0H1.21V-9.8H2.837v8.429h3.8ZM8.675-8.47a.953.953,0,0,1-.667-.253.832.832,0,0,1-.277-.643.854.854,0,0,1,.277-.649.939.939,0,0,1,.667-.26.969.969,0,0,1,.684.26.849.849,0,0,1,.28.649.837.837,0,0,1-.28.632A.962.962,0,0,1,8.675-8.47ZM9.461,0H7.875V-7H9.461Zm1.634-.219v-1.47a3.164,3.164,0,0,0,1.962.677q1.436,0,1.436-.848a.668.668,0,0,0-.123-.407,1.175,1.175,0,0,0-.332-.3,2.607,2.607,0,0,0-.492-.232q-.284-.1-.632-.232a6.694,6.694,0,0,1-.776-.362,2.344,2.344,0,0,1-.574-.434,1.639,1.639,0,0,1-.345-.55,2.026,2.026,0,0,1-.116-.718,1.659,1.659,0,0,1,.239-.892,2.079,2.079,0,0,1,.643-.649,3.081,3.081,0,0,1,.916-.4,4.194,4.194,0,0,1,1.06-.133A4.817,4.817,0,0,1,15.7-6.87v1.388A2.927,2.927,0,0,0,14-5.988a2.214,2.214,0,0,0-.543.062,1.4,1.4,0,0,0-.414.171.841.841,0,0,0-.267.263.628.628,0,0,0-.1.338.723.723,0,0,0,.1.383.869.869,0,0,0,.284.277,2.45,2.45,0,0,0,.451.219q.263.1.6.215a8.839,8.839,0,0,1,.81.376,2.737,2.737,0,0,1,.612.434,1.7,1.7,0,0,1,.39.561,1.9,1.9,0,0,1,.137.755,1.727,1.727,0,0,1-.246.93,2.051,2.051,0,0,1-.656.656,3.072,3.072,0,0,1-.947.386,4.918,4.918,0,0,1-1.131.126A4.767,4.767,0,0,1,11.095-.219ZM21.26-.075a2.748,2.748,0,0,1-1.224.232Q18,.157,18-1.8V-5.756H16.83V-7H18V-8.62l1.586-.451V-7H21.26v1.244H19.585v3.5a1.379,1.379,0,0,0,.226.889.936.936,0,0,0,.752.267,1.09,1.09,0,0,0,.7-.232Zm8.319.239a3.47,3.47,0,0,1-2.587-.981,3.544,3.544,0,0,1-.967-2.6,3.687,3.687,0,0,1,1.008-2.755,3.708,3.708,0,0,1,2.717-.991,3.358,3.358,0,0,1,2.557.964,3.723,3.723,0,0,1,.916,2.673,3.669,3.669,0,0,1-.988,2.683A3.548,3.548,0,0,1,29.579.164ZM29.654-5.9a1.81,1.81,0,0,0-1.47.649,2.719,2.719,0,0,0-.54,1.791,2.561,2.561,0,0,0,.547,1.733,1.837,1.837,0,0,0,1.463.632,1.743,1.743,0,0,0,1.439-.622,2.754,2.754,0,0,0,.5-1.771,2.8,2.8,0,0,0-.5-1.784A1.734,1.734,0,0,0,29.654-5.9ZM44.249-7,42.185,0H40.523L39.252-4.744a3,3,0,0,1-.1-.615h-.027a2.8,2.8,0,0,1-.123.6L37.625,0H36L33.94-7h1.641l1.271,5.045a2.989,2.989,0,0,1,.082.6h.048a3.249,3.249,0,0,1,.109-.615L38.507-7H40l1.258,5.065a3.543,3.543,0,0,1,.089.6h.048a3.19,3.19,0,0,1,.1-.6L42.738-7Zm7.41,7H50.073V-3.944q0-1.962-1.388-1.962a1.515,1.515,0,0,0-1.2.543,2.016,2.016,0,0,0-.472,1.371V0H45.425V-7h1.593v1.162h.027a2.5,2.5,0,0,1,2.27-1.326,2.114,2.114,0,0,1,1.743.742,3.33,3.33,0,0,1,.6,2.143Zm7.861-3.069H54.749a2.017,2.017,0,0,0,.6,1.5,2.225,2.225,0,0,0,1.569.526,3.459,3.459,0,0,0,2.058-.67V-.437a4.7,4.7,0,0,1-2.529.6A3.131,3.131,0,0,1,54.021-.79a3.814,3.814,0,0,1-.878-2.683,3.73,3.73,0,0,1,.967-2.663,3.164,3.164,0,0,1,2.4-1.029,2.759,2.759,0,0,1,2.222.923,3.832,3.832,0,0,1,.786,2.563ZM57.989-4.19a2.044,2.044,0,0,0-.4-1.33A1.348,1.348,0,0,0,56.492-6a1.539,1.539,0,0,0-1.159.5,2.28,2.28,0,0,0-.584,1.306Zm7.1-1.3a1.315,1.315,0,0,0-.827-.226,1.416,1.416,0,0,0-1.176.636,2.843,2.843,0,0,0-.472,1.729V0H61.031V-7h1.586v1.442h.027a2.439,2.439,0,0,1,.714-1.152,1.612,1.612,0,0,1,1.077-.414,1.337,1.337,0,0,1,.656.13Z" transform="translate(607 36)" fill="#31313a"/>
      <path id="Path_101135" data-name="Path 101135" d="M8.613-.67A6.555,6.555,0,0,1,5.332.164,4.484,4.484,0,0,1,1.938-1.189a4.964,4.964,0,0,1-1.3-3.582A5.1,5.1,0,0,1,2.082-8.507,4.905,4.905,0,0,1,5.729-9.967a6.206,6.206,0,0,1,2.687.52v1.271A5.159,5.159,0,0,0,5.6-8.928,3.519,3.519,0,0,0,2.9-7.793,4.15,4.15,0,0,0,1.846-4.854a4.153,4.153,0,0,0,.978,2.922A3.426,3.426,0,0,0,5.476-.868a4.1,4.1,0,0,0,1.989-.458V-4.074H5.318V-5.113H8.613Zm7.752-2.55H11.423a2.618,2.618,0,0,0,.629,1.8,2.168,2.168,0,0,0,1.654.636,3.439,3.439,0,0,0,2.174-.779V-.506a4.063,4.063,0,0,1-2.44.67A2.959,2.959,0,0,1,11.108-.79a3.9,3.9,0,0,1-.848-2.683,3.828,3.828,0,0,1,.926-2.663,2.97,2.97,0,0,1,2.3-1.029,2.632,2.632,0,0,1,2.126.889,3.705,3.705,0,0,1,.752,2.468Zm-1.148-.95a2.281,2.281,0,0,0-.468-1.511,1.6,1.6,0,0,0-1.282-.54,1.811,1.811,0,0,0-1.347.567,2.575,2.575,0,0,0-.684,1.483ZM20.986.164a3.247,3.247,0,0,1-2.478-.981,3.633,3.633,0,0,1-.926-2.6,3.785,3.785,0,0,1,.964-2.755,3.465,3.465,0,0,1,2.6-.991,3.14,3.14,0,0,1,2.444.964,3.822,3.822,0,0,1,.878,2.673,3.761,3.761,0,0,1-.947,2.683A3.317,3.317,0,0,1,20.986.164Zm.082-6.385a2.132,2.132,0,0,0-1.709.735,3.018,3.018,0,0,0-.629,2.027A2.854,2.854,0,0,0,19.366-1.5a2.161,2.161,0,0,0,1.7.718,2.049,2.049,0,0,0,1.671-.7,3.055,3.055,0,0,0,.584-2A3.108,3.108,0,0,0,22.74-5.51,2.04,2.04,0,0,0,21.068-6.221Zm8.846.355a1.371,1.371,0,0,0-.848-.226,1.431,1.431,0,0,0-1.2.677,3.129,3.129,0,0,0-.482,1.846V0H26.264V-7h1.121v1.442h.027a2.444,2.444,0,0,1,.731-1.152,1.668,1.668,0,0,1,1.1-.414,1.83,1.83,0,0,1,.67.1Zm7.191,5.3q0,3.855-3.691,3.855a4.956,4.956,0,0,1-2.27-.492V1.682a4.661,4.661,0,0,0,2.256.656q2.584,0,2.584-2.748v-.766h-.027A2.622,2.622,0,0,1,33.551.164a2.628,2.628,0,0,1-2.1-.933,3.73,3.73,0,0,1-.8-2.505,4.358,4.358,0,0,1,.858-2.837,2.866,2.866,0,0,1,2.348-1.053,2.282,2.282,0,0,1,2.1,1.135h.027V-7h1.121Zm-1.121-2.6V-4.2a2,2,0,0,0-.564-1.429,1.857,1.857,0,0,0-1.4-.595,1.947,1.947,0,0,0-1.627.755A3.372,3.372,0,0,0,31.8-3.35a2.894,2.894,0,0,0,.564,1.87,1.822,1.822,0,0,0,1.494.7,1.951,1.951,0,0,0,1.535-.67A2.5,2.5,0,0,0,35.984-3.165Zm3.965-5.612a.71.71,0,0,1-.513-.205.692.692,0,0,1-.212-.52.7.7,0,0,1,.212-.523.7.7,0,0,1,.513-.208.724.724,0,0,1,.523.208.7.7,0,0,1,.215.523.693.693,0,0,1-.215.513A.718.718,0,0,1,39.949-8.777ZM40.5,0H39.375V-7H40.5Zm7.28,0H46.655V-1.094h-.027A2.347,2.347,0,0,1,44.475.164,2.3,2.3,0,0,1,42.837-.39a1.918,1.918,0,0,1-.591-1.47q0-1.962,2.311-2.283l2.1-.294q0-1.784-1.442-1.784a3.446,3.446,0,0,0-2.283.861V-6.508a4.338,4.338,0,0,1,2.379-.656q2.468,0,2.468,2.611ZM46.655-3.541l-1.688.232a2.741,2.741,0,0,0-1.176.386,1.114,1.114,0,0,0-.4.981,1.068,1.068,0,0,0,.366.837,1.413,1.413,0,0,0,.974.325,1.8,1.8,0,0,0,1.377-.584,2.088,2.088,0,0,0,.543-1.48ZM60.546-.41a5.749,5.749,0,0,1-2.707.574,4.366,4.366,0,0,1-3.35-1.347,4.969,4.969,0,0,1-1.258-3.534,5.208,5.208,0,0,1,1.415-3.8,4.8,4.8,0,0,1,3.589-1.449,5.754,5.754,0,0,1,2.311.4V-8.34a4.686,4.686,0,0,0-2.324-.588A3.566,3.566,0,0,0,55.484-7.8a4.249,4.249,0,0,0-1.049,3.015,4.043,4.043,0,0,0,.981,2.854A3.338,3.338,0,0,0,57.989-.868a4.828,4.828,0,0,0,2.557-.656ZM63.513,0H62.392V-10.363h1.121Zm2.844-8.777a.71.71,0,0,1-.513-.205.692.692,0,0,1-.212-.52.7.7,0,0,1,.212-.523.7.7,0,0,1,.513-.208.724.724,0,0,1,.523.208.7.7,0,0,1,.215.523.693.693,0,0,1-.215.513A.718.718,0,0,1,66.356-8.777ZM66.9,0H65.782V-7H66.9Zm7.9-3.22H69.856a2.618,2.618,0,0,0,.629,1.8,2.168,2.168,0,0,0,1.654.636,3.439,3.439,0,0,0,2.174-.779V-.506a4.063,4.063,0,0,1-2.44.67A2.959,2.959,0,0,1,69.542-.79a3.9,3.9,0,0,1-.848-2.683,3.828,3.828,0,0,1,.926-2.663,2.97,2.97,0,0,1,2.3-1.029,2.632,2.632,0,0,1,2.126.889A3.705,3.705,0,0,1,74.8-3.808ZM73.65-4.17a2.281,2.281,0,0,0-.468-1.511,1.6,1.6,0,0,0-1.282-.54,1.811,1.811,0,0,0-1.347.567A2.575,2.575,0,0,0,69.87-4.17ZM82.3,0H81.184V-3.992q0-2.229-1.627-2.229a1.765,1.765,0,0,0-1.391.632,2.344,2.344,0,0,0-.55,1.6V0H76.494V-7h1.121v1.162h.027a2.526,2.526,0,0,1,2.3-1.326,2.142,2.142,0,0,1,1.757.742A3.3,3.3,0,0,1,82.3-4.279Zm5.359-.068A2.161,2.161,0,0,1,86.618.15Q84.779.15,84.779-1.9V-6.043h-1.2V-7h1.2V-8.709L85.9-9.071V-7h1.764v.957H85.9V-2.1a1.635,1.635,0,0,0,.239,1,.955.955,0,0,0,.793.3,1.179,1.179,0,0,0,.731-.232Zm1.073-.185v-1.2a3.318,3.318,0,0,0,2.017.677q1.477,0,1.477-.984a.854.854,0,0,0-.126-.475,1.26,1.26,0,0,0-.342-.345,2.631,2.631,0,0,0-.506-.27q-.291-.12-.625-.25a8.056,8.056,0,0,1-.817-.373,2.468,2.468,0,0,1-.588-.424,1.577,1.577,0,0,1-.355-.537,1.9,1.9,0,0,1-.12-.7,1.673,1.673,0,0,1,.226-.872,2,2,0,0,1,.6-.636,2.805,2.805,0,0,1,.858-.386,3.805,3.805,0,0,1,.995-.13,4.016,4.016,0,0,1,1.627.314v1.135a3.171,3.171,0,0,0-1.777-.506,2.078,2.078,0,0,0-.567.072,1.389,1.389,0,0,0-.434.2.932.932,0,0,0-.28.311.819.819,0,0,0-.1.4.959.959,0,0,0,.1.458,1.008,1.008,0,0,0,.291.328,2.221,2.221,0,0,0,.465.26q.273.116.622.253a8.658,8.658,0,0,1,.834.366,2.86,2.86,0,0,1,.629.424,1.656,1.656,0,0,1,.4.543,1.753,1.753,0,0,1,.14.731,1.725,1.725,0,0,1-.229.9,1.963,1.963,0,0,1-.612.636,2.8,2.8,0,0,1-.882.376A4.354,4.354,0,0,1,90.61.164,3.971,3.971,0,0,1,88.737-.253Z" transform="translate(20 86)" fill="#31313a"/>
      <path id="Path_101136" data-name="Path 101136" d="M7.082-8.764H4.252V0H3.1V-8.764H.28V-9.8h6.8ZM12.729-3.22H7.786a2.618,2.618,0,0,0,.629,1.8,2.168,2.168,0,0,0,1.654.636,3.439,3.439,0,0,0,2.174-.779V-.506A4.063,4.063,0,0,1,9.8.164,2.959,2.959,0,0,1,7.472-.79a3.9,3.9,0,0,1-.848-2.683A3.828,3.828,0,0,1,7.55-6.135a2.97,2.97,0,0,1,2.3-1.029,2.632,2.632,0,0,1,2.126.889,3.705,3.705,0,0,1,.752,2.468ZM11.58-4.17a2.281,2.281,0,0,0-.468-1.511,1.6,1.6,0,0,0-1.282-.54,1.811,1.811,0,0,0-1.347.567A2.575,2.575,0,0,0,7.8-4.17ZM19.537-7,17.186-3.459,19.5,0H18.19L16.816-2.27q-.13-.212-.308-.533h-.027q-.034.062-.321.533L14.759,0H13.467l2.386-3.432L13.569-7h1.306l1.354,2.393q.15.267.294.547h.027L18.3-7ZM25.86,0H24.739V-1.094h-.027A2.347,2.347,0,0,1,22.559.164,2.3,2.3,0,0,1,20.921-.39a1.918,1.918,0,0,1-.591-1.47q0-1.962,2.311-2.283l2.1-.294q0-1.784-1.442-1.784a3.446,3.446,0,0,0-2.283.861V-6.508a4.338,4.338,0,0,1,2.379-.656q2.468,0,2.468,2.611ZM24.739-3.541l-1.688.232a2.741,2.741,0,0,0-1.176.386,1.114,1.114,0,0,0-.4.981,1.068,1.068,0,0,0,.366.837,1.413,1.413,0,0,0,.974.325A1.8,1.8,0,0,0,24.2-1.364a2.088,2.088,0,0,0,.543-1.48Zm2.81,3.288v-1.2a3.318,3.318,0,0,0,2.017.677q1.477,0,1.477-.984a.854.854,0,0,0-.126-.475,1.26,1.26,0,0,0-.342-.345,2.631,2.631,0,0,0-.506-.27q-.291-.12-.625-.25a8.056,8.056,0,0,1-.817-.373,2.468,2.468,0,0,1-.588-.424,1.577,1.577,0,0,1-.355-.537,1.9,1.9,0,0,1-.12-.7,1.673,1.673,0,0,1,.226-.872,2,2,0,0,1,.6-.636,2.805,2.805,0,0,1,.858-.386,3.805,3.805,0,0,1,.995-.13,4.016,4.016,0,0,1,1.627.314v1.135a3.171,3.171,0,0,0-1.777-.506,2.078,2.078,0,0,0-.567.072,1.389,1.389,0,0,0-.434.2.932.932,0,0,0-.28.311.819.819,0,0,0-.1.4.959.959,0,0,0,.1.458,1.008,1.008,0,0,0,.291.328,2.221,2.221,0,0,0,.465.26q.273.116.622.253a8.658,8.658,0,0,1,.834.366,2.86,2.86,0,0,1,.629.424,1.656,1.656,0,0,1,.4.543,1.753,1.753,0,0,1,.14.731,1.725,1.725,0,0,1-.229.9,1.963,1.963,0,0,1-.612.636,2.8,2.8,0,0,1-.882.376,4.354,4.354,0,0,1-1.046.123A3.971,3.971,0,0,1,27.549-.253ZM44.57-.41a5.749,5.749,0,0,1-2.707.574,4.366,4.366,0,0,1-3.35-1.347,4.969,4.969,0,0,1-1.258-3.534,5.208,5.208,0,0,1,1.415-3.8A4.8,4.8,0,0,1,42.26-9.967a5.754,5.754,0,0,1,2.311.4V-8.34a4.686,4.686,0,0,0-2.324-.588A3.566,3.566,0,0,0,39.508-7.8a4.249,4.249,0,0,0-1.049,3.015,4.043,4.043,0,0,0,.981,2.854A3.338,3.338,0,0,0,42.014-.868a4.828,4.828,0,0,0,2.557-.656ZM47.537,0H46.416V-10.363h1.121Zm2.844-8.777a.71.71,0,0,1-.513-.205.692.692,0,0,1-.212-.52.7.7,0,0,1,.212-.523.7.7,0,0,1,.513-.208.724.724,0,0,1,.523.208.7.7,0,0,1,.215.523.693.693,0,0,1-.215.513A.718.718,0,0,1,50.381-8.777ZM50.928,0H49.807V-7h1.121Zm7.9-3.22H53.881a2.618,2.618,0,0,0,.629,1.8,2.168,2.168,0,0,0,1.654.636,3.439,3.439,0,0,0,2.174-.779V-.506a4.063,4.063,0,0,1-2.44.67A2.959,2.959,0,0,1,53.566-.79a3.9,3.9,0,0,1-.848-2.683,3.828,3.828,0,0,1,.926-2.663,2.97,2.97,0,0,1,2.3-1.029,2.632,2.632,0,0,1,2.126.889,3.705,3.705,0,0,1,.752,2.468Zm-1.148-.95a2.281,2.281,0,0,0-.468-1.511,1.6,1.6,0,0,0-1.282-.54,1.811,1.811,0,0,0-1.347.567,2.575,2.575,0,0,0-.684,1.483ZM66.329,0H65.208V-3.992q0-2.229-1.627-2.229a1.765,1.765,0,0,0-1.391.632,2.344,2.344,0,0,0-.55,1.6V0H60.519V-7H61.64v1.162h.027a2.526,2.526,0,0,1,2.3-1.326,2.142,2.142,0,0,1,1.757.742,3.3,3.3,0,0,1,.608,2.143Zm5.359-.068A2.161,2.161,0,0,1,70.643.15Q68.8.15,68.8-1.9V-6.043H67.6V-7h1.2V-8.709l1.121-.362V-7h1.764v.957H69.925V-2.1a1.635,1.635,0,0,0,.239,1,.955.955,0,0,0,.793.3,1.179,1.179,0,0,0,.731-.232Zm1.073-.185v-1.2a3.318,3.318,0,0,0,2.017.677q1.477,0,1.477-.984a.854.854,0,0,0-.126-.475,1.26,1.26,0,0,0-.342-.345,2.631,2.631,0,0,0-.506-.27q-.291-.12-.625-.25a8.056,8.056,0,0,1-.817-.373A2.468,2.468,0,0,1,73.25-3.9a1.577,1.577,0,0,1-.355-.537,1.9,1.9,0,0,1-.12-.7A1.673,1.673,0,0,1,73-6.012a2,2,0,0,1,.6-.636,2.805,2.805,0,0,1,.858-.386,3.805,3.805,0,0,1,.995-.13,4.016,4.016,0,0,1,1.627.314v1.135A3.171,3.171,0,0,0,75.3-6.221a2.078,2.078,0,0,0-.567.072,1.389,1.389,0,0,0-.434.2.932.932,0,0,0-.28.311.819.819,0,0,0-.1.4.959.959,0,0,0,.1.458,1.008,1.008,0,0,0,.291.328,2.221,2.221,0,0,0,.465.26q.273.116.622.253a8.658,8.658,0,0,1,.834.366,2.86,2.86,0,0,1,.629.424,1.656,1.656,0,0,1,.4.543,1.753,1.753,0,0,1,.14.731,1.725,1.725,0,0,1-.229.9,1.963,1.963,0,0,1-.612.636,2.8,2.8,0,0,1-.882.376,4.354,4.354,0,0,1-1.046.123A3.971,3.971,0,0,1,72.762-.253Z" transform="translate(20 134)" fill="#31313a"/>
      <path id="Path_101137" data-name="Path 101137" d="M12.906-9.8,10.138,0H8.791L6.774-7.164a4.485,4.485,0,0,1-.157-1H6.59a5.064,5.064,0,0,1-.178.984L4.382,0H3.049L.178-9.8H1.442l2.085,7.52a4.935,4.935,0,0,1,.164.984h.034a5.811,5.811,0,0,1,.212-.984L6.1-9.8h1.1L9.283-2.229a5.541,5.541,0,0,1,.164.916h.027a5.491,5.491,0,0,1,.185-.943l2-7.547Zm1.88,1.025a.71.71,0,0,1-.513-.205.692.692,0,0,1-.212-.52.7.7,0,0,1,.212-.523.7.7,0,0,1,.513-.208.724.724,0,0,1,.523.208.7.7,0,0,1,.215.523.693.693,0,0,1-.215.513A.718.718,0,0,1,14.786-8.777ZM15.333,0H14.212V-7h1.121Zm1.846-.253v-1.2A3.318,3.318,0,0,0,19.2-.779q1.477,0,1.477-.984a.854.854,0,0,0-.126-.475,1.26,1.26,0,0,0-.342-.345,2.631,2.631,0,0,0-.506-.27q-.291-.12-.625-.25a8.056,8.056,0,0,1-.817-.373,2.468,2.468,0,0,1-.588-.424,1.577,1.577,0,0,1-.355-.537,1.9,1.9,0,0,1-.12-.7,1.673,1.673,0,0,1,.226-.872,2,2,0,0,1,.6-.636,2.805,2.805,0,0,1,.858-.386,3.805,3.805,0,0,1,.995-.13A4.016,4.016,0,0,1,21.5-6.85v1.135a3.171,3.171,0,0,0-1.777-.506,2.078,2.078,0,0,0-.567.072,1.389,1.389,0,0,0-.434.2.932.932,0,0,0-.28.311.819.819,0,0,0-.1.4.959.959,0,0,0,.1.458,1.008,1.008,0,0,0,.291.328,2.221,2.221,0,0,0,.465.26q.273.116.622.253a8.658,8.658,0,0,1,.834.366,2.86,2.86,0,0,1,.629.424,1.656,1.656,0,0,1,.4.543,1.753,1.753,0,0,1,.14.731,1.725,1.725,0,0,1-.229.9,1.963,1.963,0,0,1-.612.636A2.8,2.8,0,0,1,20.1.041a4.354,4.354,0,0,1-1.046.123A3.971,3.971,0,0,1,17.179-.253ZM28.314-.321A3.643,3.643,0,0,1,26.4.164,3.169,3.169,0,0,1,23.984-.81a3.53,3.53,0,0,1-.919-2.526,3.881,3.881,0,0,1,.991-2.779A3.467,3.467,0,0,1,26.7-7.164a3.682,3.682,0,0,1,1.627.342v1.148a2.85,2.85,0,0,0-1.668-.547,2.254,2.254,0,0,0-1.76.769,2.918,2.918,0,0,0-.687,2.02,2.779,2.779,0,0,0,.646,1.941,2.227,2.227,0,0,0,1.733.711,2.81,2.81,0,0,0,1.723-.608Zm4.621.485a3.247,3.247,0,0,1-2.478-.981,3.633,3.633,0,0,1-.926-2.6A3.785,3.785,0,0,1,30.5-6.173a3.465,3.465,0,0,1,2.6-.991,3.14,3.14,0,0,1,2.444.964,3.822,3.822,0,0,1,.878,2.673,3.761,3.761,0,0,1-.947,2.683A3.317,3.317,0,0,1,32.936.164Zm.082-6.385a2.132,2.132,0,0,0-1.709.735,3.018,3.018,0,0,0-.629,2.027A2.854,2.854,0,0,0,31.315-1.5a2.161,2.161,0,0,0,1.7.718,2.049,2.049,0,0,0,1.671-.7,3.055,3.055,0,0,0,.584-2,3.108,3.108,0,0,0-.584-2.023A2.04,2.04,0,0,0,33.018-6.221ZM44.023,0H42.9V-3.992q0-2.229-1.627-2.229a1.765,1.765,0,0,0-1.391.632,2.344,2.344,0,0,0-.55,1.6V0H38.213V-7h1.121v1.162h.027a2.526,2.526,0,0,1,2.3-1.326,2.142,2.142,0,0,1,1.757.742,3.3,3.3,0,0,1,.608,2.143Zm1.688-.253v-1.2a3.318,3.318,0,0,0,2.017.677q1.477,0,1.477-.984a.854.854,0,0,0-.126-.475,1.26,1.26,0,0,0-.342-.345,2.631,2.631,0,0,0-.506-.27q-.291-.12-.625-.25a8.056,8.056,0,0,1-.817-.373A2.468,2.468,0,0,1,46.2-3.9a1.577,1.577,0,0,1-.355-.537,1.9,1.9,0,0,1-.12-.7,1.673,1.673,0,0,1,.226-.872,2,2,0,0,1,.6-.636,2.805,2.805,0,0,1,.858-.386,3.805,3.805,0,0,1,.995-.13,4.016,4.016,0,0,1,1.627.314v1.135a3.171,3.171,0,0,0-1.777-.506,2.078,2.078,0,0,0-.567.072,1.389,1.389,0,0,0-.434.2.932.932,0,0,0-.28.311.819.819,0,0,0-.1.4.959.959,0,0,0,.1.458,1.008,1.008,0,0,0,.291.328,2.221,2.221,0,0,0,.465.26q.273.116.622.253a8.658,8.658,0,0,1,.834.366,2.86,2.86,0,0,1,.629.424,1.656,1.656,0,0,1,.4.543,1.753,1.753,0,0,1,.14.731,1.725,1.725,0,0,1-.229.9,1.963,1.963,0,0,1-.612.636,2.8,2.8,0,0,1-.882.376,4.354,4.354,0,0,1-1.046.123A3.971,3.971,0,0,1,45.712-.253ZM52.65-8.777a.71.71,0,0,1-.513-.205.692.692,0,0,1-.212-.52.7.7,0,0,1,.212-.523.7.7,0,0,1,.513-.208.724.724,0,0,1,.523.208.7.7,0,0,1,.215.523.693.693,0,0,1-.215.513A.718.718,0,0,1,52.65-8.777ZM53.2,0H52.076V-7H53.2Zm8.08,0H60.156V-3.992q0-2.229-1.627-2.229a1.765,1.765,0,0,0-1.391.632,2.344,2.344,0,0,0-.55,1.6V0H55.467V-7h1.121v1.162h.027a2.526,2.526,0,0,1,2.3-1.326,2.142,2.142,0,0,1,1.757.742,3.3,3.3,0,0,1,.608,2.143ZM72-.321a3.643,3.643,0,0,1-1.914.485A3.169,3.169,0,0,1,67.666-.81a3.53,3.53,0,0,1-.919-2.526,3.881,3.881,0,0,1,.991-2.779,3.467,3.467,0,0,1,2.646-1.049,3.682,3.682,0,0,1,1.627.342v1.148a2.85,2.85,0,0,0-1.668-.547,2.254,2.254,0,0,0-1.76.769,2.918,2.918,0,0,0-.687,2.02,2.779,2.779,0,0,0,.646,1.941,2.227,2.227,0,0,0,1.733.711A2.81,2.81,0,0,0,72-1.388ZM74.813,0H73.691V-10.363h1.121Zm2.844-8.777a.71.71,0,0,1-.513-.205.692.692,0,0,1-.212-.52.7.7,0,0,1,.212-.523.7.7,0,0,1,.513-.208.724.724,0,0,1,.523.208.7.7,0,0,1,.215.523.693.693,0,0,1-.215.513A.718.718,0,0,1,77.656-8.777ZM78.2,0H77.082V-7H78.2Zm7.9-3.22H81.156a2.618,2.618,0,0,0,.629,1.8,2.168,2.168,0,0,0,1.654.636,3.439,3.439,0,0,0,2.174-.779V-.506a4.063,4.063,0,0,1-2.44.67A2.959,2.959,0,0,1,80.842-.79a3.9,3.9,0,0,1-.848-2.683,3.828,3.828,0,0,1,.926-2.663,2.97,2.97,0,0,1,2.3-1.029,2.632,2.632,0,0,1,2.126.889A3.705,3.705,0,0,1,86.1-3.808ZM84.95-4.17a2.281,2.281,0,0,0-.468-1.511,1.6,1.6,0,0,0-1.282-.54,1.811,1.811,0,0,0-1.347.567A2.575,2.575,0,0,0,81.17-4.17ZM93.6,0H92.483V-3.992q0-2.229-1.627-2.229a1.765,1.765,0,0,0-1.391.632,2.344,2.344,0,0,0-.55,1.6V0H87.794V-7h1.121v1.162h.027a2.526,2.526,0,0,1,2.3-1.326A2.142,2.142,0,0,1,93-6.422,3.3,3.3,0,0,1,93.6-4.279Zm5.359-.068A2.161,2.161,0,0,1,97.918.15Q96.079.15,96.079-1.9V-6.043h-1.2V-7h1.2V-8.709L97.2-9.071V-7h1.764v.957H97.2V-2.1a1.635,1.635,0,0,0,.239,1,.955.955,0,0,0,.793.3,1.179,1.179,0,0,0,.731-.232Zm1.073-.185v-1.2a3.318,3.318,0,0,0,2.017.677q1.477,0,1.477-.984a.854.854,0,0,0-.126-.475,1.26,1.26,0,0,0-.342-.345,2.631,2.631,0,0,0-.506-.27q-.291-.12-.625-.25a8.056,8.056,0,0,1-.817-.373,2.468,2.468,0,0,1-.588-.424,1.577,1.577,0,0,1-.355-.537,1.9,1.9,0,0,1-.12-.7,1.673,1.673,0,0,1,.226-.872,2,2,0,0,1,.6-.636,2.805,2.805,0,0,1,.858-.386,3.805,3.805,0,0,1,.995-.13,4.016,4.016,0,0,1,1.627.314v1.135a3.171,3.171,0,0,0-1.777-.506,2.078,2.078,0,0,0-.567.072,1.389,1.389,0,0,0-.434.2.932.932,0,0,0-.28.311.819.819,0,0,0-.1.4.959.959,0,0,0,.1.458,1.008,1.008,0,0,0,.291.328,2.221,2.221,0,0,0,.465.26q.273.116.622.253a8.658,8.658,0,0,1,.834.366,2.86,2.86,0,0,1,.629.424,1.656,1.656,0,0,1,.4.543,1.753,1.753,0,0,1,.14.731,1.725,1.725,0,0,1-.229.9,1.963,1.963,0,0,1-.612.636,2.8,2.8,0,0,1-.882.376,4.354,4.354,0,0,1-1.046.123A3.971,3.971,0,0,1,100.037-.253Z" transform="translate(20 182)" fill="#31313a"/>
      <path id="Path_101138" data-name="Path 101138" d="M6.973-4.942A9.63,9.63,0,0,1,6.75-2.762a5.081,5.081,0,0,1-.643,1.6,2.892,2.892,0,0,1-1.032.991A2.826,2.826,0,0,1,3.685.171,2.639,2.639,0,0,1,2.369-.154,2.758,2.758,0,0,1,1.395-1.1a4.8,4.8,0,0,1-.6-1.528A9.447,9.447,0,0,1,.588-4.7,10.694,10.694,0,0,1,.8-6.973a5.191,5.191,0,0,1,.632-1.651,2.814,2.814,0,0,1,1.036-1A2.908,2.908,0,0,1,3.89-9.967Q6.973-9.967,6.973-4.942Zm-1.148.109q0-4.184-1.989-4.184-2.1,0-2.1,4.259,0,3.972,2.058,3.972Q5.824-.786,5.824-4.833Zm8.347,1.839a3.3,3.3,0,0,1-.246,1.3,2.84,2.84,0,0,1-.7,1,3.137,3.137,0,0,1-1.1.643A4.291,4.291,0,0,1,10.7.171a3.947,3.947,0,0,1-2.03-.41V-1.429a3.733,3.733,0,0,0,2.044.643,2.766,2.766,0,0,0,.96-.157,2.134,2.134,0,0,0,.728-.437,1.873,1.873,0,0,0,.461-.677,2.291,2.291,0,0,0,.161-.868,1.86,1.86,0,0,0-.643-1.5,2.818,2.818,0,0,0-1.866-.543q-.2,0-.417.007t-.437.017q-.219.01-.427.024t-.379.034L9.188-9.8H13.72v1.012H10.158l-.2,2.878q.219-.014.465-.024t.438-.01a4.4,4.4,0,0,1,1.395.205,2.955,2.955,0,0,1,1.042.584,2.451,2.451,0,0,1,.649.93A3.27,3.27,0,0,1,14.171-2.994ZM20.651-9.8l-4.7,11.43H14.9L19.592-9.8Zm6.87,4.86A9.63,9.63,0,0,1,27.3-2.762a5.081,5.081,0,0,1-.643,1.6,2.892,2.892,0,0,1-1.032.991,2.826,2.826,0,0,1-1.391.338,2.639,2.639,0,0,1-1.316-.325,2.758,2.758,0,0,1-.974-.947,4.8,4.8,0,0,1-.6-1.528A9.447,9.447,0,0,1,21.137-4.7a10.694,10.694,0,0,1,.215-2.27,5.191,5.191,0,0,1,.632-1.651,2.814,2.814,0,0,1,1.036-1,2.908,2.908,0,0,1,1.418-.338Q27.521-9.967,27.521-4.942Zm-1.148.109q0-4.184-1.989-4.184-2.1,0-2.1,4.259,0,3.972,2.058,3.972Q26.373-.786,26.373-4.833ZM35.082-3.11a3.631,3.631,0,0,1-.232,1.319,3.171,3.171,0,0,1-.643,1.039,2.871,2.871,0,0,1-.978.68A3.1,3.1,0,0,1,32,.171a2.8,2.8,0,0,1-1.323-.308,2.8,2.8,0,0,1-.991-.885,4.246,4.246,0,0,1-.619-1.412,7.648,7.648,0,0,1-.212-1.88,8.834,8.834,0,0,1,.284-2.321,5.638,5.638,0,0,1,.807-1.784,3.719,3.719,0,0,1,1.261-1.145,3.379,3.379,0,0,1,1.647-.4,3.968,3.968,0,0,1,1.627.28v1.06a3.455,3.455,0,0,0-1.6-.39,2.384,2.384,0,0,0-1.183.294,2.716,2.716,0,0,0-.9.831,4.051,4.051,0,0,0-.578,1.3,6.572,6.572,0,0,0-.2,1.688h.027a2.354,2.354,0,0,1,2.235-1.224,2.942,2.942,0,0,1,1.159.219,2.5,2.5,0,0,1,.882.619,2.785,2.785,0,0,1,.564.954A3.63,3.63,0,0,1,35.082-3.11Zm-1.148.144a3.051,3.051,0,0,0-.13-.923,2,2,0,0,0-.373-.7,1.606,1.606,0,0,0-.6-.441,2.013,2.013,0,0,0-.807-.154,1.888,1.888,0,0,0-.772.157,1.924,1.924,0,0,0-.615.427,1.98,1.98,0,0,0-.407.629,1.992,1.992,0,0,0-.147.762,3.041,3.041,0,0,0,.144.947,2.446,2.446,0,0,0,.4.769,1.918,1.918,0,0,0,.619.516,1.69,1.69,0,0,0,.8.188,1.824,1.824,0,0,0,.772-.161,1.723,1.723,0,0,0,.595-.448,2.073,2.073,0,0,0,.383-.687A2.723,2.723,0,0,0,33.934-2.967ZM41.2-9.8,36.5,1.627H35.451L40.141-9.8Zm5.175,2.57a2.027,2.027,0,0,0-.14-.786,1.557,1.557,0,0,0-.383-.557,1.568,1.568,0,0,0-.571-.332,2.235,2.235,0,0,0-.711-.109,2.352,2.352,0,0,0-.643.089,3.124,3.124,0,0,0-.612.246,3.764,3.764,0,0,0-.574.376,4.148,4.148,0,0,0-.516.485v-1.2a3.352,3.352,0,0,1,1.056-.7,3.719,3.719,0,0,1,1.425-.243,3.441,3.441,0,0,1,1.114.174,2.555,2.555,0,0,1,.889.509,2.354,2.354,0,0,1,.591.827,2.79,2.79,0,0,1,.215,1.128,3.868,3.868,0,0,1-.133,1.053,3.256,3.256,0,0,1-.4.889,4.288,4.288,0,0,1-.68.8,9.635,9.635,0,0,1-.964.779q-.69.492-1.138.841a5.031,5.031,0,0,0-.711.653,1.894,1.894,0,0,0-.369.608,2.127,2.127,0,0,0-.106.7h4.881V0h-6.05V-.485a4.045,4.045,0,0,1,.137-1.107,2.876,2.876,0,0,1,.451-.909,5.046,5.046,0,0,1,.824-.861q.509-.431,1.248-.971a7.887,7.887,0,0,0,.892-.731,3.8,3.8,0,0,0,.578-.7,2.5,2.5,0,0,0,.311-.708A3.051,3.051,0,0,0,46.375-7.232Zm9.242,2.29A9.63,9.63,0,0,1,55.4-2.762a5.081,5.081,0,0,1-.643,1.6,2.892,2.892,0,0,1-1.032.991,2.826,2.826,0,0,1-1.391.338,2.639,2.639,0,0,1-1.316-.325,2.758,2.758,0,0,1-.974-.947,4.8,4.8,0,0,1-.6-1.528A9.447,9.447,0,0,1,49.232-4.7a10.694,10.694,0,0,1,.215-2.27,5.191,5.191,0,0,1,.632-1.651,2.814,2.814,0,0,1,1.036-1,2.908,2.908,0,0,1,1.418-.338Q55.617-9.967,55.617-4.942Zm-1.148.109q0-4.184-1.989-4.184-2.1,0-2.1,4.259,0,3.972,2.058,3.972Q54.469-.786,54.469-4.833Zm7-2.4a2.027,2.027,0,0,0-.14-.786,1.557,1.557,0,0,0-.383-.557,1.568,1.568,0,0,0-.571-.332,2.235,2.235,0,0,0-.711-.109,2.352,2.352,0,0,0-.643.089,3.124,3.124,0,0,0-.612.246,3.764,3.764,0,0,0-.574.376,4.148,4.148,0,0,0-.516.485v-1.2a3.352,3.352,0,0,1,1.056-.7A3.719,3.719,0,0,1,59.8-9.967a3.441,3.441,0,0,1,1.114.174,2.555,2.555,0,0,1,.889.509,2.354,2.354,0,0,1,.591.827,2.79,2.79,0,0,1,.215,1.128,3.868,3.868,0,0,1-.133,1.053,3.256,3.256,0,0,1-.4.889,4.288,4.288,0,0,1-.68.8,9.635,9.635,0,0,1-.964.779q-.69.492-1.138.841a5.031,5.031,0,0,0-.711.653,1.894,1.894,0,0,0-.369.608,2.127,2.127,0,0,0-.106.7h4.881V0h-6.05V-.485a4.045,4.045,0,0,1,.137-1.107,2.876,2.876,0,0,1,.451-.909,5.046,5.046,0,0,1,.824-.861q.509-.431,1.248-.971a7.887,7.887,0,0,0,.892-.731,3.8,3.8,0,0,0,.578-.7,2.5,2.5,0,0,0,.311-.708A3.051,3.051,0,0,0,61.469-7.232Zm9.242,2.29a9.63,9.63,0,0,1-.222,2.181,5.081,5.081,0,0,1-.643,1.6,2.892,2.892,0,0,1-1.032.991,2.826,2.826,0,0,1-1.391.338,2.639,2.639,0,0,1-1.316-.325,2.758,2.758,0,0,1-.974-.947,4.8,4.8,0,0,1-.6-1.528A9.447,9.447,0,0,1,64.326-4.7a10.694,10.694,0,0,1,.215-2.27,5.191,5.191,0,0,1,.632-1.651,2.814,2.814,0,0,1,1.036-1,2.908,2.908,0,0,1,1.418-.338Q70.711-9.967,70.711-4.942Zm-1.148.109q0-4.184-1.989-4.184-2.1,0-2.1,4.259,0,3.972,2.058,3.972Q69.563-.786,69.563-4.833Z" transform="translate(325 86)" fill="#31313a"/>
      <path id="Path_101139" data-name="Path 101139" d="M6.973-4.942A9.63,9.63,0,0,1,6.75-2.762a5.081,5.081,0,0,1-.643,1.6,2.892,2.892,0,0,1-1.032.991A2.826,2.826,0,0,1,3.685.171,2.639,2.639,0,0,1,2.369-.154,2.758,2.758,0,0,1,1.395-1.1a4.8,4.8,0,0,1-.6-1.528A9.447,9.447,0,0,1,.588-4.7,10.694,10.694,0,0,1,.8-6.973a5.191,5.191,0,0,1,.632-1.651,2.814,2.814,0,0,1,1.036-1A2.908,2.908,0,0,1,3.89-9.967Q6.973-9.967,6.973-4.942Zm-1.148.109q0-4.184-1.989-4.184-2.1,0-2.1,4.259,0,3.972,2.058,3.972Q5.824-.786,5.824-4.833Zm8.347,1.839a3.3,3.3,0,0,1-.246,1.3,2.84,2.84,0,0,1-.7,1,3.137,3.137,0,0,1-1.1.643A4.291,4.291,0,0,1,10.7.171a3.947,3.947,0,0,1-2.03-.41V-1.429a3.733,3.733,0,0,0,2.044.643,2.766,2.766,0,0,0,.96-.157,2.134,2.134,0,0,0,.728-.437,1.873,1.873,0,0,0,.461-.677,2.291,2.291,0,0,0,.161-.868,1.86,1.86,0,0,0-.643-1.5,2.818,2.818,0,0,0-1.866-.543q-.2,0-.417.007t-.437.017q-.219.01-.427.024t-.379.034L9.188-9.8H13.72v1.012H10.158l-.2,2.878q.219-.014.465-.024t.438-.01a4.4,4.4,0,0,1,1.395.205,2.955,2.955,0,0,1,1.042.584,2.451,2.451,0,0,1,.649.93A3.27,3.27,0,0,1,14.171-2.994ZM20.651-9.8l-4.7,11.43H14.9L19.592-9.8Zm6.87,4.86A9.63,9.63,0,0,1,27.3-2.762a5.081,5.081,0,0,1-.643,1.6,2.892,2.892,0,0,1-1.032.991,2.826,2.826,0,0,1-1.391.338,2.639,2.639,0,0,1-1.316-.325,2.758,2.758,0,0,1-.974-.947,4.8,4.8,0,0,1-.6-1.528A9.447,9.447,0,0,1,21.137-4.7a10.694,10.694,0,0,1,.215-2.27,5.191,5.191,0,0,1,.632-1.651,2.814,2.814,0,0,1,1.036-1,2.908,2.908,0,0,1,1.418-.338Q27.521-9.967,27.521-4.942Zm-1.148.109q0-4.184-1.989-4.184-2.1,0-2.1,4.259,0,3.972,2.058,3.972Q26.373-.786,26.373-4.833ZM35.082-3.11a3.631,3.631,0,0,1-.232,1.319,3.171,3.171,0,0,1-.643,1.039,2.871,2.871,0,0,1-.978.68A3.1,3.1,0,0,1,32,.171a2.8,2.8,0,0,1-1.323-.308,2.8,2.8,0,0,1-.991-.885,4.246,4.246,0,0,1-.619-1.412,7.648,7.648,0,0,1-.212-1.88,8.834,8.834,0,0,1,.284-2.321,5.638,5.638,0,0,1,.807-1.784,3.719,3.719,0,0,1,1.261-1.145,3.379,3.379,0,0,1,1.647-.4,3.968,3.968,0,0,1,1.627.28v1.06a3.455,3.455,0,0,0-1.6-.39,2.384,2.384,0,0,0-1.183.294,2.716,2.716,0,0,0-.9.831,4.051,4.051,0,0,0-.578,1.3,6.572,6.572,0,0,0-.2,1.688h.027a2.354,2.354,0,0,1,2.235-1.224,2.942,2.942,0,0,1,1.159.219,2.5,2.5,0,0,1,.882.619,2.785,2.785,0,0,1,.564.954A3.63,3.63,0,0,1,35.082-3.11Zm-1.148.144a3.051,3.051,0,0,0-.13-.923,2,2,0,0,0-.373-.7,1.606,1.606,0,0,0-.6-.441,2.013,2.013,0,0,0-.807-.154,1.888,1.888,0,0,0-.772.157,1.924,1.924,0,0,0-.615.427,1.98,1.98,0,0,0-.407.629,1.992,1.992,0,0,0-.147.762,3.041,3.041,0,0,0,.144.947,2.446,2.446,0,0,0,.4.769,1.918,1.918,0,0,0,.619.516,1.69,1.69,0,0,0,.8.188,1.824,1.824,0,0,0,.772-.161,1.723,1.723,0,0,0,.595-.448,2.073,2.073,0,0,0,.383-.687A2.723,2.723,0,0,0,33.934-2.967ZM41.2-9.8,36.5,1.627H35.451L40.141-9.8Zm5.175,2.57a2.027,2.027,0,0,0-.14-.786,1.557,1.557,0,0,0-.383-.557,1.568,1.568,0,0,0-.571-.332,2.235,2.235,0,0,0-.711-.109,2.352,2.352,0,0,0-.643.089,3.124,3.124,0,0,0-.612.246,3.764,3.764,0,0,0-.574.376,4.148,4.148,0,0,0-.516.485v-1.2a3.352,3.352,0,0,1,1.056-.7,3.719,3.719,0,0,1,1.425-.243,3.441,3.441,0,0,1,1.114.174,2.555,2.555,0,0,1,.889.509,2.354,2.354,0,0,1,.591.827,2.79,2.79,0,0,1,.215,1.128,3.868,3.868,0,0,1-.133,1.053,3.256,3.256,0,0,1-.4.889,4.288,4.288,0,0,1-.68.8,9.635,9.635,0,0,1-.964.779q-.69.492-1.138.841a5.031,5.031,0,0,0-.711.653,1.894,1.894,0,0,0-.369.608,2.127,2.127,0,0,0-.106.7h4.881V0h-6.05V-.485a4.045,4.045,0,0,1,.137-1.107,2.876,2.876,0,0,1,.451-.909,5.046,5.046,0,0,1,.824-.861q.509-.431,1.248-.971a7.887,7.887,0,0,0,.892-.731,3.8,3.8,0,0,0,.578-.7,2.5,2.5,0,0,0,.311-.708A3.051,3.051,0,0,0,46.375-7.232Zm9.242,2.29A9.63,9.63,0,0,1,55.4-2.762a5.081,5.081,0,0,1-.643,1.6,2.892,2.892,0,0,1-1.032.991,2.826,2.826,0,0,1-1.391.338,2.639,2.639,0,0,1-1.316-.325,2.758,2.758,0,0,1-.974-.947,4.8,4.8,0,0,1-.6-1.528A9.447,9.447,0,0,1,49.232-4.7a10.694,10.694,0,0,1,.215-2.27,5.191,5.191,0,0,1,.632-1.651,2.814,2.814,0,0,1,1.036-1,2.908,2.908,0,0,1,1.418-.338Q55.617-9.967,55.617-4.942Zm-1.148.109q0-4.184-1.989-4.184-2.1,0-2.1,4.259,0,3.972,2.058,3.972Q54.469-.786,54.469-4.833Zm7-2.4a2.027,2.027,0,0,0-.14-.786,1.557,1.557,0,0,0-.383-.557,1.568,1.568,0,0,0-.571-.332,2.235,2.235,0,0,0-.711-.109,2.352,2.352,0,0,0-.643.089,3.124,3.124,0,0,0-.612.246,3.764,3.764,0,0,0-.574.376,4.148,4.148,0,0,0-.516.485v-1.2a3.352,3.352,0,0,1,1.056-.7A3.719,3.719,0,0,1,59.8-9.967a3.441,3.441,0,0,1,1.114.174,2.555,2.555,0,0,1,.889.509,2.354,2.354,0,0,1,.591.827,2.79,2.79,0,0,1,.215,1.128,3.868,3.868,0,0,1-.133,1.053,3.256,3.256,0,0,1-.4.889,4.288,4.288,0,0,1-.68.8,9.635,9.635,0,0,1-.964.779q-.69.492-1.138.841a5.031,5.031,0,0,0-.711.653,1.894,1.894,0,0,0-.369.608,2.127,2.127,0,0,0-.106.7h4.881V0h-6.05V-.485a4.045,4.045,0,0,1,.137-1.107,2.876,2.876,0,0,1,.451-.909,5.046,5.046,0,0,1,.824-.861q.509-.431,1.248-.971a7.887,7.887,0,0,0,.892-.731,3.8,3.8,0,0,0,.578-.7,2.5,2.5,0,0,0,.311-.708A3.051,3.051,0,0,0,61.469-7.232Zm9.242,2.29a9.63,9.63,0,0,1-.222,2.181,5.081,5.081,0,0,1-.643,1.6,2.892,2.892,0,0,1-1.032.991,2.826,2.826,0,0,1-1.391.338,2.639,2.639,0,0,1-1.316-.325,2.758,2.758,0,0,1-.974-.947,4.8,4.8,0,0,1-.6-1.528A9.447,9.447,0,0,1,64.326-4.7a10.694,10.694,0,0,1,.215-2.27,5.191,5.191,0,0,1,.632-1.651,2.814,2.814,0,0,1,1.036-1,2.908,2.908,0,0,1,1.418-.338Q70.711-9.967,70.711-4.942Zm-1.148.109q0-4.184-1.989-4.184-2.1,0-2.1,4.259,0,3.972,2.058,3.972Q69.563-.786,69.563-4.833Z" transform="translate(325 134)" fill="#31313a"/>
      <path id="Path_101140" data-name="Path 101140" d="M6.973-4.942A9.63,9.63,0,0,1,6.75-2.762a5.081,5.081,0,0,1-.643,1.6,2.892,2.892,0,0,1-1.032.991A2.826,2.826,0,0,1,3.685.171,2.639,2.639,0,0,1,2.369-.154,2.758,2.758,0,0,1,1.395-1.1a4.8,4.8,0,0,1-.6-1.528A9.447,9.447,0,0,1,.588-4.7,10.694,10.694,0,0,1,.8-6.973a5.191,5.191,0,0,1,.632-1.651,2.814,2.814,0,0,1,1.036-1A2.908,2.908,0,0,1,3.89-9.967Q6.973-9.967,6.973-4.942Zm-1.148.109q0-4.184-1.989-4.184-2.1,0-2.1,4.259,0,3.972,2.058,3.972Q5.824-.786,5.824-4.833ZM14.533-3.11A3.631,3.631,0,0,1,14.3-1.791a3.171,3.171,0,0,1-.643,1.039,2.871,2.871,0,0,1-.978.68,3.1,3.1,0,0,1-1.23.243,2.8,2.8,0,0,1-1.323-.308,2.8,2.8,0,0,1-.991-.885,4.246,4.246,0,0,1-.619-1.412,7.648,7.648,0,0,1-.212-1.88,8.834,8.834,0,0,1,.284-2.321A5.638,5.638,0,0,1,9.4-8.418a3.719,3.719,0,0,1,1.261-1.145,3.379,3.379,0,0,1,1.647-.4,3.968,3.968,0,0,1,1.627.28v1.06a3.455,3.455,0,0,0-1.6-.39,2.384,2.384,0,0,0-1.183.294,2.716,2.716,0,0,0-.9.831,4.051,4.051,0,0,0-.578,1.3,6.572,6.572,0,0,0-.2,1.688H9.5A2.354,2.354,0,0,1,11.73-6.132a2.942,2.942,0,0,1,1.159.219,2.5,2.5,0,0,1,.882.619,2.785,2.785,0,0,1,.564.954A3.63,3.63,0,0,1,14.533-3.11Zm-1.148.144a3.051,3.051,0,0,0-.13-.923,2,2,0,0,0-.373-.7,1.606,1.606,0,0,0-.6-.441,2.013,2.013,0,0,0-.807-.154,1.888,1.888,0,0,0-.772.157,1.924,1.924,0,0,0-.615.427,1.98,1.98,0,0,0-.407.629,1.992,1.992,0,0,0-.147.762,3.041,3.041,0,0,0,.144.947,2.446,2.446,0,0,0,.4.769,1.918,1.918,0,0,0,.619.516,1.69,1.69,0,0,0,.8.188,1.824,1.824,0,0,0,.772-.161,1.723,1.723,0,0,0,.595-.448,2.073,2.073,0,0,0,.383-.687A2.723,2.723,0,0,0,13.385-2.967ZM20.651-9.8l-4.7,11.43H14.9L19.592-9.8Zm6.87,4.86A9.63,9.63,0,0,1,27.3-2.762a5.081,5.081,0,0,1-.643,1.6,2.892,2.892,0,0,1-1.032.991,2.826,2.826,0,0,1-1.391.338,2.639,2.639,0,0,1-1.316-.325,2.758,2.758,0,0,1-.974-.947,4.8,4.8,0,0,1-.6-1.528A9.447,9.447,0,0,1,21.137-4.7a10.694,10.694,0,0,1,.215-2.27,5.191,5.191,0,0,1,.632-1.651,2.814,2.814,0,0,1,1.036-1,2.908,2.908,0,0,1,1.418-.338Q27.521-9.967,27.521-4.942Zm-1.148.109q0-4.184-1.989-4.184-2.1,0-2.1,4.259,0,3.972,2.058,3.972Q26.373-.786,26.373-4.833Zm2.338,2.1a2.608,2.608,0,0,1,.123-.783,2.835,2.835,0,0,1,.352-.735,2.913,2.913,0,0,1,.567-.622,2.7,2.7,0,0,1,.769-.444,2.906,2.906,0,0,1-1.012-.913,2.158,2.158,0,0,1-.376-1.234,2.38,2.38,0,0,1,.208-1,2.4,2.4,0,0,1,.578-.793,2.67,2.67,0,0,1,.875-.523,3.115,3.115,0,0,1,1.094-.188,3.085,3.085,0,0,1,1.1.191,2.717,2.717,0,0,1,.875.526,2.363,2.363,0,0,1,.574.793,2.4,2.4,0,0,1,.205.991,2.158,2.158,0,0,1-.376,1.234,2.943,2.943,0,0,1-1,.913,2.681,2.681,0,0,1,.759.444,2.956,2.956,0,0,1,.564.622,2.835,2.835,0,0,1,.352.735,2.608,2.608,0,0,1,.123.783,2.911,2.911,0,0,1-.232,1.176,2.627,2.627,0,0,1-.653.913,3.014,3.014,0,0,1-1,.591A3.756,3.756,0,0,1,31.89.157a3.706,3.706,0,0,1-1.278-.212,3.06,3.06,0,0,1-1-.591,2.645,2.645,0,0,1-.66-.913A2.875,2.875,0,0,1,28.711-2.734Zm1.217-.1a2.316,2.316,0,0,0,.14.827,1.783,1.783,0,0,0,.4.629,1.731,1.731,0,0,0,.622.4,2.247,2.247,0,0,0,.81.14,2.134,2.134,0,0,0,.793-.144,1.848,1.848,0,0,0,.625-.4,1.813,1.813,0,0,0,.41-.629,2.2,2.2,0,0,0,.147-.82,2.1,2.1,0,0,0-.14-.769,1.925,1.925,0,0,0-.4-.632,1.879,1.879,0,0,0-.622-.431,2.024,2.024,0,0,0-.813-.157,2.046,2.046,0,0,0-.783.147,1.873,1.873,0,0,0-.622.41,1.9,1.9,0,0,0-.414.629A2.092,2.092,0,0,0,29.928-2.83Zm.349-4.546a1.633,1.633,0,0,0,.126.646,1.628,1.628,0,0,0,.349.52,1.638,1.638,0,0,0,.516.349,1.574,1.574,0,0,0,.629.126,1.562,1.562,0,0,0,.632-.13,1.634,1.634,0,0,0,.516-.352,1.706,1.706,0,0,0,.349-.52,1.579,1.579,0,0,0,.13-.639,1.676,1.676,0,0,0-.126-.656,1.606,1.606,0,0,0-.345-.52,1.616,1.616,0,0,0-.516-.345,1.616,1.616,0,0,0-.639-.126,1.631,1.631,0,0,0-.66.13,1.594,1.594,0,0,0-.513.352,1.539,1.539,0,0,0-.332.523A1.767,1.767,0,0,0,30.276-7.376ZM41.2-9.8,36.5,1.627H35.451L40.141-9.8Zm5.175,2.57a2.027,2.027,0,0,0-.14-.786,1.557,1.557,0,0,0-.383-.557,1.568,1.568,0,0,0-.571-.332,2.235,2.235,0,0,0-.711-.109,2.352,2.352,0,0,0-.643.089,3.124,3.124,0,0,0-.612.246,3.764,3.764,0,0,0-.574.376,4.148,4.148,0,0,0-.516.485v-1.2a3.352,3.352,0,0,1,1.056-.7,3.719,3.719,0,0,1,1.425-.243,3.441,3.441,0,0,1,1.114.174,2.555,2.555,0,0,1,.889.509,2.354,2.354,0,0,1,.591.827,2.79,2.79,0,0,1,.215,1.128,3.868,3.868,0,0,1-.133,1.053,3.256,3.256,0,0,1-.4.889,4.288,4.288,0,0,1-.68.8,9.635,9.635,0,0,1-.964.779q-.69.492-1.138.841a5.031,5.031,0,0,0-.711.653,1.894,1.894,0,0,0-.369.608,2.127,2.127,0,0,0-.106.7h4.881V0h-6.05V-.485a4.045,4.045,0,0,1,.137-1.107,2.876,2.876,0,0,1,.451-.909,5.046,5.046,0,0,1,.824-.861q.509-.431,1.248-.971a7.887,7.887,0,0,0,.892-.731,3.8,3.8,0,0,0,.578-.7,2.5,2.5,0,0,0,.311-.708A3.051,3.051,0,0,0,46.375-7.232Zm9.242,2.29A9.63,9.63,0,0,1,55.4-2.762a5.081,5.081,0,0,1-.643,1.6,2.892,2.892,0,0,1-1.032.991,2.826,2.826,0,0,1-1.391.338,2.639,2.639,0,0,1-1.316-.325,2.758,2.758,0,0,1-.974-.947,4.8,4.8,0,0,1-.6-1.528A9.447,9.447,0,0,1,49.232-4.7a10.694,10.694,0,0,1,.215-2.27,5.191,5.191,0,0,1,.632-1.651,2.814,2.814,0,0,1,1.036-1,2.908,2.908,0,0,1,1.418-.338Q55.617-9.967,55.617-4.942Zm-1.148.109q0-4.184-1.989-4.184-2.1,0-2.1,4.259,0,3.972,2.058,3.972Q54.469-.786,54.469-4.833Zm7-2.4a2.027,2.027,0,0,0-.14-.786,1.557,1.557,0,0,0-.383-.557,1.568,1.568,0,0,0-.571-.332,2.235,2.235,0,0,0-.711-.109,2.352,2.352,0,0,0-.643.089,3.124,3.124,0,0,0-.612.246,3.764,3.764,0,0,0-.574.376,4.148,4.148,0,0,0-.516.485v-1.2a3.352,3.352,0,0,1,1.056-.7A3.719,3.719,0,0,1,59.8-9.967a3.441,3.441,0,0,1,1.114.174,2.555,2.555,0,0,1,.889.509,2.354,2.354,0,0,1,.591.827,2.79,2.79,0,0,1,.215,1.128,3.868,3.868,0,0,1-.133,1.053,3.256,3.256,0,0,1-.4.889,4.288,4.288,0,0,1-.68.8,9.635,9.635,0,0,1-.964.779q-.69.492-1.138.841a5.031,5.031,0,0,0-.711.653,1.894,1.894,0,0,0-.369.608,2.127,2.127,0,0,0-.106.7h4.881V0h-6.05V-.485a4.045,4.045,0,0,1,.137-1.107,2.876,2.876,0,0,1,.451-.909,5.046,5.046,0,0,1,.824-.861q.509-.431,1.248-.971a7.887,7.887,0,0,0,.892-.731,3.8,3.8,0,0,0,.578-.7,2.5,2.5,0,0,0,.311-.708A3.051,3.051,0,0,0,61.469-7.232Zm9.242,2.29a9.63,9.63,0,0,1-.222,2.181,5.081,5.081,0,0,1-.643,1.6,2.892,2.892,0,0,1-1.032.991,2.826,2.826,0,0,1-1.391.338,2.639,2.639,0,0,1-1.316-.325,2.758,2.758,0,0,1-.974-.947,4.8,4.8,0,0,1-.6-1.528A9.447,9.447,0,0,1,64.326-4.7a10.694,10.694,0,0,1,.215-2.27,5.191,5.191,0,0,1,.632-1.651,2.814,2.814,0,0,1,1.036-1,2.908,2.908,0,0,1,1.418-.338Q70.711-9.967,70.711-4.942Zm-1.148.109q0-4.184-1.989-4.184-2.1,0-2.1,4.259,0,3.972,2.058,3.972Q69.563-.786,69.563-4.833Z" transform="translate(325 182)" fill="#31313a"/>
      <path id="Path_101150" data-name="Path 101150" d="M2.434-3.705V0H1.285V-9.8H3.979a3.555,3.555,0,0,1,2.437.766,2.734,2.734,0,0,1,.865,2.16,2.971,2.971,0,0,1-.96,2.283,3.67,3.67,0,0,1-2.594.889Zm0-5.059v4.02h1.2a2.69,2.69,0,0,0,1.815-.543,1.924,1.924,0,0,0,.625-1.535q0-1.941-2.3-1.941ZM14.636,0H13.515V-1.107h-.027A2.3,2.3,0,0,1,11.327.164q-2.5,0-2.5-2.98V-7H9.939v4.006q0,2.215,1.7,2.215a1.715,1.715,0,0,0,1.35-.6,2.315,2.315,0,0,0,.53-1.583V-7h1.121Zm3.411-1.012H18.02V0H16.9V-10.363H18.02V-5.77h.027a2.651,2.651,0,0,1,2.42-1.395,2.566,2.566,0,0,1,2.109.94,3.881,3.881,0,0,1,.762,2.519,4.339,4.339,0,0,1-.854,2.813A2.845,2.845,0,0,1,20.146.164,2.3,2.3,0,0,1,18.047-1.012ZM18.02-3.835v.978a2.081,2.081,0,0,0,.564,1.473,1.873,1.873,0,0,0,1.432.6,1.876,1.876,0,0,0,1.6-.779,3.575,3.575,0,0,0,.578-2.167,2.822,2.822,0,0,0-.54-1.832,1.787,1.787,0,0,0-1.463-.663,1.986,1.986,0,0,0-1.572.68A2.5,2.5,0,0,0,18.02-3.835ZM26.25,0H25.129V-10.363H26.25Zm2.844-8.777a.71.71,0,0,1-.513-.205.692.692,0,0,1-.212-.52.7.7,0,0,1,.212-.523.7.7,0,0,1,.513-.208.724.724,0,0,1,.523.208.7.7,0,0,1,.215.523.693.693,0,0,1-.215.513A.718.718,0,0,1,29.094-8.777ZM29.641,0H28.52V-7h1.121Zm7.041-.321a3.643,3.643,0,0,1-1.914.485A3.169,3.169,0,0,1,32.351-.81a3.53,3.53,0,0,1-.919-2.526,3.881,3.881,0,0,1,.991-2.779,3.468,3.468,0,0,1,2.646-1.049,3.682,3.682,0,0,1,1.627.342v1.148a2.85,2.85,0,0,0-1.668-.547,2.254,2.254,0,0,0-1.76.769,2.918,2.918,0,0,0-.687,2.02,2.779,2.779,0,0,0,.646,1.941,2.227,2.227,0,0,0,1.733.711,2.81,2.81,0,0,0,1.723-.608Z" transform="translate(502 86)" fill="#31313a"/>
      <path id="Path_101151" data-name="Path 101151" d="M2.434-3.705V0H1.285V-9.8H3.979a3.555,3.555,0,0,1,2.437.766,2.734,2.734,0,0,1,.865,2.16,2.971,2.971,0,0,1-.96,2.283,3.67,3.67,0,0,1-2.594.889Zm0-5.059v4.02h1.2a2.69,2.69,0,0,0,1.815-.543,1.924,1.924,0,0,0,.625-1.535q0-1.941-2.3-1.941Zm10.192,2.9a1.371,1.371,0,0,0-.848-.226,1.431,1.431,0,0,0-1.2.677A3.129,3.129,0,0,0,10.1-3.568V0H8.976V-7H10.1v1.442h.027a2.444,2.444,0,0,1,.731-1.152,1.668,1.668,0,0,1,1.1-.414,1.83,1.83,0,0,1,.67.1Zm1.791-2.912a.71.71,0,0,1-.513-.205.692.692,0,0,1-.212-.52.7.7,0,0,1,.212-.523.7.7,0,0,1,.513-.208.724.724,0,0,1,.523.208.7.7,0,0,1,.215.523.693.693,0,0,1-.215.513A.718.718,0,0,1,14.417-8.777ZM14.964,0H13.843V-7h1.121Zm7.772-7L19.947,0h-1.1L16.194-7h1.23L19.2-1.914a4.565,4.565,0,0,1,.246.978h.027a4.622,4.622,0,0,1,.219-.95L21.554-7ZM28.95,0H27.829V-1.094H27.8A2.347,2.347,0,0,1,25.648.164,2.3,2.3,0,0,1,24.011-.39a1.918,1.918,0,0,1-.591-1.47q0-1.962,2.311-2.283l2.1-.294q0-1.784-1.442-1.784a3.446,3.446,0,0,0-2.283.861V-6.508a4.338,4.338,0,0,1,2.379-.656q2.468,0,2.468,2.611ZM27.829-3.541l-1.688.232a2.741,2.741,0,0,0-1.176.386,1.114,1.114,0,0,0-.4.981,1.068,1.068,0,0,0,.366.837,1.413,1.413,0,0,0,.974.325,1.8,1.8,0,0,0,1.377-.584,2.088,2.088,0,0,0,.543-1.48ZM34.31-.068A2.161,2.161,0,0,1,33.264.15Q31.425.15,31.425-1.9V-6.043h-1.2V-7h1.2V-8.709l1.121-.362V-7H34.31v.957H32.546V-2.1a1.635,1.635,0,0,0,.239,1,.955.955,0,0,0,.793.3,1.179,1.179,0,0,0,.731-.232ZM41.433-3.22H36.49a2.618,2.618,0,0,0,.629,1.8,2.168,2.168,0,0,0,1.654.636,3.439,3.439,0,0,0,2.174-.779V-.506a4.063,4.063,0,0,1-2.44.67A2.959,2.959,0,0,1,36.176-.79a3.9,3.9,0,0,1-.848-2.683,3.828,3.828,0,0,1,.926-2.663,2.97,2.97,0,0,1,2.3-1.029,2.632,2.632,0,0,1,2.126.889,3.705,3.705,0,0,1,.752,2.468Zm-1.148-.95a2.281,2.281,0,0,0-.468-1.511,1.6,1.6,0,0,0-1.282-.54,1.811,1.811,0,0,0-1.347.567A2.575,2.575,0,0,0,36.5-4.17Z" transform="translate(502 134)" fill="#31313a"/>
      <path id="Path_101152" data-name="Path 101152" d="M2.434-3.705V0H1.285V-9.8H3.979a3.555,3.555,0,0,1,2.437.766,2.734,2.734,0,0,1,.865,2.16,2.971,2.971,0,0,1-.96,2.283,3.67,3.67,0,0,1-2.594.889Zm0-5.059v4.02h1.2a2.69,2.69,0,0,0,1.815-.543,1.924,1.924,0,0,0,.625-1.535q0-1.941-2.3-1.941Zm10.192,2.9a1.371,1.371,0,0,0-.848-.226,1.431,1.431,0,0,0-1.2.677A3.129,3.129,0,0,0,10.1-3.568V0H8.976V-7H10.1v1.442h.027a2.444,2.444,0,0,1,.731-1.152,1.668,1.668,0,0,1,1.1-.414,1.83,1.83,0,0,1,.67.1Zm1.791-2.912a.71.71,0,0,1-.513-.205.692.692,0,0,1-.212-.52.7.7,0,0,1,.212-.523.7.7,0,0,1,.513-.208.724.724,0,0,1,.523.208.7.7,0,0,1,.215.523.693.693,0,0,1-.215.513A.718.718,0,0,1,14.417-8.777ZM14.964,0H13.843V-7h1.121Zm7.772-7L19.947,0h-1.1L16.194-7h1.23L19.2-1.914a4.565,4.565,0,0,1,.246.978h.027a4.622,4.622,0,0,1,.219-.95L21.554-7ZM28.95,0H27.829V-1.094H27.8A2.347,2.347,0,0,1,25.648.164,2.3,2.3,0,0,1,24.011-.39a1.918,1.918,0,0,1-.591-1.47q0-1.962,2.311-2.283l2.1-.294q0-1.784-1.442-1.784a3.446,3.446,0,0,0-2.283.861V-6.508a4.338,4.338,0,0,1,2.379-.656q2.468,0,2.468,2.611ZM27.829-3.541l-1.688.232a2.741,2.741,0,0,0-1.176.386,1.114,1.114,0,0,0-.4.981,1.068,1.068,0,0,0,.366.837,1.413,1.413,0,0,0,.974.325,1.8,1.8,0,0,0,1.377-.584,2.088,2.088,0,0,0,.543-1.48ZM34.31-.068A2.161,2.161,0,0,1,33.264.15Q31.425.15,31.425-1.9V-6.043h-1.2V-7h1.2V-8.709l1.121-.362V-7H34.31v.957H32.546V-2.1a1.635,1.635,0,0,0,.239,1,.955.955,0,0,0,.793.3,1.179,1.179,0,0,0,.731-.232ZM41.433-3.22H36.49a2.618,2.618,0,0,0,.629,1.8,2.168,2.168,0,0,0,1.654.636,3.439,3.439,0,0,0,2.174-.779V-.506a4.063,4.063,0,0,1-2.44.67A2.959,2.959,0,0,1,36.176-.79a3.9,3.9,0,0,1-.848-2.683,3.828,3.828,0,0,1,.926-2.663,2.97,2.97,0,0,1,2.3-1.029,2.632,2.632,0,0,1,2.126.889,3.705,3.705,0,0,1,.752,2.468Zm-1.148-.95a2.281,2.281,0,0,0-.468-1.511,1.6,1.6,0,0,0-1.282-.54,1.811,1.811,0,0,0-1.347.567A2.575,2.575,0,0,0,36.5-4.17Z" transform="translate(502 182)" fill="#31313a"/>
      <path id="Path_101141" data-name="Path 101141" d="M8.873,0H7.6L6.563-2.748H2.406L1.429,0H.15L3.91-9.8H5.1ZM6.187-3.78,4.648-7.957a4,4,0,0,1-.15-.656H4.471a3.661,3.661,0,0,1-.157.656L2.789-3.78ZM16.14,0H15.019V-1.189h-.027A2.588,2.588,0,0,1,12.585.164a2.615,2.615,0,0,1-2.109-.94,3.856,3.856,0,0,1-.79-2.56,4.2,4.2,0,0,1,.875-2.782,2.886,2.886,0,0,1,2.331-1.046,2.244,2.244,0,0,1,2.1,1.135h.027v-4.334H16.14ZM15.019-3.165V-4.2a2,2,0,0,0-.561-1.436,1.88,1.88,0,0,0-1.422-.588,1.936,1.936,0,0,0-1.613.752,3.3,3.3,0,0,0-.588,2.078A2.964,2.964,0,0,0,11.4-1.48a1.843,1.843,0,0,0,1.514.7,1.915,1.915,0,0,0,1.521-.677A2.521,2.521,0,0,0,15.019-3.165ZM23.42,0H22.3V-1.094h-.027A2.347,2.347,0,0,1,20.118.164,2.3,2.3,0,0,1,18.481-.39a1.918,1.918,0,0,1-.591-1.47q0-1.962,2.311-2.283l2.1-.294q0-1.784-1.442-1.784a3.446,3.446,0,0,0-2.283.861V-6.508a4.338,4.338,0,0,1,2.379-.656q2.468,0,2.468,2.611ZM22.3-3.541l-1.688.232a2.741,2.741,0,0,0-1.176.386,1.114,1.114,0,0,0-.4.981A1.068,1.068,0,0,0,19.4-1.1a1.413,1.413,0,0,0,.974.325,1.8,1.8,0,0,0,1.377-.584,2.088,2.088,0,0,0,.543-1.48ZM35.472,0H34.351V-4.02A3.032,3.032,0,0,0,33.992-5.7a1.361,1.361,0,0,0-1.207-.52,1.494,1.494,0,0,0-1.22.656,2.511,2.511,0,0,0-.5,1.572V0H29.941V-4.156q0-2.064-1.593-2.064a1.475,1.475,0,0,0-1.217.619,2.557,2.557,0,0,0-.479,1.61V0H25.532V-7h1.121v1.107h.027a2.378,2.378,0,0,1,2.174-1.271,2.027,2.027,0,0,1,1.251.4,2.012,2.012,0,0,1,.731,1.049,2.5,2.5,0,0,1,2.324-1.449q2.311,0,2.311,2.851ZM48.9-.67a6.555,6.555,0,0,1-3.281.834,4.484,4.484,0,0,1-3.394-1.354,4.964,4.964,0,0,1-1.3-3.582,5.1,5.1,0,0,1,1.439-3.736A4.905,4.905,0,0,1,46.02-9.967a6.206,6.206,0,0,1,2.687.52v1.271a5.159,5.159,0,0,0-2.816-.752,3.519,3.519,0,0,0-2.7,1.135,4.15,4.15,0,0,0-1.053,2.939,4.153,4.153,0,0,0,.978,2.922A3.426,3.426,0,0,0,45.767-.868a4.1,4.1,0,0,0,1.989-.458V-4.074H45.609V-5.113H48.9Zm2.7-8.107a.71.71,0,0,1-.513-.205.692.692,0,0,1-.212-.52.7.7,0,0,1,.212-.523.7.7,0,0,1,.513-.208.724.724,0,0,1,.523.208.7.7,0,0,1,.215.523.693.693,0,0,1-.215.513A.718.718,0,0,1,51.6-8.777ZM52.151,0H51.03V-7h1.121Zm3.391,0H54.421V-10.363h1.121Zm1.846-.253v-1.2A3.318,3.318,0,0,0,59.4-.779q1.477,0,1.477-.984a.854.854,0,0,0-.126-.475,1.26,1.26,0,0,0-.342-.345,2.631,2.631,0,0,0-.506-.27q-.291-.12-.625-.25a8.056,8.056,0,0,1-.817-.373,2.468,2.468,0,0,1-.588-.424,1.577,1.577,0,0,1-.355-.537,1.9,1.9,0,0,1-.12-.7,1.673,1.673,0,0,1,.226-.872,2,2,0,0,1,.6-.636,2.805,2.805,0,0,1,.858-.386,3.805,3.805,0,0,1,.995-.13,4.016,4.016,0,0,1,1.627.314v1.135a3.171,3.171,0,0,0-1.777-.506,2.078,2.078,0,0,0-.567.072,1.389,1.389,0,0,0-.434.2.932.932,0,0,0-.28.311.819.819,0,0,0-.1.4.959.959,0,0,0,.1.458,1.008,1.008,0,0,0,.291.328,2.221,2.221,0,0,0,.465.26q.273.116.622.253a8.658,8.658,0,0,1,.834.366,2.86,2.86,0,0,1,.629.424,1.656,1.656,0,0,1,.4.543,1.753,1.753,0,0,1,.14.731,1.725,1.725,0,0,1-.229.9,1.963,1.963,0,0,1-.612.636,2.8,2.8,0,0,1-.882.376,4.354,4.354,0,0,1-1.046.123A3.971,3.971,0,0,1,57.388-.253Zm9.29.417A3.247,3.247,0,0,1,64.2-.817a3.634,3.634,0,0,1-.926-2.6,3.785,3.785,0,0,1,.964-2.755,3.465,3.465,0,0,1,2.6-.991,3.14,3.14,0,0,1,2.444.964,3.822,3.822,0,0,1,.878,2.673,3.761,3.761,0,0,1-.947,2.683A3.317,3.317,0,0,1,66.678.164Zm.082-6.385a2.132,2.132,0,0,0-1.709.735,3.018,3.018,0,0,0-.629,2.027A2.854,2.854,0,0,0,65.058-1.5a2.161,2.161,0,0,0,1.7.718,2.049,2.049,0,0,0,1.671-.7,3.055,3.055,0,0,0,.584-2,3.108,3.108,0,0,0-.584-2.023A2.04,2.04,0,0,0,66.76-6.221ZM77.766,0H76.645V-3.992q0-2.229-1.627-2.229a1.765,1.765,0,0,0-1.391.632,2.344,2.344,0,0,0-.55,1.6V0H71.955V-7h1.121v1.162H73.1a2.526,2.526,0,0,1,2.3-1.326,2.142,2.142,0,0,1,1.757.742,3.3,3.3,0,0,1,.608,2.143Z" transform="translate(607 86)" fill="#31313a"/>
      <path id="Path_101142" data-name="Path 101142" d="M8.873,0H7.6L6.563-2.748H2.406L1.429,0H.15L3.91-9.8H5.1ZM6.187-3.78,4.648-7.957a4,4,0,0,1-.15-.656H4.471a3.661,3.661,0,0,1-.157.656L2.789-3.78ZM16.14,0H15.019V-1.189h-.027A2.588,2.588,0,0,1,12.585.164a2.615,2.615,0,0,1-2.109-.94,3.856,3.856,0,0,1-.79-2.56,4.2,4.2,0,0,1,.875-2.782,2.886,2.886,0,0,1,2.331-1.046,2.244,2.244,0,0,1,2.1,1.135h.027v-4.334H16.14ZM15.019-3.165V-4.2a2,2,0,0,0-.561-1.436,1.88,1.88,0,0,0-1.422-.588,1.936,1.936,0,0,0-1.613.752,3.3,3.3,0,0,0-.588,2.078A2.964,2.964,0,0,0,11.4-1.48a1.843,1.843,0,0,0,1.514.7,1.915,1.915,0,0,0,1.521-.677A2.521,2.521,0,0,0,15.019-3.165ZM23.42,0H22.3V-1.094h-.027A2.347,2.347,0,0,1,20.118.164,2.3,2.3,0,0,1,18.481-.39a1.918,1.918,0,0,1-.591-1.47q0-1.962,2.311-2.283l2.1-.294q0-1.784-1.442-1.784a3.446,3.446,0,0,0-2.283.861V-6.508a4.338,4.338,0,0,1,2.379-.656q2.468,0,2.468,2.611ZM22.3-3.541l-1.688.232a2.741,2.741,0,0,0-1.176.386,1.114,1.114,0,0,0-.4.981A1.068,1.068,0,0,0,19.4-1.1a1.413,1.413,0,0,0,.974.325,1.8,1.8,0,0,0,1.377-.584,2.088,2.088,0,0,0,.543-1.48ZM35.472,0H34.351V-4.02A3.032,3.032,0,0,0,33.992-5.7a1.361,1.361,0,0,0-1.207-.52,1.494,1.494,0,0,0-1.22.656,2.511,2.511,0,0,0-.5,1.572V0H29.941V-4.156q0-2.064-1.593-2.064a1.475,1.475,0,0,0-1.217.619,2.557,2.557,0,0,0-.479,1.61V0H25.532V-7h1.121v1.107h.027a2.378,2.378,0,0,1,2.174-1.271,2.027,2.027,0,0,1,1.251.4,2.012,2.012,0,0,1,.731,1.049,2.5,2.5,0,0,1,2.324-1.449q2.311,0,2.311,2.851ZM48.9-.67a6.555,6.555,0,0,1-3.281.834,4.484,4.484,0,0,1-3.394-1.354,4.964,4.964,0,0,1-1.3-3.582,5.1,5.1,0,0,1,1.439-3.736A4.905,4.905,0,0,1,46.02-9.967a6.206,6.206,0,0,1,2.687.52v1.271a5.159,5.159,0,0,0-2.816-.752,3.519,3.519,0,0,0-2.7,1.135,4.15,4.15,0,0,0-1.053,2.939,4.153,4.153,0,0,0,.978,2.922A3.426,3.426,0,0,0,45.767-.868a4.1,4.1,0,0,0,1.989-.458V-4.074H45.609V-5.113H48.9Zm2.7-8.107a.71.71,0,0,1-.513-.205.692.692,0,0,1-.212-.52.7.7,0,0,1,.212-.523.7.7,0,0,1,.513-.208.724.724,0,0,1,.523.208.7.7,0,0,1,.215.523.693.693,0,0,1-.215.513A.718.718,0,0,1,51.6-8.777ZM52.151,0H51.03V-7h1.121Zm3.391,0H54.421V-10.363h1.121Zm1.846-.253v-1.2A3.318,3.318,0,0,0,59.4-.779q1.477,0,1.477-.984a.854.854,0,0,0-.126-.475,1.26,1.26,0,0,0-.342-.345,2.631,2.631,0,0,0-.506-.27q-.291-.12-.625-.25a8.056,8.056,0,0,1-.817-.373,2.468,2.468,0,0,1-.588-.424,1.577,1.577,0,0,1-.355-.537,1.9,1.9,0,0,1-.12-.7,1.673,1.673,0,0,1,.226-.872,2,2,0,0,1,.6-.636,2.805,2.805,0,0,1,.858-.386,3.805,3.805,0,0,1,.995-.13,4.016,4.016,0,0,1,1.627.314v1.135a3.171,3.171,0,0,0-1.777-.506,2.078,2.078,0,0,0-.567.072,1.389,1.389,0,0,0-.434.2.932.932,0,0,0-.28.311.819.819,0,0,0-.1.4.959.959,0,0,0,.1.458,1.008,1.008,0,0,0,.291.328,2.221,2.221,0,0,0,.465.26q.273.116.622.253a8.658,8.658,0,0,1,.834.366,2.86,2.86,0,0,1,.629.424,1.656,1.656,0,0,1,.4.543,1.753,1.753,0,0,1,.14.731,1.725,1.725,0,0,1-.229.9,1.963,1.963,0,0,1-.612.636,2.8,2.8,0,0,1-.882.376,4.354,4.354,0,0,1-1.046.123A3.971,3.971,0,0,1,57.388-.253Zm9.29.417A3.247,3.247,0,0,1,64.2-.817a3.634,3.634,0,0,1-.926-2.6,3.785,3.785,0,0,1,.964-2.755,3.465,3.465,0,0,1,2.6-.991,3.14,3.14,0,0,1,2.444.964,3.822,3.822,0,0,1,.878,2.673,3.761,3.761,0,0,1-.947,2.683A3.317,3.317,0,0,1,66.678.164Zm.082-6.385a2.132,2.132,0,0,0-1.709.735,3.018,3.018,0,0,0-.629,2.027A2.854,2.854,0,0,0,65.058-1.5a2.161,2.161,0,0,0,1.7.718,2.049,2.049,0,0,0,1.671-.7,3.055,3.055,0,0,0,.584-2,3.108,3.108,0,0,0-.584-2.023A2.04,2.04,0,0,0,66.76-6.221ZM77.766,0H76.645V-3.992q0-2.229-1.627-2.229a1.765,1.765,0,0,0-1.391.632,2.344,2.344,0,0,0-.55,1.6V0H71.955V-7h1.121v1.162H73.1a2.526,2.526,0,0,1,2.3-1.326,2.142,2.142,0,0,1,1.757.742,3.3,3.3,0,0,1,.608,2.143Z" transform="translate(607 134)" fill="#31313a"/>
      <path id="Path_101143" data-name="Path 101143" d="M8.873,0H7.6L6.563-2.748H2.406L1.429,0H.15L3.91-9.8H5.1ZM6.187-3.78,4.648-7.957a4,4,0,0,1-.15-.656H4.471a3.661,3.661,0,0,1-.157.656L2.789-3.78ZM16.14,0H15.019V-1.189h-.027A2.588,2.588,0,0,1,12.585.164a2.615,2.615,0,0,1-2.109-.94,3.856,3.856,0,0,1-.79-2.56,4.2,4.2,0,0,1,.875-2.782,2.886,2.886,0,0,1,2.331-1.046,2.244,2.244,0,0,1,2.1,1.135h.027v-4.334H16.14ZM15.019-3.165V-4.2a2,2,0,0,0-.561-1.436,1.88,1.88,0,0,0-1.422-.588,1.936,1.936,0,0,0-1.613.752,3.3,3.3,0,0,0-.588,2.078A2.964,2.964,0,0,0,11.4-1.48a1.843,1.843,0,0,0,1.514.7,1.915,1.915,0,0,0,1.521-.677A2.521,2.521,0,0,0,15.019-3.165ZM23.42,0H22.3V-1.094h-.027A2.347,2.347,0,0,1,20.118.164,2.3,2.3,0,0,1,18.481-.39a1.918,1.918,0,0,1-.591-1.47q0-1.962,2.311-2.283l2.1-.294q0-1.784-1.442-1.784a3.446,3.446,0,0,0-2.283.861V-6.508a4.338,4.338,0,0,1,2.379-.656q2.468,0,2.468,2.611ZM22.3-3.541l-1.688.232a2.741,2.741,0,0,0-1.176.386,1.114,1.114,0,0,0-.4.981A1.068,1.068,0,0,0,19.4-1.1a1.413,1.413,0,0,0,.974.325,1.8,1.8,0,0,0,1.377-.584,2.088,2.088,0,0,0,.543-1.48ZM35.472,0H34.351V-4.02A3.032,3.032,0,0,0,33.992-5.7a1.361,1.361,0,0,0-1.207-.52,1.494,1.494,0,0,0-1.22.656,2.511,2.511,0,0,0-.5,1.572V0H29.941V-4.156q0-2.064-1.593-2.064a1.475,1.475,0,0,0-1.217.619,2.557,2.557,0,0,0-.479,1.61V0H25.532V-7h1.121v1.107h.027a2.378,2.378,0,0,1,2.174-1.271,2.027,2.027,0,0,1,1.251.4,2.012,2.012,0,0,1,.731,1.049,2.5,2.5,0,0,1,2.324-1.449q2.311,0,2.311,2.851ZM48.9-.67a6.555,6.555,0,0,1-3.281.834,4.484,4.484,0,0,1-3.394-1.354,4.964,4.964,0,0,1-1.3-3.582,5.1,5.1,0,0,1,1.439-3.736A4.905,4.905,0,0,1,46.02-9.967a6.206,6.206,0,0,1,2.687.52v1.271a5.159,5.159,0,0,0-2.816-.752,3.519,3.519,0,0,0-2.7,1.135,4.15,4.15,0,0,0-1.053,2.939,4.153,4.153,0,0,0,.978,2.922A3.426,3.426,0,0,0,45.767-.868a4.1,4.1,0,0,0,1.989-.458V-4.074H45.609V-5.113H48.9Zm2.7-8.107a.71.71,0,0,1-.513-.205.692.692,0,0,1-.212-.52.7.7,0,0,1,.212-.523.7.7,0,0,1,.513-.208.724.724,0,0,1,.523.208.7.7,0,0,1,.215.523.693.693,0,0,1-.215.513A.718.718,0,0,1,51.6-8.777ZM52.151,0H51.03V-7h1.121Zm3.391,0H54.421V-10.363h1.121Zm1.846-.253v-1.2A3.318,3.318,0,0,0,59.4-.779q1.477,0,1.477-.984a.854.854,0,0,0-.126-.475,1.26,1.26,0,0,0-.342-.345,2.631,2.631,0,0,0-.506-.27q-.291-.12-.625-.25a8.056,8.056,0,0,1-.817-.373,2.468,2.468,0,0,1-.588-.424,1.577,1.577,0,0,1-.355-.537,1.9,1.9,0,0,1-.12-.7,1.673,1.673,0,0,1,.226-.872,2,2,0,0,1,.6-.636,2.805,2.805,0,0,1,.858-.386,3.805,3.805,0,0,1,.995-.13,4.016,4.016,0,0,1,1.627.314v1.135a3.171,3.171,0,0,0-1.777-.506,2.078,2.078,0,0,0-.567.072,1.389,1.389,0,0,0-.434.2.932.932,0,0,0-.28.311.819.819,0,0,0-.1.4.959.959,0,0,0,.1.458,1.008,1.008,0,0,0,.291.328,2.221,2.221,0,0,0,.465.26q.273.116.622.253a8.658,8.658,0,0,1,.834.366,2.86,2.86,0,0,1,.629.424,1.656,1.656,0,0,1,.4.543,1.753,1.753,0,0,1,.14.731,1.725,1.725,0,0,1-.229.9,1.963,1.963,0,0,1-.612.636,2.8,2.8,0,0,1-.882.376,4.354,4.354,0,0,1-1.046.123A3.971,3.971,0,0,1,57.388-.253Zm9.29.417A3.247,3.247,0,0,1,64.2-.817a3.634,3.634,0,0,1-.926-2.6,3.785,3.785,0,0,1,.964-2.755,3.465,3.465,0,0,1,2.6-.991,3.14,3.14,0,0,1,2.444.964,3.822,3.822,0,0,1,.878,2.673,3.761,3.761,0,0,1-.947,2.683A3.317,3.317,0,0,1,66.678.164Zm.082-6.385a2.132,2.132,0,0,0-1.709.735,3.018,3.018,0,0,0-.629,2.027A2.854,2.854,0,0,0,65.058-1.5a2.161,2.161,0,0,0,1.7.718,2.049,2.049,0,0,0,1.671-.7,3.055,3.055,0,0,0,.584-2,3.108,3.108,0,0,0-.584-2.023A2.04,2.04,0,0,0,66.76-6.221ZM77.766,0H76.645V-3.992q0-2.229-1.627-2.229a1.765,1.765,0,0,0-1.391.632,2.344,2.344,0,0,0-.55,1.6V0H71.955V-7h1.121v1.162H73.1a2.526,2.526,0,0,1,2.3-1.326,2.142,2.142,0,0,1,1.757.742,3.3,3.3,0,0,1,.608,2.143Z" transform="translate(607 182)" fill="#31313a"/>
      <g id="Lock" transform="translate(484 128.05)">
        <g id="Lock-2" data-name="Lock" transform="translate(-8 -8.05)">
          <rect id="Rectangle_9758" data-name="Rectangle 9758" width="16" height="16" fill="none"/>
          <path id="Path_101146" data-name="Path 101146" d="M8.4,9.1a1.5,1.5,0,0,0-1.9,1v.3a1.5,1.5,0,0,0,.5,1v1.1a1,1,0,0,0,2,0V11.4A1.4,1.4,0,0,0,8.4,9Z" fill="#30302f"/>
          <path id="Path_101147" data-name="Path 101147" d="M13.6,6.5H12V4A4,4,0,0,0,4,4V6.5H2.4a.9.9,0,0,0-.9.9v7.8a.9.9,0,0,0,.9.9H13.6a.9.9,0,0,0,.9-.9h0V7.4a.9.9,0,0,0-.9-.9ZM5.5,4a2.5,2.5,0,0,1,5,0V6.5h-5ZM13,14.5H3V8H13Z" fill="#30302f"/>
        </g>
      </g>
      <g id="Lock-3" data-name="Lock" transform="translate(484 176.05)">
        <g id="Lock-4" data-name="Lock" transform="translate(-8 -8.05)">
          <rect id="Rectangle_9758-2" data-name="Rectangle 9758" width="16" height="16" fill="none"/>
          <path id="Path_101146-2" data-name="Path 101146" d="M8.4,9.1a1.5,1.5,0,0,0-1.9,1v.3a1.5,1.5,0,0,0,.5,1v1.1a1,1,0,0,0,2,0V11.4A1.4,1.4,0,0,0,8.4,9Z" fill="#30302f"/>
          <path id="Path_101147-2" data-name="Path 101147" d="M13.6,6.5H12V4A4,4,0,0,0,4,4V6.5H2.4a.9.9,0,0,0-.9.9v7.8a.9.9,0,0,0,.9.9H13.6a.9.9,0,0,0,.9-.9h0V7.4a.9.9,0,0,0-.9-.9ZM5.5,4a2.5,2.5,0,0,1,5,0V6.5h-5ZM13,14.5H3V8H13Z" fill="#30302f"/>
        </g>
      </g>
    </g>
    <rect id="Rectangle_3990" data-name="Rectangle 3990" width="145.394" height="33" rx="16.5" transform="translate(630 19)" fill="#2777d3"/>
    <g id="Group_12529" data-name="Group 12529" transform="translate(630 17)">
      <path id="Path_101155" data-name="Path 101155" d="M9.263,0H7.479L6.6-2.5H2.741L1.894,0H.116L3.787-9.8H5.619Zm-3.1-3.821-1.36-3.91a4.631,4.631,0,0,1-.13-.615H4.648a4,4,0,0,1-.137.615L3.165-3.821ZM16.8,0H15.21V-1.189h-.027A2.53,2.53,0,0,1,12.824.164a2.546,2.546,0,0,1-2.068-.94,3.9,3.9,0,0,1-.776-2.56,4.251,4.251,0,0,1,.858-2.782,2.808,2.808,0,0,1,2.287-1.046,2.19,2.19,0,0,1,2.058,1.135h.027v-4.334H16.8ZM15.23-3.2v-.916a1.785,1.785,0,0,0-.485-1.265,1.619,1.619,0,0,0-1.237-.52,1.666,1.666,0,0,0-1.4.663A2.955,2.955,0,0,0,11.6-3.4a2.648,2.648,0,0,0,.489,1.685,1.59,1.59,0,0,0,1.316.619,1.646,1.646,0,0,0,1.319-.6A2.253,2.253,0,0,0,15.23-3.2Zm10,3.2H23.646V-1.189h-.027A2.53,2.53,0,0,1,21.26.164a2.546,2.546,0,0,1-2.068-.94,3.9,3.9,0,0,1-.776-2.56,4.251,4.251,0,0,1,.858-2.782,2.808,2.808,0,0,1,2.287-1.046,2.19,2.19,0,0,1,2.058,1.135h.027v-4.334h1.586ZM23.666-3.2v-.916a1.785,1.785,0,0,0-.485-1.265,1.619,1.619,0,0,0-1.237-.52,1.666,1.666,0,0,0-1.4.663A2.955,2.955,0,0,0,20.036-3.4a2.648,2.648,0,0,0,.489,1.685,1.59,1.59,0,0,0,1.316.619,1.646,1.646,0,0,0,1.319-.6A2.253,2.253,0,0,0,23.666-3.2ZM36.524,0H34.986V-1.094h-.027A2.316,2.316,0,0,1,32.833.164,2.239,2.239,0,0,1,31.216-.4a1.961,1.961,0,0,1-.584-1.483q0-1.982,2.283-2.311l2.078-.294q0-1.5-1.422-1.5a3.378,3.378,0,0,0-2.256.861V-6.508a4.919,4.919,0,0,1,2.557-.656,2.326,2.326,0,0,1,2.652,2.611ZM34.993-3.438l-1.47.205a2.33,2.33,0,0,0-1.029.332.969.969,0,0,0-.345.851.932.932,0,0,0,.318.728,1.231,1.231,0,0,0,.851.284,1.57,1.57,0,0,0,1.2-.509,1.806,1.806,0,0,0,.475-1.282ZM48.542,0H46.956V-3.944q0-1.962-1.388-1.962a1.515,1.515,0,0,0-1.2.543A2.016,2.016,0,0,0,43.9-3.992V0H42.308V-7H43.9v1.162h.027A2.5,2.5,0,0,1,46.2-7.164a2.114,2.114,0,0,1,1.743.742,3.33,3.33,0,0,1,.6,2.143ZM56.4-3.069H51.632a2.017,2.017,0,0,0,.6,1.5,2.225,2.225,0,0,0,1.569.526,3.459,3.459,0,0,0,2.058-.67V-.437a4.7,4.7,0,0,1-2.529.6A3.131,3.131,0,0,1,50.9-.79a3.814,3.814,0,0,1-.878-2.683,3.73,3.73,0,0,1,.967-2.663,3.164,3.164,0,0,1,2.4-1.029,2.759,2.759,0,0,1,2.222.923A3.832,3.832,0,0,1,56.4-3.678ZM54.872-4.19a2.044,2.044,0,0,0-.4-1.33A1.348,1.348,0,0,0,53.375-6a1.539,1.539,0,0,0-1.159.5,2.28,2.28,0,0,0-.584,1.306ZM67.327-7,65.263,0H63.6L62.33-4.744a3,3,0,0,1-.1-.615h-.027a2.8,2.8,0,0,1-.123.6L60.7,0H59.076L57.019-7h1.641l1.271,5.045a2.989,2.989,0,0,1,.082.6h.048a3.249,3.249,0,0,1,.109-.615L61.585-7h1.49l1.258,5.065a3.543,3.543,0,0,1,.089.6h.048a3.191,3.191,0,0,1,.1-.6L65.816-7Zm6.617,7H72.352V-10.363h1.593Zm2.864-8.47a.953.953,0,0,1-.667-.253.832.832,0,0,1-.277-.643.854.854,0,0,1,.277-.649.939.939,0,0,1,.667-.26.969.969,0,0,1,.684.26.849.849,0,0,1,.28.649.837.837,0,0,1-.28.632A.962.962,0,0,1,76.809-8.47ZM77.595,0H76.009V-7h1.586Zm1.634-.219v-1.47a3.164,3.164,0,0,0,1.962.677q1.436,0,1.436-.848a.668.668,0,0,0-.123-.407,1.175,1.175,0,0,0-.332-.3,2.607,2.607,0,0,0-.492-.232q-.284-.1-.632-.232a6.694,6.694,0,0,1-.776-.362,2.344,2.344,0,0,1-.574-.434,1.639,1.639,0,0,1-.345-.55,2.026,2.026,0,0,1-.116-.718,1.659,1.659,0,0,1,.239-.892,2.079,2.079,0,0,1,.643-.649,3.081,3.081,0,0,1,.916-.4,4.194,4.194,0,0,1,1.06-.133,4.817,4.817,0,0,1,1.736.294v1.388a2.927,2.927,0,0,0-1.7-.506,2.214,2.214,0,0,0-.543.062,1.4,1.4,0,0,0-.414.171.841.841,0,0,0-.267.263.628.628,0,0,0-.1.338.723.723,0,0,0,.1.383.869.869,0,0,0,.284.277,2.451,2.451,0,0,0,.451.219q.263.1.6.215a8.839,8.839,0,0,1,.81.376,2.737,2.737,0,0,1,.612.434,1.7,1.7,0,0,1,.39.561,1.9,1.9,0,0,1,.137.755,1.727,1.727,0,0,1-.246.93,2.051,2.051,0,0,1-.656.656,3.072,3.072,0,0,1-.947.386,4.919,4.919,0,0,1-1.131.126A4.767,4.767,0,0,1,79.229-.219Zm10.165.144A2.748,2.748,0,0,1,88.17.157q-2.037,0-2.037-1.955V-5.756H84.964V-7h1.169V-8.62l1.586-.451V-7h1.675v1.244H87.719v3.5a1.379,1.379,0,0,0,.226.889A.936.936,0,0,0,88.7-1.1a1.09,1.09,0,0,0,.7-.232Z" transform="translate(41 23)" fill="#fff"/>
      <g id="Add" transform="translate(23 18)">
        <g id="Add-2" data-name="Add" transform="translate(-8 -8)">
          <path id="Path_101153" data-name="Path 101153" d="M14,7.5v1a.5.5,0,0,1-.5.5H9v4.5a.5.5,0,0,1-.5.5h-1a.5.5,0,0,1-.5-.5V9H2.5A.5.5,0,0,1,2,8.5v-1A.5.5,0,0,1,2.5,7H7V2.5A.5.5,0,0,1,7.5,2h1a.5.5,0,0,1,.5.5V7h4.5A.5.5,0,0,1,14,7.5Z" fill="#fff"/>
          <rect id="Rectangle_9760" data-name="Rectangle 9760" width="16" height="16" fill="none"/>
        </g>
      </g>
    </g>
    <path id="Path_101334" data-name="Path 101334" d="M9.482,0H1.729V-14H4.053V-1.963h5.43Zm2.91-12.1a1.362,1.362,0,0,1-.952-.361,1.189,1.189,0,0,1-.4-.918,1.219,1.219,0,0,1,.4-.928,1.342,1.342,0,0,1,.952-.371,1.384,1.384,0,0,1,.977.371,1.212,1.212,0,0,1,.4.928,1.2,1.2,0,0,1-.4.9A1.374,1.374,0,0,1,12.393-12.1ZM13.516,0H11.25V-10h2.266ZM15.85-.312v-2.1a4.52,4.52,0,0,0,2.8.967q2.051,0,2.051-1.211a.954.954,0,0,0-.176-.581,1.678,1.678,0,0,0-.474-.425,3.724,3.724,0,0,0-.7-.332q-.405-.146-.9-.332a9.563,9.563,0,0,1-1.108-.518,3.349,3.349,0,0,1-.82-.62,2.341,2.341,0,0,1-.493-.786,2.9,2.9,0,0,1-.166-1.025A2.37,2.37,0,0,1,16.2-8.55a2.97,2.97,0,0,1,.918-.928,4.4,4.4,0,0,1,1.309-.566,5.991,5.991,0,0,1,1.514-.19,6.881,6.881,0,0,1,2.48.42v1.982A4.181,4.181,0,0,0,20-8.555a3.163,3.163,0,0,0-.776.088,2,2,0,0,0-.591.244,1.2,1.2,0,0,0-.381.376.9.9,0,0,0-.137.483,1.033,1.033,0,0,0,.137.547,1.242,1.242,0,0,0,.405.4,3.5,3.5,0,0,0,.645.313q.376.142.864.308a12.627,12.627,0,0,1,1.157.537,3.911,3.911,0,0,1,.874.62,2.431,2.431,0,0,1,.557.8,2.719,2.719,0,0,1,.2,1.079A2.467,2.467,0,0,1,22.6-1.436,2.93,2.93,0,0,1,21.66-.5a4.388,4.388,0,0,1-1.353.552,7.026,7.026,0,0,1-1.616.181A6.81,6.81,0,0,1,15.85-.312Zm14.521.205a3.926,3.926,0,0,1-1.748.332q-2.91,0-2.91-2.793V-8.223h-1.67V-10h1.67v-2.314l2.266-.645V-10h2.393v1.777H27.979v5a1.97,1.97,0,0,0,.322,1.27,1.338,1.338,0,0,0,1.074.381,1.558,1.558,0,0,0,1-.332ZM31.7-.312v-2.1a4.52,4.52,0,0,0,2.8.967q2.051,0,2.051-1.211a.954.954,0,0,0-.176-.581,1.678,1.678,0,0,0-.474-.425,3.724,3.724,0,0,0-.7-.332q-.405-.146-.9-.332a9.563,9.563,0,0,1-1.108-.518,3.349,3.349,0,0,1-.82-.62,2.341,2.341,0,0,1-.493-.786,2.9,2.9,0,0,1-.166-1.025,2.37,2.37,0,0,1,.342-1.274,2.97,2.97,0,0,1,.918-.928,4.4,4.4,0,0,1,1.309-.566,5.991,5.991,0,0,1,1.514-.19,6.881,6.881,0,0,1,2.48.42v1.982a4.181,4.181,0,0,0-2.422-.723,3.163,3.163,0,0,0-.776.088,2,2,0,0,0-.591.244,1.2,1.2,0,0,0-.381.376.9.9,0,0,0-.137.483,1.033,1.033,0,0,0,.137.547,1.242,1.242,0,0,0,.405.4,3.5,3.5,0,0,0,.645.313q.376.142.864.308a12.627,12.627,0,0,1,1.157.537,3.911,3.911,0,0,1,.874.62,2.431,2.431,0,0,1,.557.8,2.719,2.719,0,0,1,.2,1.079,2.467,2.467,0,0,1-.352,1.328A2.93,2.93,0,0,1,37.51-.5a4.388,4.388,0,0,1-1.353.552,7.026,7.026,0,0,1-1.616.181A6.81,6.81,0,0,1,31.7-.312Z" transform="translate(26 47)" fill="#31313a"/>
  </g>
</svg>
