<svg xmlns="http://www.w3.org/2000/svg" xmlns:xlink="http://www.w3.org/1999/xlink" width="300" height="200" viewBox="0 0 300 200">
  <defs>
    <filter id="Rectangle_3883" x="-689.771" y="85.061" width="898.508" height="673.339" filterUnits="userSpaceOnUse">
      <feOffset dy="8" input="SourceAlpha"/>
      <feGaussianBlur stdDeviation="5" result="blur"/>
      <feFlood flood-opacity="0.4"/>
      <feComposite operator="in" in2="blur"/>
      <feComposite in="SourceGraphic"/>
    </filter>
    <filter id="Rectangle_3882" x="-719.771" y="53.061" width="958.508" height="733.339" filterUnits="userSpaceOnUse">
      <feOffset dy="6" input="SourceAlpha"/>
      <feGaussianBlur stdDeviation="15" result="blur-2"/>
      <feFlood flood-opacity="0.122"/>
      <feComposite operator="in" in2="blur-2"/>
      <feComposite in="SourceGraphic"/>
    </filter>
    <filter id="Rectangle_3880" x="-680.771" y="92.061" width="880.508" height="665.339" filterUnits="userSpaceOnUse">
      <feOffset dy="16" input="SourceAlpha"/>
      <feGaussianBlur stdDeviation="2" result="blur-3"/>
      <feFlood flood-opacity="0.141"/>
      <feComposite operator="in" in2="blur-3"/>
      <feComposite in="SourceGraphic"/>
    </filter>
    <clipPath id="clip-close_Hover">
      <rect width="300" height="200"/>
    </clipPath>
  </defs>
  <g id="close_Hover" clip-path="url(#clip-close_Hover)">
    <rect width="300" height="200" fill="rgba(0,0,0,0.58)"/>
    <g id="Group_7710" data-name="Group 7710" transform="translate(-674.771 92.061)">
      <g transform="matrix(1, 0, 0, 1, 674.77, -92.06)" filter="url(#Rectangle_3883)">
        <rect id="Rectangle_3883-2" data-name="Rectangle 3883" width="868.508" height="643.339" transform="translate(-674.77 92.06)" fill="#fff"/>
      </g>
      <g transform="matrix(1, 0, 0, 1, 674.77, -92.06)" filter="url(#Rectangle_3882)">
        <rect id="Rectangle_3882-2" data-name="Rectangle 3882" width="868.508" height="643.339" transform="translate(-674.77 92.06)" fill="#fff"/>
      </g>
      <g transform="matrix(1, 0, 0, 1, 674.77, -92.06)" filter="url(#Rectangle_3880)">
        <rect id="Rectangle_3880-2" data-name="Rectangle 3880" width="868.508" height="643.339" transform="translate(-674.77 92.06)" fill="#fff"/>
      </g>
    </g>
    <path id="Path_5557" data-name="Path 5557" d="M27.24,0A27.24,27.24,0,1,1,0,27.24,27.24,27.24,0,0,1,27.24,0Z" transform="translate(188.371 45.521)" fill="#e6e6ea"/>
    <path id="Path_5558" data-name="Path 5558" d="M756.858,33.125a2.569,2.569,0,1,1-3.633,3.633l-5.882-5.882-5.882,5.882a2.569,2.569,0,1,1-3.633-3.633l5.882-5.882-5.882-5.882a2.569,2.569,0,1,1,3.633-3.633l5.882,5.882,5.882-5.882a2.569,2.569,0,1,1,3.633,3.633l-5.882,5.882Z" transform="translate(-531.732 45.517)" fill="#78788c"/>
  </g>
</svg>
