<svg xmlns="http://www.w3.org/2000/svg" xmlns:xlink="http://www.w3.org/1999/xlink" viewBox="0 0 186 203"><defs><clipPath id="a" transform="translate(0 -2.05)"><path d="M150.32,36.3V24.77a2.72,2.72,0,0,0-2.72-2.72H123.32V16.8a3.76,3.76,0,0,0-3.75-3.75H95.32v-.5A12.52,12.52,0,0,0,82.46,0C75.62.19,70.32,6.11,70.32,13v.1H46.07a3.76,3.76,0,0,0-3.75,3.75v5.25H17a2.72,2.72,0,0,0-2.72,2.72V61.58a89.55,89.55,0,0,0,0,87.59,89.94,89.94,0,1,0,136-112.87Z" style="fill:none"/></clipPath><clipPath id="b" transform="translate(0 -2.05)"><path d="M119.58,16.05H93.32v-2.5a10.5,10.5,0,0,0-21,0v2.5H46.06a1.74,1.74,0,0,0-1.74,1.74V36.3a1.76,1.76,0,0,0,1.75,1.75h73.51a1.74,1.74,0,0,0,1.74-1.74V17.79A1.74,1.74,0,0,0,119.58,16.05Zm-37,1.34A3.5,3.5,0,1,1,86,13.9,3.5,3.5,0,0,1,82.54,17.39Z" style="fill:none"/></clipPath><clipPath id="c" transform="translate(0 -2.05)"><circle cx="92.82" cy="105.55" r="89.5" style="fill:none"/></clipPath></defs><title>Static</title><path d="M147.79,33.26A91,91,0,1,1,36.46,34.62Z" transform="translate(0 -2.05)" style="fill:#fff"/><path d="M93,198.92A93,93,0,0,1,35.21,33.05l2.49,3.13A89,89,0,1,0,182,105.92a88.35,88.35,0,0,0-35.41-71.06L149,31.67A93,93,0,0,1,93,198.92Z" transform="translate(0 -2.05)" style="fill:#205fa9"/><g style="clip-path:url(#a)"><rect x="16.32" y="22" width="133" height="180" rx="1.71" style="fill:#5590cc;stroke:#122e52;stroke-miterlimit:10;stroke-width:2px"/><rect x="29.32" y="32" width="105" height="152" style="fill:#3b75bb"/><rect x="27.32" y="31" width="105" height="151" style="fill:#fff"/><rect x="40.82" y="59.5" width="14" height="14" rx="1.71" style="fill:none;stroke:#132e52;stroke-miterlimit:10"/><rect x="64.32" y="61" width="50" height="10" rx="1.71" style="fill:#205fa9"/><polygon points="48.17 71.03 41.06 63.92 43.45 61.53 48.17 66.25 58.81 55.62 61.2 58.01 48.17 71.03" style="fill:#205fa9"/><rect x="40.82" y="84.5" width="14" height="14" rx="1.71" style="fill:none;stroke:#122e52;stroke-miterlimit:10"/><rect x="64.32" y="86" width="50" height="10" rx="1.71" style="fill:#205fa9"/><polygon points="48.17 96.38 41.06 89.27 43.45 86.88 48.17 91.6 58.81 80.97 61.2 83.36 48.17 96.38" style="fill:#205fa9"/><rect x="40.82" y="110.5" width="14" height="14" rx="1.71" style="fill:none;stroke:#132e52;stroke-miterlimit:10"/><rect x="64.32" y="113" width="50" height="10" rx="1.71" style="fill:#205fa9"/><path d="M49.44,31h75.88a0,0,0,0,1,0,0v6.88A2.12,2.12,0,0,1,123.2,40H49.44a2.12,2.12,0,0,1-2.12-2.12V33.12A2.12,2.12,0,0,1,49.44,31Z" style="fill:#a6c6e9"/><rect x="40.82" y="135.5" width="14" height="14" rx="1.71" style="fill:none;stroke:#122e52;stroke-miterlimit:10"/><rect x="64.32" y="137" width="50" height="10" rx="1.71" style="fill:#205fa9"/><polygon points="48.17 147.19 41.06 140.08 43.45 137.69 48.17 142.41 58.81 131.78 61.2 134.17 48.17 147.19" style="fill:#205fa9"/><rect x="47.32" y="23" width="78" height="8" style="fill:#3b75bb"/><path d="M46.06,38.55a2.24,2.24,0,0,1-2.24-2.25V17.79a2.24,2.24,0,0,1,2.24-2.24H71.82V13.87a11.24,11.24,0,0,1,9.33-11.2,11.83,11.83,0,0,1,1.67-.12,11,11,0,0,1,11,11v2h25.76a2.24,2.24,0,0,1,2.24,2.24V36.3a2.25,2.25,0,0,1-2.24,2.25ZM82.5,8.86a5,5,0,1,0,5,5A5,5,0,0,0,82.5,8.86Z" transform="translate(0 -2.05)" style="fill:#7cabdb"/><path d="M82.82,3.05a10.52,10.52,0,0,1,10.5,10.5v2.5h26.26a1.74,1.74,0,0,1,1.74,1.74V36.3a1.76,1.76,0,0,1-1.74,1.75H46.06a1.76,1.76,0,0,1-1.74-1.75V17.79a1.74,1.74,0,0,1,1.74-1.74H72.32V13.87A10.5,10.5,0,0,1,82.82,3.05M82.5,19.39A5.52,5.52,0,1,0,77,13.87a5.51,5.51,0,0,0,5.51,5.52m.32-17.34a11.32,11.32,0,0,0-1.74.13,11.74,11.74,0,0,0-9.76,11.69v1.18H46.06a2.74,2.74,0,0,0-2.74,2.74V36.3a2.75,2.75,0,0,0,2.74,2.75h73.52a2.75,2.75,0,0,0,2.74-2.75V17.79a2.74,2.74,0,0,0-2.74-2.74H94.32v-1.5a11.51,11.51,0,0,0-11.5-11.5ZM82.5,18.39A4.52,4.52,0,1,1,87,13.87a4.52,4.52,0,0,1-4.51,4.52Z" transform="translate(0 -2.05)" style="fill:#132e52"/><g style="clip-path:url(#b)"><polygon points="78.98 38.68 74.97 40.09 62.24 3.99 66.26 2.58 78.98 38.68" style="fill:#a6c6e9"/><polygon points="82.54 37.72 81.18 38.2 68.36 1.85 69.73 1.37 82.54 37.72" style="fill:#a6c6e9"/></g><path d="M45.5,19a1.74,1.74,0,0,1,1.74-1.74H73.5V15.05a10.71,10.71,0,0,1,8.91-10.7A10.47,10.47,0,0,1,90.85,6.8c-.2-.23-.4-.46-.61-.67a10.5,10.5,0,0,0-9-3,10.71,10.71,0,0,0-8.91,10.7v2.18H46.06a1.74,1.74,0,0,0-1.74,1.74V36.3" transform="translate(0 -2.05)" style="fill:#a6c6e9"/></g><g style="clip-path:url(#c)"><rect x="156.32" y="83" width="14" height="103" style="fill:#faac19"/><polyline points="156.92 83.25 163.81 62.57 170.69 83.25" style="fill:#ffe0a5"/><rect x="167.32" y="83.26" width="4" height="103" style="fill:#d28f29"/><polygon points="164.74 68.61 167.13 83.25 169.96 83.25 164.74 68.61" style="fill:#fdcf74"/><polygon points="161.51 69 166.1 69 163.81 62.12 161.51 69" style="fill:#122e52"/><rect x="155.92" y="83.26" width="4" height="103" style="fill:#fbbd3f"/><polygon points="170.32 82.74 170.32 186 156.32 186 156.32 82.74 163.32 62.09 170.32 82.74" style="fill:none;stroke:#122e52;stroke-linecap:round;stroke-linejoin:round;stroke-width:2px"/><rect x="156.32" y="186" width="14" height="14" style="fill:#d28f29;stroke:#122e52;stroke-miterlimit:10;stroke-width:2px"/><line x1="156.43" y1="83.19" x2="170.85" y2="83.19" style="fill:none;stroke:#132e52;stroke-miterlimit:10"/></g><path d="M120.3,16.21a1.66,1.66,0,0,1,.17.73V35.45a1.76,1.76,0,0,1-1.74,1.75H45.21a1.59,1.59,0,0,1-.72-.17,1.74,1.74,0,0,0,1.57,1h73.52a1.76,1.76,0,0,0,1.74-1.75V17.79A1.75,1.75,0,0,0,120.3,16.21Z" transform="translate(0 -2.05)" style="fill:#5590cc"/></svg>