<svg xmlns="http://www.w3.org/2000/svg" xmlns:xlink="http://www.w3.org/1999/xlink" width="900" height="506" viewBox="0 0 900 506">
  <defs>
    <filter id="Card" x="23.5" y="37.5" width="409" height="423" filterUnits="userSpaceOnUse">
      <feOffset dy="1" input="SourceAlpha"/>
      <feGaussianBlur stdDeviation="1.5" result="blur"/>
      <feFlood flood-opacity="0.161"/>
      <feComposite operator="in" in2="blur"/>
      <feComposite in="SourceGraphic"/>
    </filter>
    <filter id="Card-2" x="466.5" y="37.5" width="409" height="423" filterUnits="userSpaceOnUse">
      <feOffset dy="1" input="SourceAlpha"/>
      <feGaussianBlur stdDeviation="1.5" result="blur-2"/>
      <feFlood flood-opacity="0.161"/>
      <feComposite operator="in" in2="blur-2"/>
      <feComposite in="SourceGraphic"/>
    </filter>
    <clipPath id="clip-Card_-_Spacing">
      <rect width="900" height="506"/>
    </clipPath>
  </defs>
  <g id="Card_-_Spacing" data-name="Card - Spacing" clip-path="url(#clip-Card_-_Spacing)">
    <rect width="900" height="506" fill="#f4f4f6"/>
    <g transform="matrix(1, 0, 0, 1, 0, 0)" filter="url(#Card)">
      <rect id="Card-3" data-name="Card" width="400" height="414" rx="2" transform="translate(28 41)" fill="#fff"/>
    </g>
    <g transform="matrix(1, 0, 0, 1, 0, 0)" filter="url(#Card-2)">
      <rect id="Card-4" data-name="Card" width="400" height="414" rx="2" transform="translate(471 41)" fill="#fff"/>
    </g>
    <rect id="Rectangle_6849" data-name="Rectangle 6849" width="400" height="20" transform="translate(28 103)" fill="#f9a0a0" opacity="0.24"/>
    <rect id="Rectangle_9805" data-name="Rectangle 9805" width="400" height="20" transform="translate(471 135)" fill="#f9a0a0" opacity="0.24"/>
    <rect id="Rectangle_6866" data-name="Rectangle 6866" width="400" height="20" transform="translate(28 369)" fill="#f9a0a0" opacity="0.24"/>
    <rect id="Rectangle_9804" data-name="Rectangle 9804" width="400" height="20" transform="translate(471 369)" fill="#f9a0a0" opacity="0.24"/>
    <rect id="Rectangle_6854" data-name="Rectangle 6854" width="400" height="30" transform="translate(28 41)" fill="#f9a0a0" opacity="0.24"/>
    <rect id="Rectangle_9809" data-name="Rectangle 9809" width="400" height="30" transform="translate(471 41)" fill="#f9a0a0" opacity="0.24"/>
    <rect id="Rectangle_6855" data-name="Rectangle 6855" width="400" height="30" transform="translate(28 425)" fill="#f9a0a0" opacity="0.24"/>
    <rect id="Rectangle_9802" data-name="Rectangle 9802" width="400" height="30" transform="translate(471 425)" fill="#f9a0a0" opacity="0.24"/>
    <rect id="Rectangle_6852" data-name="Rectangle 6852" width="414" height="30" transform="translate(58 41) rotate(90)" fill="#f9a0a0" opacity="0.24"/>
    <rect id="Rectangle_9810" data-name="Rectangle 9810" width="414" height="30" transform="translate(501 41) rotate(90)" fill="#f9a0a0" opacity="0.24"/>
    <rect id="Rectangle_6853" data-name="Rectangle 6853" width="414" height="30" transform="translate(428 41) rotate(90)" fill="#f9a0a0" opacity="0.24"/>
    <rect id="Rectangle_9803" data-name="Rectangle 9803" width="414" height="30" transform="translate(871 41) rotate(90)" fill="#f9a0a0" opacity="0.24"/>
    <rect id="Rectangle_9806" data-name="Rectangle 9806" width="400" height="10" transform="translate(471 103)" fill="#f9a0a0" opacity="0.24"/>
    <rect id="Rectangle_9798" data-name="Rectangle 9798" width="127" height="14" rx="7" transform="translate(58 80)" fill="#afafbb"/>
    <rect id="Rectangle_9808" data-name="Rectangle 9808" width="127" height="14" rx="7" transform="translate(501 80)" fill="#afafbb"/>
    <rect id="Rectangle_9807" data-name="Rectangle 9807" width="284" height="14" rx="7" transform="translate(501 117)" fill="#afafbb"/>
    <text id="with_header_supporting_text" data-name="with header supporting text" transform="translate(586 483)" fill="#c6318c" font-size="14" font-family="SegoeUI, Segoe UI"><tspan x="0" y="0">with header supporting text</tspan></text>
  </g>
</svg>
