<svg xmlns="http://www.w3.org/2000/svg" xmlns:xlink="http://www.w3.org/1999/xlink" width="900" height="462" viewBox="0 0 900 462">
  <defs>
    <filter id="Card" x="36.5" y="16.5" width="409" height="423" filterUnits="userSpaceOnUse">
      <feOffset dy="1" input="SourceAlpha"/>
      <feGaussianBlur stdDeviation="1.5" result="blur"/>
      <feFlood flood-opacity="0.161"/>
      <feComposite operator="in" in2="blur"/>
      <feComposite in="SourceGraphic"/>
    </filter>
    <clipPath id="clip-path">
      <rect width="50" height="50" fill="none"/>
    </clipPath>
    <filter id="Card-2" x="454.5" y="16.5" width="409" height="423" filterUnits="userSpaceOnUse">
      <feOffset dy="1" input="SourceAlpha"/>
      <feGaussianBlur stdDeviation="1.5" result="blur-2"/>
      <feFlood flood-opacity="0.161"/>
      <feComposite operator="in" in2="blur-2"/>
      <feComposite in="SourceGraphic"/>
    </filter>
    <linearGradient id="linear-gradient" y1="0.5" x2="1" y2="0.5" gradientUnits="objectBoundingBox">
      <stop offset="0" stop-color="#f4f4f6"/>
      <stop offset="1" stop-color="#f9f9fa"/>
    </linearGradient>
    <clipPath id="clip-cards--spinner">
      <rect width="900" height="462"/>
    </clipPath>
  </defs>
  <g id="cards--spinner" clip-path="url(#clip-cards--spinner)">
    <rect width="900" height="462" fill="#f4f4f6"/>
    <g id="Group_264240" data-name="Group 264240">
      <g id="Group_264238" data-name="Group 264238" transform="translate(0 -62)">
        <g id="Group_13285" data-name="Group 13285" transform="translate(-851 39)">
          <g transform="matrix(1, 0, 0, 1, 851, 23)" filter="url(#Card)">
            <rect id="Card-3" data-name="Card" width="400" height="414" rx="2" transform="translate(41 20)" fill="#fff"/>
          </g>
        </g>
        <path id="Path_10417" data-name="Path 10417" d="M11.494-.586a8.49,8.49,0,0,1-3.936.82A6.435,6.435,0,0,1,2.676-1.689,7.01,7.01,0,0,1,.84-6.738a7.352,7.352,0,0,1,2.065-5.43,7.066,7.066,0,0,1,5.22-2.07,8.554,8.554,0,0,1,3.369.576v2.3a6.012,6.012,0,0,0-3.125-.84,4.9,4.9,0,0,0-3.687,1.455A5.345,5.345,0,0,0,3.271-6.855,5.1,5.1,0,0,0,4.59-3.169,4.588,4.588,0,0,0,8.057-1.8a6.207,6.207,0,0,0,3.438-.937ZM21.572,0h-2.2V-1.562h-.039A3.308,3.308,0,0,1,16.3.234a3.2,3.2,0,0,1-2.31-.8,2.8,2.8,0,0,1-.835-2.119q0-2.832,3.262-3.3l2.969-.42q0-2.139-2.031-2.139a4.825,4.825,0,0,0-3.223,1.23V-9.3a7.028,7.028,0,0,1,3.652-.937q3.789,0,3.789,3.73ZM19.385-4.912l-2.1.293a3.328,3.328,0,0,0-1.47.474,1.384,1.384,0,0,0-.493,1.216,1.331,1.331,0,0,0,.454,1.04,1.758,1.758,0,0,0,1.216.405,2.243,2.243,0,0,0,1.714-.728,2.58,2.58,0,0,0,.679-1.831Zm10.752-2.93a1.878,1.878,0,0,0-1.182-.322,2.023,2.023,0,0,0-1.68.908A4.061,4.061,0,0,0,26.6-4.785V0H24.336V-10H26.6v2.061h.039a3.484,3.484,0,0,1,1.021-1.646,2.3,2.3,0,0,1,1.538-.591,1.909,1.909,0,0,1,.938.186ZM40.654,0H38.389V-1.7H38.35A3.614,3.614,0,0,1,34.98.234a3.637,3.637,0,0,1-2.954-1.343,5.574,5.574,0,0,1-1.108-3.657A6.073,6.073,0,0,1,32.144-8.74a4.011,4.011,0,0,1,3.267-1.494A3.128,3.128,0,0,1,38.35-8.613h.039V-14.8h2.266ZM38.418-4.57V-5.879a2.55,2.55,0,0,0-.693-1.807,2.313,2.313,0,0,0-1.768-.742,2.38,2.38,0,0,0-2,.947,4.221,4.221,0,0,0-.728,2.627,3.782,3.782,0,0,0,.7,2.407,2.271,2.271,0,0,0,1.88.884A2.351,2.351,0,0,0,37.7-2.417,3.219,3.219,0,0,0,38.418-4.57ZM58,0H55.732V-5.469q0-2.969-1.982-2.969a2.073,2.073,0,0,0-1.68.859,3.421,3.421,0,0,0-.684,2.2V0H49.111V-14.8h2.275V-8.34h.039a3.578,3.578,0,0,1,3.242-1.895q3.33,0,3.33,4.072ZM69.219-4.385H62.4a2.881,2.881,0,0,0,.854,2.139,3.179,3.179,0,0,0,2.241.752,4.942,4.942,0,0,0,2.939-.957V-.625a6.716,6.716,0,0,1-3.613.859,4.473,4.473,0,0,1-3.462-1.362,5.449,5.449,0,0,1-1.255-3.833,5.328,5.328,0,0,1,1.382-3.8,4.52,4.52,0,0,1,3.433-1.47A3.941,3.941,0,0,1,68.1-8.916a5.474,5.474,0,0,1,1.123,3.662Zm-2.187-1.6a2.919,2.919,0,0,0-.576-1.9,1.925,1.925,0,0,0-1.562-.679,2.2,2.2,0,0,0-1.655.713A3.257,3.257,0,0,0,62.4-5.986ZM79.053,0h-2.2V-1.562h-.039a3.308,3.308,0,0,1-3.037,1.8,3.2,3.2,0,0,1-2.31-.8,2.8,2.8,0,0,1-.835-2.119q0-2.832,3.262-3.3l2.969-.42q0-2.139-2.031-2.139a4.825,4.825,0,0,0-3.223,1.23V-9.3a7.028,7.028,0,0,1,3.652-.937q3.789,0,3.789,3.73ZM76.865-4.912l-2.1.293a3.328,3.328,0,0,0-1.47.474A1.384,1.384,0,0,0,72.8-2.93a1.331,1.331,0,0,0,.454,1.04,1.758,1.758,0,0,0,1.216.405,2.243,2.243,0,0,0,1.714-.728,2.58,2.58,0,0,0,.679-1.831ZM90.908,0H88.643V-1.7H88.6A3.614,3.614,0,0,1,85.234.234,3.637,3.637,0,0,1,82.28-1.108a5.574,5.574,0,0,1-1.108-3.657A6.073,6.073,0,0,1,82.4-8.74a4.011,4.011,0,0,1,3.267-1.494A3.128,3.128,0,0,1,88.6-8.613h.039V-14.8h2.266ZM88.672-4.57V-5.879a2.55,2.55,0,0,0-.693-1.807,2.313,2.313,0,0,0-1.768-.742,2.38,2.38,0,0,0-2,.947,4.221,4.221,0,0,0-.728,2.627,3.782,3.782,0,0,0,.7,2.407,2.271,2.271,0,0,0,1.88.884,2.351,2.351,0,0,0,1.885-.854A3.219,3.219,0,0,0,88.672-4.57ZM96.143,0H93.867V-14.8h2.275Zm4.092-12.1a1.362,1.362,0,0,1-.952-.361,1.189,1.189,0,0,1-.4-.918,1.219,1.219,0,0,1,.4-.928,1.342,1.342,0,0,1,.952-.371,1.384,1.384,0,0,1,.977.371,1.212,1.212,0,0,1,.4.928,1.2,1.2,0,0,1-.4.9A1.374,1.374,0,0,1,100.234-12.1ZM101.357,0H99.092V-10h2.266Zm11.865,0h-2.266V-5.635q0-2.8-1.982-2.8a2.164,2.164,0,0,0-1.709.776,2.88,2.88,0,0,0-.674,1.958V0h-2.275V-10h2.275v1.66h.039a3.564,3.564,0,0,1,3.242-1.895,3.02,3.02,0,0,1,2.49,1.06,4.758,4.758,0,0,1,.859,3.062Zm11.23-4.385h-6.816a2.881,2.881,0,0,0,.854,2.139,3.179,3.179,0,0,0,2.241.752,4.942,4.942,0,0,0,2.939-.957V-.625a6.716,6.716,0,0,1-3.613.859A4.473,4.473,0,0,1,116.6-1.128a5.449,5.449,0,0,1-1.255-3.833,5.328,5.328,0,0,1,1.382-3.8,4.52,4.52,0,0,1,3.433-1.47,3.941,3.941,0,0,1,3.174,1.318,5.474,5.474,0,0,1,1.123,3.662Zm-2.187-1.6a2.919,2.919,0,0,0-.576-1.9,1.925,1.925,0,0,0-1.562-.679,2.2,2.2,0,0,0-1.655.713,3.257,3.257,0,0,0-.835,1.865Z" transform="translate(71 139)" fill="#31313a"/>
        <g id="Progress_Wheel" data-name="Progress Wheel" transform="translate(216 264)" clip-path="url(#clip-path)">
          <g id="Group_7426" data-name="Group 7426" transform="translate(-146.5 -105.1)">
            <path id="Path_5481" data-name="Path 5481" d="M171.5,155.1a25,25,0,1,1,25-25A25.009,25.009,0,0,1,171.5,155.1Zm0-42.8a17.8,17.8,0,1,0,17.8,17.8A17.839,17.839,0,0,0,171.5,112.3Z" fill="#cbcbd2"/>
            <path id="Path_5482" data-name="Path 5482" d="M154.5,124.7l-6.9-2.2A25.037,25.037,0,0,1,179,106.3l-2.2,6.9A17.7,17.7,0,0,0,154.5,124.7Z" fill="#1f5ea8"/>
          </g>
        </g>
      </g>
      <g id="Group_264239" data-name="Group 264239" transform="translate(0 -59)">
        <g id="Group_13285-2" data-name="Group 13285" transform="translate(-433 36)">
          <g transform="matrix(1, 0, 0, 1, 433, 23)" filter="url(#Card-2)">
            <rect id="Card-4" data-name="Card" width="400" height="414" rx="2" transform="translate(459 20)" fill="#fff"/>
          </g>
        </g>
        <rect id="Rectangle_9960" data-name="Rectangle 9960" width="315" height="10" transform="translate(489 188)" fill="url(#linear-gradient)"/>
        <rect id="Rectangle_9963" data-name="Rectangle 9963" width="148" height="10" transform="translate(489 123)" fill="url(#linear-gradient)"/>
        <rect id="Rectangle_9961" data-name="Rectangle 9961" width="283" height="10" transform="translate(489 213)" fill="url(#linear-gradient)"/>
        <rect id="Rectangle_9962" data-name="Rectangle 9962" width="295" height="10" transform="translate(489 238)" fill="url(#linear-gradient)"/>
      </g>
    </g>
  </g>
</svg>
