<svg xmlns="http://www.w3.org/2000/svg" xmlns:xlink="http://www.w3.org/1999/xlink" width="900" height="463" viewBox="0 0 900 463">
  <defs>
    <filter id="Card" x="320.5" y="26.5" width="259" height="412" filterUnits="userSpaceOnUse">
      <feOffset dy="1" input="SourceAlpha"/>
      <feGaussianBlur stdDeviation="1.5" result="blur"/>
      <feFlood flood-opacity="0.161"/>
      <feComposite operator="in" in2="blur"/>
      <feComposite in="SourceGraphic"/>
    </filter>
    <clipPath id="clip-card--sizing-minwidth">
      <rect width="900" height="463"/>
    </clipPath>
  </defs>
  <g id="card--sizing-minwidth" clip-path="url(#clip-card--sizing-minwidth)">
    <rect width="900" height="463" fill="#f4f4f6"/>
    <g transform="matrix(1, 0, 0, 1, 0, 0)" filter="url(#Card)">
      <g id="Card-2" data-name="Card" transform="translate(325 30)" fill="#fff" stroke="#e8f9f8" stroke-width="20">
        <rect width="250" height="403" rx="2" stroke="none"/>
        <rect x="10" y="10" width="230" height="383" rx="8" fill="none"/>
      </g>
    </g>
    <path id="Path_10346" data-name="Path 10346" d="M-36.48,0h-1.784l-.882-2.5H-43L-43.849,0h-1.777l3.671-9.8h1.832Zm-3.1-3.821-1.36-3.91a4.632,4.632,0,0,1-.13-.615h-.027a4,4,0,0,1-.137.615l-1.347,3.91Zm9.276,3.5A3.911,3.911,0,0,1-32.29.164,3.369,3.369,0,0,1-34.805-.81a3.451,3.451,0,0,1-.957-2.526,3.8,3.8,0,0,1,1.029-2.779,3.678,3.678,0,0,1,2.751-1.049,4.016,4.016,0,0,1,1.688.335v1.477A2.557,2.557,0,0,0-31.852-5.9a2.166,2.166,0,0,0-1.647.68,2.487,2.487,0,0,0-.643,1.781,2.371,2.371,0,0,0,.6,1.716,2.148,2.148,0,0,0,1.624.629A2.537,2.537,0,0,0-30.3-1.7Zm6.583,0a3.911,3.911,0,0,1-1.989.485A3.369,3.369,0,0,1-28.222-.81a3.451,3.451,0,0,1-.957-2.526A3.8,3.8,0,0,1-28.15-6.115,3.678,3.678,0,0,1-25.4-7.164a4.016,4.016,0,0,1,1.688.335v1.477A2.557,2.557,0,0,0-25.269-5.9a2.166,2.166,0,0,0-1.647.68,2.487,2.487,0,0,0-.643,1.781,2.371,2.371,0,0,0,.6,1.716,2.148,2.148,0,0,0,1.624.629A2.537,2.537,0,0,0-23.717-1.7Zm4.676.485a3.47,3.47,0,0,1-2.587-.981,3.544,3.544,0,0,1-.967-2.6,3.687,3.687,0,0,1,1.008-2.755,3.708,3.708,0,0,1,2.717-.991,3.358,3.358,0,0,1,2.557.964A3.723,3.723,0,0,1-15.4-3.527a3.669,3.669,0,0,1-.988,2.683A3.548,3.548,0,0,1-19.042.164Zm.075-6.063a1.81,1.81,0,0,0-1.47.649,2.719,2.719,0,0,0-.54,1.791,2.561,2.561,0,0,0,.547,1.733,1.837,1.837,0,0,0,1.463.632,1.743,1.743,0,0,0,1.439-.622,2.754,2.754,0,0,0,.5-1.771,2.8,2.8,0,0,0-.5-1.784A1.734,1.734,0,0,0-18.966-5.9ZM-7.68,0H-9.266V-1.107h-.027A2.282,2.282,0,0,1-11.44.164q-2.481,0-2.481-2.98V-7h1.586v4.02q0,1.887,1.456,1.887a1.471,1.471,0,0,0,1.159-.52,1.991,1.991,0,0,0,.455-1.36V-7H-7.68Zm8.3,0H-.967V-3.944q0-1.962-1.388-1.962a1.515,1.515,0,0,0-1.2.543,2.016,2.016,0,0,0-.472,1.371V0H-5.616V-7h1.593v1.162H-4a2.5,2.5,0,0,1,2.27-1.326,2.114,2.114,0,0,1,1.743.742,3.33,3.33,0,0,1,.6,2.143ZM6.245-.075A2.748,2.748,0,0,1,5.021.157Q2.984.157,2.984-1.8V-5.756H1.815V-7H2.984V-8.62L4.57-9.071V-7H6.245v1.244H4.57v3.5a1.379,1.379,0,0,0,.226.889.936.936,0,0,0,.752.267,1.09,1.09,0,0,0,.7-.232ZM17.695,0H16.109V-3.944q0-1.962-1.388-1.962a1.515,1.515,0,0,0-1.2.543,2.016,2.016,0,0,0-.472,1.371V0H11.46V-7h1.593v1.162h.027a2.5,2.5,0,0,1,2.27-1.326,2.114,2.114,0,0,1,1.743.742,3.33,3.33,0,0,1,.6,2.143ZM25,0H23.464V-1.094h-.027A2.316,2.316,0,0,1,21.311.164,2.239,2.239,0,0,1,19.694-.4,1.961,1.961,0,0,1,19.11-1.88q0-1.982,2.283-2.311l2.078-.294q0-1.5-1.422-1.5a3.378,3.378,0,0,0-2.256.861V-6.508a4.919,4.919,0,0,1,2.557-.656A2.326,2.326,0,0,1,25-4.553ZM23.471-3.438,22-3.233a2.33,2.33,0,0,0-1.029.332.969.969,0,0,0-.345.851.932.932,0,0,0,.318.728,1.231,1.231,0,0,0,.851.284A1.57,1.57,0,0,0,23-1.548a1.806,1.806,0,0,0,.475-1.282ZM37.4,0H35.817V-3.814a3.091,3.091,0,0,0-.311-1.593A1.144,1.144,0,0,0,34.457-5.9a1.265,1.265,0,0,0-1.056.622,2.538,2.538,0,0,0-.434,1.49V0H31.374V-3.944q0-1.955-1.381-1.955a1.246,1.246,0,0,0-1.056.588,2.592,2.592,0,0,0-.414,1.524V0H26.937V-7h1.586v1.107h.027a2.425,2.425,0,0,1,2.208-1.271,2.082,2.082,0,0,1,1.268.4,1.992,1.992,0,0,1,.742,1.049,2.5,2.5,0,0,1,2.324-1.449q2.311,0,2.311,2.851Zm7.861-3.069H40.493a2.017,2.017,0,0,0,.6,1.5,2.225,2.225,0,0,0,1.569.526,3.459,3.459,0,0,0,2.058-.67V-.437a4.7,4.7,0,0,1-2.529.6A3.131,3.131,0,0,1,39.765-.79a3.814,3.814,0,0,1-.878-2.683,3.73,3.73,0,0,1,.967-2.663,3.164,3.164,0,0,1,2.4-1.029,2.759,2.759,0,0,1,2.222.923,3.832,3.832,0,0,1,.786,2.563ZM43.733-4.19a2.044,2.044,0,0,0-.4-1.33A1.348,1.348,0,0,0,42.236-6a1.539,1.539,0,0,0-1.159.5,2.28,2.28,0,0,0-.584,1.306Z" transform="translate(392 117)" fill="#31313a"/>
    <line id="Line_117" data-name="Line 117" x2="190" transform="translate(346.5 130.5)" fill="none" stroke="#606071" stroke-width="1"/>
    <g id="Group_14037" data-name="Group 14037" transform="translate(346.5 148)">
      <text id="Bob_s_Burgers" data-name="Bob&apos;s Burgers" transform="translate(0.5 23)" fill="#31313a" font-size="14" font-family="SegoeUI, Segoe UI"><tspan x="0" y="0">Bob&apos;s Burgers</tspan></text>
      <line id="Line_118" data-name="Line 118" x2="189.16" transform="translate(0 41.5)" fill="none" stroke="#e6e6ea" stroke-width="1"/>
      <g id="Link_Button_-_Normal" data-name="Link Button - Normal" transform="translate(99.5)">
        <path id="Path_6651" data-name="Path 6651" d="M21.912,0H68.088C80.19,0,90,8.059,90,18S80.19,36,68.088,36H21.912C9.81,36,0,27.941,0,18S9.81,0,21.912,0Z" fill="none"/>
        <text id="View_quote" data-name="View quote" transform="translate(44.696 23)" fill="#2777d3" font-size="14" font-family="SegoeUI-Semibold, Segoe UI" font-weight="600"><tspan x="-35.947" y="0">View quote</tspan></text>
        <rect id="Rectangle_6075" data-name="Rectangle 6075" width="90" height="36" rx="18" fill="none"/>
      </g>
    </g>
    <g id="Group_14037-2" data-name="Group 14037" transform="translate(346.5 197)">
      <text id="Oscorp" transform="translate(0.5 23)" fill="#31313a" font-size="14" font-family="SegoeUI, Segoe UI"><tspan x="0" y="0">Oscorp</tspan></text>
      <line id="Line_118-2" data-name="Line 118" x2="189.16" transform="translate(0 41.5)" fill="none" stroke="#e6e6ea" stroke-width="1"/>
      <g id="Link_Button_-_Normal-2" data-name="Link Button - Normal" transform="translate(99.5)">
        <path id="Path_6651-2" data-name="Path 6651" d="M21.912,0H68.088C80.19,0,90,8.059,90,18S80.19,36,68.088,36H21.912C9.81,36,0,27.941,0,18S9.81,0,21.912,0Z" fill="none"/>
        <text id="View_quote-2" data-name="View quote" transform="translate(44.696 23)" fill="#2777d3" font-size="14" font-family="SegoeUI-Semibold, Segoe UI" font-weight="600"><tspan x="-35.947" y="0">View quote</tspan></text>
        <rect id="Rectangle_6075-2" data-name="Rectangle 6075" width="90" height="36" rx="18" fill="none"/>
      </g>
    </g>
    <g id="Group_14037-3" data-name="Group 14037" transform="translate(346.5 246)">
      <text id="Stark_Industries" data-name="Stark Industries" transform="translate(0.5 23)" fill="#31313a" font-size="14" font-family="SegoeUI, Segoe UI"><tspan x="0" y="0">Stark Industries</tspan></text>
      <line id="Line_118-3" data-name="Line 118" x2="189.16" transform="translate(0 41.5)" fill="none" stroke="#e6e6ea" stroke-width="1"/>
      <g id="Link_Button_-_Normal-3" data-name="Link Button - Normal" transform="translate(99.5)">
        <path id="Path_6651-3" data-name="Path 6651" d="M21.912,0H68.088C80.19,0,90,8.059,90,18S80.19,36,68.088,36H21.912C9.81,36,0,27.941,0,18S9.81,0,21.912,0Z" fill="none"/>
        <text id="View_quote-3" data-name="View quote" transform="translate(44.696 23)" fill="#2777d3" font-size="14" font-family="SegoeUI-Semibold, Segoe UI" font-weight="600"><tspan x="-35.947" y="0">View quote</tspan></text>
        <rect id="Rectangle_6075-3" data-name="Rectangle 6075" width="90" height="36" rx="18" fill="none"/>
      </g>
    </g>
    <g id="Group_14037-4" data-name="Group 14037" transform="translate(346.5 295)">
      <text id="Dunder_Mifflin" data-name="Dunder Mifflin" transform="translate(0.5 23)" fill="#31313a" font-size="14" font-family="SegoeUI, Segoe UI"><tspan x="0" y="0">Dunder Mifflin</tspan></text>
      <line id="Line_118-4" data-name="Line 118" x2="189.16" transform="translate(0 41.5)" fill="none" stroke="#e6e6ea" stroke-width="1"/>
      <g id="Link_Button_-_Normal-4" data-name="Link Button - Normal" transform="translate(99.5)">
        <path id="Path_6651-4" data-name="Path 6651" d="M21.912,0H68.088C80.19,0,90,8.059,90,18S80.19,36,68.088,36H21.912C9.81,36,0,27.941,0,18S9.81,0,21.912,0Z" fill="none"/>
        <text id="View_quote-4" data-name="View quote" transform="translate(44.696 23)" fill="#2777d3" font-size="14" font-family="SegoeUI-Semibold, Segoe UI" font-weight="600"><tspan x="-35.947" y="0">View quote</tspan></text>
        <rect id="Rectangle_6075-4" data-name="Rectangle 6075" width="90" height="36" rx="18" fill="none"/>
      </g>
    </g>
    <path id="Path_10347" data-name="Path 10347" d="M12.549,22H9.834L7.6,18.25a7.832,7.832,0,0,0-.591-.884,3.557,3.557,0,0,0-.586-.6,1.977,1.977,0,0,0-.649-.342,2.7,2.7,0,0,0-.791-.107H4.043V22H1.729V8H6.338a6.667,6.667,0,0,1,1.816.234A4.222,4.222,0,0,1,9.6,8.938a3.3,3.3,0,0,1,.962,1.182,3.722,3.722,0,0,1,.347,1.655,4.054,4.054,0,0,1-.22,1.362,3.543,3.543,0,0,1-.625,1.1,3.822,3.822,0,0,1-.977.825,4.88,4.88,0,0,1-1.284.527v.039a3.6,3.6,0,0,1,.664.474q.283.259.537.532a6.383,6.383,0,0,1,.5.62q.249.347.552.806ZM4.043,9.881v4.551H5.977a2.866,2.866,0,0,0,.991-.166,2.269,2.269,0,0,0,.786-.479,2.166,2.166,0,0,0,.518-.762,2.612,2.612,0,0,0,.186-1.006,2,2,0,0,0-.635-1.572A2.656,2.656,0,0,0,6,9.881Zm17.822,7.734H15.049a2.881,2.881,0,0,0,.854,2.139,3.179,3.179,0,0,0,2.241.752,4.942,4.942,0,0,0,2.939-.957v1.826a6.716,6.716,0,0,1-3.613.859,4.473,4.473,0,0,1-3.462-1.362,5.449,5.449,0,0,1-1.255-3.833,5.328,5.328,0,0,1,1.382-3.8,4.52,4.52,0,0,1,3.433-1.47,3.941,3.941,0,0,1,3.174,1.318,5.474,5.474,0,0,1,1.123,3.662Zm-2.187-1.6a2.919,2.919,0,0,0-.576-1.9,1.925,1.925,0,0,0-1.562-.679,2.2,2.2,0,0,0-1.655.713,3.257,3.257,0,0,0-.835,1.865Zm11.5,5.527a5.587,5.587,0,0,1-2.842.693,4.813,4.813,0,0,1-3.594-1.392,4.93,4.93,0,0,1-1.367-3.608,5.426,5.426,0,0,1,1.47-3.97,5.254,5.254,0,0,1,3.931-1.5,5.738,5.738,0,0,1,2.412.479v2.109a3.653,3.653,0,0,0-2.227-.781,3.094,3.094,0,0,0-2.354.972,3.553,3.553,0,0,0-.918,2.544,3.388,3.388,0,0,0,.864,2.451,3.068,3.068,0,0,0,2.319.9,3.625,3.625,0,0,0,2.3-.869Zm10.713-3.926H35.078a2.881,2.881,0,0,0,.854,2.139,3.179,3.179,0,0,0,2.241.752,4.942,4.942,0,0,0,2.939-.957v1.826a6.716,6.716,0,0,1-3.613.859,4.473,4.473,0,0,1-3.462-1.362,5.449,5.449,0,0,1-1.255-3.833,5.328,5.328,0,0,1,1.382-3.8,4.52,4.52,0,0,1,3.433-1.47,3.941,3.941,0,0,1,3.174,1.318,5.474,5.474,0,0,1,1.123,3.662Zm-2.187-1.6a2.919,2.919,0,0,0-.576-1.9,1.925,1.925,0,0,0-1.562-.679,2.2,2.2,0,0,0-1.655.713,3.257,3.257,0,0,0-.835,1.865ZM52.959,22H50.693V16.365q0-2.8-1.982-2.8A2.164,2.164,0,0,0,47,14.339a2.88,2.88,0,0,0-.674,1.958V22H44.053V12h2.275v1.66h.039a3.564,3.564,0,0,1,3.242-1.895,3.02,3.02,0,0,1,2.49,1.06,4.758,4.758,0,0,1,.859,3.062ZM61,21.893a3.926,3.926,0,0,1-1.748.332q-2.91,0-2.91-2.793V13.777h-1.67V12h1.67V9.686L58.6,9.041V12H61v1.777H58.6v5a1.97,1.97,0,0,0,.322,1.27A1.338,1.338,0,0,0,60,20.428a1.558,1.558,0,0,0,1-.332ZM77.539,26.6H75.273V20.281h-.039a3.5,3.5,0,0,1-3.35,1.953,3.665,3.665,0,0,1-2.964-1.343A5.541,5.541,0,0,1,67.8,17.234a6.069,6.069,0,0,1,1.226-3.979,4.048,4.048,0,0,1,3.3-1.489,3.077,3.077,0,0,1,2.91,1.621h.039V12h2.266ZM75.3,17.449V16.16a2.6,2.6,0,0,0-.7-1.836,2.314,2.314,0,0,0-1.772-.752,2.375,2.375,0,0,0-1.987.942,4.271,4.271,0,0,0-.728,2.661,3.7,3.7,0,0,0,.7,2.393,2.23,2.23,0,0,0,1.816.869,2.421,2.421,0,0,0,1.943-.85A3.186,3.186,0,0,0,75.3,17.449ZM89.219,22H86.953V20.418h-.039a3.26,3.26,0,0,1-3.066,1.816q-3.545,0-3.545-4.258V12h2.266v5.742q0,2.7,2.08,2.7A2.1,2.1,0,0,0,86.3,19.7a2.844,2.844,0,0,0,.649-1.943V12h2.266Zm7.383.234a4.957,4.957,0,0,1-3.7-1.4,5.062,5.062,0,0,1-1.382-3.716,5.267,5.267,0,0,1,1.44-3.936,5.3,5.3,0,0,1,3.882-1.416,4.8,4.8,0,0,1,3.652,1.377,5.319,5.319,0,0,1,1.309,3.818,5.241,5.241,0,0,1-1.411,3.833A5.069,5.069,0,0,1,96.6,22.234Zm.107-8.662a2.586,2.586,0,0,0-2.1.928,3.885,3.885,0,0,0-.771,2.559,3.659,3.659,0,0,0,.781,2.476,2.624,2.624,0,0,0,2.09.9,2.49,2.49,0,0,0,2.056-.889,3.934,3.934,0,0,0,.718-2.529,3.993,3.993,0,0,0-.718-2.549A2.478,2.478,0,0,0,96.709,13.572Zm12.676,8.32a3.926,3.926,0,0,1-1.748.332q-2.91,0-2.91-2.793V13.777h-1.67V12h1.67V9.686l2.266-.645V12h2.393v1.777h-2.393v5a1.97,1.97,0,0,0,.322,1.27,1.338,1.338,0,0,0,1.074.381,1.558,1.558,0,0,0,1-.332Zm10.3-4.277h-6.816a2.881,2.881,0,0,0,.854,2.139,3.179,3.179,0,0,0,2.241.752,4.942,4.942,0,0,0,2.939-.957v1.826a6.716,6.716,0,0,1-3.613.859,4.473,4.473,0,0,1-3.462-1.362,5.449,5.449,0,0,1-1.255-3.833,5.328,5.328,0,0,1,1.382-3.8,4.52,4.52,0,0,1,3.433-1.47,3.941,3.941,0,0,1,3.174,1.318,5.474,5.474,0,0,1,1.123,3.662Zm-2.187-1.6a2.919,2.919,0,0,0-.576-1.9,1.925,1.925,0,0,0-1.562-.679,2.2,2.2,0,0,0-1.655.713,3.257,3.257,0,0,0-.835,1.865Zm3.721,5.674v-2.1a4.52,4.52,0,0,0,2.8.967q2.051,0,2.051-1.211a.954.954,0,0,0-.176-.581,1.678,1.678,0,0,0-.474-.425,3.724,3.724,0,0,0-.7-.332q-.405-.146-.9-.332a9.563,9.563,0,0,1-1.108-.518,3.349,3.349,0,0,1-.82-.62,2.341,2.341,0,0,1-.493-.786,2.9,2.9,0,0,1-.166-1.025,2.37,2.37,0,0,1,.342-1.274,2.97,2.97,0,0,1,.918-.928,4.4,4.4,0,0,1,1.309-.566,5.991,5.991,0,0,1,1.514-.19,6.881,6.881,0,0,1,2.48.42v1.982a4.181,4.181,0,0,0-2.422-.723,3.163,3.163,0,0,0-.776.088,2,2,0,0,0-.591.244,1.2,1.2,0,0,0-.381.376.9.9,0,0,0-.137.483,1.033,1.033,0,0,0,.137.547,1.242,1.242,0,0,0,.405.4,3.5,3.5,0,0,0,.645.313q.376.142.864.308a12.627,12.627,0,0,1,1.157.537,3.911,3.911,0,0,1,.874.62,2.431,2.431,0,0,1,.557.8,2.719,2.719,0,0,1,.2,1.079,2.467,2.467,0,0,1-.352,1.328,2.93,2.93,0,0,1-.937.938,4.388,4.388,0,0,1-1.353.552,7.026,7.026,0,0,1-1.616.181A6.809,6.809,0,0,1,121.221,21.688Z" transform="translate(345 50)" fill="#31313a"/>
    <g id="Secondary_Button_-_Normal" data-name="Secondary Button - Normal" transform="translate(391 357)">
      <g id="Rectangle_3991" data-name="Rectangle 3991" fill="none" stroke="#cbcbd2" stroke-width="1">
        <rect width="98" height="36" rx="18" stroke="none"/>
        <rect x="0.5" y="0.5" width="97" height="35" rx="17.5" fill="none"/>
      </g>
      <text id="View_more" data-name="View more" transform="translate(49 23)" fill="#2777d3" font-size="14" font-family="SegoeUI-Semibold, Segoe UI" font-weight="600"><tspan x="-33.886" y="0">View more</tspan></text>
    </g>
  </g>
</svg>
