<svg xmlns="http://www.w3.org/2000/svg" xmlns:xlink="http://www.w3.org/1999/xlink" width="900" height="353" viewBox="0 0 900 353">
  <defs>
    <filter id="Card" x="35.5" y="74.5" width="829" height="262" filterUnits="userSpaceOnUse">
      <feOffset dy="1" input="SourceAlpha"/>
      <feGaussianBlur stdDeviation="1.5" result="blur"/>
      <feFlood flood-opacity="0.161"/>
      <feComposite operator="in" in2="blur"/>
      <feComposite in="SourceGraphic"/>
    </filter>
    <clipPath id="clip-path">
      <rect width="73.934" height="36" fill="none"/>
    </clipPath>
    <clipPath id="clip-card--table">
      <rect width="900" height="353"/>
    </clipPath>
  </defs>
  <g id="card--table" clip-path="url(#clip-card--table)">
    <rect width="900" height="353" fill="#f9f9fa"/>
    <g transform="matrix(1, 0, 0, 1, 0, 0)" filter="url(#Card)">
      <path id="Card-2" data-name="Card" d="M2,0H818a2,2,0,0,1,2,2V251a2,2,0,0,1-2,2H2a2,2,0,0,1-2-2V2A2,2,0,0,1,2,0Z" transform="translate(40 78)" fill="#fff"/>
    </g>
    <path id="Path_8855" data-name="Path 8855" d="M10.713-12.031H6.689V0H4.365V-12.031H.352V-14H10.713ZM18.252,0h-2.2V-1.562h-.039a3.308,3.308,0,0,1-3.037,1.8,3.2,3.2,0,0,1-2.31-.8,2.8,2.8,0,0,1-.835-2.119q0-2.832,3.262-3.3l2.969-.42q0-2.139-2.031-2.139a4.825,4.825,0,0,0-3.223,1.23V-9.3a7.028,7.028,0,0,1,3.652-.937q3.789,0,3.789,3.73ZM16.064-4.912l-2.1.293a3.328,3.328,0,0,0-1.47.474A1.384,1.384,0,0,0,12-2.93a1.331,1.331,0,0,0,.454,1.04,1.758,1.758,0,0,0,1.216.405,2.243,2.243,0,0,0,1.714-.728,2.58,2.58,0,0,0,.679-1.831ZM23.32-1.445h-.039V0H21.016V-14.8h2.266v6.563h.039a3.713,3.713,0,0,1,3.4-1.992,3.578,3.578,0,0,1,2.964,1.343,5.614,5.614,0,0,1,1.069,3.6,6.267,6.267,0,0,1-1.2,4.019A3.968,3.968,0,0,1,26.27.234,3.221,3.221,0,0,1,23.32-1.445ZM23.262-5.42v1.24a2.646,2.646,0,0,0,.7,1.855,2.3,2.3,0,0,0,1.772.762,2.315,2.315,0,0,0,1.978-.981,4.567,4.567,0,0,0,.718-2.739,3.6,3.6,0,0,0-.669-2.31,2.2,2.2,0,0,0-1.812-.835A2.441,2.441,0,0,0,24-7.568,3.183,3.183,0,0,0,23.262-5.42ZM35.342,0H33.066V-14.8h2.275ZM46.758-4.385H39.941A2.881,2.881,0,0,0,40.8-2.246a3.179,3.179,0,0,0,2.241.752,4.942,4.942,0,0,0,2.939-.957V-.625a6.716,6.716,0,0,1-3.613.859A4.473,4.473,0,0,1,38.9-1.128a5.449,5.449,0,0,1-1.255-3.833,5.328,5.328,0,0,1,1.382-3.8,4.52,4.52,0,0,1,3.433-1.47,3.941,3.941,0,0,1,3.174,1.318,5.474,5.474,0,0,1,1.123,3.662Zm-2.187-1.6a2.919,2.919,0,0,0-.576-1.9,1.925,1.925,0,0,0-1.562-.679,2.2,2.2,0,0,0-1.655.713,3.257,3.257,0,0,0-.835,1.865ZM65.918,0H63.584V-6.074H56.992V0H54.668V-14h2.324v5.889h6.592V-14h2.334Zm11.67-4.385H70.771a2.881,2.881,0,0,0,.854,2.139,3.179,3.179,0,0,0,2.241.752,4.942,4.942,0,0,0,2.939-.957V-.625a6.716,6.716,0,0,1-3.613.859,4.473,4.473,0,0,1-3.462-1.362,5.449,5.449,0,0,1-1.255-3.833,5.328,5.328,0,0,1,1.382-3.8,4.52,4.52,0,0,1,3.433-1.47,3.941,3.941,0,0,1,3.174,1.318,5.474,5.474,0,0,1,1.123,3.662ZM75.4-5.986a2.919,2.919,0,0,0-.576-1.9,1.925,1.925,0,0,0-1.562-.679,2.2,2.2,0,0,0-1.655.713,3.257,3.257,0,0,0-.835,1.865ZM87.422,0h-2.2V-1.562h-.039a3.308,3.308,0,0,1-3.037,1.8,3.2,3.2,0,0,1-2.31-.8A2.8,2.8,0,0,1,79-2.686q0-2.832,3.262-3.3l2.969-.42q0-2.139-2.031-2.139a4.825,4.825,0,0,0-3.223,1.23V-9.3a7.028,7.028,0,0,1,3.652-.937q3.789,0,3.789,3.73ZM85.234-4.912l-2.1.293a3.328,3.328,0,0,0-1.47.474,1.384,1.384,0,0,0-.493,1.216,1.331,1.331,0,0,0,.454,1.04,1.758,1.758,0,0,0,1.216.405,2.243,2.243,0,0,0,1.714-.728,2.58,2.58,0,0,0,.679-1.831ZM99.277,0H97.012V-1.7h-.039A3.614,3.614,0,0,1,93.6.234a3.637,3.637,0,0,1-2.954-1.343,5.574,5.574,0,0,1-1.108-3.657A6.073,6.073,0,0,1,90.767-8.74a4.011,4.011,0,0,1,3.267-1.494,3.128,3.128,0,0,1,2.939,1.621h.039V-14.8h2.266ZM97.041-4.57V-5.879a2.55,2.55,0,0,0-.693-1.807,2.313,2.313,0,0,0-1.768-.742,2.38,2.38,0,0,0-2,.947,4.221,4.221,0,0,0-.728,2.627,3.782,3.782,0,0,0,.7,2.407,2.271,2.271,0,0,0,1.88.884,2.351,2.351,0,0,0,1.885-.854A3.219,3.219,0,0,0,97.041-4.57ZM104.512,0h-2.275V-14.8h2.275ZM108.6-12.1a1.362,1.362,0,0,1-.952-.361,1.189,1.189,0,0,1-.4-.918,1.219,1.219,0,0,1,.4-.928,1.342,1.342,0,0,1,.952-.371,1.384,1.384,0,0,1,.977.371,1.212,1.212,0,0,1,.4.928,1.2,1.2,0,0,1-.4.9A1.374,1.374,0,0,1,108.6-12.1ZM109.727,0h-2.266V-10h2.266Zm11.865,0h-2.266V-5.635q0-2.8-1.982-2.8a2.164,2.164,0,0,0-1.709.776,2.88,2.88,0,0,0-.674,1.958V0h-2.275V-10h2.275v1.66H115a3.564,3.564,0,0,1,3.242-1.895,3.02,3.02,0,0,1,2.49,1.06,4.758,4.758,0,0,1,.859,3.062Zm11.23-4.385h-6.816a2.881,2.881,0,0,0,.854,2.139,3.179,3.179,0,0,0,2.241.752,4.942,4.942,0,0,0,2.939-.957V-.625a6.716,6.716,0,0,1-3.613.859,4.473,4.473,0,0,1-3.462-1.362,5.449,5.449,0,0,1-1.255-3.833,5.328,5.328,0,0,1,1.382-3.8,4.52,4.52,0,0,1,3.433-1.47A3.941,3.941,0,0,1,131.7-8.916a5.474,5.474,0,0,1,1.123,3.662Zm-2.187-1.6a2.919,2.919,0,0,0-.576-1.9,1.925,1.925,0,0,0-1.562-.679,2.2,2.2,0,0,0-1.655.713,3.257,3.257,0,0,0-.835,1.865Z" transform="translate(39.648 48.805)" fill="#31313a"/>
    <path id="Path_10374" data-name="Path 10374" d="M2,0H818a2,2,0,0,1,2,2V56H0V2A2,2,0,0,1,2,0Z" transform="translate(40 78)" fill="#f9f9fa"/>
    <path id="Path_10387" data-name="Path 10387" d="M9.263,0H7.479L6.6-2.5H2.741L1.894,0H.116L3.787-9.8H5.619Zm-3.1-3.821-1.36-3.91a4.631,4.631,0,0,1-.13-.615H4.648a4,4,0,0,1-.137.615L3.165-3.821Zm9.276,3.5a3.911,3.911,0,0,1-1.989.485A3.369,3.369,0,0,1,10.938-.81,3.451,3.451,0,0,1,9.98-3.336a3.8,3.8,0,0,1,1.029-2.779,3.678,3.678,0,0,1,2.751-1.049,4.016,4.016,0,0,1,1.688.335v1.477A2.557,2.557,0,0,0,13.891-5.9a2.166,2.166,0,0,0-1.647.68A2.487,2.487,0,0,0,11.6-3.438a2.371,2.371,0,0,0,.6,1.716,2.148,2.148,0,0,0,1.624.629A2.537,2.537,0,0,0,15.442-1.7Zm6.583,0a3.911,3.911,0,0,1-1.989.485A3.369,3.369,0,0,1,17.521-.81a3.451,3.451,0,0,1-.957-2.526,3.8,3.8,0,0,1,1.029-2.779,3.678,3.678,0,0,1,2.751-1.049,4.016,4.016,0,0,1,1.688.335v1.477A2.557,2.557,0,0,0,20.474-5.9a2.166,2.166,0,0,0-1.647.68,2.487,2.487,0,0,0-.643,1.781,2.371,2.371,0,0,0,.6,1.716,2.148,2.148,0,0,0,1.624.629A2.537,2.537,0,0,0,22.025-1.7ZM26.7.164a3.47,3.47,0,0,1-2.587-.981,3.544,3.544,0,0,1-.967-2.6,3.687,3.687,0,0,1,1.008-2.755,3.708,3.708,0,0,1,2.717-.991,3.358,3.358,0,0,1,2.557.964,3.723,3.723,0,0,1,.916,2.673,3.669,3.669,0,0,1-.988,2.683A3.548,3.548,0,0,1,26.7.164ZM26.776-5.9a1.81,1.81,0,0,0-1.47.649,2.719,2.719,0,0,0-.54,1.791,2.561,2.561,0,0,0,.547,1.733,1.837,1.837,0,0,0,1.463.632,1.743,1.743,0,0,0,1.439-.622,2.754,2.754,0,0,0,.5-1.771,2.8,2.8,0,0,0-.5-1.784A1.734,1.734,0,0,0,26.776-5.9ZM38.063,0H36.477V-1.107h-.027A2.282,2.282,0,0,1,34.3.164q-2.481,0-2.481-2.98V-7h1.586v4.02q0,1.887,1.456,1.887a1.471,1.471,0,0,0,1.159-.52,1.991,1.991,0,0,0,.455-1.36V-7h1.586Zm8.3,0H44.775V-3.944q0-1.962-1.388-1.962a1.515,1.515,0,0,0-1.2.543,2.016,2.016,0,0,0-.472,1.371V0H40.127V-7H41.72v1.162h.027a2.5,2.5,0,0,1,2.27-1.326,2.114,2.114,0,0,1,1.743.742,3.33,3.33,0,0,1,.6,2.143Zm5.626-.075a2.748,2.748,0,0,1-1.224.232q-2.037,0-2.037-1.955V-5.756H47.558V-7h1.169V-8.62l1.586-.451V-7h1.675v1.244H50.313v3.5a1.379,1.379,0,0,0,.226.889.936.936,0,0,0,.752.267,1.09,1.09,0,0,0,.7-.232ZM63.438,0H61.852V-3.944q0-1.962-1.388-1.962a1.515,1.515,0,0,0-1.2.543A2.016,2.016,0,0,0,58.8-3.992V0H57.2V-7H58.8v1.162h.027a2.5,2.5,0,0,1,2.27-1.326,2.114,2.114,0,0,1,1.743.742,3.33,3.33,0,0,1,.6,2.143Zm7.308,0H69.207V-1.094H69.18A2.316,2.316,0,0,1,67.054.164,2.239,2.239,0,0,1,65.437-.4a1.961,1.961,0,0,1-.584-1.483q0-1.982,2.283-2.311l2.078-.294q0-1.5-1.422-1.5a3.378,3.378,0,0,0-2.256.861V-6.508a4.919,4.919,0,0,1,2.557-.656,2.326,2.326,0,0,1,2.652,2.611ZM69.214-3.438l-1.47.205a2.33,2.33,0,0,0-1.029.332.969.969,0,0,0-.345.851.932.932,0,0,0,.318.728,1.231,1.231,0,0,0,.851.284,1.57,1.57,0,0,0,1.2-.509,1.806,1.806,0,0,0,.475-1.282ZM83.146,0H81.56V-3.814a3.091,3.091,0,0,0-.311-1.593A1.144,1.144,0,0,0,80.2-5.9a1.265,1.265,0,0,0-1.056.622,2.538,2.538,0,0,0-.434,1.49V0H77.116V-3.944q0-1.955-1.381-1.955a1.246,1.246,0,0,0-1.056.588,2.592,2.592,0,0,0-.414,1.524V0H72.68V-7h1.586v1.107h.027A2.425,2.425,0,0,1,76.5-7.164a2.082,2.082,0,0,1,1.268.4,1.992,1.992,0,0,1,.742,1.049,2.5,2.5,0,0,1,2.324-1.449q2.311,0,2.311,2.851Zm7.861-3.069H86.235a2.017,2.017,0,0,0,.6,1.5,2.225,2.225,0,0,0,1.569.526,3.459,3.459,0,0,0,2.058-.67V-.437a4.7,4.7,0,0,1-2.529.6A3.131,3.131,0,0,1,85.507-.79a3.814,3.814,0,0,1-.878-2.683A3.73,3.73,0,0,1,85.6-6.135,3.164,3.164,0,0,1,88-7.164a2.759,2.759,0,0,1,2.222.923,3.832,3.832,0,0,1,.786,2.563ZM89.476-4.19a2.044,2.044,0,0,0-.4-1.33A1.348,1.348,0,0,0,87.979-6a1.539,1.539,0,0,0-1.159.5,2.28,2.28,0,0,0-.584,1.306Z" transform="translate(70 112)" fill="#3d3d3d"/>
    <path id="Path_10379" data-name="Path 10379" d="M.759-.39V-2.064A2.587,2.587,0,0,0,1.3-1.7a4.146,4.146,0,0,0,.66.277,5.2,5.2,0,0,0,.7.174,3.717,3.717,0,0,0,.643.062,2.742,2.742,0,0,0,1.528-.342,1.124,1.124,0,0,0,.5-.991,1.081,1.081,0,0,0-.167-.6,1.757,1.757,0,0,0-.468-.468A4.92,4.92,0,0,0,3.982-4Q3.575-4.19,3.11-4.4q-.5-.267-.93-.54a4,4,0,0,1-.749-.6,2.531,2.531,0,0,1-.5-.749,2.438,2.438,0,0,1-.181-.978,2.256,2.256,0,0,1,.311-1.2,2.627,2.627,0,0,1,.82-.841,3.761,3.761,0,0,1,1.159-.492,5.5,5.5,0,0,1,1.326-.161,5.353,5.353,0,0,1,2.242.349v1.606a3.581,3.581,0,0,0-2.146-.6,3.846,3.846,0,0,0-.721.068,2.144,2.144,0,0,0-.643.226,1.391,1.391,0,0,0-.461.4.989.989,0,0,0-.178.595,1.125,1.125,0,0,0,.137.567,1.464,1.464,0,0,0,.4.438,4.086,4.086,0,0,0,.643.386q.379.188.878.407.513.267.967.561a4.56,4.56,0,0,1,.8.649,2.854,2.854,0,0,1,.547.79,2.319,2.319,0,0,1,.2.988,2.448,2.448,0,0,1-.3,1.258,2.424,2.424,0,0,1-.81.834A3.608,3.608,0,0,1,4.751.021a6.61,6.61,0,0,1-1.4.144,5.967,5.967,0,0,1-.6-.038Q2.386.089,2.01.017A6.759,6.759,0,0,1,1.3-.157,2.251,2.251,0,0,1,.759-.39Zm12.906.068a3.911,3.911,0,0,1-1.989.485A3.369,3.369,0,0,1,9.16-.81,3.451,3.451,0,0,1,8.2-3.336,3.8,3.8,0,0,1,9.232-6.115a3.678,3.678,0,0,1,2.751-1.049,4.016,4.016,0,0,1,1.688.335v1.477A2.557,2.557,0,0,0,12.113-5.9a2.166,2.166,0,0,0-1.647.68,2.487,2.487,0,0,0-.643,1.781,2.371,2.371,0,0,0,.6,1.716,2.148,2.148,0,0,0,1.624.629A2.537,2.537,0,0,0,13.665-1.7ZM16.037-8.47a.953.953,0,0,1-.667-.253.832.832,0,0,1-.277-.643.854.854,0,0,1,.277-.649.939.939,0,0,1,.667-.26.969.969,0,0,1,.684.26.849.849,0,0,1,.28.649.837.837,0,0,1-.28.632A.962.962,0,0,1,16.037-8.47ZM16.823,0H15.237V-7h1.586Zm8-3.069H20.05a2.017,2.017,0,0,0,.6,1.5,2.225,2.225,0,0,0,1.569.526,3.459,3.459,0,0,0,2.058-.67V-.437a4.7,4.7,0,0,1-2.529.6A3.131,3.131,0,0,1,19.322-.79a3.814,3.814,0,0,1-.878-2.683,3.73,3.73,0,0,1,.967-2.663,3.164,3.164,0,0,1,2.4-1.029,2.759,2.759,0,0,1,2.222.923,3.832,3.832,0,0,1,.786,2.563ZM23.29-4.19a2.044,2.044,0,0,0-.4-1.33A1.348,1.348,0,0,0,21.793-6a1.539,1.539,0,0,0-1.159.5A2.28,2.28,0,0,0,20.05-4.19ZM32.566,0H30.98V-3.944q0-1.962-1.388-1.962a1.515,1.515,0,0,0-1.2.543,2.016,2.016,0,0,0-.472,1.371V0H26.332V-7h1.593v1.162h.027a2.5,2.5,0,0,1,2.27-1.326,2.114,2.114,0,0,1,1.743.742,3.33,3.33,0,0,1,.6,2.143Zm5.626-.075a2.748,2.748,0,0,1-1.224.232q-2.037,0-2.037-1.955V-5.756H33.763V-7h1.169V-8.62l1.586-.451V-7h1.675v1.244H36.518v3.5a1.379,1.379,0,0,0,.226.889A.936.936,0,0,0,37.5-1.1a1.09,1.09,0,0,0,.7-.232ZM40.359-8.47a.953.953,0,0,1-.667-.253.832.832,0,0,1-.277-.643.854.854,0,0,1,.277-.649.939.939,0,0,1,.667-.26.969.969,0,0,1,.684.26.849.849,0,0,1,.28.649.837.837,0,0,1-.28.632A.962.962,0,0,1,40.359-8.47ZM41.146,0H39.56V-7h1.586Zm6.029-9.071a1.442,1.442,0,0,0-.731-.185q-1.155,0-1.155,1.306V-7h1.627v1.244h-1.62V0H43.709V-5.756h-1.2V-7h1.2V-8.135a2.209,2.209,0,0,1,.725-1.747,2.639,2.639,0,0,1,1.812-.639,2.69,2.69,0,0,1,.93.13Zm1.668.6a.953.953,0,0,1-.667-.253.832.832,0,0,1-.277-.643.854.854,0,0,1,.277-.649.939.939,0,0,1,.667-.26.969.969,0,0,1,.684.26.849.849,0,0,1,.28.649.837.837,0,0,1-.28.632A.962.962,0,0,1,48.843-8.47ZM49.629,0H48.043V-7h1.586Zm7.082-.321a3.911,3.911,0,0,1-1.989.485A3.369,3.369,0,0,1,52.206-.81a3.451,3.451,0,0,1-.957-2.526,3.8,3.8,0,0,1,1.029-2.779,3.678,3.678,0,0,1,2.751-1.049,4.016,4.016,0,0,1,1.688.335v1.477A2.557,2.557,0,0,0,55.159-5.9a2.166,2.166,0,0,0-1.647.68,2.487,2.487,0,0,0-.643,1.781,2.371,2.371,0,0,0,.6,1.716,2.148,2.148,0,0,0,1.624.629A2.537,2.537,0,0,0,56.711-1.7ZM70.622,0H68.845L64.162-7.205a3.2,3.2,0,0,1-.294-.567h-.041a10.092,10.092,0,0,1,.055,1.347V0H62.31V-9.8H64.2l4.525,7.034q.287.438.369.6h.027a8.711,8.711,0,0,1-.068-1.319V-9.8h1.565Zm7.622,0H76.706V-1.094h-.027A2.316,2.316,0,0,1,74.553.164,2.239,2.239,0,0,1,72.936-.4a1.961,1.961,0,0,1-.584-1.483q0-1.982,2.283-2.311l2.078-.294q0-1.5-1.422-1.5a3.378,3.378,0,0,0-2.256.861V-6.508a4.919,4.919,0,0,1,2.557-.656,2.326,2.326,0,0,1,2.652,2.611ZM76.713-3.438l-1.47.205a2.33,2.33,0,0,0-1.029.332.969.969,0,0,0-.345.851.932.932,0,0,0,.318.728,1.231,1.231,0,0,0,.851.284,1.57,1.57,0,0,0,1.2-.509,1.806,1.806,0,0,0,.475-1.282ZM90.645,0H89.059V-3.814a3.091,3.091,0,0,0-.311-1.593A1.144,1.144,0,0,0,87.7-5.9a1.265,1.265,0,0,0-1.056.622,2.538,2.538,0,0,0-.434,1.49V0H84.615V-3.944q0-1.955-1.381-1.955a1.246,1.246,0,0,0-1.056.588,2.592,2.592,0,0,0-.414,1.524V0H80.179V-7h1.586v1.107h.027A2.425,2.425,0,0,1,84-7.164a2.082,2.082,0,0,1,1.268.4,1.992,1.992,0,0,1,.742,1.049,2.5,2.5,0,0,1,2.324-1.449q2.311,0,2.311,2.851Zm7.861-3.069H93.734a2.017,2.017,0,0,0,.6,1.5,2.225,2.225,0,0,0,1.569.526,3.459,3.459,0,0,0,2.058-.67V-.437a4.7,4.7,0,0,1-2.529.6A3.131,3.131,0,0,1,93.006-.79a3.814,3.814,0,0,1-.878-2.683A3.73,3.73,0,0,1,93.1-6.135a3.164,3.164,0,0,1,2.4-1.029,2.759,2.759,0,0,1,2.222.923,3.832,3.832,0,0,1,.786,2.563ZM96.975-4.19a2.044,2.044,0,0,0-.4-1.33A1.348,1.348,0,0,0,95.478-6a1.539,1.539,0,0,0-1.159.5,2.28,2.28,0,0,0-.584,1.306Z" transform="translate(336 112)" fill="#31313a"/>
    <path id="Path_10385" data-name="Path 10385" d="M0,0H1V196H0Z" transform="translate(297 135)" fill="#cbcbd2"/>
    <path id="Path_10378" data-name="Path 10378" d="M0,0H1V196H0Z" transform="translate(680 135)" fill="#cbcbd2"/>
    <path id="Path_10375" data-name="Path 10375" d="M0,0H820V1H0Z" transform="translate(40 134)" fill="#cbcbd2"/>
    <path id="Path_10372" data-name="Path 10372" d="M0,0H820V1H0Z" transform="translate(40 183)" fill="#cbcbd2"/>
    <path id="Path_10370" data-name="Path 10370" d="M0,0H820V1H0Z" transform="translate(40 232)" fill="#cbcbd2"/>
    <path id="Path_10367" data-name="Path 10367" d="M0,0H820V1H0Z" transform="translate(40 281)" fill="#cbcbd2"/>
    <path id="Path_10366" data-name="Path 10366" d="M0,0H820V1H0Z" transform="translate(40 330)" fill="#cbcbd2"/>
    <path id="Path_10376" data-name="Path 10376" d="M9.085,0H7.451V-4.252H2.837V0H1.21V-9.8H2.837v4.122H7.451V-9.8H9.085ZM16.7,0H15.162V-1.094h-.027A2.316,2.316,0,0,1,13.009.164,2.239,2.239,0,0,1,11.392-.4a1.961,1.961,0,0,1-.584-1.483q0-1.982,2.283-2.311l2.078-.294q0-1.5-1.422-1.5a3.378,3.378,0,0,0-2.256.861V-6.508a4.919,4.919,0,0,1,2.557-.656A2.326,2.326,0,0,1,16.7-4.553ZM15.169-3.438l-1.47.205A2.33,2.33,0,0,0,12.67-2.9a.969.969,0,0,0-.345.851.932.932,0,0,0,.318.728,1.231,1.231,0,0,0,.851.284,1.57,1.57,0,0,0,1.2-.509,1.806,1.806,0,0,0,.475-1.282Zm5.079,2.427h-.027V0H18.635V-10.363h1.586V-5.77h.027a2.6,2.6,0,0,1,2.379-1.395,2.5,2.5,0,0,1,2.075.94,3.93,3.93,0,0,1,.749,2.519,4.387,4.387,0,0,1-.841,2.813,2.777,2.777,0,0,1-2.3,1.056A2.255,2.255,0,0,1,20.248-1.012Zm-.041-2.782v.868a1.852,1.852,0,0,0,.489,1.3,1.61,1.61,0,0,0,1.241.533,1.621,1.621,0,0,0,1.384-.687,3.2,3.2,0,0,0,.5-1.917,2.52,2.52,0,0,0-.468-1.617A1.539,1.539,0,0,0,22.087-5.9a1.709,1.709,0,0,0-1.364.6A2.228,2.228,0,0,0,20.207-3.794ZM27.87-8.47a.953.953,0,0,1-.667-.253.832.832,0,0,1-.277-.643.854.854,0,0,1,.277-.649.939.939,0,0,1,.667-.26.969.969,0,0,1,.684.26.849.849,0,0,1,.28.649.837.837,0,0,1-.28.632A.962.962,0,0,1,27.87-8.47ZM28.656,0H27.07V-7h1.586Zm5.763-.075A2.748,2.748,0,0,1,33.2.157q-2.037,0-2.037-1.955V-5.756H29.989V-7h1.169V-8.62l1.586-.451V-7h1.675v1.244H32.744v3.5a1.379,1.379,0,0,0,.226.889.936.936,0,0,0,.752.267,1.09,1.09,0,0,0,.7-.232ZM41.159,0H39.621V-1.094h-.027A2.316,2.316,0,0,1,37.468.164,2.239,2.239,0,0,1,35.851-.4a1.961,1.961,0,0,1-.584-1.483q0-1.982,2.283-2.311l2.078-.294q0-1.5-1.422-1.5a3.378,3.378,0,0,0-2.256.861V-6.508a4.919,4.919,0,0,1,2.557-.656,2.326,2.326,0,0,1,2.652,2.611ZM39.628-3.438l-1.47.205a2.33,2.33,0,0,0-1.029.332.969.969,0,0,0-.345.851.932.932,0,0,0,.318.728,1.231,1.231,0,0,0,.851.284,1.57,1.57,0,0,0,1.2-.509,1.806,1.806,0,0,0,.475-1.282ZM46.785-.075a2.748,2.748,0,0,1-1.224.232q-2.037,0-2.037-1.955V-5.756H42.355V-7h1.169V-8.62l1.586-.451V-7h1.675v1.244H45.11v3.5a1.379,1.379,0,0,0,.226.889.936.936,0,0,0,.752.267,1.09,1.09,0,0,0,.7-.232Z" transform="translate(721 114)" fill="#31313a"/>
    <path id="Path_10388" data-name="Path 10388" d="M1.285,0V-9.8H4.074a3.048,3.048,0,0,1,2.017.622,2.01,2.01,0,0,1,.745,1.62,2.384,2.384,0,0,1-.451,1.449,2.433,2.433,0,0,1-1.244.875v.027a2.494,2.494,0,0,1,1.586.749,2.3,2.3,0,0,1,.595,1.644,2.563,2.563,0,0,1-.9,2.037A3.358,3.358,0,0,1,4.143,0ZM2.434-8.764V-5.6H3.609a2.233,2.233,0,0,0,1.483-.455,1.583,1.583,0,0,0,.54-1.282q0-1.429-1.88-1.429Zm0,4.2v3.527H3.992a2.335,2.335,0,0,0,1.569-.479A1.639,1.639,0,0,0,6.118-2.83q0-1.736-2.365-1.736ZM14.171,0H13.05V-1.094h-.027A2.347,2.347,0,0,1,10.869.164,2.3,2.3,0,0,1,9.232-.39a1.918,1.918,0,0,1-.591-1.47q0-1.962,2.311-2.283l2.1-.294q0-1.784-1.442-1.784a3.446,3.446,0,0,0-2.283.861V-6.508A4.338,4.338,0,0,1,11.7-7.164q2.468,0,2.468,2.611ZM13.05-3.541l-1.688.232a2.741,2.741,0,0,0-1.176.386,1.114,1.114,0,0,0-.4.981,1.068,1.068,0,0,0,.366.837,1.413,1.413,0,0,0,.974.325,1.8,1.8,0,0,0,1.377-.584,2.088,2.088,0,0,0,.543-1.48Zm4.382,2.529H17.4V0H16.283V-10.363H17.4V-5.77h.027a2.651,2.651,0,0,1,2.42-1.395,2.566,2.566,0,0,1,2.109.94,3.881,3.881,0,0,1,.762,2.519,4.339,4.339,0,0,1-.854,2.813A2.845,2.845,0,0,1,19.53.164,2.3,2.3,0,0,1,17.432-1.012ZM17.4-3.835v.978a2.081,2.081,0,0,0,.564,1.473,1.873,1.873,0,0,0,1.432.6A1.876,1.876,0,0,0,21-1.559a3.575,3.575,0,0,0,.578-2.167,2.822,2.822,0,0,0-.54-1.832,1.787,1.787,0,0,0-1.463-.663A1.986,1.986,0,0,0,18-5.541,2.5,2.5,0,0,0,17.4-3.835Zm10.035,4a3.247,3.247,0,0,1-2.478-.981,3.633,3.633,0,0,1-.926-2.6A3.785,3.785,0,0,1,25-6.173a3.465,3.465,0,0,1,2.6-.991,3.14,3.14,0,0,1,2.444.964,3.822,3.822,0,0,1,.878,2.673,3.761,3.761,0,0,1-.947,2.683A3.317,3.317,0,0,1,27.439.164Zm.082-6.385a2.132,2.132,0,0,0-1.709.735,3.018,3.018,0,0,0-.629,2.027A2.854,2.854,0,0,0,25.819-1.5a2.161,2.161,0,0,0,1.7.718,2.049,2.049,0,0,0,1.671-.7,3.055,3.055,0,0,0,.584-2,3.108,3.108,0,0,0-.584-2.023A2.04,2.04,0,0,0,27.521-6.221ZM35.643.164a3.247,3.247,0,0,1-2.478-.981,3.634,3.634,0,0,1-.926-2.6A3.785,3.785,0,0,1,33.2-6.173a3.465,3.465,0,0,1,2.6-.991A3.14,3.14,0,0,1,38.25-6.2a3.822,3.822,0,0,1,.878,2.673,3.761,3.761,0,0,1-.947,2.683A3.317,3.317,0,0,1,35.643.164Zm.082-6.385a2.132,2.132,0,0,0-1.709.735,3.018,3.018,0,0,0-.629,2.027A2.854,2.854,0,0,0,34.022-1.5a2.161,2.161,0,0,0,1.7.718,2.049,2.049,0,0,0,1.671-.7,3.055,3.055,0,0,0,.584-2A3.108,3.108,0,0,0,37.4-5.51,2.04,2.04,0,0,0,35.725-6.221ZM46.73,0H45.609V-3.992q0-2.229-1.627-2.229a1.765,1.765,0,0,0-1.391.632,2.344,2.344,0,0,0-.55,1.6V0H40.92V-7h1.121v1.162h.027a2.526,2.526,0,0,1,2.3-1.326,2.142,2.142,0,0,1,1.757.742,3.3,3.3,0,0,1,.608,2.143Z" transform="translate(70 164)" fill="#31313a"/>
    <path id="Path_10390" data-name="Path 10390" d="M7.957-.41A5.749,5.749,0,0,1,5.25.164,4.366,4.366,0,0,1,1.9-1.183,4.969,4.969,0,0,1,.643-4.717a5.208,5.208,0,0,1,1.415-3.8A4.8,4.8,0,0,1,5.646-9.967a5.754,5.754,0,0,1,2.311.4V-8.34a4.686,4.686,0,0,0-2.324-.588A3.566,3.566,0,0,0,2.9-7.8,4.249,4.249,0,0,0,1.846-4.785a4.043,4.043,0,0,0,.981,2.854A3.338,3.338,0,0,0,5.4-.868a4.828,4.828,0,0,0,2.557-.656Zm5.5-5.455a1.371,1.371,0,0,0-.848-.226,1.431,1.431,0,0,0-1.2.677,3.129,3.129,0,0,0-.482,1.846V0H9.8V-7h1.121v1.442h.027a2.444,2.444,0,0,1,.731-1.152,1.668,1.668,0,0,1,1.1-.414,1.83,1.83,0,0,1,.67.1ZM19.681,0H18.56V-1.094h-.027A2.347,2.347,0,0,1,16.379.164,2.3,2.3,0,0,1,14.742-.39a1.918,1.918,0,0,1-.591-1.47q0-1.962,2.311-2.283l2.1-.294q0-1.784-1.442-1.784a3.446,3.446,0,0,0-2.283.861V-6.508a4.338,4.338,0,0,1,2.379-.656q2.468,0,2.468,2.611ZM18.56-3.541l-1.688.232a2.741,2.741,0,0,0-1.176.386,1.114,1.114,0,0,0-.4.981,1.068,1.068,0,0,0,.366.837,1.413,1.413,0,0,0,.974.325,1.8,1.8,0,0,0,1.377-.584,2.088,2.088,0,0,0,.543-1.48Zm4.382,2.529h-.027V0H21.793V-10.363h1.121V-5.77h.027a2.651,2.651,0,0,1,2.42-1.395,2.566,2.566,0,0,1,2.109.94,3.881,3.881,0,0,1,.762,2.519,4.339,4.339,0,0,1-.854,2.813A2.845,2.845,0,0,1,25.04.164,2.3,2.3,0,0,1,22.941-1.012Zm-.027-2.823v.978a2.081,2.081,0,0,0,.564,1.473,1.873,1.873,0,0,0,1.432.6,1.876,1.876,0,0,0,1.6-.779,3.575,3.575,0,0,0,.578-2.167,2.822,2.822,0,0,0-.54-1.832,1.787,1.787,0,0,0-1.463-.663,1.986,1.986,0,0,0-1.572.68A2.5,2.5,0,0,0,22.914-3.835Z" transform="translate(70 212)" fill="#31313a"/>
    <path id="Path_10386" data-name="Path 10386" d="M8.613-.67A6.555,6.555,0,0,1,5.332.164,4.484,4.484,0,0,1,1.938-1.189a4.964,4.964,0,0,1-1.3-3.582A5.1,5.1,0,0,1,2.082-8.507,4.905,4.905,0,0,1,5.729-9.967a6.206,6.206,0,0,1,2.687.52v1.271A5.159,5.159,0,0,0,5.6-8.928,3.519,3.519,0,0,0,2.9-7.793,4.15,4.15,0,0,0,1.846-4.854a4.153,4.153,0,0,0,.978,2.922A3.426,3.426,0,0,0,5.476-.868a4.1,4.1,0,0,0,1.989-.458V-4.074H5.318V-5.113H8.613Zm5.776-5.2a1.371,1.371,0,0,0-.848-.226,1.431,1.431,0,0,0-1.2.677,3.129,3.129,0,0,0-.482,1.846V0H10.739V-7H11.86v1.442h.027a2.444,2.444,0,0,1,.731-1.152,1.668,1.668,0,0,1,1.1-.414,1.83,1.83,0,0,1,.67.1ZM21.232-3.22H16.29a2.618,2.618,0,0,0,.629,1.8,2.168,2.168,0,0,0,1.654.636,3.439,3.439,0,0,0,2.174-.779V-.506a4.063,4.063,0,0,1-2.44.67A2.959,2.959,0,0,1,15.976-.79a3.9,3.9,0,0,1-.848-2.683,3.828,3.828,0,0,1,.926-2.663,2.97,2.97,0,0,1,2.3-1.029,2.632,2.632,0,0,1,2.126.889,3.705,3.705,0,0,1,.752,2.468Zm-1.148-.95a2.281,2.281,0,0,0-.468-1.511,1.6,1.6,0,0,0-1.282-.54,1.811,1.811,0,0,0-1.347.567A2.575,2.575,0,0,0,16.3-4.17ZM27.938,0H26.817V-1.094H26.79A2.347,2.347,0,0,1,24.637.164,2.3,2.3,0,0,1,23-.39a1.918,1.918,0,0,1-.591-1.47q0-1.962,2.311-2.283l2.1-.294q0-1.784-1.442-1.784a3.446,3.446,0,0,0-2.283.861V-6.508a4.338,4.338,0,0,1,2.379-.656q2.468,0,2.468,2.611ZM26.817-3.541l-1.688.232a2.741,2.741,0,0,0-1.176.386,1.114,1.114,0,0,0-.4.981,1.068,1.068,0,0,0,.366.837,1.413,1.413,0,0,0,.974.325,1.8,1.8,0,0,0,1.377-.584,2.088,2.088,0,0,0,.543-1.48ZM33.3-.068A2.161,2.161,0,0,1,32.252.15Q30.413.15,30.413-1.9V-6.043h-1.2V-7h1.2V-8.709l1.121-.362V-7H33.3v.957H31.534V-2.1a1.635,1.635,0,0,0,.239,1,.955.955,0,0,0,.793.3,1.179,1.179,0,0,0,.731-.232ZM50.4-9.8,47.633,0H46.286L44.27-7.164a4.485,4.485,0,0,1-.157-1h-.027a5.064,5.064,0,0,1-.178.984L41.877,0H40.544L37.673-9.8h1.265l2.085,7.52a4.935,4.935,0,0,1,.164.984h.034a5.811,5.811,0,0,1,.212-.984L43.6-9.8h1.1l2.078,7.574a5.54,5.54,0,0,1,.164.916h.027a5.491,5.491,0,0,1,.185-.943l2-7.547ZM57.518,0H56.4V-4.033q0-2.188-1.627-2.187a1.774,1.774,0,0,0-1.381.632,2.356,2.356,0,0,0-.561,1.624V0H51.707V-10.363h1.121v4.525h.027a2.546,2.546,0,0,1,2.3-1.326q2.365,0,2.365,2.851ZM60.2-8.777a.71.71,0,0,1-.513-.205.692.692,0,0,1-.212-.52.7.7,0,0,1,.212-.523.7.7,0,0,1,.513-.208.724.724,0,0,1,.523.208.7.7,0,0,1,.215.523.693.693,0,0,1-.215.513A.718.718,0,0,1,60.2-8.777ZM60.751,0H59.63V-7h1.121Zm5.517-.068A2.161,2.161,0,0,1,65.222.15Q63.383.15,63.383-1.9V-6.043h-1.2V-7h1.2V-8.709L64.5-9.071V-7h1.764v.957H64.5V-2.1a1.635,1.635,0,0,0,.239,1,.955.955,0,0,0,.793.3,1.179,1.179,0,0,0,.731-.232ZM73.391-3.22H68.448a2.618,2.618,0,0,0,.629,1.8,2.168,2.168,0,0,0,1.654.636,3.439,3.439,0,0,0,2.174-.779V-.506a4.063,4.063,0,0,1-2.44.67A2.959,2.959,0,0,1,68.134-.79a3.9,3.9,0,0,1-.848-2.683,3.828,3.828,0,0,1,.926-2.663,2.97,2.97,0,0,1,2.3-1.029,2.632,2.632,0,0,1,2.126.889,3.705,3.705,0,0,1,.752,2.468Zm-1.148-.95a2.281,2.281,0,0,0-.468-1.511,1.6,1.6,0,0,0-1.282-.54,1.811,1.811,0,0,0-1.347.567,2.575,2.575,0,0,0-.684,1.483ZM78.613-.4V-1.75a2.629,2.629,0,0,0,.557.369,4.514,4.514,0,0,0,.684.277,5.442,5.442,0,0,0,.721.174,4.021,4.021,0,0,0,.67.062,2.624,2.624,0,0,0,1.583-.393,1.33,1.33,0,0,0,.523-1.131,1.328,1.328,0,0,0-.174-.69,1.964,1.964,0,0,0-.482-.537,4.782,4.782,0,0,0-.728-.465q-.42-.222-.906-.468-.513-.26-.957-.526a4.147,4.147,0,0,1-.772-.588,2.452,2.452,0,0,1-.516-.728,2.253,2.253,0,0,1-.188-.954,2.242,2.242,0,0,1,.294-1.166,2.521,2.521,0,0,1,.772-.817,3.5,3.5,0,0,1,1.09-.479,4.992,4.992,0,0,1,1.248-.157,4.781,4.781,0,0,1,2.112.349v1.292a3.829,3.829,0,0,0-2.229-.6,3.665,3.665,0,0,0-.752.079,2.124,2.124,0,0,0-.67.256,1.484,1.484,0,0,0-.479.458,1.216,1.216,0,0,0-.185.684,1.407,1.407,0,0,0,.14.649,1.592,1.592,0,0,0,.414.5,4.119,4.119,0,0,0,.667.438q.393.212.906.465t1,.547a4.562,4.562,0,0,1,.827.636,2.825,2.825,0,0,1,.564.772,2.171,2.171,0,0,1,.208.971,2.462,2.462,0,0,1-.284,1.227,2.328,2.328,0,0,1-.766.817,3.344,3.344,0,0,1-1.111.455,6.084,6.084,0,0,1-1.326.14,5.4,5.4,0,0,1-.574-.038q-.342-.038-.7-.109a5.69,5.69,0,0,1-.673-.178A2.1,2.1,0,0,1,78.613-.4ZM92.169,0H91.048V-4.033q0-2.188-1.627-2.187a1.774,1.774,0,0,0-1.381.632,2.356,2.356,0,0,0-.561,1.624V0H86.358V-10.363h1.121v4.525h.027a2.546,2.546,0,0,1,2.3-1.326q2.365,0,2.365,2.851Zm7.123,0H98.171V-1.094h-.027A2.347,2.347,0,0,1,95.99.164,2.3,2.3,0,0,1,94.353-.39a1.918,1.918,0,0,1-.591-1.47q0-1.962,2.311-2.283l2.1-.294q0-1.784-1.442-1.784a3.446,3.446,0,0,0-2.283.861V-6.508a4.338,4.338,0,0,1,2.379-.656q2.468,0,2.468,2.611ZM98.171-3.541l-1.688.232a2.741,2.741,0,0,0-1.176.386,1.114,1.114,0,0,0-.4.981,1.068,1.068,0,0,0,.366.837,1.413,1.413,0,0,0,.974.325,1.8,1.8,0,0,0,1.377-.584,2.088,2.088,0,0,0,.543-1.48Zm6.884-2.324a1.371,1.371,0,0,0-.848-.226,1.431,1.431,0,0,0-1.2.677,3.129,3.129,0,0,0-.482,1.846V0H101.4V-7h1.121v1.442h.027a2.444,2.444,0,0,1,.731-1.152,1.668,1.668,0,0,1,1.1-.414,1.83,1.83,0,0,1,.67.1ZM112.082,0H110.51l-3.09-3.363h-.027V0h-1.121V-10.363h1.121v6.569h.027L110.359-7h1.47l-3.247,3.377Z" transform="translate(70 260)" fill="#31313a"/>
    <path id="Path_10389" data-name="Path 10389" d="M.827-.4V-1.75a2.629,2.629,0,0,0,.557.369,4.514,4.514,0,0,0,.684.277,5.442,5.442,0,0,0,.721.174,4.021,4.021,0,0,0,.67.062,2.624,2.624,0,0,0,1.583-.393,1.33,1.33,0,0,0,.523-1.131,1.328,1.328,0,0,0-.174-.69,1.964,1.964,0,0,0-.482-.537,4.782,4.782,0,0,0-.728-.465q-.42-.222-.906-.468-.513-.26-.957-.526a4.147,4.147,0,0,1-.772-.588A2.452,2.452,0,0,1,1.029-6.4a2.253,2.253,0,0,1-.188-.954,2.242,2.242,0,0,1,.294-1.166,2.521,2.521,0,0,1,.772-.817A3.5,3.5,0,0,1,3-9.81a4.992,4.992,0,0,1,1.248-.157,4.781,4.781,0,0,1,2.112.349v1.292a3.829,3.829,0,0,0-2.229-.6,3.665,3.665,0,0,0-.752.079,2.124,2.124,0,0,0-.67.256,1.484,1.484,0,0,0-.479.458,1.216,1.216,0,0,0-.185.684,1.407,1.407,0,0,0,.14.649,1.592,1.592,0,0,0,.414.5,4.119,4.119,0,0,0,.667.438q.393.212.906.465t1,.547A4.562,4.562,0,0,1,6-4.218a2.825,2.825,0,0,1,.564.772,2.171,2.171,0,0,1,.208.971,2.462,2.462,0,0,1-.284,1.227,2.328,2.328,0,0,1-.766.817A3.344,3.344,0,0,1,4.607.024a6.084,6.084,0,0,1-1.326.14A5.4,5.4,0,0,1,2.707.126Q2.365.089,2.01.017a5.689,5.689,0,0,1-.673-.178A2.1,2.1,0,0,1,.827-.4ZM14.383,0H12.811L9.721-3.363H9.693V0H8.572V-10.363H9.693v6.569h.027L12.66-7h1.47L10.883-3.623Zm6.809,0H20.07V-1.107h-.027A2.3,2.3,0,0,1,17.883.164q-2.5,0-2.5-2.98V-7H16.5v4.006q0,2.215,1.7,2.215a1.715,1.715,0,0,0,1.35-.6,2.315,2.315,0,0,0,.53-1.583V-7h1.121Zm8.073,0H28.144V-3.992q0-2.229-1.627-2.229a1.765,1.765,0,0,0-1.391.632,2.344,2.344,0,0,0-.55,1.6V0H23.454V-7h1.121v1.162H24.6a2.526,2.526,0,0,1,2.3-1.326,2.142,2.142,0,0,1,1.757.742,3.3,3.3,0,0,1,.608,2.143Zm7.923,0H35.615l-3.09-3.363H32.5V0H31.377V-10.363H32.5v6.569h.027L35.465-7h1.47L33.688-3.623Z" transform="translate(70 308)" fill="#31313a"/>
    <path id="Path_10383" data-name="Path 10383" d="M2.434-3.705V0H1.285V-9.8H3.979a3.555,3.555,0,0,1,2.437.766,2.734,2.734,0,0,1,.865,2.16,2.971,2.971,0,0,1-.96,2.283,3.67,3.67,0,0,1-2.594.889Zm0-5.059v4.02h1.2a2.69,2.69,0,0,0,1.815-.543,1.924,1.924,0,0,0,.625-1.535q0-1.941-2.3-1.941ZM13.508,0H12.387V-1.094h-.027A2.347,2.347,0,0,1,10.206.164,2.3,2.3,0,0,1,8.569-.39a1.918,1.918,0,0,1-.591-1.47q0-1.962,2.311-2.283l2.1-.294q0-1.784-1.442-1.784a3.446,3.446,0,0,0-2.283.861V-6.508a4.338,4.338,0,0,1,2.379-.656q2.468,0,2.468,2.611ZM12.387-3.541,10.7-3.309a2.741,2.741,0,0,0-1.176.386,1.114,1.114,0,0,0-.4.981,1.068,1.068,0,0,0,.366.837,1.413,1.413,0,0,0,.974.325,1.8,1.8,0,0,0,1.377-.584,2.088,2.088,0,0,0,.543-1.48Zm4.382,2.529h-.027V3.22H15.62V-7h1.121v1.23h.027a2.651,2.651,0,0,1,2.42-1.395,2.563,2.563,0,0,1,2.112.94,3.893,3.893,0,0,1,.759,2.519,4.339,4.339,0,0,1-.854,2.813A2.845,2.845,0,0,1,18.867.164,2.342,2.342,0,0,1,16.769-1.012Zm-.027-2.823v.978a2.081,2.081,0,0,0,.564,1.473,1.873,1.873,0,0,0,1.432.6,1.876,1.876,0,0,0,1.6-.779,3.575,3.575,0,0,0,.578-2.167,2.822,2.822,0,0,0-.54-1.832,1.787,1.787,0,0,0-1.463-.663,1.986,1.986,0,0,0-1.572.68A2.5,2.5,0,0,0,16.741-3.835Zm7.684-4.942a.71.71,0,0,1-.513-.205A.692.692,0,0,1,23.7-9.5a.7.7,0,0,1,.212-.523.7.7,0,0,1,.513-.208.724.724,0,0,1,.523.208.7.7,0,0,1,.215.523.693.693,0,0,1-.215.513A.718.718,0,0,1,24.425-8.777ZM24.972,0H23.851V-7h1.121Zm5.2.164a3.247,3.247,0,0,1-2.478-.981,3.633,3.633,0,0,1-.926-2.6,3.785,3.785,0,0,1,.964-2.755,3.465,3.465,0,0,1,2.6-.991,3.14,3.14,0,0,1,2.444.964,3.822,3.822,0,0,1,.878,2.673,3.761,3.761,0,0,1-.947,2.683A3.317,3.317,0,0,1,30.167.164Zm.082-6.385a2.132,2.132,0,0,0-1.709.735,3.018,3.018,0,0,0-.629,2.027A2.854,2.854,0,0,0,28.547-1.5a2.161,2.161,0,0,0,1.7.718,2.049,2.049,0,0,0,1.671-.7,3.055,3.055,0,0,0,.584-2A3.108,3.108,0,0,0,31.92-5.51,2.04,2.04,0,0,0,30.249-6.221Z" transform="translate(336 164)" fill="#31313a"/>
    <path id="Path_10381" data-name="Path 10381" d="M1.285,0V-9.8H4.074a3.048,3.048,0,0,1,2.017.622,2.01,2.01,0,0,1,.745,1.62,2.384,2.384,0,0,1-.451,1.449,2.433,2.433,0,0,1-1.244.875v.027a2.494,2.494,0,0,1,1.586.749,2.3,2.3,0,0,1,.595,1.644,2.563,2.563,0,0,1-.9,2.037A3.358,3.358,0,0,1,4.143,0ZM2.434-8.764V-5.6H3.609a2.233,2.233,0,0,0,1.483-.455,1.583,1.583,0,0,0,.54-1.282q0-1.429-1.88-1.429Zm0,4.2v3.527H3.992a2.335,2.335,0,0,0,1.569-.479A1.639,1.639,0,0,0,6.118-2.83q0-1.736-2.365-1.736Zm10.377-1.3a1.371,1.371,0,0,0-.848-.226,1.431,1.431,0,0,0-1.2.677,3.129,3.129,0,0,0-.482,1.846V0H9.16V-7h1.121v1.442h.027a2.444,2.444,0,0,1,.731-1.152,1.668,1.668,0,0,1,1.1-.414,1.83,1.83,0,0,1,.67.1ZM19.038,0H17.917V-1.094H17.89A2.347,2.347,0,0,1,15.736.164,2.3,2.3,0,0,1,14.1-.39a1.918,1.918,0,0,1-.591-1.47q0-1.962,2.311-2.283l2.1-.294q0-1.784-1.442-1.784a3.446,3.446,0,0,0-2.283.861V-6.508a4.338,4.338,0,0,1,2.379-.656q2.468,0,2.468,2.611ZM17.917-3.541l-1.688.232a2.741,2.741,0,0,0-1.176.386,1.114,1.114,0,0,0-.4.981,1.068,1.068,0,0,0,.366.837A1.413,1.413,0,0,0,16-.779a1.8,1.8,0,0,0,1.377-.584,2.088,2.088,0,0,0,.543-1.48Zm8,3.22a3.643,3.643,0,0,1-1.914.485A3.169,3.169,0,0,1,21.591-.81a3.53,3.53,0,0,1-.919-2.526,3.881,3.881,0,0,1,.991-2.779,3.467,3.467,0,0,1,2.646-1.049,3.682,3.682,0,0,1,1.627.342v1.148a2.85,2.85,0,0,0-1.668-.547,2.254,2.254,0,0,0-1.76.769,2.918,2.918,0,0,0-.687,2.02,2.779,2.779,0,0,0,.646,1.941A2.227,2.227,0,0,0,24.2-.779a2.81,2.81,0,0,0,1.723-.608ZM33.428,0H32.307V-4.033q0-2.188-1.627-2.187a1.774,1.774,0,0,0-1.381.632,2.356,2.356,0,0,0-.561,1.624V0H27.617V-10.363h1.121v4.525h.027a2.546,2.546,0,0,1,2.3-1.326q2.365,0,2.365,2.851Zm7.684-7-3.22,8.121q-.861,2.174-2.42,2.174a2.565,2.565,0,0,1-.731-.089v-1a2.078,2.078,0,0,0,.663.123,1.374,1.374,0,0,0,1.271-1.012l.561-1.326L34.5-7h1.244l1.894,5.387q.034.1.144.533h.041q.034-.164.137-.52L39.949-7Zm6.863,7H46.854V-1.107h-.027A2.3,2.3,0,0,1,44.666.164q-2.5,0-2.5-2.98V-7h1.114v4.006q0,2.215,1.7,2.215a1.715,1.715,0,0,0,1.35-.6,2.315,2.315,0,0,0,.53-1.583V-7h1.121Zm5.913-5.865a1.371,1.371,0,0,0-.848-.226,1.431,1.431,0,0,0-1.2.677,3.129,3.129,0,0,0-.482,1.846V0H50.237V-7h1.121v1.442h.027a2.444,2.444,0,0,1,.731-1.152,1.668,1.668,0,0,1,1.1-.414,1.83,1.83,0,0,1,.67.1ZM60.115,0H58.994V-1.094h-.027A2.347,2.347,0,0,1,56.813.164,2.3,2.3,0,0,1,55.176-.39a1.918,1.918,0,0,1-.591-1.47q0-1.962,2.311-2.283l2.1-.294q0-1.784-1.442-1.784a3.446,3.446,0,0,0-2.283.861V-6.508a4.338,4.338,0,0,1,2.379-.656q2.468,0,2.468,2.611ZM58.994-3.541l-1.688.232a2.741,2.741,0,0,0-1.176.386,1.114,1.114,0,0,0-.4.981A1.068,1.068,0,0,0,56.1-1.1a1.413,1.413,0,0,0,.974.325,1.8,1.8,0,0,0,1.377-.584,2.088,2.088,0,0,0,.543-1.48Z" transform="translate(336 212)" fill="#31313a"/>
    <path id="Path_10380" data-name="Path 10380" d="M7.957-.41A5.749,5.749,0,0,1,5.25.164,4.366,4.366,0,0,1,1.9-1.183,4.969,4.969,0,0,1,.643-4.717a5.208,5.208,0,0,1,1.415-3.8A4.8,4.8,0,0,1,5.646-9.967a5.754,5.754,0,0,1,2.311.4V-8.34a4.686,4.686,0,0,0-2.324-.588A3.566,3.566,0,0,0,2.9-7.8,4.249,4.249,0,0,0,1.846-4.785a4.043,4.043,0,0,0,.981,2.854A3.338,3.338,0,0,0,5.4-.868a4.828,4.828,0,0,0,2.557-.656ZM14.813,0H13.692V-1.094h-.027A2.347,2.347,0,0,1,11.512.164,2.3,2.3,0,0,1,9.875-.39a1.918,1.918,0,0,1-.591-1.47q0-1.962,2.311-2.283l2.1-.294q0-1.784-1.442-1.784a3.446,3.446,0,0,0-2.283.861V-6.508a4.338,4.338,0,0,1,2.379-.656q2.468,0,2.468,2.611ZM13.692-3.541,12-3.309a2.741,2.741,0,0,0-1.176.386,1.114,1.114,0,0,0-.4.981A1.068,1.068,0,0,0,10.8-1.1a1.413,1.413,0,0,0,.974.325,1.8,1.8,0,0,0,1.377-.584,2.088,2.088,0,0,0,.543-1.48Zm6.884-2.324a1.371,1.371,0,0,0-.848-.226,1.431,1.431,0,0,0-1.2.677,3.129,3.129,0,0,0-.482,1.846V0H16.926V-7h1.121v1.442h.027a2.444,2.444,0,0,1,.731-1.152,1.668,1.668,0,0,1,1.1-.414,1.83,1.83,0,0,1,.67.1ZM26.564-.321A3.643,3.643,0,0,1,24.65.164,3.169,3.169,0,0,1,22.234-.81a3.53,3.53,0,0,1-.919-2.526,3.881,3.881,0,0,1,.991-2.779,3.467,3.467,0,0,1,2.646-1.049,3.682,3.682,0,0,1,1.627.342v1.148a2.85,2.85,0,0,0-1.668-.547,2.254,2.254,0,0,0-1.76.769,2.918,2.918,0,0,0-.687,2.02,2.779,2.779,0,0,0,.646,1.941,2.227,2.227,0,0,0,1.733.711,2.81,2.81,0,0,0,1.723-.608ZM34.07,0H32.949V-4.033q0-2.188-1.627-2.187a1.774,1.774,0,0,0-1.381.632,2.356,2.356,0,0,0-.561,1.624V0H28.26V-10.363h1.121v4.525h.027a2.546,2.546,0,0,1,2.3-1.326q2.365,0,2.365,2.851Zm7.123,0H40.072V-1.094h-.027A2.347,2.347,0,0,1,37.892.164,2.3,2.3,0,0,1,36.254-.39a1.918,1.918,0,0,1-.591-1.47q0-1.962,2.311-2.283l2.1-.294q0-1.784-1.442-1.784a3.446,3.446,0,0,0-2.283.861V-6.508a4.338,4.338,0,0,1,2.379-.656q2.468,0,2.468,2.611ZM40.072-3.541l-1.688.232a2.741,2.741,0,0,0-1.176.386,1.114,1.114,0,0,0-.4.981,1.068,1.068,0,0,0,.366.837,1.413,1.413,0,0,0,.974.325,1.8,1.8,0,0,0,1.377-.584,2.088,2.088,0,0,0,.543-1.48Zm6.884-2.324a1.371,1.371,0,0,0-.848-.226,1.431,1.431,0,0,0-1.2.677,3.129,3.129,0,0,0-.482,1.846V0H43.306V-7h1.121v1.442h.027a2.444,2.444,0,0,1,.731-1.152,1.668,1.668,0,0,1,1.1-.414,1.83,1.83,0,0,1,.67.1ZM51.1.164a3.247,3.247,0,0,1-2.478-.981,3.634,3.634,0,0,1-.926-2.6,3.785,3.785,0,0,1,.964-2.755,3.465,3.465,0,0,1,2.6-.991,3.14,3.14,0,0,1,2.444.964,3.822,3.822,0,0,1,.878,2.673,3.761,3.761,0,0,1-.947,2.683A3.317,3.317,0,0,1,51.1.164Zm.082-6.385a2.132,2.132,0,0,0-1.709.735,3.018,3.018,0,0,0-.629,2.027A2.854,2.854,0,0,0,49.479-1.5a2.161,2.161,0,0,0,1.7.718,2.049,2.049,0,0,0,1.671-.7,3.055,3.055,0,0,0,.584-2,3.108,3.108,0,0,0-.584-2.023A2.04,2.04,0,0,0,51.181-6.221ZM62.351,0H61.229V-1.189H61.2A2.588,2.588,0,0,1,58.8.164a2.615,2.615,0,0,1-2.109-.94,3.856,3.856,0,0,1-.79-2.56,4.2,4.2,0,0,1,.875-2.782A2.886,2.886,0,0,1,59.1-7.164a2.244,2.244,0,0,1,2.1,1.135h.027v-4.334h1.121ZM61.229-3.165V-4.2a2,2,0,0,0-.561-1.436,1.88,1.88,0,0,0-1.422-.588,1.936,1.936,0,0,0-1.613.752,3.3,3.3,0,0,0-.588,2.078A2.964,2.964,0,0,0,57.61-1.48a1.843,1.843,0,0,0,1.514.7,1.915,1.915,0,0,0,1.521-.677A2.521,2.521,0,0,0,61.229-3.165ZM67.546.164a3.247,3.247,0,0,1-2.478-.981,3.633,3.633,0,0,1-.926-2.6,3.785,3.785,0,0,1,.964-2.755,3.465,3.465,0,0,1,2.6-.991,3.14,3.14,0,0,1,2.444.964,3.822,3.822,0,0,1,.878,2.673,3.761,3.761,0,0,1-.947,2.683A3.317,3.317,0,0,1,67.546.164Zm.082-6.385a2.132,2.132,0,0,0-1.709.735,3.018,3.018,0,0,0-.629,2.027A2.854,2.854,0,0,0,65.926-1.5a2.161,2.161,0,0,0,1.7.718,2.049,2.049,0,0,0,1.671-.7,3.055,3.055,0,0,0,.584-2A3.108,3.108,0,0,0,69.3-5.51,2.04,2.04,0,0,0,67.628-6.221ZM78.634,0H77.513V-3.992q0-2.229-1.627-2.229a1.765,1.765,0,0,0-1.391.632,2.344,2.344,0,0,0-.55,1.6V0H72.823V-7h1.121v1.162h.027a2.526,2.526,0,0,1,2.3-1.326,2.142,2.142,0,0,1,1.757.742,3.3,3.3,0,0,1,.608,2.143Z" transform="translate(336 260)" fill="#31313a"/>
    <path id="Path_10382" data-name="Path 10382" d="M11.279,0H10.138V-6.576q0-.779.1-1.907h-.027a6.1,6.1,0,0,1-.294.95L6.563,0H6L2.659-7.479a5.859,5.859,0,0,1-.294-1H2.338q.055.588.055,1.921V0H1.285V-9.8H2.8L5.811-2.967a8.753,8.753,0,0,1,.451,1.176H6.3q.294-.807.472-1.2L9.844-9.8h1.436Zm8.053-3.22H14.39a2.618,2.618,0,0,0,.629,1.8,2.168,2.168,0,0,0,1.654.636,3.439,3.439,0,0,0,2.174-.779V-.506a4.063,4.063,0,0,1-2.44.67A2.959,2.959,0,0,1,14.075-.79a3.9,3.9,0,0,1-.848-2.683,3.828,3.828,0,0,1,.926-2.663,2.97,2.97,0,0,1,2.3-1.029,2.632,2.632,0,0,1,2.126.889,3.705,3.705,0,0,1,.752,2.468Zm-1.148-.95a2.281,2.281,0,0,0-.468-1.511,1.6,1.6,0,0,0-1.282-.54,1.811,1.811,0,0,0-1.347.567A2.575,2.575,0,0,0,14.4-4.17Zm3.992,3.158h-.027V3.22H21.027V-7h1.121v1.23h.027A2.651,2.651,0,0,1,24.6-7.164a2.563,2.563,0,0,1,2.112.94,3.893,3.893,0,0,1,.759,2.519,4.339,4.339,0,0,1-.854,2.813A2.845,2.845,0,0,1,24.274.164,2.342,2.342,0,0,1,22.176-1.012Zm-.027-2.823v.978a2.081,2.081,0,0,0,.564,1.473,1.873,1.873,0,0,0,1.432.6,1.876,1.876,0,0,0,1.6-.779,3.575,3.575,0,0,0,.578-2.167,2.822,2.822,0,0,0-.54-1.832,1.787,1.787,0,0,0-1.463-.663,1.986,1.986,0,0,0-1.572.68A2.5,2.5,0,0,0,22.148-3.835ZM35.068,0H33.947V-4.033q0-2.188-1.627-2.187a1.774,1.774,0,0,0-1.381.632,2.356,2.356,0,0,0-.561,1.624V0H29.258V-10.363h1.121v4.525h.027a2.546,2.546,0,0,1,2.3-1.326q2.365,0,2.365,2.851Zm2.687-8.777a.71.71,0,0,1-.513-.205.692.692,0,0,1-.212-.52.7.7,0,0,1,.212-.523.7.7,0,0,1,.513-.208.724.724,0,0,1,.523.208.7.7,0,0,1,.215.523.693.693,0,0,1-.215.513A.718.718,0,0,1,37.755-8.777ZM38.3,0H37.181V-7H38.3Zm5.517-.068A2.161,2.161,0,0,1,42.772.15Q40.934.15,40.934-1.9V-6.043h-1.2V-7h1.2V-8.709l1.121-.362V-7h1.764v.957H42.055V-2.1a1.635,1.635,0,0,0,.239,1,.955.955,0,0,0,.793.3,1.179,1.179,0,0,0,.731-.232ZM45.89-8.777a.71.71,0,0,1-.513-.205.692.692,0,0,1-.212-.52.7.7,0,0,1,.212-.523.7.7,0,0,1,.513-.208.724.724,0,0,1,.523.208.7.7,0,0,1,.215.523.693.693,0,0,1-.215.513A.718.718,0,0,1,45.89-8.777ZM46.437,0H45.315V-7h1.121Zm1.846-.253v-1.2A3.318,3.318,0,0,0,50.3-.779q1.477,0,1.477-.984a.854.854,0,0,0-.126-.475,1.26,1.26,0,0,0-.342-.345,2.631,2.631,0,0,0-.506-.27q-.291-.12-.625-.25a8.056,8.056,0,0,1-.817-.373,2.468,2.468,0,0,1-.588-.424,1.577,1.577,0,0,1-.355-.537,1.9,1.9,0,0,1-.12-.7,1.673,1.673,0,0,1,.226-.872,2,2,0,0,1,.6-.636,2.805,2.805,0,0,1,.858-.386,3.805,3.805,0,0,1,.995-.13A4.016,4.016,0,0,1,52.6-6.85v1.135a3.171,3.171,0,0,0-1.777-.506,2.078,2.078,0,0,0-.567.072,1.389,1.389,0,0,0-.434.2.932.932,0,0,0-.28.311.819.819,0,0,0-.1.4.959.959,0,0,0,.1.458,1.008,1.008,0,0,0,.291.328,2.221,2.221,0,0,0,.465.26q.273.116.622.253a8.658,8.658,0,0,1,.834.366,2.86,2.86,0,0,1,.629.424,1.656,1.656,0,0,1,.4.543,1.753,1.753,0,0,1,.14.731,1.725,1.725,0,0,1-.229.9,1.963,1.963,0,0,1-.612.636A2.8,2.8,0,0,1,51.2.041a4.354,4.354,0,0,1-1.046.123A3.971,3.971,0,0,1,48.282-.253Z" transform="translate(336 308)" fill="#31313a"/>
    <path id="Path_10373" data-name="Path 10373" d="M8.613-.67A6.555,6.555,0,0,1,5.332.164,4.484,4.484,0,0,1,1.938-1.189a4.964,4.964,0,0,1-1.3-3.582A5.1,5.1,0,0,1,2.082-8.507,4.905,4.905,0,0,1,5.729-9.967a6.206,6.206,0,0,1,2.687.52v1.271A5.159,5.159,0,0,0,5.6-8.928,3.519,3.519,0,0,0,2.9-7.793,4.15,4.15,0,0,0,1.846-4.854a4.153,4.153,0,0,0,.978,2.922A3.426,3.426,0,0,0,5.476-.868a4.1,4.1,0,0,0,1.989-.458V-4.074H5.318V-5.113H8.613Zm5.776-5.2a1.371,1.371,0,0,0-.848-.226,1.431,1.431,0,0,0-1.2.677,3.129,3.129,0,0,0-.482,1.846V0H10.739V-7H11.86v1.442h.027a2.444,2.444,0,0,1,.731-1.152,1.668,1.668,0,0,1,1.1-.414,1.83,1.83,0,0,1,.67.1ZM20.617,0H19.5V-1.094h-.027A2.347,2.347,0,0,1,17.315.164,2.3,2.3,0,0,1,15.678-.39a1.918,1.918,0,0,1-.591-1.47q0-1.962,2.311-2.283l2.1-.294q0-1.784-1.442-1.784a3.446,3.446,0,0,0-2.283.861V-6.508a4.338,4.338,0,0,1,2.379-.656q2.468,0,2.468,2.611ZM19.5-3.541l-1.688.232a2.741,2.741,0,0,0-1.176.386,1.114,1.114,0,0,0-.4.981A1.068,1.068,0,0,0,16.6-1.1a1.413,1.413,0,0,0,.974.325,1.8,1.8,0,0,0,1.377-.584,2.088,2.088,0,0,0,.543-1.48Zm2.81,3.288v-1.2a3.318,3.318,0,0,0,2.017.677q1.477,0,1.477-.984a.854.854,0,0,0-.126-.475,1.26,1.26,0,0,0-.342-.345,2.631,2.631,0,0,0-.506-.27q-.291-.12-.625-.25a8.056,8.056,0,0,1-.817-.373,2.468,2.468,0,0,1-.588-.424,1.577,1.577,0,0,1-.355-.537,1.9,1.9,0,0,1-.12-.7,1.673,1.673,0,0,1,.226-.872,2,2,0,0,1,.6-.636A2.805,2.805,0,0,1,24-7.034,3.805,3.805,0,0,1,25-7.164a4.016,4.016,0,0,1,1.627.314v1.135a3.171,3.171,0,0,0-1.777-.506,2.078,2.078,0,0,0-.567.072,1.389,1.389,0,0,0-.434.2.932.932,0,0,0-.28.311.819.819,0,0,0-.1.4.959.959,0,0,0,.1.458,1.008,1.008,0,0,0,.291.328,2.221,2.221,0,0,0,.465.26q.273.116.622.253a8.658,8.658,0,0,1,.834.366,2.86,2.86,0,0,1,.629.424,1.656,1.656,0,0,1,.4.543,1.753,1.753,0,0,1,.14.731,1.725,1.725,0,0,1-.229.9,1.963,1.963,0,0,1-.612.636,2.8,2.8,0,0,1-.882.376,4.354,4.354,0,0,1-1.046.123A3.971,3.971,0,0,1,22.306-.253Zm5.94,0v-1.2a3.318,3.318,0,0,0,2.017.677q1.477,0,1.477-.984a.854.854,0,0,0-.126-.475,1.26,1.26,0,0,0-.342-.345,2.631,2.631,0,0,0-.506-.27q-.291-.12-.625-.25a8.056,8.056,0,0,1-.817-.373,2.468,2.468,0,0,1-.588-.424,1.577,1.577,0,0,1-.355-.537,1.9,1.9,0,0,1-.12-.7,1.673,1.673,0,0,1,.226-.872,2,2,0,0,1,.6-.636,2.805,2.805,0,0,1,.858-.386,3.805,3.805,0,0,1,.995-.13,4.016,4.016,0,0,1,1.627.314v1.135a3.171,3.171,0,0,0-1.777-.506,2.078,2.078,0,0,0-.567.072,1.389,1.389,0,0,0-.434.2.932.932,0,0,0-.28.311.819.819,0,0,0-.1.4.959.959,0,0,0,.1.458,1.008,1.008,0,0,0,.291.328,2.221,2.221,0,0,0,.465.26q.273.116.622.253a8.658,8.658,0,0,1,.834.366,2.86,2.86,0,0,1,.629.424,1.656,1.656,0,0,1,.4.543,1.753,1.753,0,0,1,.14.731,1.725,1.725,0,0,1-.229.9,1.963,1.963,0,0,1-.612.636,2.8,2.8,0,0,1-.882.376,4.354,4.354,0,0,1-1.046.123A3.971,3.971,0,0,1,28.246-.253ZM35.731,0H34.61V-10.363h1.121Zm7.28,0H41.891V-1.094h-.027A2.347,2.347,0,0,1,39.71.164,2.3,2.3,0,0,1,38.073-.39a1.918,1.918,0,0,1-.591-1.47q0-1.962,2.311-2.283l2.1-.294q0-1.784-1.442-1.784a3.446,3.446,0,0,0-2.283.861V-6.508a4.338,4.338,0,0,1,2.379-.656q2.468,0,2.468,2.611ZM41.891-3.541,40.2-3.309a2.741,2.741,0,0,0-1.176.386,1.114,1.114,0,0,0-.4.981A1.068,1.068,0,0,0,39-1.1a1.413,1.413,0,0,0,.974.325,1.8,1.8,0,0,0,1.377-.584,2.088,2.088,0,0,0,.543-1.48ZM50.935,0H49.813V-3.992q0-2.229-1.627-2.229a1.765,1.765,0,0,0-1.391.632,2.344,2.344,0,0,0-.55,1.6V0H45.124V-7h1.121v1.162h.027a2.526,2.526,0,0,1,2.3-1.326,2.142,2.142,0,0,1,1.757.742,3.3,3.3,0,0,1,.608,2.143Zm8.087,0H57.9V-1.189h-.027A2.588,2.588,0,0,1,55.467.164a2.615,2.615,0,0,1-2.109-.94,3.856,3.856,0,0,1-.79-2.56,4.2,4.2,0,0,1,.875-2.782,2.886,2.886,0,0,1,2.331-1.046,2.244,2.244,0,0,1,2.1,1.135H57.9v-4.334h1.121ZM57.9-3.165V-4.2a2,2,0,0,0-.561-1.436,1.88,1.88,0,0,0-1.422-.588,1.936,1.936,0,0,0-1.613.752,3.3,3.3,0,0,0-.588,2.078,2.964,2.964,0,0,0,.564,1.911,1.843,1.843,0,0,0,1.514.7,1.915,1.915,0,0,0,1.521-.677A2.521,2.521,0,0,0,57.9-3.165Z" transform="translate(721 164)" fill="#31313a"/>
    <path id="Path_10371" data-name="Path 10371" d="M7.957-.41A5.749,5.749,0,0,1,5.25.164,4.366,4.366,0,0,1,1.9-1.183,4.969,4.969,0,0,1,.643-4.717a5.208,5.208,0,0,1,1.415-3.8A4.8,4.8,0,0,1,5.646-9.967a5.754,5.754,0,0,1,2.311.4V-8.34a4.686,4.686,0,0,0-2.324-.588A3.566,3.566,0,0,0,2.9-7.8,4.249,4.249,0,0,0,1.846-4.785a4.043,4.043,0,0,0,.981,2.854A3.338,3.338,0,0,0,5.4-.868a4.828,4.828,0,0,0,2.557-.656Zm4.771.574A3.247,3.247,0,0,1,10.25-.817a3.634,3.634,0,0,1-.926-2.6,3.785,3.785,0,0,1,.964-2.755,3.465,3.465,0,0,1,2.6-.991,3.14,3.14,0,0,1,2.444.964,3.822,3.822,0,0,1,.878,2.673,3.761,3.761,0,0,1-.947,2.683A3.317,3.317,0,0,1,12.729.164Zm.082-6.385a2.132,2.132,0,0,0-1.709.735,3.018,3.018,0,0,0-.629,2.027A2.854,2.854,0,0,0,11.108-1.5a2.161,2.161,0,0,0,1.7.718,2.049,2.049,0,0,0,1.671-.7,3.055,3.055,0,0,0,.584-2,3.108,3.108,0,0,0-.584-2.023A2.04,2.04,0,0,0,12.811-6.221ZM23.017,0H21.9V-1.094h-.027A2.347,2.347,0,0,1,19.715.164,2.3,2.3,0,0,1,18.078-.39a1.918,1.918,0,0,1-.591-1.47q0-1.962,2.311-2.283l2.1-.294q0-1.784-1.442-1.784a3.446,3.446,0,0,0-2.283.861V-6.508a4.338,4.338,0,0,1,2.379-.656q2.468,0,2.468,2.611ZM21.9-3.541l-1.688.232a2.741,2.741,0,0,0-1.176.386,1.114,1.114,0,0,0-.4.981A1.068,1.068,0,0,0,19-1.1a1.413,1.413,0,0,0,.974.325,1.8,1.8,0,0,0,1.377-.584,2.088,2.088,0,0,0,.543-1.48Zm2.81,3.288v-1.2a3.318,3.318,0,0,0,2.017.677q1.477,0,1.477-.984a.854.854,0,0,0-.126-.475,1.26,1.26,0,0,0-.342-.345,2.631,2.631,0,0,0-.506-.27q-.291-.12-.625-.25a8.056,8.056,0,0,1-.817-.373,2.468,2.468,0,0,1-.588-.424,1.577,1.577,0,0,1-.355-.537,1.9,1.9,0,0,1-.12-.7,1.673,1.673,0,0,1,.226-.872,2,2,0,0,1,.6-.636,2.805,2.805,0,0,1,.858-.386,3.805,3.805,0,0,1,.995-.13,4.016,4.016,0,0,1,1.627.314v1.135a3.171,3.171,0,0,0-1.777-.506,2.078,2.078,0,0,0-.567.072,1.389,1.389,0,0,0-.434.2.932.932,0,0,0-.28.311.819.819,0,0,0-.1.4.959.959,0,0,0,.1.458,1.008,1.008,0,0,0,.291.328,2.221,2.221,0,0,0,.465.26q.273.116.622.253a8.658,8.658,0,0,1,.834.366,2.86,2.86,0,0,1,.629.424,1.656,1.656,0,0,1,.4.543,1.753,1.753,0,0,1,.14.731,1.725,1.725,0,0,1-.229.9,1.963,1.963,0,0,1-.612.636,2.8,2.8,0,0,1-.882.376,4.354,4.354,0,0,1-1.046.123A3.971,3.971,0,0,1,24.705-.253Zm9.611.185A2.161,2.161,0,0,1,33.271.15Q31.432.15,31.432-1.9V-6.043h-1.2V-7h1.2V-8.709l1.121-.362V-7h1.764v.957H32.553V-2.1a1.635,1.635,0,0,0,.239,1,.955.955,0,0,0,.793.3,1.179,1.179,0,0,0,.731-.232ZM36.935,0H35.813V-10.363h1.121Zm2.844-8.777a.71.71,0,0,1-.513-.205.692.692,0,0,1-.212-.52.7.7,0,0,1,.212-.523.7.7,0,0,1,.513-.208.724.724,0,0,1,.523.208.7.7,0,0,1,.215.523.693.693,0,0,1-.215.513A.718.718,0,0,1,39.778-8.777ZM40.325,0H39.2V-7h1.121Zm8.08,0H47.284V-3.992q0-2.229-1.627-2.229a1.765,1.765,0,0,0-1.391.632,2.344,2.344,0,0,0-.55,1.6V0H42.595V-7h1.121v1.162h.027a2.526,2.526,0,0,1,2.3-1.326,2.142,2.142,0,0,1,1.757.742,3.3,3.3,0,0,1,.608,2.143Zm7.738-3.22H51.2a2.618,2.618,0,0,0,.629,1.8,2.168,2.168,0,0,0,1.654.636,3.439,3.439,0,0,0,2.174-.779V-.506a4.063,4.063,0,0,1-2.44.67A2.959,2.959,0,0,1,50.887-.79a3.9,3.9,0,0,1-.848-2.683,3.828,3.828,0,0,1,.926-2.663,2.97,2.97,0,0,1,2.3-1.029,2.632,2.632,0,0,1,2.126.889,3.705,3.705,0,0,1,.752,2.468ZM55-4.17a2.281,2.281,0,0,0-.468-1.511,1.6,1.6,0,0,0-1.282-.54,1.811,1.811,0,0,0-1.347.567,2.575,2.575,0,0,0-.684,1.483Z" transform="translate(721 212)" fill="#31313a"/>
    <path id="Path_10368" data-name="Path 10368" d="M7.957-.41A5.749,5.749,0,0,1,5.25.164,4.366,4.366,0,0,1,1.9-1.183,4.969,4.969,0,0,1,.643-4.717a5.208,5.208,0,0,1,1.415-3.8A4.8,4.8,0,0,1,5.646-9.967a5.754,5.754,0,0,1,2.311.4V-8.34a4.686,4.686,0,0,0-2.324-.588A3.566,3.566,0,0,0,2.9-7.8,4.249,4.249,0,0,0,1.846-4.785a4.043,4.043,0,0,0,.981,2.854A3.338,3.338,0,0,0,5.4-.868a4.828,4.828,0,0,0,2.557-.656Zm4.771.574A3.247,3.247,0,0,1,10.25-.817a3.634,3.634,0,0,1-.926-2.6,3.785,3.785,0,0,1,.964-2.755,3.465,3.465,0,0,1,2.6-.991,3.14,3.14,0,0,1,2.444.964,3.822,3.822,0,0,1,.878,2.673,3.761,3.761,0,0,1-.947,2.683A3.317,3.317,0,0,1,12.729.164Zm.082-6.385a2.132,2.132,0,0,0-1.709.735,3.018,3.018,0,0,0-.629,2.027A2.854,2.854,0,0,0,11.108-1.5a2.161,2.161,0,0,0,1.7.718,2.049,2.049,0,0,0,1.671-.7,3.055,3.055,0,0,0,.584-2,3.108,3.108,0,0,0-.584-2.023A2.04,2.04,0,0,0,12.811-6.221ZM23.017,0H21.9V-1.094h-.027A2.347,2.347,0,0,1,19.715.164,2.3,2.3,0,0,1,18.078-.39a1.918,1.918,0,0,1-.591-1.47q0-1.962,2.311-2.283l2.1-.294q0-1.784-1.442-1.784a3.446,3.446,0,0,0-2.283.861V-6.508a4.338,4.338,0,0,1,2.379-.656q2.468,0,2.468,2.611ZM21.9-3.541l-1.688.232a2.741,2.741,0,0,0-1.176.386,1.114,1.114,0,0,0-.4.981A1.068,1.068,0,0,0,19-1.1a1.413,1.413,0,0,0,.974.325,1.8,1.8,0,0,0,1.377-.584,2.088,2.088,0,0,0,.543-1.48Zm2.81,3.288v-1.2a3.318,3.318,0,0,0,2.017.677q1.477,0,1.477-.984a.854.854,0,0,0-.126-.475,1.26,1.26,0,0,0-.342-.345,2.631,2.631,0,0,0-.506-.27q-.291-.12-.625-.25a8.056,8.056,0,0,1-.817-.373,2.468,2.468,0,0,1-.588-.424,1.577,1.577,0,0,1-.355-.537,1.9,1.9,0,0,1-.12-.7,1.673,1.673,0,0,1,.226-.872,2,2,0,0,1,.6-.636,2.805,2.805,0,0,1,.858-.386,3.805,3.805,0,0,1,.995-.13,4.016,4.016,0,0,1,1.627.314v1.135a3.171,3.171,0,0,0-1.777-.506,2.078,2.078,0,0,0-.567.072,1.389,1.389,0,0,0-.434.2.932.932,0,0,0-.28.311.819.819,0,0,0-.1.4.959.959,0,0,0,.1.458,1.008,1.008,0,0,0,.291.328,2.221,2.221,0,0,0,.465.26q.273.116.622.253a8.658,8.658,0,0,1,.834.366,2.86,2.86,0,0,1,.629.424,1.656,1.656,0,0,1,.4.543,1.753,1.753,0,0,1,.14.731,1.725,1.725,0,0,1-.229.9,1.963,1.963,0,0,1-.612.636,2.8,2.8,0,0,1-.882.376,4.354,4.354,0,0,1-1.046.123A3.971,3.971,0,0,1,24.705-.253Zm9.611.185A2.161,2.161,0,0,1,33.271.15Q31.432.15,31.432-1.9V-6.043h-1.2V-7h1.2V-8.709l1.121-.362V-7h1.764v.957H32.553V-2.1a1.635,1.635,0,0,0,.239,1,.955.955,0,0,0,.793.3,1.179,1.179,0,0,0,.731-.232ZM40.824,0H39.7V-1.094h-.027A2.347,2.347,0,0,1,37.522.164,2.3,2.3,0,0,1,35.885-.39a1.918,1.918,0,0,1-.591-1.47q0-1.962,2.311-2.283l2.1-.294q0-1.784-1.442-1.784a3.446,3.446,0,0,0-2.283.861V-6.508a4.338,4.338,0,0,1,2.379-.656q2.468,0,2.468,2.611ZM39.7-3.541l-1.688.232a2.741,2.741,0,0,0-1.176.386,1.114,1.114,0,0,0-.4.981,1.068,1.068,0,0,0,.366.837,1.413,1.413,0,0,0,.974.325,1.8,1.8,0,0,0,1.377-.584,2.088,2.088,0,0,0,.543-1.48ZM44.058,0H42.937V-10.363h1.121ZM61.934-9.8,59.165,0H57.818L55.8-7.164a4.485,4.485,0,0,1-.157-1h-.027a5.064,5.064,0,0,1-.178.984L53.409,0H52.076L49.205-9.8H50.47l2.085,7.52a4.935,4.935,0,0,1,.164.984h.034a5.811,5.811,0,0,1,.212-.984L55.132-9.8h1.1l2.078,7.574a5.54,5.54,0,0,1,.164.916H58.5a5.491,5.491,0,0,1,.185-.943l2-7.547ZM67.7,0H66.582V-1.094h-.027A2.347,2.347,0,0,1,64.4.164,2.3,2.3,0,0,1,62.764-.39a1.918,1.918,0,0,1-.591-1.47q0-1.962,2.311-2.283l2.1-.294q0-1.784-1.442-1.784a3.446,3.446,0,0,0-2.283.861V-6.508a4.338,4.338,0,0,1,2.379-.656q2.468,0,2.468,2.611ZM66.582-3.541l-1.688.232a2.741,2.741,0,0,0-1.176.386,1.114,1.114,0,0,0-.4.981,1.068,1.068,0,0,0,.366.837,1.413,1.413,0,0,0,.974.325,1.8,1.8,0,0,0,1.377-.584,2.088,2.088,0,0,0,.543-1.48Zm6.48,3.473A2.161,2.161,0,0,1,72.017.15Q70.178.15,70.178-1.9V-6.043h-1.2V-7h1.2V-8.709L71.3-9.071V-7h1.764v.957H71.3V-2.1a1.635,1.635,0,0,0,.239,1,.955.955,0,0,0,.793.3,1.179,1.179,0,0,0,.731-.232ZM80.186-3.22H75.243a2.618,2.618,0,0,0,.629,1.8,2.168,2.168,0,0,0,1.654.636A3.439,3.439,0,0,0,79.7-1.559V-.506a4.063,4.063,0,0,1-2.44.67A2.959,2.959,0,0,1,74.929-.79a3.9,3.9,0,0,1-.848-2.683,3.828,3.828,0,0,1,.926-2.663,2.97,2.97,0,0,1,2.3-1.029,2.632,2.632,0,0,1,2.126.889,3.705,3.705,0,0,1,.752,2.468Zm-1.148-.95a2.281,2.281,0,0,0-.468-1.511,1.6,1.6,0,0,0-1.282-.54,1.811,1.811,0,0,0-1.347.567,2.575,2.575,0,0,0-.684,1.483Zm6.494-1.7a1.371,1.371,0,0,0-.848-.226,1.431,1.431,0,0,0-1.2.677A3.129,3.129,0,0,0,83-3.568V0H81.881V-7H83v1.442h.027a2.444,2.444,0,0,1,.731-1.152,1.668,1.668,0,0,1,1.1-.414,1.83,1.83,0,0,1,.67.1Z" transform="translate(721 260)" fill="#31313a"/>
    <path id="Path_10369" data-name="Path 10369" d="M12.906-9.8,10.138,0H8.791L6.774-7.164a4.485,4.485,0,0,1-.157-1H6.59a5.064,5.064,0,0,1-.178.984L4.382,0H3.049L.178-9.8H1.442l2.085,7.52a4.935,4.935,0,0,1,.164.984h.034a5.811,5.811,0,0,1,.212-.984L6.1-9.8h1.1L9.283-2.229a5.541,5.541,0,0,1,.164.916h.027a5.491,5.491,0,0,1,.185-.943l2-7.547ZM16.591.164a3.247,3.247,0,0,1-2.478-.981,3.634,3.634,0,0,1-.926-2.6,3.785,3.785,0,0,1,.964-2.755,3.465,3.465,0,0,1,2.6-.991A3.14,3.14,0,0,1,19.2-6.2a3.822,3.822,0,0,1,.878,2.673A3.761,3.761,0,0,1,19.13-.844,3.317,3.317,0,0,1,16.591.164Zm.082-6.385a2.132,2.132,0,0,0-1.709.735,3.018,3.018,0,0,0-.629,2.027A2.854,2.854,0,0,0,14.971-1.5a2.161,2.161,0,0,0,1.7.718,2.049,2.049,0,0,0,1.671-.7,3.055,3.055,0,0,0,.584-2,3.108,3.108,0,0,0-.584-2.023A2.04,2.04,0,0,0,16.673-6.221ZM24.794.164a3.247,3.247,0,0,1-2.478-.981,3.633,3.633,0,0,1-.926-2.6,3.785,3.785,0,0,1,.964-2.755,3.465,3.465,0,0,1,2.6-.991A3.14,3.14,0,0,1,27.4-6.2a3.822,3.822,0,0,1,.878,2.673,3.761,3.761,0,0,1-.947,2.683A3.317,3.317,0,0,1,24.794.164Zm.082-6.385a2.132,2.132,0,0,0-1.709.735,3.018,3.018,0,0,0-.629,2.027A2.854,2.854,0,0,0,23.174-1.5a2.161,2.161,0,0,0,1.7.718,2.049,2.049,0,0,0,1.671-.7,3.055,3.055,0,0,0,.584-2,3.108,3.108,0,0,0-.584-2.023A2.04,2.04,0,0,0,24.876-6.221ZM36.046,0H34.925V-1.189H34.9A2.588,2.588,0,0,1,32.491.164a2.615,2.615,0,0,1-2.109-.94,3.856,3.856,0,0,1-.79-2.56,4.2,4.2,0,0,1,.875-2.782A2.886,2.886,0,0,1,32.8-7.164a2.244,2.244,0,0,1,2.1,1.135h.027v-4.334h1.121ZM34.925-3.165V-4.2a2,2,0,0,0-.561-1.436,1.88,1.88,0,0,0-1.422-.588,1.936,1.936,0,0,0-1.613.752,3.3,3.3,0,0,0-.588,2.078,2.964,2.964,0,0,0,.564,1.911,1.843,1.843,0,0,0,1.514.7,1.915,1.915,0,0,0,1.521-.677A2.521,2.521,0,0,0,34.925-3.165ZM39.437,0H38.315V-10.363h1.121Zm7.28,0H45.6V-1.094h-.027A2.347,2.347,0,0,1,43.415.164,2.3,2.3,0,0,1,41.778-.39a1.918,1.918,0,0,1-.591-1.47q0-1.962,2.311-2.283l2.1-.294q0-1.784-1.442-1.784a3.446,3.446,0,0,0-2.283.861V-6.508a4.338,4.338,0,0,1,2.379-.656q2.468,0,2.468,2.611ZM45.6-3.541l-1.688.232a2.741,2.741,0,0,0-1.176.386,1.114,1.114,0,0,0-.4.981A1.068,1.068,0,0,0,42.7-1.1a1.413,1.413,0,0,0,.974.325,1.8,1.8,0,0,0,1.377-.584,2.088,2.088,0,0,0,.543-1.48ZM54.64,0H53.519V-3.992q0-2.229-1.627-2.229a1.765,1.765,0,0,0-1.391.632,2.344,2.344,0,0,0-.55,1.6V0H48.829V-7H49.95v1.162h.027a2.526,2.526,0,0,1,2.3-1.326,2.142,2.142,0,0,1,1.757.742,3.3,3.3,0,0,1,.608,2.143Zm8.087,0H61.605V-1.189h-.027A2.588,2.588,0,0,1,59.172.164a2.615,2.615,0,0,1-2.109-.94,3.856,3.856,0,0,1-.79-2.56,4.2,4.2,0,0,1,.875-2.782,2.886,2.886,0,0,1,2.331-1.046,2.244,2.244,0,0,1,2.1,1.135h.027v-4.334h1.121ZM61.605-3.165V-4.2a2,2,0,0,0-.561-1.436,1.88,1.88,0,0,0-1.422-.588,1.936,1.936,0,0,0-1.613.752,3.3,3.3,0,0,0-.588,2.078,2.964,2.964,0,0,0,.564,1.911,1.843,1.843,0,0,0,1.514.7,1.915,1.915,0,0,0,1.521-.677A2.521,2.521,0,0,0,61.605-3.165Z" transform="translate(721 308)" fill="#31313a"/>
    <path id="Path_10384" data-name="Path 10384" d="M0,0H16.331V16.331H0Z" transform="translate(308.215 97.989)" fill="none"/>
    <path id="Path_8841" data-name="Path 8841" d="M5.782,6.521a.272.272,0,0,0,.408,0l3.4-3.4,3.4,3.4a.272.272,0,0,0,.408,0L14.628,5.3a.272.272,0,0,0,0-.408L9.8.057a.272.272,0,0,0-.408,0l-4.831,4.9a.272.272,0,0,0,0,.408Z" transform="translate(306.788 98)" fill="#24252c"/>
    <path id="Path_8842" data-name="Path 8842" d="M13.4,14.357a.272.272,0,0,0-.408,0l-3.4,3.4-3.4-3.4a.272.272,0,0,0-.408,0L4.557,15.582a.272.272,0,0,0,0,.408l4.831,4.831a.272.272,0,0,0,.408,0l4.831-4.831a.272.272,0,0,0,0-.408Z" transform="translate(306.788 93.431)" fill="#24252c"/>
    <path id="Path_10377" data-name="Path 10377" d="M0,0H16V16H0Z" transform="translate(691 101)" fill="none"/>
    <path id="Path_8843" data-name="Path 8843" d="M13.234,4.365,10.171,8.3l-.287.37v4.262l-1.365.455V8.674L8.231,8.3,5.166,4.365h8.068M14.631,3H3.77a.682.682,0,0,0-.537,1.1L7.153,9.142v5.669a.341.341,0,0,0,.449.323l3.179-1.06a.682.682,0,0,0,.467-.648V9.142L15.168,4.1A.682.682,0,0,0,14.631,3Z" transform="translate(690.105 100.047)" fill="#31313a"/>
    <g id="Search_Input" data-name="Search Input" transform="translate(189 20)">
      <g id="Rectangle_298" data-name="Rectangle 298" fill="#fff" stroke="#cbcbd2" stroke-width="1">
        <rect width="243" height="42" rx="4" stroke="none"/>
        <rect x="0.5" y="0.5" width="242" height="41" rx="3.5" fill="none"/>
      </g>
      <text id="Filter_account_name" data-name="Filter account name" transform="translate(45 27)" fill="#cbcbd2" font-size="14" font-family="SegoeUI, Segoe UI"><tspan x="0" y="0">Filter account name</tspan></text>
      <path id="Path_458" data-name="Path 458" d="M303.8,258.3l-5-5a6.354,6.354,0,0,0,1.1-4.9,6.471,6.471,0,0,0-5.6-5.3,6.53,6.53,0,0,0-2,12.9,6.914,6.914,0,0,0,4.9-1.1l5,5a1.088,1.088,0,0,0,1.5,0A1.222,1.222,0,0,0,303.8,258.3Zm-14.7-9.5a4.458,4.458,0,0,1,3.7-3.7,4.57,4.57,0,0,1,5.2,5.2,4.458,4.458,0,0,1-3.7,3.7A4.609,4.609,0,0,1,289.1,248.8Z" transform="translate(-274 -231.052)" fill="#4e92df"/>
    </g>
    <g id="Secondary_Button_-_Normal" data-name="Secondary Button - Normal" transform="translate(786 24)" clip-path="url(#clip-path)">
      <g id="Rectangle_3991" data-name="Rectangle 3991" fill="none" stroke="#cbcbd2" stroke-width="1">
        <rect width="73.934" height="36" rx="18" stroke="none"/>
        <rect x="0.5" y="0.5" width="72.934" height="35" rx="17.5" fill="none"/>
      </g>
      <text id="Action" transform="translate(37 23)" fill="#2777d3" font-size="14" font-family="SegoeUI-Semibold, Segoe UI" font-weight="600"><tspan x="-20.614" y="0">Action</tspan></text>
    </g>
  </g>
</svg>
