<svg xmlns="http://www.w3.org/2000/svg" xmlns:xlink="http://www.w3.org/1999/xlink" width="900" height="474" viewBox="0 0 900 474">
  <defs>
    <filter id="Card" x="274.5" y="26.5" width="409" height="423" filterUnits="userSpaceOnUse">
      <feOffset dy="1" input="SourceAlpha"/>
      <feGaussianBlur stdDeviation="1.5" result="blur"/>
      <feFlood flood-opacity="0.161"/>
      <feComposite operator="in" in2="blur"/>
      <feComposite in="SourceGraphic"/>
    </filter>
    <clipPath id="clip-path">
      <rect width="73.934" height="36" fill="none"/>
    </clipPath>
    <clipPath id="clip-card--headline-long">
      <rect width="900" height="474"/>
    </clipPath>
  </defs>
  <g id="card--headline-long" clip-path="url(#clip-card--headline-long)">
    <rect width="900" height="474" fill="#f4f4f6"/>
    <g id="Group_13285" data-name="Group 13285" transform="translate(-613 -13)">
      <g transform="matrix(1, 0, 0, 1, 613, 13)" filter="url(#Card)">
        <rect id="Card-2" data-name="Card" width="400" height="414" rx="2" transform="translate(279 30)" fill="#fff"/>
      </g>
    </g>
    <path id="Path_10349" data-name="Path 10349" d="M11.494,21.414a8.49,8.49,0,0,1-3.936.82,6.435,6.435,0,0,1-4.883-1.924A7.01,7.01,0,0,1,.84,15.262a7.352,7.352,0,0,1,2.065-5.43,7.066,7.066,0,0,1,5.22-2.07,8.554,8.554,0,0,1,3.369.576v2.3A6.012,6.012,0,0,0,8.369,9.8a4.9,4.9,0,0,0-3.687,1.455,5.345,5.345,0,0,0-1.411,3.887A5.1,5.1,0,0,0,4.59,18.831,4.588,4.588,0,0,0,8.057,20.2a6.207,6.207,0,0,0,3.438-.937ZM21.572,22h-2.2V20.438h-.039a3.308,3.308,0,0,1-3.037,1.8,3.2,3.2,0,0,1-2.31-.8,2.8,2.8,0,0,1-.835-2.119q0-2.832,3.262-3.3l2.969-.42q0-2.139-2.031-2.139a4.825,4.825,0,0,0-3.223,1.23V12.7a7.028,7.028,0,0,1,3.652-.937q3.789,0,3.789,3.73Zm-2.187-4.912-2.1.293a3.328,3.328,0,0,0-1.47.474,1.384,1.384,0,0,0-.493,1.216,1.331,1.331,0,0,0,.454,1.04,1.758,1.758,0,0,0,1.216.405,2.243,2.243,0,0,0,1.714-.728,2.58,2.58,0,0,0,.679-1.831Zm10.752-2.93a1.878,1.878,0,0,0-1.182-.322,2.023,2.023,0,0,0-1.68.908,4.061,4.061,0,0,0-.674,2.471V22H24.336V12H26.6v2.061h.039a3.484,3.484,0,0,1,1.021-1.646,2.3,2.3,0,0,1,1.538-.591,1.909,1.909,0,0,1,.938.186ZM40.654,22H38.389V20.3H38.35a3.91,3.91,0,0,1-6.323.591,5.574,5.574,0,0,1-1.108-3.657,6.073,6.073,0,0,1,1.226-3.975,4.011,4.011,0,0,1,3.267-1.494,3.128,3.128,0,0,1,2.939,1.621h.039V7.2h2.266Zm-2.236-4.57V16.121a2.55,2.55,0,0,0-.693-1.807,2.313,2.313,0,0,0-1.768-.742,2.38,2.38,0,0,0-2,.947,4.221,4.221,0,0,0-.728,2.627,3.782,3.782,0,0,0,.7,2.407,2.271,2.271,0,0,0,1.88.884,2.351,2.351,0,0,0,1.885-.854A3.219,3.219,0,0,0,38.418,17.43ZM58,22H55.732V16.531q0-2.969-1.982-2.969a2.073,2.073,0,0,0-1.68.859,3.421,3.421,0,0,0-.684,2.2V22H49.111V7.2h2.275V13.66h.039a3.578,3.578,0,0,1,3.242-1.895q3.33,0,3.33,4.072Zm11.221-4.385H62.4a2.881,2.881,0,0,0,.854,2.139,3.179,3.179,0,0,0,2.241.752,4.942,4.942,0,0,0,2.939-.957v1.826a6.716,6.716,0,0,1-3.613.859,4.473,4.473,0,0,1-3.462-1.362,5.449,5.449,0,0,1-1.255-3.833,5.328,5.328,0,0,1,1.382-3.8,4.52,4.52,0,0,1,3.433-1.47A3.941,3.941,0,0,1,68.1,13.084a5.474,5.474,0,0,1,1.123,3.662Zm-2.187-1.6a2.919,2.919,0,0,0-.576-1.9,1.925,1.925,0,0,0-1.562-.679,2.2,2.2,0,0,0-1.655.713,3.257,3.257,0,0,0-.835,1.865ZM79.053,22h-2.2V20.438h-.039a3.308,3.308,0,0,1-3.037,1.8,3.2,3.2,0,0,1-2.31-.8,2.8,2.8,0,0,1-.835-2.119q0-2.832,3.262-3.3l2.969-.42q0-2.139-2.031-2.139a4.825,4.825,0,0,0-3.223,1.23V12.7a7.028,7.028,0,0,1,3.652-.937q3.789,0,3.789,3.73Zm-2.187-4.912-2.1.293a3.328,3.328,0,0,0-1.47.474A1.384,1.384,0,0,0,72.8,19.07a1.331,1.331,0,0,0,.454,1.04,1.758,1.758,0,0,0,1.216.405,2.243,2.243,0,0,0,1.714-.728,2.58,2.58,0,0,0,.679-1.831ZM90.908,22H88.643V20.3H88.6a3.91,3.91,0,0,1-6.323.591,5.574,5.574,0,0,1-1.108-3.657A6.073,6.073,0,0,1,82.4,13.26a4.011,4.011,0,0,1,3.267-1.494A3.128,3.128,0,0,1,88.6,13.387h.039V7.2h2.266Zm-2.236-4.57V16.121a2.55,2.55,0,0,0-.693-1.807,2.313,2.313,0,0,0-1.768-.742,2.38,2.38,0,0,0-2,.947,4.221,4.221,0,0,0-.728,2.627,3.782,3.782,0,0,0,.7,2.407,2.271,2.271,0,0,0,1.88.884,2.351,2.351,0,0,0,1.885-.854A3.219,3.219,0,0,0,88.672,17.43ZM96.143,22H93.867V7.2h2.275Zm4.092-12.1a1.362,1.362,0,0,1-.952-.361,1.189,1.189,0,0,1-.4-.918,1.219,1.219,0,0,1,.4-.928,1.342,1.342,0,0,1,.952-.371,1.384,1.384,0,0,1,.977.371,1.212,1.212,0,0,1,.4.928,1.2,1.2,0,0,1-.4.9A1.374,1.374,0,0,1,100.234,9.9ZM101.357,22H99.092V12h2.266Zm11.865,0h-2.266V16.365q0-2.8-1.982-2.8a2.164,2.164,0,0,0-1.709.776,2.88,2.88,0,0,0-.674,1.958V22h-2.275V12h2.275v1.66h.039a3.564,3.564,0,0,1,3.242-1.895,3.02,3.02,0,0,1,2.49,1.06,4.758,4.758,0,0,1,.859,3.062Zm11.23-4.385h-6.816a2.881,2.881,0,0,0,.854,2.139,3.179,3.179,0,0,0,2.241.752,4.942,4.942,0,0,0,2.939-.957v1.826a6.716,6.716,0,0,1-3.613.859,4.473,4.473,0,0,1-3.462-1.362,5.449,5.449,0,0,1-1.255-3.833,5.328,5.328,0,0,1,1.382-3.8,4.52,4.52,0,0,1,3.433-1.47,3.941,3.941,0,0,1,3.174,1.318,5.474,5.474,0,0,1,1.123,3.662Zm-2.187-1.6a2.919,2.919,0,0,0-.576-1.9,1.925,1.925,0,0,0-1.562-.679,2.2,2.2,0,0,0-1.655.713,3.257,3.257,0,0,0-.835,1.865ZM145.557,12l-2.949,10h-2.373l-1.816-6.777a4.292,4.292,0,0,1-.137-.879h-.039a4.006,4.006,0,0,1-.176.859L136.094,22H133.77L130.83,12h2.344l1.816,7.207a4.27,4.27,0,0,1,.117.859h.068a4.641,4.641,0,0,1,.156-.879L137.354,12h2.129l1.8,7.236a5.062,5.062,0,0,1,.127.859h.068a4.557,4.557,0,0,1,.146-.859L143.4,12Zm2.822-2.1a1.362,1.362,0,0,1-.952-.361,1.189,1.189,0,0,1-.4-.918,1.219,1.219,0,0,1,.4-.928,1.342,1.342,0,0,1,.952-.371,1.384,1.384,0,0,1,.977.371,1.212,1.212,0,0,1,.4.928,1.2,1.2,0,0,1-.4.9A1.374,1.374,0,0,1,148.379,9.9ZM149.5,22h-2.266V12H149.5Zm8.232-.107a3.926,3.926,0,0,1-1.748.332q-2.91,0-2.91-2.793V13.777h-1.67V12h1.67V9.686l2.266-.645V12h2.393v1.777h-2.393v5a1.97,1.97,0,0,0,.322,1.27,1.338,1.338,0,0,0,1.074.381,1.558,1.558,0,0,0,1-.332Zm10.84.107h-2.266V16.531q0-2.969-1.982-2.969a2.073,2.073,0,0,0-1.68.859,3.421,3.421,0,0,0-.684,2.2V22h-2.275V7.2h2.275V13.66H162a3.578,3.578,0,0,1,3.242-1.895q3.33,0,3.33,4.072ZM184.5,22h-2.2V20.438h-.039a3.308,3.308,0,0,1-3.037,1.8,3.2,3.2,0,0,1-2.31-.8,2.8,2.8,0,0,1-.835-2.119q0-2.832,3.262-3.3l2.969-.42q0-2.139-2.031-2.139a4.825,4.825,0,0,0-3.223,1.23V12.7a7.028,7.028,0,0,1,3.652-.937q3.789,0,3.789,3.73Zm-2.187-4.912-2.1.293a3.328,3.328,0,0,0-1.47.474,1.384,1.384,0,0,0-.493,1.216,1.331,1.331,0,0,0,.454,1.04,1.758,1.758,0,0,0,1.216.405,2.243,2.243,0,0,0,1.714-.728,2.58,2.58,0,0,0,.679-1.831ZM3.75,54H1.475V39.2H3.75Zm7.383.234a4.957,4.957,0,0,1-3.7-1.4,5.062,5.062,0,0,1-1.382-3.716A5.267,5.267,0,0,1,7.5,45.182a5.3,5.3,0,0,1,3.882-1.416,4.8,4.8,0,0,1,3.652,1.377,5.319,5.319,0,0,1,1.309,3.818,5.241,5.241,0,0,1-1.411,3.833A5.069,5.069,0,0,1,11.133,54.234Zm.107-8.662a2.586,2.586,0,0,0-2.1.928,3.885,3.885,0,0,0-.771,2.559,3.659,3.659,0,0,0,.781,2.476,2.624,2.624,0,0,0,2.09.9,2.49,2.49,0,0,0,2.056-.889,3.934,3.934,0,0,0,.718-2.529,3.993,3.993,0,0,0-.718-2.549A2.478,2.478,0,0,0,11.24,45.572ZM27.549,54H25.283V48.365q0-2.8-1.982-2.8a2.164,2.164,0,0,0-1.709.776,2.88,2.88,0,0,0-.674,1.958V54H18.643V44h2.275v1.66h.039A3.564,3.564,0,0,1,24.2,43.766a3.02,3.02,0,0,1,2.49,1.06,4.758,4.758,0,0,1,.859,3.062Zm11.865-.8q0,5.508-5.537,5.508a8.247,8.247,0,0,1-3.408-.654v-2.07a6.307,6.307,0,0,0,3.115.938q3.564,0,3.564-3.506V52.32h-.039a3.93,3.93,0,0,1-6.323.581,5.39,5.39,0,0,1-1.118-3.579,6.313,6.313,0,0,1,1.2-4.053,3.994,3.994,0,0,1,3.3-1.5,3.181,3.181,0,0,1,2.939,1.621h.039V44h2.266ZM37.168,49.42v-1.3a2.544,2.544,0,0,0-.7-1.8,2.287,2.287,0,0,0-1.743-.747,2.4,2.4,0,0,0-2.017.952,4.3,4.3,0,0,0-.728,2.661,3.7,3.7,0,0,0,.7,2.358,2.241,2.241,0,0,0,1.851.884,2.4,2.4,0,0,0,1.9-.845A3.183,3.183,0,0,0,37.168,49.42Zm13.662.2H44.014a2.881,2.881,0,0,0,.854,2.139,3.179,3.179,0,0,0,2.241.752,4.942,4.942,0,0,0,2.939-.957v1.826a6.716,6.716,0,0,1-3.613.859,4.473,4.473,0,0,1-3.462-1.362,5.449,5.449,0,0,1-1.255-3.833,5.328,5.328,0,0,1,1.382-3.8,4.52,4.52,0,0,1,3.433-1.47,3.941,3.941,0,0,1,3.174,1.318,5.474,5.474,0,0,1,1.123,3.662Zm-2.187-1.6a2.919,2.919,0,0,0-.576-1.9,1.925,1.925,0,0,0-1.562-.679,2.2,2.2,0,0,0-1.655.713,3.257,3.257,0,0,0-.835,1.865Zm10.146-1.855a1.878,1.878,0,0,0-1.182-.322,2.023,2.023,0,0,0-1.68.908,4.061,4.061,0,0,0-.674,2.471V54H52.988V44h2.266v2.061h.039a3.484,3.484,0,0,1,1.021-1.646,2.3,2.3,0,0,1,1.538-.591,1.909,1.909,0,0,1,.938.186Zm12.373,7.734a3.926,3.926,0,0,1-1.748.332q-2.91,0-2.91-2.793V45.777h-1.67V44H66.5V41.686l2.266-.645V44h2.393v1.777H68.77v5a1.97,1.97,0,0,0,.322,1.27,1.338,1.338,0,0,0,1.074.381,1.558,1.558,0,0,0,1-.332Zm3.1-11.992a1.362,1.362,0,0,1-.952-.361,1.189,1.189,0,0,1-.4-.918,1.219,1.219,0,0,1,.4-.928,1.342,1.342,0,0,1,.952-.371,1.384,1.384,0,0,1,.977.371,1.212,1.212,0,0,1,.4.928,1.2,1.2,0,0,1-.4.9A1.374,1.374,0,0,1,74.258,41.9ZM75.381,54H73.115V44h2.266Zm8.232-.107a3.926,3.926,0,0,1-1.748.332q-2.91,0-2.91-2.793V45.777h-1.67V44h1.67V41.686l2.266-.645V44h2.393v1.777H81.221v5a1.97,1.97,0,0,0,.322,1.27,1.338,1.338,0,0,0,1.074.381,1.558,1.558,0,0,0,1-.332ZM87.842,54H85.566V39.2h2.275Zm11.416-4.385H92.441a2.881,2.881,0,0,0,.854,2.139,3.179,3.179,0,0,0,2.241.752,4.942,4.942,0,0,0,2.939-.957v1.826a6.716,6.716,0,0,1-3.613.859A4.473,4.473,0,0,1,91.4,52.872a5.449,5.449,0,0,1-1.255-3.833,5.328,5.328,0,0,1,1.382-3.8,4.52,4.52,0,0,1,3.433-1.47,3.941,3.941,0,0,1,3.174,1.318,5.474,5.474,0,0,1,1.123,3.662Zm-2.187-1.6a2.919,2.919,0,0,0-.576-1.9,1.925,1.925,0,0,0-1.562-.679,2.2,2.2,0,0,0-1.655.713,3.257,3.257,0,0,0-.835,1.865Zm15.117,5.879a3.926,3.926,0,0,1-1.748.332q-2.91,0-2.91-2.793V45.777h-1.67V44h1.67V41.686l2.266-.645V44h2.393v1.777h-2.393v5a1.97,1.97,0,0,0,.322,1.27,1.338,1.338,0,0,0,1.074.381,1.558,1.558,0,0,0,1-.332Zm10.84.107h-2.266V48.531q0-2.969-1.982-2.969a2.073,2.073,0,0,0-1.68.859,3.421,3.421,0,0,0-.684,2.2V54h-2.275V39.2h2.275V45.66h.039a3.578,3.578,0,0,1,3.242-1.895q3.33,0,3.33,4.072Zm10.43,0h-2.2V52.438h-.039a3.308,3.308,0,0,1-3.037,1.8,3.2,3.2,0,0,1-2.31-.8,2.8,2.8,0,0,1-.835-2.119q0-2.832,3.262-3.3l2.969-.42q0-2.139-2.031-2.139a4.825,4.825,0,0,0-3.223,1.23V44.7a7.028,7.028,0,0,1,3.652-.937q3.789,0,3.789,3.73Zm-2.187-4.912-2.1.293a3.328,3.328,0,0,0-1.47.474,1.384,1.384,0,0,0-.493,1.216,1.331,1.331,0,0,0,.454,1.04,1.758,1.758,0,0,0,1.216.405,2.243,2.243,0,0,0,1.714-.728,2.58,2.58,0,0,0,.679-1.831Zm10.225,4.8a3.926,3.926,0,0,1-1.748.332q-2.91,0-2.91-2.793V45.777h-1.67V44h1.67V41.686l2.266-.645V44h2.393v1.777H139.1v5a1.97,1.97,0,0,0,.322,1.27,1.338,1.338,0,0,0,1.074.381,1.558,1.558,0,0,0,1-.332ZM162.393,44l-2.949,10H157.07l-1.816-6.777a4.292,4.292,0,0,1-.137-.879h-.039a4.006,4.006,0,0,1-.176.859L152.93,54h-2.324l-2.939-10h2.344l1.816,7.207a4.27,4.27,0,0,1,.117.859h.068a4.641,4.641,0,0,1,.156-.879L154.189,44h2.129l1.8,7.236a5.062,5.062,0,0,1,.127.859h.068a4.557,4.557,0,0,1,.146-.859L160.234,44Zm7.48,2.158a1.878,1.878,0,0,0-1.182-.322,2.023,2.023,0,0,0-1.68.908,4.061,4.061,0,0,0-.674,2.471V54h-2.266V44h2.266v2.061h.039a3.484,3.484,0,0,1,1.021-1.646,2.3,2.3,0,0,1,1.538-.591,1.909,1.909,0,0,1,.938.186ZM179.15,54h-2.2V52.438h-.039a3.308,3.308,0,0,1-3.037,1.8,3.2,3.2,0,0,1-2.31-.8,2.8,2.8,0,0,1-.835-2.119q0-2.832,3.262-3.3l2.969-.42q0-2.139-2.031-2.139a4.825,4.825,0,0,0-3.223,1.23V44.7a7.028,7.028,0,0,1,3.652-.937q3.789,0,3.789,3.73Zm-2.187-4.912-2.1.293a3.328,3.328,0,0,0-1.47.474,1.384,1.384,0,0,0-.493,1.216,1.331,1.331,0,0,0,.454,1.04,1.758,1.758,0,0,0,1.216.405,2.243,2.243,0,0,0,1.714-.728,2.58,2.58,0,0,0,.679-1.831Zm7.256,3.438h-.039V58.6h-2.266V44h2.266v1.758h.039a3.713,3.713,0,0,1,3.4-1.992,3.58,3.58,0,0,1,2.969,1.338A5.611,5.611,0,0,1,191.65,48.7a6.23,6.23,0,0,1-1.2,4,3.973,3.973,0,0,1-3.281,1.5A3.277,3.277,0,0,1,184.219,52.525Zm-.059-3.945v1.24a2.646,2.646,0,0,0,.7,1.855,2.464,2.464,0,0,0,3.75-.22,4.567,4.567,0,0,0,.718-2.739,3.6,3.6,0,0,0-.669-2.31,2.2,2.2,0,0,0-1.812-.835,2.441,2.441,0,0,0-1.948.859A3.183,3.183,0,0,0,184.16,48.58Zm9.18,5.107v-2.1a4.52,4.52,0,0,0,2.8.967q2.051,0,2.051-1.211a.954.954,0,0,0-.176-.581,1.678,1.678,0,0,0-.474-.425,3.723,3.723,0,0,0-.7-.332q-.405-.146-.9-.332a9.564,9.564,0,0,1-1.108-.518,3.349,3.349,0,0,1-.82-.62,2.341,2.341,0,0,1-.493-.786,2.9,2.9,0,0,1-.166-1.025,2.37,2.37,0,0,1,.342-1.274,2.97,2.97,0,0,1,.918-.928,4.4,4.4,0,0,1,1.309-.566,5.991,5.991,0,0,1,1.514-.19,6.881,6.881,0,0,1,2.48.42v1.982a4.181,4.181,0,0,0-2.422-.723,3.163,3.163,0,0,0-.776.088,2,2,0,0,0-.591.244,1.2,1.2,0,0,0-.381.376.9.9,0,0,0-.137.483,1.033,1.033,0,0,0,.137.547,1.242,1.242,0,0,0,.405.4,3.5,3.5,0,0,0,.645.313q.376.142.864.308a12.627,12.627,0,0,1,1.157.537,3.911,3.911,0,0,1,.874.62,2.431,2.431,0,0,1,.557.8,2.719,2.719,0,0,1,.2,1.079,2.467,2.467,0,0,1-.352,1.328,2.93,2.93,0,0,1-.937.938,4.389,4.389,0,0,1-1.353.552,7.026,7.026,0,0,1-1.616.181A6.81,6.81,0,0,1,193.34,53.688Z" transform="translate(309 62)" fill="#31313a"/>
    <g id="Secondary_Button_-_Normal" data-name="Secondary Button - Normal" transform="translate(575 60)" clip-path="url(#clip-path)">
      <g id="Rectangle_3991" data-name="Rectangle 3991" fill="none" stroke="#cbcbd2" stroke-width="1">
        <rect width="73.934" height="36" rx="18" stroke="none"/>
        <rect x="0.5" y="0.5" width="72.934" height="35" rx="17.5" fill="none"/>
      </g>
      <text id="Action" transform="translate(37 23)" fill="#2777d3" font-size="14" font-family="SegoeUI-Semibold, Segoe UI" font-weight="600"><tspan x="-20.614" y="0">Action</tspan></text>
    </g>
    <path id="Path_10350" data-name="Path 10350" d="M0,0H50" transform="translate(525.5 77.5)" fill="none" stroke="#c93d92" stroke-width="1" stroke-dasharray="2 2"/>
    <path id="Path_10351" data-name="Path 10351" d="M0,0V87" transform="translate(525.5 65.5)" fill="none" stroke="#c93d92" stroke-width="1" stroke-dasharray="2 2"/>
    <path id="Path_10352" data-name="Path 10352" d="M6.791-3.123,1.559-.609V-1.717L5.391-3.422v-.035l-3.832-1.9V-6.469L6.791-3.744ZM9.24-.193V-1.5a2.972,2.972,0,0,0,1.676.557,2.075,2.075,0,0,0,1.377-.437,1.44,1.44,0,0,0,.521-1.163,1.313,1.313,0,0,0-.53-1.113,2.5,2.5,0,0,0-1.521-.4q-.34,0-1.377.07l.3-4.418h4.137v1.16H10.816l-.141,2.1q.4-.023.732-.023a2.9,2.9,0,0,1,2.065.686A2.449,2.449,0,0,1,14.2-2.6a2.563,2.563,0,0,1-.835,2,3.3,3.3,0,0,1-2.294.753A3.8,3.8,0,0,1,9.24-.193Zm8.994.334A2.346,2.346,0,0,1,16.187-.932a5.465,5.465,0,0,1-.735-3.1A6.064,6.064,0,0,1,16.219-7.4a2.506,2.506,0,0,1,2.215-1.143q2.771,0,2.771,4.307a5.669,5.669,0,0,1-.782,3.255A2.517,2.517,0,0,1,18.234.141Zm.135-7.6q-1.529,0-1.529,3.369,0,3.152,1.5,3.152,1.477,0,1.477-3.205Q19.816-7.459,18.369-7.459ZM23.924-.885H23.9V2.76H22.541V-6H23.9v1.055h.023a2.228,2.228,0,0,1,2.039-1.2,2.148,2.148,0,0,1,1.781.8,3.367,3.367,0,0,1,.639,2.156,3.738,3.738,0,0,1-.721,2.4,2.384,2.384,0,0,1-1.969.9A1.966,1.966,0,0,1,23.924-.885Zm-.035-2.367v.744a1.588,1.588,0,0,0,.419,1.113,1.38,1.38,0,0,0,1.063.457,1.389,1.389,0,0,0,1.187-.589,2.74,2.74,0,0,0,.431-1.644,2.16,2.16,0,0,0-.4-1.386,1.319,1.319,0,0,0-1.087-.5,1.464,1.464,0,0,0-1.169.516A1.91,1.91,0,0,0,23.889-3.252ZM34.6-6l-2,3.035L34.576,0H33L31.945-1.857q-.1-.17-.234-.434h-.023q-.023.053-.246.434L30.369,0H28.8l2.039-2.941L28.9-6h1.582l1.037,1.951q.117.217.229.445h.018L33.111-6Z" transform="translate(529 154)" fill="#d454a3"/>
  </g>
</svg>
