<svg xmlns="http://www.w3.org/2000/svg" xmlns:xlink="http://www.w3.org/1999/xlink" width="900" height="450" viewBox="0 0 900 450">
  <defs>
    <filter id="Card" x="456.5" y="39.5" width="409" height="286" filterUnits="userSpaceOnUse">
      <feOffset dy="1" input="SourceAlpha"/>
      <feGaussianBlur stdDeviation="1.5" result="blur"/>
      <feFlood flood-opacity="0.161"/>
      <feComposite operator="in" in2="blur"/>
      <feComposite in="SourceGraphic"/>
    </filter>
    <filter id="Card-2" x="26.5" y="39.5" width="409" height="373" filterUnits="userSpaceOnUse">
      <feOffset dy="1" input="SourceAlpha"/>
      <feGaussianBlur stdDeviation="1.5" result="blur-2"/>
      <feFlood flood-opacity="0.161"/>
      <feComposite operator="in" in2="blur-2"/>
      <feComposite in="SourceGraphic"/>
    </filter>
    <clipPath id="clip-Cards_-_Lining_up_cards_in_a_grid_1">
      <rect width="900" height="450"/>
    </clipPath>
  </defs>
  <g id="Cards_-_Lining_up_cards_in_a_grid_1" data-name="Cards - Lining up cards in a grid – 1" clip-path="url(#clip-Cards_-_Lining_up_cards_in_a_grid_1)">
    <rect width="900" height="450" fill="#f4f4f6"/>
    <g id="Group_13284" data-name="Group 13284">
      <g transform="matrix(1, 0, 0, 1, 0, 0)" filter="url(#Card)">
        <rect id="Card-3" data-name="Card" width="400" height="277" rx="2" transform="translate(461 43)" fill="#fff"/>
      </g>
      <path id="Path_8849" data-name="Path 8849" d="M11.494-.586a8.49,8.49,0,0,1-3.936.82A6.435,6.435,0,0,1,2.676-1.689,7.01,7.01,0,0,1,.84-6.738a7.352,7.352,0,0,1,2.065-5.43,7.066,7.066,0,0,1,5.22-2.07,8.554,8.554,0,0,1,3.369.576v2.3a6.012,6.012,0,0,0-3.125-.84,4.9,4.9,0,0,0-3.687,1.455A5.345,5.345,0,0,0,3.271-6.855,5.1,5.1,0,0,0,4.59-3.169,4.588,4.588,0,0,0,8.057-1.8a6.207,6.207,0,0,0,3.438-.937ZM21.572,0h-2.2V-1.562h-.039A3.308,3.308,0,0,1,16.3.234a3.2,3.2,0,0,1-2.31-.8,2.8,2.8,0,0,1-.835-2.119q0-2.832,3.262-3.3l2.969-.42q0-2.139-2.031-2.139a4.825,4.825,0,0,0-3.223,1.23V-9.3a7.028,7.028,0,0,1,3.652-.937q3.789,0,3.789,3.73ZM19.385-4.912l-2.1.293a3.328,3.328,0,0,0-1.47.474,1.384,1.384,0,0,0-.493,1.216,1.331,1.331,0,0,0,.454,1.04,1.758,1.758,0,0,0,1.216.405,2.243,2.243,0,0,0,1.714-.728,2.58,2.58,0,0,0,.679-1.831Zm10.752-2.93a1.878,1.878,0,0,0-1.182-.322,2.023,2.023,0,0,0-1.68.908A4.061,4.061,0,0,0,26.6-4.785V0H24.336V-10H26.6v2.061h.039a3.484,3.484,0,0,1,1.021-1.646,2.3,2.3,0,0,1,1.538-.591,1.909,1.909,0,0,1,.938.186ZM40.654,0H38.389V-1.7H38.35A3.614,3.614,0,0,1,34.98.234a3.637,3.637,0,0,1-2.954-1.343,5.574,5.574,0,0,1-1.108-3.657A6.073,6.073,0,0,1,32.144-8.74a4.011,4.011,0,0,1,3.267-1.494A3.128,3.128,0,0,1,38.35-8.613h.039V-14.8h2.266ZM38.418-4.57V-5.879a2.55,2.55,0,0,0-.693-1.807,2.313,2.313,0,0,0-1.768-.742,2.38,2.38,0,0,0-2,.947,4.221,4.221,0,0,0-.728,2.627,3.782,3.782,0,0,0,.7,2.407,2.271,2.271,0,0,0,1.88.884A2.351,2.351,0,0,0,37.7-2.417,3.219,3.219,0,0,0,38.418-4.57ZM60.615,0H58.281V-6.074H51.689V0H49.365V-14h2.324v5.889h6.592V-14h2.334Zm11.67-4.385H65.469a2.881,2.881,0,0,0,.854,2.139,3.179,3.179,0,0,0,2.241.752A4.942,4.942,0,0,0,71.5-2.451V-.625a6.716,6.716,0,0,1-3.613.859,4.473,4.473,0,0,1-3.462-1.362,5.449,5.449,0,0,1-1.255-3.833,5.328,5.328,0,0,1,1.382-3.8,4.52,4.52,0,0,1,3.433-1.47,3.941,3.941,0,0,1,3.174,1.318,5.474,5.474,0,0,1,1.123,3.662ZM70.1-5.986a2.919,2.919,0,0,0-.576-1.9,1.925,1.925,0,0,0-1.562-.679,2.2,2.2,0,0,0-1.655.713,3.257,3.257,0,0,0-.835,1.865ZM82.119,0h-2.2V-1.562h-.039a3.308,3.308,0,0,1-3.037,1.8,3.2,3.2,0,0,1-2.31-.8A2.8,2.8,0,0,1,73.7-2.686q0-2.832,3.262-3.3l2.969-.42q0-2.139-2.031-2.139a4.825,4.825,0,0,0-3.223,1.23V-9.3a7.028,7.028,0,0,1,3.652-.937q3.789,0,3.789,3.73ZM79.932-4.912l-2.1.293a3.328,3.328,0,0,0-1.47.474,1.384,1.384,0,0,0-.493,1.216,1.331,1.331,0,0,0,.454,1.04,1.758,1.758,0,0,0,1.216.405,2.243,2.243,0,0,0,1.714-.728,2.58,2.58,0,0,0,.679-1.831ZM93.975,0H91.709V-1.7H91.67A3.614,3.614,0,0,1,88.3.234a3.637,3.637,0,0,1-2.954-1.343,5.574,5.574,0,0,1-1.108-3.657A6.073,6.073,0,0,1,85.464-8.74a4.011,4.011,0,0,1,3.267-1.494A3.128,3.128,0,0,1,91.67-8.613h.039V-14.8h2.266ZM91.738-4.57V-5.879a2.55,2.55,0,0,0-.693-1.807,2.313,2.313,0,0,0-1.768-.742,2.38,2.38,0,0,0-2,.947,4.221,4.221,0,0,0-.728,2.627,3.782,3.782,0,0,0,.7,2.407,2.271,2.271,0,0,0,1.88.884,2.351,2.351,0,0,0,1.885-.854A3.219,3.219,0,0,0,91.738-4.57ZM99.209,0H96.934V-14.8h2.275ZM103.3-12.1a1.362,1.362,0,0,1-.952-.361,1.189,1.189,0,0,1-.4-.918,1.219,1.219,0,0,1,.4-.928,1.342,1.342,0,0,1,.952-.371,1.384,1.384,0,0,1,.977.371,1.212,1.212,0,0,1,.4.928,1.2,1.2,0,0,1-.4.9A1.374,1.374,0,0,1,103.3-12.1ZM104.424,0h-2.266V-10h2.266Zm11.865,0h-2.266V-5.635q0-2.8-1.982-2.8a2.164,2.164,0,0,0-1.709.776,2.88,2.88,0,0,0-.674,1.958V0h-2.275V-10h2.275v1.66h.039a3.564,3.564,0,0,1,3.242-1.895,3.02,3.02,0,0,1,2.49,1.06,4.758,4.758,0,0,1,.859,3.062Zm11.23-4.385H120.7a2.881,2.881,0,0,0,.854,2.139,3.179,3.179,0,0,0,2.241.752,4.942,4.942,0,0,0,2.939-.957V-.625a6.716,6.716,0,0,1-3.613.859,4.473,4.473,0,0,1-3.462-1.362,5.449,5.449,0,0,1-1.255-3.833,5.328,5.328,0,0,1,1.382-3.8,4.52,4.52,0,0,1,3.433-1.47A3.941,3.941,0,0,1,126.4-8.916a5.474,5.474,0,0,1,1.123,3.662Zm-2.187-1.6a2.919,2.919,0,0,0-.576-1.9,1.925,1.925,0,0,0-1.562-.679,2.2,2.2,0,0,0-1.655.713,3.257,3.257,0,0,0-.835,1.865Z" transform="translate(480 85.805)" fill="#31313a"/>
      <g id="Group_13278" data-name="Group 13278" transform="translate(392 -10)">
        <g id="Icon_Primary_-_Selected" data-name="Icon Primary - Selected" transform="translate(414 71)">
          <rect id="Rectangle_5758" data-name="Rectangle 5758" width="36" height="36" rx="18" fill="none"/>
        </g>
        <g id="Group_13275" data-name="Group 13275" transform="translate(423.591 87)">
          <circle id="Ellipse_2018" data-name="Ellipse 2018" cx="2" cy="2" r="2" transform="translate(18.409) rotate(90)" fill="#2777d3"/>
          <circle id="Ellipse_2017" data-name="Ellipse 2017" cx="2" cy="2" r="2" transform="translate(11.409) rotate(90)" fill="#2777d3"/>
          <circle id="Ellipse_2016" data-name="Ellipse 2016" cx="2" cy="2" r="2" transform="translate(4.409) rotate(90)" fill="#2777d3"/>
        </g>
      </g>
    </g>
    <g transform="matrix(1, 0, 0, 1, 0, 0)" filter="url(#Card-2)">
      <rect id="Card-4" data-name="Card" width="400" height="364" rx="2" transform="translate(31 43)" fill="#fff"/>
    </g>
    <path id="Path_8851" data-name="Path 8851" d="M11.494-.586a8.49,8.49,0,0,1-3.936.82A6.435,6.435,0,0,1,2.676-1.689,7.01,7.01,0,0,1,.84-6.738a7.352,7.352,0,0,1,2.065-5.43,7.066,7.066,0,0,1,5.22-2.07,8.554,8.554,0,0,1,3.369.576v2.3a6.012,6.012,0,0,0-3.125-.84,4.9,4.9,0,0,0-3.687,1.455A5.345,5.345,0,0,0,3.271-6.855,5.1,5.1,0,0,0,4.59-3.169,4.588,4.588,0,0,0,8.057-1.8a6.207,6.207,0,0,0,3.438-.937ZM21.572,0h-2.2V-1.562h-.039A3.308,3.308,0,0,1,16.3.234a3.2,3.2,0,0,1-2.31-.8,2.8,2.8,0,0,1-.835-2.119q0-2.832,3.262-3.3l2.969-.42q0-2.139-2.031-2.139a4.825,4.825,0,0,0-3.223,1.23V-9.3a7.028,7.028,0,0,1,3.652-.937q3.789,0,3.789,3.73ZM19.385-4.912l-2.1.293a3.328,3.328,0,0,0-1.47.474,1.384,1.384,0,0,0-.493,1.216,1.331,1.331,0,0,0,.454,1.04,1.758,1.758,0,0,0,1.216.405,2.243,2.243,0,0,0,1.714-.728,2.58,2.58,0,0,0,.679-1.831Zm10.752-2.93a1.878,1.878,0,0,0-1.182-.322,2.023,2.023,0,0,0-1.68.908A4.061,4.061,0,0,0,26.6-4.785V0H24.336V-10H26.6v2.061h.039a3.484,3.484,0,0,1,1.021-1.646,2.3,2.3,0,0,1,1.538-.591,1.909,1.909,0,0,1,.938.186ZM40.654,0H38.389V-1.7H38.35A3.614,3.614,0,0,1,34.98.234a3.637,3.637,0,0,1-2.954-1.343,5.574,5.574,0,0,1-1.108-3.657A6.073,6.073,0,0,1,32.144-8.74a4.011,4.011,0,0,1,3.267-1.494A3.128,3.128,0,0,1,38.35-8.613h.039V-14.8h2.266ZM38.418-4.57V-5.879a2.55,2.55,0,0,0-.693-1.807,2.313,2.313,0,0,0-1.768-.742,2.38,2.38,0,0,0-2,.947,4.221,4.221,0,0,0-.728,2.627,3.782,3.782,0,0,0,.7,2.407,2.271,2.271,0,0,0,1.88.884A2.351,2.351,0,0,0,37.7-2.417,3.219,3.219,0,0,0,38.418-4.57ZM60.615,0H58.281V-6.074H51.689V0H49.365V-14h2.324v5.889h6.592V-14h2.334Zm11.67-4.385H65.469a2.881,2.881,0,0,0,.854,2.139,3.179,3.179,0,0,0,2.241.752A4.942,4.942,0,0,0,71.5-2.451V-.625a6.716,6.716,0,0,1-3.613.859,4.473,4.473,0,0,1-3.462-1.362,5.449,5.449,0,0,1-1.255-3.833,5.328,5.328,0,0,1,1.382-3.8,4.52,4.52,0,0,1,3.433-1.47,3.941,3.941,0,0,1,3.174,1.318,5.474,5.474,0,0,1,1.123,3.662ZM70.1-5.986a2.919,2.919,0,0,0-.576-1.9,1.925,1.925,0,0,0-1.562-.679,2.2,2.2,0,0,0-1.655.713,3.257,3.257,0,0,0-.835,1.865ZM82.119,0h-2.2V-1.562h-.039a3.308,3.308,0,0,1-3.037,1.8,3.2,3.2,0,0,1-2.31-.8A2.8,2.8,0,0,1,73.7-2.686q0-2.832,3.262-3.3l2.969-.42q0-2.139-2.031-2.139a4.825,4.825,0,0,0-3.223,1.23V-9.3a7.028,7.028,0,0,1,3.652-.937q3.789,0,3.789,3.73ZM79.932-4.912l-2.1.293a3.328,3.328,0,0,0-1.47.474,1.384,1.384,0,0,0-.493,1.216,1.331,1.331,0,0,0,.454,1.04,1.758,1.758,0,0,0,1.216.405,2.243,2.243,0,0,0,1.714-.728,2.58,2.58,0,0,0,.679-1.831ZM93.975,0H91.709V-1.7H91.67A3.614,3.614,0,0,1,88.3.234a3.637,3.637,0,0,1-2.954-1.343,5.574,5.574,0,0,1-1.108-3.657A6.073,6.073,0,0,1,85.464-8.74a4.011,4.011,0,0,1,3.267-1.494A3.128,3.128,0,0,1,91.67-8.613h.039V-14.8h2.266ZM91.738-4.57V-5.879a2.55,2.55,0,0,0-.693-1.807,2.313,2.313,0,0,0-1.768-.742,2.38,2.38,0,0,0-2,.947,4.221,4.221,0,0,0-.728,2.627,3.782,3.782,0,0,0,.7,2.407,2.271,2.271,0,0,0,1.88.884,2.351,2.351,0,0,0,1.885-.854A3.219,3.219,0,0,0,91.738-4.57ZM99.209,0H96.934V-14.8h2.275ZM103.3-12.1a1.362,1.362,0,0,1-.952-.361,1.189,1.189,0,0,1-.4-.918,1.219,1.219,0,0,1,.4-.928,1.342,1.342,0,0,1,.952-.371,1.384,1.384,0,0,1,.977.371,1.212,1.212,0,0,1,.4.928,1.2,1.2,0,0,1-.4.9A1.374,1.374,0,0,1,103.3-12.1ZM104.424,0h-2.266V-10h2.266Zm11.865,0h-2.266V-5.635q0-2.8-1.982-2.8a2.164,2.164,0,0,0-1.709.776,2.88,2.88,0,0,0-.674,1.958V0h-2.275V-10h2.275v1.66h.039a3.564,3.564,0,0,1,3.242-1.895,3.02,3.02,0,0,1,2.49,1.06,4.758,4.758,0,0,1,.859,3.062Zm11.23-4.385H120.7a2.881,2.881,0,0,0,.854,2.139,3.179,3.179,0,0,0,2.241.752,4.942,4.942,0,0,0,2.939-.957V-.625a6.716,6.716,0,0,1-3.613.859,4.473,4.473,0,0,1-3.462-1.362,5.449,5.449,0,0,1-1.255-3.833,5.328,5.328,0,0,1,1.382-3.8,4.52,4.52,0,0,1,3.433-1.47A3.941,3.941,0,0,1,126.4-8.916a5.474,5.474,0,0,1,1.123,3.662Zm-2.187-1.6a2.919,2.919,0,0,0-.576-1.9,1.925,1.925,0,0,0-1.562-.679,2.2,2.2,0,0,0-1.655.713,3.257,3.257,0,0,0-.835,1.865Z" transform="translate(50 85.805)" fill="#31313a"/>
    <g id="Group_13282" data-name="Group 13282" transform="translate(376 61)">
      <g id="Icon_Primary_-_Selected-2" data-name="Icon Primary - Selected">
        <rect id="Rectangle_5758-2" data-name="Rectangle 5758" width="36" height="36" rx="18" fill="none"/>
      </g>
      <g id="Group_13275-2" data-name="Group 13275" transform="translate(10 16)">
        <circle id="Ellipse_2018-2" data-name="Ellipse 2018" cx="2" cy="2" r="2" transform="translate(18) rotate(90)" fill="#2777d3"/>
        <circle id="Ellipse_2017-2" data-name="Ellipse 2017" cx="2" cy="2" r="2" transform="translate(11) rotate(90)" fill="#2777d3"/>
        <circle id="Ellipse_2016-2" data-name="Ellipse 2016" cx="2" cy="2" r="2" transform="translate(4) rotate(90)" fill="#2777d3"/>
      </g>
    </g>
    <line id="Line_4" data-name="Line 4" x2="880" transform="translate(9.5 320.5)" fill="none" stroke="#c6318c" stroke-width="1" stroke-dasharray="4 3"/>
  </g>
</svg>
