<svg xmlns="http://www.w3.org/2000/svg" xmlns:xlink="http://www.w3.org/1999/xlink" width="900" height="458" viewBox="0 0 900 458">
  <defs>
    <filter id="Card" x="245.5" y="16.5" width="409" height="423" filterUnits="userSpaceOnUse">
      <feOffset dy="1" input="SourceAlpha"/>
      <feGaussianBlur stdDeviation="1.5" result="blur"/>
      <feFlood flood-opacity="0.161"/>
      <feComposite operator="in" in2="blur"/>
      <feComposite in="SourceGraphic"/>
    </filter>
    <clipPath id="clip-card--actions-filtering">
      <rect width="900" height="458"/>
    </clipPath>
  </defs>
  <g id="card--actions-filtering" clip-path="url(#clip-card--actions-filtering)">
    <rect width="900" height="458" fill="#f4f4f6"/>
    <g transform="matrix(1, 0, 0, 1, 0, 0)" filter="url(#Card)">
      <rect id="Card-2" data-name="Card" width="400" height="414" rx="2" transform="translate(250 20)" fill="#fff"/>
    </g>
    <g id="Rectangle_4666" data-name="Rectangle 4666" transform="translate(502 37)" fill="#fff" stroke="#cbcbd2" stroke-width="1">
      <rect width="128" height="42" rx="4" stroke="none"/>
      <rect x="0.5" y="0.5" width="127" height="41" rx="3.5" fill="none"/>
    </g>
    <path id="Path_10312" data-name="Path 10312" d="M2.338,0H1.2V-10.637H2.338ZM9.352,0,9.126-1.066H9.071a3.153,3.153,0,0,1-1.118.954,3.407,3.407,0,0,1-1.391.25A2.5,2.5,0,0,1,4.816-.437a2.094,2.094,0,0,1-.632-1.634q0-2.27,3.63-2.379l1.271-.041v-.465a1.9,1.9,0,0,0-.379-1.3,1.56,1.56,0,0,0-1.213-.42A4.944,4.944,0,0,0,5.373-6.1l-.349-.868a5.332,5.332,0,0,1,1.213-.472,5.255,5.255,0,0,1,1.323-.171,2.854,2.854,0,0,1,1.986.595,2.482,2.482,0,0,1,.646,1.907V0ZM6.788-.8a2.3,2.3,0,0,0,1.665-.581,2.15,2.15,0,0,0,.6-1.627v-.677l-1.135.048a4.128,4.128,0,0,0-1.952.42,1.268,1.268,0,0,0-.6,1.159,1.169,1.169,0,0,0,.373.937A1.546,1.546,0,0,0,6.788-.8ZM17.363-2.044a1.877,1.877,0,0,1-.779,1.613A3.663,3.663,0,0,1,14.4.137a4.757,4.757,0,0,1-2.324-.472V-1.388a5.621,5.621,0,0,0,1.159.431A4.839,4.839,0,0,0,14.424-.8a2.705,2.705,0,0,0,1.367-.284.938.938,0,0,0,.479-.865A.939.939,0,0,0,15.89-2.7a5.968,5.968,0,0,0-1.48-.735,8.025,8.025,0,0,1-1.487-.68,2.031,2.031,0,0,1-.656-.66,1.72,1.72,0,0,1-.215-.882A1.681,1.681,0,0,1,12.8-7.1a3.472,3.472,0,0,1,2.044-.53,5.98,5.98,0,0,1,2.365.492l-.4.923a5.429,5.429,0,0,0-2.044-.465,2.352,2.352,0,0,0-1.217.253.782.782,0,0,0-.41.7.849.849,0,0,0,.154.513,1.518,1.518,0,0,0,.5.4,11.076,11.076,0,0,0,1.313.554,4.9,4.9,0,0,1,1.8.978A1.724,1.724,0,0,1,17.363-2.044ZM21.629-.8a3.707,3.707,0,0,0,.581-.044,3.761,3.761,0,0,0,.444-.092v.868a2.074,2.074,0,0,1-.543.147,4.081,4.081,0,0,1-.646.058q-2.174,0-2.174-2.29V-6.61H18.218v-.547l1.073-.472.479-1.6h.656v1.736H22.6v.882H20.426V-2.2a1.517,1.517,0,0,0,.321,1.039A1.118,1.118,0,0,0,21.629-.8ZM37.338,0V-4.874a2.023,2.023,0,0,0-.383-1.343,1.481,1.481,0,0,0-1.189-.448,1.92,1.92,0,0,0-1.565.608,2.891,2.891,0,0,0-.506,1.873V0H32.56V-4.874a2.023,2.023,0,0,0-.383-1.343,1.49,1.49,0,0,0-1.2-.448,1.853,1.853,0,0,0-1.562.639,3.459,3.459,0,0,0-.5,2.1V0H27.788V-7.492h.923L28.9-6.467h.055a2.23,2.23,0,0,1,.906-.854,2.767,2.767,0,0,1,1.309-.308,2.226,2.226,0,0,1,2.3,1.271h.055a2.389,2.389,0,0,1,.971-.93,3.012,3.012,0,0,1,1.449-.342,2.537,2.537,0,0,1,1.9.653,2.921,2.921,0,0,1,.632,2.088V0Zm9.939-3.753a4.133,4.133,0,0,1-.923,2.861A3.25,3.25,0,0,1,43.8.137a3.377,3.377,0,0,1-1.784-.472,3.113,3.113,0,0,1-1.2-1.354,4.717,4.717,0,0,1-.424-2.064,4.127,4.127,0,0,1,.916-2.854,3.24,3.24,0,0,1,2.543-1.022,3.169,3.169,0,0,1,2.5,1.046A4.115,4.115,0,0,1,47.277-3.753Zm-5.708,0a3.556,3.556,0,0,0,.574,2.188,1.993,1.993,0,0,0,1.688.752,2.006,2.006,0,0,0,1.692-.749A3.538,3.538,0,0,0,46.1-3.753a3.481,3.481,0,0,0-.578-2.17,2.03,2.03,0,0,0-1.706-.742,2,2,0,0,0-1.682.731A3.52,3.52,0,0,0,41.569-3.753ZM54.394,0V-4.847a1.955,1.955,0,0,0-.417-1.367,1.7,1.7,0,0,0-1.306-.451,2.153,2.153,0,0,0-1.723.636,3.21,3.21,0,0,0-.547,2.1V0H49.267V-7.492h.923l.185,1.025h.055a2.317,2.317,0,0,1,.978-.858,3.176,3.176,0,0,1,1.4-.3,2.846,2.846,0,0,1,2.037.653,2.778,2.778,0,0,1,.684,2.088V0Zm5.886-.8a3.707,3.707,0,0,0,.581-.044A3.761,3.761,0,0,0,61.3-.937v.868a2.074,2.074,0,0,1-.543.147,4.081,4.081,0,0,1-.646.058q-2.174,0-2.174-2.29V-6.61H56.868v-.547l1.073-.472.479-1.6h.656v1.736H61.25v.882H59.076V-2.2A1.517,1.517,0,0,0,59.4-1.162,1.118,1.118,0,0,0,60.279-.8Zm7.649.8V-4.847a1.955,1.955,0,0,0-.417-1.367,1.7,1.7,0,0,0-1.306-.451,2.139,2.139,0,0,0-1.726.643,3.255,3.255,0,0,0-.543,2.105V0H62.8V-10.637h1.135v3.22a7.016,7.016,0,0,1-.055.964h.068A2.314,2.314,0,0,1,64.9-7.3a3.1,3.1,0,0,1,1.412-.311,2.891,2.891,0,0,1,2.061.653,2.749,2.749,0,0,1,.687,2.075V0Z" transform="translate(512 64)" fill="#494955"/>
    <g id="Group_7804" data-name="Group 7804" transform="translate(596 46)">
      <rect id="Rectangle_3867" data-name="Rectangle 3867" width="24" height="24" fill="none"/>
      <path id="Path_5558" data-name="Path 5558" d="M56,9.4l-3,3-3-3a.967.967,0,0,0-1.4,0h0a.967.967,0,0,0,0,1.4l3.7,3.7a.967.967,0,0,0,1.4,0l3.7-3.7a.967.967,0,0,0,0-1.4h0A.965.965,0,0,0,56,9.4Z" transform="translate(-41)" fill="#9494a4"/>
    </g>
    <path id="Path_10311" data-name="Path 10311" d="M11.494,21.414a8.49,8.49,0,0,1-3.936.82,6.435,6.435,0,0,1-4.883-1.924A7.01,7.01,0,0,1,.84,15.262a7.352,7.352,0,0,1,2.065-5.43,7.066,7.066,0,0,1,5.22-2.07,8.554,8.554,0,0,1,3.369.576v2.3A6.012,6.012,0,0,0,8.369,9.8a4.9,4.9,0,0,0-3.687,1.455,5.345,5.345,0,0,0-1.411,3.887A5.1,5.1,0,0,0,4.59,18.831,4.588,4.588,0,0,0,8.057,20.2a6.207,6.207,0,0,0,3.438-.937ZM21.572,22h-2.2V20.438h-.039a3.308,3.308,0,0,1-3.037,1.8,3.2,3.2,0,0,1-2.31-.8,2.8,2.8,0,0,1-.835-2.119q0-2.832,3.262-3.3l2.969-.42q0-2.139-2.031-2.139a4.825,4.825,0,0,0-3.223,1.23V12.7a7.028,7.028,0,0,1,3.652-.937q3.789,0,3.789,3.73Zm-2.187-4.912-2.1.293a3.328,3.328,0,0,0-1.47.474,1.384,1.384,0,0,0-.493,1.216,1.331,1.331,0,0,0,.454,1.04,1.758,1.758,0,0,0,1.216.405,2.243,2.243,0,0,0,1.714-.728,2.58,2.58,0,0,0,.679-1.831Zm10.752-2.93a1.878,1.878,0,0,0-1.182-.322,2.023,2.023,0,0,0-1.68.908,4.061,4.061,0,0,0-.674,2.471V22H24.336V12H26.6v2.061h.039a3.484,3.484,0,0,1,1.021-1.646,2.3,2.3,0,0,1,1.538-.591,1.909,1.909,0,0,1,.938.186ZM40.654,22H38.389V20.3H38.35a3.91,3.91,0,0,1-6.323.591,5.574,5.574,0,0,1-1.108-3.657,6.073,6.073,0,0,1,1.226-3.975,4.011,4.011,0,0,1,3.267-1.494,3.128,3.128,0,0,1,2.939,1.621h.039V7.2h2.266Zm-2.236-4.57V16.121a2.55,2.55,0,0,0-.693-1.807,2.313,2.313,0,0,0-1.768-.742,2.38,2.38,0,0,0-2,.947,4.221,4.221,0,0,0-.728,2.627,3.782,3.782,0,0,0,.7,2.407,2.271,2.271,0,0,0,1.88.884,2.351,2.351,0,0,0,1.885-.854A3.219,3.219,0,0,0,38.418,17.43ZM60.615,22H58.281V15.926H51.689V22H49.365V8h2.324v5.889h6.592V8h2.334Zm11.67-4.385H65.469a2.881,2.881,0,0,0,.854,2.139,3.179,3.179,0,0,0,2.241.752,4.942,4.942,0,0,0,2.939-.957v1.826a6.716,6.716,0,0,1-3.613.859,4.473,4.473,0,0,1-3.462-1.362,5.449,5.449,0,0,1-1.255-3.833,5.328,5.328,0,0,1,1.382-3.8,4.52,4.52,0,0,1,3.433-1.47,3.941,3.941,0,0,1,3.174,1.318,5.474,5.474,0,0,1,1.123,3.662Zm-2.187-1.6a2.919,2.919,0,0,0-.576-1.9,1.925,1.925,0,0,0-1.562-.679,2.2,2.2,0,0,0-1.655.713,3.257,3.257,0,0,0-.835,1.865ZM82.119,22h-2.2V20.438h-.039a3.308,3.308,0,0,1-3.037,1.8,3.2,3.2,0,0,1-2.31-.8,2.8,2.8,0,0,1-.835-2.119q0-2.832,3.262-3.3l2.969-.42q0-2.139-2.031-2.139a4.825,4.825,0,0,0-3.223,1.23V12.7a7.028,7.028,0,0,1,3.652-.937q3.789,0,3.789,3.73Zm-2.187-4.912-2.1.293a3.328,3.328,0,0,0-1.47.474,1.384,1.384,0,0,0-.493,1.216,1.331,1.331,0,0,0,.454,1.04,1.758,1.758,0,0,0,1.216.405,2.243,2.243,0,0,0,1.714-.728,2.58,2.58,0,0,0,.679-1.831ZM93.975,22H91.709V20.3H91.67a3.91,3.91,0,0,1-6.323.591,5.574,5.574,0,0,1-1.108-3.657,6.073,6.073,0,0,1,1.226-3.975,4.011,4.011,0,0,1,3.267-1.494,3.128,3.128,0,0,1,2.939,1.621h.039V7.2h2.266Zm-2.236-4.57V16.121a2.55,2.55,0,0,0-.693-1.807,2.313,2.313,0,0,0-1.768-.742,2.38,2.38,0,0,0-2,.947,4.221,4.221,0,0,0-.728,2.627,3.782,3.782,0,0,0,.7,2.407,2.271,2.271,0,0,0,1.88.884,2.351,2.351,0,0,0,1.885-.854A3.219,3.219,0,0,0,91.738,17.43ZM99.209,22H96.934V7.2h2.275ZM103.3,9.9a1.362,1.362,0,0,1-.952-.361,1.189,1.189,0,0,1-.4-.918,1.219,1.219,0,0,1,.4-.928,1.342,1.342,0,0,1,.952-.371,1.384,1.384,0,0,1,.977.371,1.212,1.212,0,0,1,.4.928,1.2,1.2,0,0,1-.4.9A1.374,1.374,0,0,1,103.3,9.9ZM104.424,22h-2.266V12h2.266Zm11.865,0h-2.266V16.365q0-2.8-1.982-2.8a2.164,2.164,0,0,0-1.709.776,2.88,2.88,0,0,0-.674,1.958V22h-2.275V12h2.275v1.66h.039a3.564,3.564,0,0,1,3.242-1.895,3.02,3.02,0,0,1,2.49,1.06,4.758,4.758,0,0,1,.859,3.062Zm11.23-4.385H120.7a2.881,2.881,0,0,0,.854,2.139,3.179,3.179,0,0,0,2.241.752,4.942,4.942,0,0,0,2.939-.957v1.826a6.716,6.716,0,0,1-3.613.859,4.473,4.473,0,0,1-3.462-1.362,5.449,5.449,0,0,1-1.255-3.833,5.328,5.328,0,0,1,1.382-3.8,4.52,4.52,0,0,1,3.433-1.47,3.941,3.941,0,0,1,3.174,1.318,5.474,5.474,0,0,1,1.123,3.662Zm-2.187-1.6a2.919,2.919,0,0,0-.576-1.9,1.925,1.925,0,0,0-1.562-.679,2.2,2.2,0,0,0-1.655.713,3.257,3.257,0,0,0-.835,1.865Z" transform="translate(270 42)" fill="#31313a"/>
  </g>
</svg>
