<svg xmlns="http://www.w3.org/2000/svg" xmlns:xlink="http://www.w3.org/1999/xlink" width="900" height="458" viewBox="0 0 900 458">
  <defs>
    <filter id="Card" x="35.5" y="16.5" width="409" height="423" filterUnits="userSpaceOnUse">
      <feOffset dy="1" input="SourceAlpha"/>
      <feGaussianBlur stdDeviation="1.5" result="blur"/>
      <feFlood flood-opacity="0.161"/>
      <feComposite operator="in" in2="blur"/>
      <feComposite in="SourceGraphic"/>
    </filter>
    <filter id="Card-2" x="455.5" y="16.5" width="409" height="423" filterUnits="userSpaceOnUse">
      <feOffset dy="1" input="SourceAlpha"/>
      <feGaussianBlur stdDeviation="1.5" result="blur-2"/>
      <feFlood flood-opacity="0.161"/>
      <feComposite operator="in" in2="blur-2"/>
      <feComposite in="SourceGraphic"/>
    </filter>
    <clipPath id="clip-card--actions-footer">
      <rect width="900" height="458"/>
    </clipPath>
  </defs>
  <g id="card--actions-footer" clip-path="url(#clip-card--actions-footer)">
    <rect width="900" height="458" fill="#f4f4f6"/>
    <g id="Group_13312" data-name="Group 13312" transform="translate(-1282 -23)">
      <g id="Group_13281" data-name="Group 13281" transform="translate(1272)">
        <g transform="matrix(1, 0, 0, 1, 10, 23)" filter="url(#Card)">
          <rect id="Card-3" data-name="Card" width="400" height="414" rx="2" transform="translate(40 20)" fill="#fff"/>
        </g>
        <path id="Path_8849" data-name="Path 8849" d="M11.494-.586a8.49,8.49,0,0,1-3.936.82A6.435,6.435,0,0,1,2.676-1.689,7.01,7.01,0,0,1,.84-6.738a7.352,7.352,0,0,1,2.065-5.43,7.066,7.066,0,0,1,5.22-2.07,8.554,8.554,0,0,1,3.369.576v2.3a6.012,6.012,0,0,0-3.125-.84,4.9,4.9,0,0,0-3.687,1.455A5.345,5.345,0,0,0,3.271-6.855,5.1,5.1,0,0,0,4.59-3.169,4.588,4.588,0,0,0,8.057-1.8a6.207,6.207,0,0,0,3.438-.937ZM21.572,0h-2.2V-1.562h-.039A3.308,3.308,0,0,1,16.3.234a3.2,3.2,0,0,1-2.31-.8,2.8,2.8,0,0,1-.835-2.119q0-2.832,3.262-3.3l2.969-.42q0-2.139-2.031-2.139a4.825,4.825,0,0,0-3.223,1.23V-9.3a7.028,7.028,0,0,1,3.652-.937q3.789,0,3.789,3.73ZM19.385-4.912l-2.1.293a3.328,3.328,0,0,0-1.47.474,1.384,1.384,0,0,0-.493,1.216,1.331,1.331,0,0,0,.454,1.04,1.758,1.758,0,0,0,1.216.405,2.243,2.243,0,0,0,1.714-.728,2.58,2.58,0,0,0,.679-1.831Zm10.752-2.93a1.878,1.878,0,0,0-1.182-.322,2.023,2.023,0,0,0-1.68.908A4.061,4.061,0,0,0,26.6-4.785V0H24.336V-10H26.6v2.061h.039a3.484,3.484,0,0,1,1.021-1.646,2.3,2.3,0,0,1,1.538-.591,1.909,1.909,0,0,1,.938.186ZM40.654,0H38.389V-1.7H38.35A3.614,3.614,0,0,1,34.98.234a3.637,3.637,0,0,1-2.954-1.343,5.574,5.574,0,0,1-1.108-3.657A6.073,6.073,0,0,1,32.144-8.74a4.011,4.011,0,0,1,3.267-1.494A3.128,3.128,0,0,1,38.35-8.613h.039V-14.8h2.266ZM38.418-4.57V-5.879a2.55,2.55,0,0,0-.693-1.807,2.313,2.313,0,0,0-1.768-.742,2.38,2.38,0,0,0-2,.947,4.221,4.221,0,0,0-.728,2.627,3.782,3.782,0,0,0,.7,2.407,2.271,2.271,0,0,0,1.88.884A2.351,2.351,0,0,0,37.7-2.417,3.219,3.219,0,0,0,38.418-4.57ZM60.615,0H58.281V-6.074H51.689V0H49.365V-14h2.324v5.889h6.592V-14h2.334Zm11.67-4.385H65.469a2.881,2.881,0,0,0,.854,2.139,3.179,3.179,0,0,0,2.241.752A4.942,4.942,0,0,0,71.5-2.451V-.625a6.716,6.716,0,0,1-3.613.859,4.473,4.473,0,0,1-3.462-1.362,5.449,5.449,0,0,1-1.255-3.833,5.328,5.328,0,0,1,1.382-3.8,4.52,4.52,0,0,1,3.433-1.47,3.941,3.941,0,0,1,3.174,1.318,5.474,5.474,0,0,1,1.123,3.662ZM70.1-5.986a2.919,2.919,0,0,0-.576-1.9,1.925,1.925,0,0,0-1.562-.679,2.2,2.2,0,0,0-1.655.713,3.257,3.257,0,0,0-.835,1.865ZM82.119,0h-2.2V-1.562h-.039a3.308,3.308,0,0,1-3.037,1.8,3.2,3.2,0,0,1-2.31-.8A2.8,2.8,0,0,1,73.7-2.686q0-2.832,3.262-3.3l2.969-.42q0-2.139-2.031-2.139a4.825,4.825,0,0,0-3.223,1.23V-9.3a7.028,7.028,0,0,1,3.652-.937q3.789,0,3.789,3.73ZM79.932-4.912l-2.1.293a3.328,3.328,0,0,0-1.47.474,1.384,1.384,0,0,0-.493,1.216,1.331,1.331,0,0,0,.454,1.04,1.758,1.758,0,0,0,1.216.405,2.243,2.243,0,0,0,1.714-.728,2.58,2.58,0,0,0,.679-1.831ZM93.975,0H91.709V-1.7H91.67A3.614,3.614,0,0,1,88.3.234a3.637,3.637,0,0,1-2.954-1.343,5.574,5.574,0,0,1-1.108-3.657A6.073,6.073,0,0,1,85.464-8.74a4.011,4.011,0,0,1,3.267-1.494A3.128,3.128,0,0,1,91.67-8.613h.039V-14.8h2.266ZM91.738-4.57V-5.879a2.55,2.55,0,0,0-.693-1.807,2.313,2.313,0,0,0-1.768-.742,2.38,2.38,0,0,0-2,.947,4.221,4.221,0,0,0-.728,2.627,3.782,3.782,0,0,0,.7,2.407,2.271,2.271,0,0,0,1.88.884,2.351,2.351,0,0,0,1.885-.854A3.219,3.219,0,0,0,91.738-4.57ZM99.209,0H96.934V-14.8h2.275ZM103.3-12.1a1.362,1.362,0,0,1-.952-.361,1.189,1.189,0,0,1-.4-.918,1.219,1.219,0,0,1,.4-.928,1.342,1.342,0,0,1,.952-.371,1.384,1.384,0,0,1,.977.371,1.212,1.212,0,0,1,.4.928,1.2,1.2,0,0,1-.4.9A1.374,1.374,0,0,1,103.3-12.1ZM104.424,0h-2.266V-10h2.266Zm11.865,0h-2.266V-5.635q0-2.8-1.982-2.8a2.164,2.164,0,0,0-1.709.776,2.88,2.88,0,0,0-.674,1.958V0h-2.275V-10h2.275v1.66h.039a3.564,3.564,0,0,1,3.242-1.895,3.02,3.02,0,0,1,2.49,1.06,4.758,4.758,0,0,1,.859,3.062Zm11.23-4.385H120.7a2.881,2.881,0,0,0,.854,2.139,3.179,3.179,0,0,0,2.241.752,4.942,4.942,0,0,0,2.939-.957V-.625a6.716,6.716,0,0,1-3.613.859,4.473,4.473,0,0,1-3.462-1.362,5.449,5.449,0,0,1-1.255-3.833,5.328,5.328,0,0,1,1.382-3.8,4.52,4.52,0,0,1,3.433-1.47A3.941,3.941,0,0,1,126.4-8.916a5.474,5.474,0,0,1,1.123,3.662Zm-2.187-1.6a2.919,2.919,0,0,0-.576-1.9,1.925,1.925,0,0,0-1.562-.679,2.2,2.2,0,0,0-1.655.713,3.257,3.257,0,0,0-.835,1.865Z" transform="translate(79.16 95.805)" fill="#31313a"/>
      </g>
      <g id="Secondary_Button_-_Normal" data-name="Secondary Button - Normal" transform="translate(1352 391)">
        <g id="Rectangle_3991" data-name="Rectangle 3991" fill="none" stroke="#cbcbd2" stroke-width="1">
          <rect width="73.934" height="36" rx="18" stroke="none"/>
          <rect x="0.5" y="0.5" width="72.934" height="35" rx="17.5" fill="none"/>
        </g>
        <path id="Path_10358" data-name="Path 10358" d="M-11.351,0h-1.784l-.882-2.5h-3.855L-18.72,0H-20.5l3.671-9.8h1.832Zm-3.1-3.821-1.36-3.91a4.632,4.632,0,0,1-.13-.615h-.027a4,4,0,0,1-.137.615l-1.347,3.91Zm9.276,3.5A3.911,3.911,0,0,1-7.161.164,3.369,3.369,0,0,1-9.676-.81a3.451,3.451,0,0,1-.957-2.526A3.8,3.8,0,0,1-9.6-6.115,3.678,3.678,0,0,1-6.853-7.164a4.016,4.016,0,0,1,1.688.335v1.477A2.557,2.557,0,0,0-6.723-5.9a2.166,2.166,0,0,0-1.647.68,2.487,2.487,0,0,0-.643,1.781,2.371,2.371,0,0,0,.6,1.716,2.148,2.148,0,0,0,1.624.629A2.537,2.537,0,0,0-5.171-1.7ZM.092-.075A2.748,2.748,0,0,1-1.131.157Q-3.168.157-3.168-1.8V-5.756H-4.337V-7h1.169V-8.62l1.586-.451V-7H.092v1.244H-1.583v3.5a1.379,1.379,0,0,0,.226.889A.936.936,0,0,0-.6-1.1a1.09,1.09,0,0,0,.7-.232ZM2.259-8.47a.953.953,0,0,1-.667-.253.832.832,0,0,1-.277-.643.854.854,0,0,1,.277-.649.939.939,0,0,1,.667-.26.969.969,0,0,1,.684.26.849.849,0,0,1,.28.649.837.837,0,0,1-.28.632A.962.962,0,0,1,2.259-8.47ZM3.045,0H1.459V-7H3.045ZM8.22.164A3.47,3.47,0,0,1,5.633-.817a3.544,3.544,0,0,1-.967-2.6A3.687,3.687,0,0,1,5.674-6.173a3.708,3.708,0,0,1,2.717-.991,3.358,3.358,0,0,1,2.557.964,3.723,3.723,0,0,1,.916,2.673,3.669,3.669,0,0,1-.988,2.683A3.548,3.548,0,0,1,8.22.164ZM8.3-5.9a1.81,1.81,0,0,0-1.47.649,2.719,2.719,0,0,0-.54,1.791,2.561,2.561,0,0,0,.547,1.733A1.837,1.837,0,0,0,8.3-1.094a1.743,1.743,0,0,0,1.439-.622,2.754,2.754,0,0,0,.5-1.771,2.8,2.8,0,0,0-.5-1.784A1.734,1.734,0,0,0,8.3-5.9ZM19.711,0H18.125V-3.944q0-1.962-1.388-1.962a1.515,1.515,0,0,0-1.2.543,2.016,2.016,0,0,0-.472,1.371V0H13.477V-7H15.07v1.162H15.1a2.5,2.5,0,0,1,2.27-1.326,2.114,2.114,0,0,1,1.743.742,3.33,3.33,0,0,1,.6,2.143Z" transform="translate(37 23)" fill="#2777d3"/>
      </g>
    </g>
    <g id="Group_13313" data-name="Group 13313" transform="translate(-862 -23)">
      <g id="Group_13281-2" data-name="Group 13281" transform="translate(1272)">
        <g transform="matrix(1, 0, 0, 1, -410, 23)" filter="url(#Card-2)">
          <rect id="Card-4" data-name="Card" width="400" height="414" rx="2" transform="translate(460 20)" fill="#fff"/>
        </g>
        <path id="Path_8849-2" data-name="Path 8849" d="M11.494-.586a8.49,8.49,0,0,1-3.936.82A6.435,6.435,0,0,1,2.676-1.689,7.01,7.01,0,0,1,.84-6.738a7.352,7.352,0,0,1,2.065-5.43,7.066,7.066,0,0,1,5.22-2.07,8.554,8.554,0,0,1,3.369.576v2.3a6.012,6.012,0,0,0-3.125-.84,4.9,4.9,0,0,0-3.687,1.455A5.345,5.345,0,0,0,3.271-6.855,5.1,5.1,0,0,0,4.59-3.169,4.588,4.588,0,0,0,8.057-1.8a6.207,6.207,0,0,0,3.438-.937ZM21.572,0h-2.2V-1.562h-.039A3.308,3.308,0,0,1,16.3.234a3.2,3.2,0,0,1-2.31-.8,2.8,2.8,0,0,1-.835-2.119q0-2.832,3.262-3.3l2.969-.42q0-2.139-2.031-2.139a4.825,4.825,0,0,0-3.223,1.23V-9.3a7.028,7.028,0,0,1,3.652-.937q3.789,0,3.789,3.73ZM19.385-4.912l-2.1.293a3.328,3.328,0,0,0-1.47.474,1.384,1.384,0,0,0-.493,1.216,1.331,1.331,0,0,0,.454,1.04,1.758,1.758,0,0,0,1.216.405,2.243,2.243,0,0,0,1.714-.728,2.58,2.58,0,0,0,.679-1.831Zm10.752-2.93a1.878,1.878,0,0,0-1.182-.322,2.023,2.023,0,0,0-1.68.908A4.061,4.061,0,0,0,26.6-4.785V0H24.336V-10H26.6v2.061h.039a3.484,3.484,0,0,1,1.021-1.646,2.3,2.3,0,0,1,1.538-.591,1.909,1.909,0,0,1,.938.186ZM40.654,0H38.389V-1.7H38.35A3.614,3.614,0,0,1,34.98.234a3.637,3.637,0,0,1-2.954-1.343,5.574,5.574,0,0,1-1.108-3.657A6.073,6.073,0,0,1,32.144-8.74a4.011,4.011,0,0,1,3.267-1.494A3.128,3.128,0,0,1,38.35-8.613h.039V-14.8h2.266ZM38.418-4.57V-5.879a2.55,2.55,0,0,0-.693-1.807,2.313,2.313,0,0,0-1.768-.742,2.38,2.38,0,0,0-2,.947,4.221,4.221,0,0,0-.728,2.627,3.782,3.782,0,0,0,.7,2.407,2.271,2.271,0,0,0,1.88.884A2.351,2.351,0,0,0,37.7-2.417,3.219,3.219,0,0,0,38.418-4.57ZM60.615,0H58.281V-6.074H51.689V0H49.365V-14h2.324v5.889h6.592V-14h2.334Zm11.67-4.385H65.469a2.881,2.881,0,0,0,.854,2.139,3.179,3.179,0,0,0,2.241.752A4.942,4.942,0,0,0,71.5-2.451V-.625a6.716,6.716,0,0,1-3.613.859,4.473,4.473,0,0,1-3.462-1.362,5.449,5.449,0,0,1-1.255-3.833,5.328,5.328,0,0,1,1.382-3.8,4.52,4.52,0,0,1,3.433-1.47,3.941,3.941,0,0,1,3.174,1.318,5.474,5.474,0,0,1,1.123,3.662ZM70.1-5.986a2.919,2.919,0,0,0-.576-1.9,1.925,1.925,0,0,0-1.562-.679,2.2,2.2,0,0,0-1.655.713,3.257,3.257,0,0,0-.835,1.865ZM82.119,0h-2.2V-1.562h-.039a3.308,3.308,0,0,1-3.037,1.8,3.2,3.2,0,0,1-2.31-.8A2.8,2.8,0,0,1,73.7-2.686q0-2.832,3.262-3.3l2.969-.42q0-2.139-2.031-2.139a4.825,4.825,0,0,0-3.223,1.23V-9.3a7.028,7.028,0,0,1,3.652-.937q3.789,0,3.789,3.73ZM79.932-4.912l-2.1.293a3.328,3.328,0,0,0-1.47.474,1.384,1.384,0,0,0-.493,1.216,1.331,1.331,0,0,0,.454,1.04,1.758,1.758,0,0,0,1.216.405,2.243,2.243,0,0,0,1.714-.728,2.58,2.58,0,0,0,.679-1.831ZM93.975,0H91.709V-1.7H91.67A3.614,3.614,0,0,1,88.3.234a3.637,3.637,0,0,1-2.954-1.343,5.574,5.574,0,0,1-1.108-3.657A6.073,6.073,0,0,1,85.464-8.74a4.011,4.011,0,0,1,3.267-1.494A3.128,3.128,0,0,1,91.67-8.613h.039V-14.8h2.266ZM91.738-4.57V-5.879a2.55,2.55,0,0,0-.693-1.807,2.313,2.313,0,0,0-1.768-.742,2.38,2.38,0,0,0-2,.947,4.221,4.221,0,0,0-.728,2.627,3.782,3.782,0,0,0,.7,2.407,2.271,2.271,0,0,0,1.88.884,2.351,2.351,0,0,0,1.885-.854A3.219,3.219,0,0,0,91.738-4.57ZM99.209,0H96.934V-14.8h2.275ZM103.3-12.1a1.362,1.362,0,0,1-.952-.361,1.189,1.189,0,0,1-.4-.918,1.219,1.219,0,0,1,.4-.928,1.342,1.342,0,0,1,.952-.371,1.384,1.384,0,0,1,.977.371,1.212,1.212,0,0,1,.4.928,1.2,1.2,0,0,1-.4.9A1.374,1.374,0,0,1,103.3-12.1ZM104.424,0h-2.266V-10h2.266Zm11.865,0h-2.266V-5.635q0-2.8-1.982-2.8a2.164,2.164,0,0,0-1.709.776,2.88,2.88,0,0,0-.674,1.958V0h-2.275V-10h2.275v1.66h.039a3.564,3.564,0,0,1,3.242-1.895,3.02,3.02,0,0,1,2.49,1.06,4.758,4.758,0,0,1,.859,3.062Zm11.23-4.385H120.7a2.881,2.881,0,0,0,.854,2.139,3.179,3.179,0,0,0,2.241.752,4.942,4.942,0,0,0,2.939-.957V-.625a6.716,6.716,0,0,1-3.613.859,4.473,4.473,0,0,1-3.462-1.362,5.449,5.449,0,0,1-1.255-3.833,5.328,5.328,0,0,1,1.382-3.8,4.52,4.52,0,0,1,3.433-1.47A3.941,3.941,0,0,1,126.4-8.916a5.474,5.474,0,0,1,1.123,3.662Zm-2.187-1.6a2.919,2.919,0,0,0-.576-1.9,1.925,1.925,0,0,0-1.562-.679,2.2,2.2,0,0,0-1.655.713,3.257,3.257,0,0,0-.835,1.865Z" transform="translate(79 95.805)" fill="#31313a"/>
      </g>
    </g>
    <g id="Secondary_Button_-_Normal-2" data-name="Secondary Button - Normal" transform="translate(623 368)">
      <g id="Rectangle_3991-2" data-name="Rectangle 3991" fill="none" stroke="#cbcbd2" stroke-width="1">
        <rect width="73.934" height="36" rx="18" stroke="none"/>
        <rect x="0.5" y="0.5" width="72.934" height="35" rx="17.5" fill="none"/>
      </g>
      <path id="Path_10357" data-name="Path 10357" d="M-11.351,0h-1.784l-.882-2.5h-3.855L-18.72,0H-20.5l3.671-9.8h1.832Zm-3.1-3.821-1.36-3.91a4.632,4.632,0,0,1-.13-.615h-.027a4,4,0,0,1-.137.615l-1.347,3.91Zm9.276,3.5A3.911,3.911,0,0,1-7.161.164,3.369,3.369,0,0,1-9.676-.81a3.451,3.451,0,0,1-.957-2.526A3.8,3.8,0,0,1-9.6-6.115,3.678,3.678,0,0,1-6.853-7.164a4.016,4.016,0,0,1,1.688.335v1.477A2.557,2.557,0,0,0-6.723-5.9a2.166,2.166,0,0,0-1.647.68,2.487,2.487,0,0,0-.643,1.781,2.371,2.371,0,0,0,.6,1.716,2.148,2.148,0,0,0,1.624.629A2.537,2.537,0,0,0-5.171-1.7ZM.092-.075A2.748,2.748,0,0,1-1.131.157Q-3.168.157-3.168-1.8V-5.756H-4.337V-7h1.169V-8.62l1.586-.451V-7H.092v1.244H-1.583v3.5a1.379,1.379,0,0,0,.226.889A.936.936,0,0,0-.6-1.1a1.09,1.09,0,0,0,.7-.232ZM2.259-8.47a.953.953,0,0,1-.667-.253.832.832,0,0,1-.277-.643.854.854,0,0,1,.277-.649.939.939,0,0,1,.667-.26.969.969,0,0,1,.684.26.849.849,0,0,1,.28.649.837.837,0,0,1-.28.632A.962.962,0,0,1,2.259-8.47ZM3.045,0H1.459V-7H3.045ZM8.22.164A3.47,3.47,0,0,1,5.633-.817a3.544,3.544,0,0,1-.967-2.6A3.687,3.687,0,0,1,5.674-6.173a3.708,3.708,0,0,1,2.717-.991,3.358,3.358,0,0,1,2.557.964,3.723,3.723,0,0,1,.916,2.673,3.669,3.669,0,0,1-.988,2.683A3.548,3.548,0,0,1,8.22.164ZM8.3-5.9a1.81,1.81,0,0,0-1.47.649,2.719,2.719,0,0,0-.54,1.791,2.561,2.561,0,0,0,.547,1.733A1.837,1.837,0,0,0,8.3-1.094a1.743,1.743,0,0,0,1.439-.622,2.754,2.754,0,0,0,.5-1.771,2.8,2.8,0,0,0-.5-1.784A1.734,1.734,0,0,0,8.3-5.9ZM19.711,0H18.125V-3.944q0-1.962-1.388-1.962a1.515,1.515,0,0,0-1.2.543,2.016,2.016,0,0,0-.472,1.371V0H13.477V-7H15.07v1.162H15.1a2.5,2.5,0,0,1,2.27-1.326,2.114,2.114,0,0,1,1.743.742,3.33,3.33,0,0,1,.6,2.143Z" transform="translate(37 23)" fill="#2777d3"/>
    </g>
  </g>
</svg>
