<svg xmlns="http://www.w3.org/2000/svg" xmlns:xlink="http://www.w3.org/1999/xlink" width="900" height="458" viewBox="0 0 900 458">
  <defs>
    <filter id="Card" x="35.5" y="16.5" width="409" height="423" filterUnits="userSpaceOnUse">
      <feOffset dy="1" input="SourceAlpha"/>
      <feGaussianBlur stdDeviation="1.5" result="blur"/>
      <feFlood flood-opacity="0.161"/>
      <feComposite operator="in" in2="blur"/>
      <feComposite in="SourceGraphic"/>
    </filter>
    <filter id="Card-2" x="455.5" y="16.5" width="409" height="423" filterUnits="userSpaceOnUse">
      <feOffset dy="1" input="SourceAlpha"/>
      <feGaussianBlur stdDeviation="1.5" result="blur-2"/>
      <feFlood flood-opacity="0.161"/>
      <feComposite operator="in" in2="blur-2"/>
      <feComposite in="SourceGraphic"/>
    </filter>
    <clipPath id="clip-card--carousel">
      <rect width="900" height="458"/>
    </clipPath>
  </defs>
  <g id="card--carousel" clip-path="url(#clip-card--carousel)">
    <rect width="900" height="458" fill="#f4f4f6"/>
    <g transform="matrix(1, 0, 0, 1, 0, 0)" filter="url(#Card)">
      <path id="Card-3" data-name="Card" d="M2,0H398a2,2,0,0,1,2,2V412a2,2,0,0,1-2,2H2a2,2,0,0,1-2-2V2A2,2,0,0,1,2,0Z" transform="translate(40 20)" fill="#fff"/>
    </g>
    <g transform="matrix(1, 0, 0, 1, 0, 0)" filter="url(#Card-2)">
      <path id="Card-4" data-name="Card" d="M2,0H398a2,2,0,0,1,2,2V412a2,2,0,0,1-2,2H2a2,2,0,0,1-2-2V2A2,2,0,0,1,2,0Z" transform="translate(460 20)" fill="#fff"/>
    </g>
    <path id="Path_10413" data-name="Path 10413" d="M5,0A5,5,0,1,1,0,5,5,5,0,0,1,5,0Z" transform="translate(213 394)" fill="#2777d3"/>
    <path id="Path_10414" data-name="Path 10414" d="M5,0A5,5,0,1,1,0,5,5,5,0,0,1,5,0Z" transform="translate(228 394)" fill="#a5c7ee"/>
    <path id="Path_10415" data-name="Path 10415" d="M5,0A5,5,0,1,1,0,5,5,5,0,0,1,5,0Z" transform="translate(243 394)" fill="#a5c7ee"/>
    <path id="Path_10416" data-name="Path 10416" d="M5,0A5,5,0,1,1,0,5,5,5,0,0,1,5,0Z" transform="translate(258 394)" fill="#a5c7ee"/>
    <g id="Group_13305" data-name="Group 13305" transform="translate(3242 5553) rotate(180)">
      <circle id="Ellipse_2023" data-name="Ellipse 2023" cx="18" cy="18" r="18" transform="translate(2584 5139)" fill="none" opacity="0.36"/>
      <g id="Chevron_right" data-name="Chevron right" transform="translate(2602 5157)">
        <g id="Chevron_right-2" data-name="Chevron right" transform="translate(-8 -8)">
          <rect id="Rectangle_8129" data-name="Rectangle 8129" width="16" height="16" fill="none"/>
          <path id="Path_8858" data-name="Path 8858" d="M5.3,4,6.6,2.8a.3.3,0,0,1,.4,0l5,5a.3.3,0,0,1,0,.4l-5,5a.3.3,0,0,1-.4,0L5.3,12a.3.3,0,0,1,0-.4L8.9,8,5.3,4.4A.3.3,0,0,1,5.3,4Z" fill="#2777d3"/>
        </g>
      </g>
    </g>
    <g id="Group_13306" data-name="Group 13306" transform="translate(-1921 -4761)">
      <path id="Path_8860" data-name="Path 8860" d="M18,0A18,18,0,1,1,0,18,18,18,0,0,1,18,0Z" transform="translate(2584 5139)" fill="none" opacity="0.36"/>
      <g id="Chevron_right-3" data-name="Chevron right" transform="translate(2602 5157)">
        <g id="Chevron_right-4" data-name="Chevron right" transform="translate(-8 -8)">
          <rect id="Rectangle_8129-2" data-name="Rectangle 8129" width="16" height="16" fill="none"/>
          <path id="Path_8858-2" data-name="Path 8858" d="M5.3,4,6.6,2.8a.3.3,0,0,1,.4,0l5,5a.3.3,0,0,1,0,.4l-5,5a.3.3,0,0,1-.4,0L5.3,12a.3.3,0,0,1,0-.4L8.9,8,5.3,4.4A.3.3,0,0,1,5.3,4Z" fill="#2777d3"/>
        </g>
      </g>
    </g>
    <text id="Card_headline" data-name="Card headline" transform="translate(60 62)" fill="#31313a" font-size="20" font-family="SegoeUI-Semibold, Segoe UI" font-weight="600"><tspan x="0" y="0">Card headline</tspan></text>
    <text id="Card_headline-2" data-name="Card headline" transform="translate(480 62)" fill="#31313a" font-size="20" font-family="SegoeUI-Semibold, Segoe UI" font-weight="600"><tspan x="0" y="0">Card headline</tspan></text>
  </g>
</svg>
