<svg xmlns="http://www.w3.org/2000/svg" xmlns:xlink="http://www.w3.org/1999/xlink" width="900" height="552" viewBox="0 0 900 552">
  <defs>
    <filter id="Card" x="258.5" y="50.5" width="386" height="259" filterUnits="userSpaceOnUse">
      <feOffset dy="1" input="SourceAlpha"/>
      <feGaussianBlur stdDeviation="1.5" result="blur"/>
      <feFlood flood-opacity="0.161"/>
      <feComposite operator="in" in2="blur"/>
      <feComposite in="SourceGraphic"/>
    </filter>
    <clipPath id="clip-card--responsive-contentarea">
      <rect width="900" height="552"/>
    </clipPath>
  </defs>
  <g id="card--responsive-contentarea" clip-path="url(#clip-card--responsive-contentarea)">
    <rect width="900" height="552" fill="#f4f4f6"/>
    <path id="Path_10310" data-name="Path 10310" d="M0,0H360V483.5H0Z" transform="translate(271 44)" fill="#f9f9fa"/>
    <g id="sysbar_dark" data-name="sysbar dark" transform="translate(271 20)">
      <rect id="rectangle" width="360" height="24" fill="#78788c"/>
      <rect id="sysbar" width="118" height="24" transform="translate(242)" fill="none"/>
      <path id="sysbar_time" data-name="sysbar time" d="M5.243,0H3.589V-8l-2.44.832V-8.559L5.031-9.987h.212ZM15.395,0H8.7V-1.142l3.315-3.616A8.256,8.256,0,0,0,13.04-6.094a2.165,2.165,0,0,0,.3-1.077,1.636,1.636,0,0,0-.4-1.148,1.387,1.387,0,0,0-1.077-.437,1.6,1.6,0,0,0-1.251.492,1.936,1.936,0,0,0-.444,1.347H8.511a3.256,3.256,0,0,1,.414-1.637,2.848,2.848,0,0,1,1.183-1.131,3.764,3.764,0,0,1,1.774-.4,3.367,3.367,0,0,1,2.287.728A2.527,2.527,0,0,1,15-7.349a3.416,3.416,0,0,1-.42,1.562,8.882,8.882,0,0,1-1.377,1.856l-2.434,2.6h4.621Zm2.372-1.75a.949.949,0,0,1,.718.263.914.914,0,0,1,.253.66.882.882,0,0,1-.253.646.963.963,0,0,1-.718.256.966.966,0,0,1-.7-.253.867.867,0,0,1-.26-.649.914.914,0,0,1,.253-.66A.94.94,0,0,1,17.767-1.75Zm0-5.8a.949.949,0,0,1,.718.263.914.914,0,0,1,.253.66.882.882,0,0,1-.253.646.963.963,0,0,1-.718.256.966.966,0,0,1-.7-.253.867.867,0,0,1-.26-.649.914.914,0,0,1,.253-.66A.94.94,0,0,1,17.767-7.554Zm4.525,1.818H23.3a1.811,1.811,0,0,0,1.213-.4,1.414,1.414,0,0,0,.448-1.128,1.541,1.541,0,0,0-.373-1.1,1.5,1.5,0,0,0-1.138-.393,1.586,1.586,0,0,0-1.1.386,1.291,1.291,0,0,0-.431,1.008H20.262a2.514,2.514,0,0,1,.407-1.395A2.733,2.733,0,0,1,21.8-9.738a3.7,3.7,0,0,1,1.63-.352,3.423,3.423,0,0,1,2.341.749,2.627,2.627,0,0,1,.851,2.082A2.115,2.115,0,0,1,26.2-6a2.679,2.679,0,0,1-1.1.892,2.442,2.442,0,0,1,1.248.882,2.414,2.414,0,0,1,.427,1.436A2.673,2.673,0,0,1,25.85-.656a3.57,3.57,0,0,1-2.417.793,3.543,3.543,0,0,1-2.352-.766,2.521,2.521,0,0,1-.916-2.037h1.661A1.39,1.39,0,0,0,22.268-1.6a1.672,1.672,0,0,0,1.186.41,1.725,1.725,0,0,0,1.217-.41,1.539,1.539,0,0,0,.444-1.189A1.554,1.554,0,0,0,24.65-4a1.987,1.987,0,0,0-1.381-.424h-.978ZM34.815-4.19a5.428,5.428,0,0,1-.8,3.237A2.837,2.837,0,0,1,31.568.137a2.874,2.874,0,0,1-2.43-1.063A5.2,5.2,0,0,1,28.3-4.074V-5.8a5.346,5.346,0,0,1,.8-3.22,2.863,2.863,0,0,1,2.451-1.073,2.879,2.879,0,0,1,2.437,1.046,5.183,5.183,0,0,1,.824,3.131ZM33.154-6.05A4.211,4.211,0,0,0,32.771-8.1a1.307,1.307,0,0,0-1.217-.653,1.306,1.306,0,0,0-1.2.619,3.892,3.892,0,0,0-.4,1.931v2.256a4.32,4.32,0,0,0,.39,2.078,1.309,1.309,0,0,0,1.224.684,1.286,1.286,0,0,0,1.183-.632,4.065,4.065,0,0,0,.4-1.979Z" transform="translate(317 17)" fill="#fff"/>
      <g id="sysbar_battery" data-name="sysbar battery" transform="translate(-42 -378)">
        <rect id="rectangle-2" data-name="rectangle" width="8.615" height="3.231" transform="translate(342 393.769)" fill="rgba(255,255,255,0.9)"/>
        <rect id="rectangle-3" data-name="rectangle" width="8.615" height="3.231" transform="translate(342 390.538)" fill="rgba(255,255,255,0.9)"/>
        <rect id="rectangle-4" data-name="rectangle" width="8.615" height="3.231" transform="translate(342 387.308)" fill="rgba(255,255,255,0.3)"/>
        <rect id="rectangle-5" data-name="rectangle" width="8.615" height="3.231" transform="translate(342 384.077)" fill="rgba(255,255,255,0.3)"/>
        <rect id="rectangle-6" data-name="rectangle" width="4.308" height="1.077" transform="translate(344.154 383)" fill="rgba(255,255,255,0.3)"/>
      </g>
      <path id="sysbar_status_2" data-name="sysbar status 2" d="M19.8,14h14V0Z" transform="translate(257.7 5)" fill="#fff" opacity="0.9"/>
      <path id="sysbar_wifi" data-name="sysbar wifi" d="M8.8,14,17.6,3.1A14.04,14.04,0,0,0,0,3.1L8.8,14Z" transform="translate(257.5 5)" fill="#fff" opacity="0.9"/>
    </g>
    <g transform="matrix(1, 0, 0, 1, 0, 0)" filter="url(#Card)">
      <rect id="Card-2" data-name="Card" width="377" height="250" transform="translate(263 54)" fill="#fff"/>
    </g>
    <path id="Path_10444" data-name="Path 10444" d="M11.494,21.414a8.49,8.49,0,0,1-3.936.82,6.435,6.435,0,0,1-4.883-1.924A7.01,7.01,0,0,1,.84,15.262a7.352,7.352,0,0,1,2.065-5.43,7.066,7.066,0,0,1,5.22-2.07,8.554,8.554,0,0,1,3.369.576v2.3A6.012,6.012,0,0,0,8.369,9.8a4.9,4.9,0,0,0-3.687,1.455,5.345,5.345,0,0,0-1.411,3.887A5.1,5.1,0,0,0,4.59,18.831,4.588,4.588,0,0,0,8.057,20.2a6.207,6.207,0,0,0,3.438-.937ZM21.572,22h-2.2V20.438h-.039a3.308,3.308,0,0,1-3.037,1.8,3.2,3.2,0,0,1-2.31-.8,2.8,2.8,0,0,1-.835-2.119q0-2.832,3.262-3.3l2.969-.42q0-2.139-2.031-2.139a4.825,4.825,0,0,0-3.223,1.23V12.7a7.028,7.028,0,0,1,3.652-.937q3.789,0,3.789,3.73Zm-2.187-4.912-2.1.293a3.328,3.328,0,0,0-1.47.474,1.384,1.384,0,0,0-.493,1.216,1.331,1.331,0,0,0,.454,1.04,1.758,1.758,0,0,0,1.216.405,2.243,2.243,0,0,0,1.714-.728,2.58,2.58,0,0,0,.679-1.831Zm10.752-2.93a1.878,1.878,0,0,0-1.182-.322,2.023,2.023,0,0,0-1.68.908,4.061,4.061,0,0,0-.674,2.471V22H24.336V12H26.6v2.061h.039a3.484,3.484,0,0,1,1.021-1.646,2.3,2.3,0,0,1,1.538-.591,1.909,1.909,0,0,1,.938.186ZM40.654,22H38.389V20.3H38.35a3.91,3.91,0,0,1-6.323.591,5.574,5.574,0,0,1-1.108-3.657,6.073,6.073,0,0,1,1.226-3.975,4.011,4.011,0,0,1,3.267-1.494,3.128,3.128,0,0,1,2.939,1.621h.039V7.2h2.266Zm-2.236-4.57V16.121a2.55,2.55,0,0,0-.693-1.807,2.313,2.313,0,0,0-1.768-.742,2.38,2.38,0,0,0-2,.947,4.221,4.221,0,0,0-.728,2.627,3.782,3.782,0,0,0,.7,2.407,2.271,2.271,0,0,0,1.88.884,2.351,2.351,0,0,0,1.885-.854A3.219,3.219,0,0,0,38.418,17.43ZM58,22H55.732V16.531q0-2.969-1.982-2.969a2.073,2.073,0,0,0-1.68.859,3.421,3.421,0,0,0-.684,2.2V22H49.111V7.2h2.275V13.66h.039a3.578,3.578,0,0,1,3.242-1.895q3.33,0,3.33,4.072Zm11.221-4.385H62.4a2.881,2.881,0,0,0,.854,2.139,3.179,3.179,0,0,0,2.241.752,4.942,4.942,0,0,0,2.939-.957v1.826a6.716,6.716,0,0,1-3.613.859,4.473,4.473,0,0,1-3.462-1.362,5.449,5.449,0,0,1-1.255-3.833,5.328,5.328,0,0,1,1.382-3.8,4.52,4.52,0,0,1,3.433-1.47A3.941,3.941,0,0,1,68.1,13.084a5.474,5.474,0,0,1,1.123,3.662Zm-2.187-1.6a2.919,2.919,0,0,0-.576-1.9,1.925,1.925,0,0,0-1.562-.679,2.2,2.2,0,0,0-1.655.713,3.257,3.257,0,0,0-.835,1.865ZM79.053,22h-2.2V20.438h-.039a3.308,3.308,0,0,1-3.037,1.8,3.2,3.2,0,0,1-2.31-.8,2.8,2.8,0,0,1-.835-2.119q0-2.832,3.262-3.3l2.969-.42q0-2.139-2.031-2.139a4.825,4.825,0,0,0-3.223,1.23V12.7a7.028,7.028,0,0,1,3.652-.937q3.789,0,3.789,3.73Zm-2.187-4.912-2.1.293a3.328,3.328,0,0,0-1.47.474A1.384,1.384,0,0,0,72.8,19.07a1.331,1.331,0,0,0,.454,1.04,1.758,1.758,0,0,0,1.216.405,2.243,2.243,0,0,0,1.714-.728,2.58,2.58,0,0,0,.679-1.831ZM90.908,22H88.643V20.3H88.6a3.91,3.91,0,0,1-6.323.591,5.574,5.574,0,0,1-1.108-3.657A6.073,6.073,0,0,1,82.4,13.26a4.011,4.011,0,0,1,3.267-1.494A3.128,3.128,0,0,1,88.6,13.387h.039V7.2h2.266Zm-2.236-4.57V16.121a2.55,2.55,0,0,0-.693-1.807,2.313,2.313,0,0,0-1.768-.742,2.38,2.38,0,0,0-2,.947,4.221,4.221,0,0,0-.728,2.627,3.782,3.782,0,0,0,.7,2.407,2.271,2.271,0,0,0,1.88.884,2.351,2.351,0,0,0,1.885-.854A3.219,3.219,0,0,0,88.672,17.43ZM96.143,22H93.867V7.2h2.275Zm4.092-12.1a1.362,1.362,0,0,1-.952-.361,1.189,1.189,0,0,1-.4-.918,1.219,1.219,0,0,1,.4-.928,1.342,1.342,0,0,1,.952-.371,1.384,1.384,0,0,1,.977.371,1.212,1.212,0,0,1,.4.928,1.2,1.2,0,0,1-.4.9A1.374,1.374,0,0,1,100.234,9.9ZM101.357,22H99.092V12h2.266Zm11.865,0h-2.266V16.365q0-2.8-1.982-2.8a2.164,2.164,0,0,0-1.709.776,2.88,2.88,0,0,0-.674,1.958V22h-2.275V12h2.275v1.66h.039a3.564,3.564,0,0,1,3.242-1.895,3.02,3.02,0,0,1,2.49,1.06,4.758,4.758,0,0,1,.859,3.062Zm11.23-4.385h-6.816a2.881,2.881,0,0,0,.854,2.139,3.179,3.179,0,0,0,2.241.752,4.942,4.942,0,0,0,2.939-.957v1.826a6.716,6.716,0,0,1-3.613.859,4.473,4.473,0,0,1-3.462-1.362,5.449,5.449,0,0,1-1.255-3.833,5.328,5.328,0,0,1,1.382-3.8,4.52,4.52,0,0,1,3.433-1.47,3.941,3.941,0,0,1,3.174,1.318,5.474,5.474,0,0,1,1.123,3.662Zm-2.187-1.6a2.919,2.919,0,0,0-.576-1.9,1.925,1.925,0,0,0-1.562-.679,2.2,2.2,0,0,0-1.655.713,3.257,3.257,0,0,0-.835,1.865Z" transform="translate(281 66)" fill="#31313a"/>
    <path id="Path_10445" data-name="Path 10445" d="M12.979,22H10.645V15.926H4.053V22H1.729V8H4.053v5.889h6.592V8h2.334Zm11.67-4.385H17.832a2.881,2.881,0,0,0,.854,2.139,3.179,3.179,0,0,0,2.241.752,4.942,4.942,0,0,0,2.939-.957v1.826a6.716,6.716,0,0,1-3.613.859,4.473,4.473,0,0,1-3.462-1.362,5.449,5.449,0,0,1-1.255-3.833,5.328,5.328,0,0,1,1.382-3.8,4.52,4.52,0,0,1,3.433-1.47,3.941,3.941,0,0,1,3.174,1.318,5.474,5.474,0,0,1,1.123,3.662Zm-2.187-1.6a2.919,2.919,0,0,0-.576-1.9,1.925,1.925,0,0,0-1.562-.679,2.2,2.2,0,0,0-1.655.713,3.257,3.257,0,0,0-.835,1.865ZM34.482,22h-2.2V20.438h-.039a3.308,3.308,0,0,1-3.037,1.8,3.2,3.2,0,0,1-2.31-.8,2.8,2.8,0,0,1-.835-2.119q0-2.832,3.262-3.3l2.969-.42q0-2.139-2.031-2.139a4.825,4.825,0,0,0-3.223,1.23V12.7a7.028,7.028,0,0,1,3.652-.937q3.789,0,3.789,3.73Zm-2.187-4.912-2.1.293a3.328,3.328,0,0,0-1.47.474,1.384,1.384,0,0,0-.493,1.216,1.331,1.331,0,0,0,.454,1.04,1.758,1.758,0,0,0,1.216.405,2.243,2.243,0,0,0,1.714-.728,2.58,2.58,0,0,0,.679-1.831ZM46.338,22H44.072V20.3h-.039a3.91,3.91,0,0,1-6.323.591A5.574,5.574,0,0,1,36.6,17.234a6.073,6.073,0,0,1,1.226-3.975,4.011,4.011,0,0,1,3.267-1.494,3.128,3.128,0,0,1,2.939,1.621h.039V7.2h2.266ZM44.1,17.43V16.121a2.55,2.55,0,0,0-.693-1.807,2.313,2.313,0,0,0-1.768-.742,2.38,2.38,0,0,0-2,.947,4.221,4.221,0,0,0-.728,2.627,3.782,3.782,0,0,0,.7,2.407,2.271,2.271,0,0,0,1.88.884,2.351,2.351,0,0,0,1.885-.854A3.219,3.219,0,0,0,44.1,17.43ZM51.572,22H49.3V7.2h2.275ZM55.664,9.9a1.362,1.362,0,0,1-.952-.361,1.189,1.189,0,0,1-.4-.918,1.219,1.219,0,0,1,.4-.928,1.342,1.342,0,0,1,.952-.371,1.384,1.384,0,0,1,.977.371,1.212,1.212,0,0,1,.4.928,1.2,1.2,0,0,1-.4.9A1.374,1.374,0,0,1,55.664,9.9ZM56.787,22H54.521V12h2.266Zm11.865,0H66.387V16.365q0-2.8-1.982-2.8a2.164,2.164,0,0,0-1.709.776,2.88,2.88,0,0,0-.674,1.958V22H59.746V12h2.275v1.66h.039A3.564,3.564,0,0,1,65.3,11.766a3.02,3.02,0,0,1,2.49,1.06,4.758,4.758,0,0,1,.859,3.062Zm11.23-4.385H73.066a2.881,2.881,0,0,0,.854,2.139,3.179,3.179,0,0,0,2.241.752,4.942,4.942,0,0,0,2.939-.957v1.826a6.716,6.716,0,0,1-3.613.859,4.473,4.473,0,0,1-3.462-1.362,5.449,5.449,0,0,1-1.255-3.833,5.328,5.328,0,0,1,1.382-3.8,4.52,4.52,0,0,1,3.433-1.47,3.941,3.941,0,0,1,3.174,1.318,5.474,5.474,0,0,1,1.123,3.662Zm-2.187-1.6a2.919,2.919,0,0,0-.576-1.9,1.925,1.925,0,0,0-1.562-.679,2.2,2.2,0,0,0-1.655.713,3.257,3.257,0,0,0-.835,1.865Z" transform="translate(281 334)" fill="#31313a"/>
    <rect id="Rectangle_9970" data-name="Rectangle 9970" width="15" height="526" transform="translate(631 26)" fill="#f4f4f6"/>
    <rect id="Rectangle_9978" data-name="Rectangle 9978" width="17" height="526" transform="translate(254 26)" fill="#f4f4f6"/>
    <rect id="rectangle-7" data-name="rectangle" width="360" height="5" transform="translate(271 525)" fill="#78788c"/>
    <rect id="Rectangle_9979" data-name="Rectangle 9979" width="392" height="22" transform="translate(254 530)" fill="#f4f4f6"/>
    <rect id="rectangle-8" data-name="rectangle" width="1" height="510" transform="translate(270 20)" fill="#78788c"/>
    <rect id="rectangle-9" data-name="rectangle" width="1" height="510" transform="translate(631 20)" fill="#78788c"/>
    <rect id="Rectangle_9982" data-name="Rectangle 9982" width="250" height="10" transform="translate(281 54) rotate(90)" fill="#9ee6e1" opacity="0.24"/>
    <rect id="Rectangle_9987" data-name="Rectangle 9987" width="340" height="10" transform="translate(281 54)" fill="#9ee6e1" opacity="0.24"/>
    <rect id="Rectangle_9988" data-name="Rectangle 9988" width="340" height="10" transform="translate(281 294)" fill="#9ee6e1" opacity="0.24"/>
    <rect id="Rectangle_9984" data-name="Rectangle 9984" width="10" height="360" transform="translate(631 44) rotate(90)" fill="#f3cee5"/>
    <rect id="Rectangle_9985" data-name="Rectangle 9985" width="221" height="10" transform="translate(281 304) rotate(90)" fill="#f3cee5"/>
    <rect id="Rectangle_9986" data-name="Rectangle 9986" width="221" height="10" transform="translate(631 304) rotate(90)" fill="#f3cee5"/>
    <rect id="Rectangle_9983" data-name="Rectangle 9983" width="250" height="10" transform="translate(631 54) rotate(90)" fill="#9ee6e1" opacity="0.24"/>
  </g>
</svg>
