<svg xmlns="http://www.w3.org/2000/svg" xmlns:xlink="http://www.w3.org/1999/xlink" width="900" height="457" viewBox="0 0 900 457">
  <defs>
    <filter id="Card" x="45.5" y="16.5" width="809" height="423" filterUnits="userSpaceOnUse">
      <feOffset dy="1" input="SourceAlpha"/>
      <feGaussianBlur stdDeviation="1.5" result="blur"/>
      <feFlood flood-opacity="0.161"/>
      <feComposite operator="in" in2="blur"/>
      <feComposite in="SourceGraphic"/>
    </filter>
    <clipPath id="clip-card--tabs-headline">
      <rect width="900" height="457"/>
    </clipPath>
  </defs>
  <g id="card--tabs-headline" clip-path="url(#clip-card--tabs-headline)">
    <rect width="900" height="457" fill="#f4f4f6"/>
    <g transform="matrix(1, 0, 0, 1, 0, 0)" filter="url(#Card)">
      <path id="Card-2" data-name="Card" d="M2,0H798a2,2,0,0,1,2,2V412a2,2,0,0,1-2,2H2a2,2,0,0,1-2-2V2A2,2,0,0,1,2,0Z" transform="translate(50 20)" fill="#fff"/>
    </g>
    <path id="Path_10406" data-name="Path 10406" d="M0,0H800V1H0Z" transform="translate(50 131)" fill="#e6e6ea"/>
    <path id="Path_10408" data-name="Path 10408" d="M8-8h-2.8V0H2.994V-8H.212V-9.8H8Zm5.742,8H11.7V-1h-.027A2.281,2.281,0,0,1,9.591.171a2.181,2.181,0,0,1-1.6-.578A2.07,2.07,0,0,1,7.4-1.948Q7.4-3.985,9.816-4.3l1.9-.253q0-1.148-1.244-1.148a4.247,4.247,0,0,0-2.379.745V-6.583a5.352,5.352,0,0,1,1.234-.41,6.486,6.486,0,0,1,1.425-.178,2.643,2.643,0,0,1,2.994,2.987Zm-2.03-2.844v-.472l-1.271.164q-1.053.137-1.053.95a.785.785,0,0,0,.256.6.985.985,0,0,0,.694.236,1.279,1.279,0,0,0,.991-.42A1.518,1.518,0,0,0,11.717-2.844Zm5.927,2.03h-.027V0h-2.16V-10.363h2.16v4.416h.027A2.563,2.563,0,0,1,19.92-7.171,2.5,2.5,0,0,1,22-6.241,4.009,4.009,0,0,1,22.736-3.7a4.342,4.342,0,0,1-.854,2.81A2.783,2.783,0,0,1,19.6.171,2.206,2.206,0,0,1,17.644-.813Zm-.062-2.953v.718a1.638,1.638,0,0,0,.39,1.121,1.268,1.268,0,0,0,1,.444,1.324,1.324,0,0,0,1.145-.571,2.756,2.756,0,0,0,.407-1.617,2.193,2.193,0,0,0-.373-1.357,1.257,1.257,0,0,0-1.063-.489,1.373,1.373,0,0,0-1.077.485A1.844,1.844,0,0,0,17.582-3.767ZM31.336.171A3.763,3.763,0,0,1,28.584-.81a3.556,3.556,0,0,1-1-2.663A3.556,3.556,0,0,1,28.622-6.19a3.926,3.926,0,0,1,2.81-.981,3.718,3.718,0,0,1,2.734.981A3.487,3.487,0,0,1,35.157-3.6,3.7,3.7,0,0,1,34.135-.841,3.8,3.8,0,0,1,31.336.171Zm.055-5.687A1.441,1.441,0,0,0,30.2-4.99a2.321,2.321,0,0,0-.424,1.49q0,2.017,1.627,2.017,1.552,0,1.552-2.071Q32.956-5.517,31.391-5.517ZM43.319,0H41.166V-3.89q0-1.627-1.162-1.627a1.153,1.153,0,0,0-.923.431,1.641,1.641,0,0,0-.362,1.094V0h-2.16V-7h2.16v1.107h.027A2.475,2.475,0,0,1,41-7.171q2.324,0,2.324,2.885Zm8-2.885H46.751Q46.86-1.36,48.672-1.36a3.75,3.75,0,0,0,2.03-.547V-.349a5.334,5.334,0,0,1-2.522.52,3.551,3.551,0,0,1-2.632-.94,3.551,3.551,0,0,1-.937-2.622,3.746,3.746,0,0,1,1.012-2.762,3.371,3.371,0,0,1,2.488-1.019,3.059,3.059,0,0,1,2.369.909,3.5,3.5,0,0,1,.837,2.468Zm-2-1.326q0-1.5-1.217-1.5a1.162,1.162,0,0,0-.9.431,1.955,1.955,0,0,0-.461,1.073Z" transform="translate(105 107)" fill="#2777d3"/>
    <path id="Path_10409" data-name="Path 10409" d="M7.082-8.764H4.252V0H3.1V-8.764H.28V-9.8h6.8ZM11.908,0H10.787V-1.094H10.76A2.347,2.347,0,0,1,8.606.164,2.3,2.3,0,0,1,6.969-.39a1.918,1.918,0,0,1-.591-1.47q0-1.962,2.311-2.283l2.1-.294q0-1.784-1.442-1.784a3.446,3.446,0,0,0-2.283.861V-6.508A4.338,4.338,0,0,1,9.44-7.164q2.468,0,2.468,2.611ZM10.787-3.541,9.1-3.309a2.741,2.741,0,0,0-1.176.386,1.114,1.114,0,0,0-.4.981,1.068,1.068,0,0,0,.366.837,1.413,1.413,0,0,0,.974.325,1.8,1.8,0,0,0,1.377-.584,2.088,2.088,0,0,0,.543-1.48Zm4.382,2.529h-.027V0H14.021V-10.363h1.121V-5.77h.027a2.651,2.651,0,0,1,2.42-1.395,2.566,2.566,0,0,1,2.109.94,3.881,3.881,0,0,1,.762,2.519,4.339,4.339,0,0,1-.854,2.813A2.845,2.845,0,0,1,17.268.164,2.3,2.3,0,0,1,15.169-1.012Zm-.027-2.823v.978a2.081,2.081,0,0,0,.564,1.473,1.873,1.873,0,0,0,1.432.6,1.876,1.876,0,0,0,1.6-.779,3.575,3.575,0,0,0,.578-2.167,2.822,2.822,0,0,0-.54-1.832,1.787,1.787,0,0,0-1.463-.663,1.986,1.986,0,0,0-1.572.68A2.5,2.5,0,0,0,15.142-3.835ZM29.333-.068A2.161,2.161,0,0,1,28.287.15Q26.448.15,26.448-1.9V-6.043h-1.2V-7h1.2V-8.709l1.121-.362V-7h1.764v.957H27.569V-2.1a1.635,1.635,0,0,0,.239,1,.955.955,0,0,0,.793.3,1.179,1.179,0,0,0,.731-.232ZM39.648-7l-2.1,7H36.388L34.945-5.011a3.265,3.265,0,0,1-.109-.649h-.027a3.066,3.066,0,0,1-.144.636L33.1,0H31.979L29.859-7h1.176l1.449,5.264a3.171,3.171,0,0,1,.1.629h.055a2.942,2.942,0,0,1,.123-.643L34.371-7H35.4l1.449,5.277a3.767,3.767,0,0,1,.1.629H37a2.909,2.909,0,0,1,.116-.629L38.541-7ZM43.873.164A3.247,3.247,0,0,1,41.4-.817a3.634,3.634,0,0,1-.926-2.6,3.785,3.785,0,0,1,.964-2.755,3.465,3.465,0,0,1,2.6-.991,3.14,3.14,0,0,1,2.444.964,3.822,3.822,0,0,1,.878,2.673,3.761,3.761,0,0,1-.947,2.683A3.317,3.317,0,0,1,43.873.164Zm.082-6.385a2.132,2.132,0,0,0-1.709.735,3.018,3.018,0,0,0-.629,2.027A2.854,2.854,0,0,0,42.253-1.5a2.161,2.161,0,0,0,1.7.718,2.049,2.049,0,0,0,1.671-.7,3.055,3.055,0,0,0,.584-2,3.108,3.108,0,0,0-.584-2.023A2.04,2.04,0,0,0,43.955-6.221Z" transform="translate(209 107)" fill="#5b5b5b"/>
    <path id="Path_10410" data-name="Path 10410" d="M7.082-8.764H4.252V0H3.1V-8.764H.28V-9.8h6.8ZM11.908,0H10.787V-1.094H10.76A2.347,2.347,0,0,1,8.606.164,2.3,2.3,0,0,1,6.969-.39a1.918,1.918,0,0,1-.591-1.47q0-1.962,2.311-2.283l2.1-.294q0-1.784-1.442-1.784a3.446,3.446,0,0,0-2.283.861V-6.508A4.338,4.338,0,0,1,9.44-7.164q2.468,0,2.468,2.611ZM10.787-3.541,9.1-3.309a2.741,2.741,0,0,0-1.176.386,1.114,1.114,0,0,0-.4.981,1.068,1.068,0,0,0,.366.837,1.413,1.413,0,0,0,.974.325,1.8,1.8,0,0,0,1.377-.584,2.088,2.088,0,0,0,.543-1.48Zm4.382,2.529h-.027V0H14.021V-10.363h1.121V-5.77h.027a2.651,2.651,0,0,1,2.42-1.395,2.566,2.566,0,0,1,2.109.94,3.881,3.881,0,0,1,.762,2.519,4.339,4.339,0,0,1-.854,2.813A2.845,2.845,0,0,1,17.268.164,2.3,2.3,0,0,1,15.169-1.012Zm-.027-2.823v.978a2.081,2.081,0,0,0,.564,1.473,1.873,1.873,0,0,0,1.432.6,1.876,1.876,0,0,0,1.6-.779,3.575,3.575,0,0,0,.578-2.167,2.822,2.822,0,0,0-.54-1.832,1.787,1.787,0,0,0-1.463-.663,1.986,1.986,0,0,0-1.572.68A2.5,2.5,0,0,0,15.142-3.835ZM29.333-.068A2.161,2.161,0,0,1,28.287.15Q26.448.15,26.448-1.9V-6.043h-1.2V-7h1.2V-8.709l1.121-.362V-7h1.764v.957H27.569V-2.1a1.635,1.635,0,0,0,.239,1,.955.955,0,0,0,.793.3,1.179,1.179,0,0,0,.731-.232ZM36.641,0H35.52V-4.033q0-2.188-1.627-2.187a1.774,1.774,0,0,0-1.381.632,2.356,2.356,0,0,0-.561,1.624V0H30.83V-10.363h1.121v4.525h.027a2.546,2.546,0,0,1,2.3-1.326q2.365,0,2.365,2.851ZM42.4-5.865a1.371,1.371,0,0,0-.848-.226,1.431,1.431,0,0,0-1.2.677,3.129,3.129,0,0,0-.482,1.846V0H38.753V-7h1.121v1.442H39.9a2.444,2.444,0,0,1,.731-1.152,1.668,1.668,0,0,1,1.1-.414,1.83,1.83,0,0,1,.67.1ZM49.246-3.22H44.3a2.618,2.618,0,0,0,.629,1.8,2.168,2.168,0,0,0,1.654.636,3.439,3.439,0,0,0,2.174-.779V-.506a4.063,4.063,0,0,1-2.44.67A2.959,2.959,0,0,1,43.989-.79a3.9,3.9,0,0,1-.848-2.683,3.828,3.828,0,0,1,.926-2.663,2.97,2.97,0,0,1,2.3-1.029,2.632,2.632,0,0,1,2.126.889,3.705,3.705,0,0,1,.752,2.468ZM48.1-4.17a2.281,2.281,0,0,0-.468-1.511,1.6,1.6,0,0,0-1.282-.54A1.811,1.811,0,0,0,45-5.653a2.575,2.575,0,0,0-.684,1.483Zm8.47.95H51.625a2.618,2.618,0,0,0,.629,1.8,2.168,2.168,0,0,0,1.654.636,3.439,3.439,0,0,0,2.174-.779V-.506a4.063,4.063,0,0,1-2.44.67A2.959,2.959,0,0,1,51.311-.79a3.9,3.9,0,0,1-.848-2.683,3.828,3.828,0,0,1,.926-2.663,2.97,2.97,0,0,1,2.3-1.029,2.632,2.632,0,0,1,2.126.889,3.705,3.705,0,0,1,.752,2.468Zm-1.148-.95a2.281,2.281,0,0,0-.468-1.511,1.6,1.6,0,0,0-1.282-.54,1.811,1.811,0,0,0-1.347.567,2.575,2.575,0,0,0-.684,1.483Z" transform="translate(307 107)" fill="#5b5b5b"/>
    <path id="Path_10407" data-name="Path 10407" d="M0,0H102V4H0Z" transform="translate(80 127)" fill="#2777d3"/>
    <path id="Path_10411" data-name="Path 10411" d="M11.494,21.414a8.49,8.49,0,0,1-3.936.82,6.435,6.435,0,0,1-4.883-1.924A7.01,7.01,0,0,1,.84,15.262a7.352,7.352,0,0,1,2.065-5.43,7.066,7.066,0,0,1,5.22-2.07,8.554,8.554,0,0,1,3.369.576v2.3A6.012,6.012,0,0,0,8.369,9.8a4.9,4.9,0,0,0-3.687,1.455,5.345,5.345,0,0,0-1.411,3.887A5.1,5.1,0,0,0,4.59,18.831,4.588,4.588,0,0,0,8.057,20.2a6.207,6.207,0,0,0,3.438-.937ZM21.572,22h-2.2V20.438h-.039a3.308,3.308,0,0,1-3.037,1.8,3.2,3.2,0,0,1-2.31-.8,2.8,2.8,0,0,1-.835-2.119q0-2.832,3.262-3.3l2.969-.42q0-2.139-2.031-2.139a4.825,4.825,0,0,0-3.223,1.23V12.7a7.028,7.028,0,0,1,3.652-.937q3.789,0,3.789,3.73Zm-2.187-4.912-2.1.293a3.328,3.328,0,0,0-1.47.474,1.384,1.384,0,0,0-.493,1.216,1.331,1.331,0,0,0,.454,1.04,1.758,1.758,0,0,0,1.216.405,2.243,2.243,0,0,0,1.714-.728,2.58,2.58,0,0,0,.679-1.831Zm10.752-2.93a1.878,1.878,0,0,0-1.182-.322,2.023,2.023,0,0,0-1.68.908,4.061,4.061,0,0,0-.674,2.471V22H24.336V12H26.6v2.061h.039a3.484,3.484,0,0,1,1.021-1.646,2.3,2.3,0,0,1,1.538-.591,1.909,1.909,0,0,1,.938.186ZM40.654,22H38.389V20.3H38.35a3.91,3.91,0,0,1-6.323.591,5.574,5.574,0,0,1-1.108-3.657,6.073,6.073,0,0,1,1.226-3.975,4.011,4.011,0,0,1,3.267-1.494,3.128,3.128,0,0,1,2.939,1.621h.039V7.2h2.266Zm-2.236-4.57V16.121a2.55,2.55,0,0,0-.693-1.807,2.313,2.313,0,0,0-1.768-.742,2.38,2.38,0,0,0-2,.947,4.221,4.221,0,0,0-.728,2.627,3.782,3.782,0,0,0,.7,2.407,2.271,2.271,0,0,0,1.88.884,2.351,2.351,0,0,0,1.885-.854A3.219,3.219,0,0,0,38.418,17.43ZM58,22H55.732V16.531q0-2.969-1.982-2.969a2.073,2.073,0,0,0-1.68.859,3.421,3.421,0,0,0-.684,2.2V22H49.111V7.2h2.275V13.66h.039a3.578,3.578,0,0,1,3.242-1.895q3.33,0,3.33,4.072Zm11.221-4.385H62.4a2.881,2.881,0,0,0,.854,2.139,3.179,3.179,0,0,0,2.241.752,4.942,4.942,0,0,0,2.939-.957v1.826a6.716,6.716,0,0,1-3.613.859,4.473,4.473,0,0,1-3.462-1.362,5.449,5.449,0,0,1-1.255-3.833,5.328,5.328,0,0,1,1.382-3.8,4.52,4.52,0,0,1,3.433-1.47A3.941,3.941,0,0,1,68.1,13.084a5.474,5.474,0,0,1,1.123,3.662Zm-2.187-1.6a2.919,2.919,0,0,0-.576-1.9,1.925,1.925,0,0,0-1.562-.679,2.2,2.2,0,0,0-1.655.713,3.257,3.257,0,0,0-.835,1.865ZM79.053,22h-2.2V20.438h-.039a3.308,3.308,0,0,1-3.037,1.8,3.2,3.2,0,0,1-2.31-.8,2.8,2.8,0,0,1-.835-2.119q0-2.832,3.262-3.3l2.969-.42q0-2.139-2.031-2.139a4.825,4.825,0,0,0-3.223,1.23V12.7a7.028,7.028,0,0,1,3.652-.937q3.789,0,3.789,3.73Zm-2.187-4.912-2.1.293a3.328,3.328,0,0,0-1.47.474A1.384,1.384,0,0,0,72.8,19.07a1.331,1.331,0,0,0,.454,1.04,1.758,1.758,0,0,0,1.216.405,2.243,2.243,0,0,0,1.714-.728,2.58,2.58,0,0,0,.679-1.831ZM90.908,22H88.643V20.3H88.6a3.91,3.91,0,0,1-6.323.591,5.574,5.574,0,0,1-1.108-3.657A6.073,6.073,0,0,1,82.4,13.26a4.011,4.011,0,0,1,3.267-1.494A3.128,3.128,0,0,1,88.6,13.387h.039V7.2h2.266Zm-2.236-4.57V16.121a2.55,2.55,0,0,0-.693-1.807,2.313,2.313,0,0,0-1.768-.742,2.38,2.38,0,0,0-2,.947,4.221,4.221,0,0,0-.728,2.627,3.782,3.782,0,0,0,.7,2.407,2.271,2.271,0,0,0,1.88.884,2.351,2.351,0,0,0,1.885-.854A3.219,3.219,0,0,0,88.672,17.43ZM96.143,22H93.867V7.2h2.275Zm4.092-12.1a1.362,1.362,0,0,1-.952-.361,1.189,1.189,0,0,1-.4-.918,1.219,1.219,0,0,1,.4-.928,1.342,1.342,0,0,1,.952-.371,1.384,1.384,0,0,1,.977.371,1.212,1.212,0,0,1,.4.928,1.2,1.2,0,0,1-.4.9A1.374,1.374,0,0,1,100.234,9.9ZM101.357,22H99.092V12h2.266Zm11.865,0h-2.266V16.365q0-2.8-1.982-2.8a2.164,2.164,0,0,0-1.709.776,2.88,2.88,0,0,0-.674,1.958V22h-2.275V12h2.275v1.66h.039a3.564,3.564,0,0,1,3.242-1.895,3.02,3.02,0,0,1,2.49,1.06,4.758,4.758,0,0,1,.859,3.062Zm11.23-4.385h-6.816a2.881,2.881,0,0,0,.854,2.139,3.179,3.179,0,0,0,2.241.752,4.942,4.942,0,0,0,2.939-.957v1.826a6.716,6.716,0,0,1-3.613.859,4.473,4.473,0,0,1-3.462-1.362,5.449,5.449,0,0,1-1.255-3.833,5.328,5.328,0,0,1,1.382-3.8,4.52,4.52,0,0,1,3.433-1.47,3.941,3.941,0,0,1,3.174,1.318,5.474,5.474,0,0,1,1.123,3.662Zm-2.187-1.6a2.919,2.919,0,0,0-.576-1.9,1.925,1.925,0,0,0-1.562-.679,2.2,2.2,0,0,0-1.655.713,3.257,3.257,0,0,0-.835,1.865Z" transform="translate(80 50)" fill="#31313a"/>
    <path id="Path_10412" data-name="Path 10412" d="M0,0V112" transform="translate(80.5 50.5)" fill="none" stroke="#c93d92" stroke-width="1" stroke-dasharray="2 2"/>
  </g>
</svg>
