<svg xmlns="http://www.w3.org/2000/svg" xmlns:xlink="http://www.w3.org/1999/xlink" width="900" height="458" viewBox="0 0 900 458">
  <defs>
    <filter id="Card" x="35.5" y="16.5" width="409" height="423" filterUnits="userSpaceOnUse">
      <feOffset dy="1" input="SourceAlpha"/>
      <feGaussianBlur stdDeviation="1.5" result="blur"/>
      <feFlood flood-opacity="0.161"/>
      <feComposite operator="in" in2="blur"/>
      <feComposite in="SourceGraphic"/>
    </filter>
    <clipPath id="clip-path">
      <rect width="36" height="36" fill="none"/>
    </clipPath>
    <filter id="Card-2" x="455.5" y="16.5" width="409" height="423" filterUnits="userSpaceOnUse">
      <feOffset dy="1" input="SourceAlpha"/>
      <feGaussianBlur stdDeviation="1.5" result="blur-2"/>
      <feFlood flood-opacity="0.161"/>
      <feComposite operator="in" in2="blur-2"/>
      <feComposite in="SourceGraphic"/>
    </filter>
    <filter id="Rectangle_4032" x="625" y="70" width="224" height="162" filterUnits="userSpaceOnUse">
      <feOffset dy="3" input="SourceAlpha"/>
      <feGaussianBlur stdDeviation="3" result="blur-3"/>
      <feFlood flood-opacity="0.161"/>
      <feComposite operator="in" in2="blur-3"/>
      <feComposite in="SourceGraphic"/>
    </filter>
    <clipPath id="clip-card--actions-header-icon">
      <rect width="900" height="458"/>
    </clipPath>
  </defs>
  <g id="card--actions-header-icon" clip-path="url(#clip-card--actions-header-icon)">
    <rect width="900" height="458" fill="#f4f4f6"/>
    <g id="Group_13364" data-name="Group 13364" transform="translate(-414 6)">
      <g transform="matrix(1, 0, 0, 1, 414, -6)" filter="url(#Card)">
        <rect id="Card-3" data-name="Card" width="400" height="414" rx="2" transform="translate(40 20)" fill="#fff"/>
      </g>
      <path id="Path_8863" data-name="Path 8863" d="M11.494-.586a8.49,8.49,0,0,1-3.936.82A6.435,6.435,0,0,1,2.676-1.689,7.01,7.01,0,0,1,.84-6.738a7.352,7.352,0,0,1,2.065-5.43,7.066,7.066,0,0,1,5.22-2.07,8.554,8.554,0,0,1,3.369.576v2.3a6.012,6.012,0,0,0-3.125-.84,4.9,4.9,0,0,0-3.687,1.455A5.345,5.345,0,0,0,3.271-6.855,5.1,5.1,0,0,0,4.59-3.169,4.588,4.588,0,0,0,8.057-1.8a6.207,6.207,0,0,0,3.438-.937ZM21.572,0h-2.2V-1.562h-.039A3.308,3.308,0,0,1,16.3.234a3.2,3.2,0,0,1-2.31-.8,2.8,2.8,0,0,1-.835-2.119q0-2.832,3.262-3.3l2.969-.42q0-2.139-2.031-2.139a4.825,4.825,0,0,0-3.223,1.23V-9.3a7.028,7.028,0,0,1,3.652-.937q3.789,0,3.789,3.73ZM19.385-4.912l-2.1.293a3.328,3.328,0,0,0-1.47.474,1.384,1.384,0,0,0-.493,1.216,1.331,1.331,0,0,0,.454,1.04,1.758,1.758,0,0,0,1.216.405,2.243,2.243,0,0,0,1.714-.728,2.58,2.58,0,0,0,.679-1.831Zm10.752-2.93a1.878,1.878,0,0,0-1.182-.322,2.023,2.023,0,0,0-1.68.908A4.061,4.061,0,0,0,26.6-4.785V0H24.336V-10H26.6v2.061h.039a3.484,3.484,0,0,1,1.021-1.646,2.3,2.3,0,0,1,1.538-.591,1.909,1.909,0,0,1,.938.186ZM40.654,0H38.389V-1.7H38.35A3.614,3.614,0,0,1,34.98.234a3.637,3.637,0,0,1-2.954-1.343,5.574,5.574,0,0,1-1.108-3.657A6.073,6.073,0,0,1,32.144-8.74a4.011,4.011,0,0,1,3.267-1.494A3.128,3.128,0,0,1,38.35-8.613h.039V-14.8h2.266ZM38.418-4.57V-5.879a2.55,2.55,0,0,0-.693-1.807,2.313,2.313,0,0,0-1.768-.742,2.38,2.38,0,0,0-2,.947,4.221,4.221,0,0,0-.728,2.627,3.782,3.782,0,0,0,.7,2.407,2.271,2.271,0,0,0,1.88.884A2.351,2.351,0,0,0,37.7-2.417,3.219,3.219,0,0,0,38.418-4.57ZM60.615,0H58.281V-6.074H51.689V0H49.365V-14h2.324v5.889h6.592V-14h2.334Zm11.67-4.385H65.469a2.881,2.881,0,0,0,.854,2.139,3.179,3.179,0,0,0,2.241.752A4.942,4.942,0,0,0,71.5-2.451V-.625a6.716,6.716,0,0,1-3.613.859,4.473,4.473,0,0,1-3.462-1.362,5.449,5.449,0,0,1-1.255-3.833,5.328,5.328,0,0,1,1.382-3.8,4.52,4.52,0,0,1,3.433-1.47,3.941,3.941,0,0,1,3.174,1.318,5.474,5.474,0,0,1,1.123,3.662ZM70.1-5.986a2.919,2.919,0,0,0-.576-1.9,1.925,1.925,0,0,0-1.562-.679,2.2,2.2,0,0,0-1.655.713,3.257,3.257,0,0,0-.835,1.865ZM82.119,0h-2.2V-1.562h-.039a3.308,3.308,0,0,1-3.037,1.8,3.2,3.2,0,0,1-2.31-.8A2.8,2.8,0,0,1,73.7-2.686q0-2.832,3.262-3.3l2.969-.42q0-2.139-2.031-2.139a4.825,4.825,0,0,0-3.223,1.23V-9.3a7.028,7.028,0,0,1,3.652-.937q3.789,0,3.789,3.73ZM79.932-4.912l-2.1.293a3.328,3.328,0,0,0-1.47.474,1.384,1.384,0,0,0-.493,1.216,1.331,1.331,0,0,0,.454,1.04,1.758,1.758,0,0,0,1.216.405,2.243,2.243,0,0,0,1.714-.728,2.58,2.58,0,0,0,.679-1.831ZM93.975,0H91.709V-1.7H91.67A3.614,3.614,0,0,1,88.3.234a3.637,3.637,0,0,1-2.954-1.343,5.574,5.574,0,0,1-1.108-3.657A6.073,6.073,0,0,1,85.464-8.74a4.011,4.011,0,0,1,3.267-1.494A3.128,3.128,0,0,1,91.67-8.613h.039V-14.8h2.266ZM91.738-4.57V-5.879a2.55,2.55,0,0,0-.693-1.807,2.313,2.313,0,0,0-1.768-.742,2.38,2.38,0,0,0-2,.947,4.221,4.221,0,0,0-.728,2.627,3.782,3.782,0,0,0,.7,2.407,2.271,2.271,0,0,0,1.88.884,2.351,2.351,0,0,0,1.885-.854A3.219,3.219,0,0,0,91.738-4.57ZM99.209,0H96.934V-14.8h2.275ZM103.3-12.1a1.362,1.362,0,0,1-.952-.361,1.189,1.189,0,0,1-.4-.918,1.219,1.219,0,0,1,.4-.928,1.342,1.342,0,0,1,.952-.371,1.384,1.384,0,0,1,.977.371,1.212,1.212,0,0,1,.4.928,1.2,1.2,0,0,1-.4.9A1.374,1.374,0,0,1,103.3-12.1ZM104.424,0h-2.266V-10h2.266Zm11.865,0h-2.266V-5.635q0-2.8-1.982-2.8a2.164,2.164,0,0,0-1.709.776,2.88,2.88,0,0,0-.674,1.958V0h-2.275V-10h2.275v1.66h.039a3.564,3.564,0,0,1,3.242-1.895,3.02,3.02,0,0,1,2.49,1.06,4.758,4.758,0,0,1,.859,3.062Zm11.23-4.385H120.7a2.881,2.881,0,0,0,.854,2.139,3.179,3.179,0,0,0,2.241.752,4.942,4.942,0,0,0,2.939-.957V-.625a6.716,6.716,0,0,1-3.613.859,4.473,4.473,0,0,1-3.462-1.362,5.449,5.449,0,0,1-1.255-3.833,5.328,5.328,0,0,1,1.382-3.8,4.52,4.52,0,0,1,3.433-1.47A3.941,3.941,0,0,1,126.4-8.916a5.474,5.474,0,0,1,1.123,3.662Zm-2.187-1.6a2.919,2.919,0,0,0-.576-1.9,1.925,1.925,0,0,0-1.562-.679,2.2,2.2,0,0,0-1.655.713,3.257,3.257,0,0,0-.835,1.865Z" transform="translate(473 56.805)" fill="#31313a"/>
      <g id="Icon_Secondary_-_Normal" data-name="Icon Secondary - Normal" transform="translate(798 34)" clip-path="url(#clip-path)">
        <path id="Path_6627" data-name="Path 6627" d="M18.142,3.975a3.131,3.131,0,0,0-4.429,0L4.2,13.486a1.342,1.342,0,0,0-.373.716l-.764,4.331a.447.447,0,0,0,.518.518l4.331-.764a1.342,1.342,0,0,0,.716-.373L18.141,8.4a3.131,3.131,0,0,0,0-4.428ZM5.527,14.846a.224.224,0,0,0,0,.317l2.068,2.069a.224.224,0,0,1-.115.377l-2.159.381a.895.895,0,0,1-1.037-1.037l.431-2.443a.447.447,0,0,1,.124-.239L14.346,4.76a2.227,2.227,0,0,1,1.89-.626Z" transform="translate(6.941 6.942)" fill="#2777d3"/>
        <g id="Rectangle_5239" data-name="Rectangle 5239" fill="none" stroke="#e6e6ea" stroke-width="1">
          <rect width="36" height="36" rx="18" stroke="none"/>
          <rect x="0.5" y="0.5" width="35" height="35" rx="17.5" fill="none"/>
        </g>
      </g>
    </g>
    <g transform="matrix(1, 0, 0, 1, 0, 0)" filter="url(#Card-2)">
      <rect id="Card-4" data-name="Card" width="400" height="414" rx="2" transform="translate(460 20)" fill="#fff"/>
    </g>
    <path id="Path_8849" data-name="Path 8849" d="M11.494-.586a8.49,8.49,0,0,1-3.936.82A6.435,6.435,0,0,1,2.676-1.689,7.01,7.01,0,0,1,.84-6.738a7.352,7.352,0,0,1,2.065-5.43,7.066,7.066,0,0,1,5.22-2.07,8.554,8.554,0,0,1,3.369.576v2.3a6.012,6.012,0,0,0-3.125-.84,4.9,4.9,0,0,0-3.687,1.455A5.345,5.345,0,0,0,3.271-6.855,5.1,5.1,0,0,0,4.59-3.169,4.588,4.588,0,0,0,8.057-1.8a6.207,6.207,0,0,0,3.438-.937ZM21.572,0h-2.2V-1.562h-.039A3.308,3.308,0,0,1,16.3.234a3.2,3.2,0,0,1-2.31-.8,2.8,2.8,0,0,1-.835-2.119q0-2.832,3.262-3.3l2.969-.42q0-2.139-2.031-2.139a4.825,4.825,0,0,0-3.223,1.23V-9.3a7.028,7.028,0,0,1,3.652-.937q3.789,0,3.789,3.73ZM19.385-4.912l-2.1.293a3.328,3.328,0,0,0-1.47.474,1.384,1.384,0,0,0-.493,1.216,1.331,1.331,0,0,0,.454,1.04,1.758,1.758,0,0,0,1.216.405,2.243,2.243,0,0,0,1.714-.728,2.58,2.58,0,0,0,.679-1.831Zm10.752-2.93a1.878,1.878,0,0,0-1.182-.322,2.023,2.023,0,0,0-1.68.908A4.061,4.061,0,0,0,26.6-4.785V0H24.336V-10H26.6v2.061h.039a3.484,3.484,0,0,1,1.021-1.646,2.3,2.3,0,0,1,1.538-.591,1.909,1.909,0,0,1,.938.186ZM40.654,0H38.389V-1.7H38.35A3.614,3.614,0,0,1,34.98.234a3.637,3.637,0,0,1-2.954-1.343,5.574,5.574,0,0,1-1.108-3.657A6.073,6.073,0,0,1,32.144-8.74a4.011,4.011,0,0,1,3.267-1.494A3.128,3.128,0,0,1,38.35-8.613h.039V-14.8h2.266ZM38.418-4.57V-5.879a2.55,2.55,0,0,0-.693-1.807,2.313,2.313,0,0,0-1.768-.742,2.38,2.38,0,0,0-2,.947,4.221,4.221,0,0,0-.728,2.627,3.782,3.782,0,0,0,.7,2.407,2.271,2.271,0,0,0,1.88.884A2.351,2.351,0,0,0,37.7-2.417,3.219,3.219,0,0,0,38.418-4.57ZM60.615,0H58.281V-6.074H51.689V0H49.365V-14h2.324v5.889h6.592V-14h2.334Zm11.67-4.385H65.469a2.881,2.881,0,0,0,.854,2.139,3.179,3.179,0,0,0,2.241.752A4.942,4.942,0,0,0,71.5-2.451V-.625a6.716,6.716,0,0,1-3.613.859,4.473,4.473,0,0,1-3.462-1.362,5.449,5.449,0,0,1-1.255-3.833,5.328,5.328,0,0,1,1.382-3.8,4.52,4.52,0,0,1,3.433-1.47,3.941,3.941,0,0,1,3.174,1.318,5.474,5.474,0,0,1,1.123,3.662ZM70.1-5.986a2.919,2.919,0,0,0-.576-1.9,1.925,1.925,0,0,0-1.562-.679,2.2,2.2,0,0,0-1.655.713,3.257,3.257,0,0,0-.835,1.865ZM82.119,0h-2.2V-1.562h-.039a3.308,3.308,0,0,1-3.037,1.8,3.2,3.2,0,0,1-2.31-.8A2.8,2.8,0,0,1,73.7-2.686q0-2.832,3.262-3.3l2.969-.42q0-2.139-2.031-2.139a4.825,4.825,0,0,0-3.223,1.23V-9.3a7.028,7.028,0,0,1,3.652-.937q3.789,0,3.789,3.73ZM79.932-4.912l-2.1.293a3.328,3.328,0,0,0-1.47.474,1.384,1.384,0,0,0-.493,1.216,1.331,1.331,0,0,0,.454,1.04,1.758,1.758,0,0,0,1.216.405,2.243,2.243,0,0,0,1.714-.728,2.58,2.58,0,0,0,.679-1.831ZM93.975,0H91.709V-1.7H91.67A3.614,3.614,0,0,1,88.3.234a3.637,3.637,0,0,1-2.954-1.343,5.574,5.574,0,0,1-1.108-3.657A6.073,6.073,0,0,1,85.464-8.74a4.011,4.011,0,0,1,3.267-1.494A3.128,3.128,0,0,1,91.67-8.613h.039V-14.8h2.266ZM91.738-4.57V-5.879a2.55,2.55,0,0,0-.693-1.807,2.313,2.313,0,0,0-1.768-.742,2.38,2.38,0,0,0-2,.947,4.221,4.221,0,0,0-.728,2.627,3.782,3.782,0,0,0,.7,2.407,2.271,2.271,0,0,0,1.88.884,2.351,2.351,0,0,0,1.885-.854A3.219,3.219,0,0,0,91.738-4.57ZM99.209,0H96.934V-14.8h2.275ZM103.3-12.1a1.362,1.362,0,0,1-.952-.361,1.189,1.189,0,0,1-.4-.918,1.219,1.219,0,0,1,.4-.928,1.342,1.342,0,0,1,.952-.371,1.384,1.384,0,0,1,.977.371,1.212,1.212,0,0,1,.4.928,1.2,1.2,0,0,1-.4.9A1.374,1.374,0,0,1,103.3-12.1ZM104.424,0h-2.266V-10h2.266Zm11.865,0h-2.266V-5.635q0-2.8-1.982-2.8a2.164,2.164,0,0,0-1.709.776,2.88,2.88,0,0,0-.674,1.958V0h-2.275V-10h2.275v1.66h.039a3.564,3.564,0,0,1,3.242-1.895,3.02,3.02,0,0,1,2.49,1.06,4.758,4.758,0,0,1,.859,3.062Zm11.23-4.385H120.7a2.881,2.881,0,0,0,.854,2.139,3.179,3.179,0,0,0,2.241.752,4.942,4.942,0,0,0,2.939-.957V-.625a6.716,6.716,0,0,1-3.613.859,4.473,4.473,0,0,1-3.462-1.362,5.449,5.449,0,0,1-1.255-3.833,5.328,5.328,0,0,1,1.382-3.8,4.52,4.52,0,0,1,3.433-1.47A3.941,3.941,0,0,1,126.4-8.916a5.474,5.474,0,0,1,1.123,3.662Zm-2.187-1.6a2.919,2.919,0,0,0-.576-1.9,1.925,1.925,0,0,0-1.562-.679,2.2,2.2,0,0,0-1.655.713,3.257,3.257,0,0,0-.835,1.865Z" transform="translate(479 62.805)" fill="#31313a"/>
    <g id="Icon_Primary_-_Selected" data-name="Icon Primary - Selected" transform="translate(804 40)">
      <g id="Rectangle_5758" data-name="Rectangle 5758" fill="none" stroke="#2777d3" stroke-width="1">
        <rect width="36" height="36" rx="18" stroke="none"/>
        <rect x="0.5" y="0.5" width="35" height="35" rx="17.5" fill="none"/>
      </g>
    </g>
    <g id="Group_13275" data-name="Group 13275" transform="translate(812.591 56)">
      <circle id="Ellipse_2018" data-name="Ellipse 2018" cx="2" cy="2" r="2" transform="translate(18.409) rotate(90)" fill="#2777d3"/>
      <circle id="Ellipse_2017" data-name="Ellipse 2017" cx="2" cy="2" r="2" transform="translate(11.409) rotate(90)" fill="#2777d3"/>
      <circle id="Ellipse_2016" data-name="Ellipse 2016" cx="2" cy="2" r="2" transform="translate(4.409) rotate(90)" fill="#2777d3"/>
    </g>
    <g id="Group_13295" data-name="Group 13295" transform="translate(20 -50)">
      <g transform="matrix(1, 0, 0, 1, -20, 50)" filter="url(#Rectangle_4032)">
        <rect id="Rectangle_4032-2" data-name="Rectangle 4032" width="206" height="144" rx="4" transform="translate(634 76)" fill="#fff"/>
      </g>
      <rect id="Rectangle_4665" data-name="Rectangle 4665" width="206" height="36" transform="translate(614 198)" fill="#f4f4f6"/>
      <path id="Path_10364" data-name="Path 10364" d="M5.236.164A4.3,4.3,0,0,1,1.9-1.21,5.1,5.1,0,0,1,.643-4.785,5.4,5.4,0,0,1,1.921-8.559,4.465,4.465,0,0,1,5.4-9.967,4.206,4.206,0,0,1,8.671-8.6,5.115,5.115,0,0,1,9.912-5.024,5.417,5.417,0,0,1,8.641-1.23,4.382,4.382,0,0,1,5.236.164Zm.082-9.092A3.16,3.16,0,0,0,2.81-7.813a4.314,4.314,0,0,0-.964,2.926,4.344,4.344,0,0,0,.94,2.916,3.065,3.065,0,0,0,2.451,1.1A3.218,3.218,0,0,0,7.779-1.921a4.3,4.3,0,0,0,.93-2.946,4.5,4.5,0,0,0-.9-3A3.094,3.094,0,0,0,5.318-8.928Zm7.52,7.916h-.027V3.22H11.689V-7h1.121v1.23h.027a2.651,2.651,0,0,1,2.42-1.395,2.563,2.563,0,0,1,2.112.94,3.893,3.893,0,0,1,.759,2.519,4.339,4.339,0,0,1-.854,2.813A2.845,2.845,0,0,1,14.937.164,2.342,2.342,0,0,1,12.838-1.012Zm-.027-2.823v.978a2.081,2.081,0,0,0,.564,1.473,1.873,1.873,0,0,0,1.432.6,1.876,1.876,0,0,0,1.6-.779,3.575,3.575,0,0,0,.578-2.167,2.822,2.822,0,0,0-.54-1.832,1.787,1.787,0,0,0-1.463-.663,1.986,1.986,0,0,0-1.572.68A2.5,2.5,0,0,0,12.811-3.835ZM23.167-.068A2.161,2.161,0,0,1,22.121.15Q20.282.15,20.282-1.9V-6.043h-1.2V-7h1.2V-8.709L21.4-9.071V-7h1.764v.957H21.4V-2.1a1.635,1.635,0,0,0,.239,1,.955.955,0,0,0,.793.3,1.179,1.179,0,0,0,.731-.232Zm2.071-8.709a.71.71,0,0,1-.513-.205.692.692,0,0,1-.212-.52.7.7,0,0,1,.212-.523.7.7,0,0,1,.513-.208.724.724,0,0,1,.523.208.7.7,0,0,1,.215.523.693.693,0,0,1-.215.513A.718.718,0,0,1,25.238-8.777ZM25.785,0H24.664V-7h1.121Zm5.2.164A3.247,3.247,0,0,1,28.5-.817a3.633,3.633,0,0,1-.926-2.6,3.785,3.785,0,0,1,.964-2.755,3.465,3.465,0,0,1,2.6-.991,3.14,3.14,0,0,1,2.444.964,3.822,3.822,0,0,1,.878,2.673A3.761,3.761,0,0,1,33.52-.844,3.317,3.317,0,0,1,30.98.164Zm.082-6.385a2.132,2.132,0,0,0-1.709.735,3.018,3.018,0,0,0-.629,2.027A2.854,2.854,0,0,0,29.36-1.5a2.161,2.161,0,0,0,1.7.718,2.049,2.049,0,0,0,1.671-.7,3.055,3.055,0,0,0,.584-2,3.108,3.108,0,0,0-.584-2.023A2.04,2.04,0,0,0,31.063-6.221ZM42.068,0H40.947V-3.992q0-2.229-1.627-2.229a1.765,1.765,0,0,0-1.391.632,2.344,2.344,0,0,0-.55,1.6V0H36.258V-7h1.121v1.162h.027a2.526,2.526,0,0,1,2.3-1.326,2.142,2.142,0,0,1,1.757.742,3.3,3.3,0,0,1,.608,2.143ZM53.4-2.775a2.858,2.858,0,0,1-.25,1.207,2.664,2.664,0,0,1-.7.93,3.25,3.25,0,0,1-1.09.6,4.41,4.41,0,0,1-1.4.212,4.072,4.072,0,0,1-2.229-.533v-1.2a3.571,3.571,0,0,0,2.27.779,3.084,3.084,0,0,0,.926-.13,2.077,2.077,0,0,0,.711-.376,1.67,1.67,0,0,0,.458-.595,1.857,1.857,0,0,0,.161-.786q0-1.921-2.734-1.921H48.7v-.95h.772q2.42,0,2.42-1.8,0-1.668-1.846-1.668a3.143,3.143,0,0,0-1.948.7V-9.406a4.259,4.259,0,0,1,2.229-.561A3.424,3.424,0,0,1,51.44-9.8a2.553,2.553,0,0,1,.854.479,2.12,2.12,0,0,1,.55.738,2.279,2.279,0,0,1,.195.95,2.393,2.393,0,0,1-1.955,2.488v.027a3.093,3.093,0,0,1,.923.243,2.463,2.463,0,0,1,.731.489,2.179,2.179,0,0,1,.482.708A2.259,2.259,0,0,1,53.4-2.775Z" transform="translate(629 220)" fill="#494955"/>
      <rect id="Rectangle_4665-2" data-name="Rectangle 4665" width="206" height="36" transform="translate(614 126)" fill="#fff"/>
      <path id="Path_10362" data-name="Path 10362" d="M5.236.164A4.3,4.3,0,0,1,1.9-1.21,5.1,5.1,0,0,1,.643-4.785,5.4,5.4,0,0,1,1.921-8.559,4.465,4.465,0,0,1,5.4-9.967,4.206,4.206,0,0,1,8.671-8.6,5.115,5.115,0,0,1,9.912-5.024,5.417,5.417,0,0,1,8.641-1.23,4.382,4.382,0,0,1,5.236.164Zm.082-9.092A3.16,3.16,0,0,0,2.81-7.813a4.314,4.314,0,0,0-.964,2.926,4.344,4.344,0,0,0,.94,2.916,3.065,3.065,0,0,0,2.451,1.1A3.218,3.218,0,0,0,7.779-1.921a4.3,4.3,0,0,0,.93-2.946,4.5,4.5,0,0,0-.9-3A3.094,3.094,0,0,0,5.318-8.928Zm7.52,7.916h-.027V3.22H11.689V-7h1.121v1.23h.027a2.651,2.651,0,0,1,2.42-1.395,2.563,2.563,0,0,1,2.112.94,3.893,3.893,0,0,1,.759,2.519,4.339,4.339,0,0,1-.854,2.813A2.845,2.845,0,0,1,14.937.164,2.342,2.342,0,0,1,12.838-1.012Zm-.027-2.823v.978a2.081,2.081,0,0,0,.564,1.473,1.873,1.873,0,0,0,1.432.6,1.876,1.876,0,0,0,1.6-.779,3.575,3.575,0,0,0,.578-2.167,2.822,2.822,0,0,0-.54-1.832,1.787,1.787,0,0,0-1.463-.663,1.986,1.986,0,0,0-1.572.68A2.5,2.5,0,0,0,12.811-3.835ZM23.167-.068A2.161,2.161,0,0,1,22.121.15Q20.282.15,20.282-1.9V-6.043h-1.2V-7h1.2V-8.709L21.4-9.071V-7h1.764v.957H21.4V-2.1a1.635,1.635,0,0,0,.239,1,.955.955,0,0,0,.793.3,1.179,1.179,0,0,0,.731-.232Zm2.071-8.709a.71.71,0,0,1-.513-.205.692.692,0,0,1-.212-.52.7.7,0,0,1,.212-.523.7.7,0,0,1,.513-.208.724.724,0,0,1,.523.208.7.7,0,0,1,.215.523.693.693,0,0,1-.215.513A.718.718,0,0,1,25.238-8.777ZM25.785,0H24.664V-7h1.121Zm5.2.164A3.247,3.247,0,0,1,28.5-.817a3.633,3.633,0,0,1-.926-2.6,3.785,3.785,0,0,1,.964-2.755,3.465,3.465,0,0,1,2.6-.991,3.14,3.14,0,0,1,2.444.964,3.822,3.822,0,0,1,.878,2.673A3.761,3.761,0,0,1,33.52-.844,3.317,3.317,0,0,1,30.98.164Zm.082-6.385a2.132,2.132,0,0,0-1.709.735,3.018,3.018,0,0,0-.629,2.027A2.854,2.854,0,0,0,29.36-1.5a2.161,2.161,0,0,0,1.7.718,2.049,2.049,0,0,0,1.671-.7,3.055,3.055,0,0,0,.584-2,3.108,3.108,0,0,0-.584-2.023A2.04,2.04,0,0,0,31.063-6.221ZM42.068,0H40.947V-3.992q0-2.229-1.627-2.229a1.765,1.765,0,0,0-1.391.632,2.344,2.344,0,0,0-.55,1.6V0H36.258V-7h1.121v1.162h.027a2.526,2.526,0,0,1,2.3-1.326,2.142,2.142,0,0,1,1.757.742,3.3,3.3,0,0,1,.608,2.143ZM51.83,0H50.709V-8.47a2.6,2.6,0,0,1-.379.3,6.184,6.184,0,0,1-.561.332q-.311.164-.656.308a4.769,4.769,0,0,1-.673.226V-8.442a6.517,6.517,0,0,0,.783-.277q.414-.174.813-.39t.755-.451a6,6,0,0,0,.615-.461h.424Z" transform="translate(629 148)" fill="#494955"/>
      <rect id="Rectangle_4665-3" data-name="Rectangle 4665" width="206" height="36" transform="translate(614 162)" fill="#fff"/>
      <path id="Path_10363" data-name="Path 10363" d="M5.236.164A4.3,4.3,0,0,1,1.9-1.21,5.1,5.1,0,0,1,.643-4.785,5.4,5.4,0,0,1,1.921-8.559,4.465,4.465,0,0,1,5.4-9.967,4.206,4.206,0,0,1,8.671-8.6,5.115,5.115,0,0,1,9.912-5.024,5.417,5.417,0,0,1,8.641-1.23,4.382,4.382,0,0,1,5.236.164Zm.082-9.092A3.16,3.16,0,0,0,2.81-7.813a4.314,4.314,0,0,0-.964,2.926,4.344,4.344,0,0,0,.94,2.916,3.065,3.065,0,0,0,2.451,1.1A3.218,3.218,0,0,0,7.779-1.921a4.3,4.3,0,0,0,.93-2.946,4.5,4.5,0,0,0-.9-3A3.094,3.094,0,0,0,5.318-8.928Zm7.52,7.916h-.027V3.22H11.689V-7h1.121v1.23h.027a2.651,2.651,0,0,1,2.42-1.395,2.563,2.563,0,0,1,2.112.94,3.893,3.893,0,0,1,.759,2.519,4.339,4.339,0,0,1-.854,2.813A2.845,2.845,0,0,1,14.937.164,2.342,2.342,0,0,1,12.838-1.012Zm-.027-2.823v.978a2.081,2.081,0,0,0,.564,1.473,1.873,1.873,0,0,0,1.432.6,1.876,1.876,0,0,0,1.6-.779,3.575,3.575,0,0,0,.578-2.167,2.822,2.822,0,0,0-.54-1.832,1.787,1.787,0,0,0-1.463-.663,1.986,1.986,0,0,0-1.572.68A2.5,2.5,0,0,0,12.811-3.835ZM23.167-.068A2.161,2.161,0,0,1,22.121.15Q20.282.15,20.282-1.9V-6.043h-1.2V-7h1.2V-8.709L21.4-9.071V-7h1.764v.957H21.4V-2.1a1.635,1.635,0,0,0,.239,1,.955.955,0,0,0,.793.3,1.179,1.179,0,0,0,.731-.232Zm2.071-8.709a.71.71,0,0,1-.513-.205.692.692,0,0,1-.212-.52.7.7,0,0,1,.212-.523.7.7,0,0,1,.513-.208.724.724,0,0,1,.523.208.7.7,0,0,1,.215.523.693.693,0,0,1-.215.513A.718.718,0,0,1,25.238-8.777ZM25.785,0H24.664V-7h1.121Zm5.2.164A3.247,3.247,0,0,1,28.5-.817a3.633,3.633,0,0,1-.926-2.6,3.785,3.785,0,0,1,.964-2.755,3.465,3.465,0,0,1,2.6-.991,3.14,3.14,0,0,1,2.444.964,3.822,3.822,0,0,1,.878,2.673A3.761,3.761,0,0,1,33.52-.844,3.317,3.317,0,0,1,30.98.164Zm.082-6.385a2.132,2.132,0,0,0-1.709.735,3.018,3.018,0,0,0-.629,2.027A2.854,2.854,0,0,0,29.36-1.5a2.161,2.161,0,0,0,1.7.718,2.049,2.049,0,0,0,1.671-.7,3.055,3.055,0,0,0,.584-2,3.108,3.108,0,0,0-.584-2.023A2.04,2.04,0,0,0,31.063-6.221ZM42.068,0H40.947V-3.992q0-2.229-1.627-2.229a1.765,1.765,0,0,0-1.391.632,2.344,2.344,0,0,0-.55,1.6V0H36.258V-7h1.121v1.162h.027a2.526,2.526,0,0,1,2.3-1.326,2.142,2.142,0,0,1,1.757.742,3.3,3.3,0,0,1,.608,2.143Zm10.09-7.232a2.027,2.027,0,0,0-.14-.786,1.557,1.557,0,0,0-.383-.557,1.568,1.568,0,0,0-.571-.332,2.235,2.235,0,0,0-.711-.109,2.352,2.352,0,0,0-.643.089,3.124,3.124,0,0,0-.612.246,3.764,3.764,0,0,0-.574.376,4.148,4.148,0,0,0-.516.485v-1.2a3.352,3.352,0,0,1,1.056-.7,3.719,3.719,0,0,1,1.425-.243,3.441,3.441,0,0,1,1.114.174,2.555,2.555,0,0,1,.889.509,2.354,2.354,0,0,1,.591.827A2.79,2.79,0,0,1,53.3-7.328a3.868,3.868,0,0,1-.133,1.053,3.256,3.256,0,0,1-.4.889,4.288,4.288,0,0,1-.68.8,9.635,9.635,0,0,1-.964.779q-.69.492-1.138.841a5.031,5.031,0,0,0-.711.653,1.894,1.894,0,0,0-.369.608,2.127,2.127,0,0,0-.106.7h4.881V0h-6.05V-.485a4.045,4.045,0,0,1,.137-1.107,2.876,2.876,0,0,1,.451-.909,5.046,5.046,0,0,1,.824-.861q.509-.431,1.248-.971a7.887,7.887,0,0,0,.892-.731,3.8,3.8,0,0,0,.578-.7,2.5,2.5,0,0,0,.311-.708A3.051,3.051,0,0,0,52.158-7.232Z" transform="translate(629 184)" fill="#494955"/>
      <rect id="Rectangle_4665-4" data-name="Rectangle 4665" width="206" height="36" transform="translate(614 234)" fill="#fff"/>
      <path id="Path_10365" data-name="Path 10365" d="M5.236.164A4.3,4.3,0,0,1,1.9-1.21,5.1,5.1,0,0,1,.643-4.785,5.4,5.4,0,0,1,1.921-8.559,4.465,4.465,0,0,1,5.4-9.967,4.206,4.206,0,0,1,8.671-8.6,5.115,5.115,0,0,1,9.912-5.024,5.417,5.417,0,0,1,8.641-1.23,4.382,4.382,0,0,1,5.236.164Zm.082-9.092A3.16,3.16,0,0,0,2.81-7.813a4.314,4.314,0,0,0-.964,2.926,4.344,4.344,0,0,0,.94,2.916,3.065,3.065,0,0,0,2.451,1.1A3.218,3.218,0,0,0,7.779-1.921a4.3,4.3,0,0,0,.93-2.946,4.5,4.5,0,0,0-.9-3A3.094,3.094,0,0,0,5.318-8.928Zm7.52,7.916h-.027V3.22H11.689V-7h1.121v1.23h.027a2.651,2.651,0,0,1,2.42-1.395,2.563,2.563,0,0,1,2.112.94,3.893,3.893,0,0,1,.759,2.519,4.339,4.339,0,0,1-.854,2.813A2.845,2.845,0,0,1,14.937.164,2.342,2.342,0,0,1,12.838-1.012Zm-.027-2.823v.978a2.081,2.081,0,0,0,.564,1.473,1.873,1.873,0,0,0,1.432.6,1.876,1.876,0,0,0,1.6-.779,3.575,3.575,0,0,0,.578-2.167,2.822,2.822,0,0,0-.54-1.832,1.787,1.787,0,0,0-1.463-.663,1.986,1.986,0,0,0-1.572.68A2.5,2.5,0,0,0,12.811-3.835ZM23.167-.068A2.161,2.161,0,0,1,22.121.15Q20.282.15,20.282-1.9V-6.043h-1.2V-7h1.2V-8.709L21.4-9.071V-7h1.764v.957H21.4V-2.1a1.635,1.635,0,0,0,.239,1,.955.955,0,0,0,.793.3,1.179,1.179,0,0,0,.731-.232Zm2.071-8.709a.71.71,0,0,1-.513-.205.692.692,0,0,1-.212-.52.7.7,0,0,1,.212-.523.7.7,0,0,1,.513-.208.724.724,0,0,1,.523.208.7.7,0,0,1,.215.523.693.693,0,0,1-.215.513A.718.718,0,0,1,25.238-8.777ZM25.785,0H24.664V-7h1.121Zm5.2.164A3.247,3.247,0,0,1,28.5-.817a3.633,3.633,0,0,1-.926-2.6,3.785,3.785,0,0,1,.964-2.755,3.465,3.465,0,0,1,2.6-.991,3.14,3.14,0,0,1,2.444.964,3.822,3.822,0,0,1,.878,2.673A3.761,3.761,0,0,1,33.52-.844,3.317,3.317,0,0,1,30.98.164Zm.082-6.385a2.132,2.132,0,0,0-1.709.735,3.018,3.018,0,0,0-.629,2.027A2.854,2.854,0,0,0,29.36-1.5a2.161,2.161,0,0,0,1.7.718,2.049,2.049,0,0,0,1.671-.7,3.055,3.055,0,0,0,.584-2,3.108,3.108,0,0,0-.584-2.023A2.04,2.04,0,0,0,31.063-6.221ZM42.068,0H40.947V-3.992q0-2.229-1.627-2.229a1.765,1.765,0,0,0-1.391.632,2.344,2.344,0,0,0-.55,1.6V0H36.258V-7h1.121v1.162h.027a2.526,2.526,0,0,1,2.3-1.326,2.142,2.142,0,0,1,1.757.742,3.3,3.3,0,0,1,.608,2.143ZM52.691-9.8v6.474h1.258V-2.3H52.691V0H51.584V-2.3H46.977v-.971q.643-.725,1.3-1.548T49.53-6.494q.6-.848,1.107-1.692A15.462,15.462,0,0,0,51.5-9.8Zm-4.45,6.474h3.343v-4.8q-.513.9-.971,1.6T49.742-5.25q-.414.574-.79,1.039T48.241-3.329Z" transform="translate(629 256)" fill="#494955"/>
    </g>
  </g>
</svg>
