<svg xmlns="http://www.w3.org/2000/svg" xmlns:xlink="http://www.w3.org/1999/xlink" width="900" height="604" viewBox="0 0 900 604">
  <defs>
    <filter id="Card" x="271.5" y="88.5" width="409" height="423" filterUnits="userSpaceOnUse">
      <feOffset dy="1" input="SourceAlpha"/>
      <feGaussianBlur stdDeviation="1.5" result="blur"/>
      <feFlood flood-opacity="0.161"/>
      <feComposite operator="in" in2="blur"/>
      <feComposite in="SourceGraphic"/>
    </filter>
    <clipPath id="clip-Card--Anatomy_1">
      <rect width="900" height="604"/>
    </clipPath>
  </defs>
  <g id="Card--Anatomy_1" data-name="Card--Anatomy – 1" clip-path="url(#clip-Card--Anatomy_1)">
    <rect width="900" height="604" fill="#f4f4f6"/>
    <g id="Group_13285" data-name="Group 13285" transform="translate(-616 49)">
      <g transform="matrix(1, 0, 0, 1, 616, -49)" filter="url(#Card)">
        <rect id="Card-2" data-name="Card" width="400" height="414" rx="2" transform="translate(276 92)" fill="#fff"/>
      </g>
    </g>
    <text id="Card_headline" data-name="Card headline" transform="translate(308 125)" fill="#31313a" font-size="20" font-family="SegoeUI-Semibold, Segoe UI" font-weight="600"><tspan x="0" y="22">Card headline</tspan></text>
    <g id="Group_14581" data-name="Group 14581" transform="translate(203.2 -592)">
      <g id="Group_11898" data-name="Group 11898" transform="translate(104.8 771)">
        <g id="Rectangle_3830" data-name="Rectangle 3830" transform="translate(0.2)" fill="#fff" stroke="#2777d3" stroke-width="1">
          <rect width="339.8" height="32" rx="4" stroke="none"/>
          <rect x="0.5" y="0.5" width="338.8" height="31" rx="3.5" fill="none"/>
        </g>
        <text id="Info_Well_example_in_a_card" data-name="Info Well example in a card" transform="translate(42.6 5)" fill="#31313a" font-size="14" font-family="OpenSans-Regular, Open Sans"><tspan x="0" y="15">Info Well example in a card</tspan></text>
        <path id="Rectangle_5239" data-name="Rectangle 5239" d="M4,0H32a0,0,0,0,1,0,0V32a0,0,0,0,1,0,0H4a4,4,0,0,1-4-4V4A4,4,0,0,1,4,0Z" transform="translate(0)" fill="#2777d3"/>
        <g id="Group_12973" data-name="Group 12973" transform="translate(8 8)">
          <g id="Group_11913" data-name="Group 11913">
            <circle id="Ellipse_6" data-name="Ellipse 6" cx="8.065" cy="8.065" r="8.065" fill="#fff"/>
          </g>
          <path id="Path_6649" data-name="Path 6649" d="M153,30.558v-7a.2.2,0,0,1,.2-.2h1.29a.2.2,0,0,1,.2.2v7a.2.2,0,0,1-.2.2H153.2A.2.2,0,0,1,153,30.558Zm.2-8.878h1.29a.2.2,0,0,0,.2-.2V20.2a.2.2,0,0,0-.2-.2H153.2a.2.2,0,0,0-.2.2v1.29A.2.2,0,0,0,153.2,21.68Z" transform="translate(-145.607 -17.312)" fill="#2777d3"/>
        </g>
      </g>
    </g>
  </g>
</svg>
