<svg xmlns="http://www.w3.org/2000/svg" xmlns:xlink="http://www.w3.org/1999/xlink" width="900" height="303" viewBox="0 0 900 303">
  <defs>
    <filter id="Card" x="203.5" y="16.5" width="494" height="247" filterUnits="userSpaceOnUse">
      <feOffset dy="1" input="SourceAlpha"/>
      <feGaussianBlur stdDeviation="1.5" result="blur"/>
      <feFlood flood-opacity="0.161"/>
      <feComposite operator="in" in2="blur"/>
      <feComposite in="SourceGraphic"/>
    </filter>
    <clipPath id="clip-mediacard--lineup">
      <rect width="900" height="303"/>
    </clipPath>
  </defs>
  <g id="mediacard--lineup" clip-path="url(#clip-mediacard--lineup)">
    <rect width="900" height="303" fill="#f4f4f6"/>
    <g transform="matrix(1, 0, 0, 1, 0, 0)" filter="url(#Card)">
      <path id="Card-2" data-name="Card" d="M2,0H483a2,2,0,0,1,2,2V236a2,2,0,0,1-2,2H2a2,2,0,0,1-2-2V2A2,2,0,0,1,2,0Z" transform="translate(208 20)" fill="#fff"/>
    </g>
    <g id="Group_13695" data-name="Group 13695" transform="translate(215 42)">
      <path id="Path_8993" data-name="Path 8993" d="M-65.43-297.74a30.818,30.818,0,0,0-43.7-3.327,31.061,31.061,0,0,0-4.352,4.63,5.679,5.679,0,0,1-6.934,1.652,36.1,36.1,0,0,0-48.072,17.812,36.633,36.633,0,0,0,17.67,48.461,36,36,0,0,0,4.328,1.687,28.26,28.26,0,0,1,12.657,8.29l.192.214a29.256,29.256,0,0,0,41.562,1.988,29.8,29.8,0,0,0,9.33-26.146,4.578,4.578,0,0,1,3.1-5.025,31.34,31.34,0,0,0,20.276-39.25,31.356,31.356,0,0,0-6.056-10.981Z" transform="translate(177.934 308.616)" fill="#f0f0f2"/>
      <path id="Path_8994" data-name="Path 8994" d="M-101.139-297.168a3.359,3.359,0,0,0,3.357-3.361,3.359,3.359,0,0,0-3.357-3.361,3.359,3.359,0,0,0-3.357,3.361h0A3.359,3.359,0,0,0-101.139-297.168Zm0-6.213a2.853,2.853,0,0,1,2.851,2.855,2.853,2.853,0,0,1-2.851,2.855,2.853,2.853,0,0,1-2.851-2.855h0a2.853,2.853,0,0,1,2.851-2.855Z" transform="translate(161.059 307.505)" fill="#f0f0f2"/>
      <path id="Path_8995" data-name="Path 8995" d="M-106.78-304.67a1.807,1.807,0,0,0,1.806-1.809,1.807,1.807,0,0,0-1.806-1.809,1.807,1.807,0,0,0-1.806,1.809,1.807,1.807,0,0,0,1.806,1.809Zm0-3.106a1.3,1.3,0,0,1,1.294,1.3,1.3,1.3,0,0,1-1.3,1.3,1.3,1.3,0,0,1-1.294-1.3,1.3,1.3,0,0,1,1.3-1.3Z" transform="translate(162.103 308.539)" fill="#f0f0f2"/>
      <path id="Path_8996" data-name="Path 8996" d="M-44.65-222.2a3.359,3.359,0,0,0-3.357,3.361,3.359,3.359,0,0,0,3.357,3.361,3.359,3.359,0,0,0,3.357-3.361A3.361,3.361,0,0,0-44.65-222.2Zm0,6.213a2.853,2.853,0,0,1-2.851-2.855,2.853,2.853,0,0,1,2.851-2.854,2.852,2.852,0,0,1,2.851,2.854h0a2.853,2.853,0,0,1-2.851,2.855Z" transform="translate(146.735 287.498)" fill="#f0f0f2"/>
      <path id="Path_8997" data-name="Path 8997" d="M-176.451-226.161a3.359,3.359,0,0,0-3.356,3.361,3.36,3.36,0,0,0,3.358,3.361,3.36,3.36,0,0,0,3.356-3.361,3.359,3.359,0,0,0-3.357-3.361Zm0,6.213A2.853,2.853,0,0,1-179.3-222.8a2.853,2.853,0,0,1,2.851-2.855A2.853,2.853,0,0,1-173.6-222.8h0A2.853,2.853,0,0,1-176.451-219.948Z" transform="translate(179.807 288.467)" fill="#f0f0f2"/>
      <path id="Path_8998" data-name="Path 8998" d="M-39.69-227.082a1.807,1.807,0,0,0-1.806,1.809,1.808,1.808,0,0,0,1.806,1.81,1.808,1.808,0,0,0,1.806-1.81,1.808,1.808,0,0,0-1.806-1.809Zm0,3.108a1.3,1.3,0,0,1-1.3-1.3,1.3,1.3,0,0,1,1.3-1.3,1.3,1.3,0,0,1,1.3,1.3h0a1.3,1.3,0,0,1-1.3,1.3Z" transform="translate(145.203 288.716)" fill="#f0f0f2"/>
      <path id="Path_8999" data-name="Path 8999" d="M-26.378-298.244a1.807,1.807,0,0,0,1.806-1.809,1.807,1.807,0,0,0-1.806-1.809,1.808,1.808,0,0,0-1.806,1.809,1.808,1.808,0,0,0,1.806,1.809Zm0-3.106a1.3,1.3,0,0,1,1.3,1.3,1.3,1.3,0,0,1-1.294,1.3,1.3,1.3,0,0,1-1.3-1.3h0a1.3,1.3,0,0,1,1.3-1.3Z" transform="translate(142.073 307.028)" fill="#f0f0f2"/>
      <path id="Path_9000" data-name="Path 9000" d="M-134.057-197.015a1.807,1.807,0,0,0-1.806,1.809,1.807,1.807,0,0,0,1.806,1.809,1.808,1.808,0,0,0,1.806-1.809,1.808,1.808,0,0,0-1.806-1.809Zm0,3.107a1.3,1.3,0,0,1-1.3-1.3,1.3,1.3,0,0,1,1.3-1.3,1.3,1.3,0,0,1,1.3,1.3h0a1.3,1.3,0,0,1-1.3,1.3Z" transform="translate(168.883 281.236)" fill="#f0f0f2"/>
    </g>
    <g id="Group_13329" data-name="Group 13329" transform="translate(238.579 51.638)">
      <path id="Path_9129" data-name="Path 9129" d="M-103.719-277.418l-.723,5.264s4.346,5.42-3.494,7.725c0,0-1.478,6.083-4.942,8.339l.468,4.774,16.34,6.351,3.832,3.15,1.95,7.029v10.708l-.2,15.45s.47,1.791-6.287,1.492-48.812-.265-48.812-.265-2.05.063-1.781-3.813-.84-23.606.606-28.116,8.4-6.83,8.4-6.83l11.195-4.245,2.23-.962v-4.11l-.348-.829-2.421-2.121-2.655-6.107.4-12.658,16.371-4.376Z" transform="translate(147.845 292.617)" fill="#fff"/>
      <path id="Path_9130" data-name="Path 9130" d="M-122.533-278.183s9.187-.472,14.432-4.174l3.7,4.443.954,1.513,2.8.526.48.519v-8.482s-.471-9.03-12.775-11.549c0,0-11.362-.635-14.859,8.251s-1.211,11.5-1.211,11.5S-124.392-278.32-122.533-278.183Z" transform="translate(143.664 295.869)" fill="#dfe0e5"/>
      <path id="Path_9131" data-name="Path 9131" d="M-120.974-277.334a16.586,16.586,0,0,1-3.356-12.878s-5.262,3.941-5.262,10.52c0,5.263,1.1,6.544,1.1,6.544h6.57Z" transform="translate(143.628 294.65)" fill="#bebec6"/>
      <path id="Path_9132" data-name="Path 9132" d="M-111.9-252.174c-5.987-1.228-9.376-6.52-9.376-12.877l-.3-7.371c-.819.265-3.348-.4-3.832-.135-1.683.93-1.513,1.512-1.513,1.512l-2.082.718h0a2.552,2.552,0,0,0-.438.047,2.78,2.78,0,0,0-2.143,2.775v.953a2.765,2.765,0,0,0,2.1,2.749c.251.051,1.188.991,1.422.972.646-.052,1.7-.5,1.813.135,1.111,6.14,5.3,10.789,11.747,10.789A13.179,13.179,0,0,0-111.9-252.174Z" transform="translate(144.097 290.207)" fill="#dfe0e5"/>
      <path id="Path_9133" data-name="Path 9133" d="M-107.723-252.313l-4.5,8.9-5.826-4.086,5.471-6.674Zm-11.189,3.983-5.553-6.774v-3.638l.948.381a12.613,12.613,0,0,0,4.625.867,11.58,11.58,0,0,0,4.557-.939l.964-.417v3.763Zm15.318-24.31a3.524,3.524,0,0,1-1.245,2.688,3.749,3.749,0,0,1-1.83.836l-.8.127v-7.3l.8.127a3.59,3.59,0,0,1,3.077,3.525Zm-27.028,3.651-.8-.127a3.591,3.591,0,0,1-3.077-3.524,3.725,3.725,0,0,1,3.032-3.448l.844-.19Zm.049-8.872-.116.457-.473.054a5.881,5.881,0,0,0-1.092.243l-.91.306v-4.107a14.035,14.035,0,0,1,14.023-14.049A14.04,14.04,0,0,1-104.927-281.1c0,.064,0,.128,0,.192v3.989l-.889-.266a5.175,5.175,0,0,0-1.028-.2l-.628-.056v-.623c0-.771,0-.771-2.262-3.151-.45-.476-.987-1.039-1.621-1.714a1.619,1.619,0,0,0-2.055-.248,25.847,25.847,0,0,1-15.487,4.116,1.6,1.6,0,0,0-1.676,1.2Zm1.156,9.078v-9.108l.729.042a27.2,27.2,0,0,0,15.74-4.2l.483-.306.392.416c.63.668,1.163,1.229,1.606,1.695.907.952,1.406,1.481,1.637,1.762l.154.191v9.51a10.315,10.315,0,0,1-10.533,10.085,10.31,10.31,0,0,1-10.206-10.085Zm4.469,24.914-.657.463-4.5-8.907,4.841-1.853,5.472,6.674-1.192.837c-2.108,1.482-3.767,2.646-3.966,2.785Zm2.494-.289,3.54-2.484,3.54,2.484-1.56,2.319H-120.9Zm-2.148,26.243,3.893-22.732h3.59l3.893,22.732-5.686,6.183Zm34.129-11.332a.6.6,0,0,0-.6.595v15.829a1.4,1.4,0,0,1-1.4,1.387h-7.633v-10.686a.619.619,0,0,0-.481-.612.6.6,0,0,0-.714.464.64.64,0,0,0-.012.121v10.712h-16.234l5.105-5.55a1.585,1.585,0,0,0,.385-1.285l-3.913-22.838,1.585-2.358.766.537a1.974,1.974,0,0,0,1.265.536,1.568,1.568,0,0,0,1.413-.861l4.353-8.624L-96.7-248.1a9.8,9.8,0,0,1,2.433,1.6.613.613,0,0,0,.859-.049.235.235,0,0,0,.025-.029h0a.6.6,0,0,0-.072-.82,11.01,11.01,0,0,0-2.8-1.814l-15.9-6.083v-4.38l.264-.2a11.192,11.192,0,0,0,4.323-7.423l.073-.55.561-.038a4.961,4.961,0,0,0,2.886-1.162,4.7,4.7,0,0,0,.5-6.686h0l-.167-.191v-4.75a15.231,15.231,0,0,0-15.129-15.338,15.241,15.241,0,0,0-15.52,14.95c0,.051,0,.1,0,.155v5.113l-.172.19a4.394,4.394,0,0,0-1.16,2.967,4.707,4.707,0,0,0,1.665,3.591,4.949,4.949,0,0,0,2.883,1.162l.56.039.073.552a11.2,11.2,0,0,0,4.567,7.6l.285.2v4.206l-15.878,6.082a10.678,10.678,0,0,0-6.4,9.777v26.6a2.593,2.593,0,0,0,2.608,2.576h12.313a.6.6,0,0,0,.6-.6.57.57,0,0,0-.012-.119.623.623,0,0,0-.62-.476h-3.441v-25.8a.612.612,0,0,0-.483-.607.6.6,0,0,0-.711.47.634.634,0,0,0-.012.114v25.829h-7.638a1.4,1.4,0,0,1-1.4-1.387v-26.6a9.62,9.62,0,0,1,5.63-8.667l.021-.009,9.862-3.777,4.356,8.626a1.563,1.563,0,0,0,1.408.861,1.976,1.976,0,0,0,1.268-.538l.763-.535,1.585,2.358-3.912,22.844a1.582,1.582,0,0,0,.385,1.278l5.1,5.55H-127a.6.6,0,0,0-.584.615.6.6,0,0,0,.584.577h34.522a2.6,2.6,0,0,0,2.61-2.579v-15.829a.6.6,0,0,0-.6-.595Z" transform="translate(147.944 296.015)" fill="#9393a3"/>
      <g id="Group_13326" data-name="Group 13326" transform="translate(14.031 84.561)">
        <rect id="Rectangle_9813" data-name="Rectangle 9813" width="7.138" height="1.2" fill="#9393a3"/>
      </g>
      <g id="Group_13327" data-name="Group 13327" transform="translate(47.661 44.942)">
        <path id="Path_8871" data-name="Path 8871" d="M-76.428-207.039c0-.114-.132-11.4-.067-17.141.072-6.213-3.982-8.32-5.227-8.819-2.333-.934-3.905-1.686-3.905-1.686l.565-1.083a29.919,29.919,0,0,0,3.81,1.633c1.449.581,6.021,2.929,5.939,10.012-.067,5.723.082,17.145.083,17.259Z" transform="translate(85.626 235.771)" fill="#9393a3"/>
      </g>
      <g id="Group_13328" data-name="Group 13328" transform="translate(46.633 57.028)">
        <rect id="Rectangle_9814" data-name="Rectangle 9814" width="1.198" height="18.833" rx="0.599" fill="#9393a3"/>
      </g>
    </g>
    <g id="Group_13334" data-name="Group 13334" transform="translate(282.964 86.766)">
      <path id="Path_8872" data-name="Path 8872" d="M-41.043-209.751a.376.376,0,0,1-.306.444l-42.8,8.268a.382.382,0,0,1-.451-.3l-3.625-18.776a.382.382,0,0,1,.306-.444l3.358-.65,4.138-27.044a.391.391,0,0,1,.436-.321l24.466,3.732a.375.375,0,0,1,.314.436l-2.761,18.057,12.849-2.486a.389.389,0,0,1,.451.306Z" transform="translate(88.23 248.597)" fill="#3b75ba"/>
      <g id="Group_13330" data-name="Group 13330" transform="translate(0.832 0.985)">
        <path id="Path_8873" data-name="Path 8873" d="M-76.036-222.291l-4.144-.631.337-2.218,10.353,1.583,7.312-1.414-17.291-2.639.344-2.21,20.092,3.067-.184,1.21,1.821-.352,2.7-17.6a.235.235,0,0,0-.2-.268l-23.235-3.549a.238.238,0,0,0-.268.2l-3.985,26.049Zm-1.077-20.715,20.1,3.067-.78,5.1-20.1-3.067Zm-1.3,8.5,20.1,3.067-.344,2.21-20.092-3.067Z" transform="translate(86.022 247.316)" fill="#fff" opacity="0.5"/>
        <path id="Path_8874" data-name="Path 8874" d="M-57.835-219.218l-.8.153-1.82.352h0l-.589.115h0l-7.319,1.414.011,0-4.738.911-10.528,2.034-3.518.681,3.48,18.027,42.049-8.13-3.48-18.019Zm11.426,14.929-33.04,6.386a3.054,3.054,0,0,0-3.579-2.424l-1.744-9.009a2.341,2.341,0,0,0,.413-.115,3.059,3.059,0,0,0,2.011-3.472l.451-.084,4.176-.811,7.312-1.415,6.554-1.262,4.971-.964,9.575-1.851a3.062,3.062,0,0,0,3.587,2.424l1.736,9.009A3.062,3.062,0,0,0-46.408-204.289Z" transform="translate(87.142 241.287)" fill="#fff" opacity="0.5"/>
      </g>
      <g id="Group_13331" data-name="Group 13331" transform="translate(17.478 27.544)">
        <path id="Path_8875" data-name="Path 8875" d="M-56.649-203.97l.249,1.286q.679-.255.584-.745a.474.474,0,0,0-.246-.333A2.341,2.341,0,0,0-56.649-203.97Z" transform="translate(63.325 210.562)" fill="#fff" opacity="0.5"/>
        <path id="Path_8876" data-name="Path 8876" d="M-59.068-207.041a.5.5,0,0,0,.229.344,1.924,1.924,0,0,0,.567.2l-.234-1.213Q-59.153-207.48-59.068-207.041Z" transform="translate(63.896 211.44)" fill="#fff" opacity="0.5"/>
        <path id="Path_8877" data-name="Path 8877" d="M-60.419-212.477a6.118,6.118,0,0,0-4.847,7.168,6.118,6.118,0,0,0,7.168,4.847,6.118,6.118,0,0,0,4.847-7.168A6.118,6.118,0,0,0-60.419-212.477Zm3.75,8.076a3,3,0,0,1-1.547.917l.2,1.059-.707.136-.2-1.037a5.847,5.847,0,0,1-2.3-.018l-.264-1.363a6.055,6.055,0,0,0,1.157.184,5.925,5.925,0,0,0,1.167-.016l-.309-1.6-.372-.067a3.937,3.937,0,0,1-1.618-.6,1.711,1.711,0,0,1-.652-1.087,1.554,1.554,0,0,1,.348-1.345,3.029,3.029,0,0,1,1.52-.9l-.152-.79.707-.137.148.769a5.971,5.971,0,0,1,2.229.062l-.252,1.3a5.684,5.684,0,0,0-1.73-.083l.294,1.523a8.071,8.071,0,0,1,1.563.395,1.989,1.989,0,0,1,.745.5,1.576,1.576,0,0,1,.353.756A1.67,1.67,0,0,1-56.669-204.4Z" transform="translate(65.378 212.589)" fill="#fff" opacity="0.5"/>
      </g>
      <g id="Group_13332" data-name="Group 13332" transform="translate(20.719 29.071)" opacity="0.3">
        <path id="Path_8878" data-name="Path 8878" d="M-55.334-205.365a1.67,1.67,0,0,1-.339,1.434,3,3,0,0,1-1.547.917l.2,1.059-.707.136-.2-1.037a5.847,5.847,0,0,1-2.3-.018l-.264-1.363a6.045,6.045,0,0,0,1.157.184,5.925,5.925,0,0,0,1.167-.016l-.309-1.6-.372-.067a3.937,3.937,0,0,1-1.618-.6,1.714,1.714,0,0,1-.652-1.087,1.554,1.554,0,0,1,.348-1.345,3.029,3.029,0,0,1,1.52-.9l-.152-.79.707-.137.148.769a5.971,5.971,0,0,1,2.229.062l-.252,1.3a5.684,5.684,0,0,0-1.73-.083l.294,1.523a8.07,8.07,0,0,1,1.563.395,1.988,1.988,0,0,1,.745.5A1.576,1.576,0,0,1-55.334-205.365Zm-4.219-2.355a.5.5,0,0,0,.229.344,1.924,1.924,0,0,0,.567.2l-.234-1.213Q-59.638-208.159-59.553-207.719Zm2.681,2.733a.474.474,0,0,0-.246-.333,2.341,2.341,0,0,0-.587-.208l.249,1.286Q-56.777-204.5-56.872-204.987Z" transform="translate(61.14 210.592)"/>
      </g>
      <g id="Group_13333" data-name="Group 13333" transform="translate(0 0)" opacity="0.3">
        <path id="Path_8879" data-name="Path 8879" d="M-44.668-228.533a.389.389,0,0,0-.451-.306l-12.849,2.486,2.784-18.195a.241.241,0,0,0-.2-.275L-80.125-248.6a.253.253,0,0,0-.275.206l-4.161,27.181-3.358.65a.382.382,0,0,0-.306.444l3.625,18.776a.382.382,0,0,0,.451.3l42.8-8.268a.376.376,0,0,0,.306-.444Zm-35.1-18.883a.238.238,0,0,1,.268-.2l23.235,3.549a.235.235,0,0,1,.2.268l-2.692,17.6-24.994,4.834Zm-4.145,45.552-3.48-18.027,2.715-.528.8-.153,24.986-4.826.8-.153,12.742-2.463,3.48,18.019Z" transform="translate(88.23 248.603)"/>
      </g>
    </g>
    <path id="Path_8918" data-name="Path 8918" d="M7.082,6.236H4.252V15H3.1V6.236H.28V5.2h6.8ZM14.28,15H13.159V10.967q0-2.187-1.627-2.187a1.774,1.774,0,0,0-1.381.632,2.356,2.356,0,0,0-.561,1.624V15H8.47V4.637H9.591V9.162h.027a2.546,2.546,0,0,1,2.3-1.326q2.365,0,2.365,2.851Zm7.738-3.22H17.076a2.618,2.618,0,0,0,.629,1.8,2.168,2.168,0,0,0,1.654.636,3.439,3.439,0,0,0,2.174-.779v1.053a4.063,4.063,0,0,1-2.44.67,2.959,2.959,0,0,1-2.331-.954,3.9,3.9,0,0,1-.848-2.683,3.828,3.828,0,0,1,.926-2.663,2.97,2.97,0,0,1,2.3-1.029,2.632,2.632,0,0,1,2.126.889,3.705,3.705,0,0,1,.752,2.468Zm-1.148-.95A2.281,2.281,0,0,0,20.4,9.319a1.6,1.6,0,0,0-1.282-.54,1.811,1.811,0,0,0-1.347.567,2.575,2.575,0,0,0-.684,1.483ZM33.5,6.236h-2.83V15H29.518V6.236H26.694V5.2h6.8Zm2.946,8.928a3.247,3.247,0,0,1-2.478-.981,3.634,3.634,0,0,1-.926-2.6A3.785,3.785,0,0,1,34,8.827a3.465,3.465,0,0,1,2.6-.991A3.14,3.14,0,0,1,39.05,8.8a3.822,3.822,0,0,1,.878,2.673,3.761,3.761,0,0,1-.947,2.683A3.317,3.317,0,0,1,36.442,15.164Zm.082-6.385a2.132,2.132,0,0,0-1.709.735,3.018,3.018,0,0,0-.629,2.027,2.854,2.854,0,0,0,.636,1.962,2.161,2.161,0,0,0,1.7.718,2.049,2.049,0,0,0,1.671-.7,3.055,3.055,0,0,0,.584-2A3.108,3.108,0,0,0,38.2,9.49,2.04,2.04,0,0,0,36.524,8.779Zm8.442,6.152a2.161,2.161,0,0,1-1.046.219q-1.839,0-1.839-2.051V8.957h-1.2V8h1.2V6.291L43.2,5.929V8h1.764v.957H43.2V12.9a1.635,1.635,0,0,0,.239,1,.955.955,0,0,0,.793.3,1.179,1.179,0,0,0,.731-.232ZM51.475,15H50.354V13.906h-.027a2.347,2.347,0,0,1-2.153,1.258,2.3,2.3,0,0,1-1.637-.554,1.918,1.918,0,0,1-.591-1.47q0-1.962,2.311-2.283l2.1-.294q0-1.784-1.442-1.784a3.446,3.446,0,0,0-2.283.861V8.492a4.338,4.338,0,0,1,2.379-.656q2.468,0,2.468,2.611Zm-1.121-3.541-1.688.232a2.741,2.741,0,0,0-1.176.386,1.114,1.114,0,0,0-.4.981,1.068,1.068,0,0,0,.366.837,1.413,1.413,0,0,0,.974.325,1.8,1.8,0,0,0,1.377-.584,2.088,2.088,0,0,0,.543-1.48ZM54.708,15H53.587V4.637h1.121Zm12.927-.41a5.749,5.749,0,0,1-2.707.574,4.366,4.366,0,0,1-3.35-1.347,4.969,4.969,0,0,1-1.258-3.534,5.208,5.208,0,0,1,1.415-3.8,4.8,4.8,0,0,1,3.589-1.449,5.754,5.754,0,0,1,2.311.4V6.66a4.686,4.686,0,0,0-2.324-.588A3.566,3.566,0,0,0,62.573,7.2a4.249,4.249,0,0,0-1.049,3.015,4.043,4.043,0,0,0,.981,2.854,3.338,3.338,0,0,0,2.574,1.063,4.828,4.828,0,0,0,2.557-.656Zm4.771.574a3.247,3.247,0,0,1-2.478-.981,3.633,3.633,0,0,1-.926-2.6,3.785,3.785,0,0,1,.964-2.755,3.465,3.465,0,0,1,2.6-.991,3.14,3.14,0,0,1,2.444.964,3.822,3.822,0,0,1,.878,2.673,3.761,3.761,0,0,1-.947,2.683A3.317,3.317,0,0,1,72.406,15.164Zm.082-6.385a2.132,2.132,0,0,0-1.709.735,3.018,3.018,0,0,0-.629,2.027,2.854,2.854,0,0,0,.636,1.962,2.161,2.161,0,0,0,1.7.718,2.049,2.049,0,0,0,1.671-.7,3.055,3.055,0,0,0,.584-2A3.108,3.108,0,0,0,74.16,9.49,2.04,2.04,0,0,0,72.488,8.779ZM87.623,15H86.5V10.98A3.032,3.032,0,0,0,86.143,9.3a1.361,1.361,0,0,0-1.207-.52,1.494,1.494,0,0,0-1.22.656,2.511,2.511,0,0,0-.5,1.572V15H82.093V10.844q0-2.064-1.593-2.064a1.475,1.475,0,0,0-1.217.619,2.557,2.557,0,0,0-.479,1.61V15H77.684V8H78.8V9.107h.027a2.378,2.378,0,0,1,2.174-1.271,2.022,2.022,0,0,1,1.982,1.449,2.5,2.5,0,0,1,2.324-1.449q2.311,0,2.311,2.851Zm3.268-1.012h-.027V18.22H89.742V8h1.121V9.23h.027a2.651,2.651,0,0,1,2.42-1.395,2.563,2.563,0,0,1,2.112.94,3.893,3.893,0,0,1,.759,2.519,4.339,4.339,0,0,1-.854,2.813,2.845,2.845,0,0,1-2.338,1.056A2.342,2.342,0,0,1,90.891,13.988Zm-.027-2.823v.978a2.081,2.081,0,0,0,.564,1.473,2.012,2.012,0,0,0,3.028-.174,3.575,3.575,0,0,0,.578-2.167,2.822,2.822,0,0,0-.54-1.832,1.787,1.787,0,0,0-1.463-.663,1.986,1.986,0,0,0-1.572.68A2.5,2.5,0,0,0,90.863,11.165Zm12.735.615H98.656a2.618,2.618,0,0,0,.629,1.8,2.168,2.168,0,0,0,1.654.636,3.439,3.439,0,0,0,2.174-.779v1.053a4.063,4.063,0,0,1-2.44.67,2.959,2.959,0,0,1-2.331-.954,3.9,3.9,0,0,1-.848-2.683,3.828,3.828,0,0,1,.926-2.663,2.97,2.97,0,0,1,2.3-1.029,2.632,2.632,0,0,1,2.126.889,3.705,3.705,0,0,1,.752,2.468Zm-1.148-.95a2.281,2.281,0,0,0-.468-1.511,1.6,1.6,0,0,0-1.282-.54,1.811,1.811,0,0,0-1.347.567,2.575,2.575,0,0,0-.684,1.483ZM111.1,15h-1.121V11.008q0-2.229-1.627-2.229a1.765,1.765,0,0,0-1.391.632,2.344,2.344,0,0,0-.55,1.6V15h-1.121V8h1.121V9.162h.027a2.526,2.526,0,0,1,2.3-1.326,2.142,2.142,0,0,1,1.757.742,3.3,3.3,0,0,1,.608,2.143Zm1.688-.253v-1.2a3.318,3.318,0,0,0,2.017.677q1.477,0,1.477-.984a.854.854,0,0,0-.126-.475,1.26,1.26,0,0,0-.342-.345,2.631,2.631,0,0,0-.506-.27q-.291-.12-.625-.25a8.056,8.056,0,0,1-.817-.373,2.468,2.468,0,0,1-.588-.424,1.577,1.577,0,0,1-.355-.537,1.9,1.9,0,0,1-.12-.7,1.673,1.673,0,0,1,.226-.872,2,2,0,0,1,.6-.636,2.805,2.805,0,0,1,.858-.386,3.805,3.805,0,0,1,.995-.13,4.016,4.016,0,0,1,1.627.314V9.285a3.171,3.171,0,0,0-1.777-.506,2.078,2.078,0,0,0-.567.072,1.389,1.389,0,0,0-.434.2.932.932,0,0,0-.28.311.819.819,0,0,0-.1.4.959.959,0,0,0,.1.458,1.008,1.008,0,0,0,.291.328,2.221,2.221,0,0,0,.465.26q.273.116.622.253a8.657,8.657,0,0,1,.834.366,2.86,2.86,0,0,1,.629.424,1.656,1.656,0,0,1,.4.543,1.753,1.753,0,0,1,.14.731,1.725,1.725,0,0,1-.229.9,1.963,1.963,0,0,1-.612.636,2.8,2.8,0,0,1-.882.376,4.354,4.354,0,0,1-1.046.123A3.971,3.971,0,0,1,112.793,14.747ZM124.168,15h-1.121V13.906h-.027a2.347,2.347,0,0,1-2.153,1.258,2.3,2.3,0,0,1-1.637-.554,1.918,1.918,0,0,1-.591-1.47q0-1.962,2.311-2.283l2.1-.294q0-1.784-1.442-1.784a3.446,3.446,0,0,0-2.283.861V8.492a4.338,4.338,0,0,1,2.379-.656q2.468,0,2.468,2.611Zm-1.121-3.541-1.688.232a2.741,2.741,0,0,0-1.176.386,1.114,1.114,0,0,0-.4.981,1.068,1.068,0,0,0,.366.837,1.413,1.413,0,0,0,.974.325,1.8,1.8,0,0,0,1.377-.584,2.088,2.088,0,0,0,.543-1.48Zm6.48,3.473a2.162,2.162,0,0,1-1.046.219q-1.839,0-1.839-2.051V8.957h-1.2V8h1.2V6.291l1.121-.362V8h1.764v.957h-1.764V12.9a1.635,1.635,0,0,0,.239,1,.955.955,0,0,0,.793.3,1.179,1.179,0,0,0,.731-.232ZM131.6,6.223a.71.71,0,0,1-.513-.205.692.692,0,0,1-.212-.52.718.718,0,0,1,.725-.731.724.724,0,0,1,.523.208.73.73,0,0,1,0,1.036A.718.718,0,0,1,131.6,6.223ZM132.146,15h-1.121V8h1.121Zm5.2.164a3.247,3.247,0,0,1-2.478-.981,3.634,3.634,0,0,1-.926-2.6,3.785,3.785,0,0,1,.964-2.755,3.465,3.465,0,0,1,2.6-.991,3.14,3.14,0,0,1,2.444.964,3.822,3.822,0,0,1,.878,2.673,3.761,3.761,0,0,1-.947,2.683A3.317,3.317,0,0,1,137.341,15.164Zm.082-6.385a2.132,2.132,0,0,0-1.709.735,3.018,3.018,0,0,0-.629,2.027,2.854,2.854,0,0,0,.636,1.962,2.161,2.161,0,0,0,1.7.718,2.049,2.049,0,0,0,1.671-.7,3.055,3.055,0,0,0,.584-2,3.108,3.108,0,0,0-.584-2.023A2.04,2.04,0,0,0,137.423,8.779ZM148.429,15h-1.121V11.008q0-2.229-1.627-2.229a1.765,1.765,0,0,0-1.391.632,2.344,2.344,0,0,0-.55,1.6V15h-1.121V8h1.121V9.162h.027a2.526,2.526,0,0,1,2.3-1.326,2.142,2.142,0,0,1,1.757.742,3.3,3.3,0,0,1,.608,2.143Zm5.64-.4V13.25a2.629,2.629,0,0,0,.557.369,4.514,4.514,0,0,0,.684.277,5.442,5.442,0,0,0,.721.174,4.021,4.021,0,0,0,.67.062,2.624,2.624,0,0,0,1.583-.393,1.474,1.474,0,0,0,.349-1.822,1.964,1.964,0,0,0-.482-.537,4.782,4.782,0,0,0-.728-.465q-.42-.222-.906-.468-.513-.26-.957-.526a4.147,4.147,0,0,1-.772-.588,2.452,2.452,0,0,1-.516-.728,2.254,2.254,0,0,1-.188-.954,2.242,2.242,0,0,1,.294-1.166,2.521,2.521,0,0,1,.772-.817,3.5,3.5,0,0,1,1.09-.479,4.993,4.993,0,0,1,1.248-.157,4.781,4.781,0,0,1,2.112.349V6.674a3.829,3.829,0,0,0-2.229-.6,3.665,3.665,0,0,0-.752.079,2.124,2.124,0,0,0-.67.256,1.484,1.484,0,0,0-.479.458,1.216,1.216,0,0,0-.185.684,1.407,1.407,0,0,0,.14.649,1.592,1.592,0,0,0,.414.5,4.12,4.12,0,0,0,.667.438q.393.212.906.465t1,.547a4.562,4.562,0,0,1,.827.636,2.825,2.825,0,0,1,.564.772,2.172,2.172,0,0,1,.208.971,2.462,2.462,0,0,1-.284,1.227,2.328,2.328,0,0,1-.766.817,3.344,3.344,0,0,1-1.111.455,6.084,6.084,0,0,1-1.326.14,5.4,5.4,0,0,1-.574-.038q-.342-.038-.7-.109a5.689,5.689,0,0,1-.673-.178A2.1,2.1,0,0,1,154.068,14.6Zm10.541.328a2.162,2.162,0,0,1-1.046.219q-1.839,0-1.839-2.051V8.957h-1.2V8h1.2V6.291l1.121-.362V8h1.764v.957h-1.764V12.9a1.635,1.635,0,0,0,.239,1,.955.955,0,0,0,.793.3,1.179,1.179,0,0,0,.731-.232Zm6.508.068H170V13.906h-.027a2.347,2.347,0,0,1-2.153,1.258,2.3,2.3,0,0,1-1.637-.554,1.918,1.918,0,0,1-.591-1.47q0-1.962,2.311-2.283l2.1-.294q0-1.784-1.442-1.784a3.446,3.446,0,0,0-2.283.861V8.492a4.338,4.338,0,0,1,2.379-.656q2.468,0,2.468,2.611ZM170,11.459l-1.688.232a2.741,2.741,0,0,0-1.176.386,1.114,1.114,0,0,0-.4.981,1.068,1.068,0,0,0,.366.837,1.413,1.413,0,0,0,.974.325,1.8,1.8,0,0,0,1.377-.584,2.088,2.088,0,0,0,.543-1.48Zm6.48,3.473a2.162,2.162,0,0,1-1.046.219q-1.839,0-1.839-2.051V8.957h-1.2V8h1.2V6.291l1.121-.362V8h1.764v.957h-1.764V12.9a1.635,1.635,0,0,0,.239,1,.955.955,0,0,0,.793.3,1.179,1.179,0,0,0,.731-.232ZM183.6,11.78h-4.942a2.618,2.618,0,0,0,.629,1.8,2.168,2.168,0,0,0,1.654.636,3.439,3.439,0,0,0,2.174-.779v1.053a4.063,4.063,0,0,1-2.44.67,2.959,2.959,0,0,1-2.331-.954,3.9,3.9,0,0,1-.848-2.683,3.828,3.828,0,0,1,.926-2.663,2.97,2.97,0,0,1,2.3-1.029,2.632,2.632,0,0,1,2.126.889,3.705,3.705,0,0,1,.752,2.468Zm-1.148-.95a2.281,2.281,0,0,0-.468-1.511,1.6,1.6,0,0,0-1.282-.54,1.811,1.811,0,0,0-1.347.567,2.575,2.575,0,0,0-.684,1.483ZM195.234,15h-1.121V10.98a3.032,3.032,0,0,0-.359-1.682,1.361,1.361,0,0,0-1.207-.52,1.494,1.494,0,0,0-1.22.656,2.511,2.511,0,0,0-.5,1.572V15H189.7V10.844q0-2.064-1.593-2.064a1.475,1.475,0,0,0-1.217.619,2.557,2.557,0,0,0-.479,1.61V15h-1.121V8h1.121V9.107h.027a2.378,2.378,0,0,1,2.174-1.271A2.022,2.022,0,0,1,190.6,9.285a2.5,2.5,0,0,1,2.324-1.449q2.311,0,2.311,2.851Zm7.745-3.22h-4.942a2.618,2.618,0,0,0,.629,1.8,2.168,2.168,0,0,0,1.654.636,3.439,3.439,0,0,0,2.174-.779v1.053a4.063,4.063,0,0,1-2.44.67,2.959,2.959,0,0,1-2.331-.954,3.9,3.9,0,0,1-.848-2.683,3.828,3.828,0,0,1,.926-2.663,2.97,2.97,0,0,1,2.3-1.029,2.632,2.632,0,0,1,2.126.889,3.705,3.705,0,0,1,.752,2.468Zm-1.148-.95a2.281,2.281,0,0,0-.468-1.511,1.6,1.6,0,0,0-1.282-.54,1.811,1.811,0,0,0-1.347.567,2.575,2.575,0,0,0-.684,1.483ZM210.485,15h-1.121V11.008q0-2.229-1.627-2.229a1.765,1.765,0,0,0-1.391.632,2.344,2.344,0,0,0-.55,1.6V15h-1.121V8H205.8V9.162h.027a2.526,2.526,0,0,1,2.3-1.326,2.142,2.142,0,0,1,1.757.742,3.3,3.3,0,0,1,.608,2.143Zm5.359-.068a2.162,2.162,0,0,1-1.046.219q-1.839,0-1.839-2.051V8.957h-1.2V8h1.2V6.291l1.121-.362V8h1.764v.957h-1.764V12.9a1.635,1.635,0,0,0,.239,1,.955.955,0,0,0,.793.3,1.179,1.179,0,0,0,.731-.232Zm5.482.068V5.2h2.789a3.048,3.048,0,0,1,2.017.622,2.01,2.01,0,0,1,.745,1.62,2.384,2.384,0,0,1-.451,1.449,2.433,2.433,0,0,1-1.244.875v.027a2.494,2.494,0,0,1,1.586.749,2.3,2.3,0,0,1,.595,1.644,2.563,2.563,0,0,1-.9,2.037,3.358,3.358,0,0,1-2.276.779Zm1.148-8.764V9.4h1.176a2.233,2.233,0,0,0,1.483-.455,1.583,1.583,0,0,0,.54-1.282q0-1.429-1.88-1.429Zm0,4.2v3.527h1.559a2.335,2.335,0,0,0,1.569-.479,1.639,1.639,0,0,0,.557-1.312q0-1.736-2.365-1.736ZM234.862,15h-1.121V13.893h-.027a2.3,2.3,0,0,1-2.16,1.271q-2.5,0-2.5-2.98V8h1.114v4.006q0,2.215,1.7,2.215a1.715,1.715,0,0,0,1.35-.6,2.315,2.315,0,0,0,.53-1.583V8h1.121ZM237.7,6.223a.71.71,0,0,1-.513-.205.692.692,0,0,1-.212-.52.718.718,0,0,1,.725-.731.724.724,0,0,1,.523.208.73.73,0,0,1,0,1.036A.718.718,0,0,1,237.7,6.223ZM238.246,15h-1.121V8h1.121Zm3.391,0h-1.121V4.637h1.121Zm8.244,0H248.76V13.811h-.027a2.588,2.588,0,0,1-2.406,1.354,2.615,2.615,0,0,1-2.109-.94,3.856,3.856,0,0,1-.79-2.56,4.2,4.2,0,0,1,.875-2.782,2.886,2.886,0,0,1,2.331-1.046,2.244,2.244,0,0,1,2.1,1.135h.027V4.637h1.121Zm-1.121-3.165V10.8a2,2,0,0,0-.561-1.436,1.88,1.88,0,0,0-1.422-.588,1.936,1.936,0,0,0-1.613.752,3.3,3.3,0,0,0-.588,2.078,2.964,2.964,0,0,0,.564,1.911,1.843,1.843,0,0,0,1.514.7,1.915,1.915,0,0,0,1.521-.677A2.521,2.521,0,0,0,248.76,11.835Zm9.017-.055h-4.942a2.618,2.618,0,0,0,.629,1.8,2.168,2.168,0,0,0,1.654.636,3.439,3.439,0,0,0,2.174-.779v1.053a4.063,4.063,0,0,1-2.44.67,2.959,2.959,0,0,1-2.331-.954,3.9,3.9,0,0,1-.848-2.683,3.828,3.828,0,0,1,.926-2.663,2.97,2.97,0,0,1,2.3-1.029,2.632,2.632,0,0,1,2.126.889,3.705,3.705,0,0,1,.752,2.468Zm-1.148-.95a2.281,2.281,0,0,0-.468-1.511,1.6,1.6,0,0,0-1.282-.54,1.811,1.811,0,0,0-1.347.567,2.575,2.575,0,0,0-.684,1.483Zm6.494-1.7a1.371,1.371,0,0,0-.848-.226,1.431,1.431,0,0,0-1.2.677,3.129,3.129,0,0,0-.482,1.846V15h-1.121V8h1.121V9.442h.027a2.444,2.444,0,0,1,.731-1.152,1.668,1.668,0,0,1,1.1-.414,1.83,1.83,0,0,1,.67.1ZM276.992,8l-2.1,7h-1.162l-1.442-5.011a3.265,3.265,0,0,1-.109-.649h-.027a3.065,3.065,0,0,1-.144.636L270.443,15h-1.121L267.2,8h1.176l1.449,5.264a3.171,3.171,0,0,1,.1.629h.055a2.942,2.942,0,0,1,.123-.643L271.715,8h1.025l1.449,5.277a3.77,3.77,0,0,1,.1.629h.055a2.91,2.91,0,0,1,.116-.629L275.885,8Zm1.873-1.777a.71.71,0,0,1-.513-.205.692.692,0,0,1-.212-.52.718.718,0,0,1,.725-.731.724.724,0,0,1,.523.208.73.73,0,0,1,0,1.036A.718.718,0,0,1,278.865,6.223ZM279.412,15h-1.121V8h1.121Zm3.391,0h-1.121V4.637H282.8Zm3.391,0h-1.121V4.637h1.121ZM5.906,33.679a3.643,3.643,0,0,1-1.914.485,3.169,3.169,0,0,1-2.417-.974,3.53,3.53,0,0,1-.919-2.526,3.881,3.881,0,0,1,.991-2.779,3.467,3.467,0,0,1,2.646-1.049,3.682,3.682,0,0,1,1.627.342v1.148a2.85,2.85,0,0,0-1.668-.547,2.254,2.254,0,0,0-1.76.769,2.918,2.918,0,0,0-.687,2.02,2.779,2.779,0,0,0,.646,1.941,2.227,2.227,0,0,0,1.733.711,2.81,2.81,0,0,0,1.723-.608Zm5.346-5.544a1.371,1.371,0,0,0-.848-.226,1.431,1.431,0,0,0-1.2.677,3.129,3.129,0,0,0-.482,1.846V34H7.6V27H8.723v1.442H8.75a2.444,2.444,0,0,1,.731-1.152,1.668,1.668,0,0,1,1.1-.414,1.83,1.83,0,0,1,.67.1Zm6.843,2.646H13.152a2.618,2.618,0,0,0,.629,1.8,2.168,2.168,0,0,0,1.654.636,3.439,3.439,0,0,0,2.174-.779v1.053a4.063,4.063,0,0,1-2.44.67,2.959,2.959,0,0,1-2.331-.954,3.9,3.9,0,0,1-.848-2.683,3.828,3.828,0,0,1,.926-2.663,2.97,2.97,0,0,1,2.3-1.029,2.632,2.632,0,0,1,2.126.889,3.705,3.705,0,0,1,.752,2.468Zm-1.148-.95a2.281,2.281,0,0,0-.468-1.511,1.6,1.6,0,0,0-1.282-.54,1.811,1.811,0,0,0-1.347.567,2.575,2.575,0,0,0-.684,1.483ZM24.8,34H23.68V32.906h-.027A2.347,2.347,0,0,1,21.5,34.164a2.3,2.3,0,0,1-1.637-.554,1.918,1.918,0,0,1-.591-1.47q0-1.962,2.311-2.283l2.1-.294q0-1.784-1.442-1.784a3.446,3.446,0,0,0-2.283.861V27.492a4.338,4.338,0,0,1,2.379-.656q2.468,0,2.468,2.611ZM23.68,30.459l-1.688.232a2.741,2.741,0,0,0-1.176.386,1.114,1.114,0,0,0-.4.981,1.068,1.068,0,0,0,.366.837,1.413,1.413,0,0,0,.974.325,1.8,1.8,0,0,0,1.377-.584,2.088,2.088,0,0,0,.543-1.48Zm6.48,3.473a2.161,2.161,0,0,1-1.046.219q-1.839,0-1.839-2.051V27.957h-1.2V27h1.2V25.291l1.121-.362V27H30.16v.957H28.4V31.9a1.635,1.635,0,0,0,.239,1,.955.955,0,0,0,.793.3,1.179,1.179,0,0,0,.731-.232Zm7.123-3.151H32.341a2.618,2.618,0,0,0,.629,1.8,2.168,2.168,0,0,0,1.654.636,3.439,3.439,0,0,0,2.174-.779v1.053a4.063,4.063,0,0,1-2.44.67,2.959,2.959,0,0,1-2.331-.954,3.9,3.9,0,0,1-.848-2.683,3.828,3.828,0,0,1,.926-2.663,2.97,2.97,0,0,1,2.3-1.029,2.632,2.632,0,0,1,2.126.889,3.705,3.705,0,0,1,.752,2.468Zm-1.148-.95a2.281,2.281,0,0,0-.468-1.511,1.6,1.6,0,0,0-1.282-.54,1.811,1.811,0,0,0-1.347.567,2.575,2.575,0,0,0-.684,1.483ZM47.824,34H46.7V32.906h-.027a2.347,2.347,0,0,1-2.153,1.258,2.3,2.3,0,0,1-1.637-.554,1.918,1.918,0,0,1-.591-1.47q0-1.962,2.311-2.283l2.1-.294q0-1.784-1.442-1.784a3.446,3.446,0,0,0-2.283.861V27.492a4.338,4.338,0,0,1,2.379-.656q2.468,0,2.468,2.611ZM46.7,30.459l-1.688.232a2.741,2.741,0,0,0-1.176.386,1.114,1.114,0,0,0-.4.981,1.068,1.068,0,0,0,.366.837,1.413,1.413,0,0,0,.974.325,1.8,1.8,0,0,0,1.377-.584,2.088,2.088,0,0,0,.543-1.48Zm8.217,2.529h-.027V37.22H53.771V27h1.121v1.23h.027a2.651,2.651,0,0,1,2.42-1.395,2.563,2.563,0,0,1,2.112.94,3.893,3.893,0,0,1,.759,2.519,4.339,4.339,0,0,1-.854,2.813,2.845,2.845,0,0,1-2.338,1.056A2.342,2.342,0,0,1,54.92,32.988Zm-.027-2.823v.978a2.081,2.081,0,0,0,.564,1.473,2.012,2.012,0,0,0,3.028-.174,3.575,3.575,0,0,0,.578-2.167,2.822,2.822,0,0,0-.54-1.832,1.787,1.787,0,0,0-1.463-.663,1.986,1.986,0,0,0-1.572.68A2.5,2.5,0,0,0,54.893,30.165Zm12.735.615H62.686a2.618,2.618,0,0,0,.629,1.8,2.168,2.168,0,0,0,1.654.636,3.439,3.439,0,0,0,2.174-.779v1.053a4.063,4.063,0,0,1-2.44.67,2.959,2.959,0,0,1-2.331-.954,3.9,3.9,0,0,1-.848-2.683,3.828,3.828,0,0,1,.926-2.663,2.97,2.97,0,0,1,2.3-1.029,2.632,2.632,0,0,1,2.126.889,3.705,3.705,0,0,1,.752,2.468Zm-1.148-.95a2.281,2.281,0,0,0-.468-1.511,1.6,1.6,0,0,0-1.282-.54,1.811,1.811,0,0,0-1.347.567A2.575,2.575,0,0,0,62.7,29.83Zm6.494-1.7a1.371,1.371,0,0,0-.848-.226,1.431,1.431,0,0,0-1.2.677,3.129,3.129,0,0,0-.482,1.846V34H69.323V27h1.121v1.442h.027a2.444,2.444,0,0,1,.731-1.152,1.668,1.668,0,0,1,1.1-.414,1.83,1.83,0,0,1,.67.1Zm.793,5.612v-1.2a3.318,3.318,0,0,0,2.017.677q1.477,0,1.477-.984a.854.854,0,0,0-.126-.475,1.26,1.26,0,0,0-.342-.345,2.631,2.631,0,0,0-.506-.27q-.291-.12-.625-.25a8.056,8.056,0,0,1-.817-.373,2.468,2.468,0,0,1-.588-.424,1.577,1.577,0,0,1-.355-.537,1.9,1.9,0,0,1-.12-.7,1.673,1.673,0,0,1,.226-.872,2,2,0,0,1,.6-.636,2.805,2.805,0,0,1,.858-.386,3.805,3.805,0,0,1,.995-.13,4.016,4.016,0,0,1,1.627.314v1.135a3.171,3.171,0,0,0-1.777-.506,2.078,2.078,0,0,0-.567.072,1.389,1.389,0,0,0-.434.2.932.932,0,0,0-.28.311.819.819,0,0,0-.1.4.959.959,0,0,0,.1.458,1.008,1.008,0,0,0,.291.328,2.221,2.221,0,0,0,.465.26q.273.116.622.253a8.657,8.657,0,0,1,.834.366,2.86,2.86,0,0,1,.629.424,1.656,1.656,0,0,1,.4.543,1.753,1.753,0,0,1,.14.731,1.725,1.725,0,0,1-.229.9,1.963,1.963,0,0,1-.612.636,2.8,2.8,0,0,1-.882.376,4.354,4.354,0,0,1-1.046.123A3.971,3.971,0,0,1,73.767,33.747Zm9.29.417a3.247,3.247,0,0,1-2.478-.981,3.633,3.633,0,0,1-.926-2.6,3.785,3.785,0,0,1,.964-2.755,3.465,3.465,0,0,1,2.6-.991,3.14,3.14,0,0,1,2.444.964,3.822,3.822,0,0,1,.878,2.673,3.761,3.761,0,0,1-.947,2.683A3.318,3.318,0,0,1,83.057,34.164Zm.082-6.385a2.132,2.132,0,0,0-1.709.735,3.018,3.018,0,0,0-.629,2.027,2.854,2.854,0,0,0,.636,1.962,2.161,2.161,0,0,0,1.7.718,2.049,2.049,0,0,0,1.671-.7,3.055,3.055,0,0,0,.584-2,3.108,3.108,0,0,0-.584-2.023A2.04,2.04,0,0,0,83.139,27.779ZM94.145,34H93.023V30.008q0-2.229-1.627-2.229a1.765,1.765,0,0,0-1.391.632,2.344,2.344,0,0,0-.55,1.6V34H88.334V27h1.121v1.162h.027a2.526,2.526,0,0,1,2.3-1.326,2.142,2.142,0,0,1,1.757.742,3.3,3.3,0,0,1,.608,2.143Zm7.123,0h-1.121V32.906h-.027a2.347,2.347,0,0,1-2.153,1.258,2.3,2.3,0,0,1-1.637-.554,1.918,1.918,0,0,1-.591-1.47q0-1.962,2.311-2.283l2.1-.294q0-1.784-1.442-1.784a3.446,3.446,0,0,0-2.283.861V27.492a4.338,4.338,0,0,1,2.379-.656q2.468,0,2.468,2.611Zm-1.121-3.541-1.688.232a2.741,2.741,0,0,0-1.176.386,1.114,1.114,0,0,0-.4.981,1.068,1.068,0,0,0,.366.837,1.413,1.413,0,0,0,.974.325,1.8,1.8,0,0,0,1.377-.584,2.088,2.088,0,0,0,.543-1.48ZM104.5,34H103.38V23.637H104.5Zm2.844-8.777a.71.71,0,0,1-.513-.205.692.692,0,0,1-.212-.52.718.718,0,0,1,.725-.731.724.724,0,0,1,.523.208.73.73,0,0,1,0,1.036A.718.718,0,0,1,107.345,25.223ZM107.892,34h-1.121V27h1.121Zm7.15-6.679L110.9,33.043H115V34h-5.749v-.349l4.143-5.694h-3.753V27h5.4Zm7.075,3.459h-4.942a2.618,2.618,0,0,0,.629,1.8,2.168,2.168,0,0,0,1.654.636,3.439,3.439,0,0,0,2.174-.779v1.053a4.063,4.063,0,0,1-2.44.67,2.959,2.959,0,0,1-2.331-.954,3.9,3.9,0,0,1-.848-2.683,3.828,3.828,0,0,1,.926-2.663,2.97,2.97,0,0,1,2.3-1.029,2.632,2.632,0,0,1,2.126.889,3.705,3.705,0,0,1,.752,2.468Zm-1.148-.95a2.281,2.281,0,0,0-.468-1.511,1.6,1.6,0,0,0-1.282-.54,1.811,1.811,0,0,0-1.347.567,2.575,2.575,0,0,0-.684,1.483ZM129.787,34h-1.121V32.811h-.027a2.588,2.588,0,0,1-2.406,1.354,2.615,2.615,0,0,1-2.109-.94,3.856,3.856,0,0,1-.79-2.56,4.2,4.2,0,0,1,.875-2.782,2.886,2.886,0,0,1,2.331-1.046,2.244,2.244,0,0,1,2.1,1.135h.027V23.637h1.121Zm-1.121-3.165V29.8a2,2,0,0,0-.561-1.436,1.88,1.88,0,0,0-1.422-.588,1.936,1.936,0,0,0-1.613.752,3.3,3.3,0,0,0-.588,2.078,2.964,2.964,0,0,0,.564,1.911,1.843,1.843,0,0,0,1.514.7,1.915,1.915,0,0,0,1.521-.677A2.521,2.521,0,0,0,128.666,30.835Zm12,2.844a3.643,3.643,0,0,1-1.914.485,3.169,3.169,0,0,1-2.417-.974,3.53,3.53,0,0,1-.919-2.526,3.881,3.881,0,0,1,.991-2.779,3.468,3.468,0,0,1,2.646-1.049,3.682,3.682,0,0,1,1.627.342v1.148a2.85,2.85,0,0,0-1.668-.547,2.254,2.254,0,0,0-1.76.769,2.918,2.918,0,0,0-.687,2.02,2.779,2.779,0,0,0,.646,1.941,2.227,2.227,0,0,0,1.733.711,2.81,2.81,0,0,0,1.723-.608Zm4.621.485a3.247,3.247,0,0,1-2.478-.981,3.634,3.634,0,0,1-.926-2.6,3.785,3.785,0,0,1,.964-2.755,3.465,3.465,0,0,1,2.6-.991,3.14,3.14,0,0,1,2.444.964,3.822,3.822,0,0,1,.878,2.673,3.761,3.761,0,0,1-.947,2.683A3.318,3.318,0,0,1,145.284,34.164Zm.082-6.385a2.132,2.132,0,0,0-1.709.735,3.018,3.018,0,0,0-.629,2.027,2.854,2.854,0,0,0,.636,1.962,2.161,2.161,0,0,0,1.7.718,2.049,2.049,0,0,0,1.671-.7,3.055,3.055,0,0,0,.584-2,3.108,3.108,0,0,0-.584-2.023A2.04,2.04,0,0,0,145.366,27.779ZM160.5,34H159.38V29.98a3.032,3.032,0,0,0-.359-1.682,1.361,1.361,0,0,0-1.207-.52,1.494,1.494,0,0,0-1.22.656,2.511,2.511,0,0,0-.5,1.572V34h-1.121V29.844q0-2.064-1.593-2.064a1.475,1.475,0,0,0-1.217.619,2.557,2.557,0,0,0-.479,1.61V34h-1.121V27h1.121v1.107h.027a2.378,2.378,0,0,1,2.174-1.271,2.022,2.022,0,0,1,1.982,1.449,2.5,2.5,0,0,1,2.324-1.449q2.311,0,2.311,2.851Zm3.268-1.012h-.027V37.22H162.62V27h1.121v1.23h.027a2.651,2.651,0,0,1,2.42-1.395,2.563,2.563,0,0,1,2.112.94,3.893,3.893,0,0,1,.759,2.519,4.339,4.339,0,0,1-.854,2.813,2.845,2.845,0,0,1-2.338,1.056A2.342,2.342,0,0,1,163.769,32.988Zm-.027-2.823v.978a2.081,2.081,0,0,0,.564,1.473,2.012,2.012,0,0,0,3.028-.174,3.575,3.575,0,0,0,.578-2.167,2.822,2.822,0,0,0-.54-1.832,1.787,1.787,0,0,0-1.463-.663,1.986,1.986,0,0,0-1.572.68A2.5,2.5,0,0,0,163.741,30.165Zm12.735.615h-4.942a2.618,2.618,0,0,0,.629,1.8,2.168,2.168,0,0,0,1.654.636,3.439,3.439,0,0,0,2.174-.779v1.053a4.063,4.063,0,0,1-2.44.67,2.959,2.959,0,0,1-2.331-.954,3.9,3.9,0,0,1-.848-2.683,3.828,3.828,0,0,1,.926-2.663,2.97,2.97,0,0,1,2.3-1.029,2.632,2.632,0,0,1,2.126.889,3.705,3.705,0,0,1,.752,2.468Zm-1.148-.95a2.281,2.281,0,0,0-.468-1.511,1.6,1.6,0,0,0-1.282-.54,1.811,1.811,0,0,0-1.347.567,2.575,2.575,0,0,0-.684,1.483ZM183.982,34h-1.121V30.008q0-2.229-1.627-2.229a1.765,1.765,0,0,0-1.391.632,2.344,2.344,0,0,0-.55,1.6V34h-1.121V27h1.121v1.162h.027a2.526,2.526,0,0,1,2.3-1.326,2.142,2.142,0,0,1,1.757.742,3.3,3.3,0,0,1,.608,2.143Zm1.688-.253v-1.2a3.318,3.318,0,0,0,2.017.677q1.477,0,1.477-.984a.854.854,0,0,0-.126-.475,1.26,1.26,0,0,0-.342-.345,2.631,2.631,0,0,0-.506-.27q-.291-.12-.625-.25a8.056,8.056,0,0,1-.817-.373,2.468,2.468,0,0,1-.588-.424,1.577,1.577,0,0,1-.355-.537,1.9,1.9,0,0,1-.12-.7,1.673,1.673,0,0,1,.226-.872,2,2,0,0,1,.6-.636,2.805,2.805,0,0,1,.858-.386,3.805,3.805,0,0,1,.995-.13,4.016,4.016,0,0,1,1.627.314v1.135a3.171,3.171,0,0,0-1.777-.506,2.078,2.078,0,0,0-.567.072,1.389,1.389,0,0,0-.434.2.932.932,0,0,0-.28.311.819.819,0,0,0-.1.4.959.959,0,0,0,.1.458,1.008,1.008,0,0,0,.291.328,2.221,2.221,0,0,0,.465.26q.273.116.622.253a8.658,8.658,0,0,1,.834.366,2.86,2.86,0,0,1,.629.424,1.656,1.656,0,0,1,.4.543,1.753,1.753,0,0,1,.14.731,1.725,1.725,0,0,1-.229.9,1.963,1.963,0,0,1-.612.636,2.8,2.8,0,0,1-.882.376,4.354,4.354,0,0,1-1.046.123A3.971,3.971,0,0,1,185.671,33.747ZM197.046,34h-1.121V32.906H195.9a2.347,2.347,0,0,1-2.153,1.258,2.3,2.3,0,0,1-1.637-.554,1.918,1.918,0,0,1-.591-1.47q0-1.962,2.311-2.283l2.1-.294q0-1.784-1.442-1.784a3.446,3.446,0,0,0-2.283.861V27.492a4.338,4.338,0,0,1,2.379-.656q2.468,0,2.468,2.611Zm-1.121-3.541-1.688.232a2.741,2.741,0,0,0-1.176.386,1.114,1.114,0,0,0-.4.981,1.068,1.068,0,0,0,.366.837,1.413,1.413,0,0,0,.974.325,1.8,1.8,0,0,0,1.377-.584,2.088,2.088,0,0,0,.543-1.48Zm6.48,3.473a2.162,2.162,0,0,1-1.046.219q-1.839,0-1.839-2.051V27.957h-1.2V27h1.2V25.291l1.121-.362V27h1.764v.957h-1.764V31.9a1.635,1.635,0,0,0,.239,1,.955.955,0,0,0,.793.3,1.179,1.179,0,0,0,.731-.232Zm2.071-8.709a.71.71,0,0,1-.513-.205.692.692,0,0,1-.212-.52.718.718,0,0,1,.725-.731.724.724,0,0,1,.523.208.73.73,0,0,1,0,1.036A.718.718,0,0,1,204.477,25.223ZM205.023,34H203.9V27h1.121Zm5.2.164a3.247,3.247,0,0,1-2.478-.981,3.634,3.634,0,0,1-.926-2.6,3.785,3.785,0,0,1,.964-2.755,3.465,3.465,0,0,1,2.6-.991,3.14,3.14,0,0,1,2.444.964,3.822,3.822,0,0,1,.878,2.673,3.761,3.761,0,0,1-.947,2.683A3.318,3.318,0,0,1,210.219,34.164Zm.082-6.385a2.132,2.132,0,0,0-1.709.735,3.018,3.018,0,0,0-.629,2.027A2.854,2.854,0,0,0,208.6,32.5a2.161,2.161,0,0,0,1.7.718,2.049,2.049,0,0,0,1.671-.7,3.055,3.055,0,0,0,.584-2,3.108,3.108,0,0,0-.584-2.023A2.04,2.04,0,0,0,210.3,27.779ZM221.307,34h-1.121V30.008q0-2.229-1.627-2.229a1.765,1.765,0,0,0-1.391.632,2.344,2.344,0,0,0-.55,1.6V34H215.5V27h1.121v1.162h.027a2.526,2.526,0,0,1,2.3-1.326,2.142,2.142,0,0,1,1.757.742,3.3,3.3,0,0,1,.608,2.143Zm5.523-.253v-1.2a3.318,3.318,0,0,0,2.017.677q1.477,0,1.477-.984a.854.854,0,0,0-.126-.475,1.26,1.26,0,0,0-.342-.345,2.631,2.631,0,0,0-.506-.27q-.291-.12-.625-.25a8.056,8.056,0,0,1-.817-.373,2.468,2.468,0,0,1-.588-.424,1.577,1.577,0,0,1-.355-.537,1.9,1.9,0,0,1-.12-.7,1.673,1.673,0,0,1,.226-.872,2,2,0,0,1,.6-.636,2.805,2.805,0,0,1,.858-.386,3.805,3.805,0,0,1,.995-.13,4.016,4.016,0,0,1,1.627.314v1.135a3.171,3.171,0,0,0-1.777-.506,2.078,2.078,0,0,0-.567.072,1.389,1.389,0,0,0-.434.2.932.932,0,0,0-.28.311.819.819,0,0,0-.1.4.959.959,0,0,0,.1.458,1.008,1.008,0,0,0,.291.328,2.221,2.221,0,0,0,.465.26q.273.116.622.253a8.658,8.658,0,0,1,.834.366,2.86,2.86,0,0,1,.629.424,1.656,1.656,0,0,1,.4.543,1.753,1.753,0,0,1,.14.731,1.725,1.725,0,0,1-.229.9,1.963,1.963,0,0,1-.612.636,2.8,2.8,0,0,1-.882.376,4.354,4.354,0,0,1-1.046.123A3.971,3.971,0,0,1,226.83,33.747Zm9.611.185a2.162,2.162,0,0,1-1.046.219q-1.839,0-1.839-2.051V27.957h-1.2V27h1.2V25.291l1.121-.362V27h1.764v.957h-1.764V31.9a1.635,1.635,0,0,0,.239,1,.955.955,0,0,0,.793.3,1.179,1.179,0,0,0,.731-.232Zm6.508.068h-1.121V32.906H241.8a2.347,2.347,0,0,1-2.153,1.258,2.3,2.3,0,0,1-1.637-.554,1.918,1.918,0,0,1-.591-1.47q0-1.962,2.311-2.283l2.1-.294q0-1.784-1.442-1.784a3.446,3.446,0,0,0-2.283.861V27.492a4.338,4.338,0,0,1,2.379-.656q2.468,0,2.468,2.611Zm-1.121-3.541-1.688.232a2.741,2.741,0,0,0-1.176.386,1.114,1.114,0,0,0-.4.981,1.068,1.068,0,0,0,.366.837,1.413,1.413,0,0,0,.974.325,1.8,1.8,0,0,0,1.377-.584,2.088,2.088,0,0,0,.543-1.48Zm6.48,3.473a2.162,2.162,0,0,1-1.046.219q-1.839,0-1.839-2.051V27.957h-1.2V27h1.2V25.291l1.121-.362V27h1.764v.957h-1.764V31.9a1.635,1.635,0,0,0,.239,1,.955.955,0,0,0,.793.3,1.179,1.179,0,0,0,.731-.232Zm7.123-3.151h-4.942a2.618,2.618,0,0,0,.629,1.8,2.168,2.168,0,0,0,1.654.636,3.439,3.439,0,0,0,2.174-.779v1.053a4.063,4.063,0,0,1-2.44.67,2.959,2.959,0,0,1-2.331-.954,3.9,3.9,0,0,1-.848-2.683,3.828,3.828,0,0,1,.926-2.663,2.97,2.97,0,0,1,2.3-1.029,2.632,2.632,0,0,1,2.126.889,3.705,3.705,0,0,1,.752,2.468Zm-1.148-.95a2.281,2.281,0,0,0-.468-1.511,1.6,1.6,0,0,0-1.282-.54,1.811,1.811,0,0,0-1.347.567,2.575,2.575,0,0,0-.684,1.483ZM267.066,34h-1.121V29.98a3.032,3.032,0,0,0-.359-1.682,1.361,1.361,0,0,0-1.207-.52,1.494,1.494,0,0,0-1.22.656,2.511,2.511,0,0,0-.5,1.572V34h-1.121V29.844q0-2.064-1.593-2.064a1.475,1.475,0,0,0-1.217.619,2.557,2.557,0,0,0-.479,1.61V34h-1.121V27h1.121v1.107h.027a2.378,2.378,0,0,1,2.174-1.271,2.022,2.022,0,0,1,1.982,1.449,2.5,2.5,0,0,1,2.324-1.449q2.311,0,2.311,2.851Zm7.745-3.22h-4.942a2.618,2.618,0,0,0,.629,1.8,2.168,2.168,0,0,0,1.654.636,3.439,3.439,0,0,0,2.174-.779v1.053a4.063,4.063,0,0,1-2.44.67,2.959,2.959,0,0,1-2.331-.954,3.9,3.9,0,0,1-.848-2.683,3.828,3.828,0,0,1,.926-2.663,2.97,2.97,0,0,1,2.3-1.029,2.632,2.632,0,0,1,2.126.889,3.705,3.705,0,0,1,.752,2.468Zm-1.148-.95a2.281,2.281,0,0,0-.468-1.511,1.6,1.6,0,0,0-1.282-.54,1.811,1.811,0,0,0-1.347.567,2.575,2.575,0,0,0-.684,1.483ZM282.317,34H281.2V30.008q0-2.229-1.627-2.229a1.765,1.765,0,0,0-1.391.632,2.344,2.344,0,0,0-.55,1.6V34h-1.121V27h1.121v1.162h.027a2.526,2.526,0,0,1,2.3-1.326,2.142,2.142,0,0,1,1.757.742,3.3,3.3,0,0,1,.608,2.143Zm5.359-.068a2.161,2.161,0,0,1-1.046.219q-1.839,0-1.839-2.051V27.957h-1.2V27h1.2V25.291l1.121-.362V27h1.764v.957h-1.764V31.9a1.635,1.635,0,0,0,.239,1,.955.955,0,0,0,.793.3,1.179,1.179,0,0,0,.731-.232ZM4.594,43.621a1.493,1.493,0,0,0-.745-.185q-1.176,0-1.176,1.483V46H4.313v.957H2.673V53H1.559V46.957H.362V46h1.2V44.865a2.358,2.358,0,0,1,.636-1.74,2.146,2.146,0,0,1,1.586-.639,2.2,2.2,0,0,1,.813.123Zm3.849,9.543a3.247,3.247,0,0,1-2.478-.981,3.634,3.634,0,0,1-.926-2.6A3.785,3.785,0,0,1,6,46.827a3.465,3.465,0,0,1,2.6-.991,3.14,3.14,0,0,1,2.444.964,3.822,3.822,0,0,1,.878,2.673,3.761,3.761,0,0,1-.947,2.683A3.318,3.318,0,0,1,8.442,53.164Zm.082-6.385a2.132,2.132,0,0,0-1.709.735,3.018,3.018,0,0,0-.629,2.027A2.854,2.854,0,0,0,6.822,51.5a2.161,2.161,0,0,0,1.7.718,2.049,2.049,0,0,0,1.671-.7,3.055,3.055,0,0,0,.584-2A3.108,3.108,0,0,0,10.2,47.49,2.04,2.04,0,0,0,8.524,46.779Zm8.846.355a1.371,1.371,0,0,0-.848-.226,1.431,1.431,0,0,0-1.2.677,3.129,3.129,0,0,0-.482,1.846V53H13.72V46h1.121v1.442h.027a2.444,2.444,0,0,1,.731-1.152,1.668,1.668,0,0,1,1.1-.414,1.83,1.83,0,0,1,.67.1ZM27.993,46l-3.22,8.121q-.861,2.174-2.42,2.174a2.565,2.565,0,0,1-.731-.089v-1a2.078,2.078,0,0,0,.663.123,1.374,1.374,0,0,0,1.271-1.012l.561-1.326L21.383,46h1.244l1.894,5.387q.034.1.144.533h.041q.034-.164.137-.52L26.831,46Zm4.129,7.164a3.247,3.247,0,0,1-2.478-.981,3.633,3.633,0,0,1-.926-2.6,3.785,3.785,0,0,1,.964-2.755,3.465,3.465,0,0,1,2.6-.991,3.14,3.14,0,0,1,2.444.964,3.822,3.822,0,0,1,.878,2.673,3.761,3.761,0,0,1-.947,2.683A3.318,3.318,0,0,1,32.122,53.164Zm.082-6.385a2.132,2.132,0,0,0-1.709.735,3.018,3.018,0,0,0-.629,2.027A2.854,2.854,0,0,0,30.5,51.5a2.161,2.161,0,0,0,1.7.718,2.049,2.049,0,0,0,1.671-.7,3.055,3.055,0,0,0,.584-2,3.108,3.108,0,0,0-.584-2.023A2.04,2.04,0,0,0,32.2,46.779ZM43.06,53H41.938V51.893h-.027a2.3,2.3,0,0,1-2.16,1.271q-2.5,0-2.5-2.98V46h1.114v4.006q0,2.215,1.7,2.215a1.715,1.715,0,0,0,1.35-.6,2.315,2.315,0,0,0,.53-1.583V46H43.06Zm5.913-5.865a1.371,1.371,0,0,0-.848-.226,1.431,1.431,0,0,0-1.2.677,3.129,3.129,0,0,0-.482,1.846V53H45.322V46h1.121v1.442h.027a2.444,2.444,0,0,1,.731-1.152,1.668,1.668,0,0,1,1.1-.414,1.83,1.83,0,0,1,.67.1ZM59.65,49.78H54.708a2.618,2.618,0,0,0,.629,1.8,2.168,2.168,0,0,0,1.654.636,3.439,3.439,0,0,0,2.174-.779v1.053a4.063,4.063,0,0,1-2.44.67,2.959,2.959,0,0,1-2.331-.954,3.9,3.9,0,0,1-.848-2.683,3.828,3.828,0,0,1,.926-2.663,2.97,2.97,0,0,1,2.3-1.029,2.632,2.632,0,0,1,2.126.889,3.705,3.705,0,0,1,.752,2.468ZM58.5,48.83a2.281,2.281,0,0,0-.468-1.511,1.6,1.6,0,0,0-1.282-.54,1.811,1.811,0,0,0-1.347.567,2.575,2.575,0,0,0-.684,1.483ZM71.285,53H70.164V48.98a3.032,3.032,0,0,0-.359-1.682,1.361,1.361,0,0,0-1.207-.52,1.494,1.494,0,0,0-1.22.656,2.511,2.511,0,0,0-.5,1.572V53H65.755V48.844q0-2.064-1.593-2.064a1.475,1.475,0,0,0-1.217.619,2.557,2.557,0,0,0-.479,1.61V53H61.346V46h1.121v1.107h.027a2.378,2.378,0,0,1,2.174-1.271,2.022,2.022,0,0,1,1.982,1.449,2.5,2.5,0,0,1,2.324-1.449q2.311,0,2.311,2.851Zm3.268-1.012h-.027V56.22H73.4V46h1.121v1.23h.027a2.651,2.651,0,0,1,2.42-1.395,2.563,2.563,0,0,1,2.112.94,3.893,3.893,0,0,1,.759,2.519,4.339,4.339,0,0,1-.854,2.813,2.845,2.845,0,0,1-2.338,1.056A2.342,2.342,0,0,1,74.553,51.988Zm-.027-2.823v.978a2.081,2.081,0,0,0,.564,1.473,2.012,2.012,0,0,0,3.028-.174,3.575,3.575,0,0,0,.578-2.167,2.822,2.822,0,0,0-.54-1.832,1.787,1.787,0,0,0-1.463-.663,1.986,1.986,0,0,0-1.572.68A2.5,2.5,0,0,0,74.525,49.165ZM82.756,53H81.635V42.637h1.121Zm5.2.164a3.247,3.247,0,0,1-2.478-.981,3.633,3.633,0,0,1-.926-2.6,3.785,3.785,0,0,1,.964-2.755,3.465,3.465,0,0,1,2.6-.991,3.14,3.14,0,0,1,2.444.964,3.822,3.822,0,0,1,.878,2.673,3.761,3.761,0,0,1-.947,2.683A3.318,3.318,0,0,1,87.951,53.164Zm.082-6.385a2.132,2.132,0,0,0-1.709.735,3.018,3.018,0,0,0-.629,2.027,2.854,2.854,0,0,0,.636,1.962,2.161,2.161,0,0,0,1.7.718,2.049,2.049,0,0,0,1.671-.7,3.055,3.055,0,0,0,.584-2A3.108,3.108,0,0,0,89.7,47.49,2.04,2.04,0,0,0,88.033,46.779ZM98.8,46l-3.22,8.121q-.861,2.174-2.42,2.174a2.565,2.565,0,0,1-.731-.089v-1a2.078,2.078,0,0,0,.663.123,1.374,1.374,0,0,0,1.271-1.012l.561-1.326L92.189,46h1.244l1.894,5.387q.034.1.144.533h.041q.034-.164.137-.52L97.638,46Zm6.829,3.78h-4.942a2.618,2.618,0,0,0,.629,1.8,2.168,2.168,0,0,0,1.654.636,3.439,3.439,0,0,0,2.174-.779v1.053a4.063,4.063,0,0,1-2.44.67,2.959,2.959,0,0,1-2.331-.954,3.9,3.9,0,0,1-.848-2.683,3.828,3.828,0,0,1,.926-2.663,2.97,2.97,0,0,1,2.3-1.029,2.632,2.632,0,0,1,2.126.889,3.705,3.705,0,0,1,.752,2.468Zm-1.148-.95a2.281,2.281,0,0,0-.468-1.511,1.6,1.6,0,0,0-1.282-.54,1.811,1.811,0,0,0-1.347.567,2.575,2.575,0,0,0-.684,1.483Zm8.47.95h-4.942a2.618,2.618,0,0,0,.629,1.8,2.168,2.168,0,0,0,1.654.636,3.439,3.439,0,0,0,2.174-.779v1.053a4.063,4.063,0,0,1-2.44.67,2.959,2.959,0,0,1-2.331-.954,3.9,3.9,0,0,1-.848-2.683,3.828,3.828,0,0,1,.926-2.663,2.97,2.97,0,0,1,2.3-1.029,2.632,2.632,0,0,1,2.126.889,3.705,3.705,0,0,1,.752,2.468Zm-1.148-.95a2.281,2.281,0,0,0-.468-1.511,1.6,1.6,0,0,0-1.282-.54,1.811,1.811,0,0,0-1.347.567,2.575,2.575,0,0,0-.684,1.483Zm2.42,3.917v-1.2a3.318,3.318,0,0,0,2.017.677q1.477,0,1.477-.984a.854.854,0,0,0-.126-.475,1.26,1.26,0,0,0-.342-.345,2.631,2.631,0,0,0-.506-.27q-.291-.12-.625-.25a8.056,8.056,0,0,1-.817-.373,2.468,2.468,0,0,1-.588-.424,1.577,1.577,0,0,1-.355-.537,1.9,1.9,0,0,1-.12-.7,1.673,1.673,0,0,1,.226-.872,2,2,0,0,1,.6-.636,2.805,2.805,0,0,1,.858-.386,3.805,3.805,0,0,1,.995-.13,4.016,4.016,0,0,1,1.627.314v1.135a3.171,3.171,0,0,0-1.777-.506,2.078,2.078,0,0,0-.567.072,1.389,1.389,0,0,0-.434.2.932.932,0,0,0-.28.311.819.819,0,0,0-.1.4.959.959,0,0,0,.1.458,1.008,1.008,0,0,0,.291.328,2.221,2.221,0,0,0,.465.26q.273.116.622.253a8.657,8.657,0,0,1,.834.366,2.86,2.86,0,0,1,.629.424,1.656,1.656,0,0,1,.4.543,1.753,1.753,0,0,1,.14.731,1.725,1.725,0,0,1-.229.9,1.963,1.963,0,0,1-.612.636,2.8,2.8,0,0,1-.882.376,4.354,4.354,0,0,1-1.046.123A3.971,3.971,0,0,1,114.222,52.747ZM130.081,53H128.96V51.893h-.027a2.3,2.3,0,0,1-2.16,1.271q-2.5,0-2.5-2.98V46h1.114v4.006q0,2.215,1.7,2.215a1.715,1.715,0,0,0,1.35-.6,2.315,2.315,0,0,0,.53-1.583V46h1.121Zm1.839-.253v-1.2a3.318,3.318,0,0,0,2.017.677q1.477,0,1.477-.984a.854.854,0,0,0-.126-.475,1.26,1.26,0,0,0-.342-.345,2.631,2.631,0,0,0-.506-.27q-.291-.12-.625-.25a8.056,8.056,0,0,1-.817-.373,2.468,2.468,0,0,1-.588-.424,1.577,1.577,0,0,1-.355-.537,1.9,1.9,0,0,1-.12-.7,1.673,1.673,0,0,1,.226-.872,2,2,0,0,1,.6-.636,2.805,2.805,0,0,1,.858-.386,3.805,3.805,0,0,1,.995-.13,4.016,4.016,0,0,1,1.627.314v1.135a3.171,3.171,0,0,0-1.777-.506,2.078,2.078,0,0,0-.567.072,1.389,1.389,0,0,0-.434.2.932.932,0,0,0-.28.311.819.819,0,0,0-.1.4.959.959,0,0,0,.1.458,1.008,1.008,0,0,0,.291.328,2.221,2.221,0,0,0,.465.26q.273.116.622.253a8.658,8.658,0,0,1,.834.366,2.86,2.86,0,0,1,.629.424,1.656,1.656,0,0,1,.4.543,1.753,1.753,0,0,1,.14.731,1.725,1.725,0,0,1-.229.9,1.963,1.963,0,0,1-.612.636,2.8,2.8,0,0,1-.882.376,4.354,4.354,0,0,1-1.046.123A3.971,3.971,0,0,1,131.92,52.747Zm6.938-8.524a.71.71,0,0,1-.513-.205.692.692,0,0,1-.212-.52.718.718,0,0,1,.725-.731.724.724,0,0,1,.523.208.73.73,0,0,1,0,1.036A.718.718,0,0,1,138.858,44.223ZM139.405,53h-1.121V46h1.121Zm8.08,0h-1.121V49.008q0-2.229-1.627-2.229a1.765,1.765,0,0,0-1.391.632,2.344,2.344,0,0,0-.55,1.6V53h-1.121V46H142.8v1.162h.027a2.526,2.526,0,0,1,2.3-1.326,2.142,2.142,0,0,1,1.757.742,3.3,3.3,0,0,1,.608,2.143Zm8.087-.561q0,3.855-3.691,3.855a4.956,4.956,0,0,1-2.27-.492V54.682a4.661,4.661,0,0,0,2.256.656q2.584,0,2.584-2.748v-.766h-.027a2.832,2.832,0,0,1-4.508.407,3.73,3.73,0,0,1-.8-2.505,4.358,4.358,0,0,1,.858-2.837,2.866,2.866,0,0,1,2.348-1.053,2.282,2.282,0,0,1,2.1,1.135h.027V46h1.121Zm-1.121-2.6V48.8a2,2,0,0,0-.564-1.429,1.857,1.857,0,0,0-1.4-.595,1.947,1.947,0,0,0-1.627.755,3.372,3.372,0,0,0-.588,2.116,2.894,2.894,0,0,0,.564,1.87,1.822,1.822,0,0,0,1.494.7,1.951,1.951,0,0,0,1.535-.67A2.5,2.5,0,0,0,154.451,49.835Zm10.473,3.1a2.162,2.162,0,0,1-1.046.219q-1.839,0-1.839-2.051V46.957h-1.2V46h1.2V44.291l1.121-.362V46h1.764v.957H163.16V50.9a1.635,1.635,0,0,0,.239,1,.955.955,0,0,0,.793.3,1.179,1.179,0,0,0,.731-.232Zm7.308.068H171.11V48.967q0-2.187-1.627-2.187a1.774,1.774,0,0,0-1.381.632,2.356,2.356,0,0,0-.561,1.624V53h-1.121V42.637h1.121v4.525h.027a2.546,2.546,0,0,1,2.3-1.326q2.365,0,2.365,2.851Zm7.738-3.22h-4.942a2.618,2.618,0,0,0,.629,1.8,2.168,2.168,0,0,0,1.654.636,3.439,3.439,0,0,0,2.174-.779v1.053a4.063,4.063,0,0,1-2.44.67,2.959,2.959,0,0,1-2.331-.954,3.9,3.9,0,0,1-.848-2.683,3.828,3.828,0,0,1,.926-2.663,2.97,2.97,0,0,1,2.3-1.029,2.632,2.632,0,0,1,2.126.889,3.705,3.705,0,0,1,.752,2.468Zm-1.148-.95a2.281,2.281,0,0,0-.468-1.511,1.6,1.6,0,0,0-1.282-.54,1.811,1.811,0,0,0-1.347.567,2.575,2.575,0,0,0-.684,1.483Zm7.827,3.158h-.027V53H185.5V42.637h1.121V47.23h.027a2.651,2.651,0,0,1,2.42-1.395,2.566,2.566,0,0,1,2.109.94,3.881,3.881,0,0,1,.762,2.519,4.339,4.339,0,0,1-.854,2.813,2.845,2.845,0,0,1-2.338,1.056A2.3,2.3,0,0,1,186.648,51.988Zm-.027-2.823v.978a2.081,2.081,0,0,0,.564,1.473,2.012,2.012,0,0,0,3.028-.174,3.575,3.575,0,0,0,.578-2.167,2.822,2.822,0,0,0-.54-1.832,1.787,1.787,0,0,0-1.463-.663,1.986,1.986,0,0,0-1.572.68A2.5,2.5,0,0,0,186.621,49.165Zm12.735.615h-4.942a2.618,2.618,0,0,0,.629,1.8,2.168,2.168,0,0,0,1.654.636,3.439,3.439,0,0,0,2.174-.779v1.053a4.063,4.063,0,0,1-2.44.67,2.959,2.959,0,0,1-2.331-.954,3.9,3.9,0,0,1-.848-2.683,3.828,3.828,0,0,1,.926-2.663,2.97,2.97,0,0,1,2.3-1.029,2.632,2.632,0,0,1,2.126.889,3.705,3.705,0,0,1,.752,2.468Zm-1.148-.95a2.281,2.281,0,0,0-.468-1.511,1.6,1.6,0,0,0-1.282-.54,1.811,1.811,0,0,0-1.347.567,2.575,2.575,0,0,0-.684,1.483ZM206.862,53h-1.121V49.008q0-2.229-1.627-2.229a1.765,1.765,0,0,0-1.391.632,2.344,2.344,0,0,0-.55,1.6V53h-1.121V46h1.121v1.162h.027a2.526,2.526,0,0,1,2.3-1.326,2.142,2.142,0,0,1,1.757.742,3.3,3.3,0,0,1,.608,2.143Zm7.738-3.22h-4.942a2.618,2.618,0,0,0,.629,1.8,2.168,2.168,0,0,0,1.654.636,3.439,3.439,0,0,0,2.174-.779v1.053a4.063,4.063,0,0,1-2.44.67,2.959,2.959,0,0,1-2.331-.954,3.9,3.9,0,0,1-.848-2.683,3.828,3.828,0,0,1,.926-2.663,2.97,2.97,0,0,1,2.3-1.029,2.632,2.632,0,0,1,2.126.889,3.705,3.705,0,0,1,.752,2.468Zm-1.148-.95a2.281,2.281,0,0,0-.468-1.511,1.6,1.6,0,0,0-1.282-.54,1.811,1.811,0,0,0-1.347.567,2.575,2.575,0,0,0-.684,1.483Zm6.3-5.209a1.493,1.493,0,0,0-.745-.185q-1.176,0-1.176,1.483V46h1.641v.957h-1.641V53H216.72V46.957h-1.2V46h1.2V44.865a2.358,2.358,0,0,1,.636-1.74,2.146,2.146,0,0,1,1.586-.639,2.2,2.2,0,0,1,.813.123Zm1.5.6a.71.71,0,0,1-.513-.205.692.692,0,0,1-.212-.52.718.718,0,0,1,.725-.731.724.724,0,0,1,.523.208.73.73,0,0,1,0,1.036A.718.718,0,0,1,221.252,44.223ZM221.8,53h-1.121V46H221.8Zm5.517-.068a2.162,2.162,0,0,1-1.046.219q-1.839,0-1.839-2.051V46.957h-1.2V46h1.2V44.291l1.121-.362V46h1.764v.957h-1.764V50.9a1.635,1.635,0,0,0,.239,1,.955.955,0,0,0,.793.3,1.179,1.179,0,0,0,.731-.232ZM1.709,63.223a.71.71,0,0,1-.513-.205.692.692,0,0,1-.212-.52.718.718,0,0,1,.725-.731.724.724,0,0,1,.523.208.73.73,0,0,1,0,1.036A.718.718,0,0,1,1.709,63.223ZM2.256,72H1.135V65H2.256Zm8.08,0H9.215V68.008q0-2.229-1.627-2.229a1.765,1.765,0,0,0-1.391.632,2.344,2.344,0,0,0-.55,1.6V72H4.525V65H5.646v1.162h.027a2.526,2.526,0,0,1,2.3-1.326,2.142,2.142,0,0,1,1.757.742,3.3,3.3,0,0,1,.608,2.143Zm5.571-9.379a1.493,1.493,0,0,0-.745-.185q-1.176,0-1.176,1.483V65h1.641v.957H13.986V72H12.872V65.957h-1.2V65h1.2V63.865a2.358,2.358,0,0,1,.636-1.74,2.146,2.146,0,0,1,1.586-.639,2.2,2.2,0,0,1,.813.123Zm3.849,9.543a3.247,3.247,0,0,1-2.478-.981,3.633,3.633,0,0,1-.926-2.6,3.785,3.785,0,0,1,.964-2.755,3.465,3.465,0,0,1,2.6-.991,3.14,3.14,0,0,1,2.444.964,3.822,3.822,0,0,1,.878,2.673,3.761,3.761,0,0,1-.947,2.683A3.317,3.317,0,0,1,19.756,72.164Zm.082-6.385a2.132,2.132,0,0,0-1.709.735,3.018,3.018,0,0,0-.629,2.027,2.854,2.854,0,0,0,.636,1.962,2.161,2.161,0,0,0,1.7.718,2.05,2.05,0,0,0,1.671-.7,3.055,3.055,0,0,0,.584-2,3.108,3.108,0,0,0-.584-2.023A2.04,2.04,0,0,0,19.838,65.779Zm8.846.355a1.371,1.371,0,0,0-.848-.226,1.431,1.431,0,0,0-1.2.677,3.129,3.129,0,0,0-.482,1.846V72H25.033V65h1.121v1.442h.027a2.444,2.444,0,0,1,.731-1.152,1.668,1.668,0,0,1,1.1-.414,1.83,1.83,0,0,1,.67.1ZM39.84,72H38.719V67.98A3.032,3.032,0,0,0,38.36,66.3a1.361,1.361,0,0,0-1.207-.52,1.494,1.494,0,0,0-1.22.656,2.511,2.511,0,0,0-.5,1.572V72H34.31V67.844q0-2.064-1.593-2.064A1.475,1.475,0,0,0,31.5,66.4a2.557,2.557,0,0,0-.479,1.61V72H29.9V65h1.121v1.107h.027a2.378,2.378,0,0,1,2.174-1.271,2.022,2.022,0,0,1,1.982,1.449,2.5,2.5,0,0,1,2.324-1.449q2.311,0,2.311,2.851Zm7.13,0H45.849V70.906h-.027a2.347,2.347,0,0,1-2.153,1.258,2.3,2.3,0,0,1-1.637-.554,1.918,1.918,0,0,1-.591-1.47q0-1.962,2.311-2.283l2.1-.294q0-1.784-1.442-1.784a3.446,3.446,0,0,0-2.283.861V65.492a4.338,4.338,0,0,1,2.379-.656q2.468,0,2.468,2.611Zm-1.121-3.541-1.688.232a2.741,2.741,0,0,0-1.176.386,1.114,1.114,0,0,0-.4.981,1.068,1.068,0,0,0,.366.837,1.413,1.413,0,0,0,.974.325,1.8,1.8,0,0,0,1.377-.584,2.088,2.088,0,0,0,.543-1.48Zm6.48,3.473a2.161,2.161,0,0,1-1.046.219q-1.839,0-1.839-2.051V65.957h-1.2V65h1.2V63.291l1.121-.362V65h1.764v.957H50.565V69.9a1.635,1.635,0,0,0,.239,1,.955.955,0,0,0,.793.3,1.179,1.179,0,0,0,.731-.232ZM54.4,63.223a.71.71,0,0,1-.513-.205.692.692,0,0,1-.212-.52.718.718,0,0,1,.725-.731.724.724,0,0,1,.523.208.73.73,0,0,1,0,1.036A.718.718,0,0,1,54.4,63.223ZM54.947,72H53.826V65h1.121Zm5.2.164a3.247,3.247,0,0,1-2.478-.981,3.634,3.634,0,0,1-.926-2.6,3.785,3.785,0,0,1,.964-2.755,3.465,3.465,0,0,1,2.6-.991,3.14,3.14,0,0,1,2.444.964,3.822,3.822,0,0,1,.878,2.673,3.761,3.761,0,0,1-.947,2.683A3.317,3.317,0,0,1,60.143,72.164Zm.082-6.385a2.132,2.132,0,0,0-1.709.735,3.018,3.018,0,0,0-.629,2.027,2.854,2.854,0,0,0,.636,1.962,2.161,2.161,0,0,0,1.7.718,2.05,2.05,0,0,0,1.671-.7,3.055,3.055,0,0,0,.584-2A3.108,3.108,0,0,0,61.9,66.49,2.04,2.04,0,0,0,60.225,65.779ZM71.23,72H70.109V68.008q0-2.229-1.627-2.229a1.765,1.765,0,0,0-1.391.632,2.344,2.344,0,0,0-.55,1.6V72H65.42V65h1.121v1.162h.027a2.526,2.526,0,0,1,2.3-1.326,2.142,2.142,0,0,1,1.757.742,3.3,3.3,0,0,1,.608,2.143ZM82.8,68.78H77.861a2.618,2.618,0,0,0,.629,1.8,2.168,2.168,0,0,0,1.654.636,3.439,3.439,0,0,0,2.174-.779v1.053a4.063,4.063,0,0,1-2.44.67,2.959,2.959,0,0,1-2.331-.954,3.9,3.9,0,0,1-.848-2.683,3.828,3.828,0,0,1,.926-2.663,2.97,2.97,0,0,1,2.3-1.029,2.632,2.632,0,0,1,2.126.889,3.705,3.705,0,0,1,.752,2.468Zm-1.148-.95a2.281,2.281,0,0,0-.468-1.511,1.6,1.6,0,0,0-1.282-.54,1.811,1.811,0,0,0-1.347.567,2.575,2.575,0,0,0-.684,1.483ZM90.31,72H89.188V68.008q0-2.229-1.627-2.229a1.765,1.765,0,0,0-1.391.632,2.344,2.344,0,0,0-.55,1.6V72H84.5V65H85.62v1.162h.027a2.526,2.526,0,0,1,2.3-1.326,2.142,2.142,0,0,1,1.757.742,3.3,3.3,0,0,1,.608,2.143Zm5.359-.068a2.161,2.161,0,0,1-1.046.219q-1.839,0-1.839-2.051V65.957h-1.2V65h1.2V63.291l1.121-.362V65h1.764v.957H93.905V69.9a1.635,1.635,0,0,0,.239,1,.955.955,0,0,0,.793.3,1.179,1.179,0,0,0,.731-.232Zm7.123-3.151H97.85a2.618,2.618,0,0,0,.629,1.8,2.168,2.168,0,0,0,1.654.636,3.439,3.439,0,0,0,2.174-.779v1.053a4.063,4.063,0,0,1-2.44.67,2.959,2.959,0,0,1-2.331-.954,3.9,3.9,0,0,1-.848-2.683,3.828,3.828,0,0,1,.926-2.663,2.97,2.97,0,0,1,2.3-1.029,2.632,2.632,0,0,1,2.126.889,3.705,3.705,0,0,1,.752,2.468Zm-1.148-.95a2.281,2.281,0,0,0-.468-1.511,1.6,1.6,0,0,0-1.282-.54,1.811,1.811,0,0,0-1.347.567,2.575,2.575,0,0,0-.684,1.483Zm6.494-1.7a1.371,1.371,0,0,0-.848-.226,1.431,1.431,0,0,0-1.2.677,3.129,3.129,0,0,0-.482,1.846V72h-1.121V65h1.121v1.442h.027a2.444,2.444,0,0,1,.731-1.152,1.668,1.668,0,0,1,1.1-.414,1.83,1.83,0,0,1,.67.1Zm6.843,2.646h-4.942a2.618,2.618,0,0,0,.629,1.8,2.168,2.168,0,0,0,1.654.636,3.439,3.439,0,0,0,2.174-.779v1.053a4.063,4.063,0,0,1-2.44.67,2.959,2.959,0,0,1-2.331-.954,3.9,3.9,0,0,1-.848-2.683,3.828,3.828,0,0,1,.926-2.663,2.97,2.97,0,0,1,2.3-1.029,2.632,2.632,0,0,1,2.126.889,3.705,3.705,0,0,1,.752,2.468Zm-1.148-.95a2.281,2.281,0,0,0-.468-1.511,1.6,1.6,0,0,0-1.282-.54,1.811,1.811,0,0,0-1.347.567,2.575,2.575,0,0,0-.684,1.483ZM122.65,72h-1.121V70.811H121.5a2.588,2.588,0,0,1-2.406,1.354,2.615,2.615,0,0,1-2.109-.94,3.856,3.856,0,0,1-.79-2.56,4.2,4.2,0,0,1,.875-2.782,2.886,2.886,0,0,1,2.331-1.046,2.244,2.244,0,0,1,2.1,1.135h.027V61.637h1.121Zm-1.121-3.165V67.8a2,2,0,0,0-.561-1.436,1.88,1.88,0,0,0-1.422-.588,1.936,1.936,0,0,0-1.613.752,3.3,3.3,0,0,0-.588,2.078,2.964,2.964,0,0,0,.564,1.911,1.843,1.843,0,0,0,1.514.7,1.915,1.915,0,0,0,1.521-.677A2.521,2.521,0,0,0,121.529,68.835Zm3.78,3.315a.726.726,0,0,1-.537-.226.743.743,0,0,1-.222-.54.754.754,0,0,1,.222-.543.72.72,0,0,1,.537-.229.739.739,0,0,1,.547.229.748.748,0,0,1,.226.543.737.737,0,0,1-.226.54A.745.745,0,0,1,125.31,72.15Z" transform="translate(351 110)" fill="#31313a"/>
    <g id="Path_10460" data-name="Path 10460" transform="translate(595 207)" fill="none">
      <path d="M18,0H64.934a18,18,0,0,1,0,36H18A18,18,0,0,1,18,0Z" stroke="none"/>
      <path d="M 18 1 C 13.45912933349609 1 9.1900634765625 2.768310546875 5.97918701171875 5.979188919067383 C 2.768310546875 9.190067291259766 1 13.45913314819336 1 18 C 1 22.54086685180664 2.768310546875 26.80993270874023 5.97918701171875 30.02081108093262 C 9.1900634765625 33.231689453125 13.45912933349609 35 18 35 L 64.93359375 35 C 69.47446441650391 35 73.7435302734375 33.231689453125 76.95440673828125 30.02081108093262 C 80.165283203125 26.80993270874023 81.93359375 22.54086685180664 81.93359375 18 C 81.93359375 13.45913314819336 80.165283203125 9.190067291259766 76.95440673828125 5.979188919067383 C 73.7435302734375 2.768310546875 69.47446441650391 1 64.93359375 1 L 18 1 M 18 0 L 64.93359375 0 C 74.87471771240234 0 82.93359375 8.058877944946289 82.93359375 18 C 82.93359375 27.94112205505371 74.87471771240234 36 64.93359375 36 L 18 36 C 8.058876037597656 36 0 27.94112205505371 0 18 C 0 8.058877944946289 8.058876037597656 0 18 0 Z" stroke="none" fill="#cbcbd2"/>
    </g>
    <path id="Path_10461" data-name="Path 10461" d="M-15.972,0H-21.4V-9.8h1.627v8.429h3.8Zm6.61,0H-10.9V-1.094h-.027A2.316,2.316,0,0,1-13.053.164,2.239,2.239,0,0,1-14.67-.4a1.961,1.961,0,0,1-.584-1.483q0-1.982,2.283-2.311l2.078-.294q0-1.5-1.422-1.5a3.378,3.378,0,0,0-2.256.861V-6.508a4.919,4.919,0,0,1,2.557-.656A2.326,2.326,0,0,1-9.362-4.553Zm-1.531-3.438-1.47.205a2.33,2.33,0,0,0-1.029.332.969.969,0,0,0-.345.851.932.932,0,0,0,.318.728,1.231,1.231,0,0,0,.851.284,1.57,1.57,0,0,0,1.2-.509,1.806,1.806,0,0,0,.475-1.282ZM-1.323,0H-2.909V-1.107h-.027A2.282,2.282,0,0,1-5.083.164q-2.481,0-2.481-2.98V-7h1.586v4.02q0,1.887,1.456,1.887a1.471,1.471,0,0,0,1.159-.52,1.991,1.991,0,0,0,.455-1.36V-7h1.586Zm8.3,0H5.39V-3.944Q5.39-5.906,4-5.906a1.515,1.515,0,0,0-1.2.543,2.016,2.016,0,0,0-.472,1.371V0H.742V-7H2.334v1.162h.027a2.5,2.5,0,0,1,2.27-1.326,2.114,2.114,0,0,1,1.743.742,3.33,3.33,0,0,1,.6,2.143Zm6.945-.321a3.911,3.911,0,0,1-1.989.485A3.369,3.369,0,0,1,9.417-.81a3.451,3.451,0,0,1-.957-2.526A3.8,3.8,0,0,1,9.488-6.115,3.678,3.678,0,0,1,12.24-7.164a4.016,4.016,0,0,1,1.688.335v1.477A2.557,2.557,0,0,0,12.37-5.9a2.166,2.166,0,0,0-1.647.68,2.487,2.487,0,0,0-.643,1.781,2.371,2.371,0,0,0,.6,1.716,2.148,2.148,0,0,0,1.624.629A2.537,2.537,0,0,0,13.921-1.7ZM21.714,0H20.128V-3.828q0-2.078-1.388-2.078a1.451,1.451,0,0,0-1.176.6,2.394,2.394,0,0,0-.479,1.538V0H15.494V-10.363h1.593v4.525h.027a2.5,2.5,0,0,1,2.27-1.326q2.331,0,2.331,2.851Z" transform="translate(636 230)" fill="#2777d3"/>
    <path id="Path_10462" data-name="Path 10462" d="M10.713,9.969H6.689V22H4.365V9.969H.352V8H10.713ZM15,22.234a4.957,4.957,0,0,1-3.7-1.4,5.062,5.062,0,0,1-1.382-3.716,5.267,5.267,0,0,1,1.44-3.936,5.3,5.3,0,0,1,3.882-1.416A4.8,4.8,0,0,1,18.9,13.143a5.319,5.319,0,0,1,1.309,3.818,5.241,5.241,0,0,1-1.411,3.833A5.069,5.069,0,0,1,15,22.234Zm.107-8.662a2.586,2.586,0,0,0-2.1.928,3.885,3.885,0,0,0-.771,2.559,3.659,3.659,0,0,0,.781,2.476,2.624,2.624,0,0,0,2.09.9,2.49,2.49,0,0,0,2.056-.889,3.934,3.934,0,0,0,.718-2.529,3.993,3.993,0,0,0-.718-2.549A2.478,2.478,0,0,0,15.107,13.572Zm12.676,8.32a3.926,3.926,0,0,1-1.748.332q-2.91,0-2.91-2.793V13.777h-1.67V12h1.67V9.686l2.266-.645V12h2.393v1.777H25.391v5a1.97,1.97,0,0,0,.322,1.27,1.338,1.338,0,0,0,1.074.381,1.558,1.558,0,0,0,1-.332ZM37.412,22h-2.2V20.438h-.039a3.308,3.308,0,0,1-3.037,1.8,3.2,3.2,0,0,1-2.31-.8,2.8,2.8,0,0,1-.835-2.119q0-2.832,3.262-3.3l2.969-.42q0-2.139-2.031-2.139a4.825,4.825,0,0,0-3.223,1.23V12.7a7.028,7.028,0,0,1,3.652-.937q3.789,0,3.789,3.73Zm-2.187-4.912-2.1.293a3.328,3.328,0,0,0-1.47.474,1.384,1.384,0,0,0-.493,1.216,1.331,1.331,0,0,0,.454,1.04,1.758,1.758,0,0,0,1.216.405,2.243,2.243,0,0,0,1.714-.728,2.58,2.58,0,0,0,.679-1.831ZM42.451,22H40.176V7.2h2.275Zm18.467-.586a8.49,8.49,0,0,1-3.936.82A6.435,6.435,0,0,1,52.1,20.311a7.01,7.01,0,0,1-1.836-5.049,7.352,7.352,0,0,1,2.065-5.43,7.066,7.066,0,0,1,5.22-2.07,8.554,8.554,0,0,1,3.369.576v2.3a6.012,6.012,0,0,0-3.125-.84,4.9,4.9,0,0,0-3.687,1.455A5.345,5.345,0,0,0,52.7,15.145a5.1,5.1,0,0,0,1.318,3.687A4.588,4.588,0,0,0,57.48,20.2a6.207,6.207,0,0,0,3.438-.937Zm6.836.82a4.957,4.957,0,0,1-3.7-1.4,5.062,5.062,0,0,1-1.382-3.716,5.267,5.267,0,0,1,1.44-3.936A5.3,5.3,0,0,1,68,11.766a4.8,4.8,0,0,1,3.652,1.377,5.319,5.319,0,0,1,1.309,3.818,5.241,5.241,0,0,1-1.411,3.833A5.069,5.069,0,0,1,67.754,22.234Zm.107-8.662a2.586,2.586,0,0,0-2.1.928,3.885,3.885,0,0,0-.771,2.559,3.659,3.659,0,0,0,.781,2.476,2.624,2.624,0,0,0,2.09.9,2.49,2.49,0,0,0,2.056-.889,3.934,3.934,0,0,0,.718-2.529,3.993,3.993,0,0,0-.718-2.549A2.478,2.478,0,0,0,67.861,13.572ZM90.215,22H87.949V16.551a4.416,4.416,0,0,0-.444-2.275,1.634,1.634,0,0,0-1.5-.7,1.807,1.807,0,0,0-1.509.889,3.626,3.626,0,0,0-.62,2.129V22H81.6V16.365q0-2.793-1.973-2.793a1.779,1.779,0,0,0-1.509.84,3.7,3.7,0,0,0-.591,2.178V22H75.264V12h2.266v1.582h.039a3.464,3.464,0,0,1,3.154-1.816,2.974,2.974,0,0,1,1.812.571,2.845,2.845,0,0,1,1.06,1.5,3.569,3.569,0,0,1,3.32-2.07q3.3,0,3.3,4.072Zm5.068-1.475h-.039V26.6H92.979V12h2.266v1.758h.039a3.713,3.713,0,0,1,3.4-1.992A3.58,3.58,0,0,1,101.65,13.1a5.611,5.611,0,0,1,1.064,3.594,6.23,6.23,0,0,1-1.2,4,3.973,3.973,0,0,1-3.281,1.5A3.277,3.277,0,0,1,95.283,20.525Zm-.059-3.945v1.24a2.646,2.646,0,0,0,.7,1.855,2.464,2.464,0,0,0,3.75-.22,4.567,4.567,0,0,0,.718-2.739,3.6,3.6,0,0,0-.669-2.31,2.2,2.2,0,0,0-1.812-.835,2.441,2.441,0,0,0-1.948.859A3.183,3.183,0,0,0,95.225,16.58ZM113.5,17.615H106.68a2.881,2.881,0,0,0,.854,2.139,3.179,3.179,0,0,0,2.241.752,4.942,4.942,0,0,0,2.939-.957v1.826a6.716,6.716,0,0,1-3.613.859,4.473,4.473,0,0,1-3.462-1.362,5.449,5.449,0,0,1-1.255-3.833,5.328,5.328,0,0,1,1.382-3.8,4.52,4.52,0,0,1,3.433-1.47,3.941,3.941,0,0,1,3.174,1.318,5.474,5.474,0,0,1,1.123,3.662Zm-2.187-1.6a2.919,2.919,0,0,0-.576-1.9,1.925,1.925,0,0,0-1.562-.679,2.2,2.2,0,0,0-1.655.713,3.257,3.257,0,0,0-.835,1.865ZM124.561,22h-2.266V16.365q0-2.8-1.982-2.8a2.164,2.164,0,0,0-1.709.776,2.88,2.88,0,0,0-.674,1.958V22h-2.275V12h2.275v1.66h.039a3.564,3.564,0,0,1,3.242-1.895,3.02,3.02,0,0,1,2.49,1.06,4.758,4.758,0,0,1,.859,3.062Zm2.139-.312v-2.1a4.52,4.52,0,0,0,2.8.967q2.051,0,2.051-1.211a.954.954,0,0,0-.176-.581,1.678,1.678,0,0,0-.474-.425,3.723,3.723,0,0,0-.7-.332q-.405-.146-.9-.332a9.564,9.564,0,0,1-1.108-.518,3.349,3.349,0,0,1-.82-.62,2.341,2.341,0,0,1-.493-.786,2.9,2.9,0,0,1-.166-1.025,2.37,2.37,0,0,1,.342-1.274,2.97,2.97,0,0,1,.918-.928,4.4,4.4,0,0,1,1.309-.566,5.991,5.991,0,0,1,1.514-.19,6.881,6.881,0,0,1,2.48.42v1.982a4.181,4.181,0,0,0-2.422-.723,3.163,3.163,0,0,0-.776.088,2,2,0,0,0-.591.244,1.2,1.2,0,0,0-.381.376.9.9,0,0,0-.137.483,1.033,1.033,0,0,0,.137.547,1.242,1.242,0,0,0,.405.4,3.5,3.5,0,0,0,.645.313q.376.142.864.308a12.627,12.627,0,0,1,1.157.537,3.911,3.911,0,0,1,.874.62,2.431,2.431,0,0,1,.557.8,2.719,2.719,0,0,1,.2,1.079,2.467,2.467,0,0,1-.352,1.328,2.93,2.93,0,0,1-.937.938,4.389,4.389,0,0,1-1.353.552,7.026,7.026,0,0,1-1.616.181A6.809,6.809,0,0,1,126.7,21.688ZM143.623,22h-2.2V20.438h-.039a3.308,3.308,0,0,1-3.037,1.8,3.2,3.2,0,0,1-2.31-.8,2.8,2.8,0,0,1-.835-2.119q0-2.832,3.262-3.3l2.969-.42q0-2.139-2.031-2.139a4.825,4.825,0,0,0-3.223,1.23V12.7a7.028,7.028,0,0,1,3.652-.937q3.789,0,3.789,3.73Zm-2.187-4.912-2.1.293a3.328,3.328,0,0,0-1.47.474,1.384,1.384,0,0,0-.493,1.216,1.331,1.331,0,0,0,.454,1.04,1.758,1.758,0,0,0,1.216.405,2.243,2.243,0,0,0,1.714-.728,2.58,2.58,0,0,0,.679-1.831Zm10.225,4.8a3.926,3.926,0,0,1-1.748.332q-2.91,0-2.91-2.793V13.777h-1.67V12H147V9.686l2.266-.645V12h2.393v1.777h-2.393v5a1.97,1.97,0,0,0,.322,1.27,1.338,1.338,0,0,0,1.074.381,1.558,1.558,0,0,0,1-.332Zm3.1-11.992a1.362,1.362,0,0,1-.952-.361,1.189,1.189,0,0,1-.4-.918,1.219,1.219,0,0,1,.4-.928,1.342,1.342,0,0,1,.952-.371,1.384,1.384,0,0,1,.977.371,1.212,1.212,0,0,1,.4.928,1.2,1.2,0,0,1-.4.9A1.374,1.374,0,0,1,154.756,9.9ZM155.879,22h-2.266V12h2.266Zm7.393.234a4.957,4.957,0,0,1-3.7-1.4,5.062,5.062,0,0,1-1.382-3.716,5.267,5.267,0,0,1,1.44-3.936,5.3,5.3,0,0,1,3.882-1.416,4.8,4.8,0,0,1,3.652,1.377,5.319,5.319,0,0,1,1.309,3.818,5.241,5.241,0,0,1-1.411,3.833A5.069,5.069,0,0,1,163.271,22.234Zm.107-8.662a2.586,2.586,0,0,0-2.1.928,3.885,3.885,0,0,0-.771,2.559,3.659,3.659,0,0,0,.781,2.476,2.624,2.624,0,0,0,2.09.9,2.49,2.49,0,0,0,2.056-.889,3.934,3.934,0,0,0,.718-2.529,3.993,3.993,0,0,0-.718-2.549A2.478,2.478,0,0,0,163.379,13.572ZM179.688,22h-2.266V16.365q0-2.8-1.982-2.8a2.164,2.164,0,0,0-1.709.776,2.88,2.88,0,0,0-.674,1.958V22h-2.275V12h2.275v1.66h.039a3.564,3.564,0,0,1,3.242-1.895,3.02,3.02,0,0,1,2.49,1.06,4.758,4.758,0,0,1,.859,3.062ZM1.084,53.443V51.051a3.7,3.7,0,0,0,.767.527,5.924,5.924,0,0,0,.942.4,7.427,7.427,0,0,0,1,.249,5.31,5.31,0,0,0,.918.088,3.918,3.918,0,0,0,2.183-.488,1.606,1.606,0,0,0,.718-1.416,1.544,1.544,0,0,0-.239-.864,2.509,2.509,0,0,0-.669-.669,7.029,7.029,0,0,0-1.011-.581q-.581-.278-1.245-.581-.713-.381-1.328-.771a5.716,5.716,0,0,1-1.069-.864,3.616,3.616,0,0,1-.713-1.069,3.483,3.483,0,0,1-.259-1.4A3.223,3.223,0,0,1,1.519,41.9a3.753,3.753,0,0,1,1.172-1.2,5.372,5.372,0,0,1,1.655-.7,7.86,7.86,0,0,1,1.895-.229,7.647,7.647,0,0,1,3.2.5v2.295A5.116,5.116,0,0,0,6.377,41.7a5.494,5.494,0,0,0-1.03.1,3.063,3.063,0,0,0-.918.322,1.987,1.987,0,0,0-.659.576,1.412,1.412,0,0,0-.254.85,1.607,1.607,0,0,0,.2.811,2.091,2.091,0,0,0,.571.625,5.837,5.837,0,0,0,.918.552q.542.269,1.255.581.732.381,1.382.8a6.514,6.514,0,0,1,1.143.928,4.077,4.077,0,0,1,.781,1.128,3.312,3.312,0,0,1,.288,1.411,3.5,3.5,0,0,1-.43,1.8,3.463,3.463,0,0,1-1.157,1.191,5.154,5.154,0,0,1-1.675.664,9.443,9.443,0,0,1-2,.205,8.524,8.524,0,0,1-.864-.054q-.513-.054-1.05-.156a9.656,9.656,0,0,1-1.016-.249A3.215,3.215,0,0,1,1.084,53.443Zm15.977.449a3.926,3.926,0,0,1-1.748.332q-2.91,0-2.91-2.793V45.777h-1.67V44H12.4V41.686l2.266-.645V44h2.393v1.777H14.668v5a1.97,1.97,0,0,0,.322,1.27,1.338,1.338,0,0,0,1.074.381,1.558,1.558,0,0,0,1-.332ZM26.689,54h-2.2V52.438h-.039a3.308,3.308,0,0,1-3.037,1.8,3.2,3.2,0,0,1-2.31-.8,2.8,2.8,0,0,1-.835-2.119q0-2.832,3.262-3.3l2.969-.42q0-2.139-2.031-2.139a4.825,4.825,0,0,0-3.223,1.23V44.7a7.028,7.028,0,0,1,3.652-.937q3.789,0,3.789,3.73ZM24.5,49.088l-2.1.293a3.328,3.328,0,0,0-1.47.474,1.384,1.384,0,0,0-.493,1.216,1.331,1.331,0,0,0,.454,1.04,1.758,1.758,0,0,0,1.216.405,2.243,2.243,0,0,0,1.714-.728,2.58,2.58,0,0,0,.679-1.831Zm10.225,4.8a3.926,3.926,0,0,1-1.748.332q-2.91,0-2.91-2.793V45.777H28.4V44h1.67V41.686l2.266-.645V44h2.393v1.777H32.334v5a1.97,1.97,0,0,0,.322,1.27,1.338,1.338,0,0,0,1.074.381,1.558,1.558,0,0,0,1-.332Zm10.3-4.277H38.213a2.881,2.881,0,0,0,.854,2.139,3.179,3.179,0,0,0,2.241.752,4.942,4.942,0,0,0,2.939-.957v1.826a6.716,6.716,0,0,1-3.613.859,4.473,4.473,0,0,1-3.462-1.362,5.449,5.449,0,0,1-1.255-3.833,5.328,5.328,0,0,1,1.382-3.8,4.52,4.52,0,0,1,3.433-1.47,3.941,3.941,0,0,1,3.174,1.318,5.474,5.474,0,0,1,1.123,3.662Zm-2.187-1.6a2.919,2.919,0,0,0-.576-1.9,1.925,1.925,0,0,0-1.562-.679,2.2,2.2,0,0,0-1.655.713,3.257,3.257,0,0,0-.835,1.865ZM62.139,54H59.873V48.551a4.416,4.416,0,0,0-.444-2.275,1.634,1.634,0,0,0-1.5-.7,1.807,1.807,0,0,0-1.509.889,3.626,3.626,0,0,0-.62,2.129V54H53.525V48.365q0-2.793-1.973-2.793a1.779,1.779,0,0,0-1.509.84,3.7,3.7,0,0,0-.591,2.178V54H47.188V44h2.266v1.582h.039a3.464,3.464,0,0,1,3.154-1.816,2.974,2.974,0,0,1,1.812.571,2.845,2.845,0,0,1,1.06,1.5,3.569,3.569,0,0,1,3.32-2.07q3.3,0,3.3,4.072Zm11.23-4.385H66.553a2.881,2.881,0,0,0,.854,2.139,3.179,3.179,0,0,0,2.241.752,4.942,4.942,0,0,0,2.939-.957v1.826a6.716,6.716,0,0,1-3.613.859,4.473,4.473,0,0,1-3.462-1.362,5.449,5.449,0,0,1-1.255-3.833,5.328,5.328,0,0,1,1.382-3.8,4.52,4.52,0,0,1,3.433-1.47,3.941,3.941,0,0,1,3.174,1.318,5.474,5.474,0,0,1,1.123,3.662Zm-2.187-1.6a2.919,2.919,0,0,0-.576-1.9,1.925,1.925,0,0,0-1.562-.679,2.2,2.2,0,0,0-1.655.713,3.257,3.257,0,0,0-.835,1.865ZM84.434,54H82.168V48.365q0-2.8-1.982-2.8a2.164,2.164,0,0,0-1.709.776A2.88,2.88,0,0,0,77.8,48.3V54H75.527V44H77.8v1.66h.039a3.564,3.564,0,0,1,3.242-1.895,3.02,3.02,0,0,1,2.49,1.06,4.758,4.758,0,0,1,.859,3.062Zm8.037-.107a3.926,3.926,0,0,1-1.748.332q-2.91,0-2.91-2.793V45.777h-1.67V44h1.67V41.686l2.266-.645V44h2.393v1.777H90.078v5a1.97,1.97,0,0,0,.322,1.27,1.338,1.338,0,0,0,1.074.381,1.558,1.558,0,0,0,1-.332Zm7.705.107V40h4.443a5.251,5.251,0,0,1,3.218.889,2.762,2.762,0,0,1,1.187,2.314,3.3,3.3,0,0,1-.674,2.07,3.636,3.636,0,0,1-1.865,1.25v.039a3.655,3.655,0,0,1,2.31,1.069,3.257,3.257,0,0,1,.864,2.349,3.527,3.527,0,0,1-1.416,2.91A5.606,5.606,0,0,1,104.668,54Zm2.314-12.139v3.984h1.5a2.888,2.888,0,0,0,1.9-.571,1.983,1.983,0,0,0,.688-1.616q0-1.8-2.4-1.8Zm0,5.85v4.434h1.982a3.015,3.015,0,0,0,2.007-.6,2.055,2.055,0,0,0,.708-1.655q0-2.178-3.018-2.178ZM120.723,54h-2.266V52.418h-.039a3.26,3.26,0,0,1-3.066,1.816q-3.545,0-3.545-4.258V44h2.266v5.742q0,2.7,2.08,2.7a2.1,2.1,0,0,0,1.655-.742,2.844,2.844,0,0,0,.649-1.943V44h2.266Zm4.092-12.1a1.362,1.362,0,0,1-.952-.361,1.189,1.189,0,0,1-.4-.918,1.219,1.219,0,0,1,.4-.928,1.342,1.342,0,0,1,.952-.371,1.384,1.384,0,0,1,.977.371,1.212,1.212,0,0,1,.4.928,1.2,1.2,0,0,1-.4.9A1.374,1.374,0,0,1,124.814,41.9ZM125.938,54h-2.266V44h2.266Zm5.234,0H128.9V39.2h2.275Zm12.041,0h-2.266V52.3h-.039a3.91,3.91,0,0,1-6.323.591,5.574,5.574,0,0,1-1.108-3.657A6.073,6.073,0,0,1,134.7,45.26a4.011,4.011,0,0,1,3.267-1.494,3.128,3.128,0,0,1,2.939,1.621h.039V39.2h2.266Zm-2.236-4.57V48.121a2.55,2.55,0,0,0-.693-1.807,2.313,2.313,0,0,0-1.768-.742,2.38,2.38,0,0,0-2,.947,4.221,4.221,0,0,0-.728,2.627,3.782,3.782,0,0,0,.7,2.407,2.271,2.271,0,0,0,1.88.884,2.351,2.351,0,0,0,1.885-.854A3.219,3.219,0,0,0,140.977,49.43Zm13.662.186h-6.816a2.881,2.881,0,0,0,.854,2.139,3.179,3.179,0,0,0,2.241.752,4.942,4.942,0,0,0,2.939-.957v1.826a6.716,6.716,0,0,1-3.613.859,4.473,4.473,0,0,1-3.462-1.362,5.449,5.449,0,0,1-1.255-3.833,5.328,5.328,0,0,1,1.382-3.8,4.52,4.52,0,0,1,3.433-1.47,3.941,3.941,0,0,1,3.174,1.318,5.474,5.474,0,0,1,1.123,3.662Zm-2.187-1.6a2.919,2.919,0,0,0-.576-1.9,1.925,1.925,0,0,0-1.562-.679,2.2,2.2,0,0,0-1.655.713,3.257,3.257,0,0,0-.835,1.865ZM162.6,46.158a1.878,1.878,0,0,0-1.182-.322,2.023,2.023,0,0,0-1.68.908,4.061,4.061,0,0,0-.674,2.471V54H156.8V44h2.266v2.061h.039a3.484,3.484,0,0,1,1.021-1.646,2.3,2.3,0,0,1,1.538-.591,1.909,1.909,0,0,1,.938.186Z" transform="translate(351 35)" fill="#31313a"/>
    <path id="Path_10463" data-name="Path 10463" d="M0,0H155" transform="translate(284.5 42.5)" fill="none" stroke="#d454a3" stroke-width="1" stroke-dasharray="2 2"/>
  </g>
</svg>
