<svg xmlns="http://www.w3.org/2000/svg" xmlns:xlink="http://www.w3.org/1999/xlink" width="275" height="183" viewBox="0 0 275 183">
  <defs>
    <clipPath id="clip-galleryradio_large">
      <rect width="275" height="183"/>
    </clipPath>
  </defs>
  <g id="galleryradio_large" clip-path="url(#clip-galleryradio_large)">
    <g id="Group_264158" data-name="Group 264158" transform="translate(-48 -50)">
      <g id="Gallery_radio_button-Large-NEW" data-name="Gallery radio button-Large-NEW" transform="translate(48 50)">
        <g id="Rectangle_4479" data-name="Rectangle 4479" fill="#fff" stroke="#c6c6c6" stroke-width="1">
          <rect width="130" height="183" rx="6" stroke="none"/>
          <rect x="0.5" y="0.5" width="129" height="182" rx="5.5" fill="none"/>
        </g>
        <text id="Employee_Handbook" data-name="Employee
Handbook" transform="translate(65 130)" fill="#3d3d3d" font-size="14" font-family="OpenSans-Semibold, Open Sans" font-weight="600"><tspan x="-33.007" y="0">Employee</tspan><tspan x="-35.038" y="19">Handbook</tspan></text>
        <g id="Group_7827" data-name="Group 7827" transform="translate(-78 -116)">
          <rect id="Rectangle_4483" data-name="Rectangle 4483" width="70" height="70" rx="4" transform="translate(108 146)" fill="none" opacity="0.5"/>
          <g id="Shadow_1_" transform="translate(120 153.054)">
            <path id="Path_5743" data-name="Path 5743" d="M3.5,0H44.736a1.859,1.859,0,0,1,1.889,1.889h0V53.721a2,2,0,0,1-1.971,1.971H3.5" transform="translate(-0.625)" fill="#e04a39"/>
            <path id="Path_5744" data-name="Path 5744" d="M6.654,0H1.807A1.823,1.823,0,0,0,0,1.807H0V53.886a1.823,1.823,0,0,0,1.807,1.807H6.654" fill="#cc4434"/>
            <rect id="Rectangle_4122" data-name="Rectangle 4122" width="41.646" height="9.939" transform="translate(4.354 43.864)" fill="#cb4333"/>
            <path id="Path_5745" data-name="Path 5745" d="M7.275,55.1H47.2v7.311H7.275a.561.561,0,0,1-.575-.575V55.593A.549.549,0,0,1,7.275,55.1Z" transform="translate(-1.196 -9.839)" fill="#f1f2f2"/>
            <path id="Path_5746" data-name="Path 5746" d="M27.893,30.125H22.8V21.5h5.093v1.889H25.1V24.7h2.546v1.889H25.1v1.643h2.793Z" transform="translate(-4.071 -3.839)" fill="#fff"/>
            <path id="Path_5747" data-name="Path 5747" d="M35.893,30.125H30.8V21.5h5.093v1.889H33.1V24.7h2.546v1.889H33.1v1.643h2.793Z" transform="translate(-5.5 -3.839)" fill="#fff"/>
          </g>
        </g>
      </g>
      <g id="Gallery_radio_button-Large-NEW-2" data-name="Gallery radio button-Large-NEW" transform="translate(193 50)">
        <g id="Rectangle_4479-2" data-name="Rectangle 4479" fill="#d0e2f6" stroke="#2777d3" stroke-width="2">
          <rect width="130" height="183" rx="6" stroke="none"/>
          <rect x="1" y="1" width="128" height="181" rx="5" fill="none"/>
        </g>
        <text id="Employee_Handbook-2" data-name="Employee
Handbook" transform="translate(65 130)" fill="#3d3d3d" font-size="14" font-family="OpenSans-Semibold, Open Sans" font-weight="600"><tspan x="-33.007" y="0">Employee</tspan><tspan x="-35.038" y="19">Handbook</tspan></text>
        <g id="Group_7827-2" data-name="Group 7827" transform="translate(-78 -116)">
          <rect id="Rectangle_4483-2" data-name="Rectangle 4483" width="70" height="70" rx="4" transform="translate(108 146)" fill="none" opacity="0.5"/>
          <g id="Shadow_1_2" data-name="Shadow_1_" transform="translate(120 153.054)">
            <path id="Path_5743-2" data-name="Path 5743" d="M3.5,0H44.736a1.859,1.859,0,0,1,1.889,1.889h0V53.721a2,2,0,0,1-1.971,1.971H3.5" transform="translate(-0.625)" fill="#e04a39"/>
            <path id="Path_5744-2" data-name="Path 5744" d="M6.654,0H1.807A1.823,1.823,0,0,0,0,1.807H0V53.886a1.823,1.823,0,0,0,1.807,1.807H6.654" fill="#cc4434"/>
            <rect id="Rectangle_4122-2" data-name="Rectangle 4122" width="41.646" height="9.939" transform="translate(4.354 43.864)" fill="#cb4333"/>
            <path id="Path_5745-2" data-name="Path 5745" d="M7.275,55.1H47.2v7.311H7.275a.561.561,0,0,1-.575-.575V55.593A.549.549,0,0,1,7.275,55.1Z" transform="translate(-1.196 -9.839)" fill="#f1f2f2"/>
            <path id="Path_5746-2" data-name="Path 5746" d="M27.893,30.125H22.8V21.5h5.093v1.889H25.1V24.7h2.546v1.889H25.1v1.643h2.793Z" transform="translate(-4.071 -3.839)" fill="#fff"/>
            <path id="Path_5747-2" data-name="Path 5747" d="M35.893,30.125H30.8V21.5h5.093v1.889H33.1V24.7h2.546v1.889H33.1v1.643h2.793Z" transform="translate(-5.5 -3.839)" fill="#fff"/>
          </g>
        </g>
        <g id="Radio_Selected" data-name="Radio Selected" transform="translate(5 5)">
          <path id="Path_6085" data-name="Path 6085" d="M37,43.2a9.6,9.6,0,1,1-9.6,9.6A9.628,9.628,0,0,1,37,43.2m0-2.4a12,12,0,1,0,12,12,12.035,12.035,0,0,0-12-12Zm7.2,12A7.2,7.2,0,1,0,37,60,7.221,7.221,0,0,0,44.2,52.8Z" transform="translate(-25 -40.8)" fill="#2777d3"/>
        </g>
      </g>
    </g>
  </g>
</svg>
