<svg xmlns="http://www.w3.org/2000/svg" xmlns:xlink="http://www.w3.org/1999/xlink" width="398" height="500" viewBox="0 0 398 500">
  <defs>
    <clipPath id="clip-InlineRadio_Specs">
      <rect width="398" height="500"/>
    </clipPath>
  </defs>
  <g id="InlineRadio_Specs" clip-path="url(#clip-InlineRadio_Specs)">
    <rect width="398" height="500" fill="#f9f9fa"/>
    <g id="Group_14623" data-name="Group 14623" transform="translate(-9 -10)">
      <text id="radio_height:_42px_padding:_25px_10px_25px_10px" data-name="radio height: 42px
padding: 25px 10px 25px 10px" transform="translate(184 77)" fill="#c6318c" font-size="14" font-family="SegoeUI, Segoe UI"><tspan x="0" y="0">radio height: 42px</tspan><tspan x="0" y="19">padding: 25px 10px 25px 10px</tspan></text>
      <g id="Group_14619" data-name="Group 14619">
        <g id="Group_14617" data-name="Group 14617" transform="translate(7 -76)">
          <path id="Rectangle_8098" data-name="Rectangle 8098" d="M4,0H122a0,0,0,0,1,0,0V42a0,0,0,0,1,0,0H4a4,4,0,0,1-4-4V4A4,4,0,0,1,4,0Z" transform="translate(35 136)" fill="#cbcbd2"/>
          <g id="Rectangle_8078" data-name="Rectangle 8078" transform="translate(60 147)" fill="none" stroke="#c6318c" stroke-width="1">
            <rect width="72" height="20" stroke="none"/>
            <rect x="0.5" y="0.5" width="71" height="19" fill="none"/>
          </g>
          <rect id="Rectangle_8079" data-name="Rectangle 8079" width="1" height="12" transform="translate(96 136)" fill="#c6318c"/>
          <rect id="Rectangle_8081" data-name="Rectangle 8081" width="1" height="12" transform="translate(96 166)" fill="#c6318c"/>
          <rect id="Rectangle_8088" data-name="Rectangle 8088" width="1" height="25" transform="translate(35.5 158) rotate(-90)" fill="#c6318c"/>
          <rect id="Rectangle_8089" data-name="Rectangle 8089" width="1" height="25" transform="translate(131.5 158) rotate(-90)" fill="#c6318c"/>
          <g id="Rectangle_8092" data-name="Rectangle 8092" transform="translate(35 136)" fill="none" stroke="#c6318c" stroke-width="1">
            <path d="M4,0H122a0,0,0,0,1,0,0V42a0,0,0,0,1,0,0H4a4,4,0,0,1-4-4V4A4,4,0,0,1,4,0Z" stroke="none"/>
            <path d="M4,.5H121a.5.5,0,0,1,.5.5V41a.5.5,0,0,1-.5.5H4A3.5,3.5,0,0,1,.5,38V4A3.5,3.5,0,0,1,4,.5Z" fill="none"/>
          </g>
        </g>
      </g>
    </g>
    <g id="Group_14626" data-name="Group 14626" transform="translate(0 -30)">
      <text id="icon_size:_24px_exterior_padding:_-_left_and_right:_25px_-_top_and_bottom:_10px_margin:_10px_" data-name="icon size: 24px
exterior padding: 
    - left and right: 25px
    - top and bottom: 10px
margin: 10px " transform="translate(200.3 187)" fill="#c6318c" font-size="14" font-family="SegoeUI, Segoe UI"><tspan x="0" y="0">icon size: 24px</tspan><tspan x="0" y="19">exterior padding: </tspan><tspan x="0" y="38" xml:space="preserve">    - left and right: 25px</tspan><tspan x="0" y="57" xml:space="preserve">    - top and bottom: 10px</tspan><tspan x="0" y="76">margin: 10px </tspan></text>
      <g id="Group_14622" data-name="Group 14622" transform="translate(16 60)">
        <path id="Rectangle_8098-2" data-name="Rectangle 8098" d="M4,0H122a0,0,0,0,1,0,0V42a0,0,0,0,1,0,0H4a4,4,0,0,1-4-4V4A4,4,0,0,1,4,0Z" transform="translate(42 140)" fill="#cbcbd2"/>
        <g id="Rectangle_8078-2" data-name="Rectangle 8078" transform="translate(93 151)" fill="none" stroke="#c6318c" stroke-width="1">
          <rect width="46" height="20" stroke="none"/>
          <rect x="0.5" y="0.5" width="45" height="19" fill="none"/>
        </g>
        <rect id="Rectangle_8079-2" data-name="Rectangle 8079" width="1" height="12" transform="translate(103 140)" fill="#c6318c"/>
        <rect id="Rectangle_8081-2" data-name="Rectangle 8081" width="1" height="12" transform="translate(103 170)" fill="#c6318c"/>
        <rect id="Rectangle_8088-2" data-name="Rectangle 8088" width="1" height="25" transform="translate(42.5 162) rotate(-90)" fill="#c6318c"/>
        <rect id="Rectangle_8089-2" data-name="Rectangle 8089" width="1" height="25" transform="translate(138.5 162) rotate(-90)" fill="#c6318c"/>
        <g id="Rectangle_8092-2" data-name="Rectangle 8092" transform="translate(42 140)" fill="none" stroke="#c6318c" stroke-width="1">
          <path d="M4,0H122a0,0,0,0,1,0,0V42a0,0,0,0,1,0,0H4a4,4,0,0,1-4-4V4A4,4,0,0,1,4,0Z" stroke="none"/>
          <path d="M4,.5H121a.5.5,0,0,1,.5.5V41a.5.5,0,0,1-.5.5H4A3.5,3.5,0,0,1,.5,38V4A3.5,3.5,0,0,1,4,.5Z" fill="none"/>
        </g>
        <g id="Rectangle_8099" data-name="Rectangle 8099" transform="translate(67 149)" fill="none" stroke="#c6318c" stroke-width="1">
          <rect width="24" height="24" stroke="none"/>
          <rect x="0.5" y="0.5" width="23" height="23" fill="none"/>
        </g>
        <rect id="Rectangle_8100" data-name="Rectangle 8100" width="1" height="3" transform="translate(90.5 162) rotate(-90)" fill="#c6318c"/>
      </g>
    </g>
    <g id="Group_14621" data-name="Group 14621" transform="translate(-8 -37)">
      <text id="_0px" data-name="0px" transform="translate(196 339)" fill="#c6318c" font-size="14" font-family="SegoeUI, Segoe UI"><tspan x="0" y="0">0px</tspan></text>
      <g id="Group_14620" data-name="Group 14620" transform="translate(-2511 -893)">
        <g id="Rectangle_4681" data-name="Rectangle 4681" transform="translate(2717 1246)" fill="#fff" stroke="#c6c6c6" stroke-width="1">
          <path d="M0,0H118a4,4,0,0,1,4,4V38a4,4,0,0,1-4,4H0a0,0,0,0,1,0,0V0A0,0,0,0,1,0,0Z" stroke="none"/>
          <path d="M1,.5H118A3.5,3.5,0,0,1,121.5,4V38a3.5,3.5,0,0,1-3.5,3.5H1A.5.5,0,0,1,.5,41V1A.5.5,0,0,1,1,.5Z" fill="none"/>
        </g>
        <g id="Path_8840" data-name="Path 8840" transform="translate(2596 1246)" fill="#d0e2f6">
          <path d="M 121 41 L 4 41 C 2.345799922943115 41 1 39.65420150756836 1 38 L 1 4 C 1 2.345799922943115 2.345799922943115 1 4 1 L 121 1 L 121 41 Z" stroke="none"/>
          <path d="M 4 2 C 2.897201538085938 2 2 2.897201538085938 2 4 L 2 38 C 2 39.10279846191406 2.897201538085938 40 4 40 L 120 40 L 120 2 L 4 2 M 4 0 L 122 0 L 122 42 L 4 42 C 1.790863037109375 42 0 40.20913314819336 0 38 L 0 4 C 0 1.790851593017578 1.790863037109375 0 4 0 Z" stroke="none" fill="#2777d3"/>
        </g>
        <text id="User_1" data-name="User 1" transform="translate(2650 1273)" fill="#3d3d3d" font-size="14" font-family="OpenSans-Semibold, Open Sans" font-weight="600"><tspan x="0" y="0">User 1</tspan></text>
        <text id="User_3" data-name="User 3" transform="translate(2771 1273)" fill="#5b5b5b" font-size="14" font-family="OpenSans-Semibold, Open Sans" font-weight="600"><tspan x="0" y="0">User 3</tspan></text>
        <g id="Group_7821" data-name="Group 7821" transform="translate(2463 994)">
          <rect id="Rectangle_3945" data-name="Rectangle 3945" width="24" height="24" transform="translate(158 261)" fill="none"/>
          <path id="Path_5647" data-name="Path 5647" d="M171.5,169.5A4.5,4.5,0,1,1,176,174,4.481,4.481,0,0,1,171.5,169.5Zm12.7,9.8a9.969,9.969,0,0,0-16.4,0,.984.984,0,0,0,.3,1.4,15.063,15.063,0,0,0,16,0A.958.958,0,0,0,184.2,179.3Z" transform="translate(-6 99)" fill="#2777d3"/>
        </g>
        <g id="Group_7822" data-name="Group 7822" transform="translate(2585 994)">
          <rect id="Rectangle_3945-2" data-name="Rectangle 3945" width="24" height="24" transform="translate(158 261)" fill="none"/>
        </g>
        <g id="Group_7823" data-name="Group 7823" transform="translate(2705 994)">
          <rect id="Rectangle_3945-3" data-name="Rectangle 3945" width="24" height="24" transform="translate(37 261)" fill="none"/>
          <path id="Path_5647-2" data-name="Path 5647" d="M171.5,169.5A4.5,4.5,0,1,1,176,174,4.481,4.481,0,0,1,171.5,169.5Zm12.7,9.8a9.969,9.969,0,0,0-16.4,0,.984.984,0,0,0,.3,1.4,15.063,15.063,0,0,0,16,0A.958.958,0,0,0,184.2,179.3Z" transform="translate(-127 99)" fill="#5b5b5b"/>
        </g>
      </g>
      <g id="Group_14581" data-name="Group 14581" transform="translate(399.5 922.5) rotate(180)">
        <rect id="Rectangle_5338" data-name="Rectangle 5338" width="11" height="1" transform="translate(187 548)" fill="#c6318c"/>
        <rect id="Rectangle_5339" data-name="Rectangle 5339" width="6" height="1" transform="translate(186.5 551.5) rotate(-90)" fill="#c6318c"/>
        <rect id="Rectangle_5340" data-name="Rectangle 5340" width="6" height="1" transform="translate(197.5 551.5) rotate(-90)" fill="#c6318c"/>
      </g>
    </g>
    <g id="Group_14633" data-name="Group 14633" transform="translate(0 38)">
      <g id="Group_7757" data-name="Group 7757" transform="translate(-208.3 348)">
        <rect id="Rectangle_3866" data-name="Rectangle 3866" width="1" height="38" transform="translate(276.3 24)" fill="#c6318c"/>
        <rect id="Rectangle_3867" data-name="Rectangle 3867" width="5" height="1" transform="translate(274.3 24)" fill="#c6318c"/>
        <rect id="Rectangle_3868" data-name="Rectangle 3868" width="5" height="1" transform="translate(274.3 61)" fill="#c6318c"/>
      </g>
      <text id="_42px" data-name="42px" transform="translate(28 396)" fill="#c6318c" font-size="14" font-family="SegoeUI, Segoe UI"><tspan x="0" y="0">42px</tspan></text>
      <text id="outer_corner_radius:_4px" data-name="outer corner radius: 4px" transform="translate(223 396)" fill="#c6318c" font-size="14" font-family="SegoeUI, Segoe UI"><tspan x="0" y="0">outer corner radius: 4px</tspan></text>
      <path id="Rectangle_8101" data-name="Rectangle 8101" d="M4,0H122a0,0,0,0,1,0,0V42a0,0,0,0,1,0,0H4a4,4,0,0,1-4-4V4A4,4,0,0,1,4,0Z" transform="translate(81 370)" fill="#cbcbd2"/>
      <g id="Rectangle_8102" data-name="Rectangle 8102" transform="translate(81 370)" fill="none" stroke="#c6318c" stroke-width="1" stroke-dasharray="2 2">
        <path d="M4,0H122a0,0,0,0,1,0,0V42a0,0,0,0,1,0,0H4a4,4,0,0,1-4-4V4A4,4,0,0,1,4,0Z" stroke="none"/>
        <path d="M4,.5H121a.5.5,0,0,1,.5.5V41a.5.5,0,0,1-.5.5H4A3.5,3.5,0,0,1,.5,38V4A3.5,3.5,0,0,1,4,.5Z" fill="none"/>
      </g>
    </g>
  </g>
</svg>
