<svg xmlns="http://www.w3.org/2000/svg" xmlns:xlink="http://www.w3.org/1999/xlink" width="463" height="463" viewBox="0 0 463 463">
  <defs>
    <clipPath id="clip-inlineradio_states_small">
      <rect width="463" height="463"/>
    </clipPath>
  </defs>
  <g id="inlineradio_states_small" clip-path="url(#clip-inlineradio_states_small)">
    <rect width="463" height="463" fill="#f9f9fa"/>
    <text id="Normal" transform="translate(56 119)" fill="#c6318c" font-size="8" font-family="SegoeUI, Segoe UI"><tspan x="0" y="0">Normal</tspan></text>
    <text id="Hover" transform="translate(61 210)" fill="#c6318c" font-size="8" font-family="SegoeUI, Segoe UI"><tspan x="0" y="0">Hover</tspan></text>
    <text id="Focused" transform="translate(53 305)" fill="#c6318c" font-size="8" font-family="SegoeUI, Segoe UI"><tspan x="0" y="0">Focused</tspan></text>
    <text id="Disabled" transform="translate(51 394)" fill="#c6318c" font-size="8" font-family="SegoeUI, Segoe UI"><tspan x="0" y="0">Disabled</tspan></text>
    <text id="Deactivated" transform="translate(154 62)" fill="#c6318c" font-size="8" font-family="SegoeUI, Segoe UI"><tspan x="0" y="0">Deactivated</tspan></text>
    <text id="Activated" transform="translate(335 62)" fill="#c6318c" font-size="8" font-family="SegoeUI, Segoe UI"><tspan x="0" y="0">Activated</tspan></text>
    <g id="Group_14648" data-name="Group 14648" transform="translate(154 9)">
      <g id="Path_8839" data-name="Path 8839" transform="translate(136 85)" fill="#d0e2f6">
        <path d="M 121 41 L 4 41 C 2.345799922943115 41 1 39.65420150756836 1 38 L 1 4 C 1 2.345799922943115 2.345799922943115 1 4 1 L 121 1 L 121 41 Z" stroke="none"/>
        <path d="M 4 2 C 2.897201538085938 2 2 2.897201538085938 2 4 L 2 38 C 2 39.10279846191406 2.897201538085938 40 4 40 L 120 40 L 120 2 L 4 2 M 4 0 L 122 0 L 122 42 L 4 42 C 1.790863037109375 42 0 40.20913314819336 0 38 L 0 4 C 0 1.790851593017578 1.790863037109375 0 4 0 Z" stroke="none" fill="#2777d3"/>
      </g>
      <text id="User_1" data-name="User 1" transform="translate(190 112)" fill="#3d3d3d" font-size="14" font-family="OpenSans-Semibold, Open Sans" font-weight="600"><tspan x="0" y="0">User 1</tspan></text>
      <g id="Group_7824" data-name="Group 7824" transform="translate(3 -167)">
        <rect id="Rectangle_3945" data-name="Rectangle 3945" width="24" height="24" transform="translate(158 261)" fill="none"/>
        <path id="Path_5647" data-name="Path 5647" d="M171.5,169.5A4.5,4.5,0,1,1,176,174,4.481,4.481,0,0,1,171.5,169.5Zm12.7,9.8a9.969,9.969,0,0,0-16.4,0,.984.984,0,0,0,.3,1.4,15.063,15.063,0,0,0,16,0A.958.958,0,0,0,184.2,179.3Z" transform="translate(-6 99)" fill="#2777d3"/>
      </g>
    </g>
    <g id="Group_14649" data-name="Group 14649" transform="translate(156 66)">
      <g id="Path_8860" data-name="Path 8860" transform="translate(134 303)" fill="#d0e2f6">
        <path d="M 121 41 L 4 41 C 2.345799922943115 41 1 39.65420150756836 1 38 L 1 4 C 1 2.345799922943115 2.345799922943115 1 4 1 L 121 1 L 121 41 Z" stroke="none"/>
        <path d="M 4 2 C 2.897201538085938 2 2 2.897201538085938 2 4 L 2 38 C 2 39.10279846191406 2.897201538085938 40 4 40 L 120 40 L 120 2 L 4 2 M 4 0 L 122 0 L 122 42 L 4 42 C 1.790863037109375 42 0 40.20913314819336 0 38 L 0 4 C 0 1.790851593017578 1.790863037109375 0 4 0 Z" stroke="none" fill="#a5c7ee"/>
      </g>
      <text id="User_1-2" data-name="User 1" transform="translate(188 330)" fill="#afafbb" font-size="14" font-family="OpenSans-Semibold, Open Sans" font-weight="600"><tspan x="0" y="0">User 1</tspan></text>
      <g id="Group_14639" data-name="Group 14639" transform="translate(1 51)">
        <rect id="Rectangle_3945-2" data-name="Rectangle 3945" width="24" height="24" transform="translate(158 261)" fill="none"/>
        <path id="Path_5647-2" data-name="Path 5647" d="M171.5,169.5A4.5,4.5,0,1,1,176,174,4.481,4.481,0,0,1,171.5,169.5Zm12.7,9.8a9.969,9.969,0,0,0-16.4,0,.984.984,0,0,0,.3,1.4,15.063,15.063,0,0,0,16,0A.958.958,0,0,0,184.2,179.3Z" transform="translate(-6 99)" fill="#a5c7ee"/>
      </g>
    </g>
    <g id="Group_14650" data-name="Group 14650" transform="translate(-164 9)">
      <g id="Rectangle_4686" data-name="Rectangle 4686" transform="translate(278 85)" fill="#fff" stroke="#c6c6c6" stroke-width="1">
        <path d="M4,0H122a0,0,0,0,1,0,0V42a0,0,0,0,1,0,0H4a4,4,0,0,1-4-4V4A4,4,0,0,1,4,0Z" stroke="none"/>
        <path d="M4,.5H121a.5.5,0,0,1,.5.5V41a.5.5,0,0,1-.5.5H4A3.5,3.5,0,0,1,.5,38V4A3.5,3.5,0,0,1,4,.5Z" fill="none"/>
      </g>
      <text id="User_3" data-name="User 3" transform="translate(332 112)" fill="#5b5b5b" font-size="14" font-family="OpenSans-Semibold, Open Sans" font-weight="600"><tspan x="0" y="0">User 3</tspan></text>
      <g id="Group_7826" data-name="Group 7826" transform="translate(145 -167)">
        <rect id="Rectangle_3945-3" data-name="Rectangle 3945" width="24" height="24" transform="translate(158 261)" fill="none"/>
        <path id="Path_5647-3" data-name="Path 5647" d="M171.5,169.5A4.5,4.5,0,1,1,176,174,4.481,4.481,0,0,1,171.5,169.5Zm12.7,9.8a9.969,9.969,0,0,0-16.4,0,.984.984,0,0,0,.3,1.4,15.063,15.063,0,0,0,16,0A.958.958,0,0,0,184.2,179.3Z" transform="translate(-6 99)" fill="#5b5b5b"/>
      </g>
    </g>
    <g id="Group_14651" data-name="Group 14651" transform="translate(-162 66)">
      <g id="Rectangle_8117" data-name="Rectangle 8117" transform="translate(276 303)" fill="#e6e6ea" stroke="#e6e6ea" stroke-width="1">
        <path d="M4,0H122a0,0,0,0,1,0,0V42a0,0,0,0,1,0,0H4a4,4,0,0,1-4-4V4A4,4,0,0,1,4,0Z" stroke="none"/>
        <path d="M4,.5H121a.5.5,0,0,1,.5.5V41a.5.5,0,0,1-.5.5H4A3.5,3.5,0,0,1,.5,38V4A3.5,3.5,0,0,1,4,.5Z" fill="none"/>
      </g>
      <text id="User_3-2" data-name="User 3" transform="translate(330 330)" fill="#afafbb" font-size="14" font-family="OpenSans-Semibold, Open Sans" font-weight="600"><tspan x="0" y="0">User 3</tspan></text>
      <g id="Group_14638" data-name="Group 14638" transform="translate(143 51)">
        <rect id="Rectangle_3945-4" data-name="Rectangle 3945" width="24" height="24" transform="translate(158 261)" fill="none"/>
        <path id="Path_5647-4" data-name="Path 5647" d="M171.5,169.5A4.5,4.5,0,1,1,176,174,4.481,4.481,0,0,1,171.5,169.5Zm12.7,9.8a9.969,9.969,0,0,0-16.4,0,.984.984,0,0,0,.3,1.4,15.063,15.063,0,0,0,16,0A.958.958,0,0,0,184.2,179.3Z" transform="translate(-6 99)" fill="#afafbb"/>
      </g>
    </g>
    <g id="Group_264156" data-name="Group 264156" transform="translate(4 7)">
      <g id="Group_264147" data-name="Group 264147" transform="translate(-168 22)">
        <g id="Rectangle_8115" data-name="Rectangle 8115" transform="translate(278 157)" fill="#fff" stroke="#606071" stroke-width="1">
          <path d="M4,0H122a0,0,0,0,1,0,0V42a0,0,0,0,1,0,0H4a4,4,0,0,1-4-4V4A4,4,0,0,1,4,0Z" stroke="none"/>
          <path d="M4,.5H121a.5.5,0,0,1,.5.5V41a.5.5,0,0,1-.5.5H4A3.5,3.5,0,0,1,.5,38V4A3.5,3.5,0,0,1,4,.5Z" fill="none"/>
        </g>
        <text id="User_3-3" data-name="User 3" transform="translate(332 184)" fill="#5b5b5b" font-size="14" font-family="OpenSans-Semibold, Open Sans" font-weight="600"><tspan x="0" y="0">User 3</tspan></text>
        <g id="Group_14635" data-name="Group 14635" transform="translate(145 -95)">
          <rect id="Rectangle_3945-5" data-name="Rectangle 3945" width="24" height="24" transform="translate(158 261)" fill="none"/>
          <path id="Path_5647-5" data-name="Path 5647" d="M171.5,169.5A4.5,4.5,0,1,1,176,174,4.481,4.481,0,0,1,171.5,169.5Zm12.7,9.8a9.969,9.969,0,0,0-16.4,0,.984.984,0,0,0,.3,1.4,15.063,15.063,0,0,0,16,0A.958.958,0,0,0,184.2,179.3Z" transform="translate(-6 99)" fill="#5b5b5b"/>
        </g>
      </g>
      <g id="Group_264149" data-name="Group 264149" transform="translate(-11700 -813)">
        <g id="noun_Pointer_44803" transform="translate(11911 1005)">
          <g id="Group_15298" data-name="Group 15298" transform="translate(0 0)" opacity="0.9">
            <path id="Path_10321" data-name="Path 10321" d="M26.5,27.034a8.04,8.04,0,0,1-7.962-7.224.347.347,0,0,1-.037-.156V14.783a1.94,1.94,0,0,1,1.9-1.97,1.854,1.854,0,0,1,1.143.395V5.385a1.906,1.906,0,1,1,3.81,0v5.468a1.854,1.854,0,0,1,1.143-.395,1.91,1.91,0,0,1,1.775,1.257,1.863,1.863,0,0,1,1.272-.5,1.919,1.919,0,0,1,1.837,1.449,1.86,1.86,0,0,1,1.211-.45,1.94,1.94,0,0,1,1.9,1.97v5.031a.375.375,0,0,1,0,.051A8.045,8.045,0,0,1,26.5,27.034Z" transform="translate(-18.501 -3.415)" fill="#fff"/>
          </g>
        </g>
        <g id="noun_Pointer_44803-2" data-name="noun_Pointer_44803" transform="translate(11911 1005)">
          <g id="Group_15298-2" data-name="Group 15298" transform="translate(0 0)" opacity="0.9">
            <path id="Path_10321-2" data-name="Path 10321" d="M26.5,27.034a8.04,8.04,0,0,1-7.962-7.224.347.347,0,0,1-.037-.156V14.783a1.94,1.94,0,0,1,1.9-1.97,1.854,1.854,0,0,1,1.143.395V5.385a1.906,1.906,0,1,1,3.81,0v5.468a1.854,1.854,0,0,1,1.143-.395,1.91,1.91,0,0,1,1.775,1.257,1.863,1.863,0,0,1,1.272-.5,1.919,1.919,0,0,1,1.837,1.449,1.86,1.86,0,0,1,1.211-.45,1.94,1.94,0,0,1,1.9,1.97v5.031a.375.375,0,0,1,0,.051A8.045,8.045,0,0,1,26.5,27.034Zm-7.238-7.51a.339.339,0,0,1,.024.1,7.238,7.238,0,0,0,14.45-.424q0-.016,0-.033V14.178a1.145,1.145,0,1,0-2.286,0,.381.381,0,0,1-.762,0v-1a1.145,1.145,0,1,0-2.286,0,.381.381,0,1,1-.762,0v-.752a1.145,1.145,0,1,0-2.286,0,.381.381,0,1,1-.762,0V5.385a1.145,1.145,0,1,0-2.286,0V18.21a.381.381,0,1,1-.762,0V14.783a1.145,1.145,0,1,0-2.286,0v4.741Z" transform="translate(-18.501 -3.415)"/>
          </g>
        </g>
      </g>
    </g>
    <g id="Group_264155" data-name="Group 264155" transform="translate(12 7)">
      <g id="Group_264148" data-name="Group 264148" transform="translate(142 22)">
        <g id="Path_8856" data-name="Path 8856" transform="translate(136 157)" fill="#d0e2f6">
          <path d="M 121 41 L 4 41 C 2.345799922943115 41 1 39.65420150756836 1 38 L 1 4 C 1 2.345799922943115 2.345799922943115 1 4 1 L 121 1 L 121 41 Z" stroke="none"/>
          <path d="M 4 2 C 2.897201538085938 2 2 2.897201538085938 2 4 L 2 38 C 2 39.10279846191406 2.897201538085938 40 4 40 L 120 40 L 120 2 L 4 2 M 4 0 L 122 0 L 122 42 L 4 42 C 1.790863037109375 42 0 40.20913314819336 0 38 L 0 4 C 0 1.790851593017578 1.790863037109375 0 4 0 Z" stroke="none" fill="#2777d3"/>
        </g>
        <text id="User_1-3" data-name="User 1" transform="translate(190 184)" fill="#3d3d3d" font-size="14" font-family="OpenSans-Semibold, Open Sans" font-weight="600"><tspan x="0" y="0">User 1</tspan></text>
        <g id="Group_14634" data-name="Group 14634" transform="translate(3 -95)">
          <rect id="Rectangle_3945-6" data-name="Rectangle 3945" width="24" height="24" transform="translate(158 261)" fill="none"/>
          <path id="Path_5647-6" data-name="Path 5647" d="M171.5,169.5A4.5,4.5,0,1,1,176,174,4.481,4.481,0,0,1,171.5,169.5Zm12.7,9.8a9.969,9.969,0,0,0-16.4,0,.984.984,0,0,0,.3,1.4,15.063,15.063,0,0,0,16,0A.958.958,0,0,0,184.2,179.3Z" transform="translate(-6 99)" fill="#4e92df"/>
        </g>
      </g>
      <g id="Group_264150" data-name="Group 264150" transform="translate(-11532 -813)">
        <g id="noun_Pointer_44803-3" data-name="noun_Pointer_44803" transform="translate(11911 1005)">
          <g id="Group_15298-3" data-name="Group 15298" transform="translate(0 0)" opacity="0.9">
            <path id="Path_10321-3" data-name="Path 10321" d="M26.5,27.034a8.04,8.04,0,0,1-7.962-7.224.347.347,0,0,1-.037-.156V14.783a1.94,1.94,0,0,1,1.9-1.97,1.854,1.854,0,0,1,1.143.395V5.385a1.906,1.906,0,1,1,3.81,0v5.468a1.854,1.854,0,0,1,1.143-.395,1.91,1.91,0,0,1,1.775,1.257,1.863,1.863,0,0,1,1.272-.5,1.919,1.919,0,0,1,1.837,1.449,1.86,1.86,0,0,1,1.211-.45,1.94,1.94,0,0,1,1.9,1.97v5.031a.375.375,0,0,1,0,.051A8.045,8.045,0,0,1,26.5,27.034Z" transform="translate(-18.501 -3.415)" fill="#fff"/>
          </g>
        </g>
        <g id="noun_Pointer_44803-4" data-name="noun_Pointer_44803" transform="translate(11911 1005)">
          <g id="Group_15298-4" data-name="Group 15298" transform="translate(0 0)" opacity="0.9">
            <path id="Path_10321-4" data-name="Path 10321" d="M26.5,27.034a8.04,8.04,0,0,1-7.962-7.224.347.347,0,0,1-.037-.156V14.783a1.94,1.94,0,0,1,1.9-1.97,1.854,1.854,0,0,1,1.143.395V5.385a1.906,1.906,0,1,1,3.81,0v5.468a1.854,1.854,0,0,1,1.143-.395,1.91,1.91,0,0,1,1.775,1.257,1.863,1.863,0,0,1,1.272-.5,1.919,1.919,0,0,1,1.837,1.449,1.86,1.86,0,0,1,1.211-.45,1.94,1.94,0,0,1,1.9,1.97v5.031a.375.375,0,0,1,0,.051A8.045,8.045,0,0,1,26.5,27.034Zm-7.238-7.51a.339.339,0,0,1,.024.1,7.238,7.238,0,0,0,14.45-.424q0-.016,0-.033V14.178a1.145,1.145,0,1,0-2.286,0,.381.381,0,0,1-.762,0v-1a1.145,1.145,0,1,0-2.286,0,.381.381,0,1,1-.762,0v-.752a1.145,1.145,0,1,0-2.286,0,.381.381,0,1,1-.762,0V5.385a1.145,1.145,0,1,0-2.286,0V18.21a.381.381,0,1,1-.762,0V14.783a1.145,1.145,0,1,0-2.286,0v4.741Z" transform="translate(-18.501 -3.415)"/>
          </g>
        </g>
      </g>
    </g>
    <g id="Group_264152" data-name="Group 264152" transform="translate(154 49)">
      <g id="Path_8857" data-name="Path 8857" transform="translate(136 229)" fill="#d0e2f6">
        <path d="M 121 41 L 4 41 C 2.345799922943115 41 1 39.65420150756836 1 38 L 1 4 C 1 2.345799922943115 2.345799922943115 1 4 1 L 121 1 L 121 41 Z" stroke="none"/>
        <path d="M 4 2 C 2.897201538085938 2 2 2.897201538085938 2 4 L 2 38 C 2 39.10279846191406 2.897201538085938 40 4 40 L 120 40 L 120 2 L 4 2 M 4 0 L 122 0 L 122 42 L 4 42 C 1.790863037109375 42 0 40.20913314819336 0 38 L 0 4 C 0 1.790851593017578 1.790863037109375 0 4 0 Z" stroke="none" fill="#2777d3"/>
      </g>
      <text id="User_1-4" data-name="User 1" transform="translate(190 256)" fill="#3d3d3d" font-size="14" font-family="OpenSans-Semibold, Open Sans" font-weight="600"><tspan x="0" y="0">User 1</tspan></text>
      <g id="Group_14636" data-name="Group 14636" transform="translate(3 -23)">
        <rect id="Rectangle_3945-7" data-name="Rectangle 3945" width="24" height="24" transform="translate(158 261)" fill="none"/>
        <path id="Path_5647-7" data-name="Path 5647" d="M171.5,169.5A4.5,4.5,0,1,1,176,174,4.481,4.481,0,0,1,171.5,169.5Zm12.7,9.8a9.969,9.969,0,0,0-16.4,0,.984.984,0,0,0,.3,1.4,15.063,15.063,0,0,0,16,0A.958.958,0,0,0,184.2,179.3Z" transform="translate(-6 99)" fill="#2777d3"/>
      </g>
      <g id="Rectangle_8136" data-name="Rectangle 8136" transform="translate(139 232)" fill="none" stroke="#2777d3" stroke-width="1">
        <path d="M2,0H116a0,0,0,0,1,0,0V36a0,0,0,0,1,0,0H2a2,2,0,0,1-2-2V2A2,2,0,0,1,2,0Z" stroke="none"/>
        <path d="M2,.5H115a.5.5,0,0,1,.5.5V35a.5.5,0,0,1-.5.5H2A1.5,1.5,0,0,1,.5,34V2A1.5,1.5,0,0,1,2,.5Z" fill="none"/>
      </g>
    </g>
    <g id="Group_264151" data-name="Group 264151" transform="translate(-164 49)">
      <g id="Rectangle_8116" data-name="Rectangle 8116" transform="translate(278 229)" fill="#fff" stroke="#c6c6c6" stroke-width="1">
        <path d="M4,0H122a0,0,0,0,1,0,0V42a0,0,0,0,1,0,0H4a4,4,0,0,1-4-4V4A4,4,0,0,1,4,0Z" stroke="none"/>
        <path d="M4,.5H121a.5.5,0,0,1,.5.5V41a.5.5,0,0,1-.5.5H4A3.5,3.5,0,0,1,.5,38V4A3.5,3.5,0,0,1,4,.5Z" fill="none"/>
      </g>
      <text id="User_3-4" data-name="User 3" transform="translate(332 256)" fill="#5b5b5b" font-size="14" font-family="OpenSans-Semibold, Open Sans" font-weight="600"><tspan x="0" y="0">User 3</tspan></text>
      <g id="Group_14637" data-name="Group 14637" transform="translate(145 -23)">
        <rect id="Rectangle_3945-8" data-name="Rectangle 3945" width="24" height="24" transform="translate(158 261)" fill="none"/>
        <path id="Path_5647-8" data-name="Path 5647" d="M171.5,169.5A4.5,4.5,0,1,1,176,174,4.481,4.481,0,0,1,171.5,169.5Zm12.7,9.8a9.969,9.969,0,0,0-16.4,0,.984.984,0,0,0,.3,1.4,15.063,15.063,0,0,0,16,0A.958.958,0,0,0,184.2,179.3Z" transform="translate(-6 99)" fill="#5b5b5b"/>
      </g>
      <g id="Rectangle_8135" data-name="Rectangle 8135" transform="translate(280 231)" fill="none" stroke="#2777d3" stroke-width="1">
        <path d="M3,0H118a0,0,0,0,1,0,0V38a0,0,0,0,1,0,0H3a3,3,0,0,1-3-3V3A3,3,0,0,1,3,0Z" stroke="none"/>
        <path d="M3,.5H117a.5.5,0,0,1,.5.5V37a.5.5,0,0,1-.5.5H3A2.5,2.5,0,0,1,.5,35V3A2.5,2.5,0,0,1,3,.5Z" fill="none"/>
      </g>
    </g>
  </g>
</svg>
