<svg xmlns="http://www.w3.org/2000/svg" xmlns:xlink="http://www.w3.org/1999/xlink" width="450" height="283" viewBox="0 0 450 283">
  <defs>
    <clipPath id="clip-radiolabel_do">
      <rect width="450" height="283"/>
    </clipPath>
  </defs>
  <g id="radiolabel_do" clip-path="url(#clip-radiolabel_do)">
    <rect width="450" height="283" fill="#f9f9fa"/>
    <g id="Group_264144" data-name="Group 264144" transform="translate(120 -1)">
      <g id="Radio_button" data-name="Radio button" transform="translate(74 149)">
        <path id="Path_6085" data-name="Path 6085" d="M37,43.2a9.6,9.6,0,1,1-9.6,9.6A9.628,9.628,0,0,1,37,43.2m0-2.4a12,12,0,1,0,12,12,12.035,12.035,0,0,0-12-12Zm7.2,12A7.2,7.2,0,1,0,37,60,7.221,7.221,0,0,0,44.2,52.8Z" transform="translate(-25 -40.8)" fill="#2777d3"/>
        <path id="Path_10314" data-name="Path 10314" d="M6.371,0H1.285V-9.8H2.434v8.764H6.371Zm6.364,0H11.614V-1.094h-.027A2.347,2.347,0,0,1,9.434.164,2.3,2.3,0,0,1,7.8-.39a1.918,1.918,0,0,1-.591-1.47q0-1.962,2.311-2.283l2.1-.294q0-1.784-1.442-1.784a3.446,3.446,0,0,0-2.283.861V-6.508a4.338,4.338,0,0,1,2.379-.656q2.468,0,2.468,2.611ZM11.614-3.541l-1.688.232a2.741,2.741,0,0,0-1.176.386,1.114,1.114,0,0,0-.4.981,1.068,1.068,0,0,0,.366.837,1.413,1.413,0,0,0,.974.325,1.8,1.8,0,0,0,1.377-.584,2.088,2.088,0,0,0,.543-1.48ZM16-1.012h-.027V0H14.848V-10.363h1.121V-5.77H16a2.651,2.651,0,0,1,2.42-1.395,2.566,2.566,0,0,1,2.109.94,3.881,3.881,0,0,1,.762,2.519,4.339,4.339,0,0,1-.854,2.813A2.845,2.845,0,0,1,18.095.164,2.3,2.3,0,0,1,16-1.012Zm-.027-2.823v.978a2.081,2.081,0,0,0,.564,1.473,1.873,1.873,0,0,0,1.432.6,1.876,1.876,0,0,0,1.6-.779,3.575,3.575,0,0,0,.578-2.167,2.822,2.822,0,0,0-.54-1.832,1.787,1.787,0,0,0-1.463-.663,1.986,1.986,0,0,0-1.572.68A2.5,2.5,0,0,0,15.969-3.835ZM28.7-3.22H23.762a2.618,2.618,0,0,0,.629,1.8,2.168,2.168,0,0,0,1.654.636,3.439,3.439,0,0,0,2.174-.779V-.506a4.063,4.063,0,0,1-2.44.67A2.959,2.959,0,0,1,23.447-.79,3.9,3.9,0,0,1,22.6-3.473a3.828,3.828,0,0,1,.926-2.663,2.97,2.97,0,0,1,2.3-1.029,2.632,2.632,0,0,1,2.126.889A3.705,3.705,0,0,1,28.7-3.808Zm-1.148-.95a2.281,2.281,0,0,0-.468-1.511,1.6,1.6,0,0,0-1.282-.54,1.811,1.811,0,0,0-1.347.567,2.575,2.575,0,0,0-.684,1.483ZM31.521,0H30.4V-10.363h1.121Z" transform="translate(29 17)" fill="#1a1a1e" stroke="rgba(0,0,0,0)" stroke-width="1"/>
      </g>
      <g id="Radio_button-2" data-name="Radio button" transform="translate(74 113)">
        <path id="Path_10313" data-name="Path 10313" d="M6.371,0H1.285V-9.8H2.434v8.764H6.371Zm6.364,0H11.614V-1.094h-.027A2.347,2.347,0,0,1,9.434.164,2.3,2.3,0,0,1,7.8-.39a1.918,1.918,0,0,1-.591-1.47q0-1.962,2.311-2.283l2.1-.294q0-1.784-1.442-1.784a3.446,3.446,0,0,0-2.283.861V-6.508a4.338,4.338,0,0,1,2.379-.656q2.468,0,2.468,2.611ZM11.614-3.541l-1.688.232a2.741,2.741,0,0,0-1.176.386,1.114,1.114,0,0,0-.4.981,1.068,1.068,0,0,0,.366.837,1.413,1.413,0,0,0,.974.325,1.8,1.8,0,0,0,1.377-.584,2.088,2.088,0,0,0,.543-1.48ZM16-1.012h-.027V0H14.848V-10.363h1.121V-5.77H16a2.651,2.651,0,0,1,2.42-1.395,2.566,2.566,0,0,1,2.109.94,3.881,3.881,0,0,1,.762,2.519,4.339,4.339,0,0,1-.854,2.813A2.845,2.845,0,0,1,18.095.164,2.3,2.3,0,0,1,16-1.012Zm-.027-2.823v.978a2.081,2.081,0,0,0,.564,1.473,1.873,1.873,0,0,0,1.432.6,1.876,1.876,0,0,0,1.6-.779,3.575,3.575,0,0,0,.578-2.167,2.822,2.822,0,0,0-.54-1.832,1.787,1.787,0,0,0-1.463-.663,1.986,1.986,0,0,0-1.572.68A2.5,2.5,0,0,0,15.969-3.835ZM28.7-3.22H23.762a2.618,2.618,0,0,0,.629,1.8,2.168,2.168,0,0,0,1.654.636,3.439,3.439,0,0,0,2.174-.779V-.506a4.063,4.063,0,0,1-2.44.67A2.959,2.959,0,0,1,23.447-.79,3.9,3.9,0,0,1,22.6-3.473a3.828,3.828,0,0,1,.926-2.663,2.97,2.97,0,0,1,2.3-1.029,2.632,2.632,0,0,1,2.126.889A3.705,3.705,0,0,1,28.7-3.808Zm-1.148-.95a2.281,2.281,0,0,0-.468-1.511,1.6,1.6,0,0,0-1.282-.54,1.811,1.811,0,0,0-1.347.567,2.575,2.575,0,0,0-.684,1.483ZM31.521,0H30.4V-10.363h1.121Z" transform="translate(29 17)" fill="#1a1a1e" stroke="rgba(0,0,0,0)" stroke-width="1"/>
        <path id="Path_10240" data-name="Path 10240" d="M12,43.2a9.6,9.6,0,1,1-9.6,9.6A9.628,9.628,0,0,1,12,43.2m0-2.4a12,12,0,1,0,12,12,12.035,12.035,0,0,0-12-12Z" transform="translate(0 -40.8)" fill="#9494a4"/>
      </g>
    </g>
  </g>
</svg>
