<svg xmlns="http://www.w3.org/2000/svg" xmlns:xlink="http://www.w3.org/1999/xlink" width="398" height="591" viewBox="0 0 398 591">
  <defs>
    <clipPath id="clip-path">
      <rect width="24" height="24" fill="none"/>
    </clipPath>
    <clipPath id="clip-StandardRadio_Specs">
      <rect width="398" height="591"/>
    </clipPath>
  </defs>
  <g id="StandardRadio_Specs" clip-path="url(#clip-StandardRadio_Specs)">
    <rect width="398" height="591" fill="#f9f9fa"/>
    <g id="Group_14599" data-name="Group 14599" transform="translate(0 -80)">
      <text id="radio_size:_24px_exterior_padding:_6px_margin:10px_" data-name="radio size: 24px
exterior padding: 6px
margin:10px " transform="translate(185 340)" fill="#c6318c" font-size="14" font-family="SegoeUI, Segoe UI"><tspan x="0" y="0">radio size: 24px</tspan><tspan x="0" y="19">exterior padding: 6px</tspan><tspan x="0" y="38">margin:10px </tspan></text>
      <g id="Group_14595" data-name="Group 14595" transform="translate(10 30)">
        <path id="Path_8854" data-name="Path 8854" d="M18,0H65a18,18,0,0,1,0,36H18A18,18,0,0,1,18,0Z" transform="translate(72 305)" fill="#e6e6ea"/>
        <path id="Path_8853" data-name="Path 8853" d="M37,43.2a9.6,9.6,0,1,1-9.6,9.6A9.628,9.628,0,0,1,37,43.2m0-2.4a12,12,0,1,0,12,12,12.035,12.035,0,0,0-12-12Zm7.2,12A7.2,7.2,0,1,0,37,60,7.221,7.221,0,0,0,44.2,52.8Z" transform="translate(53 270.2)" fill="#cbcbd2"/>
        <rect id="Rectangle_5267" data-name="Rectangle 5267" width="6" height="1" transform="translate(72 323)" fill="#c6318c"/>
        <rect id="Rectangle_5271" data-name="Rectangle 5271" width="6" height="1" transform="translate(102 323)" fill="#d454a3"/>
        <rect id="Rectangle_5256" data-name="Rectangle 5256" width="6" height="1" transform="translate(148.934 323)" fill="#c6318c"/>
        <g id="Rectangle_5268" data-name="Rectangle 5268" transform="translate(78 311)" fill="none" stroke="#d454a3" stroke-width="1">
          <rect width="24" height="24" stroke="none"/>
          <rect x="0.5" y="0.5" width="23" height="23" fill="none"/>
        </g>
        <g id="Rectangle_5255" data-name="Rectangle 5255" transform="translate(108 313)" fill="none" stroke="#d454a3" stroke-width="1">
          <rect width="41" height="20" stroke="none"/>
          <rect x="0.5" y="0.5" width="40" height="19" fill="none"/>
        </g>
        <rect id="Rectangle_5273" data-name="Rectangle 5273" width="1" height="6" transform="translate(89 335)" fill="#c6318c"/>
        <rect id="Rectangle_5257" data-name="Rectangle 5257" width="1" height="8" transform="translate(128 333)" fill="#c6318c"/>
        <rect id="Rectangle_5272" data-name="Rectangle 5272" width="1" height="6" transform="translate(89 305)" fill="#c6318c"/>
        <rect id="Rectangle_5258" data-name="Rectangle 5258" width="1" height="8" transform="translate(128 305)" fill="#c6318c"/>
      </g>
    </g>
    <g id="Group_14600" data-name="Group 14600" transform="translate(0 -120)">
      <text id="_12px" data-name="12px" transform="translate(184 487)" fill="#c6318c" font-size="14" font-family="SegoeUI, Segoe UI"><tspan x="0" y="0">12px</tspan></text>
      <g id="Group_14582" data-name="Group 14582" transform="translate(70 -28)">
        <rect id="Rectangle_8090" data-name="Rectangle 8090" width="74" height="36" rx="18" transform="translate(92 529)" fill="#d0e2f6"/>
        <rect id="Rectangle_8091" data-name="Rectangle 8091" width="74" height="36" rx="18" transform="translate(92 565)" fill="#d0e2f6"/>
        <g id="Radio_Unselected" data-name="Radio Unselected" transform="translate(98 535)" clip-path="url(#clip-path)">
          <path id="Path_5843" data-name="Path 5843" d="M12,43.2a9.6,9.6,0,1,1-9.6,9.6A9.628,9.628,0,0,1,12,43.2m0-2.4a12,12,0,1,0,12,12,12.035,12.035,0,0,0-12-12Z" transform="translate(0 -40.8)" fill="#9494a4"/>
        </g>
        <g id="Radio_Selected" data-name="Radio Selected" transform="translate(98 571)" clip-path="url(#clip-path)">
          <path id="Path_6085" data-name="Path 6085" d="M37,43.2a9.6,9.6,0,1,1-9.6,9.6A9.628,9.628,0,0,1,37,43.2m0-2.4a12,12,0,1,0,12,12,12.035,12.035,0,0,0-12-12Zm7.2,12A7.2,7.2,0,1,0,37,60,7.221,7.221,0,0,0,44.2,52.8Z" transform="translate(-25 -40.8)" fill="#2777d3"/>
        </g>
        <text id="Label" transform="translate(127 553)" fill="#1a1a1e" stroke="rgba(0,0,0,0)" stroke-width="1" font-size="14" font-family="SegoeUI, Segoe UI"><tspan x="0" y="0">Label</tspan></text>
        <text id="Label-2" data-name="Label" transform="translate(127 589)" fill="#1a1a1e" stroke="rgba(0,0,0,0)" stroke-width="1" font-size="14" font-family="SegoeUI, Segoe UI"><tspan x="0" y="0">Label</tspan></text>
        <g id="Group_14581" data-name="Group 14581" transform="translate(-438.5 757.5) rotate(-90)">
          <rect id="Rectangle_5338" data-name="Rectangle 5338" width="11" height="1" transform="translate(187 548)" fill="#c6318c"/>
          <rect id="Rectangle_5339" data-name="Rectangle 5339" width="6" height="1" transform="translate(186.5 551.5) rotate(-90)" fill="#c6318c"/>
          <rect id="Rectangle_5340" data-name="Rectangle 5340" width="6" height="1" transform="translate(197.5 551.5) rotate(-90)" fill="#c6318c"/>
        </g>
      </g>
    </g>
    <g id="Group_14598" data-name="Group 14598" transform="translate(0 -40)">
      <g id="Group_14583" data-name="Group 14583" transform="translate(-11 69)">
        <rect id="Rectangle_8080" data-name="Rectangle 8080" width="36" height="36" rx="18" transform="translate(120 129)" fill="#e6e6ea"/>
        <path id="Path_6085-2" data-name="Path 6085" d="M37,43.2a9.6,9.6,0,1,1-9.6,9.6A9.628,9.628,0,0,1,37,43.2m0-2.4a12,12,0,1,0,12,12,12.035,12.035,0,0,0-12-12Zm7.2,12A7.2,7.2,0,1,0,37,60,7.221,7.221,0,0,0,44.2,52.8Z" transform="translate(101 94.2)" fill="#cbcbd2"/>
        <g id="Rectangle_8078" data-name="Rectangle 8078" transform="translate(130 139)" fill="none" stroke="#c6318c" stroke-width="1">
          <rect width="16" height="16" stroke="none"/>
          <rect x="0.5" y="0.5" width="15" height="15" fill="none"/>
        </g>
        <rect id="Rectangle_8079" data-name="Rectangle 8079" width="1" height="2" transform="translate(137 137)" fill="#c6318c"/>
        <rect id="Rectangle_8081" data-name="Rectangle 8081" width="1" height="2" transform="translate(137 155)" fill="#c6318c"/>
        <rect id="Rectangle_8088" data-name="Rectangle 8088" width="1" height="2" transform="translate(128.5 147.5) rotate(-90)" fill="#c6318c"/>
        <rect id="Rectangle_8089" data-name="Rectangle 8089" width="1" height="2" transform="translate(145.5 147.5) rotate(-90)" fill="#c6318c"/>
      </g>
      <text id="filled_area_size:_14px_padding:_2px" data-name="filled area size: 14px
padding: 2px" transform="translate(165 212)" fill="#c6318c" font-size="14" font-family="SegoeUI, Segoe UI"><tspan x="0" y="0">filled area size: 14px</tspan><tspan x="0" y="19">padding: 2px</tspan></text>
    </g>
    <g id="Group_14597" data-name="Group 14597">
      <text id="radio_height_and_width:_24px_clickable_area_height_and_width:_36px_padding:_6px" data-name="radio height and width: 24px
clickable area height and width: 36px
padding: 6px" transform="translate(113 65)" fill="#c6318c" font-size="14" font-family="SegoeUI, Segoe UI"><tspan x="0" y="0">radio height and width: 24px</tspan><tspan x="0" y="19">clickable area height and width: 36px</tspan><tspan x="0" y="38">padding: 6px</tspan></text>
      <g id="Group_14594" data-name="Group 14594" transform="translate(-30)">
        <rect id="Rectangle_8080-2" data-name="Rectangle 8080" width="36" height="36" rx="18" transform="translate(87 61)" fill="#e6e6ea"/>
        <path id="Path_6085-3" data-name="Path 6085" d="M37,43.2a9.6,9.6,0,1,1-9.6,9.6A9.628,9.628,0,0,1,37,43.2m0-2.4a12,12,0,1,0,12,12,12.035,12.035,0,0,0-12-12Zm7.2,12A7.2,7.2,0,1,0,37,60,7.221,7.221,0,0,0,44.2,52.8Z" transform="translate(68 26.2)" fill="#cbcbd2"/>
        <g id="Rectangle_8078-2" data-name="Rectangle 8078" transform="translate(93 67)" fill="none" stroke="#c6318c" stroke-width="1">
          <rect width="24" height="24" stroke="none"/>
          <rect x="0.5" y="0.5" width="23" height="23" fill="none"/>
        </g>
        <rect id="Rectangle_8079-2" data-name="Rectangle 8079" width="1" height="6" transform="translate(104 61)" fill="#c6318c"/>
        <rect id="Rectangle_8081-2" data-name="Rectangle 8081" width="1" height="6" transform="translate(104 91)" fill="#c6318c"/>
        <rect id="Rectangle_8088-2" data-name="Rectangle 8088" width="1" height="6" transform="translate(87.5 79.5) rotate(-90)" fill="#c6318c"/>
        <rect id="Rectangle_8089-2" data-name="Rectangle 8089" width="1" height="6" transform="translate(116.5 79.5) rotate(-90)" fill="#c6318c"/>
        <g id="Rectangle_8092" data-name="Rectangle 8092" transform="translate(87 61)" fill="none" stroke="#c6318c" stroke-width="1">
          <rect width="36" height="36" stroke="none"/>
          <rect x="0.5" y="0.5" width="35" height="35" fill="none"/>
        </g>
      </g>
    </g>
    <g id="Group_14596" data-name="Group 14596" transform="translate(-502.3 489)">
      <rect id="Rectangle_3976" data-name="Rectangle 3976" width="109" height="36" rx="18" transform="translate(612 14)" fill="#ddd"/>
      <g id="Ellipse_2" data-name="Ellipse 2" transform="translate(685 14)" fill="none" stroke="#c6318c" stroke-width="1" stroke-dasharray="2 2">
        <circle cx="18" cy="18" r="18" stroke="none"/>
        <circle cx="18" cy="18" r="17.5" fill="none"/>
      </g>
      <g id="Group_7757" data-name="Group 7757" transform="translate(324 -10)">
        <rect id="Rectangle_3866" data-name="Rectangle 3866" width="1" height="38" transform="translate(276.3 24)" fill="#c6318c"/>
        <rect id="Rectangle_3867" data-name="Rectangle 3867" width="5" height="1" transform="translate(274.3 24)" fill="#c6318c"/>
        <rect id="Rectangle_3868" data-name="Rectangle 3868" width="5" height="1" transform="translate(274.3 61)" fill="#c6318c"/>
      </g>
      <text id="_36px" data-name="36px" transform="translate(560.3 38)" fill="#c6318c" font-size="14" font-family="SegoeUI, Segoe UI"><tspan x="0" y="0">36px</tspan></text>
      <text id="_50_corner_radius" data-name="50% corner radius" transform="translate(732.3 38)" fill="#c6318c" font-size="14" font-family="SegoeUI, Segoe UI"><tspan x="0" y="0">50% corner radius</tspan></text>
    </g>
  </g>
</svg>
