<svg xmlns="http://www.w3.org/2000/svg" xmlns:xlink="http://www.w3.org/1999/xlink" viewBox="2858 1257 564 465">
  <defs>
    <style>
      .cls-1 {
        clip-path: url(#clip-empty_state_dontV2_1);
      }

      .cls-2 {
        fill: #f4f4f4;
      }

      .cls-3 {
        fill: #3d3d3d;
      }

      .cls-4 {
        fill: #5b5b5b;
      }

      .cls-4, .cls-9 {
        stroke: rgba(0,0,0,0);
      }

      .cls-5 {
        fill: #242424;
      }

      .cls-6, .cls-9 {
        fill: #fff;
      }

      .cls-7 {
        fill: none;
        stroke: #fff;
        stroke-width: 3px;
      }

      .cls-8 {
        fill: #5FB53B;
      }
    </style>
    <clipPath id="clip-empty_state_dontV2_1">
      <rect x="2858" y="1257" width="564" height="465"/>
    </clipPath>
  </defs>
  <g id="empty_state_dontV2_1" data-name="empty_state_dontV2 – 1" class="cls-1">
    <rect class="cls-6" x="2858" y="1257" width="564" height="465"/>
    <path id="Path_44" data-name="Path 44" class="cls-2" d="M0,0H563.5V462.5H0Z" transform="translate(2859 1260)"/>
    <path id="Path_47" data-name="Path 47" class="cls-3" d="M0,0H564V60H0Z" transform="translate(2858 1258)"/>
    <path id="Path_45" data-name="Path 45" class="cls-4" d="M17.05,0H14.587L4.443-15.577h-.1q.2,2.742.2,5.027V0H2.552V-18.561H4.989L15.107-3.047h.1q-.025-.343-.114-2.2t-.063-2.66V-18.561H17.05Zm16.8-6.97a7.676,7.676,0,0,1-1.714,5.313A6.036,6.036,0,0,1,27.4.254a6.272,6.272,0,0,1-3.313-.876,5.781,5.781,0,0,1-2.234-2.514,8.76,8.76,0,0,1-.787-3.834,7.664,7.664,0,0,1,1.7-5.3,6.016,6.016,0,0,1,4.723-1.9,5.886,5.886,0,0,1,4.64,1.942A7.643,7.643,0,0,1,33.846-6.97Zm-10.6,0a6.6,6.6,0,0,0,1.066,4.063,3.7,3.7,0,0,0,3.136,1.4A3.726,3.726,0,0,0,30.589-2.9,6.571,6.571,0,0,0,31.662-6.97,6.465,6.465,0,0,0,30.589-11a3.769,3.769,0,0,0-3.167-1.377A3.709,3.709,0,0,0,24.3-11.02,6.537,6.537,0,0,0,23.245-6.97ZM49.854.254a5.938,5.938,0,0,1-4.678-1.86A7.648,7.648,0,0,1,43.52-6.868a7.887,7.887,0,0,1,1.682-5.4,6.057,6.057,0,0,1,4.792-1.9A9.51,9.51,0,0,1,52-13.952a6.608,6.608,0,0,1,1.574.508l-.647,1.79a9.909,9.909,0,0,0-1.523-.463,6.8,6.8,0,0,0-1.46-.184q-4.24,0-4.24,5.408a6.44,6.44,0,0,0,1.035,3.936A3.6,3.6,0,0,0,49.8-1.587a9.374,9.374,0,0,0,3.567-.749V-.47A7.6,7.6,0,0,1,49.854.254ZM65.229,0,64.81-1.98h-.1A5.855,5.855,0,0,1,62.632-.209a6.327,6.327,0,0,1-2.583.463A4.647,4.647,0,0,1,56.805-.812a3.89,3.89,0,0,1-1.174-3.034q0-4.215,6.741-4.418l2.361-.076V-9.2a3.528,3.528,0,0,0-.7-2.418,2.9,2.9,0,0,0-2.253-.781,9.182,9.182,0,0,0-3.936,1.066l-.647-1.612a9.9,9.9,0,0,1,2.253-.876,9.76,9.76,0,0,1,2.457-.317,5.3,5.3,0,0,1,3.688,1.1A4.61,4.61,0,0,1,66.79-9.5V0ZM60.468-1.485a4.277,4.277,0,0,0,3.091-1.079,3.992,3.992,0,0,0,1.124-3.021V-6.843l-2.107.089a7.665,7.665,0,0,0-3.625.781A2.354,2.354,0,0,0,57.84-3.821a2.171,2.171,0,0,0,.692,1.739A2.872,2.872,0,0,0,60.468-1.485ZM88.867,0V-9.052a3.757,3.757,0,0,0-.711-2.495,2.75,2.75,0,0,0-2.209-.832,3.566,3.566,0,0,0-2.907,1.13A5.37,5.37,0,0,0,82.1-7.77V0H79.993V-9.052a3.757,3.757,0,0,0-.711-2.495,2.767,2.767,0,0,0-2.222-.832,3.441,3.441,0,0,0-2.9,1.187,6.424,6.424,0,0,0-.92,3.891V0H71.132V-13.914h1.714l.343,1.9h.1A4.142,4.142,0,0,1,74.972-13.6a5.139,5.139,0,0,1,2.431-.571q3.263,0,4.266,2.361h.1a4.437,4.437,0,0,1,1.8-1.727,5.594,5.594,0,0,1,2.691-.635A4.712,4.712,0,0,1,89.8-12.956a5.424,5.424,0,0,1,1.174,3.878V0Zm12.924.254a6.021,6.021,0,0,1-2.482-.5A4.668,4.668,0,0,1,97.424-1.79h-.152A18.663,18.663,0,0,1,97.424.521V6.246H95.316v-20.16H97.03l.292,1.9h.1a4.894,4.894,0,0,1,1.892-1.65,5.75,5.75,0,0,1,2.476-.508,5.143,5.143,0,0,1,4.272,1.892,8.328,8.328,0,0,1,1.5,5.307,8.279,8.279,0,0,1-1.53,5.326A5.152,5.152,0,0,1,101.791.254Zm-.3-12.632A3.735,3.735,0,0,0,98.4-11.2a6.075,6.075,0,0,0-.978,3.758v.47a6.963,6.963,0,0,0,.978,4.2,3.718,3.718,0,0,0,3.136,1.263,3.261,3.261,0,0,0,2.825-1.46A6.923,6.923,0,0,0,105.384-7a6.663,6.663,0,0,0-1.022-3.993A3.361,3.361,0,0,0,101.486-12.378ZM119.806,0l-.419-1.98h-.1a5.855,5.855,0,0,1-2.076,1.771,6.327,6.327,0,0,1-2.583.463,4.647,4.647,0,0,1-3.244-1.066,3.89,3.89,0,0,1-1.174-3.034q0-4.215,6.741-4.418l2.361-.076V-9.2a3.528,3.528,0,0,0-.7-2.418,2.9,2.9,0,0,0-2.253-.781,9.182,9.182,0,0,0-3.936,1.066l-.647-1.612a9.9,9.9,0,0,1,2.253-.876,9.76,9.76,0,0,1,2.457-.317,5.3,5.3,0,0,1,3.688,1.1,4.61,4.61,0,0,1,1.2,3.542V0Zm-4.761-1.485a4.277,4.277,0,0,0,3.091-1.079,3.992,3.992,0,0,0,1.124-3.021V-6.843l-2.107.089a7.665,7.665,0,0,0-3.625.781,2.354,2.354,0,0,0-1.111,2.152,2.171,2.171,0,0,0,.692,1.739A2.872,2.872,0,0,0,115.045-1.485ZM127.816,0h-2.107V-13.914h2.107Zm-2.285-17.685a1.4,1.4,0,0,1,.355-1.06,1.242,1.242,0,0,1,.889-.336,1.242,1.242,0,0,1,.876.343,1.374,1.374,0,0,1,.368,1.054,1.4,1.4,0,0,1-.368,1.06,1.229,1.229,0,0,1-.876.349,1.217,1.217,0,0,1-.889-.349A1.426,1.426,0,0,1,125.531-17.685Zm18.142,3.771v1.333l-2.577.3a4.43,4.43,0,0,1,.635,1.162A4.432,4.432,0,0,1,142.01-9.5a4.113,4.113,0,0,1-1.4,3.263,5.633,5.633,0,0,1-3.834,1.219,6.385,6.385,0,0,1-1.168-.1,2.074,2.074,0,0,0-1.346,1.79.909.909,0,0,0,.47.844,3.431,3.431,0,0,0,1.612.273h2.463a5.515,5.515,0,0,1,3.472.952A3.308,3.308,0,0,1,143.5,1.511a3.951,3.951,0,0,1-1.854,3.523,9.92,9.92,0,0,1-5.408,1.212,7.389,7.389,0,0,1-4.208-1.016,3.279,3.279,0,0,1-1.479-2.869,3.222,3.222,0,0,1,.813-2.2,4.137,4.137,0,0,1,2.285-1.257,2.2,2.2,0,0,1-.9-.749,1.982,1.982,0,0,1-.362-1.181,2.241,2.241,0,0,1,.406-1.333,4.271,4.271,0,0,1,1.282-1.1,3.758,3.758,0,0,1-1.758-1.511,4.439,4.439,0,0,1-.679-2.437,4.5,4.5,0,0,1,1.371-3.523,5.6,5.6,0,0,1,3.885-1.238,7.064,7.064,0,0,1,1.968.254Zm-11.1,16.25a1.888,1.888,0,0,0,.952,1.714,5.255,5.255,0,0,0,2.729.584,7.616,7.616,0,0,0,3.929-.793,2.429,2.429,0,0,0,1.276-2.152,1.7,1.7,0,0,0-.7-1.568,5.423,5.423,0,0,0-2.628-.438h-2.526a3.328,3.328,0,0,0-2.234.686A2.45,2.45,0,0,0,132.577,2.336ZM133.72-9.458a2.833,2.833,0,0,0,.825,2.209,3.3,3.3,0,0,0,2.3.749q3.085,0,3.085-3,0-3.136-3.123-3.136a3.092,3.092,0,0,0-2.285.8A3.221,3.221,0,0,0,133.72-9.458ZM156.051,0V-9a3.631,3.631,0,0,0-.774-2.539,3.155,3.155,0,0,0-2.425-.838,4,4,0,0,0-3.2,1.181,5.961,5.961,0,0,0-1.016,3.9V0h-2.107V-13.914h1.714l.343,1.9h.1A4.3,4.3,0,0,1,150.5-13.6a5.9,5.9,0,0,1,2.6-.565,5.285,5.285,0,0,1,3.783,1.212,5.16,5.16,0,0,1,1.27,3.878V0Zm15.412-3.8a3.485,3.485,0,0,1-1.447,3A6.8,6.8,0,0,1,165.953.254a8.834,8.834,0,0,1-4.316-.876V-2.577a10.439,10.439,0,0,0,2.152.8A8.986,8.986,0,0,0,166-1.485a5.024,5.024,0,0,0,2.539-.527,1.742,1.742,0,0,0,.889-1.606,1.743,1.743,0,0,0-.7-1.39,11.083,11.083,0,0,0-2.749-1.365,14.9,14.9,0,0,1-2.761-1.263A3.772,3.772,0,0,1,162-8.861a3.2,3.2,0,0,1-.4-1.638,3.122,3.122,0,0,1,1.384-2.685,6.448,6.448,0,0,1,3.8-.984,11.107,11.107,0,0,1,4.393.914l-.749,1.714a10.083,10.083,0,0,0-3.8-.863,4.367,4.367,0,0,0-2.26.47,1.452,1.452,0,0,0-.762,1.295,1.577,1.577,0,0,0,.286.952,2.819,2.819,0,0,0,.92.749,20.568,20.568,0,0,0,2.438,1.028,9.106,9.106,0,0,1,3.345,1.815A3.2,3.2,0,0,1,171.463-3.8Zm4.862-1.32V-5.8a5.686,5.686,0,0,1,.457-2.444,6.545,6.545,0,0,1,1.7-2.025,11.483,11.483,0,0,0,2.177-2.2,3.341,3.341,0,0,0,.451-1.777,2.476,2.476,0,0,0-.832-2,3.6,3.6,0,0,0-2.393-.7,8.133,8.133,0,0,0-1.955.235,10.6,10.6,0,0,0-2.184.857L173-17.57a10.667,10.667,0,0,1,5.015-1.257,5.491,5.491,0,0,1,3.771,1.193,4.261,4.261,0,0,1,1.346,3.364,4.915,4.915,0,0,1-.248,1.631,4.79,4.79,0,0,1-.73,1.333A17.527,17.527,0,0,1,180.07-9.28a7.832,7.832,0,0,0-1.695,1.815,3.888,3.888,0,0,0-.413,1.93v.419ZM175.7-1.346q0-1.727,1.523-1.727a1.45,1.45,0,0,1,1.136.444,1.855,1.855,0,0,1,.4,1.282,1.82,1.82,0,0,1-.406,1.263,1.443,1.443,0,0,1-1.13.451,1.544,1.544,0,0,1-1.092-.4A1.722,1.722,0,0,1,175.7-1.346ZM209.32,0h-2.133l-3.745-12.429q-.267-.825-.6-2.082a12.145,12.145,0,0,1-.343-1.511,28.911,28.911,0,0,1-.889,3.669L197.983,0h-2.133l-4.938-18.561H193.2L196.13-7.1a42.637,42.637,0,0,1,.889,4.367,31.541,31.541,0,0,1,1.016-4.545l3.326-11.286h2.285l3.491,11.388a34.618,34.618,0,0,1,1.028,4.443,38.067,38.067,0,0,1,.914-4.393L212-18.561h2.285ZM226.4,0V-9a3.631,3.631,0,0,0-.774-2.539,3.155,3.155,0,0,0-2.425-.838,3.973,3.973,0,0,0-3.206,1.193,6.044,6.044,0,0,0-1.009,3.91V0h-2.107V-19.754h2.107v5.979a13.029,13.029,0,0,1-.1,1.79h.127a4.3,4.3,0,0,1,1.771-1.581,5.758,5.758,0,0,1,2.622-.578,5.369,5.369,0,0,1,3.828,1.212A5.106,5.106,0,0,1,228.5-9.077V0Zm14.993,0-.419-1.98h-.1a5.855,5.855,0,0,1-2.076,1.771,6.327,6.327,0,0,1-2.583.463,4.647,4.647,0,0,1-3.244-1.066,3.89,3.89,0,0,1-1.174-3.034q0-4.215,6.741-4.418l2.361-.076V-9.2a3.528,3.528,0,0,0-.7-2.418,2.9,2.9,0,0,0-2.253-.781A9.182,9.182,0,0,0,234-11.337l-.647-1.612a9.9,9.9,0,0,1,2.253-.876,9.76,9.76,0,0,1,2.457-.317,5.3,5.3,0,0,1,3.688,1.1,4.61,4.61,0,0,1,1.2,3.542V0Zm-4.761-1.485a4.277,4.277,0,0,0,3.091-1.079,3.992,3.992,0,0,0,1.124-3.021V-6.843l-2.107.089a7.665,7.665,0,0,0-3.625.781A2.354,2.354,0,0,0,234-3.821a2.171,2.171,0,0,0,.692,1.739A2.872,2.872,0,0,0,236.628-1.485Zm15.158,0a6.884,6.884,0,0,0,1.079-.083,6.985,6.985,0,0,0,.825-.171V-.127a3.852,3.852,0,0,1-1.009.273,7.579,7.579,0,0,1-1.2.108q-4.037,0-4.037-4.253v-8.277h-1.993v-1.016l1.993-.876.889-2.971h1.219v3.225h4.037v1.638h-4.037v8.188a2.817,2.817,0,0,0,.6,1.93A2.076,2.076,0,0,0,251.786-1.485Zm6.894-1.536.19.292q-.33,1.27-.952,2.952t-1.295,3.129h-1.587q.343-1.32.755-3.263t.578-3.11Zm20.389,1.155h-.114a4.952,4.952,0,0,1-4.367,2.12,5.166,5.166,0,0,1-4.247-1.866,8.215,8.215,0,0,1-1.517-5.307,8.353,8.353,0,0,1,1.523-5.345,5.126,5.126,0,0,1,4.24-1.9,5.06,5.06,0,0,1,4.342,2.057h.165l-.089-1-.051-.978v-5.662h2.107V0h-1.714Zm-4.215.355a3.837,3.837,0,0,0,3.129-1.174,5.934,5.934,0,0,0,.971-3.79v-.444a6.982,6.982,0,0,0-.984-4.221,3.736,3.736,0,0,0-3.142-1.263,3.226,3.226,0,0,0-2.837,1.441,7.165,7.165,0,0,0-.984,4.069,6.869,6.869,0,0,0,.978,4.024A3.311,3.311,0,0,0,274.854-1.511ZM297.54-6.97a7.676,7.676,0,0,1-1.714,5.313A6.036,6.036,0,0,1,291.091.254a6.272,6.272,0,0,1-3.313-.876,5.781,5.781,0,0,1-2.234-2.514,8.76,8.76,0,0,1-.787-3.834,7.664,7.664,0,0,1,1.7-5.3,6.016,6.016,0,0,1,4.723-1.9,5.886,5.886,0,0,1,4.64,1.942A7.642,7.642,0,0,1,297.54-6.97Zm-10.6,0a6.6,6.6,0,0,0,1.066,4.063,3.7,3.7,0,0,0,3.136,1.4,3.726,3.726,0,0,0,3.142-1.39,6.571,6.571,0,0,0,1.073-4.069A6.465,6.465,0,0,0,294.284-11a3.769,3.769,0,0,0-3.167-1.377,3.709,3.709,0,0,0-3.123,1.358A6.537,6.537,0,0,0,286.939-6.97ZM310.756,0V-9a3.632,3.632,0,0,0-.774-2.539,3.155,3.155,0,0,0-2.425-.838,4,4,0,0,0-3.2,1.181,5.961,5.961,0,0,0-1.016,3.9V0h-2.107V-13.914h1.714l.343,1.9h.1a4.3,4.3,0,0,1,1.815-1.593,5.9,5.9,0,0,1,2.6-.565,5.285,5.285,0,0,1,3.783,1.212,5.16,5.16,0,0,1,1.27,3.878V0Zm8.252-18.561-.508,6.7h-1.333l-.521-6.7Zm8.43,17.075a6.884,6.884,0,0,0,1.079-.083,6.985,6.985,0,0,0,.825-.171V-.127a3.852,3.852,0,0,1-1.009.273,7.579,7.579,0,0,1-1.2.108Q323.1.254,323.1-4v-8.277H321.1v-1.016l1.993-.876.889-2.971H325.2v3.225h4.037v1.638H325.2v8.188a2.817,2.817,0,0,0,.6,1.93A2.076,2.076,0,0,0,327.438-1.485Zm9.229-12.429h2.26l3.047,7.935a30.18,30.18,0,0,1,1.244,3.923h.1q.165-.647.692-2.215t3.447-9.642h2.26L343.738,1.93a7.9,7.9,0,0,1-2.076,3.333,4.414,4.414,0,0,1-2.914.984,8.478,8.478,0,0,1-1.9-.216V4.342a7.346,7.346,0,0,0,1.562.152,3.219,3.219,0,0,0,3.1-2.437l.774-1.98Zm27.32,6.944a7.676,7.676,0,0,1-1.714,5.313A6.036,6.036,0,0,1,357.538.254a6.272,6.272,0,0,1-3.313-.876,5.781,5.781,0,0,1-2.234-2.514A8.76,8.76,0,0,1,351.2-6.97a7.664,7.664,0,0,1,1.7-5.3,6.016,6.016,0,0,1,4.723-1.9,5.886,5.886,0,0,1,4.64,1.942A7.642,7.642,0,0,1,363.987-6.97Zm-10.6,0a6.6,6.6,0,0,0,1.066,4.063,3.7,3.7,0,0,0,3.136,1.4,3.726,3.726,0,0,0,3.142-1.39A6.571,6.571,0,0,0,361.8-6.97,6.465,6.465,0,0,0,360.731-11a3.769,3.769,0,0,0-3.167-1.377,3.709,3.709,0,0,0-3.123,1.358A6.537,6.537,0,0,0,353.387-6.97Zm16.275-6.944v9.026a3.632,3.632,0,0,0,.774,2.539,3.155,3.155,0,0,0,2.425.838A3.956,3.956,0,0,0,376.054-2.7a6.02,6.02,0,0,0,1.009-3.9v-7.312h2.107V0h-1.739l-.3-1.866h-.114a4.2,4.2,0,0,1-1.8,1.574,6.038,6.038,0,0,1-2.622.546,5.319,5.319,0,0,1-3.8-1.206,5.134,5.134,0,0,1-1.263-3.859v-9.1ZM11.756,36V27a3.632,3.632,0,0,0-.774-2.539,3.155,3.155,0,0,0-2.425-.838,3.973,3.973,0,0,0-3.206,1.193,6.044,6.044,0,0,0-1.009,3.91V36H2.234V16.246H4.342v5.979a13.029,13.029,0,0,1-.1,1.79h.127a4.3,4.3,0,0,1,1.771-1.581,5.758,5.758,0,0,1,2.622-.578,5.369,5.369,0,0,1,3.828,1.212,5.106,5.106,0,0,1,1.276,3.853V36Zm14.993,0-.419-1.98h-.1a5.855,5.855,0,0,1-2.076,1.771,6.327,6.327,0,0,1-2.583.463,4.647,4.647,0,0,1-3.244-1.066,3.89,3.89,0,0,1-1.174-3.034q0-4.215,6.741-4.418l2.361-.076V26.8a3.528,3.528,0,0,0-.7-2.418A2.9,2.9,0,0,0,23.3,23.6a9.182,9.182,0,0,0-3.936,1.066l-.647-1.612a9.9,9.9,0,0,1,2.253-.876,9.76,9.76,0,0,1,2.457-.317,5.3,5.3,0,0,1,3.688,1.1,4.61,4.61,0,0,1,1.2,3.542V36Zm-4.761-1.485a4.277,4.277,0,0,0,3.091-1.079A3.992,3.992,0,0,0,26.2,30.414V29.157l-2.107.089a7.665,7.665,0,0,0-3.625.781,2.354,2.354,0,0,0-1.111,2.152,2.171,2.171,0,0,0,.692,1.739A2.872,2.872,0,0,0,21.988,34.515ZM35.7,36,30.418,22.086h2.26l3,8.252A39.058,39.058,0,0,1,36.867,34.1h.1a28.384,28.384,0,0,1,.882-2.787q.743-2.114,3.333-9.223h2.26L38.162,36Zm15.856.254a6.393,6.393,0,0,1-4.869-1.879A7.274,7.274,0,0,1,44.9,29.157a8.067,8.067,0,0,1,1.657-5.345,5.5,5.5,0,0,1,4.45-1.98,5.247,5.247,0,0,1,4.139,1.72,6.593,6.593,0,0,1,1.523,4.539v1.333H47.087a5.515,5.515,0,0,0,1.238,3.72,4.281,4.281,0,0,0,3.307,1.27,11.207,11.207,0,0,0,4.443-.939v1.879a11.153,11.153,0,0,1-2.114.692A11.879,11.879,0,0,1,51.556,36.254ZM50.984,23.6a3.441,3.441,0,0,0-2.672,1.092,5.033,5.033,0,0,0-1.174,3.021h7.274a4.633,4.633,0,0,0-.889-3.053A3.128,3.128,0,0,0,50.984,23.6ZM75.575,36l-.419-1.98h-.1a5.855,5.855,0,0,1-2.076,1.771,6.327,6.327,0,0,1-2.583.463,4.647,4.647,0,0,1-3.244-1.066,3.89,3.89,0,0,1-1.174-3.034q0-4.215,6.741-4.418l2.361-.076V26.8a3.528,3.528,0,0,0-.7-2.418,2.9,2.9,0,0,0-2.253-.781,9.182,9.182,0,0,0-3.936,1.066l-.647-1.612a9.9,9.9,0,0,1,2.253-.876,9.76,9.76,0,0,1,2.457-.317,5.3,5.3,0,0,1,3.688,1.1,4.61,4.61,0,0,1,1.2,3.542V36Zm-4.761-1.485a4.277,4.277,0,0,0,3.091-1.079,3.992,3.992,0,0,0,1.124-3.021V29.157l-2.107.089a7.665,7.665,0,0,0-3.625.781,2.354,2.354,0,0,0-1.111,2.152,2.171,2.171,0,0,0,.692,1.739A2.872,2.872,0,0,0,70.814,34.515ZM91,36V27a3.632,3.632,0,0,0-.774-2.539,3.155,3.155,0,0,0-2.425-.838A4,4,0,0,0,84.6,24.8a5.961,5.961,0,0,0-1.016,3.9V36H81.479V22.086h1.714l.343,1.9h.1A4.3,4.3,0,0,1,85.452,22.4a5.9,5.9,0,0,1,2.6-.565,5.285,5.285,0,0,1,3.783,1.212,5.16,5.16,0,0,1,1.27,3.878V36Zm4.228-13.914h2.26l3.047,7.935a30.18,30.18,0,0,1,1.244,3.923h.1q.165-.647.692-2.215t3.447-9.642h2.26L102.3,37.93a7.9,7.9,0,0,1-2.076,3.333,4.414,4.414,0,0,1-2.914.984,8.478,8.478,0,0,1-1.9-.216V40.342a7.346,7.346,0,0,0,1.562.152,3.219,3.219,0,0,0,3.1-2.437l.774-1.98Zm27.625,14.168a5.938,5.938,0,0,1-4.678-1.86,7.648,7.648,0,0,1-1.657-5.262,7.887,7.887,0,0,1,1.682-5.4,6.057,6.057,0,0,1,4.792-1.9,9.51,9.51,0,0,1,2.006.216,6.608,6.608,0,0,1,1.574.508l-.647,1.79a9.909,9.909,0,0,0-1.523-.463,6.8,6.8,0,0,0-1.46-.184q-4.24,0-4.24,5.408a6.44,6.44,0,0,0,1.035,3.936,3.6,3.6,0,0,0,3.066,1.371,9.374,9.374,0,0,0,3.567-.749V35.53A7.6,7.6,0,0,1,122.853,36.254ZM131.777,36H129.67V16.246h2.107Zm6.576,0h-2.107V22.086h2.107Zm-2.285-17.685a1.4,1.4,0,0,1,.355-1.06,1.316,1.316,0,0,1,1.765.006,1.374,1.374,0,0,1,.368,1.054,1.4,1.4,0,0,1-.368,1.06,1.289,1.289,0,0,1-1.765,0A1.426,1.426,0,0,1,136.068,18.315ZM148.7,36.254a6.393,6.393,0,0,1-4.869-1.879,7.274,7.274,0,0,1-1.784-5.218,8.067,8.067,0,0,1,1.657-5.345,5.5,5.5,0,0,1,4.45-1.98,5.247,5.247,0,0,1,4.139,1.72,6.593,6.593,0,0,1,1.523,4.539v1.333h-9.585a5.515,5.515,0,0,0,1.238,3.72,4.281,4.281,0,0,0,3.307,1.27,11.207,11.207,0,0,0,4.443-.939v1.879a11.153,11.153,0,0,1-2.114.692A11.879,11.879,0,0,1,148.7,36.254ZM148.129,23.6a3.441,3.441,0,0,0-2.672,1.092,5.033,5.033,0,0,0-1.174,3.021h7.274a4.633,4.633,0,0,0-.889-3.053A3.128,3.128,0,0,0,148.129,23.6Zm18.8,12.4V27a3.631,3.631,0,0,0-.774-2.539,3.155,3.155,0,0,0-2.425-.838,4,4,0,0,0-3.2,1.181,5.961,5.961,0,0,0-1.016,3.9V36h-2.107V22.086h1.714l.343,1.9h.1a4.3,4.3,0,0,1,1.815-1.593,5.9,5.9,0,0,1,2.6-.565,5.285,5.285,0,0,1,3.783,1.212,5.16,5.16,0,0,1,1.27,3.878V36Zm10.931-1.485a6.884,6.884,0,0,0,1.079-.083,6.985,6.985,0,0,0,.825-.171v1.612a3.852,3.852,0,0,1-1.009.273,7.579,7.579,0,0,1-1.2.108q-4.037,0-4.037-4.253V23.724h-1.993V22.708l1.993-.876.889-2.971h1.219v3.225h4.037v1.638h-4.037v8.188a2.817,2.817,0,0,0,.6,1.93A2.076,2.076,0,0,0,177.861,34.515Zm13.66-2.311a3.485,3.485,0,0,1-1.447,3,6.8,6.8,0,0,1-4.062,1.054,8.834,8.834,0,0,1-4.316-.876V33.423a10.439,10.439,0,0,0,2.152.8,8.986,8.986,0,0,0,2.215.292,5.024,5.024,0,0,0,2.539-.527,1.814,1.814,0,0,0,.184-3,11.083,11.083,0,0,0-2.749-1.365,14.9,14.9,0,0,1-2.761-1.263,3.772,3.772,0,0,1-1.219-1.225,3.2,3.2,0,0,1-.4-1.638,3.122,3.122,0,0,1,1.384-2.685,6.448,6.448,0,0,1,3.8-.984,11.107,11.107,0,0,1,4.393.914l-.749,1.714a10.083,10.083,0,0,0-3.8-.863,4.367,4.367,0,0,0-2.26.47,1.452,1.452,0,0,0-.762,1.295,1.577,1.577,0,0,0,.286.952,2.819,2.819,0,0,0,.92.749,20.568,20.568,0,0,0,2.438,1.028,9.106,9.106,0,0,1,3.345,1.815A3.2,3.2,0,0,1,191.521,32.2Zm4.862-1.32V30.2a5.686,5.686,0,0,1,.457-2.444,6.545,6.545,0,0,1,1.7-2.025,11.483,11.483,0,0,0,2.177-2.2,3.341,3.341,0,0,0,.451-1.777,2.476,2.476,0,0,0-.832-2,3.6,3.6,0,0,0-2.393-.7,8.133,8.133,0,0,0-1.955.235,10.6,10.6,0,0,0-2.184.857l-.749-1.714a10.667,10.667,0,0,1,5.015-1.257,5.491,5.491,0,0,1,3.771,1.193,4.261,4.261,0,0,1,1.346,3.364,4.915,4.915,0,0,1-.248,1.631,4.79,4.79,0,0,1-.73,1.333,17.527,17.527,0,0,1-2.082,2.025,7.832,7.832,0,0,0-1.695,1.815,3.888,3.888,0,0,0-.413,1.93v.419Zm-.622,3.771q0-1.727,1.523-1.727a1.45,1.45,0,0,1,1.136.444,1.855,1.855,0,0,1,.4,1.282,1.82,1.82,0,0,1-.406,1.263,1.443,1.443,0,0,1-1.13.451,1.544,1.544,0,0,1-1.092-.4A1.722,1.722,0,0,1,195.762,34.654ZM14.355,84.842a7.86,7.86,0,0,1-1.733,5.391A6.094,6.094,0,0,1,7.8,92.2a6.171,6.171,0,0,1-4.868-1.929,7.924,7.924,0,0,1-1.714-5.444,7.825,7.825,0,0,1,1.719-5.405A6.215,6.215,0,0,1,7.822,77.5a6.082,6.082,0,0,1,4.8,1.953A7.852,7.852,0,0,1,14.355,84.842Zm-11.377,0a6.776,6.776,0,0,0,1.235,4.4A4.383,4.383,0,0,0,7.8,90.74a4.341,4.341,0,0,0,3.584-1.494,6.87,6.87,0,0,0,1.211-4.4,6.816,6.816,0,0,0-1.206-4.37,4.322,4.322,0,0,0-3.569-1.489,4.406,4.406,0,0,0-3.608,1.5A6.707,6.707,0,0,0,2.979,84.842Zm19.141-2.285H19.395V92H17.773V82.557H15.859v-.732l1.914-.586v-.6q0-3.945,3.447-3.945a7.094,7.094,0,0,1,1.992.342l-.42,1.3a5.363,5.363,0,0,0-1.6-.3,1.56,1.56,0,0,0-1.357.61,3.406,3.406,0,0,0-.439,1.958V81.3h2.725ZM33.545,92.2a4.568,4.568,0,0,1-3.6-1.431,5.883,5.883,0,0,1-1.274-4.048,6.067,6.067,0,0,1,1.294-4.15A4.659,4.659,0,0,1,33.652,81.1a7.315,7.315,0,0,1,1.543.166,5.083,5.083,0,0,1,1.211.391l-.5,1.377a7.622,7.622,0,0,0-1.172-.356,5.232,5.232,0,0,0-1.123-.142q-3.262,0-3.262,4.16a4.954,4.954,0,0,0,.8,3.027,2.769,2.769,0,0,0,2.358,1.055A7.211,7.211,0,0,0,36.25,90.2v1.436A5.849,5.849,0,0,1,33.545,92.2Zm14.482-5.557a5.9,5.9,0,0,1-1.318,4.087,4.643,4.643,0,0,1-3.643,1.47,4.824,4.824,0,0,1-2.549-.674A4.447,4.447,0,0,1,38.8,89.588a6.739,6.739,0,0,1-.605-2.949A5.9,5.9,0,0,1,39.5,82.562a4.628,4.628,0,0,1,3.633-1.46A4.528,4.528,0,0,1,46.7,82.6,5.879,5.879,0,0,1,48.027,86.639Zm-8.154,0a5.08,5.08,0,0,0,.82,3.125,3.256,3.256,0,0,0,4.829,0,5.054,5.054,0,0,0,.825-3.13,4.973,4.973,0,0,0-.825-3.1,2.9,2.9,0,0,0-2.437-1.06,2.853,2.853,0,0,0-2.4,1.045A5.029,5.029,0,0,0,39.873,86.639ZM52.393,81.3V88.24a2.793,2.793,0,0,0,.6,1.953,2.427,2.427,0,0,0,1.865.645,3.043,3.043,0,0,0,2.456-.918,4.631,4.631,0,0,0,.776-3V81.3h1.621V92H58.369l-.234-1.436h-.088a3.231,3.231,0,0,1-1.382,1.211,4.644,4.644,0,0,1-2.017.42,4.091,4.091,0,0,1-2.925-.928,3.949,3.949,0,0,1-.972-2.969v-7Zm15.635-.2a6.343,6.343,0,0,1,1.279.117l-.225,1.5a5.522,5.522,0,0,0-1.172-.146,2.853,2.853,0,0,0-2.222,1.055,3.846,3.846,0,0,0-.923,2.627V92H63.145V81.3h1.338l.186,1.982h.078a4.7,4.7,0,0,1,1.436-1.611A3.232,3.232,0,0,1,68.027,81.1ZM78.213,89.08a2.681,2.681,0,0,1-1.113,2.3,5.233,5.233,0,0,1-3.125.811,6.8,6.8,0,0,1-3.32-.674v-1.5a8.03,8.03,0,0,0,1.655.615,6.912,6.912,0,0,0,1.7.225,3.865,3.865,0,0,0,1.953-.405,1.4,1.4,0,0,0,.142-2.3,8.525,8.525,0,0,0-2.114-1.05,11.465,11.465,0,0,1-2.124-.972,2.9,2.9,0,0,1-.937-.942,2.458,2.458,0,0,1-.308-1.26,2.4,2.4,0,0,1,1.064-2.065,4.96,4.96,0,0,1,2.92-.757,8.544,8.544,0,0,1,3.379.7l-.576,1.318a7.756,7.756,0,0,0-2.92-.664,3.359,3.359,0,0,0-1.738.361,1.117,1.117,0,0,0-.586,1,1.213,1.213,0,0,0,.22.732,2.168,2.168,0,0,0,.708.576,15.823,15.823,0,0,0,1.875.791,7,7,0,0,1,2.573,1.4A2.463,2.463,0,0,1,78.213,89.08ZM85.371,92.2a4.917,4.917,0,0,1-3.745-1.445,5.6,5.6,0,0,1-1.372-4.014,6.205,6.205,0,0,1,1.274-4.111A4.233,4.233,0,0,1,84.951,81.1a4.036,4.036,0,0,1,3.184,1.323,5.072,5.072,0,0,1,1.172,3.491v1.025H81.934a4.243,4.243,0,0,0,.952,2.861,3.293,3.293,0,0,0,2.544.977,8.621,8.621,0,0,0,3.418-.723V91.5a8.578,8.578,0,0,1-1.626.532A9.138,9.138,0,0,1,85.371,92.2Zm-.439-9.736a2.647,2.647,0,0,0-2.056.84,3.871,3.871,0,0,0-.9,2.324h5.6a3.564,3.564,0,0,0-.684-2.349A2.406,2.406,0,0,0,84.932,82.459ZM95.566,81.3H97.3l2.344,6.1a23.215,23.215,0,0,1,.957,3.018h.078q.127-.5.532-1.7t2.651-7.417h1.738l-4.6,12.188a6.08,6.08,0,0,1-1.6,2.563,3.4,3.4,0,0,1-2.241.757,6.522,6.522,0,0,1-1.465-.166v-1.3a5.651,5.651,0,0,0,1.2.117,2.476,2.476,0,0,0,2.383-1.875l.6-1.523Zm21.016,5.342a5.9,5.9,0,0,1-1.318,4.087,4.643,4.643,0,0,1-3.643,1.47,4.824,4.824,0,0,1-2.549-.674,4.447,4.447,0,0,1-1.719-1.934,6.739,6.739,0,0,1-.605-2.949,5.9,5.9,0,0,1,1.309-4.077,4.628,4.628,0,0,1,3.633-1.46,4.528,4.528,0,0,1,3.569,1.494A5.879,5.879,0,0,1,116.582,86.639Zm-8.154,0a5.08,5.08,0,0,0,.82,3.125,3.256,3.256,0,0,0,4.829,0,5.054,5.054,0,0,0,.825-3.13,4.973,4.973,0,0,0-.825-3.1,2.9,2.9,0,0,0-2.437-1.06,2.853,2.853,0,0,0-2.4,1.045A5.029,5.029,0,0,0,108.428,86.639Zm12.52-5.342V88.24a2.793,2.793,0,0,0,.6,1.953,2.427,2.427,0,0,0,1.865.645,3.043,3.043,0,0,0,2.456-.918,4.631,4.631,0,0,0,.776-3V81.3h1.621V92h-1.338l-.234-1.436H126.6a3.231,3.231,0,0,1-1.382,1.211,4.644,4.644,0,0,1-2.017.42,4.091,4.091,0,0,1-2.925-.928,3.949,3.949,0,0,1-.972-2.969v-7Zm23.232,9.268h-.088a3.809,3.809,0,0,1-3.359,1.631,3.974,3.974,0,0,1-3.267-1.436,6.319,6.319,0,0,1-1.167-4.082,6.426,6.426,0,0,1,1.172-4.111,3.943,3.943,0,0,1,3.262-1.465,3.892,3.892,0,0,1,3.34,1.582h.127l-.068-.771-.039-.752V76.8h1.621V92h-1.318Zm-3.242.273a2.951,2.951,0,0,0,2.407-.9,4.565,4.565,0,0,0,.747-2.915v-.342a5.371,5.371,0,0,0-.757-3.247,2.874,2.874,0,0,0-2.417-.972,2.481,2.481,0,0,0-2.183,1.108,5.511,5.511,0,0,0-.757,3.13,5.284,5.284,0,0,0,.752,3.1A2.547,2.547,0,0,0,140.938,90.838Zm17.451-4.2a5.9,5.9,0,0,1-1.318,4.087,4.643,4.643,0,0,1-3.643,1.47,4.824,4.824,0,0,1-2.549-.674,4.447,4.447,0,0,1-1.719-1.934,6.739,6.739,0,0,1-.605-2.949,5.9,5.9,0,0,1,1.309-4.077A4.628,4.628,0,0,1,153.5,81.1a4.528,4.528,0,0,1,3.569,1.494A5.879,5.879,0,0,1,158.389,86.639Zm-8.154,0a5.08,5.08,0,0,0,.82,3.125,3.256,3.256,0,0,0,4.829,0,5.054,5.054,0,0,0,.825-3.13,4.973,4.973,0,0,0-.825-3.1,2.9,2.9,0,0,0-2.437-1.06,2.853,2.853,0,0,0-2.4,1.045A5.029,5.029,0,0,0,150.234,86.639ZM162.7,88.064H161.67l-.5-10.342h2.021Zm-1.7,2.9q0-1.328,1.172-1.328a1.115,1.115,0,0,1,.874.342,1.427,1.427,0,0,1,.308.986,1.4,1.4,0,0,1-.312.972,1.11,1.11,0,0,1-.869.347,1.188,1.188,0,0,1-.84-.308A1.325,1.325,0,0,1,161,90.965ZM178.125,79a4.668,4.668,0,0,0-3.716,1.567,6.322,6.322,0,0,0-1.362,4.292,6.448,6.448,0,0,0,1.313,4.331,4.669,4.669,0,0,0,3.745,1.528,12.787,12.787,0,0,0,3.408-.537v1.455a10.5,10.5,0,0,1-3.662.557,6.2,6.2,0,0,1-4.868-1.914,7.882,7.882,0,0,1-1.714-5.439,8.585,8.585,0,0,1,.825-3.867,5.924,5.924,0,0,1,2.383-2.559,7.212,7.212,0,0,1,3.667-.9,8.848,8.848,0,0,1,3.926.82l-.7,1.426A7.567,7.567,0,0,0,178.125,79Zm7.881,13h-1.621V76.8h1.621Zm5.059,0h-1.621V81.3h1.621Zm-1.758-13.6a1.077,1.077,0,0,1,.273-.815,1.012,1.012,0,0,1,1.357,0,1.057,1.057,0,0,1,.283.811,1.074,1.074,0,0,1-.283.815.992.992,0,0,1-1.357,0A1.1,1.1,0,0,1,189.307,78.4Zm9.473,13.8a4.568,4.568,0,0,1-3.6-1.431,5.883,5.883,0,0,1-1.274-4.048,6.067,6.067,0,0,1,1.294-4.15,4.659,4.659,0,0,1,3.687-1.465,7.315,7.315,0,0,1,1.543.166,5.083,5.083,0,0,1,1.211.391l-.5,1.377a7.623,7.623,0,0,0-1.172-.356,5.232,5.232,0,0,0-1.123-.142q-3.262,0-3.262,4.16a4.954,4.954,0,0,0,.8,3.027,2.769,2.769,0,0,0,2.358,1.055,7.211,7.211,0,0,0,2.744-.576v1.436A5.849,5.849,0,0,1,198.779,92.2Zm6.846-5.674a19.064,19.064,0,0,1,1.279-1.562l3.457-3.662h1.924l-4.336,4.561L212.588,92h-1.963l-3.779-5.059L205.625,88v4h-1.6V76.8h1.6v8.057q0,.537-.078,1.66Zm19.072-5.4a3.979,3.979,0,0,1,3.276,1.44,7.713,7.713,0,0,1-.01,8.174A3.963,3.963,0,0,1,224.7,92.2a4.632,4.632,0,0,1-1.909-.386,3.59,3.59,0,0,1-1.45-1.187h-.117L220.879,92h-1.162V76.8h1.621V80.5q0,1.24-.078,2.227h.078A3.848,3.848,0,0,1,224.7,81.121Zm-.234,1.357a2.83,2.83,0,0,0-2.393.952,5.371,5.371,0,0,0-.732,3.208,5.356,5.356,0,0,0,.752,3.228,2.86,2.86,0,0,0,2.412.972,2.5,2.5,0,0,0,2.227-1.089,5.6,5.6,0,0,0,.732-3.13,5.378,5.378,0,0,0-.732-3.115A2.6,2.6,0,0,0,224.463,82.479ZM236.494,92.2a4.918,4.918,0,0,1-3.745-1.445,5.6,5.6,0,0,1-1.372-4.014,6.205,6.205,0,0,1,1.274-4.111,4.233,4.233,0,0,1,3.423-1.523,4.036,4.036,0,0,1,3.184,1.323,5.072,5.072,0,0,1,1.172,3.491v1.025h-7.373a4.243,4.243,0,0,0,.952,2.861,3.293,3.293,0,0,0,2.544.977,8.621,8.621,0,0,0,3.418-.723V91.5a8.579,8.579,0,0,1-1.626.532A9.138,9.138,0,0,1,236.494,92.2Zm-.439-9.736A2.647,2.647,0,0,0,234,83.3a3.871,3.871,0,0,0-.9,2.324h5.6a3.564,3.564,0,0,0-.684-2.349A2.406,2.406,0,0,0,236.055,82.459ZM244.814,92h-1.621V76.8h1.621Zm12.676-5.361a5.9,5.9,0,0,1-1.318,4.087,4.643,4.643,0,0,1-3.643,1.47,4.824,4.824,0,0,1-2.549-.674,4.447,4.447,0,0,1-1.719-1.934,6.739,6.739,0,0,1-.605-2.949,5.9,5.9,0,0,1,1.309-4.077A4.628,4.628,0,0,1,252.6,81.1a4.528,4.528,0,0,1,3.569,1.494A5.879,5.879,0,0,1,257.49,86.639Zm-8.154,0a5.08,5.08,0,0,0,.82,3.125,3.256,3.256,0,0,0,4.829,0,5.054,5.054,0,0,0,.825-3.13,4.973,4.973,0,0,0-.825-3.1,2.9,2.9,0,0,0-2.437-1.06,2.853,2.853,0,0,0-2.4,1.045A5.029,5.029,0,0,0,249.336,86.639ZM269.072,92l-1.963-6.279q-.186-.576-.693-2.617h-.078q-.391,1.709-.684,2.637L263.633,92h-1.875l-2.92-10.7h1.7q1.035,4.033,1.577,6.143a24.89,24.89,0,0,1,.62,2.842h.078q.107-.557.347-1.44t.415-1.4l1.963-6.143h1.758l1.914,6.143a20.732,20.732,0,0,1,.742,2.822h.078a10.351,10.351,0,0,1,.21-1.084q.171-.732,2.036-7.881h1.68L271,92Zm15.469-1.143a5.3,5.3,0,0,0,.83-.063,5.374,5.374,0,0,0,.635-.132V91.9a2.963,2.963,0,0,1-.776.21,5.831,5.831,0,0,1-.923.083q-3.105,0-3.105-3.271V82.557h-1.533v-.781L281.2,81.1l.684-2.285h.938V81.3h3.105v1.26h-3.105v6.3a2.167,2.167,0,0,0,.459,1.484A1.6,1.6,0,0,0,284.541,90.857Zm12.842-4.219a5.9,5.9,0,0,1-1.318,4.087,4.643,4.643,0,0,1-3.643,1.47,4.824,4.824,0,0,1-2.549-.674,4.447,4.447,0,0,1-1.719-1.934,6.739,6.739,0,0,1-.605-2.949,5.9,5.9,0,0,1,1.309-4.077,4.628,4.628,0,0,1,3.633-1.46A4.528,4.528,0,0,1,296.06,82.6,5.879,5.879,0,0,1,297.383,86.639Zm-8.154,0a5.08,5.08,0,0,0,.82,3.125,3.256,3.256,0,0,0,4.829,0,5.054,5.054,0,0,0,.825-3.13,4.973,4.973,0,0,0-.825-3.1,2.9,2.9,0,0,0-2.437-1.06,2.853,2.853,0,0,0-2.4,1.045A5.029,5.029,0,0,0,289.229,86.639Zm23.1,2.441a2.681,2.681,0,0,1-1.113,2.3,5.233,5.233,0,0,1-3.125.811,6.8,6.8,0,0,1-3.32-.674v-1.5a8.029,8.029,0,0,0,1.655.615,6.912,6.912,0,0,0,1.7.225,3.865,3.865,0,0,0,1.953-.405,1.4,1.4,0,0,0,.142-2.3,8.525,8.525,0,0,0-2.114-1.05,11.465,11.465,0,0,1-2.124-.972,2.9,2.9,0,0,1-.937-.942,2.458,2.458,0,0,1-.308-1.26,2.4,2.4,0,0,1,1.064-2.065,4.96,4.96,0,0,1,2.92-.757,8.543,8.543,0,0,1,3.379.7l-.576,1.318a7.756,7.756,0,0,0-2.92-.664,3.359,3.359,0,0,0-1.738.361,1.117,1.117,0,0,0-.586,1,1.213,1.213,0,0,0,.22.732,2.168,2.168,0,0,0,.708.576,15.825,15.825,0,0,0,1.875.791,7,7,0,0,1,2.573,1.4A2.463,2.463,0,0,1,312.324,89.08Zm7.158,3.115a4.917,4.917,0,0,1-3.745-1.445,5.6,5.6,0,0,1-1.372-4.014,6.205,6.205,0,0,1,1.274-4.111,4.233,4.233,0,0,1,3.423-1.523,4.036,4.036,0,0,1,3.184,1.323,5.072,5.072,0,0,1,1.172,3.491v1.025h-7.373A4.243,4.243,0,0,0,317,89.8a3.293,3.293,0,0,0,2.544.977,8.621,8.621,0,0,0,3.418-.723V91.5a8.578,8.578,0,0,1-1.626.532A9.138,9.138,0,0,1,319.482,92.2Zm-.439-9.736a2.647,2.647,0,0,0-2.056.84,3.871,3.871,0,0,0-.9,2.324h5.6A3.564,3.564,0,0,0,321,83.274,2.406,2.406,0,0,0,319.043,82.459Zm10.6,8.4a5.3,5.3,0,0,0,.83-.063,5.374,5.374,0,0,0,.635-.132V91.9a2.963,2.963,0,0,1-.776.21,5.831,5.831,0,0,1-.923.083q-3.105,0-3.105-3.271V82.557h-1.533v-.781L326.3,81.1l.684-2.285h.938V81.3h3.105v1.26H327.92v6.3a2.167,2.167,0,0,0,.459,1.484A1.6,1.6,0,0,0,329.639,90.857ZM339.961,81.3V88.24a2.794,2.794,0,0,0,.6,1.953,2.427,2.427,0,0,0,1.865.645,3.043,3.043,0,0,0,2.456-.918,4.631,4.631,0,0,0,.776-3V81.3h1.621V92h-1.338l-.234-1.436h-.088a3.231,3.231,0,0,1-1.382,1.211,4.644,4.644,0,0,1-2.017.42,4.091,4.091,0,0,1-2.925-.928,3.949,3.949,0,0,1-.972-2.969v-7Zm15.732,10.9a4.632,4.632,0,0,1-1.909-.386,3.59,3.59,0,0,1-1.45-1.187h-.117a14.356,14.356,0,0,1,.117,1.777v4.4h-1.621V81.3h1.318l.225,1.465h.078a3.765,3.765,0,0,1,1.455-1.27,4.423,4.423,0,0,1,1.9-.391,3.956,3.956,0,0,1,3.286,1.455,7.749,7.749,0,0,1-.02,8.179A3.963,3.963,0,0,1,355.693,92.2Zm-.234-9.717a2.873,2.873,0,0,0-2.373.908,4.673,4.673,0,0,0-.752,2.891v.361a5.356,5.356,0,0,0,.752,3.228,2.86,2.86,0,0,0,2.412.972,2.508,2.508,0,0,0,2.173-1.123,5.325,5.325,0,0,0,.786-3.1,5.126,5.126,0,0,0-.786-3.071A2.586,2.586,0,0,0,355.459,82.479ZM8.3,119l-.322-1.523H7.9a4.5,4.5,0,0,1-1.6,1.362,4.867,4.867,0,0,1-1.987.356,3.575,3.575,0,0,1-2.5-.82,2.992,2.992,0,0,1-.9-2.334q0-3.242,5.186-3.4l1.816-.059v-.664a2.714,2.714,0,0,0-.542-1.86,2.229,2.229,0,0,0-1.733-.6,7.063,7.063,0,0,0-3.027.82l-.5-1.24a7.617,7.617,0,0,1,1.733-.674,7.508,7.508,0,0,1,1.89-.244,4.077,4.077,0,0,1,2.837.85A3.546,3.546,0,0,1,9.5,111.7V119Zm-3.662-1.143a3.29,3.29,0,0,0,2.378-.83,3.071,3.071,0,0,0,.864-2.324v-.967L6.26,113.8a5.9,5.9,0,0,0-2.788.6,1.811,1.811,0,0,0-.854,1.655,1.67,1.67,0,0,0,.532,1.338A2.209,2.209,0,0,0,4.639,117.857ZM22.314,119.2a4.568,4.568,0,0,1-3.6-1.431,5.883,5.883,0,0,1-1.274-4.048,6.067,6.067,0,0,1,1.294-4.15,4.659,4.659,0,0,1,3.687-1.465,7.315,7.315,0,0,1,1.543.166,5.083,5.083,0,0,1,1.211.391l-.5,1.377a7.622,7.622,0,0,0-1.172-.356,5.232,5.232,0,0,0-1.123-.142q-3.262,0-3.262,4.16a4.954,4.954,0,0,0,.8,3.027,2.769,2.769,0,0,0,2.358,1.055,7.211,7.211,0,0,0,2.744-.576v1.436A5.849,5.849,0,0,1,22.314,119.2Zm11.826-.2-.322-1.523H33.74a4.5,4.5,0,0,1-1.6,1.362,4.867,4.867,0,0,1-1.987.356,3.575,3.575,0,0,1-2.5-.82,2.992,2.992,0,0,1-.9-2.334q0-3.242,5.186-3.4l1.816-.059v-.664a2.714,2.714,0,0,0-.542-1.86,2.229,2.229,0,0,0-1.733-.6,7.063,7.063,0,0,0-3.027.82l-.5-1.24a7.617,7.617,0,0,1,1.733-.674,7.508,7.508,0,0,1,1.89-.244,4.077,4.077,0,0,1,2.837.85,3.546,3.546,0,0,1,.923,2.725V119Zm-3.662-1.143a3.29,3.29,0,0,0,2.378-.83,3.071,3.071,0,0,0,.864-2.324v-.967L32.1,113.8a5.9,5.9,0,0,0-2.788.6,1.811,1.811,0,0,0-.854,1.655,1.67,1.67,0,0,0,.532,1.338A2.209,2.209,0,0,0,30.479,117.857ZM52.324,119v-6.963a2.89,2.89,0,0,0-.547-1.919,2.115,2.115,0,0,0-1.7-.64,2.743,2.743,0,0,0-2.236.869,4.131,4.131,0,0,0-.723,2.676V119H45.5v-6.963a2.89,2.89,0,0,0-.547-1.919,2.128,2.128,0,0,0-1.709-.64,2.647,2.647,0,0,0-2.231.913,4.942,4.942,0,0,0-.708,2.993V119H38.682V108.3H40l.264,1.465h.078a3.186,3.186,0,0,1,1.294-1.221,3.953,3.953,0,0,1,1.87-.439q2.51,0,3.281,1.816h.078a3.413,3.413,0,0,1,1.387-1.328,4.3,4.3,0,0,1,2.07-.488,3.624,3.624,0,0,1,2.72.933,4.172,4.172,0,0,1,.9,2.983V119Zm9.941.2a4.632,4.632,0,0,1-1.909-.386,3.59,3.59,0,0,1-1.45-1.187h-.117a14.356,14.356,0,0,1,.117,1.777v4.4H57.285V108.3H58.6l.225,1.465h.078a3.765,3.765,0,0,1,1.455-1.27,4.423,4.423,0,0,1,1.9-.391,3.956,3.956,0,0,1,3.286,1.455,7.749,7.749,0,0,1-.02,8.179A3.963,3.963,0,0,1,62.266,119.2Zm-.234-9.717a2.873,2.873,0,0,0-2.373.908,4.673,4.673,0,0,0-.752,2.891v.361a5.356,5.356,0,0,0,.752,3.228,2.86,2.86,0,0,0,2.412.972,2.508,2.508,0,0,0,2.173-1.123,5.325,5.325,0,0,0,.786-3.1,5.126,5.126,0,0,0-.786-3.071A2.586,2.586,0,0,0,62.031,109.479ZM76.123,119l-.322-1.523h-.078a4.5,4.5,0,0,1-1.6,1.362,4.867,4.867,0,0,1-1.987.356,3.575,3.575,0,0,1-2.5-.82,2.992,2.992,0,0,1-.9-2.334q0-3.242,5.186-3.4l1.816-.059v-.664a2.714,2.714,0,0,0-.542-1.86,2.229,2.229,0,0,0-1.733-.6,7.063,7.063,0,0,0-3.027.82l-.5-1.24a7.617,7.617,0,0,1,1.733-.674,7.508,7.508,0,0,1,1.89-.244,4.077,4.077,0,0,1,2.837.85,3.546,3.546,0,0,1,.923,2.725V119Zm-3.662-1.143a3.29,3.29,0,0,0,2.378-.83A3.071,3.071,0,0,0,75.7,114.7v-.967l-1.621.068a5.9,5.9,0,0,0-2.788.6,1.811,1.811,0,0,0-.854,1.655,1.67,1.67,0,0,0,.532,1.338A2.209,2.209,0,0,0,72.461,117.857ZM82.285,119H80.664V108.3h1.621Zm-1.758-13.6a1.077,1.077,0,0,1,.273-.815,1.012,1.012,0,0,1,1.357,0,1.057,1.057,0,0,1,.283.811,1.074,1.074,0,0,1-.283.815.992.992,0,0,1-1.357,0A1.1,1.1,0,0,1,80.527,105.4Zm13.955,2.9v1.025l-1.982.234a3.481,3.481,0,0,1,.7,2.139,3.164,3.164,0,0,1-1.074,2.51,4.333,4.333,0,0,1-2.949.938,4.911,4.911,0,0,1-.9-.078,1.6,1.6,0,0,0-1.035,1.377.7.7,0,0,0,.361.649,2.639,2.639,0,0,0,1.24.21h1.895a4.242,4.242,0,0,1,2.671.732,2.545,2.545,0,0,1,.933,2.129,3.039,3.039,0,0,1-1.426,2.71,7.631,7.631,0,0,1-4.16.933,5.684,5.684,0,0,1-3.237-.781,2.522,2.522,0,0,1-1.138-2.207,2.479,2.479,0,0,1,.625-1.689,3.182,3.182,0,0,1,1.758-.967,1.7,1.7,0,0,1-.688-.576,1.525,1.525,0,0,1-.278-.908,1.724,1.724,0,0,1,.313-1.025,3.286,3.286,0,0,1,.986-.85,2.891,2.891,0,0,1-1.353-1.162,3.415,3.415,0,0,1-.522-1.875,3.463,3.463,0,0,1,1.055-2.71,4.306,4.306,0,0,1,2.988-.952,5.434,5.434,0,0,1,1.514.2Zm-8.535,12.5a1.453,1.453,0,0,0,.732,1.318,4.042,4.042,0,0,0,2.1.449,5.859,5.859,0,0,0,3.022-.61,1.869,1.869,0,0,0,.981-1.655,1.31,1.31,0,0,0-.537-1.206,4.172,4.172,0,0,0-2.021-.337H88.281a2.56,2.56,0,0,0-1.719.527A1.884,1.884,0,0,0,85.947,120.8Zm.879-9.072a2.179,2.179,0,0,0,.635,1.7,2.535,2.535,0,0,0,1.768.576,2.068,2.068,0,0,0,2.373-2.3,2.128,2.128,0,0,0-2.4-2.412,2.378,2.378,0,0,0-1.758.615A2.478,2.478,0,0,0,86.826,111.725ZM104,119v-6.924a2.793,2.793,0,0,0-.6-1.953,2.427,2.427,0,0,0-1.865-.645,3.076,3.076,0,0,0-2.461.908,4.585,4.585,0,0,0-.781,3V119H96.68V108.3H98l.264,1.465h.078a3.31,3.31,0,0,1,1.4-1.226,4.537,4.537,0,0,1,2-.435,4.065,4.065,0,0,1,2.91.933,3.969,3.969,0,0,1,.977,2.983V119Zm4.717-1.035a1.455,1.455,0,0,1,.3-.991,1.08,1.08,0,0,1,.854-.337,1.155,1.155,0,0,1,.884.337,1.4,1.4,0,0,1,.317.991,1.37,1.37,0,0,1-.322.977,1.281,1.281,0,0,1-1.7.034A1.337,1.337,0,0,1,108.721,117.965Z" transform="translate(2919 1422)"/>
    <g id="Group_22" data-name="Group 22" transform="translate(2953.8 1258)">
      <circle id="Ellipse_1" data-name="Ellipse 1" class="cls-5" cx="20" cy="20" r="20" transform="translate(166.2 10)"/>
      <g id="Group_4" data-name="Group 4" transform="translate(176.635 22.077)">
        <path id="Path_3" data-name="Path 3" class="cls-6" d="M2.946,11.978,10.746,0H1.309L.545,1.579H7.8L0,13.557H10.746l.709-1.579Z"/>
        <path id="Path_4" data-name="Path 4" class="cls-6" d="M27.491,0H24l3.928,8.711L24,17.423h3.491l3.982-8.711Z" transform="translate(-10.908)"/>
      </g>
    </g>
    <g id="Group_21" data-name="Group 21" transform="translate(2876 1265.5)">
      <line id="Line_1" data-name="Line 1" class="cls-7" x2="20.154" transform="translate(9.5 15.5)"/>
      <line id="Line_2" data-name="Line 2" class="cls-7" x2="20.154" transform="translate(9.5 22.925)"/>
      <line id="Line_3" data-name="Line 3" class="cls-7" x2="20.154" transform="translate(9.5 30.35)"/>
    </g>
    <path id="Path_8" data-name="Path 8" class="cls-8" d="M77,0H229a24,24,0,0,1,0,48H77A24,24,0,0,1,77,0Z" transform="translate(2866 1586)"/>
    <path id="Path_46" data-name="Path 46" class="cls-9" d="M8.016-3.039A2.8,2.8,0,0,1,6.922-.687,4.743,4.743,0,0,1,3.953.156,7.436,7.436,0,0,1,.828-.367V-1.648a8.227,8.227,0,0,0,1.531.469A8.056,8.056,0,0,0,4-1.008a3.31,3.31,0,0,0,2-.5,1.654,1.654,0,0,0,.672-1.4,1.8,1.8,0,0,0-.238-.973,2.214,2.214,0,0,0-.8-.7,11.148,11.148,0,0,0-1.7-.727A5.424,5.424,0,0,1,1.66-6.664,2.984,2.984,0,0,1,.977-8.7a2.536,2.536,0,0,1,.992-2.1,4.123,4.123,0,0,1,2.625-.781,7.736,7.736,0,0,1,3.133.625L7.313-9.8a7.08,7.08,0,0,0-2.75-.594,2.661,2.661,0,0,0-1.648.453A1.493,1.493,0,0,0,2.32-8.687a1.928,1.928,0,0,0,.219.973,2.06,2.06,0,0,0,.738.7,9.173,9.173,0,0,0,1.59.7A6.294,6.294,0,0,1,7.34-4.945,2.7,2.7,0,0,1,8.016-3.039Zm5.758,3.2a3.934,3.934,0,0,1-3-1.156,4.476,4.476,0,0,1-1.1-3.211A4.964,4.964,0,0,1,10.7-7.5a3.387,3.387,0,0,1,2.738-1.219A3.229,3.229,0,0,1,15.984-7.66a4.057,4.057,0,0,1,.938,2.793v.82h-5.9a3.394,3.394,0,0,0,.762,2.289,2.634,2.634,0,0,0,2.035.781,6.9,6.9,0,0,0,2.734-.578V-.4a6.863,6.863,0,0,1-1.3.426A7.31,7.31,0,0,1,13.773.156Zm-.352-7.789a2.118,2.118,0,0,0-1.645.672A3.1,3.1,0,0,0,11.055-5.1h4.477a2.851,2.851,0,0,0-.547-1.879A1.925,1.925,0,0,0,13.422-7.633ZM21.9-.914a4.236,4.236,0,0,0,.664-.051,4.3,4.3,0,0,0,.508-.105v.992a2.371,2.371,0,0,1-.621.168,4.664,4.664,0,0,1-.738.066q-2.484,0-2.484-2.617V-7.555H18V-8.18l1.227-.539.547-1.828h.75v1.984h2.484v1.008H20.523v5.039a1.734,1.734,0,0,0,.367,1.188A1.278,1.278,0,0,0,21.9-.914Zm8.258-7.648v5.555a2.235,2.235,0,0,0,.477,1.563,1.941,1.941,0,0,0,1.492.516,2.435,2.435,0,0,0,1.965-.734,3.7,3.7,0,0,0,.621-2.4v-4.5h1.3V0h-1.07L34.75-1.148h-.07a2.585,2.585,0,0,1-1.105.969,3.716,3.716,0,0,1-1.613.336,3.273,3.273,0,0,1-2.34-.742,3.159,3.159,0,0,1-.777-2.375v-5.6ZM42.742.156a3.706,3.706,0,0,1-1.527-.309,2.872,2.872,0,0,1-1.16-.949h-.094A11.485,11.485,0,0,1,40.055.32V3.844h-1.3V-8.562h1.055l.18,1.172h.063a3.012,3.012,0,0,1,1.164-1.016,3.539,3.539,0,0,1,1.523-.312,3.165,3.165,0,0,1,2.629,1.164A5.125,5.125,0,0,1,46.3-4.289a5.1,5.1,0,0,1-.941,3.277A3.17,3.17,0,0,1,42.742.156Zm-.187-7.773a2.3,2.3,0,0,0-1.9.727,3.739,3.739,0,0,0-.6,2.313v.289a4.285,4.285,0,0,0,.6,2.582,2.288,2.288,0,0,0,1.93.777,2.007,2.007,0,0,0,1.738-.9A4.26,4.26,0,0,0,44.953-4.3a4.1,4.1,0,0,0-.629-2.457A2.069,2.069,0,0,0,42.555-7.617ZM57.984,0l-.258-1.219h-.062a3.6,3.6,0,0,1-1.277,1.09A3.893,3.893,0,0,1,54.8.156a2.86,2.86,0,0,1-2-.656,2.394,2.394,0,0,1-.723-1.867q0-2.594,4.148-2.719l1.453-.047v-.531a2.171,2.171,0,0,0-.434-1.488,1.783,1.783,0,0,0-1.387-.48,5.65,5.65,0,0,0-2.422.656l-.4-.992a6.094,6.094,0,0,1,1.387-.539,6.006,6.006,0,0,1,1.512-.2,3.262,3.262,0,0,1,2.27.68,2.837,2.837,0,0,1,.738,2.18V0Zm-2.93-.914a2.632,2.632,0,0,0,1.9-.664,2.457,2.457,0,0,0,.691-1.859v-.773l-1.3.055a4.717,4.717,0,0,0-2.23.48,1.449,1.449,0,0,0-.684,1.324,1.336,1.336,0,0,0,.426,1.07A1.767,1.767,0,0,0,55.055-.914ZM69.2.156A3.654,3.654,0,0,1,66.316-.988,4.707,4.707,0,0,1,65.3-4.227a4.853,4.853,0,0,1,1.035-3.32,3.727,3.727,0,0,1,2.949-1.172,5.852,5.852,0,0,1,1.234.133,4.066,4.066,0,0,1,.969.313l-.4,1.1a6.1,6.1,0,0,0-.937-.285,4.186,4.186,0,0,0-.9-.113q-2.609,0-2.609,3.328a3.963,3.963,0,0,0,.637,2.422,2.215,2.215,0,0,0,1.887.844,5.769,5.769,0,0,0,2.2-.461V-.289A4.679,4.679,0,0,1,69.2.156ZM78.656,0,78.4-1.219h-.062a3.6,3.6,0,0,1-1.277,1.09,3.893,3.893,0,0,1-1.59.285,2.86,2.86,0,0,1-2-.656,2.394,2.394,0,0,1-.723-1.867q0-2.594,4.148-2.719l1.453-.047v-.531a2.171,2.171,0,0,0-.434-1.488,1.783,1.783,0,0,0-1.387-.48,5.65,5.65,0,0,0-2.422.656l-.4-.992A6.094,6.094,0,0,1,75.1-8.508a6.006,6.006,0,0,1,1.512-.2,3.262,3.262,0,0,1,2.27.68,2.837,2.837,0,0,1,.738,2.18V0Zm-2.93-.914a2.632,2.632,0,0,0,1.9-.664,2.457,2.457,0,0,0,.691-1.859v-.773l-1.3.055a4.717,4.717,0,0,0-2.23.48,1.449,1.449,0,0,0-.684,1.324,1.336,1.336,0,0,0,.426,1.07A1.767,1.767,0,0,0,75.727-.914ZM93.2,0V-5.57a2.312,2.312,0,0,0-.437-1.535,1.692,1.692,0,0,0-1.359-.512,2.195,2.195,0,0,0-1.789.7,3.3,3.3,0,0,0-.578,2.141V0h-1.3V-5.57A2.312,2.312,0,0,0,87.3-7.105a1.7,1.7,0,0,0-1.367-.512,2.118,2.118,0,0,0-1.785.73,3.953,3.953,0,0,0-.566,2.395V0h-1.3V-8.562h1.055l.211,1.172h.063a2.549,2.549,0,0,1,1.035-.977,3.162,3.162,0,0,1,1.5-.352,2.544,2.544,0,0,1,2.625,1.453h.063a2.73,2.73,0,0,1,1.109-1.062A3.442,3.442,0,0,1,91.6-8.719a2.9,2.9,0,0,1,2.176.746A3.338,3.338,0,0,1,94.5-5.586V0Zm7.953.156a3.706,3.706,0,0,1-1.527-.309,2.872,2.872,0,0,1-1.16-.949h-.094A11.485,11.485,0,0,1,98.469.32V3.844h-1.3V-8.562h1.055l.18,1.172h.063a3.012,3.012,0,0,1,1.164-1.016,3.539,3.539,0,0,1,1.523-.312,3.165,3.165,0,0,1,2.629,1.164,5.125,5.125,0,0,1,.926,3.266,5.1,5.1,0,0,1-.941,3.277A3.17,3.17,0,0,1,101.156.156Zm-.187-7.773a2.3,2.3,0,0,0-1.9.727,3.739,3.739,0,0,0-.6,2.313v.289a4.285,4.285,0,0,0,.6,2.582A2.288,2.288,0,0,0,101-.93a2.007,2.007,0,0,0,1.738-.9,4.26,4.26,0,0,0,.629-2.477,4.1,4.1,0,0,0-.629-2.457A2.069,2.069,0,0,0,100.969-7.617ZM112.242,0l-.258-1.219h-.062a3.6,3.6,0,0,1-1.277,1.09,3.893,3.893,0,0,1-1.59.285,2.86,2.86,0,0,1-2-.656,2.394,2.394,0,0,1-.723-1.867q0-2.594,4.148-2.719l1.453-.047v-.531a2.171,2.171,0,0,0-.434-1.488,1.783,1.783,0,0,0-1.387-.48,5.65,5.65,0,0,0-2.422.656l-.4-.992a6.094,6.094,0,0,1,1.387-.539,6.006,6.006,0,0,1,1.512-.2,3.262,3.262,0,0,1,2.27.68,2.837,2.837,0,0,1,.738,2.18V0Zm-2.93-.914a2.632,2.632,0,0,0,1.9-.664,2.457,2.457,0,0,0,.691-1.859v-.773l-1.3.055a4.717,4.717,0,0,0-2.23.48,1.449,1.449,0,0,0-.684,1.324,1.336,1.336,0,0,0,.426,1.07A1.767,1.767,0,0,0,109.313-.914ZM117.172,0h-1.3V-8.562h1.3Zm-1.406-10.883a.861.861,0,0,1,.219-.652.764.764,0,0,1,.547-.207.764.764,0,0,1,.539.211.846.846,0,0,1,.227.648.859.859,0,0,1-.227.652.757.757,0,0,1-.539.215.749.749,0,0,1-.547-.215A.877.877,0,0,1,115.766-10.883Zm11.164,2.32v.82l-1.586.188a2.726,2.726,0,0,1,.391.715,2.727,2.727,0,0,1,.172,1,2.531,2.531,0,0,1-.859,2.008,3.467,3.467,0,0,1-2.359.75,3.929,3.929,0,0,1-.719-.062,1.276,1.276,0,0,0-.828,1.1.56.56,0,0,0,.289.52,2.112,2.112,0,0,0,.992.168h1.516a3.394,3.394,0,0,1,2.137.586,2.036,2.036,0,0,1,.746,1.7A2.431,2.431,0,0,1,125.68,3.1a6.1,6.1,0,0,1-3.328.746,4.547,4.547,0,0,1-2.59-.625,2.018,2.018,0,0,1-.91-1.766,1.983,1.983,0,0,1,.5-1.352,2.546,2.546,0,0,1,1.406-.773,1.357,1.357,0,0,1-.551-.461,1.22,1.22,0,0,1-.223-.727,1.379,1.379,0,0,1,.25-.82,2.628,2.628,0,0,1,.789-.68,2.313,2.313,0,0,1-1.082-.93,2.732,2.732,0,0,1-.418-1.5,2.771,2.771,0,0,1,.844-2.168,3.445,3.445,0,0,1,2.391-.762,4.347,4.347,0,0,1,1.211.156Zm-6.828,10a1.162,1.162,0,0,0,.586,1.055,3.234,3.234,0,0,0,1.68.359,4.687,4.687,0,0,0,2.418-.488,1.5,1.5,0,0,0,.785-1.324,1.048,1.048,0,0,0-.43-.965,3.337,3.337,0,0,0-1.617-.27h-1.555a2.048,2.048,0,0,0-1.375.422A1.507,1.507,0,0,0,120.1,1.438Zm.7-7.258a1.743,1.743,0,0,0,.508,1.359A2.028,2.028,0,0,0,122.727-4a1.654,1.654,0,0,0,1.9-1.844,1.7,1.7,0,0,0-1.922-1.93,1.9,1.9,0,0,0-1.406.492A1.982,1.982,0,0,0,120.8-5.82ZM134.547,0V-5.539A2.235,2.235,0,0,0,134.07-7.1a1.941,1.941,0,0,0-1.492-.516,2.461,2.461,0,0,0-1.969.727,3.668,3.668,0,0,0-.625,2.4V0h-1.3V-8.562h1.055l.211,1.172h.063a2.648,2.648,0,0,1,1.117-.98,3.63,3.63,0,0,1,1.6-.348,3.252,3.252,0,0,1,2.328.746,3.175,3.175,0,0,1,.781,2.387V0Z" transform="translate(2950 1616)"/>
  </g>
</svg>
