<svg xmlns="http://www.w3.org/2000/svg" xmlns:xlink="http://www.w3.org/1999/xlink" viewBox="2869 510 564 663">
  <defs>
    <style>
      .cls-1 {
        clip-path: url(#clip-guidance_dont_1);
      }

      .cls-2 {
        fill: #f4f4f4;
      }

      .cls-3 {
        fill: #5b5b5b;
      }

      .cls-10, .cls-3, .cls-5 {
        stroke: rgba(0,0,0,0);
      }

      .cls-4, .cls-8 {
        fill: #fff;
      }

      .cls-4 {
        stroke: #d6d6d6;
      }

      .cls-5 {
        fill: #5d5d5d;
      }

      .cls-6 {
        fill: #3d3d3d;
      }

      .cls-7 {
        fill: #242424;
      }

      .cls-9 {
        fill: none;
        stroke: #fff;
        stroke-width: 3px;
      }

      .cls-10 {
        fill: #e40707;
      }
    </style>
    <clipPath id="clip-guidance_dont_1">
      <rect x="2869" y="510" width="564" height="663"/>
    </clipPath>
  </defs>
  <g id="guidance_dont_1" data-name="guidance_dont – 1" class="cls-1">
    <path id="Path_29" data-name="Path 29" class="cls-2" d="M566.5-110.4h-.608l-16.047-13.579L533.8-110.4h-1.221l-16.044-13.478L500.6-110.4H499.15l-15.928-13.478L467.293-110.4h-1.455L449.91-123.879,433.982-110.4h-1.46L416.6-123.778,400.79-110.4h-1.7l-15.906-13.378L367.473-110.4h-1.693l-15.906-13.378L334.064-110.4h-1.7l-15.8-13.277L300.872-110.4H298.94l-15.69-13.277L267.56-110.4h-1.931l-15.69-13.277L234.248-110.4H232.31l-15.683-13.177L201.055-110.4h-2.169l-15.571-13.177L167.745-110.4h-2.17L150-123.577,134.433-110.4h-2.177l-15.563-13.076L101.24-110.4H98.826L83.279-123.476,67.921-110.4H65.516L49.967-123.476,34.515-110.4H32.1L16.655-123.376,3-111.82V-770H566.5v659.6Z" transform="translate(2866 1280)"/>
    <path id="Path_38" data-name="Path 38" class="cls-3" d="M9.922,0H1.963V-14.277H9.922V-12.8h-6.3v4.6H9.541v1.465H3.623v5.254h6.3ZM20.166,0V-6.924a2.793,2.793,0,0,0-.6-1.953,2.427,2.427,0,0,0-1.865-.645,3.076,3.076,0,0,0-2.461.908,4.585,4.585,0,0,0-.781,3V0H12.842V-10.7H14.16l.264,1.465H14.5a3.31,3.31,0,0,1,1.4-1.226,4.537,4.537,0,0,1,2-.435,4.065,4.065,0,0,1,2.91.933,3.969,3.969,0,0,1,.977,2.983V0Zm8.408-1.143a5.3,5.3,0,0,0,.83-.063,5.373,5.373,0,0,0,.635-.132V-.1a2.963,2.963,0,0,1-.776.21A5.83,5.83,0,0,1,28.34.2q-3.105,0-3.105-3.271V-9.443H23.7v-.781l1.533-.674.684-2.285h.938v2.48h3.105v1.26H26.855v6.3a2.167,2.167,0,0,0,.459,1.484A1.6,1.6,0,0,0,28.574-1.143ZM36.7.2A4.917,4.917,0,0,1,32.954-1.25a5.6,5.6,0,0,1-1.372-4.014,6.205,6.205,0,0,1,1.274-4.111A4.233,4.233,0,0,1,36.279-10.9a4.036,4.036,0,0,1,3.184,1.323,5.072,5.072,0,0,1,1.172,3.491v1.025H33.262A4.243,4.243,0,0,0,34.214-2.2a3.293,3.293,0,0,0,2.544.977,8.621,8.621,0,0,0,3.418-.723V-.5A8.579,8.579,0,0,1,38.55.034,9.138,9.138,0,0,1,36.7.2ZM36.26-9.541A2.647,2.647,0,0,0,34.2-8.7a3.871,3.871,0,0,0-.9,2.324h5.6a3.564,3.564,0,0,0-.684-2.349A2.406,2.406,0,0,0,36.26-9.541ZM48.281-10.9a6.343,6.343,0,0,1,1.279.117l-.225,1.5a5.522,5.522,0,0,0-1.172-.146,2.853,2.853,0,0,0-2.222,1.055,3.846,3.846,0,0,0-.923,2.627V0H43.4V-10.7h1.338l.186,1.982H45a4.7,4.7,0,0,1,1.436-1.611A3.232,3.232,0,0,1,48.281-10.9ZM63.34,0l-.322-1.523h-.078a4.5,4.5,0,0,1-1.6,1.362A4.867,4.867,0,0,1,59.355.2a3.575,3.575,0,0,1-2.5-.82,2.992,2.992,0,0,1-.9-2.334q0-3.242,5.186-3.4l1.816-.059V-7.08a2.714,2.714,0,0,0-.542-1.86,2.229,2.229,0,0,0-1.733-.6,7.063,7.063,0,0,0-3.027.82l-.5-1.24a7.618,7.618,0,0,1,1.733-.674,7.507,7.507,0,0,1,1.89-.244,4.077,4.077,0,0,1,2.837.85A3.546,3.546,0,0,1,64.541-7.3V0ZM59.678-1.143a3.29,3.29,0,0,0,2.378-.83A3.071,3.071,0,0,0,62.92-4.3v-.967L61.3-5.2a5.9,5.9,0,0,0-2.788.6,1.811,1.811,0,0,0-.854,1.655A1.67,1.67,0,0,0,58.188-1.6,2.209,2.209,0,0,0,59.678-1.143ZM69.5,0H67.881V-15.2H69.5Zm5.059,0H72.939V-15.2h1.621ZM92.432-5.361a5.9,5.9,0,0,1-1.318,4.087A4.643,4.643,0,0,1,87.471.2a4.824,4.824,0,0,1-2.549-.674A4.447,4.447,0,0,1,83.2-2.412,6.739,6.739,0,0,1,82.6-5.361a5.9,5.9,0,0,1,1.309-4.077,4.628,4.628,0,0,1,3.633-1.46A4.528,4.528,0,0,1,91.108-9.4,5.879,5.879,0,0,1,92.432-5.361Zm-8.154,0a5.08,5.08,0,0,0,.82,3.125A2.847,2.847,0,0,0,87.51-1.162a2.866,2.866,0,0,0,2.417-1.069,5.054,5.054,0,0,0,.825-3.13,4.973,4.973,0,0,0-.825-3.1,2.9,2.9,0,0,0-2.437-1.06,2.853,2.853,0,0,0-2.4,1.045A5.029,5.029,0,0,0,84.277-5.361ZM100.1-9.443H97.373V0H95.752V-9.443H93.838v-.732l1.914-.586v-.6q0-3.945,3.447-3.945a7.094,7.094,0,0,1,1.992.342l-.42,1.3a5.363,5.363,0,0,0-1.6-.3,1.56,1.56,0,0,0-1.357.61,3.406,3.406,0,0,0-.439,1.958v.693H100.1Zm5.449-1.26h1.738l2.344,6.1a23.216,23.216,0,0,1,.957,3.018h.078q.127-.5.532-1.7t2.651-7.417h1.738l-4.6,12.188a6.08,6.08,0,0,1-1.6,2.563,3.4,3.4,0,0,1-2.241.757,6.522,6.522,0,0,1-1.465-.166V3.34a5.651,5.651,0,0,0,1.2.117,2.476,2.476,0,0,0,2.383-1.875l.6-1.523Zm21.016,5.342a5.9,5.9,0,0,1-1.318,4.087A4.643,4.643,0,0,1,121.6.2a4.824,4.824,0,0,1-2.549-.674,4.447,4.447,0,0,1-1.719-1.934,6.739,6.739,0,0,1-.605-2.949,5.9,5.9,0,0,1,1.309-4.077,4.628,4.628,0,0,1,3.633-1.46A4.528,4.528,0,0,1,125.239-9.4,5.879,5.879,0,0,1,126.563-5.361Zm-8.154,0a5.08,5.08,0,0,0,.82,3.125,2.847,2.847,0,0,0,2.412,1.074,2.866,2.866,0,0,0,2.417-1.069,5.054,5.054,0,0,0,.825-3.13,4.973,4.973,0,0,0-.825-3.1,2.9,2.9,0,0,0-2.437-1.06,2.853,2.853,0,0,0-2.4,1.045A5.029,5.029,0,0,0,118.408-5.361Zm12.52-5.342V-3.76a2.793,2.793,0,0,0,.6,1.953,2.427,2.427,0,0,0,1.865.645,3.043,3.043,0,0,0,2.456-.918,4.631,4.631,0,0,0,.776-3V-10.7h1.621V0H136.9l-.234-1.436h-.088A3.231,3.231,0,0,1,135.2-.225a4.644,4.644,0,0,1-2.017.42,4.091,4.091,0,0,1-2.925-.928,3.949,3.949,0,0,1-.972-2.969v-7Zm15.635-.2a6.343,6.343,0,0,1,1.279.117l-.225,1.5a5.522,5.522,0,0,0-1.172-.146,2.853,2.853,0,0,0-2.222,1.055,3.846,3.846,0,0,0-.923,2.627V0H141.68V-10.7h1.338l.186,1.982h.078a4.705,4.705,0,0,1,1.436-1.611A3.232,3.232,0,0,1,146.563-10.9ZM159.316.2a4.568,4.568,0,0,1-3.6-1.431,5.883,5.883,0,0,1-1.274-4.048,6.067,6.067,0,0,1,1.294-4.15,4.659,4.659,0,0,1,3.687-1.465,7.316,7.316,0,0,1,1.543.166,5.083,5.083,0,0,1,1.211.391l-.5,1.377a7.623,7.623,0,0,0-1.172-.356,5.232,5.232,0,0,0-1.123-.142q-3.262,0-3.262,4.16a4.954,4.954,0,0,0,.8,3.027,2.769,2.769,0,0,0,2.358,1.055,7.211,7.211,0,0,0,2.744-.576V-.361A5.849,5.849,0,0,1,159.316.2Zm6.865-.2h-1.621V-15.2h1.621Zm5.059,0h-1.621V-10.7h1.621Zm-1.758-13.6a1.077,1.077,0,0,1,.273-.815.956.956,0,0,1,.684-.259.955.955,0,0,1,.674.264,1.057,1.057,0,0,1,.283.811,1.074,1.074,0,0,1-.283.815.946.946,0,0,1-.674.269.936.936,0,0,1-.684-.269A1.1,1.1,0,0,1,169.482-13.6ZM179.2.2a4.917,4.917,0,0,1-3.745-1.445,5.6,5.6,0,0,1-1.372-4.014,6.205,6.205,0,0,1,1.274-4.111,4.233,4.233,0,0,1,3.423-1.523,4.036,4.036,0,0,1,3.184,1.323,5.072,5.072,0,0,1,1.172,3.491v1.025h-7.373a4.243,4.243,0,0,0,.952,2.861,3.293,3.293,0,0,0,2.544.977,8.621,8.621,0,0,0,3.418-.723V-.5a8.579,8.579,0,0,1-1.626.532A9.138,9.138,0,0,1,179.2.2Zm-.439-9.736a2.647,2.647,0,0,0-2.056.84,3.871,3.871,0,0,0-.9,2.324h5.6a3.564,3.564,0,0,0-.684-2.349A2.406,2.406,0,0,0,178.76-9.541ZM193.223,0V-6.924a2.793,2.793,0,0,0-.6-1.953,2.427,2.427,0,0,0-1.865-.645,3.076,3.076,0,0,0-2.461.908,4.585,4.585,0,0,0-.781,3V0H185.9V-10.7h1.318l.264,1.465h.078a3.31,3.31,0,0,1,1.4-1.226,4.537,4.537,0,0,1,2-.435,4.065,4.065,0,0,1,2.91.933,3.969,3.969,0,0,1,.977,2.983V0Zm8.408-1.143a5.3,5.3,0,0,0,.83-.063,5.373,5.373,0,0,0,.635-.132V-.1a2.963,2.963,0,0,1-.776.21A5.83,5.83,0,0,1,201.4.2q-3.105,0-3.105-3.271V-9.443h-1.533v-.781l1.533-.674.684-2.285h.938v2.48h3.105v1.26h-3.105v6.3a2.167,2.167,0,0,0,.459,1.484A1.6,1.6,0,0,0,201.631-1.143Zm5-13.135-.391,5.156h-1.025l-.4-5.156ZM216.563-2.92a2.681,2.681,0,0,1-1.113,2.3A5.233,5.233,0,0,1,212.324.2,6.8,6.8,0,0,1,209-.479v-1.5a8.03,8.03,0,0,0,1.655.615,6.912,6.912,0,0,0,1.7.225,3.864,3.864,0,0,0,1.953-.405A1.34,1.34,0,0,0,215-2.783a1.341,1.341,0,0,0-.542-1.069,8.526,8.526,0,0,0-2.114-1.05,11.465,11.465,0,0,1-2.124-.972,2.9,2.9,0,0,1-.937-.942,2.458,2.458,0,0,1-.308-1.26,2.4,2.4,0,0,1,1.064-2.065,4.96,4.96,0,0,1,2.92-.757,8.544,8.544,0,0,1,3.379.7l-.576,1.318a7.756,7.756,0,0,0-2.92-.664,3.359,3.359,0,0,0-1.738.361,1.117,1.117,0,0,0-.586,1,1.213,1.213,0,0,0,.22.732,2.168,2.168,0,0,0,.708.576,15.821,15.821,0,0,0,1.875.791,7,7,0,0,1,2.573,1.4A2.463,2.463,0,0,1,216.563-2.92ZM226.016,0h-1.621V-10.7h1.621Zm-1.758-13.6a1.077,1.077,0,0,1,.273-.815.956.956,0,0,1,.684-.259.955.955,0,0,1,.674.264,1.057,1.057,0,0,1,.283.811,1.074,1.074,0,0,1-.283.815.946.946,0,0,1-.674.269.936.936,0,0,1-.684-.269A1.1,1.1,0,0,1,224.258-13.6ZM236.777,0V-6.924a2.793,2.793,0,0,0-.6-1.953,2.427,2.427,0,0,0-1.865-.645,3.076,3.076,0,0,0-2.461.908,4.585,4.585,0,0,0-.781,3V0h-1.621V-10.7h1.318l.264,1.465h.078a3.31,3.31,0,0,1,1.4-1.226,4.537,4.537,0,0,1,2-.435,4.065,4.065,0,0,1,2.91.933,3.969,3.969,0,0,1,.977,2.983V0Zm9.775-9.443h-2.725V0h-1.621V-9.443h-1.914v-.732l1.914-.586v-.6q0-3.945,3.447-3.945a7.094,7.094,0,0,1,1.992.342l-.42,1.3a5.363,5.363,0,0,0-1.6-.3,1.56,1.56,0,0,0-1.357.61,3.406,3.406,0,0,0-.439,1.958v.693h2.725Zm11.191,4.082a5.9,5.9,0,0,1-1.318,4.087A4.643,4.643,0,0,1,252.783.2a4.824,4.824,0,0,1-2.549-.674,4.447,4.447,0,0,1-1.719-1.934,6.739,6.739,0,0,1-.605-2.949,5.9,5.9,0,0,1,1.309-4.077,4.628,4.628,0,0,1,3.633-1.46A4.528,4.528,0,0,1,256.421-9.4,5.879,5.879,0,0,1,257.744-5.361Zm-8.154,0a5.08,5.08,0,0,0,.82,3.125,2.847,2.847,0,0,0,2.412,1.074,2.866,2.866,0,0,0,2.417-1.069,5.054,5.054,0,0,0,.825-3.13,4.973,4.973,0,0,0-.825-3.1,2.9,2.9,0,0,0-2.437-1.06,2.853,2.853,0,0,0-2.4,1.045A5.029,5.029,0,0,0,249.59-5.361ZM265.469-10.9a6.343,6.343,0,0,1,1.279.117l-.225,1.5a5.522,5.522,0,0,0-1.172-.146,2.853,2.853,0,0,0-2.222,1.055,3.846,3.846,0,0,0-.923,2.627V0h-1.621V-10.7h1.338l.186,1.982h.078a4.7,4.7,0,0,1,1.436-1.611A3.232,3.232,0,0,1,265.469-10.9ZM282.393,0V-6.963a2.89,2.89,0,0,0-.547-1.919,2.115,2.115,0,0,0-1.7-.64,2.743,2.743,0,0,0-2.236.869,4.131,4.131,0,0,0-.723,2.676V0h-1.621V-6.963a2.89,2.89,0,0,0-.547-1.919,2.128,2.128,0,0,0-1.709-.64,2.647,2.647,0,0,0-2.231.913,4.942,4.942,0,0,0-.708,2.993V0H268.75V-10.7h1.318l.264,1.465h.078a3.186,3.186,0,0,1,1.294-1.221,3.953,3.953,0,0,1,1.87-.439q2.51,0,3.281,1.816h.078a3.413,3.413,0,0,1,1.387-1.328,4.3,4.3,0,0,1,2.07-.488,3.624,3.624,0,0,1,2.72.933,4.172,4.172,0,0,1,.9,2.983V0Zm11.543,0-.322-1.523h-.078a4.5,4.5,0,0,1-1.6,1.362A4.867,4.867,0,0,1,289.951.2a3.575,3.575,0,0,1-2.5-.82,2.992,2.992,0,0,1-.9-2.334q0-3.242,5.186-3.4l1.816-.059V-7.08a2.714,2.714,0,0,0-.542-1.86,2.229,2.229,0,0,0-1.733-.6,7.063,7.063,0,0,0-3.027.82l-.5-1.24a7.617,7.617,0,0,1,1.733-.674,7.508,7.508,0,0,1,1.89-.244,4.077,4.077,0,0,1,2.837.85,3.546,3.546,0,0,1,.923,2.725V0Zm-3.662-1.143a3.29,3.29,0,0,0,2.378-.83,3.071,3.071,0,0,0,.864-2.324v-.967l-1.621.068a5.9,5.9,0,0,0-2.788.6,1.811,1.811,0,0,0-.854,1.655,1.67,1.67,0,0,0,.532,1.338A2.209,2.209,0,0,0,290.273-1.143Zm11.66,0a5.3,5.3,0,0,0,.83-.063,5.373,5.373,0,0,0,.635-.132V-.1a2.963,2.963,0,0,1-.776.21A5.83,5.83,0,0,1,301.7.2q-3.105,0-3.105-3.271V-9.443h-1.533v-.781l1.533-.674.684-2.285h.938v2.48h3.105v1.26h-3.105v6.3a2.167,2.167,0,0,0,.459,1.484A1.6,1.6,0,0,0,301.934-1.143ZM307.158,0h-1.621V-10.7h1.621ZM305.4-13.6a1.077,1.077,0,0,1,.273-.815.956.956,0,0,1,.684-.259.955.955,0,0,1,.674.264,1.057,1.057,0,0,1,.283.811,1.074,1.074,0,0,1-.283.815.946.946,0,0,1-.674.269.936.936,0,0,1-.684-.269A1.1,1.1,0,0,1,305.4-13.6Zm14.434,8.242a5.9,5.9,0,0,1-1.318,4.087A4.643,4.643,0,0,1,314.873.2a4.824,4.824,0,0,1-2.549-.674,4.447,4.447,0,0,1-1.719-1.934A6.739,6.739,0,0,1,310-5.361a5.9,5.9,0,0,1,1.309-4.077,4.628,4.628,0,0,1,3.633-1.46A4.528,4.528,0,0,1,318.511-9.4,5.879,5.879,0,0,1,319.834-5.361Zm-8.154,0a5.08,5.08,0,0,0,.82,3.125,2.847,2.847,0,0,0,2.412,1.074,2.866,2.866,0,0,0,2.417-1.069,5.054,5.054,0,0,0,.825-3.13,4.973,4.973,0,0,0-.825-3.1,2.9,2.9,0,0,0-2.437-1.06,2.853,2.853,0,0,0-2.4,1.045A5.029,5.029,0,0,0,311.68-5.361ZM330,0V-6.924a2.794,2.794,0,0,0-.6-1.953,2.427,2.427,0,0,0-1.865-.645,3.076,3.076,0,0,0-2.461.908,4.585,4.585,0,0,0-.781,3V0h-1.621V-10.7h1.318l.264,1.465h.078a3.31,3.31,0,0,1,1.4-1.226,4.537,4.537,0,0,1,2-.435,4.065,4.065,0,0,1,2.91.933,3.969,3.969,0,0,1,.977,2.983V0Zm15.127-10.879a3.979,3.979,0,0,1,3.276,1.44,6.323,6.323,0,0,1,1.167,4.077,6.369,6.369,0,0,1-1.177,4.1A3.963,3.963,0,0,1,345.127.2a4.632,4.632,0,0,1-1.909-.386,3.59,3.59,0,0,1-1.45-1.187h-.117L341.309,0h-1.162V-15.2h1.621V-11.5q0,1.24-.078,2.227h.078A3.848,3.848,0,0,1,345.127-10.879Zm-.234,1.357a2.83,2.83,0,0,0-2.393.952,5.371,5.371,0,0,0-.732,3.208,5.356,5.356,0,0,0,.752,3.228,2.86,2.86,0,0,0,2.412.972,2.5,2.5,0,0,0,2.227-1.089,5.6,5.6,0,0,0,.732-3.13,5.378,5.378,0,0,0-.732-3.115A2.6,2.6,0,0,0,344.893-9.521ZM356.924.2a4.917,4.917,0,0,1-3.745-1.445,5.6,5.6,0,0,1-1.372-4.014,6.205,6.205,0,0,1,1.274-4.111A4.233,4.233,0,0,1,356.5-10.9a4.036,4.036,0,0,1,3.184,1.323,5.072,5.072,0,0,1,1.172,3.491v1.025h-7.373a4.243,4.243,0,0,0,.952,2.861,3.293,3.293,0,0,0,2.544.977,8.621,8.621,0,0,0,3.418-.723V-.5a8.578,8.578,0,0,1-1.626.532A9.138,9.138,0,0,1,356.924.2Zm-.439-9.736a2.647,2.647,0,0,0-2.056.84,3.871,3.871,0,0,0-.9,2.324h5.6a3.564,3.564,0,0,0-.684-2.349A2.406,2.406,0,0,0,356.484-9.541Zm11.963.1h-2.725V0H364.1V-9.443h-1.914v-.732l1.914-.586v-.6q0-3.945,3.447-3.945a7.094,7.094,0,0,1,1.992.342l-.42,1.3a5.363,5.363,0,0,0-1.6-.3,1.56,1.56,0,0,0-1.357.61,3.406,3.406,0,0,0-.439,1.958v.693h2.725Zm11.191,4.082a5.9,5.9,0,0,1-1.318,4.087A4.643,4.643,0,0,1,374.678.2a4.824,4.824,0,0,1-2.549-.674,4.447,4.447,0,0,1-1.719-1.934,6.739,6.739,0,0,1-.605-2.949,5.9,5.9,0,0,1,1.309-4.077,4.628,4.628,0,0,1,3.633-1.46A4.528,4.528,0,0,1,378.315-9.4,5.879,5.879,0,0,1,379.639-5.361Zm-8.154,0a5.08,5.08,0,0,0,.82,3.125,2.847,2.847,0,0,0,2.412,1.074,2.866,2.866,0,0,0,2.417-1.069,5.054,5.054,0,0,0,.825-3.13,4.973,4.973,0,0,0-.825-3.1,2.9,2.9,0,0,0-2.437-1.06,2.853,2.853,0,0,0-2.4,1.045A5.029,5.029,0,0,0,371.484-5.361ZM387.363-10.9a6.343,6.343,0,0,1,1.279.117l-.225,1.5a5.522,5.522,0,0,0-1.172-.146,2.853,2.853,0,0,0-2.222,1.055,3.846,3.846,0,0,0-.923,2.627V0H382.48V-10.7h1.338L384-8.721h.078a4.7,4.7,0,0,1,1.436-1.611A3.232,3.232,0,0,1,387.363-10.9ZM395.166.2a4.917,4.917,0,0,1-3.745-1.445,5.6,5.6,0,0,1-1.372-4.014,6.205,6.205,0,0,1,1.274-4.111,4.233,4.233,0,0,1,3.423-1.523,4.036,4.036,0,0,1,3.184,1.323A5.072,5.072,0,0,1,399.1-6.084v1.025h-7.373a4.243,4.243,0,0,0,.952,2.861,3.293,3.293,0,0,0,2.544.977,8.621,8.621,0,0,0,3.418-.723V-.5a8.578,8.578,0,0,1-1.626.532A9.138,9.138,0,0,1,395.166.2Zm-.439-9.736a2.647,2.647,0,0,0-2.056.84,3.871,3.871,0,0,0-.9,2.324h5.6a3.564,3.564,0,0,0-.684-2.349A2.406,2.406,0,0,0,394.727-9.541ZM6,27.2a4.568,4.568,0,0,1-3.6-1.431,5.883,5.883,0,0,1-1.274-4.048,6.067,6.067,0,0,1,1.294-4.15A4.659,4.659,0,0,1,6.1,16.1a7.315,7.315,0,0,1,1.543.166,5.083,5.083,0,0,1,1.211.391l-.5,1.377a7.622,7.622,0,0,0-1.172-.356,5.232,5.232,0,0,0-1.123-.142Q2.8,17.537,2.8,21.7a4.954,4.954,0,0,0,.8,3.027,2.769,2.769,0,0,0,2.358,1.055A7.211,7.211,0,0,0,8.7,25.2v1.436A5.849,5.849,0,0,1,6,27.2Zm14.482-5.557a5.9,5.9,0,0,1-1.318,4.087,4.643,4.643,0,0,1-3.643,1.47,4.824,4.824,0,0,1-2.549-.674,4.447,4.447,0,0,1-1.719-1.934,6.739,6.739,0,0,1-.605-2.949,5.9,5.9,0,0,1,1.309-4.077,4.628,4.628,0,0,1,3.633-1.46A4.528,4.528,0,0,1,19.155,17.6,5.879,5.879,0,0,1,20.479,21.639Zm-8.154,0a5.08,5.08,0,0,0,.82,3.125,2.847,2.847,0,0,0,2.412,1.074,2.866,2.866,0,0,0,2.417-1.069,5.054,5.054,0,0,0,.825-3.13,4.973,4.973,0,0,0-.825-3.1,2.9,2.9,0,0,0-2.437-1.06,2.853,2.853,0,0,0-2.4,1.045A5.029,5.029,0,0,0,12.324,21.639ZM30.645,27V20.076a2.793,2.793,0,0,0-.6-1.953,2.427,2.427,0,0,0-1.865-.645,3.076,3.076,0,0,0-2.461.908,4.585,4.585,0,0,0-.781,3V27H23.32V16.3h1.318l.264,1.465h.078a3.31,3.31,0,0,1,1.4-1.226,4.537,4.537,0,0,1,2-.435,4.065,4.065,0,0,1,2.91.933,3.969,3.969,0,0,1,.977,2.983V27Zm8.408-1.143a5.3,5.3,0,0,0,.83-.063,5.373,5.373,0,0,0,.635-.132V26.9a2.963,2.963,0,0,1-.776.21,5.83,5.83,0,0,1-.923.083q-3.105,0-3.105-3.271V17.557H34.18v-.781l1.533-.674.684-2.285h.938V16.3h3.105v1.26H37.334v6.3a2.167,2.167,0,0,0,.459,1.484A1.6,1.6,0,0,0,39.053,25.857ZM44.277,27H42.656V16.3h1.621ZM42.52,13.4a1.077,1.077,0,0,1,.273-.815,1.012,1.012,0,0,1,1.357,0,1.057,1.057,0,0,1,.283.811,1.074,1.074,0,0,1-.283.815.992.992,0,0,1-1.357,0A1.1,1.1,0,0,1,42.52,13.4ZM55.039,27V20.076a2.793,2.793,0,0,0-.6-1.953,2.427,2.427,0,0,0-1.865-.645,3.076,3.076,0,0,0-2.461.908,4.585,4.585,0,0,0-.781,3V27H47.715V16.3h1.318l.264,1.465h.078a3.31,3.31,0,0,1,1.4-1.226,4.537,4.537,0,0,1,2-.435,4.065,4.065,0,0,1,2.91.933,3.969,3.969,0,0,1,.977,2.983V27Zm6.475-10.7V23.24a2.793,2.793,0,0,0,.6,1.953,2.427,2.427,0,0,0,1.865.645,3.043,3.043,0,0,0,2.456-.918,4.631,4.631,0,0,0,.776-3V16.3h1.621V27H67.49l-.234-1.436h-.088a3.231,3.231,0,0,1-1.382,1.211,4.644,4.644,0,0,1-2.017.42,4.091,4.091,0,0,1-2.925-.928,3.949,3.949,0,0,1-.972-2.969v-7ZM73.887,27H72.266V16.3h1.621ZM72.129,13.4a1.077,1.077,0,0,1,.273-.815,1.012,1.012,0,0,1,1.357,0,1.057,1.057,0,0,1,.283.811,1.074,1.074,0,0,1-.283.815.992.992,0,0,1-1.357,0A1.1,1.1,0,0,1,72.129,13.4ZM84.648,27V20.076a2.793,2.793,0,0,0-.6-1.953,2.427,2.427,0,0,0-1.865-.645,3.076,3.076,0,0,0-2.461.908,4.585,4.585,0,0,0-.781,3V27H77.324V16.3h1.318l.264,1.465h.078a3.31,3.31,0,0,1,1.4-1.226,4.537,4.537,0,0,1,2-.435,4.065,4.065,0,0,1,2.91.933,3.969,3.969,0,0,1,.977,2.983V27ZM98.359,16.3v1.025l-1.982.234a3.481,3.481,0,0,1,.7,2.139,3.164,3.164,0,0,1-1.074,2.51,4.333,4.333,0,0,1-2.949.938,4.911,4.911,0,0,1-.9-.078,1.6,1.6,0,0,0-1.035,1.377.7.7,0,0,0,.361.649,2.639,2.639,0,0,0,1.24.21h1.895a4.242,4.242,0,0,1,2.671.732,2.545,2.545,0,0,1,.933,2.129,3.039,3.039,0,0,1-1.426,2.71,7.631,7.631,0,0,1-4.16.933,5.684,5.684,0,0,1-3.237-.781,2.522,2.522,0,0,1-1.138-2.207,2.479,2.479,0,0,1,.625-1.689,3.182,3.182,0,0,1,1.758-.967,1.7,1.7,0,0,1-.688-.576,1.525,1.525,0,0,1-.278-.908,1.724,1.724,0,0,1,.313-1.025,3.286,3.286,0,0,1,.986-.85,2.891,2.891,0,0,1-1.353-1.162,3.415,3.415,0,0,1-.522-1.875,3.463,3.463,0,0,1,1.055-2.71,4.306,4.306,0,0,1,2.988-.952,5.434,5.434,0,0,1,1.514.2ZM89.824,28.8a1.453,1.453,0,0,0,.732,1.318,4.042,4.042,0,0,0,2.1.449,5.859,5.859,0,0,0,3.022-.61A1.869,1.869,0,0,0,96.66,28.3a1.31,1.31,0,0,0-.537-1.206,4.172,4.172,0,0,0-2.021-.337H92.158a2.56,2.56,0,0,0-1.719.527A1.884,1.884,0,0,0,89.824,28.8Zm.879-9.072a2.179,2.179,0,0,0,.635,1.7A2.535,2.535,0,0,0,93.105,22a2.068,2.068,0,0,0,2.373-2.3,2.128,2.128,0,0,0-2.4-2.412,2.378,2.378,0,0,0-1.758.615A2.478,2.478,0,0,0,90.7,19.725Zm9.619,6.24a1.455,1.455,0,0,1,.3-.991,1.08,1.08,0,0,1,.854-.337,1.155,1.155,0,0,1,.884.337,1.4,1.4,0,0,1,.317.991,1.37,1.37,0,0,1-.322.977,1.281,1.281,0,0,1-1.7.034A1.337,1.337,0,0,1,100.322,25.965Z" transform="translate(2917 640)"/>
    <path id="Path_33" data-name="Path 33" class="cls-4" d="M.5.5h472v46H.5Z" transform="translate(2917 746)"/>
    <path id="Path_31" data-name="Path 31" class="cls-4" d="M.5.5h472v46H.5Z" transform="translate(2917 980)"/>
    <path id="Path_30" data-name="Path 30" class="cls-4" d="M.5.5h472v46H.5Z" transform="translate(2917 1097)"/>
    <path id="Path_32" data-name="Path 32" class="cls-4" d="M.5.5h158v46H.5Z" transform="translate(2917 863)"/>
    <path id="Path_34" data-name="Path 34" class="cls-5" d="M1.508-11.422H4.9a6.435,6.435,0,0,1,3.41.688A2.407,2.407,0,0,1,9.359-8.562,2.632,2.632,0,0,1,8.844-6.9a2.306,2.306,0,0,1-1.484.836v.078a2.947,2.947,0,0,1,1.77.895A2.706,2.706,0,0,1,9.7-3.281,2.932,2.932,0,0,1,8.621-.871,4.621,4.621,0,0,1,5.633,0H1.508ZM3.375-6.7h1.8a3.077,3.077,0,0,0,1.711-.371,1.421,1.421,0,0,0,.539-1.262A1.264,1.264,0,0,0,6.84-9.5a3.635,3.635,0,0,0-1.848-.359H3.375Zm0,1.516V-1.57H5.359a2.921,2.921,0,0,0,1.77-.449,1.658,1.658,0,0,0,.6-1.418,1.506,1.506,0,0,0-.609-1.32,3.229,3.229,0,0,0-1.852-.43ZM17.969,0l-.258-1.133h-.094a2.6,2.6,0,0,1-1.09.945,3.644,3.644,0,0,1-1.613.344A3.167,3.167,0,0,1,12.57-.625,3.239,3.239,0,0,1,11.8-2.992V-8.641h1.852v5.328a2.311,2.311,0,0,0,.406,1.488,1.551,1.551,0,0,0,1.273.5,2.028,2.028,0,0,0,1.7-.691,3.81,3.81,0,0,0,.543-2.316v-4.3h1.844V0Zm9.867-2.461A2.261,2.261,0,0,1,26.914-.52a4.414,4.414,0,0,1-2.641.676A6.237,6.237,0,0,1,21.5-.367V-1.953a6.809,6.809,0,0,0,2.836.7q1.7,0,1.7-1.023a.811.811,0,0,0-.187-.547,2.219,2.219,0,0,0-.617-.453,10.621,10.621,0,0,0-1.2-.531,5.529,5.529,0,0,1-2.02-1.156,2.139,2.139,0,0,1-.527-1.5,1.97,1.97,0,0,1,.895-1.723A4.245,4.245,0,0,1,24.813-8.8,6.893,6.893,0,0,1,27.7-8.18L27.1-6.8a6.412,6.412,0,0,0-2.352-.578q-1.453,0-1.453.828a.833.833,0,0,0,.379.688,8.333,8.333,0,0,0,1.652.773,7.553,7.553,0,0,1,1.555.758,2.265,2.265,0,0,1,.719.793A2.3,2.3,0,0,1,27.836-2.461ZM31.656,0H29.82V-8.641h1.836ZM29.711-10.93a1.017,1.017,0,0,1,.27-.758,1.05,1.05,0,0,1,.77-.266,1.028,1.028,0,0,1,.754.266,1.017,1.017,0,0,1,.27.758,1,1,0,0,1-.27.738,1.019,1.019,0,0,1-.754.27,1.041,1.041,0,0,1-.77-.27A1,1,0,0,1,29.711-10.93ZM41.883,0H40.039V-5.312a2.325,2.325,0,0,0-.4-1.492A1.555,1.555,0,0,0,38.359-7.3a2.031,2.031,0,0,0-1.7.688,3.8,3.8,0,0,0-.539,2.3V0H34.281V-8.641h1.438l.258,1.133h.094a2.556,2.556,0,0,1,1.109-.953A3.718,3.718,0,0,1,38.773-8.8q3.109,0,3.109,3.164Zm6.328.156A4.18,4.18,0,0,1,45.059-1.02a4.463,4.463,0,0,1-1.137-3.238,4.9,4.9,0,0,1,1.055-3.328,3.643,3.643,0,0,1,2.9-1.211,3.561,3.561,0,0,1,2.7,1.039A3.97,3.97,0,0,1,51.57-4.9v.992H45.813a2.838,2.838,0,0,0,.68,1.934,2.367,2.367,0,0,0,1.8.676,6.662,6.662,0,0,0,1.426-.145,7.474,7.474,0,0,0,1.418-.48V-.43a5.637,5.637,0,0,1-1.359.453A8.336,8.336,0,0,1,48.211.156Zm-.336-7.562a1.845,1.845,0,0,0-1.4.555,2.643,2.643,0,0,0-.629,1.617h3.922a2.392,2.392,0,0,0-.516-1.621A1.764,1.764,0,0,0,47.875-7.406ZM59.461-2.461A2.261,2.261,0,0,1,58.539-.52,4.414,4.414,0,0,1,55.9.156a6.237,6.237,0,0,1-2.773-.523V-1.953a6.809,6.809,0,0,0,2.836.7q1.7,0,1.7-1.023a.811.811,0,0,0-.187-.547,2.219,2.219,0,0,0-.617-.453,10.621,10.621,0,0,0-1.2-.531,5.529,5.529,0,0,1-2.02-1.156,2.139,2.139,0,0,1-.527-1.5A1.97,1.97,0,0,1,54-8.184,4.245,4.245,0,0,1,56.438-8.8a6.893,6.893,0,0,1,2.883.617L58.727-6.8a6.412,6.412,0,0,0-2.352-.578q-1.453,0-1.453.828a.833.833,0,0,0,.379.688,8.333,8.333,0,0,0,1.652.773,7.553,7.553,0,0,1,1.555.758,2.265,2.265,0,0,1,.719.793A2.3,2.3,0,0,1,59.461-2.461Zm7.789,0A2.261,2.261,0,0,1,66.328-.52a4.414,4.414,0,0,1-2.641.676,6.237,6.237,0,0,1-2.773-.523V-1.953a6.809,6.809,0,0,0,2.836.7q1.7,0,1.7-1.023a.811.811,0,0,0-.187-.547,2.219,2.219,0,0,0-.617-.453,10.621,10.621,0,0,0-1.2-.531,5.529,5.529,0,0,1-2.02-1.156,2.139,2.139,0,0,1-.527-1.5,1.97,1.97,0,0,1,.895-1.723A4.245,4.245,0,0,1,64.227-8.8a6.893,6.893,0,0,1,2.883.617L66.516-6.8a6.412,6.412,0,0,0-2.352-.578q-1.453,0-1.453.828a.833.833,0,0,0,.379.688,8.333,8.333,0,0,0,1.652.773,7.553,7.553,0,0,1,1.555.758,2.265,2.265,0,0,1,.719.793A2.3,2.3,0,0,1,67.25-2.461ZM80.992,0H79.148V-5.312a2.325,2.325,0,0,0-.4-1.492A1.555,1.555,0,0,0,77.469-7.3a2.031,2.031,0,0,0-1.7.688,3.8,3.8,0,0,0-.539,2.3V0H73.391V-8.641h1.438l.258,1.133h.094a2.556,2.556,0,0,1,1.109-.953A3.718,3.718,0,0,1,77.883-8.8q3.109,0,3.109,3.164Zm7.961,0-.367-1.2h-.062A3.54,3.54,0,0,1,87.266-.129a3.978,3.978,0,0,1-1.625.285,2.75,2.75,0,0,1-1.988-.687,2.573,2.573,0,0,1-.715-1.945,2.284,2.284,0,0,1,.992-2.016,5.721,5.721,0,0,1,3.023-.742l1.492-.047v-.461a1.747,1.747,0,0,0-.387-1.238,1.577,1.577,0,0,0-1.2-.41,4.147,4.147,0,0,0-1.273.2,9.61,9.61,0,0,0-1.172.461L83.82-8.047a6.39,6.39,0,0,1,1.539-.559A7.083,7.083,0,0,1,86.938-8.8a3.738,3.738,0,0,1,2.488.719,2.814,2.814,0,0,1,.84,2.258V0ZM86.219-1.25a2.274,2.274,0,0,0,1.605-.559,2.025,2.025,0,0,0,.605-1.566v-.75l-1.109.047a3.8,3.8,0,0,0-1.887.434,1.317,1.317,0,0,0-.59,1.184,1.155,1.155,0,0,0,.344.895A1.477,1.477,0,0,0,86.219-1.25ZM100.109,0H98.266V-5.328a2.416,2.416,0,0,0-.375-1.48A1.384,1.384,0,0,0,96.719-7.3a1.787,1.787,0,0,0-1.559.691,4.057,4.057,0,0,0-.5,2.3V0H92.828V-8.641h1.438l.258,1.133h.094a2.394,2.394,0,0,1,1.043-.953,3.363,3.363,0,0,1,1.5-.336A2.628,2.628,0,0,1,99.8-7.437h.125a2.634,2.634,0,0,1,1.078-1A3.422,3.422,0,0,1,102.6-8.8a2.9,2.9,0,0,1,2.254.781,3.46,3.46,0,0,1,.707,2.383V0h-1.836V-5.328a2.4,2.4,0,0,0-.379-1.48,1.4,1.4,0,0,0-1.176-.488,1.822,1.822,0,0,0-1.566.668,3.443,3.443,0,0,0-.5,2.051ZM111.9.156a4.18,4.18,0,0,1-3.152-1.176,4.463,4.463,0,0,1-1.137-3.238,4.9,4.9,0,0,1,1.055-3.328,3.643,3.643,0,0,1,2.9-1.211,3.561,3.561,0,0,1,2.7,1.039,3.97,3.97,0,0,1,.992,2.859v.992H109.5a2.838,2.838,0,0,0,.68,1.934,2.367,2.367,0,0,0,1.8.676,6.662,6.662,0,0,0,1.426-.145,7.474,7.474,0,0,0,1.418-.48V-.43a5.637,5.637,0,0,1-1.359.453A8.336,8.336,0,0,1,111.9.156Zm-.336-7.562a1.845,1.845,0,0,0-1.4.555,2.644,2.644,0,0,0-.629,1.617h3.922a2.392,2.392,0,0,0-.516-1.621A1.764,1.764,0,0,0,111.563-7.406Zm5.508,6.43a1.2,1.2,0,0,1,.3-.875,1.146,1.146,0,0,1,.859-.3,1.132,1.132,0,0,1,.867.316,1.211,1.211,0,0,1,.3.863,1.241,1.241,0,0,1-.3.879,1.119,1.119,0,0,1-.863.324,1.114,1.114,0,0,1-.859-.32A1.249,1.249,0,0,1,117.07-.977Zm0-6.672a1.032,1.032,0,0,1,1.156-1.18,1.136,1.136,0,0,1,.875.313,1.228,1.228,0,0,1,.289.867,1.241,1.241,0,0,1-.3.879,1.119,1.119,0,0,1-.863.324,1.114,1.114,0,0,1-.859-.32A1.249,1.249,0,0,1,117.07-7.648Z" transform="translate(2917 1078)"/>
    <path id="Path_36" data-name="Path 36" class="cls-5" d="M6.445,0,3.133-9.539H3.07Q3.2-7.414,3.2-5.555V0h-1.7V-11.422H4.141L7.313-2.336h.047l3.266-9.086h2.641V0h-1.8V-5.648q0-.852.043-2.219t.074-1.656h-.062L8.094,0ZM17.914,0H16.078V-8.641h1.836ZM15.969-10.93a1.017,1.017,0,0,1,.27-.758,1.05,1.05,0,0,1,.77-.266,1.028,1.028,0,0,1,.754.266,1.017,1.017,0,0,1,.27.758,1,1,0,0,1-.27.738,1.019,1.019,0,0,1-.754.27,1.041,1.041,0,0,1-.77-.27A1,1,0,0,1,15.969-10.93ZM23.453.156A3.01,3.01,0,0,1,20.93-1.016,5.267,5.267,0,0,1,20.023-4.3a5.284,5.284,0,0,1,.918-3.309A3.038,3.038,0,0,1,23.484-8.8a2.979,2.979,0,0,1,2.594,1.258h.094a11.005,11.005,0,0,1-.133-1.469v-3.148h1.844V0H26.445l-.32-1.133h-.086A2.935,2.935,0,0,1,23.453.156Zm.492-1.484a2,2,0,0,0,1.648-.637,3.352,3.352,0,0,0,.531-2.066v-.258a3.873,3.873,0,0,0-.531-2.32A1.971,1.971,0,0,0,23.93-7.3a1.688,1.688,0,0,0-1.492.785,4.024,4.024,0,0,0-.523,2.238,3.923,3.923,0,0,0,.508,2.191A1.714,1.714,0,0,0,23.945-1.328ZM33.422.156A3.01,3.01,0,0,1,30.9-1.016,5.267,5.267,0,0,1,29.992-4.3a5.284,5.284,0,0,1,.918-3.309A3.038,3.038,0,0,1,33.453-8.8a2.979,2.979,0,0,1,2.594,1.258h.094a11.005,11.005,0,0,1-.133-1.469v-3.148h1.844V0H36.414l-.32-1.133h-.086A2.935,2.935,0,0,1,33.422.156Zm.492-1.484a2,2,0,0,0,1.648-.637,3.352,3.352,0,0,0,.531-2.066v-.258a3.873,3.873,0,0,0-.531-2.32A1.971,1.971,0,0,0,33.9-7.3a1.688,1.688,0,0,0-1.492.785,4.024,4.024,0,0,0-.523,2.238,3.923,3.923,0,0,0,.508,2.191A1.714,1.714,0,0,0,33.914-1.328ZM42.313,0H40.477V-12.156h1.836Zm6.4.156A4.18,4.18,0,0,1,45.559-1.02a4.463,4.463,0,0,1-1.137-3.238,4.9,4.9,0,0,1,1.055-3.328,3.643,3.643,0,0,1,2.9-1.211,3.561,3.561,0,0,1,2.7,1.039A3.97,3.97,0,0,1,52.07-4.9v.992H46.313a2.838,2.838,0,0,0,.68,1.934,2.367,2.367,0,0,0,1.8.676,6.662,6.662,0,0,0,1.426-.145,7.474,7.474,0,0,0,1.418-.48V-.43a5.637,5.637,0,0,1-1.359.453A8.336,8.336,0,0,1,48.711.156Zm-.336-7.562a1.845,1.845,0,0,0-1.4.555,2.643,2.643,0,0,0-.629,1.617h3.922a2.392,2.392,0,0,0-.516-1.621A1.764,1.764,0,0,0,48.375-7.406ZM60.148,0H58.313V-8.641h1.836ZM58.2-10.93a1.017,1.017,0,0,1,.27-.758,1.05,1.05,0,0,1,.77-.266,1.028,1.028,0,0,1,.754.266,1.017,1.017,0,0,1,.27.758,1,1,0,0,1-.27.738,1.019,1.019,0,0,1-.754.27,1.041,1.041,0,0,1-.77-.27A1,1,0,0,1,58.2-10.93ZM70.375,0H68.531V-5.312a2.325,2.325,0,0,0-.4-1.492A1.555,1.555,0,0,0,66.852-7.3a2.031,2.031,0,0,0-1.7.688,3.8,3.8,0,0,0-.539,2.3V0H62.773V-8.641h1.438l.258,1.133h.094a2.556,2.556,0,0,1,1.109-.953A3.718,3.718,0,0,1,67.266-8.8q3.109,0,3.109,3.164Zm4.391,0H72.93V-8.641h1.836ZM72.82-10.93a1.017,1.017,0,0,1,.27-.758,1.05,1.05,0,0,1,.77-.266,1.028,1.028,0,0,1,.754.266,1.017,1.017,0,0,1,.27.758,1,1,0,0,1-.27.738,1.019,1.019,0,0,1-.754.27,1.041,1.041,0,0,1-.77-.27A1,1,0,0,1,72.82-10.93Zm7.789,9.6a4.465,4.465,0,0,0,1.344-.211V-.156a3.706,3.706,0,0,1-.785.223,5.409,5.409,0,0,1-1,.09q-2.609,0-2.609-2.75V-7.25h-1.18v-.812l1.266-.672.625-1.828h1.133v1.922h2.461V-7.25H79.406v4.625a1.3,1.3,0,0,0,.332.98A1.21,1.21,0,0,0,80.609-1.328ZM85.516,0H83.68V-8.641h1.836ZM83.57-10.93a1.017,1.017,0,0,1,.27-.758,1.05,1.05,0,0,1,.77-.266,1.028,1.028,0,0,1,.754.266,1.017,1.017,0,0,1,.27.758,1,1,0,0,1-.27.738,1.019,1.019,0,0,1-.754.27,1.041,1.041,0,0,1-.77-.27A1,1,0,0,1,83.57-10.93ZM93.547,0,93.18-1.2h-.062A3.54,3.54,0,0,1,91.859-.129a3.978,3.978,0,0,1-1.625.285,2.75,2.75,0,0,1-1.988-.687,2.573,2.573,0,0,1-.715-1.945,2.284,2.284,0,0,1,.992-2.016,5.721,5.721,0,0,1,3.023-.742l1.492-.047v-.461a1.747,1.747,0,0,0-.387-1.238,1.577,1.577,0,0,0-1.2-.41,4.147,4.147,0,0,0-1.273.2,9.61,9.61,0,0,0-1.172.461l-.594-1.312a6.39,6.39,0,0,1,1.539-.559A7.083,7.083,0,0,1,91.531-8.8a3.738,3.738,0,0,1,2.488.719,2.814,2.814,0,0,1,.84,2.258V0ZM90.813-1.25a2.274,2.274,0,0,0,1.605-.559,2.025,2.025,0,0,0,.605-1.566v-.75l-1.109.047a3.8,3.8,0,0,0-1.887.434,1.317,1.317,0,0,0-.59,1.184,1.155,1.155,0,0,0,.344.895A1.477,1.477,0,0,0,90.813-1.25ZM99.258,0H97.422V-12.156h1.836Zm2.352-.977a1.2,1.2,0,0,1,.3-.875,1.146,1.146,0,0,1,.859-.3,1.132,1.132,0,0,1,.867.316,1.211,1.211,0,0,1,.3.863,1.241,1.241,0,0,1-.3.879,1.119,1.119,0,0,1-.863.324,1.114,1.114,0,0,1-.859-.32A1.249,1.249,0,0,1,101.609-.977Zm0-6.672a1.032,1.032,0,0,1,1.156-1.18,1.136,1.136,0,0,1,.875.313,1.228,1.228,0,0,1,.289.867,1.241,1.241,0,0,1-.3.879,1.119,1.119,0,0,1-.863.324,1.114,1.114,0,0,1-.859-.32A1.249,1.249,0,0,1,101.609-7.648Z" transform="translate(2917 844)"/>
    <path id="Path_39" data-name="Path 39" class="cls-6" d="M0,0H564V60H0Z" transform="translate(2869 510)"/>
    <g id="Group_13" data-name="Group 13" transform="translate(2964.8 510)">
      <circle id="Ellipse_1" data-name="Ellipse 1" class="cls-7" cx="20" cy="20" r="20" transform="translate(166.2 10)"/>
      <g id="Group_4" data-name="Group 4" transform="translate(176.635 22.077)">
        <path id="Path_3" data-name="Path 3" class="cls-8" d="M2.946,11.978,10.746,0H1.309L.545,1.579H7.8L0,13.557H10.746l.709-1.579Z"/>
        <path id="Path_4" data-name="Path 4" class="cls-8" d="M27.491,0H24l3.928,8.711L24,17.423h3.491l3.982-8.711Z" transform="translate(-10.908)"/>
      </g>
    </g>
    <g id="Group_11" data-name="Group 11" transform="translate(2887 517.5)">
      <line id="Line_1" data-name="Line 1" class="cls-9" x2="20.154" transform="translate(9.5 15.5)"/>
      <line id="Line_2" data-name="Line 2" class="cls-9" x2="20.154" transform="translate(9.5 22.925)"/>
      <line id="Line_3" data-name="Line 3" class="cls-9" x2="20.154" transform="translate(9.5 30.35)"/>
    </g>
    <path id="Path_50" data-name="Path 50" class="cls-3" d="M3.359,0H1.508V-11.422H7.953v1.578H3.359v3.57h4.3v1.586h-4.3Zm8.3,0H9.828V-8.641h1.836ZM9.719-10.93a1.017,1.017,0,0,1,.27-.758,1.05,1.05,0,0,1,.77-.266,1.028,1.028,0,0,1,.754.266,1.017,1.017,0,0,1,.27.758,1,1,0,0,1-.27.738,1.019,1.019,0,0,1-.754.27,1.041,1.041,0,0,1-.77-.27A1,1,0,0,1,9.719-10.93ZM18.672-8.8a4.42,4.42,0,0,1,.914.078l-.18,1.711a3.47,3.47,0,0,0-.812-.094,2.351,2.351,0,0,0-1.785.719,2.6,2.6,0,0,0-.684,1.867V0H14.289V-8.641h1.438l.242,1.523h.094a3.423,3.423,0,0,1,1.121-1.227A2.665,2.665,0,0,1,18.672-8.8Zm8.32,6.336A2.261,2.261,0,0,1,26.07-.52,4.414,4.414,0,0,1,23.43.156a6.237,6.237,0,0,1-2.773-.523V-1.953a6.809,6.809,0,0,0,2.836.7q1.7,0,1.7-1.023A.811.811,0,0,0,25-2.82a2.219,2.219,0,0,0-.617-.453,10.621,10.621,0,0,0-1.2-.531,5.529,5.529,0,0,1-2.02-1.156,2.139,2.139,0,0,1-.527-1.5,1.97,1.97,0,0,1,.895-1.723A4.245,4.245,0,0,1,23.969-8.8a6.893,6.893,0,0,1,2.883.617L26.258-6.8a6.412,6.412,0,0,0-2.352-.578q-1.453,0-1.453.828a.833.833,0,0,0,.379.688,8.333,8.333,0,0,0,1.652.773,7.553,7.553,0,0,1,1.555.758,2.265,2.265,0,0,1,.719.793A2.3,2.3,0,0,1,26.992-2.461Zm5.2,1.133a4.465,4.465,0,0,0,1.344-.211V-.156a3.706,3.706,0,0,1-.785.223,5.409,5.409,0,0,1-1,.09q-2.609,0-2.609-2.75V-7.25h-1.18v-.812l1.266-.672.625-1.828h1.133v1.922h2.461V-7.25H30.992v4.625a1.3,1.3,0,0,0,.332.98A1.21,1.21,0,0,0,32.2-1.328ZM47.023,0H45.18V-5.312a2.325,2.325,0,0,0-.4-1.492A1.555,1.555,0,0,0,43.5-7.3a2.031,2.031,0,0,0-1.7.688,3.8,3.8,0,0,0-.539,2.3V0H39.422V-8.641h1.438l.258,1.133h.094a2.556,2.556,0,0,1,1.109-.953A3.718,3.718,0,0,1,43.914-8.8q3.109,0,3.109,3.164Zm7.961,0-.367-1.2h-.062A3.54,3.54,0,0,1,53.3-.129a3.978,3.978,0,0,1-1.625.285,2.75,2.75,0,0,1-1.988-.687,2.573,2.573,0,0,1-.715-1.945,2.284,2.284,0,0,1,.992-2.016,5.721,5.721,0,0,1,3.023-.742l1.492-.047v-.461A1.747,1.747,0,0,0,54.09-6.98a1.577,1.577,0,0,0-1.2-.41,4.147,4.147,0,0,0-1.273.2,9.61,9.61,0,0,0-1.172.461l-.594-1.312a6.39,6.39,0,0,1,1.539-.559A7.083,7.083,0,0,1,52.969-8.8a3.738,3.738,0,0,1,2.488.719A2.814,2.814,0,0,1,56.3-5.82V0ZM52.25-1.25a2.274,2.274,0,0,0,1.605-.559,2.025,2.025,0,0,0,.605-1.566v-.75l-1.109.047a3.8,3.8,0,0,0-1.887.434,1.317,1.317,0,0,0-.59,1.184,1.155,1.155,0,0,0,.344.895A1.477,1.477,0,0,0,52.25-1.25ZM66.141,0H64.3V-5.328a2.416,2.416,0,0,0-.375-1.48A1.384,1.384,0,0,0,62.75-7.3a1.787,1.787,0,0,0-1.559.691,4.057,4.057,0,0,0-.5,2.3V0H58.859V-8.641H60.3l.258,1.133h.094a2.394,2.394,0,0,1,1.043-.953A3.363,3.363,0,0,1,63.2-8.8a2.628,2.628,0,0,1,2.641,1.359h.125a2.634,2.634,0,0,1,1.078-1A3.422,3.422,0,0,1,68.633-8.8a2.9,2.9,0,0,1,2.254.781,3.46,3.46,0,0,1,.707,2.383s.459,4.225,0,5.633-1.836,0-1.836,0V-5.328a2.4,2.4,0,0,0-.379-1.48A1.4,1.4,0,0,0,68.2-7.3a1.822,1.822,0,0,0-1.566.668,3.443,3.443,0,0,0-.5,2.051ZM77.93.156A4.18,4.18,0,0,1,74.777-1.02a4.463,4.463,0,0,1-1.137-3.238A4.9,4.9,0,0,1,74.7-7.586a3.643,3.643,0,0,1,2.9-1.211,3.561,3.561,0,0,1,2.7,1.039A3.97,3.97,0,0,1,81.289-4.9v.992H75.531a2.838,2.838,0,0,0,.68,1.934,2.367,2.367,0,0,0,1.8.676,6.662,6.662,0,0,0,1.426-.145,7.474,7.474,0,0,0,1.418-.48V-.43A5.637,5.637,0,0,1,79.5.023,8.336,8.336,0,0,1,77.93.156Zm-.336-7.562a1.845,1.845,0,0,0-1.4.555,2.644,2.644,0,0,0-.629,1.617h3.922a2.392,2.392,0,0,0-.516-1.621A1.764,1.764,0,0,0,77.594-7.406ZM83.1-.977a1.2,1.2,0,0,1,.3-.875,1.146,1.146,0,0,1,.859-.3,1.132,1.132,0,0,1,.867.316,1.211,1.211,0,0,1,.3.863,1.241,1.241,0,0,1-.3.879,1.119,1.119,0,0,1-.863.324,1.114,1.114,0,0,1-.859-.32A1.249,1.249,0,0,1,83.1-.977Zm0-6.672a1.032,1.032,0,0,1,1.156-1.18,1.136,1.136,0,0,1,.875.313,1.228,1.228,0,0,1,.289.867,1.241,1.241,0,0,1-.3.879,1.119,1.119,0,0,1-.863.324,1.114,1.114,0,0,1-.859-.32A1.249,1.249,0,0,1,83.1-7.648Z" transform="translate(2916 727)"/>
    <path id="Path_51" data-name="Path 51" class="cls-10" d="M95.867-12.156l-.32,2.984,3.008-.844.219,1.7-2.812.227L97.8-5.664l-1.555.836-1.3-2.641L93.789-4.828l-1.6-.836,1.8-2.43L91.2-8.32l.273-1.7,2.938.844-.32-2.984Z" transform="translate(2916 727)"/>
    <path id="Path_53" data-name="Path 53" class="cls-10" d="M95.867-12.156l-.32,2.984,3.008-.844.219,1.7-2.812.227L97.8-5.664l-1.555.836-1.3-2.641L93.789-4.828l-1.6-.836,1.8-2.43L91.2-8.32l.273-1.7,2.938.844-.32-2.984Z" transform="translate(2914 961)"/>
    <path id="Path_52" data-name="Path 52" class="cls-3" d="M1.508,0V-11.422H3.375V-1.6H8.211V0ZM15.391,0l-.367-1.2h-.062A3.54,3.54,0,0,1,13.7-.129a3.978,3.978,0,0,1-1.625.285A2.75,2.75,0,0,1,10.09-.531a2.573,2.573,0,0,1-.715-1.945,2.284,2.284,0,0,1,.992-2.016,5.721,5.721,0,0,1,3.023-.742l1.492-.047v-.461A1.747,1.747,0,0,0,14.5-6.98a1.577,1.577,0,0,0-1.2-.41,4.147,4.147,0,0,0-1.273.2,9.61,9.61,0,0,0-1.172.461l-.594-1.312A6.39,6.39,0,0,1,11.8-8.605,7.083,7.083,0,0,1,13.375-8.8a3.738,3.738,0,0,1,2.488.719A2.814,2.814,0,0,1,16.7-5.82V0ZM12.656-1.25a2.274,2.274,0,0,0,1.605-.559,2.025,2.025,0,0,0,.605-1.566v-.75l-1.109.047a3.8,3.8,0,0,0-1.887.434,1.317,1.317,0,0,0-.59,1.184,1.155,1.155,0,0,0,.344.895A1.477,1.477,0,0,0,12.656-1.25ZM25.07-2.461A2.261,2.261,0,0,1,24.148-.52a4.414,4.414,0,0,1-2.641.676,6.237,6.237,0,0,1-2.773-.523V-1.953a6.809,6.809,0,0,0,2.836.7q1.7,0,1.7-1.023a.811.811,0,0,0-.187-.547,2.219,2.219,0,0,0-.617-.453,10.621,10.621,0,0,0-1.2-.531,5.529,5.529,0,0,1-2.02-1.156,2.139,2.139,0,0,1-.527-1.5,1.97,1.97,0,0,1,.895-1.723A4.245,4.245,0,0,1,22.047-8.8a6.893,6.893,0,0,1,2.883.617L24.336-6.8a6.412,6.412,0,0,0-2.352-.578q-1.453,0-1.453.828a.833.833,0,0,0,.379.688,8.333,8.333,0,0,0,1.652.773,7.553,7.553,0,0,1,1.555.758,2.265,2.265,0,0,1,.719.793A2.3,2.3,0,0,1,25.07-2.461Zm5.2,1.133a4.465,4.465,0,0,0,1.344-.211V-.156a3.706,3.706,0,0,1-.785.223,5.409,5.409,0,0,1-1,.09q-2.609,0-2.609-2.75V-7.25h-1.18v-.812l1.266-.672.625-1.828H29.07v1.922h2.461V-7.25H29.07v4.625a1.3,1.3,0,0,0,.332.98A1.21,1.21,0,0,0,30.273-1.328ZM45.1,0H43.258V-5.312a2.325,2.325,0,0,0-.4-1.492A1.555,1.555,0,0,0,41.578-7.3a2.031,2.031,0,0,0-1.7.688,3.8,3.8,0,0,0-.539,2.3V0H37.5V-8.641h1.438L39.2-7.508h.094A2.556,2.556,0,0,1,40.4-8.461,3.718,3.718,0,0,1,41.992-8.8Q45.1-8.8,45.1-5.633Zm7.961,0L52.7-1.2h-.062A3.54,3.54,0,0,1,51.375-.129,3.978,3.978,0,0,1,49.75.156a2.75,2.75,0,0,1-1.988-.687,2.573,2.573,0,0,1-.715-1.945,2.284,2.284,0,0,1,.992-2.016,5.721,5.721,0,0,1,3.023-.742l1.492-.047v-.461a1.747,1.747,0,0,0-.387-1.238,1.577,1.577,0,0,0-1.2-.41,4.147,4.147,0,0,0-1.273.2,9.61,9.61,0,0,0-1.172.461L47.93-8.047a6.39,6.39,0,0,1,1.539-.559A7.083,7.083,0,0,1,51.047-8.8a3.738,3.738,0,0,1,2.488.719,2.814,2.814,0,0,1,.84,2.258V0ZM50.328-1.25a2.274,2.274,0,0,0,1.605-.559,2.025,2.025,0,0,0,.605-1.566v-.75l-1.109.047a3.8,3.8,0,0,0-1.887.434,1.317,1.317,0,0,0-.59,1.184,1.155,1.155,0,0,0,.344.895A1.477,1.477,0,0,0,50.328-1.25ZM64.219,0H62.375V-5.328A2.416,2.416,0,0,0,62-6.809,1.384,1.384,0,0,0,60.828-7.3a1.787,1.787,0,0,0-1.559.691,4.057,4.057,0,0,0-.5,2.3V0H56.938V-8.641h1.438l.258,1.133h.094a2.394,2.394,0,0,1,1.043-.953,3.363,3.363,0,0,1,1.5-.336,2.628,2.628,0,0,1,2.641,1.359h.125a2.634,2.634,0,0,1,1.078-1A3.422,3.422,0,0,1,66.711-8.8a2.9,2.9,0,0,1,2.254.781,3.46,3.46,0,0,1,.707,2.383V0H67.836V-5.328a2.4,2.4,0,0,0-.379-1.48A1.4,1.4,0,0,0,66.281-7.3a1.822,1.822,0,0,0-1.566.668,3.443,3.443,0,0,0-.5,2.051ZM76.008.156A4.18,4.18,0,0,1,72.855-1.02a4.463,4.463,0,0,1-1.137-3.238,4.9,4.9,0,0,1,1.055-3.328,3.643,3.643,0,0,1,2.9-1.211,3.561,3.561,0,0,1,2.7,1.039A3.97,3.97,0,0,1,79.367-4.9v.992H73.609a2.838,2.838,0,0,0,.68,1.934,2.367,2.367,0,0,0,1.8.676,6.662,6.662,0,0,0,1.426-.145,7.474,7.474,0,0,0,1.418-.48V-.43a5.637,5.637,0,0,1-1.359.453A8.336,8.336,0,0,1,76.008.156Zm-.336-7.562a1.845,1.845,0,0,0-1.4.555,2.644,2.644,0,0,0-.629,1.617h3.922a2.392,2.392,0,0,0-.516-1.621A1.764,1.764,0,0,0,75.672-7.406ZM81.18-.977a1.2,1.2,0,0,1,.3-.875,1.146,1.146,0,0,1,.859-.3,1.132,1.132,0,0,1,.867.316,1.211,1.211,0,0,1,.3.863,1.241,1.241,0,0,1-.3.879,1.119,1.119,0,0,1-.863.324,1.114,1.114,0,0,1-.859-.32A1.249,1.249,0,0,1,81.18-.977Zm0-6.672a1.032,1.032,0,0,1,1.156-1.18,1.136,1.136,0,0,1,.875.313,1.228,1.228,0,0,1,.289.867,1.241,1.241,0,0,1-.3.879,1.119,1.119,0,0,1-.863.324,1.114,1.114,0,0,1-.859-.32A1.249,1.249,0,0,1,81.18-7.648Z" transform="translate(2916 961)"/>
  </g>
</svg>
