<svg xmlns="http://www.w3.org/2000/svg" xmlns:xlink="http://www.w3.org/1999/xlink" viewBox="2181 510 564 663">
  <defs>
    <style>
      .cls-1 {
        clip-path: url(#clip-guidance_do_1);
      }

      .cls-2 {
        fill: #f4f4f4;
      }

      .cls-3 {
        fill: #5b5b5b;
      }

      .cls-3, .cls-5, .cls-6 {
        stroke: rgba(0,0,0,0);
      }

      .cls-4, .cls-9 {
        fill: #fff;
      }

      .cls-4 {
        stroke: #d6d6d6;
      }

      .cls-5 {
        fill: #e40707;
      }

      .cls-6 {
        fill: #5d5d5d;
      }

      .cls-7 {
        fill: #3d3d3d;
      }

      .cls-8 {
        fill: #242424;
      }

      .cls-10 {
        fill: none;
        stroke: #fff;
        stroke-width: 3px;
      }
    </style>
    <clipPath id="clip-guidance_do_1">
      <rect x="2181" y="510" width="564" height="663"/>
    </clipPath>
  </defs>
  <g id="guidance_do_1" data-name="guidance_do – 1" class="cls-1">
    <path id="Path_19" data-name="Path 19" class="cls-2" d="M566.5-109.5h-.559l-16.1-13.91-16.1,13.91h-1.122l-16.093-13.808L500.556-109.5H499.2l-15.977-13.808L467.243-109.5h-1.356L449.91-123.308,433.933-109.5h-1.361L416.6-123.206,400.741-109.5h-1.6l-15.956-13.705L367.424-109.5h-1.6l-15.955-13.705L334.015-109.5h-1.6l-15.852-13.6-15.739,13.6H298.99l-15.74-13.6-15.739,13.6h-1.833l-15.739-13.6L234.2-109.5h-1.84L216.627-123l-15.621,13.5h-2.07L183.316-123,167.7-109.5h-2.07L150-123l-15.62,13.5h-2.078l-15.613-13.4-15.5,13.4H98.876l-15.6-13.4L67.873-109.5H65.565l-15.6-13.4-15.5,13.4H32.149L16.655-122.794,3-110.992V-770H566.5v660.5Z" transform="translate(2179 1280)"/>
    <path id="Path_21" data-name="Path 21" class="cls-3" d="M6.357,0H4.7V-12.8H.176v-1.475h10.7V-12.8H6.357ZM17.666-10.9a6.343,6.343,0,0,1,1.279.117l-.225,1.5a5.522,5.522,0,0,0-1.172-.146,2.853,2.853,0,0,0-2.222,1.055A3.846,3.846,0,0,0,14.4-5.742V0H12.783V-10.7h1.338l.186,1.982h.078a4.7,4.7,0,0,1,1.436-1.611A3.232,3.232,0,0,1,17.666-10.9Zm1.582.2h1.738L23.33-4.6a23.216,23.216,0,0,1,.957,3.018h.078q.127-.5.532-1.7T27.549-10.7h1.738l-4.6,12.188a6.08,6.08,0,0,1-1.6,2.563A3.4,3.4,0,0,1,20.85,4.8a6.522,6.522,0,0,1-1.465-.166V3.34a5.651,5.651,0,0,0,1.2.117,2.476,2.476,0,0,0,2.383-1.875l.6-1.523Zm20.43,9.561a5.3,5.3,0,0,0,.83-.063,5.373,5.373,0,0,0,.635-.132V-.1a2.963,2.963,0,0,1-.776.21A5.83,5.83,0,0,1,39.443.2q-3.105,0-3.105-3.271V-9.443H34.8v-.781l1.533-.674.684-2.285h.938v2.48h3.105v1.26H37.959v6.3a2.167,2.167,0,0,0,.459,1.484A1.6,1.6,0,0,0,39.678-1.143ZM52.52-5.361A5.9,5.9,0,0,1,51.2-1.274,4.643,4.643,0,0,1,47.559.2,4.824,4.824,0,0,1,45.01-.479a4.447,4.447,0,0,1-1.719-1.934,6.739,6.739,0,0,1-.605-2.949,5.9,5.9,0,0,1,1.309-4.077,4.628,4.628,0,0,1,3.633-1.46A4.528,4.528,0,0,1,51.2-9.4,5.879,5.879,0,0,1,52.52-5.361Zm-8.154,0a5.08,5.08,0,0,0,.82,3.125A2.847,2.847,0,0,0,47.6-1.162a2.866,2.866,0,0,0,2.417-1.069,5.054,5.054,0,0,0,.825-3.13,4.973,4.973,0,0,0-.825-3.1,2.9,2.9,0,0,0-2.437-1.06,2.853,2.853,0,0,0-2.4,1.045A5.029,5.029,0,0,0,44.365-5.361ZM65.078.2A4.917,4.917,0,0,1,61.333-1.25a5.6,5.6,0,0,1-1.372-4.014,6.205,6.205,0,0,1,1.274-4.111A4.233,4.233,0,0,1,64.658-10.9a4.036,4.036,0,0,1,3.184,1.323,5.072,5.072,0,0,1,1.172,3.491v1.025H61.641A4.243,4.243,0,0,0,62.593-2.2a3.293,3.293,0,0,0,2.544.977,8.621,8.621,0,0,0,3.418-.723V-.5a8.579,8.579,0,0,1-1.626.532A9.138,9.138,0,0,1,65.078.2Zm-.439-9.736a2.647,2.647,0,0,0-2.056.84,3.871,3.871,0,0,0-.9,2.324h5.6a3.564,3.564,0,0,0-.684-2.349A2.406,2.406,0,0,0,64.639-9.541ZM79.1,0V-6.924a2.793,2.793,0,0,0-.6-1.953,2.427,2.427,0,0,0-1.865-.645,3.076,3.076,0,0,0-2.461.908,4.585,4.585,0,0,0-.781,3V0H71.777V-10.7H73.1l.264,1.465h.078a3.31,3.31,0,0,1,1.4-1.226,4.537,4.537,0,0,1,2-.435,4.065,4.065,0,0,1,2.91.933,3.969,3.969,0,0,1,.977,2.983V0ZM87.51-1.143a5.3,5.3,0,0,0,.83-.063,5.373,5.373,0,0,0,.635-.132V-.1a2.963,2.963,0,0,1-.776.21A5.83,5.83,0,0,1,87.275.2Q84.17.2,84.17-3.076V-9.443H82.637v-.781L84.17-10.9l.684-2.285h.938v2.48H88.9v1.26H85.791v6.3A2.167,2.167,0,0,0,86.25-1.66,1.6,1.6,0,0,0,87.51-1.143ZM95.635.2A4.917,4.917,0,0,1,91.89-1.25a5.6,5.6,0,0,1-1.372-4.014,6.205,6.205,0,0,1,1.274-4.111A4.233,4.233,0,0,1,95.215-10.9,4.036,4.036,0,0,1,98.4-9.575,5.072,5.072,0,0,1,99.57-6.084v1.025H92.2A4.243,4.243,0,0,0,93.149-2.2a3.293,3.293,0,0,0,2.544.977,8.621,8.621,0,0,0,3.418-.723V-.5a8.579,8.579,0,0,1-1.626.532A9.138,9.138,0,0,1,95.635.2ZM95.2-9.541a2.647,2.647,0,0,0-2.056.84,3.871,3.871,0,0,0-.9,2.324h5.6a3.564,3.564,0,0,0-.684-2.349A2.406,2.406,0,0,0,95.2-9.541ZM107.217-10.9a6.343,6.343,0,0,1,1.279.117l-.225,1.5a5.522,5.522,0,0,0-1.172-.146,2.853,2.853,0,0,0-2.222,1.055,3.846,3.846,0,0,0-.923,2.627V0h-1.621V-10.7h1.338l.186,1.982h.078a4.7,4.7,0,0,1,1.436-1.611A3.232,3.232,0,0,1,107.217-10.9ZM122.275,0l-.322-1.523h-.078a4.5,4.5,0,0,1-1.6,1.362A4.867,4.867,0,0,1,118.291.2a3.575,3.575,0,0,1-2.5-.82,2.992,2.992,0,0,1-.9-2.334q0-3.242,5.186-3.4l1.816-.059V-7.08a2.714,2.714,0,0,0-.542-1.86,2.229,2.229,0,0,0-1.733-.6,7.063,7.063,0,0,0-3.027.82l-.5-1.24a7.618,7.618,0,0,1,1.733-.674,7.507,7.507,0,0,1,1.89-.244,4.077,4.077,0,0,1,2.837.85,3.546,3.546,0,0,1,.923,2.725V0Zm-3.662-1.143a3.29,3.29,0,0,0,2.378-.83,3.071,3.071,0,0,0,.864-2.324v-.967l-1.621.068a5.9,5.9,0,0,0-2.788.6,1.811,1.811,0,0,0-.854,1.655,1.67,1.67,0,0,0,.532,1.338A2.209,2.209,0,0,0,118.613-1.143ZM133.721-2.92a2.681,2.681,0,0,1-1.113,2.3A5.233,5.233,0,0,1,129.482.2a6.8,6.8,0,0,1-3.32-.674v-1.5a8.029,8.029,0,0,0,1.655.615,6.912,6.912,0,0,0,1.7.225,3.864,3.864,0,0,0,1.953-.405,1.34,1.34,0,0,0,.684-1.235,1.341,1.341,0,0,0-.542-1.069A8.526,8.526,0,0,0,129.5-4.9a11.465,11.465,0,0,1-2.124-.972,2.9,2.9,0,0,1-.937-.942,2.458,2.458,0,0,1-.308-1.26,2.4,2.4,0,0,1,1.064-2.065,4.96,4.96,0,0,1,2.92-.757,8.544,8.544,0,0,1,3.379.7l-.576,1.318A7.756,7.756,0,0,0,130-9.541a3.359,3.359,0,0,0-1.738.361,1.117,1.117,0,0,0-.586,1,1.213,1.213,0,0,0,.22.732,2.168,2.168,0,0,0,.708.576,15.821,15.821,0,0,0,1.875.791,7,7,0,0,1,2.573,1.4A2.463,2.463,0,0,1,133.721-2.92ZM155.2,0V-6.963a2.89,2.89,0,0,0-.547-1.919,2.115,2.115,0,0,0-1.7-.64,2.743,2.743,0,0,0-2.236.869,4.131,4.131,0,0,0-.723,2.676V0h-1.621V-6.963a2.89,2.89,0,0,0-.547-1.919,2.128,2.128,0,0,0-1.709-.64,2.647,2.647,0,0,0-2.231.913,4.942,4.942,0,0,0-.708,2.993V0h-1.621V-10.7h1.318l.264,1.465h.078a3.186,3.186,0,0,1,1.294-1.221,3.953,3.953,0,0,1,1.87-.439q2.51,0,3.281,1.816h.078a3.413,3.413,0,0,1,1.387-1.328,4.3,4.3,0,0,1,2.07-.488,3.624,3.624,0,0,1,2.72.933,4.172,4.172,0,0,1,.9,2.983V0Zm6.484-10.7V-3.76a2.793,2.793,0,0,0,.6,1.953,2.427,2.427,0,0,0,1.865.645A3.043,3.043,0,0,0,166.6-2.08a4.631,4.631,0,0,0,.776-3V-10.7h1.621V0h-1.338l-.234-1.436h-.088a3.231,3.231,0,0,1-1.382,1.211,4.644,4.644,0,0,1-2.017.42,4.091,4.091,0,0,1-2.925-.928,3.949,3.949,0,0,1-.972-2.969v-7ZM176.709.2a4.568,4.568,0,0,1-3.6-1.431,5.883,5.883,0,0,1-1.274-4.048,6.067,6.067,0,0,1,1.294-4.15,4.659,4.659,0,0,1,3.687-1.465,7.316,7.316,0,0,1,1.543.166,5.083,5.083,0,0,1,1.211.391l-.5,1.377a7.623,7.623,0,0,0-1.172-.356,5.232,5.232,0,0,0-1.123-.142q-3.262,0-3.262,4.16a4.954,4.954,0,0,0,.8,3.027,2.769,2.769,0,0,0,2.358,1.055,7.211,7.211,0,0,0,2.744-.576V-.361A5.849,5.849,0,0,1,176.709.2ZM189.277,0V-6.924a2.793,2.793,0,0,0-.6-1.953,2.427,2.427,0,0,0-1.865-.645,3.056,3.056,0,0,0-2.466.918,4.649,4.649,0,0,0-.776,3.008V0h-1.621V-15.2h1.621v4.6a10.023,10.023,0,0,1-.078,1.377h.1a3.306,3.306,0,0,1,1.362-1.216,4.429,4.429,0,0,1,2.017-.444,4.13,4.13,0,0,1,2.944.933,3.928,3.928,0,0,1,.981,2.964V0Zm11.768,0h-1.621V-10.7h1.621Zm-1.758-13.6a1.077,1.077,0,0,1,.273-.815.956.956,0,0,1,.684-.259.955.955,0,0,1,.674.264,1.057,1.057,0,0,1,.283.811,1.074,1.074,0,0,1-.283.815.946.946,0,0,1-.674.269.936.936,0,0,1-.684-.269A1.1,1.1,0,0,1,199.287-13.6ZM211.807,0V-6.924a2.793,2.793,0,0,0-.6-1.953,2.427,2.427,0,0,0-1.865-.645,3.076,3.076,0,0,0-2.461.908,4.585,4.585,0,0,0-.781,3V0h-1.621V-10.7H205.8l.264,1.465h.078a3.31,3.31,0,0,1,1.4-1.226,4.537,4.537,0,0,1,2-.435,4.065,4.065,0,0,1,2.91.933,3.969,3.969,0,0,1,.977,2.983V0Zm9.775-9.443h-2.725V0h-1.621V-9.443h-1.914v-.732l1.914-.586v-.6q0-3.945,3.447-3.945a7.094,7.094,0,0,1,1.992.342l-.42,1.3a5.363,5.363,0,0,0-1.6-.3,1.56,1.56,0,0,0-1.357.61,3.406,3.406,0,0,0-.439,1.958v.693h2.725Zm11.191,4.082a5.9,5.9,0,0,1-1.318,4.087A4.643,4.643,0,0,1,227.813.2a4.824,4.824,0,0,1-2.549-.674,4.447,4.447,0,0,1-1.719-1.934,6.739,6.739,0,0,1-.605-2.949,5.9,5.9,0,0,1,1.309-4.077,4.628,4.628,0,0,1,3.633-1.46A4.528,4.528,0,0,1,231.45-9.4,5.879,5.879,0,0,1,232.773-5.361Zm-8.154,0a5.08,5.08,0,0,0,.82,3.125,2.847,2.847,0,0,0,2.412,1.074,2.866,2.866,0,0,0,2.417-1.069,5.054,5.054,0,0,0,.825-3.13,4.973,4.973,0,0,0-.825-3.1,2.9,2.9,0,0,0-2.437-1.06,2.853,2.853,0,0,0-2.4,1.045A5.029,5.029,0,0,0,224.619-5.361ZM240.5-10.9a6.343,6.343,0,0,1,1.279.117l-.225,1.5a5.522,5.522,0,0,0-1.172-.146,2.853,2.853,0,0,0-2.222,1.055,3.846,3.846,0,0,0-.923,2.627V0h-1.621V-10.7h1.338l.186,1.982h.078a4.705,4.705,0,0,1,1.436-1.611A3.232,3.232,0,0,1,240.5-10.9ZM257.422,0V-6.963a2.89,2.89,0,0,0-.547-1.919,2.115,2.115,0,0,0-1.7-.64,2.743,2.743,0,0,0-2.236.869,4.131,4.131,0,0,0-.723,2.676V0H250.6V-6.963a2.89,2.89,0,0,0-.547-1.919,2.128,2.128,0,0,0-1.709-.64,2.647,2.647,0,0,0-2.231.913,4.942,4.942,0,0,0-.708,2.993V0h-1.621V-10.7H245.1l.264,1.465h.078a3.186,3.186,0,0,1,1.294-1.221,3.953,3.953,0,0,1,1.87-.439q2.51,0,3.281,1.816h.078a3.413,3.413,0,0,1,1.387-1.328,4.3,4.3,0,0,1,2.07-.488,3.624,3.624,0,0,1,2.72.933,4.172,4.172,0,0,1,.9,2.983V0Zm11.543,0-.322-1.523h-.078a4.5,4.5,0,0,1-1.6,1.362A4.867,4.867,0,0,1,264.98.2a3.575,3.575,0,0,1-2.5-.82,2.992,2.992,0,0,1-.9-2.334q0-3.242,5.186-3.4l1.816-.059V-7.08a2.714,2.714,0,0,0-.542-1.86,2.229,2.229,0,0,0-1.733-.6,7.063,7.063,0,0,0-3.027.82l-.5-1.24a7.617,7.617,0,0,1,1.733-.674,7.508,7.508,0,0,1,1.89-.244,4.077,4.077,0,0,1,2.837.85,3.546,3.546,0,0,1,.923,2.725V0ZM265.3-1.143a3.29,3.29,0,0,0,2.378-.83,3.071,3.071,0,0,0,.864-2.324v-.967l-1.621.068a5.9,5.9,0,0,0-2.788.6,1.811,1.811,0,0,0-.854,1.655,1.67,1.67,0,0,0,.532,1.338A2.209,2.209,0,0,0,265.3-1.143Zm11.66,0a5.3,5.3,0,0,0,.83-.063,5.373,5.373,0,0,0,.635-.132V-.1a2.963,2.963,0,0,1-.776.21,5.83,5.83,0,0,1-.923.083q-3.105,0-3.105-3.271V-9.443H272.09v-.781l1.533-.674.684-2.285h.938v2.48h3.105v1.26h-3.105v6.3A2.167,2.167,0,0,0,275.7-1.66,1.6,1.6,0,0,0,276.963-1.143ZM282.188,0h-1.621V-10.7h1.621ZM280.43-13.6a1.077,1.077,0,0,1,.273-.815.956.956,0,0,1,.684-.259.955.955,0,0,1,.674.264,1.057,1.057,0,0,1,.283.811,1.074,1.074,0,0,1-.283.815.946.946,0,0,1-.674.269.936.936,0,0,1-.684-.269A1.1,1.1,0,0,1,280.43-13.6Zm14.434,8.242a5.9,5.9,0,0,1-1.318,4.087A4.643,4.643,0,0,1,289.9.2a4.824,4.824,0,0,1-2.549-.674,4.447,4.447,0,0,1-1.719-1.934,6.739,6.739,0,0,1-.605-2.949,5.9,5.9,0,0,1,1.309-4.077,4.628,4.628,0,0,1,3.633-1.46A4.528,4.528,0,0,1,293.54-9.4,5.879,5.879,0,0,1,294.863-5.361Zm-8.154,0a5.08,5.08,0,0,0,.82,3.125,2.847,2.847,0,0,0,2.412,1.074,2.866,2.866,0,0,0,2.417-1.069,5.054,5.054,0,0,0,.825-3.13,4.973,4.973,0,0,0-.825-3.1,2.9,2.9,0,0,0-2.437-1.06,2.853,2.853,0,0,0-2.4,1.045A5.029,5.029,0,0,0,286.709-5.361ZM305.029,0V-6.924a2.794,2.794,0,0,0-.6-1.953,2.427,2.427,0,0,0-1.865-.645,3.076,3.076,0,0,0-2.461.908,4.585,4.585,0,0,0-.781,3V0h-1.621V-10.7h1.318l.264,1.465h.078a3.31,3.31,0,0,1,1.4-1.226,4.537,4.537,0,0,1,2-.435,4.065,4.065,0,0,1,2.91.933,3.969,3.969,0,0,1,.977,2.983V0Zm16.729,0-.322-1.523h-.078a4.5,4.5,0,0,1-1.6,1.362A4.867,4.867,0,0,1,317.773.2a3.575,3.575,0,0,1-2.5-.82,2.992,2.992,0,0,1-.9-2.334q0-3.242,5.186-3.4l1.816-.059V-7.08a2.714,2.714,0,0,0-.542-1.86,2.229,2.229,0,0,0-1.733-.6,7.063,7.063,0,0,0-3.027.82l-.5-1.24a7.617,7.617,0,0,1,1.733-.674,7.508,7.508,0,0,1,1.89-.244,4.077,4.077,0,0,1,2.837.85,3.546,3.546,0,0,1,.923,2.725V0ZM318.1-1.143a3.29,3.29,0,0,0,2.378-.83,3.071,3.071,0,0,0,.864-2.324v-.967l-1.621.068a5.9,5.9,0,0,0-2.788.6,1.811,1.811,0,0,0-.854,1.655,1.67,1.67,0,0,0,.532,1.338A2.209,2.209,0,0,0,318.1-1.143ZM333.2-2.92a2.681,2.681,0,0,1-1.113,2.3A5.233,5.233,0,0,1,328.965.2a6.8,6.8,0,0,1-3.32-.674v-1.5a8.029,8.029,0,0,0,1.655.615,6.912,6.912,0,0,0,1.7.225,3.864,3.864,0,0,0,1.953-.405,1.34,1.34,0,0,0,.684-1.235,1.341,1.341,0,0,0-.542-1.069,8.525,8.525,0,0,0-2.114-1.05,11.465,11.465,0,0,1-2.124-.972,2.9,2.9,0,0,1-.937-.942,2.458,2.458,0,0,1-.308-1.26,2.4,2.4,0,0,1,1.064-2.065,4.96,4.96,0,0,1,2.92-.757,8.543,8.543,0,0,1,3.379.7L332.4-8.877a7.756,7.756,0,0,0-2.92-.664,3.359,3.359,0,0,0-1.738.361,1.117,1.117,0,0,0-.586,1,1.213,1.213,0,0,0,.22.732,2.168,2.168,0,0,0,.708.576,15.824,15.824,0,0,0,1.875.791,7,7,0,0,1,2.573,1.4A2.463,2.463,0,0,1,333.2-2.92Zm6.133-7.783h1.738l2.344,6.1a23.216,23.216,0,0,1,.957,3.018h.078q.127-.5.532-1.7t2.651-7.417h1.738l-4.6,12.188a6.08,6.08,0,0,1-1.6,2.563,3.4,3.4,0,0,1-2.241.757,6.522,6.522,0,0,1-1.465-.166V3.34a5.65,5.65,0,0,0,1.2.117,2.476,2.476,0,0,0,2.383-1.875l.6-1.523Zm21.016,5.342a5.9,5.9,0,0,1-1.318,4.087A4.643,4.643,0,0,1,355.391.2a4.824,4.824,0,0,1-2.549-.674,4.447,4.447,0,0,1-1.719-1.934,6.739,6.739,0,0,1-.605-2.949,5.9,5.9,0,0,1,1.309-4.077,4.628,4.628,0,0,1,3.633-1.46A4.528,4.528,0,0,1,359.028-9.4,5.879,5.879,0,0,1,360.352-5.361Zm-8.154,0a5.08,5.08,0,0,0,.82,3.125,2.847,2.847,0,0,0,2.412,1.074,2.866,2.866,0,0,0,2.417-1.069,5.054,5.054,0,0,0,.825-3.13,4.973,4.973,0,0,0-.825-3.1,2.9,2.9,0,0,0-2.437-1.06,2.853,2.853,0,0,0-2.4,1.045A5.029,5.029,0,0,0,352.2-5.361Zm12.52-5.342V-3.76a2.794,2.794,0,0,0,.6,1.953,2.427,2.427,0,0,0,1.865.645,3.043,3.043,0,0,0,2.456-.918,4.631,4.631,0,0,0,.776-3V-10.7h1.621V0h-1.338l-.234-1.436h-.088a3.231,3.231,0,0,1-1.382,1.211,4.644,4.644,0,0,1-2.017.42,4.091,4.091,0,0,1-2.925-.928,3.949,3.949,0,0,1-.972-2.969v-7ZM384.941.2a4.568,4.568,0,0,1-3.6-1.431,5.883,5.883,0,0,1-1.274-4.048,6.067,6.067,0,0,1,1.294-4.15,4.659,4.659,0,0,1,3.687-1.465,7.316,7.316,0,0,1,1.543.166,5.083,5.083,0,0,1,1.211.391l-.5,1.377a7.622,7.622,0,0,0-1.172-.356,5.232,5.232,0,0,0-1.123-.142q-3.262,0-3.262,4.16a4.954,4.954,0,0,0,.8,3.027A2.769,2.769,0,0,0,384.9-1.221a7.211,7.211,0,0,0,2.744-.576V-.361A5.849,5.849,0,0,1,384.941.2ZM396.768,0l-.322-1.523h-.078a4.5,4.5,0,0,1-1.6,1.362A4.867,4.867,0,0,1,392.783.2a3.575,3.575,0,0,1-2.5-.82,2.992,2.992,0,0,1-.9-2.334q0-3.242,5.186-3.4l1.816-.059V-7.08a2.714,2.714,0,0,0-.542-1.86,2.229,2.229,0,0,0-1.733-.6,7.063,7.063,0,0,0-3.027.82l-.5-1.24a7.617,7.617,0,0,1,1.733-.674,7.508,7.508,0,0,1,1.89-.244,4.077,4.077,0,0,1,2.837.85,3.546,3.546,0,0,1,.923,2.725V0Zm-3.662-1.143a3.29,3.29,0,0,0,2.378-.83,3.071,3.071,0,0,0,.864-2.324v-.967l-1.621.068a5.9,5.9,0,0,0-2.788.6,1.811,1.811,0,0,0-.854,1.655,1.67,1.67,0,0,0,.532,1.338A2.209,2.209,0,0,0,393.105-1.143ZM408.633,0V-6.924a2.794,2.794,0,0,0-.6-1.953,2.427,2.427,0,0,0-1.865-.645,3.076,3.076,0,0,0-2.461.908,4.585,4.585,0,0,0-.781,3V0h-1.621V-10.7h1.318l.264,1.465h.078a3.31,3.31,0,0,1,1.4-1.226,4.537,4.537,0,0,1,2-.435,4.065,4.065,0,0,1,2.91.933,3.969,3.969,0,0,1,.977,2.983V0Zm6.65-2.324.146.225q-.254.977-.732,2.271t-1,2.407H412.48q.264-1.016.581-2.51t.444-2.393ZM428.2.2a4.917,4.917,0,0,1-3.745-1.445,5.6,5.6,0,0,1-1.372-4.014,6.205,6.205,0,0,1,1.274-4.111,4.233,4.233,0,0,1,3.423-1.523,4.036,4.036,0,0,1,3.184,1.323,5.072,5.072,0,0,1,1.172,3.491v1.025h-7.373a4.243,4.243,0,0,0,.952,2.861,3.293,3.293,0,0,0,2.544.977,8.621,8.621,0,0,0,3.418-.723V-.5a8.578,8.578,0,0,1-1.626.532A9.138,9.138,0,0,1,428.2.2Zm-.439-9.736a2.647,2.647,0,0,0-2.056.84,3.871,3.871,0,0,0-.9,2.324h5.6a3.564,3.564,0,0,0-.684-2.349A2.406,2.406,0,0,0,427.764-9.541ZM437.246,0l-4.062-10.7h1.738l2.3,6.348a30.044,30.044,0,0,1,.918,2.891h.078a21.837,21.837,0,0,1,.679-2.144q.571-1.626,2.563-7.095H443.2L439.141,0Zm12.2.2A4.917,4.917,0,0,1,445.7-1.25a5.6,5.6,0,0,1-1.372-4.014A6.205,6.205,0,0,1,445.6-9.375a4.233,4.233,0,0,1,3.423-1.523,4.036,4.036,0,0,1,3.184,1.323,5.072,5.072,0,0,1,1.172,3.491v1.025h-7.373a4.243,4.243,0,0,0,.952,2.861,3.293,3.293,0,0,0,2.544.977,8.621,8.621,0,0,0,3.418-.723V-.5a8.578,8.578,0,0,1-1.626.532A9.138,9.138,0,0,1,449.443.2ZM449-9.541a2.647,2.647,0,0,0-2.056.84,3.871,3.871,0,0,0-.9,2.324h5.6a3.564,3.564,0,0,0-.684-2.349A2.406,2.406,0,0,0,449-9.541ZM463.467,0V-6.924a2.794,2.794,0,0,0-.6-1.953,2.427,2.427,0,0,0-1.865-.645,3.076,3.076,0,0,0-2.461.908,4.585,4.585,0,0,0-.781,3V0h-1.621V-10.7h1.318l.264,1.465h.078a3.31,3.31,0,0,1,1.4-1.226,4.537,4.537,0,0,1,2-.435,4.065,4.065,0,0,1,2.91.933,3.969,3.969,0,0,1,.977,2.983V0ZM3.34,27H1.719V16.3H3.34ZM1.582,13.4a1.077,1.077,0,0,1,.273-.815.956.956,0,0,1,.684-.259.955.955,0,0,1,.674.264A1.057,1.057,0,0,1,3.5,13.4a1.074,1.074,0,0,1-.283.815.946.946,0,0,1-.674.269.936.936,0,0,1-.684-.269A1.1,1.1,0,0,1,1.582,13.4Zm10.02,4.16H8.877V27H7.256V17.557H5.342v-.732l1.914-.586v-.6q0-3.945,3.447-3.945a7.094,7.094,0,0,1,1.992.342l-.42,1.3a5.363,5.363,0,0,0-1.6-.3,1.56,1.56,0,0,0-1.357.61A3.406,3.406,0,0,0,8.877,15.6V16.3H11.6ZM20.371,27H18.75V16.3h1.621ZM18.613,13.4a1.077,1.077,0,0,1,.273-.815,1.012,1.012,0,0,1,1.357,0,1.057,1.057,0,0,1,.283.811,1.074,1.074,0,0,1-.283.815.992.992,0,0,1-1.357,0A1.1,1.1,0,0,1,18.613,13.4Zm8.652,12.461a5.3,5.3,0,0,0,.83-.063,5.373,5.373,0,0,0,.635-.132V26.9a2.963,2.963,0,0,1-.776.21,5.83,5.83,0,0,1-.923.083q-3.105,0-3.105-3.271V17.557H22.393v-.781l1.533-.674.684-2.285h.938V16.3h3.105v1.26H25.547v6.3a2.167,2.167,0,0,0,.459,1.484A1.6,1.6,0,0,0,27.266,25.857Zm5-13.135-.391,5.156H30.85l-.4-5.156ZM42.2,24.08a2.681,2.681,0,0,1-1.113,2.3,5.233,5.233,0,0,1-3.125.811,6.8,6.8,0,0,1-3.32-.674v-1.5a8.03,8.03,0,0,0,1.655.615,6.912,6.912,0,0,0,1.7.225,3.864,3.864,0,0,0,1.953-.405,1.4,1.4,0,0,0,.142-2.3,8.526,8.526,0,0,0-2.114-1.05,11.465,11.465,0,0,1-2.124-.972,2.9,2.9,0,0,1-.937-.942,2.458,2.458,0,0,1-.308-1.26,2.4,2.4,0,0,1,1.064-2.065,4.96,4.96,0,0,1,2.92-.757,8.544,8.544,0,0,1,3.379.7L41.4,18.123a7.756,7.756,0,0,0-2.92-.664,3.359,3.359,0,0,0-1.738.361,1.117,1.117,0,0,0-.586,1,1.213,1.213,0,0,0,.22.732,2.168,2.168,0,0,0,.708.576,15.822,15.822,0,0,0,1.875.791,7,7,0,0,1,2.573,1.4A2.463,2.463,0,0,1,42.2,24.08ZM57.354,27V20.076a2.793,2.793,0,0,0-.6-1.953,2.427,2.427,0,0,0-1.865-.645,3.076,3.076,0,0,0-2.461.908,4.585,4.585,0,0,0-.781,3V27H50.029V16.3h1.318l.264,1.465h.078a3.31,3.31,0,0,1,1.4-1.226,4.537,4.537,0,0,1,2-.435,4.065,4.065,0,0,1,2.91.933,3.969,3.969,0,0,1,.977,2.983V27Zm14.189-5.361a5.9,5.9,0,0,1-1.318,4.087,4.643,4.643,0,0,1-3.643,1.47,4.824,4.824,0,0,1-2.549-.674,4.447,4.447,0,0,1-1.719-1.934,6.739,6.739,0,0,1-.605-2.949,5.9,5.9,0,0,1,1.309-4.077A4.628,4.628,0,0,1,66.65,16.1,4.528,4.528,0,0,1,70.22,17.6,5.879,5.879,0,0,1,71.543,21.639Zm-8.154,0a5.08,5.08,0,0,0,.82,3.125,3.256,3.256,0,0,0,4.829,0,5.054,5.054,0,0,0,.825-3.13,4.973,4.973,0,0,0-.825-3.1,2.9,2.9,0,0,0-2.437-1.06,2.853,2.853,0,0,0-2.4,1.045A5.029,5.029,0,0,0,63.389,21.639Zm14.453,4.219a5.3,5.3,0,0,0,.83-.063,5.373,5.373,0,0,0,.635-.132V26.9a2.963,2.963,0,0,1-.776.21,5.83,5.83,0,0,1-.923.083q-3.105,0-3.105-3.271V17.557H72.969v-.781L74.5,16.1l.684-2.285h.938V16.3h3.105v1.26H76.123v6.3a2.167,2.167,0,0,0,.459,1.484A1.6,1.6,0,0,0,77.842,25.857ZM100.283,27V20.037a2.89,2.89,0,0,0-.547-1.919,2.115,2.115,0,0,0-1.7-.64,2.743,2.743,0,0,0-2.236.869,4.131,4.131,0,0,0-.723,2.676V27H93.457V20.037a2.89,2.89,0,0,0-.547-1.919,2.128,2.128,0,0,0-1.709-.64,2.647,2.647,0,0,0-2.231.913,4.942,4.942,0,0,0-.708,2.993V27H86.641V16.3h1.318l.264,1.465H88.3a3.186,3.186,0,0,1,1.294-1.221,3.953,3.953,0,0,1,1.87-.439q2.51,0,3.281,1.816h.078a3.413,3.413,0,0,1,1.387-1.328,4.3,4.3,0,0,1,2.07-.488,3.624,3.624,0,0,1,2.72.933,4.172,4.172,0,0,1,.9,2.983V27Zm11.543,0-.322-1.523h-.078a4.5,4.5,0,0,1-1.6,1.362,4.867,4.867,0,0,1-1.987.356,3.575,3.575,0,0,1-2.5-.82,2.992,2.992,0,0,1-.9-2.334q0-3.242,5.186-3.4l1.816-.059V19.92a2.714,2.714,0,0,0-.542-1.86,2.229,2.229,0,0,0-1.733-.6,7.063,7.063,0,0,0-3.027.82l-.5-1.24a7.618,7.618,0,0,1,1.733-.674,7.508,7.508,0,0,1,1.89-.244,4.077,4.077,0,0,1,2.837.85,3.546,3.546,0,0,1,.923,2.725V27Zm-3.662-1.143a3.29,3.29,0,0,0,2.378-.83,3.071,3.071,0,0,0,.864-2.324v-.967l-1.621.068a5.9,5.9,0,0,0-2.788.6,1.811,1.811,0,0,0-.854,1.655,1.67,1.67,0,0,0,.532,1.338A2.209,2.209,0,0,0,108.164,25.857ZM121.25,16.1a6.343,6.343,0,0,1,1.279.117l-.225,1.5a5.522,5.522,0,0,0-1.172-.146,2.853,2.853,0,0,0-2.222,1.055,3.846,3.846,0,0,0-.923,2.627V27h-1.621V16.3h1.338l.186,1.982h.078a4.7,4.7,0,0,1,1.436-1.611A3.232,3.232,0,0,1,121.25,16.1Zm4.883,5.42a19.064,19.064,0,0,1,1.279-1.562l3.457-3.662h1.924l-4.336,4.561L133.1,27h-1.963l-3.779-5.059L126.133,23v4h-1.6V11.8h1.6v8.057q0,.537-.078,1.66ZM139.551,27.2a4.918,4.918,0,0,1-3.745-1.445,5.6,5.6,0,0,1-1.372-4.014,6.205,6.205,0,0,1,1.274-4.111,4.233,4.233,0,0,1,3.423-1.523,4.036,4.036,0,0,1,3.184,1.323,5.072,5.072,0,0,1,1.172,3.491v1.025h-7.373a4.243,4.243,0,0,0,.952,2.861,3.293,3.293,0,0,0,2.544.977,8.621,8.621,0,0,0,3.418-.723V26.5a8.579,8.579,0,0,1-1.626.532A9.138,9.138,0,0,1,139.551,27.2Zm-.439-9.736a2.647,2.647,0,0,0-2.056.84,3.871,3.871,0,0,0-.9,2.324h5.6a3.564,3.564,0,0,0-.684-2.349A2.406,2.406,0,0,0,139.111,17.459Zm14.424,8.105h-.088a3.809,3.809,0,0,1-3.359,1.631,3.974,3.974,0,0,1-3.267-1.436,6.319,6.319,0,0,1-1.167-4.082,6.426,6.426,0,0,1,1.172-4.111,3.943,3.943,0,0,1,3.262-1.465,3.892,3.892,0,0,1,3.34,1.582h.127l-.068-.771-.039-.752V11.8h1.621V27H153.75Zm-3.242.273a2.951,2.951,0,0,0,2.407-.9,4.565,4.565,0,0,0,.747-2.915v-.342a5.371,5.371,0,0,0-.757-3.247,2.874,2.874,0,0,0-2.417-.972,2.481,2.481,0,0,0-2.183,1.108,5.511,5.511,0,0,0-.757,3.13,5.284,5.284,0,0,0,.752,3.1A2.547,2.547,0,0,0,150.293,25.838ZM170.283,27l-.322-1.523h-.078a4.5,4.5,0,0,1-1.6,1.362,4.867,4.867,0,0,1-1.987.356,3.575,3.575,0,0,1-2.5-.82,2.992,2.992,0,0,1-.9-2.334q0-3.242,5.186-3.4l1.816-.059V19.92a2.714,2.714,0,0,0-.542-1.86,2.229,2.229,0,0,0-1.733-.6,7.063,7.063,0,0,0-3.027.82l-.5-1.24a7.618,7.618,0,0,1,1.733-.674,7.507,7.507,0,0,1,1.89-.244,4.077,4.077,0,0,1,2.837.85,3.546,3.546,0,0,1,.923,2.725V27Zm-3.662-1.143a3.29,3.29,0,0,0,2.378-.83,3.071,3.071,0,0,0,.864-2.324v-.967l-1.621.068a5.9,5.9,0,0,0-2.788.6,1.811,1.811,0,0,0-.854,1.655,1.67,1.67,0,0,0,.532,1.338A2.209,2.209,0,0,0,166.621,25.857Zm15.107-1.777a2.681,2.681,0,0,1-1.113,2.3,5.233,5.233,0,0,1-3.125.811,6.8,6.8,0,0,1-3.32-.674v-1.5a8.03,8.03,0,0,0,1.655.615,6.912,6.912,0,0,0,1.7.225,3.864,3.864,0,0,0,1.953-.405,1.4,1.4,0,0,0,.142-2.3,8.526,8.526,0,0,0-2.114-1.05,11.465,11.465,0,0,1-2.124-.972,2.9,2.9,0,0,1-.937-.942,2.458,2.458,0,0,1-.308-1.26,2.4,2.4,0,0,1,1.064-2.065,4.96,4.96,0,0,1,2.92-.757,8.544,8.544,0,0,1,3.379.7l-.576,1.318a7.756,7.756,0,0,0-2.92-.664,3.359,3.359,0,0,0-1.738.361,1.117,1.117,0,0,0-.586,1,1.213,1.213,0,0,0,.22.732,2.168,2.168,0,0,0,.708.576,15.822,15.822,0,0,0,1.875.791,7,7,0,0,1,2.573,1.4A2.463,2.463,0,0,1,181.729,24.08ZM194.443,16.1a6.343,6.343,0,0,1,1.279.117l-.225,1.5a5.522,5.522,0,0,0-1.172-.146,2.853,2.853,0,0,0-2.222,1.055,3.846,3.846,0,0,0-.923,2.627V27h-1.621V16.3H190.9l.186,1.982h.078a4.705,4.705,0,0,1,1.436-1.611A3.232,3.232,0,0,1,194.443,16.1Zm7.8,11.094A4.918,4.918,0,0,1,198.5,25.75a5.6,5.6,0,0,1-1.372-4.014,6.205,6.205,0,0,1,1.274-4.111,4.233,4.233,0,0,1,3.423-1.523,4.036,4.036,0,0,1,3.184,1.323,5.072,5.072,0,0,1,1.172,3.491v1.025h-7.373a4.243,4.243,0,0,0,.952,2.861,3.293,3.293,0,0,0,2.544.977,8.621,8.621,0,0,0,3.418-.723V26.5a8.579,8.579,0,0,1-1.626.532A9.138,9.138,0,0,1,202.246,27.2Zm-.439-9.736a2.647,2.647,0,0,0-2.056.84,3.871,3.871,0,0,0-.9,2.324h5.6a3.564,3.564,0,0,0-.684-2.349A2.406,2.406,0,0,0,201.807,17.459Zm11.182,8.379a2.945,2.945,0,0,0,2.363-.869,4.707,4.707,0,0,0,.791-2.93v-.361a5.353,5.353,0,0,0-.762-3.232,2.856,2.856,0,0,0-2.412-.986,2.481,2.481,0,0,0-2.183,1.108,5.511,5.511,0,0,0-.757,3.13,5.322,5.322,0,0,0,.747,3.081A2.531,2.531,0,0,0,212.988,25.838Zm-.244,1.357a3.906,3.906,0,0,1-3.232-1.455,6.353,6.353,0,0,1-1.162-4.062,6.433,6.433,0,0,1,1.172-4.1,4.305,4.305,0,0,1,6.641.186h.088l.234-1.465h1.279V31.8h-1.621v-4.58a10.909,10.909,0,0,1,.107-1.66h-.127A3.829,3.829,0,0,1,212.744,27.2Zm9.98-10.9V23.24a2.793,2.793,0,0,0,.6,1.953,2.427,2.427,0,0,0,1.865.645,3.043,3.043,0,0,0,2.456-.918,4.631,4.631,0,0,0,.776-3V16.3h1.621V27H228.7l-.234-1.436h-.088A3.231,3.231,0,0,1,227,26.775a4.644,4.644,0,0,1-2.017.42,4.091,4.091,0,0,1-2.925-.928,3.949,3.949,0,0,1-.972-2.969v-7ZM235.1,27h-1.621V16.3H235.1ZM233.34,13.4a1.077,1.077,0,0,1,.273-.815,1.012,1.012,0,0,1,1.357,0,1.057,1.057,0,0,1,.283.811,1.074,1.074,0,0,1-.283.815.992.992,0,0,1-1.357,0A1.1,1.1,0,0,1,233.34,13.4ZM243.418,16.1a6.343,6.343,0,0,1,1.279.117l-.225,1.5a5.522,5.522,0,0,0-1.172-.146,2.853,2.853,0,0,0-2.222,1.055,3.846,3.846,0,0,0-.923,2.627V27h-1.621V16.3h1.338l.186,1.982h.078a4.705,4.705,0,0,1,1.436-1.611A3.232,3.232,0,0,1,243.418,16.1Zm7.8,11.094a4.918,4.918,0,0,1-3.745-1.445,5.6,5.6,0,0,1-1.372-4.014,6.205,6.205,0,0,1,1.274-4.111A4.233,4.233,0,0,1,250.8,16.1a4.036,4.036,0,0,1,3.184,1.323,5.072,5.072,0,0,1,1.172,3.491v1.025h-7.373a4.243,4.243,0,0,0,.952,2.861,3.293,3.293,0,0,0,2.544.977,8.621,8.621,0,0,0,3.418-.723V26.5a8.579,8.579,0,0,1-1.626.532A9.138,9.138,0,0,1,251.221,27.2Zm-.439-9.736a2.647,2.647,0,0,0-2.056.84,3.871,3.871,0,0,0-.9,2.324h5.6a3.564,3.564,0,0,0-.684-2.349A2.406,2.406,0,0,0,250.781,17.459Zm14.424,8.105h-.088a3.809,3.809,0,0,1-3.359,1.631,3.974,3.974,0,0,1-3.267-1.436,6.319,6.319,0,0,1-1.167-4.082,6.426,6.426,0,0,1,1.172-4.111,3.943,3.943,0,0,1,3.262-1.465,3.892,3.892,0,0,1,3.34,1.582h.127l-.068-.771-.039-.752V11.8h1.621V27H265.42Zm-3.242.273a2.951,2.951,0,0,0,2.407-.9,4.565,4.565,0,0,0,.747-2.915v-.342a5.371,5.371,0,0,0-.757-3.247,2.874,2.874,0,0,0-2.417-.972,2.481,2.481,0,0,0-2.183,1.108A5.511,5.511,0,0,0,259,21.7a5.284,5.284,0,0,0,.752,3.1A2.547,2.547,0,0,0,261.963,25.838Zm7.979.127a1.455,1.455,0,0,1,.3-.991,1.08,1.08,0,0,1,.854-.337,1.155,1.155,0,0,1,.884.337,1.4,1.4,0,0,1,.317.991,1.37,1.37,0,0,1-.322.977,1.281,1.281,0,0,1-1.7.034A1.337,1.337,0,0,1,269.941,25.965ZM293.4,27h-1.641l-2.881-9.561q-.205-.635-.459-1.6a9.337,9.337,0,0,1-.264-1.162,22.237,22.237,0,0,1-.684,2.822L284.678,27h-1.641l-3.8-14.277H281l2.256,8.818a32.793,32.793,0,0,1,.684,3.359,24.26,24.26,0,0,1,.781-3.5l2.559-8.682h1.758l2.686,8.76a26.629,26.629,0,0,1,.791,3.418,29.276,29.276,0,0,1,.7-3.379l2.246-8.8h1.758Zm10.332.2a4.917,4.917,0,0,1-3.745-1.445,5.6,5.6,0,0,1-1.372-4.014,6.205,6.205,0,0,1,1.274-4.111,4.233,4.233,0,0,1,3.423-1.523,4.036,4.036,0,0,1,3.184,1.323,5.072,5.072,0,0,1,1.172,3.491v1.025h-7.373a4.243,4.243,0,0,0,.952,2.861,3.293,3.293,0,0,0,2.544.977,8.621,8.621,0,0,0,3.418-.723V26.5a8.578,8.578,0,0,1-1.626.532A9.138,9.138,0,0,1,303.73,27.2Zm-.439-9.736a2.647,2.647,0,0,0-2.056.84,3.871,3.871,0,0,0-.9,2.324h5.6a3.564,3.564,0,0,0-.684-2.349A2.406,2.406,0,0,0,303.291,17.459ZM329.268,27V20.037a2.89,2.89,0,0,0-.547-1.919,2.115,2.115,0,0,0-1.7-.64,2.743,2.743,0,0,0-2.236.869,4.131,4.131,0,0,0-.723,2.676V27h-1.621V20.037a2.89,2.89,0,0,0-.547-1.919,2.128,2.128,0,0,0-1.709-.64,2.647,2.647,0,0,0-2.231.913,4.942,4.942,0,0,0-.708,2.993V27h-1.621V16.3h1.318l.264,1.465h.078a3.186,3.186,0,0,1,1.294-1.221,3.953,3.953,0,0,1,1.87-.439q2.51,0,3.281,1.816h.078A3.413,3.413,0,0,1,325.2,16.59a4.3,4.3,0,0,1,2.07-.488,3.624,3.624,0,0,1,2.72.933,4.172,4.172,0,0,1,.9,2.983V27Zm11.543,0-.322-1.523h-.078a4.5,4.5,0,0,1-1.6,1.362,4.867,4.867,0,0,1-1.987.356,3.575,3.575,0,0,1-2.5-.82,2.992,2.992,0,0,1-.9-2.334q0-3.242,5.186-3.4l1.816-.059V19.92a2.714,2.714,0,0,0-.542-1.86,2.229,2.229,0,0,0-1.733-.6,7.063,7.063,0,0,0-3.027.82l-.5-1.24a7.617,7.617,0,0,1,1.733-.674,7.508,7.508,0,0,1,1.89-.244,4.077,4.077,0,0,1,2.837.85,3.546,3.546,0,0,1,.923,2.725V27Zm-3.662-1.143a3.29,3.29,0,0,0,2.378-.83,3.071,3.071,0,0,0,.864-2.324v-.967l-1.621.068a5.9,5.9,0,0,0-2.788.6,1.811,1.811,0,0,0-.854,1.655,1.67,1.67,0,0,0,.532,1.338A2.209,2.209,0,0,0,337.148,25.857Zm6.5-9.561h1.738l2.344,6.1a23.216,23.216,0,0,1,.957,3.018h.078q.127-.5.532-1.7t2.651-7.417h1.738l-4.6,12.188a6.08,6.08,0,0,1-1.6,2.563,3.4,3.4,0,0,1-2.241.757,6.522,6.522,0,0,1-1.465-.166v-1.3a5.65,5.65,0,0,0,1.2.117,2.476,2.476,0,0,0,2.383-1.875l.6-1.523Zm21.953-.176a3.979,3.979,0,0,1,3.276,1.44,6.323,6.323,0,0,1,1.167,4.077,6.369,6.369,0,0,1-1.177,4.1,3.963,3.963,0,0,1-3.267,1.46,4.632,4.632,0,0,1-1.909-.386,3.59,3.59,0,0,1-1.45-1.187h-.117L361.787,27h-1.162V11.8h1.621V15.5q0,1.24-.078,2.227h.078A3.848,3.848,0,0,1,365.605,16.121Zm-.234,1.357a2.83,2.83,0,0,0-2.393.952,5.371,5.371,0,0,0-.732,3.208A5.356,5.356,0,0,0,363,24.866a2.86,2.86,0,0,0,2.412.972,2.5,2.5,0,0,0,2.227-1.089,5.6,5.6,0,0,0,.732-3.13,5.378,5.378,0,0,0-.732-3.115A2.6,2.6,0,0,0,365.371,17.479ZM377.4,27.2a4.917,4.917,0,0,1-3.745-1.445,5.6,5.6,0,0,1-1.372-4.014,6.205,6.205,0,0,1,1.274-4.111,4.233,4.233,0,0,1,3.423-1.523,4.036,4.036,0,0,1,3.184,1.323,5.072,5.072,0,0,1,1.172,3.491v1.025h-7.373a4.243,4.243,0,0,0,.952,2.861,3.293,3.293,0,0,0,2.544.977,8.621,8.621,0,0,0,3.418-.723V26.5a8.578,8.578,0,0,1-1.626.532A9.138,9.138,0,0,1,377.4,27.2Zm-.439-9.736a2.647,2.647,0,0,0-2.056.84,3.871,3.871,0,0,0-.9,2.324h5.6a3.564,3.564,0,0,0-.684-2.349A2.406,2.406,0,0,0,376.963,17.459ZM395.879,27l-.322-1.523h-.078a4.5,4.5,0,0,1-1.6,1.362,4.867,4.867,0,0,1-1.987.356,3.575,3.575,0,0,1-2.5-.82,2.992,2.992,0,0,1-.9-2.334q0-3.242,5.186-3.4l1.816-.059V19.92a2.714,2.714,0,0,0-.542-1.86,2.229,2.229,0,0,0-1.733-.6,7.063,7.063,0,0,0-3.027.82l-.5-1.24a7.617,7.617,0,0,1,1.733-.674,7.508,7.508,0,0,1,1.89-.244,4.077,4.077,0,0,1,2.837.85,3.546,3.546,0,0,1,.923,2.725V27Zm-3.662-1.143a3.29,3.29,0,0,0,2.378-.83,3.071,3.071,0,0,0,.864-2.324v-.967l-1.621.068a5.9,5.9,0,0,0-2.788.6,1.811,1.811,0,0,0-.854,1.655,1.67,1.67,0,0,0,.532,1.338A2.209,2.209,0,0,0,392.217,25.857ZM405.4,16.121a3.979,3.979,0,0,1,3.276,1.44,6.323,6.323,0,0,1,1.167,4.077,6.369,6.369,0,0,1-1.177,4.1A3.963,3.963,0,0,1,405.4,27.2a4.632,4.632,0,0,1-1.909-.386,3.59,3.59,0,0,1-1.45-1.187h-.117L401.582,27H400.42V11.8h1.621V15.5q0,1.24-.078,2.227h.078A3.848,3.848,0,0,1,405.4,16.121Zm-.234,1.357a2.83,2.83,0,0,0-2.393.952,5.371,5.371,0,0,0-.732,3.208,5.356,5.356,0,0,0,.752,3.228,2.86,2.86,0,0,0,2.412.972,2.5,2.5,0,0,0,2.227-1.089,5.6,5.6,0,0,0,.732-3.13,5.378,5.378,0,0,0-.732-3.115A2.6,2.6,0,0,0,405.166,17.479ZM414.3,27h-1.621V11.8H414.3Zm7.959.2a4.917,4.917,0,0,1-3.745-1.445,5.6,5.6,0,0,1-1.372-4.014,6.205,6.205,0,0,1,1.274-4.111,4.233,4.233,0,0,1,3.423-1.523,4.036,4.036,0,0,1,3.184,1.323,5.072,5.072,0,0,1,1.172,3.491v1.025h-7.373a4.243,4.243,0,0,0,.952,2.861,3.293,3.293,0,0,0,2.544.977,8.621,8.621,0,0,0,3.418-.723V26.5a8.578,8.578,0,0,1-1.626.532A9.138,9.138,0,0,1,422.256,27.2Zm-.439-9.736a2.647,2.647,0,0,0-2.056.84,3.871,3.871,0,0,0-.9,2.324h5.6a3.564,3.564,0,0,0-.684-2.349A2.406,2.406,0,0,0,421.816,17.459Zm15.791,8.4a5.3,5.3,0,0,0,.83-.063,5.373,5.373,0,0,0,.635-.132V26.9a2.963,2.963,0,0,1-.776.21,5.83,5.83,0,0,1-.923.083q-3.105,0-3.105-3.271V17.557h-1.533v-.781l1.533-.674.684-2.285h.938V16.3h3.105v1.26h-3.105v6.3a2.167,2.167,0,0,0,.459,1.484A1.6,1.6,0,0,0,437.607,25.857Zm12.842-4.219a5.9,5.9,0,0,1-1.318,4.087,4.643,4.643,0,0,1-3.643,1.47,4.824,4.824,0,0,1-2.549-.674,4.447,4.447,0,0,1-1.719-1.934,6.739,6.739,0,0,1-.605-2.949,5.9,5.9,0,0,1,1.309-4.077,4.628,4.628,0,0,1,3.633-1.46,4.528,4.528,0,0,1,3.569,1.494A5.879,5.879,0,0,1,450.449,21.639Zm-8.154,0a5.08,5.08,0,0,0,.82,3.125,3.256,3.256,0,0,0,4.829,0,5.054,5.054,0,0,0,.825-3.13,4.973,4.973,0,0,0-.825-3.1,2.9,2.9,0,0,0-2.437-1.06,2.853,2.853,0,0,0-2.4,1.045A5.029,5.029,0,0,0,442.295,21.639ZM3.242,43.3V50.24a2.793,2.793,0,0,0,.6,1.953,2.427,2.427,0,0,0,1.865.645,3.043,3.043,0,0,0,2.456-.918,4.631,4.631,0,0,0,.776-3V43.3h1.621V54H9.219l-.234-1.436H8.9a3.231,3.231,0,0,1-1.382,1.211A4.644,4.644,0,0,1,5.5,54.2a4.091,4.091,0,0,1-2.925-.928A3.949,3.949,0,0,1,1.6,50.3v-7ZM20.9,51.08a2.681,2.681,0,0,1-1.113,2.3,5.233,5.233,0,0,1-3.125.811,6.8,6.8,0,0,1-3.32-.674v-1.5A8.029,8.029,0,0,0,15,52.633a6.912,6.912,0,0,0,1.7.225,3.864,3.864,0,0,0,1.953-.405,1.4,1.4,0,0,0,.142-2.3A8.526,8.526,0,0,0,16.68,49.1a11.465,11.465,0,0,1-2.124-.972,2.9,2.9,0,0,1-.937-.942,2.458,2.458,0,0,1-.308-1.26,2.4,2.4,0,0,1,1.064-2.065,4.96,4.96,0,0,1,2.92-.757,8.544,8.544,0,0,1,3.379.7L20.1,45.123a7.756,7.756,0,0,0-2.92-.664,3.359,3.359,0,0,0-1.738.361,1.117,1.117,0,0,0-.586,1,1.213,1.213,0,0,0,.22.732,2.168,2.168,0,0,0,.708.576,15.822,15.822,0,0,0,1.875.791,7,7,0,0,1,2.573,1.4A2.463,2.463,0,0,1,20.9,51.08ZM28.057,54.2a4.917,4.917,0,0,1-3.745-1.445,5.6,5.6,0,0,1-1.372-4.014,6.205,6.205,0,0,1,1.274-4.111A4.233,4.233,0,0,1,27.637,43.1a4.036,4.036,0,0,1,3.184,1.323,5.072,5.072,0,0,1,1.172,3.491v1.025H24.619a4.243,4.243,0,0,0,.952,2.861,3.293,3.293,0,0,0,2.544.977,8.621,8.621,0,0,0,3.418-.723V53.5a8.579,8.579,0,0,1-1.626.532A9.138,9.138,0,0,1,28.057,54.2Zm-.439-9.736a2.647,2.647,0,0,0-2.056.84,3.871,3.871,0,0,0-.9,2.324h5.6a3.564,3.564,0,0,0-.684-2.349A2.406,2.406,0,0,0,27.617,44.459Zm15.791,8.4a5.3,5.3,0,0,0,.83-.063,5.373,5.373,0,0,0,.635-.132V53.9a2.963,2.963,0,0,1-.776.21,5.83,5.83,0,0,1-.923.083q-3.105,0-3.105-3.271V44.557H38.535v-.781l1.533-.674.684-2.285h.938V43.3h3.105v1.26H41.689v6.3a2.167,2.167,0,0,0,.459,1.484A1.6,1.6,0,0,0,43.408,52.857ZM54.336,54V47.076a2.793,2.793,0,0,0-.6-1.953,2.427,2.427,0,0,0-1.865-.645,3.056,3.056,0,0,0-2.466.918,4.649,4.649,0,0,0-.776,3.008V54H47.012V38.8h1.621v4.6a10.022,10.022,0,0,1-.078,1.377h.1a3.306,3.306,0,0,1,1.362-1.216,4.429,4.429,0,0,1,2.017-.444,4.13,4.13,0,0,1,2.944.933,3.928,3.928,0,0,1,.981,2.964V54Zm11.533,0-.322-1.523h-.078a4.5,4.5,0,0,1-1.6,1.362,4.867,4.867,0,0,1-1.987.356,3.575,3.575,0,0,1-2.5-.82,2.992,2.992,0,0,1-.9-2.334q0-3.242,5.186-3.4l1.816-.059V46.92a2.714,2.714,0,0,0-.542-1.86,2.229,2.229,0,0,0-1.733-.6,7.063,7.063,0,0,0-3.027.82l-.5-1.24a7.618,7.618,0,0,1,1.733-.674,7.507,7.507,0,0,1,1.89-.244,4.077,4.077,0,0,1,2.837.85A3.546,3.546,0,0,1,67.07,46.7V54Zm-3.662-1.143a3.29,3.29,0,0,0,2.378-.83,3.071,3.071,0,0,0,.864-2.324v-.967l-1.621.068a5.9,5.9,0,0,0-2.788.6,1.811,1.811,0,0,0-.854,1.655,1.67,1.67,0,0,0,.532,1.338A2.209,2.209,0,0,0,62.207,52.857Zm11.66,0a5.3,5.3,0,0,0,.83-.063,5.372,5.372,0,0,0,.635-.132V53.9a2.963,2.963,0,0,1-.776.21,5.83,5.83,0,0,1-.923.083q-3.105,0-3.105-3.271V44.557H68.994v-.781l1.533-.674.684-2.285h.938V43.3h3.105v1.26H72.148v6.3a2.167,2.167,0,0,0,.459,1.484A1.6,1.6,0,0,0,73.867,52.857ZM89.248,54l-.322-1.523h-.078a4.5,4.5,0,0,1-1.6,1.362,4.867,4.867,0,0,1-1.987.356,3.575,3.575,0,0,1-2.5-.82,2.992,2.992,0,0,1-.9-2.334q0-3.242,5.186-3.4l1.816-.059V46.92a2.714,2.714,0,0,0-.542-1.86,2.229,2.229,0,0,0-1.733-.6,7.063,7.063,0,0,0-3.027.82l-.5-1.24a7.618,7.618,0,0,1,1.733-.674,7.507,7.507,0,0,1,1.89-.244,4.077,4.077,0,0,1,2.837.85,3.546,3.546,0,0,1,.923,2.725V54Zm-3.662-1.143a3.29,3.29,0,0,0,2.378-.83,3.071,3.071,0,0,0,.864-2.324v-.967l-1.621.068a5.9,5.9,0,0,0-2.788.6,1.811,1.811,0,0,0-.854,1.655A1.67,1.67,0,0,0,84.1,52.4,2.209,2.209,0,0,0,85.586,52.857Zm15.488-.293h-.088A3.809,3.809,0,0,1,97.627,54.2,3.974,3.974,0,0,1,94.36,52.76a6.319,6.319,0,0,1-1.167-4.082,6.426,6.426,0,0,1,1.172-4.111A3.943,3.943,0,0,1,97.627,43.1a3.892,3.892,0,0,1,3.34,1.582h.127l-.068-.771-.039-.752V38.8h1.621V54h-1.318Zm-3.242.273a2.951,2.951,0,0,0,2.407-.9,4.565,4.565,0,0,0,.747-2.915v-.342a5.371,5.371,0,0,0-.757-3.247,2.874,2.874,0,0,0-2.417-.972,2.481,2.481,0,0,0-2.183,1.108,5.511,5.511,0,0,0-.757,3.13,5.284,5.284,0,0,0,.752,3.1A2.547,2.547,0,0,0,97.832,52.838Zm15.5-.273h-.088a3.809,3.809,0,0,1-3.359,1.631,3.974,3.974,0,0,1-3.267-1.436,6.319,6.319,0,0,1-1.167-4.082,6.426,6.426,0,0,1,1.172-4.111,3.943,3.943,0,0,1,3.262-1.465,3.892,3.892,0,0,1,3.34,1.582h.127l-.068-.771-.039-.752V38.8h1.621V54h-1.318Zm-3.242.273a2.951,2.951,0,0,0,2.407-.9,4.565,4.565,0,0,0,.747-2.915v-.342a5.371,5.371,0,0,0-.757-3.247,2.874,2.874,0,0,0-2.417-.972,2.481,2.481,0,0,0-2.183,1.108,5.511,5.511,0,0,0-.757,3.13,5.284,5.284,0,0,0,.752,3.1A2.547,2.547,0,0,0,110.088,52.838ZM119.922,54H118.3V43.3h1.621Zm-1.758-13.6a1.077,1.077,0,0,1,.273-.815,1.012,1.012,0,0,1,1.357,0,1.057,1.057,0,0,1,.283.811,1.074,1.074,0,0,1-.283.815.992.992,0,0,1-1.357,0A1.1,1.1,0,0,1,118.164,40.4Zm8.652,12.461a5.3,5.3,0,0,0,.83-.063,5.372,5.372,0,0,0,.635-.132V53.9a2.963,2.963,0,0,1-.776.21,5.83,5.83,0,0,1-.923.083q-3.105,0-3.105-3.271V44.557h-1.533v-.781l1.533-.674.684-2.285h.938V43.3H128.2v1.26H125.1v6.3a2.167,2.167,0,0,0,.459,1.484A1.6,1.6,0,0,0,126.816,52.857ZM132.041,54H130.42V43.3h1.621Zm-1.758-13.6a1.077,1.077,0,0,1,.273-.815,1.012,1.012,0,0,1,1.357,0,1.057,1.057,0,0,1,.283.811,1.074,1.074,0,0,1-.283.815.992.992,0,0,1-1.357,0A1.1,1.1,0,0,1,130.283,40.4Zm14.434,8.242a5.9,5.9,0,0,1-1.318,4.087,4.643,4.643,0,0,1-3.643,1.47,4.824,4.824,0,0,1-2.549-.674,4.447,4.447,0,0,1-1.719-1.934,6.739,6.739,0,0,1-.605-2.949,5.9,5.9,0,0,1,1.309-4.077,4.628,4.628,0,0,1,3.633-1.46,4.528,4.528,0,0,1,3.569,1.494A5.879,5.879,0,0,1,144.717,48.639Zm-8.154,0a5.08,5.08,0,0,0,.82,3.125,3.256,3.256,0,0,0,4.829,0,5.054,5.054,0,0,0,.825-3.13,4.973,4.973,0,0,0-.825-3.1,2.9,2.9,0,0,0-2.437-1.06,2.853,2.853,0,0,0-2.4,1.045A5.029,5.029,0,0,0,136.563,48.639ZM154.883,54V47.076a2.793,2.793,0,0,0-.6-1.953,2.427,2.427,0,0,0-1.865-.645,3.076,3.076,0,0,0-2.461.908,4.585,4.585,0,0,0-.781,3V54h-1.621V43.3h1.318l.264,1.465h.078a3.31,3.31,0,0,1,1.4-1.226,4.537,4.537,0,0,1,2-.435,4.065,4.065,0,0,1,2.91.933,3.969,3.969,0,0,1,.977,2.983V54Zm11.533,0-.322-1.523h-.078a4.5,4.5,0,0,1-1.6,1.362,4.867,4.867,0,0,1-1.987.356,3.575,3.575,0,0,1-2.5-.82,2.992,2.992,0,0,1-.9-2.334q0-3.242,5.186-3.4l1.816-.059V46.92a2.714,2.714,0,0,0-.542-1.86,2.229,2.229,0,0,0-1.733-.6,7.063,7.063,0,0,0-3.027.82l-.5-1.24a7.618,7.618,0,0,1,1.733-.674,7.507,7.507,0,0,1,1.89-.244,4.077,4.077,0,0,1,2.837.85,3.546,3.546,0,0,1,.923,2.725V54Zm-3.662-1.143a3.29,3.29,0,0,0,2.378-.83A3.071,3.071,0,0,0,166,49.7v-.967l-1.621.068a5.9,5.9,0,0,0-2.788.6,1.811,1.811,0,0,0-.854,1.655,1.67,1.67,0,0,0,.532,1.338A2.209,2.209,0,0,0,162.754,52.857ZM172.578,54h-1.621V38.8h1.621Zm10.254,0h-1.621V43.3h1.621Zm-1.758-13.6a1.077,1.077,0,0,1,.273-.815,1.012,1.012,0,0,1,1.357,0,1.057,1.057,0,0,1,.283.811,1.074,1.074,0,0,1-.283.815.992.992,0,0,1-1.357,0A1.1,1.1,0,0,1,181.074,40.4ZM193.594,54V47.076a2.793,2.793,0,0,0-.6-1.953,2.427,2.427,0,0,0-1.865-.645,3.076,3.076,0,0,0-2.461.908,4.585,4.585,0,0,0-.781,3V54H186.27V43.3h1.318l.264,1.465h.078a3.31,3.31,0,0,1,1.4-1.226,4.537,4.537,0,0,1,2-.435,4.065,4.065,0,0,1,2.91.933,3.969,3.969,0,0,1,.977,2.983V54Zm9.775-9.443h-2.725V54h-1.621V44.557h-1.914v-.732l1.914-.586v-.6q0-3.945,3.447-3.945a7.094,7.094,0,0,1,1.992.342l-.42,1.3a5.363,5.363,0,0,0-1.6-.3,1.56,1.56,0,0,0-1.357.61,3.406,3.406,0,0,0-.439,1.958V43.3h2.725Zm11.191,4.082a5.9,5.9,0,0,1-1.318,4.087A4.643,4.643,0,0,1,209.6,54.2a4.824,4.824,0,0,1-2.549-.674,4.447,4.447,0,0,1-1.719-1.934,6.739,6.739,0,0,1-.605-2.949,5.9,5.9,0,0,1,1.309-4.077,4.628,4.628,0,0,1,3.633-1.46,4.528,4.528,0,0,1,3.569,1.494A5.879,5.879,0,0,1,214.561,48.639Zm-8.154,0a5.08,5.08,0,0,0,.82,3.125,3.256,3.256,0,0,0,4.829,0,5.054,5.054,0,0,0,.825-3.13,4.973,4.973,0,0,0-.825-3.1,2.9,2.9,0,0,0-2.437-1.06,2.853,2.853,0,0,0-2.4,1.045A5.029,5.029,0,0,0,206.406,48.639ZM222.285,43.1a6.343,6.343,0,0,1,1.279.117l-.225,1.5a5.522,5.522,0,0,0-1.172-.146,2.853,2.853,0,0,0-2.222,1.055,3.846,3.846,0,0,0-.923,2.627V54H217.4V43.3h1.338l.186,1.982H219a4.705,4.705,0,0,1,1.436-1.611A3.232,3.232,0,0,1,222.285,43.1ZM239.209,54V47.037a2.89,2.89,0,0,0-.547-1.919,2.115,2.115,0,0,0-1.7-.64,2.743,2.743,0,0,0-2.236.869A4.131,4.131,0,0,0,234,48.023V54h-1.621V47.037a2.89,2.89,0,0,0-.547-1.919,2.128,2.128,0,0,0-1.709-.64,2.647,2.647,0,0,0-2.231.913,4.942,4.942,0,0,0-.708,2.993V54h-1.621V43.3h1.318l.264,1.465h.078a3.186,3.186,0,0,1,1.294-1.221,3.953,3.953,0,0,1,1.87-.439q2.51,0,3.281,1.816h.078a3.413,3.413,0,0,1,1.387-1.328,4.3,4.3,0,0,1,2.07-.488,3.624,3.624,0,0,1,2.72.933,4.172,4.172,0,0,1,.9,2.983V54Zm11.543,0-.322-1.523h-.078a4.5,4.5,0,0,1-1.6,1.362,4.867,4.867,0,0,1-1.987.356,3.575,3.575,0,0,1-2.5-.82,2.992,2.992,0,0,1-.9-2.334q0-3.242,5.186-3.4l1.816-.059V46.92a2.714,2.714,0,0,0-.542-1.86,2.229,2.229,0,0,0-1.733-.6,7.063,7.063,0,0,0-3.027.82l-.5-1.24a7.618,7.618,0,0,1,1.733-.674,7.507,7.507,0,0,1,1.89-.244,4.077,4.077,0,0,1,2.837.85,3.546,3.546,0,0,1,.923,2.725V54Zm-3.662-1.143a3.29,3.29,0,0,0,2.378-.83,3.071,3.071,0,0,0,.864-2.324v-.967l-1.621.068a5.9,5.9,0,0,0-2.788.6,1.811,1.811,0,0,0-.854,1.655A1.67,1.67,0,0,0,245.6,52.4,2.209,2.209,0,0,0,247.09,52.857Zm11.66,0a5.3,5.3,0,0,0,.83-.063,5.372,5.372,0,0,0,.635-.132V53.9a2.963,2.963,0,0,1-.776.21,5.83,5.83,0,0,1-.923.083q-3.105,0-3.105-3.271V44.557h-1.533v-.781l1.533-.674.684-2.285h.938V43.3h3.105v1.26h-3.105v6.3a2.167,2.167,0,0,0,.459,1.484A1.6,1.6,0,0,0,258.75,52.857ZM263.975,54h-1.621V43.3h1.621Zm-1.758-13.6a1.077,1.077,0,0,1,.273-.815,1.012,1.012,0,0,1,1.357,0,1.057,1.057,0,0,1,.283.811,1.074,1.074,0,0,1-.283.815.992.992,0,0,1-1.357,0A1.1,1.1,0,0,1,262.217,40.4Zm14.434,8.242a5.9,5.9,0,0,1-1.318,4.087,4.643,4.643,0,0,1-3.643,1.47,4.824,4.824,0,0,1-2.549-.674,4.447,4.447,0,0,1-1.719-1.934,6.739,6.739,0,0,1-.605-2.949,5.9,5.9,0,0,1,1.309-4.077,4.628,4.628,0,0,1,3.633-1.46,4.528,4.528,0,0,1,3.569,1.494A5.879,5.879,0,0,1,276.65,48.639Zm-8.154,0a5.08,5.08,0,0,0,.82,3.125,3.256,3.256,0,0,0,4.829,0,5.054,5.054,0,0,0,.825-3.13,4.973,4.973,0,0,0-.825-3.1,2.9,2.9,0,0,0-2.437-1.06,2.853,2.853,0,0,0-2.4,1.045A5.029,5.029,0,0,0,268.5,48.639ZM286.816,54V47.076a2.794,2.794,0,0,0-.6-1.953,2.427,2.427,0,0,0-1.865-.645,3.076,3.076,0,0,0-2.461.908,4.585,4.585,0,0,0-.781,3V54h-1.621V43.3h1.318l.264,1.465h.078a3.31,3.31,0,0,1,1.4-1.226,4.537,4.537,0,0,1,2-.435,4.065,4.065,0,0,1,2.91.933,3.969,3.969,0,0,1,.977,2.983V54Zm13.6-1.143a5.3,5.3,0,0,0,.83-.063,5.372,5.372,0,0,0,.635-.132V53.9a2.963,2.963,0,0,1-.776.21,5.83,5.83,0,0,1-.923.083q-3.105,0-3.105-3.271V44.557h-1.533v-.781l1.533-.674.684-2.285h.938V43.3h3.105v1.26H298.7v6.3a2.167,2.167,0,0,0,.459,1.484A1.6,1.6,0,0,0,300.42,52.857Zm12.842-4.219a5.9,5.9,0,0,1-1.318,4.087A4.643,4.643,0,0,1,308.3,54.2a4.824,4.824,0,0,1-2.549-.674,4.447,4.447,0,0,1-1.719-1.934,6.739,6.739,0,0,1-.605-2.949,5.9,5.9,0,0,1,1.309-4.077,4.628,4.628,0,0,1,3.633-1.46,4.528,4.528,0,0,1,3.569,1.494A5.879,5.879,0,0,1,313.262,48.639Zm-8.154,0a5.08,5.08,0,0,0,.82,3.125,3.256,3.256,0,0,0,4.829,0,5.054,5.054,0,0,0,.825-3.13,4.973,4.973,0,0,0-.825-3.1,2.9,2.9,0,0,0-2.437-1.06,2.853,2.853,0,0,0-2.4,1.045A5.029,5.029,0,0,0,305.107,48.639ZM327.881,54l-.322-1.523h-.078a4.5,4.5,0,0,1-1.6,1.362,4.867,4.867,0,0,1-1.987.356,3.575,3.575,0,0,1-2.5-.82,2.992,2.992,0,0,1-.9-2.334q0-3.242,5.186-3.4l1.816-.059V46.92a2.714,2.714,0,0,0-.542-1.86,2.229,2.229,0,0,0-1.733-.6,7.063,7.063,0,0,0-3.027.82l-.5-1.24a7.618,7.618,0,0,1,1.733-.674,7.508,7.508,0,0,1,1.89-.244,4.077,4.077,0,0,1,2.837.85,3.546,3.546,0,0,1,.923,2.725V54Zm-3.662-1.143a3.29,3.29,0,0,0,2.378-.83,3.071,3.071,0,0,0,.864-2.324v-.967l-1.621.068a5.9,5.9,0,0,0-2.788.6,1.811,1.811,0,0,0-.854,1.655,1.67,1.67,0,0,0,.532,1.338A2.209,2.209,0,0,0,324.219,52.857Zm9.727-9.561V50.24a2.794,2.794,0,0,0,.6,1.953,2.427,2.427,0,0,0,1.865.645,3.043,3.043,0,0,0,2.456-.918,4.631,4.631,0,0,0,.776-3V43.3h1.621V54h-1.338l-.234-1.436H339.6a3.231,3.231,0,0,1-1.382,1.211,4.644,4.644,0,0,1-2.017.42,4.091,4.091,0,0,1-2.925-.928A3.949,3.949,0,0,1,332.3,50.3v-7Zm14.209,9.561a5.3,5.3,0,0,0,.83-.063,5.372,5.372,0,0,0,.635-.132V53.9a2.963,2.963,0,0,1-.776.21,5.83,5.83,0,0,1-.923.083q-3.105,0-3.105-3.271V44.557h-1.533v-.781l1.533-.674.684-2.285h.938V43.3h3.105v1.26h-3.105v6.3a2.167,2.167,0,0,0,.459,1.484A1.6,1.6,0,0,0,348.154,52.857ZM361,48.639a5.9,5.9,0,0,1-1.318,4.087,4.643,4.643,0,0,1-3.643,1.47,4.824,4.824,0,0,1-2.549-.674,4.447,4.447,0,0,1-1.719-1.934,6.739,6.739,0,0,1-.605-2.949,5.9,5.9,0,0,1,1.309-4.077A4.628,4.628,0,0,1,356.1,43.1a4.528,4.528,0,0,1,3.569,1.494A5.879,5.879,0,0,1,361,48.639Zm-8.154,0a5.08,5.08,0,0,0,.82,3.125,3.256,3.256,0,0,0,4.829,0,5.054,5.054,0,0,0,.825-3.13,4.973,4.973,0,0,0-.825-3.1,2.9,2.9,0,0,0-2.437-1.06,2.853,2.853,0,0,0-2.4,1.045A5.029,5.029,0,0,0,352.842,48.639ZM368.115,54.2a4.568,4.568,0,0,1-3.6-1.431,5.883,5.883,0,0,1-1.274-4.048,6.067,6.067,0,0,1,1.294-4.15,4.659,4.659,0,0,1,3.687-1.465,7.316,7.316,0,0,1,1.543.166,5.083,5.083,0,0,1,1.211.391l-.5,1.377a7.622,7.622,0,0,0-1.172-.356,5.232,5.232,0,0,0-1.123-.142q-3.262,0-3.262,4.16a4.954,4.954,0,0,0,.8,3.027,2.769,2.769,0,0,0,2.358,1.055,7.211,7.211,0,0,0,2.744-.576v1.436A5.849,5.849,0,0,1,368.115,54.2ZM382.6,48.639a5.9,5.9,0,0,1-1.318,4.087,4.643,4.643,0,0,1-3.643,1.47,4.824,4.824,0,0,1-2.549-.674,4.447,4.447,0,0,1-1.719-1.934,6.739,6.739,0,0,1-.605-2.949,5.9,5.9,0,0,1,1.309-4.077,4.628,4.628,0,0,1,3.633-1.46,4.528,4.528,0,0,1,3.569,1.494A5.879,5.879,0,0,1,382.6,48.639Zm-8.154,0a5.08,5.08,0,0,0,.82,3.125,3.256,3.256,0,0,0,4.829,0,5.054,5.054,0,0,0,.825-3.13,4.973,4.973,0,0,0-.825-3.1,2.9,2.9,0,0,0-2.437-1.06,2.853,2.853,0,0,0-2.4,1.045A5.029,5.029,0,0,0,374.443,48.639ZM399.082,54V47.037a2.89,2.89,0,0,0-.547-1.919,2.115,2.115,0,0,0-1.7-.64,2.743,2.743,0,0,0-2.236.869,4.131,4.131,0,0,0-.723,2.676V54h-1.621V47.037a2.89,2.89,0,0,0-.547-1.919,2.128,2.128,0,0,0-1.709-.64,2.647,2.647,0,0,0-2.231.913,4.942,4.942,0,0,0-.708,2.993V54h-1.621V43.3h1.318l.264,1.465h.078a3.186,3.186,0,0,1,1.294-1.221,3.953,3.953,0,0,1,1.87-.439q2.51,0,3.281,1.816h.078a3.413,3.413,0,0,1,1.387-1.328,4.3,4.3,0,0,1,2.07-.488,3.624,3.624,0,0,1,2.72.933,4.172,4.172,0,0,1,.9,2.983V54Zm9.941.2a4.632,4.632,0,0,1-1.909-.386,3.59,3.59,0,0,1-1.45-1.187h-.117a14.356,14.356,0,0,1,.117,1.777v4.4h-1.621V43.3h1.318l.225,1.465h.078a3.765,3.765,0,0,1,1.455-1.27,4.423,4.423,0,0,1,1.9-.391,3.956,3.956,0,0,1,3.286,1.455,6.406,6.406,0,0,1,1.157,4.082,6.369,6.369,0,0,1-1.177,4.1A3.963,3.963,0,0,1,409.023,54.2Zm-.234-9.717a2.873,2.873,0,0,0-2.373.908,4.673,4.673,0,0,0-.752,2.891v.361a5.356,5.356,0,0,0,.752,3.228,2.86,2.86,0,0,0,2.412.972A2.508,2.508,0,0,0,411,51.715a5.325,5.325,0,0,0,.786-3.1A5.126,5.126,0,0,0,411,45.548,2.586,2.586,0,0,0,408.789,44.479ZM417.92,54H416.3V38.8h1.621Zm7.959.2a4.917,4.917,0,0,1-3.745-1.445,5.6,5.6,0,0,1-1.372-4.014,6.205,6.205,0,0,1,1.274-4.111,4.233,4.233,0,0,1,3.423-1.523,4.036,4.036,0,0,1,3.184,1.323,5.072,5.072,0,0,1,1.172,3.491v1.025h-7.373a4.243,4.243,0,0,0,.952,2.861,3.293,3.293,0,0,0,2.544.977,8.621,8.621,0,0,0,3.418-.723V53.5a8.578,8.578,0,0,1-1.626.532A9.138,9.138,0,0,1,425.879,54.2Zm-.439-9.736a2.647,2.647,0,0,0-2.056.84,3.871,3.871,0,0,0-.9,2.324h5.6a3.564,3.564,0,0,0-.684-2.349A2.406,2.406,0,0,0,425.439,44.459Zm10.6,8.4a5.3,5.3,0,0,0,.83-.063,5.372,5.372,0,0,0,.635-.132V53.9a2.963,2.963,0,0,1-.776.21,5.83,5.83,0,0,1-.923.083q-3.105,0-3.105-3.271V44.557h-1.533v-.781L432.7,43.1l.684-2.285h.938V43.3h3.105v1.26h-3.105v6.3a2.167,2.167,0,0,0,.459,1.484A1.6,1.6,0,0,0,436.035,52.857ZM444.16,54.2a4.917,4.917,0,0,1-3.745-1.445,5.6,5.6,0,0,1-1.372-4.014,6.205,6.205,0,0,1,1.274-4.111A4.233,4.233,0,0,1,443.74,43.1a4.036,4.036,0,0,1,3.184,1.323,5.072,5.072,0,0,1,1.172,3.491v1.025h-7.373a4.243,4.243,0,0,0,.952,2.861,3.293,3.293,0,0,0,2.544.977,8.621,8.621,0,0,0,3.418-.723V53.5a8.578,8.578,0,0,1-1.626.532A9.138,9.138,0,0,1,444.16,54.2Zm-.439-9.736a2.647,2.647,0,0,0-2.056.84,3.871,3.871,0,0,0-.9,2.324h5.6a3.564,3.564,0,0,0-.684-2.349A2.406,2.406,0,0,0,443.721,44.459ZM10.957,75.639a5.9,5.9,0,0,1-1.318,4.087A4.643,4.643,0,0,1,6,81.2a4.824,4.824,0,0,1-2.549-.674,4.447,4.447,0,0,1-1.719-1.934,6.739,6.739,0,0,1-.605-2.949,5.9,5.9,0,0,1,1.309-4.077A4.628,4.628,0,0,1,6.064,70.1,4.528,4.528,0,0,1,9.634,71.6,5.879,5.879,0,0,1,10.957,75.639Zm-8.154,0a5.08,5.08,0,0,0,.82,3.125,2.847,2.847,0,0,0,2.412,1.074,2.866,2.866,0,0,0,2.417-1.069,5.054,5.054,0,0,0,.825-3.13,4.973,4.973,0,0,0-.825-3.1,2.9,2.9,0,0,0-2.437-1.06,2.853,2.853,0,0,0-2.4,1.045A5.029,5.029,0,0,0,2.8,75.639Zm14.453,4.219a5.3,5.3,0,0,0,.83-.063,5.374,5.374,0,0,0,.635-.132V80.9a2.963,2.963,0,0,1-.776.21,5.831,5.831,0,0,1-.923.083q-3.105,0-3.105-3.271V71.557H12.383v-.781l1.533-.674.684-2.285h.938V70.3h3.105v1.26H15.537v6.3A2.167,2.167,0,0,0,16,79.34,1.6,1.6,0,0,0,17.256,79.857ZM28.184,81V74.076a2.793,2.793,0,0,0-.6-1.953,2.427,2.427,0,0,0-1.865-.645,3.056,3.056,0,0,0-2.466.918A4.649,4.649,0,0,0,22.48,75.4V81H20.859V65.8H22.48v4.6a10.022,10.022,0,0,1-.078,1.377h.1a3.306,3.306,0,0,1,1.362-1.216,4.429,4.429,0,0,1,2.017-.444,4.13,4.13,0,0,1,2.944.933,3.928,3.928,0,0,1,.981,2.964V81Zm9.473.2a4.918,4.918,0,0,1-3.745-1.445,5.6,5.6,0,0,1-1.372-4.014,6.205,6.205,0,0,1,1.274-4.111A4.233,4.233,0,0,1,37.236,70.1a4.036,4.036,0,0,1,3.184,1.323,5.072,5.072,0,0,1,1.172,3.491v1.025H34.219a4.243,4.243,0,0,0,.952,2.861,3.293,3.293,0,0,0,2.544.977,8.621,8.621,0,0,0,3.418-.723V80.5a8.579,8.579,0,0,1-1.626.532A9.138,9.138,0,0,1,37.656,81.2Zm-.439-9.736a2.647,2.647,0,0,0-2.056.84,3.871,3.871,0,0,0-.9,2.324h5.6a3.564,3.564,0,0,0-.684-2.349A2.406,2.406,0,0,0,37.217,71.459ZM49.238,70.1a6.343,6.343,0,0,1,1.279.117l-.225,1.5a5.522,5.522,0,0,0-1.172-.146A2.853,2.853,0,0,0,46.9,72.631a3.846,3.846,0,0,0-.923,2.627V81H44.355V70.3h1.338l.186,1.982h.078a4.7,4.7,0,0,1,1.436-1.611A3.232,3.232,0,0,1,49.238,70.1Zm13.3,1.455H59.814V81H58.193V71.557H56.279v-.732l1.914-.586v-.6q0-3.945,3.447-3.945a7.094,7.094,0,0,1,1.992.342l-.42,1.3a5.363,5.363,0,0,0-1.6-.3,1.56,1.56,0,0,0-1.357.61,3.406,3.406,0,0,0-.439,1.958V70.3h2.725ZM73.73,75.639a5.9,5.9,0,0,1-1.318,4.087A4.643,4.643,0,0,1,68.77,81.2a4.824,4.824,0,0,1-2.549-.674A4.447,4.447,0,0,1,64.5,78.588a6.739,6.739,0,0,1-.605-2.949,5.9,5.9,0,0,1,1.309-4.077,4.628,4.628,0,0,1,3.633-1.46A4.528,4.528,0,0,1,72.407,71.6,5.879,5.879,0,0,1,73.73,75.639Zm-8.154,0a5.08,5.08,0,0,0,.82,3.125,3.256,3.256,0,0,0,4.829,0,5.054,5.054,0,0,0,.825-3.13,4.973,4.973,0,0,0-.825-3.1,2.9,2.9,0,0,0-2.437-1.06,2.853,2.853,0,0,0-2.4,1.045A5.029,5.029,0,0,0,65.576,75.639ZM81.455,70.1a6.343,6.343,0,0,1,1.279.117l-.225,1.5a5.522,5.522,0,0,0-1.172-.146,2.853,2.853,0,0,0-2.222,1.055,3.846,3.846,0,0,0-.923,2.627V81H76.572V70.3H77.91l.186,1.982h.078a4.7,4.7,0,0,1,1.436-1.611A3.232,3.232,0,0,1,81.455,70.1ZM98.379,81V74.037a2.89,2.89,0,0,0-.547-1.919,2.115,2.115,0,0,0-1.7-.64,2.743,2.743,0,0,0-2.236.869,4.131,4.131,0,0,0-.723,2.676V81H91.553V74.037a2.89,2.89,0,0,0-.547-1.919,2.128,2.128,0,0,0-1.709-.64,2.647,2.647,0,0,0-2.231.913,4.942,4.942,0,0,0-.708,2.993V81H84.736V70.3h1.318l.264,1.465H86.4a3.186,3.186,0,0,1,1.294-1.221,3.953,3.953,0,0,1,1.87-.439q2.51,0,3.281,1.816h.078a3.413,3.413,0,0,1,1.387-1.328,4.3,4.3,0,0,1,2.07-.488,3.624,3.624,0,0,1,2.72.933,4.172,4.172,0,0,1,.9,2.983V81Zm11.865-2.92a2.681,2.681,0,0,1-1.113,2.3,5.233,5.233,0,0,1-3.125.811,6.8,6.8,0,0,1-3.32-.674v-1.5a8.03,8.03,0,0,0,1.655.615,6.912,6.912,0,0,0,1.7.225A3.865,3.865,0,0,0,108,79.452a1.4,1.4,0,0,0,.142-2.3,8.525,8.525,0,0,0-2.114-1.05,11.465,11.465,0,0,1-2.124-.972,2.9,2.9,0,0,1-.937-.942,2.458,2.458,0,0,1-.308-1.26,2.4,2.4,0,0,1,1.064-2.065,4.96,4.96,0,0,1,2.92-.757,8.544,8.544,0,0,1,3.379.7l-.576,1.318a7.756,7.756,0,0,0-2.92-.664,3.359,3.359,0,0,0-1.738.361,1.117,1.117,0,0,0-.586,1,1.213,1.213,0,0,0,.22.732,2.168,2.168,0,0,0,.708.576,15.823,15.823,0,0,0,1.875.791,7,7,0,0,1,2.573,1.4A2.463,2.463,0,0,1,110.244,78.08ZM122.9,71.557h-2.725V81h-1.621V71.557h-1.914v-.732l1.914-.586v-.6q0-3.945,3.447-3.945a7.094,7.094,0,0,1,1.992.342l-.42,1.3a5.363,5.363,0,0,0-1.6-.3,1.56,1.56,0,0,0-1.357.61,3.406,3.406,0,0,0-.439,1.958V70.3H122.9Zm11.191,4.082a5.9,5.9,0,0,1-1.318,4.087,4.643,4.643,0,0,1-3.643,1.47,4.824,4.824,0,0,1-2.549-.674,4.447,4.447,0,0,1-1.719-1.934,6.739,6.739,0,0,1-.605-2.949,5.9,5.9,0,0,1,1.309-4.077A4.628,4.628,0,0,1,129.2,70.1a4.528,4.528,0,0,1,3.569,1.494A5.879,5.879,0,0,1,134.092,75.639Zm-8.154,0a5.08,5.08,0,0,0,.82,3.125,3.256,3.256,0,0,0,4.829,0,5.054,5.054,0,0,0,.825-3.13,4.973,4.973,0,0,0-.825-3.1,2.9,2.9,0,0,0-2.437-1.06,2.853,2.853,0,0,0-2.4,1.045A5.029,5.029,0,0,0,125.938,75.639ZM141.816,70.1a6.343,6.343,0,0,1,1.279.117l-.225,1.5a5.522,5.522,0,0,0-1.172-.146,2.853,2.853,0,0,0-2.222,1.055,3.846,3.846,0,0,0-.923,2.627V81h-1.621V70.3h1.338l.186,1.982h.078a4.7,4.7,0,0,1,1.436-1.611A3.232,3.232,0,0,1,141.816,70.1Zm6.777.2h1.738l2.344,6.1a23.215,23.215,0,0,1,.957,3.018h.078q.127-.5.532-1.7t2.651-7.417h1.738l-4.6,12.188a6.08,6.08,0,0,1-1.6,2.563,3.4,3.4,0,0,1-2.241.757,6.521,6.521,0,0,1-1.465-.166v-1.3a5.651,5.651,0,0,0,1.2.117,2.476,2.476,0,0,0,2.383-1.875l.6-1.523Zm21.016,5.342a5.9,5.9,0,0,1-1.318,4.087,4.643,4.643,0,0,1-3.643,1.47,4.824,4.824,0,0,1-2.549-.674,4.447,4.447,0,0,1-1.719-1.934,6.739,6.739,0,0,1-.605-2.949,5.9,5.9,0,0,1,1.309-4.077,4.628,4.628,0,0,1,3.633-1.46,4.528,4.528,0,0,1,3.569,1.494A5.879,5.879,0,0,1,169.609,75.639Zm-8.154,0a5.08,5.08,0,0,0,.82,3.125,3.256,3.256,0,0,0,4.829,0,5.054,5.054,0,0,0,.825-3.13,4.973,4.973,0,0,0-.825-3.1,2.9,2.9,0,0,0-2.437-1.06,2.853,2.853,0,0,0-2.4,1.045A5.029,5.029,0,0,0,161.455,75.639Zm12.52-5.342V77.24a2.793,2.793,0,0,0,.6,1.953,2.427,2.427,0,0,0,1.865.645,3.043,3.043,0,0,0,2.456-.918,4.631,4.631,0,0,0,.776-3V70.3h1.621V81h-1.338l-.234-1.436h-.088a3.231,3.231,0,0,1-1.382,1.211,4.644,4.644,0,0,1-2.017.42,4.091,4.091,0,0,1-2.925-.928,3.949,3.949,0,0,1-.972-2.969v-7ZM191.543,81h-1.621V70.3h1.621Zm-1.758-13.6a1.077,1.077,0,0,1,.273-.815,1.012,1.012,0,0,1,1.357,0,1.057,1.057,0,0,1,.283.811,1.074,1.074,0,0,1-.283.815.992.992,0,0,1-1.357,0A1.1,1.1,0,0,1,189.785,67.4ZM202.3,81V74.076a2.793,2.793,0,0,0-.6-1.953,2.427,2.427,0,0,0-1.865-.645,3.076,3.076,0,0,0-2.461.908,4.585,4.585,0,0,0-.781,3V81H194.98V70.3H196.3l.264,1.465h.078a3.31,3.31,0,0,1,1.4-1.226,4.537,4.537,0,0,1,2-.435,4.065,4.065,0,0,1,2.91.933,3.969,3.969,0,0,1,.977,2.983V81Zm13.6-1.143a5.3,5.3,0,0,0,.83-.063,5.374,5.374,0,0,0,.635-.132V80.9a2.963,2.963,0,0,1-.776.21,5.831,5.831,0,0,1-.923.083q-3.105,0-3.105-3.271V71.557h-1.533v-.781l1.533-.674.684-2.285h.938V70.3h3.105v1.26h-3.105v6.3a2.167,2.167,0,0,0,.459,1.484A1.6,1.6,0,0,0,215.908,79.857ZM226.836,81V74.076a2.793,2.793,0,0,0-.6-1.953,2.427,2.427,0,0,0-1.865-.645,3.056,3.056,0,0,0-2.466.918,4.649,4.649,0,0,0-.776,3.008V81h-1.621V65.8h1.621v4.6a10.023,10.023,0,0,1-.078,1.377h.1a3.306,3.306,0,0,1,1.362-1.216,4.429,4.429,0,0,1,2.017-.444,4.13,4.13,0,0,1,2.944.933,3.928,3.928,0,0,1,.981,2.964V81Zm9.473.2a4.918,4.918,0,0,1-3.745-1.445,5.6,5.6,0,0,1-1.372-4.014,6.205,6.205,0,0,1,1.274-4.111,4.233,4.233,0,0,1,3.423-1.523,4.036,4.036,0,0,1,3.184,1.323,5.072,5.072,0,0,1,1.172,3.491v1.025h-7.373a4.243,4.243,0,0,0,.952,2.861,3.293,3.293,0,0,0,2.544.977,8.621,8.621,0,0,0,3.418-.723V80.5a8.579,8.579,0,0,1-1.626.532A9.138,9.138,0,0,1,236.309,81.2Zm-.439-9.736a2.647,2.647,0,0,0-2.056.84,3.871,3.871,0,0,0-.9,2.324h5.6a3.564,3.564,0,0,0-.684-2.349A2.406,2.406,0,0,0,235.869,71.459Zm17.158.1H250.3V81h-1.621V71.557h-1.914v-.732l1.914-.586v-.6q0-3.945,3.447-3.945a7.094,7.094,0,0,1,1.992.342l-.42,1.3a5.363,5.363,0,0,0-1.6-.3,1.56,1.56,0,0,0-1.357.61A3.406,3.406,0,0,0,250.3,69.6V70.3h2.725ZM256.5,70.3V77.24a2.794,2.794,0,0,0,.6,1.953,2.427,2.427,0,0,0,1.865.645,3.043,3.043,0,0,0,2.456-.918,4.631,4.631,0,0,0,.776-3V70.3h1.621V81H262.48l-.234-1.436h-.088a3.231,3.231,0,0,1-1.382,1.211,4.644,4.644,0,0,1-2.017.42,4.091,4.091,0,0,1-2.925-.928,3.949,3.949,0,0,1-.972-2.969v-7Zm14.209,9.561a5.3,5.3,0,0,0,.83-.063,5.374,5.374,0,0,0,.635-.132V80.9a2.963,2.963,0,0,1-.776.21,5.831,5.831,0,0,1-.923.083q-3.105,0-3.105-3.271V71.557H265.84v-.781l1.533-.674.684-2.285h.938V70.3H272.1v1.26h-3.105v6.3a2.167,2.167,0,0,0,.459,1.484A1.6,1.6,0,0,0,270.713,79.857ZM275.84,70.3V77.24a2.794,2.794,0,0,0,.6,1.953,2.427,2.427,0,0,0,1.865.645,3.043,3.043,0,0,0,2.456-.918,4.631,4.631,0,0,0,.776-3V70.3h1.621V81h-1.338l-.234-1.436h-.088a3.231,3.231,0,0,1-1.382,1.211,4.644,4.644,0,0,1-2.017.42,4.091,4.091,0,0,1-2.925-.928A3.949,3.949,0,0,1,274.2,77.3v-7Zm15.635-.2a6.343,6.343,0,0,1,1.279.117l-.225,1.5a5.522,5.522,0,0,0-1.172-.146,2.853,2.853,0,0,0-2.222,1.055,3.846,3.846,0,0,0-.923,2.627V81h-1.621V70.3h1.338l.186,1.982h.078a4.7,4.7,0,0,1,1.436-1.611A3.232,3.232,0,0,1,291.475,70.1Zm7.8,11.094a4.917,4.917,0,0,1-3.745-1.445,5.6,5.6,0,0,1-1.372-4.014,6.205,6.205,0,0,1,1.274-4.111,4.233,4.233,0,0,1,3.423-1.523,4.036,4.036,0,0,1,3.184,1.323,5.072,5.072,0,0,1,1.172,3.491v1.025H295.84a4.243,4.243,0,0,0,.952,2.861,3.293,3.293,0,0,0,2.544.977,8.621,8.621,0,0,0,3.418-.723V80.5a8.578,8.578,0,0,1-1.626.532A9.138,9.138,0,0,1,299.277,81.2Zm-.439-9.736a2.647,2.647,0,0,0-2.056.84,3.871,3.871,0,0,0-.9,2.324h5.6a3.564,3.564,0,0,0-.684-2.349A2.406,2.406,0,0,0,298.838,71.459Zm6.9,8.506a1.455,1.455,0,0,1,.3-.991,1.08,1.08,0,0,1,.854-.337,1.155,1.155,0,0,1,.884.337,1.4,1.4,0,0,1,.317.991,1.37,1.37,0,0,1-.322.977,1.281,1.281,0,0,1-1.7.034A1.337,1.337,0,0,1,305.742,79.965Z" transform="translate(2216 640)"/>
    <path id="Path_23" data-name="Path 23" class="cls-4" d="M.5.5h472v46H.5Z" transform="translate(2216 811)"/>
    <path id="Path_27" data-name="Path 27" class="cls-4" d="M.5.5h472v46H.5Z" transform="translate(2216 1045)"/>
    <path id="Path_25" data-name="Path 25" class="cls-4" d="M.5.5h158v46H.5Z" transform="translate(2216 928)"/>
    <path id="Path_22" data-name="Path 22" class="cls-3" d="M3.359,0H1.508V-11.422H7.953v1.578H3.359v3.57h4.3v1.586h-4.3Zm8.3,0H9.828V-8.641h1.836ZM9.719-10.93a1.017,1.017,0,0,1,.27-.758,1.05,1.05,0,0,1,.77-.266,1.028,1.028,0,0,1,.754.266,1.017,1.017,0,0,1,.27.758,1,1,0,0,1-.27.738,1.019,1.019,0,0,1-.754.27,1.041,1.041,0,0,1-.77-.27A1,1,0,0,1,9.719-10.93ZM18.672-8.8a4.42,4.42,0,0,1,.914.078l-.18,1.711a3.47,3.47,0,0,0-.812-.094,2.351,2.351,0,0,0-1.785.719,2.6,2.6,0,0,0-.684,1.867V0H14.289V-8.641h1.438l.242,1.523h.094a3.423,3.423,0,0,1,1.121-1.227A2.665,2.665,0,0,1,18.672-8.8Zm8.32,6.336A2.261,2.261,0,0,1,26.07-.52,4.414,4.414,0,0,1,23.43.156a6.237,6.237,0,0,1-2.773-.523V-1.953a6.809,6.809,0,0,0,2.836.7q1.7,0,1.7-1.023A.811.811,0,0,0,25-2.82a2.219,2.219,0,0,0-.617-.453,10.621,10.621,0,0,0-1.2-.531,5.529,5.529,0,0,1-2.02-1.156,2.139,2.139,0,0,1-.527-1.5,1.97,1.97,0,0,1,.895-1.723A4.245,4.245,0,0,1,23.969-8.8a6.893,6.893,0,0,1,2.883.617L26.258-6.8a6.412,6.412,0,0,0-2.352-.578q-1.453,0-1.453.828a.833.833,0,0,0,.379.688,8.333,8.333,0,0,0,1.652.773,7.553,7.553,0,0,1,1.555.758,2.265,2.265,0,0,1,.719.793A2.3,2.3,0,0,1,26.992-2.461Zm5.2,1.133a4.465,4.465,0,0,0,1.344-.211V-.156a3.706,3.706,0,0,1-.785.223,5.409,5.409,0,0,1-1,.09q-2.609,0-2.609-2.75V-7.25h-1.18v-.812l1.266-.672.625-1.828h1.133v1.922h2.461V-7.25H30.992v4.625a1.3,1.3,0,0,0,.332.98A1.21,1.21,0,0,0,32.2-1.328ZM47.023,0H45.18V-5.312a2.325,2.325,0,0,0-.4-1.492A1.555,1.555,0,0,0,43.5-7.3a2.031,2.031,0,0,0-1.7.688,3.8,3.8,0,0,0-.539,2.3V0H39.422V-8.641h1.438l.258,1.133h.094a2.556,2.556,0,0,1,1.109-.953A3.718,3.718,0,0,1,43.914-8.8q3.109,0,3.109,3.164Zm7.961,0-.367-1.2h-.062A3.54,3.54,0,0,1,53.3-.129a3.978,3.978,0,0,1-1.625.285,2.75,2.75,0,0,1-1.988-.687,2.573,2.573,0,0,1-.715-1.945,2.284,2.284,0,0,1,.992-2.016,5.721,5.721,0,0,1,3.023-.742l1.492-.047v-.461A1.747,1.747,0,0,0,54.09-6.98a1.577,1.577,0,0,0-1.2-.41,4.147,4.147,0,0,0-1.273.2,9.61,9.61,0,0,0-1.172.461l-.594-1.312a6.39,6.39,0,0,1,1.539-.559A7.083,7.083,0,0,1,52.969-8.8a3.738,3.738,0,0,1,2.488.719A2.814,2.814,0,0,1,56.3-5.82V0ZM52.25-1.25a2.274,2.274,0,0,0,1.605-.559,2.025,2.025,0,0,0,.605-1.566v-.75l-1.109.047a3.8,3.8,0,0,0-1.887.434,1.317,1.317,0,0,0-.59,1.184,1.155,1.155,0,0,0,.344.895A1.477,1.477,0,0,0,52.25-1.25ZM66.141,0H64.3V-5.328a2.416,2.416,0,0,0-.375-1.48A1.384,1.384,0,0,0,62.75-7.3a1.787,1.787,0,0,0-1.559.691,4.057,4.057,0,0,0-.5,2.3V0H58.859V-8.641H60.3l.258,1.133h.094a2.394,2.394,0,0,1,1.043-.953A3.363,3.363,0,0,1,63.2-8.8a2.628,2.628,0,0,1,2.641,1.359h.125a2.634,2.634,0,0,1,1.078-1A3.422,3.422,0,0,1,68.633-8.8a2.9,2.9,0,0,1,2.254.781,3.46,3.46,0,0,1,.707,2.383s.459,4.225,0,5.633-1.836,0-1.836,0V-5.328a2.4,2.4,0,0,0-.379-1.48A1.4,1.4,0,0,0,68.2-7.3a1.822,1.822,0,0,0-1.566.668,3.443,3.443,0,0,0-.5,2.051ZM77.93.156A4.18,4.18,0,0,1,74.777-1.02a4.463,4.463,0,0,1-1.137-3.238A4.9,4.9,0,0,1,74.7-7.586a3.643,3.643,0,0,1,2.9-1.211,3.561,3.561,0,0,1,2.7,1.039A3.97,3.97,0,0,1,81.289-4.9v.992H75.531a2.838,2.838,0,0,0,.68,1.934,2.367,2.367,0,0,0,1.8.676,6.662,6.662,0,0,0,1.426-.145,7.474,7.474,0,0,0,1.418-.48V-.43A5.637,5.637,0,0,1,79.5.023,8.336,8.336,0,0,1,77.93.156Zm-.336-7.562a1.845,1.845,0,0,0-1.4.555,2.644,2.644,0,0,0-.629,1.617h3.922a2.392,2.392,0,0,0-.516-1.621A1.764,1.764,0,0,0,77.594-7.406ZM83.1-.977a1.2,1.2,0,0,1,.3-.875,1.146,1.146,0,0,1,.859-.3,1.132,1.132,0,0,1,.867.316,1.211,1.211,0,0,1,.3.863,1.241,1.241,0,0,1-.3.879,1.119,1.119,0,0,1-.863.324,1.114,1.114,0,0,1-.859-.32A1.249,1.249,0,0,1,83.1-.977Zm0-6.672a1.032,1.032,0,0,1,1.156-1.18,1.136,1.136,0,0,1,.875.313,1.228,1.228,0,0,1,.289.867,1.241,1.241,0,0,1-.3.879,1.119,1.119,0,0,1-.863.324,1.114,1.114,0,0,1-.859-.32A1.249,1.249,0,0,1,83.1-7.648Z" transform="translate(2216 792)"/>
    <path id="Path_48" data-name="Path 48" class="cls-5" d="M95.867-12.156l-.32,2.984,3.008-.844.219,1.7-2.812.227L97.8-5.664l-1.555.836-1.3-2.641L93.789-4.828l-1.6-.836,1.8-2.43L91.2-8.32l.273-1.7,2.938.844-.32-2.984Z" transform="translate(2216 792)"/>
    <path id="Path_49" data-name="Path 49" class="cls-5" d="M95.867-12.156l-.32,2.984,3.008-.844.219,1.7-2.812.227L97.8-5.664l-1.555.836-1.3-2.641L93.789-4.828l-1.6-.836,1.8-2.43L91.2-8.32l.273-1.7,2.938.844-.32-2.984Z" transform="translate(2214 1026)"/>
    <path id="Path_26" data-name="Path 26" class="cls-3" d="M1.508,0V-11.422H3.375V-1.6H8.211V0ZM15.391,0l-.367-1.2h-.062A3.54,3.54,0,0,1,13.7-.129a3.978,3.978,0,0,1-1.625.285A2.75,2.75,0,0,1,10.09-.531a2.573,2.573,0,0,1-.715-1.945,2.284,2.284,0,0,1,.992-2.016,5.721,5.721,0,0,1,3.023-.742l1.492-.047v-.461A1.747,1.747,0,0,0,14.5-6.98a1.577,1.577,0,0,0-1.2-.41,4.147,4.147,0,0,0-1.273.2,9.61,9.61,0,0,0-1.172.461l-.594-1.312A6.39,6.39,0,0,1,11.8-8.605,7.083,7.083,0,0,1,13.375-8.8a3.738,3.738,0,0,1,2.488.719A2.814,2.814,0,0,1,16.7-5.82V0ZM12.656-1.25a2.274,2.274,0,0,0,1.605-.559,2.025,2.025,0,0,0,.605-1.566v-.75l-1.109.047a3.8,3.8,0,0,0-1.887.434,1.317,1.317,0,0,0-.59,1.184,1.155,1.155,0,0,0,.344.895A1.477,1.477,0,0,0,12.656-1.25ZM25.07-2.461A2.261,2.261,0,0,1,24.148-.52a4.414,4.414,0,0,1-2.641.676,6.237,6.237,0,0,1-2.773-.523V-1.953a6.809,6.809,0,0,0,2.836.7q1.7,0,1.7-1.023a.811.811,0,0,0-.187-.547,2.219,2.219,0,0,0-.617-.453,10.621,10.621,0,0,0-1.2-.531,5.529,5.529,0,0,1-2.02-1.156,2.139,2.139,0,0,1-.527-1.5,1.97,1.97,0,0,1,.895-1.723A4.245,4.245,0,0,1,22.047-8.8a6.893,6.893,0,0,1,2.883.617L24.336-6.8a6.412,6.412,0,0,0-2.352-.578q-1.453,0-1.453.828a.833.833,0,0,0,.379.688,8.333,8.333,0,0,0,1.652.773,7.553,7.553,0,0,1,1.555.758,2.265,2.265,0,0,1,.719.793A2.3,2.3,0,0,1,25.07-2.461Zm5.2,1.133a4.465,4.465,0,0,0,1.344-.211V-.156a3.706,3.706,0,0,1-.785.223,5.409,5.409,0,0,1-1,.09q-2.609,0-2.609-2.75V-7.25h-1.18v-.812l1.266-.672.625-1.828H29.07v1.922h2.461V-7.25H29.07v4.625a1.3,1.3,0,0,0,.332.98A1.21,1.21,0,0,0,30.273-1.328ZM45.1,0H43.258V-5.312a2.325,2.325,0,0,0-.4-1.492A1.555,1.555,0,0,0,41.578-7.3a2.031,2.031,0,0,0-1.7.688,3.8,3.8,0,0,0-.539,2.3V0H37.5V-8.641h1.438L39.2-7.508h.094A2.556,2.556,0,0,1,40.4-8.461,3.718,3.718,0,0,1,41.992-8.8Q45.1-8.8,45.1-5.633Zm7.961,0L52.7-1.2h-.062A3.54,3.54,0,0,1,51.375-.129,3.978,3.978,0,0,1,49.75.156a2.75,2.75,0,0,1-1.988-.687,2.573,2.573,0,0,1-.715-1.945,2.284,2.284,0,0,1,.992-2.016,5.721,5.721,0,0,1,3.023-.742l1.492-.047v-.461a1.747,1.747,0,0,0-.387-1.238,1.577,1.577,0,0,0-1.2-.41,4.147,4.147,0,0,0-1.273.2,9.61,9.61,0,0,0-1.172.461L47.93-8.047a6.39,6.39,0,0,1,1.539-.559A7.083,7.083,0,0,1,51.047-8.8a3.738,3.738,0,0,1,2.488.719,2.814,2.814,0,0,1,.84,2.258V0ZM50.328-1.25a2.274,2.274,0,0,0,1.605-.559,2.025,2.025,0,0,0,.605-1.566v-.75l-1.109.047a3.8,3.8,0,0,0-1.887.434,1.317,1.317,0,0,0-.59,1.184,1.155,1.155,0,0,0,.344.895A1.477,1.477,0,0,0,50.328-1.25ZM64.219,0H62.375V-5.328A2.416,2.416,0,0,0,62-6.809,1.384,1.384,0,0,0,60.828-7.3a1.787,1.787,0,0,0-1.559.691,4.057,4.057,0,0,0-.5,2.3V0H56.938V-8.641h1.438l.258,1.133h.094a2.394,2.394,0,0,1,1.043-.953,3.363,3.363,0,0,1,1.5-.336,2.628,2.628,0,0,1,2.641,1.359h.125a2.634,2.634,0,0,1,1.078-1A3.422,3.422,0,0,1,66.711-8.8a2.9,2.9,0,0,1,2.254.781,3.46,3.46,0,0,1,.707,2.383V0H67.836V-5.328a2.4,2.4,0,0,0-.379-1.48A1.4,1.4,0,0,0,66.281-7.3a1.822,1.822,0,0,0-1.566.668,3.443,3.443,0,0,0-.5,2.051ZM76.008.156A4.18,4.18,0,0,1,72.855-1.02a4.463,4.463,0,0,1-1.137-3.238,4.9,4.9,0,0,1,1.055-3.328,3.643,3.643,0,0,1,2.9-1.211,3.561,3.561,0,0,1,2.7,1.039A3.97,3.97,0,0,1,79.367-4.9v.992H73.609a2.838,2.838,0,0,0,.68,1.934,2.367,2.367,0,0,0,1.8.676,6.662,6.662,0,0,0,1.426-.145,7.474,7.474,0,0,0,1.418-.48V-.43a5.637,5.637,0,0,1-1.359.453A8.336,8.336,0,0,1,76.008.156Zm-.336-7.562a1.845,1.845,0,0,0-1.4.555,2.644,2.644,0,0,0-.629,1.617h3.922a2.392,2.392,0,0,0-.516-1.621A1.764,1.764,0,0,0,75.672-7.406ZM81.18-.977a1.2,1.2,0,0,1,.3-.875,1.146,1.146,0,0,1,.859-.3,1.132,1.132,0,0,1,.867.316,1.211,1.211,0,0,1,.3.863,1.241,1.241,0,0,1-.3.879,1.119,1.119,0,0,1-.863.324,1.114,1.114,0,0,1-.859-.32A1.249,1.249,0,0,1,81.18-.977Zm0-6.672a1.032,1.032,0,0,1,1.156-1.18,1.136,1.136,0,0,1,.875.313,1.228,1.228,0,0,1,.289.867,1.241,1.241,0,0,1-.3.879,1.119,1.119,0,0,1-.863.324,1.114,1.114,0,0,1-.859-.32A1.249,1.249,0,0,1,81.18-7.648Z" transform="translate(2216 1026)"/>
    <path id="Path_24" data-name="Path 24" class="cls-6" d="M6.445,0,3.133-9.539H3.07Q3.2-7.414,3.2-5.555V0h-1.7V-11.422H4.141L7.313-2.336h.047l3.266-9.086h2.641V0h-1.8V-5.648q0-.852.043-2.219t.074-1.656h-.062L8.094,0ZM17.914,0H16.078V-8.641h1.836ZM15.969-10.93a1.017,1.017,0,0,1,.27-.758,1.05,1.05,0,0,1,.77-.266,1.028,1.028,0,0,1,.754.266,1.017,1.017,0,0,1,.27.758,1,1,0,0,1-.27.738,1.019,1.019,0,0,1-.754.27,1.041,1.041,0,0,1-.77-.27A1,1,0,0,1,15.969-10.93ZM23.453.156A3.01,3.01,0,0,1,20.93-1.016,5.267,5.267,0,0,1,20.023-4.3a5.284,5.284,0,0,1,.918-3.309A3.038,3.038,0,0,1,23.484-8.8a2.979,2.979,0,0,1,2.594,1.258h.094a11.005,11.005,0,0,1-.133-1.469v-3.148h1.844V0H26.445l-.32-1.133h-.086A2.935,2.935,0,0,1,23.453.156Zm.492-1.484a2,2,0,0,0,1.648-.637,3.352,3.352,0,0,0,.531-2.066v-.258a3.873,3.873,0,0,0-.531-2.32A1.971,1.971,0,0,0,23.93-7.3a1.688,1.688,0,0,0-1.492.785,4.024,4.024,0,0,0-.523,2.238,3.923,3.923,0,0,0,.508,2.191A1.714,1.714,0,0,0,23.945-1.328ZM33.422.156A3.01,3.01,0,0,1,30.9-1.016,5.267,5.267,0,0,1,29.992-4.3a5.284,5.284,0,0,1,.918-3.309A3.038,3.038,0,0,1,33.453-8.8a2.979,2.979,0,0,1,2.594,1.258h.094a11.005,11.005,0,0,1-.133-1.469v-3.148h1.844V0H36.414l-.32-1.133h-.086A2.935,2.935,0,0,1,33.422.156Zm.492-1.484a2,2,0,0,0,1.648-.637,3.352,3.352,0,0,0,.531-2.066v-.258a3.873,3.873,0,0,0-.531-2.32A1.971,1.971,0,0,0,33.9-7.3a1.688,1.688,0,0,0-1.492.785,4.024,4.024,0,0,0-.523,2.238,3.923,3.923,0,0,0,.508,2.191A1.714,1.714,0,0,0,33.914-1.328ZM42.313,0H40.477V-12.156h1.836Zm6.4.156A4.18,4.18,0,0,1,45.559-1.02a4.463,4.463,0,0,1-1.137-3.238,4.9,4.9,0,0,1,1.055-3.328,3.643,3.643,0,0,1,2.9-1.211,3.561,3.561,0,0,1,2.7,1.039A3.97,3.97,0,0,1,52.07-4.9v.992H46.313a2.838,2.838,0,0,0,.68,1.934,2.367,2.367,0,0,0,1.8.676,6.662,6.662,0,0,0,1.426-.145,7.474,7.474,0,0,0,1.418-.48V-.43a5.637,5.637,0,0,1-1.359.453A8.336,8.336,0,0,1,48.711.156Zm-.336-7.562a1.845,1.845,0,0,0-1.4.555,2.643,2.643,0,0,0-.629,1.617h3.922a2.392,2.392,0,0,0-.516-1.621A1.764,1.764,0,0,0,48.375-7.406ZM60.148,0H58.313V-8.641h1.836ZM58.2-10.93a1.017,1.017,0,0,1,.27-.758,1.05,1.05,0,0,1,.77-.266,1.028,1.028,0,0,1,.754.266,1.017,1.017,0,0,1,.27.758,1,1,0,0,1-.27.738,1.019,1.019,0,0,1-.754.27,1.041,1.041,0,0,1-.77-.27A1,1,0,0,1,58.2-10.93ZM70.375,0H68.531V-5.312a2.325,2.325,0,0,0-.4-1.492A1.555,1.555,0,0,0,66.852-7.3a2.031,2.031,0,0,0-1.7.688,3.8,3.8,0,0,0-.539,2.3V0H62.773V-8.641h1.438l.258,1.133h.094a2.556,2.556,0,0,1,1.109-.953A3.718,3.718,0,0,1,67.266-8.8q3.109,0,3.109,3.164Zm4.391,0H72.93V-8.641h1.836ZM72.82-10.93a1.017,1.017,0,0,1,.27-.758,1.05,1.05,0,0,1,.77-.266,1.028,1.028,0,0,1,.754.266,1.017,1.017,0,0,1,.27.758,1,1,0,0,1-.27.738,1.019,1.019,0,0,1-.754.27,1.041,1.041,0,0,1-.77-.27A1,1,0,0,1,72.82-10.93Zm7.789,9.6a4.465,4.465,0,0,0,1.344-.211V-.156a3.706,3.706,0,0,1-.785.223,5.409,5.409,0,0,1-1,.09q-2.609,0-2.609-2.75V-7.25h-1.18v-.812l1.266-.672.625-1.828h1.133v1.922h2.461V-7.25H79.406v4.625a1.3,1.3,0,0,0,.332.98A1.21,1.21,0,0,0,80.609-1.328ZM85.516,0H83.68V-8.641h1.836ZM83.57-10.93a1.017,1.017,0,0,1,.27-.758,1.05,1.05,0,0,1,.77-.266,1.028,1.028,0,0,1,.754.266,1.017,1.017,0,0,1,.27.758,1,1,0,0,1-.27.738,1.019,1.019,0,0,1-.754.27,1.041,1.041,0,0,1-.77-.27A1,1,0,0,1,83.57-10.93ZM93.547,0,93.18-1.2h-.062A3.54,3.54,0,0,1,91.859-.129a3.978,3.978,0,0,1-1.625.285,2.75,2.75,0,0,1-1.988-.687,2.573,2.573,0,0,1-.715-1.945,2.284,2.284,0,0,1,.992-2.016,5.721,5.721,0,0,1,3.023-.742l1.492-.047v-.461a1.747,1.747,0,0,0-.387-1.238,1.577,1.577,0,0,0-1.2-.41,4.147,4.147,0,0,0-1.273.2,9.61,9.61,0,0,0-1.172.461l-.594-1.312a6.39,6.39,0,0,1,1.539-.559A7.083,7.083,0,0,1,91.531-8.8a3.738,3.738,0,0,1,2.488.719,2.814,2.814,0,0,1,.84,2.258V0ZM90.813-1.25a2.274,2.274,0,0,0,1.605-.559,2.025,2.025,0,0,0,.605-1.566v-.75l-1.109.047a3.8,3.8,0,0,0-1.887.434,1.317,1.317,0,0,0-.59,1.184,1.155,1.155,0,0,0,.344.895A1.477,1.477,0,0,0,90.813-1.25ZM99.258,0H97.422V-12.156h1.836Zm2.352-.977a1.2,1.2,0,0,1,.3-.875,1.146,1.146,0,0,1,.859-.3,1.132,1.132,0,0,1,.867.316,1.211,1.211,0,0,1,.3.863,1.241,1.241,0,0,1-.3.879,1.119,1.119,0,0,1-.863.324,1.114,1.114,0,0,1-.859-.32A1.249,1.249,0,0,1,101.609-.977Zm0-6.672a1.032,1.032,0,0,1,1.156-1.18,1.136,1.136,0,0,1,.875.313,1.228,1.228,0,0,1,.289.867,1.241,1.241,0,0,1-.3.879,1.119,1.119,0,0,1-.863.324,1.114,1.114,0,0,1-.859-.32A1.249,1.249,0,0,1,101.609-7.648Z" transform="translate(2216 909)"/>
    <path id="Path_20" data-name="Path 20" class="cls-7" d="M0,0H564V60H0Z" transform="translate(2181 510)"/>
    <g id="Group_4" data-name="Group 4" transform="translate(2276.8 510)">
      <circle id="Ellipse_1" data-name="Ellipse 1" class="cls-8" cx="20" cy="20" r="20" transform="translate(166.2 10)"/>
      <g id="Group_4-2" data-name="Group 4" transform="translate(176.635 22.077)">
        <path id="Path_3" data-name="Path 3" class="cls-9" d="M2.946,11.978,10.746,0H1.309L.545,1.579H7.8L0,13.557H10.746l.709-1.579Z"/>
        <path id="Path_4" data-name="Path 4" class="cls-9" d="M27.491,0H24l3.928,8.711L24,17.423h3.491l3.982-8.711Z" transform="translate(-10.908)"/>
      </g>
    </g>
    <g id="Group_5" data-name="Group 5" transform="translate(2199 517.5)">
      <line id="Line_1" data-name="Line 1" class="cls-10" x2="20.154" transform="translate(9.5 15.5)"/>
      <line id="Line_2" data-name="Line 2" class="cls-10" x2="20.154" transform="translate(9.5 22.925)"/>
      <line id="Line_3" data-name="Line 3" class="cls-10" x2="20.154" transform="translate(9.5 30.35)"/>
    </g>
    <path id="Path_28" data-name="Path 28" class="cls-6" d="M1.508-11.422H4.9a6.435,6.435,0,0,1,3.41.688A2.407,2.407,0,0,1,9.359-8.562,2.632,2.632,0,0,1,8.844-6.9a2.306,2.306,0,0,1-1.484.836v.078a2.947,2.947,0,0,1,1.77.895A2.706,2.706,0,0,1,9.7-3.281,2.932,2.932,0,0,1,8.621-.871,4.621,4.621,0,0,1,5.633,0H1.508ZM3.375-6.7h1.8a3.077,3.077,0,0,0,1.711-.371,1.421,1.421,0,0,0,.539-1.262A1.264,1.264,0,0,0,6.84-9.5a3.635,3.635,0,0,0-1.848-.359H3.375Zm0,1.516V-1.57H5.359a2.921,2.921,0,0,0,1.77-.449,1.658,1.658,0,0,0,.6-1.418,1.506,1.506,0,0,0-.609-1.32,3.229,3.229,0,0,0-1.852-.43ZM17.969,0l-.258-1.133h-.094a2.6,2.6,0,0,1-1.09.945,3.644,3.644,0,0,1-1.613.344A3.167,3.167,0,0,1,12.57-.625,3.239,3.239,0,0,1,11.8-2.992V-8.641h1.852v5.328a2.311,2.311,0,0,0,.406,1.488,1.551,1.551,0,0,0,1.273.5,2.028,2.028,0,0,0,1.7-.691,3.81,3.81,0,0,0,.543-2.316v-4.3h1.844V0Zm9.867-2.461A2.261,2.261,0,0,1,26.914-.52a4.414,4.414,0,0,1-2.641.676A6.237,6.237,0,0,1,21.5-.367V-1.953a6.809,6.809,0,0,0,2.836.7q1.7,0,1.7-1.023a.811.811,0,0,0-.187-.547,2.219,2.219,0,0,0-.617-.453,10.621,10.621,0,0,0-1.2-.531,5.529,5.529,0,0,1-2.02-1.156,2.139,2.139,0,0,1-.527-1.5,1.97,1.97,0,0,1,.895-1.723A4.245,4.245,0,0,1,24.813-8.8,6.893,6.893,0,0,1,27.7-8.18L27.1-6.8a6.412,6.412,0,0,0-2.352-.578q-1.453,0-1.453.828a.833.833,0,0,0,.379.688,8.333,8.333,0,0,0,1.652.773,7.553,7.553,0,0,1,1.555.758,2.265,2.265,0,0,1,.719.793A2.3,2.3,0,0,1,27.836-2.461ZM31.656,0H29.82V-8.641h1.836ZM29.711-10.93a1.017,1.017,0,0,1,.27-.758,1.05,1.05,0,0,1,.77-.266,1.028,1.028,0,0,1,.754.266,1.017,1.017,0,0,1,.27.758,1,1,0,0,1-.27.738,1.019,1.019,0,0,1-.754.27,1.041,1.041,0,0,1-.77-.27A1,1,0,0,1,29.711-10.93ZM41.883,0H40.039V-5.312a2.325,2.325,0,0,0-.4-1.492A1.555,1.555,0,0,0,38.359-7.3a2.031,2.031,0,0,0-1.7.688,3.8,3.8,0,0,0-.539,2.3V0H34.281V-8.641h1.438l.258,1.133h.094a2.556,2.556,0,0,1,1.109-.953A3.718,3.718,0,0,1,38.773-8.8q3.109,0,3.109,3.164Zm6.328.156A4.18,4.18,0,0,1,45.059-1.02a4.463,4.463,0,0,1-1.137-3.238,4.9,4.9,0,0,1,1.055-3.328,3.643,3.643,0,0,1,2.9-1.211,3.561,3.561,0,0,1,2.7,1.039A3.97,3.97,0,0,1,51.57-4.9v.992H45.813a2.838,2.838,0,0,0,.68,1.934,2.367,2.367,0,0,0,1.8.676,6.662,6.662,0,0,0,1.426-.145,7.474,7.474,0,0,0,1.418-.48V-.43a5.637,5.637,0,0,1-1.359.453A8.336,8.336,0,0,1,48.211.156Zm-.336-7.562a1.845,1.845,0,0,0-1.4.555,2.643,2.643,0,0,0-.629,1.617h3.922a2.392,2.392,0,0,0-.516-1.621A1.764,1.764,0,0,0,47.875-7.406ZM59.461-2.461A2.261,2.261,0,0,1,58.539-.52,4.414,4.414,0,0,1,55.9.156a6.237,6.237,0,0,1-2.773-.523V-1.953a6.809,6.809,0,0,0,2.836.7q1.7,0,1.7-1.023a.811.811,0,0,0-.187-.547,2.219,2.219,0,0,0-.617-.453,10.621,10.621,0,0,0-1.2-.531,5.529,5.529,0,0,1-2.02-1.156,2.139,2.139,0,0,1-.527-1.5A1.97,1.97,0,0,1,54-8.184,4.245,4.245,0,0,1,56.438-8.8a6.893,6.893,0,0,1,2.883.617L58.727-6.8a6.412,6.412,0,0,0-2.352-.578q-1.453,0-1.453.828a.833.833,0,0,0,.379.688,8.333,8.333,0,0,0,1.652.773,7.553,7.553,0,0,1,1.555.758,2.265,2.265,0,0,1,.719.793A2.3,2.3,0,0,1,59.461-2.461Zm7.789,0A2.261,2.261,0,0,1,66.328-.52a4.414,4.414,0,0,1-2.641.676,6.237,6.237,0,0,1-2.773-.523V-1.953a6.809,6.809,0,0,0,2.836.7q1.7,0,1.7-1.023a.811.811,0,0,0-.187-.547,2.219,2.219,0,0,0-.617-.453,10.621,10.621,0,0,0-1.2-.531,5.529,5.529,0,0,1-2.02-1.156,2.139,2.139,0,0,1-.527-1.5,1.97,1.97,0,0,1,.895-1.723A4.245,4.245,0,0,1,64.227-8.8a6.893,6.893,0,0,1,2.883.617L66.516-6.8a6.412,6.412,0,0,0-2.352-.578q-1.453,0-1.453.828a.833.833,0,0,0,.379.688,8.333,8.333,0,0,0,1.652.773,7.553,7.553,0,0,1,1.555.758,2.265,2.265,0,0,1,.719.793A2.3,2.3,0,0,1,67.25-2.461ZM80.992,0H79.148V-5.312a2.325,2.325,0,0,0-.4-1.492A1.555,1.555,0,0,0,77.469-7.3a2.031,2.031,0,0,0-1.7.688,3.8,3.8,0,0,0-.539,2.3V0H73.391V-8.641h1.438l.258,1.133h.094a2.556,2.556,0,0,1,1.109-.953A3.718,3.718,0,0,1,77.883-8.8q3.109,0,3.109,3.164Zm7.961,0-.367-1.2h-.062A3.54,3.54,0,0,1,87.266-.129a3.978,3.978,0,0,1-1.625.285,2.75,2.75,0,0,1-1.988-.687,2.573,2.573,0,0,1-.715-1.945,2.284,2.284,0,0,1,.992-2.016,5.721,5.721,0,0,1,3.023-.742l1.492-.047v-.461a1.747,1.747,0,0,0-.387-1.238,1.577,1.577,0,0,0-1.2-.41,4.147,4.147,0,0,0-1.273.2,9.61,9.61,0,0,0-1.172.461L83.82-8.047a6.39,6.39,0,0,1,1.539-.559A7.083,7.083,0,0,1,86.938-8.8a3.738,3.738,0,0,1,2.488.719,2.814,2.814,0,0,1,.84,2.258V0ZM86.219-1.25a2.274,2.274,0,0,0,1.605-.559,2.025,2.025,0,0,0,.605-1.566v-.75l-1.109.047a3.8,3.8,0,0,0-1.887.434,1.317,1.317,0,0,0-.59,1.184,1.155,1.155,0,0,0,.344.895A1.477,1.477,0,0,0,86.219-1.25ZM100.109,0H98.266V-5.328a2.416,2.416,0,0,0-.375-1.48A1.384,1.384,0,0,0,96.719-7.3a1.787,1.787,0,0,0-1.559.691,4.057,4.057,0,0,0-.5,2.3V0H92.828V-8.641h1.438l.258,1.133h.094a2.394,2.394,0,0,1,1.043-.953,3.363,3.363,0,0,1,1.5-.336A2.628,2.628,0,0,1,99.8-7.437h.125a2.634,2.634,0,0,1,1.078-1A3.422,3.422,0,0,1,102.6-8.8a2.9,2.9,0,0,1,2.254.781,3.46,3.46,0,0,1,.707,2.383V0h-1.836V-5.328a2.4,2.4,0,0,0-.379-1.48,1.4,1.4,0,0,0-1.176-.488,1.822,1.822,0,0,0-1.566.668,3.443,3.443,0,0,0-.5,2.051ZM111.9.156a4.18,4.18,0,0,1-3.152-1.176,4.463,4.463,0,0,1-1.137-3.238,4.9,4.9,0,0,1,1.055-3.328,3.643,3.643,0,0,1,2.9-1.211,3.561,3.561,0,0,1,2.7,1.039,3.97,3.97,0,0,1,.992,2.859v.992H109.5a2.838,2.838,0,0,0,.68,1.934,2.367,2.367,0,0,0,1.8.676,6.662,6.662,0,0,0,1.426-.145,7.474,7.474,0,0,0,1.418-.48V-.43a5.637,5.637,0,0,1-1.359.453A8.336,8.336,0,0,1,111.9.156Zm-.336-7.562a1.845,1.845,0,0,0-1.4.555,2.644,2.644,0,0,0-.629,1.617h3.922a2.392,2.392,0,0,0-.516-1.621A1.764,1.764,0,0,0,111.563-7.406Zm5.508,6.43a1.2,1.2,0,0,1,.3-.875,1.146,1.146,0,0,1,.859-.3,1.132,1.132,0,0,1,.867.316,1.211,1.211,0,0,1,.3.863,1.241,1.241,0,0,1-.3.879,1.119,1.119,0,0,1-.863.324,1.114,1.114,0,0,1-.859-.32A1.249,1.249,0,0,1,117.07-.977Zm0-6.672a1.032,1.032,0,0,1,1.156-1.18,1.136,1.136,0,0,1,.875.313,1.228,1.228,0,0,1,.289.867,1.241,1.241,0,0,1-.3.879,1.119,1.119,0,0,1-.863.324,1.114,1.114,0,0,1-.859-.32A1.249,1.249,0,0,1,117.07-7.648Z" transform="translate(2216 1143)"/>
  </g>
</svg>
