<svg xmlns="http://www.w3.org/2000/svg" xmlns:xlink="http://www.w3.org/1999/xlink" viewBox="2181 -747 778 667">
  <defs>
    <style>
      .cls-1 {
        clip-path: url(#clip-tone_infographicV2_1);
      }

      .cls-2 {
        fill: #5b5b5b;
        stroke: rgba(0,0,0,0);
      }
    </style>
    <clipPath id="clip-tone_infographicV2_1">
      <rect x="2181" y="-747" width="778" height="667"/>
    </clipPath>
  </defs>
  <g id="tone_infographicV2_1" data-name="tone_infographicV2 – 1" class="cls-1">
    <path id="Path_9" data-name="Path 9" class="cls-2" d="M70.383-27.841h3.485L63.832,0h-3.2L50.654-27.841h3.428l6.4,18.015A50.527,50.527,0,0,1,62.232-3.79a50.391,50.391,0,0,1,1.79-6.151ZM95.234-10.455q0,5.1-2.571,7.969A9.054,9.054,0,0,1,85.56.381,9.408,9.408,0,0,1,80.59-.933,8.672,8.672,0,0,1,77.238-4.7a13.141,13.141,0,0,1-1.181-5.751q0-5.1,2.552-7.95a9.025,9.025,0,0,1,7.084-2.847,8.829,8.829,0,0,1,6.96,2.914A11.464,11.464,0,0,1,95.234-10.455Zm-15.9,0a9.907,9.907,0,0,0,1.6,6.094,5.552,5.552,0,0,0,4.7,2.095,5.589,5.589,0,0,0,4.713-2.085,9.856,9.856,0,0,0,1.609-6.1A9.7,9.7,0,0,0,90.349-16.5,5.654,5.654,0,0,0,85.6-18.567a5.564,5.564,0,0,0-4.685,2.038Q79.333-14.492,79.333-10.455ZM103.937,0h-3.161V-20.871h3.161Zm-3.428-26.527a2.1,2.1,0,0,1,.533-1.59,1.863,1.863,0,0,1,1.333-.5,1.863,1.863,0,0,1,1.314.514,2.062,2.062,0,0,1,.552,1.581,2.094,2.094,0,0,1-.552,1.59,1.844,1.844,0,0,1-1.314.524,1.826,1.826,0,0,1-1.333-.524A2.139,2.139,0,0,1,100.509-26.527ZM118.98.381a8.908,8.908,0,0,1-7.017-2.79q-2.485-2.79-2.485-7.893,0-5.237,2.523-8.093a9.085,9.085,0,0,1,7.189-2.856,14.265,14.265,0,0,1,3.009.324,9.912,9.912,0,0,1,2.361.762l-.971,2.685a14.864,14.864,0,0,0-2.285-.7,10.2,10.2,0,0,0-2.19-.276q-6.36,0-6.36,8.112a9.659,9.659,0,0,0,1.552,5.9,5.4,5.4,0,0,0,4.6,2.057A14.061,14.061,0,0,0,124.255-3.5V-.7A11.4,11.4,0,0,1,118.98.381Zm19.043,0a9.589,9.589,0,0,1-7.3-2.818q-2.676-2.818-2.676-7.827a12.1,12.1,0,0,1,2.485-8.017,8.255,8.255,0,0,1,6.675-2.971,7.871,7.871,0,0,1,6.208,2.58,9.89,9.89,0,0,1,2.285,6.808v2H131.32a8.273,8.273,0,0,0,1.857,5.58,6.422,6.422,0,0,0,4.961,1.9A16.811,16.811,0,0,0,144.8-3.79V-.971A16.729,16.729,0,0,1,141.632.067,17.818,17.818,0,0,1,138.023.381ZM137.167-18.6a5.162,5.162,0,0,0-4.009,1.638,7.549,7.549,0,0,0-1.761,4.532h10.912a6.95,6.95,0,0,0-1.333-4.58A4.692,4.692,0,0,0,137.167-18.6ZM71.982,66l-3.466-8.855H57.357L53.93,66H50.654L61.661,38.045h2.723L75.334,66ZM67.507,54.231,64.27,45.6q-.628-1.638-1.295-4.018a36.081,36.081,0,0,1-1.2,4.018L58.5,54.231Zm14.149-9.1v13.54a5.447,5.447,0,0,0,1.162,3.809,4.732,4.732,0,0,0,3.637,1.257q3.275,0,4.789-1.79T92.758,56.1V45.129h3.161V66H93.311l-.457-2.8h-.171a6.3,6.3,0,0,1-2.695,2.361,9.057,9.057,0,0,1-3.932.819q-3.809,0-5.7-1.809t-1.895-5.789V45.129ZM116.829,63.2h-.171a7.428,7.428,0,0,1-6.551,3.18,7.749,7.749,0,0,1-6.37-2.8q-2.276-2.8-2.276-7.96t2.285-8.017a7.69,7.69,0,0,1,6.36-2.856,7.59,7.59,0,0,1,6.513,3.085h.248l-.133-1.5-.076-1.466V36.369h3.161V66h-2.571Zm-6.322.533q3.237,0,4.694-1.761t1.457-5.684v-.667q0-4.437-1.476-6.332a5.6,5.6,0,0,0-4.713-1.895,4.838,4.838,0,0,0-4.256,2.161,10.747,10.747,0,0,0-1.476,6.1A10.3,10.3,0,0,0,106.2,61.7,4.966,4.966,0,0,0,110.506,63.734ZM129.683,66h-3.161V45.129h3.161Zm-3.428-26.527a2.1,2.1,0,0,1,.533-1.59,1.974,1.974,0,0,1,2.647.01,2.062,2.062,0,0,1,.552,1.581,2.094,2.094,0,0,1-.552,1.59,1.934,1.934,0,0,1-2.647,0A2.139,2.139,0,0,1,126.255,39.473ZM145.2,66.381a9.589,9.589,0,0,1-7.3-2.818q-2.676-2.818-2.676-7.827a12.1,12.1,0,0,1,2.485-8.017,8.255,8.255,0,0,1,6.675-2.971,7.871,7.871,0,0,1,6.208,2.58,9.89,9.89,0,0,1,2.285,6.808v2H138.5a8.273,8.273,0,0,0,1.857,5.58,6.422,6.422,0,0,0,4.961,1.9,16.811,16.811,0,0,0,6.665-1.409v2.818a16.729,16.729,0,0,1-3.171,1.038A17.818,17.818,0,0,1,145.2,66.381ZM144.346,47.4a5.162,5.162,0,0,0-4.009,1.638,7.549,7.549,0,0,0-1.761,4.532h10.912a6.95,6.95,0,0,0-1.333-4.58A4.692,4.692,0,0,0,144.346,47.4Zm28.2,18.6V52.5a5.447,5.447,0,0,0-1.162-3.809,4.732,4.732,0,0,0-3.637-1.257,6,6,0,0,0-4.8,1.771q-1.523,1.771-1.523,5.846V66h-3.161V45.129h2.571l.514,2.856h.152a6.455,6.455,0,0,1,2.723-2.39,8.848,8.848,0,0,1,3.9-.847q3.771,0,5.675,1.819t1.9,5.818V66Zm18,.381a8.908,8.908,0,0,1-7.017-2.79q-2.485-2.79-2.485-7.893,0-5.237,2.523-8.093a9.085,9.085,0,0,1,7.189-2.856,14.265,14.265,0,0,1,3.009.324,9.912,9.912,0,0,1,2.361.762l-.971,2.685a14.864,14.864,0,0,0-2.285-.7,10.2,10.2,0,0,0-2.19-.276q-6.36,0-6.36,8.112a9.659,9.659,0,0,0,1.552,5.9,5.4,5.4,0,0,0,4.6,2.057,14.061,14.061,0,0,0,5.351-1.124v2.8A11.4,11.4,0,0,1,190.544,66.381Zm19.043,0a9.589,9.589,0,0,1-7.3-2.818q-2.676-2.818-2.676-7.827a12.1,12.1,0,0,1,2.485-8.017,8.255,8.255,0,0,1,6.675-2.971,7.871,7.871,0,0,1,6.208,2.58,9.89,9.89,0,0,1,2.285,6.808v2H202.884a8.273,8.273,0,0,0,1.857,5.58,6.422,6.422,0,0,0,4.961,1.9,16.811,16.811,0,0,0,6.665-1.409v2.818a16.729,16.729,0,0,1-3.171,1.038A17.818,17.818,0,0,1,209.587,66.381ZM208.73,47.4a5.162,5.162,0,0,0-4.009,1.638,7.549,7.549,0,0,0-1.761,4.532h10.912a6.95,6.95,0,0,0-1.333-4.58A4.692,4.692,0,0,0,208.73,47.4ZM12.435,116.937h7.846v2.628H12.435v8.112H9.788v-8.112H1.98v-2.628H9.788v-8.15h2.647ZM68.44,106.654a9.1,9.1,0,0,0-7.246,3.056q-2.656,3.056-2.656,8.369,0,5.465,2.561,8.446a9.1,9.1,0,0,0,7.3,2.98,24.935,24.935,0,0,0,6.646-1.047V131.3a20.466,20.466,0,0,1-7.141,1.085q-6.151,0-9.493-3.732t-3.342-10.607a16.741,16.741,0,0,1,1.609-7.541,11.552,11.552,0,0,1,4.646-4.989,14.064,14.064,0,0,1,7.151-1.752,17.253,17.253,0,0,1,7.655,1.6l-1.371,2.78A14.755,14.755,0,0,0,68.44,106.654Zm30.221,14.892q0,5.1-2.571,7.969a9.054,9.054,0,0,1-7.1,2.866,9.408,9.408,0,0,1-4.97-1.314,8.672,8.672,0,0,1-3.352-3.771,13.141,13.141,0,0,1-1.181-5.751q0-5.1,2.552-7.95a9.025,9.025,0,0,1,7.084-2.847,8.829,8.829,0,0,1,6.96,2.914A11.464,11.464,0,0,1,98.662,121.545Zm-15.9,0a9.907,9.907,0,0,0,1.6,6.094,6.349,6.349,0,0,0,9.417.01,9.856,9.856,0,0,0,1.609-6.1,9.7,9.7,0,0,0-1.609-6.046,5.654,5.654,0,0,0-4.751-2.066,5.564,5.564,0,0,0-4.685,2.038Q82.761,117.508,82.761,121.545ZM118.485,132V118.5a5.447,5.447,0,0,0-1.162-3.809,4.732,4.732,0,0,0-3.637-1.257,6,6,0,0,0-4.8,1.771q-1.523,1.771-1.523,5.846V132H104.2V111.129h2.571l.514,2.856h.152a6.455,6.455,0,0,1,2.723-2.39,8.848,8.848,0,0,1,3.9-.847q3.771,0,5.675,1.819t1.9,5.818V132Zm16.4-2.228a10.326,10.326,0,0,0,1.619-.124,10.478,10.478,0,0,0,1.238-.257v2.418a5.779,5.779,0,0,1-1.514.409,11.369,11.369,0,0,1-1.8.162q-6.056,0-6.056-6.379V113.585h-2.99v-1.523l2.99-1.314,1.333-4.456h1.828v4.837h6.056v2.457H131.53v12.283a4.225,4.225,0,0,0,.9,2.895A3.115,3.115,0,0,0,134.881,129.772Zm15.844,2.609a9.589,9.589,0,0,1-7.3-2.818q-2.676-2.818-2.676-7.827a12.1,12.1,0,0,1,2.485-8.017,8.255,8.255,0,0,1,6.675-2.971,7.871,7.871,0,0,1,6.208,2.58,9.89,9.89,0,0,1,2.285,6.808v2H144.022a8.273,8.273,0,0,0,1.857,5.58,6.422,6.422,0,0,0,4.961,1.9,16.811,16.811,0,0,0,6.665-1.409v2.818a16.729,16.729,0,0,1-3.171,1.038A17.818,17.818,0,0,1,150.725,132.381Zm-.857-18.986a5.162,5.162,0,0,0-4.009,1.638,7.549,7.549,0,0,0-1.761,4.532H155.01a6.95,6.95,0,0,0-1.333-4.58A4.692,4.692,0,0,0,149.868,113.4Zm18.948,7.922-7.255-10.188h3.6l5.5,8,5.484-8h3.561l-7.255,10.188L180.089,132h-3.58l-5.846-8.455L164.76,132h-3.58Zm22.147,8.455a10.326,10.326,0,0,0,1.619-.124,10.478,10.478,0,0,0,1.238-.257v2.418a5.779,5.779,0,0,1-1.514.409,11.369,11.369,0,0,1-1.8.162q-6.056,0-6.056-6.379V113.585h-2.99v-1.523l2.99-1.314,1.333-4.456h1.828v4.837h6.056v2.457h-6.056v12.283a4.225,4.225,0,0,0,.9,2.895A3.115,3.115,0,0,0,190.963,129.772ZM17.558,204H-.076V201.5H17.558Zm17.481,0H17.405V201.5H35.039Zm17.481,0H34.887V201.5H52.521ZM70,204H52.368V201.5H70Zm17.481,0H69.85V201.5H87.483Zm17.481,0H87.331V201.5h17.634Zm17.481,0H104.813V201.5h17.634Zm17.481,0H122.294V201.5h17.634Zm17.481,0H139.775V201.5h17.634Zm17.481,0H157.257V201.5h17.634Zm17.481,0H174.738V201.5h17.634Zm17.481,0H192.22V201.5h17.634Zm17.481,0H209.7V201.5h17.634Zm17.481,0H227.183V201.5h17.634Zm17.481,0H244.664V201.5H262.3Z" transform="translate(2441 -540)"/>
    <path id="Path_10" data-name="Path 10" class="cls-2" d="M-33.078,0h-3.237V-24.965h-8.817v-2.875h20.871v2.875h-8.817ZM-2.533-10.455q0,5.1-2.571,7.969a9.054,9.054,0,0,1-7.1,2.866,9.408,9.408,0,0,1-4.97-1.314A8.672,8.672,0,0,1-20.528-4.7a13.141,13.141,0,0,1-1.181-5.751q0-5.1,2.552-7.95a9.025,9.025,0,0,1,7.084-2.847,8.829,8.829,0,0,1,6.96,2.914A11.464,11.464,0,0,1-2.533-10.455Zm-15.9,0a9.907,9.907,0,0,0,1.6,6.094,5.552,5.552,0,0,0,4.7,2.095A5.589,5.589,0,0,0-7.417-4.351a9.856,9.856,0,0,0,1.609-6.1A9.7,9.7,0,0,0-7.417-16.5a5.654,5.654,0,0,0-4.751-2.066,5.564,5.564,0,0,0-4.685,2.038Q-18.434-14.492-18.434-10.455ZM17.291,0V-13.5a5.447,5.447,0,0,0-1.162-3.809,4.732,4.732,0,0,0-3.637-1.257,6,6,0,0,0-4.8,1.771Q6.17-15.025,6.17-10.95V0H3.009V-20.871H5.58l.514,2.856h.152A6.455,6.455,0,0,1,8.969-20.4a8.848,8.848,0,0,1,3.9-.847q3.771,0,5.675,1.819t1.9,5.818V0ZM35.763.381a9.589,9.589,0,0,1-7.3-2.818q-2.676-2.818-2.676-7.827a12.1,12.1,0,0,1,2.485-8.017,8.255,8.255,0,0,1,6.675-2.971,7.871,7.871,0,0,1,6.208,2.58,9.89,9.89,0,0,1,2.285,6.808v2H29.06a8.273,8.273,0,0,0,1.857,5.58,6.422,6.422,0,0,0,4.961,1.9A16.811,16.811,0,0,0,42.542-3.79V-.971A16.729,16.729,0,0,1,39.371.067,17.818,17.818,0,0,1,35.763.381ZM34.906-18.6A5.162,5.162,0,0,0,30.9-16.967a7.549,7.549,0,0,0-1.761,4.532H40.047a6.95,6.95,0,0,0-1.333-4.58A4.692,4.692,0,0,0,34.906-18.6Z" transform="translate(2536 -255.51)"/>
  </g>
</svg>
