<svg xmlns="http://www.w3.org/2000/svg" xmlns:xlink="http://www.w3.org/1999/xlink" width="564" height="535" viewBox="0 0 564 535">
  <defs>
    <filter id="Rectangle_4704" x="123" y="126" width="318" height="316" filterUnits="userSpaceOnUse">
      <feOffset dy="3" input="SourceAlpha"/>
      <feGaussianBlur stdDeviation="3" result="blur"/>
      <feFlood flood-opacity="0.161"/>
      <feComposite operator="in" in2="blur"/>
      <feComposite in="SourceGraphic"/>
    </filter>
    <clipPath id="clip-multiselect_icon_specs">
      <rect width="564" height="535"/>
    </clipPath>
  </defs>
  <g id="multiselect_icon_specs" clip-path="url(#clip-multiselect_icon_specs)">
    <rect width="564" height="535" fill="#fff"/>
    <g transform="matrix(1, 0, 0, 1, 0, 0)" filter="url(#Rectangle_4704)">
      <rect id="Rectangle_4704-2" data-name="Rectangle 4704" width="300" height="298" rx="4" transform="translate(132 132)" fill="#fff"/>
    </g>
    <g id="Group_15365" data-name="Group 15365" transform="translate(179.996 182.303)">
      <g id="Group_15359" data-name="Group 15359" transform="translate(0.004 0)">
        <rect id="Rectangle_8173" data-name="Rectangle 8173" width="16" height="16" transform="translate(0 -0.303)" fill="none"/>
        <g id="Group_15358" data-name="Group 15358" transform="translate(2.154 0)">
          <path id="Path_10334" data-name="Path 10334" d="M7.919,1.308A2.616,2.616,0,1,1,5.3,3.924,2.619,2.619,0,0,1,7.919,1.308M7.919,0a3.924,3.924,0,1,0,3.924,3.924A3.924,3.924,0,0,0,7.919,0Z" transform="translate(-2.251)" fill="#afafbb"/>
          <path id="Path_10335" data-name="Path 10335" d="M7.885,10.2c3,0,4.008.753,4.3,1.085a.216.216,0,0,1,.057.147v2.91a.219.219,0,0,1-.218.219H3.743a.218.218,0,0,1-.218-.219V11.428a.218.218,0,0,1,.056-.146c.3-.332,1.3-1.085,4.3-1.085m0-1.308c-4.372,0-5.4,1.523-5.613,2.023a.7.7,0,0,0-.055.281V15.12a.746.746,0,0,0,.746.746h9.846a.745.745,0,0,0,.746-.746V11.192a.688.688,0,0,0-.055-.281c-.218-.5-1.24-2.023-5.613-2.023Z" transform="translate(-2.217 -0.169)" fill="#afafbb"/>
        </g>
      </g>
    </g>
    <g id="Building" transform="translate(192.208 158.318)">
      <g id="Building-2" data-name="Building" transform="translate(-12.208 -12)">
        <rect id="Rectangle_8159" data-name="Rectangle 8159" width="16" height="16" transform="translate(0 -0.317)" fill="none"/>
        <g id="Group_15355" data-name="Group 15355" transform="translate(3.341 0)">
          <path id="Path_10332" data-name="Path 10332" d="M11.167,14.381H10a.194.194,0,0,1-.194-.194V11.077a.194.194,0,0,0-.194-.194h-3.4a.194.194,0,0,0-.194.194v3.109a.194.194,0,0,1-.194.194H4.66a.194.194,0,0,1-.194-.194V1.36a.194.194,0,0,1,.194-.194h6.507a.194.194,0,0,1,.194.194V14.186a.194.194,0,0,1-.194.194ZM11.847,0H3.98A.68.68,0,0,0,3.3.68V14.866a.68.68,0,0,0,.68.68H6.991a.194.194,0,0,0,.194-.194V12.243a.194.194,0,0,1,.194-.194H8.545a.194.194,0,0,1,.194.194v3.109a.194.194,0,0,0,.194.194h3.011a.68.68,0,0,0,.68-.68V.68A.68.68,0,0,0,11.847,0Z" transform="translate(-3.3 0.007)" fill="#afafbb"/>
          <rect id="Rectangle_8160" data-name="Rectangle 8160" width="1.942" height="1.555" rx="0.297" transform="translate(1.942 2.339)" fill="#afafbb"/>
          <rect id="Rectangle_8161" data-name="Rectangle 8161" width="1.942" height="1.555" rx="0.297" transform="translate(5.439 2.339)" fill="#afafbb"/>
          <rect id="Rectangle_8162" data-name="Rectangle 8162" width="1.942" height="1.555" rx="0.297" transform="translate(1.942 5.06)" fill="#afafbb"/>
          <rect id="Rectangle_8163" data-name="Rectangle 8163" width="1.942" height="1.555" rx="0.297" transform="translate(5.439 5.06)" fill="#afafbb"/>
          <rect id="Rectangle_8164" data-name="Rectangle 8164" width="1.942" height="1.555" rx="0.297" transform="translate(1.942 7.78)" fill="#afafbb"/>
          <rect id="Rectangle_8165" data-name="Rectangle 8165" width="1.942" height="1.555" rx="0.297" transform="translate(5.439 7.78)" fill="#afafbb"/>
        </g>
      </g>
    </g>
    <g id="Group_15366" data-name="Group 15366" transform="translate(179.996 218.303)">
      <g id="Group_15359-2" data-name="Group 15359" transform="translate(0.004 0)">
        <rect id="Rectangle_8173-2" data-name="Rectangle 8173" width="16" height="16" transform="translate(0 -0.303)" fill="none"/>
        <g id="Group_15358-2" data-name="Group 15358" transform="translate(2.154 0)">
          <path id="Path_10334-2" data-name="Path 10334" d="M7.919,1.308A2.616,2.616,0,1,1,5.3,3.924,2.619,2.619,0,0,1,7.919,1.308M7.919,0a3.924,3.924,0,1,0,3.924,3.924A3.924,3.924,0,0,0,7.919,0Z" transform="translate(-2.251)" fill="#afafbb"/>
          <path id="Path_10335-2" data-name="Path 10335" d="M7.885,10.2c3,0,4.008.753,4.3,1.085a.216.216,0,0,1,.057.147v2.91a.219.219,0,0,1-.218.219H3.743a.218.218,0,0,1-.218-.219V11.428a.218.218,0,0,1,.056-.146c.3-.332,1.3-1.085,4.3-1.085m0-1.308c-4.372,0-5.4,1.523-5.613,2.023a.7.7,0,0,0-.055.281V15.12a.746.746,0,0,0,.746.746h9.846a.745.745,0,0,0,.746-.746V11.192a.688.688,0,0,0-.055-.281c-.218-.5-1.24-2.023-5.613-2.023Z" transform="translate(-2.217 -0.169)" fill="#afafbb"/>
        </g>
      </g>
    </g>
    <g id="Group_15367" data-name="Group 15367" transform="translate(179.996 254.303)">
      <g id="Group_15359-3" data-name="Group 15359" transform="translate(0.004 0)">
        <rect id="Rectangle_8173-3" data-name="Rectangle 8173" width="16" height="16" transform="translate(0 -0.303)" fill="none"/>
        <g id="Group_15358-3" data-name="Group 15358" transform="translate(2.154 0)">
          <path id="Path_10334-3" data-name="Path 10334" d="M7.919,1.308A2.616,2.616,0,1,1,5.3,3.924,2.619,2.619,0,0,1,7.919,1.308M7.919,0a3.924,3.924,0,1,0,3.924,3.924A3.924,3.924,0,0,0,7.919,0Z" transform="translate(-2.251)" fill="#afafbb"/>
          <path id="Path_10335-3" data-name="Path 10335" d="M7.885,10.2c3,0,4.008.753,4.3,1.085a.216.216,0,0,1,.057.147v2.91a.219.219,0,0,1-.218.219H3.743a.218.218,0,0,1-.218-.219V11.428a.218.218,0,0,1,.056-.146c.3-.332,1.3-1.085,4.3-1.085m0-1.308c-4.372,0-5.4,1.523-5.613,2.023a.7.7,0,0,0-.055.281V15.12a.746.746,0,0,0,.746.746h9.846a.745.745,0,0,0,.746-.746V11.192a.688.688,0,0,0-.055-.281c-.218-.5-1.24-2.023-5.613-2.023Z" transform="translate(-2.217 -0.169)" fill="#afafbb"/>
        </g>
      </g>
    </g>
    <g id="Group_15368" data-name="Group 15368" transform="translate(179.996 290.303)">
      <g id="Group_15359-4" data-name="Group 15359" transform="translate(0.004 0)">
        <rect id="Rectangle_8173-4" data-name="Rectangle 8173" width="16" height="16" transform="translate(0 -0.303)" fill="none"/>
        <g id="Group_15358-4" data-name="Group 15358" transform="translate(2.154 0)">
          <path id="Path_10334-4" data-name="Path 10334" d="M7.919,1.308A2.616,2.616,0,1,1,5.3,3.924,2.619,2.619,0,0,1,7.919,1.308M7.919,0a3.924,3.924,0,1,0,3.924,3.924A3.924,3.924,0,0,0,7.919,0Z" transform="translate(-2.251)" fill="#afafbb"/>
          <path id="Path_10335-4" data-name="Path 10335" d="M7.885,10.2c3,0,4.008.753,4.3,1.085a.216.216,0,0,1,.057.147v2.91a.219.219,0,0,1-.218.219H3.743a.218.218,0,0,1-.218-.219V11.428a.218.218,0,0,1,.056-.146c.3-.332,1.3-1.085,4.3-1.085m0-1.308c-4.372,0-5.4,1.523-5.613,2.023a.7.7,0,0,0-.055.281V15.12a.746.746,0,0,0,.746.746h9.846a.745.745,0,0,0,.746-.746V11.192a.688.688,0,0,0-.055-.281c-.218-.5-1.24-2.023-5.613-2.023Z" transform="translate(-2.217 -0.169)" fill="#afafbb"/>
        </g>
      </g>
    </g>
    <g id="Group_15369" data-name="Group 15369" transform="translate(179.996 362.303)">
      <g id="Group_15359-5" data-name="Group 15359" transform="translate(0.004 0)">
        <rect id="Rectangle_8173-5" data-name="Rectangle 8173" width="16" height="16" transform="translate(0 -0.303)" fill="none"/>
        <g id="Group_15358-5" data-name="Group 15358" transform="translate(2.154 0)">
          <path id="Path_10334-5" data-name="Path 10334" d="M7.919,1.308A2.616,2.616,0,1,1,5.3,3.924,2.619,2.619,0,0,1,7.919,1.308M7.919,0a3.924,3.924,0,1,0,3.924,3.924A3.924,3.924,0,0,0,7.919,0Z" transform="translate(-2.251)" fill="#afafbb"/>
          <path id="Path_10335-5" data-name="Path 10335" d="M7.885,10.2c3,0,4.008.753,4.3,1.085a.216.216,0,0,1,.057.147v2.91a.219.219,0,0,1-.218.219H3.743a.218.218,0,0,1-.218-.219V11.428a.218.218,0,0,1,.056-.146c.3-.332,1.3-1.085,4.3-1.085m0-1.308c-4.372,0-5.4,1.523-5.613,2.023a.7.7,0,0,0-.055.281V15.12a.746.746,0,0,0,.746.746h9.846a.745.745,0,0,0,.746-.746V11.192a.688.688,0,0,0-.055-.281c-.218-.5-1.24-2.023-5.613-2.023Z" transform="translate(-2.217 -0.169)" fill="#afafbb"/>
        </g>
      </g>
    </g>
    <g id="Building-3" data-name="Building" transform="translate(192.208 338.318)">
      <g id="Building-4" data-name="Building" transform="translate(-12.208 -12)">
        <rect id="Rectangle_8159-2" data-name="Rectangle 8159" width="16" height="16" transform="translate(0 -0.317)" fill="none"/>
        <g id="Group_15355-2" data-name="Group 15355" transform="translate(3.341 0)">
          <path id="Path_10332-2" data-name="Path 10332" d="M11.167,14.381H10a.194.194,0,0,1-.194-.194V11.077a.194.194,0,0,0-.194-.194h-3.4a.194.194,0,0,0-.194.194v3.109a.194.194,0,0,1-.194.194H4.66a.194.194,0,0,1-.194-.194V1.36a.194.194,0,0,1,.194-.194h6.507a.194.194,0,0,1,.194.194V14.186a.194.194,0,0,1-.194.194ZM11.847,0H3.98A.68.68,0,0,0,3.3.68V14.866a.68.68,0,0,0,.68.68H6.991a.194.194,0,0,0,.194-.194V12.243a.194.194,0,0,1,.194-.194H8.545a.194.194,0,0,1,.194.194v3.109a.194.194,0,0,0,.194.194h3.011a.68.68,0,0,0,.68-.68V.68A.68.68,0,0,0,11.847,0Z" transform="translate(-3.3 0.007)" fill="#afafbb"/>
          <rect id="Rectangle_8160-2" data-name="Rectangle 8160" width="1.942" height="1.555" rx="0.297" transform="translate(1.942 2.339)" fill="#afafbb"/>
          <rect id="Rectangle_8161-2" data-name="Rectangle 8161" width="1.942" height="1.555" rx="0.297" transform="translate(5.439 2.339)" fill="#afafbb"/>
          <rect id="Rectangle_8162-2" data-name="Rectangle 8162" width="1.942" height="1.555" rx="0.297" transform="translate(1.942 5.06)" fill="#afafbb"/>
          <rect id="Rectangle_8163-2" data-name="Rectangle 8163" width="1.942" height="1.555" rx="0.297" transform="translate(5.439 5.06)" fill="#afafbb"/>
          <rect id="Rectangle_8164-2" data-name="Rectangle 8164" width="1.942" height="1.555" rx="0.297" transform="translate(1.942 7.78)" fill="#afafbb"/>
          <rect id="Rectangle_8165-2" data-name="Rectangle 8165" width="1.942" height="1.555" rx="0.297" transform="translate(5.439 7.78)" fill="#afafbb"/>
        </g>
      </g>
    </g>
    <g id="Building-5" data-name="Building" transform="translate(192.208 410.318)">
      <g id="Building-6" data-name="Building" transform="translate(-12.208 -12)">
        <rect id="Rectangle_8159-3" data-name="Rectangle 8159" width="16" height="16" transform="translate(0 -0.317)" fill="none"/>
        <g id="Group_15355-3" data-name="Group 15355" transform="translate(3.341 0)">
          <path id="Path_10332-3" data-name="Path 10332" d="M11.167,14.381H10a.194.194,0,0,1-.194-.194V11.077a.194.194,0,0,0-.194-.194h-3.4a.194.194,0,0,0-.194.194v3.109a.194.194,0,0,1-.194.194H4.66a.194.194,0,0,1-.194-.194V1.36a.194.194,0,0,1,.194-.194h6.507a.194.194,0,0,1,.194.194V14.186a.194.194,0,0,1-.194.194ZM11.847,0H3.98A.68.68,0,0,0,3.3.68V14.866a.68.68,0,0,0,.68.68H6.991a.194.194,0,0,0,.194-.194V12.243a.194.194,0,0,1,.194-.194H8.545a.194.194,0,0,1,.194.194v3.109a.194.194,0,0,0,.194.194h3.011a.68.68,0,0,0,.68-.68V.68A.68.68,0,0,0,11.847,0Z" transform="translate(-3.3 0.007)" fill="#afafbb"/>
          <rect id="Rectangle_8160-3" data-name="Rectangle 8160" width="1.942" height="1.555" rx="0.297" transform="translate(1.942 2.339)" fill="#afafbb"/>
          <rect id="Rectangle_8161-3" data-name="Rectangle 8161" width="1.942" height="1.555" rx="0.297" transform="translate(5.439 2.339)" fill="#afafbb"/>
          <rect id="Rectangle_8162-3" data-name="Rectangle 8162" width="1.942" height="1.555" rx="0.297" transform="translate(1.942 5.06)" fill="#afafbb"/>
          <rect id="Rectangle_8163-3" data-name="Rectangle 8163" width="1.942" height="1.555" rx="0.297" transform="translate(5.439 5.06)" fill="#afafbb"/>
          <rect id="Rectangle_8164-3" data-name="Rectangle 8164" width="1.942" height="1.555" rx="0.297" transform="translate(1.942 7.78)" fill="#afafbb"/>
          <rect id="Rectangle_8165-3" data-name="Rectangle 8165" width="1.942" height="1.555" rx="0.297" transform="translate(5.439 7.78)" fill="#afafbb"/>
        </g>
      </g>
    </g>
    <text id="Recipients" transform="translate(132 82)" fill="#31313a" font-size="14" font-family="SegoeUI-Semibold, Segoe UI" font-weight="600"><tspan x="0" y="0">Recipients</tspan></text>
    <g id="Group_14579" data-name="Group 14579" transform="translate(132 90)">
      <g id="Rectangle_288" data-name="Rectangle 288" fill="#fff" stroke="#4e92df" stroke-width="2">
        <rect width="300" height="42" rx="4" stroke="none"/>
        <rect x="1" y="1" width="298" height="40" rx="3" fill="none"/>
      </g>
      <g id="Group_7793" data-name="Group 7793" transform="translate(266 9)">
        <rect id="Rectangle_3867" data-name="Rectangle 3867" width="24" height="24" fill="none"/>
        <path id="Path_5558" data-name="Path 5558" d="M56,9.4l-3,3-3-3a.967.967,0,0,0-1.4,0h0a.967.967,0,0,0,0,1.4l3.7,3.7a.967.967,0,0,0,1.4,0l3.7-3.7a.967.967,0,0,0,0-1.4h0A.965.965,0,0,0,56,9.4Z" transform="translate(65 23.9) rotate(180)" fill="#9494a4"/>
      </g>
    </g>
    <text id="Select_a_recipient_s_" data-name="Select a recipient(s)" transform="translate(147 117)" fill="#cbcbd2" font-size="14" font-family="SegoeUI, Segoe UI"><tspan x="0" y="0">Select a recipient(s)</tspan></text>
    <line id="Line_3" data-name="Line 3" y2="19" transform="translate(146.3 104)" fill="none" stroke="#5b5b5b" stroke-miterlimit="10" stroke-width="1"/>
    <rect id="Rectangle_4705" data-name="Rectangle 4705" width="300" height="36" transform="translate(132 173)" fill="none"/>
    <rect id="Rectangle_4706" data-name="Rectangle 4706" width="300" height="36" transform="translate(132 137)" fill="none"/>
    <rect id="Rectangle_4707" data-name="Rectangle 4707" width="300" height="36" transform="translate(132 209)" fill="none"/>
    <rect id="Rectangle_4708" data-name="Rectangle 4708" width="300" height="36" transform="translate(132 245)" fill="none"/>
    <rect id="Rectangle_4709" data-name="Rectangle 4709" width="300" height="36" transform="translate(132 281)" fill="none"/>
    <text id="ABC_Company" data-name="ABC Company" transform="translate(210 159)" fill="#494955" font-size="14" font-family="SegoeUI, Segoe UI"><tspan x="0" y="0">ABC Company</tspan></text>
    <text id="Bryan_Adams" data-name="Bryan Adams" transform="translate(210 195)" fill="#494955" font-size="14" font-family="SegoeUI, Segoe UI"><tspan x="0" y="0">Bryan Adams</tspan></text>
    <text id="Juan_Amado" data-name="Juan Amado" transform="translate(211 231)" fill="#494955" font-size="14" font-family="SegoeUI, Segoe UI"><tspan x="0" y="0">Juan Amado</tspan></text>
    <text id="Chad_Anderson" data-name="Chad Anderson" transform="translate(210 267)" fill="#494955" font-size="14" font-family="SegoeUI, Segoe UI"><tspan x="0" y="0">Chad Anderson</tspan></text>
    <text id="Reannen_Anderson" data-name="Reannen Anderson" transform="translate(210 303)" fill="#494955" font-size="14" font-family="SegoeUI, Segoe UI"><tspan x="0" y="0">Reannen Anderson</tspan></text>
    <rect id="Rectangle_4710" data-name="Rectangle 4710" width="300" height="36" transform="translate(132 317)" fill="none"/>
    <rect id="Rectangle_4711" data-name="Rectangle 4711" width="300" height="36" transform="translate(132 353)" fill="none"/>
    <rect id="Rectangle_4712" data-name="Rectangle 4712" width="300" height="36" transform="translate(132 389)" fill="none"/>
    <text id="BC_Adams_Insurance_Agency" data-name="BC Adams Insurance Agency" transform="translate(210 339)" fill="#494955" font-size="14" font-family="SegoeUI, Segoe UI"><tspan x="0" y="0">BC Adams Insurance Agency</tspan></text>
    <text id="Andy_Cole" data-name="Andy Cole" transform="translate(210 375)" fill="#494955" font-size="14" font-family="SegoeUI, Segoe UI"><tspan x="0" y="0">Andy Cole</tspan></text>
    <text id="FCI_Agency" data-name="FCI Agency" transform="translate(210 411)" fill="#494955" font-size="14" font-family="SegoeUI, Segoe UI"><tspan x="0" y="0">FCI Agency</tspan></text>
    <rect id="Rectangle_4792" data-name="Rectangle 4792" width="24" height="24" transform="translate(142 143)" fill="none"/>
    <rect id="Rectangle_4793" data-name="Rectangle 4793" width="24" height="24" transform="translate(142 179)" fill="none"/>
    <rect id="Rectangle_4794" data-name="Rectangle 4794" width="24" height="24" transform="translate(142 215)" fill="none"/>
    <rect id="Rectangle_4795" data-name="Rectangle 4795" width="24" height="24" transform="translate(142 251)" fill="none"/>
    <rect id="Rectangle_4796" data-name="Rectangle 4796" width="24" height="24" transform="translate(142 287)" fill="none"/>
    <rect id="Rectangle_4797" data-name="Rectangle 4797" width="24" height="24" transform="translate(142 323)" fill="none"/>
    <rect id="Rectangle_4798" data-name="Rectangle 4798" width="24" height="24" transform="translate(142 359)" fill="none"/>
    <rect id="Rectangle_4799" data-name="Rectangle 4799" width="24" height="24" transform="translate(142 395)" fill="none"/>
    <path id="Path_6246" data-name="Path 6246" d="M17.5,2a.472.472,0,0,1,.5.5v15a.472.472,0,0,1-.5.5H2.5a.472.472,0,0,1-.5-.5V2.5A.472.472,0,0,1,2.5,2h15m0-2H2.5A2.476,2.476,0,0,0,0,2.5v15A2.476,2.476,0,0,0,2.5,20h15A2.476,2.476,0,0,0,20,17.5V2.5A2.476,2.476,0,0,0,17.5,0Z" transform="translate(144 145)" fill="#9494a4"/>
    <path id="Path_6247" data-name="Path 6247" d="M17.5,2a.472.472,0,0,1,.5.5v15a.472.472,0,0,1-.5.5H2.5a.472.472,0,0,1-.5-.5V2.5A.472.472,0,0,1,2.5,2h15m0-2H2.5A2.476,2.476,0,0,0,0,2.5v15A2.476,2.476,0,0,0,2.5,20h15A2.476,2.476,0,0,0,20,17.5V2.5A2.476,2.476,0,0,0,17.5,0Z" transform="translate(144 181)" fill="#9494a4"/>
    <path id="Path_6248" data-name="Path 6248" d="M17.5,2a.472.472,0,0,1,.5.5v15a.472.472,0,0,1-.5.5H2.5a.472.472,0,0,1-.5-.5V2.5A.472.472,0,0,1,2.5,2h15m0-2H2.5A2.476,2.476,0,0,0,0,2.5v15A2.476,2.476,0,0,0,2.5,20h15A2.476,2.476,0,0,0,20,17.5V2.5A2.476,2.476,0,0,0,17.5,0Z" transform="translate(144 217)" fill="#9494a4"/>
    <path id="Path_6249" data-name="Path 6249" d="M17.5,2a.472.472,0,0,1,.5.5v15a.472.472,0,0,1-.5.5H2.5a.472.472,0,0,1-.5-.5V2.5A.472.472,0,0,1,2.5,2h15m0-2H2.5A2.476,2.476,0,0,0,0,2.5v15A2.476,2.476,0,0,0,2.5,20h15A2.476,2.476,0,0,0,20,17.5V2.5A2.476,2.476,0,0,0,17.5,0Z" transform="translate(144 253)" fill="#9494a4"/>
    <path id="Path_6250" data-name="Path 6250" d="M17.5,2a.472.472,0,0,1,.5.5v15a.472.472,0,0,1-.5.5H2.5a.472.472,0,0,1-.5-.5V2.5A.472.472,0,0,1,2.5,2h15m0-2H2.5A2.476,2.476,0,0,0,0,2.5v15A2.476,2.476,0,0,0,2.5,20h15A2.476,2.476,0,0,0,20,17.5V2.5A2.476,2.476,0,0,0,17.5,0Z" transform="translate(144 289)" fill="#9494a4"/>
    <path id="Path_6251" data-name="Path 6251" d="M17.5,2a.472.472,0,0,1,.5.5v15a.472.472,0,0,1-.5.5H2.5a.472.472,0,0,1-.5-.5V2.5A.472.472,0,0,1,2.5,2h15m0-2H2.5A2.476,2.476,0,0,0,0,2.5v15A2.476,2.476,0,0,0,2.5,20h15A2.476,2.476,0,0,0,20,17.5V2.5A2.476,2.476,0,0,0,17.5,0Z" transform="translate(144 325)" fill="#9494a4"/>
    <path id="Path_6252" data-name="Path 6252" d="M17.5,2a.472.472,0,0,1,.5.5v15a.472.472,0,0,1-.5.5H2.5a.472.472,0,0,1-.5-.5V2.5A.472.472,0,0,1,2.5,2h15m0-2H2.5A2.476,2.476,0,0,0,0,2.5v15A2.476,2.476,0,0,0,2.5,20h15A2.476,2.476,0,0,0,20,17.5V2.5A2.476,2.476,0,0,0,17.5,0Z" transform="translate(144 361)" fill="#9494a4"/>
    <path id="Path_6253" data-name="Path 6253" d="M17.5,2a.472.472,0,0,1,.5.5v15a.472.472,0,0,1-.5.5H2.5a.472.472,0,0,1-.5-.5V2.5A.472.472,0,0,1,2.5,2h15m0-2H2.5A2.476,2.476,0,0,0,0,2.5v15A2.476,2.476,0,0,0,2.5,20h15A2.476,2.476,0,0,0,20,17.5V2.5A2.476,2.476,0,0,0,17.5,0Z" transform="translate(144 397)" fill="#9494a4"/>
    <rect id="Rectangle_4801" data-name="Rectangle 4801" width="5" height="100" rx="2.5" transform="translate(422 137)" fill="#78788c"/>
  </g>
</svg>
