<svg xmlns="http://www.w3.org/2000/svg" xmlns:xlink="http://www.w3.org/1999/xlink" width="750" height="516" viewBox="0 0 750 516">
  <defs>
    <filter id="Rectangle_4576" x="166" y="127" width="418" height="316" filterUnits="userSpaceOnUse">
      <feOffset dy="3" input="SourceAlpha"/>
      <feGaussianBlur stdDeviation="3" result="blur"/>
      <feFlood flood-opacity="0.161"/>
      <feComposite operator="in" in2="blur"/>
      <feComposite in="SourceGraphic"/>
    </filter>
    <clipPath id="clip-path">
      <rect width="24" height="24" fill="none"/>
    </clipPath>
    <clipPath id="clip-multi_select_label">
      <rect width="750" height="516"/>
    </clipPath>
  </defs>
  <g id="multi_select_label" clip-path="url(#clip-multi_select_label)">
    <rect width="750" height="516" fill="#fff"/>
    <g transform="matrix(1, 0, 0, 1, 0, 0)" filter="url(#Rectangle_4576)">
      <rect id="Rectangle_4576-2" data-name="Rectangle 4576" width="400" height="298" rx="4" transform="translate(175 133)" fill="#fff"/>
    </g>
    <text id="Florida" transform="translate(220 414)" fill="#afafbb" font-size="14" font-family="SegoeUI, Segoe UI"><tspan x="0" y="0">Florida</tspan></text>
    <g id="Rectangle_4574" data-name="Rectangle 4574" transform="translate(175 91)" fill="#fff" stroke="#4e92df" stroke-width="2">
      <rect width="400" height="42" rx="4" stroke="none"/>
      <rect x="1" y="1" width="398" height="40" rx="3" fill="none"/>
    </g>
    <path id="Path_10246" data-name="Path 10246" d="M42.7,0h-15a2.476,2.476,0,0,0-2.5,2.5v15A2.476,2.476,0,0,0,27.7,20h15a2.476,2.476,0,0,0,2.5-2.5V2.5A2.476,2.476,0,0,0,42.7,0ZM41.4,7.1l-7.3,7.3a.967.967,0,0,1-1.4,0l-3.6-3.6a.99.99,0,0,1,1.4-1.4l2.9,2.9L40,5.7a.967.967,0,0,1,1.4,0A1.2,1.2,0,0,1,41.4,7.1Z" transform="translate(161.8 182)" fill="#2777d3"/>
    <line id="Line_15" data-name="Line 15" y2="19" transform="translate(286.3 103)" fill="none" stroke="#494955" stroke-miterlimit="10" stroke-width="1"/>
    <g id="Group_14781" data-name="Group 14781" transform="translate(-3076 -248)">
      <rect id="Rectangle_8132" data-name="Rectangle 8132" width="91" height="24" rx="2" transform="translate(3266 348)" fill="#eaeaea"/>
      <g id="Remove" transform="translate(3347 363)">
        <g id="Remove-2" data-name="Remove" transform="translate(-8 -8)">
          <path id="Path_10244" data-name="Path 10244" d="M9.933,8.934a.25.25,0,0,1,0,.312l-.624.624a.25.25,0,0,1-.312,0L5,6,1.066,9.933a.25.25,0,0,1-.312,0L.129,9.309A.25.25,0,0,1,.129,9L4,5,.067,1.066a.25.25,0,0,1,0-.312L.691.129A.25.25,0,0,1,1,.129L5,4,8.934.067a.25.25,0,0,1,.312,0l.624.624a.25.25,0,0,1,0,.312L6,5Z" transform="translate(-2 0)" fill="#b2b2b2"/>
          <rect id="Rectangle_8133" data-name="Rectangle 8133" width="10" height="10" transform="translate(-2)" fill="none"/>
        </g>
      </g>
      <text id="Alabama" transform="translate(3273 365)" fill="#31313a" font-size="14" font-family="SegoeUI, Segoe UI"><tspan x="0" y="0">Alabama</tspan></text>
    </g>
    <text id="State" transform="translate(175 82)" fill="#31313a" font-size="14" font-family="SegoeUI-Semibold, Segoe UI" font-weight="600"><tspan x="0" y="0">State</tspan></text>
    <g id="Group_3" data-name="Group 3" transform="translate(-275 -1607)">
      <rect id="Rectangle_3867" data-name="Rectangle 3867" width="24" height="24" transform="translate(816 1707)" fill="none" stroke="#e91e63" stroke-width="1"/>
      <path id="Path_5558" data-name="Path 5558" d="M56,9.4l-3,3-3-3a.967.967,0,0,0-1.4,0h0a.967.967,0,0,0,0,1.4l3.7,3.7a.967.967,0,0,0,1.4,0l3.7-3.7a.967.967,0,0,0,0-1.4h0A.965.965,0,0,0,56,9.4Z" transform="translate(881 1730.9) rotate(180)" fill="#9494a4"/>
    </g>
    <rect id="Rectangle_4580" data-name="Rectangle 4580" width="400" height="36" transform="translate(175 174)" fill="none"/>
    <rect id="Rectangle_4582" data-name="Rectangle 4582" width="400" height="36" transform="translate(175 246)" fill="none"/>
    <path id="Path_6475" data-name="Path 6475" d="M0,0H400V36H0Z" transform="translate(175 318)" fill="none"/>
    <rect id="Rectangle_4586" data-name="Rectangle 4586" width="400" height="36" transform="translate(175 390)" fill="none"/>
    <rect id="Rectangle_4579" data-name="Rectangle 4579" width="400" height="36" transform="translate(175 138)" fill="none"/>
    <rect id="Rectangle_4581" data-name="Rectangle 4581" width="400" height="36" transform="translate(175 210)" fill="none"/>
    <path id="Path_6474" data-name="Path 6474" d="M0,0H400V36H0Z" transform="translate(175 282)" fill="none"/>
    <rect id="Rectangle_4585" data-name="Rectangle 4585" width="400" height="36" transform="translate(175 354)" fill="none"/>
    <text id="Alaska" transform="translate(220 162)" fill="#494955" font-size="14" font-family="SegoeUI, Segoe UI"><tspan x="0" y="0">Alaska</tspan></text>
    <text id="California" transform="translate(220 270)" fill="#494955" font-size="14" font-family="SegoeUI, Segoe UI"><tspan x="0" y="0">California</tspan></text>
    <text id="Alabama-2" data-name="Alabama" transform="translate(220 198)" fill="#494955" font-size="14" font-family="SegoeUI-Semibold, Segoe UI" font-weight="600"><tspan x="0" y="0">Alabama</tspan></text>
    <text id="Colorado" transform="translate(220 306)" fill="#494955" font-size="14" font-family="SegoeUI, Segoe UI"><tspan x="0" y="0">Colorado</tspan></text>
    <text id="Arizona" transform="translate(220 234)" fill="#494955" font-size="14" font-family="SegoeUI, Segoe UI"><tspan x="0" y="0">Arizona</tspan></text>
    <text id="Connecticut" transform="translate(220 342)" fill="#494955" font-size="14" font-family="SegoeUI, Segoe UI"><tspan x="0" y="0">Connecticut</tspan></text>
    <text id="Delaware" transform="translate(220 378)" fill="#494955" font-size="14" font-family="SegoeUI, Segoe UI"><tspan x="0" y="0">Delaware</tspan></text>
    <rect id="Rectangle_4588" data-name="Rectangle 4588" width="5" height="100" rx="2.5" transform="translate(565 138)" fill="#78788c"/>
    <text id="_20" data-name="20" transform="translate(152 81)" fill="#e91e63" font-size="11" font-family="OpenSans-Regular, Open Sans"><tspan x="-27.521" y="0">Label</tspan></text>
    <text id="_20-2" data-name="20" transform="translate(152 117)" fill="#e91e63" font-size="11" font-family="OpenSans-Regular, Open Sans"><tspan x="-46.46" y="0">Selection</tspan></text>
    <text id="_20-3" data-name="20" transform="translate(388 65)" fill="#e91e63" font-size="11" font-family="OpenSans-Regular, Open Sans"><tspan x="-27.194" y="0">Input</tspan></text>
    <text id="_20-4" data-name="20" transform="translate(598 116)" fill="#e91e63" font-size="11" font-family="OpenSans-Regular, Open Sans"><tspan x="0" y="0">Dropdown chevron</tspan></text>
    <text id="_20-5" data-name="20" transform="translate(598 192)" fill="#e91e63" font-size="11" font-family="OpenSans-Regular, Open Sans"><tspan x="0" y="0">Scrollbar</tspan></text>
    <text id="_20-6" data-name="20" transform="translate(152 286)" fill="#e91e63" font-size="11" font-family="OpenSans-Regular, Open Sans"><tspan x="-58.169" y="0">Options list</tspan></text>
    <text id="_20-7" data-name="20" transform="translate(152 375)" fill="#e91e63" font-size="11" font-family="OpenSans-Regular, Open Sans"><tspan x="-86.544" y="0">Option checkbox</tspan></text>
    <text id="_20-8" data-name="20" transform="translate(152 197)" fill="#e91e63" font-size="11" font-family="OpenSans-Regular, Open Sans"><tspan x="-79.498" y="0">Selected option</tspan></text>
    <text id="_20-9" data-name="20" transform="translate(152 341)" fill="#e91e63" font-size="11" font-family="OpenSans-Regular, Open Sans"><tspan x="-35.369" y="0">Option</tspan></text>
    <rect id="Rectangle_138" data-name="Rectangle 138" width="15" height="1" transform="translate(171 77) rotate(180)" fill="#e91e63"/>
    <rect id="Rectangle_138-2" data-name="Rectangle 138" width="33" height="1" transform="translate(156 112)" fill="#e91e63"/>
    <rect id="Rectangle_138-3" data-name="Rectangle 138" width="19" height="1" transform="translate(375 72) rotate(90)" fill="#e91e63"/>
    <rect id="Rectangle_138-4" data-name="Rectangle 138" width="29" height="1" transform="translate(565 111)" fill="#e91e63"/>
    <rect id="Rectangle_138-5" data-name="Rectangle 138" width="25" height="1" transform="translate(569 187)" fill="#e91e63"/>
    <rect id="Rectangle_138-6" data-name="Rectangle 138" width="19" height="0.731" transform="translate(156 281)" fill="#e91e63"/>
    <path id="Rectangle_138-7" data-name="Rectangle 138" d="M0,0H26V1H0Z" transform="translate(156 370)" fill="#e91e63"/>
    <rect id="Rectangle_138-8" data-name="Rectangle 138" width="31" height="1" transform="translate(156 192)" fill="#e91e63"/>
    <rect id="Rectangle_138-9" data-name="Rectangle 138" width="31" height="1" transform="translate(156 336)" fill="#e91e63"/>
    <g id="Component_2_25" data-name="Component 2 – 25" transform="translate(185 144)" clip-path="url(#clip-path)">
      <rect id="Rectangle_4469" data-name="Rectangle 4469" width="24" height="24" fill="none"/>
      <path id="Path_5842" data-name="Path 5842" d="M17.5,2a.472.472,0,0,1,.5.5v15a.472.472,0,0,1-.5.5H2.5a.472.472,0,0,1-.5-.5V2.5A.472.472,0,0,1,2.5,2h15m0-2H2.5A2.476,2.476,0,0,0,0,2.5v15A2.476,2.476,0,0,0,2.5,20h15A2.476,2.476,0,0,0,20,17.5V2.5A2.476,2.476,0,0,0,17.5,0Z" transform="translate(2 2)" fill="#9494a4"/>
    </g>
    <g id="Component_2_27" data-name="Component 2 – 27" transform="translate(185 216)" clip-path="url(#clip-path)">
      <rect id="Rectangle_4469-2" data-name="Rectangle 4469" width="24" height="24" fill="none"/>
      <path id="Path_5842-2" data-name="Path 5842" d="M17.5,2a.472.472,0,0,1,.5.5v15a.472.472,0,0,1-.5.5H2.5a.472.472,0,0,1-.5-.5V2.5A.472.472,0,0,1,2.5,2h15m0-2H2.5A2.476,2.476,0,0,0,0,2.5v15A2.476,2.476,0,0,0,2.5,20h15A2.476,2.476,0,0,0,20,17.5V2.5A2.476,2.476,0,0,0,17.5,0Z" transform="translate(2 2)" fill="#9494a4"/>
    </g>
    <g id="Component_2_28" data-name="Component 2 – 28" transform="translate(185 252)" clip-path="url(#clip-path)">
      <rect id="Rectangle_4469-3" data-name="Rectangle 4469" width="24" height="24" fill="none"/>
      <path id="Path_5842-3" data-name="Path 5842" d="M17.5,2a.472.472,0,0,1,.5.5v15a.472.472,0,0,1-.5.5H2.5a.472.472,0,0,1-.5-.5V2.5A.472.472,0,0,1,2.5,2h15m0-2H2.5A2.476,2.476,0,0,0,0,2.5v15A2.476,2.476,0,0,0,2.5,20h15A2.476,2.476,0,0,0,20,17.5V2.5A2.476,2.476,0,0,0,17.5,0Z" transform="translate(2 2)" fill="#9494a4"/>
    </g>
    <g id="Component_2_29" data-name="Component 2 – 29" transform="translate(185 288)" clip-path="url(#clip-path)">
      <rect id="Rectangle_4469-4" data-name="Rectangle 4469" width="24" height="24" fill="none"/>
      <path id="Path_5842-4" data-name="Path 5842" d="M17.5,2a.472.472,0,0,1,.5.5v15a.472.472,0,0,1-.5.5H2.5a.472.472,0,0,1-.5-.5V2.5A.472.472,0,0,1,2.5,2h15m0-2H2.5A2.476,2.476,0,0,0,0,2.5v15A2.476,2.476,0,0,0,2.5,20h15A2.476,2.476,0,0,0,20,17.5V2.5A2.476,2.476,0,0,0,17.5,0Z" transform="translate(2 2)" fill="#9494a4"/>
    </g>
    <g id="Component_2_30" data-name="Component 2 – 30" transform="translate(185 324)" clip-path="url(#clip-path)">
      <rect id="Rectangle_4469-5" data-name="Rectangle 4469" width="24" height="24" fill="none"/>
      <path id="Path_5842-5" data-name="Path 5842" d="M17.5,2a.472.472,0,0,1,.5.5v15a.472.472,0,0,1-.5.5H2.5a.472.472,0,0,1-.5-.5V2.5A.472.472,0,0,1,2.5,2h15m0-2H2.5A2.476,2.476,0,0,0,0,2.5v15A2.476,2.476,0,0,0,2.5,20h15A2.476,2.476,0,0,0,20,17.5V2.5A2.476,2.476,0,0,0,17.5,0Z" transform="translate(2 2)" fill="#9494a4"/>
    </g>
    <g id="Component_2_31" data-name="Component 2 – 31" transform="translate(185 360)" clip-path="url(#clip-path)">
      <rect id="Rectangle_4469-6" data-name="Rectangle 4469" width="24" height="24" fill="none"/>
      <path id="Path_5842-6" data-name="Path 5842" d="M17.5,2a.472.472,0,0,1,.5.5v15a.472.472,0,0,1-.5.5H2.5a.472.472,0,0,1-.5-.5V2.5A.472.472,0,0,1,2.5,2h15m0-2H2.5A2.476,2.476,0,0,0,0,2.5v15A2.476,2.476,0,0,0,2.5,20h15A2.476,2.476,0,0,0,20,17.5V2.5A2.476,2.476,0,0,0,17.5,0Z" transform="translate(2 2)" fill="#9494a4"/>
    </g>
    <path id="Path_5842-7" data-name="Path 5842" d="M17.5,2a.472.472,0,0,1,.5.5v15a.472.472,0,0,1-.5.5H2.5a.472.472,0,0,1-.5-.5V2.5A.472.472,0,0,1,2.5,2h15m0-2H2.5A2.476,2.476,0,0,0,0,2.5v15A2.476,2.476,0,0,0,2.5,20h15A2.476,2.476,0,0,0,20,17.5V2.5A2.476,2.476,0,0,0,17.5,0Z" transform="translate(187 398)" fill="#e6e6ea"/>
    <text id="_20-10" data-name="20" transform="translate(152 413)" fill="#e91e63" font-size="11" font-family="OpenSans-Regular, Open Sans"><tspan x="-44.602" y="0">Disabled</tspan></text>
    <path id="Rectangle_138-10" data-name="Rectangle 138" d="M0,0H31V1.192H0Z" transform="translate(156 407.904)" fill="#e91e63"/>
  </g>
</svg>
