<svg xmlns="http://www.w3.org/2000/svg" xmlns:xlink="http://www.w3.org/1999/xlink" width="564" height="535" viewBox="0 0 564 535">
  <defs>
    <filter id="Rectangle_4683" x="123" y="126" width="318" height="300" filterUnits="userSpaceOnUse">
      <feOffset dy="3" input="SourceAlpha"/>
      <feGaussianBlur stdDeviation="3" result="blur"/>
      <feFlood flood-opacity="0.161"/>
      <feComposite operator="in" in2="blur"/>
      <feComposite in="SourceGraphic"/>
    </filter>
    <clipPath id="clip-multiselect_grouping_specs">
      <rect width="564" height="535"/>
    </clipPath>
  </defs>
  <g id="multiselect_grouping_specs" clip-path="url(#clip-multiselect_grouping_specs)">
    <rect width="564" height="535" fill="#fff"/>
    <text id="State" transform="translate(132 82)" fill="#31313a" font-size="14" font-family="SegoeUI-Semibold, Segoe UI" font-weight="600"><tspan x="0" y="0">State</tspan></text>
    <g id="Group_14579" data-name="Group 14579" transform="translate(132 90)">
      <g id="Rectangle_288" data-name="Rectangle 288" fill="#fff" stroke="#4e92df" stroke-width="2">
        <rect width="300" height="42" rx="4" stroke="none"/>
        <rect x="1" y="1" width="298" height="40" rx="3" fill="none"/>
      </g>
      <g id="Group_7793" data-name="Group 7793" transform="translate(266 9)">
        <rect id="Rectangle_3867" data-name="Rectangle 3867" width="24" height="24" fill="none"/>
        <path id="Path_5558" data-name="Path 5558" d="M56,9.4l-3,3-3-3a.967.967,0,0,0-1.4,0h0a.967.967,0,0,0,0,1.4l3.7,3.7a.967.967,0,0,0,1.4,0l3.7-3.7a.967.967,0,0,0,0-1.4h0A.965.965,0,0,0,56,9.4Z" transform="translate(65 23.9) rotate(180)" fill="#9494a4"/>
      </g>
    </g>
    <text id="Select_state" data-name="Select state" transform="translate(147 117)" fill="#cbcbd2" font-size="14" font-family="SegoeUI, Segoe UI"><tspan x="0" y="0">Select state</tspan></text>
    <line id="Line_17" data-name="Line 17" y2="19" transform="translate(146.3 104)" fill="none" stroke="#5b5b5b" stroke-miterlimit="10" stroke-width="1"/>
    <g transform="matrix(1, 0, 0, 1, 0, 0)" filter="url(#Rectangle_4683)">
      <rect id="Rectangle_4683-2" data-name="Rectangle 4683" width="300" height="282" rx="4" transform="translate(132 132)" fill="#fff"/>
    </g>
    <rect id="Rectangle_4684" data-name="Rectangle 4684" width="300" height="36" transform="translate(132 167)" fill="none"/>
    <rect id="Rectangle_4685" data-name="Rectangle 4685" width="300" height="36" transform="translate(132 239)" fill="none"/>
    <rect id="Rectangle_4686" data-name="Rectangle 4686" width="300" height="36" transform="translate(132 311)" fill="none"/>
    <rect id="Rectangle_4687" data-name="Rectangle 4687" width="300" height="36" transform="translate(132 374)" fill="none"/>
    <rect id="Rectangle_4689" data-name="Rectangle 4689" width="300" height="36" transform="translate(132 203)" fill="none"/>
    <rect id="Rectangle_4690" data-name="Rectangle 4690" width="300" height="36" transform="translate(132 275)" fill="none"/>
    <text id="Nevada" transform="translate(177 261)" fill="#494955" font-size="14" font-family="SegoeUI, Segoe UI"><tspan x="0" y="0">Nevada</tspan></text>
    <text id="California" transform="translate(177 189)" fill="#494955" font-size="14" font-family="SegoeUI, Segoe UI"><tspan x="0" y="0">California</tspan></text>
    <text id="Oregon" transform="translate(177 297)" fill="#494955" font-size="14" font-family="SegoeUI, Segoe UI"><tspan x="0" y="0">Oregon</tspan></text>
    <text id="Idaho" transform="translate(177 225)" fill="#494955" font-size="14" font-family="SegoeUI, Segoe UI"><tspan x="0" y="0">Idaho</tspan></text>
    <text id="Washington" transform="translate(177 333)" fill="#494955" font-size="14" font-family="SegoeUI, Segoe UI"><tspan x="0" y="0">Washington</tspan></text>
    <text id="MOUNTAIN" transform="translate(140 366)" fill="#cbcbd2" font-size="12" font-family="SegoeUI-Bold, Segoe UI" font-weight="700"><tspan x="0" y="0">MOUNTAIN</tspan></text>
    <text id="Arizona" transform="translate(177 396)" fill="#494955" font-size="14" font-family="SegoeUI, Segoe UI"><tspan x="0" y="0">Arizona</tspan></text>
    <rect id="Rectangle_4691" data-name="Rectangle 4691" width="5" height="100" rx="2.5" transform="translate(422 137)" fill="#78788c"/>
    <text id="PACIFIC" transform="translate(140 159)" fill="#cbcbd2" font-size="12" font-family="SegoeUI-Bold, Segoe UI" font-weight="700"><tspan x="0" y="0">PACIFIC</tspan></text>
    <rect id="Rectangle_4756" data-name="Rectangle 4756" width="24" height="24" transform="translate(142 209)" fill="none"/>
    <rect id="Rectangle_4757" data-name="Rectangle 4757" width="24" height="24" transform="translate(142 173)" fill="none"/>
    <rect id="Rectangle_4758" data-name="Rectangle 4758" width="24" height="24" transform="translate(142 245)" fill="none"/>
    <rect id="Rectangle_4759" data-name="Rectangle 4759" width="24" height="24" transform="translate(142 281)" fill="none"/>
    <path id="Path_6472" data-name="Path 6472" d="M0,0H24V24H0Z" transform="translate(142 317)" fill="none"/>
    <path id="Path_6471" data-name="Path 6471" d="M0,0H24V24H0Z" transform="translate(142 380)" fill="none"/>
    <path id="Path_6227" data-name="Path 6227" d="M17.5,2a.472.472,0,0,1,.5.5v15a.472.472,0,0,1-.5.5H2.5a.472.472,0,0,1-.5-.5V2.5A.472.472,0,0,1,2.5,2h15m0-2H2.5A2.476,2.476,0,0,0,0,2.5v15A2.476,2.476,0,0,0,2.5,20h15A2.476,2.476,0,0,0,20,17.5V2.5A2.476,2.476,0,0,0,17.5,0Z" transform="translate(144 211)" fill="#9494a4"/>
    <path id="Path_6228" data-name="Path 6228" d="M17.5,2a.472.472,0,0,1,.5.5v15a.472.472,0,0,1-.5.5H2.5a.472.472,0,0,1-.5-.5V2.5A.472.472,0,0,1,2.5,2h15m0-2H2.5A2.476,2.476,0,0,0,0,2.5v15A2.476,2.476,0,0,0,2.5,20h15A2.476,2.476,0,0,0,20,17.5V2.5A2.476,2.476,0,0,0,17.5,0Z" transform="translate(144 175)" fill="#9494a4"/>
    <path id="Path_6229" data-name="Path 6229" d="M17.5,2a.472.472,0,0,1,.5.5v15a.472.472,0,0,1-.5.5H2.5a.472.472,0,0,1-.5-.5V2.5A.472.472,0,0,1,2.5,2h15m0-2H2.5A2.476,2.476,0,0,0,0,2.5v15A2.476,2.476,0,0,0,2.5,20h15A2.476,2.476,0,0,0,20,17.5V2.5A2.476,2.476,0,0,0,17.5,0Z" transform="translate(144 247)" fill="#9494a4"/>
    <path id="Path_6230" data-name="Path 6230" d="M17.5,2a.472.472,0,0,1,.5.5v15a.472.472,0,0,1-.5.5H2.5a.472.472,0,0,1-.5-.5V2.5A.472.472,0,0,1,2.5,2h15m0-2H2.5A2.476,2.476,0,0,0,0,2.5v15A2.476,2.476,0,0,0,2.5,20h15A2.476,2.476,0,0,0,20,17.5V2.5A2.476,2.476,0,0,0,17.5,0Z" transform="translate(144 283)" fill="#9494a4"/>
    <path id="Path_6231" data-name="Path 6231" d="M17.5,2a.472.472,0,0,1,.5.5v15a.472.472,0,0,1-.5.5H2.5a.472.472,0,0,1-.5-.5V2.5A.472.472,0,0,1,2.5,2h15m0-2H2.5A2.476,2.476,0,0,0,0,2.5v15A2.476,2.476,0,0,0,2.5,20h15A2.476,2.476,0,0,0,20,17.5V2.5A2.476,2.476,0,0,0,17.5,0Z" transform="translate(144 319)" fill="#9494a4"/>
    <path id="Path_6232" data-name="Path 6232" d="M17.5,2a.472.472,0,0,1,.5.5v15a.472.472,0,0,1-.5.5H2.5a.472.472,0,0,1-.5-.5V2.5A.472.472,0,0,1,2.5,2h15m0-2H2.5A2.476,2.476,0,0,0,0,2.5v15A2.476,2.476,0,0,0,2.5,20h15A2.476,2.476,0,0,0,20,17.5V2.5A2.476,2.476,0,0,0,17.5,0Z" transform="translate(144 382)" fill="#9494a4"/>
  </g>
</svg>
