<svg xmlns="http://www.w3.org/2000/svg" xmlns:xlink="http://www.w3.org/1999/xlink" width="564" height="964" viewBox="0 0 564 964">
  <defs>
    <filter id="Rectangle_8136" x="123" y="426" width="318" height="95" filterUnits="userSpaceOnUse">
      <feOffset dy="3" input="SourceAlpha"/>
      <feGaussianBlur stdDeviation="3" result="blur"/>
      <feFlood flood-opacity="0.161"/>
      <feComposite operator="in" in2="blur"/>
      <feComposite in="SourceGraphic"/>
    </filter>
    <linearGradient id="linear-gradient" x1="0.447" y1="0.695" x2="0.447" gradientUnits="objectBoundingBox">
      <stop offset="0" stop-color="#fff"/>
      <stop offset="1" stop-color="#fff" stop-opacity="0"/>
    </linearGradient>
    <clipPath id="clip-multiselect_states">
      <rect width="564" height="964"/>
    </clipPath>
  </defs>
  <g id="multiselect_states" clip-path="url(#clip-multiselect_states)">
    <rect width="564" height="964" fill="#fff"/>
    <g id="Dropdown_input_-_top_label" data-name="Dropdown input - top label" transform="translate(132 739)">
      <g id="Group_14579" data-name="Group 14579">
        <g id="Rectangle_288" data-name="Rectangle 288" transform="translate(0 23)" fill="#fff" stroke="#cbcbd2" stroke-width="1">
          <rect width="300" height="42" rx="4" stroke="none"/>
          <rect x="0.5" y="0.5" width="299" height="41" rx="3.5" fill="none"/>
        </g>
        <text id="Hint_text" data-name="Hint text" transform="translate(15 50)" fill="#cbcbd2" font-size="14" font-family="SegoeUI, Segoe UI"><tspan x="0" y="0">Hint text</tspan></text>
        <g id="Group_7793" data-name="Group 7793" transform="translate(-550 -1675)">
          <rect id="Rectangle_3867" data-name="Rectangle 3867" width="24" height="24" transform="translate(816 1707)" fill="none"/>
          <path id="Path_5558" data-name="Path 5558" d="M56,9.4l-3,3-3-3a.967.967,0,0,0-1.4,0h0a.967.967,0,0,0,0,1.4l3.7,3.7a.967.967,0,0,0,1.4,0l3.7-3.7a.967.967,0,0,0,0-1.4h0A.965.965,0,0,0,56,9.4Z" transform="translate(775 1707)" fill="#9494a4"/>
        </g>
      </g>
      <text id="State" transform="translate(0 15)" fill="#31313a" font-size="14" font-family="SegoeUI-Semibold, Segoe UI" font-weight="600"><tspan x="0" y="0">State</tspan></text>
      <g id="Rectangle_8097" data-name="Rectangle 8097" transform="translate(0 23)" fill="#e6e6ea" stroke="#cbcbd2" stroke-width="1">
        <rect width="300" height="42" rx="4" stroke="none"/>
        <rect x="0.5" y="0.5" width="299" height="41" rx="3.5" fill="none"/>
      </g>
      <text id="Select_state" data-name="Select state" transform="translate(15 50)" fill="#afafbb" font-size="14" font-family="SegoeUI, Segoe UI"><tspan x="0" y="0">Select state</tspan></text>
      <g id="Group_14549" data-name="Group 14549" transform="translate(-550 -1675)">
        <rect id="Rectangle_3867-2" data-name="Rectangle 3867" width="24" height="24" transform="translate(816 1707)" fill="none"/>
        <path id="Path_5558-2" data-name="Path 5558" d="M56,9.4l-3,3-3-3a.967.967,0,0,0-1.4,0h0a.967.967,0,0,0,0,1.4l3.7,3.7a.967.967,0,0,0,1.4,0l3.7-3.7a.967.967,0,0,0,0-1.4h0A.965.965,0,0,0,56,9.4Z" transform="translate(775 1707)" fill="#afafbb"/>
      </g>
    </g>
    <g id="Group_14915" data-name="Group 14915" transform="translate(-123 329)">
      <g id="Group_14585" data-name="Group 14585" transform="translate(-2984 136)">
        <g id="Dropdown_input_-_top_label-2" data-name="Dropdown input - top label" transform="translate(3239 174)">
          <g id="Group_14579-2" data-name="Group 14579">
            <g id="Rectangle_288-2" data-name="Rectangle 288" transform="translate(0 23)" fill="#fff" stroke="#cbcbd2" stroke-width="1">
              <rect width="300" height="42" rx="4" stroke="none"/>
              <rect x="0.5" y="0.5" width="299" height="41" rx="3.5" fill="none"/>
            </g>
            <g id="Group_7793-2" data-name="Group 7793" transform="translate(-550 -1675)">
              <rect id="Rectangle_3867-3" data-name="Rectangle 3867" width="24" height="24" transform="translate(816 1707)" fill="none"/>
              <path id="Path_5558-3" data-name="Path 5558" d="M56,9.4l-3,3-3-3a.967.967,0,0,0-1.4,0h0a.967.967,0,0,0,0,1.4l3.7,3.7a.967.967,0,0,0,1.4,0l3.7-3.7a.967.967,0,0,0,0-1.4h0A.965.965,0,0,0,56,9.4Z" transform="translate(775 1707)" fill="#9494a4"/>
            </g>
          </g>
          <text id="State-2" data-name="State" transform="translate(0 15)" fill="#31313a" font-size="14" font-family="SegoeUI-Semibold, Segoe UI" font-weight="600"><tspan x="0" y="0">State</tspan></text>
        </g>
        <g id="Group_14726" data-name="Group 14726" transform="translate(-12 -142)">
          <g id="Remove" transform="translate(3347 363)">
            <g id="Remove-2" data-name="Remove" transform="translate(-8 -8)">
              <rect id="Rectangle_8133" data-name="Rectangle 8133" width="10" height="10" fill="none"/>
            </g>
          </g>
        </g>
      </g>
      <g id="Group_15349" data-name="Group 15349" transform="translate(-2996 -6)">
        <rect id="Rectangle_8132" data-name="Rectangle 8132" width="99" height="24" rx="2" transform="translate(3266 348)" fill="#eaeaea"/>
        <g id="Remove-3" data-name="Remove" transform="translate(3355 363)">
          <g id="Remove-4" data-name="Remove" transform="translate(-8 -8)">
            <path id="Path_10244" data-name="Path 10244" d="M9.933,8.934a.25.25,0,0,1,0,.312l-.624.624a.25.25,0,0,1-.312,0L5,6,1.066,9.933a.25.25,0,0,1-.312,0L.129,9.309A.25.25,0,0,1,.129,9L4,5,.067,1.066a.25.25,0,0,1,0-.312L.691.129A.25.25,0,0,1,1,.129L5,4,8.934.067a.25.25,0,0,1,.312,0l.624.624a.25.25,0,0,1,0,.312L6,5Z" transform="translate(-2 0)" fill="#b2b2b2"/>
            <rect id="Rectangle_8133-2" data-name="Rectangle 8133" width="10" height="10" transform="translate(-2)" fill="none"/>
          </g>
        </g>
        <text id="Wisconsin" transform="translate(3273 365)" fill="#31313a" font-size="14" font-family="SegoeUI, Segoe UI"><tspan x="0" y="0">Wisconsin</tspan></text>
      </g>
    </g>
    <g id="Group_14909" data-name="Group 14909" transform="translate(-936 229)">
      <g id="Group_14724" data-name="Group 14724" transform="translate(-1854 -372)">
        <g id="Dropdown_input_-_top_label-3" data-name="Dropdown input - top label" transform="translate(2922 682)">
          <g id="Group_14579-3" data-name="Group 14579">
            <g id="Rectangle_288-3" data-name="Rectangle 288" transform="translate(0 23)" fill="#fff" stroke="#4e92df" stroke-width="2">
              <rect width="300" height="42" rx="4" stroke="none"/>
              <rect x="1" y="1" width="298" height="40" rx="3" fill="none"/>
            </g>
            <g id="Group_7793-3" data-name="Group 7793" transform="translate(-550 -1675)">
              <rect id="Rectangle_3867-4" data-name="Rectangle 3867" width="24" height="24" transform="translate(816 1707)" fill="none"/>
              <path id="Path_5558-4" data-name="Path 5558" d="M56,9.4l-3,3-3-3a.967.967,0,0,0-1.4,0h0a.967.967,0,0,0,0,1.4l3.7,3.7a.967.967,0,0,0,1.4,0l3.7-3.7a.967.967,0,0,0,0-1.4h0A.965.965,0,0,0,56,9.4Z" transform="translate(775 1707)" fill="#9494a4"/>
            </g>
          </g>
          <text id="State-3" data-name="State" transform="translate(0 15)" fill="#31313a" font-size="14" font-family="SegoeUI-Semibold, Segoe UI" font-weight="600"><tspan x="0" y="0">State</tspan></text>
        </g>
      </g>
      <g id="Group_14907" data-name="Group 14907" transform="translate(-2183 -6)">
        <rect id="Rectangle_8132-2" data-name="Rectangle 8132" width="99" height="24" rx="2" transform="translate(3266 348)" fill="#eaeaea"/>
        <g id="Remove-5" data-name="Remove" transform="translate(3355 363)">
          <g id="Remove-6" data-name="Remove" transform="translate(-8 -8)">
            <path id="Path_10244-2" data-name="Path 10244" d="M9.933,8.934a.25.25,0,0,1,0,.312l-.624.624a.25.25,0,0,1-.312,0L5,6,1.066,9.933a.25.25,0,0,1-.312,0L.129,9.309A.25.25,0,0,1,.129,9L4,5,.067,1.066a.25.25,0,0,1,0-.312L.691.129A.25.25,0,0,1,1,.129L5,4,8.934.067a.25.25,0,0,1,.312,0l.624.624a.25.25,0,0,1,0,.312L6,5Z" transform="translate(-2 0)" fill="#b2b2b2"/>
            <rect id="Rectangle_8133-3" data-name="Rectangle 8133" width="10" height="10" transform="translate(-2)" fill="none"/>
          </g>
        </g>
        <text id="Wisconsin-2" data-name="Wisconsin" transform="translate(3273 365)" fill="#31313a" font-size="14" font-family="SegoeUI, Segoe UI"><tspan x="0" y="0">Wisconsin</tspan></text>
      </g>
      <line id="Line_18" data-name="Line 18" y2="19" transform="translate(1187.3 344.7)" fill="none" stroke="#494955" stroke-miterlimit="10" stroke-width="1"/>
    </g>
    <g id="Group_15346" data-name="Group 15346" transform="translate(-936 72)">
      <g id="Dropdown_input_-_top_label-4" data-name="Dropdown input - top label" transform="translate(1068 195)">
        <g id="Group_14579-4" data-name="Group 14579">
          <g id="Rectangle_288-4" data-name="Rectangle 288" transform="translate(0 23)" fill="#fff" stroke="#4e92df" stroke-width="2">
            <rect width="300" height="42" rx="4" stroke="none"/>
            <rect x="1" y="1" width="298" height="40" rx="3" fill="none"/>
          </g>
          <text id="Select_state-2" data-name="Select state" transform="translate(15 50)" fill="#cbcbd2" font-size="14" font-family="SegoeUI, Segoe UI"><tspan x="0" y="0">Select state</tspan></text>
          <g id="Group_7793-4" data-name="Group 7793" transform="translate(-550 -1675)">
            <rect id="Rectangle_3867-5" data-name="Rectangle 3867" width="24" height="24" transform="translate(816 1707)" fill="none"/>
            <path id="Path_5558-5" data-name="Path 5558" d="M56,9.4l-3,3-3-3a.967.967,0,0,0-1.4,0h0a.967.967,0,0,0,0,1.4l3.7,3.7a.967.967,0,0,0,1.4,0l3.7-3.7a.967.967,0,0,0,0-1.4h0A.965.965,0,0,0,56,9.4Z" transform="translate(775 1707)" fill="#9494a4"/>
          </g>
        </g>
        <text id="State-4" data-name="State" transform="translate(0 15)" fill="#31313a" font-size="14" font-family="SegoeUI-Semibold, Segoe UI" font-weight="600"><tspan x="0" y="0">State</tspan></text>
      </g>
      <line id="Line_4" data-name="Line 4" y2="19" transform="translate(1082.3 231)" fill="none" stroke="#494955" stroke-miterlimit="10" stroke-width="1"/>
    </g>
    <g id="Dropdown_input_-_top_label-5" data-name="Dropdown input - top label" transform="translate(132 167)">
      <g id="Group_14579-5" data-name="Group 14579">
        <g id="Rectangle_288-5" data-name="Rectangle 288" transform="translate(0 23)" fill="#fff" stroke="#9494a4" stroke-width="1">
          <rect width="300" height="42" rx="4" stroke="none"/>
          <rect x="0.5" y="0.5" width="299" height="41" rx="3.5" fill="none"/>
        </g>
        <text id="Select_state-3" data-name="Select state" transform="translate(15 50)" fill="#cbcbd2" font-size="14" font-family="SegoeUI, Segoe UI"><tspan x="0" y="0">Select state</tspan></text>
        <g id="Group_7793-5" data-name="Group 7793" transform="translate(-550 -1675)">
          <rect id="Rectangle_3867-6" data-name="Rectangle 3867" width="24" height="24" transform="translate(816 1707)" fill="none"/>
          <path id="Path_5558-6" data-name="Path 5558" d="M56,9.4l-3,3-3-3a.967.967,0,0,0-1.4,0h0a.967.967,0,0,0,0,1.4l3.7,3.7a.967.967,0,0,0,1.4,0l3.7-3.7a.967.967,0,0,0,0-1.4h0A.965.965,0,0,0,56,9.4Z" transform="translate(775 1707)" fill="#9494a4"/>
        </g>
      </g>
      <text id="Label" transform="translate(0 15)" fill="#31313a" font-size="14" font-family="SegoeUI-Semibold, Segoe UI" font-weight="600"><tspan x="0" y="0">Label</tspan></text>
    </g>
    <g id="Group_15324" data-name="Group 15324" transform="translate(-11500 -802)">
      <g id="noun_Pointer_44803" transform="translate(11911 1005)">
        <g id="Group_15298" data-name="Group 15298" transform="translate(0 0)" opacity="0.9">
          <path id="Path_10321" data-name="Path 10321" d="M26.5,27.034a8.04,8.04,0,0,1-7.962-7.224.347.347,0,0,1-.037-.156V14.783a1.94,1.94,0,0,1,1.9-1.97,1.854,1.854,0,0,1,1.143.395V5.385a1.906,1.906,0,1,1,3.81,0v5.468a1.854,1.854,0,0,1,1.143-.395,1.91,1.91,0,0,1,1.775,1.257,1.863,1.863,0,0,1,1.272-.5,1.919,1.919,0,0,1,1.837,1.449,1.86,1.86,0,0,1,1.211-.45,1.94,1.94,0,0,1,1.9,1.97v5.031a.375.375,0,0,1,0,.051A8.045,8.045,0,0,1,26.5,27.034Z" transform="translate(-18.501 -3.415)" fill="#fff"/>
        </g>
      </g>
      <g id="noun_Pointer_44803-2" data-name="noun_Pointer_44803" transform="translate(11911 1005)">
        <g id="Group_15298-2" data-name="Group 15298" transform="translate(0 0)" opacity="0.9">
          <path id="Path_10321-2" data-name="Path 10321" d="M26.5,27.034a8.04,8.04,0,0,1-7.962-7.224.347.347,0,0,1-.037-.156V14.783a1.94,1.94,0,0,1,1.9-1.97,1.854,1.854,0,0,1,1.143.395V5.385a1.906,1.906,0,1,1,3.81,0v5.468a1.854,1.854,0,0,1,1.143-.395,1.91,1.91,0,0,1,1.775,1.257,1.863,1.863,0,0,1,1.272-.5,1.919,1.919,0,0,1,1.837,1.449,1.86,1.86,0,0,1,1.211-.45,1.94,1.94,0,0,1,1.9,1.97v5.031a.375.375,0,0,1,0,.051A8.045,8.045,0,0,1,26.5,27.034Zm-7.238-7.51a.339.339,0,0,1,.024.1,7.238,7.238,0,0,0,14.45-.424q0-.016,0-.033V14.178a1.145,1.145,0,1,0-2.286,0,.381.381,0,0,1-.762,0v-1a1.145,1.145,0,1,0-2.286,0,.381.381,0,1,1-.762,0v-.752a1.145,1.145,0,1,0-2.286,0,.381.381,0,1,1-.762,0V5.385a1.145,1.145,0,1,0-2.286,0V18.21a.381.381,0,1,1-.762,0V14.783a1.145,1.145,0,1,0-2.286,0v4.741Z" transform="translate(-18.501 -3.415)"/>
        </g>
      </g>
    </g>
    <g id="Dropdown_input_-_top_label-6" data-name="Dropdown input - top label" transform="translate(132 67)">
      <g id="Group_14579-6" data-name="Group 14579">
        <g id="Rectangle_288-6" data-name="Rectangle 288" transform="translate(0 23)" fill="#fff" stroke="#cbcbd2" stroke-width="1">
          <rect width="300" height="42" rx="4" stroke="none"/>
          <rect x="0.5" y="0.5" width="299" height="41" rx="3.5" fill="none"/>
        </g>
        <text id="Select_state-4" data-name="Select state" transform="translate(15 50)" fill="#cbcbd2" font-size="14" font-family="SegoeUI, Segoe UI"><tspan x="0" y="0">Select state</tspan></text>
        <g id="Group_7793-6" data-name="Group 7793" transform="translate(-550 -1675)">
          <rect id="Rectangle_3867-7" data-name="Rectangle 3867" width="24" height="24" transform="translate(816 1707)" fill="none"/>
          <path id="Path_5558-7" data-name="Path 5558" d="M56,9.4l-3,3-3-3a.967.967,0,0,0-1.4,0h0a.967.967,0,0,0,0,1.4l3.7,3.7a.967.967,0,0,0,1.4,0l3.7-3.7a.967.967,0,0,0,0-1.4h0A.965.965,0,0,0,56,9.4Z" transform="translate(775 1707)" fill="#9494a4"/>
        </g>
      </g>
      <text id="State-5" data-name="State" transform="translate(0 15)" fill="#31313a" font-size="14" font-family="SegoeUI-Semibold, Segoe UI" font-weight="600"><tspan x="0" y="0">State</tspan></text>
    </g>
    <text id="flat_light" transform="translate(102 316)" fill="#b2b2b2" font-size="12" font-family="OpenSans-Regular, Open Sans"><tspan x="-46.33" y="0">Focused</tspan></text>
    <text id="flat_light-2" data-name="flat_light" transform="translate(102 688)" fill="#b2b2b2" font-size="12" font-family="OpenSans-Regular, Open Sans"><tspan x="-47.121" y="0">Selected</tspan></text>
    <text id="flat_light-3" data-name="flat_light" transform="translate(102 788)" fill="#b2b2b2" font-size="12" font-family="OpenSans-Regular, Open Sans"><tspan x="-48.656" y="0">Disabled</tspan></text>
    <text id="flat_light-4" data-name="flat_light" transform="translate(102 216)" fill="#b2b2b2" font-size="12" font-family="OpenSans-Regular, Open Sans"><tspan x="-33.744" y="0">Hover</tspan></text>
    <text id="flat_light-5" data-name="flat_light" transform="translate(102 116)" fill="#b2b2b2" font-size="12" font-family="OpenSans-Regular, Open Sans"><tspan x="-62.361" y="0">Unselected</tspan></text>
    <text id="flat_light-6" data-name="flat_light" transform="translate(102 579)" fill="#b2b2b2" font-size="12" font-family="OpenSans-Regular, Open Sans"><tspan x="-50.238" y="0">Selected </tspan><tspan x="-44.203" y="17">focused</tspan></text>
    <text id="flat_light-7" data-name="flat_light" transform="translate(102 416)" fill="#b2b2b2" font-size="12" font-family="OpenSans-Regular, Open Sans"><tspan x="-33.322" y="0">Active</tspan></text>
    <g id="Group_7830" data-name="Group 7830">
      <g id="Group_15347" data-name="Group 15347">
        <g id="Group_15348" data-name="Group 15348" transform="translate(7543 -2599)">
          <text id="State-6" data-name="State" transform="translate(-7411 2981)" fill="#31313a" font-size="14" font-family="SegoeUI-Semibold, Segoe UI" font-weight="600"><tspan x="0" y="0">State</tspan></text>
          <g transform="matrix(1, 0, 0, 1, -7543, 2599)" filter="url(#Rectangle_8136)">
            <rect id="Rectangle_8136-2" data-name="Rectangle 8136" width="300" height="77" rx="4" transform="translate(132 432)" fill="#fff"/>
          </g>
          <g id="Group_14579-7" data-name="Group 14579" transform="translate(-7411 2989)">
            <g id="Rectangle_288-7" data-name="Rectangle 288" fill="#fff" stroke="#4e92df" stroke-width="2">
              <rect width="300" height="42" rx="4" stroke="none"/>
              <rect x="1" y="1" width="298" height="40" rx="3" fill="none"/>
            </g>
            <g id="Group_7793-7" data-name="Group 7793" transform="translate(266 9)">
              <rect id="Rectangle_3867-8" data-name="Rectangle 3867" width="24" height="24" fill="none"/>
              <path id="Path_5558-8" data-name="Path 5558" d="M56,9.4l-3,3-3-3a.967.967,0,0,0-1.4,0h0a.967.967,0,0,0,0,1.4l3.7,3.7a.967.967,0,0,0,1.4,0l3.7-3.7a.967.967,0,0,0,0-1.4h0A.965.965,0,0,0,56,9.4Z" transform="translate(65 23.9) rotate(180)" fill="#9494a4"/>
            </g>
          </g>
          <text id="Select_state-5" data-name="Select state" transform="translate(-7396 3016)" fill="#cbcbd2" font-size="14" font-family="SegoeUI, Segoe UI"><tspan x="0" y="0">Select state</tspan></text>
          <line id="Line_3" data-name="Line 3" y2="19" transform="translate(-7396.7 3003)" fill="none" stroke="#5b5b5b" stroke-miterlimit="10" stroke-width="1"/>
          <g id="dropdown_item" data-name="dropdown item" transform="translate(-7411 3036)">
            <rect id="Rectangle_4665" data-name="Rectangle 4665" width="300" height="36" fill="#fff"/>
            <text id="Alaska" transform="translate(43 23)" fill="#494955" font-size="14" font-family="SegoeUI, Segoe UI"><tspan x="0" y="0">Alaska</tspan></text>
            <path id="Path_5842" data-name="Path 5842" d="M17.5,2a.472.472,0,0,1,.5.5v15a.472.472,0,0,1-.5.5H2.5a.472.472,0,0,1-.5-.5V2.5A.472.472,0,0,1,2.5,2h15m0-2H2.5A2.476,2.476,0,0,0,0,2.5v15A2.476,2.476,0,0,0,2.5,20h15A2.476,2.476,0,0,0,20,17.5V2.5A2.476,2.476,0,0,0,17.5,0Z" transform="translate(10 9)" fill="#9494a4"/>
          </g>
          <g id="dropdown_item-2" data-name="dropdown item" transform="translate(-7411 3072)">
            <rect id="Rectangle_4665-2" data-name="Rectangle 4665" width="300" height="36" fill="#fff"/>
            <text id="Alabama" transform="translate(43 23)" fill="#494955" font-size="14" font-family="SegoeUI, Segoe UI"><tspan x="0" y="0">Alabama</tspan></text>
            <path id="Path_5842-2" data-name="Path 5842" d="M17.5,2a.472.472,0,0,1,.5.5v15a.472.472,0,0,1-.5.5H2.5a.472.472,0,0,1-.5-.5V2.5A.472.472,0,0,1,2.5,2h15m0-2H2.5A2.476,2.476,0,0,0,0,2.5v15A2.476,2.476,0,0,0,2.5,20h15A2.476,2.476,0,0,0,20,17.5V2.5A2.476,2.476,0,0,0,17.5,0Z" transform="translate(10 9)" fill="#9494a4"/>
          </g>
          <rect id="Rectangle_8137" data-name="Rectangle 8137" width="5" height="72" rx="2.5" transform="translate(-7121 3036)" fill="#78788c"/>
        </g>
        <rect id="Rectangle_4848" data-name="Rectangle 4848" width="336" height="76" transform="translate(121 446)" fill="url(#linear-gradient)"/>
      </g>
    </g>
  </g>
</svg>
