<svg xmlns="http://www.w3.org/2000/svg" xmlns:xlink="http://www.w3.org/1999/xlink" viewBox="0 0 564 964">
  <defs>
    <style>
      .cls-1, .cls-6 {
        fill: none;
      }

      .cls-1 {
        stroke: #707070;
      }

      .cls-2 {
        clip-path: url(#clip-multiselect_states);
      }

      .cls-14, .cls-3 {
        fill: #fff;
      }

      .cls-11, .cls-4 {
        fill: #eaeaea;
      }

      .cls-5 {
        fill: #3d3d3d;
      }

      .cls-7 {
        fill: #7a7a7a;
      }

      .cls-17, .cls-8 {
        fill: #c6c6c6;
      }

      .cls-9 {
        fill: #999;
      }

      .cls-10 {
        fill: #b2b2b2;
      }

      .cls-12 {
        fill: #5b5b5b;
        font-size: 14px;
        font-family: OpenSans, Open Sans;
      }

      .cls-13 {
        clip-path: url(#clip-path);
      }

      .cls-15 {
        fill: url(#linear-gradient);
      }

      .cls-16, .cls-17, .cls-18, .cls-19 {
        stroke: none;
      }

      .cls-18 {
        fill: #dbdbdb;
      }

      .cls-19 {
        fill: #50a7ed;
      }

      .cls-20 {
        filter: url(#Rectangle_4851);
      }
    </style>
    <clipPath id="clip-path">
      <rect id="Rectangle_4847" data-name="Rectangle 4847" class="cls-1" width="336" height="103" transform="translate(115 415)"/>
    </clipPath>
    <filter id="Rectangle_4851" x="123" y="426" width="318" height="316" filterUnits="userSpaceOnUse">
      <feOffset dy="3" input="SourceAlpha"/>
      <feGaussianBlur stdDeviation="3" result="blur"/>
      <feFlood flood-opacity="0.161"/>
      <feComposite operator="in" in2="blur"/>
      <feComposite in="SourceGraphic"/>
    </filter>
    <linearGradient id="linear-gradient" x1="0.447" y1="0.695" x2="0.447" gradientUnits="objectBoundingBox">
      <stop offset="0" stop-color="#fff"/>
      <stop offset="1" stop-color="#fff" stop-opacity="0"/>
    </linearGradient>
    <clipPath id="clip-multiselect_states">
      <rect width="564" height="964"/>
    </clipPath>
  </defs>
  <g id="multiselect_states" class="cls-2">
    <g id="Path_6879" data-name="Path 6879" class="cls-3" transform="translate(132 190)">
      <path class="cls-16" d="M 296 41.5 L 4 41.5 C 2.070076942443848 41.5 0.5 39.92992401123047 0.5 38 L 0.5 4 C 0.5 2.070076942443848 2.070076942443848 0.5 4 0.5 L 296 0.5 C 297.929931640625 0.5 299.5 2.070076942443848 299.5 4 L 299.5 38 C 299.5 39.92992401123047 297.929931640625 41.5 296 41.5 Z"/>
      <path class="cls-17" d="M 296 41 C 297.6542053222656 41 299 39.65419387817383 299 38 L 299 4 C 299 2.345807790756226 297.6542053222656 1 296 1 L 4 1 C 2.345807790756226 1 1 2.345807790756226 1 4 L 1 38 C 1 39.65419387817383 2.345807790756226 41 4 41 L 296 41 M 296 42 L 4 42 C 1.790884613990784 42 0 40.20915222167969 0 38 L 0 4 C 0 1.790846109390259 1.790884613990784 0 4 0 L 296 0 C 298.2091674804688 0 300 1.790846109390259 300 4 L 300 38 C 300 40.20915222167969 298.2091674804688 42 296 42 Z"/>
    </g>
    <g id="Path_6880" data-name="Path 6880" class="cls-3" transform="translate(132 90)">
      <path class="cls-16" d="M 296 41.5 L 4 41.5 C 2.070076942443848 41.5 0.5 39.92992401123047 0.5 38 L 0.5 4 C 0.5 2.070076942443848 2.070076942443848 0.5 4 0.5 L 296 0.5 C 297.929931640625 0.5 299.5 2.070076942443848 299.5 4 L 299.5 38 C 299.5 39.92992401123047 297.929931640625 41.5 296 41.5 Z"/>
      <path class="cls-18" d="M 296 41 C 297.6542053222656 41 299 39.65419387817383 299 38 L 299 4 C 299 2.345807790756226 297.6542053222656 1 296 1 L 4 1 C 2.345807790756226 1 1 2.345807790756226 1 4 L 1 38 C 1 39.65419387817383 2.345807790756226 41 4 41 L 296 41 M 296 42 L 4 42 C 1.790884613990784 42 0 40.20915222167969 0 38 L 0 4 C 0 1.790846109390259 1.790884613990784 0 4 0 L 296 0 C 298.2091674804688 0 300 1.790846109390259 300 4 L 300 38 C 300 40.20915222167969 298.2091674804688 42 296 42 Z"/>
    </g>
    <g id="Path_6881" data-name="Path 6881" class="cls-3" transform="translate(132 662)">
      <path class="cls-16" d="M 296 41.5 L 4 41.5 C 2.070076942443848 41.5 0.5 39.92992401123047 0.5 38 L 0.5 4 C 0.5 2.070076942443848 2.070076942443848 0.5 4 0.5 L 296 0.5 C 297.929931640625 0.5 299.5 2.070076942443848 299.5 4 L 299.5 38 C 299.5 39.92992401123047 297.929931640625 41.5 296 41.5 Z"/>
      <path class="cls-18" d="M 296 41 C 297.6542053222656 41 299 39.65419387817383 299 38 L 299 4 C 299 2.345807790756226 297.6542053222656 1 296 1 L 4 1 C 2.345807790756226 1 1 2.345807790756226 1 4 L 1 38 C 1 39.65419387817383 2.345807790756226 41 4 41 L 296 41 M 296 42 L 4 42 C 1.790884613990784 42 0 40.20915222167969 0 38 L 0 4 C 0 1.790846109390259 1.790884613990784 0 4 0 L 296 0 C 298.2091674804688 0 300 1.790846109390259 300 4 L 300 38 C 300 40.20915222167969 298.2091674804688 42 296 42 Z"/>
    </g>
    <g id="Path_6882" data-name="Path 6882" class="cls-4" transform="translate(132 762)">
      <path class="cls-16" d="M 296 41.5 L 4 41.5 C 2.070076942443848 41.5 0.5 39.92992401123047 0.5 38 L 0.5 4 C 0.5 2.070076942443848 2.070076942443848 0.5 4 0.5 L 296 0.5 C 297.929931640625 0.5 299.5 2.070076942443848 299.5 4 L 299.5 38 C 299.5 39.92992401123047 297.929931640625 41.5 296 41.5 Z"/>
      <path class="cls-18" d="M 296 41 C 297.6542053222656 41 299 39.65419387817383 299 38 L 299 4 C 299 2.345807790756226 297.6542053222656 1 296 1 L 4 1 C 2.345807790756226 1 1 2.345807790756226 1 4 L 1 38 C 1 39.65419387817383 2.345807790756226 41 4 41 L 296 41 M 296 42 L 4 42 C 1.790884613990784 42 0 40.20915222167969 0 38 L 0 4 C 0 1.790846109390259 1.790884613990784 0 4 0 L 296 0 C 298.2091674804688 0 300 1.790846109390259 300 4 L 300 38 C 300 40.20915222167969 298.2091674804688 42 296 42 Z"/>
    </g>
    <g id="Path_6883" data-name="Path 6883" class="cls-3" transform="translate(132 562)">
      <path class="cls-16" d="M 296 41 L 4 41 C 2.345807790756226 41 1 39.65419387817383 1 38 L 1 4 C 1 2.345807790756226 2.345807790756226 1 4 1 L 296 1 C 297.6542053222656 1 299 2.345807790756226 299 4 L 299 38 C 299 39.65419387817383 297.6542053222656 41 296 41 Z"/>
      <path class="cls-19" d="M 296 40 C 297.1028137207031 40 298 39.10280609130859 298 38 L 298 4 C 298 2.897192239761353 297.1028137207031 2 296 2 L 4 2 C 2.897192239761353 2 2 2.897192239761353 2 4 L 2 38 C 2 39.10280609130859 2.897192239761353 40 4 40 L 296 40 M 296 42 L 4 42 C 1.790884613990784 42 0 40.20915222167969 0 38 L 0 4 C 0 1.790846109390259 1.790884613990784 0 4 0 L 296 0 C 298.2091674804688 0 300 1.790846109390259 300 4 L 300 38 C 300 40.20915222167969 298.2091674804688 42 296 42 Z"/>
    </g>
    <g id="Path_6884" data-name="Path 6884" class="cls-3" transform="translate(132 290)">
      <path class="cls-16" d="M 296 41 L 4 41 C 2.345807790756226 41 1 39.65419387817383 1 38 L 1 4 C 1 2.345807790756226 2.345807790756226 1 4 1 L 296 1 C 297.6542053222656 1 299 2.345807790756226 299 4 L 299 38 C 299 39.65419387817383 297.6542053222656 41 296 41 Z"/>
      <path class="cls-19" d="M 296 40 C 297.1028137207031 40 298 39.10280609130859 298 38 L 298 4 C 298 2.897192239761353 297.1028137207031 2 296 2 L 4 2 C 2.897192239761353 2 2 2.897192239761353 2 4 L 2 38 C 2 39.10280609130859 2.897192239761353 40 4 40 L 296 40 M 296 42 L 4 42 C 1.790884613990784 42 0 40.20915222167969 0 38 L 0 4 C 0 1.790846109390259 1.790884613990784 0 4 0 L 296 0 C 298.2091674804688 0 300 1.790846109390259 300 4 L 300 38 C 300 40.20915222167969 298.2091674804688 42 296 42 Z"/>
    </g>
    <path id="Path_6885" data-name="Path 6885" class="cls-5" d="M7.082-2.714A2.515,2.515,0,0,1,6.118-.622,4.2,4.2,0,0,1,3.459.137,6.345,6.345,0,0,1,.684-.39V-1.935a7.543,7.543,0,0,0,1.453.506,6.159,6.159,0,0,0,1.432.185A2.278,2.278,0,0,0,5-1.613,1.2,1.2,0,0,0,5.462-2.6a1.242,1.242,0,0,0-.424-.95,6.381,6.381,0,0,0-1.75-.923A4.63,4.63,0,0,1,1.36-5.742,2.676,2.676,0,0,1,.8-7.451,2.393,2.393,0,0,1,1.688-9.42a3.686,3.686,0,0,1,2.386-.718,7.01,7.01,0,0,1,2.857.629l-.52,1.333a6.243,6.243,0,0,0-2.379-.561,1.826,1.826,0,0,0-1.2.345,1.134,1.134,0,0,0-.41.913,1.285,1.285,0,0,0,.164.667,1.676,1.676,0,0,0,.54.523,9.135,9.135,0,0,0,1.354.649,7.406,7.406,0,0,1,1.613.854,2.513,2.513,0,0,1,.752.9A2.694,2.694,0,0,1,7.082-2.714Zm4.58,1.552a3.907,3.907,0,0,0,1.176-.185v1.21a3.243,3.243,0,0,1-.687.195,4.733,4.733,0,0,1-.872.079Q9,.137,9-2.27V-6.344H7.964v-.711l1.107-.588.547-1.6h.991v1.682h2.153v1.217H10.609V-2.3a1.135,1.135,0,0,0,.291.858A1.059,1.059,0,0,0,11.662-1.162ZM19.079,0l-.321-1.053H18.7a3.1,3.1,0,0,1-1.1.94,3.481,3.481,0,0,1-1.422.25,2.406,2.406,0,0,1-1.74-.6,2.251,2.251,0,0,1-.625-1.7,2,2,0,0,1,.868-1.764,5.006,5.006,0,0,1,2.646-.649l1.306-.041v-.4A1.529,1.529,0,0,0,18.3-6.108a1.38,1.38,0,0,0-1.049-.359,3.628,3.628,0,0,0-1.114.171,8.409,8.409,0,0,0-1.025.4l-.52-1.148a5.591,5.591,0,0,1,1.347-.489A6.2,6.2,0,0,1,17.315-7.7a3.27,3.27,0,0,1,2.177.629,2.462,2.462,0,0,1,.735,1.976V0ZM16.687-1.094a1.99,1.99,0,0,0,1.4-.489,1.772,1.772,0,0,0,.53-1.371v-.656l-.971.041A3.321,3.321,0,0,0,16-3.189a1.153,1.153,0,0,0-.516,1.036,1.011,1.011,0,0,0,.3.783A1.292,1.292,0,0,0,16.687-1.094Zm8.6-.068a3.907,3.907,0,0,0,1.176-.185v1.21a3.243,3.243,0,0,1-.687.195A4.733,4.733,0,0,1,24.9.137Q22.62.137,22.62-2.27V-6.344H21.588v-.711L22.7-7.643l.547-1.6h.991v1.682h2.153v1.217H24.233V-2.3a1.135,1.135,0,0,0,.291.858A1.059,1.059,0,0,0,25.286-1.162Zm5.988,1.3A3.657,3.657,0,0,1,28.516-.892a3.906,3.906,0,0,1-.995-2.833,4.285,4.285,0,0,1,.923-2.912A3.188,3.188,0,0,1,30.98-7.7a3.116,3.116,0,0,1,2.365.909,3.474,3.474,0,0,1,.868,2.5v.868H29.176a2.483,2.483,0,0,0,.595,1.692,2.071,2.071,0,0,0,1.579.591A5.829,5.829,0,0,0,32.6-1.261a6.539,6.539,0,0,0,1.241-.42V-.376a4.932,4.932,0,0,1-1.189.4A7.294,7.294,0,0,1,31.274.137ZM30.98-6.48A1.614,1.614,0,0,0,29.753-6,2.313,2.313,0,0,0,29.2-4.58h3.432A2.093,2.093,0,0,0,32.184-6,1.543,1.543,0,0,0,30.98-6.48Z" transform="translate(132 182)"/>
    <path id="Path_6886" data-name="Path 6886" class="cls-5" d="M7.082-2.714A2.515,2.515,0,0,1,6.118-.622,4.2,4.2,0,0,1,3.459.137,6.345,6.345,0,0,1,.684-.39V-1.935a7.543,7.543,0,0,0,1.453.506,6.159,6.159,0,0,0,1.432.185A2.278,2.278,0,0,0,5-1.613,1.2,1.2,0,0,0,5.462-2.6a1.242,1.242,0,0,0-.424-.95,6.381,6.381,0,0,0-1.75-.923A4.63,4.63,0,0,1,1.36-5.742,2.676,2.676,0,0,1,.8-7.451,2.393,2.393,0,0,1,1.688-9.42a3.686,3.686,0,0,1,2.386-.718,7.01,7.01,0,0,1,2.857.629l-.52,1.333a6.243,6.243,0,0,0-2.379-.561,1.826,1.826,0,0,0-1.2.345,1.134,1.134,0,0,0-.41.913,1.285,1.285,0,0,0,.164.667,1.676,1.676,0,0,0,.54.523,9.135,9.135,0,0,0,1.354.649,7.406,7.406,0,0,1,1.613.854,2.513,2.513,0,0,1,.752.9A2.694,2.694,0,0,1,7.082-2.714Zm4.58,1.552a3.907,3.907,0,0,0,1.176-.185v1.21a3.243,3.243,0,0,1-.687.195,4.733,4.733,0,0,1-.872.079Q9,.137,9-2.27V-6.344H7.964v-.711l1.107-.588.547-1.6h.991v1.682h2.153v1.217H10.609V-2.3a1.135,1.135,0,0,0,.291.858A1.059,1.059,0,0,0,11.662-1.162ZM19.079,0l-.321-1.053H18.7a3.1,3.1,0,0,1-1.1.94,3.481,3.481,0,0,1-1.422.25,2.406,2.406,0,0,1-1.74-.6,2.251,2.251,0,0,1-.625-1.7,2,2,0,0,1,.868-1.764,5.006,5.006,0,0,1,2.646-.649l1.306-.041v-.4A1.529,1.529,0,0,0,18.3-6.108a1.38,1.38,0,0,0-1.049-.359,3.628,3.628,0,0,0-1.114.171,8.409,8.409,0,0,0-1.025.4l-.52-1.148a5.591,5.591,0,0,1,1.347-.489A6.2,6.2,0,0,1,17.315-7.7a3.27,3.27,0,0,1,2.177.629,2.462,2.462,0,0,1,.735,1.976V0ZM16.687-1.094a1.99,1.99,0,0,0,1.4-.489,1.772,1.772,0,0,0,.53-1.371v-.656l-.971.041A3.321,3.321,0,0,0,16-3.189a1.153,1.153,0,0,0-.516,1.036,1.011,1.011,0,0,0,.3.783A1.292,1.292,0,0,0,16.687-1.094Zm8.6-.068a3.907,3.907,0,0,0,1.176-.185v1.21a3.243,3.243,0,0,1-.687.195A4.733,4.733,0,0,1,24.9.137Q22.62.137,22.62-2.27V-6.344H21.588v-.711L22.7-7.643l.547-1.6h.991v1.682h2.153v1.217H24.233V-2.3a1.135,1.135,0,0,0,.291.858A1.059,1.059,0,0,0,25.286-1.162Zm5.988,1.3A3.657,3.657,0,0,1,28.516-.892a3.906,3.906,0,0,1-.995-2.833,4.285,4.285,0,0,1,.923-2.912A3.188,3.188,0,0,1,30.98-7.7a3.116,3.116,0,0,1,2.365.909,3.474,3.474,0,0,1,.868,2.5v.868H29.176a2.483,2.483,0,0,0,.595,1.692,2.071,2.071,0,0,0,1.579.591A5.829,5.829,0,0,0,32.6-1.261a6.539,6.539,0,0,0,1.241-.42V-.376a4.932,4.932,0,0,1-1.189.4A7.294,7.294,0,0,1,31.274.137ZM30.98-6.48A1.614,1.614,0,0,0,29.753-6,2.313,2.313,0,0,0,29.2-4.58h3.432A2.093,2.093,0,0,0,32.184-6,1.543,1.543,0,0,0,30.98-6.48Z" transform="translate(132 82)"/>
    <path id="Path_6887" data-name="Path 6887" class="cls-5" d="M7.082-2.714A2.515,2.515,0,0,1,6.118-.622,4.2,4.2,0,0,1,3.459.137,6.345,6.345,0,0,1,.684-.39V-1.935a7.543,7.543,0,0,0,1.453.506,6.159,6.159,0,0,0,1.432.185A2.278,2.278,0,0,0,5-1.613,1.2,1.2,0,0,0,5.462-2.6a1.242,1.242,0,0,0-.424-.95,6.381,6.381,0,0,0-1.75-.923A4.63,4.63,0,0,1,1.36-5.742,2.676,2.676,0,0,1,.8-7.451,2.393,2.393,0,0,1,1.688-9.42a3.686,3.686,0,0,1,2.386-.718,7.01,7.01,0,0,1,2.857.629l-.52,1.333a6.243,6.243,0,0,0-2.379-.561,1.826,1.826,0,0,0-1.2.345,1.134,1.134,0,0,0-.41.913,1.285,1.285,0,0,0,.164.667,1.676,1.676,0,0,0,.54.523,9.135,9.135,0,0,0,1.354.649,7.406,7.406,0,0,1,1.613.854,2.513,2.513,0,0,1,.752.9A2.694,2.694,0,0,1,7.082-2.714Zm4.58,1.552a3.907,3.907,0,0,0,1.176-.185v1.21a3.243,3.243,0,0,1-.687.195,4.733,4.733,0,0,1-.872.079Q9,.137,9-2.27V-6.344H7.964v-.711l1.107-.588.547-1.6h.991v1.682h2.153v1.217H10.609V-2.3a1.135,1.135,0,0,0,.291.858A1.059,1.059,0,0,0,11.662-1.162ZM19.079,0l-.321-1.053H18.7a3.1,3.1,0,0,1-1.1.94,3.481,3.481,0,0,1-1.422.25,2.406,2.406,0,0,1-1.74-.6,2.251,2.251,0,0,1-.625-1.7,2,2,0,0,1,.868-1.764,5.006,5.006,0,0,1,2.646-.649l1.306-.041v-.4A1.529,1.529,0,0,0,18.3-6.108a1.38,1.38,0,0,0-1.049-.359,3.628,3.628,0,0,0-1.114.171,8.409,8.409,0,0,0-1.025.4l-.52-1.148a5.591,5.591,0,0,1,1.347-.489A6.2,6.2,0,0,1,17.315-7.7a3.27,3.27,0,0,1,2.177.629,2.462,2.462,0,0,1,.735,1.976V0ZM16.687-1.094a1.99,1.99,0,0,0,1.4-.489,1.772,1.772,0,0,0,.53-1.371v-.656l-.971.041A3.321,3.321,0,0,0,16-3.189a1.153,1.153,0,0,0-.516,1.036,1.011,1.011,0,0,0,.3.783A1.292,1.292,0,0,0,16.687-1.094Zm8.6-.068a3.907,3.907,0,0,0,1.176-.185v1.21a3.243,3.243,0,0,1-.687.195A4.733,4.733,0,0,1,24.9.137Q22.62.137,22.62-2.27V-6.344H21.588v-.711L22.7-7.643l.547-1.6h.991v1.682h2.153v1.217H24.233V-2.3a1.135,1.135,0,0,0,.291.858A1.059,1.059,0,0,0,25.286-1.162Zm5.988,1.3A3.657,3.657,0,0,1,28.516-.892a3.906,3.906,0,0,1-.995-2.833,4.285,4.285,0,0,1,.923-2.912A3.188,3.188,0,0,1,30.98-7.7a3.116,3.116,0,0,1,2.365.909,3.474,3.474,0,0,1,.868,2.5v.868H29.176a2.483,2.483,0,0,0,.595,1.692,2.071,2.071,0,0,0,1.579.591A5.829,5.829,0,0,0,32.6-1.261a6.539,6.539,0,0,0,1.241-.42V-.376a4.932,4.932,0,0,1-1.189.4A7.294,7.294,0,0,1,31.274.137ZM30.98-6.48A1.614,1.614,0,0,0,29.753-6,2.313,2.313,0,0,0,29.2-4.58h3.432A2.093,2.093,0,0,0,32.184-6,1.543,1.543,0,0,0,30.98-6.48Z" transform="translate(132 654)"/>
    <path id="Path_6888" data-name="Path 6888" class="cls-5" d="M7.082-2.714A2.515,2.515,0,0,1,6.118-.622,4.2,4.2,0,0,1,3.459.137,6.345,6.345,0,0,1,.684-.39V-1.935a7.543,7.543,0,0,0,1.453.506,6.159,6.159,0,0,0,1.432.185A2.278,2.278,0,0,0,5-1.613,1.2,1.2,0,0,0,5.462-2.6a1.242,1.242,0,0,0-.424-.95,6.381,6.381,0,0,0-1.75-.923A4.63,4.63,0,0,1,1.36-5.742,2.676,2.676,0,0,1,.8-7.451,2.393,2.393,0,0,1,1.688-9.42a3.686,3.686,0,0,1,2.386-.718,7.01,7.01,0,0,1,2.857.629l-.52,1.333a6.243,6.243,0,0,0-2.379-.561,1.826,1.826,0,0,0-1.2.345,1.134,1.134,0,0,0-.41.913,1.285,1.285,0,0,0,.164.667,1.676,1.676,0,0,0,.54.523,9.135,9.135,0,0,0,1.354.649,7.406,7.406,0,0,1,1.613.854,2.513,2.513,0,0,1,.752.9A2.694,2.694,0,0,1,7.082-2.714Zm4.58,1.552a3.907,3.907,0,0,0,1.176-.185v1.21a3.243,3.243,0,0,1-.687.195,4.733,4.733,0,0,1-.872.079Q9,.137,9-2.27V-6.344H7.964v-.711l1.107-.588.547-1.6h.991v1.682h2.153v1.217H10.609V-2.3a1.135,1.135,0,0,0,.291.858A1.059,1.059,0,0,0,11.662-1.162ZM19.079,0l-.321-1.053H18.7a3.1,3.1,0,0,1-1.1.94,3.481,3.481,0,0,1-1.422.25,2.406,2.406,0,0,1-1.74-.6,2.251,2.251,0,0,1-.625-1.7,2,2,0,0,1,.868-1.764,5.006,5.006,0,0,1,2.646-.649l1.306-.041v-.4A1.529,1.529,0,0,0,18.3-6.108a1.38,1.38,0,0,0-1.049-.359,3.628,3.628,0,0,0-1.114.171,8.409,8.409,0,0,0-1.025.4l-.52-1.148a5.591,5.591,0,0,1,1.347-.489A6.2,6.2,0,0,1,17.315-7.7a3.27,3.27,0,0,1,2.177.629,2.462,2.462,0,0,1,.735,1.976V0ZM16.687-1.094a1.99,1.99,0,0,0,1.4-.489,1.772,1.772,0,0,0,.53-1.371v-.656l-.971.041A3.321,3.321,0,0,0,16-3.189a1.153,1.153,0,0,0-.516,1.036,1.011,1.011,0,0,0,.3.783A1.292,1.292,0,0,0,16.687-1.094Zm8.6-.068a3.907,3.907,0,0,0,1.176-.185v1.21a3.243,3.243,0,0,1-.687.195A4.733,4.733,0,0,1,24.9.137Q22.62.137,22.62-2.27V-6.344H21.588v-.711L22.7-7.643l.547-1.6h.991v1.682h2.153v1.217H24.233V-2.3a1.135,1.135,0,0,0,.291.858A1.059,1.059,0,0,0,25.286-1.162Zm5.988,1.3A3.657,3.657,0,0,1,28.516-.892a3.906,3.906,0,0,1-.995-2.833,4.285,4.285,0,0,1,.923-2.912A3.188,3.188,0,0,1,30.98-7.7a3.116,3.116,0,0,1,2.365.909,3.474,3.474,0,0,1,.868,2.5v.868H29.176a2.483,2.483,0,0,0,.595,1.692,2.071,2.071,0,0,0,1.579.591A5.829,5.829,0,0,0,32.6-1.261a6.539,6.539,0,0,0,1.241-.42V-.376a4.932,4.932,0,0,1-1.189.4A7.294,7.294,0,0,1,31.274.137ZM30.98-6.48A1.614,1.614,0,0,0,29.753-6,2.313,2.313,0,0,0,29.2-4.58h3.432A2.093,2.093,0,0,0,32.184-6,1.543,1.543,0,0,0,30.98-6.48Z" transform="translate(132 754)"/>
    <path id="Path_6889" data-name="Path 6889" class="cls-5" d="M7.082-2.714A2.515,2.515,0,0,1,6.118-.622,4.2,4.2,0,0,1,3.459.137,6.345,6.345,0,0,1,.684-.39V-1.935a7.543,7.543,0,0,0,1.453.506,6.159,6.159,0,0,0,1.432.185A2.278,2.278,0,0,0,5-1.613,1.2,1.2,0,0,0,5.462-2.6a1.242,1.242,0,0,0-.424-.95,6.381,6.381,0,0,0-1.75-.923A4.63,4.63,0,0,1,1.36-5.742,2.676,2.676,0,0,1,.8-7.451,2.393,2.393,0,0,1,1.688-9.42a3.686,3.686,0,0,1,2.386-.718,7.01,7.01,0,0,1,2.857.629l-.52,1.333a6.243,6.243,0,0,0-2.379-.561,1.826,1.826,0,0,0-1.2.345,1.134,1.134,0,0,0-.41.913,1.285,1.285,0,0,0,.164.667,1.676,1.676,0,0,0,.54.523,9.135,9.135,0,0,0,1.354.649,7.406,7.406,0,0,1,1.613.854,2.513,2.513,0,0,1,.752.9A2.694,2.694,0,0,1,7.082-2.714Zm4.58,1.552a3.907,3.907,0,0,0,1.176-.185v1.21a3.243,3.243,0,0,1-.687.195,4.733,4.733,0,0,1-.872.079Q9,.137,9-2.27V-6.344H7.964v-.711l1.107-.588.547-1.6h.991v1.682h2.153v1.217H10.609V-2.3a1.135,1.135,0,0,0,.291.858A1.059,1.059,0,0,0,11.662-1.162ZM19.079,0l-.321-1.053H18.7a3.1,3.1,0,0,1-1.1.94,3.481,3.481,0,0,1-1.422.25,2.406,2.406,0,0,1-1.74-.6,2.251,2.251,0,0,1-.625-1.7,2,2,0,0,1,.868-1.764,5.006,5.006,0,0,1,2.646-.649l1.306-.041v-.4A1.529,1.529,0,0,0,18.3-6.108a1.38,1.38,0,0,0-1.049-.359,3.628,3.628,0,0,0-1.114.171,8.409,8.409,0,0,0-1.025.4l-.52-1.148a5.591,5.591,0,0,1,1.347-.489A6.2,6.2,0,0,1,17.315-7.7a3.27,3.27,0,0,1,2.177.629,2.462,2.462,0,0,1,.735,1.976V0ZM16.687-1.094a1.99,1.99,0,0,0,1.4-.489,1.772,1.772,0,0,0,.53-1.371v-.656l-.971.041A3.321,3.321,0,0,0,16-3.189a1.153,1.153,0,0,0-.516,1.036,1.011,1.011,0,0,0,.3.783A1.292,1.292,0,0,0,16.687-1.094Zm8.6-.068a3.907,3.907,0,0,0,1.176-.185v1.21a3.243,3.243,0,0,1-.687.195A4.733,4.733,0,0,1,24.9.137Q22.62.137,22.62-2.27V-6.344H21.588v-.711L22.7-7.643l.547-1.6h.991v1.682h2.153v1.217H24.233V-2.3a1.135,1.135,0,0,0,.291.858A1.059,1.059,0,0,0,25.286-1.162Zm5.988,1.3A3.657,3.657,0,0,1,28.516-.892a3.906,3.906,0,0,1-.995-2.833,4.285,4.285,0,0,1,.923-2.912A3.188,3.188,0,0,1,30.98-7.7a3.116,3.116,0,0,1,2.365.909,3.474,3.474,0,0,1,.868,2.5v.868H29.176a2.483,2.483,0,0,0,.595,1.692,2.071,2.071,0,0,0,1.579.591A5.829,5.829,0,0,0,32.6-1.261a6.539,6.539,0,0,0,1.241-.42V-.376a4.932,4.932,0,0,1-1.189.4A7.294,7.294,0,0,1,31.274.137ZM30.98-6.48A1.614,1.614,0,0,0,29.753-6,2.313,2.313,0,0,0,29.2-4.58h3.432A2.093,2.093,0,0,0,32.184-6,1.543,1.543,0,0,0,30.98-6.48Z" transform="translate(132 554)"/>
    <path id="Path_6890" data-name="Path 6890" class="cls-5" d="M7.082-2.714A2.515,2.515,0,0,1,6.118-.622,4.2,4.2,0,0,1,3.459.137,6.345,6.345,0,0,1,.684-.39V-1.935a7.543,7.543,0,0,0,1.453.506,6.159,6.159,0,0,0,1.432.185A2.278,2.278,0,0,0,5-1.613,1.2,1.2,0,0,0,5.462-2.6a1.242,1.242,0,0,0-.424-.95,6.381,6.381,0,0,0-1.75-.923A4.63,4.63,0,0,1,1.36-5.742,2.676,2.676,0,0,1,.8-7.451,2.393,2.393,0,0,1,1.688-9.42a3.686,3.686,0,0,1,2.386-.718,7.01,7.01,0,0,1,2.857.629l-.52,1.333a6.243,6.243,0,0,0-2.379-.561,1.826,1.826,0,0,0-1.2.345,1.134,1.134,0,0,0-.41.913,1.285,1.285,0,0,0,.164.667,1.676,1.676,0,0,0,.54.523,9.135,9.135,0,0,0,1.354.649,7.406,7.406,0,0,1,1.613.854,2.513,2.513,0,0,1,.752.9A2.694,2.694,0,0,1,7.082-2.714Zm4.58,1.552a3.907,3.907,0,0,0,1.176-.185v1.21a3.243,3.243,0,0,1-.687.195,4.733,4.733,0,0,1-.872.079Q9,.137,9-2.27V-6.344H7.964v-.711l1.107-.588.547-1.6h.991v1.682h2.153v1.217H10.609V-2.3a1.135,1.135,0,0,0,.291.858A1.059,1.059,0,0,0,11.662-1.162ZM19.079,0l-.321-1.053H18.7a3.1,3.1,0,0,1-1.1.94,3.481,3.481,0,0,1-1.422.25,2.406,2.406,0,0,1-1.74-.6,2.251,2.251,0,0,1-.625-1.7,2,2,0,0,1,.868-1.764,5.006,5.006,0,0,1,2.646-.649l1.306-.041v-.4A1.529,1.529,0,0,0,18.3-6.108a1.38,1.38,0,0,0-1.049-.359,3.628,3.628,0,0,0-1.114.171,8.409,8.409,0,0,0-1.025.4l-.52-1.148a5.591,5.591,0,0,1,1.347-.489A6.2,6.2,0,0,1,17.315-7.7a3.27,3.27,0,0,1,2.177.629,2.462,2.462,0,0,1,.735,1.976V0ZM16.687-1.094a1.99,1.99,0,0,0,1.4-.489,1.772,1.772,0,0,0,.53-1.371v-.656l-.971.041A3.321,3.321,0,0,0,16-3.189a1.153,1.153,0,0,0-.516,1.036,1.011,1.011,0,0,0,.3.783A1.292,1.292,0,0,0,16.687-1.094Zm8.6-.068a3.907,3.907,0,0,0,1.176-.185v1.21a3.243,3.243,0,0,1-.687.195A4.733,4.733,0,0,1,24.9.137Q22.62.137,22.62-2.27V-6.344H21.588v-.711L22.7-7.643l.547-1.6h.991v1.682h2.153v1.217H24.233V-2.3a1.135,1.135,0,0,0,.291.858A1.059,1.059,0,0,0,25.286-1.162Zm5.988,1.3A3.657,3.657,0,0,1,28.516-.892a3.906,3.906,0,0,1-.995-2.833,4.285,4.285,0,0,1,.923-2.912A3.188,3.188,0,0,1,30.98-7.7a3.116,3.116,0,0,1,2.365.909,3.474,3.474,0,0,1,.868,2.5v.868H29.176a2.483,2.483,0,0,0,.595,1.692,2.071,2.071,0,0,0,1.579.591A5.829,5.829,0,0,0,32.6-1.261a6.539,6.539,0,0,0,1.241-.42V-.376a4.932,4.932,0,0,1-1.189.4A7.294,7.294,0,0,1,31.274.137ZM30.98-6.48A1.614,1.614,0,0,0,29.753-6,2.313,2.313,0,0,0,29.2-4.58h3.432A2.093,2.093,0,0,0,32.184-6,1.543,1.543,0,0,0,30.98-6.48Z" transform="translate(132 282)"/>
    <path id="Path_6891" data-name="Path 6891" class="cls-5" d="M0,0H1V18H0Z" transform="translate(147 302)"/>
    <path id="Path_6892" data-name="Path 6892" class="cls-5" d="M0,0H1V18H0Z" transform="translate(253 574)"/>
    <g id="Group_7895" data-name="Group 7895" transform="translate(-418 -1508)">
      <rect id="Rectangle_3867" data-name="Rectangle 3867" class="cls-6" width="24" height="24" transform="translate(816 1707)"/>
      <path id="Path_5558" data-name="Path 5558" class="cls-7" d="M56,9.4l-3,3-3-3a.967.967,0,0,0-1.4,0h0a.967.967,0,0,0,0,1.4l3.7,3.7a.967.967,0,0,0,1.4,0l3.7-3.7a.967.967,0,0,0,0-1.4h0A.965.965,0,0,0,56,9.4Z" transform="translate(775 1707)"/>
    </g>
    <g id="Group_7896" data-name="Group 7896" transform="translate(-418 -1408)">
      <rect id="Rectangle_3867-2" data-name="Rectangle 3867" class="cls-6" width="24" height="24" transform="translate(816 1707)"/>
      <path id="Path_5558-2" data-name="Path 5558" class="cls-7" d="M56,9.4l-3,3-3-3a.967.967,0,0,0-1.4,0h0a.967.967,0,0,0,0,1.4l3.7,3.7a.967.967,0,0,0,1.4,0l3.7-3.7a.967.967,0,0,0,0-1.4h0A.965.965,0,0,0,56,9.4Z" transform="translate(881 1730.9) rotate(180)"/>
    </g>
    <g id="Group_7897" data-name="Group 7897" transform="translate(-418 -1608)">
      <rect id="Rectangle_3867-3" data-name="Rectangle 3867" class="cls-6" width="24" height="24" transform="translate(816 1707)"/>
      <path id="Path_5558-3" data-name="Path 5558" class="cls-7" d="M56,9.4l-3,3-3-3a.967.967,0,0,0-1.4,0h0a.967.967,0,0,0,0,1.4l3.7,3.7a.967.967,0,0,0,1.4,0l3.7-3.7a.967.967,0,0,0,0-1.4h0A.965.965,0,0,0,56,9.4Z" transform="translate(775 1707)"/>
    </g>
    <g id="Group_7898" data-name="Group 7898" transform="translate(-418 -1036)">
      <rect id="Rectangle_3867-4" data-name="Rectangle 3867" class="cls-6" width="24" height="24" transform="translate(816 1707)"/>
      <path id="Path_5558-4" data-name="Path 5558" class="cls-7" d="M56,9.4l-3,3-3-3a.967.967,0,0,0-1.4,0h0a.967.967,0,0,0,0,1.4l3.7,3.7a.967.967,0,0,0,1.4,0l3.7-3.7a.967.967,0,0,0,0-1.4h0A.965.965,0,0,0,56,9.4Z" transform="translate(775 1707)"/>
    </g>
    <g id="Group_7899" data-name="Group 7899" transform="translate(-418 -936)">
      <rect id="Rectangle_3867-5" data-name="Rectangle 3867" class="cls-6" width="24" height="24" transform="translate(816 1707)"/>
      <path id="Path_5558-5" data-name="Path 5558" class="cls-7" d="M56,9.4l-3,3-3-3a.967.967,0,0,0-1.4,0h0a.967.967,0,0,0,0,1.4l3.7,3.7a.967.967,0,0,0,1.4,0l3.7-3.7a.967.967,0,0,0,0-1.4h0A.965.965,0,0,0,56,9.4Z" transform="translate(775 1707)"/>
    </g>
    <g id="Group_7900" data-name="Group 7900" transform="translate(-418 -1136)">
      <rect id="Rectangle_3867-6" data-name="Rectangle 3867" class="cls-6" width="24" height="24" transform="translate(816 1707)"/>
      <path id="Path_5558-6" data-name="Path 5558" class="cls-7" d="M56,9.4l-3,3-3-3a.967.967,0,0,0-1.4,0h0a.967.967,0,0,0,0,1.4l3.7,3.7a.967.967,0,0,0,1.4,0l3.7-3.7a.967.967,0,0,0,0-1.4h0A.965.965,0,0,0,56,9.4Z" transform="translate(881 1730.9) rotate(180)"/>
    </g>
    <path id="Path_6893" data-name="Path 6893" class="cls-8" d="M7.014-2.659A2.451,2.451,0,0,1,6.057-.6a4.15,4.15,0,0,1-2.6.738A6.506,6.506,0,0,1,.725-.321V-1.442a7.2,7.2,0,0,0,1.34.41A7.049,7.049,0,0,0,3.5-.882a2.9,2.9,0,0,0,1.75-.441A1.447,1.447,0,0,0,5.838-2.55,1.575,1.575,0,0,0,5.629-3.4a1.937,1.937,0,0,0-.7-.612,9.755,9.755,0,0,0-1.487-.636A4.746,4.746,0,0,1,1.453-5.831a2.611,2.611,0,0,1-.6-1.784,2.219,2.219,0,0,1,.868-1.839,3.608,3.608,0,0,1,2.3-.684,6.769,6.769,0,0,1,2.741.547L6.4-8.579A6.2,6.2,0,0,0,3.992-9.1a2.329,2.329,0,0,0-1.442.4,1.307,1.307,0,0,0-.52,1.1,1.687,1.687,0,0,0,.191.851,1.8,1.8,0,0,0,.646.608,8.026,8.026,0,0,0,1.391.612,5.507,5.507,0,0,1,2.164,1.2A2.366,2.366,0,0,1,7.014-2.659Zm5.038,2.8A3.442,3.442,0,0,1,9.43-.875a3.917,3.917,0,0,1-.96-2.81,4.344,4.344,0,0,1,.892-2.878,2.963,2.963,0,0,1,2.4-1.066,2.825,2.825,0,0,1,2.229.926,3.55,3.55,0,0,1,.82,2.444v.718H9.646a2.97,2.97,0,0,0,.667,2,2.305,2.305,0,0,0,1.781.684,6.035,6.035,0,0,0,2.393-.506V-.349a6.005,6.005,0,0,1-1.138.373A6.4,6.4,0,0,1,12.052.137Zm-.308-6.815a1.853,1.853,0,0,0-1.439.588,2.71,2.71,0,0,0-.632,1.627H13.59a2.5,2.5,0,0,0-.479-1.644A1.684,1.684,0,0,0,11.744-6.679ZM17.876,0H16.741V-10.637h1.135Zm5.571.137A3.442,3.442,0,0,1,20.826-.875a3.917,3.917,0,0,1-.96-2.81,4.344,4.344,0,0,1,.892-2.878,2.963,2.963,0,0,1,2.4-1.066,2.825,2.825,0,0,1,2.229.926,3.55,3.55,0,0,1,.82,2.444v.718H21.041a2.97,2.97,0,0,0,.667,2,2.305,2.305,0,0,0,1.781.684,6.035,6.035,0,0,0,2.393-.506V-.349a6.005,6.005,0,0,1-1.138.373A6.4,6.4,0,0,1,23.447.137ZM23.14-6.679a1.853,1.853,0,0,0-1.439.588,2.71,2.71,0,0,0-.632,1.627h3.917a2.5,2.5,0,0,0-.479-1.644A1.684,1.684,0,0,0,23.14-6.679ZM31.131.137a3.2,3.2,0,0,1-2.519-1A4.118,4.118,0,0,1,27.72-3.7,4.247,4.247,0,0,1,28.625-6.6a3.261,3.261,0,0,1,2.581-1.025,5.121,5.121,0,0,1,1.08.116,3.558,3.558,0,0,1,.848.273l-.349.964a5.336,5.336,0,0,0-.82-.25,3.663,3.663,0,0,0-.786-.1q-2.283,0-2.283,2.912a3.468,3.468,0,0,0,.557,2.119A1.938,1.938,0,0,0,31.1-.854a5.048,5.048,0,0,0,1.921-.4v1A4.094,4.094,0,0,1,31.131.137ZM37.222-.8A3.707,3.707,0,0,0,37.8-.844a3.761,3.761,0,0,0,.444-.092v.868A2.074,2.074,0,0,1,37.7.079a4.081,4.081,0,0,1-.646.058q-2.174,0-2.174-2.29V-6.61H33.811v-.547l1.073-.472.479-1.6h.656v1.736h2.174v.882H36.019V-2.2a1.517,1.517,0,0,0,.321,1.039A1.118,1.118,0,0,0,37.222-.8ZM47.988,0l-.226-1.066h-.055a3.153,3.153,0,0,1-1.118.954A3.407,3.407,0,0,1,45.2.137a2.5,2.5,0,0,1-1.747-.574,2.094,2.094,0,0,1-.632-1.634q0-2.27,3.63-2.379l1.271-.041v-.465a1.9,1.9,0,0,0-.379-1.3,1.56,1.56,0,0,0-1.213-.42A4.944,4.944,0,0,0,44.01-6.1l-.349-.868a5.332,5.332,0,0,1,1.213-.472A5.255,5.255,0,0,1,46.2-7.615a2.854,2.854,0,0,1,1.986.595,2.482,2.482,0,0,1,.646,1.907V0ZM45.425-.8a2.3,2.3,0,0,0,1.665-.581,2.15,2.15,0,0,0,.6-1.627v-.677l-1.135.048a4.128,4.128,0,0,0-1.952.42,1.268,1.268,0,0,0-.6,1.159,1.169,1.169,0,0,0,.373.937A1.546,1.546,0,0,0,45.425-.8ZM59.637-2.044a1.877,1.877,0,0,1-.779,1.613A3.663,3.663,0,0,1,56.67.137a4.757,4.757,0,0,1-2.324-.472V-1.388A5.621,5.621,0,0,0,55.5-.957,4.839,4.839,0,0,0,56.7-.8a2.705,2.705,0,0,0,1.367-.284.938.938,0,0,0,.479-.865.939.939,0,0,0-.379-.749,5.968,5.968,0,0,0-1.48-.735,8.025,8.025,0,0,1-1.487-.68,2.031,2.031,0,0,1-.656-.66,1.72,1.72,0,0,1-.215-.882A1.681,1.681,0,0,1,55.07-7.1a3.472,3.472,0,0,1,2.044-.53,5.98,5.98,0,0,1,2.365.492l-.4.923a5.429,5.429,0,0,0-2.044-.465,2.352,2.352,0,0,0-1.217.253.782.782,0,0,0-.41.7.849.849,0,0,0,.154.513,1.518,1.518,0,0,0,.5.4,11.075,11.075,0,0,0,1.313.554,4.9,4.9,0,0,1,1.8.978A1.724,1.724,0,0,1,59.637-2.044ZM63.9-.8a3.707,3.707,0,0,0,.581-.044,3.761,3.761,0,0,0,.444-.092v.868a2.074,2.074,0,0,1-.543.147,4.081,4.081,0,0,1-.646.058q-2.174,0-2.174-2.29V-6.61H60.491v-.547l1.073-.472.479-1.6H62.7v1.736h2.174v.882H62.7V-2.2a1.517,1.517,0,0,0,.321,1.039A1.118,1.118,0,0,0,63.9-.8Zm7.13.8-.226-1.066h-.055a3.153,3.153,0,0,1-1.118.954,3.407,3.407,0,0,1-1.391.25A2.5,2.5,0,0,1,66.5-.437a2.094,2.094,0,0,1-.632-1.634q0-2.27,3.63-2.379l1.271-.041v-.465a1.9,1.9,0,0,0-.379-1.3,1.56,1.56,0,0,0-1.213-.42,4.944,4.944,0,0,0-2.119.574l-.349-.868a5.332,5.332,0,0,1,1.213-.472,5.255,5.255,0,0,1,1.323-.171,2.854,2.854,0,0,1,1.986.595,2.482,2.482,0,0,1,.646,1.907V0ZM68.469-.8a2.3,2.3,0,0,0,1.665-.581,2.15,2.15,0,0,0,.6-1.627v-.677L69.6-3.637a4.128,4.128,0,0,0-1.952.42,1.268,1.268,0,0,0-.6,1.159,1.169,1.169,0,0,0,.373.937A1.546,1.546,0,0,0,68.469-.8Zm8.162,0a3.707,3.707,0,0,0,.581-.044,3.761,3.761,0,0,0,.444-.092v.868a2.074,2.074,0,0,1-.543.147,4.081,4.081,0,0,1-.646.058q-2.174,0-2.174-2.29V-6.61H73.22v-.547l1.073-.472.479-1.6h.656v1.736H77.6v.882H75.428V-2.2a1.517,1.517,0,0,0,.321,1.039A1.118,1.118,0,0,0,76.631-.8Zm5.688.937A3.442,3.442,0,0,1,79.7-.875a3.917,3.917,0,0,1-.96-2.81,4.344,4.344,0,0,1,.892-2.878,2.963,2.963,0,0,1,2.4-1.066,2.825,2.825,0,0,1,2.229.926,3.55,3.55,0,0,1,.82,2.444v.718H79.912a2.97,2.97,0,0,0,.667,2,2.305,2.305,0,0,0,1.781.684,6.035,6.035,0,0,0,2.393-.506V-.349a6.005,6.005,0,0,1-1.138.373A6.4,6.4,0,0,1,82.318.137Zm-.308-6.815a1.853,1.853,0,0,0-1.439.588,2.71,2.71,0,0,0-.632,1.627h3.917a2.5,2.5,0,0,0-.479-1.644A1.684,1.684,0,0,0,82.011-6.679Z" transform="translate(147 216)"/>
    <path id="Path_6894" data-name="Path 6894" class="cls-8" d="M7.014-2.659A2.451,2.451,0,0,1,6.057-.6a4.15,4.15,0,0,1-2.6.738A6.506,6.506,0,0,1,.725-.321V-1.442a7.2,7.2,0,0,0,1.34.41A7.049,7.049,0,0,0,3.5-.882a2.9,2.9,0,0,0,1.75-.441A1.447,1.447,0,0,0,5.838-2.55,1.575,1.575,0,0,0,5.629-3.4a1.937,1.937,0,0,0-.7-.612,9.755,9.755,0,0,0-1.487-.636A4.746,4.746,0,0,1,1.453-5.831a2.611,2.611,0,0,1-.6-1.784,2.219,2.219,0,0,1,.868-1.839,3.608,3.608,0,0,1,2.3-.684,6.769,6.769,0,0,1,2.741.547L6.4-8.579A6.2,6.2,0,0,0,3.992-9.1a2.329,2.329,0,0,0-1.442.4,1.307,1.307,0,0,0-.52,1.1,1.687,1.687,0,0,0,.191.851,1.8,1.8,0,0,0,.646.608,8.026,8.026,0,0,0,1.391.612,5.507,5.507,0,0,1,2.164,1.2A2.366,2.366,0,0,1,7.014-2.659Zm5.038,2.8A3.442,3.442,0,0,1,9.43-.875a3.917,3.917,0,0,1-.96-2.81,4.344,4.344,0,0,1,.892-2.878,2.963,2.963,0,0,1,2.4-1.066,2.825,2.825,0,0,1,2.229.926,3.55,3.55,0,0,1,.82,2.444v.718H9.646a2.97,2.97,0,0,0,.667,2,2.305,2.305,0,0,0,1.781.684,6.035,6.035,0,0,0,2.393-.506V-.349a6.005,6.005,0,0,1-1.138.373A6.4,6.4,0,0,1,12.052.137Zm-.308-6.815a1.853,1.853,0,0,0-1.439.588,2.71,2.71,0,0,0-.632,1.627H13.59a2.5,2.5,0,0,0-.479-1.644A1.684,1.684,0,0,0,11.744-6.679ZM17.876,0H16.741V-10.637h1.135Zm5.571.137A3.442,3.442,0,0,1,20.826-.875a3.917,3.917,0,0,1-.96-2.81,4.344,4.344,0,0,1,.892-2.878,2.963,2.963,0,0,1,2.4-1.066,2.825,2.825,0,0,1,2.229.926,3.55,3.55,0,0,1,.82,2.444v.718H21.041a2.97,2.97,0,0,0,.667,2,2.305,2.305,0,0,0,1.781.684,6.035,6.035,0,0,0,2.393-.506V-.349a6.005,6.005,0,0,1-1.138.373A6.4,6.4,0,0,1,23.447.137ZM23.14-6.679a1.853,1.853,0,0,0-1.439.588,2.71,2.71,0,0,0-.632,1.627h3.917a2.5,2.5,0,0,0-.479-1.644A1.684,1.684,0,0,0,23.14-6.679ZM31.131.137a3.2,3.2,0,0,1-2.519-1A4.118,4.118,0,0,1,27.72-3.7,4.247,4.247,0,0,1,28.625-6.6a3.261,3.261,0,0,1,2.581-1.025,5.121,5.121,0,0,1,1.08.116,3.558,3.558,0,0,1,.848.273l-.349.964a5.336,5.336,0,0,0-.82-.25,3.663,3.663,0,0,0-.786-.1q-2.283,0-2.283,2.912a3.468,3.468,0,0,0,.557,2.119A1.938,1.938,0,0,0,31.1-.854a5.048,5.048,0,0,0,1.921-.4v1A4.094,4.094,0,0,1,31.131.137ZM37.222-.8A3.707,3.707,0,0,0,37.8-.844a3.761,3.761,0,0,0,.444-.092v.868A2.074,2.074,0,0,1,37.7.079a4.081,4.081,0,0,1-.646.058q-2.174,0-2.174-2.29V-6.61H33.811v-.547l1.073-.472.479-1.6h.656v1.736h2.174v.882H36.019V-2.2a1.517,1.517,0,0,0,.321,1.039A1.118,1.118,0,0,0,37.222-.8ZM47.988,0l-.226-1.066h-.055a3.153,3.153,0,0,1-1.118.954A3.407,3.407,0,0,1,45.2.137a2.5,2.5,0,0,1-1.747-.574,2.094,2.094,0,0,1-.632-1.634q0-2.27,3.63-2.379l1.271-.041v-.465a1.9,1.9,0,0,0-.379-1.3,1.56,1.56,0,0,0-1.213-.42A4.944,4.944,0,0,0,44.01-6.1l-.349-.868a5.332,5.332,0,0,1,1.213-.472A5.255,5.255,0,0,1,46.2-7.615a2.854,2.854,0,0,1,1.986.595,2.482,2.482,0,0,1,.646,1.907V0ZM45.425-.8a2.3,2.3,0,0,0,1.665-.581,2.15,2.15,0,0,0,.6-1.627v-.677l-1.135.048a4.128,4.128,0,0,0-1.952.42,1.268,1.268,0,0,0-.6,1.159,1.169,1.169,0,0,0,.373.937A1.546,1.546,0,0,0,45.425-.8ZM59.637-2.044a1.877,1.877,0,0,1-.779,1.613A3.663,3.663,0,0,1,56.67.137a4.757,4.757,0,0,1-2.324-.472V-1.388A5.621,5.621,0,0,0,55.5-.957,4.839,4.839,0,0,0,56.7-.8a2.705,2.705,0,0,0,1.367-.284.938.938,0,0,0,.479-.865.939.939,0,0,0-.379-.749,5.968,5.968,0,0,0-1.48-.735,8.025,8.025,0,0,1-1.487-.68,2.031,2.031,0,0,1-.656-.66,1.72,1.72,0,0,1-.215-.882A1.681,1.681,0,0,1,55.07-7.1a3.472,3.472,0,0,1,2.044-.53,5.98,5.98,0,0,1,2.365.492l-.4.923a5.429,5.429,0,0,0-2.044-.465,2.352,2.352,0,0,0-1.217.253.782.782,0,0,0-.41.7.849.849,0,0,0,.154.513,1.518,1.518,0,0,0,.5.4,11.075,11.075,0,0,0,1.313.554,4.9,4.9,0,0,1,1.8.978A1.724,1.724,0,0,1,59.637-2.044ZM63.9-.8a3.707,3.707,0,0,0,.581-.044,3.761,3.761,0,0,0,.444-.092v.868a2.074,2.074,0,0,1-.543.147,4.081,4.081,0,0,1-.646.058q-2.174,0-2.174-2.29V-6.61H60.491v-.547l1.073-.472.479-1.6H62.7v1.736h2.174v.882H62.7V-2.2a1.517,1.517,0,0,0,.321,1.039A1.118,1.118,0,0,0,63.9-.8Zm7.13.8-.226-1.066h-.055a3.153,3.153,0,0,1-1.118.954,3.407,3.407,0,0,1-1.391.25A2.5,2.5,0,0,1,66.5-.437a2.094,2.094,0,0,1-.632-1.634q0-2.27,3.63-2.379l1.271-.041v-.465a1.9,1.9,0,0,0-.379-1.3,1.56,1.56,0,0,0-1.213-.42,4.944,4.944,0,0,0-2.119.574l-.349-.868a5.332,5.332,0,0,1,1.213-.472,5.255,5.255,0,0,1,1.323-.171,2.854,2.854,0,0,1,1.986.595,2.482,2.482,0,0,1,.646,1.907V0ZM68.469-.8a2.3,2.3,0,0,0,1.665-.581,2.15,2.15,0,0,0,.6-1.627v-.677L69.6-3.637a4.128,4.128,0,0,0-1.952.42,1.268,1.268,0,0,0-.6,1.159,1.169,1.169,0,0,0,.373.937A1.546,1.546,0,0,0,68.469-.8Zm8.162,0a3.707,3.707,0,0,0,.581-.044,3.761,3.761,0,0,0,.444-.092v.868a2.074,2.074,0,0,1-.543.147,4.081,4.081,0,0,1-.646.058q-2.174,0-2.174-2.29V-6.61H73.22v-.547l1.073-.472.479-1.6h.656v1.736H77.6v.882H75.428V-2.2a1.517,1.517,0,0,0,.321,1.039A1.118,1.118,0,0,0,76.631-.8Zm5.688.937A3.442,3.442,0,0,1,79.7-.875a3.917,3.917,0,0,1-.96-2.81,4.344,4.344,0,0,1,.892-2.878,2.963,2.963,0,0,1,2.4-1.066,2.825,2.825,0,0,1,2.229.926,3.55,3.55,0,0,1,.82,2.444v.718H79.912a2.97,2.97,0,0,0,.667,2,2.305,2.305,0,0,0,1.781.684,6.035,6.035,0,0,0,2.393-.506V-.349a6.005,6.005,0,0,1-1.138.373A6.4,6.4,0,0,1,82.318.137Zm-.308-6.815a1.853,1.853,0,0,0-1.439.588,2.71,2.71,0,0,0-.632,1.627h3.917a2.5,2.5,0,0,0-.479-1.644A1.684,1.684,0,0,0,82.011-6.679Z" transform="translate(147 116)"/>
    <path id="Path_6895" data-name="Path 6895" class="cls-9" d="M7.014-2.659A2.451,2.451,0,0,1,6.057-.6a4.15,4.15,0,0,1-2.6.738A6.506,6.506,0,0,1,.725-.321V-1.442a7.2,7.2,0,0,0,1.34.41A7.049,7.049,0,0,0,3.5-.882a2.9,2.9,0,0,0,1.75-.441A1.447,1.447,0,0,0,5.838-2.55,1.575,1.575,0,0,0,5.629-3.4a1.937,1.937,0,0,0-.7-.612,9.755,9.755,0,0,0-1.487-.636A4.746,4.746,0,0,1,1.453-5.831a2.611,2.611,0,0,1-.6-1.784,2.219,2.219,0,0,1,.868-1.839,3.608,3.608,0,0,1,2.3-.684,6.769,6.769,0,0,1,2.741.547L6.4-8.579A6.2,6.2,0,0,0,3.992-9.1a2.329,2.329,0,0,0-1.442.4,1.307,1.307,0,0,0-.52,1.1,1.687,1.687,0,0,0,.191.851,1.8,1.8,0,0,0,.646.608,8.026,8.026,0,0,0,1.391.612,5.507,5.507,0,0,1,2.164,1.2A2.366,2.366,0,0,1,7.014-2.659Zm5.038,2.8A3.442,3.442,0,0,1,9.43-.875a3.917,3.917,0,0,1-.96-2.81,4.344,4.344,0,0,1,.892-2.878,2.963,2.963,0,0,1,2.4-1.066,2.825,2.825,0,0,1,2.229.926,3.55,3.55,0,0,1,.82,2.444v.718H9.646a2.97,2.97,0,0,0,.667,2,2.305,2.305,0,0,0,1.781.684,6.035,6.035,0,0,0,2.393-.506V-.349a6.005,6.005,0,0,1-1.138.373A6.4,6.4,0,0,1,12.052.137Zm-.308-6.815a1.853,1.853,0,0,0-1.439.588,2.71,2.71,0,0,0-.632,1.627H13.59a2.5,2.5,0,0,0-.479-1.644A1.684,1.684,0,0,0,11.744-6.679ZM17.876,0H16.741V-10.637h1.135Zm5.571.137A3.442,3.442,0,0,1,20.826-.875a3.917,3.917,0,0,1-.96-2.81,4.344,4.344,0,0,1,.892-2.878,2.963,2.963,0,0,1,2.4-1.066,2.825,2.825,0,0,1,2.229.926,3.55,3.55,0,0,1,.82,2.444v.718H21.041a2.97,2.97,0,0,0,.667,2,2.305,2.305,0,0,0,1.781.684,6.035,6.035,0,0,0,2.393-.506V-.349a6.005,6.005,0,0,1-1.138.373A6.4,6.4,0,0,1,23.447.137ZM23.14-6.679a1.853,1.853,0,0,0-1.439.588,2.71,2.71,0,0,0-.632,1.627h3.917a2.5,2.5,0,0,0-.479-1.644A1.684,1.684,0,0,0,23.14-6.679ZM31.131.137a3.2,3.2,0,0,1-2.519-1A4.118,4.118,0,0,1,27.72-3.7,4.247,4.247,0,0,1,28.625-6.6a3.261,3.261,0,0,1,2.581-1.025,5.121,5.121,0,0,1,1.08.116,3.558,3.558,0,0,1,.848.273l-.349.964a5.336,5.336,0,0,0-.82-.25,3.663,3.663,0,0,0-.786-.1q-2.283,0-2.283,2.912a3.468,3.468,0,0,0,.557,2.119A1.938,1.938,0,0,0,31.1-.854a5.048,5.048,0,0,0,1.921-.4v1A4.094,4.094,0,0,1,31.131.137ZM37.222-.8A3.707,3.707,0,0,0,37.8-.844a3.761,3.761,0,0,0,.444-.092v.868A2.074,2.074,0,0,1,37.7.079a4.081,4.081,0,0,1-.646.058q-2.174,0-2.174-2.29V-6.61H33.811v-.547l1.073-.472.479-1.6h.656v1.736h2.174v.882H36.019V-2.2a1.517,1.517,0,0,0,.321,1.039A1.118,1.118,0,0,0,37.222-.8ZM47.988,0l-.226-1.066h-.055a3.153,3.153,0,0,1-1.118.954A3.407,3.407,0,0,1,45.2.137a2.5,2.5,0,0,1-1.747-.574,2.094,2.094,0,0,1-.632-1.634q0-2.27,3.63-2.379l1.271-.041v-.465a1.9,1.9,0,0,0-.379-1.3,1.56,1.56,0,0,0-1.213-.42A4.944,4.944,0,0,0,44.01-6.1l-.349-.868a5.332,5.332,0,0,1,1.213-.472A5.255,5.255,0,0,1,46.2-7.615a2.854,2.854,0,0,1,1.986.595,2.482,2.482,0,0,1,.646,1.907V0ZM45.425-.8a2.3,2.3,0,0,0,1.665-.581,2.15,2.15,0,0,0,.6-1.627v-.677l-1.135.048a4.128,4.128,0,0,0-1.952.42,1.268,1.268,0,0,0-.6,1.159,1.169,1.169,0,0,0,.373.937A1.546,1.546,0,0,0,45.425-.8ZM59.637-2.044a1.877,1.877,0,0,1-.779,1.613A3.663,3.663,0,0,1,56.67.137a4.757,4.757,0,0,1-2.324-.472V-1.388A5.621,5.621,0,0,0,55.5-.957,4.839,4.839,0,0,0,56.7-.8a2.705,2.705,0,0,0,1.367-.284.938.938,0,0,0,.479-.865.939.939,0,0,0-.379-.749,5.968,5.968,0,0,0-1.48-.735,8.025,8.025,0,0,1-1.487-.68,2.031,2.031,0,0,1-.656-.66,1.72,1.72,0,0,1-.215-.882A1.681,1.681,0,0,1,55.07-7.1a3.472,3.472,0,0,1,2.044-.53,5.98,5.98,0,0,1,2.365.492l-.4.923a5.429,5.429,0,0,0-2.044-.465,2.352,2.352,0,0,0-1.217.253.782.782,0,0,0-.41.7.849.849,0,0,0,.154.513,1.518,1.518,0,0,0,.5.4,11.075,11.075,0,0,0,1.313.554,4.9,4.9,0,0,1,1.8.978A1.724,1.724,0,0,1,59.637-2.044ZM63.9-.8a3.707,3.707,0,0,0,.581-.044,3.761,3.761,0,0,0,.444-.092v.868a2.074,2.074,0,0,1-.543.147,4.081,4.081,0,0,1-.646.058q-2.174,0-2.174-2.29V-6.61H60.491v-.547l1.073-.472.479-1.6H62.7v1.736h2.174v.882H62.7V-2.2a1.517,1.517,0,0,0,.321,1.039A1.118,1.118,0,0,0,63.9-.8Zm7.13.8-.226-1.066h-.055a3.153,3.153,0,0,1-1.118.954,3.407,3.407,0,0,1-1.391.25A2.5,2.5,0,0,1,66.5-.437a2.094,2.094,0,0,1-.632-1.634q0-2.27,3.63-2.379l1.271-.041v-.465a1.9,1.9,0,0,0-.379-1.3,1.56,1.56,0,0,0-1.213-.42,4.944,4.944,0,0,0-2.119.574l-.349-.868a5.332,5.332,0,0,1,1.213-.472,5.255,5.255,0,0,1,1.323-.171,2.854,2.854,0,0,1,1.986.595,2.482,2.482,0,0,1,.646,1.907V0ZM68.469-.8a2.3,2.3,0,0,0,1.665-.581,2.15,2.15,0,0,0,.6-1.627v-.677L69.6-3.637a4.128,4.128,0,0,0-1.952.42,1.268,1.268,0,0,0-.6,1.159,1.169,1.169,0,0,0,.373.937A1.546,1.546,0,0,0,68.469-.8Zm8.162,0a3.707,3.707,0,0,0,.581-.044,3.761,3.761,0,0,0,.444-.092v.868a2.074,2.074,0,0,1-.543.147,4.081,4.081,0,0,1-.646.058q-2.174,0-2.174-2.29V-6.61H73.22v-.547l1.073-.472.479-1.6h.656v1.736H77.6v.882H75.428V-2.2a1.517,1.517,0,0,0,.321,1.039A1.118,1.118,0,0,0,76.631-.8Zm5.688.937A3.442,3.442,0,0,1,79.7-.875a3.917,3.917,0,0,1-.96-2.81,4.344,4.344,0,0,1,.892-2.878,2.963,2.963,0,0,1,2.4-1.066,2.825,2.825,0,0,1,2.229.926,3.55,3.55,0,0,1,.82,2.444v.718H79.912a2.97,2.97,0,0,0,.667,2,2.305,2.305,0,0,0,1.781.684,6.035,6.035,0,0,0,2.393-.506V-.349a6.005,6.005,0,0,1-1.138.373A6.4,6.4,0,0,1,82.318.137Zm-.308-6.815a1.853,1.853,0,0,0-1.439.588,2.71,2.71,0,0,0-.632,1.627h3.917a2.5,2.5,0,0,0-.479-1.644A1.684,1.684,0,0,0,82.011-6.679Z" transform="translate(147 788)"/>
    <path id="flat_light" class="cls-10" d="M-44.156,0h-1V-8.566h4.775v.885h-3.779v3.135h3.551v.885h-3.551Zm10.594-3.217a3.543,3.543,0,0,1-.791,2.452,2.786,2.786,0,0,1-2.186.882,2.9,2.9,0,0,1-1.529-.4A2.668,2.668,0,0,1-39.1-1.447a4.043,4.043,0,0,1-.363-1.77,3.537,3.537,0,0,1,.785-2.446,2.777,2.777,0,0,1,2.18-.876,2.717,2.717,0,0,1,2.142.9A3.527,3.527,0,0,1-33.562-3.217Zm-4.893,0a3.048,3.048,0,0,0,.492,1.875A1.708,1.708,0,0,0-36.516-.7a1.72,1.72,0,0,0,1.45-.642,3.033,3.033,0,0,0,.5-1.878,2.984,2.984,0,0,0-.5-1.86,1.74,1.74,0,0,0-1.462-.636,1.712,1.712,0,0,0-1.441.627A3.017,3.017,0,0,0-38.455-3.217ZM-29.291.117A2.741,2.741,0,0,1-31.45-.741a3.53,3.53,0,0,1-.765-2.429,3.64,3.64,0,0,1,.776-2.49,2.8,2.8,0,0,1,2.212-.879,4.389,4.389,0,0,1,.926.1,3.05,3.05,0,0,1,.727.234l-.3.826a4.574,4.574,0,0,0-.7-.214,3.139,3.139,0,0,0-.674-.085q-1.957,0-1.957,2.5a2.972,2.972,0,0,0,.478,1.816,1.661,1.661,0,0,0,1.415.633,4.326,4.326,0,0,0,1.646-.346v.861A3.509,3.509,0,0,1-29.291.117Zm4.061-6.539v4.166a1.676,1.676,0,0,0,.357,1.172A1.456,1.456,0,0,0-23.754-.7a1.826,1.826,0,0,0,1.474-.551,2.778,2.778,0,0,0,.466-1.8V-6.422h.973V0h-.8l-.141-.861h-.053a1.939,1.939,0,0,1-.829.727,2.787,2.787,0,0,1-1.21.252,2.455,2.455,0,0,1-1.755-.557,2.37,2.37,0,0,1-.583-1.781v-4.2Zm10.594,4.67A1.609,1.609,0,0,1-15.3-.369,3.14,3.14,0,0,1-17.18.117a4.077,4.077,0,0,1-1.992-.4v-.9a4.818,4.818,0,0,0,.993.369,4.147,4.147,0,0,0,1.022.135,2.319,2.319,0,0,0,1.172-.243.8.8,0,0,0,.41-.741.8.8,0,0,0-.325-.642,5.115,5.115,0,0,0-1.269-.63,6.879,6.879,0,0,1-1.274-.583A1.741,1.741,0,0,1-19-4.09a1.475,1.475,0,0,1-.185-.756,1.441,1.441,0,0,1,.639-1.239A2.976,2.976,0,0,1-16.8-6.539a5.126,5.126,0,0,1,2.027.422l-.346.791a4.654,4.654,0,0,0-1.752-.4,2.016,2.016,0,0,0-1.043.217.67.67,0,0,0-.352.6.728.728,0,0,0,.132.439,1.3,1.3,0,0,0,.425.346,9.493,9.493,0,0,0,1.125.475,4.2,4.2,0,0,1,1.544.838A1.478,1.478,0,0,1-14.637-1.752ZM-10.342.117A2.95,2.95,0,0,1-12.589-.75a3.357,3.357,0,0,1-.823-2.408,3.723,3.723,0,0,1,.765-2.467,2.54,2.54,0,0,1,2.054-.914,2.422,2.422,0,0,1,1.91.794,3.043,3.043,0,0,1,.7,2.095v.615H-12.4a2.546,2.546,0,0,0,.571,1.717,1.976,1.976,0,0,0,1.526.586,5.172,5.172,0,0,0,2.051-.434V-.3a5.147,5.147,0,0,1-.976.319A5.483,5.483,0,0,1-10.342.117Zm-.264-5.842a1.588,1.588,0,0,0-1.233.5,2.323,2.323,0,0,0-.542,1.395h3.357a2.139,2.139,0,0,0-.41-1.409A1.444,1.444,0,0,0-10.605-5.725ZM-1.951-.861H-2A2.285,2.285,0,0,1-4.02.117a2.384,2.384,0,0,1-1.96-.861,3.791,3.791,0,0,1-.7-2.449,3.855,3.855,0,0,1,.7-2.467A2.366,2.366,0,0,1-4.02-6.539a2.335,2.335,0,0,1,2,.949h.076l-.041-.463L-2-6.5V-9.117h.973V0h-.791ZM-3.9-.7a1.771,1.771,0,0,0,1.444-.542A2.739,2.739,0,0,0-2-2.988v-.205a3.222,3.222,0,0,0-.454-1.948,1.724,1.724,0,0,0-1.45-.583,1.489,1.489,0,0,0-1.31.665,3.307,3.307,0,0,0-.454,1.878,3.17,3.17,0,0,0,.451,1.857A1.528,1.528,0,0,0-3.9-.7Z" transform="translate(102 316)"/>
    <path id="flat_light-2" data-name="flat_light" class="cls-10" d="M-41.109-2.279a2.1,2.1,0,0,1-.82,1.764,3.557,3.557,0,0,1-2.227.633A5.577,5.577,0,0,1-46.5-.275v-.961a6.171,6.171,0,0,0,1.148.352,6.042,6.042,0,0,0,1.23.129,2.483,2.483,0,0,0,1.5-.378,1.24,1.24,0,0,0,.5-1.052,1.35,1.35,0,0,0-.179-.729,1.66,1.66,0,0,0-.6-.524,8.361,8.361,0,0,0-1.274-.545A4.068,4.068,0,0,1-45.876-5a2.238,2.238,0,0,1-.513-1.529A1.9,1.9,0,0,1-45.645-8.1a3.092,3.092,0,0,1,1.969-.586,5.8,5.8,0,0,1,2.35.469l-.311.867A5.31,5.31,0,0,0-43.7-7.8a2,2,0,0,0-1.236.34,1.12,1.12,0,0,0-.445.943,1.446,1.446,0,0,0,.164.729,1.545,1.545,0,0,0,.554.521,6.88,6.88,0,0,0,1.192.524,4.721,4.721,0,0,1,1.854,1.031A2.028,2.028,0,0,1-41.109-2.279Zm4.318,2.4A2.95,2.95,0,0,1-39.038-.75a3.357,3.357,0,0,1-.823-2.408A3.723,3.723,0,0,1-39.1-5.625a2.54,2.54,0,0,1,2.054-.914,2.422,2.422,0,0,1,1.91.794,3.043,3.043,0,0,1,.7,2.095v.615h-4.424a2.546,2.546,0,0,0,.571,1.717,1.976,1.976,0,0,0,1.526.586,5.172,5.172,0,0,0,2.051-.434V-.3a5.147,5.147,0,0,1-.976.319A5.483,5.483,0,0,1-36.791.117Zm-.264-5.842a1.588,1.588,0,0,0-1.233.5,2.323,2.323,0,0,0-.542,1.395h3.357a2.139,2.139,0,0,0-.41-1.409A1.444,1.444,0,0,0-37.055-5.725ZM-31.8,0h-.973V-9.117h.973Zm4.775.117A2.95,2.95,0,0,1-29.271-.75a3.357,3.357,0,0,1-.823-2.408,3.723,3.723,0,0,1,.765-2.467,2.54,2.54,0,0,1,2.054-.914,2.422,2.422,0,0,1,1.91.794,3.043,3.043,0,0,1,.7,2.095v.615h-4.424a2.546,2.546,0,0,0,.571,1.717,1.976,1.976,0,0,0,1.526.586,5.172,5.172,0,0,0,2.051-.434V-.3a5.147,5.147,0,0,1-.976.319A5.483,5.483,0,0,1-27.023.117Zm-.264-5.842a1.588,1.588,0,0,0-1.233.5,2.323,2.323,0,0,0-.542,1.395h3.357a2.139,2.139,0,0,0-.41-1.409A1.444,1.444,0,0,0-27.287-5.725Zm6.85,5.842A2.741,2.741,0,0,1-22.6-.741a3.53,3.53,0,0,1-.765-2.429,3.64,3.64,0,0,1,.776-2.49,2.8,2.8,0,0,1,2.212-.879,4.389,4.389,0,0,1,.926.1,3.05,3.05,0,0,1,.727.234l-.3.826a4.574,4.574,0,0,0-.7-.214,3.139,3.139,0,0,0-.674-.085q-1.957,0-1.957,2.5a2.972,2.972,0,0,0,.478,1.816,1.661,1.661,0,0,0,1.415.633,4.326,4.326,0,0,0,1.646-.346v.861A3.509,3.509,0,0,1-20.437.117Zm5.221-.8a3.177,3.177,0,0,0,.5-.038A3.224,3.224,0,0,0-14.338-.8v.744A1.778,1.778,0,0,1-14.8.067a3.5,3.5,0,0,1-.554.05q-1.863,0-1.863-1.963v-3.82h-.92v-.469l.92-.4.41-1.371h.563v1.488h1.863v.756h-1.863v3.779A1.3,1.3,0,0,0-15.973-1,.958.958,0,0,0-15.217-.686Zm4.875.8A2.95,2.95,0,0,1-12.589-.75a3.357,3.357,0,0,1-.823-2.408,3.723,3.723,0,0,1,.765-2.467,2.54,2.54,0,0,1,2.054-.914,2.422,2.422,0,0,1,1.91.794,3.043,3.043,0,0,1,.7,2.095v.615H-12.4a2.546,2.546,0,0,0,.571,1.717,1.976,1.976,0,0,0,1.526.586,5.172,5.172,0,0,0,2.051-.434V-.3a5.147,5.147,0,0,1-.976.319A5.483,5.483,0,0,1-10.342.117Zm-.264-5.842a1.588,1.588,0,0,0-1.233.5,2.323,2.323,0,0,0-.542,1.395h3.357a2.139,2.139,0,0,0-.41-1.409A1.444,1.444,0,0,0-10.605-5.725ZM-1.951-.861H-2A2.285,2.285,0,0,1-4.02.117a2.384,2.384,0,0,1-1.96-.861,3.791,3.791,0,0,1-.7-2.449,3.855,3.855,0,0,1,.7-2.467A2.366,2.366,0,0,1-4.02-6.539a2.335,2.335,0,0,1,2,.949h.076l-.041-.463L-2-6.5V-9.117h.973V0h-.791ZM-3.9-.7a1.771,1.771,0,0,0,1.444-.542A2.739,2.739,0,0,0-2-2.988v-.205a3.222,3.222,0,0,0-.454-1.948,1.724,1.724,0,0,0-1.45-.583,1.489,1.489,0,0,0-1.31.665,3.307,3.307,0,0,0-.454,1.878,3.17,3.17,0,0,0,.451,1.857A1.528,1.528,0,0,0-3.9-.7Z" transform="translate(102 688)"/>
    <path id="flat_light-3" data-name="flat_light" class="cls-10" d="M-40.641-4.365a4.325,4.325,0,0,1-1.151,3.243A4.555,4.555,0,0,1-45.105,0h-2.373V-8.566h2.625a4.2,4.2,0,0,1,3.105,1.107A4.182,4.182,0,0,1-40.641-4.365ZM-41.7-4.33a3.449,3.449,0,0,0-.841-2.525,3.37,3.37,0,0,0-2.5-.85h-1.447V-.861h1.213a3.688,3.688,0,0,0,2.678-.876A3.468,3.468,0,0,0-41.7-4.33ZM-37.9,0h-.973V-6.422h.973Zm-1.055-8.162a.646.646,0,0,1,.164-.489.573.573,0,0,1,.41-.155.573.573,0,0,1,.4.158.634.634,0,0,1,.17.486.644.644,0,0,1-.17.489.567.567,0,0,1-.4.161.562.562,0,0,1-.41-.161A.658.658,0,0,1-38.959-8.162Zm7.26,6.41a1.609,1.609,0,0,1-.668,1.383,3.14,3.14,0,0,1-1.875.486,4.077,4.077,0,0,1-1.992-.4v-.9a4.818,4.818,0,0,0,.993.369,4.147,4.147,0,0,0,1.022.135,2.319,2.319,0,0,0,1.172-.243.8.8,0,0,0,.41-.741.8.8,0,0,0-.325-.642,5.115,5.115,0,0,0-1.269-.63A6.879,6.879,0,0,1-35.5-3.524a1.741,1.741,0,0,1-.562-.565,1.475,1.475,0,0,1-.185-.756,1.441,1.441,0,0,1,.639-1.239,2.976,2.976,0,0,1,1.752-.454,5.126,5.126,0,0,1,2.027.422l-.346.791a4.654,4.654,0,0,0-1.752-.4,2.016,2.016,0,0,0-1.043.217.67.67,0,0,0-.352.6.728.728,0,0,0,.132.439,1.3,1.3,0,0,0,.425.346,9.493,9.493,0,0,0,1.125.475,4.2,4.2,0,0,1,1.544.838A1.478,1.478,0,0,1-31.7-1.752ZM-26.168,0l-.193-.914h-.047a2.7,2.7,0,0,1-.958.817,2.92,2.92,0,0,1-1.192.214,2.145,2.145,0,0,1-1.5-.492,1.8,1.8,0,0,1-.542-1.4q0-1.945,3.111-2.039l1.09-.035v-.4a1.628,1.628,0,0,0-.325-1.116,1.337,1.337,0,0,0-1.04-.36,4.238,4.238,0,0,0-1.816.492l-.3-.744a4.571,4.571,0,0,1,1.04-.4A4.5,4.5,0,0,1-27.7-6.527a2.446,2.446,0,0,1,1.7.51,2.128,2.128,0,0,1,.554,1.635V0Zm-2.2-.686a1.974,1.974,0,0,0,1.427-.5,1.842,1.842,0,0,0,.519-1.395v-.58l-.973.041a3.538,3.538,0,0,0-1.673.36,1.087,1.087,0,0,0-.513.993,1,1,0,0,0,.319.8A1.326,1.326,0,0,0-28.365-.686Zm7.91-5.842a2.387,2.387,0,0,1,1.966.864,3.793,3.793,0,0,1,.7,2.446A3.821,3.821,0,0,1-18.5-.759a2.378,2.378,0,0,1-1.96.876A2.779,2.779,0,0,1-21.6-.114a2.154,2.154,0,0,1-.87-.712h-.07L-22.746,0h-.7V-9.117h.973V-6.9q0,.744-.047,1.336h.047A2.309,2.309,0,0,1-20.455-6.527Zm-.141.814a1.7,1.7,0,0,0-1.436.571,3.223,3.223,0,0,0-.439,1.925A3.214,3.214,0,0,0-22.02-1.28,1.716,1.716,0,0,0-20.572-.7a1.5,1.5,0,0,0,1.336-.653A3.358,3.358,0,0,0-18.8-3.229,3.227,3.227,0,0,0-19.236-5.1,1.557,1.557,0,0,0-20.6-5.713ZM-15.117,0h-.973V-9.117h.973Zm4.775.117A2.95,2.95,0,0,1-12.589-.75a3.357,3.357,0,0,1-.823-2.408,3.723,3.723,0,0,1,.765-2.467,2.54,2.54,0,0,1,2.054-.914,2.422,2.422,0,0,1,1.91.794,3.043,3.043,0,0,1,.7,2.095v.615H-12.4a2.546,2.546,0,0,0,.571,1.717,1.976,1.976,0,0,0,1.526.586,5.172,5.172,0,0,0,2.051-.434V-.3a5.147,5.147,0,0,1-.976.319A5.483,5.483,0,0,1-10.342.117Zm-.264-5.842a1.588,1.588,0,0,0-1.233.5,2.323,2.323,0,0,0-.542,1.395h3.357a2.139,2.139,0,0,0-.41-1.409A1.444,1.444,0,0,0-10.605-5.725ZM-1.951-.861H-2A2.285,2.285,0,0,1-4.02.117a2.384,2.384,0,0,1-1.96-.861,3.791,3.791,0,0,1-.7-2.449,3.855,3.855,0,0,1,.7-2.467A2.366,2.366,0,0,1-4.02-6.539a2.335,2.335,0,0,1,2,.949h.076l-.041-.463L-2-6.5V-9.117h.973V0h-.791ZM-3.9-.7a1.771,1.771,0,0,0,1.444-.542A2.739,2.739,0,0,0-2-2.988v-.205a3.222,3.222,0,0,0-.454-1.948,1.724,1.724,0,0,0-1.45-.583,1.489,1.489,0,0,0-1.31.665,3.307,3.307,0,0,0-.454,1.878,3.17,3.17,0,0,0,.451,1.857A1.528,1.528,0,0,0-3.9-.7Z" transform="translate(102 788)"/>
    <path id="flat_light-4" data-name="flat_light" class="cls-10" d="M-26.062,0h-1V-4.031H-31.57V0h-1V-8.566h1v3.645h4.512V-8.566h1Zm7.746-3.217a3.543,3.543,0,0,1-.791,2.452,2.786,2.786,0,0,1-2.186.882,2.9,2.9,0,0,1-1.529-.4,2.668,2.668,0,0,1-1.031-1.16,4.043,4.043,0,0,1-.363-1.77,3.537,3.537,0,0,1,.785-2.446,2.777,2.777,0,0,1,2.18-.876,2.717,2.717,0,0,1,2.142.9A3.527,3.527,0,0,1-18.316-3.217Zm-4.893,0a3.048,3.048,0,0,0,.492,1.875A1.708,1.708,0,0,0-21.27-.7a1.72,1.72,0,0,0,1.45-.642,3.033,3.033,0,0,0,.5-1.878,2.984,2.984,0,0,0-.5-1.86,1.74,1.74,0,0,0-1.462-.636,1.712,1.712,0,0,0-1.441.627A3.017,3.017,0,0,0-23.209-3.217Zm8,3.217-2.437-6.422H-16.6l1.383,3.809a18.027,18.027,0,0,1,.551,1.734h.047a13.1,13.1,0,0,1,.407-1.286q.343-.976,1.538-4.257h1.043L-14.068,0Zm7.318.117A2.95,2.95,0,0,1-10.134-.75a3.357,3.357,0,0,1-.823-2.408,3.723,3.723,0,0,1,.765-2.467,2.54,2.54,0,0,1,2.054-.914,2.422,2.422,0,0,1,1.91.794,3.043,3.043,0,0,1,.7,2.095v.615H-9.949a2.546,2.546,0,0,0,.571,1.717,1.976,1.976,0,0,0,1.526.586A5.172,5.172,0,0,0-5.8-1.166V-.3a5.147,5.147,0,0,1-.976.319A5.483,5.483,0,0,1-7.887.117ZM-8.15-5.725a1.588,1.588,0,0,0-1.233.5,2.323,2.323,0,0,0-.542,1.395h3.357a2.139,2.139,0,0,0-.41-1.409A1.444,1.444,0,0,0-8.15-5.725Zm7.213-.814a3.806,3.806,0,0,1,.768.07l-.135.9a3.313,3.313,0,0,0-.7-.088,1.712,1.712,0,0,0-1.333.633,2.307,2.307,0,0,0-.554,1.576V0h-.973V-6.422h.8l.111,1.189h.047A2.823,2.823,0,0,1-2.045-6.2,1.939,1.939,0,0,1-.937-6.539Z" transform="translate(102 216)"/>
    <path id="flat_light-5" data-name="flat_light" class="cls-10" d="M-54.715-8.566v5.543a3.019,3.019,0,0,1-.885,2.3,3.393,3.393,0,0,1-2.432.838,3.244,3.244,0,0,1-2.394-.844,3.129,3.129,0,0,1-.847-2.32v-5.52h1v5.59a2.2,2.2,0,0,0,.586,1.646,2.364,2.364,0,0,0,1.723.574,2.28,2.28,0,0,0,1.67-.577,2.22,2.22,0,0,0,.586-1.655V-8.566ZM-48.2,0V-4.154a1.676,1.676,0,0,0-.357-1.172,1.456,1.456,0,0,0-1.119-.387,1.846,1.846,0,0,0-1.477.545,2.751,2.751,0,0,0-.469,1.8V0h-.973V-6.422h.791l.158.879h.047a1.986,1.986,0,0,1,.838-.735,2.722,2.722,0,0,1,1.2-.261,2.439,2.439,0,0,1,1.746.56,2.381,2.381,0,0,1,.586,1.79V0Zm7.113-1.752a1.609,1.609,0,0,1-.668,1.383,3.14,3.14,0,0,1-1.875.486,4.077,4.077,0,0,1-1.992-.4v-.9a4.818,4.818,0,0,0,.993.369,4.147,4.147,0,0,0,1.022.135,2.319,2.319,0,0,0,1.172-.243.8.8,0,0,0,.41-.741.8.8,0,0,0-.325-.642,5.115,5.115,0,0,0-1.269-.63,6.879,6.879,0,0,1-1.274-.583,1.741,1.741,0,0,1-.562-.565,1.475,1.475,0,0,1-.185-.756A1.441,1.441,0,0,1-45-6.085a2.976,2.976,0,0,1,1.752-.454,5.126,5.126,0,0,1,2.027.422l-.346.791a4.654,4.654,0,0,0-1.752-.4,2.016,2.016,0,0,0-1.043.217.67.67,0,0,0-.352.6.728.728,0,0,0,.132.439,1.3,1.3,0,0,0,.425.346,9.493,9.493,0,0,0,1.125.475,4.2,4.2,0,0,1,1.544.838A1.478,1.478,0,0,1-41.086-1.752ZM-36.791.117A2.95,2.95,0,0,1-39.038-.75a3.357,3.357,0,0,1-.823-2.408A3.723,3.723,0,0,1-39.1-5.625a2.54,2.54,0,0,1,2.054-.914,2.422,2.422,0,0,1,1.91.794,3.043,3.043,0,0,1,.7,2.095v.615h-4.424a2.546,2.546,0,0,0,.571,1.717,1.976,1.976,0,0,0,1.526.586,5.172,5.172,0,0,0,2.051-.434V-.3a5.147,5.147,0,0,1-.976.319A5.483,5.483,0,0,1-36.791.117Zm-.264-5.842a1.588,1.588,0,0,0-1.233.5,2.323,2.323,0,0,0-.542,1.395h3.357a2.139,2.139,0,0,0-.41-1.409A1.444,1.444,0,0,0-37.055-5.725ZM-31.8,0h-.973V-9.117h.973Zm4.775.117A2.95,2.95,0,0,1-29.271-.75a3.357,3.357,0,0,1-.823-2.408,3.723,3.723,0,0,1,.765-2.467,2.54,2.54,0,0,1,2.054-.914,2.422,2.422,0,0,1,1.91.794,3.043,3.043,0,0,1,.7,2.095v.615h-4.424a2.546,2.546,0,0,0,.571,1.717,1.976,1.976,0,0,0,1.526.586,5.172,5.172,0,0,0,2.051-.434V-.3a5.147,5.147,0,0,1-.976.319A5.483,5.483,0,0,1-27.023.117Zm-.264-5.842a1.588,1.588,0,0,0-1.233.5,2.323,2.323,0,0,0-.542,1.395h3.357a2.139,2.139,0,0,0-.41-1.409A1.444,1.444,0,0,0-27.287-5.725Zm6.85,5.842A2.741,2.741,0,0,1-22.6-.741a3.53,3.53,0,0,1-.765-2.429,3.64,3.64,0,0,1,.776-2.49,2.8,2.8,0,0,1,2.212-.879,4.389,4.389,0,0,1,.926.1,3.05,3.05,0,0,1,.727.234l-.3.826a4.574,4.574,0,0,0-.7-.214,3.139,3.139,0,0,0-.674-.085q-1.957,0-1.957,2.5a2.972,2.972,0,0,0,.478,1.816,1.661,1.661,0,0,0,1.415.633,4.326,4.326,0,0,0,1.646-.346v.861A3.509,3.509,0,0,1-20.437.117Zm5.221-.8a3.177,3.177,0,0,0,.5-.038A3.224,3.224,0,0,0-14.338-.8v.744A1.778,1.778,0,0,1-14.8.067a3.5,3.5,0,0,1-.554.05q-1.863,0-1.863-1.963v-3.82h-.92v-.469l.92-.4.41-1.371h.563v1.488h1.863v.756h-1.863v3.779A1.3,1.3,0,0,0-15.973-1,.958.958,0,0,0-15.217-.686Zm4.875.8A2.95,2.95,0,0,1-12.589-.75a3.357,3.357,0,0,1-.823-2.408,3.723,3.723,0,0,1,.765-2.467,2.54,2.54,0,0,1,2.054-.914,2.422,2.422,0,0,1,1.91.794,3.043,3.043,0,0,1,.7,2.095v.615H-12.4a2.546,2.546,0,0,0,.571,1.717,1.976,1.976,0,0,0,1.526.586,5.172,5.172,0,0,0,2.051-.434V-.3a5.147,5.147,0,0,1-.976.319A5.483,5.483,0,0,1-10.342.117Zm-.264-5.842a1.588,1.588,0,0,0-1.233.5,2.323,2.323,0,0,0-.542,1.395h3.357a2.139,2.139,0,0,0-.41-1.409A1.444,1.444,0,0,0-10.605-5.725ZM-1.951-.861H-2A2.285,2.285,0,0,1-4.02.117a2.384,2.384,0,0,1-1.96-.861,3.791,3.791,0,0,1-.7-2.449,3.855,3.855,0,0,1,.7-2.467A2.366,2.366,0,0,1-4.02-6.539a2.335,2.335,0,0,1,2,.949h.076l-.041-.463L-2-6.5V-9.117h.973V0h-.791ZM-3.9-.7a1.771,1.771,0,0,0,1.444-.542A2.739,2.739,0,0,0-2-2.988v-.205a3.222,3.222,0,0,0-.454-1.948,1.724,1.724,0,0,0-1.45-.583,1.489,1.489,0,0,0-1.31.665,3.307,3.307,0,0,0-.454,1.878,3.17,3.17,0,0,0,.451,1.857A1.528,1.528,0,0,0-3.9-.7Z" transform="translate(102 116)"/>
    <path id="flat_light-6" data-name="flat_light" class="cls-10" d="M-44.227-2.279a2.1,2.1,0,0,1-.82,1.764,3.557,3.557,0,0,1-2.227.633,5.577,5.577,0,0,1-2.344-.393v-.961a6.171,6.171,0,0,0,1.148.352,6.042,6.042,0,0,0,1.23.129,2.483,2.483,0,0,0,1.5-.378,1.24,1.24,0,0,0,.5-1.052,1.35,1.35,0,0,0-.179-.729,1.66,1.66,0,0,0-.6-.524,8.361,8.361,0,0,0-1.274-.545A4.068,4.068,0,0,1-48.993-5a2.238,2.238,0,0,1-.513-1.529A1.9,1.9,0,0,1-48.762-8.1a3.092,3.092,0,0,1,1.969-.586,5.8,5.8,0,0,1,2.35.469l-.311.867A5.31,5.31,0,0,0-46.816-7.8a2,2,0,0,0-1.236.34,1.12,1.12,0,0,0-.445.943,1.446,1.446,0,0,0,.164.729,1.545,1.545,0,0,0,.554.521,6.88,6.88,0,0,0,1.192.524,4.721,4.721,0,0,1,1.854,1.031A2.028,2.028,0,0,1-44.227-2.279Zm4.318,2.4A2.95,2.95,0,0,1-42.155-.75a3.357,3.357,0,0,1-.823-2.408,3.723,3.723,0,0,1,.765-2.467,2.54,2.54,0,0,1,2.054-.914,2.422,2.422,0,0,1,1.91.794,3.043,3.043,0,0,1,.7,2.095v.615h-4.424A2.546,2.546,0,0,0-41.4-1.318a1.976,1.976,0,0,0,1.526.586,5.172,5.172,0,0,0,2.051-.434V-.3A5.147,5.147,0,0,1-38.8.021,5.483,5.483,0,0,1-39.908.117Zm-.264-5.842a1.588,1.588,0,0,0-1.233.5,2.323,2.323,0,0,0-.542,1.395h3.357A2.139,2.139,0,0,0-39-5.235,1.444,1.444,0,0,0-40.172-5.725ZM-34.916,0h-.973V-9.117h.973Zm4.775.117A2.95,2.95,0,0,1-32.388-.75a3.357,3.357,0,0,1-.823-2.408,3.723,3.723,0,0,1,.765-2.467,2.54,2.54,0,0,1,2.054-.914,2.422,2.422,0,0,1,1.91.794,3.043,3.043,0,0,1,.7,2.095v.615H-32.2a2.546,2.546,0,0,0,.571,1.717,1.976,1.976,0,0,0,1.526.586,5.172,5.172,0,0,0,2.051-.434V-.3a5.147,5.147,0,0,1-.976.319A5.483,5.483,0,0,1-30.141.117ZM-30.4-5.725a1.588,1.588,0,0,0-1.233.5,2.323,2.323,0,0,0-.542,1.395h3.357a2.139,2.139,0,0,0-.41-1.409A1.444,1.444,0,0,0-30.4-5.725Zm6.85,5.842a2.741,2.741,0,0,1-2.159-.858,3.53,3.53,0,0,1-.765-2.429A3.64,3.64,0,0,1-25.7-5.66a2.8,2.8,0,0,1,2.212-.879,4.389,4.389,0,0,1,.926.1,3.05,3.05,0,0,1,.727.234l-.3.826a4.574,4.574,0,0,0-.7-.214,3.139,3.139,0,0,0-.674-.085q-1.957,0-1.957,2.5a2.972,2.972,0,0,0,.478,1.816,1.661,1.661,0,0,0,1.415.633,4.326,4.326,0,0,0,1.646-.346v.861A3.509,3.509,0,0,1-23.555.117Zm5.221-.8a3.177,3.177,0,0,0,.5-.038A3.224,3.224,0,0,0-17.455-.8v.744a1.778,1.778,0,0,1-.466.126,3.5,3.5,0,0,1-.554.05q-1.863,0-1.863-1.963v-3.82h-.92v-.469l.92-.4.41-1.371h.563v1.488H-17.5v.756h-1.863v3.779A1.3,1.3,0,0,0-19.09-1,.958.958,0,0,0-18.334-.686Zm4.875.8A2.95,2.95,0,0,1-15.706-.75a3.357,3.357,0,0,1-.823-2.408,3.723,3.723,0,0,1,.765-2.467,2.54,2.54,0,0,1,2.054-.914,2.422,2.422,0,0,1,1.91.794,3.043,3.043,0,0,1,.7,2.095v.615h-4.424a2.546,2.546,0,0,0,.571,1.717,1.976,1.976,0,0,0,1.526.586,5.172,5.172,0,0,0,2.051-.434V-.3a5.147,5.147,0,0,1-.976.319A5.483,5.483,0,0,1-13.459.117Zm-.264-5.842a1.588,1.588,0,0,0-1.233.5A2.323,2.323,0,0,0-15.5-3.826h3.357a2.139,2.139,0,0,0-.41-1.409A1.444,1.444,0,0,0-13.723-5.725ZM-5.068-.861h-.053A2.285,2.285,0,0,1-7.137.117,2.384,2.384,0,0,1-9.1-.744a3.791,3.791,0,0,1-.7-2.449,3.855,3.855,0,0,1,.7-2.467,2.366,2.366,0,0,1,1.957-.879,2.335,2.335,0,0,1,2,.949h.076L-5.1-6.053-5.121-6.5V-9.117h.973V0h-.791ZM-7.014-.7a1.771,1.771,0,0,0,1.444-.542,2.739,2.739,0,0,0,.448-1.749v-.205a3.222,3.222,0,0,0-.454-1.948,1.724,1.724,0,0,0-1.45-.583,1.489,1.489,0,0,0-1.31.665,3.307,3.307,0,0,0-.454,1.878,3.17,3.17,0,0,0,.451,1.857A1.528,1.528,0,0,0-7.014-.7ZM-40.277,11.334h-1.635V17h-.973V11.334h-1.148v-.439l1.148-.352v-.357q0-2.367,2.068-2.367a4.256,4.256,0,0,1,1.2.205l-.252.779a3.218,3.218,0,0,0-.961-.182.936.936,0,0,0-.814.366,2.044,2.044,0,0,0-.264,1.175v.416h1.635Zm6.715,2.449a3.543,3.543,0,0,1-.791,2.452,2.786,2.786,0,0,1-2.186.882,2.9,2.9,0,0,1-1.529-.4,2.668,2.668,0,0,1-1.031-1.16,4.043,4.043,0,0,1-.363-1.77,3.537,3.537,0,0,1,.785-2.446,2.777,2.777,0,0,1,2.18-.876,2.717,2.717,0,0,1,2.142.9A3.527,3.527,0,0,1-33.562,13.783Zm-4.893,0a3.048,3.048,0,0,0,.492,1.875,1.708,1.708,0,0,0,1.447.645,1.72,1.72,0,0,0,1.45-.642,3.033,3.033,0,0,0,.5-1.878,2.984,2.984,0,0,0-.5-1.86,1.74,1.74,0,0,0-1.462-.636,1.712,1.712,0,0,0-1.441.627A3.017,3.017,0,0,0-38.455,13.783Zm9.164,3.334a2.741,2.741,0,0,1-2.159-.858,3.53,3.53,0,0,1-.765-2.429,3.64,3.64,0,0,1,.776-2.49,2.8,2.8,0,0,1,2.212-.879,4.389,4.389,0,0,1,.926.1,3.05,3.05,0,0,1,.727.234l-.3.826a4.573,4.573,0,0,0-.7-.214,3.139,3.139,0,0,0-.674-.085q-1.957,0-1.957,2.5a2.972,2.972,0,0,0,.478,1.816,1.661,1.661,0,0,0,1.415.633,4.326,4.326,0,0,0,1.646-.346v.861A3.509,3.509,0,0,1-29.291,17.117Zm4.061-6.539v4.166a1.676,1.676,0,0,0,.357,1.172,1.456,1.456,0,0,0,1.119.387,1.826,1.826,0,0,0,1.474-.551,2.778,2.778,0,0,0,.466-1.8V10.578h.973V17h-.8l-.141-.861h-.053a1.939,1.939,0,0,1-.829.727,2.787,2.787,0,0,1-1.21.252,2.455,2.455,0,0,1-1.755-.557,2.37,2.37,0,0,1-.583-1.781v-4.2Zm10.594,4.67a1.609,1.609,0,0,1-.668,1.383,3.14,3.14,0,0,1-1.875.486,4.077,4.077,0,0,1-1.992-.4v-.9a4.818,4.818,0,0,0,.993.369,4.147,4.147,0,0,0,1.022.135,2.319,2.319,0,0,0,1.172-.243.8.8,0,0,0,.41-.741.8.8,0,0,0-.325-.642,5.115,5.115,0,0,0-1.269-.63,6.879,6.879,0,0,1-1.274-.583A1.741,1.741,0,0,1-19,12.91a1.475,1.475,0,0,1-.185-.756,1.441,1.441,0,0,1,.639-1.239,2.976,2.976,0,0,1,1.752-.454,5.126,5.126,0,0,1,2.027.422l-.346.791a4.654,4.654,0,0,0-1.752-.4,2.016,2.016,0,0,0-1.043.217.67.67,0,0,0-.352.6.728.728,0,0,0,.132.439,1.3,1.3,0,0,0,.425.346,9.493,9.493,0,0,0,1.125.475,4.2,4.2,0,0,1,1.544.838A1.478,1.478,0,0,1-14.637,15.248Zm4.295,1.869a2.95,2.95,0,0,1-2.247-.867,3.357,3.357,0,0,1-.823-2.408,3.723,3.723,0,0,1,.765-2.467,2.54,2.54,0,0,1,2.054-.914,2.422,2.422,0,0,1,1.91.794,3.043,3.043,0,0,1,.7,2.095v.615H-12.4a2.546,2.546,0,0,0,.571,1.717,1.976,1.976,0,0,0,1.526.586,5.172,5.172,0,0,0,2.051-.434V16.7a5.147,5.147,0,0,1-.976.319A5.483,5.483,0,0,1-10.342,17.117Zm-.264-5.842a1.588,1.588,0,0,0-1.233.5,2.323,2.323,0,0,0-.542,1.395h3.357a2.139,2.139,0,0,0-.41-1.409A1.444,1.444,0,0,0-10.605,11.275Zm8.654,4.863H-2a2.285,2.285,0,0,1-2.016.979,2.384,2.384,0,0,1-1.96-.861,3.791,3.791,0,0,1-.7-2.449,3.855,3.855,0,0,1,.7-2.467,2.366,2.366,0,0,1,1.957-.879,2.335,2.335,0,0,1,2,.949h.076l-.041-.463L-2,10.5V7.883h.973V17h-.791ZM-3.9,16.3a1.771,1.771,0,0,0,1.444-.542A2.739,2.739,0,0,0-2,14.012v-.205a3.222,3.222,0,0,0-.454-1.948,1.724,1.724,0,0,0-1.45-.583,1.489,1.489,0,0,0-1.31.665,3.307,3.307,0,0,0-.454,1.878,3.17,3.17,0,0,0,.451,1.857A1.528,1.528,0,0,0-3.9,16.3Z" transform="translate(102 579)"/>
    <g id="Group_7901" data-name="Group 7901" transform="translate(-344 88)">
      <rect id="Rectangle_4061" data-name="Rectangle 4061" class="cls-11" width="101" height="24" rx="2" transform="translate(491 483)"/>
      <text id="Wisconsin" class="cls-12" transform="translate(498 500)"><tspan x="0" y="0">Wisconsin</tspan></text>
      <g id="Group_9" data-name="Group 9" transform="translate(19)">
        <rect id="Rectangle_4600" data-name="Rectangle 4600" class="cls-6" width="18" height="18" transform="translate(550 486)"/>
        <path id="Path_5670" data-name="Path 5670" class="cls-10" d="M548.3,178.3h0a.967.967,0,0,1-1.4,0l-2.9-2.9-2.9,2.9a.967.967,0,0,1-1.4,0h0a.967.967,0,0,1,0-1.4l2.9-2.9-2.9-2.9a.967.967,0,0,1,0-1.4h0a.967.967,0,0,1,1.4,0l2.9,2.9,2.9-2.9a.967.967,0,0,1,1.4,0h0a.967.967,0,0,1,0,1.4l-2.9,2.9,2.9,2.9A.967.967,0,0,1,548.3,178.3Z" transform="translate(15 321)"/>
      </g>
    </g>
    <g id="Group_7902" data-name="Group 7902" transform="translate(-344 188)">
      <rect id="Rectangle_4061-2" data-name="Rectangle 4061" class="cls-11" width="101" height="24" rx="2" transform="translate(491 483)"/>
      <text id="Wisconsin-2" data-name="Wisconsin" class="cls-12" transform="translate(498 500)"><tspan x="0" y="0">Wisconsin</tspan></text>
      <g id="Group_9-2" data-name="Group 9" transform="translate(19)">
        <rect id="Rectangle_4600-2" data-name="Rectangle 4600" class="cls-6" width="18" height="18" transform="translate(550 486)"/>
        <path id="Path_5670-2" data-name="Path 5670" class="cls-10" d="M548.3,178.3h0a.967.967,0,0,1-1.4,0l-2.9-2.9-2.9,2.9a.967.967,0,0,1-1.4,0h0a.967.967,0,0,1,0-1.4l2.9-2.9-2.9-2.9a.967.967,0,0,1,0-1.4h0a.967.967,0,0,1,1.4,0l2.9,2.9,2.9-2.9a.967.967,0,0,1,1.4,0h0a.967.967,0,0,1,0,1.4l-2.9,2.9,2.9,2.9A.967.967,0,0,1,548.3,178.3Z" transform="translate(15 321)"/>
      </g>
    </g>
    <g id="Path_6896" data-name="Path 6896" class="cls-3" transform="translate(132 390)">
      <path class="cls-16" d="M 296 41 L 4 41 C 2.345807790756226 41 1 39.65419387817383 1 38 L 1 4 C 1 2.345807790756226 2.345807790756226 1 4 1 L 296 1 C 297.6542053222656 1 299 2.345807790756226 299 4 L 299 38 C 299 39.65419387817383 297.6542053222656 41 296 41 Z"/>
      <path class="cls-19" d="M 296 40 C 297.1028137207031 40 298 39.10280609130859 298 38 L 298 4 C 298 2.897192239761353 297.1028137207031 2 296 2 L 4 2 C 2.897192239761353 2 2 2.897192239761353 2 4 L 2 38 C 2 39.10280609130859 2.897192239761353 40 4 40 L 296 40 M 296 42 L 4 42 C 1.790884613990784 42 0 40.20915222167969 0 38 L 0 4 C 0 1.790846109390259 1.790884613990784 0 4 0 L 296 0 C 298.2091674804688 0 300 1.790846109390259 300 4 L 300 38 C 300 40.20915222167969 298.2091674804688 42 296 42 Z"/>
    </g>
    <path id="Path_6897" data-name="Path 6897" class="cls-5" d="M7.082-2.714A2.515,2.515,0,0,1,6.118-.622,4.2,4.2,0,0,1,3.459.137,6.345,6.345,0,0,1,.684-.39V-1.935a7.543,7.543,0,0,0,1.453.506,6.159,6.159,0,0,0,1.432.185A2.278,2.278,0,0,0,5-1.613,1.2,1.2,0,0,0,5.462-2.6a1.242,1.242,0,0,0-.424-.95,6.381,6.381,0,0,0-1.75-.923A4.63,4.63,0,0,1,1.36-5.742,2.676,2.676,0,0,1,.8-7.451,2.393,2.393,0,0,1,1.688-9.42a3.686,3.686,0,0,1,2.386-.718,7.01,7.01,0,0,1,2.857.629l-.52,1.333a6.243,6.243,0,0,0-2.379-.561,1.826,1.826,0,0,0-1.2.345,1.134,1.134,0,0,0-.41.913,1.285,1.285,0,0,0,.164.667,1.676,1.676,0,0,0,.54.523,9.135,9.135,0,0,0,1.354.649,7.406,7.406,0,0,1,1.613.854,2.513,2.513,0,0,1,.752.9A2.694,2.694,0,0,1,7.082-2.714Zm4.58,1.552a3.907,3.907,0,0,0,1.176-.185v1.21a3.243,3.243,0,0,1-.687.195,4.733,4.733,0,0,1-.872.079Q9,.137,9-2.27V-6.344H7.964v-.711l1.107-.588.547-1.6h.991v1.682h2.153v1.217H10.609V-2.3a1.135,1.135,0,0,0,.291.858A1.059,1.059,0,0,0,11.662-1.162ZM19.079,0l-.321-1.053H18.7a3.1,3.1,0,0,1-1.1.94,3.481,3.481,0,0,1-1.422.25,2.406,2.406,0,0,1-1.74-.6,2.251,2.251,0,0,1-.625-1.7,2,2,0,0,1,.868-1.764,5.006,5.006,0,0,1,2.646-.649l1.306-.041v-.4A1.529,1.529,0,0,0,18.3-6.108a1.38,1.38,0,0,0-1.049-.359,3.628,3.628,0,0,0-1.114.171,8.409,8.409,0,0,0-1.025.4l-.52-1.148a5.591,5.591,0,0,1,1.347-.489A6.2,6.2,0,0,1,17.315-7.7a3.27,3.27,0,0,1,2.177.629,2.462,2.462,0,0,1,.735,1.976V0ZM16.687-1.094a1.99,1.99,0,0,0,1.4-.489,1.772,1.772,0,0,0,.53-1.371v-.656l-.971.041A3.321,3.321,0,0,0,16-3.189a1.153,1.153,0,0,0-.516,1.036,1.011,1.011,0,0,0,.3.783A1.292,1.292,0,0,0,16.687-1.094Zm8.6-.068a3.907,3.907,0,0,0,1.176-.185v1.21a3.243,3.243,0,0,1-.687.195A4.733,4.733,0,0,1,24.9.137Q22.62.137,22.62-2.27V-6.344H21.588v-.711L22.7-7.643l.547-1.6h.991v1.682h2.153v1.217H24.233V-2.3a1.135,1.135,0,0,0,.291.858A1.059,1.059,0,0,0,25.286-1.162Zm5.988,1.3A3.657,3.657,0,0,1,28.516-.892a3.906,3.906,0,0,1-.995-2.833,4.285,4.285,0,0,1,.923-2.912A3.188,3.188,0,0,1,30.98-7.7a3.116,3.116,0,0,1,2.365.909,3.474,3.474,0,0,1,.868,2.5v.868H29.176a2.483,2.483,0,0,0,.595,1.692,2.071,2.071,0,0,0,1.579.591A5.829,5.829,0,0,0,32.6-1.261a6.539,6.539,0,0,0,1.241-.42V-.376a4.932,4.932,0,0,1-1.189.4A7.294,7.294,0,0,1,31.274.137ZM30.98-6.48A1.614,1.614,0,0,0,29.753-6,2.313,2.313,0,0,0,29.2-4.58h3.432A2.093,2.093,0,0,0,32.184-6,1.543,1.543,0,0,0,30.98-6.48Z" transform="translate(132 382)"/>
    <path id="Path_6898" data-name="Path 6898" class="cls-5" d="M0,0H1V18H0Z" transform="translate(147 402)"/>
    <g id="Group_7903" data-name="Group 7903" transform="translate(-418 -1308)">
      <rect id="Rectangle_3867-7" data-name="Rectangle 3867" class="cls-6" width="24" height="24" transform="translate(816 1707)"/>
      <path id="Path_5558-7" data-name="Path 5558" class="cls-7" d="M56,9.4l-3,3-3-3a.967.967,0,0,0-1.4,0h0a.967.967,0,0,0,0,1.4l3.7,3.7a.967.967,0,0,0,1.4,0l3.7-3.7a.967.967,0,0,0,0-1.4h0A.965.965,0,0,0,56,9.4Z" transform="translate(881 1730.9) rotate(180)"/>
    </g>
    <path id="flat_light-7" data-name="flat_light" class="cls-10" d="M-26.76,0l-1.066-2.725H-31.26L-32.314,0h-1.008l3.387-8.6h.838L-25.729,0Zm-1.377-3.621-1-2.654q-.193-.5-.4-1.236A11.1,11.1,0,0,1-29.9-6.275l-1.008,2.654ZM-22.131.117A2.741,2.741,0,0,1-24.29-.741a3.53,3.53,0,0,1-.765-2.429,3.64,3.64,0,0,1,.776-2.49,2.8,2.8,0,0,1,2.212-.879,4.389,4.389,0,0,1,.926.1,3.05,3.05,0,0,1,.727.234l-.3.826a4.574,4.574,0,0,0-.7-.214,3.139,3.139,0,0,0-.674-.085q-1.957,0-1.957,2.5a2.972,2.972,0,0,0,.478,1.816,1.661,1.661,0,0,0,1.415.633,4.326,4.326,0,0,0,1.646-.346v.861A3.509,3.509,0,0,1-22.131.117Zm5.221-.8a3.177,3.177,0,0,0,.5-.038A3.224,3.224,0,0,0-16.031-.8v.744A1.778,1.778,0,0,1-16.5.067a3.5,3.5,0,0,1-.554.05q-1.863,0-1.863-1.963v-3.82h-.92v-.469l.92-.4.41-1.371h.563v1.488h1.863v.756h-1.863v3.779A1.3,1.3,0,0,0-17.666-1,.958.958,0,0,0-16.91-.686ZM-13.775,0h-.973V-6.422h.973ZM-14.83-8.162a.646.646,0,0,1,.164-.489.573.573,0,0,1,.41-.155.573.573,0,0,1,.4.158.634.634,0,0,1,.17.486.644.644,0,0,1-.17.489.567.567,0,0,1-.4.161.562.562,0,0,1-.41-.161A.658.658,0,0,1-14.83-8.162ZM-10.307,0l-2.437-6.422H-11.7l1.383,3.809A18.027,18.027,0,0,1-9.768-.879h.047a13.1,13.1,0,0,1,.407-1.286q.343-.976,1.538-4.257h1.043L-9.17,0Zm7.318.117A2.95,2.95,0,0,1-5.235-.75a3.357,3.357,0,0,1-.823-2.408,3.723,3.723,0,0,1,.765-2.467A2.54,2.54,0,0,1-3.24-6.539a2.422,2.422,0,0,1,1.91.794,3.043,3.043,0,0,1,.7,2.095v.615H-5.051a2.546,2.546,0,0,0,.571,1.717,1.976,1.976,0,0,0,1.526.586A5.172,5.172,0,0,0-.9-1.166V-.3a5.147,5.147,0,0,1-.976.319A5.483,5.483,0,0,1-2.988.117Zm-.264-5.842a1.588,1.588,0,0,0-1.233.5,2.323,2.323,0,0,0-.542,1.395H-1.67a2.139,2.139,0,0,0-.41-1.409A1.444,1.444,0,0,0-3.252-5.725Z" transform="translate(102 416)"/>
    <g id="Group_7904" data-name="Group 7904">
      <g id="Mask_Group_1" data-name="Mask Group 1" class="cls-13">
        <g id="Group_7832" data-name="Group 7832" transform="translate(0 300)">
          <g class="cls-20" transform="matrix(1, 0, 0, 1, 0, -300)">
            <rect id="Rectangle_4851-2" data-name="Rectangle 4851" class="cls-14" width="300" height="298" rx="4" transform="translate(132 432)"/>
          </g>
          <g id="Group_7832-2" data-name="Group 7832" transform="translate(-94 -80)">
            <rect id="Rectangle_4665" data-name="Rectangle 4665" class="cls-14" width="285" height="36" transform="translate(226 217)"/>
            <text id="Alaska" class="cls-12" transform="translate(276 239)"><tspan x="0" y="0">Alaska</tspan></text>
            <rect id="Rectangle_4469" data-name="Rectangle 4469" class="cls-6" width="24" height="24" transform="translate(241 223)"/>
            <path id="Path_5842" data-name="Path 5842" class="cls-9" d="M17.5,2a.472.472,0,0,1,.5.5v15a.472.472,0,0,1-.5.5H2.5a.472.472,0,0,1-.5-.5V2.5A.472.472,0,0,1,2.5,2h15m0-2H2.5A2.476,2.476,0,0,0,0,2.5v15A2.476,2.476,0,0,0,2.5,20h15A2.476,2.476,0,0,0,20,17.5V2.5A2.476,2.476,0,0,0,17.5,0Z" transform="translate(243 225)"/>
          </g>
          <g id="Group_7833" data-name="Group 7833" transform="translate(-94 -44)">
            <rect id="Rectangle_4665-2" data-name="Rectangle 4665" class="cls-14" width="285" height="36" transform="translate(226 217)"/>
            <text id="Alabama" class="cls-12" transform="translate(276 239)"><tspan x="0" y="0">Alabama</tspan></text>
            <rect id="Rectangle_4469-2" data-name="Rectangle 4469" class="cls-6" width="24" height="24" transform="translate(241 223)"/>
            <path id="Path_5842-2" data-name="Path 5842" class="cls-9" d="M17.5,2a.472.472,0,0,1,.5.5v15a.472.472,0,0,1-.5.5H2.5a.472.472,0,0,1-.5-.5V2.5A.472.472,0,0,1,2.5,2h15m0-2H2.5A2.476,2.476,0,0,0,0,2.5v15A2.476,2.476,0,0,0,2.5,20h15A2.476,2.476,0,0,0,20,17.5V2.5A2.476,2.476,0,0,0,17.5,0Z" transform="translate(243 225)"/>
          </g>
          <g id="Group_7834" data-name="Group 7834" transform="translate(-94 -8)">
            <rect id="Rectangle_4665-3" data-name="Rectangle 4665" class="cls-14" width="285" height="36" transform="translate(226 217)"/>
            <text id="Arizona" class="cls-12" transform="translate(276 239)"><tspan x="0" y="0">Arizona</tspan></text>
            <path id="Path_6473" data-name="Path 6473" class="cls-6" d="M0,0H24V24H0Z" transform="translate(241 223)"/>
            <path id="Path_5842-3" data-name="Path 5842" class="cls-9" d="M17.5,2a.472.472,0,0,1,.5.5v15a.472.472,0,0,1-.5.5H2.5a.472.472,0,0,1-.5-.5V2.5A.472.472,0,0,1,2.5,2h15m0-2H2.5A2.476,2.476,0,0,0,0,2.5v15A2.476,2.476,0,0,0,2.5,20h15A2.476,2.476,0,0,0,20,17.5V2.5A2.476,2.476,0,0,0,17.5,0Z" transform="translate(243 225)"/>
          </g>
          <g id="Group_7835" data-name="Group 7835" transform="translate(-94 28)">
            <rect id="Rectangle_4665-4" data-name="Rectangle 4665" class="cls-14" width="285" height="36" transform="translate(226 217)"/>
            <text id="California" class="cls-12" transform="translate(276 239)"><tspan x="0" y="0">California</tspan></text>
            <rect id="Rectangle_4469-3" data-name="Rectangle 4469" class="cls-6" width="24" height="24" transform="translate(241 223)"/>
            <path id="Path_5842-4" data-name="Path 5842" class="cls-9" d="M17.5,2a.472.472,0,0,1,.5.5v15a.472.472,0,0,1-.5.5H2.5a.472.472,0,0,1-.5-.5V2.5A.472.472,0,0,1,2.5,2h15m0-2H2.5A2.476,2.476,0,0,0,0,2.5v15A2.476,2.476,0,0,0,2.5,20h15A2.476,2.476,0,0,0,20,17.5V2.5A2.476,2.476,0,0,0,17.5,0Z" transform="translate(243 225)"/>
          </g>
          <g id="Group_7836" data-name="Group 7836" transform="translate(-94 64)">
            <rect id="Rectangle_4665-5" data-name="Rectangle 4665" class="cls-14" width="285" height="36" transform="translate(226 217)"/>
            <text id="Colorado" class="cls-12" transform="translate(276 239)"><tspan x="0" y="0">Colorado</tspan></text>
            <rect id="Rectangle_4469-4" data-name="Rectangle 4469" class="cls-6" width="24" height="24" transform="translate(241 223)"/>
            <path id="Path_5842-5" data-name="Path 5842" class="cls-9" d="M17.5,2a.472.472,0,0,1,.5.5v15a.472.472,0,0,1-.5.5H2.5a.472.472,0,0,1-.5-.5V2.5A.472.472,0,0,1,2.5,2h15m0-2H2.5A2.476,2.476,0,0,0,0,2.5v15A2.476,2.476,0,0,0,2.5,20h15A2.476,2.476,0,0,0,20,17.5V2.5A2.476,2.476,0,0,0,17.5,0Z" transform="translate(243 225)"/>
          </g>
          <g id="Group_7837" data-name="Group 7837" transform="translate(-94 100)">
            <rect id="Rectangle_4665-6" data-name="Rectangle 4665" class="cls-14" width="285" height="36" transform="translate(226 217)"/>
            <text id="Connecticut" class="cls-12" transform="translate(276 239)"><tspan x="0" y="0">Connecticut</tspan></text>
            <rect id="Rectangle_4469-5" data-name="Rectangle 4469" class="cls-6" width="24" height="24" transform="translate(241 223)"/>
            <path id="Path_5842-6" data-name="Path 5842" class="cls-9" d="M17.5,2a.472.472,0,0,1,.5.5v15a.472.472,0,0,1-.5.5H2.5a.472.472,0,0,1-.5-.5V2.5A.472.472,0,0,1,2.5,2h15m0-2H2.5A2.476,2.476,0,0,0,0,2.5v15A2.476,2.476,0,0,0,2.5,20h15A2.476,2.476,0,0,0,20,17.5V2.5A2.476,2.476,0,0,0,17.5,0Z" transform="translate(243 225)"/>
          </g>
          <g id="Group_7838" data-name="Group 7838" transform="translate(-94 136)">
            <rect id="Rectangle_4665-7" data-name="Rectangle 4665" class="cls-14" width="285" height="36" transform="translate(226 217)"/>
            <text id="Delaware" class="cls-12" transform="translate(276 239)"><tspan x="0" y="0">Delaware</tspan></text>
            <rect id="Rectangle_4469-6" data-name="Rectangle 4469" class="cls-6" width="24" height="24" transform="translate(241 223)"/>
            <path id="Path_5842-7" data-name="Path 5842" class="cls-9" d="M17.5,2a.472.472,0,0,1,.5.5v15a.472.472,0,0,1-.5.5H2.5a.472.472,0,0,1-.5-.5V2.5A.472.472,0,0,1,2.5,2h15m0-2H2.5A2.476,2.476,0,0,0,0,2.5v15A2.476,2.476,0,0,0,2.5,20h15A2.476,2.476,0,0,0,20,17.5V2.5A2.476,2.476,0,0,0,17.5,0Z" transform="translate(243 225)"/>
          </g>
          <g id="Group_7839" data-name="Group 7839" transform="translate(-94 172)">
            <rect id="Rectangle_4665-8" data-name="Rectangle 4665" class="cls-14" width="285" height="36" transform="translate(226 217)"/>
            <text id="Florida" class="cls-12" transform="translate(276 239)"><tspan x="0" y="0">Florida</tspan></text>
            <rect id="Rectangle_4469-7" data-name="Rectangle 4469" class="cls-6" width="24" height="24" transform="translate(241 223)"/>
            <path id="Path_5842-8" data-name="Path 5842" class="cls-9" d="M17.5,2a.472.472,0,0,1,.5.5v15a.472.472,0,0,1-.5.5H2.5a.472.472,0,0,1-.5-.5V2.5A.472.472,0,0,1,2.5,2h15m0-2H2.5A2.476,2.476,0,0,0,0,2.5v15A2.476,2.476,0,0,0,2.5,20h15A2.476,2.476,0,0,0,20,17.5V2.5A2.476,2.476,0,0,0,17.5,0Z" transform="translate(243 225)"/>
          </g>
          <rect id="Rectangle_4852" data-name="Rectangle 4852" class="cls-7" width="5" height="100" rx="2.5" transform="translate(422 137)"/>
          <rect id="Rectangle_4853" data-name="Rectangle 4853" class="cls-6" width="24" height="24" transform="translate(147 215)"/>
        </g>
        <rect id="Rectangle_4848" data-name="Rectangle 4848" class="cls-15" width="336" height="76" transform="translate(121 446)"/>
      </g>
    </g>
  </g>
</svg>
