<svg xmlns="http://www.w3.org/2000/svg" xmlns:xlink="http://www.w3.org/1999/xlink" width="564" height="535" viewBox="0 0 564 535">
  <defs>
    <filter id="Rectangle_8140" x="123" y="126" width="318" height="316" filterUnits="userSpaceOnUse">
      <feOffset dy="3" input="SourceAlpha"/>
      <feGaussianBlur stdDeviation="3" result="blur"/>
      <feFlood flood-opacity="0.161"/>
      <feComposite operator="in" in2="blur"/>
      <feComposite in="SourceGraphic"/>
    </filter>
    <clipPath id="clip-multiselect_list_states">
      <rect width="564" height="535"/>
    </clipPath>
  </defs>
  <g id="multiselect_list_states" clip-path="url(#clip-multiselect_list_states)">
    <rect width="564" height="535" fill="#fff"/>
    <g id="Group_15354" data-name="Group 15354" transform="translate(-6935 1685)">
      <g transform="matrix(1, 0, 0, 1, 6935, -1685)" filter="url(#Rectangle_8140)">
        <rect id="Rectangle_8140-2" data-name="Rectangle 8140" width="300" height="298" rx="4" transform="translate(132 132)" fill="#fff"/>
      </g>
      <rect id="Rectangle_8158" data-name="Rectangle 8158" width="300" height="36" transform="translate(7067 -1404)" fill="#f4f4f6"/>
      <g id="Group_15350" data-name="Group 15350" transform="translate(7067 -1595)">
        <g id="Rectangle_288" data-name="Rectangle 288" fill="#fff" stroke="#4e92df" stroke-width="2">
          <rect width="300" height="42" rx="4" stroke="none"/>
          <rect x="1" y="1" width="298" height="40" rx="3" fill="none"/>
        </g>
        <g id="Group_7793" data-name="Group 7793" transform="translate(266 9)">
          <rect id="Rectangle_3867" data-name="Rectangle 3867" width="24" height="24" fill="none"/>
          <path id="Path_5558" data-name="Path 5558" d="M56,9.4l-3,3-3-3a.967.967,0,0,0-1.4,0h0a.967.967,0,0,0,0,1.4l3.7,3.7a.967.967,0,0,0,1.4,0l3.7-3.7a.967.967,0,0,0,0-1.4h0A.965.965,0,0,0,56,9.4Z" transform="translate(65 23.9) rotate(180)" fill="#9494a4"/>
        </g>
      </g>
      <g id="Group_15352" data-name="Group 15352" transform="translate(3816 -1934)">
        <rect id="Rectangle_8132" data-name="Rectangle 8132" width="99" height="24" rx="2" transform="translate(3266 348)" fill="#eaeaea"/>
        <g id="Remove" transform="translate(3355 363)">
          <g id="Remove-2" data-name="Remove" transform="translate(-8 -8)">
            <path id="Path_10244" data-name="Path 10244" d="M9.933,8.934a.25.25,0,0,1,0,.312l-.624.624a.25.25,0,0,1-.312,0L5,6,1.066,9.933a.25.25,0,0,1-.312,0L.129,9.309A.25.25,0,0,1,.129,9L4,5,.067,1.066a.25.25,0,0,1,0-.312L.691.129A.25.25,0,0,1,1,.129L5,4,8.934.067a.25.25,0,0,1,.312,0l.624.624a.25.25,0,0,1,0,.312L6,5Z" transform="translate(-2 0)" fill="#b2b2b2"/>
            <rect id="Rectangle_8133" data-name="Rectangle 8133" width="10" height="10" transform="translate(-2)" fill="none"/>
          </g>
        </g>
        <text id="Wisconsin" transform="translate(3273 365)" fill="#31313a" font-size="14" font-family="SegoeUI, Segoe UI"><tspan x="0" y="0">Wisconsin</tspan></text>
      </g>
      <rect id="Rectangle_8152" data-name="Rectangle 8152" width="285" height="36" transform="translate(7067 -1332)" fill="#fff"/>
      <text id="Delaware" transform="translate(7112 -1310)" fill="#494955" font-size="14" font-family="SegoeUI, Segoe UI"><tspan x="0" y="0">Delaware</tspan></text>
      <rect id="Rectangle_8153" data-name="Rectangle 8153" width="24" height="24" transform="translate(7077 -1326)" fill="none"/>
      <path id="Path_10330" data-name="Path 10330" d="M17.5,2a.472.472,0,0,1,.5.5v15a.472.472,0,0,1-.5.5H2.5a.472.472,0,0,1-.5-.5V2.5A.472.472,0,0,1,2.5,2h15m0-2H2.5A2.476,2.476,0,0,0,0,2.5v15A2.476,2.476,0,0,0,2.5,20h15A2.476,2.476,0,0,0,20,17.5V2.5A2.476,2.476,0,0,0,17.5,0Z" transform="translate(7079 -1324)" fill="#9494a4"/>
      <rect id="Rectangle_8154" data-name="Rectangle 8154" width="285" height="36" transform="translate(7067 -1296)" fill="#fff"/>
      <text id="Florida" transform="translate(7112 -1274)" fill="#494955" font-size="14" font-family="SegoeUI, Segoe UI"><tspan x="0" y="0">Florida</tspan></text>
      <rect id="Rectangle_8155" data-name="Rectangle 8155" width="24" height="24" transform="translate(7077 -1290)" fill="none"/>
      <path id="Path_10331" data-name="Path 10331" d="M17.5,2a.472.472,0,0,1,.5.5v15a.472.472,0,0,1-.5.5H2.5a.472.472,0,0,1-.5-.5V2.5A.472.472,0,0,1,2.5,2h15m0-2H2.5A2.476,2.476,0,0,0,0,2.5v15A2.476,2.476,0,0,0,2.5,20h15A2.476,2.476,0,0,0,20,17.5V2.5A2.476,2.476,0,0,0,17.5,0Z" transform="translate(7079 -1288)" fill="#9494a4"/>
      <text id="State" transform="translate(7067 -1603)" fill="#31313a" font-size="14" font-family="SegoeUI-Semibold, Segoe UI" font-weight="600"><tspan x="0" y="0">State</tspan></text>
      <rect id="Rectangle_8141" data-name="Rectangle 8141" width="285" height="36" transform="translate(7067 -1548)" fill="#fff"/>
      <text id="Alaska" transform="translate(7112 -1526)" fill="#494955" font-size="14" font-family="SegoeUI, Segoe UI"><tspan x="0" y="0">Alaska</tspan></text>
      <rect id="Rectangle_8142" data-name="Rectangle 8142" width="24" height="24" transform="translate(7077 -1542)" fill="none"/>
      <path id="Path_10322" data-name="Path 10322" d="M17.5,2a.472.472,0,0,1,.5.5v15a.472.472,0,0,1-.5.5H2.5a.472.472,0,0,1-.5-.5V2.5A.472.472,0,0,1,2.5,2h15m0-2H2.5A2.476,2.476,0,0,0,0,2.5v15A2.476,2.476,0,0,0,2.5,20h15A2.476,2.476,0,0,0,20,17.5V2.5A2.476,2.476,0,0,0,17.5,0Z" transform="translate(7079 -1540)" fill="#9494a4"/>
      <rect id="Rectangle_8143" data-name="Rectangle 8143" width="285" height="36" transform="translate(7067 -1512)" fill="#fff"/>
      <text id="Alabama" transform="translate(7112 -1490)" fill="#494955" font-size="14" font-family="SegoeUI-Semibold, Segoe UI" font-weight="600"><tspan x="0" y="0">Alabama</tspan></text>
      <rect id="Rectangle_8144" data-name="Rectangle 8144" width="24" height="24" transform="translate(7077 -1506)" fill="none"/>
      <path id="Path_10323" data-name="Path 10323" d="M17.5,2a.472.472,0,0,1,.5.5v15a.472.472,0,0,1-.5.5H2.5a.472.472,0,0,1-.5-.5V2.5A.472.472,0,0,1,2.5,2h15m0-2H2.5A2.476,2.476,0,0,0,0,2.5v15A2.476,2.476,0,0,0,2.5,20h15A2.476,2.476,0,0,0,20,17.5V2.5A2.476,2.476,0,0,0,17.5,0Z" transform="translate(7079 -1504)" fill="#999"/>
      <path id="Path_10324" data-name="Path 10324" d="M42.7,0h-15a2.476,2.476,0,0,0-2.5,2.5v15A2.476,2.476,0,0,0,27.7,20h15a2.476,2.476,0,0,0,2.5-2.5V2.5A2.476,2.476,0,0,0,42.7,0ZM41.4,7.1l-7.3,7.3a.967.967,0,0,1-1.4,0l-3.6-3.6a.99.99,0,0,1,1.4-1.4l2.9,2.9L40,5.7a.967.967,0,0,1,1.4,0A1.2,1.2,0,0,1,41.4,7.1Z" transform="translate(7053.8 -1504)" fill="#2777d3"/>
      <rect id="Rectangle_8145" data-name="Rectangle 8145" width="285" height="36" transform="translate(7067 -1476)" fill="#fff"/>
      <text id="Arizona" transform="translate(7112 -1454)" fill="#494955" font-size="14" font-family="SegoeUI, Segoe UI"><tspan x="0" y="0">Arizona</tspan></text>
      <path id="Path_10325" data-name="Path 10325" d="M0,0H24V24H0Z" transform="translate(7077 -1470)" fill="none"/>
      <path id="Path_10326" data-name="Path 10326" d="M17.5,2a.472.472,0,0,1,.5.5v15a.472.472,0,0,1-.5.5H2.5a.472.472,0,0,1-.5-.5V2.5A.472.472,0,0,1,2.5,2h15m0-2H2.5A2.476,2.476,0,0,0,0,2.5v15A2.476,2.476,0,0,0,2.5,20h15A2.476,2.476,0,0,0,20,17.5V2.5A2.476,2.476,0,0,0,17.5,0Z" transform="translate(7079 -1468)" fill="#9494a4"/>
      <rect id="Rectangle_8146" data-name="Rectangle 8146" width="285" height="36" transform="translate(7067 -1440)" fill="#fff"/>
      <text id="California" transform="translate(7112 -1418)" fill="#494955" font-size="14" font-family="SegoeUI, Segoe UI"><tspan x="0" y="0">California</tspan></text>
      <rect id="Rectangle_8147" data-name="Rectangle 8147" width="24" height="24" transform="translate(7077 -1434)" fill="none"/>
      <path id="Path_10327" data-name="Path 10327" d="M17.5,2a.472.472,0,0,1,.5.5v15a.472.472,0,0,1-.5.5H2.5a.472.472,0,0,1-.5-.5V2.5A.472.472,0,0,1,2.5,2h15m0-2H2.5A2.476,2.476,0,0,0,0,2.5v15A2.476,2.476,0,0,0,2.5,20h15A2.476,2.476,0,0,0,20,17.5V2.5A2.476,2.476,0,0,0,17.5,0Z" transform="translate(7079 -1432)" fill="#9494a4"/>
      <text id="Colorado" transform="translate(7112 -1382)" fill="#494955" font-size="14" font-family="SegoeUI, Segoe UI"><tspan x="0" y="0">Colorado</tspan></text>
      <rect id="Rectangle_8149" data-name="Rectangle 8149" width="24" height="24" transform="translate(7077 -1398)" fill="none"/>
      <path id="Path_10328" data-name="Path 10328" d="M17.5,2a.472.472,0,0,1,.5.5v15a.472.472,0,0,1-.5.5H2.5a.472.472,0,0,1-.5-.5V2.5A.472.472,0,0,1,2.5,2h15m0-2H2.5A2.476,2.476,0,0,0,0,2.5v15A2.476,2.476,0,0,0,2.5,20h15A2.476,2.476,0,0,0,20,17.5V2.5A2.476,2.476,0,0,0,17.5,0Z" transform="translate(7079 -1396)" fill="#9494a4"/>
      <rect id="Rectangle_8150" data-name="Rectangle 8150" width="285" height="36" transform="translate(7067 -1368)" fill="#fff"/>
      <text id="Connecticut" transform="translate(7112 -1346)" fill="#494955" font-size="14" font-family="SegoeUI, Segoe UI"><tspan x="0" y="0">Connecticut</tspan></text>
      <rect id="Rectangle_8151" data-name="Rectangle 8151" width="24" height="24" transform="translate(7077 -1362)" fill="none"/>
      <path id="Path_10329" data-name="Path 10329" d="M17.5,2a.472.472,0,0,1,.5.5v15a.472.472,0,0,1-.5.5H2.5a.472.472,0,0,1-.5-.5V2.5A.472.472,0,0,1,2.5,2h15m0-2H2.5A2.476,2.476,0,0,0,0,2.5v15A2.476,2.476,0,0,0,2.5,20h15A2.476,2.476,0,0,0,20,17.5V2.5A2.476,2.476,0,0,0,17.5,0Z" transform="translate(7079 -1360)" fill="#9494a4"/>
      <rect id="Rectangle_8156" data-name="Rectangle 8156" width="5" height="100" rx="2.5" transform="translate(7357 -1548)" fill="#78788c"/>
      <rect id="Rectangle_8157" data-name="Rectangle 8157" width="24" height="24" transform="translate(7077 -1470)" fill="none"/>
      <g id="Group_15353" data-name="Group 15353" transform="translate(-4825 -2398)">
        <g id="noun_Pointer_44803" transform="translate(11911 1005)">
          <g id="Group_15298" data-name="Group 15298" transform="translate(0 0)" opacity="0.9">
            <path id="Path_10321" data-name="Path 10321" d="M26.5,27.034a8.04,8.04,0,0,1-7.962-7.224.347.347,0,0,1-.037-.156V14.783a1.94,1.94,0,0,1,1.9-1.97,1.854,1.854,0,0,1,1.143.395V5.385a1.906,1.906,0,1,1,3.81,0v5.468a1.854,1.854,0,0,1,1.143-.395,1.91,1.91,0,0,1,1.775,1.257,1.863,1.863,0,0,1,1.272-.5,1.919,1.919,0,0,1,1.837,1.449,1.86,1.86,0,0,1,1.211-.45,1.94,1.94,0,0,1,1.9,1.97v5.031a.375.375,0,0,1,0,.051A8.045,8.045,0,0,1,26.5,27.034Z" transform="translate(-18.501 -3.415)" fill="#fff"/>
          </g>
        </g>
        <g id="noun_Pointer_44803-2" data-name="noun_Pointer_44803" transform="translate(11911 1005)">
          <g id="Group_15298-2" data-name="Group 15298" transform="translate(0 0)" opacity="0.9">
            <path id="Path_10321-2" data-name="Path 10321" d="M26.5,27.034a8.04,8.04,0,0,1-7.962-7.224.347.347,0,0,1-.037-.156V14.783a1.94,1.94,0,0,1,1.9-1.97,1.854,1.854,0,0,1,1.143.395V5.385a1.906,1.906,0,1,1,3.81,0v5.468a1.854,1.854,0,0,1,1.143-.395,1.91,1.91,0,0,1,1.775,1.257,1.863,1.863,0,0,1,1.272-.5,1.919,1.919,0,0,1,1.837,1.449,1.86,1.86,0,0,1,1.211-.45,1.94,1.94,0,0,1,1.9,1.97v5.031a.375.375,0,0,1,0,.051A8.045,8.045,0,0,1,26.5,27.034Zm-7.238-7.51a.339.339,0,0,1,.024.1,7.238,7.238,0,0,0,14.45-.424q0-.016,0-.033V14.178a1.145,1.145,0,1,0-2.286,0,.381.381,0,0,1-.762,0v-1a1.145,1.145,0,1,0-2.286,0,.381.381,0,1,1-.762,0v-.752a1.145,1.145,0,1,0-2.286,0,.381.381,0,1,1-.762,0V5.385a1.145,1.145,0,1,0-2.286,0V18.21a.381.381,0,1,1-.762,0V14.783a1.145,1.145,0,1,0-2.286,0v4.741Z" transform="translate(-18.501 -3.415)"/>
          </g>
        </g>
      </g>
    </g>
    <text id="flat_light" transform="translate(102 194)" fill="#b2b2b2" font-size="12" font-family="OpenSans-Regular, Open Sans"><tspan x="-47.121" y="0">Selected</tspan></text>
    <text id="flat_light-2" data-name="flat_light" transform="translate(102 304)" fill="#b2b2b2" font-size="12" font-family="OpenSans-Regular, Open Sans"><tspan x="-33.744" y="0">Hover</tspan></text>
  </g>
</svg>
