<svg xmlns="http://www.w3.org/2000/svg" xmlns:xlink="http://www.w3.org/1999/xlink" viewBox="0 0 750 516">
  <defs>
    <style>
      .cls-1 {
        clip-path: url(#clip-multi_select_label);
      }

      .cls-2, .cls-6 {
        fill: #fff;
      }

      .cls-3 {
        fill: #3d3d3d;
      }

      .cls-4, .cls-7 {
        fill: none;
      }

      .cls-4 {
        stroke: #e91e63;
      }

      .cls-5 {
        fill: #7a7a7a;
      }

      .cls-13, .cls-8 {
        fill: #5b5b5b;
      }

      .cls-9 {
        fill: #c6c6c6;
      }

      .cls-10 {
        fill: #e91e63;
      }

      .cls-11 {
        fill: #999;
      }

      .cls-12 {
        fill: #eaeaea;
      }

      .cls-13 {
        font-size: 14px;
        font-family: SegoeUI, Segoe UI;
      }

      .cls-14 {
        fill: #b2b2b2;
      }

      .cls-15 {
        fill: #1f5ea8;
      }

      .cls-16, .cls-17 {
        stroke: none;
      }

      .cls-17 {
        fill: #50a7ed;
      }

      .cls-18 {
        filter: url(#Path_7008);
      }
    </style>
    <filter id="Path_7008" x="166" y="127" width="418" height="316" filterUnits="userSpaceOnUse">
      <feOffset dy="3" input="SourceAlpha"/>
      <feGaussianBlur stdDeviation="3" result="blur"/>
      <feFlood flood-opacity="0.161"/>
      <feComposite operator="in" in2="blur"/>
      <feComposite in="SourceGraphic"/>
    </filter>
    <clipPath id="clip-multi_select_label">
      <rect width="750" height="516"/>
    </clipPath>
  </defs>
  <g id="multi_select_label" class="cls-1">
    <g id="Path_7024" data-name="Path 7024" class="cls-2" transform="translate(175 91)">
      <path class="cls-16" d="M 396 41 L 4 41 C 2.345799922943115 41 1 39.65420150756836 1 38 L 1 4 C 1 2.345799922943115 2.345799922943115 1 4 1 L 396 1 C 397.6542053222656 1 399 2.345799922943115 399 4 L 399 38 C 399 39.65420150756836 397.6542053222656 41 396 41 Z"/>
      <path class="cls-17" d="M 396 40 C 397.102783203125 40 398 39.10279083251953 398 38 L 398 4 C 398 2.897210597991943 397.102783203125 2 396 2 L 4 2 C 2.897210597991943 2 2 2.897210597991943 2 4 L 2 38 C 2 39.10279083251953 2.897210597991943 40 4 40 L 396 40 M 396 42 L 4 42 C 1.790894746780396 42 0 40.20915603637695 0 38 L 0 4 C 0 1.790842056274414 1.790894746780396 0 4 0 L 396 0 C 398.2091674804688 0 400 1.790842056274414 400 4 L 400 38 C 400 40.20915603637695 398.2091674804688 42 396 42 Z"/>
    </g>
    <path id="Path_7025" data-name="Path 7025" class="cls-3" d="M.759-.39V-2.064A2.587,2.587,0,0,0,1.3-1.7a4.146,4.146,0,0,0,.66.277,5.2,5.2,0,0,0,.7.174,3.717,3.717,0,0,0,.643.062,2.742,2.742,0,0,0,1.528-.342,1.124,1.124,0,0,0,.5-.991,1.081,1.081,0,0,0-.167-.6,1.757,1.757,0,0,0-.468-.468A4.92,4.92,0,0,0,3.982-4Q3.575-4.19,3.11-4.4q-.5-.267-.93-.54a4,4,0,0,1-.749-.6,2.531,2.531,0,0,1-.5-.749,2.438,2.438,0,0,1-.181-.978,2.256,2.256,0,0,1,.311-1.2,2.627,2.627,0,0,1,.82-.841,3.761,3.761,0,0,1,1.159-.492,5.5,5.5,0,0,1,1.326-.161,5.353,5.353,0,0,1,2.242.349v1.606a3.581,3.581,0,0,0-2.146-.6,3.846,3.846,0,0,0-.721.068,2.144,2.144,0,0,0-.643.226,1.391,1.391,0,0,0-.461.4.989.989,0,0,0-.178.595,1.125,1.125,0,0,0,.137.567,1.464,1.464,0,0,0,.4.438,4.086,4.086,0,0,0,.643.386q.379.188.878.407.513.267.967.561a4.56,4.56,0,0,1,.8.649,2.854,2.854,0,0,1,.547.79,2.319,2.319,0,0,1,.2.988,2.448,2.448,0,0,1-.3,1.258,2.424,2.424,0,0,1-.81.834A3.608,3.608,0,0,1,4.751.021a6.61,6.61,0,0,1-1.4.144,5.967,5.967,0,0,1-.6-.038Q2.386.089,2.01.017A6.759,6.759,0,0,1,1.3-.157,2.251,2.251,0,0,1,.759-.39Zm11.184.314a2.748,2.748,0,0,1-1.224.232Q8.682.157,8.682-1.8V-5.756H7.513V-7H8.682V-8.62l1.586-.451V-7h1.675v1.244H10.268v3.5a1.379,1.379,0,0,0,.226.889.936.936,0,0,0,.752.267,1.09,1.09,0,0,0,.7-.232ZM18.683,0H17.145V-1.094h-.027A2.316,2.316,0,0,1,14.991.164,2.239,2.239,0,0,1,13.375-.4,1.961,1.961,0,0,1,12.79-1.88q0-1.982,2.283-2.311l2.078-.294q0-1.5-1.422-1.5a3.378,3.378,0,0,0-2.256.861V-6.508a4.919,4.919,0,0,1,2.557-.656,2.326,2.326,0,0,1,2.652,2.611ZM17.151-3.438l-1.47.205a2.33,2.33,0,0,0-1.029.332.969.969,0,0,0-.345.851.932.932,0,0,0,.318.728,1.231,1.231,0,0,0,.851.284,1.57,1.57,0,0,0,1.2-.509,1.806,1.806,0,0,0,.475-1.282ZM24.309-.075a2.748,2.748,0,0,1-1.224.232q-2.037,0-2.037-1.955V-5.756H19.879V-7h1.169V-8.62l1.586-.451V-7h1.675v1.244H22.634v3.5a1.379,1.379,0,0,0,.226.889.936.936,0,0,0,.752.267,1.09,1.09,0,0,0,.7-.232Zm7.212-2.994H26.749a2.017,2.017,0,0,0,.6,1.5,2.225,2.225,0,0,0,1.569.526,3.459,3.459,0,0,0,2.058-.67V-.437a4.7,4.7,0,0,1-2.529.6A3.131,3.131,0,0,1,26.021-.79a3.814,3.814,0,0,1-.878-2.683,3.73,3.73,0,0,1,.967-2.663,3.164,3.164,0,0,1,2.4-1.029,2.759,2.759,0,0,1,2.222.923,3.832,3.832,0,0,1,.786,2.563ZM29.989-4.19a2.044,2.044,0,0,0-.4-1.33A1.348,1.348,0,0,0,28.492-6a1.539,1.539,0,0,0-1.159.5,2.28,2.28,0,0,0-.584,1.306Z" transform="translate(175 82)"/>
    <g id="Group_3" data-name="Group 3" transform="translate(-275 -1607)">
      <rect id="Rectangle_3867" data-name="Rectangle 3867" class="cls-4" width="24" height="24" transform="translate(816 1707)"/>
      <path id="Path_5558" data-name="Path 5558" class="cls-5" d="M56,9.4l-3,3-3-3a.967.967,0,0,0-1.4,0h0a.967.967,0,0,0,0,1.4l3.7,3.7a.967.967,0,0,0,1.4,0l3.7-3.7a.967.967,0,0,0,0-1.4h0A.965.965,0,0,0,56,9.4Z" transform="translate(881 1730.9) rotate(180)"/>
    </g>
    <g class="cls-18" transform="matrix(1, 0, 0, 1, 0, 0)">
      <path id="Path_7008-2" data-name="Path 7008" class="cls-6" d="M4,0H396a4,4,0,0,1,4,4V294a4,4,0,0,1-4,4H4a4,4,0,0,1-4-4V4A4,4,0,0,1,4,0Z" transform="translate(175 133)"/>
    </g>
    <path id="Path_7010" data-name="Path 7010" class="cls-7" d="M0,0H400V36H0Z" transform="translate(175 174)"/>
    <path id="Path_7011" data-name="Path 7011" class="cls-7" d="M0,0H400V36H0Z" transform="translate(175 246)"/>
    <path id="Path_6475" data-name="Path 6475" class="cls-7" d="M0,0H400V36H0Z" transform="translate(175 318)"/>
    <path id="Path_7009" data-name="Path 7009" class="cls-7" d="M0,0H400V36H0Z" transform="translate(175 390)"/>
    <path id="Path_7022" data-name="Path 7022" class="cls-7" d="M0,0H400V36H0Z" transform="translate(175 138)"/>
    <path id="Path_7012" data-name="Path 7012" class="cls-7" d="M0,0H400V36H0Z" transform="translate(175 210)"/>
    <path id="Path_6474" data-name="Path 6474" class="cls-7" d="M0,0H400V36H0Z" transform="translate(175 282)"/>
    <path id="Path_7013" data-name="Path 7013" class="cls-7" d="M0,0H400V36H0Z" transform="translate(175 354)"/>
    <path id="Path_7023" data-name="Path 7023" class="cls-8" d="M8.873,0H7.6L6.563-2.748H2.406L1.429,0H.15L3.91-9.8H5.1ZM6.187-3.78,4.648-7.957a4,4,0,0,1-.15-.656H4.471a3.661,3.661,0,0,1-.157.656L2.789-3.78ZM11.286,0H10.165V-10.363h1.121Zm7.28,0H17.445V-1.094h-.027A2.347,2.347,0,0,1,15.265.164,2.3,2.3,0,0,1,13.627-.39a1.918,1.918,0,0,1-.591-1.47q0-1.962,2.311-2.283l2.1-.294q0-1.784-1.442-1.784a3.446,3.446,0,0,0-2.283.861V-6.508A4.338,4.338,0,0,1,16.1-7.164q2.468,0,2.468,2.611ZM17.445-3.541l-1.688.232a2.741,2.741,0,0,0-1.176.386,1.114,1.114,0,0,0-.4.981,1.068,1.068,0,0,0,.366.837,1.413,1.413,0,0,0,.974.325A1.8,1.8,0,0,0,16.9-1.364a2.088,2.088,0,0,0,.543-1.48Zm2.81,3.288v-1.2a3.318,3.318,0,0,0,2.017.677q1.477,0,1.477-.984a.854.854,0,0,0-.126-.475,1.26,1.26,0,0,0-.342-.345,2.631,2.631,0,0,0-.506-.27q-.291-.12-.625-.25a8.056,8.056,0,0,1-.817-.373,2.468,2.468,0,0,1-.588-.424,1.577,1.577,0,0,1-.355-.537,1.9,1.9,0,0,1-.12-.7,1.673,1.673,0,0,1,.226-.872,2,2,0,0,1,.6-.636,2.805,2.805,0,0,1,.858-.386,3.805,3.805,0,0,1,.995-.13,4.016,4.016,0,0,1,1.627.314v1.135A3.171,3.171,0,0,0,22.8-6.221a2.078,2.078,0,0,0-.567.072,1.389,1.389,0,0,0-.434.2.932.932,0,0,0-.28.311.819.819,0,0,0-.1.4.959.959,0,0,0,.1.458,1.008,1.008,0,0,0,.291.328,2.221,2.221,0,0,0,.465.26q.273.116.622.253a8.658,8.658,0,0,1,.834.366,2.86,2.86,0,0,1,.629.424,1.656,1.656,0,0,1,.4.543,1.753,1.753,0,0,1,.14.731,1.725,1.725,0,0,1-.229.9,1.963,1.963,0,0,1-.612.636,2.8,2.8,0,0,1-.882.376,4.354,4.354,0,0,1-1.046.123A3.971,3.971,0,0,1,20.255-.253ZM32.43,0H30.857l-3.09-3.363H27.74V0H26.619V-10.363H27.74v6.569h.027L30.707-7h1.47L28.93-3.623Zm6.159,0H37.468V-1.094H37.44A2.347,2.347,0,0,1,35.287.164,2.3,2.3,0,0,1,33.65-.39a1.918,1.918,0,0,1-.591-1.47q0-1.962,2.311-2.283l2.1-.294q0-1.784-1.442-1.784a3.446,3.446,0,0,0-2.283.861V-6.508a4.338,4.338,0,0,1,2.379-.656q2.468,0,2.468,2.611ZM37.468-3.541l-1.688.232a2.741,2.741,0,0,0-1.176.386,1.114,1.114,0,0,0-.4.981,1.068,1.068,0,0,0,.366.837,1.413,1.413,0,0,0,.974.325,1.8,1.8,0,0,0,1.377-.584,2.088,2.088,0,0,0,.543-1.48Z" transform="translate(225 162)"/>
    <path id="Path_7014" data-name="Path 7014" class="cls-8" d="M7.957-.41A5.749,5.749,0,0,1,5.25.164,4.366,4.366,0,0,1,1.9-1.183,4.969,4.969,0,0,1,.643-4.717a5.208,5.208,0,0,1,1.415-3.8A4.8,4.8,0,0,1,5.646-9.967a5.754,5.754,0,0,1,2.311.4V-8.34a4.686,4.686,0,0,0-2.324-.588A3.566,3.566,0,0,0,2.9-7.8,4.249,4.249,0,0,0,1.846-4.785a4.043,4.043,0,0,0,.981,2.854A3.338,3.338,0,0,0,5.4-.868a4.828,4.828,0,0,0,2.557-.656ZM14.813,0H13.692V-1.094h-.027A2.347,2.347,0,0,1,11.512.164,2.3,2.3,0,0,1,9.875-.39a1.918,1.918,0,0,1-.591-1.47q0-1.962,2.311-2.283l2.1-.294q0-1.784-1.442-1.784a3.446,3.446,0,0,0-2.283.861V-6.508a4.338,4.338,0,0,1,2.379-.656q2.468,0,2.468,2.611ZM13.692-3.541,12-3.309a2.741,2.741,0,0,0-1.176.386,1.114,1.114,0,0,0-.4.981A1.068,1.068,0,0,0,10.8-1.1a1.413,1.413,0,0,0,.974.325,1.8,1.8,0,0,0,1.377-.584,2.088,2.088,0,0,0,.543-1.48ZM18.047,0H16.926V-10.363h1.121Zm2.844-8.777a.71.71,0,0,1-.513-.205.692.692,0,0,1-.212-.52.7.7,0,0,1,.212-.523.7.7,0,0,1,.513-.208.724.724,0,0,1,.523.208.7.7,0,0,1,.215.523.693.693,0,0,1-.215.513A.718.718,0,0,1,20.891-8.777ZM21.438,0H20.316V-7h1.121Zm5.729-9.379a1.493,1.493,0,0,0-.745-.185q-1.176,0-1.176,1.483V-7h1.641v.957H25.245V0H24.131V-6.043h-1.2V-7h1.2V-8.135a2.358,2.358,0,0,1,.636-1.74,2.146,2.146,0,0,1,1.586-.639,2.2,2.2,0,0,1,.813.123ZM31.015.164a3.247,3.247,0,0,1-2.478-.981,3.633,3.633,0,0,1-.926-2.6,3.785,3.785,0,0,1,.964-2.755,3.465,3.465,0,0,1,2.6-.991,3.14,3.14,0,0,1,2.444.964A3.822,3.822,0,0,1,34.5-3.527a3.761,3.761,0,0,1-.947,2.683A3.317,3.317,0,0,1,31.015.164ZM31.1-6.221a2.132,2.132,0,0,0-1.709.735,3.018,3.018,0,0,0-.629,2.027A2.854,2.854,0,0,0,29.395-1.5a2.161,2.161,0,0,0,1.7.718,2.049,2.049,0,0,0,1.671-.7,3.055,3.055,0,0,0,.584-2,3.108,3.108,0,0,0-.584-2.023A2.04,2.04,0,0,0,31.1-6.221Zm8.846.355a1.371,1.371,0,0,0-.848-.226,1.431,1.431,0,0,0-1.2.677,3.129,3.129,0,0,0-.482,1.846V0H36.292V-7h1.121v1.442h.027a2.444,2.444,0,0,1,.731-1.152,1.668,1.668,0,0,1,1.1-.414,1.83,1.83,0,0,1,.67.1ZM46.97,0H45.849V-3.992q0-2.229-1.627-2.229a1.765,1.765,0,0,0-1.391.632,2.344,2.344,0,0,0-.55,1.6V0H41.159V-7H42.28v1.162h.027a2.526,2.526,0,0,1,2.3-1.326,2.142,2.142,0,0,1,1.757.742,3.3,3.3,0,0,1,.608,2.143Zm2.687-8.777a.71.71,0,0,1-.513-.205.692.692,0,0,1-.212-.52.7.7,0,0,1,.212-.523.7.7,0,0,1,.513-.208.724.724,0,0,1,.523.208.7.7,0,0,1,.215.523.693.693,0,0,1-.215.513A.718.718,0,0,1,49.656-8.777ZM50.2,0H49.082V-7H50.2Zm7.28,0H56.362V-1.094h-.027A2.347,2.347,0,0,1,54.182.164,2.3,2.3,0,0,1,52.544-.39a1.918,1.918,0,0,1-.591-1.47q0-1.962,2.311-2.283l2.1-.294q0-1.784-1.442-1.784a3.446,3.446,0,0,0-2.283.861V-6.508a4.338,4.338,0,0,1,2.379-.656q2.468,0,2.468,2.611ZM56.362-3.541l-1.688.232a2.741,2.741,0,0,0-1.176.386,1.114,1.114,0,0,0-.4.981,1.068,1.068,0,0,0,.366.837,1.413,1.413,0,0,0,.974.325,1.8,1.8,0,0,0,1.377-.584,2.088,2.088,0,0,0,.543-1.48Z" transform="translate(225 270)"/>
    <path id="Path_7021" data-name="Path 7021" class="cls-8" d="M9.263,0H7.479L6.6-2.5H2.741L1.894,0H.116L3.787-9.8H5.619Zm-3.1-3.821-1.36-3.91a4.631,4.631,0,0,1-.13-.615H4.648a4,4,0,0,1-.137.615L3.165-3.821ZM12.024,0H10.432V-10.363h1.593Zm7.438,0H17.924V-1.094H17.9A2.316,2.316,0,0,1,15.771.164,2.239,2.239,0,0,1,14.154-.4a1.961,1.961,0,0,1-.584-1.483q0-1.982,2.283-2.311l2.078-.294q0-1.5-1.422-1.5a3.378,3.378,0,0,0-2.256.861V-6.508a4.919,4.919,0,0,1,2.557-.656,2.326,2.326,0,0,1,2.652,2.611ZM17.931-3.438l-1.47.205a2.33,2.33,0,0,0-1.029.332.969.969,0,0,0-.345.851.932.932,0,0,0,.318.728,1.231,1.231,0,0,0,.851.284,1.57,1.57,0,0,0,1.2-.509,1.806,1.806,0,0,0,.475-1.282ZM23.01-1.012h-.027V0H21.4V-10.363h1.586V-5.77h.027a2.6,2.6,0,0,1,2.379-1.395,2.5,2.5,0,0,1,2.075.94,3.93,3.93,0,0,1,.749,2.519,4.387,4.387,0,0,1-.841,2.813,2.777,2.777,0,0,1-2.3,1.056A2.255,2.255,0,0,1,23.01-1.012Zm-.041-2.782v.868a1.852,1.852,0,0,0,.489,1.3,1.61,1.61,0,0,0,1.241.533,1.621,1.621,0,0,0,1.384-.687,3.2,3.2,0,0,0,.5-1.917,2.52,2.52,0,0,0-.468-1.617A1.539,1.539,0,0,0,24.849-5.9a1.709,1.709,0,0,0-1.364.6A2.228,2.228,0,0,0,22.969-3.794ZM35.041,0H33.5V-1.094h-.027A2.316,2.316,0,0,1,31.35.164,2.239,2.239,0,0,1,29.733-.4a1.961,1.961,0,0,1-.584-1.483q0-1.982,2.283-2.311l2.078-.294q0-1.5-1.422-1.5a3.378,3.378,0,0,0-2.256.861V-6.508a4.919,4.919,0,0,1,2.557-.656,2.326,2.326,0,0,1,2.652,2.611ZM33.51-3.438l-1.47.205a2.33,2.33,0,0,0-1.029.332.969.969,0,0,0-.345.851.932.932,0,0,0,.318.728,1.231,1.231,0,0,0,.851.284,1.57,1.57,0,0,0,1.2-.509A1.806,1.806,0,0,0,33.51-2.83ZM47.441,0H45.855V-3.814a3.091,3.091,0,0,0-.311-1.593A1.144,1.144,0,0,0,44.5-5.9a1.265,1.265,0,0,0-1.056.622A2.538,2.538,0,0,0,43-3.787V0H41.412V-3.944q0-1.955-1.381-1.955a1.246,1.246,0,0,0-1.056.588,2.592,2.592,0,0,0-.414,1.524V0H36.976V-7h1.586v1.107h.027A2.425,2.425,0,0,1,40.8-7.164a2.082,2.082,0,0,1,1.268.4,1.992,1.992,0,0,1,.742,1.049,2.5,2.5,0,0,1,2.324-1.449q2.311,0,2.311,2.851Zm7.308,0H53.211V-1.094h-.027A2.316,2.316,0,0,1,51.058.164,2.239,2.239,0,0,1,49.441-.4a1.961,1.961,0,0,1-.584-1.483q0-1.982,2.283-2.311l2.078-.294q0-1.5-1.422-1.5a3.378,3.378,0,0,0-2.256.861V-6.508A4.919,4.919,0,0,1,52.1-7.164a2.326,2.326,0,0,1,2.652,2.611ZM53.218-3.438l-1.47.205a2.33,2.33,0,0,0-1.029.332.969.969,0,0,0-.345.851.932.932,0,0,0,.318.728,1.231,1.231,0,0,0,.851.284,1.57,1.57,0,0,0,1.2-.509,1.806,1.806,0,0,0,.475-1.282Z" transform="translate(225 198)"/>
    <path id="Path_7015" data-name="Path 7015" class="cls-8" d="M7.957-.41A5.749,5.749,0,0,1,5.25.164,4.366,4.366,0,0,1,1.9-1.183,4.969,4.969,0,0,1,.643-4.717a5.208,5.208,0,0,1,1.415-3.8A4.8,4.8,0,0,1,5.646-9.967a5.754,5.754,0,0,1,2.311.4V-8.34a4.686,4.686,0,0,0-2.324-.588A3.566,3.566,0,0,0,2.9-7.8,4.249,4.249,0,0,0,1.846-4.785a4.043,4.043,0,0,0,.981,2.854A3.338,3.338,0,0,0,5.4-.868a4.828,4.828,0,0,0,2.557-.656Zm4.771.574A3.247,3.247,0,0,1,10.25-.817a3.634,3.634,0,0,1-.926-2.6,3.785,3.785,0,0,1,.964-2.755,3.465,3.465,0,0,1,2.6-.991,3.14,3.14,0,0,1,2.444.964,3.822,3.822,0,0,1,.878,2.673,3.761,3.761,0,0,1-.947,2.683A3.317,3.317,0,0,1,12.729.164Zm.082-6.385a2.132,2.132,0,0,0-1.709.735,3.018,3.018,0,0,0-.629,2.027A2.854,2.854,0,0,0,11.108-1.5a2.161,2.161,0,0,0,1.7.718,2.049,2.049,0,0,0,1.671-.7,3.055,3.055,0,0,0,.584-2,3.108,3.108,0,0,0-.584-2.023A2.04,2.04,0,0,0,12.811-6.221ZM19.127,0H18.006V-10.363h1.121Zm5.2.164a3.247,3.247,0,0,1-2.478-.981,3.633,3.633,0,0,1-.926-2.6,3.785,3.785,0,0,1,.964-2.755,3.465,3.465,0,0,1,2.6-.991A3.14,3.14,0,0,1,26.93-6.2a3.822,3.822,0,0,1,.878,2.673,3.761,3.761,0,0,1-.947,2.683A3.317,3.317,0,0,1,24.322.164ZM24.4-6.221a2.132,2.132,0,0,0-1.709.735,3.018,3.018,0,0,0-.629,2.027A2.854,2.854,0,0,0,22.7-1.5a2.161,2.161,0,0,0,1.7.718,2.049,2.049,0,0,0,1.671-.7,3.055,3.055,0,0,0,.584-2,3.108,3.108,0,0,0-.584-2.023A2.04,2.04,0,0,0,24.4-6.221Zm8.846.355a1.371,1.371,0,0,0-.848-.226,1.431,1.431,0,0,0-1.2.677,3.129,3.129,0,0,0-.482,1.846V0H29.6V-7h1.121v1.442h.027a2.444,2.444,0,0,1,.731-1.152,1.668,1.668,0,0,1,1.1-.414,1.83,1.83,0,0,1,.67.1ZM39.478,0H38.356V-1.094h-.027A2.347,2.347,0,0,1,36.176.164,2.3,2.3,0,0,1,34.539-.39a1.918,1.918,0,0,1-.591-1.47q0-1.962,2.311-2.283l2.1-.294q0-1.784-1.442-1.784a3.446,3.446,0,0,0-2.283.861V-6.508a4.338,4.338,0,0,1,2.379-.656q2.468,0,2.468,2.611ZM38.356-3.541l-1.688.232a2.741,2.741,0,0,0-1.176.386,1.114,1.114,0,0,0-.4.981,1.068,1.068,0,0,0,.366.837,1.413,1.413,0,0,0,.974.325,1.8,1.8,0,0,0,1.377-.584,2.088,2.088,0,0,0,.543-1.48ZM47.564,0H46.443V-1.189h-.027A2.588,2.588,0,0,1,44.01.164,2.615,2.615,0,0,1,41.9-.776a3.856,3.856,0,0,1-.79-2.56,4.2,4.2,0,0,1,.875-2.782,2.886,2.886,0,0,1,2.331-1.046,2.244,2.244,0,0,1,2.1,1.135h.027v-4.334h1.121ZM46.443-3.165V-4.2a2,2,0,0,0-.561-1.436,1.88,1.88,0,0,0-1.422-.588,1.936,1.936,0,0,0-1.613.752,3.3,3.3,0,0,0-.588,2.078,2.964,2.964,0,0,0,.564,1.911,1.843,1.843,0,0,0,1.514.7,1.915,1.915,0,0,0,1.521-.677A2.521,2.521,0,0,0,46.443-3.165ZM52.76.164a3.247,3.247,0,0,1-2.478-.981,3.634,3.634,0,0,1-.926-2.6,3.785,3.785,0,0,1,.964-2.755,3.465,3.465,0,0,1,2.6-.991,3.14,3.14,0,0,1,2.444.964,3.822,3.822,0,0,1,.878,2.673A3.761,3.761,0,0,1,55.3-.844,3.317,3.317,0,0,1,52.76.164Zm.082-6.385a2.132,2.132,0,0,0-1.709.735A3.018,3.018,0,0,0,50.5-3.459,2.854,2.854,0,0,0,51.14-1.5a2.161,2.161,0,0,0,1.7.718,2.049,2.049,0,0,0,1.671-.7,3.055,3.055,0,0,0,.584-2,3.108,3.108,0,0,0-.584-2.023A2.04,2.04,0,0,0,52.842-6.221Z" transform="translate(225 306)"/>
    <path id="Path_7016" data-name="Path 7016" class="cls-8" d="M8.873,0H7.6L6.563-2.748H2.406L1.429,0H.15L3.91-9.8H5.1ZM6.187-3.78,4.648-7.957a4,4,0,0,1-.15-.656H4.471a3.661,3.661,0,0,1-.157.656L2.789-3.78Zm7.629-2.085a1.371,1.371,0,0,0-.848-.226,1.431,1.431,0,0,0-1.2.677,3.129,3.129,0,0,0-.482,1.846V0H10.165V-7h1.121v1.442h.027a2.444,2.444,0,0,1,.731-1.152,1.668,1.668,0,0,1,1.1-.414,1.83,1.83,0,0,1,.67.1Zm1.791-2.912a.71.71,0,0,1-.513-.205.692.692,0,0,1-.212-.52.7.7,0,0,1,.212-.523.7.7,0,0,1,.513-.208.724.724,0,0,1,.523.208.7.7,0,0,1,.215.523.693.693,0,0,1-.215.513A.718.718,0,0,1,15.606-8.777ZM16.153,0H15.032V-7h1.121ZM23.3-6.679,19.161-.957h4.1V0H17.514V-.349l4.143-5.694H17.9V-7h5.4ZM27.679.164A3.247,3.247,0,0,1,25.2-.817a3.633,3.633,0,0,1-.926-2.6,3.785,3.785,0,0,1,.964-2.755,3.465,3.465,0,0,1,2.6-.991,3.14,3.14,0,0,1,2.444.964,3.822,3.822,0,0,1,.878,2.673,3.761,3.761,0,0,1-.947,2.683A3.317,3.317,0,0,1,27.679.164Zm.082-6.385a2.132,2.132,0,0,0-1.709.735,3.018,3.018,0,0,0-.629,2.027A2.854,2.854,0,0,0,26.059-1.5a2.161,2.161,0,0,0,1.7.718,2.049,2.049,0,0,0,1.671-.7,3.055,3.055,0,0,0,.584-2,3.108,3.108,0,0,0-.584-2.023A2.04,2.04,0,0,0,27.761-6.221ZM38.767,0H37.646V-3.992q0-2.229-1.627-2.229a1.765,1.765,0,0,0-1.391.632,2.344,2.344,0,0,0-.55,1.6V0H32.956V-7h1.121v1.162H34.1a2.526,2.526,0,0,1,2.3-1.326,2.142,2.142,0,0,1,1.757.742,3.3,3.3,0,0,1,.608,2.143ZM45.89,0H44.769V-1.094h-.027A2.347,2.347,0,0,1,42.588.164,2.3,2.3,0,0,1,40.951-.39a1.918,1.918,0,0,1-.591-1.47q0-1.962,2.311-2.283l2.1-.294q0-1.784-1.442-1.784a3.446,3.446,0,0,0-2.283.861V-6.508a4.338,4.338,0,0,1,2.379-.656q2.468,0,2.468,2.611ZM44.769-3.541l-1.688.232a2.741,2.741,0,0,0-1.176.386,1.114,1.114,0,0,0-.4.981,1.068,1.068,0,0,0,.366.837,1.413,1.413,0,0,0,.974.325,1.8,1.8,0,0,0,1.377-.584,2.088,2.088,0,0,0,.543-1.48Z" transform="translate(225 234)"/>
    <path id="Path_7017" data-name="Path 7017" class="cls-8" d="M7.957-.41A5.749,5.749,0,0,1,5.25.164,4.366,4.366,0,0,1,1.9-1.183,4.969,4.969,0,0,1,.643-4.717a5.208,5.208,0,0,1,1.415-3.8A4.8,4.8,0,0,1,5.646-9.967a5.754,5.754,0,0,1,2.311.4V-8.34a4.686,4.686,0,0,0-2.324-.588A3.566,3.566,0,0,0,2.9-7.8,4.249,4.249,0,0,0,1.846-4.785a4.043,4.043,0,0,0,.981,2.854A3.338,3.338,0,0,0,5.4-.868a4.828,4.828,0,0,0,2.557-.656Zm4.771.574A3.247,3.247,0,0,1,10.25-.817a3.634,3.634,0,0,1-.926-2.6,3.785,3.785,0,0,1,.964-2.755,3.465,3.465,0,0,1,2.6-.991,3.14,3.14,0,0,1,2.444.964,3.822,3.822,0,0,1,.878,2.673,3.761,3.761,0,0,1-.947,2.683A3.317,3.317,0,0,1,12.729.164Zm.082-6.385a2.132,2.132,0,0,0-1.709.735,3.018,3.018,0,0,0-.629,2.027A2.854,2.854,0,0,0,11.108-1.5a2.161,2.161,0,0,0,1.7.718,2.049,2.049,0,0,0,1.671-.7,3.055,3.055,0,0,0,.584-2,3.108,3.108,0,0,0-.584-2.023A2.04,2.04,0,0,0,12.811-6.221ZM23.816,0H22.7V-3.992q0-2.229-1.627-2.229a1.765,1.765,0,0,0-1.391.632,2.344,2.344,0,0,0-.55,1.6V0H18.006V-7h1.121v1.162h.027a2.526,2.526,0,0,1,2.3-1.326,2.142,2.142,0,0,1,1.757.742,3.3,3.3,0,0,1,.608,2.143Zm7.923,0H30.618V-3.992q0-2.229-1.627-2.229a1.765,1.765,0,0,0-1.391.632,2.344,2.344,0,0,0-.55,1.6V0H25.929V-7H27.05v1.162h.027a2.526,2.526,0,0,1,2.3-1.326,2.142,2.142,0,0,1,1.757.742,3.3,3.3,0,0,1,.608,2.143Zm7.738-3.22H34.535a2.618,2.618,0,0,0,.629,1.8,2.168,2.168,0,0,0,1.654.636,3.439,3.439,0,0,0,2.174-.779V-.506a4.063,4.063,0,0,1-2.44.67A2.959,2.959,0,0,1,34.221-.79a3.9,3.9,0,0,1-.848-2.683A3.828,3.828,0,0,1,34.3-6.135a2.97,2.97,0,0,1,2.3-1.029,2.632,2.632,0,0,1,2.126.889,3.705,3.705,0,0,1,.752,2.468Zm-1.148-.95a2.281,2.281,0,0,0-.468-1.511,1.6,1.6,0,0,0-1.282-.54,1.811,1.811,0,0,0-1.347.567,2.575,2.575,0,0,0-.684,1.483ZM45.944-.321A3.643,3.643,0,0,1,44.03.164,3.169,3.169,0,0,1,41.614-.81a3.53,3.53,0,0,1-.919-2.526,3.881,3.881,0,0,1,.991-2.779,3.468,3.468,0,0,1,2.646-1.049,3.682,3.682,0,0,1,1.627.342v1.148a2.85,2.85,0,0,0-1.668-.547,2.254,2.254,0,0,0-1.76.769,2.918,2.918,0,0,0-.687,2.02,2.779,2.779,0,0,0,.646,1.941,2.227,2.227,0,0,0,1.733.711,2.81,2.81,0,0,0,1.723-.608Zm4.942.253A2.161,2.161,0,0,1,49.841.15Q48,.15,48-1.9V-6.043H46.8V-7H48V-8.709l1.121-.362V-7h1.764v.957H49.123V-2.1a1.635,1.635,0,0,0,.239,1,.955.955,0,0,0,.793.3,1.179,1.179,0,0,0,.731-.232Zm2.071-8.709a.71.71,0,0,1-.513-.205.692.692,0,0,1-.212-.52.7.7,0,0,1,.212-.523.7.7,0,0,1,.513-.208.724.724,0,0,1,.523.208A.7.7,0,0,1,53.7-9.5a.693.693,0,0,1-.215.513A.718.718,0,0,1,52.958-8.777ZM53.5,0H52.384V-7H53.5Zm7.041-.321a3.643,3.643,0,0,1-1.914.485A3.169,3.169,0,0,1,56.215-.81,3.53,3.53,0,0,1,55.3-3.336a3.881,3.881,0,0,1,.991-2.779,3.468,3.468,0,0,1,2.646-1.049,3.682,3.682,0,0,1,1.627.342v1.148a2.85,2.85,0,0,0-1.668-.547,2.254,2.254,0,0,0-1.76.769,2.918,2.918,0,0,0-.687,2.02A2.779,2.779,0,0,0,57.09-1.49a2.227,2.227,0,0,0,1.733.711,2.81,2.81,0,0,0,1.723-.608ZM67.9,0H66.78V-1.107h-.027A2.3,2.3,0,0,1,64.593.164q-2.5,0-2.5-2.98V-7h1.114v4.006q0,2.215,1.7,2.215a1.715,1.715,0,0,0,1.35-.6,2.315,2.315,0,0,0,.53-1.583V-7H67.9Zm5.51-.068A2.161,2.161,0,0,1,72.365.15Q70.526.15,70.526-1.9V-6.043h-1.2V-7h1.2V-8.709l1.121-.362V-7h1.764v.957H71.647V-2.1a1.635,1.635,0,0,0,.239,1,.955.955,0,0,0,.793.3,1.179,1.179,0,0,0,.731-.232Z" transform="translate(225 342)"/>
    <path id="Path_7018" data-name="Path 7018" class="cls-8" d="M1.285,0V-9.8H3.992q5.182,0,5.182,4.778A4.815,4.815,0,0,1,7.735-1.377,5.338,5.338,0,0,1,3.883,0ZM2.434-8.764v7.725H3.9a4.152,4.152,0,0,0,3-1.032A3.869,3.869,0,0,0,7.971-5q0-3.767-4.006-3.767ZM16.577-3.22H11.635a2.618,2.618,0,0,0,.629,1.8,2.168,2.168,0,0,0,1.654.636,3.439,3.439,0,0,0,2.174-.779V-.506a4.063,4.063,0,0,1-2.44.67A2.959,2.959,0,0,1,11.32-.79a3.9,3.9,0,0,1-.848-2.683A3.828,3.828,0,0,1,11.4-6.135a2.97,2.97,0,0,1,2.3-1.029,2.632,2.632,0,0,1,2.126.889,3.705,3.705,0,0,1,.752,2.468Zm-1.148-.95a2.281,2.281,0,0,0-.468-1.511,1.6,1.6,0,0,0-1.282-.54,1.811,1.811,0,0,0-1.347.567,2.575,2.575,0,0,0-.684,1.483ZM19.394,0H18.272V-10.363h1.121Zm7.28,0H25.553V-1.094h-.027A2.347,2.347,0,0,1,23.372.164,2.3,2.3,0,0,1,21.735-.39a1.918,1.918,0,0,1-.591-1.47q0-1.962,2.311-2.283l2.1-.294q0-1.784-1.442-1.784a3.446,3.446,0,0,0-2.283.861V-6.508a4.338,4.338,0,0,1,2.379-.656q2.468,0,2.468,2.611ZM25.553-3.541l-1.688.232a2.741,2.741,0,0,0-1.176.386,1.114,1.114,0,0,0-.4.981,1.068,1.068,0,0,0,.366.837,1.413,1.413,0,0,0,.974.325,1.8,1.8,0,0,0,1.377-.584,2.088,2.088,0,0,0,.543-1.48ZM37.6-7l-2.1,7H34.344L32.9-5.011a3.265,3.265,0,0,1-.109-.649h-.027a3.066,3.066,0,0,1-.144.636L31.056,0H29.935L27.815-7h1.176L30.44-1.736a3.171,3.171,0,0,1,.1.629h.055a2.942,2.942,0,0,1,.123-.643L32.327-7h1.025L34.8-1.723a3.767,3.767,0,0,1,.1.629h.055a2.909,2.909,0,0,1,.116-.629L36.5-7Zm6.31,7H42.793V-1.094h-.027A2.347,2.347,0,0,1,40.612.164,2.3,2.3,0,0,1,38.975-.39a1.918,1.918,0,0,1-.591-1.47q0-1.962,2.311-2.283l2.1-.294q0-1.784-1.442-1.784a3.446,3.446,0,0,0-2.283.861V-6.508a4.338,4.338,0,0,1,2.379-.656q2.468,0,2.468,2.611ZM42.793-3.541,41.1-3.309a2.741,2.741,0,0,0-1.176.386,1.114,1.114,0,0,0-.4.981A1.068,1.068,0,0,0,39.9-1.1a1.413,1.413,0,0,0,.974.325,1.8,1.8,0,0,0,1.377-.584,2.088,2.088,0,0,0,.543-1.48Zm6.884-2.324a1.371,1.371,0,0,0-.848-.226,1.431,1.431,0,0,0-1.2.677,3.129,3.129,0,0,0-.482,1.846V0H46.026V-7h1.121v1.442h.027a2.444,2.444,0,0,1,.731-1.152,1.668,1.668,0,0,1,1.1-.414,1.83,1.83,0,0,1,.67.1ZM56.52-3.22H51.577a2.618,2.618,0,0,0,.629,1.8,2.168,2.168,0,0,0,1.654.636,3.439,3.439,0,0,0,2.174-.779V-.506a4.063,4.063,0,0,1-2.44.67A2.959,2.959,0,0,1,51.263-.79a3.9,3.9,0,0,1-.848-2.683,3.828,3.828,0,0,1,.926-2.663,2.97,2.97,0,0,1,2.3-1.029,2.632,2.632,0,0,1,2.126.889,3.705,3.705,0,0,1,.752,2.468Zm-1.148-.95A2.281,2.281,0,0,0,54.9-5.681a1.6,1.6,0,0,0-1.282-.54,1.811,1.811,0,0,0-1.347.567,2.575,2.575,0,0,0-.684,1.483Z" transform="translate(225 378)"/>
    <path id="Path_7019" data-name="Path 7019" class="cls-8" d="M6.262-8.764H2.434v3.391H5.975v1.032H2.434V0H1.285V-9.8H6.262ZM9.092,0H7.971V-10.363H9.092Zm5.2.164a3.247,3.247,0,0,1-2.478-.981,3.634,3.634,0,0,1-.926-2.6,3.785,3.785,0,0,1,.964-2.755,3.465,3.465,0,0,1,2.6-.991A3.14,3.14,0,0,1,16.9-6.2a3.822,3.822,0,0,1,.878,2.673,3.761,3.761,0,0,1-.947,2.683A3.317,3.317,0,0,1,14.287.164Zm.082-6.385a2.132,2.132,0,0,0-1.709.735,3.018,3.018,0,0,0-.629,2.027A2.854,2.854,0,0,0,12.667-1.5a2.161,2.161,0,0,0,1.7.718,2.049,2.049,0,0,0,1.671-.7,3.055,3.055,0,0,0,.584-2,3.108,3.108,0,0,0-.584-2.023A2.04,2.04,0,0,0,14.369-6.221Zm8.846.355a1.371,1.371,0,0,0-.848-.226,1.431,1.431,0,0,0-1.2.677,3.129,3.129,0,0,0-.482,1.846V0H19.564V-7h1.121v1.442h.027a2.444,2.444,0,0,1,.731-1.152,1.668,1.668,0,0,1,1.1-.414,1.83,1.83,0,0,1,.67.1Zm1.791-2.912a.71.71,0,0,1-.513-.205.692.692,0,0,1-.212-.52.7.7,0,0,1,.212-.523.7.7,0,0,1,.513-.208.724.724,0,0,1,.523.208.7.7,0,0,1,.215.523.693.693,0,0,1-.215.513A.718.718,0,0,1,25.006-8.777ZM25.553,0H24.432V-7h1.121ZM33.8,0H32.676V-1.189h-.027A2.588,2.588,0,0,1,30.242.164a2.615,2.615,0,0,1-2.109-.94,3.856,3.856,0,0,1-.79-2.56,4.2,4.2,0,0,1,.875-2.782A2.886,2.886,0,0,1,30.55-7.164a2.244,2.244,0,0,1,2.1,1.135h.027v-4.334H33.8ZM32.676-3.165V-4.2a2,2,0,0,0-.561-1.436,1.88,1.88,0,0,0-1.422-.588,1.936,1.936,0,0,0-1.613.752,3.3,3.3,0,0,0-.588,2.078,2.964,2.964,0,0,0,.564,1.911,1.843,1.843,0,0,0,1.514.7,1.915,1.915,0,0,0,1.521-.677A2.521,2.521,0,0,0,32.676-3.165ZM41.077,0H39.956V-1.094h-.027A2.347,2.347,0,0,1,37.775.164,2.3,2.3,0,0,1,36.138-.39a1.918,1.918,0,0,1-.591-1.47q0-1.962,2.311-2.283l2.1-.294q0-1.784-1.442-1.784a3.446,3.446,0,0,0-2.283.861V-6.508a4.338,4.338,0,0,1,2.379-.656q2.468,0,2.468,2.611ZM39.956-3.541l-1.688.232a2.741,2.741,0,0,0-1.176.386,1.114,1.114,0,0,0-.4.981,1.068,1.068,0,0,0,.366.837,1.413,1.413,0,0,0,.974.325,1.8,1.8,0,0,0,1.377-.584,2.088,2.088,0,0,0,.543-1.48Z" transform="translate(225 414)"/>
    <path id="Path_7020" data-name="Path 7020" class="cls-9" d="M2.5,0A2.5,2.5,0,0,1,5,2.5v95a2.5,2.5,0,0,1-5,0V2.5A2.5,2.5,0,0,1,2.5,0Z" transform="translate(565 138)"/>
    <path id="_20" data-name="20" class="cls-10" d="M-20.652,0h-4V-7.7h.9V-.816h3.094Zm5,0h-.881V-.859h-.021a1.844,1.844,0,0,1-1.692.988,1.808,1.808,0,0,1-1.286-.435A1.507,1.507,0,0,1-20-1.461Q-20-3-18.181-3.255l1.649-.231q0-1.4-1.133-1.4a2.708,2.708,0,0,0-1.794.677v-.9a3.408,3.408,0,0,1,1.869-.516q1.939,0,1.939,2.052Zm-.881-2.782-1.327.183a2.154,2.154,0,0,0-.924.3.875.875,0,0,0-.312.771.839.839,0,0,0,.287.658,1.11,1.11,0,0,0,.765.255,1.414,1.414,0,0,0,1.082-.459,1.641,1.641,0,0,0,.427-1.163Zm3.443,1.987h-.021V0h-.881V-8.143h.881v3.609h.021a2.083,2.083,0,0,1,1.9-1.1,2.016,2.016,0,0,1,1.657.739,3.049,3.049,0,0,1,.6,1.979A3.409,3.409,0,0,1-9.6-.7a2.235,2.235,0,0,1-1.837.83A1.809,1.809,0,0,1-13.089-.795Zm-.021-2.218v.768a1.635,1.635,0,0,0,.443,1.157,1.471,1.471,0,0,0,1.125.475,1.474,1.474,0,0,0,1.254-.612,2.809,2.809,0,0,0,.454-1.7,2.217,2.217,0,0,0-.424-1.439,1.4,1.4,0,0,0-1.149-.521,1.561,1.561,0,0,0-1.235.534A1.962,1.962,0,0,0-13.111-3.013ZM-3.1-2.53H-6.988a2.057,2.057,0,0,0,.494,1.418,1.7,1.7,0,0,0,1.3.5,2.7,2.7,0,0,0,1.708-.612V-.4A3.192,3.192,0,0,1-5.4.129,2.325,2.325,0,0,1-7.235-.62,3.067,3.067,0,0,1-7.9-2.729a3.007,3.007,0,0,1,.728-2.092,2.334,2.334,0,0,1,1.807-.808,2.068,2.068,0,0,1,1.67.7A2.911,2.911,0,0,1-3.1-2.992Zm-.9-.747a1.792,1.792,0,0,0-.368-1.187,1.254,1.254,0,0,0-1.007-.424,1.423,1.423,0,0,0-1.058.446,2.023,2.023,0,0,0-.537,1.166ZM-.892,0h-.881V-8.143h.881Z" transform="translate(152 81)"/>
    <path id="_20-2" data-name="20" class="cls-10" d="M-43.506-.312V-1.375a2.065,2.065,0,0,0,.438.29,3.547,3.547,0,0,0,.537.218,4.276,4.276,0,0,0,.567.137,3.159,3.159,0,0,0,.526.048,2.062,2.062,0,0,0,1.243-.309,1.045,1.045,0,0,0,.411-.889,1.044,1.044,0,0,0-.137-.542,1.543,1.543,0,0,0-.379-.422,3.757,3.757,0,0,0-.572-.365q-.33-.175-.712-.368-.4-.2-.752-.414a3.258,3.258,0,0,1-.607-.462,1.927,1.927,0,0,1-.406-.572,1.771,1.771,0,0,1-.148-.749,1.762,1.762,0,0,1,.231-.916,1.981,1.981,0,0,1,.607-.642,2.752,2.752,0,0,1,.857-.376,3.923,3.923,0,0,1,.98-.124,3.756,3.756,0,0,1,1.66.274v1.015a3.008,3.008,0,0,0-1.751-.473,2.88,2.88,0,0,0-.591.062,1.669,1.669,0,0,0-.526.2,1.166,1.166,0,0,0-.376.36.955.955,0,0,0-.145.537,1.106,1.106,0,0,0,.11.51,1.251,1.251,0,0,0,.325.392,3.237,3.237,0,0,0,.524.344q.309.167.712.365t.784.43a3.584,3.584,0,0,1,.65.5A2.22,2.22,0,0,1-39-2.707a1.706,1.706,0,0,1,.164.763,1.934,1.934,0,0,1-.223.964,1.829,1.829,0,0,1-.6.642,2.627,2.627,0,0,1-.873.357,4.78,4.78,0,0,1-1.042.11A4.246,4.246,0,0,1-42.029.1Q-42.3.07-42.577.013a4.47,4.47,0,0,1-.529-.14A1.646,1.646,0,0,1-43.506-.312ZM-33-2.53h-3.883a2.057,2.057,0,0,0,.494,1.418,1.7,1.7,0,0,0,1.3.5,2.7,2.7,0,0,0,1.708-.612V-.4A3.192,3.192,0,0,1-35.3.129,2.325,2.325,0,0,1-37.13-.62,3.067,3.067,0,0,1-37.8-2.729a3.007,3.007,0,0,1,.728-2.092,2.334,2.334,0,0,1,1.807-.808,2.068,2.068,0,0,1,1.67.7A2.911,2.911,0,0,1-33-2.992Zm-.9-.747a1.792,1.792,0,0,0-.368-1.187,1.254,1.254,0,0,0-1.007-.424,1.423,1.423,0,0,0-1.058.446,2.023,2.023,0,0,0-.537,1.166ZM-30.787,0h-.881V-8.143h.881Zm6.2-2.53h-3.883a2.057,2.057,0,0,0,.494,1.418,1.7,1.7,0,0,0,1.3.5,2.7,2.7,0,0,0,1.708-.612V-.4a3.192,3.192,0,0,1-1.917.526A2.325,2.325,0,0,1-28.714-.62a3.067,3.067,0,0,1-.666-2.108,3.007,3.007,0,0,1,.728-2.092,2.334,2.334,0,0,1,1.807-.808,2.068,2.068,0,0,1,1.67.7,2.911,2.911,0,0,1,.591,1.939Zm-.9-.747a1.792,1.792,0,0,0-.368-1.187,1.254,1.254,0,0,0-1.007-.424,1.423,1.423,0,0,0-1.058.446,2.023,2.023,0,0,0-.537,1.166ZM-19.5-.252a2.862,2.862,0,0,1-1.5.381,2.49,2.49,0,0,1-1.9-.765,2.774,2.774,0,0,1-.722-1.985A3.049,3.049,0,0,1-22.849-4.8a2.724,2.724,0,0,1,2.079-.824,2.893,2.893,0,0,1,1.278.269v.9a2.24,2.24,0,0,0-1.311-.43,1.771,1.771,0,0,0-1.383.6,2.293,2.293,0,0,0-.54,1.587,2.183,2.183,0,0,0,.508,1.525,1.749,1.749,0,0,0,1.362.559A2.208,2.208,0,0,0-19.5-1.09Zm3.883.2a1.7,1.7,0,0,1-.822.172q-1.445,0-1.445-1.611V-4.748h-.945V-5.5h.945V-6.843L-17-7.127V-5.5h1.386v.752H-17v3.1a1.285,1.285,0,0,0,.188.79.75.75,0,0,0,.623.236.926.926,0,0,0,.575-.183ZM-13.992-6.9a.558.558,0,0,1-.4-.161.544.544,0,0,1-.167-.408.553.553,0,0,1,.167-.411.553.553,0,0,1,.4-.164.569.569,0,0,1,.411.164.548.548,0,0,1,.169.411.544.544,0,0,1-.169.4A.564.564,0,0,1-13.992-6.9Zm.43,6.9h-.881V-5.5h.881ZM-9.48.129a2.551,2.551,0,0,1-1.947-.771,2.855,2.855,0,0,1-.728-2.044A2.974,2.974,0,0,1-11.4-4.85a2.723,2.723,0,0,1,2.046-.779,2.467,2.467,0,0,1,1.92.757,3,3,0,0,1,.69,2.1A2.955,2.955,0,0,1-7.485-.663,2.607,2.607,0,0,1-9.48.129Zm.064-5.017a1.675,1.675,0,0,0-1.343.577,2.371,2.371,0,0,0-.494,1.593,2.243,2.243,0,0,0,.5,1.542,1.7,1.7,0,0,0,1.337.564A1.61,1.61,0,0,0-8.1-1.166a2.4,2.4,0,0,0,.459-1.574A2.442,2.442,0,0,0-8.1-4.329,1.6,1.6,0,0,0-9.416-4.888ZM-.768,0h-.881V-3.137q0-1.751-1.278-1.751a1.387,1.387,0,0,0-1.093.5,1.842,1.842,0,0,0-.432,1.254V0h-.881V-5.5h.881v.913h.021a1.985,1.985,0,0,1,1.8-1.042,1.683,1.683,0,0,1,1.38.583A2.6,2.6,0,0,1-.768-3.362Z" transform="translate(152 117)"/>
    <path id="_20-3" data-name="20" class="cls-10" d="M-23.66,0h-.9V-7.7h.9Zm6.472,0h-.881V-3.137q0-1.751-1.278-1.751a1.387,1.387,0,0,0-1.093.5,1.842,1.842,0,0,0-.432,1.254V0h-.881V-5.5h.881v.913h.021a1.985,1.985,0,0,1,1.8-1.042,1.683,1.683,0,0,1,1.38.583,2.6,2.6,0,0,1,.478,1.684Zm2.562-.795h-.021V2.53h-.881V-5.5h.881v.967h.021a2.083,2.083,0,0,1,1.9-1.1,2.014,2.014,0,0,1,1.66.739,3.059,3.059,0,0,1,.6,1.979A3.409,3.409,0,0,1-11.14-.7a2.235,2.235,0,0,1-1.837.83A1.84,1.84,0,0,1-14.625-.795Zm-.021-2.218v.768A1.635,1.635,0,0,0-14.2-1.088a1.471,1.471,0,0,0,1.125.475,1.474,1.474,0,0,0,1.254-.612,2.809,2.809,0,0,0,.454-1.7,2.217,2.217,0,0,0-.424-1.439,1.4,1.4,0,0,0-1.149-.521,1.561,1.561,0,0,0-1.235.534A1.962,1.962,0,0,0-14.647-3.013ZM-4.614,0h-.881V-.87h-.021a1.809,1.809,0,0,1-1.7,1q-1.966,0-1.966-2.342V-5.5H-8.3v3.147q0,1.74,1.332,1.74a1.348,1.348,0,0,0,1.061-.475,1.819,1.819,0,0,0,.416-1.243V-5.5h.881ZM-.285-.054a1.7,1.7,0,0,1-.822.172q-1.445,0-1.445-1.611V-4.748H-3.5V-5.5h.945V-6.843l.881-.285V-5.5H-.285v.752H-1.67v3.1a1.285,1.285,0,0,0,.188.79.75.75,0,0,0,.623.236A.926.926,0,0,0-.285-.806Z" transform="translate(388 65)"/>
    <path id="_20-4" data-name="20" class="cls-10" d="M1.01,0V-7.7H3.137q4.071,0,4.071,3.754A3.783,3.783,0,0,1,6.077-1.082,4.194,4.194,0,0,1,3.051,0Zm.9-6.886V-.816H3.062a3.262,3.262,0,0,0,2.358-.811,3.04,3.04,0,0,0,.843-2.3q0-2.959-3.147-2.959Zm9.561,2.277a1.077,1.077,0,0,0-.666-.177,1.124,1.124,0,0,0-.943.532A2.458,2.458,0,0,0,9.485-2.8V0H8.6V-5.5h.881v1.133h.021a1.921,1.921,0,0,1,.575-.905,1.311,1.311,0,0,1,.865-.325,1.438,1.438,0,0,1,.526.075ZM14.728.129a2.551,2.551,0,0,1-1.947-.771,2.855,2.855,0,0,1-.728-2.044A2.974,2.974,0,0,1,12.81-4.85a2.723,2.723,0,0,1,2.046-.779,2.467,2.467,0,0,1,1.92.757,3,3,0,0,1,.69,2.1,2.955,2.955,0,0,1-.744,2.108A2.607,2.607,0,0,1,14.728.129Zm.064-5.017a1.675,1.675,0,0,0-1.343.577,2.371,2.371,0,0,0-.494,1.593,2.243,2.243,0,0,0,.5,1.542,1.7,1.7,0,0,0,1.337.564,1.61,1.61,0,0,0,1.313-.553,2.4,2.4,0,0,0,.459-1.574,2.442,2.442,0,0,0-.459-1.59A1.6,1.6,0,0,0,14.792-4.888ZM19.776-.795h-.021V2.53h-.881V-5.5h.881v.967h.021a2.083,2.083,0,0,1,1.9-1.1,2.014,2.014,0,0,1,1.66.739,3.059,3.059,0,0,1,.6,1.979A3.409,3.409,0,0,1,23.262-.7a2.235,2.235,0,0,1-1.837.83A1.84,1.84,0,0,1,19.776-.795Zm-.021-2.218v.768A1.635,1.635,0,0,0,20.2-1.088a1.471,1.471,0,0,0,1.125.475,1.474,1.474,0,0,0,1.254-.612,2.809,2.809,0,0,0,.454-1.7,2.217,2.217,0,0,0-.424-1.439,1.4,1.4,0,0,0-1.149-.521,1.561,1.561,0,0,0-1.235.534A1.962,1.962,0,0,0,19.755-3.013ZM30.035,0h-.881V-.935h-.021A2.033,2.033,0,0,1,27.242.129,2.054,2.054,0,0,1,25.585-.61a3.03,3.03,0,0,1-.62-2.011,3.3,3.3,0,0,1,.688-2.186,2.268,2.268,0,0,1,1.832-.822,1.763,1.763,0,0,1,1.649.892h.021V-8.143h.881Zm-.881-2.487V-3.3a1.573,1.573,0,0,0-.44-1.128A1.477,1.477,0,0,0,27.6-4.888a1.521,1.521,0,0,0-1.268.591,2.589,2.589,0,0,0-.462,1.633,2.329,2.329,0,0,0,.443,1.5,1.448,1.448,0,0,0,1.19.551,1.5,1.5,0,0,0,1.2-.532A1.981,1.981,0,0,0,29.154-2.487ZM34.117.129A2.551,2.551,0,0,1,32.17-.642a2.855,2.855,0,0,1-.728-2.044A2.974,2.974,0,0,1,32.2-4.85a2.723,2.723,0,0,1,2.046-.779,2.467,2.467,0,0,1,1.92.757,3,3,0,0,1,.69,2.1,2.955,2.955,0,0,1-.744,2.108A2.607,2.607,0,0,1,34.117.129Zm.064-5.017a1.675,1.675,0,0,0-1.343.577,2.371,2.371,0,0,0-.494,1.593,2.243,2.243,0,0,0,.5,1.542,1.7,1.7,0,0,0,1.337.564,1.61,1.61,0,0,0,1.313-.553,2.4,2.4,0,0,0,.459-1.574,2.442,2.442,0,0,0-.459-1.59A1.6,1.6,0,0,0,34.182-4.888ZM45.192-5.5,43.543,0H42.63L41.5-3.937a2.566,2.566,0,0,1-.086-.51H41.39a2.409,2.409,0,0,1-.113.5L40.047,0h-.881L37.5-5.5h.924l1.139,4.136a2.491,2.491,0,0,1,.075.494h.043a2.311,2.311,0,0,1,.1-.5L41.046-5.5h.806L42.99-1.354a2.96,2.96,0,0,1,.081.494h.043a2.285,2.285,0,0,1,.091-.494L44.322-5.5ZM50.778,0H49.9V-3.137q0-1.751-1.278-1.751a1.387,1.387,0,0,0-1.093.5,1.841,1.841,0,0,0-.432,1.254V0h-.881V-5.5h.881v.913h.021a1.985,1.985,0,0,1,1.8-1.042,1.683,1.683,0,0,1,1.38.583,2.6,2.6,0,0,1,.478,1.684ZM59.2-.252a2.862,2.862,0,0,1-1.5.381,2.49,2.49,0,0,1-1.9-.765,2.774,2.774,0,0,1-.722-1.985A3.049,3.049,0,0,1,55.854-4.8a2.724,2.724,0,0,1,2.079-.824,2.893,2.893,0,0,1,1.278.269v.9a2.24,2.24,0,0,0-1.311-.43,1.771,1.771,0,0,0-1.383.6,2.293,2.293,0,0,0-.54,1.587,2.183,2.183,0,0,0,.508,1.525,1.749,1.749,0,0,0,1.362.559A2.208,2.208,0,0,0,59.2-1.09ZM65.1,0h-.881V-3.169q0-1.719-1.278-1.719a1.394,1.394,0,0,0-1.085.5,1.851,1.851,0,0,0-.44,1.276V0h-.881V-8.143h.881v3.556h.021a2,2,0,0,1,1.8-1.042q1.858,0,1.858,2.24Zm6.08-2.53H67.294a2.057,2.057,0,0,0,.494,1.418,1.7,1.7,0,0,0,1.3.5A2.7,2.7,0,0,0,70.8-1.225V-.4a3.192,3.192,0,0,1-1.917.526A2.325,2.325,0,0,1,67.047-.62a3.067,3.067,0,0,1-.666-2.108,3.007,3.007,0,0,1,.728-2.092,2.334,2.334,0,0,1,1.807-.808,2.068,2.068,0,0,1,1.67.7,2.911,2.911,0,0,1,.591,1.939Zm-.9-.747a1.792,1.792,0,0,0-.368-1.187A1.254,1.254,0,0,0,68.9-4.888a1.423,1.423,0,0,0-1.058.446,2.023,2.023,0,0,0-.537,1.166ZM76.833-5.5,74.642,0h-.865L71.693-5.5h.967l1.4,4a3.586,3.586,0,0,1,.193.768h.021a3.632,3.632,0,0,1,.172-.747L75.9-5.5Zm3.813.892a1.077,1.077,0,0,0-.666-.177,1.124,1.124,0,0,0-.943.532A2.458,2.458,0,0,0,78.66-2.8V0h-.881V-5.5h.881v1.133h.021a1.921,1.921,0,0,1,.575-.905,1.311,1.311,0,0,1,.865-.325,1.438,1.438,0,0,1,.526.075ZM83.9.129a2.551,2.551,0,0,1-1.947-.771,2.855,2.855,0,0,1-.728-2.044,2.974,2.974,0,0,1,.757-2.165,2.723,2.723,0,0,1,2.046-.779,2.467,2.467,0,0,1,1.92.757,3,3,0,0,1,.69,2.1A2.955,2.955,0,0,1,85.9-.663,2.607,2.607,0,0,1,83.9.129Zm.064-5.017a1.675,1.675,0,0,0-1.343.577,2.371,2.371,0,0,0-.494,1.593,2.243,2.243,0,0,0,.5,1.542,1.7,1.7,0,0,0,1.337.564,1.61,1.61,0,0,0,1.313-.553,2.4,2.4,0,0,0,.459-1.574,2.442,2.442,0,0,0-.459-1.59A1.6,1.6,0,0,0,83.966-4.888ZM92.614,0h-.881V-3.137q0-1.751-1.278-1.751a1.387,1.387,0,0,0-1.093.5,1.842,1.842,0,0,0-.432,1.254V0h-.881V-5.5h.881v.913h.021a1.985,1.985,0,0,1,1.8-1.042,1.683,1.683,0,0,1,1.38.583,2.6,2.6,0,0,1,.478,1.684Z" transform="translate(598 116)"/>
    <path id="_20-5" data-name="20" class="cls-10" d="M.65-.312V-1.375a2.065,2.065,0,0,0,.438.29,3.547,3.547,0,0,0,.537.218,4.276,4.276,0,0,0,.567.137,3.159,3.159,0,0,0,.526.048A2.062,2.062,0,0,0,3.961-.991a1.045,1.045,0,0,0,.411-.889,1.044,1.044,0,0,0-.137-.542,1.543,1.543,0,0,0-.379-.422,3.757,3.757,0,0,0-.572-.365q-.33-.175-.712-.368-.4-.2-.752-.414a3.258,3.258,0,0,1-.607-.462,1.927,1.927,0,0,1-.406-.572,1.771,1.771,0,0,1-.148-.749A1.762,1.762,0,0,1,.892-6.69,1.981,1.981,0,0,1,1.5-7.332a2.752,2.752,0,0,1,.857-.376,3.923,3.923,0,0,1,.98-.124A3.756,3.756,0,0,1,5-7.557v1.015a3.008,3.008,0,0,0-1.751-.473,2.88,2.88,0,0,0-.591.062,1.669,1.669,0,0,0-.526.2,1.166,1.166,0,0,0-.376.36.955.955,0,0,0-.145.537,1.106,1.106,0,0,0,.11.51,1.251,1.251,0,0,0,.325.392,3.237,3.237,0,0,0,.524.344q.309.167.712.365t.784.43a3.584,3.584,0,0,1,.65.5,2.22,2.22,0,0,1,.443.607,1.706,1.706,0,0,1,.164.763,1.934,1.934,0,0,1-.223.964,1.829,1.829,0,0,1-.6.642A2.627,2.627,0,0,1,3.62.019a4.78,4.78,0,0,1-1.042.11A4.246,4.246,0,0,1,2.127.1Q1.858.07,1.579.013a4.47,4.47,0,0,1-.529-.14A1.646,1.646,0,0,1,.65-.312Zm9.834.059a2.862,2.862,0,0,1-1.5.381,2.49,2.49,0,0,1-1.9-.765,2.774,2.774,0,0,1-.722-1.985A3.049,3.049,0,0,1,7.138-4.8a2.724,2.724,0,0,1,2.079-.824A2.893,2.893,0,0,1,10.5-5.36v.9a2.24,2.24,0,0,0-1.311-.43,1.771,1.771,0,0,0-1.383.6A2.293,2.293,0,0,0,7.262-2.7a2.183,2.183,0,0,0,.508,1.525,1.749,1.749,0,0,0,1.362.559,2.208,2.208,0,0,0,1.354-.478Zm4.2-4.356a1.077,1.077,0,0,0-.666-.177,1.124,1.124,0,0,0-.943.532A2.458,2.458,0,0,0,12.7-2.8V0h-.881V-5.5H12.7v1.133h.021a1.921,1.921,0,0,1,.575-.905,1.311,1.311,0,0,1,.865-.325,1.438,1.438,0,0,1,.526.075ZM17.939.129a2.551,2.551,0,0,1-1.947-.771,2.855,2.855,0,0,1-.728-2.044,2.974,2.974,0,0,1,.757-2.165,2.723,2.723,0,0,1,2.046-.779,2.467,2.467,0,0,1,1.92.757,3,3,0,0,1,.69,2.1,2.955,2.955,0,0,1-.744,2.108A2.607,2.607,0,0,1,17.939.129ZM18-4.888a1.675,1.675,0,0,0-1.343.577,2.371,2.371,0,0,0-.494,1.593,2.243,2.243,0,0,0,.5,1.542A1.7,1.7,0,0,0,18-.612a1.61,1.61,0,0,0,1.313-.553,2.4,2.4,0,0,0,.459-1.574,2.442,2.442,0,0,0-.459-1.59A1.6,1.6,0,0,0,18-4.888ZM22.967,0h-.881V-8.143h.881Zm2.664,0H24.75V-8.143h.881Zm2.686-.795h-.021V0h-.881V-8.143h.881v3.609h.021a2.083,2.083,0,0,1,1.9-1.1,2.016,2.016,0,0,1,1.657.739,3.049,3.049,0,0,1,.6,1.979A3.409,3.409,0,0,1,31.8-.7a2.235,2.235,0,0,1-1.837.83A1.809,1.809,0,0,1,28.316-.795Zm-.021-2.218v.768a1.635,1.635,0,0,0,.443,1.157,1.471,1.471,0,0,0,1.125.475,1.474,1.474,0,0,0,1.254-.612,2.809,2.809,0,0,0,.454-1.7,2.217,2.217,0,0,0-.424-1.439A1.4,1.4,0,0,0,30-4.888a1.561,1.561,0,0,0-1.235.534A1.962,1.962,0,0,0,28.295-3.013ZM37.818,0h-.881V-.859h-.021a1.844,1.844,0,0,1-1.692.988,1.808,1.808,0,0,1-1.286-.435,1.507,1.507,0,0,1-.465-1.155q0-1.542,1.815-1.794l1.649-.231q0-1.4-1.133-1.4a2.708,2.708,0,0,0-1.794.677v-.9a3.408,3.408,0,0,1,1.869-.516q1.939,0,1.939,2.052Zm-.881-2.782L35.61-2.6a2.154,2.154,0,0,0-.924.3.875.875,0,0,0-.312.771.839.839,0,0,0,.287.658,1.11,1.11,0,0,0,.765.255,1.414,1.414,0,0,0,1.082-.459,1.641,1.641,0,0,0,.427-1.163Zm5.409-1.826a1.077,1.077,0,0,0-.666-.177,1.124,1.124,0,0,0-.943.532,2.458,2.458,0,0,0-.379,1.45V0h-.881V-5.5h.881v1.133h.021a1.921,1.921,0,0,1,.575-.905,1.311,1.311,0,0,1,.865-.325,1.438,1.438,0,0,1,.526.075Z" transform="translate(598 192)"/>
    <path id="_20-6" data-name="20" class="cls-10" d="M-51.111.129a3.381,3.381,0,0,1-2.624-1.08,4,4,0,0,1-.986-2.809,4.243,4.243,0,0,1,1-2.965,3.508,3.508,0,0,1,2.734-1.106,3.3,3.3,0,0,1,2.57,1.074,4.019,4.019,0,0,1,.975,2.809,4.257,4.257,0,0,1-1,2.981A3.443,3.443,0,0,1-51.111.129Zm.064-7.144a2.483,2.483,0,0,0-1.971.875,3.389,3.389,0,0,0-.757,2.3,3.413,3.413,0,0,0,.739,2.291,2.409,2.409,0,0,0,1.926.867,2.529,2.529,0,0,0,2-.827,3.38,3.38,0,0,0,.73-2.315,3.532,3.532,0,0,0-.709-2.358A2.431,2.431,0,0,0-51.047-7.015Zm5.908,6.22h-.021V2.53h-.881V-5.5h.881v.967h.021a2.083,2.083,0,0,1,1.9-1.1,2.014,2.014,0,0,1,1.66.739,3.059,3.059,0,0,1,.6,1.979A3.409,3.409,0,0,1-41.653-.7a2.235,2.235,0,0,1-1.837.83A1.84,1.84,0,0,1-45.139-.795Zm-.021-2.218v.768a1.635,1.635,0,0,0,.443,1.157,1.471,1.471,0,0,0,1.125.475,1.474,1.474,0,0,0,1.254-.612,2.809,2.809,0,0,0,.454-1.7,2.217,2.217,0,0,0-.424-1.439,1.4,1.4,0,0,0-1.149-.521,1.561,1.561,0,0,0-1.235.534A1.962,1.962,0,0,0-45.16-3.013Zm8.137,2.959a1.7,1.7,0,0,1-.822.172q-1.445,0-1.445-1.611V-4.748h-.945V-5.5h.945V-6.843l.881-.285V-5.5h1.386v.752h-1.386v3.1a1.285,1.285,0,0,0,.188.79.75.75,0,0,0,.623.236.926.926,0,0,0,.575-.183ZM-35.4-6.9a.558.558,0,0,1-.4-.161.544.544,0,0,1-.167-.408.553.553,0,0,1,.167-.411.553.553,0,0,1,.4-.164.569.569,0,0,1,.411.164.548.548,0,0,1,.169.411.544.544,0,0,1-.169.4A.564.564,0,0,1-35.4-6.9Zm.43,6.9h-.881V-5.5h.881Zm4.082.129a2.551,2.551,0,0,1-1.947-.771,2.855,2.855,0,0,1-.728-2.044A2.974,2.974,0,0,1-32.8-4.85a2.723,2.723,0,0,1,2.046-.779,2.467,2.467,0,0,1,1.92.757,3,3,0,0,1,.69,2.1,2.955,2.955,0,0,1-.744,2.108A2.607,2.607,0,0,1-30.884.129Zm.064-5.017a1.675,1.675,0,0,0-1.343.577,2.371,2.371,0,0,0-.494,1.593,2.243,2.243,0,0,0,.5,1.542,1.7,1.7,0,0,0,1.337.564,1.61,1.61,0,0,0,1.313-.553,2.4,2.4,0,0,0,.459-1.574,2.442,2.442,0,0,0-.459-1.59A1.6,1.6,0,0,0-30.819-4.888ZM-22.172,0h-.881V-3.137q0-1.751-1.278-1.751a1.387,1.387,0,0,0-1.093.5,1.842,1.842,0,0,0-.432,1.254V0h-.881V-5.5h.881v.913h.021a1.985,1.985,0,0,1,1.8-1.042,1.683,1.683,0,0,1,1.38.583,2.6,2.6,0,0,1,.478,1.684Zm1.327-.2v-.945a2.607,2.607,0,0,0,1.584.532q1.16,0,1.16-.773a.671.671,0,0,0-.1-.373.99.99,0,0,0-.269-.271,2.067,2.067,0,0,0-.4-.212q-.228-.094-.491-.2A6.33,6.33,0,0,1-20-2.731a1.939,1.939,0,0,1-.462-.333,1.239,1.239,0,0,1-.279-.422,1.492,1.492,0,0,1-.094-.553,1.314,1.314,0,0,1,.177-.685,1.572,1.572,0,0,1,.473-.5,2.2,2.2,0,0,1,.674-.3,2.99,2.99,0,0,1,.781-.1,3.156,3.156,0,0,1,1.278.247v.892a2.491,2.491,0,0,0-1.4-.4,1.632,1.632,0,0,0-.446.056,1.091,1.091,0,0,0-.341.158.732.732,0,0,0-.22.244.644.644,0,0,0-.078.314.754.754,0,0,0,.078.36.792.792,0,0,0,.228.258,1.745,1.745,0,0,0,.365.2q.215.091.489.2a6.8,6.8,0,0,1,.655.287,2.247,2.247,0,0,1,.494.333,1.3,1.3,0,0,1,.314.427,1.377,1.377,0,0,1,.11.575,1.355,1.355,0,0,1-.18.709,1.542,1.542,0,0,1-.481.5,2.2,2.2,0,0,1-.693.3,3.421,3.421,0,0,1-.822.1A3.12,3.12,0,0,1-20.845-.2Zm8.895.2h-.881V-8.143h.881Zm2.234-6.9a.558.558,0,0,1-.4-.161.544.544,0,0,1-.167-.408.553.553,0,0,1,.167-.411.553.553,0,0,1,.4-.164.569.569,0,0,1,.411.164.548.548,0,0,1,.169.411.544.544,0,0,1-.169.4A.564.564,0,0,1-9.716-6.9Zm.43,6.9h-.881V-5.5h.881Zm1.45-.2v-.945a2.607,2.607,0,0,0,1.584.532q1.16,0,1.16-.773a.671.671,0,0,0-.1-.373A.99.99,0,0,0-5.46-2.03a2.067,2.067,0,0,0-.4-.212q-.228-.094-.491-.2a6.33,6.33,0,0,1-.642-.293,1.939,1.939,0,0,1-.462-.333,1.239,1.239,0,0,1-.279-.422,1.492,1.492,0,0,1-.094-.553,1.314,1.314,0,0,1,.177-.685,1.572,1.572,0,0,1,.473-.5,2.2,2.2,0,0,1,.674-.3,2.99,2.99,0,0,1,.781-.1,3.156,3.156,0,0,1,1.278.247v.892a2.491,2.491,0,0,0-1.4-.4,1.632,1.632,0,0,0-.446.056,1.091,1.091,0,0,0-.341.158.732.732,0,0,0-.22.244.644.644,0,0,0-.078.314.754.754,0,0,0,.078.36.792.792,0,0,0,.228.258,1.745,1.745,0,0,0,.365.2q.215.091.489.2a6.8,6.8,0,0,1,.655.287,2.247,2.247,0,0,1,.494.333,1.3,1.3,0,0,1,.314.427,1.377,1.377,0,0,1,.11.575,1.355,1.355,0,0,1-.18.709,1.542,1.542,0,0,1-.481.5,2.2,2.2,0,0,1-.693.3,3.421,3.421,0,0,1-.822.1A3.12,3.12,0,0,1-7.836-.2Zm7.552.145a1.7,1.7,0,0,1-.822.172q-1.445,0-1.445-1.611V-4.748H-3.5V-5.5h.945V-6.843l.881-.285V-5.5H-.285v.752H-1.67v3.1a1.285,1.285,0,0,0,.188.79.75.75,0,0,0,.623.236A.926.926,0,0,0-.285-.806Z" transform="translate(152 286)"/>
    <path id="_20-7" data-name="20" class="cls-10" d="M-78.289.129a3.381,3.381,0,0,1-2.624-1.08A4,4,0,0,1-81.9-3.76a4.243,4.243,0,0,1,1-2.965A3.508,3.508,0,0,1-78.16-7.831a3.3,3.3,0,0,1,2.57,1.074,4.019,4.019,0,0,1,.975,2.809,4.257,4.257,0,0,1-1,2.981A3.443,3.443,0,0,1-78.289.129Zm.064-7.144a2.483,2.483,0,0,0-1.971.875,3.389,3.389,0,0,0-.757,2.3,3.413,3.413,0,0,0,.739,2.291,2.409,2.409,0,0,0,1.926.867,2.529,2.529,0,0,0,2-.827,3.38,3.38,0,0,0,.73-2.315,3.532,3.532,0,0,0-.709-2.358A2.431,2.431,0,0,0-78.225-7.015Zm5.908,6.22h-.021V2.53h-.881V-5.5h.881v.967h.021a2.083,2.083,0,0,1,1.9-1.1,2.014,2.014,0,0,1,1.66.739,3.059,3.059,0,0,1,.6,1.979A3.409,3.409,0,0,1-68.831-.7a2.235,2.235,0,0,1-1.837.83A1.84,1.84,0,0,1-72.316-.795Zm-.021-2.218v.768a1.635,1.635,0,0,0,.443,1.157,1.471,1.471,0,0,0,1.125.475,1.474,1.474,0,0,0,1.254-.612,2.809,2.809,0,0,0,.454-1.7,2.217,2.217,0,0,0-.424-1.439,1.4,1.4,0,0,0-1.149-.521,1.561,1.561,0,0,0-1.235.534A1.962,1.962,0,0,0-72.338-3.013ZM-64.2-.054a1.7,1.7,0,0,1-.822.172q-1.445,0-1.445-1.611V-4.748h-.945V-5.5h.945V-6.843l.881-.285V-5.5H-64.2v.752h-1.386v3.1a1.285,1.285,0,0,0,.188.79.75.75,0,0,0,.623.236A.926.926,0,0,0-64.2-.806ZM-62.573-6.9a.558.558,0,0,1-.4-.161.544.544,0,0,1-.167-.408.553.553,0,0,1,.167-.411.553.553,0,0,1,.4-.164.569.569,0,0,1,.411.164.548.548,0,0,1,.169.411.544.544,0,0,1-.169.4A.564.564,0,0,1-62.573-6.9Zm.43,6.9h-.881V-5.5h.881Zm4.082.129a2.551,2.551,0,0,1-1.947-.771,2.855,2.855,0,0,1-.728-2.044,2.974,2.974,0,0,1,.757-2.165,2.723,2.723,0,0,1,2.046-.779,2.467,2.467,0,0,1,1.92.757,3,3,0,0,1,.69,2.1,2.955,2.955,0,0,1-.744,2.108A2.607,2.607,0,0,1-58.062.129ZM-58-4.888a1.675,1.675,0,0,0-1.343.577,2.371,2.371,0,0,0-.494,1.593,2.243,2.243,0,0,0,.5,1.542A1.7,1.7,0,0,0-58-.612a1.61,1.61,0,0,0,1.313-.553,2.4,2.4,0,0,0,.459-1.574,2.442,2.442,0,0,0-.459-1.59A1.6,1.6,0,0,0-58-4.888ZM-49.35,0h-.881V-3.137q0-1.751-1.278-1.751a1.387,1.387,0,0,0-1.093.5,1.841,1.841,0,0,0-.432,1.254V0h-.881V-5.5h.881v.913h.021a1.985,1.985,0,0,1,1.8-1.042,1.683,1.683,0,0,1,1.38.583,2.6,2.6,0,0,1,.478,1.684Zm8.422-.252a2.862,2.862,0,0,1-1.5.381,2.49,2.49,0,0,1-1.9-.765,2.774,2.774,0,0,1-.722-1.985A3.049,3.049,0,0,1-44.274-4.8,2.724,2.724,0,0,1-42.2-5.629a2.893,2.893,0,0,1,1.278.269v.9a2.24,2.24,0,0,0-1.311-.43,1.771,1.771,0,0,0-1.383.6A2.293,2.293,0,0,0-44.15-2.7a2.183,2.183,0,0,0,.508,1.525,1.749,1.749,0,0,0,1.362.559,2.208,2.208,0,0,0,1.354-.478Zm5.9.252h-.881V-3.169q0-1.719-1.278-1.719a1.394,1.394,0,0,0-1.085.5,1.851,1.851,0,0,0-.44,1.276V0H-39.6V-8.143h.881v3.556h.021a2,2,0,0,1,1.8-1.042q1.858,0,1.858,2.24Zm6.08-2.53h-3.883a2.057,2.057,0,0,0,.494,1.418,1.7,1.7,0,0,0,1.3.5,2.7,2.7,0,0,0,1.708-.612V-.4a3.192,3.192,0,0,1-1.917.526A2.325,2.325,0,0,1-33.081-.62a3.067,3.067,0,0,1-.666-2.108,3.007,3.007,0,0,1,.728-2.092,2.334,2.334,0,0,1,1.807-.808,2.068,2.068,0,0,1,1.67.7,2.911,2.911,0,0,1,.591,1.939Zm-.9-.747a1.792,1.792,0,0,0-.368-1.187,1.254,1.254,0,0,0-1.007-.424,1.423,1.423,0,0,0-1.058.446,2.023,2.023,0,0,0-.537,1.166Zm5.983,3.024a2.862,2.862,0,0,1-1.5.381,2.49,2.49,0,0,1-1.9-.765,2.774,2.774,0,0,1-.722-1.985A3.049,3.049,0,0,1-27.215-4.8a2.724,2.724,0,0,1,2.079-.824,2.893,2.893,0,0,1,1.278.269v.9a2.24,2.24,0,0,0-1.311-.43,1.771,1.771,0,0,0-1.383.6,2.293,2.293,0,0,0-.54,1.587,2.183,2.183,0,0,0,.508,1.525,1.749,1.749,0,0,0,1.362.559,2.208,2.208,0,0,0,1.354-.478Zm5.9.252h-1.235l-2.428-2.643h-.021V0h-.881V-8.143h.881v5.162h.021l2.31-2.519h1.155l-2.551,2.653Zm1.8-.795h-.021V0h-.881V-8.143h.881v3.609h.021a2.083,2.083,0,0,1,1.9-1.1,2.016,2.016,0,0,1,1.657.739,3.049,3.049,0,0,1,.6,1.979A3.409,3.409,0,0,1-12.681-.7a2.235,2.235,0,0,1-1.837.83A1.809,1.809,0,0,1-16.167-.795Zm-.021-2.218v.768a1.635,1.635,0,0,0,.443,1.157,1.471,1.471,0,0,0,1.125.475,1.474,1.474,0,0,0,1.254-.612,2.809,2.809,0,0,0,.454-1.7,2.217,2.217,0,0,0-.424-1.439,1.4,1.4,0,0,0-1.149-.521,1.561,1.561,0,0,0-1.235.534A1.962,1.962,0,0,0-16.188-3.013ZM-8.3.129a2.551,2.551,0,0,1-1.947-.771,2.855,2.855,0,0,1-.728-2.044,2.974,2.974,0,0,1,.757-2.165,2.723,2.723,0,0,1,2.046-.779,2.467,2.467,0,0,1,1.92.757,3,3,0,0,1,.69,2.1A2.955,2.955,0,0,1-6.308-.663,2.607,2.607,0,0,1-8.3.129Zm.064-5.017a1.675,1.675,0,0,0-1.343.577,2.371,2.371,0,0,0-.494,1.593,2.243,2.243,0,0,0,.5,1.542,1.7,1.7,0,0,0,1.337.564,1.61,1.61,0,0,0,1.313-.553,2.4,2.4,0,0,0,.459-1.574,2.442,2.442,0,0,0-.459-1.59A1.6,1.6,0,0,0-8.239-4.888ZM-.14-5.5-1.987-2.718-.172,0H-1.2l-1.08-1.783q-.1-.167-.242-.419h-.021q-.027.048-.252.419L-3.894,0H-4.909l1.875-2.7L-4.829-5.5H-3.8l1.063,1.88q.118.209.231.43h.021L-1.112-5.5Z" transform="translate(152 375)"/>
    <path id="_20-8" data-name="20" class="cls-10" d="M-75.389-.312V-1.375a2.065,2.065,0,0,0,.438.29,3.546,3.546,0,0,0,.537.218,4.276,4.276,0,0,0,.567.137,3.159,3.159,0,0,0,.526.048,2.062,2.062,0,0,0,1.243-.309,1.045,1.045,0,0,0,.411-.889,1.044,1.044,0,0,0-.137-.542,1.543,1.543,0,0,0-.379-.422,3.757,3.757,0,0,0-.572-.365q-.33-.175-.712-.368-.4-.2-.752-.414a3.258,3.258,0,0,1-.607-.462,1.927,1.927,0,0,1-.406-.572,1.771,1.771,0,0,1-.148-.749,1.762,1.762,0,0,1,.231-.916,1.981,1.981,0,0,1,.607-.642,2.752,2.752,0,0,1,.857-.376,3.923,3.923,0,0,1,.98-.124,3.756,3.756,0,0,1,1.66.274v1.015a3.008,3.008,0,0,0-1.751-.473,2.88,2.88,0,0,0-.591.062,1.669,1.669,0,0,0-.526.2,1.166,1.166,0,0,0-.376.36.955.955,0,0,0-.145.537,1.106,1.106,0,0,0,.11.51A1.251,1.251,0,0,0-74-4.952a3.236,3.236,0,0,0,.524.344q.309.167.712.365t.784.43a3.584,3.584,0,0,1,.65.5,2.22,2.22,0,0,1,.443.607,1.706,1.706,0,0,1,.164.763,1.934,1.934,0,0,1-.223.964,1.829,1.829,0,0,1-.6.642,2.627,2.627,0,0,1-.873.357,4.78,4.78,0,0,1-1.042.11A4.246,4.246,0,0,1-73.912.1q-.269-.03-.548-.086a4.47,4.47,0,0,1-.529-.14A1.646,1.646,0,0,1-75.389-.312ZM-64.883-2.53h-3.883a2.057,2.057,0,0,0,.494,1.418,1.7,1.7,0,0,0,1.3.5,2.7,2.7,0,0,0,1.708-.612V-.4a3.192,3.192,0,0,1-1.917.526A2.325,2.325,0,0,1-69.013-.62a3.067,3.067,0,0,1-.666-2.108,3.007,3.007,0,0,1,.728-2.092,2.334,2.334,0,0,1,1.807-.808,2.068,2.068,0,0,1,1.67.7,2.911,2.911,0,0,1,.591,1.939Zm-.9-.747a1.792,1.792,0,0,0-.368-1.187,1.254,1.254,0,0,0-1.007-.424,1.423,1.423,0,0,0-1.058.446,2.023,2.023,0,0,0-.537,1.166ZM-62.67,0h-.881V-8.143h.881Zm6.2-2.53H-60.35a2.057,2.057,0,0,0,.494,1.418,1.7,1.7,0,0,0,1.3.5,2.7,2.7,0,0,0,1.708-.612V-.4a3.192,3.192,0,0,1-1.917.526A2.325,2.325,0,0,1-60.6-.62a3.067,3.067,0,0,1-.666-2.108,3.007,3.007,0,0,1,.728-2.092,2.334,2.334,0,0,1,1.807-.808,2.068,2.068,0,0,1,1.67.7,2.911,2.911,0,0,1,.591,1.939Zm-.9-.747a1.792,1.792,0,0,0-.368-1.187,1.254,1.254,0,0,0-1.007-.424,1.423,1.423,0,0,0-1.058.446,2.023,2.023,0,0,0-.537,1.166Zm5.983,3.024a2.862,2.862,0,0,1-1.5.381,2.49,2.49,0,0,1-1.9-.765,2.774,2.774,0,0,1-.722-1.985A3.049,3.049,0,0,1-54.731-4.8a2.724,2.724,0,0,1,2.079-.824,2.893,2.893,0,0,1,1.278.269v.9a2.24,2.24,0,0,0-1.311-.43,1.771,1.771,0,0,0-1.383.6,2.293,2.293,0,0,0-.54,1.587A2.183,2.183,0,0,0-54.1-1.171a1.749,1.749,0,0,0,1.362.559,2.208,2.208,0,0,0,1.354-.478Zm3.883.2a1.7,1.7,0,0,1-.822.172q-1.445,0-1.445-1.611V-4.748h-.945V-5.5h.945V-6.843l.881-.285V-5.5H-47.5v.752h-1.386v3.1a1.285,1.285,0,0,0,.188.79.75.75,0,0,0,.623.236A.926.926,0,0,0-47.5-.806Zm5.6-2.476h-3.883a2.057,2.057,0,0,0,.494,1.418,1.7,1.7,0,0,0,1.3.5,2.7,2.7,0,0,0,1.708-.612V-.4A3.192,3.192,0,0,1-44.2.129,2.325,2.325,0,0,1-46.036-.62,3.067,3.067,0,0,1-46.7-2.729a3.007,3.007,0,0,1,.728-2.092,2.334,2.334,0,0,1,1.807-.808,2.068,2.068,0,0,1,1.67.7,2.911,2.911,0,0,1,.591,1.939Zm-.9-.747a1.792,1.792,0,0,0-.368-1.187,1.254,1.254,0,0,0-1.007-.424,1.423,1.423,0,0,0-1.058.446,2.023,2.023,0,0,0-.537,1.166ZM-35.879,0h-.881V-.935h-.021A2.033,2.033,0,0,1-38.672.129,2.054,2.054,0,0,1-40.329-.61a3.03,3.03,0,0,1-.62-2.011,3.3,3.3,0,0,1,.688-2.186,2.268,2.268,0,0,1,1.832-.822,1.763,1.763,0,0,1,1.649.892h.021V-8.143h.881Zm-.881-2.487V-3.3a1.573,1.573,0,0,0-.44-1.128,1.477,1.477,0,0,0-1.117-.462,1.521,1.521,0,0,0-1.268.591,2.589,2.589,0,0,0-.462,1.633,2.329,2.329,0,0,0,.443,1.5,1.448,1.448,0,0,0,1.19.551,1.5,1.5,0,0,0,1.2-.532A1.981,1.981,0,0,0-36.76-2.487ZM-28.784.129a2.551,2.551,0,0,1-1.947-.771,2.855,2.855,0,0,1-.728-2.044A2.974,2.974,0,0,1-30.7-4.85a2.723,2.723,0,0,1,2.046-.779,2.467,2.467,0,0,1,1.92.757,3,3,0,0,1,.69,2.1,2.955,2.955,0,0,1-.744,2.108A2.607,2.607,0,0,1-28.784.129Zm.064-5.017a1.675,1.675,0,0,0-1.343.577,2.371,2.371,0,0,0-.494,1.593,2.243,2.243,0,0,0,.5,1.542,1.7,1.7,0,0,0,1.337.564,1.61,1.61,0,0,0,1.313-.553,2.4,2.4,0,0,0,.459-1.574,2.442,2.442,0,0,0-.459-1.59A1.6,1.6,0,0,0-28.719-4.888Zm4.984,4.093h-.021V2.53h-.881V-5.5h.881v.967h.021a2.083,2.083,0,0,1,1.9-1.1,2.014,2.014,0,0,1,1.66.739,3.059,3.059,0,0,1,.6,1.979A3.409,3.409,0,0,1-20.249-.7a2.235,2.235,0,0,1-1.837.83A1.84,1.84,0,0,1-23.735-.795Zm-.021-2.218v.768a1.635,1.635,0,0,0,.443,1.157,1.471,1.471,0,0,0,1.125.475,1.474,1.474,0,0,0,1.254-.612,2.809,2.809,0,0,0,.454-1.7A2.217,2.217,0,0,0-20.9-4.367a1.4,1.4,0,0,0-1.149-.521,1.561,1.561,0,0,0-1.235.534A1.962,1.962,0,0,0-23.756-3.013Zm8.137,2.959a1.7,1.7,0,0,1-.822.172q-1.445,0-1.445-1.611V-4.748h-.945V-5.5h.945V-6.843L-17-7.127V-5.5h1.386v.752H-17v3.1a1.285,1.285,0,0,0,.188.79.75.75,0,0,0,.623.236.926.926,0,0,0,.575-.183ZM-13.992-6.9a.558.558,0,0,1-.4-.161.544.544,0,0,1-.167-.408.553.553,0,0,1,.167-.411.553.553,0,0,1,.4-.164.569.569,0,0,1,.411.164.548.548,0,0,1,.169.411.544.544,0,0,1-.169.4A.564.564,0,0,1-13.992-6.9Zm.43,6.9h-.881V-5.5h.881ZM-9.48.129a2.551,2.551,0,0,1-1.947-.771,2.855,2.855,0,0,1-.728-2.044A2.974,2.974,0,0,1-11.4-4.85a2.723,2.723,0,0,1,2.046-.779,2.467,2.467,0,0,1,1.92.757,3,3,0,0,1,.69,2.1A2.955,2.955,0,0,1-7.485-.663,2.607,2.607,0,0,1-9.48.129Zm.064-5.017a1.675,1.675,0,0,0-1.343.577,2.371,2.371,0,0,0-.494,1.593,2.243,2.243,0,0,0,.5,1.542,1.7,1.7,0,0,0,1.337.564A1.61,1.61,0,0,0-8.1-1.166a2.4,2.4,0,0,0,.459-1.574A2.442,2.442,0,0,0-8.1-4.329,1.6,1.6,0,0,0-9.416-4.888ZM-.768,0h-.881V-3.137q0-1.751-1.278-1.751a1.387,1.387,0,0,0-1.093.5,1.842,1.842,0,0,0-.432,1.254V0h-.881V-5.5h.881v.913h.021a1.985,1.985,0,0,1,1.8-1.042,1.683,1.683,0,0,1,1.38.583A2.6,2.6,0,0,1-.768-3.362Z" transform="translate(152 197)"/>
    <path id="_20-9" data-name="20" class="cls-10" d="M-29.708.129a3.381,3.381,0,0,1-2.624-1.08,4,4,0,0,1-.986-2.809,4.243,4.243,0,0,1,1-2.965,3.508,3.508,0,0,1,2.734-1.106,3.3,3.3,0,0,1,2.57,1.074,4.019,4.019,0,0,1,.975,2.809,4.257,4.257,0,0,1-1,2.981A3.443,3.443,0,0,1-29.708.129Zm.064-7.144a2.483,2.483,0,0,0-1.971.875,3.389,3.389,0,0,0-.757,2.3,3.413,3.413,0,0,0,.739,2.291,2.409,2.409,0,0,0,1.926.867,2.529,2.529,0,0,0,2-.827,3.38,3.38,0,0,0,.73-2.315,3.532,3.532,0,0,0-.709-2.358A2.431,2.431,0,0,0-29.643-7.015Zm5.908,6.22h-.021V2.53h-.881V-5.5h.881v.967h.021a2.083,2.083,0,0,1,1.9-1.1,2.014,2.014,0,0,1,1.66.739,3.059,3.059,0,0,1,.6,1.979A3.409,3.409,0,0,1-20.249-.7a2.235,2.235,0,0,1-1.837.83A1.84,1.84,0,0,1-23.735-.795Zm-.021-2.218v.768a1.635,1.635,0,0,0,.443,1.157,1.471,1.471,0,0,0,1.125.475,1.474,1.474,0,0,0,1.254-.612,2.809,2.809,0,0,0,.454-1.7A2.217,2.217,0,0,0-20.9-4.367a1.4,1.4,0,0,0-1.149-.521,1.561,1.561,0,0,0-1.235.534A1.962,1.962,0,0,0-23.756-3.013Zm8.137,2.959a1.7,1.7,0,0,1-.822.172q-1.445,0-1.445-1.611V-4.748h-.945V-5.5h.945V-6.843L-17-7.127V-5.5h1.386v.752H-17v3.1a1.285,1.285,0,0,0,.188.79.75.75,0,0,0,.623.236.926.926,0,0,0,.575-.183ZM-13.992-6.9a.558.558,0,0,1-.4-.161.544.544,0,0,1-.167-.408.553.553,0,0,1,.167-.411.553.553,0,0,1,.4-.164.569.569,0,0,1,.411.164.548.548,0,0,1,.169.411.544.544,0,0,1-.169.4A.564.564,0,0,1-13.992-6.9Zm.43,6.9h-.881V-5.5h.881ZM-9.48.129a2.551,2.551,0,0,1-1.947-.771,2.855,2.855,0,0,1-.728-2.044A2.974,2.974,0,0,1-11.4-4.85a2.723,2.723,0,0,1,2.046-.779,2.467,2.467,0,0,1,1.92.757,3,3,0,0,1,.69,2.1A2.955,2.955,0,0,1-7.485-.663,2.607,2.607,0,0,1-9.48.129Zm.064-5.017a1.675,1.675,0,0,0-1.343.577,2.371,2.371,0,0,0-.494,1.593,2.243,2.243,0,0,0,.5,1.542,1.7,1.7,0,0,0,1.337.564A1.61,1.61,0,0,0-8.1-1.166a2.4,2.4,0,0,0,.459-1.574A2.442,2.442,0,0,0-8.1-4.329,1.6,1.6,0,0,0-9.416-4.888ZM-.768,0h-.881V-3.137q0-1.751-1.278-1.751a1.387,1.387,0,0,0-1.093.5,1.842,1.842,0,0,0-.432,1.254V0h-.881V-5.5h.881v.913h.021a1.985,1.985,0,0,1,1.8-1.042,1.683,1.683,0,0,1,1.38.583A2.6,2.6,0,0,1-.768-3.362Z" transform="translate(152 341)"/>
    <path id="Rectangle_138" data-name="Rectangle 138" class="cls-10" d="M0,0H15V1H0Z" transform="translate(171 77) rotate(180)"/>
    <path id="Rectangle_138-2" data-name="Rectangle 138" class="cls-10" d="M0,0H33V1H0Z" transform="translate(156 112)"/>
    <path id="Rectangle_138-3" data-name="Rectangle 138" class="cls-10" d="M0,0H19V1H0Z" transform="translate(375 72) rotate(90)"/>
    <path id="Rectangle_138-4" data-name="Rectangle 138" class="cls-10" d="M0,0H29V1H0Z" transform="translate(565 111)"/>
    <path id="Rectangle_138-5" data-name="Rectangle 138" class="cls-10" d="M0,0H25V1H0Z" transform="translate(569 187)"/>
    <path id="Rectangle_138-6" data-name="Rectangle 138" class="cls-10" d="M0,0H19V.731H0Z" transform="translate(156 281)"/>
    <path id="Rectangle_138-7" data-name="Rectangle 138" class="cls-10" d="M0,0H26V1H0Z" transform="translate(156 370)"/>
    <path id="Rectangle_138-8" data-name="Rectangle 138" class="cls-10" d="M0,0H36V1H0Z" transform="translate(156 192)"/>
    <path id="Rectangle_138-9" data-name="Rectangle 138" class="cls-10" d="M0,0H36V1H0Z" transform="translate(156 336)"/>
    <g id="Symbol_5_17" data-name="Symbol 5  17" transform="translate(-144 -3298)">
      <rect id="Rectangle_4469" data-name="Rectangle 4469" class="cls-7" width="24" height="24" transform="translate(334 3442)"/>
      <path id="Path_5842" data-name="Path 5842" class="cls-11" d="M17.5,2a.472.472,0,0,1,.5.5v15a.472.472,0,0,1-.5.5H2.5a.472.472,0,0,1-.5-.5V2.5A.472.472,0,0,1,2.5,2h15m0-2H2.5A2.476,2.476,0,0,0,0,2.5v15A2.476,2.476,0,0,0,2.5,20h15A2.476,2.476,0,0,0,20,17.5V2.5A2.476,2.476,0,0,0,17.5,0Z" transform="translate(336 3444)"/>
    </g>
    <g id="Symbol_5_18" data-name="Symbol 5  18" transform="translate(-144 -3262)">
      <rect id="Rectangle_4469-2" data-name="Rectangle 4469" class="cls-7" width="24" height="24" transform="translate(334 3442)"/>
      <path id="Path_5842-2" data-name="Path 5842" class="cls-11" d="M17.5,2a.472.472,0,0,1,.5.5v15a.472.472,0,0,1-.5.5H2.5a.472.472,0,0,1-.5-.5V2.5A.472.472,0,0,1,2.5,2h15m0-2H2.5A2.476,2.476,0,0,0,0,2.5v15A2.476,2.476,0,0,0,2.5,20h15A2.476,2.476,0,0,0,20,17.5V2.5A2.476,2.476,0,0,0,17.5,0Z" transform="translate(336 3444)"/>
    </g>
    <g id="Symbol_5_19" data-name="Symbol 5  19" transform="translate(-144 -3226)">
      <rect id="Rectangle_4469-3" data-name="Rectangle 4469" class="cls-7" width="24" height="24" transform="translate(334 3442)"/>
      <path id="Path_5842-3" data-name="Path 5842" class="cls-11" d="M17.5,2a.472.472,0,0,1,.5.5v15a.472.472,0,0,1-.5.5H2.5a.472.472,0,0,1-.5-.5V2.5A.472.472,0,0,1,2.5,2h15m0-2H2.5A2.476,2.476,0,0,0,0,2.5v15A2.476,2.476,0,0,0,2.5,20h15A2.476,2.476,0,0,0,20,17.5V2.5A2.476,2.476,0,0,0,17.5,0Z" transform="translate(336 3444)"/>
    </g>
    <g id="Symbol_5_20" data-name="Symbol 5  20" transform="translate(-144 -3190)">
      <rect id="Rectangle_4469-4" data-name="Rectangle 4469" class="cls-7" width="24" height="24" transform="translate(334 3442)"/>
      <path id="Path_5842-4" data-name="Path 5842" class="cls-11" d="M17.5,2a.472.472,0,0,1,.5.5v15a.472.472,0,0,1-.5.5H2.5a.472.472,0,0,1-.5-.5V2.5A.472.472,0,0,1,2.5,2h15m0-2H2.5A2.476,2.476,0,0,0,0,2.5v15A2.476,2.476,0,0,0,2.5,20h15A2.476,2.476,0,0,0,20,17.5V2.5A2.476,2.476,0,0,0,17.5,0Z" transform="translate(336 3444)"/>
    </g>
    <g id="Symbol_5_21" data-name="Symbol 5  21" transform="translate(-144 -3154)">
      <rect id="Rectangle_4469-5" data-name="Rectangle 4469" class="cls-7" width="24" height="24" transform="translate(334 3442)"/>
      <path id="Path_5842-5" data-name="Path 5842" class="cls-11" d="M17.5,2a.472.472,0,0,1,.5.5v15a.472.472,0,0,1-.5.5H2.5a.472.472,0,0,1-.5-.5V2.5A.472.472,0,0,1,2.5,2h15m0-2H2.5A2.476,2.476,0,0,0,0,2.5v15A2.476,2.476,0,0,0,2.5,20h15A2.476,2.476,0,0,0,20,17.5V2.5A2.476,2.476,0,0,0,17.5,0Z" transform="translate(336 3444)"/>
    </g>
    <g id="Symbol_5_22" data-name="Symbol 5  22" transform="translate(-144 -3118)">
      <rect id="Rectangle_4469-6" data-name="Rectangle 4469" class="cls-7" width="24" height="24" transform="translate(334 3442)"/>
      <path id="Path_5842-6" data-name="Path 5842" class="cls-11" d="M17.5,2a.472.472,0,0,1,.5.5v15a.472.472,0,0,1-.5.5H2.5a.472.472,0,0,1-.5-.5V2.5A.472.472,0,0,1,2.5,2h15m0-2H2.5A2.476,2.476,0,0,0,0,2.5v15A2.476,2.476,0,0,0,2.5,20h15A2.476,2.476,0,0,0,20,17.5V2.5A2.476,2.476,0,0,0,17.5,0Z" transform="translate(336 3444)"/>
    </g>
    <g id="Symbol_5_23" data-name="Symbol 5  23" transform="translate(-144 -3082)">
      <rect id="Rectangle_4469-7" data-name="Rectangle 4469" class="cls-7" width="24" height="24" transform="translate(334 3442)"/>
      <path id="Path_5842-7" data-name="Path 5842" class="cls-11" d="M17.5,2a.472.472,0,0,1,.5.5v15a.472.472,0,0,1-.5.5H2.5a.472.472,0,0,1-.5-.5V2.5A.472.472,0,0,1,2.5,2h15m0-2H2.5A2.476,2.476,0,0,0,0,2.5v15A2.476,2.476,0,0,0,2.5,20h15A2.476,2.476,0,0,0,20,17.5V2.5A2.476,2.476,0,0,0,17.5,0Z" transform="translate(336 3444)"/>
    </g>
    <g id="Symbol_5_24" data-name="Symbol 5  24" transform="translate(-144 -3046)">
      <rect id="Rectangle_4469-8" data-name="Rectangle 4469" class="cls-7" width="24" height="24" transform="translate(334 3442)"/>
      <path id="Path_5842-8" data-name="Path 5842" class="cls-11" d="M17.5,2a.472.472,0,0,1,.5.5v15a.472.472,0,0,1-.5.5H2.5a.472.472,0,0,1-.5-.5V2.5A.472.472,0,0,1,2.5,2h15m0-2H2.5A2.476,2.476,0,0,0,0,2.5v15A2.476,2.476,0,0,0,2.5,20h15A2.476,2.476,0,0,0,20,17.5V2.5A2.476,2.476,0,0,0,17.5,0Z" transform="translate(336 3444)"/>
    </g>
    <g id="Group_8" data-name="Group 8" transform="translate(-303 -383)">
      <rect id="Rectangle_4061" data-name="Rectangle 4061" class="cls-12" width="90" height="24" rx="2" transform="translate(493 483)"/>
      <text id="Alabama" class="cls-13" transform="translate(498 500)"><tspan x="0" y="0">Alabama</tspan></text>
      <g id="Group_9" data-name="Group 9" transform="translate(10)">
        <path id="Path_5670" data-name="Path 5670" class="cls-14" d="M548.3,178.3h0a.967.967,0,0,1-1.4,0l-2.9-2.9-2.9,2.9a.967.967,0,0,1-1.4,0h0a.967.967,0,0,1,0-1.4l2.9-2.9-2.9-2.9a.967.967,0,0,1,0-1.4h0a.967.967,0,0,1,1.4,0l2.9,2.9,2.9-2.9a.967.967,0,0,1,1.4,0h0a.967.967,0,0,1,0,1.4l-2.9,2.9,2.9,2.9A.967.967,0,0,1,548.3,178.3Z" transform="translate(15 321)"/>
        <rect id="Rectangle_4600" data-name="Rectangle 4600" class="cls-7" width="18" height="18" transform="translate(550 486)"/>
      </g>
    </g>
    <path id="Path_5843" data-name="Path 5843" class="cls-15" d="M42.7,0h-15a2.476,2.476,0,0,0-2.5,2.5v15A2.476,2.476,0,0,0,27.7,20h15a2.476,2.476,0,0,0,2.5-2.5V2.5A2.476,2.476,0,0,0,42.7,0ZM41.4,7.1l-7.3,7.3a.967.967,0,0,1-1.4,0l-3.6-3.6a.99.99,0,1,1,1.4-1.4l2.9,2.9L40,5.7a.967.967,0,0,1,1.4,0A1.2,1.2,0,0,1,41.4,7.1Z" transform="translate(166.801 182)"/>
  </g>
</svg>
