<svg xmlns="http://www.w3.org/2000/svg" xmlns:xlink="http://www.w3.org/1999/xlink" viewBox="-12774 -10984 346 300">
  <defs>
    <style>
      .cls-1 {
        clip-path: url(#clip-Standard_Checkbox_1);
      }

      .cls-2 {
        fill: #3d3d3d;
      }

      .cls-3 {
        fill: #999;
      }

      .cls-4 {
        fill: #1f5ea8;
      }
    </style>
    <clipPath id="clip-Standard_Checkbox_1">
      <rect x="-12774" y="-10984" width="346" height="300"/>
    </clipPath>
  </defs>
  <g id="Standard_Checkbox_1" data-name="Standard Checkbox – 1" class="cls-1">
    <path id="Path_6253" data-name="Path 6253" class="cls-2" d="M1.374,0V-9.994H2.536v8.941H6.945V0Zm11.7,0-.226-1.066H12.8a3.153,3.153,0,0,1-1.118.954,3.407,3.407,0,0,1-1.391.25A2.5,2.5,0,0,1,8.542-.437a2.094,2.094,0,0,1-.632-1.634q0-2.27,3.63-2.379l1.271-.041v-.465a1.9,1.9,0,0,0-.379-1.3,1.56,1.56,0,0,0-1.213-.42A4.944,4.944,0,0,0,9.1-6.1L8.75-6.973a5.332,5.332,0,0,1,1.213-.472,5.255,5.255,0,0,1,1.323-.171,2.854,2.854,0,0,1,1.986.595,2.482,2.482,0,0,1,.646,1.907V0ZM10.514-.8a2.3,2.3,0,0,0,1.665-.581,2.15,2.15,0,0,0,.6-1.627v-.677l-1.135.048a4.128,4.128,0,0,0-1.952.42,1.268,1.268,0,0,0-.6,1.159,1.169,1.169,0,0,0,.373.937A1.546,1.546,0,0,0,10.514-.8Zm9.229-6.815a2.785,2.785,0,0,1,2.293,1.008,4.426,4.426,0,0,1,.817,2.854,4.458,4.458,0,0,1-.824,2.868A2.774,2.774,0,0,1,19.742.137a3.242,3.242,0,0,1-1.336-.27,2.513,2.513,0,0,1-1.015-.831h-.082L17.069,0h-.813V-10.637h1.135v2.584q0,.868-.055,1.559h.055A2.694,2.694,0,0,1,19.742-7.615Zm-.164.95A1.981,1.981,0,0,0,17.9-6a3.76,3.76,0,0,0-.513,2.246,3.749,3.749,0,0,0,.526,2.259,2,2,0,0,0,1.688.68,1.75,1.75,0,0,0,1.559-.762,3.917,3.917,0,0,0,.513-2.191,3.765,3.765,0,0,0-.513-2.181A1.817,1.817,0,0,0,19.578-6.665ZM28,.137A3.442,3.442,0,0,1,25.378-.875a3.917,3.917,0,0,1-.96-2.81,4.344,4.344,0,0,1,.892-2.878,2.963,2.963,0,0,1,2.4-1.066,2.825,2.825,0,0,1,2.229.926,3.55,3.55,0,0,1,.82,2.444v.718H25.594a2.97,2.97,0,0,0,.667,2,2.305,2.305,0,0,0,1.781.684,6.035,6.035,0,0,0,2.393-.506V-.349A6.005,6.005,0,0,1,29.3.024,6.4,6.4,0,0,1,28,.137Zm-.308-6.815a1.853,1.853,0,0,0-1.439.588,2.71,2.71,0,0,0-.632,1.627h3.917a2.5,2.5,0,0,0-.479-1.644A1.684,1.684,0,0,0,27.692-6.679ZM33.824,0H32.689V-10.637h1.135Z" transform="translate(-12601 -10851)"/>
    <path id="Path_6254" data-name="Path 6254" class="cls-2" d="M1.374,0V-9.994H2.536v8.941H6.945V0Zm11.7,0-.226-1.066H12.8a3.153,3.153,0,0,1-1.118.954,3.407,3.407,0,0,1-1.391.25A2.5,2.5,0,0,1,8.542-.437a2.094,2.094,0,0,1-.632-1.634q0-2.27,3.63-2.379l1.271-.041v-.465a1.9,1.9,0,0,0-.379-1.3,1.56,1.56,0,0,0-1.213-.42A4.944,4.944,0,0,0,9.1-6.1L8.75-6.973a5.332,5.332,0,0,1,1.213-.472,5.255,5.255,0,0,1,1.323-.171,2.854,2.854,0,0,1,1.986.595,2.482,2.482,0,0,1,.646,1.907V0ZM10.514-.8a2.3,2.3,0,0,0,1.665-.581,2.15,2.15,0,0,0,.6-1.627v-.677l-1.135.048a4.128,4.128,0,0,0-1.952.42,1.268,1.268,0,0,0-.6,1.159,1.169,1.169,0,0,0,.373.937A1.546,1.546,0,0,0,10.514-.8Zm9.229-6.815a2.785,2.785,0,0,1,2.293,1.008,4.426,4.426,0,0,1,.817,2.854,4.458,4.458,0,0,1-.824,2.868A2.774,2.774,0,0,1,19.742.137a3.242,3.242,0,0,1-1.336-.27,2.513,2.513,0,0,1-1.015-.831h-.082L17.069,0h-.813V-10.637h1.135v2.584q0,.868-.055,1.559h.055A2.694,2.694,0,0,1,19.742-7.615Zm-.164.95A1.981,1.981,0,0,0,17.9-6a3.76,3.76,0,0,0-.513,2.246,3.749,3.749,0,0,0,.526,2.259,2,2,0,0,0,1.688.68,1.75,1.75,0,0,0,1.559-.762,3.917,3.917,0,0,0,.513-2.191,3.765,3.765,0,0,0-.513-2.181A1.817,1.817,0,0,0,19.578-6.665ZM28,.137A3.442,3.442,0,0,1,25.378-.875a3.917,3.917,0,0,1-.96-2.81,4.344,4.344,0,0,1,.892-2.878,2.963,2.963,0,0,1,2.4-1.066,2.825,2.825,0,0,1,2.229.926,3.55,3.55,0,0,1,.82,2.444v.718H25.594a2.97,2.97,0,0,0,.667,2,2.305,2.305,0,0,0,1.781.684,6.035,6.035,0,0,0,2.393-.506V-.349A6.005,6.005,0,0,1,29.3.024,6.4,6.4,0,0,1,28,.137Zm-.308-6.815a1.853,1.853,0,0,0-1.439.588,2.71,2.71,0,0,0-.632,1.627h3.917a2.5,2.5,0,0,0-.479-1.644A1.684,1.684,0,0,0,27.692-6.679ZM33.824,0H32.689V-10.637h1.135Z" transform="translate(-12601 -10807)"/>
    <path id="Path_6231" data-name="Path 6231" class="cls-3" d="M17.5,2a.472.472,0,0,1,.5.5v15a.472.472,0,0,1-.5.5H2.5a.472.472,0,0,1-.5-.5V2.5A.472.472,0,0,1,2.5,2h15m0-2H2.5A2.476,2.476,0,0,0,0,2.5v15A2.476,2.476,0,0,0,2.5,20h15A2.476,2.476,0,0,0,20,17.5V2.5A2.476,2.476,0,0,0,17.5,0Z" transform="translate(-12632 -10823)"/>
    <path id="Path_6232" data-name="Path 6232" class="cls-4" d="M42.7,0h-15a2.476,2.476,0,0,0-2.5,2.5v15A2.476,2.476,0,0,0,27.7,20h15a2.476,2.476,0,0,0,2.5-2.5V2.5A2.476,2.476,0,0,0,42.7,0ZM41.4,7.1l-7.3,7.3a.967.967,0,0,1-1.4,0l-3.6-3.6a.99.99,0,1,1,1.4-1.4l2.9,2.9L40,5.7a.967.967,0,0,1,1.4,0A1.2,1.2,0,0,1,41.4,7.1Z" transform="translate(-12657.199 -10866)"/>
  </g>
</svg>
