<svg xmlns="http://www.w3.org/2000/svg" xmlns:xlink="http://www.w3.org/1999/xlink" viewBox="4280 1683 564 334">
  <defs>
    <style>
      .cls-1 {
        clip-path: url(#clip-standard_gry_states_1);
      }

      .cls-2 {
        fill: #fff;
      }

      .cls-3 {
        fill: #f4f4f4;
      }

      .cls-4 {
        fill: rgba(0,0,0,0);
        stroke: #ebebeb;
      }

      .cls-5 {
        fill: #7a7a7a;
      }

      .cls-5, .cls-6 {
        stroke: rgba(0,0,0,0);
      }

      .cls-6 {
        fill: #3d3d3d;
      }

      .cls-7 {
        fill: rgba(61,61,61,0.56);
      }

      .cls-8 {
        fill: none;
      }

      .cls-9 {
        filter: url(#Path_273);
      }
    </style>
    <filter id="Path_273" x="4295.5" y="1703.5" width="533" height="296" filterUnits="userSpaceOnUse">
      <feOffset dy="1" input="SourceAlpha"/>
      <feGaussianBlur stdDeviation="1.5" result="blur"/>
      <feFlood flood-opacity="0.161"/>
      <feComposite operator="in" in2="blur"/>
      <feComposite in="SourceGraphic"/>
    </filter>
    <clipPath id="clip-standard_gry_states_1">
      <rect x="4280" y="1683" width="564" height="334"/>
    </clipPath>
  </defs>
  <g id="standard_gry_states_1" data-name="standard gry states – 1" class="cls-1">
    <g class="cls-9" transform="matrix(1, 0, 0, 1, 0, 0)">
      <path id="Path_273-2" data-name="Path 273" class="cls-2" d="M2,0H522a2,2,0,0,1,2,2V285a2,2,0,0,1-2,2H2a2,2,0,0,1-2-2V2A2,2,0,0,1,2,0Z" transform="translate(4300 1707)"/>
    </g>
    <path id="Path_274" data-name="Path 274" class="cls-2" d="M2,0H522a2,2,0,0,1,2,2V60H0V2A2,2,0,0,1,2,0Z" transform="translate(4300 1707)"/>
    <path id="Path_280" data-name="Path 280" class="cls-3" d="M0,0H524V58a2,2,0,0,1-2,2H2a2,2,0,0,1-2-2Z" transform="translate(4300 1934)"/>
    <path id="Path_275" data-name="Path 275" class="cls-2" d="M2,0H522a2,2,0,0,1,2,2V165a2,2,0,0,1-2,2H2a2,2,0,0,1-2-2V2A2,2,0,0,1,2,0Z" transform="translate(4300 1767)"/>
    <path id="Path_276" data-name="Path 276" class="cls-4" d="M0,0H524" transform="translate(4300 1767)"/>
    <path id="Path_277" data-name="Path 277" class="cls-5" d="M8.094-3.1a2.875,2.875,0,0,1-1.1,2.391A4.794,4.794,0,0,1,3.953.156a7.251,7.251,0,0,1-3.172-.6V-2.211a8.621,8.621,0,0,0,1.66.578,7.039,7.039,0,0,0,1.637.211,2.6,2.6,0,0,0,1.637-.422,1.376,1.376,0,0,0,.527-1.133,1.42,1.42,0,0,0-.484-1.086,7.292,7.292,0,0,0-2-1.055,5.291,5.291,0,0,1-2.2-1.445A3.058,3.058,0,0,1,.914-8.516a2.735,2.735,0,0,1,1.016-2.25,4.213,4.213,0,0,1,2.727-.82,8.011,8.011,0,0,1,3.266.719L7.328-9.344a7.135,7.135,0,0,0-2.719-.641,2.086,2.086,0,0,0-1.375.395,1.3,1.3,0,0,0-.469,1.043,1.468,1.468,0,0,0,.188.762,1.915,1.915,0,0,0,.617.6,10.44,10.44,0,0,0,1.547.742,8.464,8.464,0,0,1,1.844.977A2.872,2.872,0,0,1,7.82-4.445,3.079,3.079,0,0,1,8.094-3.1ZM13.883.156A4.18,4.18,0,0,1,10.73-1.02,4.463,4.463,0,0,1,9.594-4.258a4.9,4.9,0,0,1,1.055-3.328,3.643,3.643,0,0,1,2.9-1.211,3.561,3.561,0,0,1,2.7,1.039A3.97,3.97,0,0,1,17.242-4.9v.992H11.484a2.838,2.838,0,0,0,.68,1.934,2.367,2.367,0,0,0,1.8.676,6.662,6.662,0,0,0,1.426-.145,7.474,7.474,0,0,0,1.418-.48V-.43a5.637,5.637,0,0,1-1.359.453A8.336,8.336,0,0,1,13.883.156Zm-.336-7.562a1.845,1.845,0,0,0-1.4.555,2.644,2.644,0,0,0-.629,1.617h3.922a2.392,2.392,0,0,0-.516-1.621A1.764,1.764,0,0,0,13.547-7.406ZM21.3,0,18.016-8.641h1.938l1.758,5.023a9.954,9.954,0,0,1,.547,2.047h.063a13.744,13.744,0,0,1,.547-2.047l1.758-5.023h1.953L23.281,0ZM31.664.156A4.18,4.18,0,0,1,28.512-1.02a4.463,4.463,0,0,1-1.137-3.238A4.9,4.9,0,0,1,28.43-7.586a3.643,3.643,0,0,1,2.9-1.211,3.561,3.561,0,0,1,2.7,1.039A3.97,3.97,0,0,1,35.023-4.9v.992H29.266a2.838,2.838,0,0,0,.68,1.934,2.367,2.367,0,0,0,1.8.676,6.662,6.662,0,0,0,1.426-.145,7.474,7.474,0,0,0,1.418-.48V-.43a5.637,5.637,0,0,1-1.359.453A8.336,8.336,0,0,1,31.664.156Zm-.336-7.562a1.845,1.845,0,0,0-1.4.555A2.644,2.644,0,0,0,29.3-5.234h3.922A2.392,2.392,0,0,0,32.7-6.855,1.764,1.764,0,0,0,31.328-7.406ZM44.711,0H42.867V-5.312a2.325,2.325,0,0,0-.4-1.492A1.555,1.555,0,0,0,41.188-7.3a2.031,2.031,0,0,0-1.7.688,3.8,3.8,0,0,0-.539,2.3V0H37.109V-8.641h1.438L38.8-7.508H38.9a2.556,2.556,0,0,1,1.109-.953A3.718,3.718,0,0,1,41.6-8.8q3.109,0,3.109,3.164Zm5.773-1.328a4.465,4.465,0,0,0,1.344-.211V-.156a3.706,3.706,0,0,1-.785.223,5.409,5.409,0,0,1-1,.09q-2.609,0-2.609-2.75V-7.25h-1.18v-.812l1.266-.672.625-1.828h1.133v1.922h2.461V-7.25H49.281v4.625a1.3,1.3,0,0,0,.332.98A1.21,1.21,0,0,0,50.484-1.328ZM55.391,0H53.555V-8.641h1.836ZM53.445-10.93a1.017,1.017,0,0,1,.27-.758,1.05,1.05,0,0,1,.77-.266,1.028,1.028,0,0,1,.754.266,1.017,1.017,0,0,1,.27.758,1,1,0,0,1-.27.738,1.019,1.019,0,0,1-.754.27,1.041,1.041,0,0,1-.77-.27A1,1,0,0,1,53.445-10.93ZM61.789.156A4.18,4.18,0,0,1,58.637-1.02,4.463,4.463,0,0,1,57.5-4.258a4.9,4.9,0,0,1,1.055-3.328,3.643,3.643,0,0,1,2.9-1.211,3.561,3.561,0,0,1,2.7,1.039A3.97,3.97,0,0,1,65.148-4.9v.992H59.391a2.838,2.838,0,0,0,.68,1.934,2.367,2.367,0,0,0,1.8.676A6.662,6.662,0,0,0,63.3-1.441a7.474,7.474,0,0,0,1.418-.48V-.43a5.637,5.637,0,0,1-1.359.453A8.336,8.336,0,0,1,61.789.156Zm-.336-7.562a1.845,1.845,0,0,0-1.4.555,2.643,2.643,0,0,0-.629,1.617h3.922a2.392,2.392,0,0,0-.516-1.621A1.764,1.764,0,0,0,61.453-7.406ZM73.039-2.461A2.261,2.261,0,0,1,72.117-.52a4.414,4.414,0,0,1-2.641.676A6.237,6.237,0,0,1,66.7-.367V-1.953a6.809,6.809,0,0,0,2.836.7q1.7,0,1.7-1.023a.811.811,0,0,0-.187-.547,2.219,2.219,0,0,0-.617-.453,10.621,10.621,0,0,0-1.2-.531,5.529,5.529,0,0,1-2.02-1.156,2.139,2.139,0,0,1-.527-1.5,1.97,1.97,0,0,1,.895-1.723A4.245,4.245,0,0,1,70.016-8.8,6.893,6.893,0,0,1,72.9-8.18L72.3-6.8a6.412,6.412,0,0,0-2.352-.578q-1.453,0-1.453.828a.833.833,0,0,0,.379.688,8.332,8.332,0,0,0,1.652.773,7.553,7.553,0,0,1,1.555.758,2.265,2.265,0,0,1,.719.793A2.3,2.3,0,0,1,73.039-2.461Z" transform="translate(4328 1743)"/>
    <path id="Path_278" data-name="Path 278" class="cls-6" d="M7.969,0H1.508V-11.422H7.969v1.578H3.375v3.109h4.3v1.563h-4.3v3.586H7.969Zm4.109,0H10.242V-8.641h1.836ZM10.133-10.93a1.017,1.017,0,0,1,.27-.758,1.05,1.05,0,0,1,.77-.266,1.028,1.028,0,0,1,.754.266,1.017,1.017,0,0,1,.27.758,1,1,0,0,1-.27.738,1.019,1.019,0,0,1-.754.27,1.041,1.041,0,0,1-.77-.27A1,1,0,0,1,10.133-10.93ZM22-8.641v1.008l-1.477.273a2.383,2.383,0,0,1,.336.672,2.651,2.651,0,0,1,.133.844,2.585,2.585,0,0,1-.922,2.1,3.858,3.858,0,0,1-2.539.766,4.117,4.117,0,0,1-.75-.062,1.034,1.034,0,0,0-.594.859.477.477,0,0,0,.277.445,2.4,2.4,0,0,0,1.02.148h1.508a3.353,3.353,0,0,1,2.172.609A2.144,2.144,0,0,1,21.906.781,2.556,2.556,0,0,1,20.7,3.047a6.376,6.376,0,0,1-3.5.8,4.83,4.83,0,0,1-2.7-.625,2.02,2.02,0,0,1-.93-1.781,1.9,1.9,0,0,1,.5-1.34,2.7,2.7,0,0,1,1.41-.754,1.38,1.38,0,0,1-.605-.5,1.272,1.272,0,0,1-.238-.73,1.257,1.257,0,0,1,.273-.82,3.155,3.155,0,0,1,.813-.664,2.407,2.407,0,0,1-1.09-.941,2.769,2.769,0,0,1-.418-1.527,2.738,2.738,0,0,1,.887-2.18A3.728,3.728,0,0,1,17.633-8.8a6.152,6.152,0,0,1,.77.051,4.845,4.845,0,0,1,.605.105ZM15.211,1.344a1.01,1.01,0,0,0,.535.914,2.941,2.941,0,0,0,1.5.32,4.544,4.544,0,0,0,2.234-.43,1.288,1.288,0,0,0,.734-1.141.856.856,0,0,0-.4-.8,3.231,3.231,0,0,0-1.5-.238H16.93A1.954,1.954,0,0,0,15.676.34,1.217,1.217,0,0,0,15.211,1.344ZM16-5.844a1.739,1.739,0,0,0,.418,1.25,1.581,1.581,0,0,0,1.2.438q1.594,0,1.594-1.7a1.932,1.932,0,0,0-.395-1.3,1.5,1.5,0,0,0-1.2-.457,1.545,1.545,0,0,0-1.207.453A1.9,1.9,0,0,0,16-5.844ZM31.2,0H29.359V-5.312a2.325,2.325,0,0,0-.4-1.492A1.555,1.555,0,0,0,27.68-7.3a2.028,2.028,0,0,0-1.7.691,3.81,3.81,0,0,0-.543,2.316V0H23.6V-12.156h1.836V-9.07a14.4,14.4,0,0,1-.094,1.586h.117A2.549,2.549,0,0,1,26.5-8.453,3.362,3.362,0,0,1,28.063-8.8Q31.2-8.8,31.2-5.633Zm5.773-1.328a4.465,4.465,0,0,0,1.344-.211V-.156a3.706,3.706,0,0,1-.785.223,5.409,5.409,0,0,1-1,.09q-2.609,0-2.609-2.75V-7.25H32.75v-.812l1.266-.672.625-1.828h1.133v1.922h2.461V-7.25H35.773v4.625a1.3,1.3,0,0,0,.332.98A1.21,1.21,0,0,0,36.977-1.328ZM41.883,0H40.047V-8.641h1.836ZM39.938-10.93a1.017,1.017,0,0,1,.27-.758,1.05,1.05,0,0,1,.77-.266,1.028,1.028,0,0,1,.754.266,1.017,1.017,0,0,1,.27.758,1,1,0,0,1-.27.738,1.019,1.019,0,0,1-.754.27,1.041,1.041,0,0,1-.77-.27A1,1,0,0,1,39.938-10.93ZM48.281.156A4.18,4.18,0,0,1,45.129-1.02a4.463,4.463,0,0,1-1.137-3.238,4.9,4.9,0,0,1,1.055-3.328,3.643,3.643,0,0,1,2.9-1.211,3.561,3.561,0,0,1,2.7,1.039A3.97,3.97,0,0,1,51.641-4.9v.992H45.883a2.838,2.838,0,0,0,.68,1.934,2.367,2.367,0,0,0,1.8.676,6.662,6.662,0,0,0,1.426-.145,7.474,7.474,0,0,0,1.418-.48V-.43a5.637,5.637,0,0,1-1.359.453A8.336,8.336,0,0,1,48.281.156Zm-.336-7.562a1.845,1.845,0,0,0-1.4.555,2.643,2.643,0,0,0-.629,1.617h3.922a2.392,2.392,0,0,0-.516-1.621A1.764,1.764,0,0,0,47.945-7.406ZM59.531-2.461A2.261,2.261,0,0,1,58.609-.52a4.414,4.414,0,0,1-2.641.676A6.237,6.237,0,0,1,53.2-.367V-1.953a6.809,6.809,0,0,0,2.836.7q1.7,0,1.7-1.023a.811.811,0,0,0-.187-.547,2.219,2.219,0,0,0-.617-.453,10.621,10.621,0,0,0-1.2-.531,5.529,5.529,0,0,1-2.02-1.156,2.139,2.139,0,0,1-.527-1.5,1.97,1.97,0,0,1,.895-1.723A4.245,4.245,0,0,1,56.508-8.8a6.893,6.893,0,0,1,2.883.617L58.8-6.8a6.412,6.412,0,0,0-2.352-.578q-1.453,0-1.453.828a.833.833,0,0,0,.379.688,8.333,8.333,0,0,0,1.652.773,7.553,7.553,0,0,1,1.555.758,2.265,2.265,0,0,1,.719.793A2.3,2.3,0,0,1,59.531-2.461Z" transform="translate(4328 1803)"/>
    <path id="Path_279" data-name="Path 279" class="cls-6" d="M1.374,0V-9.994H2.536v8.941H6.945V0ZM9.6,0H8.47V-7.492H9.6ZM8.374-9.522a.754.754,0,0,1,.191-.571.669.669,0,0,1,.479-.181.669.669,0,0,1,.472.185.74.74,0,0,1,.2.567.752.752,0,0,1-.2.571.662.662,0,0,1-.472.188.655.655,0,0,1-.479-.188A.768.768,0,0,1,8.374-9.522ZM13.651,0,10.808-7.492h1.217l1.613,4.443a21.031,21.031,0,0,1,.643,2.023h.055a15.284,15.284,0,0,1,.475-1.5q.4-1.138,1.794-4.966h1.217L14.978,0Zm6.508,0H19.024V-7.492h1.135Zm-1.23-9.522a.754.754,0,0,1,.191-.571.669.669,0,0,1,.479-.181.669.669,0,0,1,.472.185.74.74,0,0,1,.2.567.752.752,0,0,1-.2.571.662.662,0,0,1-.472.188.655.655,0,0,1-.479-.188A.768.768,0,0,1,18.929-9.522ZM27.692,0V-4.847a1.955,1.955,0,0,0-.417-1.367,1.7,1.7,0,0,0-1.306-.451,2.153,2.153,0,0,0-1.723.636,3.21,3.21,0,0,0-.547,2.1V0H22.565V-7.492h.923l.185,1.025h.055a2.317,2.317,0,0,1,.978-.858,3.176,3.176,0,0,1,1.4-.3,2.846,2.846,0,0,1,2.037.653,2.778,2.778,0,0,1,.684,2.088V0Zm4.443-9.994-.273,3.609h-.718l-.28-3.609ZM44.358-3.753a4.133,4.133,0,0,1-.923,2.861A3.25,3.25,0,0,1,40.886.137,3.377,3.377,0,0,1,39.1-.335a3.113,3.113,0,0,1-1.2-1.354,4.717,4.717,0,0,1-.424-2.064,4.127,4.127,0,0,1,.916-2.854,3.24,3.24,0,0,1,2.543-1.022,3.169,3.169,0,0,1,2.5,1.046A4.115,4.115,0,0,1,44.358-3.753Zm-5.708,0a3.556,3.556,0,0,0,.574,2.188,1.993,1.993,0,0,0,1.688.752A2.006,2.006,0,0,0,42.6-1.562a3.538,3.538,0,0,0,.578-2.191,3.481,3.481,0,0,0-.578-2.17A2.03,2.03,0,0,0,40.9-6.665a2,2,0,0,0-1.682.731A3.52,3.52,0,0,0,38.65-3.753ZM51.475,0V-4.847a1.955,1.955,0,0,0-.417-1.367,1.7,1.7,0,0,0-1.306-.451,2.153,2.153,0,0,0-1.723.636,3.21,3.21,0,0,0-.547,2.1V0H46.348V-7.492h.923l.185,1.025h.055a2.317,2.317,0,0,1,.978-.858,3.176,3.176,0,0,1,1.4-.3,2.846,2.846,0,0,1,2.037.653,2.778,2.778,0,0,1,.684,2.088V0Zm11.71,0-.226-1.066H62.9a3.153,3.153,0,0,1-1.118.954A3.407,3.407,0,0,1,60.4.137a2.5,2.5,0,0,1-1.747-.574,2.094,2.094,0,0,1-.632-1.634q0-2.27,3.63-2.379l1.271-.041v-.465a1.9,1.9,0,0,0-.379-1.3,1.56,1.56,0,0,0-1.213-.42,4.944,4.944,0,0,0-2.119.574l-.349-.868a5.332,5.332,0,0,1,1.213-.472,5.255,5.255,0,0,1,1.323-.171,2.854,2.854,0,0,1,1.986.595,2.482,2.482,0,0,1,.646,1.907V0ZM60.621-.8a2.3,2.3,0,0,0,1.665-.581,2.15,2.15,0,0,0,.6-1.627v-.677l-1.135.048a4.128,4.128,0,0,0-1.952.42,1.268,1.268,0,0,0-.6,1.159,1.169,1.169,0,0,0,.373.937A1.546,1.546,0,0,0,60.621-.8ZM76.508-7.082a2.8,2.8,0,0,1-1.036,2.334,4.691,4.691,0,0,1-2.963.817H71.333V0H70.171V-9.994h2.591Q76.508-9.994,76.508-7.082ZM71.333-4.929h1.046a3.887,3.887,0,0,0,2.235-.5,1.839,1.839,0,0,0,.69-1.6A1.724,1.724,0,0,0,74.655-8.5a3.393,3.393,0,0,0-2.023-.485h-1.3Zm10.514-2.7a4.44,4.44,0,0,1,.9.082l-.157,1.053a3.865,3.865,0,0,0-.82-.1,2,2,0,0,0-1.555.738,2.692,2.692,0,0,0-.646,1.839V0H78.429V-7.492h.937L79.5-6.1h.055a3.293,3.293,0,0,1,1-1.128A2.262,2.262,0,0,1,81.847-7.629ZM88.751,0l-.226-1.066h-.055a3.153,3.153,0,0,1-1.118.954,3.407,3.407,0,0,1-1.391.25,2.5,2.5,0,0,1-1.747-.574,2.094,2.094,0,0,1-.632-1.634q0-2.27,3.63-2.379l1.271-.041v-.465a1.9,1.9,0,0,0-.379-1.3,1.56,1.56,0,0,0-1.213-.42,4.944,4.944,0,0,0-2.119.574l-.349-.868a5.332,5.332,0,0,1,1.213-.472,5.255,5.255,0,0,1,1.323-.171,2.854,2.854,0,0,1,1.986.595,2.482,2.482,0,0,1,.646,1.907V0ZM86.188-.8a2.3,2.3,0,0,0,1.665-.581,2.15,2.15,0,0,0,.6-1.627v-.677l-1.135.048a4.128,4.128,0,0,0-1.952.42,1.268,1.268,0,0,0-.6,1.159,1.169,1.169,0,0,0,.373.937A1.546,1.546,0,0,0,86.188-.8ZM90.74-7.492h1.217L93.6-3.22a16.251,16.251,0,0,1,.67,2.112h.055q.089-.349.373-1.193t1.856-5.192h1.217l-3.22,8.531A4.256,4.256,0,0,1,93.43,2.833a2.377,2.377,0,0,1-1.569.53,4.565,4.565,0,0,1-1.025-.116V2.338a3.955,3.955,0,0,0,.841.082,1.733,1.733,0,0,0,1.668-1.312L93.762.041ZM102.149.137A3.442,3.442,0,0,1,99.528-.875a3.917,3.917,0,0,1-.96-2.81,4.344,4.344,0,0,1,.892-2.878,2.963,2.963,0,0,1,2.4-1.066,2.825,2.825,0,0,1,2.229.926,3.55,3.55,0,0,1,.82,2.444v.718H99.743a2.97,2.97,0,0,0,.667,2,2.305,2.305,0,0,0,1.781.684,6.035,6.035,0,0,0,2.393-.506V-.349a6.005,6.005,0,0,1-1.138.373A6.4,6.4,0,0,1,102.149.137Zm-.308-6.815a1.853,1.853,0,0,0-1.439.588,2.71,2.71,0,0,0-.632,1.627h3.917a2.5,2.5,0,0,0-.479-1.644A1.684,1.684,0,0,0,101.842-6.679Zm8.415-.95a4.44,4.44,0,0,1,.9.082L111-6.494a3.865,3.865,0,0,0-.82-.1,2,2,0,0,0-1.555.738,2.692,2.692,0,0,0-.646,1.839V0h-1.135V-7.492h.937l.13,1.388h.055a3.293,3.293,0,0,1,1-1.128A2.262,2.262,0,0,1,110.257-7.629Zm5.3,4.4V-4.272h3.356v1.039ZM124.5-9.994h2.823A5.327,5.327,0,0,1,130.2-9.4a2.1,2.1,0,0,1,.889,1.88,2.172,2.172,0,0,1-.5,1.466,2.386,2.386,0,0,1-1.446.749v.068q2.276.39,2.276,2.393a2.57,2.57,0,0,1-.906,2.092A3.855,3.855,0,0,1,127.989,0H124.5Zm1.162,4.279h1.914A3.116,3.116,0,0,0,129.35-6.1a1.491,1.491,0,0,0,.54-1.3,1.318,1.318,0,0,0-.6-1.213,3.759,3.759,0,0,0-1.914-.373h-1.709Zm0,.984V-.991h2.085a2.97,2.97,0,0,0,1.822-.468,1.729,1.729,0,0,0,.612-1.466,1.553,1.553,0,0,0-.625-1.367,3.343,3.343,0,0,0-1.9-.437Zm14.205.978a4.133,4.133,0,0,1-.923,2.861A3.25,3.25,0,0,1,136.4.137a3.377,3.377,0,0,1-1.784-.472,3.113,3.113,0,0,1-1.2-1.354,4.717,4.717,0,0,1-.424-2.064,4.127,4.127,0,0,1,.916-2.854,3.24,3.24,0,0,1,2.543-1.022,3.169,3.169,0,0,1,2.5,1.046A4.115,4.115,0,0,1,139.87-3.753Zm-5.708,0a3.556,3.556,0,0,0,.574,2.188,1.993,1.993,0,0,0,1.688.752,2.006,2.006,0,0,0,1.692-.749,3.538,3.538,0,0,0,.578-2.191,3.481,3.481,0,0,0-.578-2.17,2.03,2.03,0,0,0-1.706-.742,2,2,0,0,0-1.682.731A3.52,3.52,0,0,0,134.162-3.753ZM146.986,0V-4.847a1.955,1.955,0,0,0-.417-1.367,1.7,1.7,0,0,0-1.306-.451,2.153,2.153,0,0,0-1.723.636,3.21,3.21,0,0,0-.547,2.1V0h-1.135V-7.492h.923l.185,1.025h.055A2.317,2.317,0,0,1,144-7.325a3.176,3.176,0,0,1,1.4-.3,2.846,2.846,0,0,1,2.037.653,2.778,2.778,0,0,1,.684,2.088V0ZM152.8,2.632a2.292,2.292,0,0,1-1.012-.185V1.456a3.714,3.714,0,0,0,1.012.137,1.281,1.281,0,0,0,1.029-.41A1.766,1.766,0,0,0,154.185,0V-9.994h1.162V-.1a2.867,2.867,0,0,1-.656,2.013A2.434,2.434,0,0,1,152.8,2.632Zm11.491-6.385a4.133,4.133,0,0,1-.923,2.861,3.25,3.25,0,0,1-2.55,1.029,3.377,3.377,0,0,1-1.784-.472,3.113,3.113,0,0,1-1.2-1.354,4.717,4.717,0,0,1-.424-2.064,4.127,4.127,0,0,1,.916-2.854,3.24,3.24,0,0,1,2.543-1.022,3.169,3.169,0,0,1,2.5,1.046A4.115,4.115,0,0,1,164.295-3.753Zm-5.708,0a3.556,3.556,0,0,0,.574,2.188,1.993,1.993,0,0,0,1.688.752,2.006,2.006,0,0,0,1.692-.749,3.538,3.538,0,0,0,.578-2.191,3.481,3.481,0,0,0-.578-2.17,2.03,2.03,0,0,0-1.706-.742,2,2,0,0,0-1.682.731A3.52,3.52,0,0,0,158.587-3.753ZM167.925,0l-2.844-7.492H166.3l1.613,4.443a21.031,21.031,0,0,1,.643,2.023h.055a15.282,15.282,0,0,1,.475-1.5q.4-1.138,1.794-4.966h1.217L169.251,0Zm6.508,0H173.3V-7.492h1.135ZM173.2-9.522a.754.754,0,0,1,.191-.571.669.669,0,0,1,.479-.181.669.669,0,0,1,.472.185.74.74,0,0,1,.2.567.752.752,0,0,1-.2.571.662.662,0,0,1-.472.188.655.655,0,0,1-.479-.188A.768.768,0,0,1,173.2-9.522ZM7.711,11.918a2.8,2.8,0,0,1-1.036,2.334,4.691,4.691,0,0,1-2.963.817H2.536V19H1.374V9.006H3.965Q7.711,9.006,7.711,11.918ZM2.536,14.071H3.582a3.887,3.887,0,0,0,2.235-.5,1.839,1.839,0,0,0,.69-1.6A1.724,1.724,0,0,0,5.858,10.5a3.393,3.393,0,0,0-2.023-.485h-1.3ZM16.1,15.247a4.133,4.133,0,0,1-.923,2.861,3.25,3.25,0,0,1-2.55,1.029,3.377,3.377,0,0,1-1.784-.472,3.113,3.113,0,0,1-1.2-1.354,4.717,4.717,0,0,1-.424-2.064,4.127,4.127,0,0,1,.916-2.854,3.24,3.24,0,0,1,2.543-1.022,3.169,3.169,0,0,1,2.5,1.046A4.115,4.115,0,0,1,16.1,15.247Zm-5.708,0a3.556,3.556,0,0,0,.574,2.188,1.993,1.993,0,0,0,1.688.752,2.006,2.006,0,0,0,1.692-.749,3.538,3.538,0,0,0,.578-2.191,3.481,3.481,0,0,0-.578-2.17,2.03,2.03,0,0,0-1.706-.742,2,2,0,0,0-1.682.731A3.52,3.52,0,0,0,10.391,15.247Zm8.764-3.739v4.86a1.955,1.955,0,0,0,.417,1.367,1.7,1.7,0,0,0,1.306.451,2.13,2.13,0,0,0,1.719-.643,3.241,3.241,0,0,0,.543-2.1V11.508h1.135V19h-.937l-.164-1h-.062a2.262,2.262,0,0,1-.967.848,3.251,3.251,0,0,1-1.412.294,2.864,2.864,0,0,1-2.047-.649,2.764,2.764,0,0,1-.68-2.078v-4.9ZM30.1,11.371a4.44,4.44,0,0,1,.9.082l-.157,1.053a3.865,3.865,0,0,0-.82-.1,2,2,0,0,0-1.555.738,2.692,2.692,0,0,0-.646,1.839V19H26.681V11.508h.937l.13,1.388H27.8a3.293,3.293,0,0,1,1-1.128A2.262,2.262,0,0,1,30.1,11.371Zm11.744,4.97a2.451,2.451,0,0,1-.957,2.058,4.15,4.15,0,0,1-2.6.738,6.506,6.506,0,0,1-2.734-.458V17.558a7.2,7.2,0,0,0,1.34.41,7.049,7.049,0,0,0,1.436.15,2.9,2.9,0,0,0,1.75-.441,1.447,1.447,0,0,0,.588-1.227,1.575,1.575,0,0,0-.208-.851,1.937,1.937,0,0,0-.7-.612,9.755,9.755,0,0,0-1.487-.636,4.746,4.746,0,0,1-1.993-1.183,2.611,2.611,0,0,1-.6-1.784,2.219,2.219,0,0,1,.868-1.839,3.608,3.608,0,0,1,2.3-.684,6.769,6.769,0,0,1,2.741.547l-.362,1.012a6.2,6.2,0,0,0-2.406-.52,2.329,2.329,0,0,0-1.442.4,1.307,1.307,0,0,0-.52,1.1,1.687,1.687,0,0,0,.191.851,1.8,1.8,0,0,0,.646.608,8.026,8.026,0,0,0,1.391.612,5.507,5.507,0,0,1,2.164,1.2A2.366,2.366,0,0,1,41.843,16.341Zm8.34-1.094a4.133,4.133,0,0,1-.923,2.861,3.25,3.25,0,0,1-2.55,1.029,3.377,3.377,0,0,1-1.784-.472,3.113,3.113,0,0,1-1.2-1.354,4.717,4.717,0,0,1-.424-2.064,4.127,4.127,0,0,1,.916-2.854,3.24,3.24,0,0,1,2.543-1.022,3.169,3.169,0,0,1,2.5,1.046A4.115,4.115,0,0,1,50.183,15.247Zm-5.708,0a3.556,3.556,0,0,0,.574,2.188,2.279,2.279,0,0,0,3.38,0,3.538,3.538,0,0,0,.578-2.191,3.481,3.481,0,0,0-.578-2.17,2.03,2.03,0,0,0-1.706-.742,2,2,0,0,0-1.682.731A3.52,3.52,0,0,0,44.475,15.247ZM61.722,19V14.126a2.023,2.023,0,0,0-.383-1.343,1.481,1.481,0,0,0-1.189-.448,1.92,1.92,0,0,0-1.565.608,2.891,2.891,0,0,0-.506,1.873V19H56.943V14.126a2.023,2.023,0,0,0-.383-1.343,1.49,1.49,0,0,0-1.2-.448,1.853,1.853,0,0,0-1.562.639,3.459,3.459,0,0,0-.5,2.1V19H52.172V11.508h.923l.185,1.025h.055a2.23,2.23,0,0,1,.906-.854,2.767,2.767,0,0,1,1.309-.308,2.226,2.226,0,0,1,2.3,1.271H57.9a2.389,2.389,0,0,1,.971-.93,3.012,3.012,0,0,1,1.449-.342,2.537,2.537,0,0,1,1.9.653,2.921,2.921,0,0,1,.632,2.088V19Zm6.638.137a3.442,3.442,0,0,1-2.622-1.012,3.917,3.917,0,0,1-.96-2.81,4.344,4.344,0,0,1,.892-2.878,2.963,2.963,0,0,1,2.4-1.066,2.825,2.825,0,0,1,2.229.926,3.55,3.55,0,0,1,.82,2.444v.718H65.953a2.97,2.97,0,0,0,.667,2,2.305,2.305,0,0,0,1.781.684,6.035,6.035,0,0,0,2.393-.506v1.012a6,6,0,0,1-1.138.373A6.4,6.4,0,0,1,68.359,19.137Zm-.308-6.815a1.853,1.853,0,0,0-1.439.588,2.71,2.71,0,0,0-.632,1.627H69.9a2.5,2.5,0,0,0-.479-1.644A1.684,1.684,0,0,0,68.052,12.321ZM82.5,16.341a2.451,2.451,0,0,1-.957,2.058,4.15,4.15,0,0,1-2.6.738,6.506,6.506,0,0,1-2.734-.458V17.558a7.2,7.2,0,0,0,1.34.41,7.049,7.049,0,0,0,1.436.15,2.9,2.9,0,0,0,1.75-.441,1.447,1.447,0,0,0,.588-1.227,1.575,1.575,0,0,0-.208-.851,1.937,1.937,0,0,0-.7-.612,9.754,9.754,0,0,0-1.487-.636,4.746,4.746,0,0,1-1.993-1.183,2.611,2.611,0,0,1-.6-1.784,2.219,2.219,0,0,1,.868-1.839,3.608,3.608,0,0,1,2.3-.684,6.769,6.769,0,0,1,2.741.547l-.362,1.012a6.2,6.2,0,0,0-2.406-.52,2.329,2.329,0,0,0-1.442.4,1.307,1.307,0,0,0-.52,1.1,1.687,1.687,0,0,0,.191.851,1.8,1.8,0,0,0,.646.608,8.026,8.026,0,0,0,1.391.612,5.507,5.507,0,0,1,2.164,1.2A2.366,2.366,0,0,1,82.5,16.341Zm2.939-4.833v4.86a1.955,1.955,0,0,0,.417,1.367,1.7,1.7,0,0,0,1.306.451,2.13,2.13,0,0,0,1.719-.643,3.241,3.241,0,0,0,.543-2.1V11.508h1.135V19h-.937l-.164-1h-.062a2.262,2.262,0,0,1-.967.848,3.251,3.251,0,0,1-1.412.294,2.864,2.864,0,0,1-2.047-.649,2.764,2.764,0,0,1-.68-2.078v-4.9Zm13.658,0v.718l-1.388.164a2.437,2.437,0,0,1,.492,1.5,2.215,2.215,0,0,1-.752,1.757,3.033,3.033,0,0,1-2.064.656,3.438,3.438,0,0,1-.629-.055,1.117,1.117,0,0,0-.725.964.49.49,0,0,0,.253.455,1.848,1.848,0,0,0,.868.147h1.326a2.97,2.97,0,0,1,1.87.513A1.781,1.781,0,0,1,99,19.813a2.127,2.127,0,0,1-1,1.9,5.342,5.342,0,0,1-2.912.653,3.979,3.979,0,0,1-2.266-.547,1.766,1.766,0,0,1-.8-1.545,1.735,1.735,0,0,1,.438-1.183,2.228,2.228,0,0,1,1.23-.677,1.187,1.187,0,0,1-.482-.4,1.067,1.067,0,0,1-.195-.636,1.207,1.207,0,0,1,.219-.718,2.3,2.3,0,0,1,.69-.595,2.024,2.024,0,0,1-.947-.813,2.39,2.39,0,0,1-.366-1.312,2.424,2.424,0,0,1,.738-1.9,3.014,3.014,0,0,1,2.092-.667,3.8,3.8,0,0,1,1.06.137Zm-5.975,8.75a1.017,1.017,0,0,0,.513.923,2.83,2.83,0,0,0,1.47.314,4.1,4.1,0,0,0,2.116-.427,1.308,1.308,0,0,0,.687-1.159.917.917,0,0,0-.376-.844,2.92,2.92,0,0,0-1.415-.236h-1.36a1.792,1.792,0,0,0-1.2.369A1.319,1.319,0,0,0,93.119,20.258Zm.615-6.351a1.525,1.525,0,0,0,.444,1.189,1.774,1.774,0,0,0,1.237.4,1.447,1.447,0,0,0,1.661-1.613A1.489,1.489,0,0,0,95.4,12.2a1.665,1.665,0,0,0-1.23.431A1.734,1.734,0,0,0,93.734,13.907ZM105.239,19l-.226-1.066h-.055a3.153,3.153,0,0,1-1.118.954,3.407,3.407,0,0,1-1.391.25,2.5,2.5,0,0,1-1.747-.574,2.094,2.094,0,0,1-.632-1.634q0-2.27,3.63-2.379l1.271-.041v-.465a1.9,1.9,0,0,0-.379-1.3,1.56,1.56,0,0,0-1.213-.42,4.944,4.944,0,0,0-2.119.574l-.349-.868a5.332,5.332,0,0,1,1.213-.472,5.255,5.255,0,0,1,1.323-.171,2.854,2.854,0,0,1,1.986.595,2.482,2.482,0,0,1,.646,1.907V19Zm-2.563-.8a2.3,2.3,0,0,0,1.665-.581,2.15,2.15,0,0,0,.6-1.627v-.677l-1.135.048a4.128,4.128,0,0,0-1.952.42,1.268,1.268,0,0,0-.6,1.159,1.169,1.169,0,0,0,.373.937A1.546,1.546,0,0,0,102.676,18.2Zm9.16-6.829a4.44,4.44,0,0,1,.9.082l-.157,1.053a3.865,3.865,0,0,0-.82-.1,2,2,0,0,0-1.555.738,2.692,2.692,0,0,0-.646,1.839V19h-1.135V11.508h.937l.13,1.388h.055a3.293,3.293,0,0,1,1-1.128A2.262,2.262,0,0,1,111.836,11.371Zm12.4,3.876a4.133,4.133,0,0,1-.923,2.861,3.25,3.25,0,0,1-2.55,1.029,3.377,3.377,0,0,1-1.784-.472,3.113,3.113,0,0,1-1.2-1.354,4.717,4.717,0,0,1-.424-2.064,4.127,4.127,0,0,1,.916-2.854,3.24,3.24,0,0,1,2.543-1.022,3.169,3.169,0,0,1,2.5,1.046A4.115,4.115,0,0,1,124.236,15.247Zm-5.708,0a3.556,3.556,0,0,0,.574,2.188,2.279,2.279,0,0,0,3.38,0,3.538,3.538,0,0,0,.578-2.191,3.481,3.481,0,0,0-.578-2.17,2.03,2.03,0,0,0-1.706-.742,2,2,0,0,0-1.682.731A3.52,3.52,0,0,0,118.528,15.247ZM131.353,19V14.153a1.955,1.955,0,0,0-.417-1.367,1.7,1.7,0,0,0-1.306-.451,2.153,2.153,0,0,0-1.723.636,3.21,3.21,0,0,0-.547,2.1V19h-1.135V11.508h.923l.185,1.025h.055a2.317,2.317,0,0,1,.978-.858,3.176,3.176,0,0,1,1.4-.3,2.846,2.846,0,0,1,2.037.653,2.778,2.778,0,0,1,.684,2.088V19Zm11.7,0-3.391-8.859H139.6q.1,1.053.1,2.5V19h-1.073V9.006h1.75l3.165,8.244h.055l3.192-8.244h1.736V19h-1.162V12.561q0-1.107.1-2.406H147.4L143.985,19Zm11.211.137a3.442,3.442,0,0,1-2.622-1.012,3.917,3.917,0,0,1-.96-2.81,4.344,4.344,0,0,1,.892-2.878,2.963,2.963,0,0,1,2.4-1.066,2.825,2.825,0,0,1,2.229.926,3.55,3.55,0,0,1,.82,2.444v.718h-5.161a2.97,2.97,0,0,0,.667,2,2.305,2.305,0,0,0,1.781.684,6.035,6.035,0,0,0,2.393-.506v1.012a6.005,6.005,0,0,1-1.138.373A6.4,6.4,0,0,1,154.26,19.137Zm-.308-6.815a1.853,1.853,0,0,0-1.439.588,2.71,2.71,0,0,0-.632,1.627H155.8a2.5,2.5,0,0,0-.479-1.644A1.684,1.684,0,0,0,153.952,12.321Zm8,3.445V14.728h3.356v1.039Zm16.919-1.859a5.046,5.046,0,0,1-1.343,3.784A5.315,5.315,0,0,1,173.667,19H170.9V9.006h3.063a4.9,4.9,0,0,1,3.623,1.292A4.879,4.879,0,0,1,178.876,13.907Zm-1.23.041A4.024,4.024,0,0,0,176.665,11a3.931,3.931,0,0,0-2.916-.991h-1.688V18h1.415a4.3,4.3,0,0,0,3.124-1.022A4.046,4.046,0,0,0,177.646,13.948Zm6.453,5.188a3.442,3.442,0,0,1-2.622-1.012,3.917,3.917,0,0,1-.96-2.81,4.344,4.344,0,0,1,.892-2.878,2.963,2.963,0,0,1,2.4-1.066,2.825,2.825,0,0,1,2.229.926,3.55,3.55,0,0,1,.82,2.444v.718h-5.161a2.97,2.97,0,0,0,.667,2,2.305,2.305,0,0,0,1.781.684,6.035,6.035,0,0,0,2.393-.506v1.012a6.005,6.005,0,0,1-1.138.373A6.4,6.4,0,0,1,184.1,19.137Zm-.308-6.815a1.853,1.853,0,0,0-1.439.588,2.71,2.71,0,0,0-.632,1.627h3.917a2.5,2.5,0,0,0-.479-1.644A1.684,1.684,0,0,0,183.791,12.321Zm8.374.068h-1.907V19h-1.135V12.39h-1.34v-.513l1.34-.41V11.05q0-2.762,2.413-2.762a4.966,4.966,0,0,1,1.395.239l-.294.909a3.754,3.754,0,0,0-1.121-.212,1.092,1.092,0,0,0-.95.427,2.384,2.384,0,0,0-.308,1.371v.485h1.907ZM197.34,19V9.006H198.5v8.941h4.409V19Zm10.261.137a3.442,3.442,0,0,1-2.622-1.012,3.917,3.917,0,0,1-.96-2.81,4.344,4.344,0,0,1,.892-2.878,2.963,2.963,0,0,1,2.4-1.066,2.825,2.825,0,0,1,2.229.926,3.55,3.55,0,0,1,.82,2.444v.718h-5.161a2.97,2.97,0,0,0,.667,2,2.305,2.305,0,0,0,1.781.684,6.035,6.035,0,0,0,2.393-.506v1.012a6.005,6.005,0,0,1-1.138.373A6.4,6.4,0,0,1,207.6,19.137Zm-.308-6.815a1.853,1.853,0,0,0-1.439.588,2.71,2.71,0,0,0-.632,1.627h3.917a2.5,2.5,0,0,0-.479-1.644A1.684,1.684,0,0,0,207.293,12.321Zm8.483,6.815a3.242,3.242,0,0,1-1.336-.27,2.513,2.513,0,0,1-1.015-.831h-.082a10.049,10.049,0,0,1,.082,1.244v3.083H212.29V11.508h.923l.157,1.025h.055a2.635,2.635,0,0,1,1.019-.889,3.1,3.1,0,0,1,1.333-.273,2.769,2.769,0,0,1,2.3,1.019,4.484,4.484,0,0,1,.81,2.857,4.458,4.458,0,0,1-.824,2.868A2.774,2.774,0,0,1,215.776,19.137Zm-.164-6.8a2.011,2.011,0,0,0-1.661.636,3.271,3.271,0,0,0-.526,2.023v.253a3.749,3.749,0,0,0,.526,2.259,2,2,0,0,0,1.688.68,1.756,1.756,0,0,0,1.521-.786,3.728,3.728,0,0,0,.55-2.167,3.588,3.588,0,0,0-.55-2.15A1.81,1.81,0,0,0,215.612,12.335Zm8.743,6.8a3.242,3.242,0,0,1-1.336-.27A2.513,2.513,0,0,1,222,18.036h-.082A10.049,10.049,0,0,1,222,19.28v3.083h-1.135V11.508h.923l.157,1.025H222a2.635,2.635,0,0,1,1.019-.889,3.1,3.1,0,0,1,1.333-.273,2.769,2.769,0,0,1,2.3,1.019,4.484,4.484,0,0,1,.81,2.857,4.458,4.458,0,0,1-.824,2.868A2.774,2.774,0,0,1,224.355,19.137Zm-.164-6.8a2.011,2.011,0,0,0-1.661.636A3.271,3.271,0,0,0,222,14.994v.253a3.749,3.749,0,0,0,.526,2.259,2,2,0,0,0,1.688.68,1.756,1.756,0,0,0,1.521-.786,3.728,3.728,0,0,0,.55-2.167,3.588,3.588,0,0,0-.55-2.15A1.81,1.81,0,0,0,224.191,12.335ZM234.056,19l-.226-1.066h-.055a3.153,3.153,0,0,1-1.118.954,3.407,3.407,0,0,1-1.391.25,2.5,2.5,0,0,1-1.747-.574,2.094,2.094,0,0,1-.632-1.634q0-2.27,3.63-2.379l1.271-.041v-.465a1.9,1.9,0,0,0-.379-1.3,1.56,1.56,0,0,0-1.213-.42,4.944,4.944,0,0,0-2.119.574l-.349-.868a5.332,5.332,0,0,1,1.213-.472,5.255,5.255,0,0,1,1.323-.171,2.854,2.854,0,0,1,1.986.595,2.482,2.482,0,0,1,.646,1.907V19Zm-2.563-.8a2.3,2.3,0,0,0,1.665-.581,2.15,2.15,0,0,0,.6-1.627v-.677l-1.135.048a4.128,4.128,0,0,0-1.952.42,1.268,1.268,0,0,0-.6,1.159,1.169,1.169,0,0,0,.373.937A1.546,1.546,0,0,0,231.492,18.2Zm9.16-6.829a4.44,4.44,0,0,1,.9.082l-.157,1.053a3.865,3.865,0,0,0-.82-.1,2,2,0,0,0-1.555.738,2.692,2.692,0,0,0-.646,1.839V19h-1.135V11.508h.937l.13,1.388h.055a3.294,3.294,0,0,1,1-1.128A2.262,2.262,0,0,1,240.652,11.371Zm7.4,6.624h-.062a2.666,2.666,0,0,1-2.352,1.142,2.782,2.782,0,0,1-2.287-1,4.423,4.423,0,0,1-.817-2.857,4.5,4.5,0,0,1,.82-2.878,2.76,2.76,0,0,1,2.283-1.025,2.724,2.724,0,0,1,2.338,1.107h.089l-.048-.54-.027-.526V8.363h1.135V19H248.2Zm-2.27.191a2.066,2.066,0,0,0,1.685-.632,3.2,3.2,0,0,0,.523-2.041v-.239a3.76,3.76,0,0,0-.53-2.273,2.012,2.012,0,0,0-1.692-.68,1.737,1.737,0,0,0-1.528.776,3.858,3.858,0,0,0-.53,2.191,3.7,3.7,0,0,0,.526,2.167A1.783,1.783,0,0,0,245.779,18.187ZM8.962,38H7.8V33.3H2.536V38H1.374V28.006H2.536v4.252H7.8V28.006H8.962ZM12.6,30.508v4.86a1.955,1.955,0,0,0,.417,1.367,1.7,1.7,0,0,0,1.306.451,2.13,2.13,0,0,0,1.719-.643,3.241,3.241,0,0,0,.543-2.1V30.508h1.135V38h-.937l-.164-1h-.062a2.262,2.262,0,0,1-.967.848,3.251,3.251,0,0,1-1.412.294,2.864,2.864,0,0,1-2.047-.649,2.764,2.764,0,0,1-.68-2.078v-4.9ZM25.252,38V33.153a1.955,1.955,0,0,0-.417-1.367,1.7,1.7,0,0,0-1.306-.451,2.153,2.153,0,0,0-1.723.636,3.21,3.21,0,0,0-.547,2.1V38H20.125V30.508h.923l.185,1.025h.055a2.317,2.317,0,0,1,.978-.858,3.176,3.176,0,0,1,1.4-.3,2.846,2.846,0,0,1,2.037.653,2.778,2.778,0,0,1,.684,2.088V38Zm9.6-7.492v.718l-1.388.164a2.437,2.437,0,0,1,.492,1.5,2.215,2.215,0,0,1-.752,1.757,3.033,3.033,0,0,1-2.064.656,3.438,3.438,0,0,1-.629-.055,1.117,1.117,0,0,0-.725.964.49.49,0,0,0,.253.455,1.848,1.848,0,0,0,.868.147h1.326a2.97,2.97,0,0,1,1.87.513,1.781,1.781,0,0,1,.653,1.49,2.127,2.127,0,0,1-1,1.9,5.342,5.342,0,0,1-2.912.653,3.979,3.979,0,0,1-2.266-.547,1.766,1.766,0,0,1-.8-1.545,1.735,1.735,0,0,1,.438-1.183,2.228,2.228,0,0,1,1.23-.677,1.187,1.187,0,0,1-.482-.4,1.067,1.067,0,0,1-.195-.636,1.207,1.207,0,0,1,.219-.718,2.3,2.3,0,0,1,.69-.595,2.024,2.024,0,0,1-.947-.813,2.39,2.39,0,0,1-.366-1.312,2.424,2.424,0,0,1,.738-1.9,3.014,3.014,0,0,1,2.092-.667,3.8,3.8,0,0,1,1.06.137Zm-5.975,8.75a1.017,1.017,0,0,0,.513.923,2.83,2.83,0,0,0,1.47.314,4.1,4.1,0,0,0,2.116-.427,1.308,1.308,0,0,0,.687-1.159.917.917,0,0,0-.376-.844,2.92,2.92,0,0,0-1.415-.236h-1.36a1.792,1.792,0,0,0-1.2.369A1.319,1.319,0,0,0,28.875,39.258Zm.615-6.351a1.525,1.525,0,0,0,.444,1.189,1.774,1.774,0,0,0,1.237.4,1.447,1.447,0,0,0,1.661-1.613A1.489,1.489,0,0,0,31.151,31.2a1.665,1.665,0,0,0-1.23.431A1.734,1.734,0,0,0,29.49,32.907Zm10.315-2.536a4.44,4.44,0,0,1,.9.082l-.157,1.053a3.865,3.865,0,0,0-.82-.1,2,2,0,0,0-1.555.738,2.692,2.692,0,0,0-.646,1.839V38H36.388V30.508h.937l.13,1.388h.055a3.293,3.293,0,0,1,1-1.128A2.262,2.262,0,0,1,39.806,30.371Zm1.107.137H42.13l1.641,4.272a16.251,16.251,0,0,1,.67,2.112H44.5q.089-.349.373-1.193t1.856-5.192H47.94l-3.22,8.531A4.256,4.256,0,0,1,43.6,40.833a2.377,2.377,0,0,1-1.569.53,4.565,4.565,0,0,1-1.025-.116v-.909a3.955,3.955,0,0,0,.841.082,1.733,1.733,0,0,0,1.668-1.312l.417-1.066ZM52.965,38V28.006h1.162v8.941h4.409V38Zm8.23,0H60.061V30.508H61.2Zm-1.23-9.522a.754.754,0,0,1,.191-.571.709.709,0,0,1,.95,0,.74.74,0,0,1,.2.567.752.752,0,0,1-.2.571.694.694,0,0,1-.95,0A.768.768,0,0,1,59.965,28.478Zm4.758,5.688a13.344,13.344,0,0,1,.9-1.094l2.42-2.563h1.347L66.35,33.7,69.6,38H68.223l-2.646-3.541-.854.738V38H63.6V27.363h1.121V33q0,.376-.055,1.162Zm9.393,3.972a3.442,3.442,0,0,1-2.622-1.012,3.917,3.917,0,0,1-.96-2.81,4.344,4.344,0,0,1,.892-2.878,2.963,2.963,0,0,1,2.4-1.066,2.825,2.825,0,0,1,2.229.926,3.55,3.55,0,0,1,.82,2.444v.718H71.709a2.97,2.97,0,0,0,.667,2,2.305,2.305,0,0,0,1.781.684,6.035,6.035,0,0,0,2.393-.506v1.012a6.005,6.005,0,0,1-1.138.373A6.4,6.4,0,0,1,74.115,38.137Zm-.308-6.815a1.853,1.853,0,0,0-1.439.588,2.71,2.71,0,0,0-.632,1.627h3.917a2.5,2.5,0,0,0-.479-1.644A1.684,1.684,0,0,0,73.808,31.321ZM87.049,38l-.226-1.066h-.055a3.153,3.153,0,0,1-1.118.954,3.407,3.407,0,0,1-1.391.25,2.5,2.5,0,0,1-1.747-.574,2.094,2.094,0,0,1-.632-1.634q0-2.27,3.63-2.379l1.271-.041v-.465a1.9,1.9,0,0,0-.379-1.3,1.56,1.56,0,0,0-1.213-.42,4.944,4.944,0,0,0-2.119.574l-.349-.868a5.332,5.332,0,0,1,1.213-.472,5.255,5.255,0,0,1,1.323-.171,2.854,2.854,0,0,1,1.986.595,2.482,2.482,0,0,1,.646,1.907V38Zm-2.563-.8a2.3,2.3,0,0,0,1.665-.581,2.15,2.15,0,0,0,.6-1.627v-.677l-1.135.048a4.128,4.128,0,0,0-1.952.42,1.268,1.268,0,0,0-.6,1.159,1.169,1.169,0,0,0,.373.937A1.546,1.546,0,0,0,84.485,37.2Zm18.272.8h-1.148l-2.017-6.692q-.144-.444-.321-1.121a6.538,6.538,0,0,1-.185-.813,15.567,15.567,0,0,1-.479,1.976L96.653,38H95.5l-2.659-9.994h1.23l1.579,6.173a22.957,22.957,0,0,1,.479,2.352,16.983,16.983,0,0,1,.547-2.447l1.791-6.077H99.7l1.88,6.132a18.641,18.641,0,0,1,.554,2.393,20.5,20.5,0,0,1,.492-2.365l1.572-6.159h1.23Zm10.534-3.753a4.133,4.133,0,0,1-.923,2.861,3.25,3.25,0,0,1-2.55,1.029,3.377,3.377,0,0,1-1.784-.472,3.113,3.113,0,0,1-1.2-1.354,4.717,4.717,0,0,1-.424-2.064,4.127,4.127,0,0,1,.916-2.854,3.24,3.24,0,0,1,2.543-1.022,3.169,3.169,0,0,1,2.5,1.046A4.115,4.115,0,0,1,113.292,34.247Zm-5.708,0a3.556,3.556,0,0,0,.574,2.188,2.279,2.279,0,0,0,3.38,0,3.538,3.538,0,0,0,.578-2.191,3.481,3.481,0,0,0-.578-2.17,2.03,2.03,0,0,0-1.706-.742,2,2,0,0,0-1.682.731A3.52,3.52,0,0,0,107.584,34.247ZM116.416,38h-1.135V27.363h1.135Zm5.783-6.61h-1.907V38h-1.135V31.39h-1.34v-.513l1.34-.41V30.05q0-2.762,2.413-2.762a4.966,4.966,0,0,1,1.395.239l-.294.909a3.754,3.754,0,0,0-1.121-.212,1.092,1.092,0,0,0-.95.427,2.384,2.384,0,0,0-.308,1.371v.485H122.2Zm4.375,3.377V33.728h3.356v1.039Zm16.919-1.859a5.046,5.046,0,0,1-1.343,3.784A5.315,5.315,0,0,1,138.284,38h-2.769V28.006h3.063a4.486,4.486,0,0,1,4.915,4.9Zm-1.23.041A4.024,4.024,0,0,0,141.282,30a3.931,3.931,0,0,0-2.916-.991h-1.688V37h1.415a4.3,4.3,0,0,0,3.124-1.022A4.046,4.046,0,0,0,142.263,32.948Zm4.354-2.44v4.86a1.955,1.955,0,0,0,.417,1.367,1.7,1.7,0,0,0,1.306.451,2.13,2.13,0,0,0,1.719-.643,3.241,3.241,0,0,0,.543-2.1V30.508h1.135V38H150.8l-.164-1h-.062a2.262,2.262,0,0,1-.967.848,3.251,3.251,0,0,1-1.412.294,2.864,2.864,0,0,1-2.047-.649,2.765,2.765,0,0,1-.68-2.078v-4.9Zm10.944-.137a4.44,4.44,0,0,1,.9.082l-.157,1.053a3.865,3.865,0,0,0-.82-.1,2,2,0,0,0-1.555.738,2.692,2.692,0,0,0-.646,1.839V38h-1.135V30.508h.937l.13,1.388h.055a3.294,3.294,0,0,1,1-1.128A2.262,2.262,0,0,1,157.562,30.371Zm6.9,7.629-.226-1.066h-.055a3.153,3.153,0,0,1-1.118.954,3.407,3.407,0,0,1-1.391.25,2.5,2.5,0,0,1-1.747-.574,2.094,2.094,0,0,1-.632-1.634q0-2.27,3.63-2.379l1.271-.041v-.465a1.9,1.9,0,0,0-.379-1.3,1.56,1.56,0,0,0-1.213-.42,4.944,4.944,0,0,0-2.119.574l-.349-.868a5.332,5.332,0,0,1,1.213-.472,5.255,5.255,0,0,1,1.323-.171,2.854,2.854,0,0,1,1.986.595,2.482,2.482,0,0,1,.646,1.907V38Zm-2.563-.8a2.3,2.3,0,0,0,1.665-.581,2.15,2.15,0,0,0,.6-1.627v-.677l-1.135.048a4.128,4.128,0,0,0-1.952.42,1.268,1.268,0,0,0-.6,1.159,1.169,1.169,0,0,0,.373.937A1.546,1.546,0,0,0,161.9,37.2Zm10.869.8V33.153a1.955,1.955,0,0,0-.417-1.367,1.7,1.7,0,0,0-1.306-.451,2.153,2.153,0,0,0-1.723.636,3.21,3.21,0,0,0-.547,2.1V38h-1.135V30.508h.923l.185,1.025h.055a2.317,2.317,0,0,1,.978-.858,3.176,3.176,0,0,1,1.4-.3,2.846,2.846,0,0,1,2.037.653,2.778,2.778,0,0,1,.684,2.088V38Zm15.251-5.093a5.046,5.046,0,0,1-1.343,3.784A5.315,5.315,0,0,1,182.813,38h-2.769V28.006h3.063a4.486,4.486,0,0,1,4.915,4.9Zm-1.23.041A4.024,4.024,0,0,0,185.811,30a3.931,3.931,0,0,0-2.916-.991h-1.688V37h1.415a4.3,4.3,0,0,0,3.124-1.022A4.046,4.046,0,0,0,186.792,32.948Zm4.354-2.44v4.86a1.955,1.955,0,0,0,.417,1.367,1.7,1.7,0,0,0,1.306.451,2.13,2.13,0,0,0,1.719-.643,3.241,3.241,0,0,0,.543-2.1V30.508h1.135V38h-.937l-.164-1H195.1a2.262,2.262,0,0,1-.967.848,3.251,3.251,0,0,1-1.412.294,2.864,2.864,0,0,1-2.047-.649,2.765,2.765,0,0,1-.68-2.078v-4.9Zm10.944-.137a4.44,4.44,0,0,1,.9.082l-.157,1.053a3.865,3.865,0,0,0-.82-.1,2,2,0,0,0-1.555.738,2.692,2.692,0,0,0-.646,1.839V38h-1.135V30.508h.937l.13,1.388h.055a3.294,3.294,0,0,1,1-1.128A2.262,2.262,0,0,1,202.091,30.371ZM209,38l-.226-1.066h-.055a3.153,3.153,0,0,1-1.118.954,3.407,3.407,0,0,1-1.391.25,2.5,2.5,0,0,1-1.747-.574,2.094,2.094,0,0,1-.632-1.634q0-2.27,3.63-2.379l1.271-.041v-.465a1.9,1.9,0,0,0-.379-1.3,1.56,1.56,0,0,0-1.213-.42,4.944,4.944,0,0,0-2.119.574l-.349-.868a5.332,5.332,0,0,1,1.213-.472,5.255,5.255,0,0,1,1.323-.171,2.854,2.854,0,0,1,1.986.595,2.482,2.482,0,0,1,.646,1.907V38Zm-2.563-.8a2.3,2.3,0,0,0,1.665-.581,2.15,2.15,0,0,0,.6-1.627v-.677l-1.135.048a4.128,4.128,0,0,0-1.952.42,1.268,1.268,0,0,0-.6,1.159,1.169,1.169,0,0,0,.373.937A1.546,1.546,0,0,0,206.432,37.2ZM217.3,38V33.153a1.955,1.955,0,0,0-.417-1.367,1.7,1.7,0,0,0-1.306-.451,2.153,2.153,0,0,0-1.723.636,3.21,3.21,0,0,0-.547,2.1V38h-1.135V30.508h.923l.185,1.025h.055a2.317,2.317,0,0,1,.978-.858,3.176,3.176,0,0,1,1.4-.3,2.846,2.846,0,0,1,2.037.653,2.778,2.778,0,0,1,.684,2.088V38ZM1.374,47.006H4.2a5.327,5.327,0,0,1,2.878.595,2.1,2.1,0,0,1,.889,1.88,2.172,2.172,0,0,1-.5,1.466,2.386,2.386,0,0,1-1.446.749v.068q2.276.39,2.276,2.393a2.57,2.57,0,0,1-.906,2.092A3.855,3.855,0,0,1,4.86,57H1.374Zm1.162,4.279H4.45A3.116,3.116,0,0,0,6.221,50.9a1.491,1.491,0,0,0,.54-1.3,1.318,1.318,0,0,0-.6-1.213,3.759,3.759,0,0,0-1.914-.373H2.536Zm0,.984v3.739H4.621a2.97,2.97,0,0,0,1.822-.468,1.729,1.729,0,0,0,.612-1.466,1.553,1.553,0,0,0-.625-1.367,3.343,3.343,0,0,0-1.9-.437ZM11.409,57H10.274V49.508h1.135Zm-1.23-9.522a.754.754,0,0,1,.191-.571.709.709,0,0,1,.95,0,.74.74,0,0,1,.2.567.752.752,0,0,1-.2.571.694.694,0,0,1-.95,0A.768.768,0,0,1,10.179,47.478ZM14.95,57H13.815V46.363H14.95Zm3.541,0H17.356V46.363h1.135Zm3.541,0H20.9V49.508h1.135ZM20.8,47.478a.754.754,0,0,1,.191-.571.709.709,0,0,1,.95,0,.74.74,0,0,1,.2.567.752.752,0,0,1-.2.571.694.694,0,0,1-.95,0A.768.768,0,0,1,20.8,47.478Zm6.8,9.659a3.442,3.442,0,0,1-2.622-1.012,3.917,3.917,0,0,1-.96-2.81,4.344,4.344,0,0,1,.892-2.878,2.963,2.963,0,0,1,2.4-1.066,2.825,2.825,0,0,1,2.229.926,3.55,3.55,0,0,1,.82,2.444v.718H25.2a2.97,2.97,0,0,0,.667,2,2.305,2.305,0,0,0,1.781.684,6.035,6.035,0,0,0,2.393-.506v1.012a6.005,6.005,0,0,1-1.138.373A6.4,6.4,0,0,1,27.6,57.137ZM27.3,50.321a1.853,1.853,0,0,0-1.439.588,2.71,2.71,0,0,0-.632,1.627h3.917a2.5,2.5,0,0,0-.479-1.644A1.684,1.684,0,0,0,27.3,50.321Zm7.349,9.311a2.292,2.292,0,0,1-1.012-.185v-.991a3.714,3.714,0,0,0,1.012.137,1.281,1.281,0,0,0,1.029-.41A1.766,1.766,0,0,0,36.025,57V47.006h1.162v9.9a2.867,2.867,0,0,1-.656,2.013A2.434,2.434,0,0,1,34.645,59.632Zm8.189-2.5a3.442,3.442,0,0,1-2.622-1.012,3.917,3.917,0,0,1-.96-2.81,4.344,4.344,0,0,1,.892-2.878,2.963,2.963,0,0,1,2.4-1.066,2.825,2.825,0,0,1,2.229.926,3.55,3.55,0,0,1,.82,2.444v.718H40.428a2.97,2.97,0,0,0,.667,2,2.305,2.305,0,0,0,1.781.684,6.035,6.035,0,0,0,2.393-.506v1.012a6.005,6.005,0,0,1-1.138.373A6.4,6.4,0,0,1,42.834,57.137Zm-.308-6.815a1.853,1.853,0,0,0-1.439.588,2.71,2.71,0,0,0-.632,1.627h3.917a2.5,2.5,0,0,0-.479-1.644A1.684,1.684,0,0,0,42.526,50.321ZM52.131,57l-.226-1.066h-.055a3.153,3.153,0,0,1-1.118.954,3.407,3.407,0,0,1-1.391.25,2.5,2.5,0,0,1-1.747-.574,2.094,2.094,0,0,1-.632-1.634q0-2.27,3.63-2.379l1.271-.041v-.465a1.9,1.9,0,0,0-.379-1.3,1.56,1.56,0,0,0-1.213-.42,4.944,4.944,0,0,0-2.119.574l-.349-.868a5.332,5.332,0,0,1,1.213-.472,5.255,5.255,0,0,1,1.323-.171,2.854,2.854,0,0,1,1.986.595,2.482,2.482,0,0,1,.646,1.907V57Zm-2.563-.8a2.3,2.3,0,0,0,1.665-.581,2.15,2.15,0,0,0,.6-1.627v-.677l-1.135.048a4.128,4.128,0,0,0-1.952.42,1.268,1.268,0,0,0-.6,1.159,1.169,1.169,0,0,0,.373.937A1.546,1.546,0,0,0,49.567,56.2Zm10.869.8V52.153a1.955,1.955,0,0,0-.417-1.367,1.7,1.7,0,0,0-1.306-.451,2.153,2.153,0,0,0-1.723.636,3.21,3.21,0,0,0-.547,2.1V57H55.31V49.508h.923l.185,1.025h.055a2.317,2.317,0,0,1,.978-.858,3.176,3.176,0,0,1,1.4-.3,2.846,2.846,0,0,1,2.037.653,2.778,2.778,0,0,1,.684,2.088V57Zm6.474-3.233V52.728h3.356v1.039ZM80.274,57l-3.391-8.859h-.055q.1,1.053.1,2.5V57H75.852V47.006H77.6l3.165,8.244h.055l3.192-8.244H85.75V57H84.588V50.561q0-1.107.1-2.406h-.055L81.211,57Zm9.181,0H88.32V49.508h1.135Zm-1.23-9.522a.754.754,0,0,1,.191-.571.709.709,0,0,1,.95,0,.74.74,0,0,1,.2.567.752.752,0,0,1-.2.571.694.694,0,0,1-.95,0A.768.768,0,0,1,88.225,47.478Zm6.631,9.659a3.2,3.2,0,0,1-2.519-1,4.118,4.118,0,0,1-.892-2.833A4.247,4.247,0,0,1,92.35,50.4a3.261,3.261,0,0,1,2.581-1.025,5.121,5.121,0,0,1,1.08.116,3.558,3.558,0,0,1,.848.273l-.349.964a5.336,5.336,0,0,0-.82-.25,3.663,3.663,0,0,0-.786-.1q-2.283,0-2.283,2.912a3.467,3.467,0,0,0,.557,2.119,1.938,1.938,0,0,0,1.651.738,5.048,5.048,0,0,0,1.921-.4v1A4.094,4.094,0,0,1,94.855,57.137Zm8.8-.137V52.153a1.955,1.955,0,0,0-.417-1.367,1.7,1.7,0,0,0-1.306-.451,2.139,2.139,0,0,0-1.726.643,3.255,3.255,0,0,0-.543,2.105V57H98.526V46.363h1.135v3.22a7.015,7.015,0,0,1-.055.964h.068a2.314,2.314,0,0,1,.954-.851,3.1,3.1,0,0,1,1.412-.311,2.891,2.891,0,0,1,2.061.653,2.749,2.749,0,0,1,.687,2.075V57Zm8.073,0-.226-1.066h-.055a3.153,3.153,0,0,1-1.118.954,3.407,3.407,0,0,1-1.391.25,2.5,2.5,0,0,1-1.747-.574,2.094,2.094,0,0,1-.632-1.634q0-2.27,3.63-2.379l1.271-.041v-.465a1.9,1.9,0,0,0-.379-1.3,1.56,1.56,0,0,0-1.213-.42,4.944,4.944,0,0,0-2.119.574l-.349-.868a5.332,5.332,0,0,1,1.213-.472,5.255,5.255,0,0,1,1.323-.171,2.854,2.854,0,0,1,1.986.595,2.482,2.482,0,0,1,.646,1.907V57Zm-2.563-.8a2.3,2.3,0,0,0,1.665-.581,2.15,2.15,0,0,0,.6-1.627v-.677l-1.135.048a4.128,4.128,0,0,0-1.952.42,1.268,1.268,0,0,0-.6,1.159,1.169,1.169,0,0,0,.373.937A1.546,1.546,0,0,0,109.163,56.2Zm8.907.937a3.442,3.442,0,0,1-2.622-1.012,3.917,3.917,0,0,1-.96-2.81,4.344,4.344,0,0,1,.892-2.878,2.963,2.963,0,0,1,2.4-1.066A2.825,2.825,0,0,1,120,50.3a3.55,3.55,0,0,1,.82,2.444v.718h-5.161a2.97,2.97,0,0,0,.667,2,2.305,2.305,0,0,0,1.781.684,6.035,6.035,0,0,0,2.393-.506v1.012a6.005,6.005,0,0,1-1.138.373A6.4,6.4,0,0,1,118.07,57.137Zm-.308-6.815a1.853,1.853,0,0,0-1.439.588,2.71,2.71,0,0,0-.632,1.627h3.917a2.5,2.5,0,0,0-.479-1.644A1.684,1.684,0,0,0,117.763,50.321ZM123.895,57H122.76V46.363h1.135Zm4.758,2.632a2.292,2.292,0,0,1-1.012-.185v-.991a3.714,3.714,0,0,0,1.012.137,1.281,1.281,0,0,0,1.029-.41A1.766,1.766,0,0,0,130.033,57V47.006H131.2v9.9a2.867,2.867,0,0,1-.656,2.013A2.434,2.434,0,0,1,128.652,59.632ZM138.284,57l-.226-1.066H138a3.153,3.153,0,0,1-1.118.954,3.407,3.407,0,0,1-1.391.25,2.5,2.5,0,0,1-1.747-.574,2.094,2.094,0,0,1-.632-1.634q0-2.27,3.63-2.379l1.271-.041v-.465a1.9,1.9,0,0,0-.379-1.3,1.56,1.56,0,0,0-1.213-.42,4.944,4.944,0,0,0-2.119.574l-.349-.868a5.333,5.333,0,0,1,1.213-.472,5.255,5.255,0,0,1,1.323-.171,2.854,2.854,0,0,1,1.986.595,2.482,2.482,0,0,1,.646,1.907V57Zm-2.563-.8a2.3,2.3,0,0,0,1.665-.581,2.15,2.15,0,0,0,.6-1.627v-.677l-1.135.048a4.128,4.128,0,0,0-1.952.42,1.268,1.268,0,0,0-.6,1.159,1.169,1.169,0,0,0,.373.937A1.546,1.546,0,0,0,135.721,56.2Zm8.736.937a3.2,3.2,0,0,1-2.519-1,4.118,4.118,0,0,1-.892-2.833,4.247,4.247,0,0,1,.906-2.905,3.261,3.261,0,0,1,2.581-1.025,5.121,5.121,0,0,1,1.08.116,3.558,3.558,0,0,1,.848.273l-.349.964a5.336,5.336,0,0,0-.82-.25,3.663,3.663,0,0,0-.786-.1q-2.283,0-2.283,2.912a3.468,3.468,0,0,0,.557,2.119,1.938,1.938,0,0,0,1.651.738,5.048,5.048,0,0,0,1.921-.4v1A4.094,4.094,0,0,1,144.457,57.137Zm4.792-3.972a13.344,13.344,0,0,1,.9-1.094l2.42-2.563h1.347L150.876,52.7l3.247,4.3h-1.374L150.1,53.459l-.854.738V57h-1.121V46.363h1.121V52q0,.376-.055,1.162Zm11.061,1.791a1.877,1.877,0,0,1-.779,1.613,3.663,3.663,0,0,1-2.187.567,4.757,4.757,0,0,1-2.324-.472V55.612a5.621,5.621,0,0,0,1.159.431,4.839,4.839,0,0,0,1.193.157,2.705,2.705,0,0,0,1.367-.284.977.977,0,0,0,.1-1.613,5.968,5.968,0,0,0-1.48-.735,8.025,8.025,0,0,1-1.487-.68,2.031,2.031,0,0,1-.656-.66,1.72,1.72,0,0,1-.215-.882,1.681,1.681,0,0,1,.745-1.446,3.472,3.472,0,0,1,2.044-.53,5.98,5.98,0,0,1,2.365.492l-.4.923a5.429,5.429,0,0,0-2.044-.465,2.352,2.352,0,0,0-1.217.253.782.782,0,0,0-.41.7.849.849,0,0,0,.154.513,1.518,1.518,0,0,0,.5.4,11.074,11.074,0,0,0,1.313.554,4.9,4.9,0,0,1,1.8.978A1.724,1.724,0,0,1,160.31,54.956Zm8.313-1.709a4.133,4.133,0,0,1-.923,2.861,3.25,3.25,0,0,1-2.55,1.029,3.377,3.377,0,0,1-1.784-.472,3.113,3.113,0,0,1-1.2-1.354,4.717,4.717,0,0,1-.424-2.064,4.127,4.127,0,0,1,.916-2.854,3.24,3.24,0,0,1,2.543-1.022,3.169,3.169,0,0,1,2.5,1.046A4.115,4.115,0,0,1,168.622,53.247Zm-5.708,0a3.556,3.556,0,0,0,.574,2.188,2.279,2.279,0,0,0,3.38,0,3.538,3.538,0,0,0,.578-2.191,3.481,3.481,0,0,0-.578-2.17,2.03,2.03,0,0,0-1.706-.742,2,2,0,0,0-1.682.731A3.52,3.52,0,0,0,162.914,53.247ZM175.738,57V52.153a1.955,1.955,0,0,0-.417-1.367,1.7,1.7,0,0,0-1.306-.451,2.153,2.153,0,0,0-1.723.636,3.21,3.21,0,0,0-.547,2.1V57h-1.135V49.508h.923l.185,1.025h.055a2.317,2.317,0,0,1,.978-.858,3.176,3.176,0,0,1,1.4-.3,2.846,2.846,0,0,1,2.037.653,2.778,2.778,0,0,1,.684,2.088V57Z" transform="translate(4328 1842)"/>
    <path id="Path_282" data-name="Path 282" class="cls-5" d="M11.023,0H8.734L3.117-9.1H3.055l.039.508Q3.2-7.141,3.2-5.937V0h-1.7V-11.422H3.773l5.6,9.055h.047q-.016-.18-.062-1.309T9.313-5.437v-5.984h1.711ZM15.68,0H13.844V-8.641H15.68ZM13.734-10.93a1.017,1.017,0,0,1,.27-.758,1.05,1.05,0,0,1,.77-.266,1.028,1.028,0,0,1,.754.266,1.017,1.017,0,0,1,.27.758,1,1,0,0,1-.27.738,1.019,1.019,0,0,1-.754.27,1.041,1.041,0,0,1-.77-.27A1,1,0,0,1,13.734-10.93ZM25.906,0H24.063V-5.312a2.325,2.325,0,0,0-.4-1.492A1.555,1.555,0,0,0,22.383-7.3a2.031,2.031,0,0,0-1.7.688,3.8,3.8,0,0,0-.539,2.3V0H18.3V-8.641h1.438L20-7.508h.094A2.556,2.556,0,0,1,21.2-8.461,3.718,3.718,0,0,1,22.8-8.8q3.109,0,3.109,3.164Zm6.328.156A4.18,4.18,0,0,1,29.082-1.02a4.463,4.463,0,0,1-1.137-3.238A4.9,4.9,0,0,1,29-7.586,3.643,3.643,0,0,1,31.9-8.8a3.561,3.561,0,0,1,2.7,1.039A3.97,3.97,0,0,1,35.594-4.9v.992H29.836a2.838,2.838,0,0,0,.68,1.934,2.367,2.367,0,0,0,1.8.676,6.662,6.662,0,0,0,1.426-.145,7.474,7.474,0,0,0,1.418-.48V-.43A5.637,5.637,0,0,1,33.8.023,8.336,8.336,0,0,1,32.234.156ZM31.9-7.406a1.845,1.845,0,0,0-1.4.555,2.644,2.644,0,0,0-.629,1.617h3.922a2.392,2.392,0,0,0-.516-1.621A1.764,1.764,0,0,0,31.9-7.406Zm9,6.078a4.465,4.465,0,0,0,1.344-.211V-.156a3.706,3.706,0,0,1-.785.223,5.409,5.409,0,0,1-1,.09q-2.609,0-2.609-2.75V-7.25h-1.18v-.812l1.266-.672.625-1.828H39.7v1.922h2.461V-7.25H39.7v4.625a1.3,1.3,0,0,0,.332.98A1.21,1.21,0,0,0,40.9-1.328ZM45.8,0H43.969V-8.641H45.8ZM43.859-10.93a1.017,1.017,0,0,1,.27-.758,1.05,1.05,0,0,1,.77-.266,1.028,1.028,0,0,1,.754.266,1.017,1.017,0,0,1,.27.758,1,1,0,0,1-.27.738,1.019,1.019,0,0,1-.754.27,1.041,1.041,0,0,1-.77-.27A1,1,0,0,1,43.859-10.93ZM52.2.156A4.18,4.18,0,0,1,49.051-1.02a4.463,4.463,0,0,1-1.137-3.238,4.9,4.9,0,0,1,1.055-3.328,3.643,3.643,0,0,1,2.9-1.211,3.561,3.561,0,0,1,2.7,1.039A3.97,3.97,0,0,1,55.563-4.9v.992H49.8a2.838,2.838,0,0,0,.68,1.934,2.367,2.367,0,0,0,1.8.676,6.662,6.662,0,0,0,1.426-.145,7.474,7.474,0,0,0,1.418-.48V-.43a5.637,5.637,0,0,1-1.359.453A8.336,8.336,0,0,1,52.2.156Zm-.336-7.562a1.845,1.845,0,0,0-1.4.555,2.643,2.643,0,0,0-.629,1.617h3.922a2.392,2.392,0,0,0-.516-1.621A1.764,1.764,0,0,0,51.867-7.406ZM63.453-2.461A2.261,2.261,0,0,1,62.531-.52a4.414,4.414,0,0,1-2.641.676,6.237,6.237,0,0,1-2.773-.523V-1.953a6.809,6.809,0,0,0,2.836.7q1.7,0,1.7-1.023a.811.811,0,0,0-.187-.547,2.219,2.219,0,0,0-.617-.453,10.621,10.621,0,0,0-1.2-.531,5.529,5.529,0,0,1-2.02-1.156,2.139,2.139,0,0,1-.527-1.5A1.97,1.97,0,0,1,58-8.184,4.245,4.245,0,0,1,60.43-8.8a6.893,6.893,0,0,1,2.883.617L62.719-6.8a6.412,6.412,0,0,0-2.352-.578q-1.453,0-1.453.828a.833.833,0,0,0,.379.688,8.333,8.333,0,0,0,1.652.773,7.553,7.553,0,0,1,1.555.758,2.265,2.265,0,0,1,.719.793A2.3,2.3,0,0,1,63.453-2.461Z" transform="translate(4328 1971)"/>
    <path id="Path_281" data-name="Path 281" class="cls-4" d="M0,0H524" transform="translate(4300 1934)"/>
    <g id="Group_30" data-name="Group 30" transform="translate(4736 1964)">
      <g id="Group_6" data-name="Group 6">
        <path id="Path_24" data-name="Path 24" d="M8.8,5.3h2.7v.9h1.8v.9h.9V8h.9v6.2h-.8v2.5c0,.1,0,.1-.1.1h-.8V14.1h.9v-6c0-.1,0-.1-.1-.1h-.8V7.2a.1.1,0,0,0-.1-.1h-.8V9.8h-.9V6.3H9.8V8.9H8.9V5.5a.31.31,0,0,1-.1-.2Z"/>
        <path id="Path_25" data-name="Path 25" d="M13.2,16.7v2.6H4.4V16.7H3.5V14.9h.9v1.7h.9v1.8h7.1V16.7Z"/>
        <path id="Path_26" data-name="Path 26" d="M2.7,8.8h.8V.9h.9v9.7H3.5V9.7H2.6a2.769,2.769,0,0,0,.1-.9Z"/>
        <path id="Path_27" data-name="Path 27" d="M8.8,5.3H7V8.8H6.1V.9H7V4.4H8.8v.9Z"/>
        <path id="Path_28" data-name="Path 28" d="M.9,11.5v-.9h.9v.9h.9v1.8h.9v1.6c0,.1,0,.1-.1.1H2.7V13.2H1.8V11.4A3.085,3.085,0,0,1,.9,11.5Z"/>
        <path id="Path_29" data-name="Path 29" d="M2.7,8.8H.9v1.8H0V8H2.7v.8Z"/>
        <path id="Path_30" data-name="Path 30" d="M4.4.9V0H6.2V.9H4.4Z"/>
      </g>
      <g id="Group_7" data-name="Group 7">
        <rect id="Rectangle_54" data-name="Rectangle 54" class="cls-2" width="1.8" height="15.9" transform="translate(4.4 0.9)"/>
        <rect id="Rectangle_55" data-name="Rectangle 55" class="cls-2" width="1.8" height="1.8" transform="translate(0.9 8.8)"/>
        <rect id="Rectangle_56" data-name="Rectangle 56" class="cls-2" width="1.8" height="1.8" transform="translate(1.8 9.7)"/>
        <rect id="Rectangle_57" data-name="Rectangle 57" class="cls-2" width="1.8" height="13.2" transform="translate(7.1 5.3)"/>
        <rect id="Rectangle_58" data-name="Rectangle 58" class="cls-2" width="1.8" height="12.3" transform="translate(9.7 6.2)"/>
        <rect id="Rectangle_59" data-name="Rectangle 59" class="cls-2" width="1.8" height="2.6" transform="translate(2.7 10.6)"/>
        <rect id="Rectangle_60" data-name="Rectangle 60" class="cls-2" width="1.8" height="4.4" transform="translate(3.5 10.6)"/>
        <rect id="Rectangle_61" data-name="Rectangle 61" class="cls-2" width="1.8" height="9.7" transform="translate(5.7 8.8)"/>
        <rect id="Rectangle_62" data-name="Rectangle 62" class="cls-2" width="1.8" height="9.7" transform="translate(8.4 8.8)"/>
        <rect id="Rectangle_63" data-name="Rectangle 63" class="cls-2" width="1.8" height="7" transform="translate(11.4 9.7)"/>
        <rect id="Rectangle_64" data-name="Rectangle 64" class="cls-2" width="1.8" height="7.3" transform="translate(10.6 11.2)"/>
        <rect id="Rectangle_65" data-name="Rectangle 65" class="cls-2" width="1.8" height="6.2" transform="translate(12.3 7.9)"/>
        <rect id="Rectangle_66" data-name="Rectangle 66" class="cls-2" width="0.9" height="7.2" transform="translate(12.3 7)"/>
      </g>
    </g>
    <g id="Symbol_51" data-name="Symbol 51" transform="translate(3561 1545)">
      <path id="Path_23" data-name="Path 23" class="cls-7" d="M1.821.321,6,4.5,10.179.321a1.036,1.036,0,0,1,1.5,0h0a1.036,1.036,0,0,1,0,1.5L6.536,6.964a.716.716,0,0,1-1.071,0L.321,1.821a1.036,1.036,0,0,1,0-1.5h0A1.036,1.036,0,0,1,1.821.321Z" transform="translate(1229 188)"/>
      <rect id="Rectangle_52" data-name="Rectangle 52" class="cls-8" width="24" height="24" transform="translate(1223 180)"/>
    </g>
    <g id="Symbol_52" data-name="Symbol 52" transform="translate(3561 1772)">
      <path id="Path_23-2" data-name="Path 23" class="cls-7" d="M1.821.321,6,4.5,10.179.321a1.036,1.036,0,0,1,1.5,0h0a1.036,1.036,0,0,1,0,1.5L6.536,6.964a.716.716,0,0,1-1.071,0L.321,1.821a1.036,1.036,0,0,1,0-1.5h0A1.036,1.036,0,0,1,1.821.321Z" transform="translate(1229 188)"/>
      <rect id="Rectangle_52-2" data-name="Rectangle 52" class="cls-8" width="24" height="24" transform="translate(1223 180)"/>
    </g>
    <g id="Symbol_53" data-name="Symbol 53" transform="translate(3652 1589)">
      <path id="Path_23-3" data-name="Path 23" class="cls-7" d="M1.821.321,6,4.5,10.179.321a1.036,1.036,0,0,1,1.5,0h0a1.036,1.036,0,0,1,0,1.5L6.536,6.964a.716.716,0,0,1-1.071,0L.321,1.821a1.036,1.036,0,0,1,0-1.5h0A1.036,1.036,0,0,1,1.821.321Z" transform="translate(1150 211.205) rotate(180)"/>
      <rect id="Rectangle_52-3" data-name="Rectangle 52" class="cls-8" width="24" height="24" transform="translate(1132 196)"/>
    </g>
  </g>
</svg>
