<?xml version="1.0" encoding="utf-8"?>
<!-- Generator: Adobe Illustrator 19.2.1, SVG Export Plug-In . SVG Version: 6.00 Build 0)  -->
<svg version="1.1" id="Layer_1" xmlns="http://www.w3.org/2000/svg" xmlns:xlink="http://www.w3.org/1999/xlink" x="0px" y="0px"
	 viewBox="0 0 780 549" style="enable-background:new 0 0 780 549;" xml:space="preserve">
<style type="text/css">
	.st0{fill:none;stroke:#18A8AF;stroke-width:2;stroke-miterlimit:10;stroke-dasharray:4.8253,4.8253;}
	.st1{fill:none;stroke:#18A8AF;stroke-width:3;stroke-miterlimit:10;}
	.st2{fill:#666666;}
	.st3{fill:#4D4D4D;}
	.st4{fill:#FFFFFF;}
	.st5{fill:none;stroke:#FFFFFF;stroke-width:4;stroke-linecap:round;stroke-miterlimit:10;}
	.st6{fill:#F4F4F4;}
	.st7{fill:#3D3D3D;}
	.st8{fill:#FFFFFF;stroke:#CCCCCC;stroke-miterlimit:10;}
	.st9{fill:none;stroke:#CCCCCC;stroke-miterlimit:10;}
	.st10{opacity:0.85;fill:#231F20;enable-background:new    ;}
	.st11{fill:none;}
	.st12{fill:#C6C6C6;}
	.st13{fill:none;stroke:#18A8AF;stroke-width:2;stroke-miterlimit:10;}
	.st14{fill:none;stroke:#18A8AF;stroke-width:2;stroke-miterlimit:10;stroke-dasharray:4.9411,4.9411;}
	.st15{opacity:0.5;fill:#18A8AF;enable-background:new    ;}
	.st16{opacity:0.5;fill:#E91E63;enable-background:new    ;}
	.st17{fill:#999999;}
	.st18{fill:#DBDBDB;}
	.st19{fill:#18A8AF;}
	.st20{opacity:0.75;fill:#E91E63;enable-background:new    ;}
	.st21{fill:#EAEAEA;}
	.st22{fill:#2D2D2D;}
	.st23{fill:#FAFAFA;}
</style>
<rect x="-7.3" y="-2.3" class="st0" width="794" height="75.3"/>
<line class="st1" x1="3330" y1="-3127.8" x2="3330" y2="-3086.8"/>
<line class="st1" x1="3442.7" y1="-3127.8" x2="3442.7" y2="-3086.8"/>
<line class="st1" x1="3442.7" y1="-3107.4" x2="3330" y2="-3107.5"/>
<line class="st1" x1="3025.5" y1="-3367.7" x2="2984.5" y2="-3367.7"/>
<line class="st1" x1="3025.5" y1="-3152.4" x2="2984.5" y2="-3152.4"/>
<line class="st1" x1="3005.1" y1="-3152.4" x2="3005.1" y2="-3367.7"/>
<g>
	<g>
		<g>
			<rect x="951.3" y="-3253.8" class="st2" width="750.7" height="106.5"/>
		</g>
	</g>
	<circle class="st3" cx="1333" cy="-3199.8" r="40.9"/>
	<polygon class="st4" points="1319.5,-3193.4 1334.1,-3215.8 1316.4,-3215.8 1315,-3212.9 1328.6,-3212.9 1314,-3190.4 
		1334.1,-3190.4 1335.4,-3193.4 	"/>
	<polygon class="st4" points="1345.1,-3215.8 1338.5,-3215.8 1345.9,-3199.5 1338.5,-3183.1 1345.1,-3183.1 1352.5,-3199.5 	"/>
	<g>
		<line class="st5" x1="973" y1="-3190" x2="1005" y2="-3190"/>
		<line class="st5" x1="973" y1="-3212" x2="1005" y2="-3212"/>
		<line class="st5" x1="973" y1="-3202" x2="1005" y2="-3202"/>
	</g>
</g>
<g>
	<g>
		<g>
			<rect x="951.3" y="-3105.8" class="st2" width="750.7" height="106.5"/>
		</g>
	</g>
	<circle class="st3" cx="1032" cy="-3051.8" r="40.9"/>
	<polygon class="st4" points="1018.5,-3045.4 1033.1,-3067.8 1015.4,-3067.8 1014,-3064.9 1027.6,-3064.9 1013,-3042.4 
		1033.1,-3042.4 1034.4,-3045.4 	"/>
	<polygon class="st4" points="1044.1,-3067.8 1037.5,-3067.8 1044.9,-3051.5 1037.5,-3035.1 1044.1,-3035.1 1051.5,-3051.5 	"/>
</g>
<g>
	<g>
		<g>
			<rect x="951.3" y="-2866.7" class="st2" width="1545" height="144.7"/>
		</g>
	</g>
	<circle class="st3" cx="1029.3" cy="-2796.5" r="49.5"/>
	<polygon class="st4" points="1012.8,-2788.7 1030.5,-2815.9 1009.1,-2815.9 1007.4,-2812.3 1023.8,-2812.3 1006.1,-2785.1 
		1030.5,-2785.1 1032.1,-2788.7 	"/>
	<polygon class="st4" points="1043.8,-2815.9 1035.9,-2815.9 1044.8,-2796.1 1035.9,-2776.3 1043.8,-2776.3 1052.8,-2796.1 	"/>
	<g>
		<path class="st4" d="M1138.4-2805.1c0,3.4-1.1,5.9-3.4,7.8c-2.3,1.8-5.6,2.7-9.9,2.7h-3.9v13.1h-3.9v-33.2h8.6
			C1134.3-2814.8,1138.4-2811.6,1138.4-2805.1z M1121.2-2798h3.5c3.4,0,5.9-0.6,7.4-1.7c1.5-1.1,2.3-2.9,2.3-5.3
			c0-2.2-0.7-3.8-2.2-4.9c-1.4-1.1-3.7-1.6-6.7-1.6h-4.3L1121.2-2798L1121.2-2798z"/>
		<path class="st4" d="M1156.2-2806.9c1.1,0,2.1,0.1,3,0.3l-0.5,3.5c-1-0.2-1.9-0.3-2.7-0.3c-2,0-3.7,0.8-5.2,2.5
			c-1.4,1.6-2.1,3.7-2.1,6.1v13.4h-3.8v-24.9h3.1l0.4,4.6h0.2c0.9-1.6,2-2.9,3.3-3.7C1153.2-2806.5,1154.6-2806.9,1156.2-2806.9z"/>
		<path class="st4" d="M1185.3-2794c0,4.1-1,7.2-3.1,9.5c-2,2.3-4.9,3.4-8.5,3.4c-2.2,0-4.2-0.5-5.9-1.6c-1.7-1-3.1-2.5-4-4.5
			s-1.4-4.2-1.4-6.9c0-4.1,1-7.2,3-9.5s4.8-3.4,8.5-3.4c3.5,0,6.3,1.2,8.3,3.5C1184.3-2801.1,1185.3-2798,1185.3-2794z M1166.3-2794
			c0,3.2,0.6,5.6,1.9,7.3s3.1,2.5,5.6,2.5s4.3-0.8,5.6-2.5c1.3-1.7,1.9-4.1,1.9-7.3s-0.6-5.6-1.9-7.2c-1.3-1.6-3.2-2.5-5.7-2.5
			s-4.3,0.8-5.6,2.4C1167-2799.7,1166.3-2797.3,1166.3-2794z"/>
		<path class="st4" d="M1208.9-2784.9h-0.2c-1.7,2.5-4.3,3.8-7.8,3.8c-3.3,0-5.8-1.1-7.6-3.3c-1.8-2.2-2.7-5.4-2.7-9.5
			s0.9-7.3,2.7-9.6c1.8-2.3,4.3-3.4,7.6-3.4c3.4,0,6,1.2,7.8,3.7h0.3l-0.2-1.8l-0.1-1.7v-10.1h3.8v35.4h-3.1L1208.9-2784.9z
			 M1201.3-2784.3c2.6,0,4.4-0.7,5.6-2.1c1.2-1.4,1.7-3.7,1.7-6.8v-0.8c0-3.5-0.6-6-1.8-7.6c-1.2-1.5-3-2.3-5.6-2.3
			c-2.2,0-3.9,0.9-5.1,2.6c-1.2,1.7-1.8,4.1-1.8,7.3s0.6,5.6,1.8,7.2C1197.4-2785.1,1199.1-2784.3,1201.3-2784.3z"/>
		<path class="st4" d="M1224-2806.5v16.2c0,2,0.5,3.5,1.4,4.5s2.4,1.5,4.3,1.5c2.6,0,4.5-0.7,5.7-2.1c1.2-1.4,1.8-3.7,1.8-7v-13.1
			h3.8v24.9h-3.1l-0.5-3.3h-0.2c-0.8,1.2-1.8,2.2-3.2,2.8c-1.4,0.7-2.9,1-4.7,1c-3,0-5.3-0.7-6.8-2.2c-1.5-1.4-2.3-3.7-2.3-6.9
			v-16.3L1224-2806.5L1224-2806.5z"/>
		<path class="st4" d="M1258.9-2781.1c-3.6,0-6.4-1.1-8.4-3.3s-3-5.4-3-9.4c0-4.2,1-7.4,3-9.7s4.9-3.4,8.6-3.4
			c1.2,0,2.4,0.1,3.6,0.4c1.2,0.3,2.1,0.6,2.8,0.9l-1.2,3.2c-0.8-0.3-1.7-0.6-2.7-0.8s-1.9-0.3-2.6-0.3c-5.1,0-7.6,3.2-7.6,9.7
			c0,3.1,0.6,5.4,1.9,7c1.2,1.6,3.1,2.5,5.5,2.5c2.1,0,4.2-0.4,6.4-1.3v3.3C1263.6-2781.5,1261.5-2781.1,1258.9-2781.1z"/>
		<path class="st4" d="M1279.2-2784.2c0.7,0,1.3,0,1.9-0.1s1.1-0.2,1.5-0.3v2.9c-0.4,0.2-1,0.4-1.8,0.5s-1.5,0.2-2.1,0.2
			c-4.8,0-7.2-2.5-7.2-7.6v-14.8h-3.6v-1.8l3.6-1.6l1.6-5.3h2.2v5.8h7.2v2.9h-7.2v14.7c0,1.5,0.4,2.7,1.1,3.5
			C1277-2784.6,1278-2784.2,1279.2-2784.2z"/>
		<path class="st4" d="M1326.2-2781.6h-4.4l-18.2-27.9h-0.2c0.2,3.3,0.4,6.3,0.4,9v18.9h-3.6v-33.2h4.4l18.1,27.8h0.2
			c0-0.4-0.1-1.7-0.2-3.9s-0.1-3.8-0.1-4.8v-19.1h3.6L1326.2-2781.6L1326.2-2781.6z"/>
		<path class="st4" d="M1350.1-2781.6l-0.8-3.5h-0.2c-1.2,1.6-2.5,2.6-3.7,3.2c-1.2,0.6-2.8,0.8-4.6,0.8c-2.5,0-4.4-0.6-5.8-1.9
			c-1.4-1.3-2.1-3.1-2.1-5.4c0-5,4-7.7,12.1-7.9l4.2-0.1v-1.5c0-2-0.4-3.4-1.3-4.3c-0.8-0.9-2.2-1.4-4-1.4c-2.1,0-4.4,0.6-7,1.9
			l-1.2-2.9c1.2-0.7,2.6-1.2,4-1.6c1.5-0.4,2.9-0.6,4.4-0.6c3,0,5.2,0.7,6.6,2s2.1,3.4,2.1,6.3v17h-2.7V-2781.6z M1341.5-2784.2
			c2.3,0,4.2-0.6,5.5-1.9c1.3-1.3,2-3.1,2-5.4v-2.3l-3.8,0.2c-3,0.1-5.2,0.6-6.5,1.4c-1.3,0.8-2,2.1-2,3.9c0,1.4,0.4,2.4,1.2,3.1
			C1338.9-2784.6,1340.1-2784.2,1341.5-2784.2z"/>
		<path class="st4" d="M1392.4-2781.6v-16.2c0-2-0.4-3.5-1.3-4.5c-0.8-1-2.2-1.5-4-1.5c-2.3,0-4.1,0.7-5.2,2s-1.7,3.4-1.7,6.2v13.9
			h-3.8v-16.2c0-2-0.4-3.5-1.3-4.5c-0.8-1-2.2-1.5-4-1.5c-2.4,0-4.1,0.7-5.2,2.1c-1.1,1.4-1.6,3.7-1.6,7v13.1h-3.8v-24.9h3.1
			l0.6,3.4h0.2c0.7-1.2,1.7-2.2,3-2.8s2.7-1,4.4-1c3.9,0,6.4,1.4,7.6,4.2h0.2c0.7-1.3,1.8-2.3,3.2-3.1c1.4-0.8,3-1.1,4.8-1.1
			c2.8,0,4.9,0.7,6.3,2.2c1.4,1.4,2.1,3.8,2.1,6.9v16.2h-3.6L1392.4-2781.6L1392.4-2781.6z"/>
		<path class="st4" d="M1414.4-2781.1c-3.7,0-6.6-1.1-8.7-3.4c-2.1-2.2-3.2-5.4-3.2-9.3c0-4,1-7.2,3-9.6c2-2.4,4.6-3.5,8-3.5
			c3.1,0,5.6,1,7.4,3.1s2.7,4.8,2.7,8.1v2.4h-17.2c0.1,2.9,0.8,5.1,2.2,6.7c1.4,1.5,3.4,2.3,5.9,2.3c2.7,0,5.3-0.6,8-1.7v3.4
			c-1.3,0.6-2.6,1-3.8,1.2C1417.5-2781.2,1416.1-2781.1,1414.4-2781.1z M1413.4-2803.8c-2,0-3.6,0.7-4.8,2c-1.2,1.3-1.9,3.1-2.1,5.4
			h13c0-2.4-0.5-4.2-1.6-5.5C1416.9-2803.1,1415.4-2803.8,1413.4-2803.8z"/>
	</g>
</g>
<g>
	<g>
		<g>
			<rect x="951.3" y="-2670.7" class="st2" width="1545" height="144.7"/>
		</g>
	</g>
	<g>
		<path class="st3" d="M1874.5-2554.1h-206.2c-1.1,0-1.9-0.9-1.9-1.9v-91.1c0-1.1,0.9-1.9,1.9-1.9h206.2c1.1,0,1.9,0.9,1.9,1.9v91.1
			C1876.5-2554.9,1875.6-2554.1,1874.5-2554.1z"/>
		<g>
			<path class="st4" d="M1784.2-2593.3h-2.3v-9.5h-10.6v9.5h-2.3v-20.2h2.3v8.6h10.6v-8.6h2.3V-2593.3z"/>
			<path class="st4" d="M1795.8-2593c-2.2,0-4-0.7-5.3-2c-1.3-1.4-1.9-3.3-1.9-5.7s0.6-4.4,1.8-5.8c1.2-1.4,2.8-2.2,4.8-2.2
				c1.9,0,3.4,0.6,4.5,1.9c1.1,1.2,1.7,2.9,1.7,4.9v1.4H1791c0,1.8,0.5,3.1,1.3,4c0.9,0.9,2,1.4,3.6,1.4s3.2-0.3,4.8-1v2
				c-0.8,0.3-1.6,0.6-2.3,0.8C1797.7-2593.1,1796.8-2593,1795.8-2593z M1795.2-2606.7c-1.2,0-2.2,0.4-2.9,1.2
				c-0.7,0.8-1.1,1.9-1.3,3.3h7.9c0-1.4-0.3-2.6-1-3.3S1796.4-2606.7,1795.2-2606.7z"/>
			<path class="st4" d="M1807.5-2593.3h-2.3v-21.5h2.3V-2593.3z"/>
			<path class="st4" d="M1819.4-2593c-1,0-1.9-0.2-2.7-0.5c-0.8-0.4-1.5-0.9-2-1.7h-0.2c0.1,0.9,0.2,1.7,0.2,2.5v6.2h-2.3v-21.9h1.9
				l0.3,2.1h0.1c0.6-0.8,1.3-1.4,2.1-1.8c0.8-0.4,1.7-0.6,2.7-0.6c2,0,3.6,0.7,4.6,2.1c1.1,1.4,1.6,3.3,1.6,5.8s-0.6,4.4-1.7,5.8
				C1823-2593.7,1821.4-2593,1819.4-2593z M1819.1-2606.7c-1.5,0-2.7,0.4-3.4,1.3c-0.7,0.9-1,2.2-1.1,4.1v0.5c0,2.1,0.4,3.6,1.1,4.6
				c0.7,0.9,1.8,1.4,3.4,1.4c1.3,0,2.3-0.5,3.1-1.6c0.7-1.1,1.1-2.5,1.1-4.4s-0.4-3.3-1.1-4.3
				C1821.5-2606.2,1820.5-2606.7,1819.1-2606.7z"/>
		</g>
		<path class="st3" d="M2170.7-2554.3H1916c-1.1,0-1.9-0.9-1.9-1.9v-91.1c0-1.1,0.9-1.9,1.9-1.9h254.7c1.1,0,1.9,0.9,1.9,1.9v91.1
			C2172.6-2555.2,2171.7-2554.3,2170.7-2554.3z"/>
		<g>
			<path class="st4" d="M2000.2-2593.6v-20.2h2.3v18.1h8.9v2.1L2000.2-2593.6L2000.2-2593.6z"/>
			<path class="st4" d="M2023.9-2593.6l-0.5-2.2h-0.1c-0.8,0.9-1.5,1.6-2.3,1.9s-1.7,0.5-2.8,0.5c-1.5,0-2.7-0.4-3.5-1.2
				c-0.9-0.8-1.3-1.9-1.3-3.3c0-3.1,2.4-4.7,7.3-4.8l2.6-0.1v-0.9c0-1.2-0.3-2.1-0.8-2.6c-0.5-0.6-1.3-0.8-2.5-0.8
				c-1.3,0-2.7,0.4-4.3,1.2l-0.7-1.8c0.7-0.4,1.6-0.7,2.4-1c0.9-0.2,1.8-0.3,2.7-0.3c1.8,0,3.1,0.4,4,1.2s1.3,2.1,1.3,3.9v10.3
				L2023.9-2593.6L2023.9-2593.6z M2018.7-2595.2c1.4,0,2.5-0.4,3.4-1.2s1.2-1.9,1.2-3.3v-1.4l-2.3,0.1c-1.8,0.1-3.1,0.3-3.9,0.8
				s-1.2,1.3-1.2,2.3c0,0.8,0.3,1.5,0.8,1.9C2017.1-2595.4,2017.8-2595.2,2018.7-2595.2z"/>
			<path class="st4" d="M2032.4-2608.7v9.8c0,1.2,0.3,2.2,0.8,2.8s1.4,0.9,2.6,0.9c1.6,0,2.7-0.4,3.5-1.3c0.7-0.9,1.1-2.3,1.1-4.2
				v-8h2.3v15.1h-1.9l-0.3-2h-0.1c-0.5,0.7-1.1,1.3-2,1.7s-1.8,0.6-2.9,0.6c-1.8,0-3.2-0.4-4.1-1.3c-0.9-0.9-1.4-2.3-1.4-4.2v-9.9
				L2032.4-2608.7L2032.4-2608.7z"/>
			<path class="st4" d="M2058-2593.6v-9.8c0-1.2-0.3-2.2-0.8-2.8s-1.4-0.9-2.6-0.9c-1.6,0-2.7,0.4-3.5,1.3c-0.7,0.9-1.1,2.3-1.1,4.2
				v7.9h-2.3v-15.1h1.9l0.4,2.1h0.1c0.5-0.7,1.1-1.3,2-1.7s1.8-0.6,2.8-0.6c1.8,0,3.2,0.4,4.1,1.3s1.4,2.3,1.4,4.2v9.9L2058-2593.6
				L2058-2593.6z"/>
			<path class="st4" d="M2071-2593.3c-2.2,0-3.9-0.7-5.1-2s-1.8-3.3-1.8-5.7c0-2.5,0.6-4.5,1.8-5.9s3-2.1,5.2-2.1
				c0.7,0,1.5,0.1,2.2,0.2c0.7,0.2,1.3,0.3,1.7,0.6l-0.7,1.9c-0.5-0.2-1.1-0.4-1.7-0.5c-0.6-0.1-1.1-0.2-1.6-0.2
				c-3.1,0-4.6,2-4.6,5.9c0,1.9,0.4,3.3,1.1,4.3c0.8,1,1.9,1.5,3.3,1.5c1.3,0,2.6-0.3,3.9-0.8v2
				C2073.8-2593.6,2072.6-2593.3,2071-2593.3z"/>
			<path class="st4" d="M2088.8-2593.6v-9.8c0-1.2-0.3-2.2-0.8-2.8s-1.4-0.9-2.6-0.9c-1.6,0-2.8,0.4-3.5,1.3s-1.1,2.3-1.1,4.3v7.9
				h-2.3v-21.5h2.3v6.5c0,0.8,0,1.4-0.1,1.9h0.1c0.5-0.7,1.1-1.3,1.9-1.7c0.8-0.4,1.8-0.6,2.9-0.6c1.8,0,3.2,0.4,4.2,1.3
				c1,0.9,1.4,2.3,1.4,4.2v9.9L2088.8-2593.6L2088.8-2593.6z"/>
			<path class="st4" d="M2102.8-2593.3c-1,0-1.9-0.2-2.7-0.5c-0.8-0.4-1.5-0.9-2.1-1.7h-0.2c0.1,0.9,0.2,1.7,0.2,2.5v6.2h-2.3v-21.9
				h1.9l0.3,2.1h0.1c0.6-0.8,1.3-1.4,2.1-1.8s1.7-0.6,2.7-0.6c2,0,3.6,0.7,4.6,2.1c1.1,1.4,1.6,3.3,1.6,5.8s-0.6,4.4-1.7,5.8
				C2106.3-2594,2104.8-2593.3,2102.8-2593.3z M2102.5-2607c-1.5,0-2.7,0.4-3.4,1.3s-1,2.2-1.1,4.1v0.5c0,2.1,0.4,3.6,1.1,4.6
				c0.7,0.9,1.8,1.4,3.4,1.4c1.3,0,2.3-0.5,3.1-1.6c0.7-1.1,1.1-2.5,1.1-4.4s-0.4-3.3-1.1-4.3S2103.9-2607,2102.5-2607z"/>
			<path class="st4" d="M2122.4-2593.6l-0.5-2.2h-0.1c-0.8,0.9-1.5,1.6-2.3,1.9s-1.7,0.5-2.8,0.5c-1.5,0-2.7-0.4-3.5-1.2
				c-0.9-0.8-1.3-1.9-1.3-3.3c0-3.1,2.4-4.7,7.3-4.8l2.6-0.1v-0.9c0-1.2-0.3-2.1-0.8-2.6c-0.5-0.6-1.3-0.8-2.5-0.8
				c-1.3,0-2.7,0.4-4.3,1.2l-0.7-1.8c0.7-0.4,1.6-0.7,2.4-1c0.9-0.2,1.8-0.3,2.7-0.3c1.8,0,3.1,0.4,4,1.2s1.3,2.1,1.3,3.9v10.3
				L2122.4-2593.6L2122.4-2593.6z M2117.2-2595.2c1.4,0,2.5-0.4,3.4-1.2s1.2-1.9,1.2-3.3v-1.4l-2.3,0.1c-1.8,0.1-3.1,0.3-3.9,0.8
				c-0.8,0.5-1.2,1.3-1.2,2.3c0,0.8,0.3,1.5,0.8,1.9C2115.6-2595.4,2116.3-2595.2,2117.2-2595.2z"/>
			<path class="st4" d="M2139.1-2595.6h-0.1c-1.1,1.5-2.6,2.3-4.7,2.3c-2,0-3.5-0.7-4.6-2s-1.6-3.3-1.6-5.8s0.6-4.4,1.7-5.8
				c1.1-1.4,2.6-2.1,4.6-2.1c2.1,0,3.6,0.7,4.7,2.2h0.2l-0.1-1.1l-0.1-1.1v-6.2h2.3v21.5h-1.9L2139.1-2595.6z M2134.6-2595.2
				c1.6,0,2.7-0.4,3.4-1.3s1.1-2.2,1.1-4.1v-0.5c0-2.1-0.4-3.7-1.1-4.6c-0.7-0.9-1.9-1.4-3.4-1.4c-1.3,0-2.4,0.5-3.1,1.6
				c-0.7,1-1.1,2.5-1.1,4.4s0.4,3.4,1.1,4.4C2132.1-2595.7,2133.2-2595.2,2134.6-2595.2z"/>
		</g>
		<path class="st3" d="M2455.7-2554.3h-240.3c-2.2,0-4-1.7-4-3.7v-87.5c0-2.1,1.8-3.7,4-3.7h240.3c2.2,0,4,1.7,4,3.7v87.5
			C2459.8-2556,2457.9-2554.3,2455.7-2554.3z"/>
		<g>
			<path class="st4" d="M2309.5-2611.7v13.1c0,2.3-0.7,4.1-2.1,5.4c-1.4,1.3-3.3,2-5.7,2s-4.3-0.7-5.6-2s-2-3.1-2-5.5v-13h2.3v13.2
				c0,1.7,0.5,3,1.4,3.9s2.3,1.4,4.1,1.4c1.7,0,3-0.5,3.9-1.4s1.4-2.2,1.4-3.9v-13.1L2309.5-2611.7L2309.5-2611.7z"/>
			<path class="st4" d="M2324.3-2595.6c0,1.4-0.5,2.5-1.6,3.3c-1,0.8-2.5,1.1-4.4,1.1c-2,0-3.6-0.3-4.7-1v-2.1
				c0.7,0.4,1.5,0.7,2.3,0.9s1.6,0.3,2.4,0.3c1.2,0,2.1-0.2,2.8-0.6c0.6-0.4,1-1,1-1.7c0-0.6-0.3-1.1-0.8-1.5s-1.5-0.9-3-1.5
				c-1.4-0.5-2.4-1-3-1.4s-1-0.8-1.3-1.3s-0.4-1.1-0.4-1.8c0-1.2,0.5-2.2,1.5-2.9s2.4-1.1,4.1-1.1c1.6,0,3.2,0.3,4.8,1l-0.8,1.9
				c-1.5-0.6-2.9-0.9-4.1-0.9c-1.1,0-1.9,0.2-2.5,0.5s-0.8,0.8-0.8,1.4c0,0.4,0.1,0.8,0.3,1c0.2,0.3,0.5,0.6,1,0.8
				c0.5,0.3,1.3,0.6,2.7,1.1c1.8,0.7,3,1.3,3.6,2C2323.9-2597.4,2324.3-2596.6,2324.3-2595.6z"/>
			<path class="st4" d="M2334.4-2591.2c-2.2,0-4-0.7-5.3-2c-1.3-1.4-1.9-3.3-1.9-5.7s0.6-4.4,1.8-5.8s2.8-2.2,4.8-2.2
				c1.9,0,3.4,0.6,4.5,1.9c1.1,1.2,1.7,2.9,1.7,4.9v1.4h-10.4c0,1.8,0.5,3.1,1.3,4c0.9,0.9,2.1,1.4,3.6,1.4c1.6,0,3.2-0.3,4.8-1v2
				c-0.8,0.3-1.6,0.6-2.3,0.8C2336.3-2591.3,2335.4-2591.2,2334.4-2591.2z M2333.8-2605c-1.2,0-2.2,0.4-2.9,1.2s-1.1,1.9-1.3,3.3
				h7.9c0-1.4-0.3-2.6-1-3.3C2335.9-2604.6,2334.9-2605,2333.8-2605z"/>
			<path class="st4" d="M2350.7-2606.9c0.7,0,1.3,0.1,1.8,0.2l-0.3,2.1c-0.6-0.1-1.2-0.2-1.7-0.2c-1.2,0-2.3,0.5-3.1,1.5
				s-1.3,2.2-1.3,3.7v8.1h-2.3v-15.1h1.9l0.3,2.8h0.1c0.6-1,1.2-1.7,2-2.3C2348.9-2606.6,2349.8-2606.9,2350.7-2606.9z"/>
			<path class="st4" d="M2371.5-2591.5h-2.7l-11-16.9h-0.1c0.1,2,0.2,3.8,0.2,5.5v11.5h-2.2v-20.2h2.7l11,16.9h0.1
				c0-0.2-0.1-1-0.1-2.4c-0.1-1.3-0.1-2.3-0.1-2.9v-11.6h2.2L2371.5-2591.5L2371.5-2591.5z"/>
			<path class="st4" d="M2386-2591.5l-0.5-2.2h-0.1c-0.8,0.9-1.5,1.6-2.3,1.9c-0.8,0.3-1.7,0.5-2.8,0.5c-1.5,0-2.7-0.4-3.5-1.2
				c-0.9-0.8-1.3-1.9-1.3-3.3c0-3.1,2.4-4.7,7.3-4.8l2.6-0.1v-0.9c0-1.2-0.3-2.1-0.8-2.6c-0.5-0.6-1.3-0.8-2.5-0.8
				c-1.3,0-2.7,0.4-4.3,1.2l-0.7-1.8c0.7-0.4,1.6-0.7,2.5-1c0.9-0.2,1.8-0.3,2.7-0.3c1.8,0,3.1,0.4,4,1.2s1.3,2.1,1.3,3.9v10.3
				L2386-2591.5L2386-2591.5z M2380.8-2593.1c1.4,0,2.5-0.4,3.4-1.2s1.2-1.9,1.2-3.3v-1.4l-2.3,0.1c-1.8,0.1-3.1,0.3-3.9,0.8
				c-0.8,0.5-1.2,1.3-1.2,2.3c0,0.8,0.3,1.5,0.8,1.9C2379.2-2593.3,2379.9-2593.1,2380.8-2593.1z"/>
			<path class="st4" d="M2411.7-2591.5v-9.8c0-1.2-0.3-2.1-0.8-2.7s-1.3-0.9-2.4-0.9c-1.4,0-2.5,0.4-3.2,1.2s-1,2.1-1,3.8v8.4h-2.3
				v-9.8c0-1.2-0.3-2.1-0.8-2.7s-1.3-0.9-2.4-0.9c-1.4,0-2.5,0.4-3.2,1.3c-0.7,0.9-1,2.3-1,4.2v7.9h-2.3v-15.1h1.9l0.4,2.1h0.1
				c0.4-0.7,1-1.3,1.8-1.7s1.7-0.6,2.6-0.6c2.4,0,3.9,0.9,4.6,2.6h0.1c0.5-0.8,1.1-1.4,2-1.9s1.8-0.7,2.9-0.7c1.7,0,3,0.4,3.8,1.3
				c0.9,0.9,1.3,2.3,1.3,4.2v9.9h-2.1L2411.7-2591.5L2411.7-2591.5z"/>
			<path class="st4" d="M2425.1-2591.2c-2.2,0-4-0.7-5.3-2c-1.3-1.4-1.9-3.3-1.9-5.7s0.6-4.4,1.8-5.8s2.8-2.2,4.8-2.2
				c1.9,0,3.4,0.6,4.5,1.9c1.1,1.2,1.7,2.9,1.7,4.9v1.4h-10.4c0,1.8,0.5,3.1,1.3,4c0.9,0.9,2,1.4,3.6,1.4s3.2-0.3,4.8-1v2
				c-0.8,0.3-1.6,0.6-2.3,0.8C2427-2591.3,2426.1-2591.2,2425.1-2591.2z M2424.5-2605c-1.2,0-2.2,0.4-2.9,1.2s-1.1,1.9-1.3,3.3h7.9
				c0-1.4-0.3-2.6-1-3.3C2426.6-2604.6,2425.7-2605,2424.5-2605z"/>
		</g>
		<path class="st4" d="M2257.8-2604.3c-4.2,0-7.7-3.4-7.7-7.7c0-4.2,3.4-7.7,7.7-7.7s7.7,3.4,7.7,7.7S2262.1-2604.3,2257.8-2604.3z"
			/>
		<path class="st4" d="M2257.9-2583.3c-6.5,0-12.6-2.1-17.8-6c-0.3-0.2-0.4-0.6-0.3-1c0.2-0.5,0.4-1,0.7-1.5v-0.1
			c3.7-6,10.2-9.6,17.3-9.6c7.3,0,14.1,4,17.7,10.4c0,0,0,0,0,0.1l0.1,0.2c0.1,0.2,0.2,0.4,0.3,0.6c0.1,0.4,0,0.8-0.3,1
			C2270.5-2585.4,2264.4-2583.3,2257.9-2583.3z"/>
		<path class="st4" d="M1726.3-2619.7c-10,0-18.2,8.1-18.2,18.2s8.1,18.2,18.2,18.2s18.2-8.1,18.2-18.2S1736.4-2619.7,1726.3-2619.7
			z M1728.5-2592.4c0,1.2-1,2.2-2.2,2.2s-2.2-1-2.2-2.2v-0.1c0-1.2,1-2.2,2.2-2.2s2.2,1,2.2,2.2V-2592.4z M1730.4-2602
			c-1.3,1-1.9,1.8-2.1,2.9c-0.2,0.9-1,1.6-1.9,1.6h-0.2c-1.2,0-2.1-1-1.9-2.2c0.2-1.3,0.6-2.2,1.3-3.1c1.4-1.6,4.2-2.1,4.2-4.7
			c0-2.2-1.5-2.8-3.2-2.8c-1.8,0-3.1,0.8-3.5,2.1c-0.2,0.8-1,1.4-1.9,1.4h-0.4c-1.3,0-2.2-1.3-1.9-2.5c0.9-2.9,3.5-4.6,7.1-4.6
			c4.8,0,7.7,1.8,7.7,6.2C1733.8-2604.8,1732.6-2603.6,1730.4-2602z"/>
		<rect x="1945.5" y="-2596.7" class="st4" width="9.7" height="9.7"/>
		<rect x="1945.5" y="-2608.7" class="st4" width="9.7" height="9.7"/>
		<rect x="1945.5" y="-2620.7" class="st4" width="9.7" height="9.7"/>
		<rect x="1957" y="-2596.7" class="st4" width="9.7" height="9.7"/>
		<rect x="1957" y="-2608.7" class="st4" width="9.7" height="9.7"/>
		<rect x="1957" y="-2620.7" class="st4" width="9.7" height="9.7"/>
		<rect x="1968.4" y="-2596.7" class="st4" width="9.7" height="9.7"/>
		<rect x="1968.4" y="-2608.7" class="st4" width="9.7" height="9.7"/>
		<rect x="1968.4" y="-2620.7" class="st4" width="9.7" height="9.7"/>
	</g>
</g>
<rect x="961.1" y="-2418.5" class="st6" width="1542.8" height="550"/>
<g>
	<g>
		<rect x="961.4" y="-2418.2" class="st2" width="1545" height="144.7"/>
	</g>
</g>
<circle class="st3" cx="1039.4" cy="-2348" r="49.5"/>
<polygon class="st4" points="1023,-2340.2 1040.7,-2367.4 1019.2,-2367.4 1017.6,-2363.8 1034,-2363.8 1016.3,-2336.6 
	1040.6,-2336.6 1042.3,-2340.2 "/>
<polygon class="st4" points="1054,-2367.4 1046,-2367.4 1055,-2347.6 1046,-2327.8 1054,-2327.8 1062.9,-2347.6 "/>
<g>
	<path class="st4" d="M1148.6-2356.6c0,3.4-1.1,5.9-3.4,7.8c-2.3,1.8-5.6,2.7-9.9,2.7h-3.9v13.1h-3.9v-33.3h8.6
		C1144.4-2366.3,1148.6-2363.1,1148.6-2356.6z M1131.4-2349.5h3.5c3.4,0,5.9-0.6,7.4-1.7s2.3-2.9,2.3-5.3c0-2.2-0.7-3.8-2.2-4.9
		c-1.4-1.1-3.7-1.6-6.7-1.6h-4.3L1131.4-2349.5L1131.4-2349.5z"/>
	<path class="st4" d="M1166.3-2358.4c1.1,0,2.1,0.1,3,0.3l-0.5,3.5c-1-0.2-1.9-0.3-2.7-0.3c-2,0-3.7,0.8-5.2,2.5
		c-1.4,1.6-2.1,3.7-2.1,6.1v13.4h-3.8v-25.1h3.1l0.4,4.6h0.2c0.9-1.6,2-2.9,3.3-3.7C1163.3-2358,1164.8-2358.4,1166.3-2358.4z"/>
	<path class="st4" d="M1195.5-2345.5c0,4.1-1,7.2-3.1,9.5c-2,2.3-4.9,3.4-8.5,3.4c-2.2,0-4.2-0.5-5.9-1.6c-1.7-1-3.1-2.5-4-4.5
		s-1.4-4.2-1.4-6.9c0-4.1,1-7.2,3-9.5s4.8-3.4,8.5-3.4c3.5,0,6.3,1.2,8.3,3.5C1194.4-2352.6,1195.5-2349.5,1195.5-2345.5z
		 M1176.5-2345.5c0,3.2,0.6,5.6,1.9,7.3s3.1,2.5,5.6,2.5s4.3-0.8,5.6-2.5c1.3-1.7,1.9-4.1,1.9-7.3s-0.6-5.6-1.9-7.2
		s-3.2-2.5-5.7-2.5s-4.3,0.8-5.6,2.4C1177.1-2351.2,1176.5-2348.8,1176.5-2345.5z"/>
	<path class="st4" d="M1219-2336.4h-0.2c-1.7,2.5-4.3,3.8-7.8,3.8c-3.3,0-5.8-1.1-7.6-3.3c-1.8-2.2-2.7-5.4-2.7-9.5s0.9-7.3,2.7-9.6
		c1.8-2.3,4.3-3.4,7.6-3.4c3.4,0,6,1.2,7.8,3.7h0.3l-0.2-1.8l-0.1-1.7v-10.2h3.8v35.4h-3.1L1219-2336.4z M1211.5-2335.8
		c2.6,0,4.4-0.7,5.6-2.1c1.2-1.4,1.7-3.7,1.7-6.8v-0.8c0-3.5-0.6-6-1.8-7.6c-1.2-1.5-3-2.3-5.6-2.3c-2.2,0-3.9,0.9-5.1,2.6
		c-1.2,1.7-1.8,4.1-1.8,7.3s0.6,5.6,1.8,7.2C1207.5-2336.6,1209.2-2335.8,1211.5-2335.8z"/>
	<path class="st4" d="M1234.1-2358v16.2c0,2,0.5,3.5,1.4,4.5s2.4,1.5,4.3,1.5c2.6,0,4.5-0.7,5.7-2.1c1.2-1.4,1.8-3.7,1.8-7v-13.1
		h3.8v24.9h-3.1l-0.5-3.3h-0.2c-0.8,1.2-1.8,2.2-3.2,2.8c-1.4,0.7-2.9,1-4.7,1c-3,0-5.3-0.7-6.8-2.2c-1.5-1.4-2.3-3.7-2.3-6.9v-16.3
		L1234.1-2358L1234.1-2358z"/>
	<path class="st4" d="M1269.1-2332.6c-3.6,0-6.4-1.1-8.4-3.3s-3-5.4-3-9.4c0-4.2,1-7.4,3-9.7s4.9-3.4,8.6-3.4c1.2,0,2.4,0.1,3.6,0.4
		s2.1,0.6,2.8,0.9l-1.2,3.2c-0.8-0.3-1.7-0.6-2.7-0.8s-1.9-0.3-2.6-0.3c-5.1,0-7.6,3.2-7.6,9.7c0,3.1,0.6,5.4,1.9,7
		c1.2,1.6,3.1,2.5,5.5,2.5c2.1,0,4.2-0.4,6.4-1.3v3.3C1273.7-2333,1271.6-2332.6,1269.1-2332.6z"/>
	<path class="st4" d="M1289.3-2335.7c0.7,0,1.3,0,1.9-0.1s1.1-0.2,1.5-0.3v2.9c-0.4,0.2-1,0.4-1.8,0.5s-1.5,0.2-2.1,0.2
		c-4.8,0-7.2-2.5-7.2-7.6v-14.9h-3.6v-1.8l3.6-1.6l1.6-5.3h2.2v5.8h7.2v2.9h-7.2v14.7c0,1.5,0.4,2.7,1.1,3.5
		S1288.1-2335.7,1289.3-2335.7z"/>
	<path class="st4" d="M1336.3-2333.1h-4.4l-18.2-27.9h-0.2c0.2,3.3,0.4,6.3,0.4,9v18.9h-3.6v-33.2h4.4l18.2,27.8h0.2
		c0-0.4-0.1-1.7-0.2-3.9s-0.1-3.8-0.1-4.8v-19.1h3.6L1336.3-2333.1L1336.3-2333.1z"/>
	<path class="st4" d="M1360.2-2333.1l-0.8-3.5h-0.2c-1.2,1.6-2.5,2.6-3.7,3.2c-1.2,0.6-2.8,0.8-4.6,0.8c-2.5,0-4.4-0.6-5.8-1.9
		s-2.1-3.1-2.1-5.4c0-5,4-7.7,12.1-7.9l4.2-0.1v-1.6c0-2-0.4-3.4-1.3-4.3c-0.8-0.9-2.2-1.4-4-1.4c-2.1,0-4.4,0.6-7,1.9l-1.2-2.9
		c1.2-0.7,2.6-1.2,4-1.6c1.5-0.4,2.9-0.6,4.4-0.6c3,0,5.2,0.7,6.6,2s2.1,3.4,2.1,6.3v17H1360.2z M1351.7-2335.7
		c2.3,0,4.2-0.6,5.5-1.9c1.3-1.3,2-3.1,2-5.4v-2.3l-3.8,0.2c-3,0.1-5.2,0.6-6.5,1.4c-1.3,0.8-2,2.1-2,3.9c0,1.4,0.4,2.4,1.2,3.1
		C1349-2336.1,1350.2-2335.7,1351.7-2335.7z"/>
	<path class="st4" d="M1402.5-2333.1v-16.2c0-2-0.4-3.5-1.3-4.5c-0.8-1-2.2-1.5-4-1.5c-2.3,0-4.1,0.7-5.2,2s-1.7,3.4-1.7,6.2v13.9
		h-3.8v-16.1c0-2-0.4-3.5-1.3-4.5c-0.8-1-2.2-1.5-4-1.5c-2.4,0-4.1,0.7-5.2,2.1s-1.6,3.7-1.6,7v13.1h-3.8v-24.9h3.1l0.6,3.4h0.2
		c0.7-1.2,1.7-2.2,3-2.8c1.3-0.7,2.7-1,4.4-1c3.9,0,6.4,1.4,7.6,4.2h0.2c0.7-1.3,1.8-2.3,3.2-3.1c1.4-0.8,3-1.1,4.8-1.1
		c2.8,0,4.9,0.7,6.3,2.2c1.4,1.4,2.1,3.8,2.1,6.9v16.2L1402.5-2333.1L1402.5-2333.1z"/>
	<path class="st4" d="M1424.6-2332.6c-3.7,0-6.6-1.1-8.7-3.4c-2.1-2.2-3.2-5.4-3.2-9.3c0-4,1-7.2,3-9.6c2-2.4,4.6-3.5,8-3.5
		c3.1,0,5.6,1,7.4,3.1s2.7,4.8,2.7,8.1v2.4h-17.2c0.1,2.9,0.8,5.1,2.2,6.7c1.4,1.5,3.4,2.3,5.9,2.3c2.7,0,5.3-0.6,8-1.7v3.4
		c-1.3,0.6-2.6,1-3.8,1.2C1427.7-2332.7,1426.3-2332.6,1424.6-2332.6z M1423.6-2355.3c-2,0-3.6,0.7-4.8,2c-1.2,1.3-1.9,3.1-2.1,5.4
		h13c0-2.4-0.5-4.2-1.6-5.5C1427-2354.6,1425.5-2355.3,1423.6-2355.3z"/>
</g>
<g>
	<g>
		<rect x="977" y="57.1" class="st7" width="390.7" height="55.4"/>
	</g>
</g>
<text transform="matrix(1 0 0 1 2765.1711 -3253.8132)" class="st19" style="font-family:'OpenSans-Semibold'; font-size:25px;">Font Size:</text>
<text transform="matrix(1 0 0 1 2879.8711 -3253.8132)" class="st19" style="font-family:'OpenSans'; font-size:25px;"> 14px</text>
<text transform="matrix(1 0 0 1 3314.5698 -2999.3145)" class="st19" style="font-family:'OpenSans-Semibold'; font-size:25px;">Font Size:</text>
<text transform="matrix(1 0 0 1 3429.2698 -2999.3145)" class="st19" style="font-family:'OpenSans'; font-size:25px;"> 14px</text>
<g>
	<g>
		<g>
			<g>
				<polyline class="st8" points="4528,-2810.7 4512.4,-2794.8 4526.4,-2778.6 4512.5,-2762.4 4526.5,-2746.2 4512.5,-2730 
					4526.5,-2713.8 4512.5,-2697.6 4526.5,-2681.4 4512.6,-2665.2 4526.6,-2649 4512.6,-2632.7 4526.6,-2616.6 4512.6,-2600.3 
					4526.6,-2584.1 4512.7,-2567.9 4526.7,-2551.7 4512.7,-2535.5 4526.7,-2519.3 4512.7,-2503.1 4526.7,-2486.9 4512.8,-2470.7 
					4526.8,-2454.5 4512.8,-2438.3 4526.8,-2422.1 4512.8,-2405.9 4526.8,-2389.7 4512.9,-2373.5 4526.9,-2357.3 4512.9,-2341 
					4526.9,-2324.9 4512.9,-2308.6 4526.9,-2292.4 4513,-2276.2 4527,-2260 				"/>
			</g>
		</g>
		<g>
			<g>
				<polyline class="st8" points="4527,-2260 4512.4,-2244.3 4526.4,-2228.1 4512.5,-2211.9 4526.5,-2195.7 4512.5,-2179.5 
					4526.5,-2163.3 4512.5,-2147.1 4526.5,-2130.9 4512.6,-2114.7 4526.6,-2098.5 4512.6,-2082.2 4526.6,-2066.1 4512.6,-2049.8 
					4526.6,-2033.6 4512.7,-2017.4 4526.7,-2001.2 4512.7,-1985 4526.7,-1968.8 4512.7,-1952.6 4526.7,-1936.4 4512.8,-1920.2 
					4526.8,-1904 4512.8,-1887.8 4526.8,-1871.6 4512.8,-1855.4 4526.8,-1839.2 4512.9,-1823 4526.9,-1806.8 4512.9,-1790.5 
					4526.9,-1774.4 4512.9,-1758.1 4526.9,-1741.9 4513,-1725.7 4527,-1709.5 				"/>
			</g>
		</g>
		<g>
			<g>
				<path class="st8" d="M4526.5-1710.5"/>
				<polyline class="st8" points="4527,-1709.5 4512.6,-1694.5 4527.5,-1678 				"/>
			</g>
			<path class="st8" d="M4526.5-1710.5"/>
		</g>
	</g>
	<g>
		<g>
			<g>
				<polyline class="st8" points="4527.5,-1678.6 4511.3,-1692.6 4495.1,-1678.6 4478.9,-1692.4 4462.7,-1678.4 4446.5,-1692.4 
					4430.3,-1678.4 4414.1,-1692.4 4397.9,-1678.4 4381.7,-1692.3 4365.5,-1678.3 4349.2,-1692.3 4333.1,-1678.3 4316.8,-1692.3 
					4300.6,-1678.3 4284.4,-1692.3 4268.2,-1678.3 4252,-1692.3 4235.8,-1678.3 4219.6,-1692.3 4203.4,-1678.3 4187.2,-1692.1 
					4171,-1678.1 4154.8,-1692.1 4138.6,-1678.1 4122.4,-1692.1 4106.2,-1678.1 4090,-1692.1 4073.8,-1678.1 4057.5,-1692.1 
					4041.4,-1678.1 4025.1,-1692.1 4008.9,-1678.1 3992.7,-1691.9 3976.5,-1678 				"/>
			</g>
		</g>
		<g>
			<g>
				<polyline class="st8" points="3976.5,-1678 3961.8,-1692.6 3945.6,-1678.6 3929.4,-1692.4 3913.2,-1678.4 3897,-1692.4 
					3880.8,-1678.4 3864.6,-1692.4 3848.4,-1678.4 3832.2,-1692.3 3816,-1678.3 3799.7,-1692.3 3783.6,-1678.3 3767.3,-1692.3 
					3751.1,-1678.3 3734.9,-1692.3 3718.7,-1678.3 3702.5,-1692.3 3686.3,-1678.3 3670.1,-1692.3 3653.9,-1678.3 3637.7,-1692.1 
					3621.5,-1678.1 3605.3,-1692.1 3589.1,-1678.1 3572.9,-1692.1 3556.7,-1678.1 3540.5,-1692.1 3524.3,-1678.1 3508,-1692.1 
					3491.9,-1678.1 3475.6,-1692.1 3459.4,-1678.1 3443.2,-1691.9 3427,-1678 				"/>
			</g>
		</g>
		<g>
			<g>
				<path class="st8" d="M3427-1678.5"/>
				<polyline class="st8" points="3427,-1678 3411,-1692.4 3395.5,-1678 				"/>
			</g>
			<path class="st8" d="M3427-1678.5"/>
		</g>
	</g>
	<g>
		<g>
			<g>
				<polyline class="st8" points="3395.5,-1678 3379.3,-1692.6 3363.1,-1678.6 3346.9,-1692.4 3330.7,-1678.4 3314.5,-1692.4 
					3298.3,-1678.4 3282.1,-1692.4 3265.9,-1678.4 3249.7,-1692.3 3233.5,-1678.3 3217.2,-1692.3 3201.1,-1678.3 3184.8,-1692.3 
					3168.6,-1678.3 3152.4,-1692.3 3136.2,-1678.3 3120,-1692.3 3103.8,-1678.3 3087.6,-1692.3 3071.4,-1678.3 3055.2,-1692.1 
					3039,-1678.1 3022.8,-1692.1 3006.6,-1678.1 2990.4,-1692.1 2984.1,-1678 				"/>
			</g>
		</g>
	</g>
	<line class="st9" x1="2984.4" y1="-1678" x2="2985" y2="-2810.7"/>
	<line class="st9" x1="4527.4" y1="-2810" x2="2985" y2="-2810"/>
</g>
<g>
	<g>
		<g>
			<path class="st10" d="M2477.1-221.4h-282c-1.1,0-2,0.8-2,1.8v78.3c0,1,0.9,1.8,2,1.8h282c1.1,0,2-0.8,2-1.8v-78.3
				C2479.1-220.5,2478.2-221.4,2477.1-221.4z"/>
		</g>
	</g>
	<text transform="matrix(1 0 0 1 2298.7041 -102.4196)" style="fill:#5785BC; font-family:'OpenSans'; font-size:14px;">Need Help?</text>
	<rect x="2202.6" y="-207.9" class="st11" width="271" height="56.5"/>
	<text transform="matrix(1 0 0 1 2202.5996 -197.9941)" class="st23" style="font-family:'OpenSans'; font-size:13px;">Allow employees to make election changes </text>
	<text transform="matrix(1 0 0 1 2202.5996 -176.9941)" class="st23" style="font-family:'OpenSans'; font-size:13px;">in this plan outside of an enrollment period </text>
	<text transform="matrix(1 0 0 1 2202.5996 -155.9941)" class="st23" style="font-family:'OpenSans'; font-size:13px;">with a Life Event.</text>
</g>
<path class="st12" d="M2297.8-310.5H2121c-0.7,0-1.3-0.6-1.3-1.3v-5.3c0-0.7,0.6-1.3,1.3-1.3h176.8c0.7,0,1.3,0.6,1.3,1.3v5.3
	C2299.2-311.1,2298.6-310.5,2297.8-310.5z"/>
<path class="st7" d="M2202.9-310.5h-81.1c-0.7,0-1.3-0.6-1.3-1.3v-5.3c0-0.7,0.6-1.3,1.3-1.3h81.1c0.7,0,1.3,0.6,1.3,1.3v5.3
	C2204.3-311.1,2203.7-310.5,2202.9-310.5z"/>
<circle class="st7" cx="1385.9" cy="-330.4" r="55.8"/>
<circle class="st7" cx="-832.1" cy="84.6" r="55.8"/>
<text transform="matrix(1 0 0 1 1610.4556 -820.6514)" class="st19" style="font-family:'OpenSans'; font-size:12px;">Container Width</text>
<g>
	<polygon class="st4" points="1366,-321 1386.1,-351.8 1361.7,-351.8 1359.9,-347.8 1378.5,-347.8 1358.4,-316.9 1385.9,-316.9 
		1387.9,-321 	"/>
	<polygon class="st4" points="1401.1,-351.8 1392,-351.8 1402.3,-329.4 1392,-307 1401.1,-307 1411.2,-329.4 	"/>
</g>
<path class="st7" d="M1844.6-277.2h-165.2c-22.2,0-40.3-18.1-40.3-40.3l0,0c0-22.2,18.1-40.3,40.3-40.3h165.2
	c22.2,0,40.3,18.1,40.3,40.3l0,0C1884.9-295.3,1866.8-277.2,1844.6-277.2z"/>
<path class="st7" d="M1981.8-320.2L1981.8-320.2"/>
<text transform="matrix(1 0 0 1 1688.9778 -307.6292)" class="st4" style="font-family:'OpenSans'; font-size:26.8634px;">Button Text</text>
<path class="st7" d="M1914.2-735.5h-516.3c-11.6,0-21-9.4-21-21l0,0c0-11.6,9.4-21,21-21h516.4c11.6,0,21,9.4,21,21l0,0
	C1935.2-744.9,1925.8-735.5,1914.2-735.5z"/>
<text transform="matrix(1 0 0 1 1618.3717 -752.4282)" class="st4" style="font-family:'OpenSans'; font-size:14px;">Save Group</text>
<g>
	<g>
		<g>
			<line class="st13" x1="1375.4" y1="-688.9" x2="1375.4" y2="-691.4"/>
			<line class="st0" x1="1375.4" y1="-696.2" x2="1375.4" y2="-819.3"/>
			<polyline class="st13" points="1375.4,-821.7 1375.4,-824.2 1377.9,-824.2 			"/>
			<line class="st14" x1="1382.9" y1="-824.2" x2="1568.2" y2="-824.2"/>
			<line class="st13" x1="1570.6" y1="-824.2" x2="1573.1" y2="-824.2"/>
		</g>
	</g>
</g>
<g>
	<g>
		<g>
			<line class="st13" x1="1738.8" y1="-824.2" x2="1741.3" y2="-824.2"/>
			<line class="st14" x1="1746.2" y1="-824.2" x2="1931.5" y2="-824.2"/>
			<polyline class="st13" points="1934,-824.2 1936.5,-824.2 1936.5,-821.7 			"/>
			<line class="st0" x1="1936.5" y1="-816.8" x2="1936.5" y2="-693.8"/>
			<line class="st13" x1="1936.5" y1="-691.4" x2="1936.5" y2="-688.9"/>
		</g>
	</g>
</g>
<g>
	<path class="st7" d="M949.1-132.5H432.8c-11.6,0-21-9.4-21-21l0,0c0-11.6,9.4-21,21-21h516.4c11.6,0,21,9.4,21,21l0,0
		C970.1-141.9,960.7-132.5,949.1-132.5z"/>
	<text transform="matrix(1 0 0 1 446.8274 -149.398)" class="st4" style="font-family:'OpenSans'; font-size:14px;">Button Text</text>
	<text transform="matrix(1 0 0 1 584.1608 -149.398)" class="st4" style="font-family:'OpenSans'; font-size:14px;">Button Text</text>
	<text transform="matrix(1 0 0 1 721.4941 -149.398)" class="st4" style="font-family:'OpenSans'; font-size:14px;">Button Text</text>
	<text transform="matrix(1 0 0 1 858.8274 -149.398)" class="st4" style="font-family:'OpenSans'; font-size:14px;">Button Text</text>
</g>
<g>
	<g>
		<g>
			<line class="st13" x1="-180.6" y1="-69.8" x2="-180.6" y2="-72.3"/>
			<line class="st0" x1="-180.6" y1="-77.1" x2="-180.6" y2="-200.1"/>
			<line class="st13" x1="-180.6" y1="-202.5" x2="-180.6" y2="-205"/>
		</g>
	</g>
</g>
<rect x="552.3" y="-174.5" class="st15" width="141" height="42"/>
<rect x="174.3" y="74" class="st15" width="616.3" height="20.7"/>
<rect y="116" class="st16" width="172.3" height="4.7"/>
<rect y="159.1" class="st16" width="172.3" height="4.7"/>
<rect y="202.2" class="st16" width="172.3" height="4.7"/>
<rect y="245.3" class="st16" width="172.3" height="4.7"/>
<rect y="510.2" class="st16" width="172.3" height="38.8"/>
<rect x="174.3" y="523.7" class="st15" width="616.3" height="25.3"/>
<rect x="174.3" y="74" class="st15" width="20.7" height="616.3"/>
<rect x="759.3" y="74" class="st15" width="20.7" height="616.3"/>
<g>
	<g>
		<circle class="st7" cx="1536.3" cy="-331.1" r="31.9"/>
	</g>
</g>
<circle class="st4" cx="1536.3" cy="-331" r="16.4"/>
<polygon class="st4" points="1543.9,-321 1547.9,-323.6 1548.8,-317.9 1549.8,-312.1 1544.9,-315.3 1540,-318.4 "/>
<path class="st17" d="M1546.1-334.3h-20.4c-0.5,0-0.9-0.4-0.9-0.9l0,0c0-0.5,0.4-0.9,0.9-0.9h20.4c0.5,0,0.9,0.4,0.9,0.9l0,0
	C1547-334.7,1546.6-334.3,1546.1-334.3z"/>
<path class="st17" d="M1536-329.1h-10.4c-0.5,0-0.9-0.4-0.9-0.9l0,0c0-0.5,0.4-0.9,0.9-0.9h10.4c0.5,0,0.9,0.4,0.9,0.9l0,0
	C1536.9-329.5,1536.5-329.1,1536-329.1z"/>
<g>
	<path class="st18" d="M2104-148.5h-120.1c-11.6,0-21-9.4-21-21l0,0c0-11.6,9.4-21,21-21h120.2c11.6,0,21,9.4,21,21l0,0
		C2125-157.9,2115.6-148.5,2104-148.5z"/>
	<text transform="matrix(1 0 0 1 1993.7662 -165.3983)" style="fill:#B2B2B2; font-family:'OpenSans'; font-size:14px;">Import Content</text>
</g>
<rect x="1638.7" y="-357.7" class="st15" width="246.3" height="27.9"/>
<rect x="1638.7" y="-305.1" class="st15" width="246.3" height="27.8"/>
<rect x="1638.7" y="-357.8" class="st15" width="48.5" height="80.6"/>
<rect x="1836.6" y="-357.8" class="st15" width="48.5" height="80.5"/>
<text transform="matrix(1 0 0 1 1929.0898 -341.5496)" class="st19" style="font-family:'OpenSans'; font-size:13px;">1em</text>
<text transform="matrix(1 0 0 1 1929.0898 -285.5496)" style="fill:#E91E63; font-family:'OpenSans'; font-size:13px;">30px border radius</text>
<text transform="matrix(1 0 0 1 1644.0895 -399.5496)" class="st19" style="font-family:'OpenSans'; font-size:13px;">1.5em</text>
<g>
	<line class="st13" x1="1890" y1="-330.4" x2="1916.6" y2="-330.4"/>
	<line class="st13" x1="1890" y1="-357.3" x2="1916.6" y2="-357.3"/>
	<line class="st13" x1="1903.2" y1="-357.3" x2="1903.2" y2="-330.4"/>
</g>
<g>
	<line class="st13" x1="1688" y1="-362.5" x2="1688" y2="-389.1"/>
	<line class="st13" x1="1639.1" y1="-362.5" x2="1639.1" y2="-389.1"/>
	<line class="st13" x1="1639.1" y1="-375.7" x2="1688" y2="-375.7"/>
</g>
<path class="st19" d="M1836.6-277.3"/>
<path class="st20" d="M1885.2-277.3l-0.3-40.9l0,0c0,22.2-17.8,40.9-40,40.9H1885.2z"/>
<polygon class="st7" points="767.3,676.7 779.3,667 767.3,657.2 779.3,647.5 767.3,637.7 779.3,628 767.3,618.2 779.3,608.5 
	778.7,608 0,608 0,681.3 772.9,681.3 "/>
<polygon class="st21" points="779.3,1154.6 767.3,1144.9 779.3,1135.1 767.3,1125.4 779.3,1115.6 767.3,1105.8 779.3,1096.1 
	767.3,1086.3 779.3,1076.6 767.3,1066.8 779.3,1057.1 767.3,1047.3 779.3,1037.6 767.3,1027.8 779.3,1018.1 767.3,1008.3 
	779.3,998.6 767.3,988.8 779.3,979.1 767.3,969.3 779.3,959.5 767.3,949.8 779.3,940 767.3,930.3 779.3,920.5 767.3,910.8 
	779.3,901 767.3,891.3 779.3,881.5 767.3,871.8 779.3,862 767.3,852.3 779.3,842.5 767.3,832.8 779.3,823 767.3,813.3 779.3,803.5 
	767.3,793.7 779.3,784 767.3,774.2 779.3,764.5 767.3,754.7 779.3,745 767.3,735.2 779.3,725.5 767.3,715.7 779.3,706 767.3,696.2 
	779.3,686.5 772.9,681.3 0,681.3 0,1158.2 774.9,1158.2 "/>
<g>
	<circle class="st22" cx="46" cy="645.2" r="21.3"/>
	<polygon class="st4" points="39,648.5 46.6,636.8 37.4,636.8 36.6,638.4 43.7,638.4 36.1,650.1 46.6,650.1 47.3,648.5 	"/>
	<polygon class="st4" points="52.3,636.8 48.9,636.8 52.7,645.3 48.9,653.9 52.3,653.9 56.2,645.3 	"/>
</g>
<text transform="matrix(1 0 0 1 86.6668 -102.9671)" class="st4" style="font-family:'OpenSans'; font-size:20px;">Product Name</text>
<g>
	<polyline class="st23" points="908,-19 896,-9.3 908,0.5 896,10.2 908,20 896,29.7 908,39.5 896,49.2 908,59 896,68.7 908,78.5 
		896,88.2 908,98 896,107.7 908,117.5 896,127.2 908,137 896,146.7 908,156.5 896,166.2 908,176 896,185.7 908,195.5 896,205.3 
		908,215 896,224.8 908,234.5 896,244.3 908,254 896,263.8 908,273.5 896,283.3 908,293 896,302.8 908,312.5 896,322.3 908,332 
		896,341.8 908,351.5 896,361.3 908,371.1 896,380.8 908,390.6 896,400.3 908,410.1 896,419.8 908,429.6 896,439.3 908,449.1 
		896,458.8 908,468.6 896,478.3 908,488.1 896,497.8 908,507.6 896,517.4 908,527.1 896,536.9 908,546.6 896,556.4 908,566.1 
		896,575.9 908,585.7 	"/>
	<polyline class="st23" points="948.7,-19 908,-19 896,-9.3 908,0.5 896,10.2 908,20 896,29.7 908,39.5 896,49.2 908,59 896,68.7 
		908,78.5 896,88.2 908,98 896,107.7 908,117.5 896,127.2 908,137 896,146.7 908,156.5 896,166.2 908,176 896,185.7 908,195.5 
		896,205.3 908,215 896,224.8 908,234.5 896,244.3 908,254 896,263.8 908,273.5 896,283.3 908,293 896,302.8 908,312.5 896,322.3 
		908,332 896,341.8 908,351.5 896,361.3 908,371.1 896,380.8 908,390.6 896,400.3 908,410.1 896,419.8 908,429.6 896,439.3 
		908,449.1 896,458.8 908,468.6 896,478.3 908,488.1 896,497.8 908,507.6 896,517.4 908,527.1 896,536.9 908,546.6 896,556.4 
		908,566.1 896,575.9 908,585.7 950.7,585.7 950.7,-19 	"/>
</g>
<line class="st0" x1="173.3" y1="0" x2="173.3" y2="559"/>
<circle class="st0" cx="33.3" cy="33.7" r="18"/>
</svg>
