<svg xmlns="http://www.w3.org/2000/svg" xmlns:xlink="http://www.w3.org/1999/xlink" width="275" height="275" viewBox="0 0 275 275">
  <defs>
    <clipPath id="clip-file-selector--upload_drag-large">
      <rect width="275" height="275"/>
    </clipPath>
  </defs>
  <g id="file-selector--upload_drag-large" data-name="file-selector--upload+drag-large" clip-path="url(#clip-file-selector--upload_drag-large)">
    <rect width="275" height="275" fill="#fff"/>
    <g id="Input-_no_label" data-name="Input- no label">
      <g id="Rectangle_288" data-name="Rectangle 288" fill="#fff" stroke="#cbcbd2" stroke-width="1" stroke-dasharray="2 2">
        <rect width="275" height="275" stroke="none"/>
        <rect x="0.5" y="0.5" width="274" height="274" fill="none"/>
      </g>
    </g>
    <g id="Group_13275" data-name="Group 13275" transform="translate(21 116)">
      <text id="click_to_upload" data-name="click to upload" transform="translate(173 27)" fill="#4e92df" font-size="14" font-family="SegoeUI, Segoe UI"><tspan x="-45.203" y="0">click to upload</tspan></text>
      <text id="Drop_files_here_or_" data-name="Drop files here or " transform="translate(72 27)" fill="#78788c" font-size="14" font-family="SegoeUI, Segoe UI"><tspan x="-55.692" y="0">Drop files here or </tspan></text>
    </g>
    <g id="Upload" transform="translate(138 109)">
      <g id="Group_13271" data-name="Group 13271" transform="translate(-8 -8)">
        <g id="Group_13270" data-name="Group 13270">
          <path id="Path_8849" data-name="Path 8849" d="M1.1,4.9H2a.2.2,0,0,0,.2-.2V1.3H13.8V4.7a.2.2,0,0,0,.2.2h.9a.2.2,0,0,0,.2-.2V.7a.7.7,0,0,0-.7-.7H1.6A.7.7,0,0,0,.9.7v4A.2.2,0,0,0,1.1,4.9Z" fill="#4e92df"/>
          <path id="Path_8850" data-name="Path 8850" d="M8.2,4.1H7.8L4.3,7.8a.2.2,0,0,0,0,.3l.9,1h.3L7.1,7.5v8.3a.2.2,0,0,0,.2.2H8.7a.2.2,0,0,0,.2-.2V7.5l1.6,1.7h.3l.9-1a.2.2,0,0,0,0-.3Z" fill="#4e92df"/>
        </g>
        <rect id="Rectangle_6837" data-name="Rectangle 6837" width="16" height="16" fill="none"/>
      </g>
    </g>
  </g>
</svg>
