<svg xmlns="http://www.w3.org/2000/svg" xmlns:xlink="http://www.w3.org/1999/xlink" viewBox="-12774 -9032 750 275">
  <defs>
    <style>
      .cls-1 {
        clip-path: url(#clip-Inline_radial_button_states_-_White_BG_1);
      }

      .cls-2 {
        fill: #fff;
      }

      .cls-3 {
        fill: #fafafa;
      }

      .cls-4 {
        fill: #3d3d3d;
      }

      .cls-5 {
        fill: none;
      }

      .cls-6 {
        fill: #e8eef6;
      }

      .cls-7 {
        fill: #1a5598;
      }

      .cls-8 {
        fill: #b2b2b2;
      }

      .cls-10, .cls-11, .cls-9 {
        stroke: none;
      }

      .cls-10 {
        fill: #c6c6c6;
      }

      .cls-11 {
        fill: #1f5ea8;
      }
    </style>
    <clipPath id="clip-Inline_radial_button_states_-_White_BG_1">
      <rect x="-12774" y="-9032" width="750" height="275"/>
    </clipPath>
  </defs>
  <g id="Inline_radial_button_states_-_White_BG_1" data-name="Inline radial button states - White BG – 1" class="cls-1">
    <g id="Path_6217" data-name="Path 6217" class="cls-2" transform="translate(-12343 -8915)">
      <path class="cls-9" d="M 110 41.5 L 0.5 41.5 L 0.5 0.5 L 110 0.5 C 110.8271026611328 0.5 111.5 1.172899961471558 111.5 2 L 111.5 40 C 111.5 40.82709884643555 110.8271026611328 41.5 110 41.5 Z"/>
      <path class="cls-10" d="M 110 41 C 110.551399230957 41 111 40.55139923095703 111 40 L 111 2 C 111 1.448600053787231 110.551399230957 1 110 1 L 1 1 L 1 41 L 110 41 M 110 42 L 0 42 L 0 0 L 110 0 C 111.1045684814453 0 112 0.8954307436943054 112 2 L 112 40 C 112 41.10456848144531 111.1045684814453 42 110 42 Z"/>
    </g>
    <g id="Path_6213" data-name="Path 6213" class="cls-3" transform="translate(-12454 -8915)">
      <path class="cls-9" d="M 111.5 41.5 L 0.5 41.5 L 0.5 0.5 L 111.5 0.5 L 111.5 41.5 Z"/>
      <path class="cls-10" d="M 111 41 L 111 1 L 1 1 L 1 41 L 111 41 M 112 42 L 0 42 L 0 0 L 112 0 L 112 42 Z"/>
    </g>
    <path id="Path_6214" data-name="Path 6214" class="cls-4" d="M7.711-7.082A2.8,2.8,0,0,1,6.675-4.748a4.691,4.691,0,0,1-2.963.817H2.536V0H1.374V-9.994H3.965Q7.711-9.994,7.711-7.082ZM2.536-4.929H3.582a3.887,3.887,0,0,0,2.235-.5,1.839,1.839,0,0,0,.69-1.6A1.724,1.724,0,0,0,5.858-8.5a3.393,3.393,0,0,0-2.023-.485h-1.3ZM17.78-5.093a5.046,5.046,0,0,1-1.343,3.784A5.315,5.315,0,0,1,12.571,0H9.8V-9.994h3.063A4.9,4.9,0,0,1,16.488-8.7,4.879,4.879,0,0,1,17.78-5.093Zm-1.23.041A4.024,4.024,0,0,0,15.569-8a3.931,3.931,0,0,0-2.916-.991H10.965V-1H12.38A4.3,4.3,0,0,0,15.5-2.027,4.046,4.046,0,0,0,16.55-5.052ZM21.171,0H20.009V-9.994H25.58v1.032H21.171V-5.3h4.143v1.032H21.171Z" transform="translate(-12397 -8890)"/>
    <g id="Group_7738" data-name="Group 7738" transform="translate(-12420.869 -8906)">
      <rect id="Rectangle_4414" data-name="Rectangle 4414" class="cls-5" width="22.033" height="24"/>
      <path id="Path_6073" data-name="Path 6073" class="cls-4" d="M94.079,13.6c.184.2.275.4.367.5-.092,0-.092,0-.184.1a3.615,3.615,0,0,1-.551.2l-.275.1c-.459.2-.826.3-1.193.5.092-.1.092-.3.184-.4h0a.778.778,0,0,0,.184-.6c0-.2.184-.4.367-1.1a2.526,2.526,0,0,0,.184-.8A7.922,7.922,0,0,0,94.079,13.6Zm-1.193-4a3.093,3.093,0,0,0,0-1.3V8.2a.323.323,0,0,1-.092.2,1.84,1.84,0,0,0,0,1C92.885,9.4,92.885,9.5,92.885,9.6ZM97.934,7h2.754L96.1,2V5A1.929,1.929,0,0,0,97.934,7ZM89.672,17.6c-.184.4-.092.4-.092.5.092,0,.184.1.275,0a1.9,1.9,0,0,0,.367-.6c.092-.1.092-.3.184-.4,0,0,0-.1.092-.1C90.131,17.2,89.672,17.4,89.672,17.6Zm7.252-2.9a1.656,1.656,0,0,0-.643-.1H96.1c.367.3.459.4.643.4H97.2v-.2C97.2,14.9,97.108,14.8,96.925,14.7Zm3.764,5.3a1.929,1.929,0,0,1-1.836,2H87.836A1.929,1.929,0,0,1,86,20V4a1.929,1.929,0,0,1,1.836-2H95.18V5a2.833,2.833,0,0,0,2.754,3h2.754Zm-2.754-5.1a1.01,1.01,0,0,0-.918-1,2.914,2.914,0,0,0-.826-.1,1.656,1.656,0,0,0-.643.1h-.275a2.75,2.75,0,0,1-.551-.8c-.459-.7-.643-1.1-1.1-1.9-.092-.1-.092-.2-.184-.3,0-.2.092-.4.092-.7l.092-.3a4.053,4.053,0,0,0,.092-1.8c-.184-.7-.643-.9-.826-.9a.978.978,0,0,0-.826.8,2.768,2.768,0,0,0,0,1.5A8.136,8.136,0,0,0,92.61,11a7.544,7.544,0,0,1-.459,1.6,8.165,8.165,0,0,1-.367,1.2,2.7,2.7,0,0,0-.184.5h0c-.184.4-.367.9-.551,1.2a8.1,8.1,0,0,0-.826.5c-.734.5-1.193.8-1.377,1.3-.092.3-.367,1,.184,1.4a.952.952,0,0,0,.643.3.8.8,0,0,0,.643-.3,3.523,3.523,0,0,0,.551-.9c.092-.1.092-.2.184-.4.275-.7.551-1.1.551-1.2v-.1c.184-.1.275-.1.459-.2a10,10,0,0,1,1.561-.6l.275-.1c.184-.1.367-.1.551-.2s.367-.1.551-.2c.184.1.275.3.459.4a3.388,3.388,0,0,0,.918.6,2.294,2.294,0,0,0,.826,0A.8.8,0,0,0,97.934,14.9Z" transform="translate(-82.328)"/>
    </g>
    <g id="Path_6212" data-name="Path 6212" class="cls-6" transform="translate(-12566 -8915)">
      <path class="cls-9" d="M 112.5 41.5 L 2 41.5 C 1.172899961471558 41.5 0.5 40.82709884643555 0.5 40 L 0.5 2 C 0.5 1.172899961471558 1.172899961471558 0.5 2 0.5 L 112.5 0.5 L 112.5 41.5 Z"/>
      <path class="cls-11" d="M 112 41 L 112 1 L 2 1 C 1.448600053787231 1 1 1.448600053787231 1 2 L 1 40 C 1 40.55139923095703 1.448600053787231 41 2 41 L 112 41 M 113 42 L 2 42 C 0.8954307436943054 42 0 41.10456848144531 0 40 L 0 2 C 0 0.8954307436943054 0.8954307436943054 0 2 0 L 113 0 L 113 42 Z"/>
    </g>
    <path id="Path_6218" data-name="Path 6218" class="cls-4" d="M6.945,0H1.374V-9.994H6.945v1.032H2.536v3.22H6.679v1.025H2.536v3.678H6.945Zm3.849-3.835-2.6-3.657H9.481l1.976,2.871,1.969-2.871H14.7L12.1-3.835,14.841,0H13.556l-2.1-3.035L9.338,0H8.053ZM19.318.137a3.2,3.2,0,0,1-2.519-1A4.118,4.118,0,0,1,15.907-3.7,4.247,4.247,0,0,1,16.813-6.6a3.261,3.261,0,0,1,2.581-1.025,5.121,5.121,0,0,1,1.08.116,3.558,3.558,0,0,1,.848.273l-.349.964a5.336,5.336,0,0,0-.82-.25,3.663,3.663,0,0,0-.786-.1q-2.283,0-2.283,2.912a3.468,3.468,0,0,0,.557,2.119,1.938,1.938,0,0,0,1.651.738,5.048,5.048,0,0,0,1.921-.4v1A4.094,4.094,0,0,1,19.318.137Zm6.836,0A3.442,3.442,0,0,1,23.533-.875a3.917,3.917,0,0,1-.96-2.81,4.344,4.344,0,0,1,.892-2.878,2.963,2.963,0,0,1,2.4-1.066,2.825,2.825,0,0,1,2.229.926,3.55,3.55,0,0,1,.82,2.444v.718H23.748a2.97,2.97,0,0,0,.667,2A2.305,2.305,0,0,0,26.2-.854a6.035,6.035,0,0,0,2.393-.506V-.349A6.005,6.005,0,0,1,27.45.024,6.4,6.4,0,0,1,26.154.137Zm-.308-6.815a1.853,1.853,0,0,0-1.439.588,2.71,2.71,0,0,0-.632,1.627h3.917a2.5,2.5,0,0,0-.479-1.644A1.684,1.684,0,0,0,25.847-6.679ZM31.979,0H30.844V-10.637h1.135Z" transform="translate(-12291 -8888)"/>
    <g id="Group_7743" data-name="Group 7743" transform="translate(-12983 -9876)">
      <rect id="Rectangle_4412" data-name="Rectangle 4412" class="cls-5" width="24" height="24" transform="translate(666 970)"/>
      <path id="Path_6071" data-name="Path 6071" class="cls-4" d="M15,5V2l5,5H17A2.006,2.006,0,0,1,15,5Zm5,15a2.006,2.006,0,0,1-2,2H6a2.006,2.006,0,0,1-2-2V4A2.006,2.006,0,0,1,6,2h8V5a2.946,2.946,0,0,0,3,3h3Zm-4.6-1.7-2.4-4,2.3-3.9H13.4L12,13.1l-1.5-2.7H8.7L11,14.3,8.7,18.2h1.9l1.5-2.7,1.5,2.7h1.8Z" transform="translate(666 970)"/>
    </g>
    <path id="Path_6215" data-name="Path 6215" class="cls-4" d="M10.541,0H8.764l-1.7-5.961q-.109-.39-.273-1.125T6.6-8.107q-.068.438-.222,1.135T6.118-5.934L4.464,0H2.687L1.395-5,.082-9.994H1.75L3.179-4.17A25.171,25.171,0,0,1,3.657-1.7q.075-.581.226-1.3t.273-1.162L5.783-9.994H7.4L9.071-4.129A21.927,21.927,0,0,1,9.577-1.7a17.841,17.841,0,0,1,.492-2.488l1.422-5.811h1.654ZM21.1-3.794A4.127,4.127,0,0,1,20.146-.9,3.4,3.4,0,0,1,17.5.137a3.625,3.625,0,0,1-1.873-.479,3.159,3.159,0,0,1-1.251-1.374,4.68,4.68,0,0,1-.437-2.078,4.1,4.1,0,0,1,.943-2.871A3.42,3.42,0,0,1,17.541-7.7a3.331,3.331,0,0,1,2.6,1.056A4.08,4.08,0,0,1,21.1-3.794Zm-5.5,0q0,2.618,1.935,2.618,1.914,0,1.914-2.618,0-2.591-1.928-2.591a1.644,1.644,0,0,0-1.466.67A3.409,3.409,0,0,0,15.593-3.794ZM26.776-7.7a3.867,3.867,0,0,1,.8.068l-.157,1.5a3.036,3.036,0,0,0-.711-.082,2.057,2.057,0,0,0-1.562.629,2.273,2.273,0,0,0-.6,1.634V0H22.941V-7.561H24.2l.212,1.333h.082A3,3,0,0,1,25.474-7.3,2.332,2.332,0,0,1,26.776-7.7ZM31.527.137A2.633,2.633,0,0,1,29.319-.889a4.609,4.609,0,0,1-.793-2.878,4.624,4.624,0,0,1,.8-2.9A2.658,2.658,0,0,1,31.555-7.7a2.606,2.606,0,0,1,2.27,1.1h.082a9.63,9.63,0,0,1-.116-1.285v-2.755H35.4V0H34.146l-.28-.991H33.79A2.568,2.568,0,0,1,31.527.137Zm.431-1.3A1.748,1.748,0,0,0,33.4-1.719a2.933,2.933,0,0,0,.465-1.808v-.226a3.389,3.389,0,0,0-.465-2.03,1.724,1.724,0,0,0-1.456-.6,1.477,1.477,0,0,0-1.306.687,3.521,3.521,0,0,0-.458,1.958,3.433,3.433,0,0,0,.444,1.917A1.5,1.5,0,0,0,31.958-1.162Z" transform="translate(-12515 -8888)"/>
    <path id="Path_6216" data-name="Path 6216" class="cls-5" d="M0,0H24V24H0Z" transform="translate(-12541 -8906)"/>
    <path id="Path_6072" data-name="Path 6072" class="cls-7" d="M61,8H58a3.009,3.009,0,0,1-3-3V2H47a2.006,2.006,0,0,0-2,2V20a2.006,2.006,0,0,0,2,2H59a2.006,2.006,0,0,0,2-2ZM55.9,18.3H54.3L53,13l-1.3,5.2H50.1l-1.7-7.8H50L51,16l1.3-5.6h1.4L55,16l1.1-5.6h1.6ZM56,5V2l5,5H58A2.006,2.006,0,0,1,56,5Z" transform="translate(-12582 -8906)"/>
    <path id="flat_light" class="cls-8" d="M-17.549-2.279a2.1,2.1,0,0,1-.82,1.764A3.557,3.557,0,0,1-20.6.117a5.577,5.577,0,0,1-2.344-.393v-.961a6.171,6.171,0,0,0,1.148.352,6.042,6.042,0,0,0,1.23.129,2.483,2.483,0,0,0,1.5-.378,1.24,1.24,0,0,0,.5-1.052,1.35,1.35,0,0,0-.179-.729,1.66,1.66,0,0,0-.6-.524,8.361,8.361,0,0,0-1.274-.545A4.068,4.068,0,0,1-22.315-5a2.238,2.238,0,0,1-.513-1.529A1.9,1.9,0,0,1-22.084-8.1a3.092,3.092,0,0,1,1.969-.586,5.8,5.8,0,0,1,2.35.469l-.311.867A5.31,5.31,0,0,0-20.139-7.8a2,2,0,0,0-1.236.34,1.12,1.12,0,0,0-.445.943,1.446,1.446,0,0,0,.164.729,1.545,1.545,0,0,0,.554.521,6.88,6.88,0,0,0,1.192.524,4.721,4.721,0,0,1,1.854,1.031A2.028,2.028,0,0,1-17.549-2.279Zm4.318,2.4A2.95,2.95,0,0,1-15.478-.75,3.357,3.357,0,0,1-16.3-3.158a3.723,3.723,0,0,1,.765-2.467,2.54,2.54,0,0,1,2.054-.914,2.422,2.422,0,0,1,1.91.794,3.043,3.043,0,0,1,.7,2.095v.615h-4.424a2.546,2.546,0,0,0,.571,1.717A1.976,1.976,0,0,0-13.2-.732a5.172,5.172,0,0,0,2.051-.434V-.3a5.147,5.147,0,0,1-.976.319A5.483,5.483,0,0,1-13.23.117Zm-.264-5.842a1.588,1.588,0,0,0-1.233.5,2.323,2.323,0,0,0-.542,1.395h3.357a2.139,2.139,0,0,0-.41-1.409A1.444,1.444,0,0,0-13.494-5.725ZM-8.238,0h-.973V-9.117h.973Zm4.775.117A2.95,2.95,0,0,1-5.71-.75a3.357,3.357,0,0,1-.823-2.408,3.723,3.723,0,0,1,.765-2.467,2.54,2.54,0,0,1,2.054-.914,2.422,2.422,0,0,1,1.91.794A3.043,3.043,0,0,1-1.1-3.65v.615H-5.525a2.546,2.546,0,0,0,.571,1.717,1.976,1.976,0,0,0,1.526.586,5.172,5.172,0,0,0,2.051-.434V-.3a5.147,5.147,0,0,1-.976.319A5.483,5.483,0,0,1-3.463.117Zm-.264-5.842a1.588,1.588,0,0,0-1.233.5A2.323,2.323,0,0,0-5.5-3.826h3.357a2.139,2.139,0,0,0-.41-1.409A1.444,1.444,0,0,0-3.727-5.725ZM3.123.117A2.741,2.741,0,0,1,.964-.741,3.53,3.53,0,0,1,.2-3.17,3.64,3.64,0,0,1,.976-5.66a2.8,2.8,0,0,1,2.212-.879,4.389,4.389,0,0,1,.926.1,3.05,3.05,0,0,1,.727.234l-.3.826a4.574,4.574,0,0,0-.7-.214,3.139,3.139,0,0,0-.674-.085q-1.957,0-1.957,2.5a2.972,2.972,0,0,0,.478,1.816A1.661,1.661,0,0,0,3.1-.732a4.326,4.326,0,0,0,1.646-.346v.861A3.509,3.509,0,0,1,3.123.117Zm5.221-.8a3.177,3.177,0,0,0,.5-.038A3.224,3.224,0,0,0,9.223-.8v.744a1.778,1.778,0,0,1-.466.126A3.5,3.5,0,0,1,8.2.117Q6.34.117,6.34-1.846v-3.82H5.42v-.469l.92-.4L6.75-7.91h.563v1.488H9.176v.756H7.313v3.779A1.3,1.3,0,0,0,7.588-1,.958.958,0,0,0,8.344-.686Zm4.875.8A2.95,2.95,0,0,1,10.972-.75a3.357,3.357,0,0,1-.823-2.408,3.723,3.723,0,0,1,.765-2.467,2.54,2.54,0,0,1,2.054-.914,2.422,2.422,0,0,1,1.91.794,3.043,3.043,0,0,1,.7,2.095v.615H11.156a2.546,2.546,0,0,0,.571,1.717,1.976,1.976,0,0,0,1.526.586A5.172,5.172,0,0,0,15.3-1.166V-.3a5.147,5.147,0,0,1-.976.319A5.483,5.483,0,0,1,13.219.117Zm-.264-5.842a1.588,1.588,0,0,0-1.233.5,2.323,2.323,0,0,0-.542,1.395h3.357a2.139,2.139,0,0,0-.41-1.409A1.444,1.444,0,0,0,12.955-5.725ZM21.609-.861h-.053a2.285,2.285,0,0,1-2.016.979,2.384,2.384,0,0,1-1.96-.861,3.791,3.791,0,0,1-.7-2.449,3.855,3.855,0,0,1,.7-2.467,2.366,2.366,0,0,1,1.957-.879,2.335,2.335,0,0,1,2,.949h.076l-.041-.463L21.557-6.5V-9.117h.973V0h-.791ZM19.664-.7a1.771,1.771,0,0,0,1.444-.542,2.739,2.739,0,0,0,.448-1.749v-.205A3.222,3.222,0,0,0,21.1-5.142a1.724,1.724,0,0,0-1.45-.583,1.489,1.489,0,0,0-1.31.665,3.307,3.307,0,0,0-.454,1.878,3.17,3.17,0,0,0,.451,1.857A1.528,1.528,0,0,0,19.664-.7Z" transform="translate(-12509 -8949)"/>
    <path id="flat_light-2" data-name="flat_light" class="cls-8" d="M-9.19,0h-1V-4.031H-14.7V0h-1V-8.566h1v3.645h4.512V-8.566h1Zm7.746-3.217A3.543,3.543,0,0,1-2.235-.765,2.786,2.786,0,0,1-4.421.117a2.9,2.9,0,0,1-1.529-.4,2.668,2.668,0,0,1-1.031-1.16,4.043,4.043,0,0,1-.363-1.77A3.537,3.537,0,0,1-6.56-5.663a2.777,2.777,0,0,1,2.18-.876,2.717,2.717,0,0,1,2.142.9A3.527,3.527,0,0,1-1.444-3.217Zm-4.893,0a3.048,3.048,0,0,0,.492,1.875A1.708,1.708,0,0,0-4.4-.7a1.72,1.72,0,0,0,1.45-.642,3.033,3.033,0,0,0,.5-1.878,2.984,2.984,0,0,0-.5-1.86,1.74,1.74,0,0,0-1.462-.636,1.712,1.712,0,0,0-1.441.627A3.017,3.017,0,0,0-6.337-3.217ZM1.667,0-.771-6.422H.272L1.655-2.613A18.027,18.027,0,0,1,2.206-.879h.047A13.1,13.1,0,0,1,2.66-2.165Q3-3.141,4.2-6.422H5.241L2.8,0ZM8.985.117A2.95,2.95,0,0,1,6.738-.75a3.357,3.357,0,0,1-.823-2.408A3.723,3.723,0,0,1,6.68-5.625a2.54,2.54,0,0,1,2.054-.914,2.422,2.422,0,0,1,1.91.794,3.043,3.043,0,0,1,.7,2.095v.615H6.923a2.546,2.546,0,0,0,.571,1.717,1.976,1.976,0,0,0,1.526.586,5.172,5.172,0,0,0,2.051-.434V-.3A5.147,5.147,0,0,1,10.1.021,5.483,5.483,0,0,1,8.985.117ZM8.722-5.725a1.588,1.588,0,0,0-1.233.5,2.323,2.323,0,0,0-.542,1.395H10.3a2.139,2.139,0,0,0-.41-1.409A1.444,1.444,0,0,0,8.722-5.725Zm7.213-.814a3.806,3.806,0,0,1,.768.07l-.135.9a3.313,3.313,0,0,0-.7-.088,1.712,1.712,0,0,0-1.333.633,2.307,2.307,0,0,0-.554,1.576V0H13V-6.422h.8l.111,1.189h.047a2.823,2.823,0,0,1,.861-.967A1.939,1.939,0,0,1,15.935-6.539Z" transform="translate(-12399 -8949)"/>
    <path id="flat_light-3" data-name="flat_light" class="cls-8" d="M-23.534-8.566v5.543a3.019,3.019,0,0,1-.885,2.3,3.393,3.393,0,0,1-2.432.838,3.244,3.244,0,0,1-2.394-.844,3.129,3.129,0,0,1-.847-2.32v-5.52h1v5.59a2.2,2.2,0,0,0,.586,1.646,2.364,2.364,0,0,0,1.723.574,2.28,2.28,0,0,0,1.67-.577,2.22,2.22,0,0,0,.586-1.655V-8.566ZM-17.019,0V-4.154a1.676,1.676,0,0,0-.357-1.172A1.456,1.456,0,0,0-18.5-5.713a1.846,1.846,0,0,0-1.477.545,2.751,2.751,0,0,0-.469,1.8V0h-.973V-6.422h.791l.158.879h.047a1.986,1.986,0,0,1,.838-.735,2.722,2.722,0,0,1,1.2-.261,2.439,2.439,0,0,1,1.746.56,2.381,2.381,0,0,1,.586,1.79V0Zm7.113-1.752a1.609,1.609,0,0,1-.668,1.383,3.14,3.14,0,0,1-1.875.486,4.077,4.077,0,0,1-1.992-.4v-.9a4.818,4.818,0,0,0,.993.369,4.147,4.147,0,0,0,1.022.135,2.319,2.319,0,0,0,1.172-.243.8.8,0,0,0,.41-.741.8.8,0,0,0-.325-.642,5.115,5.115,0,0,0-1.269-.63,6.879,6.879,0,0,1-1.274-.583,1.741,1.741,0,0,1-.562-.565,1.475,1.475,0,0,1-.185-.756,1.441,1.441,0,0,1,.639-1.239,2.976,2.976,0,0,1,1.752-.454,5.126,5.126,0,0,1,2.027.422l-.346.791a4.654,4.654,0,0,0-1.752-.4,2.016,2.016,0,0,0-1.043.217.67.67,0,0,0-.352.6.728.728,0,0,0,.132.439,1.3,1.3,0,0,0,.425.346,9.493,9.493,0,0,0,1.125.475,4.2,4.2,0,0,1,1.544.838A1.478,1.478,0,0,1-9.905-1.752ZM-5.61.117A2.95,2.95,0,0,1-7.857-.75a3.357,3.357,0,0,1-.823-2.408,3.723,3.723,0,0,1,.765-2.467,2.54,2.54,0,0,1,2.054-.914,2.422,2.422,0,0,1,1.91.794,3.043,3.043,0,0,1,.7,2.095v.615H-7.673A2.546,2.546,0,0,0-7.1-1.318a1.976,1.976,0,0,0,1.526.586,5.172,5.172,0,0,0,2.051-.434V-.3A5.147,5.147,0,0,1-4.5.021,5.483,5.483,0,0,1-5.61.117Zm-.264-5.842a1.588,1.588,0,0,0-1.233.5,2.323,2.323,0,0,0-.542,1.395h3.357A2.139,2.139,0,0,0-4.7-5.235,1.444,1.444,0,0,0-5.874-5.725ZM-.618,0h-.973V-9.117h.973ZM4.157.117A2.95,2.95,0,0,1,1.91-.75a3.357,3.357,0,0,1-.823-2.408,3.723,3.723,0,0,1,.765-2.467,2.54,2.54,0,0,1,2.054-.914,2.422,2.422,0,0,1,1.91.794,3.043,3.043,0,0,1,.7,2.095v.615H2.095a2.546,2.546,0,0,0,.571,1.717,1.976,1.976,0,0,0,1.526.586,5.172,5.172,0,0,0,2.051-.434V-.3a5.147,5.147,0,0,1-.976.319A5.483,5.483,0,0,1,4.157.117ZM3.894-5.725a1.588,1.588,0,0,0-1.233.5,2.323,2.323,0,0,0-.542,1.395H5.476a2.139,2.139,0,0,0-.41-1.409A1.444,1.444,0,0,0,3.894-5.725ZM10.743.117A2.741,2.741,0,0,1,8.584-.741,3.53,3.53,0,0,1,7.819-3.17,3.64,3.64,0,0,1,8.6-5.66a2.8,2.8,0,0,1,2.212-.879,4.389,4.389,0,0,1,.926.1,3.05,3.05,0,0,1,.727.234l-.3.826a4.574,4.574,0,0,0-.7-.214,3.139,3.139,0,0,0-.674-.085q-1.957,0-1.957,2.5A2.972,2.972,0,0,0,9.3-1.365a1.661,1.661,0,0,0,1.415.633,4.326,4.326,0,0,0,1.646-.346v.861A3.509,3.509,0,0,1,10.743.117Zm5.221-.8a3.177,3.177,0,0,0,.5-.038A3.224,3.224,0,0,0,16.843-.8v.744a1.778,1.778,0,0,1-.466.126,3.5,3.5,0,0,1-.554.05q-1.863,0-1.863-1.963v-3.82h-.92v-.469l.92-.4.41-1.371h.563v1.488H16.8v.756H14.933v3.779A1.3,1.3,0,0,0,15.208-1,.958.958,0,0,0,15.964-.686Zm4.875.8A2.95,2.95,0,0,1,18.592-.75a3.357,3.357,0,0,1-.823-2.408,3.723,3.723,0,0,1,.765-2.467,2.54,2.54,0,0,1,2.054-.914,2.422,2.422,0,0,1,1.91.794,3.043,3.043,0,0,1,.7,2.095v.615H18.776a2.546,2.546,0,0,0,.571,1.717,1.976,1.976,0,0,0,1.526.586,5.172,5.172,0,0,0,2.051-.434V-.3a5.147,5.147,0,0,1-.976.319A5.483,5.483,0,0,1,20.839.117Zm-.264-5.842a1.588,1.588,0,0,0-1.233.5A2.323,2.323,0,0,0,18.8-3.826h3.357a2.139,2.139,0,0,0-.41-1.409A1.444,1.444,0,0,0,20.575-5.725ZM29.229-.861h-.053a2.285,2.285,0,0,1-2.016.979A2.384,2.384,0,0,1,25.2-.744a3.791,3.791,0,0,1-.7-2.449,3.855,3.855,0,0,1,.7-2.467,2.366,2.366,0,0,1,1.957-.879,2.335,2.335,0,0,1,2,.949h.076L29.2-6.053,29.177-6.5V-9.117h.973V0h-.791ZM27.284-.7a1.771,1.771,0,0,0,1.444-.542,2.739,2.739,0,0,0,.448-1.749v-.205a3.222,3.222,0,0,0-.454-1.948,1.724,1.724,0,0,0-1.45-.583,1.489,1.489,0,0,0-1.31.665,3.307,3.307,0,0,0-.454,1.878,3.17,3.17,0,0,0,.451,1.857A1.528,1.528,0,0,0,27.284-.7Z" transform="translate(-12287 -8949)"/>
  </g>
</svg>
