<svg xmlns="http://www.w3.org/2000/svg" xmlns:xlink="http://www.w3.org/1999/xlink" viewBox="-12774 -10104 346 300">
  <defs>
    <style>
      .cls-1 {
        clip-path: url(#clip-Standard_Radio_-_States_1);
      }

      .cls-2 {
        fill: #999;
      }

      .cls-3 {
        fill: #7a7a7a;
      }

      .cls-4 {
        fill: #dbdbdb;
      }

      .cls-5 {
        fill: #1f5ea8;
      }

      .cls-6 {
        fill: #5786bd;
      }

      .cls-7 {
        fill: #c6c6c6;
      }

      .cls-8 {
        fill: #b2b2b2;
      }
    </style>
    <clipPath id="clip-Standard_Radio_-_States_1">
      <rect x="-12774" y="-10104" width="346" height="300"/>
    </clipPath>
  </defs>
  <g id="Standard_Radio_-_States_1" data-name="Standard Radio - States – 1" class="cls-1">
    <path id="Path_6263" data-name="Path 6263" class="cls-2" d="M10,42.8a8,8,0,1,1-8,8,8.024,8.024,0,0,1,8-8m0-2a10,10,0,1,0,10,10,10.029,10.029,0,0,0-10-10Z" transform="translate(-12641 -9955.8)"/>
    <path id="Path_6264" data-name="Path 6264" class="cls-3" d="M10,42.8a8,8,0,1,1-8,8,8.024,8.024,0,0,1,8-8m0-2a10,10,0,1,0,10,10,10.029,10.029,0,0,0-10-10Z" transform="translate(-12575 -9955.8)"/>
    <path id="Path_6265" data-name="Path 6265" class="cls-4" d="M10,42.8a8,8,0,1,1-8,8,8.024,8.024,0,0,1,8-8m0-2a10,10,0,1,0,10,10,10.029,10.029,0,0,0-10-10Z" transform="translate(-12509 -9955.8)"/>
    <path id="Path_6266" data-name="Path 6266" class="cls-5" d="M35,42.8a8,8,0,1,1-8,8,8.024,8.024,0,0,1,8-8m0-2a10,10,0,1,0,10,10,10.029,10.029,0,0,0-10-10Zm6,10a6,6,0,1,0-6,6A6.018,6.018,0,0,0,41,50.8Z" transform="translate(-12666 -10014.8)"/>
    <path id="Path_6267" data-name="Path 6267" class="cls-6" d="M35,42.8a8,8,0,1,1-8,8,8.024,8.024,0,0,1,8-8m0-2a10,10,0,1,0,10,10,10.029,10.029,0,0,0-10-10Zm6,10a6,6,0,1,0-6,6A6.018,6.018,0,0,0,41,50.8Z" transform="translate(-12600 -10014.8)"/>
    <path id="Path_6268" data-name="Path 6268" class="cls-7" d="M35,42.8a8,8,0,1,1-8,8,8.024,8.024,0,0,1,8-8m0-2a10,10,0,1,0,10,10,10.029,10.029,0,0,0-10-10Zm6,10a6,6,0,1,0-6,6A6.018,6.018,0,0,0,41,50.8Z" transform="translate(-12534 -10014.8)"/>
    <path id="flat_light" class="cls-8" d="M-10.1,0l-1.066-2.725H-14.6L-15.653,0h-1.008l3.387-8.6h.838L-9.067,0Zm-1.377-3.621-1-2.654q-.193-.5-.4-1.236a11.1,11.1,0,0,1-.369,1.236l-1.008,2.654ZM-5.47.117A2.741,2.741,0,0,1-7.629-.741,3.53,3.53,0,0,1-8.394-3.17a3.64,3.64,0,0,1,.776-2.49,2.8,2.8,0,0,1,2.212-.879,4.389,4.389,0,0,1,.926.1,3.05,3.05,0,0,1,.727.234l-.3.826a4.574,4.574,0,0,0-.7-.214,3.139,3.139,0,0,0-.674-.085q-1.957,0-1.957,2.5a2.972,2.972,0,0,0,.478,1.816,1.661,1.661,0,0,0,1.415.633,4.326,4.326,0,0,0,1.646-.346v.861A3.509,3.509,0,0,1-5.47.117Zm5.221-.8a3.177,3.177,0,0,0,.5-.038A3.224,3.224,0,0,0,.63-.8v.744A1.778,1.778,0,0,1,.164.067,3.5,3.5,0,0,1-.39.117q-1.863,0-1.863-1.963v-3.82h-.92v-.469l.92-.4.41-1.371h.563v1.488H.583v.756H-1.28v3.779A1.3,1.3,0,0,0-1-1,.958.958,0,0,0-.249-.686ZM2.886,0H1.913V-6.422h.973ZM1.831-8.162A.646.646,0,0,1,2-8.651a.573.573,0,0,1,.41-.155.573.573,0,0,1,.4.158.634.634,0,0,1,.17.486.644.644,0,0,1-.17.489.567.567,0,0,1-.4.161A.562.562,0,0,1,2-7.673.658.658,0,0,1,1.831-8.162ZM6.354,0,3.917-6.422H4.96L6.343-2.613A18.027,18.027,0,0,1,6.894-.879H6.94a13.1,13.1,0,0,1,.407-1.286q.343-.976,1.538-4.257H9.929L7.491,0Zm7.318.117A2.95,2.95,0,0,1,11.426-.75,3.357,3.357,0,0,1,10.6-3.158a3.723,3.723,0,0,1,.765-2.467,2.54,2.54,0,0,1,2.054-.914,2.422,2.422,0,0,1,1.91.794,3.043,3.043,0,0,1,.7,2.095v.615H11.61a2.546,2.546,0,0,0,.571,1.717,1.976,1.976,0,0,0,1.526.586,5.172,5.172,0,0,0,2.051-.434V-.3a5.147,5.147,0,0,1-.976.319A5.483,5.483,0,0,1,13.673.117Zm-.264-5.842a1.588,1.588,0,0,0-1.233.5,2.323,2.323,0,0,0-.542,1.395h3.357a2.139,2.139,0,0,0-.41-1.409A1.444,1.444,0,0,0,13.409-5.725Z" transform="translate(-12631 -10018)"/>
    <path id="flat_light-2" data-name="flat_light" class="cls-8" d="M-9.19,0h-1V-4.031H-14.7V0h-1V-8.566h1v3.645h4.512V-8.566h1Zm7.746-3.217A3.543,3.543,0,0,1-2.235-.765,2.786,2.786,0,0,1-4.421.117a2.9,2.9,0,0,1-1.529-.4,2.668,2.668,0,0,1-1.031-1.16,4.043,4.043,0,0,1-.363-1.77A3.537,3.537,0,0,1-6.56-5.663a2.777,2.777,0,0,1,2.18-.876,2.717,2.717,0,0,1,2.142.9A3.527,3.527,0,0,1-1.444-3.217Zm-4.893,0a3.048,3.048,0,0,0,.492,1.875A1.708,1.708,0,0,0-4.4-.7a1.72,1.72,0,0,0,1.45-.642,3.033,3.033,0,0,0,.5-1.878,2.984,2.984,0,0,0-.5-1.86,1.74,1.74,0,0,0-1.462-.636,1.712,1.712,0,0,0-1.441.627A3.017,3.017,0,0,0-6.337-3.217ZM1.667,0-.771-6.422H.272L1.655-2.613A18.027,18.027,0,0,1,2.206-.879h.047A13.1,13.1,0,0,1,2.66-2.165Q3-3.141,4.2-6.422H5.241L2.8,0ZM8.985.117A2.95,2.95,0,0,1,6.738-.75a3.357,3.357,0,0,1-.823-2.408A3.723,3.723,0,0,1,6.68-5.625a2.54,2.54,0,0,1,2.054-.914,2.422,2.422,0,0,1,1.91.794,3.043,3.043,0,0,1,.7,2.095v.615H6.923a2.546,2.546,0,0,0,.571,1.717,1.976,1.976,0,0,0,1.526.586,5.172,5.172,0,0,0,2.051-.434V-.3A5.147,5.147,0,0,1,10.1.021,5.483,5.483,0,0,1,8.985.117ZM8.722-5.725a1.588,1.588,0,0,0-1.233.5,2.323,2.323,0,0,0-.542,1.395H10.3a2.139,2.139,0,0,0-.41-1.409A1.444,1.444,0,0,0,8.722-5.725Zm7.213-.814a3.806,3.806,0,0,1,.768.07l-.135.9a3.313,3.313,0,0,0-.7-.088,1.712,1.712,0,0,0-1.333.633,2.307,2.307,0,0,0-.554,1.576V0H13V-6.422h.8l.111,1.189h.047a2.823,2.823,0,0,1,.861-.967A1.939,1.939,0,0,1,15.935-6.539Z" transform="translate(-12565 -10018)"/>
    <path id="flat_light-3" data-name="flat_light" class="cls-8" d="M-16.312-4.365a4.325,4.325,0,0,1-1.151,3.243A4.555,4.555,0,0,1-20.777,0H-23.15V-8.566h2.625A4.2,4.2,0,0,1-17.42-7.459,4.182,4.182,0,0,1-16.312-4.365Zm-1.055.035a3.449,3.449,0,0,0-.841-2.525,3.37,3.37,0,0,0-2.5-.85h-1.447V-.861h1.213a3.688,3.688,0,0,0,2.678-.876A3.468,3.468,0,0,0-17.367-4.33ZM-13.576,0h-.973V-6.422h.973Zm-1.055-8.162a.646.646,0,0,1,.164-.489.573.573,0,0,1,.41-.155.573.573,0,0,1,.4.158.634.634,0,0,1,.17.486.644.644,0,0,1-.17.489.567.567,0,0,1-.4.161.562.562,0,0,1-.41-.161A.658.658,0,0,1-14.631-8.162Zm7.26,6.41A1.609,1.609,0,0,1-8.039-.369,3.14,3.14,0,0,1-9.914.117a4.077,4.077,0,0,1-1.992-.4v-.9a4.818,4.818,0,0,0,.993.369,4.147,4.147,0,0,0,1.022.135A2.319,2.319,0,0,0-8.719-.929a.8.8,0,0,0,.41-.741.8.8,0,0,0-.325-.642A5.115,5.115,0,0,0-9.9-2.941a6.879,6.879,0,0,1-1.274-.583,1.741,1.741,0,0,1-.562-.565,1.475,1.475,0,0,1-.185-.756,1.441,1.441,0,0,1,.639-1.239,2.976,2.976,0,0,1,1.752-.454,5.126,5.126,0,0,1,2.027.422l-.346.791a4.654,4.654,0,0,0-1.752-.4,2.016,2.016,0,0,0-1.043.217.67.67,0,0,0-.352.6.728.728,0,0,0,.132.439,1.3,1.3,0,0,0,.425.346,9.493,9.493,0,0,0,1.125.475,4.2,4.2,0,0,1,1.544.838A1.478,1.478,0,0,1-7.371-1.752ZM-1.84,0l-.193-.914H-2.08A2.7,2.7,0,0,1-3.038-.1,2.92,2.92,0,0,1-4.23.117a2.145,2.145,0,0,1-1.5-.492,1.8,1.8,0,0,1-.542-1.4q0-1.945,3.111-2.039l1.09-.035v-.4a1.628,1.628,0,0,0-.325-1.116,1.337,1.337,0,0,0-1.04-.36,4.238,4.238,0,0,0-1.816.492l-.3-.744a4.571,4.571,0,0,1,1.04-.4,4.5,4.5,0,0,1,1.134-.146,2.446,2.446,0,0,1,1.7.51,2.128,2.128,0,0,1,.554,1.635V0Zm-2.2-.686a1.974,1.974,0,0,0,1.427-.5,1.842,1.842,0,0,0,.519-1.395v-.58l-.973.041a3.538,3.538,0,0,0-1.673.36,1.087,1.087,0,0,0-.513.993,1,1,0,0,0,.319.8A1.326,1.326,0,0,0-4.037-.686Zm7.91-5.842a2.387,2.387,0,0,1,1.966.864,3.793,3.793,0,0,1,.7,2.446A3.821,3.821,0,0,1,5.833-.759a2.378,2.378,0,0,1-1.96.876A2.779,2.779,0,0,1,2.728-.114a2.154,2.154,0,0,1-.87-.712h-.07L1.582,0h-.7V-9.117h.973V-6.9q0,.744-.047,1.336h.047A2.309,2.309,0,0,1,3.873-6.527Zm-.141.814A1.7,1.7,0,0,0,2.3-5.142a3.223,3.223,0,0,0-.439,1.925A3.214,3.214,0,0,0,2.309-1.28,1.716,1.716,0,0,0,3.756-.7a1.5,1.5,0,0,0,1.336-.653,3.358,3.358,0,0,0,.439-1.878A3.227,3.227,0,0,0,5.092-5.1,1.557,1.557,0,0,0,3.732-5.713ZM9.211,0H8.238V-9.117h.973Zm4.775.117A2.95,2.95,0,0,1,11.739-.75a3.357,3.357,0,0,1-.823-2.408,3.723,3.723,0,0,1,.765-2.467,2.54,2.54,0,0,1,2.054-.914,2.422,2.422,0,0,1,1.91.794,3.043,3.043,0,0,1,.7,2.095v.615H11.924A2.546,2.546,0,0,0,12.5-1.318a1.976,1.976,0,0,0,1.526.586,5.172,5.172,0,0,0,2.051-.434V-.3A5.147,5.147,0,0,1,15.1.021,5.483,5.483,0,0,1,13.986.117Zm-.264-5.842a1.588,1.588,0,0,0-1.233.5,2.323,2.323,0,0,0-.542,1.395H15.3a2.139,2.139,0,0,0-.41-1.409A1.444,1.444,0,0,0,13.723-5.725ZM22.377-.861h-.053a2.285,2.285,0,0,1-2.016.979,2.384,2.384,0,0,1-1.96-.861,3.791,3.791,0,0,1-.7-2.449,3.855,3.855,0,0,1,.7-2.467,2.366,2.366,0,0,1,1.957-.879,2.335,2.335,0,0,1,2,.949h.076l-.041-.463L22.324-6.5V-9.117H23.3V0h-.791ZM20.432-.7a1.771,1.771,0,0,0,1.444-.542,2.739,2.739,0,0,0,.448-1.749v-.205a3.222,3.222,0,0,0-.454-1.948,1.724,1.724,0,0,0-1.45-.583,1.489,1.489,0,0,0-1.31.665,3.307,3.307,0,0,0-.454,1.878,3.17,3.17,0,0,0,.451,1.857A1.528,1.528,0,0,0,20.432-.7Z" transform="translate(-12499 -10018)"/>
    <path id="flat_light-4" data-name="flat_light" class="cls-8" d="M-17.549-2.279a2.1,2.1,0,0,1-.82,1.764A3.557,3.557,0,0,1-20.6.117a5.577,5.577,0,0,1-2.344-.393v-.961a6.171,6.171,0,0,0,1.148.352,6.042,6.042,0,0,0,1.23.129,2.483,2.483,0,0,0,1.5-.378,1.24,1.24,0,0,0,.5-1.052,1.35,1.35,0,0,0-.179-.729,1.66,1.66,0,0,0-.6-.524,8.361,8.361,0,0,0-1.274-.545A4.068,4.068,0,0,1-22.315-5a2.238,2.238,0,0,1-.513-1.529A1.9,1.9,0,0,1-22.084-8.1a3.092,3.092,0,0,1,1.969-.586,5.8,5.8,0,0,1,2.35.469l-.311.867A5.31,5.31,0,0,0-20.139-7.8a2,2,0,0,0-1.236.34,1.12,1.12,0,0,0-.445.943,1.446,1.446,0,0,0,.164.729,1.545,1.545,0,0,0,.554.521,6.88,6.88,0,0,0,1.192.524,4.721,4.721,0,0,1,1.854,1.031A2.028,2.028,0,0,1-17.549-2.279Zm4.318,2.4A2.95,2.95,0,0,1-15.478-.75,3.357,3.357,0,0,1-16.3-3.158a3.723,3.723,0,0,1,.765-2.467,2.54,2.54,0,0,1,2.054-.914,2.422,2.422,0,0,1,1.91.794,3.043,3.043,0,0,1,.7,2.095v.615h-4.424a2.546,2.546,0,0,0,.571,1.717A1.976,1.976,0,0,0-13.2-.732a5.172,5.172,0,0,0,2.051-.434V-.3a5.147,5.147,0,0,1-.976.319A5.483,5.483,0,0,1-13.23.117Zm-.264-5.842a1.588,1.588,0,0,0-1.233.5,2.323,2.323,0,0,0-.542,1.395h3.357a2.139,2.139,0,0,0-.41-1.409A1.444,1.444,0,0,0-13.494-5.725ZM-8.238,0h-.973V-9.117h.973Zm4.775.117A2.95,2.95,0,0,1-5.71-.75a3.357,3.357,0,0,1-.823-2.408,3.723,3.723,0,0,1,.765-2.467,2.54,2.54,0,0,1,2.054-.914,2.422,2.422,0,0,1,1.91.794A3.043,3.043,0,0,1-1.1-3.65v.615H-5.525a2.546,2.546,0,0,0,.571,1.717,1.976,1.976,0,0,0,1.526.586,5.172,5.172,0,0,0,2.051-.434V-.3a5.147,5.147,0,0,1-.976.319A5.483,5.483,0,0,1-3.463.117Zm-.264-5.842a1.588,1.588,0,0,0-1.233.5A2.323,2.323,0,0,0-5.5-3.826h3.357a2.139,2.139,0,0,0-.41-1.409A1.444,1.444,0,0,0-3.727-5.725ZM3.123.117A2.741,2.741,0,0,1,.964-.741,3.53,3.53,0,0,1,.2-3.17,3.64,3.64,0,0,1,.976-5.66a2.8,2.8,0,0,1,2.212-.879,4.389,4.389,0,0,1,.926.1,3.05,3.05,0,0,1,.727.234l-.3.826a4.574,4.574,0,0,0-.7-.214,3.139,3.139,0,0,0-.674-.085q-1.957,0-1.957,2.5a2.972,2.972,0,0,0,.478,1.816A1.661,1.661,0,0,0,3.1-.732a4.326,4.326,0,0,0,1.646-.346v.861A3.509,3.509,0,0,1,3.123.117Zm5.221-.8a3.177,3.177,0,0,0,.5-.038A3.224,3.224,0,0,0,9.223-.8v.744a1.778,1.778,0,0,1-.466.126A3.5,3.5,0,0,1,8.2.117Q6.34.117,6.34-1.846v-3.82H5.42v-.469l.92-.4L6.75-7.91h.563v1.488H9.176v.756H7.313v3.779A1.3,1.3,0,0,0,7.588-1,.958.958,0,0,0,8.344-.686Zm4.875.8A2.95,2.95,0,0,1,10.972-.75a3.357,3.357,0,0,1-.823-2.408,3.723,3.723,0,0,1,.765-2.467,2.54,2.54,0,0,1,2.054-.914,2.422,2.422,0,0,1,1.91.794,3.043,3.043,0,0,1,.7,2.095v.615H11.156a2.546,2.546,0,0,0,.571,1.717,1.976,1.976,0,0,0,1.526.586A5.172,5.172,0,0,0,15.3-1.166V-.3a5.147,5.147,0,0,1-.976.319A5.483,5.483,0,0,1,13.219.117Zm-.264-5.842a1.588,1.588,0,0,0-1.233.5,2.323,2.323,0,0,0-.542,1.395h3.357a2.139,2.139,0,0,0-.41-1.409A1.444,1.444,0,0,0,12.955-5.725ZM21.609-.861h-.053a2.285,2.285,0,0,1-2.016.979,2.384,2.384,0,0,1-1.96-.861,3.791,3.791,0,0,1-.7-2.449,3.855,3.855,0,0,1,.7-2.467,2.366,2.366,0,0,1,1.957-.879,2.335,2.335,0,0,1,2,.949h.076l-.041-.463L21.557-6.5V-9.117h.973V0h-.791ZM19.664-.7a1.771,1.771,0,0,0,1.444-.542,2.739,2.739,0,0,0,.448-1.749v-.205A3.222,3.222,0,0,0,21.1-5.142a1.724,1.724,0,0,0-1.45-.583,1.489,1.489,0,0,0-1.31.665,3.307,3.307,0,0,0-.454,1.878,3.17,3.17,0,0,0,.451,1.857A1.528,1.528,0,0,0,19.664-.7Z" transform="translate(-12698 -9958.8)"/>
    <path id="flat_light-5" data-name="flat_light" class="cls-8" d="M-23.534-8.566v5.543a3.019,3.019,0,0,1-.885,2.3,3.393,3.393,0,0,1-2.432.838,3.244,3.244,0,0,1-2.394-.844,3.129,3.129,0,0,1-.847-2.32v-5.52h1v5.59a2.2,2.2,0,0,0,.586,1.646,2.364,2.364,0,0,0,1.723.574,2.28,2.28,0,0,0,1.67-.577,2.22,2.22,0,0,0,.586-1.655V-8.566ZM-17.019,0V-4.154a1.676,1.676,0,0,0-.357-1.172A1.456,1.456,0,0,0-18.5-5.713a1.846,1.846,0,0,0-1.477.545,2.751,2.751,0,0,0-.469,1.8V0h-.973V-6.422h.791l.158.879h.047a1.986,1.986,0,0,1,.838-.735,2.722,2.722,0,0,1,1.2-.261,2.439,2.439,0,0,1,1.746.56,2.381,2.381,0,0,1,.586,1.79V0Zm7.113-1.752a1.609,1.609,0,0,1-.668,1.383,3.14,3.14,0,0,1-1.875.486,4.077,4.077,0,0,1-1.992-.4v-.9a4.818,4.818,0,0,0,.993.369,4.147,4.147,0,0,0,1.022.135,2.319,2.319,0,0,0,1.172-.243.8.8,0,0,0,.41-.741.8.8,0,0,0-.325-.642,5.115,5.115,0,0,0-1.269-.63,6.879,6.879,0,0,1-1.274-.583,1.741,1.741,0,0,1-.562-.565,1.475,1.475,0,0,1-.185-.756,1.441,1.441,0,0,1,.639-1.239,2.976,2.976,0,0,1,1.752-.454,5.126,5.126,0,0,1,2.027.422l-.346.791a4.654,4.654,0,0,0-1.752-.4,2.016,2.016,0,0,0-1.043.217.67.67,0,0,0-.352.6.728.728,0,0,0,.132.439,1.3,1.3,0,0,0,.425.346,9.493,9.493,0,0,0,1.125.475,4.2,4.2,0,0,1,1.544.838A1.478,1.478,0,0,1-9.905-1.752ZM-5.61.117A2.95,2.95,0,0,1-7.857-.75a3.357,3.357,0,0,1-.823-2.408,3.723,3.723,0,0,1,.765-2.467,2.54,2.54,0,0,1,2.054-.914,2.422,2.422,0,0,1,1.91.794,3.043,3.043,0,0,1,.7,2.095v.615H-7.673A2.546,2.546,0,0,0-7.1-1.318a1.976,1.976,0,0,0,1.526.586,5.172,5.172,0,0,0,2.051-.434V-.3A5.147,5.147,0,0,1-4.5.021,5.483,5.483,0,0,1-5.61.117Zm-.264-5.842a1.588,1.588,0,0,0-1.233.5,2.323,2.323,0,0,0-.542,1.395h3.357A2.139,2.139,0,0,0-4.7-5.235,1.444,1.444,0,0,0-5.874-5.725ZM-.618,0h-.973V-9.117h.973ZM4.157.117A2.95,2.95,0,0,1,1.91-.75a3.357,3.357,0,0,1-.823-2.408,3.723,3.723,0,0,1,.765-2.467,2.54,2.54,0,0,1,2.054-.914,2.422,2.422,0,0,1,1.91.794,3.043,3.043,0,0,1,.7,2.095v.615H2.095a2.546,2.546,0,0,0,.571,1.717,1.976,1.976,0,0,0,1.526.586,5.172,5.172,0,0,0,2.051-.434V-.3a5.147,5.147,0,0,1-.976.319A5.483,5.483,0,0,1,4.157.117ZM3.894-5.725a1.588,1.588,0,0,0-1.233.5,2.323,2.323,0,0,0-.542,1.395H5.476a2.139,2.139,0,0,0-.41-1.409A1.444,1.444,0,0,0,3.894-5.725ZM10.743.117A2.741,2.741,0,0,1,8.584-.741,3.53,3.53,0,0,1,7.819-3.17,3.64,3.64,0,0,1,8.6-5.66a2.8,2.8,0,0,1,2.212-.879,4.389,4.389,0,0,1,.926.1,3.05,3.05,0,0,1,.727.234l-.3.826a4.574,4.574,0,0,0-.7-.214,3.139,3.139,0,0,0-.674-.085q-1.957,0-1.957,2.5A2.972,2.972,0,0,0,9.3-1.365a1.661,1.661,0,0,0,1.415.633,4.326,4.326,0,0,0,1.646-.346v.861A3.509,3.509,0,0,1,10.743.117Zm5.221-.8a3.177,3.177,0,0,0,.5-.038A3.224,3.224,0,0,0,16.843-.8v.744a1.778,1.778,0,0,1-.466.126,3.5,3.5,0,0,1-.554.05q-1.863,0-1.863-1.963v-3.82h-.92v-.469l.92-.4.41-1.371h.563v1.488H16.8v.756H14.933v3.779A1.3,1.3,0,0,0,15.208-1,.958.958,0,0,0,15.964-.686Zm4.875.8A2.95,2.95,0,0,1,18.592-.75a3.357,3.357,0,0,1-.823-2.408,3.723,3.723,0,0,1,.765-2.467,2.54,2.54,0,0,1,2.054-.914,2.422,2.422,0,0,1,1.91.794,3.043,3.043,0,0,1,.7,2.095v.615H18.776a2.546,2.546,0,0,0,.571,1.717,1.976,1.976,0,0,0,1.526.586,5.172,5.172,0,0,0,2.051-.434V-.3a5.147,5.147,0,0,1-.976.319A5.483,5.483,0,0,1,20.839.117Zm-.264-5.842a1.588,1.588,0,0,0-1.233.5A2.323,2.323,0,0,0,18.8-3.826h3.357a2.139,2.139,0,0,0-.41-1.409A1.444,1.444,0,0,0,20.575-5.725ZM29.229-.861h-.053a2.285,2.285,0,0,1-2.016.979A2.384,2.384,0,0,1,25.2-.744a3.791,3.791,0,0,1-.7-2.449,3.855,3.855,0,0,1,.7-2.467,2.366,2.366,0,0,1,1.957-.879,2.335,2.335,0,0,1,2,.949h.076L29.2-6.053,29.177-6.5V-9.117h.973V0h-.791ZM27.284-.7a1.771,1.771,0,0,0,1.444-.542,2.739,2.739,0,0,0,.448-1.749v-.205a3.222,3.222,0,0,0-.454-1.948,1.724,1.724,0,0,0-1.45-.583,1.489,1.489,0,0,0-1.31.665,3.307,3.307,0,0,0-.454,1.878,3.17,3.17,0,0,0,.451,1.857A1.528,1.528,0,0,0,27.284-.7Z" transform="translate(-12705 -9899.8)"/>
  </g>
</svg>
