<svg xmlns="http://www.w3.org/2000/svg" xmlns:xlink="http://www.w3.org/1999/xlink" width="398" height="945" viewBox="0 0 398 945">
  <defs>
    <clipPath id="clip-GalleryRadio_Specs">
      <rect width="398" height="945"/>
    </clipPath>
  </defs>
  <g id="GalleryRadio_Specs" clip-path="url(#clip-GalleryRadio_Specs)">
    <rect width="398" height="945" fill="#f9f9fa"/>
    <g id="Group_14630" data-name="Group 14630" transform="translate(42)">
      <text id="padding:_30px" data-name="padding: 30px" transform="translate(193 108)" fill="#c6318c" font-size="14" font-family="SegoeUI, Segoe UI"><tspan x="0" y="0">padding: 30px</tspan></text>
      <g id="Group_14629" data-name="Group 14629">
        <rect id="Rectangle_8098" data-name="Rectangle 8098" width="140" height="105" rx="6" transform="translate(33 50)" fill="#cbcbd2"/>
        <rect id="Rectangle_8079" data-name="Rectangle 8079" width="1" height="29" transform="translate(103 51)" fill="#c6318c"/>
        <rect id="Rectangle_8081" data-name="Rectangle 8081" width="1" height="30" transform="translate(103 125)" fill="#c6318c"/>
        <rect id="Rectangle_8088" data-name="Rectangle 8088" width="1" height="30" transform="translate(33.5 103) rotate(-90)" fill="#c6318c"/>
        <rect id="Rectangle_8089" data-name="Rectangle 8089" width="1" height="30" transform="translate(142.5 103) rotate(-90)" fill="#c6318c"/>
        <g id="Rectangle_8092" data-name="Rectangle 8092" transform="translate(33 50)" fill="none" stroke="#c6318c" stroke-width="1">
          <rect width="140" height="105" rx="6" stroke="none"/>
          <rect x="0.5" y="0.5" width="139" height="104" rx="5.5" fill="none"/>
        </g>
        <g id="Rectangle_8103" data-name="Rectangle 8103" transform="translate(63 80)" fill="none" stroke="#c6318c" stroke-width="1">
          <rect width="80" height="45" stroke="none"/>
          <rect x="0.5" y="0.5" width="79" height="44" fill="none"/>
        </g>
      </g>
    </g>
    <g id="Group_14627" data-name="Group 14627" transform="translate(5 194)">
      <text id="corner_radius:_6px" data-name="corner radius: 6px" transform="translate(219 612)" fill="#c6318c" font-size="14" font-family="SegoeUI, Segoe UI"><tspan x="0" y="0">corner radius: 6px</tspan></text>
      <rect id="Rectangle_8104" data-name="Rectangle 8104" width="140" height="189" rx="6" transform="translate(59 512)" fill="#cbcbd2"/>
      <g id="Rectangle_8105" data-name="Rectangle 8105" transform="translate(59 512)" fill="none" stroke="#c6318c" stroke-width="1" stroke-dasharray="2 2">
        <rect width="140" height="189" rx="6" stroke="none"/>
        <rect x="0.5" y="0.5" width="139" height="188" rx="5.5" fill="none"/>
      </g>
    </g>
    <g id="Group_14628" data-name="Group 14628" transform="translate(-2 -76)">
      <text id="_15px" data-name="15px" transform="translate(186 535)" fill="#c6318c" font-size="14" font-family="SegoeUI, Segoe UI"><tspan x="0" y="0">15px</tspan></text>
      <g id="Group_14581" data-name="Group 14581" transform="translate(393.5 1189.5) rotate(180)">
        <rect id="Rectangle_5338" data-name="Rectangle 5338" width="11" height="1" transform="translate(187 548)" fill="#c6318c"/>
        <rect id="Rectangle_5339" data-name="Rectangle 5339" width="6" height="1" transform="translate(186.5 551.5) rotate(-90)" fill="#c6318c"/>
        <rect id="Rectangle_5340" data-name="Rectangle 5340" width="6" height="1" transform="translate(197.5 551.5) rotate(-90)" fill="#c6318c"/>
      </g>
      <g id="Gallery_radio_button-Large-NEW" data-name="Gallery radio button-Large-NEW" transform="translate(63 549)">
        <g id="Rectangle_4479" data-name="Rectangle 4479" fill="#fff" stroke="#c6c6c6" stroke-width="1">
          <rect width="130" height="183" rx="6" stroke="none"/>
          <rect x="0.5" y="0.5" width="129" height="182" rx="5.5" fill="none"/>
        </g>
        <text id="Employee_Handbook" data-name="Employee
Handbook" transform="translate(65 130)" fill="#3d3d3d" font-size="14" font-family="OpenSans-Semibold, Open Sans" font-weight="600"><tspan x="-33.007" y="0">Employee</tspan><tspan x="-35.038" y="19">Handbook</tspan></text>
        <g id="Group_7827" data-name="Group 7827" transform="translate(-78 -116)">
          <rect id="Rectangle_4483" data-name="Rectangle 4483" width="70" height="70" rx="4" transform="translate(108 146)" fill="none" opacity="0.5"/>
          <g id="Shadow_1_" transform="translate(120 153.054)">
            <path id="Path_5743" data-name="Path 5743" d="M3.5,0H44.736a1.859,1.859,0,0,1,1.889,1.889h0V53.721a2,2,0,0,1-1.971,1.971H3.5" transform="translate(-0.625)" fill="#e04a39"/>
            <path id="Path_5744" data-name="Path 5744" d="M6.654,0H1.807A1.823,1.823,0,0,0,0,1.807H0V53.886a1.823,1.823,0,0,0,1.807,1.807H6.654" fill="#cc4434"/>
            <rect id="Rectangle_4122" data-name="Rectangle 4122" width="41.646" height="9.939" transform="translate(4.354 43.864)" fill="#cb4333"/>
            <path id="Path_5745" data-name="Path 5745" d="M7.275,55.1H47.2v7.311H7.275a.561.561,0,0,1-.575-.575V55.593A.549.549,0,0,1,7.275,55.1Z" transform="translate(-1.196 -9.839)" fill="#f1f2f2"/>
            <path id="Path_5746" data-name="Path 5746" d="M27.893,30.125H22.8V21.5h5.093v1.889H25.1V24.7h2.546v1.889H25.1v1.643h2.793Z" transform="translate(-4.071 -3.839)" fill="#fff"/>
            <path id="Path_5747" data-name="Path 5747" d="M35.893,30.125H30.8V21.5h5.093v1.889H33.1V24.7h2.546v1.889H33.1v1.643h2.793Z" transform="translate(-5.5 -3.839)" fill="#fff"/>
          </g>
        </g>
      </g>
      <g id="Group_14613" data-name="Group 14613" transform="translate(209 549)">
        <g id="Rectangle_4477" data-name="Rectangle 4477" fill="#d0e2f6" stroke="#2777d3" stroke-width="2">
          <rect width="130" height="183" rx="6" stroke="none"/>
          <rect x="1" y="1" width="128" height="181" rx="5" fill="none"/>
        </g>
        <text id="Employee_Handbook-2" data-name="Employee
Handbook" transform="translate(65 130)" fill="#3d3d3d" font-size="14" font-family="OpenSans-Semibold, Open Sans" font-weight="600"><tspan x="-33.007" y="0">Employee</tspan><tspan x="-35.038" y="19">Handbook</tspan></text>
        <g id="Group_7829" data-name="Group 7829" transform="translate(-388 -116)">
          <rect id="Rectangle_4481" data-name="Rectangle 4481" width="70" height="70" rx="4" transform="translate(418 146)" fill="none" opacity="0.5"/>
          <g id="Shadow_1_2" data-name="Shadow_1_" transform="translate(430 153.054)">
            <path id="Path_5743-2" data-name="Path 5743" d="M3.5,0H44.736a1.859,1.859,0,0,1,1.889,1.889h0V53.721a2,2,0,0,1-1.971,1.971H3.5" transform="translate(-0.625)" fill="#e04a39"/>
            <path id="Path_5744-2" data-name="Path 5744" d="M6.654,0H1.807A1.823,1.823,0,0,0,0,1.807H0V53.886a1.823,1.823,0,0,0,1.807,1.807H6.654" fill="#cc4434"/>
            <rect id="Rectangle_4122-2" data-name="Rectangle 4122" width="41.646" height="9.939" transform="translate(4.354 43.864)" fill="#cb4333"/>
            <path id="Path_5745-2" data-name="Path 5745" d="M7.275,55.1H47.2v7.311H7.275a.561.561,0,0,1-.575-.575V55.593A.549.549,0,0,1,7.275,55.1Z" transform="translate(-1.196 -9.839)" fill="#f1f2f2"/>
            <path id="Path_5746-2" data-name="Path 5746" d="M27.893,30.125H22.8V21.5h5.093v1.889H25.1V24.7h2.546v1.889H25.1v1.643h2.793Z" transform="translate(-4.071 -3.839)" fill="#fff"/>
            <path id="Path_5747-2" data-name="Path 5747" d="M35.893,30.125H30.8V21.5h5.093v1.889H33.1V24.7h2.546v1.889H33.1v1.643h2.793Z" transform="translate(-5.5 -3.839)" fill="#fff"/>
          </g>
        </g>
        <g id="Radio_Selected" data-name="Radio Selected" transform="translate(5 5)">
          <path id="Path_6085" data-name="Path 6085" d="M37,43.2a9.6,9.6,0,1,1-9.6,9.6A9.628,9.628,0,0,1,37,43.2m0-2.4a12,12,0,1,0,12,12,12.035,12.035,0,0,0-12-12Zm7.2,12A7.2,7.2,0,1,0,37,60,7.221,7.221,0,0,0,44.2,52.8Z" transform="translate(-25 -40.8)" fill="#2777d3"/>
        </g>
      </g>
    </g>
    <g id="Group_14632" data-name="Group 14632" transform="translate(42 0)">
      <text id="icon_size:_70px_padding:_30px_margin:_15px_" data-name="icon size: 70px
padding: 30px
margin: 15px " transform="translate(193.3 286)" fill="#c6318c" font-size="14" font-family="SegoeUI, Segoe UI"><tspan x="0" y="0">icon size: 70px</tspan><tspan x="0" y="19">padding: 30px</tspan><tspan x="0" y="38">margin: 15px </tspan></text>
      <g id="Group_14631" data-name="Group 14631">
        <rect id="Rectangle_8106" data-name="Rectangle 8106" width="140" height="189" rx="6" transform="translate(33 205)" fill="#cbcbd2"/>
        <g id="Rectangle_8107" data-name="Rectangle 8107" transform="translate(68 234.5)" fill="none" stroke="#c6318c" stroke-width="1">
          <rect width="70" height="70" stroke="none"/>
          <rect x="0.5" y="0.5" width="69" height="69" fill="none"/>
        </g>
        <rect id="Rectangle_8108" data-name="Rectangle 8108" width="1" height="29" transform="translate(103 206)" fill="#c6318c"/>
        <rect id="Rectangle_8109" data-name="Rectangle 8109" width="1" height="30" transform="translate(103 363)" fill="#c6318c"/>
        <rect id="Rectangle_8110" data-name="Rectangle 8110" width="1" height="35" transform="translate(33.5 300.293) rotate(-90)" fill="#c6318c"/>
        <rect id="Rectangle_8111" data-name="Rectangle 8111" width="1" height="35" transform="translate(137.5 300.293) rotate(-90)" fill="#c6318c"/>
        <g id="Rectangle_8112" data-name="Rectangle 8112" transform="translate(33 205)" fill="none" stroke="#c6318c" stroke-width="1">
          <rect width="140" height="189" rx="6" stroke="none"/>
          <rect x="0.5" y="0.5" width="139" height="188" rx="5.5" fill="none"/>
        </g>
        <g id="Rectangle_8113" data-name="Rectangle 8113" transform="translate(63 319.5)" fill="none" stroke="#c6318c" stroke-width="1">
          <rect width="80" height="44" stroke="none"/>
          <rect x="0.5" y="0.5" width="79" height="43" fill="none"/>
        </g>
        <rect id="Rectangle_8114" data-name="Rectangle 8114" width="1" height="16" transform="translate(103 304)" fill="#c6318c"/>
      </g>
    </g>
  </g>
</svg>
