<svg xmlns="http://www.w3.org/2000/svg" xmlns:xlink="http://www.w3.org/1999/xlink" width="339" height="391" viewBox="0 0 339 391">
  <defs>
    <clipPath id="clip-path">
      <rect width="24" height="24" fill="none"/>
    </clipPath>
    <clipPath id="clip-StandardRadio_States">
      <rect width="339" height="391"/>
    </clipPath>
  </defs>
  <g id="StandardRadio_States" clip-path="url(#clip-StandardRadio_States)">
    <rect width="339" height="391" fill="#f9f9fa"/>
    <text id="Normal" transform="translate(55 107)" fill="#c6318c" font-size="8" font-family="SegoeUI, Segoe UI"><tspan x="0" y="0">Normal</tspan></text>
    <text id="Deactivated" transform="translate(122 59)" fill="#c6318c" font-size="8" font-family="SegoeUI, Segoe UI"><tspan x="0" y="0">Deactivated</tspan></text>
    <text id="Activated" transform="translate(241 59)" fill="#c6318c" font-size="8" font-family="SegoeUI, Segoe UI"><tspan x="0" y="0">Activated</tspan></text>
    <text id="Hover" transform="translate(60 181)" fill="#c6318c" font-size="8" font-family="SegoeUI, Segoe UI"><tspan x="0" y="0">Hover</tspan></text>
    <text id="Focused" transform="translate(52 256)" fill="#c6318c" font-size="8" font-family="SegoeUI, Segoe UI"><tspan x="0" y="0">Focused</tspan></text>
    <text id="Disabled" transform="translate(50 333)" fill="#c6318c" font-size="8" font-family="SegoeUI, Segoe UI"><tspan x="0" y="0">Disabled</tspan></text>
    <g id="Radio_button" data-name="Radio button" transform="translate(112 91)">
      <text id="Label" transform="translate(29 17)" fill="#1a1a1e" stroke="rgba(0,0,0,0)" stroke-width="1" font-size="14" font-family="SegoeUI, Segoe UI"><tspan x="0" y="0">Label</tspan></text>
      <path id="Path_10240" data-name="Path 10240" d="M12,43.2a9.6,9.6,0,1,1-9.6,9.6A9.628,9.628,0,0,1,12,43.2m0-2.4a12,12,0,1,0,12,12,12.035,12.035,0,0,0-12-12Z" transform="translate(0 -40.8)" fill="#9494a4"/>
    </g>
    <g id="Radio_button-2" data-name="Radio button" transform="translate(226 91)">
      <path id="Path_6085" data-name="Path 6085" d="M37,43.2a9.6,9.6,0,1,1-9.6,9.6A9.628,9.628,0,0,1,37,43.2m0-2.4a12,12,0,1,0,12,12,12.035,12.035,0,0,0-12-12Zm7.2,12A7.2,7.2,0,1,0,37,60,7.221,7.221,0,0,0,44.2,52.8Z" transform="translate(-25 -40.8)" fill="#2777d3"/>
      <text id="Label-2" data-name="Label" transform="translate(29 17)" fill="#1a1a1e" stroke="rgba(0,0,0,0)" stroke-width="1" font-size="14" font-family="SegoeUI, Segoe UI"><tspan x="0" y="0">Label</tspan></text>
    </g>
    <g id="Radio_button-3" data-name="Radio button" transform="translate(112 317)">
      <text id="Label-3" data-name="Label" transform="translate(29 17)" fill="#afafbb" stroke="rgba(0,0,0,0)" stroke-width="1" font-size="14" font-family="SegoeUI, Segoe UI"><tspan x="0" y="0">Label</tspan></text>
      <path id="Path_10240-2" data-name="Path 10240" d="M12,43.2a9.6,9.6,0,1,1-9.6,9.6A9.628,9.628,0,0,1,12,43.2m0-2.4a12,12,0,1,0,12,12,12.035,12.035,0,0,0-12-12Z" transform="translate(0 -40.8)" fill="#e6e6ea"/>
    </g>
    <g id="Radio_button-4" data-name="Radio button" transform="translate(111 239)">
      <text id="Label-4" data-name="Label" transform="translate(31 19)" fill="#1a1a1e" stroke="rgba(0,0,0,0)" stroke-width="1" font-size="14" font-family="SegoeUI, Segoe UI"><tspan x="0" y="0">Label</tspan></text>
      <g id="Group_14782" data-name="Group 14782" transform="translate(-5889 -2006)">
        <g id="Radio_Unselected" data-name="Radio Unselected" transform="translate(5891 2008)" clip-path="url(#clip-path)">
          <path id="Path_5843" data-name="Path 5843" d="M12,43.2a9.6,9.6,0,1,1-9.6,9.6A9.628,9.628,0,0,1,12,43.2m0-2.4a12,12,0,1,0,12,12,12.035,12.035,0,0,0-12-12Z" transform="translate(0 -40.8)" fill="#9494a4"/>
        </g>
        <g id="Rectangle_8140" data-name="Rectangle 8140" transform="translate(5889 2006)" fill="none" stroke="#2777d3" stroke-width="1">
          <rect width="28" height="28" rx="5" stroke="none"/>
          <rect x="0.5" y="0.5" width="27" height="27" rx="4.5" fill="none"/>
        </g>
      </g>
    </g>
    <g id="Radio_button-5" data-name="Radio button" transform="translate(225 239)">
      <path id="Path_6085-2" data-name="Path 6085" d="M37,43.2a9.6,9.6,0,1,1-9.6,9.6A9.628,9.628,0,0,1,37,43.2m0-2.4a12,12,0,1,0,12,12,12.035,12.035,0,0,0-12-12Zm7.2,12A7.2,7.2,0,1,0,37,60,7.221,7.221,0,0,0,44.2,52.8Z" transform="translate(-23 -38.8)" fill="#2777d3"/>
      <text id="Label-5" data-name="Label" transform="translate(31 19)" fill="#1a1a1e" stroke="rgba(0,0,0,0)" stroke-width="1" font-size="14" font-family="SegoeUI, Segoe UI"><tspan x="0" y="0">Label</tspan></text>
      <g id="Rectangle_8141" data-name="Rectangle 8141" fill="none" stroke="#2777d3" stroke-width="1">
        <rect width="28" height="28" rx="5" stroke="none"/>
        <rect x="0.5" y="0.5" width="27" height="27" rx="4.5" fill="none"/>
      </g>
    </g>
    <g id="Radio_button-6" data-name="Radio button" transform="translate(226 165)">
      <path id="Path_6085-3" data-name="Path 6085" d="M37,43.2a9.6,9.6,0,1,1-9.6,9.6A9.628,9.628,0,0,1,37,43.2m0-2.4a12,12,0,1,0,12,12,12.035,12.035,0,0,0-12-12Zm7.2,12A7.2,7.2,0,1,0,37,60,7.221,7.221,0,0,0,44.2,52.8Z" transform="translate(-25 -40.8)" fill="#4e92df"/>
      <text id="Label-6" data-name="Label" transform="translate(29 17)" fill="#1a1a1e" stroke="rgba(0,0,0,0)" stroke-width="1" font-size="14" font-family="SegoeUI, Segoe UI"><tspan x="0" y="0">Label</tspan></text>
    </g>
    <g id="Radio_button-7" data-name="Radio button" transform="translate(112 165)">
      <text id="Label-7" data-name="Label" transform="translate(29 17)" fill="#1a1a1e" stroke="rgba(0,0,0,0)" stroke-width="1" font-size="14" font-family="SegoeUI, Segoe UI"><tspan x="0" y="0">Label</tspan></text>
      <path id="Path_10281" data-name="Path 10281" d="M12,43.2a9.6,9.6,0,1,1-9.6,9.6A9.628,9.628,0,0,1,12,43.2m0-2.4a12,12,0,1,0,12,12,12.035,12.035,0,0,0-12-12Z" transform="translate(0 -40.8)" fill="#606071"/>
    </g>
    <g id="Radio_button-8" data-name="Radio button" transform="translate(226 317)">
      <text id="Label-8" data-name="Label" transform="translate(29 17)" fill="#afafbb" stroke="rgba(0,0,0,0)" stroke-width="1" font-size="14" font-family="SegoeUI, Segoe UI"><tspan x="0" y="0">Label</tspan></text>
      <path id="Path_10241" data-name="Path 10241" d="M37,43.2a9.6,9.6,0,1,1-9.6,9.6A9.628,9.628,0,0,1,37,43.2m0-2.4a12,12,0,1,0,12,12,12.035,12.035,0,0,0-12-12Zm7.2,12A7.2,7.2,0,1,0,37,60,7.221,7.221,0,0,0,44.2,52.8Z" transform="translate(-25 -40.8)" fill="#d0e2f6"/>
    </g>
    <g id="Group_15324" data-name="Group 15324" transform="translate(-11789 -830)">
      <g id="noun_Pointer_44803" transform="translate(11911 1005)">
        <g id="Group_15298" data-name="Group 15298" transform="translate(0 0)" opacity="0.9">
          <path id="Path_10321" data-name="Path 10321" d="M26.5,27.034a8.04,8.04,0,0,1-7.962-7.224.347.347,0,0,1-.037-.156V14.783a1.94,1.94,0,0,1,1.9-1.97,1.854,1.854,0,0,1,1.143.395V5.385a1.906,1.906,0,1,1,3.81,0v5.468a1.854,1.854,0,0,1,1.143-.395,1.91,1.91,0,0,1,1.775,1.257,1.863,1.863,0,0,1,1.272-.5,1.919,1.919,0,0,1,1.837,1.449,1.86,1.86,0,0,1,1.211-.45,1.94,1.94,0,0,1,1.9,1.97v5.031a.375.375,0,0,1,0,.051A8.045,8.045,0,0,1,26.5,27.034Z" transform="translate(-18.501 -3.415)" fill="#fff"/>
        </g>
      </g>
      <g id="noun_Pointer_44803-2" data-name="noun_Pointer_44803" transform="translate(11911 1005)">
        <g id="Group_15298-2" data-name="Group 15298" transform="translate(0 0)" opacity="0.9">
          <path id="Path_10321-2" data-name="Path 10321" d="M26.5,27.034a8.04,8.04,0,0,1-7.962-7.224.347.347,0,0,1-.037-.156V14.783a1.94,1.94,0,0,1,1.9-1.97,1.854,1.854,0,0,1,1.143.395V5.385a1.906,1.906,0,1,1,3.81,0v5.468a1.854,1.854,0,0,1,1.143-.395,1.91,1.91,0,0,1,1.775,1.257,1.863,1.863,0,0,1,1.272-.5,1.919,1.919,0,0,1,1.837,1.449,1.86,1.86,0,0,1,1.211-.45,1.94,1.94,0,0,1,1.9,1.97v5.031a.375.375,0,0,1,0,.051A8.045,8.045,0,0,1,26.5,27.034Zm-7.238-7.51a.339.339,0,0,1,.024.1,7.238,7.238,0,0,0,14.45-.424q0-.016,0-.033V14.178a1.145,1.145,0,1,0-2.286,0,.381.381,0,0,1-.762,0v-1a1.145,1.145,0,1,0-2.286,0,.381.381,0,1,1-.762,0v-.752a1.145,1.145,0,1,0-2.286,0,.381.381,0,1,1-.762,0V5.385a1.145,1.145,0,1,0-2.286,0V18.21a.381.381,0,1,1-.762,0V14.783a1.145,1.145,0,1,0-2.286,0v4.741Z" transform="translate(-18.501 -3.415)"/>
        </g>
      </g>
    </g>
    <g id="Group_264146" data-name="Group 264146" transform="translate(-11675 -830)">
      <g id="noun_Pointer_44803-3" data-name="noun_Pointer_44803" transform="translate(11911 1005)">
        <g id="Group_15298-3" data-name="Group 15298" transform="translate(0 0)" opacity="0.9">
          <path id="Path_10321-3" data-name="Path 10321" d="M26.5,27.034a8.04,8.04,0,0,1-7.962-7.224.347.347,0,0,1-.037-.156V14.783a1.94,1.94,0,0,1,1.9-1.97,1.854,1.854,0,0,1,1.143.395V5.385a1.906,1.906,0,1,1,3.81,0v5.468a1.854,1.854,0,0,1,1.143-.395,1.91,1.91,0,0,1,1.775,1.257,1.863,1.863,0,0,1,1.272-.5,1.919,1.919,0,0,1,1.837,1.449,1.86,1.86,0,0,1,1.211-.45,1.94,1.94,0,0,1,1.9,1.97v5.031a.375.375,0,0,1,0,.051A8.045,8.045,0,0,1,26.5,27.034Z" transform="translate(-18.501 -3.415)" fill="#fff"/>
        </g>
      </g>
      <g id="noun_Pointer_44803-4" data-name="noun_Pointer_44803" transform="translate(11911 1005)">
        <g id="Group_15298-4" data-name="Group 15298" transform="translate(0 0)" opacity="0.9">
          <path id="Path_10321-4" data-name="Path 10321" d="M26.5,27.034a8.04,8.04,0,0,1-7.962-7.224.347.347,0,0,1-.037-.156V14.783a1.94,1.94,0,0,1,1.9-1.97,1.854,1.854,0,0,1,1.143.395V5.385a1.906,1.906,0,1,1,3.81,0v5.468a1.854,1.854,0,0,1,1.143-.395,1.91,1.91,0,0,1,1.775,1.257,1.863,1.863,0,0,1,1.272-.5,1.919,1.919,0,0,1,1.837,1.449,1.86,1.86,0,0,1,1.211-.45,1.94,1.94,0,0,1,1.9,1.97v5.031a.375.375,0,0,1,0,.051A8.045,8.045,0,0,1,26.5,27.034Zm-7.238-7.51a.339.339,0,0,1,.024.1,7.238,7.238,0,0,0,14.45-.424q0-.016,0-.033V14.178a1.145,1.145,0,1,0-2.286,0,.381.381,0,0,1-.762,0v-1a1.145,1.145,0,1,0-2.286,0,.381.381,0,1,1-.762,0v-.752a1.145,1.145,0,1,0-2.286,0,.381.381,0,1,1-.762,0V5.385a1.145,1.145,0,1,0-2.286,0V18.21a.381.381,0,1,1-.762,0V14.783a1.145,1.145,0,1,0-2.286,0v4.741Z" transform="translate(-18.501 -3.415)"/>
        </g>
      </g>
    </g>
  </g>
</svg>
