<svg xmlns="http://www.w3.org/2000/svg" xmlns:xlink="http://www.w3.org/1999/xlink" width="900" height="590" viewBox="0 0 900 590">
  <defs>
    <linearGradient id="linear-gradient" x1="-4.566" y1="0.5" x2="-3.566" y2="0.5" gradientUnits="objectBoundingBox">
      <stop offset="0" stop-color="#87898d"/>
      <stop offset="0.316" stop-color="#8c8f92"/>
      <stop offset="1" stop-color="#96999c"/>
    </linearGradient>
    <clipPath id="clip-path">
      <path id="Path_101921" data-name="Path 101921" d="M366.846,399.116c0,11.02-3.842,19.953-8.581,19.953l-8.977-6.532s.4-8.422.4-13.421c0-5.941.165-14.724.165-14.724l8.416-5.231C363,379.161,366.846,388.094,366.846,399.116Z" transform="translate(-349.288 -379.161)" fill="none"/>
    </clipPath>
    <linearGradient id="linear-gradient-2" y1="0.5" x2="1" y2="0.5" gradientUnits="objectBoundingBox">
      <stop offset="0" stop-color="#87898d"/>
      <stop offset="0.592" stop-color="#919497" stop-opacity="0.792"/>
      <stop offset="1" stop-color="#96999c" stop-opacity="0.698"/>
    </linearGradient>
    <linearGradient id="linear-gradient-3" x1="0.5" y1="1" x2="0.5" gradientUnits="objectBoundingBox">
      <stop offset="0" stop-color="#9c9da2" stop-opacity="0"/>
      <stop offset="0.004" stop-color="#9b9ca1" stop-opacity="0.008"/>
      <stop offset="0.591" stop-color="#3c3a3c" stop-opacity="0.737"/>
      <stop offset="1" stop-color="#1a1818"/>
    </linearGradient>
    <linearGradient id="linear-gradient-4" x1="0.5" x2="0.5" y2="1" gradientUnits="objectBoundingBox">
      <stop offset="0" stop-color="#9c9da1" stop-opacity="0.212"/>
      <stop offset="0.087" stop-color="#97999d" stop-opacity="0.365"/>
      <stop offset="0.246" stop-color="#919397" stop-opacity="0.592"/>
      <stop offset="0.412" stop-color="#8d8e92" stop-opacity="0.773"/>
      <stop offset="0.586" stop-color="#898b8f" stop-opacity="0.898"/>
      <stop offset="0.774" stop-color="#87898d" stop-opacity="0.976"/>
      <stop offset="1" stop-color="#87898d"/>
    </linearGradient>
    <linearGradient id="linear-gradient-5" x1="0.5" y1="0" x2="0.5" y2="1" xlink:href="#linear-gradient-4"/>
    <linearGradient id="linear-gradient-7" x1="0.5" y1="0" x2="0.5" y2="1" xlink:href="#linear-gradient-4"/>
    <linearGradient id="linear-gradient-13" x1="0.5" y1="0" x2="0.5" y2="1" xlink:href="#linear-gradient-4"/>
    <linearGradient id="linear-gradient-20" x1="0.022" y1="0.784" x2="0.48" y2="0.537" gradientUnits="objectBoundingBox">
      <stop offset="0" stop-color="#96999c" stop-opacity="0"/>
      <stop offset="0.448" stop-color="#555557" stop-opacity="0.522"/>
      <stop offset="1" stop-color="#1a1818"/>
    </linearGradient>
    <clipPath id="clip-_401-error-message">
      <rect width="900" height="590"/>
    </clipPath>
  </defs>
  <g id="_401-error-message" data-name="401-error-message" clip-path="url(#clip-_401-error-message)">
    <rect width="900" height="590" fill="#f4f4f6"/>
    <g id="Group_264643" data-name="Group 264643" transform="translate(-28.401 -8.508)">
      <g id="Group_264642" data-name="Group 264642" transform="translate(-161 -57)">
        <path id="Path_102070" data-name="Path 102070" d="M-148,0h-1.281l-4.984-16.859a10.072,10.072,0,0,1-.422-2.109h-.062a10,10,0,0,1-.484,2.078L-160.547,0h-1.281l-6.656-22.406h1.734l5.109,17.953q.344,1.219.484,1.984h.063a15.983,15.983,0,0,1,.547-1.984l5.531-17.953h.781l5.078,17.953a19.436,19.436,0,0,1,.484,1.984h.063a8.727,8.727,0,0,1,.25-1l5.25-18.937h1.672Zm9.109-7.937a7.913,7.913,0,0,0,1.523,5.156,5.112,5.112,0,0,0,4.18,1.859,8.5,8.5,0,0,0,5.25-1.984v1.531A9.352,9.352,0,0,1-133.484.391a6.274,6.274,0,0,1-5-2.219,9.327,9.327,0,0,1-1.906-6.266,8.924,8.924,0,0,1,1.992-5.9,6.416,6.416,0,0,1,5.18-2.4,5.408,5.408,0,0,1,4.578,2.094,9.231,9.231,0,0,1,1.594,5.719v.641Zm10.344-1.312a7.078,7.078,0,0,0-1.328-4.3,4.135,4.135,0,0,0-3.406-1.531,5,5,0,0,0-3.727,1.508,7.237,7.237,0,0,0-1.82,4.32ZM-102.953,0V-2.906h-.062A5.84,5.84,0,0,1-105.328-.5a6.741,6.741,0,0,1-3.453.891,6.082,6.082,0,0,1-4.82-2.156,8.8,8.8,0,0,1-1.867-5.953,9.352,9.352,0,0,1,2.039-6.273,6.617,6.617,0,0,1,5.289-2.4,5.321,5.321,0,0,1,5.125,2.953h.063v-10.25h1.438V0Zm0-9.734a5.428,5.428,0,0,0-1.414-3.789,4.89,4.89,0,0,0-3.8-1.555,5.22,5.22,0,0,0-4.156,1.93,7.932,7.932,0,0,0-1.641,5.3,7.882,7.882,0,0,0,1.477,5.117,4.693,4.693,0,0,0,3.8,1.8,5.357,5.357,0,0,0,4.234-1.7,6.017,6.017,0,0,0,1.5-4.133ZM-89.969.391a7.02,7.02,0,0,1-5.539-2.3,8.708,8.708,0,0,1-2.039-5.992,8.7,8.7,0,0,1,2.133-6.234,7.381,7.381,0,0,1,5.617-2.25,6.862,6.862,0,0,1,5.406,2.234,8.994,8.994,0,0,1,1.984,6.188A8.849,8.849,0,0,1-84.43-1.922,6.979,6.979,0,0,1-89.969.391Zm.109-15.469a5.707,5.707,0,0,0-4.508,1.906,7.741,7.741,0,0,0-1.68,5.3,7.467,7.467,0,0,0,1.641,5.047A5.607,5.607,0,0,0-89.922-.922,5.471,5.471,0,0,0-85.469-2.8,7.893,7.893,0,0,0-83.906-8a7.885,7.885,0,0,0-1.555-5.25A5.457,5.457,0,0,0-89.859-15.078ZM-67.562,0V-9.312q0-5.766-4.156-5.766a4.82,4.82,0,0,0-3.8,1.7A6.141,6.141,0,0,0-77-9.187V0h-1.437V-16H-77v2.906h.063a5.79,5.79,0,0,1,5.469-3.3A4.775,4.775,0,0,1-67.5-14.664a7.748,7.748,0,0,1,1.375,4.93V0Zm5.328-15.391h-1.344v-7.016h1.344ZM-50.609-.219a4.963,4.963,0,0,1-2.109.531q-3.547,0-3.547-4.25v-10.75h-2.875V-16h2.875v-4.156q.344-.125.719-.25.375-.109.719-.234V-16h4.219v1.313h-4.219V-4.125a4.251,4.251,0,0,0,.523,2.4,2.019,2.019,0,0,0,1.773.742,3.968,3.968,0,0,0,1.922-.578ZM-31.125-14.5a2.819,2.819,0,0,0-1.687-.516,3.733,3.733,0,0,0-3.172,1.953,10.092,10.092,0,0,0-1.281,5.547V0h-1.406V-16h1.406v3.547h.063A5.824,5.824,0,0,1-35.469-15.3a4.1,4.1,0,0,1,2.75-1.016,4.262,4.262,0,0,1,1.594.281Zm2.719,6.563a7.913,7.913,0,0,0,1.523,5.156A5.112,5.112,0,0,0-22.7-.922a8.5,8.5,0,0,0,5.25-1.984v1.531A9.352,9.352,0,0,1-23,.391a6.274,6.274,0,0,1-5-2.219,9.327,9.327,0,0,1-1.906-6.266,8.924,8.924,0,0,1,1.992-5.9,6.416,6.416,0,0,1,5.18-2.4A5.408,5.408,0,0,1-18.156-14.3a9.231,9.231,0,0,1,1.594,5.719v.641ZM-18.062-9.25a7.078,7.078,0,0,0-1.328-4.3A4.135,4.135,0,0,0-22.8-15.078a5,5,0,0,0-3.727,1.508,7.237,7.237,0,0,0-1.82,4.32ZM-2.234-.7A7.964,7.964,0,0,1-6.484.391,6.717,6.717,0,0,1-11.75-1.852a8.484,8.484,0,0,1-2-5.867,8.824,8.824,0,0,1,2.25-6.242,7.526,7.526,0,0,1,5.781-2.43,8.782,8.782,0,0,1,3.547.75v1.625a7.024,7.024,0,0,0-3.766-1.062A5.746,5.746,0,0,0-10.5-13.055a7.727,7.727,0,0,0-1.75,5.242,7.475,7.475,0,0,0,1.6,5A5.267,5.267,0,0,0-6.422-.922,6.982,6.982,0,0,0-2.234-2.2ZM8.031.391a7.02,7.02,0,0,1-5.539-2.3A8.708,8.708,0,0,1,.453-7.906a8.7,8.7,0,0,1,2.133-6.234A7.381,7.381,0,0,1,8.2-16.391a6.862,6.862,0,0,1,5.406,2.234,8.994,8.994,0,0,1,1.984,6.188A8.849,8.849,0,0,1,13.57-1.922,6.979,6.979,0,0,1,8.031.391Zm.109-15.469a5.707,5.707,0,0,0-4.508,1.906,7.741,7.741,0,0,0-1.68,5.3A7.467,7.467,0,0,0,3.594-2.828,5.607,5.607,0,0,0,8.078-.922,5.471,5.471,0,0,0,12.531-2.8,7.893,7.893,0,0,0,14.094-8a7.885,7.885,0,0,0-1.555-5.25A5.457,5.457,0,0,0,8.141-15.078ZM32.359-1.187q0,4.516-1.969,6.609T24.266,7.516A10.681,10.681,0,0,1,19.5,6.3V4.8A9.92,9.92,0,0,0,24.3,6.2q6.625,0,6.625-7V-2.875h-.062A6.225,6.225,0,0,1,25.094.391a6.1,6.1,0,0,1-4.82-2.141,8.784,8.784,0,0,1-1.867-5.969,9.444,9.444,0,0,1,2.016-6.25,6.572,6.572,0,0,1,5.313-2.422,5.41,5.41,0,0,1,5.125,2.922h.063V-16h1.438ZM30.922-9.859a5.227,5.227,0,0,0-1.43-3.672,4.839,4.839,0,0,0-3.727-1.547,5.2,5.2,0,0,0-4.25,1.984,8.08,8.08,0,0,0-1.609,5.25,7.894,7.894,0,0,0,1.477,5.1,4.772,4.772,0,0,0,3.9,1.82,5.3,5.3,0,0,0,4.109-1.672,5.839,5.839,0,0,0,1.531-4.094ZM48.359,0V-9.312q0-5.766-4.156-5.766a4.82,4.82,0,0,0-3.8,1.7,6.141,6.141,0,0,0-1.484,4.2V0H37.484V-16h1.438v2.906h.063a5.79,5.79,0,0,1,5.469-3.3,4.775,4.775,0,0,1,3.969,1.727A7.748,7.748,0,0,1,49.8-9.734V0Zm6.953-20.031a1.163,1.163,0,0,1-.828-.344,1.158,1.158,0,0,1-.359-.875,1.057,1.057,0,0,1,.367-.836,1.217,1.217,0,0,1,.82-.32,1.274,1.274,0,0,1,.852.313,1.051,1.051,0,0,1,.367.844,1.173,1.173,0,0,1-.359.859A1.173,1.173,0,0,1,55.313-20.031ZM54.609,0V-16h1.438V0Zm7.234-1.312H72.172V0H59.5V-.547L70.125-14.687H60.266V-16h12.3v.391ZM76.359-7.937a7.913,7.913,0,0,0,1.523,5.156,5.112,5.112,0,0,0,4.18,1.859,8.5,8.5,0,0,0,5.25-1.984v1.531A9.352,9.352,0,0,1,81.766.391a6.274,6.274,0,0,1-5-2.219,9.327,9.327,0,0,1-1.906-6.266,8.924,8.924,0,0,1,1.992-5.9,6.416,6.416,0,0,1,5.18-2.4A5.408,5.408,0,0,1,86.609-14.3,9.231,9.231,0,0,1,88.2-8.578v.641ZM86.7-9.25a7.078,7.078,0,0,0-1.328-4.3,4.135,4.135,0,0,0-3.406-1.531,5,5,0,0,0-3.727,1.508,7.237,7.237,0,0,0-1.82,4.32ZM104.844,3.266a9.509,9.509,0,0,1-1.937,3.2,3.731,3.731,0,0,1-2.734,1.047,3.345,3.345,0,0,1-1.25-.219V5.859a3.61,3.61,0,0,0,1.313.219q1.922,0,3.031-2.656L104.75-.125,98.688-16H100.3l4.828,13.031q.156.422.219.641a4.846,4.846,0,0,0,.141.531h.063l.375-1.078L111.078-16h1.563ZM121.859.391a7.02,7.02,0,0,1-5.539-2.3,8.708,8.708,0,0,1-2.039-5.992,8.7,8.7,0,0,1,2.133-6.234,7.381,7.381,0,0,1,5.617-2.25,6.862,6.862,0,0,1,5.406,2.234,8.994,8.994,0,0,1,1.984,6.188A8.849,8.849,0,0,1,127.4-1.922,6.979,6.979,0,0,1,121.859.391Zm.109-15.469a5.707,5.707,0,0,0-4.508,1.906,7.741,7.741,0,0,0-1.68,5.3,7.467,7.467,0,0,0,1.641,5.047,5.607,5.607,0,0,0,4.484,1.906A5.471,5.471,0,0,0,126.359-2.8,7.893,7.893,0,0,0,127.922-8a7.885,7.885,0,0,0-1.555-5.25A5.457,5.457,0,0,0,121.969-15.078ZM143.953,0V-2.906h-.062a5.456,5.456,0,0,1-5.156,3.3q-5.672,0-5.672-7.141V-16h1.453v8.891a8.134,8.134,0,0,0,1.07,4.719,3.886,3.886,0,0,0,3.367,1.469,4.5,4.5,0,0,0,3.617-1.641,6.565,6.565,0,0,0,1.383-4.375V-16h1.438V0ZM151.5.281a1.2,1.2,0,0,1-.891-.367,1.236,1.236,0,0,1-.359-.9,1.2,1.2,0,0,1,.359-.9,1.224,1.224,0,0,1,.891-.352,1.277,1.277,0,0,1,.906.352,1.177,1.177,0,0,1,.375.9,1.209,1.209,0,0,1-.375.9A1.248,1.248,0,0,1,151.5.281Zm7.109,0a1.2,1.2,0,0,1-.891-.367,1.236,1.236,0,0,1-.359-.9,1.2,1.2,0,0,1,.359-.9,1.224,1.224,0,0,1,.891-.352,1.277,1.277,0,0,1,.906.352,1.177,1.177,0,0,1,.375.9,1.209,1.209,0,0,1-.375.9A1.248,1.248,0,0,1,158.609.281Zm7.109,0a1.2,1.2,0,0,1-.891-.367,1.236,1.236,0,0,1-.359-.9,1.2,1.2,0,0,1,.359-.9,1.224,1.224,0,0,1,.891-.352,1.277,1.277,0,0,1,.906.352,1.177,1.177,0,0,1,.375.9,1.209,1.209,0,0,1-.375.9A1.248,1.248,0,0,1,165.719.281Z" transform="translate(640 549)" fill="#31313a" stroke="rgba(0,0,0,0)" stroke-width="1"/>
        <g id="Group_264626" data-name="Group 264626" transform="translate(294.042 -158.596)">
          <g id="Group_264594" data-name="Group 264594" transform="translate(90.958 264.103)">
            <g id="Group_14170" data-name="Group 14170">
              <g id="Group_13695" data-name="Group 13695">
                <path id="Path_8993" data-name="Path 8993" d="M525.969,303.781c-43.2-47.691-119-53.161-169.315-12.218a116.684,116.684,0,0,0-16.872,16.857,22.912,22.912,0,0,1-26.867,6c-70.322-30.863-153.724-1.849-186.281,64.806S124.693,524.936,195.016,555.8a145.118,145.118,0,0,0,16.733,6.146,110.313,110.313,0,0,1,49.029,30.219l.74.783c42.327,44.177,114.421,47.468,161.025,7.35,27.988-24.092,41.552-59.771,36.21-95.25-1.256-8.063,3.824-15.8,12.01-18.3,63.362-18.886,98.571-82.884,78.642-142.944a112.481,112.481,0,0,0-23.443-40.019Z" transform="translate(-87.101 -264.103)" fill="#e0e0e5"/>
                <path id="Path_8994" data-name="Path 8994" d="M291.126,306.978c7.054,0,12.775-5.413,12.78-12.1s-5.712-12.109-12.767-12.114-12.775,5.413-12.78,12.1S284.072,306.974,291.126,306.978Zm.012-22.38c5.987,0,10.836,4.606,10.833,10.279s-4.858,10.271-10.843,10.268-10.836-4.606-10.833-10.279,4.856-10.271,10.842-10.269h0Z" transform="translate(-59.058 -260.927)" fill="#e0e0e5"/>
                <path id="Path_8995" data-name="Path 8995" d="M275.055,285.435a6.526,6.526,0,1,0-6.872-6.52A6.7,6.7,0,0,0,275.055,285.435Zm.006-11.19a4.681,4.681,0,1,1-4.937,4.672,4.807,4.807,0,0,1,4.937-4.672Z" transform="translate(-60.79 -262.691)" fill="#e0e0e5"/>
                <path id="Path_8996" data-name="Path 8996" d="M431.507,475.175c-7.055,0-12.778,5.413-12.782,12.1s5.711,12.113,12.766,12.116,12.778-5.412,12.782-12.1v0C444.277,480.6,438.561,475.18,431.507,475.175Zm-.013,22.38a10.567,10.567,0,0,1-10.833-10.279c0-5.673,4.859-10.27,10.844-10.268s10.836,4.606,10.833,10.28h0c0,5.673-4.859,10.27-10.844,10.266Z" transform="translate(-35.165 -228.174)" fill="#e0e0e5"/>
                <path id="Path_8997" data-name="Path 8997" d="M103.736,465.653c-7.054,0-12.775,5.415-12.778,12.1s5.713,12.109,12.767,12.113,12.775-5.413,12.779-12.1-5.713-12.109-12.768-12.114Zm-.012,22.38c-5.987,0-10.836-4.6-10.833-10.279s4.858-10.27,10.844-10.266a10.565,10.565,0,0,1,10.832,10.279h0c0,5.672-4.856,10.27-10.841,10.266Z" transform="translate(-90.958 -229.795)" fill="#e0e0e5"/>
                <path id="Path_8998" data-name="Path 8998" d="M441.806,463.678a6.526,6.526,0,1,0,6.872,6.522A6.7,6.7,0,0,0,441.806,463.678Zm-.007,11.2a4.685,4.685,0,1,1,4.938-4.675h0a4.817,4.817,0,0,1-4.938,4.667Z" transform="translate(-32.407 -230.131)" fill="#e0e0e5"/>
                <path id="Path_8999" data-name="Path 8999" d="M475.006,300.675a6.526,6.526,0,1,0-6.872-6.52A6.7,6.7,0,0,0,475.006,300.675Zm.006-11.191a4.685,4.685,0,1,1-4.934,4.679h0A4.815,4.815,0,0,1,475.011,289.484Z" transform="translate(-26.754 -260.097)" fill="#e0e0e5"/>
                <path id="Path_9000" data-name="Path 9000" d="M207.083,534.33a6.526,6.526,0,1,0,6.872,6.522A6.7,6.7,0,0,0,207.083,534.33Zm-.006,11.2a4.685,4.685,0,1,1,4.935-4.68h0A4.815,4.815,0,0,1,207.077,545.526Z" transform="translate(-72.362 -218.105)" fill="#e0e0e5"/>
              </g>
            </g>
            <path id="Path_101909" data-name="Path 101909" d="M452.136,561.629c-.023,0-.035.012-.047.012l.035-.034A.035.035,0,0,1,452.136,561.629Z" transform="translate(-29.485 -213.462)" fill="#e0e0e5"/>
            <path id="Path_101910" data-name="Path 101910" d="M452.351,561.537a.99.99,0,0,0-.047.1s-.023.012-.082.036c-.059-.025-.094-.036-.094-.036C452.188,561.619,452.258,561.584,452.351,561.537Z" transform="translate(-29.479 -213.473)" fill="#e0e0e5"/>
            <path id="Path_101911" data-name="Path 101911" d="M452.136,561.629c-.023,0-.035.012-.047.012l.035-.034A.035.035,0,0,1,452.136,561.629Z" transform="translate(-29.485 -213.462)" fill="#e0e0e5"/>
            <path id="Path_101912" data-name="Path 101912" d="M452.351,561.537a.99.99,0,0,0-.047.1s-.023.012-.082.036c-.059-.025-.094-.036-.094-.036C452.188,561.619,452.258,561.584,452.351,561.537Z" transform="translate(-29.479 -213.473)" fill="#e0e0e5"/>
            <path id="Path_101913" data-name="Path 101913" d="M452.351,561.537a.99.99,0,0,0-.047.1s-.023.012-.082.036c-.059-.025-.094-.036-.094-.036C452.188,561.619,452.258,561.584,452.351,561.537Z" transform="translate(-29.479 -213.473)" fill="#e0e0e5"/>
            <path id="Path_101914" data-name="Path 101914" d="M452.382,561.537a.99.99,0,0,0-.047.1s-.023.012-.082.036c-.023.012-.07.023-.129.046h-.07l-.012-.01a.675.675,0,0,0-.094-.082c.082.034.117.047.117.047a.035.035,0,0,0,.023-.013.036.036,0,0,0,.023-.012l.035-.034a.035.035,0,0,1,.012.022C452.218,561.619,452.288,561.584,452.382,561.537Z" transform="translate(-29.509 -213.473)" fill="#e0e0e5"/>
            <path id="Path_101915" data-name="Path 101915" d="M452.089,561.651l-.047.048a.675.675,0,0,0-.094-.082c.082.034.117.047.117.047A.035.035,0,0,0,452.089,561.651Z" transform="translate(-29.509 -213.46)" fill="#e0e0e5"/>
            <path id="Path_101916" data-name="Path 101916" d="M452.335,561.641s-.023.012-.082.036a.569.569,0,0,0,.082.035,1.768,1.768,0,0,1-.211.01h-.07l-.012-.01a.675.675,0,0,0-.094-.082c.082.034.117.047.117.047a.035.035,0,0,0,.023-.013.036.036,0,0,0,.023-.012l.035-.034a.035.035,0,0,1,.012.022c.058-.022.129-.057.222-.1A.99.99,0,0,0,452.335,561.641Z" transform="translate(-29.509 -213.473)" fill="#e0e0e5"/>
          </g>
          <g id="Group_264597" data-name="Group 264597" transform="translate(383.516 313.978)">
            <rect id="Rectangle_10235" data-name="Rectangle 10235" width="13.296" height="19.047" rx="2.501" transform="translate(207.503 286.754) rotate(-180)" fill="#515458"/>
            <rect id="Rectangle_10236" data-name="Rectangle 10236" width="13.296" height="22.035" rx="2.374" transform="translate(84.704 298.257) rotate(180)" fill="#515458"/>
            <rect id="Rectangle_10237" data-name="Rectangle 10237" width="13.296" height="22.035" rx="2.118" transform="translate(20.466 279.733) rotate(180)" fill="#515458"/>
            <path id="Path_101917" data-name="Path 101917" d="M340.96,573.235,405.5,590.565V306.723L340.96,324.65Z" transform="translate(-340.96 -306.723)" fill="#696c6f"/>
            <ellipse id="Ellipse_3673" data-name="Ellipse 3673" cx="12.399" cy="28.832" rx="12.399" ry="28.832" transform="translate(11.105 76.42)" fill="#515458"/>
            <path id="Path_101918" data-name="Path 101918" d="M396.109,590.565l152.378-10.756V317.479L396.109,306.723Z" transform="translate(-331.573 -306.723)" fill="url(#linear-gradient)"/>
            <path id="Path_101919" data-name="Path 101919" d="M347.088,562.509l46.809,10.74V317.957l-46.809,11.951Z" transform="translate(-339.917 -304.811)" fill="none" stroke="#515458" stroke-miterlimit="10" stroke-width="1"/>
            <rect id="Rectangle_10238" data-name="Rectangle 10238" width="5.378" height="27.787" rx="1.309" transform="translate(56.171 54.976) rotate(-180)" fill="#8b8d92"/>
            <rect id="Rectangle_10239" data-name="Rectangle 10239" width="5.378" height="27.787" rx="1.309" transform="translate(56.171 156.984) rotate(-180)" fill="#8b8d92"/>
            <rect id="Rectangle_10240" data-name="Rectangle 10240" width="5.378" height="27.787" rx="1.309" transform="translate(56.171 258.993) rotate(-180)" fill="#8b8d92"/>
            <path id="Path_101920" data-name="Path 101920" d="M368.487,399.732c0,11.639-4.057,21.075-9.063,21.075l-9.48-6.9s.418-8.9.418-14.175c0-6.274.174-15.55.174-15.55l8.888-5.525C364.43,378.657,368.487,388.093,368.487,399.732Z" transform="translate(-339.431 -294.479)" fill="#7c7c7b"/>
            <ellipse id="Ellipse_3674" data-name="Ellipse 3674" cx="6.349" cy="15.238" rx="6.349" ry="15.238" transform="translate(5.826 89.485)" fill="#c2c2c4"/>
            <g id="Group_264596" data-name="Group 264596" transform="translate(9.745 84.768)">
              <g id="Group_264595" data-name="Group 264595" clip-path="url(#clip-path)">
                <line id="Line_150" data-name="Line 150" x1="33.445" y2="19.714" transform="translate(-21.488 -0.21)" fill="none" stroke="#c2c2c4" stroke-miterlimit="10" stroke-width="0.5"/>
                <line id="Line_151" data-name="Line 151" x1="35.245" y2="18.454" transform="translate(-21.488 1.049)" fill="none" stroke="#c2c2c4" stroke-miterlimit="10" stroke-width="0.5"/>
                <line id="Line_152" data-name="Line 152" x1="36.338" y2="16.58" transform="translate(-21.184 2.765)" fill="none" stroke="#c2c2c4" stroke-miterlimit="10" stroke-width="0.5"/>
                <line id="Line_153" data-name="Line 153" x1="37.461" y2="14.593" transform="translate(-21.184 4.751)" fill="none" stroke="#c2c2c4" stroke-miterlimit="10" stroke-width="0.5"/>
                <line id="Line_154" data-name="Line 154" x1="38.723" y2="12.717" transform="translate(-21.488 6.787)" fill="none" stroke="#c2c2c4" stroke-miterlimit="10" stroke-width="0.5"/>
                <line id="Line_155" data-name="Line 155" x1="39.509" y2="9.857" transform="translate(-21.488 9.647)" fill="none" stroke="#c2c2c4" stroke-miterlimit="10" stroke-width="0.5"/>
                <line id="Line_156" data-name="Line 156" x1="40.108" y2="7.107" transform="translate(-21.488 12.396)" fill="none" stroke="#c2c2c4" stroke-miterlimit="10" stroke-width="0.5"/>
                <line id="Line_157" data-name="Line 157" x1="40.799" y2="4.31" transform="translate(-22.005 15.248)" fill="none" stroke="#c2c2c4" stroke-miterlimit="10" stroke-width="0.5"/>
                <line id="Line_158" data-name="Line 158" x1="40.589" y2="2.017" transform="translate(-21.35 17.839)" fill="none" stroke="#c2c2c4" stroke-miterlimit="10" stroke-width="0.5"/>
                <line id="Line_159" data-name="Line 159" x1="40.96" y1="0.025" transform="translate(-21.35 19.856)" fill="none" stroke="#c2c2c4" stroke-miterlimit="10" stroke-width="0.5"/>
                <line id="Line_160" data-name="Line 160" x1="41.206" y1="2.265" transform="translate(-21.007 19.857)" fill="none" stroke="#c2c2c4" stroke-miterlimit="10" stroke-width="0.5"/>
                <line id="Line_161" data-name="Line 161" x1="39.953" y1="4.473" transform="translate(-21.007 19.857)" fill="none" stroke="#c2c2c4" stroke-miterlimit="10" stroke-width="0.5"/>
                <line id="Line_162" data-name="Line 162" x1="40.2" y1="6.721" transform="translate(-21.35 19.856)" fill="none" stroke="#c2c2c4" stroke-miterlimit="10" stroke-width="0.5"/>
                <line id="Line_163" data-name="Line 163" x1="39.567" y1="9.619" transform="translate(-21.35 19.856)" fill="none" stroke="#c2c2c4" stroke-miterlimit="10" stroke-width="0.5"/>
                <line id="Line_164" data-name="Line 164" x1="38.821" y1="12.332" transform="translate(-21.35 19.856)" fill="none" stroke="#c2c2c4" stroke-miterlimit="10" stroke-width="0.5"/>
                <line id="Line_165" data-name="Line 165" x1="38.134" y1="15.13" transform="translate(-21.833 19.665)" fill="none" stroke="#c2c2c4" stroke-miterlimit="10" stroke-width="0.5"/>
                <line id="Line_166" data-name="Line 166" x1="37.152" y1="17.694" transform="translate(-22.005 19.558)" fill="none" stroke="#c2c2c4" stroke-miterlimit="10" stroke-width="0.5"/>
                <line id="Line_167" data-name="Line 167" x1="35.343" y1="19.673" transform="translate(-21.833 19.665)" fill="none" stroke="#c2c2c4" stroke-miterlimit="10" stroke-width="0.5"/>
              </g>
            </g>
            <path id="Path_101922" data-name="Path 101922" d="M350.6,410.668c-2.132,0-3.859-5.665-3.859-12.654s1.727-12.652,3.859-12.652Z" transform="translate(-339.977 -293.337)" fill="url(#linear-gradient-2)"/>
            <line id="Line_168" data-name="Line 168" x1="2.589" transform="translate(52.386 30.276)" fill="none" stroke="#515458" stroke-miterlimit="10" stroke-width="1"/>
            <line id="Line_169" data-name="Line 169" x1="2.589" transform="translate(52.386 37.074)" fill="none" stroke="#515458" stroke-miterlimit="10" stroke-width="1"/>
            <line id="Line_170" data-name="Line 170" x1="2.589" transform="translate(52.386 43.871)" fill="none" stroke="#515458" stroke-miterlimit="10" stroke-width="1"/>
            <line id="Line_171" data-name="Line 171" x1="2.589" transform="translate(52.386 50.668)" fill="none" stroke="#515458" stroke-miterlimit="10" stroke-width="1"/>
            <line id="Line_172" data-name="Line 172" x1="2.589" transform="translate(52.386 132.915)" fill="none" stroke="#515458" stroke-miterlimit="10" stroke-width="1"/>
            <line id="Line_173" data-name="Line 173" x1="2.589" transform="translate(52.386 139.712)" fill="none" stroke="#515458" stroke-miterlimit="10" stroke-width="1"/>
            <line id="Line_174" data-name="Line 174" x1="2.589" transform="translate(52.386 146.509)" fill="none" stroke="#515458" stroke-miterlimit="10" stroke-width="1"/>
            <line id="Line_175" data-name="Line 175" x1="2.589" transform="translate(52.386 153.306)" fill="none" stroke="#515458" stroke-miterlimit="10" stroke-width="1"/>
            <line id="Line_176" data-name="Line 176" x1="2.589" transform="translate(52.386 234.903)" fill="none" stroke="#515458" stroke-miterlimit="10" stroke-width="1"/>
            <line id="Line_177" data-name="Line 177" x1="2.589" transform="translate(52.386 241.701)" fill="none" stroke="#515458" stroke-miterlimit="10" stroke-width="1"/>
            <line id="Line_178" data-name="Line 178" x1="2.589" transform="translate(52.386 248.498)" fill="none" stroke="#515458" stroke-miterlimit="10" stroke-width="1"/>
            <line id="Line_179" data-name="Line 179" x1="2.589" transform="translate(52.386 255.295)" fill="none" stroke="#515458" stroke-miterlimit="10" stroke-width="1"/>
          </g>
          <path id="Path_101923" data-name="Path 101923" d="M229.665,553.55H214.85l.078-32.854h14.737Z" transform="translate(21.089 43.678)" fill="#377fc3"/>
          <g id="Group_264598" data-name="Group 264598" transform="translate(211.259 567.805)">
            <path id="Path_101924" data-name="Path 101924" d="M247.048,547.847a24.222,24.222,0,1,1-24.219-24.219A24.218,24.218,0,0,1,247.048,547.847Z" transform="translate(-192.934 -523.628)" fill="#383a44"/>
            <path id="Path_101925" data-name="Path 101925" d="M246.953,547.868a24.222,24.222,0,1,1-24.219-24.219A24.219,24.219,0,0,1,246.953,547.868Z" transform="translate(-192.95 -523.624)" fill="#383a44"/>
            <path id="Path_101926" data-name="Path 101926" d="M246.857,547.888a24.222,24.222,0,1,1-24.218-24.218A24.218,24.218,0,0,1,246.857,547.888Z" transform="translate(-192.967 -523.621)" fill="#383a44"/>
            <path id="Path_101927" data-name="Path 101927" d="M246.762,547.909a24.223,24.223,0,1,1-24.218-24.218A24.218,24.218,0,0,1,246.762,547.909Z" transform="translate(-192.983 -523.617)" fill="#383a44"/>
            <path id="Path_101928" data-name="Path 101928" d="M246.667,547.93a24.223,24.223,0,1,1-24.218-24.218A24.217,24.217,0,0,1,246.667,547.93Z" transform="translate(-192.999 -523.614)" fill="#383a44"/>
            <path id="Path_101929" data-name="Path 101929" d="M246.572,547.951a24.222,24.222,0,1,1-24.218-24.219A24.219,24.219,0,0,1,246.572,547.951Z" transform="translate(-193.015 -523.61)" fill="#383a44"/>
            <path id="Path_101930" data-name="Path 101930" d="M246.477,547.971a24.222,24.222,0,1,1-24.218-24.218A24.219,24.219,0,0,1,246.477,547.971Z" transform="translate(-193.031 -523.607)" fill="#383a44"/>
            <path id="Path_101931" data-name="Path 101931" d="M246.382,547.992a24.223,24.223,0,1,1-24.219-24.218A24.219,24.219,0,0,1,246.382,547.992Z" transform="translate(-193.048 -523.603)" fill="#383a44"/>
            <path id="Path_101932" data-name="Path 101932" d="M246.287,548.013a24.223,24.223,0,1,1-24.219-24.218A24.218,24.218,0,0,1,246.287,548.013Z" transform="translate(-193.064 -523.6)" fill="#383a44"/>
            <path id="Path_101933" data-name="Path 101933" d="M246.192,548.034a24.222,24.222,0,1,1-24.219-24.219A24.218,24.218,0,0,1,246.192,548.034Z" transform="translate(-193.08 -523.596)" fill="#383a44"/>
            <path id="Path_101934" data-name="Path 101934" d="M246.1,548.055a24.222,24.222,0,1,1-24.218-24.219A24.218,24.218,0,0,1,246.1,548.055Z" transform="translate(-193.096 -523.593)" fill="#383a44"/>
            <path id="Path_101935" data-name="Path 101935" d="M246,548.075a24.222,24.222,0,1,1-24.218-24.218A24.218,24.218,0,0,1,246,548.075Z" transform="translate(-193.112 -523.589)" fill="#383a44"/>
            <path id="Path_101936" data-name="Path 101936" d="M245.906,548.1a24.223,24.223,0,1,1-24.218-24.218A24.218,24.218,0,0,1,245.906,548.1Z" transform="translate(-193.129 -523.585)" fill="#383a44"/>
            <path id="Path_101937" data-name="Path 101937" d="M245.811,548.117A24.223,24.223,0,1,1,221.593,523.9,24.218,24.218,0,0,1,245.811,548.117Z" transform="translate(-193.145 -523.582)" fill="#383a44"/>
            <path id="Path_101938" data-name="Path 101938" d="M245.716,548.138A24.222,24.222,0,1,1,221.5,523.919,24.219,24.219,0,0,1,245.716,548.138Z" transform="translate(-193.161 -523.578)" fill="#383a44"/>
            <path id="Path_101939" data-name="Path 101939" d="M245.621,548.158A24.222,24.222,0,1,1,221.4,523.94,24.219,24.219,0,0,1,245.621,548.158Z" transform="translate(-193.177 -523.575)" fill="#383a44"/>
            <path id="Path_101940" data-name="Path 101940" d="M245.526,548.179a24.223,24.223,0,1,1-24.219-24.218A24.219,24.219,0,0,1,245.526,548.179Z" transform="translate(-193.193 -523.571)" fill="#383a44"/>
            <path id="Path_101941" data-name="Path 101941" d="M245.431,548.2a24.223,24.223,0,1,1-24.219-24.218A24.218,24.218,0,0,1,245.431,548.2Z" transform="translate(-193.21 -523.568)" fill="#383a44"/>
            <path id="Path_101942" data-name="Path 101942" d="M245.335,548.221A24.221,24.221,0,1,1,221.117,524,24.217,24.217,0,0,1,245.335,548.221Z" transform="translate(-193.226 -523.564)" fill="#383a44"/>
            <path id="Path_101943" data-name="Path 101943" d="M245.24,548.242a24.222,24.222,0,1,1-24.218-24.219A24.218,24.218,0,0,1,245.24,548.242Z" transform="translate(-193.242 -523.561)" fill="#383a44"/>
            <path id="Path_101944" data-name="Path 101944" d="M245.145,548.262a24.222,24.222,0,1,1-24.218-24.218A24.218,24.218,0,0,1,245.145,548.262Z" transform="translate(-193.258 -523.557)" fill="#383a44"/>
            <path id="Path_101945" data-name="Path 101945" d="M245.05,548.283a24.223,24.223,0,1,1-24.218-24.218A24.219,24.219,0,0,1,245.05,548.283Z" transform="translate(-193.274 -523.554)" fill="#383a44"/>
            <path id="Path_101946" data-name="Path 101946" d="M244.955,548.3a24.223,24.223,0,1,1-24.218-24.218A24.218,24.218,0,0,1,244.955,548.3Z" transform="translate(-193.291 -523.55)" fill="#383a44"/>
            <path id="Path_101947" data-name="Path 101947" d="M244.86,548.325a24.222,24.222,0,1,1-24.219-24.219A24.219,24.219,0,0,1,244.86,548.325Z" transform="translate(-193.307 -523.547)" fill="#383a44"/>
            <path id="Path_101948" data-name="Path 101948" d="M244.765,548.345a24.222,24.222,0,1,1-24.219-24.218A24.219,24.219,0,0,1,244.765,548.345Z" transform="translate(-193.323 -523.543)" fill="#383a44"/>
            <path id="Path_101949" data-name="Path 101949" d="M244.67,548.366a24.223,24.223,0,1,1-24.219-24.218A24.219,24.219,0,0,1,244.67,548.366Z" transform="translate(-193.339 -523.539)" fill="#383a44"/>
            <path id="Path_101950" data-name="Path 101950" d="M244.575,548.387a24.223,24.223,0,1,1-24.219-24.218A24.218,24.218,0,0,1,244.575,548.387Z" transform="translate(-193.355 -523.536)" fill="#383a44"/>
            <path id="Path_101951" data-name="Path 101951" d="M244.479,548.408a24.222,24.222,0,1,1-24.218-24.219A24.217,24.217,0,0,1,244.479,548.408Z" transform="translate(-193.371 -523.532)" fill="#383a44"/>
            <path id="Path_101952" data-name="Path 101952" d="M244.384,548.429a24.222,24.222,0,1,1-24.218-24.219A24.218,24.218,0,0,1,244.384,548.429Z" transform="translate(-193.388 -523.529)" fill="#383a44"/>
            <path id="Path_101953" data-name="Path 101953" d="M244.289,548.449a24.222,24.222,0,1,1-24.218-24.218A24.218,24.218,0,0,1,244.289,548.449Z" transform="translate(-193.404 -523.525)" fill="#383a44"/>
            <path id="Path_101954" data-name="Path 101954" d="M244.194,548.47a24.223,24.223,0,1,1-24.218-24.218A24.219,24.219,0,0,1,244.194,548.47Z" transform="translate(-193.42 -523.522)" fill="#383a44"/>
            <path id="Path_101955" data-name="Path 101955" d="M244.1,548.491a24.223,24.223,0,1,1-24.218-24.218A24.218,24.218,0,0,1,244.1,548.491Z" transform="translate(-193.436 -523.518)" fill="#383a44"/>
            <path id="Path_101956" data-name="Path 101956" d="M244,548.512a24.222,24.222,0,1,1-24.219-24.219A24.219,24.219,0,0,1,244,548.512Z" transform="translate(-193.452 -523.515)" fill="#383a44"/>
            <path id="Path_101957" data-name="Path 101957" d="M243.909,548.533a24.222,24.222,0,1,1-24.219-24.219A24.219,24.219,0,0,1,243.909,548.533Z" transform="translate(-193.469 -523.511)" fill="#383a44"/>
            <path id="Path_101958" data-name="Path 101958" d="M243.814,548.553a24.223,24.223,0,1,1-24.219-24.218A24.219,24.219,0,0,1,243.814,548.553Z" transform="translate(-193.485 -523.508)" fill="#383a44"/>
            <path id="Path_101959" data-name="Path 101959" d="M243.717,548.574A24.223,24.223,0,1,1,219.5,524.356,24.217,24.217,0,0,1,243.717,548.574Z" transform="translate(-193.501 -523.504)" fill="#383a44"/>
            <path id="Path_101960" data-name="Path 101960" d="M243.623,548.595A24.222,24.222,0,1,1,219.4,524.376,24.217,24.217,0,0,1,243.623,548.595Z" transform="translate(-193.517 -523.501)" fill="#383a44"/>
            <path id="Path_101961" data-name="Path 101961" d="M243.528,548.616A24.222,24.222,0,1,1,219.31,524.4,24.218,24.218,0,0,1,243.528,548.616Z" transform="translate(-193.533 -523.497)" fill="#383a44"/>
            <path id="Path_101962" data-name="Path 101962" d="M243.433,548.636a24.222,24.222,0,1,1-24.218-24.218A24.219,24.219,0,0,1,243.433,548.636Z" transform="translate(-193.55 -523.494)" fill="#383a44"/>
            <path id="Path_101963" data-name="Path 101963" d="M243.338,548.657a24.223,24.223,0,1,1-24.218-24.218A24.219,24.219,0,0,1,243.338,548.657Z" transform="translate(-193.566 -523.49)" fill="#383a44"/>
            <path id="Path_101964" data-name="Path 101964" d="M243.243,548.678a24.223,24.223,0,1,1-24.219-24.218A24.218,24.218,0,0,1,243.243,548.678Z" transform="translate(-193.582 -523.486)" fill="#383a44"/>
            <path id="Path_101965" data-name="Path 101965" d="M243.148,548.7a24.222,24.222,0,1,1-24.219-24.219A24.218,24.218,0,0,1,243.148,548.7Z" transform="translate(-193.598 -523.483)" fill="#383a44"/>
            <path id="Path_101966" data-name="Path 101966" d="M243.053,548.72A24.222,24.222,0,1,1,218.834,524.5,24.219,24.219,0,0,1,243.053,548.72Z" transform="translate(-193.614 -523.479)" fill="#383a44"/>
            <path id="Path_101967" data-name="Path 101967" d="M242.958,548.74a24.223,24.223,0,1,1-24.219-24.218A24.219,24.219,0,0,1,242.958,548.74Z" transform="translate(-193.63 -523.476)" fill="#383a44"/>
            <path id="Path_101968" data-name="Path 101968" d="M242.861,548.761a24.223,24.223,0,1,1-24.218-24.218A24.217,24.217,0,0,1,242.861,548.761Z" transform="translate(-193.647 -523.472)" fill="#383a44"/>
            <path id="Path_101969" data-name="Path 101969" d="M242.767,548.782a24.222,24.222,0,1,1-24.218-24.219A24.217,24.217,0,0,1,242.767,548.782Z" transform="translate(-193.663 -523.469)" fill="#383a44"/>
            <path id="Path_101970" data-name="Path 101970" d="M242.672,548.8a24.222,24.222,0,1,1-24.218-24.219A24.218,24.218,0,0,1,242.672,548.8Z" transform="translate(-193.679 -523.465)" fill="#383a44"/>
            <path id="Path_101971" data-name="Path 101971" d="M242.577,548.823A24.222,24.222,0,1,1,218.359,524.6,24.219,24.219,0,0,1,242.577,548.823Z" transform="translate(-193.695 -523.462)" fill="#383a44"/>
            <path id="Path_101972" data-name="Path 101972" d="M242.482,548.844a24.223,24.223,0,1,1-24.218-24.218A24.219,24.219,0,0,1,242.482,548.844Z" transform="translate(-193.711 -523.458)" fill="#383a44"/>
            <path id="Path_101973" data-name="Path 101973" d="M242.387,548.865a24.223,24.223,0,1,1-24.219-24.218A24.218,24.218,0,0,1,242.387,548.865Z" transform="translate(-193.728 -523.455)" fill="#383a44"/>
            <path id="Path_101974" data-name="Path 101974" d="M242.292,548.886a24.222,24.222,0,1,1-24.219-24.219A24.218,24.218,0,0,1,242.292,548.886Z" transform="translate(-193.744 -523.451)" fill="#383a44"/>
            <path id="Path_101975" data-name="Path 101975" d="M242.2,548.907a24.222,24.222,0,1,1-24.219-24.219A24.219,24.219,0,0,1,242.2,548.907Z" transform="translate(-193.76 -523.448)" fill="#383a44"/>
          </g>
          <path id="Path_101976" data-name="Path 101976" d="M270.833,388.976,232.8,407.714V537.682L270.756,514.1Z" transform="translate(24.145 21.256)" fill="#91bbe4"/>
          <path id="Path_101977" data-name="Path 101977" d="M222.616,523.618H207.879l5.872-3.323,17.1.418Z" transform="translate(19.903 43.61)" fill="#619cd4"/>
          <path id="Path_101978" data-name="Path 101978" d="M211.877,509.33v13.3c0,1.148,3.428,2.079,7.657,2.079s7.656-.932,7.656-2.079v-13.3Z" transform="translate(20.583 41.743)" fill="#1763ae"/>
          <path id="Path_101979" data-name="Path 101979" d="M227.15,519.4l.048-10.071H211.825v6.819Z" transform="translate(20.574 41.743)" fill="#040505" opacity="0.1" style="isolation: isolate"/>
          <line id="Line_180" data-name="Line 180" y1="43.184" transform="translate(267.76 472.222)" fill="none" stroke="#032441" stroke-linecap="round" stroke-miterlimit="10" stroke-width="0.5"/>
          <line id="Line_181" data-name="Line 181" y1="41.508" transform="translate(277.139 468.149)" fill="none" stroke="#032441" stroke-linecap="round" stroke-miterlimit="10" stroke-width="0.5"/>
          <line id="Line_182" data-name="Line 182" y1="42.921" transform="translate(284.76 462.549)" fill="none" stroke="#032441" stroke-linecap="round" stroke-miterlimit="10" stroke-width="0.5"/>
          <path id="Path_101980" data-name="Path 101980" d="M211.877,515.032v6.629c0,1.148,3.428,2.079,7.657,2.079s7.656-.932,7.656-2.079v-6.629Z" transform="translate(20.583 42.714)" opacity="0.1" fill="url(#linear-gradient-3)" style="isolation: isolate"/>
          <path id="Path_101981" data-name="Path 101981" d="M170.409,407.71h73.016l38.028-18.636L205.178,389Z" transform="translate(13.524 21.26)" fill="#619cd4"/>
          <path id="Path_101982" data-name="Path 101982" d="M243.481,534.817h-73.4l.386-129.828h73.016Z" transform="translate(13.468 23.982)" fill="#377fc3"/>
          <path id="Path_101983" data-name="Path 101983" d="M170.409,407.76l68.876-.063-23.414-12.522L205.178,389Z" transform="translate(13.524 21.26)" fill="#040505" opacity="0.05" style="isolation: isolate"/>
          <path id="Path_101984" data-name="Path 101984" d="M174.585,334.674l72.286,10.3,40.276-13.086-75.5-10.83Z" transform="translate(14.235 9.695)" fill="#619cd4"/>
          <path id="Path_101985" data-name="Path 101985" d="M278.017,330.224l-40.291,13.187-9.417,66.109,40.9-18Z" transform="translate(23.38 11.255)" fill="#91bbe4"/>
          <path id="Path_101986" data-name="Path 101986" d="M267.445,408.286l-32.113,16.333.443,89.049,32.037-21.179Z" transform="translate(24.576 24.543)" fill="none" stroke="#619cd4" stroke-miterlimit="10" stroke-width="1"/>
          <rect id="Rectangle_10241" data-name="Rectangle 10241" width="15.364" height="13.088" transform="translate(232.878 408.73)" fill="#1763ae"/>
          <path id="Path_101987" data-name="Path 101987" d="M227.551,397.763l.048-10.071H212.226v6.819Z" transform="translate(20.642 21.038)" fill="#040505" opacity="0.1" style="isolation: isolate"/>
          <ellipse id="Ellipse_3675" data-name="Ellipse 3675" cx="7.682" cy="2.08" rx="7.682" ry="2.08" transform="translate(232.929 419.952)" fill="#1763ae"/>
          <path id="Path_101988" data-name="Path 101988" d="M212.273,400.837h0a.424.424,0,0,0,0,.109c0,1.148,3.443,2.079,7.681,2.079s7.683-.932,7.683-2.079a.424.424,0,0,0,0-.109h0V387.749H212.271Z" transform="translate(20.65 21.047)" fill="#040505" opacity="0.1" style="isolation: isolate"/>
          <path id="Path_101989" data-name="Path 101989" d="M238.9,408.961l-72.669-10.352,9.78-65.916,72.286,10.3Z" transform="translate(12.813 11.676)" fill="#377fc3"/>
          <path id="Path_101990" data-name="Path 101990" d="M272.552,339.383l-34.5,11.005-2.622,14.092-1.335,15.573L269.1,365l2.252-12.1Z" transform="translate(24.365 12.814)" fill="#f1f2f4"/>
          <path id="Path_101991" data-name="Path 101991" d="M272.552,339.383l-34.5,11.005-2.622,14.092-1.335,15.573,5.269-28.445Z" transform="translate(24.365 12.814)" fill="#424242" opacity="0.1" style="isolation: isolate"/>
          <ellipse id="Ellipse_3676" data-name="Ellipse 3676" cx="14.975" cy="14.323" rx="14.975" ry="14.323" transform="translate(203.252 367.695)" fill="#1763ae"/>
          <ellipse id="Ellipse_3677" data-name="Ellipse 3677" cx="14.975" cy="14.323" rx="14.975" ry="14.323" transform="translate(203.252 367.695)" fill="#040505" opacity="0.1" style="isolation: isolate"/>
          <circle id="Ellipse_3678" data-name="Ellipse 3678" cx="13.884" cy="13.884" r="13.884" transform="translate(203.588 367.695)" fill="#fff" stroke="#9e9fae" stroke-miterlimit="10" stroke-width="0.25"/>
          <g id="Group_264599" data-name="Group 264599" transform="translate(207.146 373.261)">
            <path id="Path_101992" data-name="Path 101992" d="M199.84,370.454l-9.595-1.594,7.932-8.665-5.755-.956,1.253-1.856,8.549,1.42-7.932,8.664,6.79,1.128Z" transform="translate(-190.245 -357.383)" fill="#5ea732"/>
            <path id="Path_101993" data-name="Path 101993" d="M208,367.427l-2.137-8-3.618-.6,2.116,8-4.588,6.883,3.618.6Z" transform="translate(-188.623 -357.137)" fill="#5ea732"/>
          </g>
          <path id="Path_101994" data-name="Path 101994" d="M262.864,354.834c-.871,5.117-3.06,9.051-4.818,8.812s-2.539-4.608-1.669-9.726,3.061-9.052,4.825-8.811a2.107,2.107,0,0,1,1.43,1.525c.1.26-1.1,2.305-1.031,2.619s1.493-.941,1.514-.507A21.658,21.658,0,0,1,262.864,354.834Z" transform="translate(28.097 13.787)" fill="#131416"/>
          <path id="Path_101995" data-name="Path 101995" d="M249.333,360.239c-.872,5.117-3.061,9.052-4.819,8.812s-2.539-4.608-1.668-9.726,3.06-9.052,4.824-8.811a2.107,2.107,0,0,1,1.43,1.526c.1.259-1.1,2.305-1.031,2.618s1.493-.94,1.515-.507A21.743,21.743,0,0,1,249.333,360.239Z" transform="translate(25.794 14.707)" fill="#131416"/>
          <ellipse id="Ellipse_3679" data-name="Ellipse 3679" cx="3.001" cy="0.959" rx="3.001" ry="0.959" transform="translate(269.076 374.255) rotate(-76.393)" fill="#383a44"/>
          <ellipse id="Ellipse_3680" data-name="Ellipse 3680" cx="3.001" cy="0.959" rx="3.001" ry="0.959" transform="translate(285.285 367.903) rotate(-76.393)" fill="#383a44"/>
          <path id="Path_101996" data-name="Path 101996" d="M246.741,379.763c-1.533,1.731-.865,3.348.626,2.3s4.085-3.559,6.106-3.735,3.679-.627,3.171-1.522S248.273,378.033,246.741,379.763Z" transform="translate(26.369 19.148)" fill="#131416"/>
          <ellipse id="Ellipse_3681" data-name="Ellipse 3681" cx="0.775" cy="3.463" rx="0.775" ry="3.463" transform="matrix(0.032, -0.999, 0.999, 0.032, 239.694, 343.663)" fill="#377fc3"/>
          <rect id="Rectangle_10242" data-name="Rectangle 10242" width="1.491" height="6.927" transform="matrix(0.032, -0.999, 0.999, 0.032, 239.728, 342.898)" fill="#377fc3"/>
          <ellipse id="Ellipse_3682" data-name="Ellipse 3682" cx="0.775" cy="3.463" rx="0.775" ry="3.463" transform="matrix(0.032, -0.999, 0.999, 0.032, 239.741, 342.182)" fill="#91bbe4"/>
          <path id="Path_101997" data-name="Path 101997" d="M216.317,319.8l.009.02v-.02Z" transform="translate(21.339 9.48)" fill="#63657a"/>
          <path id="Path_101998" data-name="Path 101998" d="M220.519,334.055l-.006.186a1.434,1.434,0,0,0,.8.183c.607.019.759-.133.759-.133l5.53-11.918h0l-4.078-14.118-1.467.179,4.007,13.869Z" transform="translate(22.053 7.516)" fill="#63657a"/>
          <path id="Path_101999" data-name="Path 101999" d="M216.316,319.833h.01v-.02Z" transform="translate(21.339 9.483)" fill="#63657a"/>
          <path id="Path_102000" data-name="Path 102000" d="M222.445,310.688l-.654-2.289,1.467-.179.593,2.051a2.862,2.862,0,0,1-.834.327A3.392,3.392,0,0,1,222.445,310.688Z" transform="translate(22.271 7.51)" fill="#040505" opacity="0.1" style="isolation: isolate"/>
          <path id="Path_102001" data-name="Path 102001" d="M221.923,310.635h0l-.872-3.443,2.315-.575.872,3.472h0c-.006.177-.475.418-1.068.565s-1.114.151-1.206-.037h0Z" transform="translate(22.145 7.237)" fill="#377fc3"/>
          <ellipse id="Ellipse_3683" data-name="Ellipse 3683" cx="1.197" cy="0.314" rx="1.197" ry="0.314" transform="matrix(0.97, -0.242, 0.242, 0.97, 243.107, 314.008)" fill="#1763ae"/>
          <circle id="Ellipse_3684" data-name="Ellipse 3684" cx="24.218" cy="24.218" r="24.218" transform="translate(211.259 569.045)" fill="#24252c"/>
          <path id="Path_102002" data-name="Path 102002" d="M186.212,570.749" transform="translate(16.214 52.198)" fill="#24252c"/>
          <path id="Path_102003" data-name="Path 102003" d="M222.627,555.989H207.812l.078-32.854h14.737Z" transform="translate(19.891 44.093)" fill="#377fc3"/>
          <ellipse id="Ellipse_3685" data-name="Ellipse 3685" cx="2.879" cy="2.754" rx="2.879" ry="2.754" transform="translate(232.598 589.27)" fill="#1763ae"/>
          <ellipse id="Ellipse_3686" data-name="Ellipse 3686" cx="2.879" cy="2.754" rx="2.879" ry="2.754" transform="translate(232.598 589.27)" fill="#040505" opacity="0.1" style="isolation: isolate"/>
          <circle id="Ellipse_3687" data-name="Ellipse 3687" cx="2.401" cy="2.401" r="2.401" transform="translate(232.596 589.583)" fill="#1763ae"/>
          <g id="Group_264600" data-name="Group 264600" transform="translate(264.116 458.537)">
            <path id="Path_102004" data-name="Path 102004" d="M239.361,432.742l4.523-2.289-.358-.2-4.572,2.243Z" transform="translate(-238.924 -430.254)" fill="#981e19"/>
            <path id="Path_102005" data-name="Path 102005" d="M239.366,437.556v-5.14l-.407-.245-.031,5.256Z" transform="translate(-238.928 -429.928)" fill="#981e19"/>
            <path id="Path_102006" data-name="Path 102006" d="M243.825,430.424l-4.523,2.289v5.14l4.523-2.312Z" transform="translate(-238.864 -430.225)" fill="#cc261b"/>
          </g>
          <path id="Path_102007" data-name="Path 102007" d="M243.2,458.8l-2.337.772a1.093,1.093,0,0,0-.75,1.038v1.051a1.094,1.094,0,0,0,1.439,1.037l2.337-.781a1.094,1.094,0,0,0,.747-1.037V459.84A1.093,1.093,0,0,0,243.2,458.8Z" transform="translate(25.389 33.132)" fill="#040505" opacity="0.1" style="isolation: isolate"/>
          <path id="Path_102008" data-name="Path 102008" d="M251.212,455.62l-2.338.772a1.094,1.094,0,0,0-.749,1.038v1.051a1.092,1.092,0,0,0,1.438,1.036l2.338-.781a1.092,1.092,0,0,0,.747-1.036v-1.043A1.093,1.093,0,0,0,251.212,455.62Z" transform="translate(26.753 32.591)" fill="#040505" opacity="0.1" style="isolation: isolate"/>
          <path id="Path_102009" data-name="Path 102009" d="M257.552,448.471l-2.337.772a1.093,1.093,0,0,0-.75,1.038v1.051a1.094,1.094,0,0,0,1.439,1.037l2.337-.782a1.092,1.092,0,0,0,.747-1.036v-1.043A1.093,1.093,0,0,0,257.552,448.471Z" transform="translate(27.833 31.374)" fill="#040505" opacity="0.1" style="isolation: isolate"/>
          <path id="Path_102010" data-name="Path 102010" d="M243.384,458.18l-2.337.772a1.092,1.092,0,0,0-.75,1.037v1.051a1.093,1.093,0,0,0,1.439,1.037l2.337-.781a1.093,1.093,0,0,0,.747-1.037v-1.043A1.093,1.093,0,0,0,243.384,458.18Z" transform="translate(25.421 33.027)" fill="#e0e0e4"/>
          <path id="Path_102011" data-name="Path 102011" d="M243.671,458.392l-2.337.773a1.092,1.092,0,0,0-.75,1.037v1.051a1.093,1.093,0,0,0,1.439,1.037l2.337-.781a1.094,1.094,0,0,0,.747-1.037V459.43A1.093,1.093,0,0,0,243.671,458.392Z" transform="translate(25.47 33.063)" fill="#9e9fae"/>
          <path id="Path_102012" data-name="Path 102012" d="M251.331,455.137l-2.337.772a1.093,1.093,0,0,0-.75,1.038V458a1.092,1.092,0,0,0,1.438,1.036l2.338-.781a1.092,1.092,0,0,0,.747-1.036v-1.043A1.093,1.093,0,0,0,251.331,455.137Z" transform="translate(26.774 32.509)" fill="#e0e0e4"/>
          <path id="Path_102013" data-name="Path 102013" d="M251.618,455.35l-2.337.772a1.092,1.092,0,0,0-.75,1.038v1.05a1.093,1.093,0,0,0,1.439,1.037l2.337-.781a1.093,1.093,0,0,0,.747-1.037v-1.043A1.093,1.093,0,0,0,251.618,455.35Z" transform="translate(26.822 32.545)" fill="#9e9fae"/>
          <path id="Path_102014" data-name="Path 102014" d="M257.724,447.839l-2.338.772a1.094,1.094,0,0,0-.749,1.038V450.7a1.093,1.093,0,0,0,1.438,1.037l2.338-.781a1.094,1.094,0,0,0,.747-1.037v-1.043A1.093,1.093,0,0,0,257.724,447.839Z" transform="translate(27.862 31.266)" fill="#e0e0e4"/>
          <path id="Path_102015" data-name="Path 102015" d="M258.011,448.052l-2.337.772a1.093,1.093,0,0,0-.75,1.038v1.051a1.092,1.092,0,0,0,1.438,1.036l2.338-.781a1.092,1.092,0,0,0,.747-1.036v-1.044A1.093,1.093,0,0,0,258.011,448.052Z" transform="translate(27.911 31.303)" fill="#9e9fae"/>
          <g id="Group_264601" data-name="Group 264601" transform="translate(271.758 454.922)">
            <path id="Path_102016" data-name="Path 102016" d="M245.892,429.652l4.523-2.289-.358-.2-4.572,2.243Z" transform="translate(-245.454 -427.165)" fill="#981e19"/>
            <path id="Path_102017" data-name="Path 102017" d="M245.9,434.466v-5.14l-.407-.245-.031,5.256Z" transform="translate(-245.459 -426.839)" fill="#981e19"/>
            <path id="Path_102018" data-name="Path 102018" d="M250.356,427.335l-4.523,2.289v5.14l4.523-2.312Z" transform="translate(-245.395 -427.136)" fill="#cc261b"/>
          </g>
          <g id="Group_264602" data-name="Group 264602" transform="translate(278.357 451.769)">
            <path id="Path_102019" data-name="Path 102019" d="M251.531,426.958l4.523-2.289-.358-.2-4.572,2.243Z" transform="translate(-251.093 -424.471)" fill="#981e19"/>
            <path id="Path_102020" data-name="Path 102020" d="M251.535,431.772v-5.14l-.407-.245-.031,5.256Z" transform="translate(-251.098 -424.144)" fill="#981e19"/>
            <path id="Path_102021" data-name="Path 102021" d="M255.995,424.64l-4.523,2.289v5.14l4.523-2.312Z" transform="translate(-251.034 -424.442)" fill="#cc261b"/>
          </g>
          <g id="Group_264603" data-name="Group 264603" transform="translate(284.956 448.273)">
            <path id="Path_102022" data-name="Path 102022" d="M257.17,423.971l4.523-2.289-.358-.2-4.572,2.243Z" transform="translate(-256.732 -421.483)" fill="#981e19"/>
            <path id="Path_102023" data-name="Path 102023" d="M257.174,428.785v-5.14l-.407-.245-.031,5.256Z" transform="translate(-256.737 -421.157)" fill="#981e19"/>
            <path id="Path_102024" data-name="Path 102024" d="M261.634,421.653l-4.523,2.289v5.14l4.523-2.312Z" transform="translate(-256.673 -421.454)" fill="#cc261b"/>
          </g>
          <g id="Group_264624" data-name="Group 264624" transform="translate(208.508 404.39)">
            <path id="Path_102025" data-name="Path 102025" d="M209.5,423.314a18.3,18.3,0,0,1,2.794-8.128,9.02,9.02,0,0,0-2.027-.5l-8.794-1.092a8.96,8.96,0,0,0-2.212,17.783l8.793,1.092a8.58,8.58,0,0,0,2.4-.032A17.582,17.582,0,0,1,209.5,423.314Z" transform="translate(-191.409 -378.955)" fill="#1763ae"/>
            <g id="Group_264604" data-name="Group 264604" transform="translate(18.061 15.308)">
              <path id="Path_102026" data-name="Path 102026" d="M269.047,430.6c-27.034,4.6-61.219,4.643-61.219,4.643s-3.162-8.89,1.841-17.253c0,0,42.175-.95,58.918-2.666s70.27-18.257,70.27-18.257L341,409.019A320.772,320.772,0,0,1,269.047,430.6Z" transform="translate(-206.843 -397.065)" fill="#bebfc7"/>
            </g>
            <path id="Path_102027" data-name="Path 102027" d="M233.9,418.331Z" transform="translate(-184.176 -378.137)" fill="#040505"/>
            <g id="Group_264605" data-name="Group 264605" transform="translate(136.641 18.584)">
              <path id="Path_102028" data-name="Path 102028" d="M310.709,413.868l-1.307.5s-.8-.913-1.17-7.285,1.17-6.826,1.17-6.826l1.307-.389s-1.531.693-1.17,7.042S310.709,413.868,310.709,413.868Z" transform="translate(-308.174 -399.865)" fill="url(#linear-gradient-4)"/>
            </g>
            <g id="Group_264606" data-name="Group 264606" transform="translate(142.517 16.904)">
              <path id="Path_102029" data-name="Path 102029" d="M315.527,411.909l-1.307.51s-.6-.4-.968-6.776,1.17-6.826,1.17-6.826l1.308-.388s-1.532.693-1.17,7.042S315.527,411.909,315.527,411.909Z" transform="translate(-313.195 -398.429)" fill="url(#linear-gradient-5)"/>
            </g>
            <g id="Group_264607" data-name="Group 264607" transform="translate(146.092 16.267)">
              <path id="Path_102030" data-name="Path 102030" d="M319.142,409.909l-.667.158a34.209,34.209,0,0,1-1.992-5.691,15.791,15.791,0,0,1,.288-6.4l.321-.091a11.573,11.573,0,0,0-.238,6.518C317.755,408.415,319.142,409.909,319.142,409.909Z" transform="translate(-316.25 -397.885)" fill="#040505" opacity="0.1"/>
            </g>
            <g id="Group_264608" data-name="Group 264608" transform="translate(130.74 20.32)">
              <path id="Path_102031" data-name="Path 102031" d="M305.707,415.53l-1.307.5s-.841-1.092-1.211-7.464,1.17-6.826,1.17-6.826l1.308-.389s-1.532.693-1.17,7.042S305.707,415.53,305.707,415.53Z" transform="translate(-303.131 -401.348)" fill="url(#linear-gradient-4)"/>
            </g>
            <g id="Group_264609" data-name="Group 264609" transform="translate(124.056 22.255)">
              <path id="Path_102032" data-name="Path 102032" d="M300.24,417.7l-1.308.391s-1.086-1.5-1.456-7.874,1.17-6.827,1.17-6.827l1.307-.389s-1.531.694-1.17,7.042S300.24,417.7,300.24,417.7Z" transform="translate(-297.419 -403.002)" fill="url(#linear-gradient-7)"/>
            </g>
            <g id="Group_264610" data-name="Group 264610" transform="translate(117.183 24.201)">
              <path id="Path_102033" data-name="Path 102033" d="M294.53,419.617l-1.307.392s-1.25-1.758-1.62-8.13,1.17-6.826,1.17-6.826l1.308-.389s-1.532.693-1.17,7.042S294.53,419.617,294.53,419.617Z" transform="translate(-291.546 -404.665)" fill="url(#linear-gradient-4)"/>
            </g>
            <g id="Group_264611" data-name="Group 264611" transform="translate(109.136 26.418)">
              <path id="Path_102034" data-name="Path 102034" d="M287.653,421.685l-1.308.392s-1.249-1.758-1.618-8.128,1.207-7.04,1.207-7.04l1.3-.35s-1.558.868-1.2,7.218S287.653,421.685,287.653,421.685Z" transform="translate(-284.67 -406.559)" fill="url(#linear-gradient-5)"/>
            </g>
            <g id="Group_264612" data-name="Group 264612" transform="translate(101.817 28.36)">
              <path id="Path_102035" data-name="Path 102035" d="M281.422,423.392l-1.333.345s-1.249-1.758-1.618-8.128,1.206-7.041,1.206-7.041l1.3-.349s-1.558.868-1.2,7.217S281.422,423.392,281.422,423.392Z" transform="translate(-278.415 -408.219)" fill="url(#linear-gradient-7)"/>
            </g>
            <g id="Group_264613" data-name="Group 264613" transform="translate(93.687 30.375)">
              <path id="Path_102036" data-name="Path 102036" d="M274.5,425.09l-1.362.315s-1.249-1.758-1.618-8.128,1.207-7.041,1.207-7.041l1.294-.294s-1.554.813-1.194,7.162S274.5,425.09,274.5,425.09Z" transform="translate(-271.468 -409.941)" fill="url(#linear-gradient-5)"/>
            </g>
            <g id="Group_264614" data-name="Group 264614" transform="translate(86.106 32.073)">
              <path id="Path_102037" data-name="Path 102037" d="M268,426.5l-1.39.28s-1.2-1.682-1.566-8.052,1.244-7.075,1.244-7.075l1.257-.26s-1.554.813-1.192,7.163S268,426.5,268,426.5Z" transform="translate(-264.99 -411.392)" fill="url(#linear-gradient-4)"/>
            </g>
            <g id="Group_264615" data-name="Group 264615" transform="translate(77.964 33.486)">
              <path id="Path_102038" data-name="Path 102038" d="M261.3,427.785l-1.512.26s-1.336-1.863-1.705-8.234,1.244-7.075,1.244-7.075l1.254-.137s-1.553.69-1.191,7.039S261.3,427.785,261.3,427.785Z" transform="translate(-258.032 -412.599)" fill="url(#linear-gradient-13)"/>
            </g>
            <g id="Group_264616" data-name="Group 264616" transform="translate(69.733 34.186)">
              <path id="Path_102039" data-name="Path 102039" d="M254.486,428.931l-1.473.2s-1.59-2.413-1.96-8.784,1.244-7.075,1.244-7.075l1.236-.073s-1.533.626-1.171,6.975S254.486,428.931,254.486,428.931Z" transform="translate(-250.998 -413.197)" fill="url(#linear-gradient-5)"/>
            </g>
            <g id="Group_264617" data-name="Group 264617" transform="translate(59.669 34.774)">
              <path id="Path_102040" data-name="Path 102040" d="M246.174,430.023l-1.514.151s-1.837-2.971-2.207-9.342,1.244-7.075,1.244-7.075l1.225-.057s-1.522.611-1.162,6.96S246.174,430.023,246.174,430.023Z" transform="translate(-242.398 -413.7)" fill="url(#linear-gradient-5)"/>
            </g>
            <g id="Group_264618" data-name="Group 264618" transform="translate(49.074 35.24)">
              <path id="Path_102041" data-name="Path 102041" d="M237.313,430.9l-1.534.123s-2.01-3.418-2.38-9.789,1.244-7.075,1.244-7.075l1.226-.057s-1.524.611-1.162,6.96S237.313,430.9,237.313,430.9Z" transform="translate(-233.344 -414.098)" fill="url(#linear-gradient-5)"/>
            </g>
            <g id="Group_264619" data-name="Group 264619" transform="translate(40.16 35.574)">
              <path id="Path_102042" data-name="Path 102042" d="M229.868,431.44l-1.644.092a24.712,24.712,0,0,1-2.442-10.016c-.37-6.371,1.244-7.075,1.244-7.075l1.226-.059s-1.524.612-1.162,6.96A22.292,22.292,0,0,0,229.868,431.44Z" transform="translate(-225.727 -414.383)" fill="url(#linear-gradient-5)"/>
            </g>
            <g id="Group_264620" data-name="Group 264620" transform="translate(27.331 35.995)">
              <path id="Path_102043" data-name="Path 102043" d="M219.056,431.96l-1.693.071a24.814,24.814,0,0,1-2.544-10.151c-.37-6.372,1.252-7.109,1.252-7.109l1.231-.029s-1.536.617-1.175,6.965A22.332,22.332,0,0,0,219.056,431.96Z" transform="translate(-214.764 -414.743)" fill="url(#linear-gradient-4)"/>
            </g>
            <g id="Group_264621" data-name="Group 264621" transform="translate(17.8 27.895)" opacity="0.1" style="isolation: isolate">
              <path id="Path_102044" data-name="Path 102044" d="M268.936,428.766c-27.034,4.6-61.219,4.643-61.219,4.643a20.233,20.233,0,0,1,.037-13.289s21.883,6.922,57.169,3.247,74.547-15.546,74.547-15.546A311.985,311.985,0,0,1,268.936,428.766Z" transform="translate(-206.619 -407.821)" fill="#040505"/>
            </g>
            <g id="Group_264622" data-name="Group 264622" transform="translate(146.382)">
              <path id="Path_102045" data-name="Path 102045" d="M351.735,411.234l-4.9-6.066-1.649-.489L349.5,410.9c-5.5,2.349-9.8,1.329-14.587-.793C340.03,413.329,346.65,414.5,351.735,411.234Z" transform="translate(-313.362 -380.461)" fill="#9e9fae"/>
              <path id="Path_102046" data-name="Path 102046" d="M334.923,401.548h0c-.625-4-5.067-6.648-9.847-5.893l-4.78.755-.241.04a10.869,10.869,0,0,0-2.626.807,11.87,11.87,0,0,0-.671,7.081A11.449,11.449,0,0,0,319.712,411a10.565,10.565,0,0,0,2.621-.033h0l4.944-.775C332.133,409.42,335.553,405.535,334.923,401.548Z" transform="translate(-316.497 -382.019)" fill="#808294"/>
              <path id="Path_102047" data-name="Path 102047" d="M334.785,398.144c-.509,4.49,1.856,8.47,6.346,8.979a11.221,11.221,0,0,0,4.093-.09c-.287,0-.658-.1-.943-.128a8.23,8.23,0,0,1-1.442-16.065A8.182,8.182,0,0,0,334.785,398.144Z" transform="translate(-313.396 -382.817)" fill="#6c6d7a"/>
              <path id="Path_102048" data-name="Path 102048" d="M346.29,408.089a14.7,14.7,0,0,1-4.189.068,8.23,8.23,0,0,1,2.555-16.2c.454.034,1.369.218,1.369.218l-.425-7.536s-5.465.153-8.087,1.366a15.6,15.6,0,0,0,10.5,29.246c.874-.231,2.591-.933,2.591-.933Z" transform="translate(-314.462 -383.873)" fill="#808294"/>
              <path id="Path_102049" data-name="Path 102049" d="M345.557,383.984l.16,8.538-1.171-.281-.2-7.493c-7.869.768-8.513,1.57-8.513,1.57A29.559,29.559,0,0,1,345.557,383.984Z" transform="translate(-313.206 -383.984)" fill="#9e9fae"/>
            </g>
            <g id="Group_264623" data-name="Group 264623" transform="translate(17.89 36.194)">
              <path id="Path_102050" data-name="Path 102050" d="M210.165,432.168l-2.311.034a17.84,17.84,0,0,1-.8-10.115,20.715,20.715,0,0,1,2.731-7.144l1.231-.029s-1.684,1.4-2.668,7.507S210.165,432.168,210.165,432.168Z" transform="translate(-206.696 -414.913)" fill="url(#linear-gradient-5)"/>
            </g>
          </g>
          <path id="Path_102051" data-name="Path 102051" d="M187.056,365.451c-.064-.754-1.992,4.49-1.992,9.469s19.271,4.382,19.271,4.382S188.35,380.546,187.056,365.451Z" transform="translate(16.019 17.239)" opacity="0.25" fill="url(#linear-gradient-20)" style="mix-blend-mode: darken;isolation: isolate"/>
          <path id="Path_102052" data-name="Path 102052" d="M349.468,410.439l-2.27-.359.214-.081,2.232.329Z" transform="translate(43.618 24.835)" fill="#808294"/>
          <g id="Group_264625" data-name="Group 264625" transform="translate(467.072 407.969)" opacity="0.6">
            <path id="Path_102053" data-name="Path 102053" d="M436.629,383.087h-14.2a142.44,142.44,0,0,1-8.987,18.808,157.3,157.3,0,0,1-11.116,17.234v11.908h21.184v9.929H436.6v-9.929h7.121V419.573h-7.087Zm-13.157,36.486h-8.829a97.483,97.483,0,0,0,8.829-16.951Z" transform="translate(-402.323 -381.794)" fill="#6c6c6c"/>
            <path id="Path_102054" data-name="Path 102054" d="M468.7,382.089q-9.736,0-14.885,7.789t-5.148,22.8q0,14.975,4.765,22.119t14.4,7.143a15.9,15.9,0,0,0,14.328-7.77q4.9-7.769,4.9-22.663Q487.06,382.087,468.7,382.089Zm-.873,47.264q-2.3,0-3.367-4.178T463.4,412.32q0-17.68,4.571-17.678,2.338,0,3.386,4.117t1.046,12.754Q472.4,429.353,467.83,429.353Z" transform="translate(-403.684 -381.765)" fill="#6c6c6c"/>
            <path id="Path_102055" data-name="Path 102055" d="M510.5,381.755a44.006,44.006,0,0,1-8.324,5.47,35.281,35.281,0,0,1-8.776,2.926v12.915a30.578,30.578,0,0,0,5.933-1.272,20.492,20.492,0,0,0,5.06-2.523v41.654h14.867V381.755Z" transform="translate(-404.997 -381.755)" fill="#6c6c6c"/>
          </g>
        </g>
      </g>
    </g>
    <g id="Group_264646" data-name="Group 264646" transform="translate(-56.177 -6)">
      <path id="Path_102075" data-name="Path 102075" d="M82.263,15H77.177V5.2h1.148v8.764h3.938Zm4.279.164a3.247,3.247,0,0,1-2.478-.981,3.633,3.633,0,0,1-.926-2.6A3.785,3.785,0,0,1,84.1,8.827a3.465,3.465,0,0,1,2.6-.991A3.14,3.14,0,0,1,89.15,8.8a3.822,3.822,0,0,1,.878,2.673,3.761,3.761,0,0,1-.947,2.683A3.317,3.317,0,0,1,86.542,15.164Zm.082-6.385a2.132,2.132,0,0,0-1.709.735,3.018,3.018,0,0,0-.629,2.027,2.854,2.854,0,0,0,.636,1.962,2.161,2.161,0,0,0,1.7.718,2.049,2.049,0,0,0,1.671-.7,3.055,3.055,0,0,0,.584-2A3.108,3.108,0,0,0,88.3,9.49,2.04,2.04,0,0,0,86.625,8.779Zm11.17,5.66q0,3.855-3.691,3.855a4.956,4.956,0,0,1-2.27-.492V16.682a4.661,4.661,0,0,0,2.256.656q2.584,0,2.584-2.748v-.766h-.027a2.832,2.832,0,0,1-4.508.407,3.73,3.73,0,0,1-.8-2.505A4.358,4.358,0,0,1,92.2,8.889a2.866,2.866,0,0,1,2.348-1.053,2.282,2.282,0,0,1,2.1,1.135h.027V8h1.121Zm-1.121-2.6V10.8a2,2,0,0,0-.564-1.429,1.857,1.857,0,0,0-1.4-.595,1.947,1.947,0,0,0-1.627.755,3.372,3.372,0,0,0-.588,2.116,2.894,2.894,0,0,0,.564,1.87,1.822,1.822,0,0,0,1.494.7,1.951,1.951,0,0,0,1.535-.67A2.5,2.5,0,0,0,96.673,11.835Zm3.965-5.612a.71.71,0,0,1-.513-.205.692.692,0,0,1-.212-.52.718.718,0,0,1,.725-.731.724.724,0,0,1,.523.208.73.73,0,0,1,0,1.036A.718.718,0,0,1,100.638,6.223ZM101.185,15h-1.121V8h1.121Zm8.08,0h-1.121V11.008q0-2.229-1.627-2.229a1.765,1.765,0,0,0-1.391.632,2.344,2.344,0,0,0-.55,1.6V15h-1.121V8h1.121V9.162h.027a2.526,2.526,0,0,1,2.3-1.326,2.142,2.142,0,0,1,1.757.742,3.3,3.3,0,0,1,.608,2.143Zm9.194-.068a2.161,2.161,0,0,1-1.046.219q-1.839,0-1.839-2.051V8.957h-1.2V8h1.2V6.291l1.121-.362V8h1.764v.957H116.7V12.9a1.635,1.635,0,0,0,.239,1,.955.955,0,0,0,.793.3,1.179,1.179,0,0,0,.731-.232Zm4.423.232a3.247,3.247,0,0,1-2.478-.981,3.633,3.633,0,0,1-.926-2.6,3.785,3.785,0,0,1,.964-2.755,3.465,3.465,0,0,1,2.6-.991,3.14,3.14,0,0,1,2.444.964,3.822,3.822,0,0,1,.878,2.673,3.761,3.761,0,0,1-.947,2.683A3.317,3.317,0,0,1,122.882,15.164Zm.082-6.385a2.132,2.132,0,0,0-1.709.735,3.018,3.018,0,0,0-.629,2.027,2.854,2.854,0,0,0,.636,1.962,2.161,2.161,0,0,0,1.7.718,2.049,2.049,0,0,0,1.671-.7,3.055,3.055,0,0,0,.584-2,3.108,3.108,0,0,0-.584-2.023A2.04,2.04,0,0,0,122.964,8.779Zm12.277,6.152a2.162,2.162,0,0,1-1.046.219q-1.839,0-1.839-2.051V8.957h-1.2V8h1.2V6.291l1.121-.362V8h1.764v.957h-1.764V12.9a1.635,1.635,0,0,0,.239,1,.955.955,0,0,0,.793.3,1.179,1.179,0,0,0,.731-.232Zm5.147-5.8a1.371,1.371,0,0,0-.848-.226,1.431,1.431,0,0,0-1.2.677,3.129,3.129,0,0,0-.482,1.846V15h-1.121V8h1.121V9.442h.027a2.444,2.444,0,0,1,.731-1.152,1.668,1.668,0,0,1,1.1-.414,1.83,1.83,0,0,1,.67.1ZM147.177,8l-3.22,8.121q-.861,2.174-2.42,2.174a2.565,2.565,0,0,1-.731-.089v-1a2.078,2.078,0,0,0,.663.123,1.374,1.374,0,0,0,1.271-1.012l.561-1.326L140.567,8h1.244l1.894,5.387q.034.1.144.533h.041q.034-.164.137-.52L146.015,8Zm10.049,7H156.1V13.906h-.027a2.347,2.347,0,0,1-2.153,1.258,2.3,2.3,0,0,1-1.637-.554,1.918,1.918,0,0,1-.591-1.47q0-1.962,2.311-2.283l2.1-.294q0-1.784-1.442-1.784a3.446,3.446,0,0,0-2.283.861V8.492a4.338,4.338,0,0,1,2.379-.656q2.468,0,2.468,2.611ZM156.1,11.459l-1.688.232a2.741,2.741,0,0,0-1.176.386,1.114,1.114,0,0,0-.4.981,1.068,1.068,0,0,0,.366.837,1.413,1.413,0,0,0,.974.325,1.8,1.8,0,0,0,1.377-.584,2.088,2.088,0,0,0,.543-1.48Zm8,3.22a3.643,3.643,0,0,1-1.914.485,3.169,3.169,0,0,1-2.417-.974,3.53,3.53,0,0,1-.919-2.526,3.881,3.881,0,0,1,.991-2.779A3.468,3.468,0,0,1,162.5,7.836a3.682,3.682,0,0,1,1.627.342V9.326a2.85,2.85,0,0,0-1.668-.547,2.254,2.254,0,0,0-1.76.769,2.918,2.918,0,0,0-.687,2.02,2.779,2.779,0,0,0,.646,1.941,2.227,2.227,0,0,0,1.733.711,2.81,2.81,0,0,0,1.723-.608Zm6.467,0a3.643,3.643,0,0,1-1.914.485,3.169,3.169,0,0,1-2.417-.974,3.53,3.53,0,0,1-.919-2.526,3.881,3.881,0,0,1,.991-2.779,3.468,3.468,0,0,1,2.646-1.049,3.682,3.682,0,0,1,1.627.342V9.326a2.85,2.85,0,0,0-1.668-.547,2.254,2.254,0,0,0-1.76.769,2.918,2.918,0,0,0-.687,2.02,2.779,2.779,0,0,0,.646,1.941,2.227,2.227,0,0,0,1.733.711,2.81,2.81,0,0,0,1.723-.608Zm7.321-2.9h-4.942a2.618,2.618,0,0,0,.629,1.8,2.168,2.168,0,0,0,1.654.636,3.439,3.439,0,0,0,2.174-.779v1.053a4.063,4.063,0,0,1-2.44.67,2.959,2.959,0,0,1-2.331-.954,3.9,3.9,0,0,1-.848-2.683,3.828,3.828,0,0,1,.926-2.663,2.97,2.97,0,0,1,2.3-1.029,2.632,2.632,0,0,1,2.126.889,3.705,3.705,0,0,1,.752,2.468Zm-1.148-.95a2.281,2.281,0,0,0-.468-1.511A1.6,1.6,0,0,0,175,8.779a1.811,1.811,0,0,0-1.347.567,2.575,2.575,0,0,0-.684,1.483Zm2.42,3.917v-1.2a3.318,3.318,0,0,0,2.017.677q1.477,0,1.477-.984a.854.854,0,0,0-.126-.475,1.26,1.26,0,0,0-.342-.345,2.631,2.631,0,0,0-.506-.27q-.291-.12-.625-.25a8.056,8.056,0,0,1-.817-.373,2.468,2.468,0,0,1-.588-.424,1.577,1.577,0,0,1-.355-.537,1.9,1.9,0,0,1-.12-.7,1.673,1.673,0,0,1,.226-.872,2,2,0,0,1,.6-.636,2.805,2.805,0,0,1,.858-.386,3.805,3.805,0,0,1,.995-.13,4.016,4.016,0,0,1,1.627.314V9.285a3.171,3.171,0,0,0-1.777-.506,2.078,2.078,0,0,0-.567.072,1.389,1.389,0,0,0-.434.2.932.932,0,0,0-.28.311.819.819,0,0,0-.1.4.959.959,0,0,0,.1.458,1.008,1.008,0,0,0,.291.328,2.221,2.221,0,0,0,.465.26q.273.116.622.253a8.658,8.658,0,0,1,.834.366,2.86,2.86,0,0,1,.629.424,1.656,1.656,0,0,1,.4.543,1.753,1.753,0,0,1,.14.731,1.725,1.725,0,0,1-.229.9,1.963,1.963,0,0,1-.612.636,2.8,2.8,0,0,1-.882.376,4.354,4.354,0,0,1-1.046.123A3.971,3.971,0,0,1,179.169,14.747Zm5.94,0v-1.2a3.318,3.318,0,0,0,2.017.677q1.477,0,1.477-.984a.854.854,0,0,0-.126-.475,1.26,1.26,0,0,0-.342-.345,2.631,2.631,0,0,0-.506-.27q-.291-.12-.625-.25a8.056,8.056,0,0,1-.817-.373,2.468,2.468,0,0,1-.588-.424,1.577,1.577,0,0,1-.355-.537,1.9,1.9,0,0,1-.12-.7,1.673,1.673,0,0,1,.226-.872,2,2,0,0,1,.6-.636,2.805,2.805,0,0,1,.858-.386,3.805,3.805,0,0,1,.995-.13,4.016,4.016,0,0,1,1.627.314V9.285a3.171,3.171,0,0,0-1.777-.506,2.078,2.078,0,0,0-.567.072,1.389,1.389,0,0,0-.434.2.932.932,0,0,0-.28.311.819.819,0,0,0-.1.4.959.959,0,0,0,.1.458,1.008,1.008,0,0,0,.291.328,2.221,2.221,0,0,0,.465.26q.273.116.622.253a8.658,8.658,0,0,1,.834.366,2.86,2.86,0,0,1,.629.424,1.656,1.656,0,0,1,.4.543,1.753,1.753,0,0,1,.14.731,1.725,1.725,0,0,1-.229.9,1.963,1.963,0,0,1-.612.636,2.8,2.8,0,0,1-.882.376,4.354,4.354,0,0,1-1.046.123A3.971,3.971,0,0,1,185.11,14.747Zm6.938-8.524a.71.71,0,0,1-.513-.205.692.692,0,0,1-.212-.52.718.718,0,0,1,.725-.731.724.724,0,0,1,.523.208.73.73,0,0,1,0,1.036A.718.718,0,0,1,192.048,6.223ZM192.6,15h-1.121V8H192.6Zm8.08,0h-1.121V11.008q0-2.229-1.627-2.229a1.765,1.765,0,0,0-1.391.632,2.344,2.344,0,0,0-.55,1.6V15h-1.121V8h1.121V9.162h.027a2.526,2.526,0,0,1,2.3-1.326,2.142,2.142,0,0,1,1.757.742,3.3,3.3,0,0,1,.608,2.143Zm8.087-.561q0,3.855-3.691,3.855a4.956,4.956,0,0,1-2.27-.492V16.682a4.661,4.661,0,0,0,2.256.656q2.584,0,2.584-2.748v-.766h-.027a2.832,2.832,0,0,1-4.508.407,3.73,3.73,0,0,1-.8-2.505,4.358,4.358,0,0,1,.858-2.837,2.866,2.866,0,0,1,2.348-1.053,2.282,2.282,0,0,1,2.1,1.135h.027V8h1.121Zm-1.121-2.6V10.8a2,2,0,0,0-.564-1.429,1.857,1.857,0,0,0-1.4-.595,1.947,1.947,0,0,0-1.627.755,3.372,3.372,0,0,0-.588,2.116,2.894,2.894,0,0,0,.564,1.87,1.822,1.822,0,0,0,1.494.7,1.951,1.951,0,0,0,1.535-.67A2.5,2.5,0,0,0,207.641,11.835Zm10.473,3.1a2.162,2.162,0,0,1-1.046.219q-1.839,0-1.839-2.051V8.957h-1.2V8h1.2V6.291l1.121-.362V8h1.764v.957H216.35V12.9a1.635,1.635,0,0,0,.239,1,.955.955,0,0,0,.793.3,1.179,1.179,0,0,0,.731-.232Zm7.308.068H224.3V10.967q0-2.187-1.627-2.187a1.774,1.774,0,0,0-1.381.632,2.356,2.356,0,0,0-.561,1.624V15h-1.121V4.637h1.121V9.162h.027a2.546,2.546,0,0,1,2.3-1.326q2.365,0,2.365,2.851Zm2.687-8.777a.71.71,0,0,1-.513-.205.692.692,0,0,1-.212-.52.718.718,0,0,1,.725-.731.724.724,0,0,1,.523.208.73.73,0,0,1,0,1.036A.718.718,0,0,1,228.108,6.223ZM228.655,15h-1.121V8h1.121Zm1.846-.253v-1.2a3.318,3.318,0,0,0,2.017.677q1.477,0,1.477-.984a.854.854,0,0,0-.126-.475,1.26,1.26,0,0,0-.342-.345,2.631,2.631,0,0,0-.506-.27q-.291-.12-.625-.25a8.056,8.056,0,0,1-.817-.373,2.468,2.468,0,0,1-.588-.424,1.577,1.577,0,0,1-.355-.537,1.9,1.9,0,0,1-.12-.7,1.673,1.673,0,0,1,.226-.872,2,2,0,0,1,.6-.636,2.805,2.805,0,0,1,.858-.386,3.805,3.805,0,0,1,.995-.13,4.016,4.016,0,0,1,1.627.314V9.285a3.171,3.171,0,0,0-1.777-.506,2.078,2.078,0,0,0-.567.072,1.389,1.389,0,0,0-.434.2.932.932,0,0,0-.28.311.819.819,0,0,0-.1.4.959.959,0,0,0,.1.458,1.008,1.008,0,0,0,.291.328,2.221,2.221,0,0,0,.465.26q.273.116.622.253a8.658,8.658,0,0,1,.834.366,2.86,2.86,0,0,1,.629.424,1.656,1.656,0,0,1,.4.543,1.753,1.753,0,0,1,.14.731,1.725,1.725,0,0,1-.229.9,1.963,1.963,0,0,1-.612.636,2.8,2.8,0,0,1-.882.376,4.354,4.354,0,0,1-1.046.123A3.971,3.971,0,0,1,230.5,14.747Zm11.348-.759h-.027V18.22H240.7V8h1.121V9.23h.027a2.651,2.651,0,0,1,2.42-1.395,2.563,2.563,0,0,1,2.112.94,3.893,3.893,0,0,1,.759,2.519,4.339,4.339,0,0,1-.854,2.813,2.845,2.845,0,0,1-2.338,1.056A2.342,2.342,0,0,1,241.848,13.988Zm-.027-2.823v.978a2.081,2.081,0,0,0,.564,1.473,2.012,2.012,0,0,0,3.028-.174,3.575,3.575,0,0,0,.578-2.167,2.822,2.822,0,0,0-.54-1.832,1.787,1.787,0,0,0-1.463-.663,1.986,1.986,0,0,0-1.572.68A2.5,2.5,0,0,0,241.821,11.165ZM253.941,15H252.82V13.906h-.027a2.347,2.347,0,0,1-2.153,1.258A2.3,2.3,0,0,1,249,14.61a1.918,1.918,0,0,1-.591-1.47q0-1.962,2.311-2.283l2.1-.294q0-1.784-1.442-1.784a3.446,3.446,0,0,0-2.283.861V8.492a4.338,4.338,0,0,1,2.379-.656q2.468,0,2.468,2.611Zm-1.121-3.541-1.688.232a2.741,2.741,0,0,0-1.176.386,1.114,1.114,0,0,0-.4.981,1.068,1.068,0,0,0,.366.837,1.413,1.413,0,0,0,.974.325,1.8,1.8,0,0,0,1.377-.584,2.088,2.088,0,0,0,.543-1.48Zm9.208,2.98q0,3.855-3.691,3.855a4.956,4.956,0,0,1-2.27-.492V16.682a4.661,4.661,0,0,0,2.256.656q2.584,0,2.584-2.748v-.766h-.027a2.832,2.832,0,0,1-4.508.407,3.73,3.73,0,0,1-.8-2.505,4.358,4.358,0,0,1,.858-2.837,2.866,2.866,0,0,1,2.348-1.053,2.282,2.282,0,0,1,2.1,1.135h.027V8h1.121Zm-1.121-2.6V10.8a2,2,0,0,0-.564-1.429,1.857,1.857,0,0,0-1.4-.595,1.947,1.947,0,0,0-1.627.755,3.372,3.372,0,0,0-.588,2.116,2.894,2.894,0,0,0,.564,1.87,1.822,1.822,0,0,0,1.494.7,1.951,1.951,0,0,0,1.535-.67A2.5,2.5,0,0,0,260.907,11.835Zm9.017-.055h-4.942a2.618,2.618,0,0,0,.629,1.8,2.168,2.168,0,0,0,1.654.636,3.439,3.439,0,0,0,2.174-.779v1.053a4.063,4.063,0,0,1-2.44.67,2.959,2.959,0,0,1-2.331-.954,3.9,3.9,0,0,1-.848-2.683,3.828,3.828,0,0,1,.926-2.663,2.97,2.97,0,0,1,2.3-1.029,2.632,2.632,0,0,1,2.126.889,3.705,3.705,0,0,1,.752,2.468Zm-1.148-.95a2.281,2.281,0,0,0-.468-1.511,1.6,1.6,0,0,0-1.282-.54,1.811,1.811,0,0,0-1.347.567,2.575,2.575,0,0,0-.684,1.483Zm3.233,4.32a.726.726,0,0,1-.537-.226.743.743,0,0,1-.222-.54.754.754,0,0,1,.222-.543.72.72,0,0,1,.537-.229.739.739,0,0,1,.547.229.748.748,0,0,1,.226.543.737.737,0,0,1-.226.54A.745.745,0,0,1,272.008,15.15ZM283.623,15h-1.148V5.2h1.148Zm5.886-9.379a1.493,1.493,0,0,0-.745-.185q-1.176,0-1.176,1.483V8h1.641v.957h-1.641V15h-1.114V8.957h-1.2V8h1.2V6.865a2.358,2.358,0,0,1,.636-1.74,2.146,2.146,0,0,1,1.586-.639,2.2,2.2,0,0,1,.813.123ZM299.837,8l-3.22,8.121q-.861,2.174-2.42,2.174a2.565,2.565,0,0,1-.731-.089v-1a2.078,2.078,0,0,0,.663.123,1.374,1.374,0,0,0,1.271-1.012l.561-1.326L293.227,8h1.244l1.894,5.387q.034.1.144.533h.041q.034-.164.137-.52L298.675,8Zm4.129,7.164a3.247,3.247,0,0,1-2.478-.981,3.633,3.633,0,0,1-.926-2.6,3.785,3.785,0,0,1,.964-2.755,3.465,3.465,0,0,1,2.6-.991,3.14,3.14,0,0,1,2.444.964,3.822,3.822,0,0,1,.878,2.673,3.761,3.761,0,0,1-.947,2.683A3.317,3.317,0,0,1,303.966,15.164Zm.082-6.385a2.132,2.132,0,0,0-1.709.735,3.018,3.018,0,0,0-.629,2.027,2.854,2.854,0,0,0,.636,1.962,2.161,2.161,0,0,0,1.7.718,2.049,2.049,0,0,0,1.671-.7,3.055,3.055,0,0,0,.584-2,3.108,3.108,0,0,0-.584-2.023A2.04,2.04,0,0,0,304.048,8.779ZM314.9,15h-1.121V13.893h-.027a2.3,2.3,0,0,1-2.16,1.271q-2.5,0-2.5-2.98V8h1.114v4.006q0,2.215,1.7,2.215a1.715,1.715,0,0,0,1.35-.6,2.315,2.315,0,0,0,.53-1.583V8H314.9Zm3.233-9.8V8.253h-.991V5.2Zm5.9,3.938a1.371,1.371,0,0,0-.848-.226,1.431,1.431,0,0,0-1.2.677,3.129,3.129,0,0,0-.482,1.846V15h-1.121V8h1.121V9.442h.027a2.444,2.444,0,0,1,.731-1.152,1.668,1.668,0,0,1,1.1-.414,1.83,1.83,0,0,1,.67.1Zm6.843,2.646h-4.942a2.618,2.618,0,0,0,.629,1.8,2.168,2.168,0,0,0,1.654.636,3.439,3.439,0,0,0,2.174-.779v1.053a4.063,4.063,0,0,1-2.44.67,2.959,2.959,0,0,1-2.331-.954,3.9,3.9,0,0,1-.848-2.683,3.828,3.828,0,0,1,.926-2.663A2.97,2.97,0,0,1,328,7.836a2.632,2.632,0,0,1,2.126.889,3.705,3.705,0,0,1,.752,2.468Zm-1.148-.95a2.281,2.281,0,0,0-.468-1.511,1.6,1.6,0,0,0-1.282-.54,1.811,1.811,0,0,0-1.347.567,2.575,2.575,0,0,0-.684,1.483Zm6.255,3.917v-1.2a3.318,3.318,0,0,0,2.017.677q1.477,0,1.477-.984a.854.854,0,0,0-.126-.475,1.261,1.261,0,0,0-.342-.345,2.631,2.631,0,0,0-.506-.27q-.291-.12-.625-.25a8.056,8.056,0,0,1-.817-.373,2.468,2.468,0,0,1-.588-.424,1.577,1.577,0,0,1-.355-.537,1.9,1.9,0,0,1-.12-.7,1.673,1.673,0,0,1,.226-.872,2,2,0,0,1,.6-.636,2.805,2.805,0,0,1,.858-.386,3.805,3.805,0,0,1,.995-.13,4.016,4.016,0,0,1,1.627.314V9.285a3.171,3.171,0,0,0-1.777-.506,2.078,2.078,0,0,0-.567.072,1.389,1.389,0,0,0-.434.2.932.932,0,0,0-.28.311.819.819,0,0,0-.1.4.959.959,0,0,0,.1.458,1.008,1.008,0,0,0,.291.328,2.221,2.221,0,0,0,.465.26q.273.116.622.253a8.657,8.657,0,0,1,.834.366,2.861,2.861,0,0,1,.629.424,1.656,1.656,0,0,1,.4.543,1.753,1.753,0,0,1,.14.731,1.724,1.724,0,0,1-.229.9,1.963,1.963,0,0,1-.612.636,2.8,2.8,0,0,1-.882.376,4.354,4.354,0,0,1-1.046.123A3.971,3.971,0,0,1,335.986,14.747Zm9.611.185a2.161,2.161,0,0,1-1.046.219q-1.839,0-1.839-2.051V8.957h-1.2V8h1.2V6.291l1.121-.362V8H345.6v.957h-1.764V12.9a1.635,1.635,0,0,0,.239,1,.955.955,0,0,0,.793.3,1.179,1.179,0,0,0,.731-.232Zm2.071-8.709a.71.71,0,0,1-.513-.205.692.692,0,0,1-.212-.52.718.718,0,0,1,.725-.731.724.724,0,0,1,.523.208.73.73,0,0,1,0,1.036A.718.718,0,0,1,347.668,6.223ZM348.215,15h-1.121V8h1.121Zm3.391,0h-1.121V4.637h1.121ZM355,15h-1.121V4.637H355Zm11.915,0h-1.121V10.967q0-2.187-1.627-2.187a1.774,1.774,0,0,0-1.381.632,2.356,2.356,0,0,0-.561,1.624V15H361.1V4.637h1.121V9.162h.027a2.546,2.546,0,0,1,2.3-1.326q2.365,0,2.365,2.851Zm7.123,0h-1.121V13.906h-.027a2.347,2.347,0,0,1-2.153,1.258,2.3,2.3,0,0,1-1.637-.554,1.918,1.918,0,0,1-.591-1.47q0-1.962,2.311-2.283l2.1-.294q0-1.784-1.442-1.784a3.446,3.446,0,0,0-2.283.861V8.492a4.338,4.338,0,0,1,2.379-.656q2.468,0,2.468,2.611Zm-1.121-3.541-1.688.232a2.741,2.741,0,0,0-1.176.386,1.114,1.114,0,0,0-.4.981,1.068,1.068,0,0,0,.366.837,1.413,1.413,0,0,0,.974.325,1.8,1.8,0,0,0,1.377-.584,2.088,2.088,0,0,0,.543-1.48ZM381.65,8l-2.789,7h-1.1l-2.652-7h1.23l1.777,5.086a4.564,4.564,0,0,1,.246.978h.027a4.622,4.622,0,0,1,.219-.95L380.467,8Zm1.777-1.777a.71.71,0,0,1-.513-.205.692.692,0,0,1-.212-.52.718.718,0,0,1,.725-.731.724.724,0,0,1,.523.208.73.73,0,0,1,0,1.036A.718.718,0,0,1,383.427,6.223ZM383.974,15h-1.121V8h1.121Zm8.08,0h-1.121V11.008q0-2.229-1.627-2.229a1.765,1.765,0,0,0-1.391.632,2.344,2.344,0,0,0-.55,1.6V15h-1.121V8h1.121V9.162h.027a2.526,2.526,0,0,1,2.3-1.326,2.142,2.142,0,0,1,1.757.742,3.3,3.3,0,0,1,.608,2.143Zm8.087-.561q0,3.855-3.691,3.855a4.956,4.956,0,0,1-2.27-.492V16.682a4.661,4.661,0,0,0,2.256.656q2.584,0,2.584-2.748v-.766h-.027a2.832,2.832,0,0,1-4.508.407,3.73,3.73,0,0,1-.8-2.505,4.358,4.358,0,0,1,.858-2.837,2.866,2.866,0,0,1,2.348-1.053,2.282,2.282,0,0,1,2.1,1.135h.027V8h1.121Zm-1.121-2.6V10.8a2,2,0,0,0-.564-1.429,1.857,1.857,0,0,0-1.4-.595,1.947,1.947,0,0,0-1.627.755,3.372,3.372,0,0,0-.588,2.116,2.894,2.894,0,0,0,.564,1.87,1.822,1.822,0,0,0,1.494.7,1.951,1.951,0,0,0,1.535-.67A2.5,2.5,0,0,0,399.02,11.835Zm7.8-5.612a.71.71,0,0,1-.513-.205.692.692,0,0,1-.212-.52.718.718,0,0,1,.725-.731.724.724,0,0,1,.523.208.73.73,0,0,1,0,1.036A.718.718,0,0,1,406.82,6.223ZM407.367,15h-1.121V8h1.121Zm1.846-.253v-1.2a3.318,3.318,0,0,0,2.017.677q1.477,0,1.477-.984a.854.854,0,0,0-.126-.475,1.261,1.261,0,0,0-.342-.345,2.631,2.631,0,0,0-.506-.27q-.291-.12-.625-.25a8.056,8.056,0,0,1-.817-.373,2.468,2.468,0,0,1-.588-.424,1.577,1.577,0,0,1-.355-.537,1.9,1.9,0,0,1-.12-.7,1.673,1.673,0,0,1,.226-.872,2,2,0,0,1,.6-.636,2.805,2.805,0,0,1,.858-.386,3.805,3.805,0,0,1,.995-.13,4.016,4.016,0,0,1,1.627.314V9.285a3.171,3.171,0,0,0-1.777-.506,2.078,2.078,0,0,0-.567.072,1.389,1.389,0,0,0-.434.2.932.932,0,0,0-.28.311.819.819,0,0,0-.1.4.959.959,0,0,0,.1.458,1.008,1.008,0,0,0,.291.328,2.221,2.221,0,0,0,.465.26q.273.116.622.253a8.657,8.657,0,0,1,.834.366,2.861,2.861,0,0,1,.629.424,1.656,1.656,0,0,1,.4.543,1.753,1.753,0,0,1,.14.731,1.724,1.724,0,0,1-.229.9,1.963,1.963,0,0,1-.612.636,2.8,2.8,0,0,1-.882.376,4.354,4.354,0,0,1-1.046.123A3.971,3.971,0,0,1,409.212,14.747Zm5.94,0v-1.2a3.318,3.318,0,0,0,2.017.677q1.477,0,1.477-.984a.854.854,0,0,0-.126-.475,1.261,1.261,0,0,0-.342-.345,2.631,2.631,0,0,0-.506-.27q-.291-.12-.625-.25a8.056,8.056,0,0,1-.817-.373,2.468,2.468,0,0,1-.588-.424,1.577,1.577,0,0,1-.355-.537,1.9,1.9,0,0,1-.12-.7,1.673,1.673,0,0,1,.226-.872,2,2,0,0,1,.6-.636,2.805,2.805,0,0,1,.858-.386,3.805,3.805,0,0,1,.995-.13,4.016,4.016,0,0,1,1.627.314V9.285a3.171,3.171,0,0,0-1.777-.506,2.078,2.078,0,0,0-.567.072,1.389,1.389,0,0,0-.434.2.932.932,0,0,0-.28.311.819.819,0,0,0-.1.4.959.959,0,0,0,.1.458,1.008,1.008,0,0,0,.291.328,2.221,2.221,0,0,0,.465.26q.273.116.622.253a8.657,8.657,0,0,1,.834.366,2.861,2.861,0,0,1,.629.424,1.656,1.656,0,0,1,.4.543,1.753,1.753,0,0,1,.14.731,1.724,1.724,0,0,1-.229.9,1.963,1.963,0,0,1-.612.636,2.8,2.8,0,0,1-.882.376,4.354,4.354,0,0,1-1.046.123A3.971,3.971,0,0,1,415.153,14.747ZM427.177,15h-1.121V13.893h-.027a2.3,2.3,0,0,1-2.16,1.271q-2.5,0-2.5-2.98V8h1.114v4.006q0,2.215,1.7,2.215a1.715,1.715,0,0,0,1.35-.6,2.315,2.315,0,0,0,.53-1.583V8h1.121Zm7.889-3.22h-4.942a2.618,2.618,0,0,0,.629,1.8,2.168,2.168,0,0,0,1.654.636,3.439,3.439,0,0,0,2.174-.779v1.053a4.063,4.063,0,0,1-2.44.67,2.959,2.959,0,0,1-2.331-.954,3.9,3.9,0,0,1-.848-2.683,3.828,3.828,0,0,1,.926-2.663,2.97,2.97,0,0,1,2.3-1.029,2.632,2.632,0,0,1,2.126.889,3.705,3.705,0,0,1,.752,2.468Zm-1.148-.95a2.281,2.281,0,0,0-.468-1.511,1.6,1.6,0,0,0-1.282-.54,1.811,1.811,0,0,0-1.347.567,2.575,2.575,0,0,0-.684,1.483Zm2.42,3.917v-1.2a3.318,3.318,0,0,0,2.017.677q1.477,0,1.477-.984a.854.854,0,0,0-.126-.475,1.261,1.261,0,0,0-.342-.345,2.631,2.631,0,0,0-.506-.27q-.291-.12-.625-.25a8.056,8.056,0,0,1-.817-.373,2.468,2.468,0,0,1-.588-.424,1.577,1.577,0,0,1-.355-.537,1.9,1.9,0,0,1-.12-.7,1.673,1.673,0,0,1,.226-.872,2,2,0,0,1,.6-.636,2.805,2.805,0,0,1,.858-.386,3.805,3.805,0,0,1,.995-.13,4.016,4.016,0,0,1,1.627.314V9.285a3.171,3.171,0,0,0-1.777-.506,2.078,2.078,0,0,0-.567.072,1.389,1.389,0,0,0-.434.2.932.932,0,0,0-.28.311.819.819,0,0,0-.1.4.959.959,0,0,0,.1.458,1.008,1.008,0,0,0,.291.328,2.221,2.221,0,0,0,.465.26q.273.116.622.253a8.657,8.657,0,0,1,.834.366,2.861,2.861,0,0,1,.629.424,1.656,1.656,0,0,1,.4.543,1.753,1.753,0,0,1,.14.731,1.724,1.724,0,0,1-.229.9,1.963,1.963,0,0,1-.612.636,2.8,2.8,0,0,1-.882.376,4.354,4.354,0,0,1-1.046.123A3.971,3.971,0,0,1,436.337,14.747Zm7.39-1.306L442.633,16.8h-.8l.8-3.363Zm10.616,1.237a3.643,3.643,0,0,1-1.914.485,3.169,3.169,0,0,1-2.417-.974,3.53,3.53,0,0,1-.919-2.526,3.881,3.881,0,0,1,.991-2.779,3.467,3.467,0,0,1,2.646-1.049,3.682,3.682,0,0,1,1.627.342V9.326a2.85,2.85,0,0,0-1.668-.547,2.254,2.254,0,0,0-1.76.769,2.918,2.918,0,0,0-.687,2.02,2.779,2.779,0,0,0,.646,1.941,2.227,2.227,0,0,0,1.733.711,2.81,2.81,0,0,0,1.723-.608Zm4.621.485a3.247,3.247,0,0,1-2.478-.981,3.633,3.633,0,0,1-.926-2.6,3.785,3.785,0,0,1,.964-2.755,3.465,3.465,0,0,1,2.6-.991,3.14,3.14,0,0,1,2.444.964,3.822,3.822,0,0,1,.878,2.673,3.761,3.761,0,0,1-.947,2.683A3.317,3.317,0,0,1,458.964,15.164Zm.082-6.385a2.132,2.132,0,0,0-1.709.735,3.018,3.018,0,0,0-.629,2.027,2.854,2.854,0,0,0,.636,1.962,2.161,2.161,0,0,0,1.7.718,2.049,2.049,0,0,0,1.671-.7,3.055,3.055,0,0,0,.584-2,3.108,3.108,0,0,0-.584-2.023A2.04,2.04,0,0,0,459.046,8.779ZM470.052,15h-1.121V11.008q0-2.229-1.627-2.229a1.765,1.765,0,0,0-1.391.632,2.344,2.344,0,0,0-.55,1.6V15h-1.121V8h1.121V9.162h.027a2.526,2.526,0,0,1,2.3-1.326,2.142,2.142,0,0,1,1.757.742,3.3,3.3,0,0,1,.608,2.143Zm5.359-.068a2.161,2.161,0,0,1-1.046.219q-1.839,0-1.839-2.051V8.957h-1.2V8h1.2V6.291l1.121-.362V8h1.764v.957h-1.764V12.9a1.635,1.635,0,0,0,.239,1,.955.955,0,0,0,.793.3,1.179,1.179,0,0,0,.731-.232Zm6.508.068H480.8V13.906h-.027a2.347,2.347,0,0,1-2.153,1.258,2.3,2.3,0,0,1-1.637-.554,1.918,1.918,0,0,1-.591-1.47q0-1.962,2.311-2.283l2.1-.294q0-1.784-1.442-1.784a3.446,3.446,0,0,0-2.283.861V8.492a4.338,4.338,0,0,1,2.379-.656q2.468,0,2.468,2.611ZM480.8,11.459l-1.688.232a2.741,2.741,0,0,0-1.176.386,1.114,1.114,0,0,0-.4.981,1.068,1.068,0,0,0,.366.837,1.413,1.413,0,0,0,.974.325,1.8,1.8,0,0,0,1.377-.584,2.088,2.088,0,0,0,.543-1.48Zm8,3.22a3.643,3.643,0,0,1-1.914.485,3.169,3.169,0,0,1-2.417-.974,3.53,3.53,0,0,1-.919-2.526,3.881,3.881,0,0,1,.991-2.779,3.467,3.467,0,0,1,2.646-1.049,3.682,3.682,0,0,1,1.627.342V9.326a2.85,2.85,0,0,0-1.668-.547,2.254,2.254,0,0,0-1.76.769,2.918,2.918,0,0,0-.687,2.02,2.779,2.779,0,0,0,.646,1.941,2.227,2.227,0,0,0,1.733.711,2.81,2.81,0,0,0,1.723-.608Zm4.942.253a2.161,2.161,0,0,1-1.046.219q-1.839,0-1.839-2.051V8.957h-1.2V8h1.2V6.291l1.121-.362V8h1.764v.957h-1.764V12.9a1.635,1.635,0,0,0,.239,1,.955.955,0,0,0,.793.3,1.179,1.179,0,0,0,.731-.232Z" transform="translate(165 511.514)" fill="#31313a"/>
      <path id="Path_102076" data-name="Path 102076" d="M-42.485-9.092l-5.373,7.718h5.3V0h-7.581V-.745l5.394-7.677h-4.977V-9.8h7.232ZM-35.424-7l-3.158,8.121q-.984,2.174-2.762,2.174a3.311,3.311,0,0,1-.834-.089V1.887a2.218,2.218,0,0,0,.684.123,1.411,1.411,0,0,0,1.326-.875L-39.7-.014-42.479-7h1.757l1.668,5.086q.027.1.123.506h.034q.034-.157.123-.492l1.75-5.1Zm10.466,0-2.064,7h-1.661l-1.271-4.744a3,3,0,0,1-.1-.615h-.027a2.805,2.805,0,0,1-.123.6L-31.582,0h-1.627l-2.058-7h1.641l1.271,5.045a2.989,2.989,0,0,1,.082.6h.048a3.249,3.249,0,0,1,.109-.615L-30.7-7h1.49l1.258,5.065a3.543,3.543,0,0,1,.089.6h.048a3.191,3.191,0,0,1,.1-.6L-26.469-7Zm6.549,7h-1.538V-1.094h-.027A2.316,2.316,0,0,1-22.1.164,2.239,2.239,0,0,1-23.717-.4,1.961,1.961,0,0,1-24.3-1.88q0-1.982,2.283-2.311l2.078-.294q0-1.5-1.422-1.5a3.378,3.378,0,0,0-2.256.861V-6.508a4.919,4.919,0,0,1,2.557-.656,2.326,2.326,0,0,1,2.652,2.611ZM-19.94-3.438l-1.47.205a2.33,2.33,0,0,0-1.029.332.969.969,0,0,0-.345.851.932.932,0,0,0,.318.728,1.231,1.231,0,0,0,.851.284,1.57,1.57,0,0,0,1.2-.509A1.806,1.806,0,0,0-19.94-2.83ZM-10.445-7l-2.707,7h-1.716l-2.577-7h1.723l1.552,4.895a4.564,4.564,0,0,1,.219.943h.021a5.064,5.064,0,0,1,.191-.916L-12.113-7Zm6.891,3.931H-8.326a2.017,2.017,0,0,0,.6,1.5,2.225,2.225,0,0,0,1.569.526A3.459,3.459,0,0,0-4.1-1.716V-.437a4.7,4.7,0,0,1-2.529.6A3.131,3.131,0,0,1-9.054-.79a3.814,3.814,0,0,1-.878-2.683,3.73,3.73,0,0,1,.967-2.663,3.164,3.164,0,0,1,2.4-1.029,2.759,2.759,0,0,1,2.222.923,3.832,3.832,0,0,1,.786,2.563ZM-5.086-4.19a2.044,2.044,0,0,0-.4-1.33A1.348,1.348,0,0,0-6.583-6a1.539,1.539,0,0,0-1.159.5A2.28,2.28,0,0,0-8.326-4.19ZM1.367-.219v-1.47a3.164,3.164,0,0,0,1.962.677q1.436,0,1.436-.848a.668.668,0,0,0-.123-.407,1.175,1.175,0,0,0-.332-.3A2.607,2.607,0,0,0,3.818-2.8q-.284-.1-.632-.232a6.694,6.694,0,0,1-.776-.362,2.344,2.344,0,0,1-.574-.434,1.639,1.639,0,0,1-.345-.55,2.026,2.026,0,0,1-.116-.718,1.659,1.659,0,0,1,.239-.892,2.079,2.079,0,0,1,.643-.649,3.081,3.081,0,0,1,.916-.4,4.194,4.194,0,0,1,1.06-.133,4.817,4.817,0,0,1,1.736.294v1.388a2.927,2.927,0,0,0-1.7-.506,2.214,2.214,0,0,0-.543.062,1.4,1.4,0,0,0-.414.171.841.841,0,0,0-.267.263.628.628,0,0,0-.1.338.723.723,0,0,0,.1.383.869.869,0,0,0,.284.277,2.45,2.45,0,0,0,.451.219q.263.1.6.215a8.839,8.839,0,0,1,.81.376,2.737,2.737,0,0,1,.612.434,1.7,1.7,0,0,1,.39.561,1.9,1.9,0,0,1,.137.755A1.727,1.727,0,0,1,6.091-1a2.051,2.051,0,0,1-.656.656,3.072,3.072,0,0,1-.947.386A4.919,4.919,0,0,1,3.356.164,4.767,4.767,0,0,1,1.367-.219ZM13.945,0H12.359V-1.107h-.027A2.282,2.282,0,0,1,10.186.164Q7.7.164,7.7-2.816V-7H9.29v4.02q0,1.887,1.456,1.887a1.471,1.471,0,0,0,1.159-.52,1.991,1.991,0,0,0,.455-1.36V-7h1.586Zm3.678-1.032H17.6V3.22H16.01V-7H17.6v1.23h.027A2.6,2.6,0,0,1,20-7.164a2.506,2.506,0,0,1,2.078.937,3.928,3.928,0,0,1,.745,2.516,4.361,4.361,0,0,1-.841,2.8,2.781,2.781,0,0,1-2.3,1.053A2.294,2.294,0,0,1,17.623-1.032Zm-.041-2.762v.868a1.852,1.852,0,0,0,.489,1.3,1.61,1.61,0,0,0,1.241.533A1.621,1.621,0,0,0,20.7-1.781,3.2,3.2,0,0,0,21.2-3.7a2.52,2.52,0,0,0-.468-1.617A1.539,1.539,0,0,0,19.462-5.9a1.709,1.709,0,0,0-1.364.6A2.228,2.228,0,0,0,17.582-3.794Zm8.477,2.762h-.027V3.22H24.445V-7h1.586v1.23h.027a2.6,2.6,0,0,1,2.379-1.395,2.506,2.506,0,0,1,2.078.937,3.928,3.928,0,0,1,.745,2.516,4.361,4.361,0,0,1-.841,2.8,2.781,2.781,0,0,1-2.3,1.053A2.294,2.294,0,0,1,26.059-1.032Zm-.041-2.762v.868a1.852,1.852,0,0,0,.489,1.3,1.61,1.61,0,0,0,1.241.533,1.621,1.621,0,0,0,1.384-.687,3.2,3.2,0,0,0,.5-1.917,2.52,2.52,0,0,0-.468-1.617A1.539,1.539,0,0,0,27.9-5.9a1.709,1.709,0,0,0-1.364.6A2.228,2.228,0,0,0,26.018-3.794ZM35.984.164A3.47,3.47,0,0,1,33.4-.817a3.544,3.544,0,0,1-.967-2.6,3.687,3.687,0,0,1,1.008-2.755,3.708,3.708,0,0,1,2.717-.991,3.358,3.358,0,0,1,2.557.964,3.723,3.723,0,0,1,.916,2.673A3.669,3.669,0,0,1,38.64-.844,3.548,3.548,0,0,1,35.984.164ZM36.06-5.9a1.81,1.81,0,0,0-1.47.649,2.719,2.719,0,0,0-.54,1.791A2.561,2.561,0,0,0,34.6-1.726a1.837,1.837,0,0,0,1.463.632A1.743,1.743,0,0,0,37.5-1.716,2.754,2.754,0,0,0,38-3.486a2.8,2.8,0,0,0-.5-1.784A1.734,1.734,0,0,0,36.06-5.9Zm9.242.41a1.315,1.315,0,0,0-.827-.226,1.416,1.416,0,0,0-1.176.636,2.843,2.843,0,0,0-.472,1.729V0H41.241V-7h1.586v1.442h.027a2.439,2.439,0,0,1,.714-1.152,1.612,1.612,0,0,1,1.077-.414,1.337,1.337,0,0,1,.656.13ZM50.518-.075a2.748,2.748,0,0,1-1.224.232q-2.037,0-2.037-1.955V-5.756H46.088V-7h1.169V-8.62l1.586-.451V-7h1.675v1.244H48.843v3.5a1.379,1.379,0,0,0,.226.889.936.936,0,0,0,.752.267,1.09,1.09,0,0,0,.7-.232ZM52.541.15a.981.981,0,0,1-.7-.27.856.856,0,0,1-.287-.646.874.874,0,0,1,.287-.656.974.974,0,0,1,.7-.273.994.994,0,0,1,.708.273.87.87,0,0,1,.291.656.852.852,0,0,1-.291.646A1,1,0,0,1,52.541.15Zm-103.33.859L-43.178,1V2l-7.611.01ZM-37.535,1H15.01V2H-37.535ZM18.6,1h4.85V2H18.6Zm8.436,0H50.518V2H27.031Z" transform="translate(716 526.803)" fill="#1f5ea8"/>
    </g>
  </g>
</svg>
