<svg xmlns="http://www.w3.org/2000/svg" xmlns:xlink="http://www.w3.org/1999/xlink" width="1011" height="160" viewBox="0 0 1011 160">
  <defs>
    <clipPath id="clip-_500_-_internal_server_error_single_action_error">
      <rect width="1011" height="160"/>
    </clipPath>
  </defs>
  <g id="_500_-_internal_server_error_single_action_error" data-name="500 - internal server error – single action error" clip-path="url(#clip-_500_-_internal_server_error_single_action_error)">
    <rect width="1011" height="160" fill="#fff"/>
    <g id="Rectangle_3830" data-name="Rectangle 3830" transform="translate(20 20)" fill="#fff" stroke="#ee562f" stroke-width="1">
      <rect width="970" height="120" rx="4" stroke="none"/>
      <rect x="0.5" y="0.5" width="969" height="119" rx="3.5" fill="none"/>
    </g>
    <path id="Rectangle_5239" data-name="Rectangle 5239" d="M4,0H50a0,0,0,0,1,0,0V120a0,0,0,0,1,0,0H4a4,4,0,0,1-4-4V4A4,4,0,0,1,4,0Z" transform="translate(20 20)" fill="#ee562f"/>
    <path id="Path_8382" data-name="Path 8382" d="M10.717,3.4h2.717a.455.455,0,0,1,.455.455h0L12.98,14.679a.444.444,0,0,1-.444.444h-.909a.445.445,0,0,1-.455-.433v-.011l-.9-10.825a.445.445,0,0,1,.433-.455ZM13.965,18.89a1.84,1.84,0,0,1-1.851,1.829h-.26a1.873,1.873,0,0,1-1.5-1.321,1.84,1.84,0,0,1,1.765-2.349h0a1.851,1.851,0,0,1,1.83,1.83ZM16.974,0H7.026L0,7.026v9.949L7.026,24h9.949L24,16.974V7.026Z" transform="translate(33 69.778)" fill="#fff"/>
    <path id="Path_102072" data-name="Path 102072" d="M5.844,0H3.422V-9.406H.32v-2.016H8.945v2.016h-3.1ZM18.578,0H16.2V-5.1q0-1.891-1.406-1.891a1.6,1.6,0,0,0-1.445.68,4.151,4.151,0,0,0-.445,2.2V0H10.516V-12.156H12.9V-9.68q0,.289-.055,1.359l-.055.7h.125A2.76,2.76,0,0,1,15.445-8.9a3.1,3.1,0,0,1,2.336.828,3.29,3.29,0,0,1,.8,2.375Zm6.07-7.2a1.511,1.511,0,0,0-1.187.48,2.224,2.224,0,0,0-.492,1.363h3.344a1.986,1.986,0,0,0-.461-1.363A1.561,1.561,0,0,0,24.648-7.2ZM24.984.156a4.508,4.508,0,0,1-3.3-1.164A4.408,4.408,0,0,1,20.5-4.3,4.848,4.848,0,0,1,21.6-7.7a3.909,3.909,0,0,1,3.035-1.2,3.847,3.847,0,0,1,2.883,1.055A3.99,3.99,0,0,1,28.547-4.93v1.156H22.914a2.294,2.294,0,0,0,.6,1.586,2.117,2.117,0,0,0,1.578.57,6.551,6.551,0,0,0,1.492-.164A7.466,7.466,0,0,0,28.055-2.3V-.461A5.6,5.6,0,0,1,26.719,0,8.423,8.423,0,0,1,24.984.156Zm15.75-2.75A2.4,2.4,0,0,1,39.8-.547a4.613,4.613,0,0,1-2.793.7A8.772,8.772,0,0,1,35.383.027a6.146,6.146,0,0,1-1.258-.379V-2.32a8.306,8.306,0,0,0,1.5.523,6.058,6.058,0,0,0,1.465.211q1.3,0,1.3-.75a.626.626,0,0,0-.172-.457,2.492,2.492,0,0,0-.594-.4q-.422-.223-1.125-.52a7.067,7.067,0,0,1-1.48-.781,2.2,2.2,0,0,1-.687-.824,2.721,2.721,0,0,1-.215-1.145,2.075,2.075,0,0,1,.9-1.8A4.4,4.4,0,0,1,37.57-8.9a7.262,7.262,0,0,1,3.07.688l-.719,1.719q-.656-.281-1.227-.461a3.852,3.852,0,0,0-1.164-.18q-1.055,0-1.055.57a.67.67,0,0,0,.34.555,9.242,9.242,0,0,0,1.488.7,6.914,6.914,0,0,1,1.5.773,2.288,2.288,0,0,1,.7.828A2.545,2.545,0,0,1,40.734-2.594ZM46.211-7.2a1.511,1.511,0,0,0-1.187.48,2.224,2.224,0,0,0-.492,1.363h3.344a1.986,1.986,0,0,0-.461-1.363A1.561,1.561,0,0,0,46.211-7.2ZM46.547.156a4.508,4.508,0,0,1-3.3-1.164,4.408,4.408,0,0,1-1.187-3.3A4.848,4.848,0,0,1,43.16-7.7,3.908,3.908,0,0,1,46.2-8.9a3.847,3.847,0,0,1,2.883,1.055A3.99,3.99,0,0,1,50.109-4.93v1.156H44.477a2.294,2.294,0,0,0,.6,1.586,2.117,2.117,0,0,0,1.578.57,6.551,6.551,0,0,0,1.492-.164A7.466,7.466,0,0,0,49.617-2.3V-.461A5.6,5.6,0,0,1,48.281,0,8.423,8.423,0,0,1,46.547.156ZM56.922-8.9a3.843,3.843,0,0,1,.8.07l-.18,2.234a2.73,2.73,0,0,0-.7-.078,2.527,2.527,0,0,0-1.777.586,2.118,2.118,0,0,0-.637,1.641V0H52.047V-8.734h1.8L54.2-7.266h.117a3.283,3.283,0,0,1,1.1-1.184A2.707,2.707,0,0,1,56.922-8.9ZM61.391,0,58.063-8.734h2.492l1.688,4.977a8.88,8.88,0,0,1,.352,1.789h.047a7.78,7.78,0,0,1,.352-1.789l1.68-4.977h2.492L63.836,0ZM72.031-7.2a1.511,1.511,0,0,0-1.187.48,2.224,2.224,0,0,0-.492,1.363H73.7a1.986,1.986,0,0,0-.461-1.363A1.561,1.561,0,0,0,72.031-7.2ZM72.367.156a4.508,4.508,0,0,1-3.3-1.164,4.408,4.408,0,0,1-1.187-3.3A4.848,4.848,0,0,1,68.98-7.7a3.909,3.909,0,0,1,3.035-1.2A3.847,3.847,0,0,1,74.9-7.844,3.99,3.99,0,0,1,75.93-4.93v1.156H70.3a2.294,2.294,0,0,0,.6,1.586,2.117,2.117,0,0,0,1.578.57,6.551,6.551,0,0,0,1.492-.164A7.466,7.466,0,0,0,75.438-2.3V-.461A5.6,5.6,0,0,1,74.1,0,8.423,8.423,0,0,1,72.367.156ZM82.742-8.9a3.843,3.843,0,0,1,.8.07l-.18,2.234a2.73,2.73,0,0,0-.7-.078,2.527,2.527,0,0,0-1.777.586,2.118,2.118,0,0,0-.637,1.641V0H77.867V-8.734h1.8l.352,1.469h.117a3.283,3.283,0,0,1,1.1-1.184A2.707,2.707,0,0,1,82.742-8.9ZM92.906-7.2a1.511,1.511,0,0,0-1.187.48,2.224,2.224,0,0,0-.492,1.363H94.57a1.986,1.986,0,0,0-.461-1.363A1.561,1.561,0,0,0,92.906-7.2ZM93.242.156a4.508,4.508,0,0,1-3.3-1.164,4.408,4.408,0,0,1-1.187-3.3,4.848,4.848,0,0,1,1.1-3.395,3.909,3.909,0,0,1,3.035-1.2,3.847,3.847,0,0,1,2.883,1.055A3.99,3.99,0,0,1,96.8-4.93v1.156H91.172a2.294,2.294,0,0,0,.6,1.586,2.117,2.117,0,0,0,1.578.57,6.551,6.551,0,0,0,1.492-.164A7.466,7.466,0,0,0,96.313-2.3V-.461A5.6,5.6,0,0,1,94.977,0,8.423,8.423,0,0,1,93.242.156ZM106.8,0h-2.383V-5.1a2.45,2.45,0,0,0-.336-1.418,1.222,1.222,0,0,0-1.07-.473,1.609,1.609,0,0,0-1.445.668,4.143,4.143,0,0,0-.445,2.215V0H98.742V-8.734h1.82l.32,1.117h.133a2.518,2.518,0,0,1,1.1-.957A3.738,3.738,0,0,1,103.7-8.9a3.055,3.055,0,0,1,2.313.824A3.308,3.308,0,0,1,106.8-5.7Zm6,.156q-4.078,0-4.078-4.477a4.775,4.775,0,0,1,1.109-3.4,4.162,4.162,0,0,1,3.18-1.176,6.062,6.062,0,0,1,2.719.594l-.7,1.844q-.562-.227-1.047-.371a3.373,3.373,0,0,0-.969-.145q-1.859,0-1.859,2.641,0,2.563,1.859,2.563a4.239,4.239,0,0,0,1.273-.184,4.6,4.6,0,0,0,1.172-.574V-.492a3.84,3.84,0,0,1-1.168.508A6.568,6.568,0,0,1,112.8.156Zm6.578-4.539a3.666,3.666,0,0,0,.426,1.961,1.523,1.523,0,0,0,1.387.664,1.5,1.5,0,0,0,1.371-.66,3.719,3.719,0,0,0,.418-1.965,3.608,3.608,0,0,0-.422-1.945,1.525,1.525,0,0,0-1.383-.648,1.52,1.52,0,0,0-1.375.645A3.6,3.6,0,0,0,119.383-4.383Zm6.039,0A4.694,4.694,0,0,1,124.3-1.047a4.079,4.079,0,0,1-3.133,1.2,4.382,4.382,0,0,1-2.219-.551,3.665,3.665,0,0,1-1.477-1.582,5.316,5.316,0,0,1-.516-2.406,4.668,4.668,0,0,1,1.117-3.328A4.1,4.1,0,0,1,121.211-8.9a4.407,4.407,0,0,1,2.219.547,3.65,3.65,0,0,1,1.477,1.57A5.267,5.267,0,0,1,125.422-4.383ZM133.578,0l-.32-1.117h-.125a2.514,2.514,0,0,1-1.086.941,3.708,3.708,0,0,1-1.6.332,3.05,3.05,0,0,1-2.32-.824,3.316,3.316,0,0,1-.781-2.371v-5.7h2.383v5.1a2.45,2.45,0,0,0,.336,1.418,1.222,1.222,0,0,0,1.07.473,1.609,1.609,0,0,0,1.445-.668,4.143,4.143,0,0,0,.445-2.215V-8.734h2.383V0Zm12.391,0h-2.383V-5.1a2.45,2.45,0,0,0-.336-1.418,1.222,1.222,0,0,0-1.07-.473,1.609,1.609,0,0,0-1.445.668,4.143,4.143,0,0,0-.445,2.215V0h-2.383V-8.734h1.82l.32,1.117h.133a2.518,2.518,0,0,1,1.1-.957,3.738,3.738,0,0,1,1.59-.324,3.055,3.055,0,0,1,2.313.824,3.308,3.308,0,0,1,.789,2.379ZM152.1-1.742a5.165,5.165,0,0,0,1.5-.273V-.242a5.348,5.348,0,0,1-2.187.4,2.677,2.677,0,0,1-2.082-.723,3.146,3.146,0,0,1-.652-2.168V-6.945h-1.141V-7.953l1.313-.8.688-1.844h1.523v1.859h2.445v1.789h-2.445v4.211a.93.93,0,0,0,.285.75A1.125,1.125,0,0,0,152.1-1.742ZM158.984-7.2a1.511,1.511,0,0,0-1.187.48,2.224,2.224,0,0,0-.492,1.363h3.344a1.986,1.986,0,0,0-.461-1.363A1.561,1.561,0,0,0,158.984-7.2ZM159.32.156a4.508,4.508,0,0,1-3.3-1.164,4.408,4.408,0,0,1-1.187-3.3,4.848,4.848,0,0,1,1.1-3.395,3.908,3.908,0,0,1,3.035-1.2,3.847,3.847,0,0,1,2.883,1.055,3.99,3.99,0,0,1,1.031,2.914v1.156H157.25a2.294,2.294,0,0,0,.6,1.586,2.117,2.117,0,0,0,1.578.57,6.551,6.551,0,0,0,1.492-.164,7.467,7.467,0,0,0,1.469-.523V-.461A5.6,5.6,0,0,1,161.055,0,8.423,8.423,0,0,1,159.32.156ZM169.7-8.9a3.843,3.843,0,0,1,.8.07l-.18,2.234a2.73,2.73,0,0,0-.7-.078,2.527,2.527,0,0,0-1.777.586,2.118,2.118,0,0,0-.637,1.641V0H164.82V-8.734h1.8l.352,1.469h.117a3.283,3.283,0,0,1,1.1-1.184A2.707,2.707,0,0,1,169.7-8.9ZM175.7-7.2a1.511,1.511,0,0,0-1.187.48,2.224,2.224,0,0,0-.492,1.363h3.344a1.986,1.986,0,0,0-.461-1.363A1.561,1.561,0,0,0,175.7-7.2Zm.336,7.359a4.508,4.508,0,0,1-3.3-1.164,4.408,4.408,0,0,1-1.187-3.3,4.848,4.848,0,0,1,1.1-3.395,3.908,3.908,0,0,1,3.035-1.2,3.847,3.847,0,0,1,2.883,1.055A3.99,3.99,0,0,1,179.6-4.93v1.156h-5.633a2.294,2.294,0,0,0,.6,1.586,2.117,2.117,0,0,0,1.578.57,6.551,6.551,0,0,0,1.492-.164,7.467,7.467,0,0,0,1.469-.523V-.461A5.6,5.6,0,0,1,177.773,0,8.423,8.423,0,0,1,176.039.156Zm8.266,0a2.837,2.837,0,0,1-2.418-1.2,5.5,5.5,0,0,1-.879-3.312A5.5,5.5,0,0,1,181.9-7.7a2.905,2.905,0,0,1,2.465-1.2,2.849,2.849,0,0,1,2.516,1.281h.078a9.741,9.741,0,0,1-.18-1.742v-2.8h2.391V0h-1.828l-.461-1.133h-.1A2.727,2.727,0,0,1,184.3.156Zm.836-1.9a1.615,1.615,0,0,0,1.34-.531,3.09,3.09,0,0,0,.465-1.8v-.258a3.571,3.571,0,0,0-.434-2.016,1.61,1.61,0,0,0-1.41-.609,1.4,1.4,0,0,0-1.238.676,3.605,3.605,0,0,0-.441,1.965,3.417,3.417,0,0,0,.445,1.934A1.455,1.455,0,0,0,185.141-1.742ZM201.367,0l-.461-1.187h-.062a3.519,3.519,0,0,1-1.238,1.051,4,4,0,0,1-1.66.293,2.684,2.684,0,0,1-1.98-.719,2.76,2.76,0,0,1-.723-2.047,2.3,2.3,0,0,1,.973-2.051,5.636,5.636,0,0,1,2.934-.73l1.516-.047V-5.82A1.188,1.188,0,0,0,199.3-7.148a6.2,6.2,0,0,0-2.461.633l-.789-1.609a7.1,7.1,0,0,1,3.344-.789,4.165,4.165,0,0,1,2.7.766,2.83,2.83,0,0,1,.938,2.328V0Zm-.7-4.047-.922.031a2.952,2.952,0,0,0-1.547.375,1.178,1.178,0,0,0-.508,1.047q0,1.008,1.156,1.008a1.831,1.831,0,0,0,1.324-.477,1.674,1.674,0,0,0,.5-1.266ZM213.547,0h-2.383V-5.1a2.45,2.45,0,0,0-.336-1.418,1.222,1.222,0,0,0-1.07-.473,1.609,1.609,0,0,0-1.445.668,4.143,4.143,0,0,0-.445,2.215V0h-2.383V-8.734h1.82l.32,1.117h.133a2.518,2.518,0,0,1,1.1-.957,3.738,3.738,0,0,1,1.59-.324,3.055,3.055,0,0,1,2.313.824,3.308,3.308,0,0,1,.789,2.379Zm6.508-10.992q0-1.164,1.3-1.164t1.3,1.164a1.135,1.135,0,0,1-.324.863,1.363,1.363,0,0,1-.973.309Q220.055-9.82,220.055-10.992ZM222.539,0h-2.383V-8.734h2.383ZM233.1,0h-2.383V-5.1a2.45,2.45,0,0,0-.336-1.418,1.222,1.222,0,0,0-1.07-.473,1.609,1.609,0,0,0-1.445.668,4.143,4.143,0,0,0-.445,2.215V0h-2.383V-8.734h1.82l.32,1.117h.133a2.518,2.518,0,0,1,1.1-.957A3.738,3.738,0,0,1,230-8.9a3.055,3.055,0,0,1,2.313.824A3.308,3.308,0,0,1,233.1-5.7Zm6.133-1.742a5.165,5.165,0,0,0,1.5-.273V-.242a5.348,5.348,0,0,1-2.187.4,2.677,2.677,0,0,1-2.082-.723,3.146,3.146,0,0,1-.652-2.168V-6.945h-1.141V-7.953l1.313-.8.688-1.844H238.2v1.859h2.445v1.789H238.2v4.211a.93.93,0,0,0,.285.75A1.125,1.125,0,0,0,239.234-1.742ZM246.117-7.2a1.511,1.511,0,0,0-1.187.48,2.224,2.224,0,0,0-.492,1.363h3.344a1.986,1.986,0,0,0-.461-1.363A1.561,1.561,0,0,0,246.117-7.2Zm.336,7.359a4.508,4.508,0,0,1-3.3-1.164,4.408,4.408,0,0,1-1.187-3.3,4.848,4.848,0,0,1,1.1-3.395A3.908,3.908,0,0,1,246.1-8.9a3.847,3.847,0,0,1,2.883,1.055,3.99,3.99,0,0,1,1.031,2.914v1.156h-5.633a2.294,2.294,0,0,0,.6,1.586,2.117,2.117,0,0,0,1.578.57,6.551,6.551,0,0,0,1.492-.164,7.467,7.467,0,0,0,1.469-.523V-.461A5.6,5.6,0,0,1,248.188,0,8.423,8.423,0,0,1,246.453.156ZM256.828-8.9a3.843,3.843,0,0,1,.8.07l-.18,2.234a2.73,2.73,0,0,0-.7-.078,2.527,2.527,0,0,0-1.777.586,2.118,2.118,0,0,0-.637,1.641V0h-2.383V-8.734h1.8l.352,1.469h.117a3.283,3.283,0,0,1,1.1-1.184A2.707,2.707,0,0,1,256.828-8.9ZM267.281,0H264.9V-5.1a2.45,2.45,0,0,0-.336-1.418,1.222,1.222,0,0,0-1.07-.473,1.609,1.609,0,0,0-1.445.668,4.143,4.143,0,0,0-.445,2.215V0h-2.383V-8.734h1.82l.32,1.117h.133a2.518,2.518,0,0,1,1.1-.957,3.738,3.738,0,0,1,1.59-.324,3.055,3.055,0,0,1,2.313.824,3.308,3.308,0,0,1,.789,2.379Zm8,0-.461-1.187h-.062A3.519,3.519,0,0,1,273.52-.137a4,4,0,0,1-1.66.293,2.685,2.685,0,0,1-1.98-.719,2.76,2.76,0,0,1-.723-2.047,2.3,2.3,0,0,1,.973-2.051,5.636,5.636,0,0,1,2.934-.73l1.516-.047V-5.82a1.188,1.188,0,0,0-1.359-1.328,6.2,6.2,0,0,0-2.461.633l-.789-1.609a7.1,7.1,0,0,1,3.344-.789,4.165,4.165,0,0,1,2.7.766,2.83,2.83,0,0,1,.938,2.328V0Zm-.7-4.047-.922.031a2.952,2.952,0,0,0-1.547.375,1.178,1.178,0,0,0-.508,1.047q0,1.008,1.156,1.008a1.831,1.831,0,0,0,1.324-.477,1.674,1.674,0,0,0,.5-1.266ZM281.781,0H279.4V-12.156h2.383Zm10.273-7.2a1.511,1.511,0,0,0-1.187.48,2.224,2.224,0,0,0-.492,1.363h3.344a1.986,1.986,0,0,0-.461-1.363A1.561,1.561,0,0,0,292.055-7.2Zm.336,7.359a4.508,4.508,0,0,1-3.3-1.164,4.408,4.408,0,0,1-1.187-3.3A4.848,4.848,0,0,1,289-7.7a3.909,3.909,0,0,1,3.035-1.2,3.847,3.847,0,0,1,2.883,1.055,3.99,3.99,0,0,1,1.031,2.914v1.156H290.32a2.294,2.294,0,0,0,.6,1.586,2.117,2.117,0,0,0,1.578.57,6.551,6.551,0,0,0,1.492-.164,7.466,7.466,0,0,0,1.469-.523V-.461A5.6,5.6,0,0,1,294.125,0,8.423,8.423,0,0,1,292.391.156ZM302.766-8.9a3.843,3.843,0,0,1,.8.07l-.18,2.234a2.73,2.73,0,0,0-.7-.078,2.527,2.527,0,0,0-1.777.586,2.118,2.118,0,0,0-.637,1.641V0h-2.383V-8.734h1.8l.352,1.469h.117a3.283,3.283,0,0,1,1.1-1.184A2.707,2.707,0,0,1,302.766-8.9Zm7.266,0a3.843,3.843,0,0,1,.8.07l-.18,2.234a2.73,2.73,0,0,0-.7-.078,2.527,2.527,0,0,0-1.777.586,2.118,2.118,0,0,0-.637,1.641V0h-2.383V-8.734h1.8l.352,1.469h.117a3.283,3.283,0,0,1,1.1-1.184A2.707,2.707,0,0,1,310.031-8.9Zm4.289,4.516a3.666,3.666,0,0,0,.426,1.961,1.523,1.523,0,0,0,1.387.664,1.5,1.5,0,0,0,1.371-.66,3.719,3.719,0,0,0,.418-1.965,3.608,3.608,0,0,0-.422-1.945,1.525,1.525,0,0,0-1.383-.648,1.52,1.52,0,0,0-1.375.645A3.6,3.6,0,0,0,314.32-4.383Zm6.039,0a4.694,4.694,0,0,1-1.125,3.336A4.079,4.079,0,0,1,316.1.156a4.382,4.382,0,0,1-2.219-.551,3.665,3.665,0,0,1-1.477-1.582,5.316,5.316,0,0,1-.516-2.406,4.668,4.668,0,0,1,1.117-3.328A4.1,4.1,0,0,1,316.148-8.9a4.407,4.407,0,0,1,2.219.547,3.65,3.65,0,0,1,1.477,1.57A5.267,5.267,0,0,1,320.359-4.383ZM327.2-8.9a3.843,3.843,0,0,1,.8.07l-.18,2.234a2.73,2.73,0,0,0-.7-.078,2.527,2.527,0,0,0-1.777.586,2.118,2.118,0,0,0-.637,1.641V0h-2.383V-8.734h1.8l.352,1.469h.117a3.283,3.283,0,0,1,1.1-1.184A2.707,2.707,0,0,1,327.2-8.9Z" transform="translate(90.6 57.614)" fill="#31313a"/>
    <path id="Path_102073" data-name="Path 102073" d="M4.45,15H3.288V6.038H.123V5.006H7.615V6.038H4.45Zm7.916-7.629a4.44,4.44,0,0,1,.9.082L13.1,8.506a3.865,3.865,0,0,0-.82-.1,2,2,0,0,0-1.555.738,2.692,2.692,0,0,0-.646,1.839V15H8.948V7.508h.937l.13,1.388h.055a3.293,3.293,0,0,1,1-1.128A2.262,2.262,0,0,1,12.366,7.371Zm1.107.137H14.69l1.641,4.272A16.251,16.251,0,0,1,17,13.893h.055q.089-.349.373-1.193t1.856-5.192H20.5l-3.22,8.531a4.256,4.256,0,0,1-1.118,1.794,2.377,2.377,0,0,1-1.569.53,4.565,4.565,0,0,1-1.025-.116v-.909a3.955,3.955,0,0,0,.841.082,1.733,1.733,0,0,0,1.668-1.312l.417-1.066Zm14.875,7.629a3.2,3.2,0,0,1-2.519-1,4.118,4.118,0,0,1-.892-2.833A4.247,4.247,0,0,1,25.843,8.4a3.261,3.261,0,0,1,2.581-1.025,5.121,5.121,0,0,1,1.08.116,3.558,3.558,0,0,1,.848.273L30,8.725a5.336,5.336,0,0,0-.82-.25,3.663,3.663,0,0,0-.786-.1q-2.283,0-2.283,2.912a3.468,3.468,0,0,0,.557,2.119,1.938,1.938,0,0,0,1.651.738,5.048,5.048,0,0,0,1.921-.4v1A4.094,4.094,0,0,1,28.349,15.137Zm10.138-3.89a4.133,4.133,0,0,1-.923,2.861,3.25,3.25,0,0,1-2.55,1.029,3.377,3.377,0,0,1-1.784-.472,3.113,3.113,0,0,1-1.2-1.354,4.717,4.717,0,0,1-.424-2.064,4.127,4.127,0,0,1,.916-2.854,3.24,3.24,0,0,1,2.543-1.022,3.169,3.169,0,0,1,2.5,1.046A4.115,4.115,0,0,1,38.486,11.247Zm-5.708,0a3.556,3.556,0,0,0,.574,2.188,2.279,2.279,0,0,0,3.38,0,3.538,3.538,0,0,0,.578-2.191,3.481,3.481,0,0,0-.578-2.17,2.03,2.03,0,0,0-1.706-.742,2,2,0,0,0-1.682.731A3.52,3.52,0,0,0,32.778,11.247ZM50.025,15V10.126a2.023,2.023,0,0,0-.383-1.343,1.481,1.481,0,0,0-1.189-.448,1.92,1.92,0,0,0-1.565.608,2.891,2.891,0,0,0-.506,1.873V15H45.247V10.126a2.023,2.023,0,0,0-.383-1.343,1.49,1.49,0,0,0-1.2-.448,1.853,1.853,0,0,0-1.562.639,3.459,3.459,0,0,0-.5,2.1V15H40.476V7.508H41.4l.185,1.025h.055a2.23,2.23,0,0,1,.906-.854,2.767,2.767,0,0,1,1.309-.308,2.226,2.226,0,0,1,2.3,1.271H46.2a2.389,2.389,0,0,1,.971-.93,3.012,3.012,0,0,1,1.449-.342,2.537,2.537,0,0,1,1.9.653,2.921,2.921,0,0,1,.632,2.088V15Zm4.607,0H53.5V7.508h1.135ZM53.4,5.478a.754.754,0,0,1,.191-.571.709.709,0,0,1,.95,0,.74.74,0,0,1,.2.567.752.752,0,0,1-.2.571.694.694,0,0,1-.95,0A.768.768,0,0,1,53.4,5.478ZM62.166,15V10.153a1.955,1.955,0,0,0-.417-1.367,1.7,1.7,0,0,0-1.306-.451,2.153,2.153,0,0,0-1.723.636,3.21,3.21,0,0,0-.547,2.1V15H57.039V7.508h.923l.185,1.025H58.2a2.317,2.317,0,0,1,.978-.858,3.176,3.176,0,0,1,1.4-.3,2.846,2.846,0,0,1,2.037.653,2.778,2.778,0,0,1,.684,2.088V15Zm9.6-7.492v.718l-1.388.164a2.437,2.437,0,0,1,.492,1.5,2.215,2.215,0,0,1-.752,1.757,3.033,3.033,0,0,1-2.064.656,3.438,3.438,0,0,1-.629-.055,1.117,1.117,0,0,0-.725.964.49.49,0,0,0,.253.455,1.848,1.848,0,0,0,.868.147h1.326a2.97,2.97,0,0,1,1.87.513,1.781,1.781,0,0,1,.653,1.49,2.127,2.127,0,0,1-1,1.9,5.342,5.342,0,0,1-2.912.653,3.979,3.979,0,0,1-2.266-.547,1.766,1.766,0,0,1-.8-1.545,1.735,1.735,0,0,1,.438-1.183,2.228,2.228,0,0,1,1.23-.677,1.187,1.187,0,0,1-.482-.4,1.067,1.067,0,0,1-.195-.636,1.207,1.207,0,0,1,.219-.718,2.3,2.3,0,0,1,.69-.595,2.024,2.024,0,0,1-.947-.813,2.39,2.39,0,0,1-.366-1.312,2.424,2.424,0,0,1,.738-1.9,3.014,3.014,0,0,1,2.092-.667,3.8,3.8,0,0,1,1.06.137Zm-5.975,8.75a1.017,1.017,0,0,0,.513.923,2.83,2.83,0,0,0,1.47.314,4.1,4.1,0,0,0,2.116-.427,1.308,1.308,0,0,0,.687-1.159.917.917,0,0,0-.376-.844,2.92,2.92,0,0,0-1.415-.236h-1.36a1.792,1.792,0,0,0-1.2.369A1.319,1.319,0,0,0,65.789,16.258ZM66.4,9.907a1.525,1.525,0,0,0,.444,1.189,1.774,1.774,0,0,0,1.237.4,1.447,1.447,0,0,0,1.661-1.613A1.489,1.489,0,0,0,68.065,8.2a1.665,1.665,0,0,0-1.23.431A1.734,1.734,0,0,0,66.4,9.907ZM80.425,7.385a2.785,2.785,0,0,1,2.293,1.008,4.426,4.426,0,0,1,.817,2.854,4.458,4.458,0,0,1-.824,2.868,2.774,2.774,0,0,1-2.287,1.022,3.242,3.242,0,0,1-1.336-.27,2.513,2.513,0,0,1-1.015-.831h-.082L77.752,15h-.813V4.363h1.135V6.947q0,.868-.055,1.559h.055A2.694,2.694,0,0,1,80.425,7.385Zm-.164.95A1.981,1.981,0,0,0,78.586,9a3.76,3.76,0,0,0-.513,2.246,3.749,3.749,0,0,0,.526,2.259,2,2,0,0,0,1.688.68,1.75,1.75,0,0,0,1.559-.762,3.917,3.917,0,0,0,.513-2.191,3.765,3.765,0,0,0-.513-2.181A1.817,1.817,0,0,0,80.261,8.335ZM90.125,15,89.9,13.934h-.055a3.153,3.153,0,0,1-1.118.954,3.407,3.407,0,0,1-1.391.25,2.5,2.5,0,0,1-1.747-.574,2.094,2.094,0,0,1-.632-1.634q0-2.27,3.63-2.379l1.271-.041v-.465a1.9,1.9,0,0,0-.379-1.3,1.56,1.56,0,0,0-1.213-.42,4.944,4.944,0,0,0-2.119.574L85.8,8.027a5.332,5.332,0,0,1,1.213-.472,5.255,5.255,0,0,1,1.323-.171,2.854,2.854,0,0,1,1.986.595,2.482,2.482,0,0,1,.646,1.907V15Zm-2.563-.8a2.3,2.3,0,0,0,1.665-.581,2.15,2.15,0,0,0,.6-1.627v-.677l-1.135.048a4.128,4.128,0,0,0-1.952.42,1.268,1.268,0,0,0-.6,1.159,1.169,1.169,0,0,0,.373.937A1.546,1.546,0,0,0,87.562,14.2Zm8.736.937a3.2,3.2,0,0,1-2.519-1,4.118,4.118,0,0,1-.892-2.833A4.247,4.247,0,0,1,93.792,8.4a3.261,3.261,0,0,1,2.581-1.025,5.121,5.121,0,0,1,1.08.116,3.558,3.558,0,0,1,.848.273l-.349.964a5.336,5.336,0,0,0-.82-.25,3.663,3.663,0,0,0-.786-.1q-2.283,0-2.283,2.912a3.467,3.467,0,0,0,.557,2.119,1.938,1.938,0,0,0,1.651.738,5.048,5.048,0,0,0,1.921-.4v1A4.094,4.094,0,0,1,96.3,15.137Zm4.792-3.972a13.345,13.345,0,0,1,.9-1.094l2.42-2.563h1.347L102.717,10.7l3.247,4.3H104.59l-2.646-3.541-.854.738V15H99.969V4.363h1.121V10q0,.376-.055,1.162ZM113.374,14.2a3.707,3.707,0,0,0,.581-.044,3.761,3.761,0,0,0,.444-.092v.868a2.074,2.074,0,0,1-.543.147,4.081,4.081,0,0,1-.646.058q-2.174,0-2.174-2.29V8.39h-1.073V7.843l1.073-.472.479-1.6h.656V7.508h2.174V8.39h-2.174V12.8a1.517,1.517,0,0,0,.321,1.039A1.118,1.118,0,0,0,113.374,14.2Zm8.989-2.953a4.133,4.133,0,0,1-.923,2.861,3.25,3.25,0,0,1-2.55,1.029,3.377,3.377,0,0,1-1.784-.472,3.113,3.113,0,0,1-1.2-1.354,4.717,4.717,0,0,1-.424-2.064,4.127,4.127,0,0,1,.916-2.854,3.24,3.24,0,0,1,2.543-1.022,3.169,3.169,0,0,1,2.5,1.046A4.115,4.115,0,0,1,122.363,11.247Zm-5.708,0a3.556,3.556,0,0,0,.574,2.188,2.279,2.279,0,0,0,3.38,0,3.538,3.538,0,0,0,.578-2.191,3.481,3.481,0,0,0-.578-2.17,2.03,2.03,0,0,0-1.706-.742,2,2,0,0,0-1.682.731A3.52,3.52,0,0,0,116.655,11.247ZM130.409,14.2a3.707,3.707,0,0,0,.581-.044,3.761,3.761,0,0,0,.444-.092v.868a2.074,2.074,0,0,1-.543.147,4.081,4.081,0,0,1-.646.058q-2.174,0-2.174-2.29V8.39H127V7.843l1.073-.472.479-1.6h.656V7.508h2.174V8.39h-2.174V12.8a1.517,1.517,0,0,0,.321,1.039A1.118,1.118,0,0,0,130.409,14.2Zm7.649.8V10.153a1.955,1.955,0,0,0-.417-1.367,1.7,1.7,0,0,0-1.306-.451,2.139,2.139,0,0,0-1.726.643,3.255,3.255,0,0,0-.543,2.105V15h-1.135V4.363h1.135v3.22a7.016,7.016,0,0,1-.055.964h.068a2.314,2.314,0,0,1,.954-.851,3.1,3.1,0,0,1,1.412-.311,2.891,2.891,0,0,1,2.061.653,2.749,2.749,0,0,1,.687,2.075V15Zm4.6,0h-1.135V7.508h1.135Zm-1.23-9.522a.754.754,0,0,1,.191-.571.709.709,0,0,1,.95,0,.74.74,0,0,1,.2.567.752.752,0,0,1-.2.571.694.694,0,0,1-.95,0A.768.768,0,0,1,141.429,5.478Zm8.47,7.479a1.877,1.877,0,0,1-.779,1.613,3.663,3.663,0,0,1-2.187.567,4.757,4.757,0,0,1-2.324-.472V13.612a5.621,5.621,0,0,0,1.159.431,4.839,4.839,0,0,0,1.193.157,2.705,2.705,0,0,0,1.367-.284.977.977,0,0,0,.1-1.613,5.968,5.968,0,0,0-1.48-.735,8.025,8.025,0,0,1-1.487-.68,2.031,2.031,0,0,1-.656-.66,1.72,1.72,0,0,1-.215-.882,1.681,1.681,0,0,1,.745-1.446,3.472,3.472,0,0,1,2.044-.53,5.98,5.98,0,0,1,2.365.492l-.4.923a5.429,5.429,0,0,0-2.044-.465,2.352,2.352,0,0,0-1.217.253.782.782,0,0,0-.41.7.849.849,0,0,0,.154.513,1.518,1.518,0,0,0,.5.4,11.075,11.075,0,0,0,1.313.554,4.9,4.9,0,0,1,1.8.978A1.724,1.724,0,0,1,149.9,12.956Zm8.859-4.566h-1.907V15h-1.135V8.39h-1.34V7.877l1.34-.41V7.05q0-2.762,2.413-2.762a4.966,4.966,0,0,1,1.395.239l-.294.909a3.754,3.754,0,0,0-1.121-.212,1.092,1.092,0,0,0-.95.427,2.384,2.384,0,0,0-.308,1.371v.485h1.907Zm4.532,6.747a3.442,3.442,0,0,1-2.622-1.012,3.917,3.917,0,0,1-.96-2.81,4.344,4.344,0,0,1,.892-2.878A2.963,2.963,0,0,1,163,7.371a2.825,2.825,0,0,1,2.229.926,3.55,3.55,0,0,1,.82,2.444v.718h-5.161a2.97,2.97,0,0,0,.667,2,2.305,2.305,0,0,0,1.781.684,6.035,6.035,0,0,0,2.393-.506v1.012a6.005,6.005,0,0,1-1.138.373A6.4,6.4,0,0,1,163.29,15.137Zm-.308-6.815a1.853,1.853,0,0,0-1.439.588,2.71,2.71,0,0,0-.632,1.627h3.917a2.5,2.5,0,0,0-.479-1.644A1.684,1.684,0,0,0,162.982,8.321Zm9.6,6.679-.226-1.066h-.055a3.153,3.153,0,0,1-1.118.954,3.407,3.407,0,0,1-1.391.25,2.5,2.5,0,0,1-1.747-.574,2.094,2.094,0,0,1-.632-1.634q0-2.27,3.63-2.379l1.271-.041v-.465a1.9,1.9,0,0,0-.379-1.3,1.56,1.56,0,0,0-1.213-.42,4.944,4.944,0,0,0-2.119.574l-.349-.868a5.333,5.333,0,0,1,1.213-.472,5.255,5.255,0,0,1,1.323-.171,2.854,2.854,0,0,1,1.986.595,2.482,2.482,0,0,1,.646,1.907V15Zm-2.563-.8a2.3,2.3,0,0,0,1.665-.581,2.15,2.15,0,0,0,.6-1.627v-.677l-1.135.048a4.128,4.128,0,0,0-1.952.42,1.268,1.268,0,0,0-.6,1.159,1.169,1.169,0,0,0,.373.937A1.546,1.546,0,0,0,170.023,14.2Zm8.162,0a3.707,3.707,0,0,0,.581-.044,3.761,3.761,0,0,0,.444-.092v.868a2.074,2.074,0,0,1-.543.147,4.081,4.081,0,0,1-.646.058q-2.174,0-2.174-2.29V8.39h-1.073V7.843l1.073-.472.479-1.6h.656V7.508h2.174V8.39h-2.174V12.8a1.517,1.517,0,0,0,.321,1.039A1.118,1.118,0,0,0,178.186,14.2Zm3.589-6.692v4.86a1.955,1.955,0,0,0,.417,1.367,1.7,1.7,0,0,0,1.306.451,2.13,2.13,0,0,0,1.719-.643,3.241,3.241,0,0,0,.543-2.1V7.508h1.135V15h-.937l-.164-1h-.062a2.262,2.262,0,0,1-.967.848,3.251,3.251,0,0,1-1.412.294,2.864,2.864,0,0,1-2.047-.649,2.765,2.765,0,0,1-.68-2.078v-4.9Zm10.944-.137a4.44,4.44,0,0,1,.9.082l-.157,1.053a3.865,3.865,0,0,0-.82-.1,2,2,0,0,0-1.555.738,2.692,2.692,0,0,0-.646,1.839V15H189.3V7.508h.937l.13,1.388h.055a3.294,3.294,0,0,1,1-1.128A2.262,2.262,0,0,1,192.719,7.371Zm5.462,7.766a3.442,3.442,0,0,1-2.622-1.012,3.917,3.917,0,0,1-.96-2.81,4.344,4.344,0,0,1,.892-2.878,2.963,2.963,0,0,1,2.4-1.066,2.825,2.825,0,0,1,2.229.926,3.55,3.55,0,0,1,.82,2.444v.718h-5.161a2.97,2.97,0,0,0,.667,2,2.305,2.305,0,0,0,1.781.684,6.035,6.035,0,0,0,2.393-.506v1.012a6.005,6.005,0,0,1-1.138.373A6.4,6.4,0,0,1,198.181,15.137Zm-.308-6.815a1.853,1.853,0,0,0-1.439.588,2.71,2.71,0,0,0-.632,1.627h3.917a2.5,2.5,0,0,0-.479-1.644A1.684,1.684,0,0,0,197.873,8.321ZM207.642,15h-1.135V4.363h1.135Zm7.014,0-.226-1.066h-.055a3.153,3.153,0,0,1-1.118.954,3.407,3.407,0,0,1-1.391.25,2.5,2.5,0,0,1-1.747-.574,2.094,2.094,0,0,1-.632-1.634q0-2.27,3.63-2.379l1.271-.041v-.465a1.9,1.9,0,0,0-.379-1.3,1.56,1.56,0,0,0-1.213-.42,4.944,4.944,0,0,0-2.119.574l-.349-.868a5.333,5.333,0,0,1,1.213-.472,5.255,5.255,0,0,1,1.323-.171,2.854,2.854,0,0,1,1.986.595,2.482,2.482,0,0,1,.646,1.907V15Zm-2.563-.8a2.3,2.3,0,0,0,1.665-.581,2.15,2.15,0,0,0,.6-1.627v-.677l-1.135.048a4.128,4.128,0,0,0-1.952.42,1.268,1.268,0,0,0-.6,1.159,1.169,1.169,0,0,0,.373.937A1.546,1.546,0,0,0,212.092,14.2Zm8.162,0a3.707,3.707,0,0,0,.581-.044,3.761,3.761,0,0,0,.444-.092v.868a2.074,2.074,0,0,1-.543.147,4.081,4.081,0,0,1-.646.058q-2.174,0-2.174-2.29V8.39h-1.073V7.843l1.073-.472.479-1.6h.656V7.508h2.174V8.39h-2.174V12.8a1.517,1.517,0,0,0,.321,1.039A1.118,1.118,0,0,0,220.254,14.2Zm5.688.937a3.442,3.442,0,0,1-2.622-1.012,3.917,3.917,0,0,1-.96-2.81,4.344,4.344,0,0,1,.892-2.878,2.963,2.963,0,0,1,2.4-1.066,2.825,2.825,0,0,1,2.229.926,3.55,3.55,0,0,1,.82,2.444v.718h-5.161a2.97,2.97,0,0,0,.667,2,2.305,2.305,0,0,0,1.781.684,6.035,6.035,0,0,0,2.393-.506v1.012a6.005,6.005,0,0,1-1.138.373A6.4,6.4,0,0,1,225.941,15.137Zm-.308-6.815a1.853,1.853,0,0,0-1.439.588,2.71,2.71,0,0,0-.632,1.627h3.917A2.5,2.5,0,0,0,227,8.892,1.684,1.684,0,0,0,225.634,8.321Zm8.415-.95a4.44,4.44,0,0,1,.9.082l-.157,1.053a3.865,3.865,0,0,0-.82-.1,2,2,0,0,0-1.555.738,2.692,2.692,0,0,0-.646,1.839V15h-1.135V7.508h.937L231.7,8.9h.055a3.294,3.294,0,0,1,1-1.128A2.262,2.262,0,0,1,234.049,7.371Zm12.4,3.876a4.133,4.133,0,0,1-.923,2.861,3.25,3.25,0,0,1-2.55,1.029,3.377,3.377,0,0,1-1.784-.472,3.113,3.113,0,0,1-1.2-1.354,4.717,4.717,0,0,1-.424-2.064,4.127,4.127,0,0,1,.916-2.854,3.24,3.24,0,0,1,2.543-1.022,3.169,3.169,0,0,1,2.5,1.046A4.115,4.115,0,0,1,246.449,11.247Zm-5.708,0a3.556,3.556,0,0,0,.574,2.188,2.279,2.279,0,0,0,3.38,0,3.538,3.538,0,0,0,.578-2.191,3.481,3.481,0,0,0-.578-2.17,2.03,2.03,0,0,0-1.706-.742,2,2,0,0,0-1.682.731A3.52,3.52,0,0,0,240.741,11.247Zm11.115-3.876a4.44,4.44,0,0,1,.9.082l-.157,1.053a3.865,3.865,0,0,0-.82-.1,2,2,0,0,0-1.555.738,2.692,2.692,0,0,0-.646,1.839V15h-1.135V7.508h.937L249.5,8.9h.055a3.294,3.294,0,0,1,1-1.128A2.262,2.262,0,0,1,251.856,7.371Zm9.352,0a4.44,4.44,0,0,1,.9.082l-.157,1.053a3.866,3.866,0,0,0-.82-.1,2,2,0,0,0-1.555.738,2.692,2.692,0,0,0-.646,1.839V15H257.79V7.508h.937l.13,1.388h.055a3.293,3.293,0,0,1,1-1.128A2.262,2.262,0,0,1,261.208,7.371Zm5.462,7.766a3.442,3.442,0,0,1-2.622-1.012,3.917,3.917,0,0,1-.96-2.81,4.344,4.344,0,0,1,.892-2.878,2.963,2.963,0,0,1,2.4-1.066A2.825,2.825,0,0,1,268.6,8.3a3.55,3.55,0,0,1,.82,2.444v.718h-5.161a2.97,2.97,0,0,0,.667,2,2.305,2.305,0,0,0,1.781.684,6.035,6.035,0,0,0,2.393-.506v1.012a6,6,0,0,1-1.138.373A6.4,6.4,0,0,1,266.67,15.137Zm-.308-6.815a1.853,1.853,0,0,0-1.439.588,2.71,2.71,0,0,0-.632,1.627h3.917a2.5,2.5,0,0,0-.479-1.644A1.684,1.684,0,0,0,266.362,8.321Zm8.374.068h-1.907V15h-1.135V8.39h-1.34V7.877l1.34-.41V7.05q0-2.762,2.413-2.762a4.966,4.966,0,0,1,1.395.239l-.294.909a3.754,3.754,0,0,0-1.121-.212,1.092,1.092,0,0,0-.95.427,2.384,2.384,0,0,0-.308,1.371v.485h1.907Zm4.785-1.019a4.44,4.44,0,0,1,.9.082l-.157,1.053a3.866,3.866,0,0,0-.82-.1,2,2,0,0,0-1.555.738,2.692,2.692,0,0,0-.646,1.839V15H276.1V7.508h.937l.13,1.388h.055a3.293,3.293,0,0,1,1-1.128A2.262,2.262,0,0,1,279.521,7.371Zm5.462,7.766a3.442,3.442,0,0,1-2.622-1.012,3.917,3.917,0,0,1-.96-2.81,4.344,4.344,0,0,1,.892-2.878,2.963,2.963,0,0,1,2.4-1.066,2.825,2.825,0,0,1,2.229.926,3.55,3.55,0,0,1,.82,2.444v.718h-5.161a2.97,2.97,0,0,0,.667,2,2.305,2.305,0,0,0,1.781.684,6.035,6.035,0,0,0,2.393-.506v1.012a6,6,0,0,1-1.138.373A6.4,6.4,0,0,1,284.983,15.137Zm-.308-6.815a1.853,1.853,0,0,0-1.439.588,2.71,2.71,0,0,0-.632,1.627h3.917a2.5,2.5,0,0,0-.479-1.644A1.684,1.684,0,0,0,284.676,8.321Zm9.83,4.635a1.877,1.877,0,0,1-.779,1.613,3.663,3.663,0,0,1-2.187.567,4.757,4.757,0,0,1-2.324-.472V13.612a5.62,5.62,0,0,0,1.159.431,4.839,4.839,0,0,0,1.193.157,2.705,2.705,0,0,0,1.367-.284.977.977,0,0,0,.1-1.613,5.968,5.968,0,0,0-1.48-.735,8.025,8.025,0,0,1-1.487-.68,2.031,2.031,0,0,1-.656-.66,1.72,1.72,0,0,1-.215-.882,1.681,1.681,0,0,1,.745-1.446,3.472,3.472,0,0,1,2.044-.53,5.98,5.98,0,0,1,2.365.492l-.4.923a5.429,5.429,0,0,0-2.044-.465,2.352,2.352,0,0,0-1.217.253.782.782,0,0,0-.41.7.849.849,0,0,0,.154.513,1.518,1.518,0,0,0,.5.4,11.077,11.077,0,0,0,1.313.554,4.9,4.9,0,0,1,1.8.978A1.724,1.724,0,0,1,294.506,12.956ZM301.479,15V10.153a1.955,1.955,0,0,0-.417-1.367,1.7,1.7,0,0,0-1.306-.451,2.139,2.139,0,0,0-1.726.643,3.255,3.255,0,0,0-.543,2.105V15h-1.135V4.363h1.135v3.22a7.014,7.014,0,0,1-.055.964h.068a2.314,2.314,0,0,1,.954-.851,3.1,3.1,0,0,1,1.412-.311,2.891,2.891,0,0,1,2.061.653,2.749,2.749,0,0,1,.687,2.075V15Zm4.6,0h-1.135V7.508h1.135Zm-1.23-9.522a.754.754,0,0,1,.191-.571.709.709,0,0,1,.95,0,.74.74,0,0,1,.2.567.752.752,0,0,1-.2.571.662.662,0,0,1-.472.188.655.655,0,0,1-.479-.188A.768.768,0,0,1,304.849,5.478ZM313.612,15V10.153a1.955,1.955,0,0,0-.417-1.367,1.7,1.7,0,0,0-1.306-.451,2.153,2.153,0,0,0-1.723.636,3.21,3.21,0,0,0-.547,2.1V15h-1.135V7.508h.923l.185,1.025h.055a2.317,2.317,0,0,1,.978-.858,3.176,3.176,0,0,1,1.4-.3,2.846,2.846,0,0,1,2.037.653,2.778,2.778,0,0,1,.684,2.088V15Zm9.6-7.492v.718l-1.388.164a2.437,2.437,0,0,1,.492,1.5,2.215,2.215,0,0,1-.752,1.757,3.033,3.033,0,0,1-2.064.656,3.438,3.438,0,0,1-.629-.055,1.117,1.117,0,0,0-.725.964.49.49,0,0,0,.253.455,1.848,1.848,0,0,0,.868.147h1.326a2.97,2.97,0,0,1,1.87.513,1.781,1.781,0,0,1,.653,1.49,2.127,2.127,0,0,1-1,1.9,5.342,5.342,0,0,1-2.912.653,3.978,3.978,0,0,1-2.266-.547,1.766,1.766,0,0,1-.8-1.545,1.735,1.735,0,0,1,.438-1.183,2.228,2.228,0,0,1,1.23-.677,1.187,1.187,0,0,1-.482-.4,1.067,1.067,0,0,1-.195-.636,1.206,1.206,0,0,1,.219-.718,2.3,2.3,0,0,1,.69-.595,2.024,2.024,0,0,1-.947-.813,2.39,2.39,0,0,1-.366-1.312,2.424,2.424,0,0,1,.738-1.9,3.014,3.014,0,0,1,2.092-.667,3.8,3.8,0,0,1,1.06.137Zm-5.975,8.75a1.017,1.017,0,0,0,.513.923,2.83,2.83,0,0,0,1.47.314,4.1,4.1,0,0,0,2.116-.427,1.308,1.308,0,0,0,.687-1.159.917.917,0,0,0-.376-.844,2.92,2.92,0,0,0-1.415-.236h-1.36a1.792,1.792,0,0,0-1.2.369A1.319,1.319,0,0,0,317.235,16.258Zm.615-6.351a1.525,1.525,0,0,0,.444,1.189,1.774,1.774,0,0,0,1.237.4,1.447,1.447,0,0,0,1.661-1.613A1.489,1.489,0,0,0,319.512,8.2a1.665,1.665,0,0,0-1.23.431A1.734,1.734,0,0,0,317.851,9.907ZM330.8,14.2a3.707,3.707,0,0,0,.581-.044,3.761,3.761,0,0,0,.444-.092v.868a2.074,2.074,0,0,1-.543.147,4.081,4.081,0,0,1-.646.058q-2.174,0-2.174-2.29V8.39h-1.073V7.843l1.073-.472.479-1.6h.656V7.508h2.174V8.39H329.6V12.8a1.517,1.517,0,0,0,.321,1.039A1.118,1.118,0,0,0,330.8,14.2Zm7.649.8V10.153a1.955,1.955,0,0,0-.417-1.367,1.7,1.7,0,0,0-1.306-.451,2.139,2.139,0,0,0-1.726.643,3.255,3.255,0,0,0-.543,2.105V15h-1.135V4.363h1.135v3.22a7.014,7.014,0,0,1-.055.964h.068a2.314,2.314,0,0,1,.954-.851,3.1,3.1,0,0,1,1.412-.311,2.891,2.891,0,0,1,2.061.653,2.749,2.749,0,0,1,.687,2.075V15Zm6.631.137a3.442,3.442,0,0,1-2.622-1.012,3.917,3.917,0,0,1-.96-2.81,4.344,4.344,0,0,1,.892-2.878,2.963,2.963,0,0,1,2.4-1.066,2.825,2.825,0,0,1,2.229.926,3.55,3.55,0,0,1,.82,2.444v.718h-5.161a2.97,2.97,0,0,0,.667,2,2.305,2.305,0,0,0,1.781.684,6.035,6.035,0,0,0,2.393-.506v1.012a6,6,0,0,1-1.138.373A6.4,6.4,0,0,1,345.085,15.137Zm-.308-6.815a1.853,1.853,0,0,0-1.439.588,2.71,2.71,0,0,0-.632,1.627h3.917a2.5,2.5,0,0,0-.479-1.644A1.684,1.684,0,0,0,344.777,8.321Zm12.12,6.815a3.242,3.242,0,0,1-1.336-.27,2.513,2.513,0,0,1-1.015-.831h-.082a10.049,10.049,0,0,1,.082,1.244v3.083h-1.135V7.508h.923l.157,1.025h.055a2.635,2.635,0,0,1,1.019-.889,3.1,3.1,0,0,1,1.333-.273,2.769,2.769,0,0,1,2.3,1.019,4.484,4.484,0,0,1,.81,2.857,4.458,4.458,0,0,1-.824,2.868A2.774,2.774,0,0,1,356.9,15.137Zm-.164-6.8a2.011,2.011,0,0,0-1.661.636,3.271,3.271,0,0,0-.526,2.023v.253a3.749,3.749,0,0,0,.526,2.259,2,2,0,0,0,1.688.68,1.756,1.756,0,0,0,1.521-.786,3.728,3.728,0,0,0,.55-2.167,3.588,3.588,0,0,0-.55-2.15A1.81,1.81,0,0,0,356.733,8.335ZM366.6,15l-.226-1.066h-.055a3.153,3.153,0,0,1-1.118.954,3.407,3.407,0,0,1-1.391.25,2.5,2.5,0,0,1-1.747-.574,2.094,2.094,0,0,1-.632-1.634q0-2.27,3.63-2.379l1.271-.041v-.465a1.9,1.9,0,0,0-.379-1.3,1.56,1.56,0,0,0-1.213-.42,4.944,4.944,0,0,0-2.119.574l-.349-.868a5.332,5.332,0,0,1,1.213-.472,5.255,5.255,0,0,1,1.323-.171,2.854,2.854,0,0,1,1.986.595,2.482,2.482,0,0,1,.646,1.907V15Zm-2.563-.8a2.3,2.3,0,0,0,1.665-.581,2.15,2.15,0,0,0,.6-1.627v-.677l-1.135.048a4.128,4.128,0,0,0-1.952.42,1.268,1.268,0,0,0-.6,1.159,1.169,1.169,0,0,0,.373.937A1.546,1.546,0,0,0,364.034,14.2Zm11.874-6.692v.718l-1.388.164a2.437,2.437,0,0,1,.492,1.5,2.215,2.215,0,0,1-.752,1.757,3.033,3.033,0,0,1-2.064.656,3.438,3.438,0,0,1-.629-.055,1.117,1.117,0,0,0-.725.964.49.49,0,0,0,.253.455,1.848,1.848,0,0,0,.868.147h1.326a2.97,2.97,0,0,1,1.87.513,1.781,1.781,0,0,1,.653,1.49,2.127,2.127,0,0,1-1,1.9,5.342,5.342,0,0,1-2.912.653,3.978,3.978,0,0,1-2.266-.547,1.766,1.766,0,0,1-.8-1.545,1.735,1.735,0,0,1,.438-1.183,2.228,2.228,0,0,1,1.23-.677,1.187,1.187,0,0,1-.482-.4,1.067,1.067,0,0,1-.195-.636,1.206,1.206,0,0,1,.219-.718,2.3,2.3,0,0,1,.69-.595,2.024,2.024,0,0,1-.947-.813,2.39,2.39,0,0,1-.366-1.312,2.424,2.424,0,0,1,.738-1.9,3.014,3.014,0,0,1,2.092-.667,3.8,3.8,0,0,1,1.06.137Zm-5.975,8.75a1.017,1.017,0,0,0,.513.923,2.83,2.83,0,0,0,1.47.314,4.1,4.1,0,0,0,2.116-.427,1.308,1.308,0,0,0,.687-1.159.917.917,0,0,0-.376-.844,2.92,2.92,0,0,0-1.415-.236h-1.36a1.792,1.792,0,0,0-1.2.369A1.319,1.319,0,0,0,369.934,16.258Zm.615-6.351a1.525,1.525,0,0,0,.444,1.189,1.774,1.774,0,0,0,1.237.4,1.447,1.447,0,0,0,1.661-1.613A1.489,1.489,0,0,0,372.21,8.2a1.665,1.665,0,0,0-1.23.431A1.734,1.734,0,0,0,370.549,9.907Zm10.063,5.229a3.442,3.442,0,0,1-2.622-1.012,3.917,3.917,0,0,1-.96-2.81,4.344,4.344,0,0,1,.892-2.878,2.963,2.963,0,0,1,2.4-1.066,2.825,2.825,0,0,1,2.229.926,3.55,3.55,0,0,1,.82,2.444v.718h-5.161a2.97,2.97,0,0,0,.667,2,2.305,2.305,0,0,0,1.781.684,6.035,6.035,0,0,0,2.393-.506v1.012a6,6,0,0,1-1.138.373A6.4,6.4,0,0,1,380.611,15.137ZM380.3,8.321a1.853,1.853,0,0,0-1.439.588,2.71,2.71,0,0,0-.632,1.627h3.917a2.5,2.5,0,0,0-.479-1.644A1.684,1.684,0,0,0,380.3,8.321Zm4.833,5.954a1.018,1.018,0,0,1,.208-.694.756.756,0,0,1,.6-.236.809.809,0,0,1,.619.236.976.976,0,0,1,.222.694.959.959,0,0,1-.226.684.9.9,0,0,1-1.193.024A.936.936,0,0,1,385.137,14.275Zm7.7.725V5.006H394V15Zm7.109-6.61h-1.907V15H396.9V8.39h-1.34V7.877l1.34-.41V7.05q0-2.762,2.413-2.762a4.966,4.966,0,0,1,1.395.239l-.294.909a3.754,3.754,0,0,0-1.121-.212,1.092,1.092,0,0,0-.95.427,2.384,2.384,0,0,0-.308,1.371v.485h1.907Zm3.814-.882h1.217l1.641,4.272a16.251,16.251,0,0,1,.67,2.112h.055q.089-.349.373-1.193t1.856-5.192h1.217l-3.22,8.531a4.256,4.256,0,0,1-1.118,1.794,2.377,2.377,0,0,1-1.569.53,4.565,4.565,0,0,1-1.025-.116v-.909a3.955,3.955,0,0,0,.841.082,1.733,1.733,0,0,0,1.668-1.312l.417-1.066Zm14.711,3.739a4.133,4.133,0,0,1-.923,2.861A3.25,3.25,0,0,1,415,15.137a3.377,3.377,0,0,1-1.784-.472,3.113,3.113,0,0,1-1.2-1.354,4.717,4.717,0,0,1-.424-2.064,4.127,4.127,0,0,1,.916-2.854,3.24,3.24,0,0,1,2.543-1.022,3.169,3.169,0,0,1,2.5,1.046A4.115,4.115,0,0,1,418.469,11.247Zm-5.708,0a3.556,3.556,0,0,0,.574,2.188,2.279,2.279,0,0,0,3.38,0,3.538,3.538,0,0,0,.578-2.191,3.481,3.481,0,0,0-.578-2.17,2.03,2.03,0,0,0-1.706-.742,2,2,0,0,0-1.682.731A3.52,3.52,0,0,0,412.761,11.247Zm8.764-3.739v4.86a1.955,1.955,0,0,0,.417,1.367,1.7,1.7,0,0,0,1.306.451,2.13,2.13,0,0,0,1.719-.643,3.241,3.241,0,0,0,.543-2.1V7.508h1.135V15h-.937l-.164-1h-.062a2.262,2.262,0,0,1-.967.848,3.251,3.251,0,0,1-1.412.294,2.864,2.864,0,0,1-2.047-.649,2.764,2.764,0,0,1-.68-2.078v-4.9Zm8.5-2.5-.273,3.609h-.718l-.28-3.609Zm5.537,2.365a4.44,4.44,0,0,1,.9.082L436.3,8.506a3.866,3.866,0,0,0-.82-.1,2,2,0,0,0-1.555.738,2.692,2.692,0,0,0-.646,1.839V15h-1.135V7.508h.937l.13,1.388h.055a3.293,3.293,0,0,1,1-1.128A2.262,2.262,0,0,1,435.565,7.371Zm5.462,7.766a3.442,3.442,0,0,1-2.622-1.012,3.917,3.917,0,0,1-.96-2.81,4.344,4.344,0,0,1,.892-2.878,2.963,2.963,0,0,1,2.4-1.066,2.825,2.825,0,0,1,2.229.926,3.55,3.55,0,0,1,.82,2.444v.718h-5.161a2.97,2.97,0,0,0,.667,2,2.305,2.305,0,0,0,1.781.684,6.035,6.035,0,0,0,2.393-.506v1.012a6,6,0,0,1-1.138.373A6.4,6.4,0,0,1,441.027,15.137Zm-.308-6.815a1.853,1.853,0,0,0-1.439.588,2.71,2.71,0,0,0-.632,1.627h3.917a2.5,2.5,0,0,0-.479-1.644A1.684,1.684,0,0,0,440.72,8.321Zm13.467,4.635a1.877,1.877,0,0,1-.779,1.613,3.663,3.663,0,0,1-2.187.567,4.757,4.757,0,0,1-2.324-.472V13.612a5.62,5.62,0,0,0,1.159.431,4.839,4.839,0,0,0,1.193.157,2.705,2.705,0,0,0,1.367-.284.977.977,0,0,0,.1-1.613,5.968,5.968,0,0,0-1.48-.735,8.025,8.025,0,0,1-1.487-.68,2.031,2.031,0,0,1-.656-.66,1.72,1.72,0,0,1-.215-.882A1.681,1.681,0,0,1,449.62,7.9a3.472,3.472,0,0,1,2.044-.53,5.98,5.98,0,0,1,2.365.492l-.4.923a5.429,5.429,0,0,0-2.044-.465,2.352,2.352,0,0,0-1.217.253.782.782,0,0,0-.41.7.849.849,0,0,0,.154.513,1.518,1.518,0,0,0,.5.4,11.077,11.077,0,0,0,1.313.554,4.9,4.9,0,0,1,1.8.978A1.724,1.724,0,0,1,454.187,12.956Zm4.266,1.244a3.707,3.707,0,0,0,.581-.044,3.761,3.761,0,0,0,.444-.092v.868a2.074,2.074,0,0,1-.543.147,4.081,4.081,0,0,1-.646.058q-2.174,0-2.174-2.29V8.39h-1.073V7.843l1.073-.472.479-1.6h.656V7.508h2.174V8.39h-2.174V12.8a1.517,1.517,0,0,0,.321,1.039A1.118,1.118,0,0,0,458.452,14.2Zm3.657.8h-1.135V7.508h1.135Zm-1.23-9.522a.754.754,0,0,1,.191-.571.709.709,0,0,1,.95,0,.74.74,0,0,1,.2.567.752.752,0,0,1-.2.571.662.662,0,0,1-.472.188.655.655,0,0,1-.479-.188A.768.768,0,0,1,460.879,5.478ZM465.65,15h-1.135V4.363h1.135Zm3.541,0h-1.135V4.363h1.135Zm11.17,0V10.153a1.955,1.955,0,0,0-.417-1.367,1.7,1.7,0,0,0-1.306-.451,2.139,2.139,0,0,0-1.726.643,3.255,3.255,0,0,0-.543,2.105V15h-1.135V4.363h1.135v3.22a7.014,7.014,0,0,1-.055.964h.068a2.314,2.314,0,0,1,.954-.851,3.1,3.1,0,0,1,1.412-.311,2.891,2.891,0,0,1,2.061.653,2.749,2.749,0,0,1,.687,2.075V15Zm8.073,0-.226-1.066h-.055a3.153,3.153,0,0,1-1.118.954,3.407,3.407,0,0,1-1.391.25,2.5,2.5,0,0,1-1.747-.574,2.094,2.094,0,0,1-.632-1.634q0-2.27,3.63-2.379l1.271-.041v-.465a1.9,1.9,0,0,0-.379-1.3,1.56,1.56,0,0,0-1.213-.42,4.944,4.944,0,0,0-2.119.574l-.349-.868a5.332,5.332,0,0,1,1.213-.472,5.255,5.255,0,0,1,1.323-.171,2.854,2.854,0,0,1,1.986.595,2.482,2.482,0,0,1,.646,1.907V15Zm-2.563-.8a2.3,2.3,0,0,0,1.665-.581,2.15,2.15,0,0,0,.6-1.627v-.677l-1.135.048a4.128,4.128,0,0,0-1.952.42,1.268,1.268,0,0,0-.6,1.159,1.169,1.169,0,0,0,.373.937A1.546,1.546,0,0,0,485.871,14.2Zm7.383.8L490.41,7.508h1.217l1.613,4.443a21.031,21.031,0,0,1,.643,2.023h.055a15.287,15.287,0,0,1,.475-1.5q.4-1.138,1.794-4.966h1.217L494.58,15Zm6.508,0h-1.135V7.508h1.135Zm-1.23-9.522a.754.754,0,0,1,.191-.571.709.709,0,0,1,.95,0,.74.74,0,0,1,.2.567.752.752,0,0,1-.2.571.662.662,0,0,1-.472.188.655.655,0,0,1-.479-.188A.768.768,0,0,1,498.531,5.478ZM507.295,15V10.153a1.955,1.955,0,0,0-.417-1.367,1.7,1.7,0,0,0-1.306-.451,2.153,2.153,0,0,0-1.723.636,3.21,3.21,0,0,0-.547,2.1V15h-1.135V7.508h.923l.185,1.025h.055a2.317,2.317,0,0,1,.978-.858,3.176,3.176,0,0,1,1.4-.3,2.846,2.846,0,0,1,2.037.653,2.778,2.778,0,0,1,.684,2.088V15Zm9.6-7.492v.718L515.5,8.39a2.437,2.437,0,0,1,.492,1.5,2.215,2.215,0,0,1-.752,1.757,3.033,3.033,0,0,1-2.064.656,3.438,3.438,0,0,1-.629-.055,1.117,1.117,0,0,0-.725.964.49.49,0,0,0,.253.455,1.848,1.848,0,0,0,.868.147h1.326a2.97,2.97,0,0,1,1.87.513,1.781,1.781,0,0,1,.653,1.49,2.127,2.127,0,0,1-1,1.9,5.342,5.342,0,0,1-2.912.653,3.978,3.978,0,0,1-2.266-.547,1.766,1.766,0,0,1-.8-1.545,1.735,1.735,0,0,1,.438-1.183,2.228,2.228,0,0,1,1.23-.677,1.187,1.187,0,0,1-.482-.4,1.067,1.067,0,0,1-.195-.636,1.206,1.206,0,0,1,.219-.718,2.3,2.3,0,0,1,.69-.595,2.024,2.024,0,0,1-.947-.813,2.39,2.39,0,0,1-.366-1.312,2.424,2.424,0,0,1,.738-1.9,3.014,3.014,0,0,1,2.092-.667,3.8,3.8,0,0,1,1.06.137Zm-5.975,8.75a1.017,1.017,0,0,0,.513.923,2.83,2.83,0,0,0,1.47.314,4.1,4.1,0,0,0,2.116-.427,1.308,1.308,0,0,0,.687-1.159.917.917,0,0,0-.376-.844,2.92,2.92,0,0,0-1.415-.236h-1.36a1.792,1.792,0,0,0-1.2.369A1.319,1.319,0,0,0,510.918,16.258Zm.615-6.351a1.525,1.525,0,0,0,.444,1.189,1.774,1.774,0,0,0,1.237.4,1.447,1.447,0,0,0,1.661-1.613A1.489,1.489,0,0,0,513.194,8.2a1.665,1.665,0,0,0-1.23.431A1.734,1.734,0,0,0,511.533,9.907ZM523.2,15h-1.135V7.508H523.2Zm-1.23-9.522a.754.754,0,0,1,.191-.571.709.709,0,0,1,.95,0,.74.74,0,0,1,.2.567.752.752,0,0,1-.2.571.694.694,0,0,1-.95,0A.768.768,0,0,1,521.972,5.478Zm8.47,7.479a1.877,1.877,0,0,1-.779,1.613,3.663,3.663,0,0,1-2.187.567,4.757,4.757,0,0,1-2.324-.472V13.612a5.622,5.622,0,0,0,1.159.431,4.838,4.838,0,0,0,1.193.157,2.705,2.705,0,0,0,1.367-.284.977.977,0,0,0,.1-1.613,5.968,5.968,0,0,0-1.48-.735,8.025,8.025,0,0,1-1.487-.68,2.031,2.031,0,0,1-.656-.66,1.72,1.72,0,0,1-.215-.882,1.681,1.681,0,0,1,.745-1.446,3.472,3.472,0,0,1,2.044-.53,5.981,5.981,0,0,1,2.365.492l-.4.923a5.429,5.429,0,0,0-2.044-.465,2.352,2.352,0,0,0-1.217.253.782.782,0,0,0-.41.7.849.849,0,0,0,.154.513,1.518,1.518,0,0,0,.5.4,11.072,11.072,0,0,0,1.313.554,4.9,4.9,0,0,1,1.8.978A1.724,1.724,0,0,1,530.441,12.956Zm6.679,0a1.877,1.877,0,0,1-.779,1.613,3.663,3.663,0,0,1-2.187.567,4.757,4.757,0,0,1-2.324-.472V13.612a5.622,5.622,0,0,0,1.159.431,4.838,4.838,0,0,0,1.193.157,2.705,2.705,0,0,0,1.367-.284.977.977,0,0,0,.1-1.613,5.968,5.968,0,0,0-1.48-.735,8.025,8.025,0,0,1-1.487-.68,2.031,2.031,0,0,1-.656-.66,1.72,1.72,0,0,1-.215-.882,1.681,1.681,0,0,1,.745-1.446,3.472,3.472,0,0,1,2.044-.53,5.981,5.981,0,0,1,2.365.492l-.4.923a5.429,5.429,0,0,0-2.044-.465,2.352,2.352,0,0,0-1.217.253.782.782,0,0,0-.41.7.849.849,0,0,0,.154.513,1.518,1.518,0,0,0,.5.4,11.072,11.072,0,0,0,1.313.554,4.9,4.9,0,0,1,1.8.978A1.724,1.724,0,0,1,537.12,12.956Zm2.912-5.448v4.86a1.955,1.955,0,0,0,.417,1.367,1.7,1.7,0,0,0,1.306.451,2.13,2.13,0,0,0,1.719-.643,3.241,3.241,0,0,0,.543-2.1V7.508h1.135V15h-.937l-.164-1h-.062a2.262,2.262,0,0,1-.967.848,3.251,3.251,0,0,1-1.412.294,2.864,2.864,0,0,1-2.047-.649,2.765,2.765,0,0,1-.68-2.078v-4.9Zm10.691,7.629a3.442,3.442,0,0,1-2.622-1.012,3.917,3.917,0,0,1-.96-2.81,4.344,4.344,0,0,1,.892-2.878,2.963,2.963,0,0,1,2.4-1.066,2.825,2.825,0,0,1,2.229.926,3.55,3.55,0,0,1,.82,2.444v.718h-5.161a2.97,2.97,0,0,0,.667,2,2.305,2.305,0,0,0,1.781.684,6.034,6.034,0,0,0,2.393-.506v1.012a6.006,6.006,0,0,1-1.138.373A6.4,6.4,0,0,1,550.724,15.137Zm-.308-6.815a1.853,1.853,0,0,0-1.439.588,2.71,2.71,0,0,0-.632,1.627h3.917a2.5,2.5,0,0,0-.479-1.644A1.684,1.684,0,0,0,550.416,8.321Zm9.83,4.635a1.877,1.877,0,0,1-.779,1.613,3.663,3.663,0,0,1-2.187.567,4.757,4.757,0,0,1-2.324-.472V13.612a5.622,5.622,0,0,0,1.159.431,4.838,4.838,0,0,0,1.193.157,2.705,2.705,0,0,0,1.367-.284.977.977,0,0,0,.1-1.613,5.968,5.968,0,0,0-1.48-.735,8.025,8.025,0,0,1-1.487-.68,2.031,2.031,0,0,1-.656-.66,1.72,1.72,0,0,1-.215-.882A1.681,1.681,0,0,1,555.68,7.9a3.472,3.472,0,0,1,2.044-.53,5.981,5.981,0,0,1,2.365.492l-.4.923a5.429,5.429,0,0,0-2.044-.465,2.352,2.352,0,0,0-1.217.253.782.782,0,0,0-.41.7.849.849,0,0,0,.154.513,1.518,1.518,0,0,0,.5.4,11.072,11.072,0,0,0,1.313.554,4.9,4.9,0,0,1,1.8.978A1.724,1.724,0,0,1,560.246,12.956Zm3.035.417.1.157q-.178.684-.513,1.589t-.7,1.685h-.854q.185-.711.407-1.757t.311-1.675Zm8.873,1.764a3.2,3.2,0,0,1-2.519-1,4.118,4.118,0,0,1-.892-2.833,4.247,4.247,0,0,1,.906-2.905,3.261,3.261,0,0,1,2.581-1.025,5.121,5.121,0,0,1,1.08.116,3.558,3.558,0,0,1,.848.273l-.349.964a5.337,5.337,0,0,0-.82-.25,3.663,3.663,0,0,0-.786-.1q-2.283,0-2.283,2.912a3.468,3.468,0,0,0,.557,2.119,1.938,1.938,0,0,0,1.651.738,5.048,5.048,0,0,0,1.921-.4v1A4.094,4.094,0,0,1,572.154,15.137Zm10.138-3.89a4.133,4.133,0,0,1-.923,2.861,3.25,3.25,0,0,1-2.55,1.029,3.377,3.377,0,0,1-1.784-.472,3.113,3.113,0,0,1-1.2-1.354,4.717,4.717,0,0,1-.424-2.064,4.127,4.127,0,0,1,.916-2.854,3.24,3.24,0,0,1,2.543-1.022,3.169,3.169,0,0,1,2.5,1.046A4.115,4.115,0,0,1,582.292,11.247Zm-5.708,0a3.556,3.556,0,0,0,.574,2.188,2.279,2.279,0,0,0,3.38,0,3.538,3.538,0,0,0,.578-2.191,3.481,3.481,0,0,0-.578-2.17,2.03,2.03,0,0,0-1.706-.742,2,2,0,0,0-1.682.731A3.52,3.52,0,0,0,576.584,11.247ZM589.408,15V10.153a1.955,1.955,0,0,0-.417-1.367,1.7,1.7,0,0,0-1.306-.451,2.153,2.153,0,0,0-1.723.636,3.21,3.21,0,0,0-.547,2.1V15h-1.135V7.508h.923l.185,1.025h.055a2.317,2.317,0,0,1,.978-.858,3.176,3.176,0,0,1,1.4-.3,2.846,2.846,0,0,1,2.037.653,2.778,2.778,0,0,1,.684,2.088V15Zm5.886-.8a3.707,3.707,0,0,0,.581-.044,3.762,3.762,0,0,0,.444-.092v.868a2.074,2.074,0,0,1-.543.147,4.081,4.081,0,0,1-.646.058q-2.174,0-2.174-2.29V8.39h-1.073V7.843l1.073-.472.479-1.6h.656V7.508h2.174V8.39h-2.174V12.8a1.517,1.517,0,0,0,.321,1.039A1.118,1.118,0,0,0,595.294,14.2Zm7.13.8-.226-1.066h-.055a3.153,3.153,0,0,1-1.118.954,3.407,3.407,0,0,1-1.391.25,2.5,2.5,0,0,1-1.747-.574,2.094,2.094,0,0,1-.632-1.634q0-2.27,3.63-2.379l1.271-.041v-.465a1.9,1.9,0,0,0-.379-1.3,1.56,1.56,0,0,0-1.213-.42,4.944,4.944,0,0,0-2.119.574l-.349-.868a5.333,5.333,0,0,1,1.213-.472,5.255,5.255,0,0,1,1.323-.171,2.854,2.854,0,0,1,1.986.595,2.482,2.482,0,0,1,.646,1.907V15Zm-2.563-.8a2.3,2.3,0,0,0,1.665-.581,2.15,2.15,0,0,0,.6-1.627v-.677L601,11.363a4.127,4.127,0,0,0-1.952.42,1.268,1.268,0,0,0-.6,1.159,1.169,1.169,0,0,0,.373.937A1.546,1.546,0,0,0,599.86,14.2Zm8.736.937a3.2,3.2,0,0,1-2.519-1,4.118,4.118,0,0,1-.892-2.833,4.247,4.247,0,0,1,.906-2.905,3.261,3.261,0,0,1,2.581-1.025,5.121,5.121,0,0,1,1.08.116,3.558,3.558,0,0,1,.848.273l-.349.964a5.337,5.337,0,0,0-.82-.25,3.663,3.663,0,0,0-.786-.1q-2.283,0-2.283,2.912a3.468,3.468,0,0,0,.557,2.119,1.938,1.938,0,0,0,1.651.738,5.048,5.048,0,0,0,1.921-.4v1A4.094,4.094,0,0,1,608.6,15.137Zm6.091-.937a3.707,3.707,0,0,0,.581-.044,3.762,3.762,0,0,0,.444-.092v.868a2.074,2.074,0,0,1-.543.147,4.081,4.081,0,0,1-.646.058q-2.174,0-2.174-2.29V8.39h-1.073V7.843l1.073-.472.479-1.6h.656V7.508h2.174V8.39h-2.174V12.8a1.517,1.517,0,0,0,.321,1.039A1.118,1.118,0,0,0,614.688,14.2Zm12.387.8H620.2v-.909l5.3-8.039h-5.141V5.006h6.556v.909l-5.3,8.032h5.455Zm.574-7.492h1.217l1.641,4.272a16.251,16.251,0,0,1,.67,2.112h.055q.089-.349.373-1.193t1.856-5.192h1.217l-3.22,8.531a4.256,4.256,0,0,1-1.118,1.794,2.377,2.377,0,0,1-1.569.53,4.565,4.565,0,0,1-1.025-.116v-.909a3.956,3.956,0,0,0,.841.082,1.733,1.733,0,0,0,1.668-1.312l.417-1.066ZM642.011,15l-1.374-4.4q-.13-.4-.485-1.832H640.1q-.273,1.2-.479,1.846L638.2,15h-1.312l-2.044-7.492h1.189l1.1,4.3a17.417,17.417,0,0,1,.434,1.989h.055q.075-.39.243-1.008t.291-.981l1.374-4.3h1.23l1.34,4.3a14.513,14.513,0,0,1,.52,1.976h.055a7.246,7.246,0,0,1,.147-.759q.12-.513,1.425-5.517h1.176L643.357,15Zm9.379,0-.226-1.066h-.055a3.153,3.153,0,0,1-1.118.954,3.407,3.407,0,0,1-1.391.25,2.5,2.5,0,0,1-1.747-.574,2.094,2.094,0,0,1-.632-1.634q0-2.27,3.63-2.379l1.271-.041v-.465a1.9,1.9,0,0,0-.379-1.3,1.56,1.56,0,0,0-1.213-.42,4.944,4.944,0,0,0-2.119.574l-.349-.868a5.333,5.333,0,0,1,1.213-.472,5.255,5.255,0,0,1,1.323-.171,2.854,2.854,0,0,1,1.986.595,2.482,2.482,0,0,1,.646,1.907V15Zm-2.563-.8a2.3,2.3,0,0,0,1.665-.581,2.15,2.15,0,0,0,.6-1.627v-.677l-1.135.048a4.127,4.127,0,0,0-1.952.42,1.268,1.268,0,0,0-.6,1.159,1.169,1.169,0,0,0,.373.937A1.546,1.546,0,0,0,648.826,14.2Zm7.383.8-2.844-7.492h1.217l1.613,4.443a21.031,21.031,0,0,1,.643,2.023h.055a15.278,15.278,0,0,1,.475-1.5q.4-1.138,1.794-4.966h1.217L657.535,15Zm8.538.137a3.442,3.442,0,0,1-2.622-1.012,3.917,3.917,0,0,1-.96-2.81,4.344,4.344,0,0,1,.892-2.878,2.963,2.963,0,0,1,2.4-1.066,2.825,2.825,0,0,1,2.229.926,3.55,3.55,0,0,1,.82,2.444v.718h-5.161a2.97,2.97,0,0,0,.667,2,2.305,2.305,0,0,0,1.781.684,6.034,6.034,0,0,0,2.393-.506v1.012a6.006,6.006,0,0,1-1.138.373A6.4,6.4,0,0,1,664.747,15.137Zm-.308-6.815A1.853,1.853,0,0,0,663,8.909a2.71,2.71,0,0,0-.632,1.627h3.917a2.5,2.5,0,0,0-.479-1.644A1.684,1.684,0,0,0,664.439,8.321Zm13.467,4.635a1.877,1.877,0,0,1-.779,1.613,3.663,3.663,0,0,1-2.187.567,4.757,4.757,0,0,1-2.324-.472V13.612a5.622,5.622,0,0,0,1.159.431,4.838,4.838,0,0,0,1.193.157,2.705,2.705,0,0,0,1.367-.284.977.977,0,0,0,.1-1.613,5.968,5.968,0,0,0-1.48-.735,8.025,8.025,0,0,1-1.487-.68,2.031,2.031,0,0,1-.656-.66,1.72,1.72,0,0,1-.215-.882A1.681,1.681,0,0,1,673.34,7.9a3.472,3.472,0,0,1,2.044-.53,5.981,5.981,0,0,1,2.365.492l-.4.923a5.429,5.429,0,0,0-2.044-.465,2.352,2.352,0,0,0-1.217.253.782.782,0,0,0-.41.7.849.849,0,0,0,.154.513,1.518,1.518,0,0,0,.5.4,11.072,11.072,0,0,0,1.313.554,4.9,4.9,0,0,1,1.8.978A1.724,1.724,0,0,1,677.906,12.956Zm2.912-5.448v4.86a1.955,1.955,0,0,0,.417,1.367,1.7,1.7,0,0,0,1.306.451,2.13,2.13,0,0,0,1.719-.643,3.241,3.241,0,0,0,.543-2.1V7.508h1.135V15H685l-.164-1h-.062a2.262,2.262,0,0,1-.967.848,3.251,3.251,0,0,1-1.412.294,2.864,2.864,0,0,1-2.047-.649,2.765,2.765,0,0,1-.68-2.078v-4.9Zm11.013,7.629a3.242,3.242,0,0,1-1.336-.27,2.513,2.513,0,0,1-1.015-.831H689.4a10.049,10.049,0,0,1,.082,1.244v3.083h-1.135V7.508h.923l.157,1.025h.055a2.635,2.635,0,0,1,1.019-.889,3.1,3.1,0,0,1,1.333-.273,2.769,2.769,0,0,1,2.3,1.019,4.484,4.484,0,0,1,.81,2.857,4.458,4.458,0,0,1-.824,2.868A2.774,2.774,0,0,1,691.831,15.137Zm-.164-6.8a2.011,2.011,0,0,0-1.661.636,3.271,3.271,0,0,0-.526,2.023v.253a3.75,3.75,0,0,0,.526,2.259,2,2,0,0,0,1.688.68,1.756,1.756,0,0,0,1.521-.786,3.728,3.728,0,0,0,.55-2.167,3.588,3.588,0,0,0-.55-2.15A1.81,1.81,0,0,0,691.667,8.335Zm8.743,6.8a3.242,3.242,0,0,1-1.336-.27,2.513,2.513,0,0,1-1.015-.831h-.082a10.049,10.049,0,0,1,.082,1.244v3.083h-1.135V7.508h.923L698,8.533h.055a2.635,2.635,0,0,1,1.019-.889,3.1,3.1,0,0,1,1.333-.273,2.769,2.769,0,0,1,2.3,1.019,4.484,4.484,0,0,1,.81,2.857,4.458,4.458,0,0,1-.824,2.868A2.774,2.774,0,0,1,700.41,15.137Zm-.164-6.8a2.011,2.011,0,0,0-1.661.636,3.271,3.271,0,0,0-.526,2.023v.253a3.75,3.75,0,0,0,.526,2.259,2,2,0,0,0,1.688.68,1.756,1.756,0,0,0,1.521-.786,3.728,3.728,0,0,0,.55-2.167,3.588,3.588,0,0,0-.55-2.15A1.81,1.81,0,0,0,700.246,8.335Zm11.724,2.912a4.133,4.133,0,0,1-.923,2.861,3.25,3.25,0,0,1-2.55,1.029,3.377,3.377,0,0,1-1.784-.472,3.113,3.113,0,0,1-1.2-1.354,4.717,4.717,0,0,1-.424-2.064A4.127,4.127,0,0,1,706,8.393a3.24,3.24,0,0,1,2.543-1.022,3.169,3.169,0,0,1,2.5,1.046A4.115,4.115,0,0,1,711.97,11.247Zm-5.708,0a3.556,3.556,0,0,0,.574,2.188,2.279,2.279,0,0,0,3.38,0,3.538,3.538,0,0,0,.578-2.191,3.481,3.481,0,0,0-.578-2.17,2.03,2.03,0,0,0-1.706-.742,2,2,0,0,0-1.682.731A3.52,3.52,0,0,0,706.262,11.247Zm11.115-3.876a4.44,4.44,0,0,1,.9.082l-.157,1.053a3.865,3.865,0,0,0-.82-.1,2,2,0,0,0-1.555.738,2.692,2.692,0,0,0-.646,1.839V15h-1.135V7.508h.937l.13,1.388h.055a3.294,3.294,0,0,1,1-1.128A2.262,2.262,0,0,1,717.377,7.371Zm4.717,6.829a3.707,3.707,0,0,0,.581-.044,3.762,3.762,0,0,0,.444-.092v.868a2.074,2.074,0,0,1-.543.147,4.081,4.081,0,0,1-.646.058q-2.174,0-2.174-2.29V8.39h-1.073V7.843l1.073-.472.479-1.6h.656V7.508h2.174V8.39h-2.174V12.8a1.517,1.517,0,0,0,.321,1.039A1.118,1.118,0,0,0,722.094,14.2Zm2.358.075a1.018,1.018,0,0,1,.208-.694.756.756,0,0,1,.6-.236.809.809,0,0,1,.619.236.976.976,0,0,1,.222.694.959.959,0,0,1-.226.684.9.9,0,0,1-1.193.024A.936.936,0,0,1,724.452,14.275Z" transform="translate(90 67.198)" fill="#31313a"/>
    <g id="Group_11940" data-name="Group 11940" transform="translate(956 30)">
      <rect id="Rectangle_5239-2" data-name="Rectangle 5239" width="24" height="24" fill="none"/>
      <path id="Path_6644" data-name="Path 6644" d="M13.905,12l4.673-4.673a.227.227,0,0,0,0-.318L16.99,5.422a.227.227,0,0,0-.318,0L12,10.095,7.327,5.422a.227.227,0,0,0-.318,0L5.422,7.01a.227.227,0,0,0,0,.318L10.095,12,5.422,16.673a.227.227,0,0,0,0,.318L7.01,18.578a.227.227,0,0,0,.318,0L12,13.905l4.673,4.673a.227.227,0,0,0,.318,0l1.588-1.588a.227.227,0,0,0,0-.318Z" transform="translate(0 0)" fill="#31313a"/>
    </g>
    <path id="Path_102074" data-name="Path 102074" d="M7.6,0H.451V-1.135L5.489-8.593H.588v-1.4H7.465v1.148L2.406-1.4H7.6Zm.451-7.561H9.8l1.538,4.286a8.133,8.133,0,0,1,.465,1.723h.055a7.185,7.185,0,0,1,.226-.913q.164-.537,1.736-5.1h1.736L12.325,1A3.067,3.067,0,0,1,9.386,3.363a4.626,4.626,0,0,1-1.039-.116V1.976a3.765,3.765,0,0,0,.827.082A1.694,1.694,0,0,0,10.808.711L11.088,0ZM22.907,0,21.93-3.527q-.178-.561-.643-2.6h-.062q-.4,1.846-.629,2.618L19.592,0H17.814L15.7-7.561h1.641L18.3-3.835q.328,1.381.465,2.365h.041q.068-.5.208-1.145t.243-.967l1.148-3.979h1.764l1.114,3.979q.1.335.256,1.025a7.889,7.889,0,0,1,.181,1.073h.055a20.978,20.978,0,0,1,.479-2.352l.978-3.726h1.613L24.712,0Zm9.967,0-.321-1.053H32.5a3.1,3.1,0,0,1-1.1.94,3.481,3.481,0,0,1-1.422.25,2.406,2.406,0,0,1-1.74-.6,2.251,2.251,0,0,1-.625-1.7,2,2,0,0,1,.868-1.764,5.006,5.006,0,0,1,2.646-.649l1.306-.041v-.4a1.529,1.529,0,0,0-.338-1.083,1.38,1.38,0,0,0-1.049-.359,3.628,3.628,0,0,0-1.114.171,8.409,8.409,0,0,0-1.025.4l-.52-1.148a5.591,5.591,0,0,1,1.347-.489A6.2,6.2,0,0,1,31.11-7.7a3.27,3.27,0,0,1,2.177.629,2.462,2.462,0,0,1,.735,1.976V0ZM30.481-1.094a1.99,1.99,0,0,0,1.4-.489,1.772,1.772,0,0,0,.53-1.371v-.656l-.971.041a3.321,3.321,0,0,0-1.651.379,1.153,1.153,0,0,0-.516,1.036,1.011,1.011,0,0,0,.3.783A1.292,1.292,0,0,0,30.481-1.094ZM37.987,0,35.116-7.561h1.7l1.538,4.4a8.71,8.71,0,0,1,.479,1.791h.055a12.026,12.026,0,0,1,.479-1.791l1.538-4.4h1.709L39.724,0Zm9.071.137A3.657,3.657,0,0,1,44.3-.892a3.906,3.906,0,0,1-.995-2.833,4.285,4.285,0,0,1,.923-2.912A3.188,3.188,0,0,1,46.765-7.7a3.116,3.116,0,0,1,2.365.909A3.474,3.474,0,0,1,50-4.286v.868H44.96a2.483,2.483,0,0,0,.595,1.692,2.071,2.071,0,0,0,1.579.591,5.829,5.829,0,0,0,1.248-.126,6.539,6.539,0,0,0,1.241-.42V-.376a4.932,4.932,0,0,1-1.189.4A7.294,7.294,0,0,1,47.059.137ZM46.765-6.48A1.614,1.614,0,0,0,45.538-6a2.313,2.313,0,0,0-.55,1.415h3.432A2.093,2.093,0,0,0,47.968-6,1.543,1.543,0,0,0,46.765-6.48ZM60.539-2.153a1.978,1.978,0,0,1-.807,1.7,3.863,3.863,0,0,1-2.311.591A5.458,5.458,0,0,1,55-.321V-1.709a5.958,5.958,0,0,0,2.481.615q1.483,0,1.483-.9a.709.709,0,0,0-.164-.479,1.942,1.942,0,0,0-.54-.4,9.294,9.294,0,0,0-1.046-.465,4.838,4.838,0,0,1-1.767-1.012,1.872,1.872,0,0,1-.461-1.312,1.724,1.724,0,0,1,.783-1.507A3.714,3.714,0,0,1,57.894-7.7a6.031,6.031,0,0,1,2.522.54l-.52,1.21a5.61,5.61,0,0,0-2.058-.506q-1.271,0-1.271.725a.729.729,0,0,0,.332.6,7.291,7.291,0,0,0,1.446.677,6.609,6.609,0,0,1,1.36.663,1.982,1.982,0,0,1,.629.694A2.008,2.008,0,0,1,60.539-2.153ZM67.607,0l-.226-.991H67.3a2.279,2.279,0,0,1-.954.827,3.188,3.188,0,0,1-1.412.3,2.771,2.771,0,0,1-2.051-.684,2.834,2.834,0,0,1-.677-2.071V-7.561h1.62V-2.9a2.023,2.023,0,0,0,.355,1.3,1.357,1.357,0,0,0,1.114.434,1.774,1.774,0,0,0,1.487-.6,3.334,3.334,0,0,0,.475-2.027V-7.561h1.613V0ZM75,.137A2.648,2.648,0,0,1,72.769-.9h-.1q.1.957.1,1.162v3.1H71.162V-7.561h1.3q.055.212.226,1.012h.082A2.517,2.517,0,0,1,75.024-7.7a2.624,2.624,0,0,1,2.2,1.025,4.623,4.623,0,0,1,.79,2.878,4.627,4.627,0,0,1-.8,2.892A2.648,2.648,0,0,1,75,.137Zm-.39-6.521a1.67,1.67,0,0,0-1.4.561,2.905,2.905,0,0,0-.441,1.791v.239a3.536,3.536,0,0,0,.438,2,1.627,1.627,0,0,0,1.429.619,1.45,1.45,0,0,0,1.285-.684,3.53,3.53,0,0,0,.451-1.948,3.407,3.407,0,0,0-.448-1.924A1.494,1.494,0,0,0,74.607-6.385ZM83.72.137A2.648,2.648,0,0,1,81.491-.9h-.1q.1.957.1,1.162v3.1H79.885V-7.561h1.3q.055.212.226,1.012h.082A2.517,2.517,0,0,1,83.747-7.7a2.624,2.624,0,0,1,2.2,1.025,4.623,4.623,0,0,1,.79,2.878,4.627,4.627,0,0,1-.8,2.892A2.648,2.648,0,0,1,83.72.137Zm-.39-6.521a1.67,1.67,0,0,0-1.4.561,2.905,2.905,0,0,0-.441,1.791v.239a3.536,3.536,0,0,0,.438,2,1.627,1.627,0,0,0,1.429.619,1.45,1.45,0,0,0,1.285-.684,3.53,3.53,0,0,0,.451-1.948,3.407,3.407,0,0,0-.448-1.924A1.494,1.494,0,0,0,83.33-6.385ZM95.313-3.794A4.127,4.127,0,0,1,94.363-.9,3.4,3.4,0,0,1,91.718.137a3.625,3.625,0,0,1-1.873-.479,3.159,3.159,0,0,1-1.251-1.374,4.68,4.68,0,0,1-.437-2.078A4.1,4.1,0,0,1,89.1-6.665,3.42,3.42,0,0,1,91.759-7.7a3.331,3.331,0,0,1,2.6,1.056A4.08,4.08,0,0,1,95.313-3.794Zm-5.5,0q0,2.618,1.935,2.618,1.914,0,1.914-2.618,0-2.591-1.928-2.591a1.644,1.644,0,0,0-1.466.67A3.409,3.409,0,0,0,89.811-3.794Zm11.184-3.9a3.867,3.867,0,0,1,.8.068l-.157,1.5a3.036,3.036,0,0,0-.711-.082,2.057,2.057,0,0,0-1.562.629,2.273,2.273,0,0,0-.6,1.634V0H97.159V-7.561h1.258l.212,1.333h.082A3,3,0,0,1,99.692-7.3,2.332,2.332,0,0,1,100.994-7.7Zm5.018,6.535a3.907,3.907,0,0,0,1.176-.185v1.21a3.243,3.243,0,0,1-.687.195,4.733,4.733,0,0,1-.872.079q-2.283,0-2.283-2.406V-6.344h-1.032v-.711l1.107-.588.547-1.6h.991v1.682h2.153v1.217h-2.153V-2.3a1.135,1.135,0,0,0,.291.858A1.059,1.059,0,0,0,106.012-1.162ZM0,1H7.347V2H0ZM13.327,1H70.162V2H13.327ZM73.769,1h5.116V2H73.769Zm8.723,0H107.55V2H82.491Z" transform="translate(90 116)" fill="#d93911"/>
  </g>
</svg>
