<svg xmlns="http://www.w3.org/2000/svg" viewBox="0 0 190 198.88"><title>ehb-edit</title><circle cx="94.95" cy="99.41" r="93.61" style="fill:#f4f4f6"/><path d="M167.23,124.64l-68.82,8.63a2,2,0,0,1-2.23-1.73L83.82,33.21A2,2,0,0,1,85.56,31l62.51-7.53a75.67,75.67,0,0,1,15.84,14.42l3.84,28.52-5.2,5.49L169,122.42A2,2,0,0,1,167.23,124.64Z" style="fill:#a5c7ee"/><polyline points="103.64 74.42 164.25 82.45 165.64 86.1 115.06 76.54 103.64 74.42" style="fill:#7caadb"/><path d="M86.07,36.41a.76.76,0,0,1,0-.34,3.33,3.33,0,0,1,.07.46A.22.22,0,0,1,86.07,36.41Z" style="fill:#c4dbed"/><path d="M150.79,22.77c.91.65,2,1.81,2.88,2.52l-4.4.57c-18,2.34-52.89,6.46-60.78,7.51-1.36.18-2.5,3.47-2.52,3.74-.21-1.23-.72-5.47-.72-5.47l2.49-1.11,58.45-7.2Z" style="fill:#c7e1f9"/><path d="M98.76,134.31a3,3,0,0,1-3-2.65L83.41,33.34A3,3,0,0,1,86,30l62.83-7.66.32.23c6.61,4.6,11.16,8.23,16.26,14.22l.19.23,3.8,29.75-5.21,5.49,6.36,50.07a3,3,0,0,1-2.62,3.37l-68.83,8.63ZM148.33,24.42,86.28,32a1,1,0,0,0-.85,1.09l12.36,98.33a.94.94,0,0,0,.37.65,1,1,0,0,0,.72.2l68.83-8.63a.94.94,0,0,0,.65-.37.9.9,0,0,0,.19-.71l-6.48-51L167.28,66l-3.59-28.19C158.89,32.25,154.54,28.77,148.33,24.42Z" style="fill:#0f2e52"/><path d="M65.77,102.32l-31.7,3.83a.52.52,0,0,1-.58-.44l-.31-2.47a.51.51,0,0,1,.44-.57l31.7-3.83a.51.51,0,0,1,.57.44l.32,2.47A.51.51,0,0,1,65.77,102.32Z" style="fill:#494a56"/><path d="M21.37,143.56a5.22,5.22,0,0,0,4.48,2.49c2.89-.19,64.06-6.6,64.06-6.6l1.3-4.45-66.9,9-2.68-2.79Z" style="fill:#cac9d1"/><path d="M165.5,35.77c-.72-.8-1.45-1.58-2.2-2.35a92.44,92.44,0,0,0-9.82-8.84c-.89-.71-1.78-1.38-2.69-2A95,95,0,1,0,159.67,169q2.21-2.06,4.28-4.24A95,95,0,0,0,165.5,35.77Zm-4.92,128A91.9,91.9,0,1,1,146.19,23.11c1,.66,1.94,1.33,2.89,2a91.86,91.86,0,0,1,15,13.72c.61.7,1.2,1.39,1.79,2.11h0a91.7,91.7,0,0,1-1,118.07Q162.82,161.47,160.58,163.74Z" style="fill:#1e5fa8"/><path d="M179.68,90.62l-5.33,41.76a3,3,0,0,1-1.55,2.32l-5.06,2.8c-.46.25-.84.52-.8.71l-2.55,21.54q-2.05,2.42-4.29,4.69L165,136.12l6.67-4.22Z" style="fill:#cac9d1"/><path d="M131.17,184.29c-1.38.58-3.67,1.29-5.09,1.82L88.1,179a5.11,5.11,0,0,1-2.85-1.62l-1.68-1.89Z" style="fill:#cac9d1"/><path d="M28,48.55,64,92.7l1.88,7.71a1.14,1.14,0,0,1-1.36,1.1l-7.3-3.25L21.82,54.45Z" style="fill:#fff"/><path d="M24.31,144l69.42-8.9a2,2,0,0,0,1.74-2.26L82.78,33.64a2,2,0,0,0-2.26-1.75L5.24,41.53a2,2,0,0,0-1.75,2.26L6,63.12l6.47,4.05,9.61,75.08A2,2,0,0,0,24.31,144Z" style="fill:#a5c7ee"/><path d="M26.59,140.87c1.5,0,64.27-8.28,64.27-8.28l.52.39-.59,3-66.48,8s-1.4.44-1.44-.86l-.41.26c.15-.1-.33-1.14-.17-1.23a9.29,9.29,0,0,1,4.14-1.28Z" style="fill:#a5c7ee"/><path d="M7.07,41.48l72.33-9,2.7.43s.27,3.73.38,4.72c-.09,0,.45.89.18.63-1-1-1.77-3.13-3.12-3C68.72,36.69,10.15,43.79,9,44.21c0,0-3,.33-3.75,1.37S4.53,47,4.53,47l-1-4.75a12.24,12.24,0,0,1,2.09-.46A6.41,6.41,0,0,0,7.07,41.48Z" style="fill:#c7e1f9"/><path d="M24,145a3,3,0,0,1-1.85-.63,3.08,3.08,0,0,1-1.16-2l-9.55-74.6L5,63.72,2.48,43.92a3,3,0,0,1,2.63-3.4l75.28-9.64a3,3,0,0,1,3.4,2.63l12.7,99.19a3.05,3.05,0,0,1-.61,2.24,3,3,0,0,1-2,1.16L24.44,145ZM6.92,62.51l6.47,4.05.06.48,9.61,75.08a1,1,0,0,0,1.12.86l69.42-8.91a1,1,0,0,0,.66-.38,1,1,0,0,0,.2-.73L81.76,33.77a1,1,0,0,0-1.11-.86L5.37,42.54a1,1,0,0,0-.87,1.12Z" style="fill:#0f2e52"/><rect x="89.07" y="111.81" width="10.16" height="3.81" rx="1.5" transform="translate(-13.26 12.43) rotate(-7.06)" style="fill:#ffe0a5"/><path d="M90.67,116.57a2.08,2.08,0,0,1-2-1.8l-.09-.74a2,2,0,0,1,.42-1.5,2,2,0,0,1,1.36-.77l7-.87a2,2,0,0,1,1.5.41,2.07,2.07,0,0,1,.78,1.36l.09.74A2.05,2.05,0,0,1,98,115.68l-7,.87Zm7-4.68h-.13l-7,.87a1,1,0,0,0-.88,1.14l.09.74a1,1,0,0,0,.38.68,1.09,1.09,0,0,0,.76.21l7-.87a1,1,0,0,0,.88-1.14l-.09-.74a1,1,0,0,0-.38-.68A1.07,1.07,0,0,0,97.62,111.89Z" style="fill:#3e3e3e"/><polygon points="93.35 112.38 92 115.67 98.68 114.87 99.58 113.53 98.13 111.53 94 111.78 93.35 112.38" style="fill:#fdcf73"/><rect x="89.68" y="118.19" width="10.16" height="3.81" rx="1.5" transform="translate(-14.04 12.55) rotate(-7.06)" style="fill:#ffe0a5"/><path d="M97.12,111.66c-.09-.13-.6.08-.77.07-1.31,0-2.62-.06-3.93-.07V112H90.63v.52H89.51v.38H89v2l0,0a.46.46,0,0,0,.13.08.7.7,0,0,1,.35.46v0l.16-.3c-.28-.37,0-.8.13-1.23a2.52,2.52,0,0,1,1.32-1,5.63,5.63,0,0,1,1.41-.3c1.62-.21,4.33-.45,6-.68A12.6,12.6,0,0,1,97.12,111.66Z" style="fill:#fdf1d8"/><path d="M96.7,114.62a2.78,2.78,0,0,0,.64-.19,2.4,2.4,0,0,0,.65-.5,2.23,2.23,0,0,0,.29-.44,2.28,2.28,0,0,0,.17-.5,2.31,2.31,0,0,0,0-.86.51.51,0,0,1,.38.12.7.7,0,0,1,.2.48,2.25,2.25,0,0,1-.08.52l-.19.82a1.48,1.48,0,0,1-.1.36,1.16,1.16,0,0,1-.65.62,2.1,2.1,0,0,1-.71.09l-2.24.06h-.44c-.31,0-4.1.47-4.39.35.12-.12,0,0,.2-.06l4.29-.52C95.41,114.88,96.06,114.77,96.7,114.62Z" style="fill:#fdcf73"/><path d="M97.55,120.59a3.38,3.38,0,0,0,.63-.23,2.46,2.46,0,0,0,.62-.54,2.2,2.2,0,0,0,.26-.45,1.87,1.87,0,0,0,.14-.51,2.48,2.48,0,0,0,0-.86.48.48,0,0,1,.38.1.68.68,0,0,1,.23.46,1.91,1.91,0,0,1,0,.53l-.14.82a2.21,2.21,0,0,1-.08.37,1.15,1.15,0,0,1-.61.65,2.14,2.14,0,0,1-.71.14c-.74.06-1.58.44-2.33.5l-.44,0c-.31,0-4,.38-4.26.28.11-.13,0,0,.19-.08.33-.06,3.93-.69,4.26-.76C96.28,120.92,96.92,120.77,97.55,120.59Z" style="fill:#fdcf73"/><polygon points="92.25 119.01 90.91 122.29 97.58 121.5 98.48 120.15 97.04 118.16 92.9 118.41 92.25 119.01" style="fill:#fdcf73"/><path d="M90.67,116.57a2.08,2.08,0,0,1-2-1.8l-.09-.74a2,2,0,0,1,.42-1.5,2,2,0,0,1,1.36-.77l7-.87a2,2,0,0,1,1.5.41,2.07,2.07,0,0,1,.78,1.36l.09.74A2.05,2.05,0,0,1,98,115.68l-7,.87Zm7-4.68h-.13l-7,.87a1,1,0,0,0-.88,1.14l.09.74a1,1,0,0,0,.38.68,1.09,1.09,0,0,0,.76.21l7-.87a1,1,0,0,0,.88-1.14l-.09-.74a1,1,0,0,0-.38-.68A1.07,1.07,0,0,0,97.62,111.89Z" style="fill:#3e3e3e"/><path d="M91.45,122.87a2,2,0,0,1-1.25-.44,2,2,0,0,1-.78-1.36l-.09-.74a2,2,0,0,1,1.78-2.27l7-.87a2,2,0,0,1,1.5.41,2.07,2.07,0,0,1,.78,1.36l.09.74A2.05,2.05,0,0,1,98.74,122l-7,.87Zm7-4.68h-.13l-7,.87a1,1,0,0,0-.88,1.14l.09.74a1,1,0,0,0,.38.68,1,1,0,0,0,.76.21l7-.88a1,1,0,0,0,.88-1.14l-.09-.73a1,1,0,0,0-.38-.68A1.07,1.07,0,0,0,98.4,118.19Z" style="fill:#3e3e3e"/><rect x="32.05" y="90.67" width="42.9" height="3.51" rx="0.5" transform="translate(-11.33 7.56) rotate(-7.31)" style="fill:#0f2e52"/><path d="M153.76,188.15,85.48,175.91a2,2,0,0,1-1.62-2.32L101.32,76a2,2,0,0,1,2.32-1.61l74,13.25A2,2,0,0,1,179.3,90l-7.72,42.68-6.6,3.69-8.9,50.17A2,2,0,0,1,153.76,188.15Z" style="fill:#9ee6e1"/><path d="M179.87,89.73l-.3-1.69L103.64,74.42,101.32,76l-12.7,75.11L93.15,135,104,78.83c.51-1.43,1.19-1.2,2.08-1.09,0,0,54.67,9.18,69.85,12,.75.14,2.11.46,1.58,3.08S179.87,89.73,179.87,89.73Z" style="fill:#c6f0ee"/><path d="M85.83,175.15l65.06,9.76s2.49,1.59,2.79-2S162,136.19,162,136.19a4.08,4.08,0,0,1,1.6-1.69c1.09-.6,5.58-3.39,5.58-3.39l5.38-19.73-3,21.29-6.6,3.69-9.21,50.94-1.9,1.2L85.48,175.91Z" style="fill:#80cecc"/><path d="M85.83,175l68,13.53,1.9-1.2L165,136.36l6.6-3.69.33-2.95-2.69,1.39s-4.29,2.09-5.38,2.69a4.08,4.08,0,0,0-1.6,1.69s-7.73,43.93-8.56,47.43c-.68,2.81-2.79,2-2.79,2l-64.71-10.7a1.47,1.47,0,0,1-1.4-1.55c0-1.5-.52,2.46-.52,2.46Z" style="fill:#80cecc"/><rect x="30.53" y="80.57" width="42.9" height="3.51" rx="0.5" transform="matrix(0.99, -0.13, 0.13, 0.99, -10.06, 7.29)" style="fill:#0f2e52"/><path d="M154.11,189.2a3.07,3.07,0,0,1-.53,0h0L85.3,176.91a3,3,0,0,1-2.44-3.5l17.45-97.56a3,3,0,0,1,1.25-1.94,3,3,0,0,1,2.26-.5l74,13.25a3,3,0,0,1,2.44,3.51l-7.8,43.15-6.6,3.7-8.82,49.69A3,3,0,0,1,154.11,189.2Zm-.17-2.06a1,1,0,0,0,1.13-.79l9-50.64,6.61-3.7,7.63-42.2a.94.94,0,0,0-.16-.73,1,1,0,0,0-.63-.41l-74-13.25a1,1,0,0,0-1.14.79L84.87,173.77a1,1,0,0,0,.79,1.13Z" style="fill:#132e52"/><rect x="108.08" y="145.57" width="37.44" height="3.51" rx="0.5" transform="translate(28.63 -20.44) rotate(10.38)" style="fill:#132e52"/><rect x="106.33" y="154.76" width="37.44" height="3.51" rx="0.5" transform="translate(30.26 -19.98) rotate(10.38)" style="fill:#132e52"/><rect x="104.13" y="81.79" width="3.38" height="3.38" rx="0.42" transform="translate(4.93 172.85) rotate(-79.81)" style="fill:#132e52"/><rect x="103.24" y="86.35" width="3.38" height="3.38" rx="0.42" transform="translate(-0.29 175.74) rotate(-79.81)" style="fill:#132e52"/><rect x="88.79" y="163.68" width="3.38" height="3.38" rx="0.42" transform="matrix(0.18, -0.98, 0.98, 0.18, -88.3, 225.15)" style="fill:#132e52"/><rect x="87.9" y="168.25" width="3.38" height="3.38" rx="0.42" transform="translate(-93.52 228.04) rotate(-79.81)" style="fill:#132e52"/><path d="M131.77,132.8h-.12l-3.45-.63a1,1,0,0,1-.61-.4.9.9,0,0,1-.15-.71l2-10.72-10.7-2a.93.93,0,0,1-.76-1.1l.63-3.45a.94.94,0,0,1,.93-.78h0l.12,0,10.71,2,2-10.68a.94.94,0,0,1,.93-.78h.18l3.44.64a1,1,0,0,1,.77,1.1l-2,10.69,10.71,2a1,1,0,0,1,.76,1.11l-.63,3.45a1,1,0,0,1-.93.77h-.18l-10.7-2-2,10.73a.94.94,0,0,1-.93.77Z" style="fill:#0f2e52"/><path d="M66.85,100.3l.35,0C67,105.73,48.52,138.9,48.52,138.9c.17-.06-13.56,1.4-13.5,1.33l23.83-38.08.12-.21L64.69,99l.09,0c.59-.25.4-.45,1-.14a2.06,2.06,0,0,1,.85.83A1.77,1.77,0,0,1,66.85,100.3Z" style="fill:#7caadb"/><path d="M65.77,102.32l-31.7,3.83a.52.52,0,0,1-.58-.44l-.31-2.47a.51.51,0,0,1,.44-.57l31.7-3.83a.51.51,0,0,1,.57.44l.32,2.47A.51.51,0,0,1,65.77,102.32Z" style="fill:#0f2e52"/><path d="M67.37,101.7a.51.51,0,0,1-.44.58l-8.88,1,2.19-3.54-.69-.24,5.66-.68a.51.51,0,0,1,.56.43s0,0,0,0Z" style="fill:#0c253e"/><path d="M81.86,48.9l5.79-.69c.66-.08,2.61-.17,2.93-.66,1.24-1.88-.33-4-.33-4L80,45.39S80.29,48.83,81.86,48.9Z" style="fill:#7caadb"/><path d="M82.68,55.12l7.39-.68s1.67-.8,1.6-1.83a16.94,16.94,0,0,0-.61-2.79l-10.27,1.8S81.1,55.06,82.68,55.12Z" style="fill:#7caadb"/><rect x="79.97" y="43.38" width="10.16" height="3.81" rx="1.5" transform="translate(-4.92 10.79) rotate(-7.06)" style="fill:#ffe0a5"/><path d="M81.57,48.13a2,2,0,0,1-1.25-.44,2,2,0,0,1-.77-1.35l-.09-.74a2,2,0,0,1,1.77-2.28l7-.87a2,2,0,0,1,2.28,1.77l.09.74a2,2,0,0,1-1.77,2.28l-7,.87Zm7-4.68H88.4l-7,.87a1,1,0,0,0-.68.39,1,1,0,0,0-.21.75l.09.74a1,1,0,0,0,.39.68,1,1,0,0,0,.75.21l7-.87a1,1,0,0,0,.68-.39,1,1,0,0,0,.21-.75l-.09-.74a1,1,0,0,0-1-.9Z" style="fill:#3e3e3e"/><rect x="80.59" y="49.75" width="10.16" height="3.81" rx="1.5" transform="translate(-5.7 10.92) rotate(-7.06)" style="fill:#ffe0a5"/><path d="M88,43.23c-.1-.14-.61.07-.77.07-1.31,0-2.62-.07-3.93-.08v.33h-1.8v.53H80.41v.37H79.9v2l0,0a.39.39,0,0,0,.14.08.72.72,0,0,1,.34.46v0l.16-.29c-.27-.38,0-.81.13-1.24a2.55,2.55,0,0,1,1.33-1,5.46,5.46,0,0,1,1.4-.3c1.63-.2,4.34-.45,6-.67C89.47,43.57,88,43.3,88,43.23Z" style="fill:#fdf1d8"/><path d="M87.6,46.19a2.8,2.8,0,0,0,.64-.2,2.42,2.42,0,0,0,.65-.49,2.16,2.16,0,0,0,.29-.45,1.74,1.74,0,0,0,.17-.5,2.3,2.3,0,0,0,0-.86.52.52,0,0,1,.38.13.67.67,0,0,1,.2.47,1.93,1.93,0,0,1-.07.53l-.19.81a2.15,2.15,0,0,1-.11.36,1.15,1.15,0,0,1-.64.62,2.16,2.16,0,0,1-.72.09L86,46.76h-.44c-.32,0-4.11.47-4.39.35.11-.12,0,0,.19-.06.33,0,4-.47,4.3-.52C86.32,46.45,87,46.33,87.6,46.19Z" style="fill:#fdcf73"/><path d="M88.81,49.33c-.1-.12-.6.11-.77.12-1.31,0-2.62.08-3.92.15v.33l-1.79.1,0,.52-1.12.06,0,.38-.5,0,.11,2,0,0,.13.07a.72.72,0,0,1,.38.44v0l.14-.31c-.3-.36-.09-.8.06-1.24A2.58,2.58,0,0,1,82.89,51a6.09,6.09,0,0,1,1.39-.38c1.61-.29,4.3-.69,5.91-1A13.13,13.13,0,0,1,88.81,49.33Z" style="fill:#fdf1d8"/><path d="M88.46,52.15a3.29,3.29,0,0,0,.62-.23,2.24,2.24,0,0,0,.62-.53,2.64,2.64,0,0,0,.27-.46,2.31,2.31,0,0,0,.14-.51,2.25,2.25,0,0,0,0-.86.54.54,0,0,1,.39.1.67.67,0,0,1,.22.46,1.87,1.87,0,0,1,0,.53l-.14.83c0,.12,0,.25-.09.36a1.12,1.12,0,0,1-.61.65,2.09,2.09,0,0,1-.71.14c-.74.06-1.58.44-2.32.51l-.44,0c-.32,0-4,.38-4.27.28.11-.13,0,0,.19-.07.33-.06,3.93-.7,4.26-.77C87.19,52.48,87.82,52.33,88.46,52.15Z" style="fill:#fdcf73"/><path d="M81.57,48.13a2,2,0,0,1-1.25-.44,2,2,0,0,1-.77-1.35l-.09-.74a2,2,0,0,1,1.77-2.28l7-.87a2,2,0,0,1,2.28,1.77l.09.74a2,2,0,0,1-1.77,2.28l-7,.87Zm7-4.68H88.4l-7,.87a1,1,0,0,0-.68.39,1,1,0,0,0-.21.75l.09.74a1,1,0,0,0,.39.68,1,1,0,0,0,.75.21l7-.87a1,1,0,0,0,.68-.39,1,1,0,0,0,.21-.75l-.09-.74a1,1,0,0,0-1-.9Z" style="fill:#132e52"/><path d="M82.36,54.43a2,2,0,0,1-2-1.79l-.09-.74A2,2,0,0,1,82,49.62l7-.87a2,2,0,0,1,2.28,1.77l.09.74a2,2,0,0,1-1.77,2.28l-7,.87Zm6.94-4.68h-.12l-7,.87a1,1,0,0,0-.68.39,1,1,0,0,0-.21.75l.09.74a1,1,0,0,0,1.14.89l7-.87a1,1,0,0,0,.68-.39,1,1,0,0,0,.21-.75l-.09-.74a1,1,0,0,0-1-.9Z" style="fill:#132e52"/><polyline points="83.38 47.39 83.66 48.69 87.34 48.26 87.21 47 83.1 47.66" style="fill:#132e52"/><polyline points="84.36 53.9 84.5 55.21 88.17 54.78 88.04 53.52 83.92 54.18" style="fill:#132e52"/><path d="M22.61,54.63l36,43.52,7.21,3.31a1.13,1.13,0,0,0,1.34-1.12l-1.83-7.7L29.25,49Z" style="fill:#ffe0a5"/><polygon points="59.38 94.64 61.84 91.74 63.64 93.69 66.37 100.95 59.23 98.53 57.38 95.91 58.02 94.27 59.38 94.64" style="fill:#fdcf73"/><polygon points="27.42 60.66 34.41 54.74 29.32 49.15 22.33 55.07 27.42 60.66" style="fill:#faab18"/><polygon points="27.66 61.16 57.25 96.95 58.16 94.47 61.02 94.56 61.28 91.78 30.34 57.9 27.66 61.16" style="fill:#fdcf73"/><polygon points="24.2 52.64 29.81 57.47 32.92 55 28.45 49.42 24.2 52.64" style="fill:#fbbc3e"/><path d="M66.27,92.17l-32-38.25a2.34,2.34,0,0,0-.48-1l-3-3.64A2.24,2.24,0,0,0,29,48.47h-.07l-2.05-2a1.64,1.64,0,0,0-2.27-.38l-4.49,3.72a1.65,1.65,0,0,0,0,2.31l1.54,2.31a3.1,3.1,0,0,0-.08.42,2.27,2.27,0,0,0,.53,1.65l3,3.64a2.33,2.33,0,0,0,.89.65l31.83,38L58,99l7.43,3.4.22.07a2,2,0,0,0,.42.05,2.13,2.13,0,0,0,1.37-.51,2.09,2.09,0,0,0,.77-1.68ZM32.21,54.24c.06.08.08.19,0,.23l-5.33,4.45a.07.07,0,0,1-.06,0,.22.22,0,0,1-.16-.09L26,58.07l5.55-4.58ZM23.62,55,29,50.53H29a.24.24,0,0,1,.16.08l1.76,2.11-5.55,4.57-1.73-2.07C23.58,55.13,23.57,55,23.62,55Zm10.1,1.48,29,34.59L62,91a1.07,1.07,0,0,0-1.17,1L60.55,94l-2-.18a1.06,1.06,0,0,0-.78.24,1.08,1.08,0,0,0-.39.73l0,.22L28.58,60.69Zm32.37,44-6.84-3.14-1-1.13.15-1.32,2,.19a1.08,1.08,0,0,0,1.17-1L61.87,92l1.74.16.79.94,1.75,7.34Z" style="fill:#132e52"/></svg>