<svg xmlns="http://www.w3.org/2000/svg" xmlns:xlink="http://www.w3.org/1999/xlink" viewBox="0 0 190 198.88"><defs><clipPath id="a" transform="translate(0 -0.15)"><path d="M186.27,95.69a93.27,93.27,0,0,1-37.57,75.15,89.53,89.53,0,0,1-105.5,1A93.28,93.28,0,0,1,4.27,95.69c0-31.53,13.91-58.75,37.45-75.52A20.26,20.26,0,0,1,61.89,0l66.64.26c11.18,0,19.92,8.25,19.92,19.65l.25.62A93.29,93.29,0,0,1,186.27,95.69Z" style="fill:none"/></clipPath><clipPath id="b" transform="translate(0 -0.15)"><rect x="44" y="1.15" width="102" height="194.88" rx="18.24" style="fill:none"/></clipPath></defs><title>Dynamic</title><circle cx="95" cy="96.73" r="93" style="fill:#fff"/><path d="M95,5.87a91,91,0,1,1-91,91,91,91,0,0,1,91-91m0-4a95,95,0,1,0,95,95,95.11,95.11,0,0,0-95-95Z" transform="translate(0 -0.15)" style="fill:#205fa9"/><line x1="37.27" y1="135.76" x2="30.27" y2="142.76" style="fill:none;stroke:#faac19;stroke-linecap:round;stroke-miterlimit:10;stroke-width:3px"/><line x1="33.5" y1="129.08" x2="23.5" y2="129.08" style="fill:none;stroke:#faac19;stroke-linecap:round;stroke-miterlimit:10;stroke-width:3px"/><line x1="38.27" y1="121.76" x2="31.27" y2="114.76" style="fill:none;stroke:#faac19;stroke-linecap:round;stroke-miterlimit:10;stroke-width:3px"/><line x1="152.71" y1="121.76" x2="159.71" y2="114.76" style="fill:none;stroke:#faac19;stroke-linecap:round;stroke-miterlimit:10;stroke-width:3px"/><line x1="156.95" y1="129.08" x2="166.95" y2="129.08" style="fill:none;stroke:#faac19;stroke-linecap:round;stroke-miterlimit:10;stroke-width:3px"/><line x1="151.71" y1="135.76" x2="158.71" y2="142.76" style="fill:none;stroke:#faac19;stroke-linecap:round;stroke-miterlimit:10;stroke-width:3px"/><g style="clip-path:url(#a)"><rect x="43" y="1" width="104" height="196.88" rx="19.24" style="fill:#7cabdb"/><path d="M127.76,2.15A18.24,18.24,0,0,1,146,20.39V178.78A18.24,18.24,0,0,1,127.76,197H62.24A18.24,18.24,0,0,1,44,178.78V20.39A18.24,18.24,0,0,1,62.24,2.15h65.52m0-2H62.24A20.26,20.26,0,0,0,42,20.39V178.78A20.26,20.26,0,0,0,62.24,199h65.52A20.26,20.26,0,0,0,148,178.78V20.39A20.26,20.26,0,0,0,127.76.15Z" transform="translate(0 -0.15)" style="fill:#122e52"/><g style="clip-path:url(#b)"><polygon points="135.54 191.17 130.96 192.81 65.98 3.79 70.56 2.15 135.54 191.17" style="fill:#a6c6e9"/></g><rect x="49.5" y="26" width="90" height="145.9" style="fill:#fff"/><rect x="49.5" y="26" width="90" height="145.9" style="fill:none;stroke:#122e52;stroke-miterlimit:10;stroke-width:3px"/><path d="M136.5,29.14V169.05h-84V29.14h84m3-3h-90V172.05h90V26.14Z" transform="translate(0 -0.15)" style="fill:#a6c6e9"/><line x1="85.5" y1="13.75" x2="109.5" y2="13.75" style="fill:none;stroke:#132e52;stroke-linecap:round;stroke-miterlimit:10;stroke-width:3px"/><line x1="80.5" y1="13.75" x2="80.5" y2="13.75" style="fill:none;stroke:#132e52;stroke-linecap:round;stroke-miterlimit:10;stroke-width:3px"/><ellipse cx="95" cy="183.63" rx="6.5" ry="6.63" style="fill:#5590cc;stroke:#132e52;stroke-linecap:round;stroke-miterlimit:10"/><rect x="58.5" y="95.46" width="14" height="14.28" rx="1.71" style="fill:none;stroke:#132e52;stroke-miterlimit:10"/><rect x="82" y="98.01" width="50" height="10.2" rx="1.71" style="fill:#205fa9"/><polygon points="65.89 108.32 58.78 101.06 61.17 98.62 65.89 103.44 76.53 92.59 78.92 95.03 65.89 108.32" style="fill:#205fa9"/><rect x="58.5" y="70.98" width="14" height="14.28" rx="1.71" style="fill:none;stroke:#122e52;stroke-miterlimit:10"/><rect x="82" y="73.53" width="50" height="10.2" rx="1.71" style="fill:#205fa9"/><polygon points="65.72 83.83 58.62 76.58 61.01 74.14 65.72 78.95 76.36 68.1 78.75 70.54 65.72 83.83" style="fill:#205fa9"/><rect x="58.5" y="47.66" width="14" height="14.28" rx="1.71" style="fill:none;stroke:#132e52;stroke-miterlimit:10"/><rect x="82" y="50.21" width="50" height="10.2" rx="1.71" style="fill:#205fa9"/><polygon points="65.89 60.23 58.78 52.98 61.17 50.54 65.89 55.35 76.53 44.51 78.92 46.94 65.89 60.23" style="fill:#205fa9"/><rect x="50" y="120.77" width="18" height="18.37" rx="1.71" style="fill:#5590cc"/><rect x="80" y="122.81" width="65" height="13.26" rx="1.71" style="fill:#5590cc"/><polygon points="58.72 136.41 49.4 126.9 52.53 123.7 58.72 130.02 72.66 115.79 75.79 118.99 58.72 136.41" style="fill:#5590cc"/><rect x="47.5" y="117.19" width="18" height="18.37" rx="1.71" style="fill:#fff;stroke:#122e52;stroke-miterlimit:10"/><rect x="78" y="119.74" width="65" height="13.26" rx="1.71" style="fill:#fff;stroke:#205fa9;stroke-miterlimit:10"/><polygon points="56.72 133.35 47.4 123.84 50.53 120.64 56.72 126.96 70.66 112.73 73.79 115.93 56.72 133.35" style="fill:#fff"/><polyline points="57.77 132.28 56.72 133.35 55.67 132.28" style="fill:none;stroke:#205fa9;stroke-miterlimit:10"/><line x1="54.46" y1="131.05" x2="49.05" y2="125.52" style="fill:none;stroke:#205fa9;stroke-miterlimit:10;stroke-dasharray:2.578300952911377,1.718867301940918"/><polyline points="48.45 124.91 47.4 123.84 48.45 122.77" style="fill:none;stroke:#205fa9;stroke-miterlimit:10"/><polyline points="49.48 121.72 50.53 120.64 51.58 121.72" style="fill:none;stroke:#205fa9;stroke-miterlimit:10"/><line x1="52.75" y1="122.91" x2="55.08" y2="125.29" style="fill:none;stroke:#205fa9;stroke-miterlimit:10;stroke-dasharray:2.5021650791168213,1.6681101322174072"/><polyline points="55.67 125.88 56.72 126.96 57.77 125.88" style="fill:none;stroke:#205fa9;stroke-miterlimit:10"/><line x1="59.16" y1="124.46" x2="68.91" y2="114.52" style="fill:none;stroke:#205fa9;stroke-miterlimit:10;stroke-dasharray:2.9848551750183105,1.9899035692214966"/><polyline points="69.61 113.81 70.66 112.73 71.7 113.81" style="fill:none;stroke:#205fa9;stroke-miterlimit:10"/><polyline points="72.74 114.86 73.79 115.93 72.74 117" style="fill:none;stroke:#205fa9;stroke-miterlimit:10"/><line x1="71.38" y1="118.39" x2="58.45" y2="131.58" style="fill:none;stroke:#205fa9;stroke-miterlimit:10;stroke-dasharray:2.9166817665100098,1.9444544315338135"/><path d="M80,119.27h30.16a1.2,1.2,0,0,1,1.2,1.2v11.84a1.2,1.2,0,0,1-1.2,1.2H80a2.43,2.43,0,0,1-2.43-2.43v-9.39A2.43,2.43,0,0,1,80,119.27Z" style="fill:#7cabdb"/><rect x="78" y="119.74" width="65" height="13.26" rx="1.71" style="fill:none;stroke:#205fa9;stroke-miterlimit:10"/><path d="M100.46,155a6.23,6.23,0,0,0,.12-1.15,5.71,5.71,0,1,0-5.7,5.82,4.68,4.68,0,0,0,.64,0L96.3,161a6.71,6.71,0,0,1-1.42.14,7.3,7.3,0,1,1,7.16-7.3,7.54,7.54,0,0,1-.32,2.14l1.19.95-4.45,1.86.65-4.86Z" transform="translate(0 -0.15)" style="fill:#16487d"/><path d="M46.55,180.84V22.46A18.25,18.25,0,0,1,64.8,4.21h65.51a18.18,18.18,0,0,1,10,3,18.17,18.17,0,0,0-12.42-4.9H62.37A18.24,18.24,0,0,0,44.13,20.54V178.93a18.21,18.21,0,0,0,8.25,15.25A18.15,18.15,0,0,1,46.55,180.84Z" transform="translate(0 -0.15)" style="fill:#a6c6e9"/></g></svg>