<svg xmlns="http://www.w3.org/2000/svg" xmlns:xlink="http://www.w3.org/1999/xlink" width="1920" height="391" viewBox="0 0 1920 391">
  <defs>
    <filter id="Card" x="370.5" y="157.5" width="1179" height="286" filterUnits="userSpaceOnUse">
      <feOffset dy="1" input="SourceAlpha"/>
      <feGaussianBlur stdDeviation="1.5" result="blur"/>
      <feFlood flood-opacity="0.161"/>
      <feComposite operator="in" in2="blur"/>
      <feComposite in="SourceGraphic"/>
    </filter>
    <filter id="Rectangle_7530" x="-9" y="-2" width="1938" height="80" filterUnits="userSpaceOnUse">
      <feOffset dy="3" input="SourceAlpha"/>
      <feGaussianBlur stdDeviation="3" result="blur-2"/>
      <feFlood flood-opacity="0.161"/>
      <feComposite operator="in" in2="blur-2"/>
      <feComposite in="SourceGraphic"/>
    </filter>
    <clipPath id="clip-path">
      <rect width="88.649" height="36" fill="none"/>
    </clipPath>
    <clipPath id="clip-Focus_form_-_scrolled">
      <rect width="1920" height="391"/>
    </clipPath>
  </defs>
  <g id="Focus_form_-_scrolled" data-name="Focus form - scrolled" clip-path="url(#clip-Focus_form_-_scrolled)">
    <rect width="1920" height="391" fill="#fafafa"/>
    <g id="Quote_details_form" data-name="Quote details form" transform="translate(-41 -50)">
      <g id="Card-2" data-name="Card" transform="translate(416 211)">
        <g transform="matrix(1, 0, 0, 1, -375, -161)" filter="url(#Card)">
          <rect id="Card-3" data-name="Card" width="1170" height="277" rx="2" transform="translate(375 161)" fill="#fff"/>
        </g>
      </g>
      <g id="Link_Icon_-_Normal_" data-name="Link + Icon - Normal " transform="translate(632 352)">
        <rect id="Rectangle_5275" data-name="Rectangle 5275" width="168" height="36" rx="18" fill="none"/>
        <g id="Group_12534" data-name="Group 12534" transform="translate(1)">
          <text id="Look_up_SIC_Code" data-name="Look up SIC Code" transform="translate(96 23)" fill="#2777d3" font-size="14" font-family="SegoeUI-Semibold, Segoe UI" font-weight="600"><tspan x="-56.195" y="0">Look up SIC Code</tspan></text>
          <g id="External" transform="translate(22 18)">
            <g id="External-2" data-name="External" transform="translate(-8 -8)">
              <g id="Group_14180" data-name="Group 14180">
                <path id="Path_9582" data-name="Path 9582" d="M8.2,8.7h.3L11.1,6V7.8a.2.2,0,0,0,.2.2h1.4a.2.2,0,0,0,.2-.2V3.3a.2.2,0,0,0-.2-.2H8.2a.2.2,0,0,0-.2.2V4.7a.2.2,0,0,0,.2.2H10L7.3,7.5a.2.2,0,0,0,0,.3Z" fill="#2777d3"/>
                <path id="Path_9583" data-name="Path 9583" d="M15.2,0H4.8A.8.8,0,0,0,4,.8V4H.8a.8.8,0,0,0-.8.8V15.2a.8.8,0,0,0,.8.8H11.2a.8.8,0,0,0,.8-.8V12h3.2a.8.8,0,0,0,.8-.8V.8A.8.8,0,0,0,15.2,0ZM10.7,14.7H1.3V5.3H4V12h6.7Zm4-4H5.3V1.3h9.3Z" fill="#2777d3"/>
              </g>
              <rect id="Rectangle_7466" data-name="Rectangle 7466" width="16" height="16" fill="none"/>
            </g>
          </g>
        </g>
      </g>
      <g id="Input-_no_label" data-name="Input- no label" transform="translate(446 350)">
        <g id="Rectangle_288" data-name="Rectangle 288" fill="#fff" stroke="#cbcbd2" stroke-width="1">
          <rect width="176" height="42" rx="4" stroke="none"/>
          <rect x="0.5" y="0.5" width="175" height="41" rx="3.5" fill="none"/>
        </g>
        <path id="Path_101379" data-name="Path 101379" d="M5.811-9.8v6.474H7.068V-2.3H5.811V0H4.7V-2.3H.1v-.971Q.738-4,1.395-4.823T2.649-6.494q.6-.848,1.107-1.692A15.463,15.463,0,0,0,4.614-9.8ZM1.36-3.329H4.7v-4.8q-.513.9-.971,1.6T2.861-5.25q-.414.574-.79,1.039T1.36-3.329Zm10.9-.13H8.531v-.882h3.732ZM20.255,0H19.134V-1.189h-.027A2.588,2.588,0,0,1,16.7.164a2.615,2.615,0,0,1-2.109-.94,3.856,3.856,0,0,1-.79-2.56,4.2,4.2,0,0,1,.875-2.782,2.886,2.886,0,0,1,2.331-1.046,2.244,2.244,0,0,1,2.1,1.135h.027v-4.334h1.121ZM19.134-3.165V-4.2a2,2,0,0,0-.561-1.436,1.88,1.88,0,0,0-1.422-.588,1.936,1.936,0,0,0-1.613.752,3.3,3.3,0,0,0-.588,2.078,2.964,2.964,0,0,0,.564,1.911,1.843,1.843,0,0,0,1.514.7,1.915,1.915,0,0,0,1.521-.677A2.521,2.521,0,0,0,19.134-3.165ZM23.1-8.777a.71.71,0,0,1-.513-.205.692.692,0,0,1-.212-.52.7.7,0,0,1,.212-.523.7.7,0,0,1,.513-.208.724.724,0,0,1,.523.208.7.7,0,0,1,.215.523.693.693,0,0,1-.215.513A.718.718,0,0,1,23.1-8.777ZM23.646,0H22.524V-7h1.121ZM31.89-.561q0,3.855-3.691,3.855a4.956,4.956,0,0,1-2.27-.492V1.682a4.661,4.661,0,0,0,2.256.656q2.584,0,2.584-2.748v-.766h-.027A2.622,2.622,0,0,1,28.335.164a2.628,2.628,0,0,1-2.1-.933,3.73,3.73,0,0,1-.8-2.505,4.358,4.358,0,0,1,.858-2.837,2.866,2.866,0,0,1,2.348-1.053,2.282,2.282,0,0,1,2.1,1.135h.027V-7H31.89Zm-1.121-2.6V-4.2A2,2,0,0,0,30.2-5.626a1.857,1.857,0,0,0-1.4-.595,1.947,1.947,0,0,0-1.627.755,3.372,3.372,0,0,0-.588,2.116,2.894,2.894,0,0,0,.564,1.87,1.822,1.822,0,0,0,1.494.7,1.951,1.951,0,0,0,1.535-.67A2.5,2.5,0,0,0,30.769-3.165Zm3.965-5.612a.71.71,0,0,1-.513-.205.692.692,0,0,1-.212-.52.7.7,0,0,1,.212-.523.7.7,0,0,1,.513-.208.724.724,0,0,1,.523.208.7.7,0,0,1,.215.523.693.693,0,0,1-.215.513A.718.718,0,0,1,34.733-8.777ZM35.28,0H34.159V-7H35.28ZM40.8-.068A2.161,2.161,0,0,1,39.751.15Q37.912.15,37.912-1.9V-6.043h-1.2V-7h1.2V-8.709l1.121-.362V-7H40.8v.957H39.033V-2.1a1.635,1.635,0,0,0,.239,1,.955.955,0,0,0,.793.3,1.179,1.179,0,0,0,.731-.232ZM46.7-8.777a.71.71,0,0,1-.513-.205.692.692,0,0,1-.212-.52.7.7,0,0,1,.212-.523.7.7,0,0,1,.513-.208.724.724,0,0,1,.523.208.7.7,0,0,1,.215.523.693.693,0,0,1-.215.513A.718.718,0,0,1,46.7-8.777ZM47.25,0H46.129V-7H47.25Zm8.08,0H54.209V-3.992q0-2.229-1.627-2.229a1.765,1.765,0,0,0-1.391.632,2.344,2.344,0,0,0-.55,1.6V0H49.52V-7h1.121v1.162h.027a2.526,2.526,0,0,1,2.3-1.326,2.142,2.142,0,0,1,1.757.742,3.3,3.3,0,0,1,.608,2.143Zm8.087,0H62.3V-1.189h-.027A2.588,2.588,0,0,1,59.862.164a2.615,2.615,0,0,1-2.109-.94,3.856,3.856,0,0,1-.79-2.56,4.2,4.2,0,0,1,.875-2.782A2.886,2.886,0,0,1,60.17-7.164a2.244,2.244,0,0,1,2.1,1.135H62.3v-4.334h1.121ZM62.3-3.165V-4.2a2,2,0,0,0-.561-1.436,1.88,1.88,0,0,0-1.422-.588,1.936,1.936,0,0,0-1.613.752,3.3,3.3,0,0,0-.588,2.078,2.964,2.964,0,0,0,.564,1.911,1.843,1.843,0,0,0,1.514.7,1.915,1.915,0,0,0,1.521-.677A2.521,2.521,0,0,0,62.3-3.165ZM71.347,0H70.226V-1.107H70.2A2.3,2.3,0,0,1,68.038.164q-2.5,0-2.5-2.98V-7H66.65v4.006q0,2.215,1.7,2.215a1.715,1.715,0,0,0,1.35-.6,2.315,2.315,0,0,0,.53-1.583V-7h1.121Zm1.839-.253v-1.2A3.318,3.318,0,0,0,75.2-.779q1.477,0,1.477-.984a.854.854,0,0,0-.126-.475,1.26,1.26,0,0,0-.342-.345,2.631,2.631,0,0,0-.506-.27q-.291-.12-.625-.25a8.056,8.056,0,0,1-.817-.373,2.468,2.468,0,0,1-.588-.424,1.577,1.577,0,0,1-.355-.537,1.9,1.9,0,0,1-.12-.7,1.673,1.673,0,0,1,.226-.872,2,2,0,0,1,.6-.636,2.805,2.805,0,0,1,.858-.386,3.805,3.805,0,0,1,.995-.13,4.016,4.016,0,0,1,1.627.314v1.135a3.171,3.171,0,0,0-1.777-.506,2.078,2.078,0,0,0-.567.072,1.389,1.389,0,0,0-.434.2.932.932,0,0,0-.28.311.819.819,0,0,0-.1.4.959.959,0,0,0,.1.458,1.008,1.008,0,0,0,.291.328,2.221,2.221,0,0,0,.465.26q.273.116.622.253a8.658,8.658,0,0,1,.834.366,2.86,2.86,0,0,1,.629.424,1.656,1.656,0,0,1,.4.543,1.753,1.753,0,0,1,.14.731,1.725,1.725,0,0,1-.229.9,1.963,1.963,0,0,1-.612.636A2.8,2.8,0,0,1,76.1.041a4.354,4.354,0,0,1-1.046.123A3.971,3.971,0,0,1,73.186-.253ZM82.8-.068A2.161,2.161,0,0,1,81.751.15Q79.912.15,79.912-1.9V-6.043h-1.2V-7h1.2V-8.709l1.121-.362V-7H82.8v.957H81.033V-2.1a1.635,1.635,0,0,0,.239,1,.955.955,0,0,0,.793.3,1.179,1.179,0,0,0,.731-.232Zm5.147-5.8a1.371,1.371,0,0,0-.848-.226,1.431,1.431,0,0,0-1.2.677,3.129,3.129,0,0,0-.482,1.846V0H84.294V-7h1.121v1.442h.027a2.444,2.444,0,0,1,.731-1.152,1.668,1.668,0,0,1,1.1-.414,1.83,1.83,0,0,1,.67.1ZM94.732-7l-3.22,8.121q-.861,2.174-2.42,2.174a2.565,2.565,0,0,1-.731-.089v-1a2.078,2.078,0,0,0,.663.123A1.374,1.374,0,0,0,90.3,1.313l.561-1.326L88.122-7h1.244L91.26-1.613q.034.1.144.533h.041q.034-.164.137-.52L93.57-7Zm9.81,6.679a3.643,3.643,0,0,1-1.914.485,3.169,3.169,0,0,1-2.417-.974,3.53,3.53,0,0,1-.919-2.526,3.881,3.881,0,0,1,.991-2.779,3.467,3.467,0,0,1,2.646-1.049,3.682,3.682,0,0,1,1.627.342v1.148a2.85,2.85,0,0,0-1.668-.547,2.254,2.254,0,0,0-1.76.769,2.918,2.918,0,0,0-.687,2.02,2.779,2.779,0,0,0,.646,1.941,2.227,2.227,0,0,0,1.733.711,2.81,2.81,0,0,0,1.723-.608Zm4.621.485a3.247,3.247,0,0,1-2.478-.981,3.633,3.633,0,0,1-.926-2.6,3.785,3.785,0,0,1,.964-2.755,3.465,3.465,0,0,1,2.6-.991,3.14,3.14,0,0,1,2.444.964,3.822,3.822,0,0,1,.878,2.673A3.761,3.761,0,0,1,111.7-.844,3.317,3.317,0,0,1,109.163.164Zm.082-6.385a2.132,2.132,0,0,0-1.709.735,3.018,3.018,0,0,0-.629,2.027,2.854,2.854,0,0,0,.636,1.962,2.161,2.161,0,0,0,1.7.718,2.049,2.049,0,0,0,1.671-.7,3.055,3.055,0,0,0,.584-2,3.108,3.108,0,0,0-.584-2.023A2.04,2.04,0,0,0,109.245-6.221ZM120.415,0h-1.121V-1.189h-.027A2.588,2.588,0,0,1,116.86.164a2.615,2.615,0,0,1-2.109-.94,3.856,3.856,0,0,1-.79-2.56,4.2,4.2,0,0,1,.875-2.782,2.886,2.886,0,0,1,2.331-1.046,2.244,2.244,0,0,1,2.1,1.135h.027v-4.334h1.121Zm-1.121-3.165V-4.2a2,2,0,0,0-.561-1.436,1.88,1.88,0,0,0-1.422-.588,1.936,1.936,0,0,0-1.613.752,3.3,3.3,0,0,0-.588,2.078,2.964,2.964,0,0,0,.564,1.911,1.843,1.843,0,0,0,1.514.7,1.915,1.915,0,0,0,1.521-.677A2.521,2.521,0,0,0,119.294-3.165Zm9.017-.055h-4.942a2.618,2.618,0,0,0,.629,1.8,2.168,2.168,0,0,0,1.654.636,3.439,3.439,0,0,0,2.174-.779V-.506a4.063,4.063,0,0,1-2.44.67,2.959,2.959,0,0,1-2.331-.954,3.9,3.9,0,0,1-.848-2.683,3.828,3.828,0,0,1,.926-2.663,2.97,2.97,0,0,1,2.3-1.029,2.632,2.632,0,0,1,2.126.889,3.705,3.705,0,0,1,.752,2.468Zm-1.148-.95a2.281,2.281,0,0,0-.468-1.511,1.6,1.6,0,0,0-1.282-.54,1.811,1.811,0,0,0-1.347.567,2.575,2.575,0,0,0-.684,1.483Z" transform="translate(15 27)" fill="#cbcbd2"/>
      </g>
      <path id="Path_101380" data-name="Path 101380" d="M.759-.39V-2.064A2.587,2.587,0,0,0,1.3-1.7a4.146,4.146,0,0,0,.66.277,5.2,5.2,0,0,0,.7.174,3.717,3.717,0,0,0,.643.062,2.742,2.742,0,0,0,1.528-.342,1.124,1.124,0,0,0,.5-.991,1.081,1.081,0,0,0-.167-.6,1.757,1.757,0,0,0-.468-.468A4.92,4.92,0,0,0,3.982-4Q3.575-4.19,3.11-4.4q-.5-.267-.93-.54a4,4,0,0,1-.749-.6,2.531,2.531,0,0,1-.5-.749,2.438,2.438,0,0,1-.181-.978,2.256,2.256,0,0,1,.311-1.2,2.627,2.627,0,0,1,.82-.841,3.761,3.761,0,0,1,1.159-.492,5.5,5.5,0,0,1,1.326-.161,5.353,5.353,0,0,1,2.242.349v1.606a3.581,3.581,0,0,0-2.146-.6,3.846,3.846,0,0,0-.721.068,2.144,2.144,0,0,0-.643.226,1.391,1.391,0,0,0-.461.4.989.989,0,0,0-.178.595,1.125,1.125,0,0,0,.137.567,1.464,1.464,0,0,0,.4.438,4.086,4.086,0,0,0,.643.386q.379.188.878.407.513.267.967.561a4.56,4.56,0,0,1,.8.649,2.854,2.854,0,0,1,.547.79,2.319,2.319,0,0,1,.2.988,2.448,2.448,0,0,1-.3,1.258,2.424,2.424,0,0,1-.81.834A3.608,3.608,0,0,1,4.751.021a6.61,6.61,0,0,1-1.4.144,5.967,5.967,0,0,1-.6-.038Q2.386.089,2.01.017A6.759,6.759,0,0,1,1.3-.157,2.251,2.251,0,0,1,.759-.39ZM10.5,0H8.825V-9.8H10.5Zm9.249-.41a5.943,5.943,0,0,1-2.755.574,4.5,4.5,0,0,1-3.418-1.347,4.907,4.907,0,0,1-1.285-3.534,5.146,5.146,0,0,1,1.446-3.8,4.946,4.946,0,0,1,3.654-1.449,5.988,5.988,0,0,1,2.358.4V-7.95a4.208,4.208,0,0,0-2.187-.588A3.433,3.433,0,0,0,14.981-7.52,3.742,3.742,0,0,0,13.993-4.8a3.568,3.568,0,0,0,.923,2.581,3.212,3.212,0,0,0,2.427.96,4.345,4.345,0,0,0,2.406-.656Zm12.544,0a5.943,5.943,0,0,1-2.755.574A4.5,4.5,0,0,1,26.12-1.183a4.907,4.907,0,0,1-1.285-3.534,5.146,5.146,0,0,1,1.446-3.8,4.946,4.946,0,0,1,3.654-1.449,5.988,5.988,0,0,1,2.358.4V-7.95a4.208,4.208,0,0,0-2.187-.588A3.433,3.433,0,0,0,27.525-7.52,3.742,3.742,0,0,0,26.537-4.8a3.568,3.568,0,0,0,.923,2.581,3.212,3.212,0,0,0,2.427.96,4.345,4.345,0,0,0,2.406-.656Zm4.785.574a3.47,3.47,0,0,1-2.587-.981,3.544,3.544,0,0,1-.967-2.6,3.687,3.687,0,0,1,1.008-2.755,3.708,3.708,0,0,1,2.717-.991,3.358,3.358,0,0,1,2.557.964,3.723,3.723,0,0,1,.916,2.673,3.669,3.669,0,0,1-.988,2.683A3.548,3.548,0,0,1,37.078.164ZM37.153-5.9a1.81,1.81,0,0,0-1.47.649,2.719,2.719,0,0,0-.54,1.791,2.561,2.561,0,0,0,.547,1.733,1.837,1.837,0,0,0,1.463.632,1.743,1.743,0,0,0,1.439-.622,2.754,2.754,0,0,0,.5-1.771,2.8,2.8,0,0,0-.5-1.784A1.734,1.734,0,0,0,37.153-5.9ZM48.7,0H47.113V-1.189h-.027A2.53,2.53,0,0,1,44.728.164a2.546,2.546,0,0,1-2.068-.94,3.9,3.9,0,0,1-.776-2.56,4.251,4.251,0,0,1,.858-2.782,2.808,2.808,0,0,1,2.287-1.046,2.19,2.19,0,0,1,2.058,1.135h.027v-4.334H48.7ZM47.134-3.2v-.916a1.785,1.785,0,0,0-.485-1.265,1.619,1.619,0,0,0-1.237-.52,1.666,1.666,0,0,0-1.4.663A2.955,2.955,0,0,0,43.5-3.4a2.648,2.648,0,0,0,.489,1.685,1.59,1.59,0,0,0,1.316.619,1.646,1.646,0,0,0,1.319-.6A2.253,2.253,0,0,0,47.134-3.2Zm9.563.13H51.926a2.017,2.017,0,0,0,.6,1.5,2.225,2.225,0,0,0,1.569.526,3.459,3.459,0,0,0,2.058-.67V-.437a4.7,4.7,0,0,1-2.529.6A3.131,3.131,0,0,1,51.2-.79a3.814,3.814,0,0,1-.878-2.683,3.73,3.73,0,0,1,.967-2.663,3.164,3.164,0,0,1,2.4-1.029,2.759,2.759,0,0,1,2.222.923A3.832,3.832,0,0,1,56.7-3.678ZM55.166-4.19a2.044,2.044,0,0,0-.4-1.33A1.348,1.348,0,0,0,53.669-6a1.539,1.539,0,0,0-1.159.5,2.28,2.28,0,0,0-.584,1.306Z" transform="translate(446 342)" fill="#31313a"/>
      <g id="Group_14219" data-name="Group 14219" transform="translate(-52 44)">
        <g id="Input-_no_label-2" data-name="Input- no label" transform="translate(498 391)">
          <g id="Rectangle_288-2" data-name="Rectangle 288" fill="#fff" stroke="#cbcbd2" stroke-width="1">
            <rect width="440" height="42" rx="4" stroke="none"/>
            <rect x="0.5" y="0.5" width="439" height="41" rx="3.5" fill="none"/>
          </g>
          <path id="Path_101378" data-name="Path 101378" d="M8.456-3.965Q8.456.164,4.73.164q-3.568,0-3.568-3.972v-6H2.311v5.92q0,3.015,2.543,3.015,2.454,0,2.454-2.912V-9.8H8.456ZM16.563,0H15.442V-3.992q0-2.229-1.627-2.229a1.765,1.765,0,0,0-1.391.632,2.344,2.344,0,0,0-.55,1.6V0H10.753V-7h1.121v1.162H11.9a2.526,2.526,0,0,1,2.3-1.326,2.142,2.142,0,0,1,1.757.742,3.3,3.3,0,0,1,.608,2.143ZM19.25-8.777a.71.71,0,0,1-.513-.205.692.692,0,0,1-.212-.52.7.7,0,0,1,.212-.523.7.7,0,0,1,.513-.208.724.724,0,0,1,.523.208.7.7,0,0,1,.215.523.693.693,0,0,1-.215.513A.718.718,0,0,1,19.25-8.777ZM19.8,0H18.676V-7H19.8Zm8.244,3.22H26.92V-1.2h-.027A2.508,2.508,0,0,1,24.5.164a2.634,2.634,0,0,1-2.116-.94,3.834,3.834,0,0,1-.8-2.56,4.192,4.192,0,0,1,.875-2.786,2.912,2.912,0,0,1,2.352-1.042,2.207,2.207,0,0,1,2.078,1.135h.027V-7h1.121ZM26.92-3.151V-4.17a2.037,2.037,0,0,0-.564-1.456,1.888,1.888,0,0,0-1.432-.595,1.925,1.925,0,0,0-1.6.749,3.341,3.341,0,0,0-.588,2.109,2.894,2.894,0,0,0,.567,1.9,1.811,1.811,0,0,0,1.463.687,1.972,1.972,0,0,0,1.569-.673A2.5,2.5,0,0,0,26.92-3.151ZM35.971,0H34.85V-1.107h-.027A2.3,2.3,0,0,1,32.662.164q-2.5,0-2.5-2.98V-7h1.114v4.006q0,2.215,1.7,2.215a1.715,1.715,0,0,0,1.35-.6,2.315,2.315,0,0,0,.53-1.583V-7h1.121Zm7.889-3.22H38.917a2.618,2.618,0,0,0,.629,1.8A2.168,2.168,0,0,0,41.2-.779a3.439,3.439,0,0,0,2.174-.779V-.506a4.063,4.063,0,0,1-2.44.67A2.959,2.959,0,0,1,38.6-.79a3.9,3.9,0,0,1-.848-2.683,3.828,3.828,0,0,1,.926-2.663,2.97,2.97,0,0,1,2.3-1.029,2.632,2.632,0,0,1,2.126.889,3.705,3.705,0,0,1,.752,2.468Zm-1.148-.95a2.281,2.281,0,0,0-.468-1.511,1.6,1.6,0,0,0-1.282-.54,1.811,1.811,0,0,0-1.347.567,2.575,2.575,0,0,0-.684,1.483ZM55.2,0H54.079V-3.992q0-2.229-1.627-2.229a1.765,1.765,0,0,0-1.391.632,2.344,2.344,0,0,0-.55,1.6V0H49.39V-7h1.121v1.162h.027a2.526,2.526,0,0,1,2.3-1.326,2.142,2.142,0,0,1,1.757.742A3.3,3.3,0,0,1,55.2-4.279Zm7.123,0H61.2V-1.094h-.027A2.347,2.347,0,0,1,59.021.164,2.3,2.3,0,0,1,57.384-.39a1.918,1.918,0,0,1-.591-1.47q0-1.962,2.311-2.283l2.1-.294q0-1.784-1.442-1.784a3.446,3.446,0,0,0-2.283.861V-6.508a4.338,4.338,0,0,1,2.379-.656q2.468,0,2.468,2.611ZM61.2-3.541l-1.688.232a2.741,2.741,0,0,0-1.176.386,1.114,1.114,0,0,0-.4.981,1.068,1.068,0,0,0,.366.837,1.413,1.413,0,0,0,.974.325,1.8,1.8,0,0,0,1.377-.584,2.088,2.088,0,0,0,.543-1.48ZM74.375,0H73.254V-4.02A3.032,3.032,0,0,0,72.9-5.7a1.361,1.361,0,0,0-1.207-.52,1.494,1.494,0,0,0-1.22.656,2.511,2.511,0,0,0-.5,1.572V0H68.845V-4.156q0-2.064-1.593-2.064a1.475,1.475,0,0,0-1.217.619,2.557,2.557,0,0,0-.479,1.61V0H64.436V-7h1.121v1.107h.027a2.378,2.378,0,0,1,2.174-1.271,2.027,2.027,0,0,1,1.251.4,2.012,2.012,0,0,1,.731,1.049,2.5,2.5,0,0,1,2.324-1.449q2.311,0,2.311,2.851ZM82.12-3.22H77.178a2.618,2.618,0,0,0,.629,1.8,2.168,2.168,0,0,0,1.654.636,3.439,3.439,0,0,0,2.174-.779V-.506a4.063,4.063,0,0,1-2.44.67A2.959,2.959,0,0,1,76.863-.79a3.9,3.9,0,0,1-.848-2.683,3.828,3.828,0,0,1,.926-2.663,2.97,2.97,0,0,1,2.3-1.029,2.632,2.632,0,0,1,2.126.889,3.705,3.705,0,0,1,.752,2.468Zm-1.148-.95A2.281,2.281,0,0,0,80.5-5.681a1.6,1.6,0,0,0-1.282-.54,1.811,1.811,0,0,0-1.347.567,2.575,2.575,0,0,0-.684,1.483ZM91.109-9.379a1.493,1.493,0,0,0-.745-.185q-1.176,0-1.176,1.483V-7h1.641v.957H89.188V0H88.074V-6.043h-1.2V-7h1.2V-8.135a2.358,2.358,0,0,1,.636-1.74,2.146,2.146,0,0,1,1.586-.639,2.2,2.2,0,0,1,.813.123ZM94.958.164A3.247,3.247,0,0,1,92.48-.817a3.633,3.633,0,0,1-.926-2.6,3.785,3.785,0,0,1,.964-2.755,3.465,3.465,0,0,1,2.6-.991,3.14,3.14,0,0,1,2.444.964,3.822,3.822,0,0,1,.878,2.673A3.761,3.761,0,0,1,97.5-.844,3.317,3.317,0,0,1,94.958.164Zm.082-6.385a2.132,2.132,0,0,0-1.709.735A3.018,3.018,0,0,0,92.7-3.459,2.854,2.854,0,0,0,93.338-1.5a2.161,2.161,0,0,0,1.7.718,2.049,2.049,0,0,0,1.671-.7,3.055,3.055,0,0,0,.584-2,3.108,3.108,0,0,0-.584-2.023A2.04,2.04,0,0,0,95.04-6.221Zm8.846.355a1.371,1.371,0,0,0-.848-.226,1.431,1.431,0,0,0-1.2.677,3.129,3.129,0,0,0-.482,1.846V0h-1.121V-7h1.121v1.442h.027a2.444,2.444,0,0,1,.731-1.152,1.668,1.668,0,0,1,1.1-.414,1.83,1.83,0,0,1,.67.1Zm8.3,5.8a2.161,2.161,0,0,1-1.046.219Q109.3.15,109.3-1.9V-6.043h-1.2V-7h1.2V-8.709l1.121-.362V-7h1.764v.957h-1.764V-2.1a1.635,1.635,0,0,0,.239,1,.955.955,0,0,0,.793.3,1.179,1.179,0,0,0,.731-.232ZM119.492,0h-1.121V-4.033q0-2.188-1.627-2.187a1.774,1.774,0,0,0-1.381.632,2.356,2.356,0,0,0-.561,1.624V0h-1.121V-10.363H114.8v4.525h.027a2.546,2.546,0,0,1,2.3-1.326q2.365,0,2.365,2.851Zm2.687-8.777a.71.71,0,0,1-.513-.205.692.692,0,0,1-.212-.52.7.7,0,0,1,.212-.523.7.7,0,0,1,.513-.208.724.724,0,0,1,.523.208.7.7,0,0,1,.215.523.693.693,0,0,1-.215.513A.718.718,0,0,1,122.179-8.777ZM122.726,0H121.6V-7h1.121Zm1.846-.253v-1.2a3.318,3.318,0,0,0,2.017.677q1.477,0,1.477-.984a.854.854,0,0,0-.126-.475,1.26,1.26,0,0,0-.342-.345,2.631,2.631,0,0,0-.506-.27q-.291-.12-.625-.25a8.056,8.056,0,0,1-.817-.373,2.468,2.468,0,0,1-.588-.424,1.577,1.577,0,0,1-.355-.537,1.9,1.9,0,0,1-.12-.7,1.673,1.673,0,0,1,.226-.872,2,2,0,0,1,.6-.636,2.805,2.805,0,0,1,.858-.386,3.805,3.805,0,0,1,.995-.13,4.016,4.016,0,0,1,1.627.314v1.135a3.171,3.171,0,0,0-1.777-.506,2.078,2.078,0,0,0-.567.072,1.389,1.389,0,0,0-.434.2.932.932,0,0,0-.28.311.819.819,0,0,0-.1.4.959.959,0,0,0,.1.458,1.008,1.008,0,0,0,.291.328,2.221,2.221,0,0,0,.465.26q.273.116.622.253a8.658,8.658,0,0,1,.834.366,2.86,2.86,0,0,1,.629.424,1.656,1.656,0,0,1,.4.543,1.753,1.753,0,0,1,.14.731,1.725,1.725,0,0,1-.229.9,1.963,1.963,0,0,1-.612.636,2.8,2.8,0,0,1-.882.376,4.354,4.354,0,0,1-1.046.123A3.971,3.971,0,0,1,124.571-.253ZM140.745,3.22h-1.121V-1.2H139.6A2.508,2.508,0,0,1,137.2.164a2.634,2.634,0,0,1-2.116-.94,3.834,3.834,0,0,1-.8-2.56,4.192,4.192,0,0,1,.875-2.786,2.912,2.912,0,0,1,2.352-1.042A2.207,2.207,0,0,1,139.6-6.029h.027V-7h1.121Zm-1.121-6.371V-4.17a2.037,2.037,0,0,0-.564-1.456,1.888,1.888,0,0,0-1.432-.595,1.925,1.925,0,0,0-1.6.749,3.341,3.341,0,0,0-.588,2.109,2.894,2.894,0,0,0,.567,1.9,1.811,1.811,0,0,0,1.463.687,1.972,1.972,0,0,0,1.569-.673A2.5,2.5,0,0,0,139.624-3.151ZM148.675,0h-1.121V-1.107h-.027a2.3,2.3,0,0,1-2.16,1.271q-2.5,0-2.5-2.98V-7h1.114v4.006q0,2.215,1.7,2.215a1.715,1.715,0,0,0,1.35-.6,2.315,2.315,0,0,0,.53-1.583V-7h1.121Zm5.188.164a3.247,3.247,0,0,1-2.478-.981,3.634,3.634,0,0,1-.926-2.6,3.785,3.785,0,0,1,.964-2.755,3.465,3.465,0,0,1,2.6-.991,3.14,3.14,0,0,1,2.444.964,3.822,3.822,0,0,1,.878,2.673A3.761,3.761,0,0,1,156.4-.844,3.317,3.317,0,0,1,153.863.164Zm.082-6.385a2.132,2.132,0,0,0-1.709.735,3.018,3.018,0,0,0-.629,2.027,2.854,2.854,0,0,0,.636,1.962,2.161,2.161,0,0,0,1.7.718,2.049,2.049,0,0,0,1.671-.7,3.055,3.055,0,0,0,.584-2,3.108,3.108,0,0,0-.584-2.023A2.04,2.04,0,0,0,153.945-6.221Zm8.442,6.152a2.162,2.162,0,0,1-1.046.219Q159.5.15,159.5-1.9V-6.043h-1.2V-7h1.2V-8.709l1.121-.362V-7h1.764v.957h-1.764V-2.1a1.635,1.635,0,0,0,.239,1,.955.955,0,0,0,.793.3,1.179,1.179,0,0,0,.731-.232Zm7.123-3.151h-4.942a2.618,2.618,0,0,0,.629,1.8,2.168,2.168,0,0,0,1.654.636,3.439,3.439,0,0,0,2.174-.779V-.506a4.063,4.063,0,0,1-2.44.67,2.959,2.959,0,0,1-2.331-.954,3.9,3.9,0,0,1-.848-2.683,3.828,3.828,0,0,1,.926-2.663,2.97,2.97,0,0,1,2.3-1.029,2.632,2.632,0,0,1,2.126.889,3.705,3.705,0,0,1,.752,2.468Zm-1.148-.95a2.281,2.281,0,0,0-.468-1.511,1.6,1.6,0,0,0-1.282-.54,1.811,1.811,0,0,0-1.347.567,2.575,2.575,0,0,0-.684,1.483Z" transform="translate(15 27)" fill="#cbcbd2"/>
        </g>
        <path id="Path_101377" data-name="Path 101377" d="M5.25.164A4.908,4.908,0,0,1,3.329-.2a4.215,4.215,0,0,1-1.47-1.015A4.585,4.585,0,0,1,.916-2.775a5.775,5.775,0,0,1-.335-2.01A6.365,6.365,0,0,1,.919-6.918a4.663,4.663,0,0,1,.964-1.634A4.242,4.242,0,0,1,3.4-9.6a5.211,5.211,0,0,1,2-.369A4.718,4.718,0,0,1,7.28-9.6,4.176,4.176,0,0,1,8.729-8.589a4.6,4.6,0,0,1,.933,1.562,5.808,5.808,0,0,1,.332,2,6.2,6.2,0,0,1-.485,2.54A4.366,4.366,0,0,1,8.142-.731l2.844,2.051H8.511L6.761-.041a6,6,0,0,1-.725.15A5.459,5.459,0,0,1,5.25.164Zm.075-8.7A2.836,2.836,0,0,0,4.1-8.275a2.8,2.8,0,0,0-.96.745,3.479,3.479,0,0,0-.625,1.152,4.715,4.715,0,0,0-.222,1.49A4.829,4.829,0,0,0,2.505-3.4a3.447,3.447,0,0,0,.6,1.145,2.729,2.729,0,0,0,.937.738,2.754,2.754,0,0,0,1.21.263A3.115,3.115,0,0,0,6.521-1.5a2.619,2.619,0,0,0,.954-.708,3.217,3.217,0,0,0,.6-1.131,5.05,5.05,0,0,0,.212-1.524,5.427,5.427,0,0,0-.205-1.559A3.29,3.29,0,0,0,7.5-7.578a2.517,2.517,0,0,0-.933-.714A3.008,3.008,0,0,0,5.325-8.538ZM17.719,0H16.133V-1.107h-.027A2.282,2.282,0,0,1,13.959.164q-2.481,0-2.481-2.98V-7h1.586v4.02q0,1.887,1.456,1.887a1.471,1.471,0,0,0,1.159-.52,1.991,1.991,0,0,0,.455-1.36V-7h1.586Zm5.168.164A3.47,3.47,0,0,1,20.3-.817a3.544,3.544,0,0,1-.967-2.6A3.687,3.687,0,0,1,20.34-6.173a3.708,3.708,0,0,1,2.717-.991,3.358,3.358,0,0,1,2.557.964,3.723,3.723,0,0,1,.916,2.673,3.669,3.669,0,0,1-.988,2.683A3.548,3.548,0,0,1,22.887.164ZM22.962-5.9a1.81,1.81,0,0,0-1.47.649,2.719,2.719,0,0,0-.54,1.791A2.561,2.561,0,0,0,21.5-1.726a1.837,1.837,0,0,0,1.463.632A1.743,1.743,0,0,0,24.4-1.716a2.754,2.754,0,0,0,.5-1.771,2.8,2.8,0,0,0-.5-1.784A1.734,1.734,0,0,0,22.962-5.9ZM31.835-.075a2.748,2.748,0,0,1-1.224.232q-2.037,0-2.037-1.955V-5.756H27.405V-7h1.169V-8.62l1.586-.451V-7h1.675v1.244H30.16v3.5a1.379,1.379,0,0,0,.226.889.936.936,0,0,0,.752.267,1.09,1.09,0,0,0,.7-.232Zm7.212-2.994H34.275a2.017,2.017,0,0,0,.6,1.5,2.225,2.225,0,0,0,1.569.526,3.459,3.459,0,0,0,2.058-.67V-.437a4.7,4.7,0,0,1-2.529.6A3.131,3.131,0,0,1,33.547-.79a3.814,3.814,0,0,1-.878-2.683,3.73,3.73,0,0,1,.967-2.663,3.164,3.164,0,0,1,2.4-1.029,2.759,2.759,0,0,1,2.222.923,3.832,3.832,0,0,1,.786,2.563ZM37.516-4.19a2.044,2.044,0,0,0-.4-1.33A1.348,1.348,0,0,0,36.019-6a1.539,1.539,0,0,0-1.159.5,2.28,2.28,0,0,0-.584,1.306ZM50.641,0H49.055V-3.944q0-1.962-1.388-1.962a1.515,1.515,0,0,0-1.2.543A2.016,2.016,0,0,0,46-3.992V0H44.406V-7H46v1.162h.027A2.5,2.5,0,0,1,48.3-7.164a2.114,2.114,0,0,1,1.743.742,3.33,3.33,0,0,1,.6,2.143Zm7.308,0H56.41V-1.094h-.027A2.316,2.316,0,0,1,54.257.164,2.239,2.239,0,0,1,52.64-.4a1.961,1.961,0,0,1-.584-1.483q0-1.982,2.283-2.311l2.078-.294q0-1.5-1.422-1.5a3.378,3.378,0,0,0-2.256.861V-6.508A4.919,4.919,0,0,1,55.3-7.164a2.326,2.326,0,0,1,2.652,2.611ZM56.417-3.438l-1.47.205a2.33,2.33,0,0,0-1.029.332.969.969,0,0,0-.345.851.932.932,0,0,0,.318.728,1.231,1.231,0,0,0,.851.284,1.57,1.57,0,0,0,1.2-.509,1.806,1.806,0,0,0,.475-1.282ZM70.349,0H68.763V-3.814a3.091,3.091,0,0,0-.311-1.593A1.144,1.144,0,0,0,67.4-5.9a1.265,1.265,0,0,0-1.056.622,2.538,2.538,0,0,0-.434,1.49V0H64.319V-3.944q0-1.955-1.381-1.955a1.246,1.246,0,0,0-1.056.588,2.592,2.592,0,0,0-.414,1.524V0H59.883V-7h1.586v1.107H61.5A2.425,2.425,0,0,1,63.7-7.164a2.082,2.082,0,0,1,1.268.4,1.992,1.992,0,0,1,.742,1.049,2.5,2.5,0,0,1,2.324-1.449q2.311,0,2.311,2.851ZM78.21-3.069H73.438a2.017,2.017,0,0,0,.6,1.5,2.225,2.225,0,0,0,1.569.526,3.459,3.459,0,0,0,2.058-.67V-.437a4.7,4.7,0,0,1-2.529.6A3.131,3.131,0,0,1,72.71-.79a3.814,3.814,0,0,1-.878-2.683A3.73,3.73,0,0,1,72.8-6.135a3.164,3.164,0,0,1,2.4-1.029,2.759,2.759,0,0,1,2.222.923,3.832,3.832,0,0,1,.786,2.563ZM76.679-4.19a2.044,2.044,0,0,0-.4-1.33A1.348,1.348,0,0,0,75.182-6a1.539,1.539,0,0,0-1.159.5,2.28,2.28,0,0,0-.584,1.306Z" transform="translate(498 383)" fill="#31313a"/>
      </g>
      <path id="Path_101382" data-name="Path 101382" d="M7.5.234A7.012,7.012,0,0,1,4.756-.283a6.021,6.021,0,0,1-2.1-1.45A6.551,6.551,0,0,1,1.309-3.965,8.25,8.25,0,0,1,.83-6.836a9.093,9.093,0,0,1,.483-3.047A6.661,6.661,0,0,1,2.69-12.217a6.059,6.059,0,0,1,2.173-1.494,7.444,7.444,0,0,1,2.861-.527,6.74,6.74,0,0,1,2.676.518,5.965,5.965,0,0,1,2.07,1.45A6.571,6.571,0,0,1,13.8-10.039a8.3,8.3,0,0,1,.474,2.861,8.851,8.851,0,0,1-.693,3.628,6.237,6.237,0,0,1-1.953,2.5l4.063,2.93H12.158L9.658-.059A8.564,8.564,0,0,1,8.623.156,7.8,7.8,0,0,1,7.5.234ZM7.607-12.2a4.052,4.052,0,0,0-1.753.376,4,4,0,0,0-1.372,1.064,4.97,4.97,0,0,0-.894,1.646,6.736,6.736,0,0,0-.317,2.129,6.9,6.9,0,0,0,.308,2.119,4.925,4.925,0,0,0,.864,1.636A3.9,3.9,0,0,0,5.781-2.173,3.934,3.934,0,0,0,7.51-1.8a4.45,4.45,0,0,0,1.807-.352,3.741,3.741,0,0,0,1.362-1.011,4.6,4.6,0,0,0,.864-1.616,7.215,7.215,0,0,0,.3-2.178,7.752,7.752,0,0,0-.293-2.227,4.7,4.7,0,0,0-.84-1.646A3.6,3.6,0,0,0,9.38-11.846,4.3,4.3,0,0,0,7.607-12.2ZM25.313,0H23.047V-1.582h-.039A3.26,3.26,0,0,1,19.941.234Q16.4.234,16.4-4.023V-10h2.266v5.742q0,2.7,2.08,2.7A2.1,2.1,0,0,0,22.4-2.3a2.844,2.844,0,0,0,.649-1.943V-10h2.266ZM32.7.234a4.957,4.957,0,0,1-3.7-1.4,5.062,5.062,0,0,1-1.382-3.716,5.267,5.267,0,0,1,1.44-3.936,5.3,5.3,0,0,1,3.882-1.416,4.8,4.8,0,0,1,3.652,1.377A5.319,5.319,0,0,1,37.9-5.039a5.241,5.241,0,0,1-1.411,3.833A5.069,5.069,0,0,1,32.7.234ZM32.8-8.428a2.586,2.586,0,0,0-2.1.928,3.885,3.885,0,0,0-.771,2.559,3.659,3.659,0,0,0,.781,2.476,2.624,2.624,0,0,0,2.09.9,2.49,2.49,0,0,0,2.056-.889,3.934,3.934,0,0,0,.718-2.529,3.993,3.993,0,0,0-.718-2.549A2.478,2.478,0,0,0,32.8-8.428ZM45.479-.107A3.926,3.926,0,0,1,43.73.225q-2.91,0-2.91-2.793V-8.223H39.15V-10h1.67v-2.314l2.266-.645V-10h2.393v1.777H43.086v5a1.97,1.97,0,0,0,.322,1.27,1.338,1.338,0,0,0,1.074.381,1.558,1.558,0,0,0,1-.332Zm10.3-4.277H48.965a2.881,2.881,0,0,0,.854,2.139,3.179,3.179,0,0,0,2.241.752A4.942,4.942,0,0,0,55-2.451V-.625a6.716,6.716,0,0,1-3.613.859,4.473,4.473,0,0,1-3.462-1.362A5.449,5.449,0,0,1,46.67-4.961a5.328,5.328,0,0,1,1.382-3.8,4.52,4.52,0,0,1,3.433-1.47,3.941,3.941,0,0,1,3.174,1.318,5.474,5.474,0,0,1,1.123,3.662Zm-2.187-1.6a2.919,2.919,0,0,0-.576-1.9,1.925,1.925,0,0,0-1.562-.679,2.2,2.2,0,0,0-1.655.713,3.257,3.257,0,0,0-.835,1.865ZM72.529,0H70.264V-1.7h-.039A3.614,3.614,0,0,1,66.855.234,3.637,3.637,0,0,1,63.9-1.108a5.574,5.574,0,0,1-1.108-3.657A6.073,6.073,0,0,1,64.019-8.74a4.011,4.011,0,0,1,3.267-1.494,3.128,3.128,0,0,1,2.939,1.621h.039V-14.8h2.266ZM70.293-4.57V-5.879A2.55,2.55,0,0,0,69.6-7.686a2.313,2.313,0,0,0-1.768-.742,2.38,2.38,0,0,0-2,.947,4.221,4.221,0,0,0-.728,2.627,3.782,3.782,0,0,0,.7,2.407,2.271,2.271,0,0,0,1.88.884,2.351,2.351,0,0,0,1.885-.854A3.219,3.219,0,0,0,70.293-4.57Zm13.662.186H77.139a2.881,2.881,0,0,0,.854,2.139,3.179,3.179,0,0,0,2.241.752,4.942,4.942,0,0,0,2.939-.957V-.625a6.716,6.716,0,0,1-3.613.859A4.473,4.473,0,0,1,76.1-1.128a5.449,5.449,0,0,1-1.255-3.833,5.328,5.328,0,0,1,1.382-3.8,4.52,4.52,0,0,1,3.433-1.47,3.941,3.941,0,0,1,3.174,1.318,5.474,5.474,0,0,1,1.123,3.662Zm-2.187-1.6a2.919,2.919,0,0,0-.576-1.9,1.925,1.925,0,0,0-1.562-.679,2.2,2.2,0,0,0-1.655.713,3.257,3.257,0,0,0-.835,1.865ZM91.387-.107a3.926,3.926,0,0,1-1.748.332q-2.91,0-2.91-2.793V-8.223h-1.67V-10h1.67v-2.314l2.266-.645V-10h2.393v1.777H88.994v5a1.97,1.97,0,0,0,.322,1.27,1.338,1.338,0,0,0,1.074.381,1.558,1.558,0,0,0,1-.332ZM101.016,0h-2.2V-1.562h-.039a3.308,3.308,0,0,1-3.037,1.8,3.2,3.2,0,0,1-2.31-.8A2.8,2.8,0,0,1,92.6-2.686q0-2.832,3.262-3.3l2.969-.42q0-2.139-2.031-2.139a4.825,4.825,0,0,0-3.223,1.23V-9.3a7.028,7.028,0,0,1,3.652-.937q3.789,0,3.789,3.73ZM98.828-4.912l-2.1.293a3.328,3.328,0,0,0-1.47.474,1.384,1.384,0,0,0-.493,1.216,1.331,1.331,0,0,0,.454,1.04,1.758,1.758,0,0,0,1.216.405,2.243,2.243,0,0,0,1.714-.728,2.58,2.58,0,0,0,.679-1.831Zm6.094-7.187a1.362,1.362,0,0,1-.952-.361,1.189,1.189,0,0,1-.4-.918,1.219,1.219,0,0,1,.4-.928,1.342,1.342,0,0,1,.952-.371,1.384,1.384,0,0,1,.977.371,1.212,1.212,0,0,1,.4.928,1.2,1.2,0,0,1-.4.9A1.374,1.374,0,0,1,104.922-12.1ZM106.045,0h-2.266V-10h2.266Zm5.234,0H109V-14.8h2.275ZM113.6-.312v-2.1a4.52,4.52,0,0,0,2.8.967q2.051,0,2.051-1.211a.954.954,0,0,0-.176-.581,1.678,1.678,0,0,0-.474-.425,3.724,3.724,0,0,0-.7-.332q-.405-.146-.9-.332a9.563,9.563,0,0,1-1.108-.518,3.349,3.349,0,0,1-.82-.62,2.341,2.341,0,0,1-.493-.786,2.9,2.9,0,0,1-.166-1.025,2.37,2.37,0,0,1,.342-1.274,2.97,2.97,0,0,1,.918-.928,4.4,4.4,0,0,1,1.309-.566,5.991,5.991,0,0,1,1.514-.19,6.881,6.881,0,0,1,2.48.42v1.982a4.181,4.181,0,0,0-2.422-.723,3.163,3.163,0,0,0-.776.088,2,2,0,0,0-.591.244,1.2,1.2,0,0,0-.381.376.9.9,0,0,0-.137.483,1.033,1.033,0,0,0,.137.547,1.242,1.242,0,0,0,.405.4,3.5,3.5,0,0,0,.645.313q.376.142.864.308a12.627,12.627,0,0,1,1.157.537,3.911,3.911,0,0,1,.874.62,2.431,2.431,0,0,1,.557.8,2.719,2.719,0,0,1,.2,1.079,2.467,2.467,0,0,1-.352,1.328,2.93,2.93,0,0,1-.937.938,4.388,4.388,0,0,1-1.353.552,7.026,7.026,0,0,1-1.616.181A6.81,6.81,0,0,1,113.6-.312Z" transform="translate(446 263)" fill="#31313a"/>
      <path id="Path_101381" data-name="Path 101381" d="M9.263,0H7.479L6.6-2.5H2.741L1.894,0H.116L3.787-9.8H5.619Zm-3.1-3.821-1.36-3.91a4.631,4.631,0,0,1-.13-.615H4.648a4,4,0,0,1-.137.615L3.165-3.821ZM10.609,0V-9.8h3.11a3.675,3.675,0,0,1,2.252.622,1.934,1.934,0,0,1,.831,1.62,2.313,2.313,0,0,1-.472,1.449,2.545,2.545,0,0,1-1.306.875v.027a2.558,2.558,0,0,1,1.617.749,2.28,2.28,0,0,1,.6,1.644,2.469,2.469,0,0,1-.991,2.037,3.924,3.924,0,0,1-2.5.779Zm1.62-8.5v2.789h1.053a2.022,2.022,0,0,0,1.33-.4,1.388,1.388,0,0,0,.482-1.131q0-1.258-1.682-1.258Zm0,4.095v3.1h1.388a2.11,2.11,0,0,0,1.4-.42,1.438,1.438,0,0,0,.5-1.159q0-1.524-2.112-1.524ZM25.9-.41a5.943,5.943,0,0,1-2.755.574,4.5,4.5,0,0,1-3.418-1.347,4.907,4.907,0,0,1-1.285-3.534,5.146,5.146,0,0,1,1.446-3.8,4.946,4.946,0,0,1,3.654-1.449,5.988,5.988,0,0,1,2.358.4V-7.95a4.208,4.208,0,0,0-2.187-.588A3.433,3.433,0,0,0,21.133-7.52,3.742,3.742,0,0,0,20.146-4.8a3.568,3.568,0,0,0,.923,2.581,3.212,3.212,0,0,0,2.427.96A4.345,4.345,0,0,0,25.9-1.914Zm12.544,0A5.943,5.943,0,0,1,35.69.164a4.5,4.5,0,0,1-3.418-1.347,4.907,4.907,0,0,1-1.285-3.534,5.146,5.146,0,0,1,1.446-3.8,4.946,4.946,0,0,1,3.654-1.449,5.988,5.988,0,0,1,2.358.4V-7.95a4.208,4.208,0,0,0-2.187-.588A3.433,3.433,0,0,0,33.677-7.52,3.742,3.742,0,0,0,32.689-4.8a3.568,3.568,0,0,0,.923,2.581,3.212,3.212,0,0,0,2.427.96,4.345,4.345,0,0,0,2.406-.656ZM43.23.164a3.47,3.47,0,0,1-2.587-.981,3.544,3.544,0,0,1-.967-2.6,3.687,3.687,0,0,1,1.008-2.755A3.708,3.708,0,0,1,43.4-7.164a3.358,3.358,0,0,1,2.557.964,3.723,3.723,0,0,1,.916,2.673,3.669,3.669,0,0,1-.988,2.683A3.548,3.548,0,0,1,43.23.164ZM43.306-5.9a1.81,1.81,0,0,0-1.47.649,2.719,2.719,0,0,0-.54,1.791,2.561,2.561,0,0,0,.547,1.733,1.837,1.837,0,0,0,1.463.632,1.743,1.743,0,0,0,1.439-.622,2.754,2.754,0,0,0,.5-1.771,2.8,2.8,0,0,0-.5-1.784A1.734,1.734,0,0,0,43.306-5.9ZM58.953,0H57.367V-3.814a3.091,3.091,0,0,0-.311-1.593A1.144,1.144,0,0,0,56.007-5.9a1.265,1.265,0,0,0-1.056.622,2.538,2.538,0,0,0-.434,1.49V0H52.924V-3.944q0-1.955-1.381-1.955a1.246,1.246,0,0,0-1.056.588,2.592,2.592,0,0,0-.414,1.524V0H48.487V-7h1.586v1.107H50.1a2.425,2.425,0,0,1,2.208-1.271,2.082,2.082,0,0,1,1.268.4,1.992,1.992,0,0,1,.742,1.049,2.5,2.5,0,0,1,2.324-1.449q2.311,0,2.311,2.851ZM62.5-1.032h-.027V3.22H60.888V-7h1.586v1.23H62.5A2.6,2.6,0,0,1,64.88-7.164a2.506,2.506,0,0,1,2.078.937A3.928,3.928,0,0,1,67.7-3.712a4.361,4.361,0,0,1-.841,2.8,2.781,2.781,0,0,1-2.3,1.053A2.294,2.294,0,0,1,62.5-1.032ZM62.46-3.794v.868a1.852,1.852,0,0,0,.489,1.3,1.61,1.61,0,0,0,1.241.533,1.621,1.621,0,0,0,1.384-.687,3.2,3.2,0,0,0,.5-1.917,2.52,2.52,0,0,0-.468-1.617A1.539,1.539,0,0,0,64.34-5.9a1.709,1.709,0,0,0-1.364.6A2.228,2.228,0,0,0,62.46-3.794ZM74.532,0H72.994V-1.094h-.027A2.316,2.316,0,0,1,70.841.164,2.239,2.239,0,0,1,69.224-.4,1.961,1.961,0,0,1,68.64-1.88q0-1.982,2.283-2.311L73-4.484q0-1.5-1.422-1.5a3.378,3.378,0,0,0-2.256.861V-6.508a4.919,4.919,0,0,1,2.557-.656,2.326,2.326,0,0,1,2.652,2.611ZM73-3.438l-1.47.205A2.33,2.33,0,0,0,70.5-2.9a.969.969,0,0,0-.345.851.932.932,0,0,0,.318.728,1.231,1.231,0,0,0,.851.284,1.57,1.57,0,0,0,1.2-.509A1.806,1.806,0,0,0,73-2.83ZM82.7,0H81.115V-3.944q0-1.962-1.388-1.962a1.515,1.515,0,0,0-1.2.543,2.016,2.016,0,0,0-.472,1.371V0H76.467V-7H78.06v1.162h.027a2.5,2.5,0,0,1,2.27-1.326,2.114,2.114,0,0,1,1.743.742,3.331,3.331,0,0,1,.6,2.143Zm8-7L87.541,1.121q-.984,2.174-2.762,2.174a3.311,3.311,0,0,1-.834-.089V1.887a2.218,2.218,0,0,0,.684.123,1.411,1.411,0,0,0,1.326-.875l.472-1.148L83.645-7H85.4l1.668,5.086q.027.1.123.506h.034q.034-.157.123-.492L89.1-7Z" transform="translate(446 303)" fill="#31313a"/>
      <line id="Line_123" data-name="Line 123" x2="440" transform="translate(446 595)" fill="none" stroke="#e6e6ea" stroke-width="1"/>
    </g>
    <path id="Path_101383" data-name="Path 101383" d="M14.942-.762A11.036,11.036,0,0,1,9.826.3,8.366,8.366,0,0,1,3.479-2.2,9.113,9.113,0,0,1,1.092-8.76a9.557,9.557,0,0,1,2.685-7.059,9.186,9.186,0,0,1,6.786-2.691,11.121,11.121,0,0,1,4.38.749v3a7.816,7.816,0,0,0-4.062-1.092,6.376,6.376,0,0,0-4.792,1.892A6.949,6.949,0,0,0,4.253-8.912,6.627,6.627,0,0,0,5.967-4.12a5.965,5.965,0,0,0,4.507,1.784,8.069,8.069,0,0,0,4.469-1.219Zm10.664-9.433a2.441,2.441,0,0,0-1.536-.419,2.63,2.63,0,0,0-2.184,1.181,5.28,5.28,0,0,0-.876,3.212V0H18.065V-13h2.945v2.679h.051a4.529,4.529,0,0,1,1.327-2.139,2.994,2.994,0,0,1,2-.768,2.482,2.482,0,0,1,1.219.241ZM38.467-5.7H29.605a3.746,3.746,0,0,0,1.111,2.78,4.133,4.133,0,0,0,2.914.978,6.425,6.425,0,0,0,3.821-1.244V-.812A8.73,8.73,0,0,1,32.754.3a5.815,5.815,0,0,1-4.5-1.771,7.084,7.084,0,0,1-1.631-4.983,6.927,6.927,0,0,1,1.8-4.945A5.876,5.876,0,0,1,32.881-13.3a5.124,5.124,0,0,1,4.126,1.714,7.116,7.116,0,0,1,1.46,4.761ZM35.623-7.782a3.8,3.8,0,0,0-.749-2.469,2.5,2.5,0,0,0-2.031-.882,2.858,2.858,0,0,0-2.152.927,4.234,4.234,0,0,0-1.085,2.425ZM51.251,0H48.395V-2.031h-.051A4.3,4.3,0,0,1,44.4.3a4.159,4.159,0,0,1-3-1.041,3.641,3.641,0,0,1-1.085-2.755q0-3.682,4.24-4.291l3.859-.546q0-2.78-2.641-2.78a6.273,6.273,0,0,0-4.189,1.6v-2.577A9.136,9.136,0,0,1,46.325-13.3q4.926,0,4.926,4.85ZM48.407-6.386,45.678-6a4.326,4.326,0,0,0-1.911.616,1.8,1.8,0,0,0-.641,1.581,1.73,1.73,0,0,0,.59,1.352A2.286,2.286,0,0,0,45.3-1.93a2.916,2.916,0,0,0,2.228-.946,3.353,3.353,0,0,0,.882-2.38ZM61.7-.14a5.1,5.1,0,0,1-2.272.432q-3.783,0-3.783-3.631v-7.351H53.473V-13h2.171v-3.009l2.945-.838V-13H61.7v2.311h-3.11v6.5a2.561,2.561,0,0,0,.419,1.65,1.739,1.739,0,0,0,1.4.5A2.025,2.025,0,0,0,61.7-2.476ZM75.093-5.7H66.231a3.746,3.746,0,0,0,1.111,2.78,4.133,4.133,0,0,0,2.914.978,6.425,6.425,0,0,0,3.821-1.244V-.812A8.73,8.73,0,0,1,69.38.3a5.815,5.815,0,0,1-4.5-1.771,7.084,7.084,0,0,1-1.631-4.983,6.927,6.927,0,0,1,1.8-4.945A5.876,5.876,0,0,1,69.507-13.3a5.124,5.124,0,0,1,4.126,1.714,7.116,7.116,0,0,1,1.46,4.761ZM72.249-7.782a3.8,3.8,0,0,0-.749-2.469,2.5,2.5,0,0,0-2.031-.882,2.858,2.858,0,0,0-2.152.927,4.234,4.234,0,0,0-1.085,2.425ZM95.024,0H92.168V-2.031h-.051A4.3,4.3,0,0,1,88.169.3a4.159,4.159,0,0,1-3-1.041,3.641,3.641,0,0,1-1.085-2.755q0-3.682,4.24-4.291l3.859-.546q0-2.78-2.641-2.78a6.273,6.273,0,0,0-4.189,1.6v-2.577A9.136,9.136,0,0,1,90.1-13.3q4.926,0,4.926,4.85ZM92.181-6.386,89.451-6a4.326,4.326,0,0,0-1.911.616A1.8,1.8,0,0,0,86.9-3.809a1.73,1.73,0,0,0,.59,1.352,2.286,2.286,0,0,0,1.581.527A2.917,2.917,0,0,0,91.3-2.875a3.353,3.353,0,0,0,.882-2.38ZM117.343,0H114.4V-7.325q0-3.644-2.577-3.644A2.814,2.814,0,0,0,109.6-9.959a3.744,3.744,0,0,0-.876,2.545V0h-2.958V-13h2.958v2.158h.051a4.633,4.633,0,0,1,4.215-2.463,3.925,3.925,0,0,1,3.237,1.377,6.185,6.185,0,0,1,1.117,3.98Zm14.6-5.7h-8.861a3.746,3.746,0,0,0,1.111,2.78,4.133,4.133,0,0,0,2.914.978,6.425,6.425,0,0,0,3.821-1.244V-.812A8.73,8.73,0,0,1,126.229.3a5.815,5.815,0,0,1-4.5-1.771A7.084,7.084,0,0,1,120.1-6.449a6.927,6.927,0,0,1,1.8-4.945,5.876,5.876,0,0,1,4.462-1.911,5.124,5.124,0,0,1,4.126,1.714,7.116,7.116,0,0,1,1.46,4.761ZM129.1-7.782a3.8,3.8,0,0,0-.749-2.469,2.5,2.5,0,0,0-2.031-.882,2.858,2.858,0,0,0-2.152.927,4.234,4.234,0,0,0-1.085,2.425ZM152.229-13,148.4,0h-3.085l-2.361-8.811a5.58,5.58,0,0,1-.178-1.143h-.051a5.209,5.209,0,0,1-.229,1.117L139.928,0h-3.021l-3.821-13h3.047l2.361,9.369a5.551,5.551,0,0,1,.152,1.117h.089a6.034,6.034,0,0,1,.2-1.143L141.565-13h2.768l2.336,9.407a6.581,6.581,0,0,1,.165,1.117h.089a5.924,5.924,0,0,1,.19-1.117L149.424-13ZM173.38,5.979h-2.945V-2.234h-.051A4.553,4.553,0,0,1,166.029.3a4.764,4.764,0,0,1-3.853-1.746A7.2,7.2,0,0,1,160.723-6.2a7.889,7.889,0,0,1,1.593-5.173A5.262,5.262,0,0,1,166.6-13.3a4,4,0,0,1,3.783,2.107h.051V-13h2.945Zm-2.907-11.9V-7.592a3.379,3.379,0,0,0-.908-2.387,3.008,3.008,0,0,0-2.3-.978,3.087,3.087,0,0,0-2.583,1.225,5.552,5.552,0,0,0-.946,3.459,4.812,4.812,0,0,0,.914,3.11,2.9,2.9,0,0,0,2.361,1.13,3.147,3.147,0,0,0,2.526-1.1A4.141,4.141,0,0,0,170.473-5.916ZM188.563,0h-2.945V-2.057h-.051A4.239,4.239,0,0,1,181.581.3q-4.608,0-4.608-5.535V-13h2.945v7.465q0,3.5,2.7,3.5A2.732,2.732,0,0,0,184.774-3a3.7,3.7,0,0,0,.844-2.526V-13h2.945Zm9.6.3a6.444,6.444,0,0,1-4.805-1.822,6.581,6.581,0,0,1-1.8-4.831,6.848,6.848,0,0,1,1.873-5.116,6.886,6.886,0,0,1,5.046-1.841,6.237,6.237,0,0,1,4.748,1.79,6.915,6.915,0,0,1,1.7,4.964,6.813,6.813,0,0,1-1.834,4.983A6.589,6.589,0,0,1,198.161.3Zm.14-11.261a3.362,3.362,0,0,0-2.729,1.206,5.05,5.05,0,0,0-1,3.326,4.756,4.756,0,0,0,1.016,3.218A3.411,3.411,0,0,0,198.3-2.031a3.237,3.237,0,0,0,2.672-1.155,5.114,5.114,0,0,0,.933-3.288,5.191,5.191,0,0,0-.933-3.313A3.221,3.221,0,0,0,198.3-10.956ZM214.779-.14a5.1,5.1,0,0,1-2.272.432q-3.783,0-3.783-3.631v-7.351h-2.171V-13h2.171v-3.009l2.945-.838V-13h3.11v2.311h-3.11v6.5a2.561,2.561,0,0,0,.419,1.65,1.739,1.739,0,0,0,1.4.5,2.025,2.025,0,0,0,1.295-.432ZM228.173-5.7h-8.861a3.746,3.746,0,0,0,1.111,2.78,4.133,4.133,0,0,0,2.914.978,6.425,6.425,0,0,0,3.821-1.244V-.812A8.73,8.73,0,0,1,222.46.3a5.815,5.815,0,0,1-4.5-1.771,7.084,7.084,0,0,1-1.631-4.983,6.927,6.927,0,0,1,1.8-4.945,5.876,5.876,0,0,1,4.462-1.911,5.124,5.124,0,0,1,4.126,1.714,7.116,7.116,0,0,1,1.46,4.761Zm-2.844-2.082a3.8,3.8,0,0,0-.749-2.469,2.5,2.5,0,0,0-2.031-.882,2.858,2.858,0,0,0-2.152.927,4.234,4.234,0,0,0-1.085,2.425Z" transform="translate(375 124)" fill="#31313a"/>
    <g id="Focused_form_bar" data-name="Focused form bar" transform="translate(0 -61)">
      <g transform="matrix(1, 0, 0, 1, 0, 61)" filter="url(#Rectangle_7530)">
        <rect id="Rectangle_7530-2" data-name="Rectangle 7530" width="1920" height="62" transform="translate(0 4)" fill="#2777d3"/>
      </g>
      <path id="Path_101386" data-name="Path 101386" d="M4.8-11.453V0H2.992V-9.234a5.774,5.774,0,0,1-1.059.6A8.726,8.726,0,0,1,.641-8.2V-9.75q.453-.148.875-.312t.832-.367q.41-.2.828-.453t.863-.57ZM15.563.188A3.965,3.965,0,0,1,12.605-.934,4.05,4.05,0,0,1,11.5-3.906a4.214,4.214,0,0,1,1.152-3.148,4.237,4.237,0,0,1,3.105-1.133,3.838,3.838,0,0,1,2.922,1.1,4.255,4.255,0,0,1,1.047,3.055A4.193,4.193,0,0,1,18.6-.965,4.055,4.055,0,0,1,15.563.188Zm.086-6.93A2.069,2.069,0,0,0,13.969-6a3.108,3.108,0,0,0-.617,2.047,2.927,2.927,0,0,0,.625,1.98,2.1,2.1,0,0,0,1.672.723,1.992,1.992,0,0,0,1.645-.711,3.147,3.147,0,0,0,.574-2.023,3.2,3.2,0,0,0-.574-2.039A1.982,1.982,0,0,0,15.648-6.742Zm10.18-3.625a1.648,1.648,0,0,0-.836-.211q-1.32,0-1.32,1.492V-8h1.859v1.422H23.68V0H21.867V-6.578H20.5V-8h1.367V-9.3a2.525,2.525,0,0,1,.828-2,3.016,3.016,0,0,1,2.07-.73,3.074,3.074,0,0,1,1.063.148ZM31.25-.258V-2a3.963,3.963,0,0,0,2.234.742A2.766,2.766,0,0,0,35.32-1.84a1.92,1.92,0,0,0,.7-1.551,1.751,1.751,0,0,0-.707-1.484,3.327,3.327,0,0,0-2.027-.531q-.453,0-1.836.094l.4-5.891h5.516v1.547H33.352l-.187,2.8q.539-.031.977-.031a3.868,3.868,0,0,1,2.754.914,3.265,3.265,0,0,1,.973,2.5A3.418,3.418,0,0,1,36.754-.8,4.4,4.4,0,0,1,33.7.2,5.062,5.062,0,0,1,31.25-.258Zm9.6.43a1.121,1.121,0,0,1-.8-.309.979.979,0,0,1-.328-.738,1,1,0,0,1,.328-.75,1.113,1.113,0,0,1,.8-.312,1.136,1.136,0,0,1,.809.313.994.994,0,0,1,.332.75.973.973,0,0,1-.332.738A1.144,1.144,0,0,1,40.852.172Zm0-6.18a1.121,1.121,0,0,1-.8-.309.979.979,0,0,1-.328-.738,1,1,0,0,1,.328-.75,1.113,1.113,0,0,1,.8-.312,1.136,1.136,0,0,1,.809.313.994.994,0,0,1,.332.75.973.973,0,0,1-.332.738A1.144,1.144,0,0,1,40.852-6.008ZM53.18.188a5.61,5.61,0,0,1-2.2-.414,4.817,4.817,0,0,1-1.68-1.16,5.24,5.24,0,0,1-1.078-1.785,6.6,6.6,0,0,1-.383-2.3,7.274,7.274,0,0,1,.387-2.437,5.329,5.329,0,0,1,1.1-1.867,4.847,4.847,0,0,1,1.738-1.2,5.955,5.955,0,0,1,2.289-.422,5.392,5.392,0,0,1,2.141.414,4.772,4.772,0,0,1,1.656,1.16,5.257,5.257,0,0,1,1.066,1.785A6.638,6.638,0,0,1,58.6-5.742a7.081,7.081,0,0,1-.555,2.9,4.99,4.99,0,0,1-1.562,2l3.25,2.344H56.906l-2-1.555a6.851,6.851,0,0,1-.828.172A6.239,6.239,0,0,1,53.18.188Zm.086-9.945a3.241,3.241,0,0,0-1.4.3,3.2,3.2,0,0,0-1.1.852,3.976,3.976,0,0,0-.715,1.316,5.389,5.389,0,0,0-.254,1.7,5.519,5.519,0,0,0,.246,1.7,3.94,3.94,0,0,0,.691,1.309,3.119,3.119,0,0,0,1.07.844,3.147,3.147,0,0,0,1.383.3,3.56,3.56,0,0,0,1.445-.281,2.993,2.993,0,0,0,1.09-.809,3.676,3.676,0,0,0,.691-1.293,5.772,5.772,0,0,0,.242-1.742,6.2,6.2,0,0,0-.234-1.781A3.76,3.76,0,0,0,55.75-8.66a2.876,2.876,0,0,0-1.066-.816A3.437,3.437,0,0,0,53.266-9.758ZM67.43,0H65.617V-1.266h-.031A2.608,2.608,0,0,1,63.133.188Q60.3.188,60.3-3.219V-8h1.813v4.594q0,2.156,1.664,2.156A1.682,1.682,0,0,0,65.1-1.844a2.275,2.275,0,0,0,.52-1.555V-8H67.43Zm5.906.188A3.965,3.965,0,0,1,70.379-.934a4.05,4.05,0,0,1-1.105-2.973,4.214,4.214,0,0,1,1.152-3.148,4.237,4.237,0,0,1,3.105-1.133,3.838,3.838,0,0,1,2.922,1.1A4.255,4.255,0,0,1,77.5-4.031,4.193,4.193,0,0,1,76.371-.965,4.055,4.055,0,0,1,73.336.188Zm.086-6.93A2.069,2.069,0,0,0,71.742-6a3.108,3.108,0,0,0-.617,2.047,2.927,2.927,0,0,0,.625,1.98,2.1,2.1,0,0,0,1.672.723,1.992,1.992,0,0,0,1.645-.711,3.147,3.147,0,0,0,.574-2.023,3.2,3.2,0,0,0-.574-2.039A1.982,1.982,0,0,0,73.422-6.742ZM83.563-.086a3.141,3.141,0,0,1-1.4.266q-2.328,0-2.328-2.234V-6.578H78.5V-8h1.336V-9.852l1.813-.516V-8h1.914v1.422H81.648v4a1.576,1.576,0,0,0,.258,1.016,1.07,1.07,0,0,0,.859.3,1.246,1.246,0,0,0,.8-.266ZM91.8-3.508H86.352A2.305,2.305,0,0,0,87.035-1.8a2.543,2.543,0,0,0,1.793.6,3.954,3.954,0,0,0,2.352-.766V-.5a5.373,5.373,0,0,1-2.891.688A3.578,3.578,0,0,1,85.52-.9a4.359,4.359,0,0,1-1-3.066,4.263,4.263,0,0,1,1.105-3.043,3.616,3.616,0,0,1,2.746-1.176,3.153,3.153,0,0,1,2.539,1.055,4.379,4.379,0,0,1,.9,2.93Zm-1.75-1.281a2.336,2.336,0,0,0-.461-1.52,1.54,1.54,0,0,0-1.25-.543,1.759,1.759,0,0,0-1.324.57,2.605,2.605,0,0,0-.668,1.492ZM105.2,0h-1.812V-1.359h-.031a2.891,2.891,0,0,1-2.7,1.547A2.909,2.909,0,0,1,98.3-.887a4.459,4.459,0,0,1-.887-2.926,4.858,4.858,0,0,1,.98-3.18,3.209,3.209,0,0,1,2.613-1.2,2.5,2.5,0,0,1,2.352,1.3h.031v-4.953H105.2Zm-1.789-3.656V-4.7a2.04,2.04,0,0,0-.555-1.445,1.85,1.85,0,0,0-1.414-.594,1.9,1.9,0,0,0-1.6.758,3.377,3.377,0,0,0-.582,2.1,3.026,3.026,0,0,0,.559,1.926,1.817,1.817,0,0,0,1.5.707,1.881,1.881,0,0,0,1.508-.684A2.575,2.575,0,0,0,103.414-3.656Zm10.93.148h-5.453a2.305,2.305,0,0,0,.684,1.711,2.543,2.543,0,0,0,1.793.6,3.954,3.954,0,0,0,2.352-.766V-.5a5.373,5.373,0,0,1-2.891.688,3.578,3.578,0,0,1-2.77-1.09,4.359,4.359,0,0,1-1-3.066,4.263,4.263,0,0,1,1.105-3.043,3.616,3.616,0,0,1,2.746-1.176,3.153,3.153,0,0,1,2.539,1.055,4.379,4.379,0,0,1,.9,2.93Zm-1.75-1.281a2.336,2.336,0,0,0-.461-1.52,1.54,1.54,0,0,0-1.25-.543,1.759,1.759,0,0,0-1.324.57,2.605,2.605,0,0,0-.668,1.492Zm7.7,4.7a3.141,3.141,0,0,1-1.4.266q-2.328,0-2.328-2.234V-6.578h-1.336V-8h1.336V-9.852l1.813-.516V-8h1.914v1.422h-1.914v4a1.576,1.576,0,0,0,.258,1.016,1.07,1.07,0,0,0,.859.3,1.246,1.246,0,0,0,.8-.266Zm7.7.086h-1.758V-1.25H126.2a2.647,2.647,0,0,1-2.43,1.438,2.559,2.559,0,0,1-1.848-.641,2.241,2.241,0,0,1-.668-1.7q0-2.266,2.609-2.641l2.375-.336q0-1.711-1.625-1.711a3.86,3.86,0,0,0-2.578.984V-7.437a5.622,5.622,0,0,1,2.922-.75q3.031,0,3.031,2.984Zm-1.75-3.93-1.68.234a2.662,2.662,0,0,0-1.176.379,1.107,1.107,0,0,0-.395.973,1.065,1.065,0,0,0,.363.832,1.407,1.407,0,0,0,.973.324A1.8,1.8,0,0,0,125.7-1.77a2.064,2.064,0,0,0,.543-1.465Zm4.875-5.75a1.09,1.09,0,0,1-.762-.289.951.951,0,0,1-.316-.734.975.975,0,0,1,.316-.742,1.074,1.074,0,0,1,.762-.3,1.107,1.107,0,0,1,.781.3.97.97,0,0,1,.32.742.956.956,0,0,1-.32.723A1.1,1.1,0,0,1,131.117-9.68Zm.9,9.68H130.2V-8h1.813ZM136.2,0h-1.82V-11.844h1.82Zm1.859-.25V-1.93a3.616,3.616,0,0,0,2.242.773q1.641,0,1.641-.969a.763.763,0,0,0-.141-.465,1.342,1.342,0,0,0-.379-.34,2.979,2.979,0,0,0-.562-.266q-.324-.117-.723-.266a7.65,7.65,0,0,1-.887-.414,2.679,2.679,0,0,1-.656-.5A1.873,1.873,0,0,1,138.2-5a2.316,2.316,0,0,1-.133-.82,1.9,1.9,0,0,1,.273-1.02,2.376,2.376,0,0,1,.734-.742,3.522,3.522,0,0,1,1.047-.453,4.793,4.793,0,0,1,1.211-.152,5.5,5.5,0,0,1,1.984.336v1.586a3.345,3.345,0,0,0-1.937-.578,2.53,2.53,0,0,0-.621.07,1.6,1.6,0,0,0-.473.2.961.961,0,0,0-.3.3.718.718,0,0,0-.109.387.826.826,0,0,0,.109.438.993.993,0,0,0,.324.316,2.8,2.8,0,0,0,.516.25q.3.113.691.246a10.1,10.1,0,0,1,.926.43,3.128,3.128,0,0,1,.7.5,1.945,1.945,0,0,1,.445.641,2.175,2.175,0,0,1,.156.863,1.973,1.973,0,0,1-.281,1.063,2.344,2.344,0,0,1-.75.75,3.511,3.511,0,0,1-1.082.441,5.621,5.621,0,0,1-1.293.145A5.448,5.448,0,0,1,138.063-.25Z" transform="translate(92 103)" fill="#fff"/>
      <g id="Primary_Button" data-name="Primary Button" transform="translate(1802.588 79.726)">
        <g id="Repeat_Grid_11" data-name="Repeat Grid 11" clip-path="url(#clip-path)">
          <rect id="Rectangle_3990" data-name="Rectangle 3990" width="88.649" height="36" rx="18" fill="#fff"/>
        </g>
        <path id="Path_101385" data-name="Path 101385" d="M8.046-.41A5.943,5.943,0,0,1,5.291.164,4.5,4.5,0,0,1,1.873-1.183,4.907,4.907,0,0,1,.588-4.717a5.146,5.146,0,0,1,1.446-3.8A4.946,4.946,0,0,1,5.688-9.967a5.988,5.988,0,0,1,2.358.4V-7.95a4.208,4.208,0,0,0-2.187-.588A3.433,3.433,0,0,0,3.278-7.52,3.742,3.742,0,0,0,2.29-4.8a3.568,3.568,0,0,0,.923,2.581,3.212,3.212,0,0,0,2.427.96,4.345,4.345,0,0,0,2.406-.656Zm4.785.574a3.47,3.47,0,0,1-2.587-.981,3.544,3.544,0,0,1-.967-2.6,3.687,3.687,0,0,1,1.008-2.755A3.708,3.708,0,0,1,13-7.164a3.358,3.358,0,0,1,2.557.964,3.723,3.723,0,0,1,.916,2.673,3.669,3.669,0,0,1-.988,2.683A3.548,3.548,0,0,1,12.831.164ZM12.906-5.9a1.81,1.81,0,0,0-1.47.649,2.719,2.719,0,0,0-.54,1.791,2.561,2.561,0,0,0,.547,1.733,1.837,1.837,0,0,0,1.463.632,1.743,1.743,0,0,0,1.439-.622,2.754,2.754,0,0,0,.5-1.771,2.8,2.8,0,0,0-.5-1.784A1.734,1.734,0,0,0,12.906-5.9ZM24.322,0H22.736V-3.944q0-1.962-1.388-1.962a1.515,1.515,0,0,0-1.2.543,2.016,2.016,0,0,0-.472,1.371V0H18.088V-7h1.593v1.162h.027a2.5,2.5,0,0,1,2.27-1.326,2.114,2.114,0,0,1,1.743.742,3.33,3.33,0,0,1,.6,2.143Zm5.626-.075a2.748,2.748,0,0,1-1.224.232q-2.037,0-2.037-1.955V-5.756H25.519V-7h1.169V-8.62l1.586-.451V-7h1.675v1.244H28.273v3.5a1.379,1.379,0,0,0,.226.889.936.936,0,0,0,.752.267,1.09,1.09,0,0,0,.7-.232ZM32.115-8.47a.953.953,0,0,1-.667-.253.832.832,0,0,1-.277-.643.854.854,0,0,1,.277-.649.939.939,0,0,1,.667-.26.969.969,0,0,1,.684.26.849.849,0,0,1,.28.649.837.837,0,0,1-.28.632A.962.962,0,0,1,32.115-8.47ZM32.9,0H31.315V-7H32.9Zm8.306,0H39.621V-3.944q0-1.962-1.388-1.962a1.515,1.515,0,0,0-1.2.543,2.016,2.016,0,0,0-.472,1.371V0H34.973V-7h1.593v1.162h.027a2.5,2.5,0,0,1,2.27-1.326,2.114,2.114,0,0,1,1.743.742,3.33,3.33,0,0,1,.6,2.143Zm8.039,0H47.66V-1.107h-.027A2.282,2.282,0,0,1,45.486.164Q43,.164,43-2.816V-7h1.586v4.02q0,1.887,1.456,1.887a1.471,1.471,0,0,0,1.159-.52,1.991,1.991,0,0,0,.455-1.36V-7h1.586Zm7.991-3.069H52.466a2.017,2.017,0,0,0,.6,1.5,2.225,2.225,0,0,0,1.569.526,3.459,3.459,0,0,0,2.058-.67V-.437a4.7,4.7,0,0,1-2.529.6A3.131,3.131,0,0,1,51.738-.79a3.814,3.814,0,0,1-.878-2.683,3.73,3.73,0,0,1,.967-2.663,3.164,3.164,0,0,1,2.4-1.029,2.759,2.759,0,0,1,2.222.923,3.832,3.832,0,0,1,.786,2.563ZM55.706-4.19a2.044,2.044,0,0,0-.4-1.33A1.348,1.348,0,0,0,54.209-6a1.539,1.539,0,0,0-1.159.5,2.28,2.28,0,0,0-.584,1.306Z" transform="translate(15.412 22.274)" fill="#2777d3"/>
      </g>
      <g id="Link_Button" data-name="Link Button" transform="translate(1720.546 83.377)">
        <g id="Group_264143" data-name="Group 264143" transform="translate(-0.546 -5.377)">
          <rect id="Rectangle_6075" data-name="Rectangle 6075" width="68.356" height="26.775" rx="13.388" transform="translate(0.546 5.377)" fill="rgba(255,255,255,0)"/>
          <path id="Path_101384" data-name="Path 101384" d="M7.471-.381A5.518,5.518,0,0,1,4.913.152,4.183,4.183,0,0,1,1.739-1.1,4.556,4.556,0,0,1,.546-4.38,4.779,4.779,0,0,1,1.888-7.909,4.593,4.593,0,0,1,5.281-9.255a5.56,5.56,0,0,1,2.19.375v1.5A3.908,3.908,0,0,0,5.44-7.928a3.188,3.188,0,0,0-2.4.946,3.474,3.474,0,0,0-.917,2.526,3.313,3.313,0,0,0,.857,2.4,2.982,2.982,0,0,0,2.253.892,4.035,4.035,0,0,0,2.234-.609ZM14.022,0H12.594V-1.016h-.025A2.151,2.151,0,0,1,10.594.152a2.079,2.079,0,0,1-1.5-.521A1.821,1.821,0,0,1,8.55-1.746q0-1.841,2.12-2.146l1.93-.273q0-1.39-1.32-1.39a3.136,3.136,0,0,0-2.095.8V-6.043a4.568,4.568,0,0,1,2.374-.609,2.16,2.16,0,0,1,2.463,2.425ZM12.6-3.193,11.235-3a2.163,2.163,0,0,0-.955.308.9.9,0,0,0-.321.79.865.865,0,0,0,.3.676,1.143,1.143,0,0,0,.79.263,1.458,1.458,0,0,0,1.114-.473,1.677,1.677,0,0,0,.441-1.19ZM21.607,0H20.135V-3.663q0-1.822-1.289-1.822a1.407,1.407,0,0,0-1.111.5A1.872,1.872,0,0,0,17.3-3.707V0H15.818V-6.5H17.3v1.079h.025A2.317,2.317,0,0,1,19.43-6.652a1.963,1.963,0,0,1,1.619.689,3.093,3.093,0,0,1,.559,1.99Zm6.449-.3a3.632,3.632,0,0,1-1.847.451,3.128,3.128,0,0,1-2.336-.9A3.2,3.2,0,0,1,22.985-3.1a3.527,3.527,0,0,1,.955-2.58A3.415,3.415,0,0,1,26.5-6.652a3.73,3.73,0,0,1,1.568.311V-4.97a2.375,2.375,0,0,0-1.447-.508,2.011,2.011,0,0,0-1.53.632,2.309,2.309,0,0,0-.6,1.654A2.2,2.2,0,0,0,25.051-1.6a1.994,1.994,0,0,0,1.508.584,2.356,2.356,0,0,0,1.5-.565ZM35.02-2.85H30.589a1.873,1.873,0,0,0,.555,1.39A2.066,2.066,0,0,0,32.6-.971a3.212,3.212,0,0,0,1.911-.622V-.406a4.365,4.365,0,0,1-2.349.559,2.907,2.907,0,0,1-2.25-.885A3.542,3.542,0,0,1,29.1-3.225,3.464,3.464,0,0,1,30-5.7a2.938,2.938,0,0,1,2.231-.955A2.562,2.562,0,0,1,34.29-5.8a3.558,3.558,0,0,1,.73,2.38ZM33.6-3.891a1.9,1.9,0,0,0-.375-1.235,1.251,1.251,0,0,0-1.016-.441,1.429,1.429,0,0,0-1.076.463,2.117,2.117,0,0,0-.543,1.212ZM37.9,0H36.423V-9.623H37.9Z" transform="translate(15 23)" fill="#fff"/>
        </g>
      </g>
    </g>
    <g id="Side_nav" data-name="Side nav" transform="translate(-1 -64)">
      <path id="Path_5700" data-name="Path 5700" d="M0-1H59.5L58.257,385H0V-1Z" transform="translate(0 70)" fill="#fff"/>
      <rect id="Rectangle_5301" data-name="Rectangle 5301" width="59.5" height="50" transform="translate(0 70)" fill="none" opacity="0.3"/>
      <rect id="Rectangle_5317" data-name="Rectangle 5317" width="20" height="20" transform="translate(19.753 85)" fill="none"/>
      <path id="zui-nav-home" d="M20,10.6H17.5v8.142a.833.833,0,0,1-.833.833H12V14.1H8v5.5H3.333a.833.833,0,0,1-.833-.833V10.6H0L10,.6Z" transform="translate(19.753 85.4)" fill="#494955"/>
      <g id="Group_9285" data-name="Group 9285" transform="translate(0 120)">
        <g id="Accounts" transform="translate(19.75 16)">
          <g id="Group_8145" data-name="Group 8145">
            <circle id="Ellipse_6" data-name="Ellipse 6" cx="3.167" cy="3.167" r="3.167" transform="translate(6.833)" fill="#494955"/>
            <path id="Path_5793" data-name="Path 5793" d="M14.55,11.615v8.75H8.3v-8.75a3.5,3.5,0,0,1,6.25,0Z" transform="translate(-1.383 -1.615)" fill="#494955"/>
            <circle id="Ellipse_7" data-name="Ellipse 7" cx="2.833" cy="2.833" r="2.833" transform="translate(14.333 0.583)" fill="#494955"/>
            <path id="Path_5794" data-name="Path 5794" d="M22.883,11.237v7.833H17.3V11.237a3.046,3.046,0,0,1,5.583,0Z" transform="translate(-2.883 -1.571)" fill="#494955"/>
            <circle id="Ellipse_8" data-name="Ellipse 8" cx="2.833" cy="2.833" r="2.833" transform="translate(0 0.583)" fill="#494955"/>
            <path id="Path_5795" data-name="Path 5795" d="M5.667,11.249v7.833H0V11.249a3.167,3.167,0,0,1,1.417-1.5A3.083,3.083,0,0,1,2.75,9.5a3.083,3.083,0,0,1,1.417.25,3.167,3.167,0,0,1,1.5,1.5Z" transform="translate(0 -1.582)" fill="#494955"/>
          </g>
        </g>
        <rect id="Rectangle_3681" data-name="Rectangle 3681" width="59.5" height="50" fill="none"/>
      </g>
      <g id="Group_264132" data-name="Group 264132" transform="translate(0 170)">
        <rect id="Rectangle_3681-2" data-name="Rectangle 3681" width="59.5" height="50" fill="none"/>
        <g id="Group_264129" data-name="Group 264129" transform="translate(21 15)">
          <path id="Path_101122" data-name="Path 101122" d="M17.361.835v18.33a.835.835,0,0,1-.835.835h-5.01V18.088c1.8-.343,3.223-1.378,3.223-3.274,0-2.613-2.246-3.507-4.334-4.05S7.641,9.654,7.641,8.785c0-1.01.927-1.712,2.505-1.712s2.246.785,2.305,1.938h2.037A3.675,3.675,0,0,0,11.532,5.5V3.483H8.685V5.47c-1.779.392-3.224,1.553-3.224,3.34,0,2.13,1.762,3.19,4.334,3.816,2.305.552,2.764,1.362,2.764,2.222,0,.634-.45,1.67-2.505,1.67-1.895,0-2.647-.835-2.747-1.938H5.294a3.864,3.864,0,0,0,3.391,3.533V20H3.474a.835.835,0,0,1-.835-.835V.835A.835.835,0,0,1,3.474,0H16.5a.836.836,0,0,1,.86.81Z" fill="#2777d3"/>
          <rect id="Rectangle_9750" data-name="Rectangle 9750" width="20" height="20" transform="translate(0)" fill="none"/>
        </g>
      </g>
      <g id="Group_11709" data-name="Group 11709" transform="translate(0 220)">
        <rect id="Rectangle_3681-3" data-name="Rectangle 3681" width="59.5" height="50" fill="none"/>
        <g id="Group_264122" data-name="Group 264122" transform="translate(19.75 15)">
          <path id="Path_101116" data-name="Path 101116" d="M3,11" transform="translate(0 -1.833)" fill="#383a45"/>
          <path id="Path_101117" data-name="Path 101117" d="M3,11" transform="translate(0 -1.833)" fill="#383a45"/>
          <g id="Group_264121" data-name="Group 264121">
            <g id="Group_264120" data-name="Group 264120" transform="translate(0 2.008)">
              <path id="Path_101118" data-name="Path 101118" d="M19.992,13.933a1.567,1.567,0,0,0,.008-.2,3.342,3.342,0,0,0-.183-1.085,1.487,1.487,0,0,0-.083-.2,2.632,2.632,0,0,0-.183-.372L15.942,5.466a2.436,2.436,0,0,0-2.15-1.224,2.612,2.612,0,0,0-.833.139A2.455,2.455,0,0,0,11.583,5.6,1.585,1.585,0,0,1,10,6.372,1.6,1.6,0,0,1,8.417,5.6,2.6,2.6,0,0,0,7.042,4.381a2.612,2.612,0,0,0-.833-.139,2.436,2.436,0,0,0-2.15,1.224L.45,12.074a2.632,2.632,0,0,0-.183.372,1.487,1.487,0,0,0-.083.2A3.341,3.341,0,0,0,0,13.731a1.567,1.567,0,0,0,.008.2v.015a1.167,1.167,0,0,0-.008.17,4.029,4.029,0,0,0,4.167,3.873,4.029,4.029,0,0,0,4.167-3.873,2.877,2.877,0,0,0-.067-.651A2.588,2.588,0,0,0,10,14.119a2.551,2.551,0,0,0,1.725-.651,3.325,3.325,0,0,0-.058.651,4.029,4.029,0,0,0,4.167,3.873A4.029,4.029,0,0,0,20,14.119a1.168,1.168,0,0,0-.008-.17Zm-15.825,2.5a2.411,2.411,0,0,1-2.493-2.318A2.411,2.411,0,0,1,4.167,11.8,2.411,2.411,0,0,1,6.66,14.119,2.411,2.411,0,0,1,4.167,16.437Zm11.667,0a2.411,2.411,0,0,1-2.493-2.318A2.411,2.411,0,0,1,15.833,11.8a2.411,2.411,0,0,1,2.493,2.318A2.411,2.411,0,0,1,15.833,16.437Z" transform="translate(0 -2.008)" fill="#494955"/>
              <g id="Group_264118" data-name="Group 264118" transform="translate(4.899)">
                <path id="Path_101119" data-name="Path 101119" d="M8.792,3.482a3.848,3.848,0,0,1,1.244.782,2,2,0,0,0-3.884-.87l-.033.1A3.89,3.89,0,0,1,8.792,3.482Z" transform="translate(-6.119 -2.008)" fill="#494955"/>
              </g>
              <g id="Group_264119" data-name="Group 264119" transform="translate(11.208)">
                <path id="Path_101120" data-name="Path 101120" d="M15.193,3.488a3.91,3.91,0,0,1,2.746.016l-.035-.11a2,2,0,0,0-3.892.835A4.031,4.031,0,0,1,15.193,3.488Z" transform="translate(-14 -2.008)" fill="#494955"/>
              </g>
            </g>
            <rect id="Rectangle_9737" data-name="Rectangle 9737" width="20" height="20" fill="none"/>
          </g>
        </g>
      </g>
      <g id="Group_11711" data-name="Group 11711" transform="translate(0 270)">
        <rect id="Rectangle_3681-4" data-name="Rectangle 3681" width="59.5" height="50" fill="none"/>
        <g id="Group_264117" data-name="Group 264117" transform="translate(19.75 15)">
          <path id="Path_101115" data-name="Path 101115" d="M18.575,3H1.425A1.425,1.425,0,0,0,0,4.425V14.908a1.425,1.425,0,0,0,1.425,1.425h17.15A1.425,1.425,0,0,0,20,14.908V4.425A1.425,1.425,0,0,0,18.575,3Zm.288,3.006-8.518,5.129a.657.657,0,0,1-.184.067c-.01,0-.018.007-.028.01a1.771,1.771,0,0,1-.266,0c-.01,0-.018-.008-.027-.01a.652.652,0,0,1-.185-.067L1.137,6.006a.617.617,0,0,1-.208-.86.649.649,0,0,1,.881-.2l7.975,4.8a.42.42,0,0,0,.43,0l7.975-4.8a.649.649,0,0,1,.881.2A.617.617,0,0,1,18.863,6.006Z" fill="#494955"/>
          <rect id="Rectangle_9736" data-name="Rectangle 9736" width="20" height="20" fill="none"/>
        </g>
      </g>
      <g id="Group_11712" data-name="Group 11712" transform="translate(0 320)">
        <rect id="Rectangle_3681-5" data-name="Rectangle 3681" width="59.5" height="50" fill="none"/>
        <g id="Reports" transform="translate(19.818 15)">
          <path id="Path_5831" data-name="Path 5831" d="M17.106,19.833H0V11.9a.331.331,0,0,1,.331-.331h3.8a.331.331,0,0,1,.331.331v5.289h1.9V7.52a.331.331,0,0,1,.331-.331h3.8a.331.331,0,0,1,.331.331v9.669h1.9V.331A.331.331,0,0,1,13.057,0h3.8a.331.331,0,0,1,.331.331h0Z" transform="translate(0 0)" fill="#494955"/>
        </g>
      </g>
      <rect id="Rectangle_4697" data-name="Rectangle 4697" width="59.5" height="50" transform="translate(0.5 70.5)" fill="none"/>
    </g>
    <g id="Top_bar" data-name="Top bar" transform="translate(0 -60)">
      <path id="Path_5690" data-name="Path 5690" d="M0,0H1920V5H0Z" transform="translate(0 60)" fill="#2777d3"/>
    </g>
  </g>
</svg>
