<svg xmlns="http://www.w3.org/2000/svg" xmlns:xlink="http://www.w3.org/1999/xlink" width="352" height="407" viewBox="0 0 352 407">
  <defs>
    <filter id="Rectangle_4660" x="89" y="42" width="257.3" height="136" filterUnits="userSpaceOnUse">
      <feOffset dy="3" input="SourceAlpha"/>
      <feGaussianBlur stdDeviation="3" result="blur"/>
      <feFlood flood-opacity="0.161"/>
      <feComposite operator="in" in2="blur"/>
      <feComposite in="SourceGraphic"/>
    </filter>
    <filter id="Rectangle_4660-2" x="89" y="262" width="257.3" height="136" filterUnits="userSpaceOnUse">
      <feOffset dy="3" input="SourceAlpha"/>
      <feGaussianBlur stdDeviation="3" result="blur-2"/>
      <feFlood flood-opacity="0.161"/>
      <feComposite operator="in" in2="blur-2"/>
      <feComposite in="SourceGraphic"/>
    </filter>
    <clipPath id="clip-button_dropdown--option_list_states">
      <rect width="352" height="407"/>
    </clipPath>
  </defs>
  <g id="button_dropdown--option_list_states" clip-path="url(#clip-button_dropdown--option_list_states)">
    <g id="Group_7877" data-name="Group 7877" transform="translate(-64 -124)">
      <path id="flat_light" d="M-26.062,0h-1V-4.031H-31.57V0h-1V-8.566h1v3.645h4.512V-8.566h1Zm7.746-3.217a3.543,3.543,0,0,1-.791,2.452,2.786,2.786,0,0,1-2.186.882,2.9,2.9,0,0,1-1.529-.4,2.668,2.668,0,0,1-1.031-1.16,4.043,4.043,0,0,1-.363-1.77,3.537,3.537,0,0,1,.785-2.446,2.777,2.777,0,0,1,2.18-.876,2.717,2.717,0,0,1,2.142.9A3.527,3.527,0,0,1-18.316-3.217Zm-4.893,0a3.048,3.048,0,0,0,.492,1.875A1.708,1.708,0,0,0-21.27-.7a1.72,1.72,0,0,0,1.45-.642,3.033,3.033,0,0,0,.5-1.878,2.984,2.984,0,0,0-.5-1.86,1.74,1.74,0,0,0-1.462-.636,1.712,1.712,0,0,0-1.441.627A3.017,3.017,0,0,0-23.209-3.217Zm8,3.217-2.437-6.422H-16.6l1.383,3.809a18.027,18.027,0,0,1,.551,1.734h.047a13.1,13.1,0,0,1,.407-1.286q.343-.976,1.538-4.257h1.043L-14.068,0Zm7.318.117A2.95,2.95,0,0,1-10.134-.75a3.357,3.357,0,0,1-.823-2.408,3.723,3.723,0,0,1,.765-2.467,2.54,2.54,0,0,1,2.054-.914,2.422,2.422,0,0,1,1.91.794,3.043,3.043,0,0,1,.7,2.095v.615H-9.949a2.546,2.546,0,0,0,.571,1.717,1.976,1.976,0,0,0,1.526.586A5.172,5.172,0,0,0-5.8-1.166V-.3a5.147,5.147,0,0,1-.976.319A5.483,5.483,0,0,1-7.887.117ZM-8.15-5.725a1.588,1.588,0,0,0-1.233.5,2.323,2.323,0,0,0-.542,1.395h3.357a2.139,2.139,0,0,0-.41-1.409A1.444,1.444,0,0,0-8.15-5.725Zm7.213-.814a3.806,3.806,0,0,1,.768.07l-.135.9a3.313,3.313,0,0,0-.7-.088,1.712,1.712,0,0,0-1.333.633,2.307,2.307,0,0,0-.554,1.576V0h-.973V-6.422h.8l.111,1.189h.047A2.823,2.823,0,0,1-2.045-6.2,1.939,1.939,0,0,1-.937-6.539Z" transform="translate(121 236)" fill="#b2b2b2"/>
      <g id="Group_7862" data-name="Group 7862" transform="translate(0 -58)">
        <g transform="matrix(1, 0, 0, 1, 64, 182)" filter="url(#Rectangle_4660)">
          <rect id="Rectangle_4660-3" data-name="Rectangle 4660" width="239.3" height="118" rx="4" transform="translate(98 48)" fill="#fff"/>
        </g>
        <rect id="Rectangle_4665" data-name="Rectangle 4665" width="239.3" height="36" transform="translate(162 235)" fill="#fff"/>
        <text id="Edit" transform="translate(177 257)" fill="#31313a" font-size="14" font-family="SegoeUI, Segoe UI"><tspan x="0" y="0">Edit</tspan></text>
        <rect id="Rectangle_4665-2" data-name="Rectangle 4665" width="239.3" height="36" transform="translate(162 271)" fill="#fff"/>
        <rect id="Rectangle_4665-3" data-name="Rectangle 4665" width="239.3" height="36" transform="translate(162 307)" fill="#fff"/>
        <text id="Archive" transform="translate(177 329)" fill="#31313a" font-size="14" font-family="SegoeUI, Segoe UI"><tspan x="0" y="0">Archive</tspan></text>
        <rect id="Rectangle_4837" data-name="Rectangle 4837" width="239" height="36" transform="translate(162 271)" fill="#f4f4f6"/>
        <text id="Delete" transform="translate(177 293)" fill="#31313a" font-size="14" font-family="SegoeUI, Segoe UI"><tspan x="0" y="0">Delete</tspan></text>
        <g id="Group_7782" data-name="Group 7782" transform="translate(361 288)">
          <g id="Group_6" data-name="Group 6">
            <path id="Path_24" data-name="Path 24" d="M8.8,5.3h2.7v.9h1.8v.9h.9V8h.9v6.2h-.8v2.5c0,.1,0,.1-.1.1h-.8V14.1h.9v-6c0-.1,0-.1-.1-.1h-.8V7.2a.1.1,0,0,0-.1-.1h-.8V9.8h-.9V6.3H9.8V8.9H8.9V5.5a.31.31,0,0,1-.1-.2Z"/>
            <path id="Path_25" data-name="Path 25" d="M13.2,16.7v2.6H4.4V16.7H3.5V14.9h.9v1.7h.9v1.8h7.1V16.7Z"/>
            <path id="Path_26" data-name="Path 26" d="M2.7,8.8h.8V.9h.9v9.7H3.5V9.7H2.6a2.769,2.769,0,0,0,.1-.9Z"/>
            <path id="Path_27" data-name="Path 27" d="M8.8,5.3H7V8.8H6.1V.9H7V4.4H8.8v.9Z"/>
            <path id="Path_28" data-name="Path 28" d="M.9,11.5v-.9h.9v.9h.9v1.8h.9v1.6c0,.1,0,.1-.1.1H2.7V13.2H1.8V11.4A3.085,3.085,0,0,1,.9,11.5Z"/>
            <path id="Path_29" data-name="Path 29" d="M2.7,8.8H.9v1.8H0V8H2.7v.8Z"/>
            <path id="Path_30" data-name="Path 30" d="M4.4.9V0H6.2V.9H4.4Z"/>
          </g>
          <g id="Group_7" data-name="Group 7">
            <rect id="Rectangle_54" data-name="Rectangle 54" width="1.8" height="15.9" transform="translate(4.4 0.9)" fill="#fff"/>
            <rect id="Rectangle_55" data-name="Rectangle 55" width="1.8" height="1.8" transform="translate(0.9 8.8)" fill="#fff"/>
            <rect id="Rectangle_56" data-name="Rectangle 56" width="1.8" height="1.8" transform="translate(1.8 9.7)" fill="#fff"/>
            <rect id="Rectangle_57" data-name="Rectangle 57" width="1.8" height="13.2" transform="translate(7.1 5.3)" fill="#fff"/>
            <rect id="Rectangle_58" data-name="Rectangle 58" width="1.8" height="12.3" transform="translate(9.7 6.2)" fill="#fff"/>
            <rect id="Rectangle_59" data-name="Rectangle 59" width="1.8" height="2.6" transform="translate(2.7 10.6)" fill="#fff"/>
            <rect id="Rectangle_60" data-name="Rectangle 60" width="1.8" height="4.4" transform="translate(3.5 10.6)" fill="#fff"/>
            <rect id="Rectangle_61" data-name="Rectangle 61" width="1.8" height="9.7" transform="translate(5.7 8.8)" fill="#fff"/>
            <rect id="Rectangle_62" data-name="Rectangle 62" width="1.8" height="9.7" transform="translate(8.4 8.8)" fill="#fff"/>
            <rect id="Rectangle_63" data-name="Rectangle 63" width="1.8" height="7" transform="translate(11.4 9.7)" fill="#fff"/>
            <rect id="Rectangle_64" data-name="Rectangle 64" width="1.8" height="7.3" transform="translate(10.6 11.2)" fill="#fff"/>
            <rect id="Rectangle_65" data-name="Rectangle 65" width="1.8" height="6.2" transform="translate(12.3 7.9)" fill="#fff"/>
            <rect id="Rectangle_66" data-name="Rectangle 66" width="0.9" height="7.2" transform="translate(12.3 7)" fill="#fff"/>
          </g>
        </g>
      </g>
      <g id="Group_7864" data-name="Group 7864" transform="translate(0 110)">
        <text id="flat_light-2" data-name="flat_light" transform="translate(121 346)" fill="#b2b2b2" font-size="12" font-family="OpenSans, Open Sans"><tspan x="-48.656" y="0">Disabled</tspan></text>
        <g id="Group_7833" data-name="Group 7833" transform="translate(0 52)">
          <g transform="matrix(1, 0, 0, 1, 64, -38)" filter="url(#Rectangle_4660-2)">
            <rect id="Rectangle_4660-4" data-name="Rectangle 4660" width="239.3" height="118" rx="4" transform="translate(98 268)" fill="#fff"/>
          </g>
          <rect id="Rectangle_4665-4" data-name="Rectangle 4665" width="239.3" height="36" transform="translate(162 235)" fill="#fff"/>
          <text id="Edit-2" data-name="Edit" transform="translate(177 257)" fill="#31313a" font-size="14" font-family="SegoeUI, Segoe UI"><tspan x="0" y="0">Edit</tspan></text>
          <rect id="Rectangle_4665-5" data-name="Rectangle 4665" width="239.3" height="36" transform="translate(162 271)" fill="#fff"/>
          <rect id="Rectangle_4665-6" data-name="Rectangle 4665" width="239.3" height="36" transform="translate(162 307)" fill="#fff"/>
          <text id="Archive-2" data-name="Archive" transform="translate(177 329)" fill="#31313a" font-size="14" font-family="SegoeUI, Segoe UI"><tspan x="0" y="0">Archive</tspan></text>
          <text id="Delete-2" data-name="Delete" transform="translate(177 293)" fill="#afafbb" font-size="14" font-family="SegoeUI, Segoe UI"><tspan x="0" y="0">Delete</tspan></text>
        </g>
        <g id="Group_7876" data-name="Group 7876" transform="translate(-555 -93)">
          <rect id="Rectangle_1" data-name="Rectangle 1" width="102" height="36" rx="18" transform="translate(717 119)" fill="#1f5ea8"/>
          <text id="More" transform="translate(751 142)" fill="#fff" font-size="14" font-family="OpenSans-Semibold, Open Sans" font-weight="600"><tspan x="-17.787" y="0">More</tspan></text>
          <g id="Group_7751" data-name="Group 7751" transform="translate(-37 -1582)">
            <path id="Path_5558" data-name="Path 5558" d="M56,9.4l-3,3-3-3a.967.967,0,0,0-1.4,0h0a.967.967,0,0,0,0,1.4l3.7,3.7a.967.967,0,0,0,1.4,0l3.7-3.7a.967.967,0,0,0,0-1.4h0A.965.965,0,0,0,56,9.4Z" transform="translate(775 1707)" fill="#fff"/>
            <rect id="Rectangle_3867" data-name="Rectangle 3867" width="24" height="24" transform="translate(816 1707)" fill="none"/>
          </g>
        </g>
      </g>
      <g id="Group_7770" data-name="Group 7770" transform="translate(-555 237)">
        <rect id="Rectangle_1-2" data-name="Rectangle 1" width="102" height="36" rx="18" transform="translate(717 119)" fill="#1f5ea8"/>
        <text id="More-2" data-name="More" transform="translate(751 142)" fill="#fff" font-size="14" font-family="OpenSans-Semibold, Open Sans" font-weight="600"><tspan x="-17.787" y="0">More</tspan></text>
        <g id="Group_7751-2" data-name="Group 7751" transform="translate(-37 -1582)">
          <path id="Path_5558-2" data-name="Path 5558" d="M56,9.4l-3,3-3-3a.967.967,0,0,0-1.4,0h0a.967.967,0,0,0,0,1.4l3.7,3.7a.967.967,0,0,0,1.4,0l3.7-3.7a.967.967,0,0,0,0-1.4h0A.965.965,0,0,0,56,9.4Z" transform="translate(775 1707)" fill="#fff"/>
          <rect id="Rectangle_3867-2" data-name="Rectangle 3867" width="24" height="24" transform="translate(816 1707)" fill="none"/>
        </g>
      </g>
    </g>
  </g>
</svg>
