<svg xmlns="http://www.w3.org/2000/svg" xmlns:xlink="http://www.w3.org/1999/xlink" width="349" height="232" viewBox="0 0 349 232">
  <defs>
    <filter id="Rectangle_4660" x="83" y="86" width="257.3" height="136" filterUnits="userSpaceOnUse">
      <feOffset dy="3" input="SourceAlpha"/>
      <feGaussianBlur stdDeviation="3" result="blur"/>
      <feFlood flood-opacity="0.161"/>
      <feComposite operator="in" in2="blur"/>
      <feComposite in="SourceGraphic"/>
    </filter>
    <clipPath id="clip-buttons_Dropdown_Anatomy">
      <rect width="349" height="232"/>
    </clipPath>
  </defs>
  <g id="buttons_Dropdown_Anatomy" clip-path="url(#clip-buttons_Dropdown_Anatomy)">
    <g id="Group_7868" data-name="Group 7868" transform="translate(-59 -133)">
      <g id="Group_7796" data-name="Group 7796" transform="translate(-11 -5)">
        <g transform="matrix(1, 0, 0, 1, 70, 138)" filter="url(#Rectangle_4660)">
          <rect id="Rectangle_4660-2" data-name="Rectangle 4660" width="239.3" height="118" rx="4" transform="translate(92 92)" fill="#fff"/>
        </g>
        <rect id="Rectangle_4665" data-name="Rectangle 4665" width="239.3" height="36" transform="translate(162 235)" fill="#fff"/>
        <text id="Edit" transform="translate(177 257)" fill="#5b5b5b" font-size="14" font-family="SegoeUI, Segoe UI"><tspan x="0" y="0">Edit</tspan></text>
        <rect id="Rectangle_4665-2" data-name="Rectangle 4665" width="239.3" height="36" transform="translate(162 271)" fill="#fff"/>
        <text id="Delete" transform="translate(177 293)" fill="#5b5b5b" font-size="14" font-family="SegoeUI, Segoe UI"><tspan x="0" y="0">Delete</tspan></text>
        <rect id="Rectangle_4665-3" data-name="Rectangle 4665" width="239.3" height="36" transform="translate(162 307)" fill="#fff"/>
        <text id="Archive" transform="translate(177 329)" fill="#5b5b5b" font-size="14" font-family="SegoeUI, Segoe UI"><tspan x="0" y="0">Archive</tspan></text>
      </g>
      <g id="Group_7797" data-name="Group 7797" transform="translate(-953 -1519)">
        <rect id="Rectangle_4867" data-name="Rectangle 4867" width="102" height="36" rx="18" transform="translate(1105 1708)" fill="#1f5ea8"/>
        <text id="More" transform="translate(1139 1731)" fill="#fff" font-size="14" font-family="SegoeUI-Semibold, Segoe UI" font-weight="600"><tspan x="-16.898" y="0">More</tspan></text>
        <g id="Group_7720" data-name="Group 7720" transform="translate(2007 3445) rotate(180)">
          <path id="Path_5558" data-name="Path 5558" d="M56,9.4l-3,3-3-3a.967.967,0,0,0-1.4,0h0a.967.967,0,0,0,0,1.4l3.7,3.7a.967.967,0,0,0,1.4,0l3.7-3.7a.967.967,0,0,0,0-1.4h0A.965.965,0,0,0,56,9.4Z" transform="translate(775 1707)" fill="#fff"/>
          <rect id="Rectangle_3867" data-name="Rectangle 3867" width="24" height="24" transform="translate(816 1707)" fill="none"/>
        </g>
      </g>
      <path id="Rectangle_138" data-name="Rectangle 138" d="M0,0H29V1H0Z" transform="translate(245 207)" fill="#c6318c"/>
      <path id="Rectangle_138-2" data-name="Rectangle 138" d="M0,0H25.2V1H0Z" transform="translate(199.681 170.8) rotate(90)" fill="#c6318c"/>
      <path id="Rectangle_138-3" data-name="Rectangle 138" d="M0,0H12V1H0Z" transform="translate(135 248)" fill="#c6318c"/>
      <path id="Rectangle_138-4" data-name="Rectangle 138" d="M0,0H12V1H0Z" transform="translate(135 208)" fill="#c6318c"/>
      <path id="Rectangle_138-5" data-name="Rectangle 138" d="M0,0H28V1H0Z" transform="translate(135 284)" fill="#c6318c"/>
      <text id="Button_label" data-name="Button label" transform="translate(167 163)" fill="#c6318c" font-size="12" font-family="SegoeUI, Segoe UI"><tspan x="0" y="0">Button label</tspan></text>
      <text id="Dropdown_chevron" data-name="Dropdown chevron" transform="translate(278 212)" fill="#c6318c" font-size="12" font-family="SegoeUI, Segoe UI"><tspan x="0" y="0">Dropdown chevron</tspan></text>
      <text id="Button" transform="translate(95 212)" fill="#c6318c" font-size="12" font-family="SegoeUI, Segoe UI"><tspan x="0" y="0">Button</tspan></text>
      <text id="Option_list" data-name="Option list" transform="translate(75 252)" fill="#c6318c" font-size="12" font-family="SegoeUI, Segoe UI"><tspan x="0" y="0">Option list</tspan></text>
      <text id="Option" transform="translate(93 288)" fill="#c6318c" font-size="12" font-family="SegoeUI, Segoe UI"><tspan x="0" y="0">Option</tspan></text>
    </g>
  </g>
</svg>
