<svg xmlns="http://www.w3.org/2000/svg" xmlns:xlink="http://www.w3.org/1999/xlink" viewBox="0 0 564 535">
  <defs>
    <style>
      .cls-1 {
        clip-path: url(#clip-select_base_specs);
      }

      .cls-2, .cls-4 {
        fill: #fff;
      }

      .cls-3 {
        fill: #3d3d3d;
      }

      .cls-5 {
        fill: #5b5b5b;
        font-size: 14px;
        font-family: OpenSans, Open Sans;
      }

      .cls-6 {
        fill: none;
      }

      .cls-7 {
        fill: #7a7a7a;
      }

      .cls-8, .cls-9 {
        stroke: none;
      }

      .cls-9 {
        fill: #50a7ed;
      }

      .cls-10 {
        filter: url(#Path_6711);
      }
    </style>
    <filter id="Path_6711" x="123" y="126" width="318" height="316" filterUnits="userSpaceOnUse">
      <feOffset dy="3" input="SourceAlpha"/>
      <feGaussianBlur stdDeviation="3" result="blur"/>
      <feFlood flood-opacity="0.161"/>
      <feComposite operator="in" in2="blur"/>
      <feComposite in="SourceGraphic"/>
    </filter>
    <clipPath id="clip-select_base_specs">
      <rect width="564" height="535"/>
    </clipPath>
  </defs>
  <g id="select_base_specs" class="cls-1">
    <g id="Path_6709" data-name="Path 6709" class="cls-2" transform="translate(132 90)">
      <path class="cls-8" d="M 296 41 L 4 41 C 2.345807790756226 41 1 39.65419387817383 1 38 L 1 4 C 1 2.345807790756226 2.345807790756226 1 4 1 L 296 1 C 297.6542053222656 1 299 2.345807790756226 299 4 L 299 38 C 299 39.65419387817383 297.6542053222656 41 296 41 Z"/>
      <path class="cls-9" d="M 296 40 C 297.1028137207031 40 298 39.10280609130859 298 38 L 298 4 C 298 2.897192239761353 297.1028137207031 2 296 2 L 4 2 C 2.897192239761353 2 2 2.897192239761353 2 4 L 2 38 C 2 39.10280609130859 2.897192239761353 40 4 40 L 296 40 M 296 42 L 4 42 C 1.790884613990784 42 0 40.20915222167969 0 38 L 0 4 C 0 1.790846109390259 1.790884613990784 0 4 0 L 296 0 C 298.2091674804688 0 300 1.790846109390259 300 4 L 300 38 C 300 40.20915222167969 298.2091674804688 42 296 42 Z"/>
    </g>
    <path id="Path_6710" data-name="Path 6710" class="cls-3" d="M7.082-2.714A2.515,2.515,0,0,1,6.118-.622,4.2,4.2,0,0,1,3.459.137,6.345,6.345,0,0,1,.684-.39V-1.935a7.543,7.543,0,0,0,1.453.506,6.159,6.159,0,0,0,1.432.185A2.278,2.278,0,0,0,5-1.613,1.2,1.2,0,0,0,5.462-2.6a1.242,1.242,0,0,0-.424-.95,6.381,6.381,0,0,0-1.75-.923A4.63,4.63,0,0,1,1.36-5.742,2.676,2.676,0,0,1,.8-7.451,2.393,2.393,0,0,1,1.688-9.42a3.686,3.686,0,0,1,2.386-.718,7.01,7.01,0,0,1,2.857.629l-.52,1.333a6.243,6.243,0,0,0-2.379-.561,1.826,1.826,0,0,0-1.2.345,1.134,1.134,0,0,0-.41.913,1.285,1.285,0,0,0,.164.667,1.676,1.676,0,0,0,.54.523,9.135,9.135,0,0,0,1.354.649,7.406,7.406,0,0,1,1.613.854,2.513,2.513,0,0,1,.752.9A2.694,2.694,0,0,1,7.082-2.714Zm4.58,1.552a3.907,3.907,0,0,0,1.176-.185v1.21a3.243,3.243,0,0,1-.687.195,4.733,4.733,0,0,1-.872.079Q9,.137,9-2.27V-6.344H7.964v-.711l1.107-.588.547-1.6h.991v1.682h2.153v1.217H10.609V-2.3a1.135,1.135,0,0,0,.291.858A1.059,1.059,0,0,0,11.662-1.162ZM19.079,0l-.321-1.053H18.7a3.1,3.1,0,0,1-1.1.94,3.481,3.481,0,0,1-1.422.25,2.406,2.406,0,0,1-1.74-.6,2.251,2.251,0,0,1-.625-1.7,2,2,0,0,1,.868-1.764,5.006,5.006,0,0,1,2.646-.649l1.306-.041v-.4A1.529,1.529,0,0,0,18.3-6.108a1.38,1.38,0,0,0-1.049-.359,3.628,3.628,0,0,0-1.114.171,8.409,8.409,0,0,0-1.025.4l-.52-1.148a5.591,5.591,0,0,1,1.347-.489A6.2,6.2,0,0,1,17.315-7.7a3.27,3.27,0,0,1,2.177.629,2.462,2.462,0,0,1,.735,1.976V0ZM16.687-1.094a1.99,1.99,0,0,0,1.4-.489,1.772,1.772,0,0,0,.53-1.371v-.656l-.971.041A3.321,3.321,0,0,0,16-3.189a1.153,1.153,0,0,0-.516,1.036,1.011,1.011,0,0,0,.3.783A1.292,1.292,0,0,0,16.687-1.094Zm8.6-.068a3.907,3.907,0,0,0,1.176-.185v1.21a3.243,3.243,0,0,1-.687.195A4.733,4.733,0,0,1,24.9.137Q22.62.137,22.62-2.27V-6.344H21.588v-.711L22.7-7.643l.547-1.6h.991v1.682h2.153v1.217H24.233V-2.3a1.135,1.135,0,0,0,.291.858A1.059,1.059,0,0,0,25.286-1.162Zm5.988,1.3A3.657,3.657,0,0,1,28.516-.892a3.906,3.906,0,0,1-.995-2.833,4.285,4.285,0,0,1,.923-2.912A3.188,3.188,0,0,1,30.98-7.7a3.116,3.116,0,0,1,2.365.909,3.474,3.474,0,0,1,.868,2.5v.868H29.176a2.483,2.483,0,0,0,.595,1.692,2.071,2.071,0,0,0,1.579.591A5.829,5.829,0,0,0,32.6-1.261a6.539,6.539,0,0,0,1.241-.42V-.376a4.932,4.932,0,0,1-1.189.4A7.294,7.294,0,0,1,31.274.137ZM30.98-6.48A1.614,1.614,0,0,0,29.753-6,2.313,2.313,0,0,0,29.2-4.58h3.432A2.093,2.093,0,0,0,32.184-6,1.543,1.543,0,0,0,30.98-6.48Z" transform="translate(132 82)"/>
    <g class="cls-10" transform="matrix(1, 0, 0, 1, 0, 0)">
      <path id="Path_6711-2" data-name="Path 6711" class="cls-4" d="M4,0H296a4,4,0,0,1,4,4V294a4,4,0,0,1-4,4H4a4,4,0,0,1-4-4V4A4,4,0,0,1,4,0Z" transform="translate(132 132)"/>
    </g>
    <g id="Group_7849" data-name="Group 7849" transform="translate(-94 -80)">
      <rect id="Rectangle_4665" data-name="Rectangle 4665" class="cls-4" width="300" height="36" transform="translate(226 217)"/>
      <text id="Alaska" class="cls-5" transform="translate(241 239)"><tspan x="0" y="0">Alaska</tspan></text>
    </g>
    <g id="Group_7850" data-name="Group 7850" transform="translate(-94 -44)">
      <rect id="Rectangle_4665-2" data-name="Rectangle 4665" class="cls-4" width="300" height="36" transform="translate(226 217)"/>
      <text id="Alabama" class="cls-5" transform="translate(241 239)"><tspan x="0" y="0">Alabama</tspan></text>
    </g>
    <g id="Group_7851" data-name="Group 7851" transform="translate(-94 -8)">
      <rect id="Rectangle_4665-3" data-name="Rectangle 4665" class="cls-4" width="300" height="36" transform="translate(226 217)"/>
      <text id="Arizona" class="cls-5" transform="translate(241 239)"><tspan x="0" y="0">Arizona</tspan></text>
    </g>
    <g id="Group_7852" data-name="Group 7852" transform="translate(-94 28)">
      <rect id="Rectangle_4665-4" data-name="Rectangle 4665" class="cls-4" width="300" height="36" transform="translate(226 217)"/>
      <text id="California" class="cls-5" transform="translate(241 239)"><tspan x="0" y="0">California</tspan></text>
    </g>
    <g id="Group_7853" data-name="Group 7853" transform="translate(-94 64)">
      <rect id="Rectangle_4665-5" data-name="Rectangle 4665" class="cls-4" width="300" height="36" transform="translate(226 217)"/>
      <text id="Colorado" class="cls-5" transform="translate(241 239)"><tspan x="0" y="0">Colorado</tspan></text>
    </g>
    <g id="Group_7854" data-name="Group 7854" transform="translate(-94 100)">
      <rect id="Rectangle_4665-6" data-name="Rectangle 4665" class="cls-4" width="300" height="36" transform="translate(226 217)"/>
      <text id="Connecticut" class="cls-5" transform="translate(241 239)"><tspan x="0" y="0">Connecticut</tspan></text>
    </g>
    <g id="Group_7855" data-name="Group 7855" transform="translate(-94 136)">
      <rect id="Rectangle_4665-7" data-name="Rectangle 4665" class="cls-4" width="300" height="36" transform="translate(226 217)"/>
      <text id="Delaware" class="cls-5" transform="translate(241 239)"><tspan x="0" y="0">Delaware</tspan></text>
    </g>
    <g id="Group_7856" data-name="Group 7856" transform="translate(-94 172)">
      <rect id="Rectangle_4665-8" data-name="Rectangle 4665" class="cls-4" width="300" height="36" transform="translate(226 217)"/>
      <text id="Florida" class="cls-5" transform="translate(241 239)"><tspan x="0" y="0">Florida</tspan></text>
    </g>
    <g id="Group_7857" data-name="Group 7857" transform="translate(-418 -1608)">
      <rect id="Rectangle_3867" data-name="Rectangle 3867" class="cls-6" width="24" height="24" transform="translate(816 1707)"/>
      <path id="Path_5558" data-name="Path 5558" class="cls-7" d="M56,9.4l-3,3-3-3a.967.967,0,0,0-1.4,0h0a.967.967,0,0,0,0,1.4l3.7,3.7a.967.967,0,0,0,1.4,0l3.7-3.7a.967.967,0,0,0,0-1.4h0A.965.965,0,0,0,56,9.4Z" transform="translate(881 1730.8) rotate(180)"/>
    </g>
    <path id="Path_6714" data-name="Path 6714" class="cls-7" d="M2.5,0A2.5,2.5,0,0,1,5,2.5v95a2.5,2.5,0,0,1-5,0V2.5A2.5,2.5,0,0,1,2.5,0Z" transform="translate(422 137)"/>
    <path id="Path_6712" data-name="Path 6712" class="cls-3" d="M0,0H1V18H0Z" transform="translate(146 103)"/>
    <path id="Path_6713" data-name="Path 6713" class="cls-6" d="M0,0H24V24H0Z" transform="translate(374 99)"/>
  </g>
</svg>
