<svg xmlns="http://www.w3.org/2000/svg" xmlns:xlink="http://www.w3.org/1999/xlink" viewBox="0 0 564 325">
  <defs>
    <style>
      .cls-1, .cls-5 {
        fill: none;
      }

      .cls-1 {
        stroke: #707070;
      }

      .cls-2 {
        clip-path: url(#clip-select_removing_selection);
      }

      .cls-3, .cls-9 {
        fill: #fff;
      }

      .cls-4 {
        fill: #3d3d3d;
      }

      .cls-10, .cls-6 {
        fill: #5b5b5b;
      }

      .cls-7 {
        fill: #7a7a7a;
      }

      .cls-8 {
        clip-path: url(#clip-path);
      }

      .cls-10 {
        font-size: 14px;
        font-family: OpenSans, Open Sans;
      }

      .cls-11 {
        fill: url(#linear-gradient);
      }

      .cls-12, .cls-13 {
        stroke: none;
      }

      .cls-13 {
        fill: #50a7ed;
      }

      .cls-14 {
        filter: url(#Rectangle_4843);
      }
    </style>
    <clipPath id="clip-path">
      <rect id="Rectangle_4847" data-name="Rectangle 4847" class="cls-1" width="336" height="103" transform="translate(115 415)"/>
    </clipPath>
    <filter id="Rectangle_4843" x="123" y="126" width="318" height="316" filterUnits="userSpaceOnUse">
      <feOffset dy="3" input="SourceAlpha"/>
      <feGaussianBlur stdDeviation="3" result="blur"/>
      <feFlood flood-opacity="0.161"/>
      <feComposite operator="in" in2="blur"/>
      <feComposite in="SourceGraphic"/>
    </filter>
    <linearGradient id="linear-gradient" x1="0.447" y1="0.695" x2="0.447" gradientUnits="objectBoundingBox">
      <stop offset="0" stop-color="#fff"/>
      <stop offset="1" stop-color="#fff" stop-opacity="0"/>
    </linearGradient>
    <clipPath id="clip-select_removing_selection">
      <rect width="564" height="325"/>
    </clipPath>
  </defs>
  <g id="select_removing_selection" class="cls-2">
    <g id="Path_6778" data-name="Path 6778" class="cls-3" transform="translate(132 90)">
      <path class="cls-12" d="M 296 41 L 4 41 C 2.345807790756226 41 1 39.65419387817383 1 38 L 1 4 C 1 2.345807790756226 2.345807790756226 1 4 1 L 296 1 C 297.6542053222656 1 299 2.345807790756226 299 4 L 299 38 C 299 39.65419387817383 297.6542053222656 41 296 41 Z"/>
      <path class="cls-13" d="M 296 40 C 297.1028137207031 40 298 39.10280609130859 298 38 L 298 4 C 298 2.897192239761353 297.1028137207031 2 296 2 L 4 2 C 2.897192239761353 2 2 2.897192239761353 2 4 L 2 38 C 2 39.10280609130859 2.897192239761353 40 4 40 L 296 40 M 296 42 L 4 42 C 1.790884613990784 42 0 40.20915222167969 0 38 L 0 4 C 0 1.790846109390259 1.790884613990784 0 4 0 L 296 0 C 298.2091674804688 0 300 1.790846109390259 300 4 L 300 38 C 300 40.20915222167969 298.2091674804688 42 296 42 Z"/>
    </g>
    <path id="Path_6779" data-name="Path 6779" class="cls-4" d="M7.082-2.714A2.515,2.515,0,0,1,6.118-.622,4.2,4.2,0,0,1,3.459.137,6.345,6.345,0,0,1,.684-.39V-1.935a7.543,7.543,0,0,0,1.453.506,6.159,6.159,0,0,0,1.432.185A2.278,2.278,0,0,0,5-1.613,1.2,1.2,0,0,0,5.462-2.6a1.242,1.242,0,0,0-.424-.95,6.381,6.381,0,0,0-1.75-.923A4.63,4.63,0,0,1,1.36-5.742,2.676,2.676,0,0,1,.8-7.451,2.393,2.393,0,0,1,1.688-9.42a3.686,3.686,0,0,1,2.386-.718,7.01,7.01,0,0,1,2.857.629l-.52,1.333a6.243,6.243,0,0,0-2.379-.561,1.826,1.826,0,0,0-1.2.345,1.134,1.134,0,0,0-.41.913,1.285,1.285,0,0,0,.164.667,1.676,1.676,0,0,0,.54.523,9.135,9.135,0,0,0,1.354.649,7.406,7.406,0,0,1,1.613.854,2.513,2.513,0,0,1,.752.9A2.694,2.694,0,0,1,7.082-2.714Zm4.58,1.552a3.907,3.907,0,0,0,1.176-.185v1.21a3.243,3.243,0,0,1-.687.195,4.733,4.733,0,0,1-.872.079Q9,.137,9-2.27V-6.344H7.964v-.711l1.107-.588.547-1.6h.991v1.682h2.153v1.217H10.609V-2.3a1.135,1.135,0,0,0,.291.858A1.059,1.059,0,0,0,11.662-1.162ZM19.079,0l-.321-1.053H18.7a3.1,3.1,0,0,1-1.1.94,3.481,3.481,0,0,1-1.422.25,2.406,2.406,0,0,1-1.74-.6,2.251,2.251,0,0,1-.625-1.7,2,2,0,0,1,.868-1.764,5.006,5.006,0,0,1,2.646-.649l1.306-.041v-.4A1.529,1.529,0,0,0,18.3-6.108a1.38,1.38,0,0,0-1.049-.359,3.628,3.628,0,0,0-1.114.171,8.409,8.409,0,0,0-1.025.4l-.52-1.148a5.591,5.591,0,0,1,1.347-.489A6.2,6.2,0,0,1,17.315-7.7a3.27,3.27,0,0,1,2.177.629,2.462,2.462,0,0,1,.735,1.976V0ZM16.687-1.094a1.99,1.99,0,0,0,1.4-.489,1.772,1.772,0,0,0,.53-1.371v-.656l-.971.041A3.321,3.321,0,0,0,16-3.189a1.153,1.153,0,0,0-.516,1.036,1.011,1.011,0,0,0,.3.783A1.292,1.292,0,0,0,16.687-1.094Zm8.6-.068a3.907,3.907,0,0,0,1.176-.185v1.21a3.243,3.243,0,0,1-.687.195A4.733,4.733,0,0,1,24.9.137Q22.62.137,22.62-2.27V-6.344H21.588v-.711L22.7-7.643l.547-1.6h.991v1.682h2.153v1.217H24.233V-2.3a1.135,1.135,0,0,0,.291.858A1.059,1.059,0,0,0,25.286-1.162Zm5.988,1.3A3.657,3.657,0,0,1,28.516-.892a3.906,3.906,0,0,1-.995-2.833,4.285,4.285,0,0,1,.923-2.912A3.188,3.188,0,0,1,30.98-7.7a3.116,3.116,0,0,1,2.365.909,3.474,3.474,0,0,1,.868,2.5v.868H29.176a2.483,2.483,0,0,0,.595,1.692,2.071,2.071,0,0,0,1.579.591A5.829,5.829,0,0,0,32.6-1.261a6.539,6.539,0,0,0,1.241-.42V-.376a4.932,4.932,0,0,1-1.189.4A7.294,7.294,0,0,1,31.274.137ZM30.98-6.48A1.614,1.614,0,0,0,29.753-6,2.313,2.313,0,0,0,29.2-4.58h3.432A2.093,2.093,0,0,0,32.184-6,1.543,1.543,0,0,0,30.98-6.48Z" transform="translate(132 82)"/>
    <path id="Path_6780" data-name="Path 6780" class="cls-5" d="M0,0H24V24H0Z" transform="translate(374 99)"/>
    <path id="Path_6781" data-name="Path 6781" class="cls-4" d="M0,0H1V18H0Z" transform="translate(210 103)"/>
    <path id="Path_6782" data-name="Path 6782" class="cls-6" d="M10.1,0H8.948L6.932-6.692q-.144-.444-.321-1.121a6.539,6.539,0,0,1-.185-.813,15.567,15.567,0,0,1-.479,1.976L3.992,0H2.844L.185-9.994h1.23L2.994-3.821A22.958,22.958,0,0,1,3.473-1.47,16.983,16.983,0,0,1,4.02-3.917L5.811-9.994h1.23l1.88,6.132A18.641,18.641,0,0,1,9.475-1.47a20.5,20.5,0,0,1,.492-2.365l1.572-6.159h1.23Zm5.2,0H14.164V-7.492H15.3Zm-1.23-9.522a.754.754,0,0,1,.191-.571.669.669,0,0,1,.479-.181.669.669,0,0,1,.472.185.74.74,0,0,1,.2.567.752.752,0,0,1-.2.571.662.662,0,0,1-.472.188.655.655,0,0,1-.479-.188A.768.768,0,0,1,14.068-9.522Zm8.47,7.479a1.877,1.877,0,0,1-.779,1.613,3.663,3.663,0,0,1-2.187.567,4.757,4.757,0,0,1-2.324-.472V-1.388a5.621,5.621,0,0,0,1.159.431A4.839,4.839,0,0,0,19.6-.8a2.705,2.705,0,0,0,1.367-.284.938.938,0,0,0,.479-.865.939.939,0,0,0-.379-.749,5.968,5.968,0,0,0-1.48-.735,8.025,8.025,0,0,1-1.487-.68,2.031,2.031,0,0,1-.656-.66,1.72,1.72,0,0,1-.215-.882A1.681,1.681,0,0,1,17.972-7.1a3.472,3.472,0,0,1,2.044-.53,5.98,5.98,0,0,1,2.365.492l-.4.923a5.429,5.429,0,0,0-2.044-.465,2.352,2.352,0,0,0-1.217.253.782.782,0,0,0-.41.7.849.849,0,0,0,.154.513,1.518,1.518,0,0,0,.5.4,11.076,11.076,0,0,0,1.313.554,4.9,4.9,0,0,1,1.8.978A1.724,1.724,0,0,1,22.538-2.044ZM27.378.137a3.2,3.2,0,0,1-2.519-1A4.118,4.118,0,0,1,23.967-3.7,4.247,4.247,0,0,1,24.873-6.6a3.261,3.261,0,0,1,2.581-1.025,5.121,5.121,0,0,1,1.08.116,3.558,3.558,0,0,1,.848.273l-.349.964a5.336,5.336,0,0,0-.82-.25,3.663,3.663,0,0,0-.786-.1q-2.283,0-2.283,2.912A3.468,3.468,0,0,0,25.7-1.593a1.938,1.938,0,0,0,1.651.738,5.048,5.048,0,0,0,1.921-.4v1A4.094,4.094,0,0,1,27.378.137Zm10.138-3.89a4.133,4.133,0,0,1-.923,2.861A3.25,3.25,0,0,1,34.043.137a3.377,3.377,0,0,1-1.784-.472,3.113,3.113,0,0,1-1.2-1.354,4.717,4.717,0,0,1-.424-2.064,4.127,4.127,0,0,1,.916-2.854,3.24,3.24,0,0,1,2.543-1.022,3.169,3.169,0,0,1,2.5,1.046A4.115,4.115,0,0,1,37.516-3.753Zm-5.708,0a3.556,3.556,0,0,0,.574,2.188,1.993,1.993,0,0,0,1.688.752,2.006,2.006,0,0,0,1.692-.749,3.538,3.538,0,0,0,.578-2.191,3.481,3.481,0,0,0-.578-2.17,2.03,2.03,0,0,0-1.706-.742,2,2,0,0,0-1.682.731A3.52,3.52,0,0,0,31.808-3.753ZM44.632,0V-4.847a1.955,1.955,0,0,0-.417-1.367,1.7,1.7,0,0,0-1.306-.451,2.153,2.153,0,0,0-1.723.636,3.21,3.21,0,0,0-.547,2.1V0H39.5V-7.492h.923l.185,1.025h.055a2.317,2.317,0,0,1,.978-.858,3.176,3.176,0,0,1,1.4-.3,2.846,2.846,0,0,1,2.037.653,2.778,2.778,0,0,1,.684,2.088V0Zm8.3-2.044a1.877,1.877,0,0,1-.779,1.613,3.663,3.663,0,0,1-2.187.567A4.757,4.757,0,0,1,47.64-.335V-1.388A5.621,5.621,0,0,0,48.8-.957,4.839,4.839,0,0,0,49.991-.8a2.705,2.705,0,0,0,1.367-.284.938.938,0,0,0,.479-.865.939.939,0,0,0-.379-.749,5.968,5.968,0,0,0-1.48-.735,8.025,8.025,0,0,1-1.487-.68,2.031,2.031,0,0,1-.656-.66,1.72,1.72,0,0,1-.215-.882A1.681,1.681,0,0,1,48.364-7.1a3.472,3.472,0,0,1,2.044-.53,5.98,5.98,0,0,1,2.365.492l-.4.923a5.429,5.429,0,0,0-2.044-.465,2.352,2.352,0,0,0-1.217.253.782.782,0,0,0-.41.7.849.849,0,0,0,.154.513,1.518,1.518,0,0,0,.5.4,11.075,11.075,0,0,0,1.313.554,4.9,4.9,0,0,1,1.8.978A1.724,1.724,0,0,1,52.931-2.044ZM55.911,0H54.776V-7.492h1.135Zm-1.23-9.522a.754.754,0,0,1,.191-.571.669.669,0,0,1,.479-.181.669.669,0,0,1,.472.185.74.74,0,0,1,.2.567.752.752,0,0,1-.2.571.662.662,0,0,1-.472.188.655.655,0,0,1-.479-.188A.768.768,0,0,1,54.681-9.522ZM63.444,0V-4.847a1.955,1.955,0,0,0-.417-1.367,1.7,1.7,0,0,0-1.306-.451A2.153,2.153,0,0,0,60-6.029a3.21,3.21,0,0,0-.547,2.1V0H58.317V-7.492h.923l.185,1.025h.055a2.317,2.317,0,0,1,.978-.858,3.176,3.176,0,0,1,1.4-.3,2.846,2.846,0,0,1,2.037.653,2.778,2.778,0,0,1,.684,2.088V0Z" transform="translate(143 118)"/>
    <g id="Group_7878" data-name="Group 7878" transform="translate(-418 -1608)">
      <rect id="Rectangle_3867" data-name="Rectangle 3867" class="cls-5" width="24" height="24" transform="translate(816 1707)"/>
      <path id="Path_5558" data-name="Path 5558" class="cls-7" d="M56,9.4l-3,3-3-3a.967.967,0,0,0-1.4,0h0a.967.967,0,0,0,0,1.4l3.7,3.7a.967.967,0,0,0,1.4,0l3.7-3.7a.967.967,0,0,0,0-1.4h0A.965.965,0,0,0,56,9.4Z" transform="translate(881 1730.9) rotate(180)"/>
    </g>
    <g id="Group_7879" data-name="Group 7879" transform="translate(-143 -1)">
      <rect id="Rectangle_4862" data-name="Rectangle 4862" class="cls-5" width="24" height="24" transform="translate(516.5 100)"/>
      <path id="Union_9" data-name="Union 9" class="cls-7" d="M-1373.293-2255.636v-4h-4a1,1,0,0,1-1-1,1,1,0,0,1,1-1h4v-4a1,1,0,0,1,1-1,1,1,0,0,1,1,1v4h4a1,1,0,0,1,1,1,1,1,0,0,1-1,1h-4v4a1,1,0,0,1-1,1A1,1,0,0,1-1373.293-2255.636Z" transform="translate(3097.354 740.639) rotate(-45)"/>
    </g>
    <g id="Group_7880" data-name="Group 7880" transform="translate(0 -300)">
      <g id="Mask_Group_1" data-name="Mask Group 1" class="cls-8">
        <g id="Group_7828" data-name="Group 7828">
          <g id="Group_7827" data-name="Group 7827">
            <g class="cls-14" transform="matrix(1, 0, 0, 1, 0, 300)">
              <rect id="Rectangle_4843-2" data-name="Rectangle 4843" class="cls-9" width="300" height="298" rx="4" transform="translate(132 132)"/>
            </g>
            <g id="Group_7819" data-name="Group 7819" transform="translate(-94 220)">
              <rect id="Rectangle_4665" data-name="Rectangle 4665" class="cls-9" width="300" height="36" transform="translate(226 217)"/>
              <text id="Alaska" class="cls-10" transform="translate(241 239)"><tspan x="0" y="0">Alaska</tspan></text>
            </g>
            <g id="Group_7820" data-name="Group 7820" transform="translate(-94 256)">
              <rect id="Rectangle_4665-2" data-name="Rectangle 4665" class="cls-9" width="300" height="36" transform="translate(226 217)"/>
              <text id="Alabama" class="cls-10" transform="translate(241 239)"><tspan x="0" y="0">Alabama</tspan></text>
            </g>
            <g id="Group_7821" data-name="Group 7821" transform="translate(-94 292)">
              <rect id="Rectangle_4665-3" data-name="Rectangle 4665" class="cls-9" width="300" height="36" transform="translate(226 217)"/>
              <text id="Arizona" class="cls-10" transform="translate(241 239)"><tspan x="0" y="0">Arizona</tspan></text>
            </g>
            <g id="Group_7822" data-name="Group 7822" transform="translate(-94 328)">
              <rect id="Rectangle_4665-4" data-name="Rectangle 4665" class="cls-9" width="300" height="36" transform="translate(226 217)"/>
              <text id="California" class="cls-10" transform="translate(241 239)"><tspan x="0" y="0">California</tspan></text>
            </g>
            <g id="Group_7823" data-name="Group 7823" transform="translate(-94 364)">
              <rect id="Rectangle_4665-5" data-name="Rectangle 4665" class="cls-9" width="300" height="36" transform="translate(226 217)"/>
              <text id="Colorado" class="cls-10" transform="translate(241 239)"><tspan x="0" y="0">Colorado</tspan></text>
            </g>
            <g id="Group_7824" data-name="Group 7824" transform="translate(-94 400)">
              <rect id="Rectangle_4665-6" data-name="Rectangle 4665" class="cls-9" width="300" height="36" transform="translate(226 217)"/>
              <text id="Connecticut" class="cls-10" transform="translate(241 239)"><tspan x="0" y="0">Connecticut</tspan></text>
            </g>
            <g id="Group_7825" data-name="Group 7825" transform="translate(-94 436)">
              <rect id="Rectangle_4665-7" data-name="Rectangle 4665" class="cls-9" width="300" height="36" transform="translate(226 217)"/>
              <text id="Delaware" class="cls-10" transform="translate(241 239)"><tspan x="0" y="0">Delaware</tspan></text>
            </g>
            <g id="Group_7826" data-name="Group 7826" transform="translate(-94 472)">
              <rect id="Rectangle_4665-8" data-name="Rectangle 4665" class="cls-9" width="300" height="36" transform="translate(226 217)"/>
              <text id="Florida" class="cls-10" transform="translate(241 239)"><tspan x="0" y="0">Florida</tspan></text>
            </g>
            <rect id="Rectangle_4844" data-name="Rectangle 4844" class="cls-7" width="5" height="100" rx="2.5" transform="translate(422 437)"/>
          </g>
        </g>
        <rect id="Rectangle_4848" data-name="Rectangle 4848" class="cls-11" width="336" height="76" transform="translate(121 446)"/>
      </g>
    </g>
  </g>
</svg>
