<svg xmlns="http://www.w3.org/2000/svg" xmlns:xlink="http://www.w3.org/1999/xlink" width="590" height="168" viewBox="0 0 590 168"><defs><clipPath id="a"><rect width="590" height="168" fill="none"/></clipPath><filter id="b" x="0" y="0" width="590" height="168" filterUnits="userSpaceOnUse"><feOffset dy="15" input="SourceAlpha"/><feGaussianBlur stdDeviation="15" result="c"/><feFlood flood-opacity="0.02"/><feComposite operator="in" in2="c"/><feComposite in="SourceGraphic"/></filter><filter id="d" x="40.5" y="26.5" width="509" height="87" filterUnits="userSpaceOnUse"><feOffset dy="1" input="SourceAlpha"/><feGaussianBlur stdDeviation="1.5" result="e"/><feFlood flood-color="#c7590a" flood-opacity="0.161"/><feComposite operator="in" in2="e"/><feComposite in="SourceGraphic"/></filter></defs><g clip-path="url(#a)"><g transform="matrix(1, 0, 0, 1, 0, 0)" filter="url(#b)"><rect width="500" height="78" rx="4" transform="translate(45 30)" fill="none"/></g><g transform="matrix(1, 0, 0, 1, 0, 0)" filter="url(#d)"><rect width="500" height="78" rx="4" transform="translate(45 30)" fill="#fff"/></g><path d="M4,0H496a4,4,0,0,1,4,4v6a0,0,0,0,1,0,0H0a0,0,0,0,1,0,0V4A4,4,0,0,1,4,0Z" transform="translate(45 30)" fill="#f58d42"/><text transform="translate(99 53)" fill="#31313a" font-size="14" font-family="SegoeUI, Segoe UI"><tspan x="0" y="15">You won&apos;t be able to sign this employee&apos;s enrollment forms while </tspan><tspan x="0" y="37.4">making their elections.</tspan></text><path d="M23.889,20.441,13.061.6a1.217,1.217,0,0,0-2.1,0L.13,20.441a1.02,1.02,0,0,0,.421,1.382,1,1,0,0,0,.451.12H23.018a1.021,1.021,0,0,0,.871-1.5ZM11.049,7.51h1.8a.285.285,0,0,1,.3.269v.032l-.6,7.209a.3.3,0,0,1-.3.3h-.6a.3.3,0,0,1-.3-.3l-.6-7.209a.285.285,0,0,1,.269-.3ZM13.181,17.8a1.231,1.231,0,0,1-1.231,1.216h-.18a1.2,1.2,0,0,1-.991-.871,1.23,1.23,0,0,1,.931-1.472,1.169,1.169,0,0,1,.24-.03h.06a1.231,1.231,0,0,1,1.216,1.216Z" transform="translate(54.99 51.003)" fill="#f58d42"/><rect width="24" height="24" transform="translate(55 50)" fill="none"/></g></svg>