<svg xmlns="http://www.w3.org/2000/svg" xmlns:xlink="http://www.w3.org/1999/xlink" width="900" height="290" viewBox="0 0 900 290">
  <defs>
    <clipPath id="clip-path">
      <rect id="Rectangle_9751" data-name="Rectangle 9751" width="20" height="20" fill="none"/>
    </clipPath>
    <filter id="Rectangle_9438" x="275.5" y="200.5" width="629" height="104.8" filterUnits="userSpaceOnUse">
      <feOffset dy="1" input="SourceAlpha"/>
      <feGaussianBlur stdDeviation="1.5" result="blur"/>
      <feFlood flood-opacity="0.161"/>
      <feComposite operator="in" in2="blur"/>
      <feComposite in="SourceGraphic"/>
    </filter>
    <clipPath id="clip-Breadcrumb_3_level_1">
      <rect width="900" height="290"/>
    </clipPath>
  </defs>
  <g id="Breadcrumb_3_level_1" data-name="Breadcrumb 3 level – 1" clip-path="url(#clip-Breadcrumb_3_level_1)">
    <rect width="900" height="290" fill="#f4f4f6"/>
    <text id="Page_Header_" data-name="Page Header " transform="translate(280 167)" fill="#303030" font-size="26" font-family="SegoeUI-Semibold, Segoe UI" font-weight="600"><tspan x="0" y="0">Page Header </tspan></text>
    <g id="Top_Bar" data-name="Top Bar">
      <rect id="Rectangle_1" data-name="Rectangle 1" width="900" height="60" fill="#fff"/>
      <path id="Path_5690" data-name="Path 5690" d="M0,0H900V10H0Z" transform="translate(0 60)" fill="#2777d3"/>
      <g id="Group_12989" data-name="Group 12989">
        <rect id="Rectangle_6530" data-name="Rectangle 6530" width="198" height="60" fill="none"/>
        <g id="Group_72" data-name="Group 72" transform="translate(57 20)">
          <g id="Group_6" data-name="Group 6">
            <path id="Path_467" data-name="Path 467" d="M440.678,0l-6.233,13.788L428.193,0H425.7l8.745,19.322L443.19,0Z" transform="translate(-345.294)" fill="#8b8d8e"/>
            <path id="Path_468" data-name="Path 468" d="M343.6,19.322h2.512L337.39,0h-.963L327.7,19.322h2.512l1.908-4.269H341.7ZM333.14,12.787,336.9,4.5l3.759,8.292Z" transform="translate(-265.804)" fill="#8b8d8e"/>
            <path id="Path_469" data-name="Path 469" d="M543.685,10.426h6.951V8.16h-6.951V2.267h7.555L552.45,0H541.4V19.322h9.859L552.468,17h-8.783Z" transform="translate(-439.14)" fill="#8b8d8e"/>
            <path id="Path_470" data-name="Path 470" d="M186.078,0l-6.2,13.788L174.348,1.681l-5.5,12.107L162.864,0h-3.721L155.8,7.385l1.247,2.758,3.834-8.462,7.971,17.641,5.5-12.126,5.534,12.126L188.571,0Z" transform="translate(-126.372)" fill="#8b8d8e"/>
            <path id="Path_471" data-name="Path 471" d="M4.193,17.018,15.262,0H1.851L.812,2.267H11.068L0,19.285H15.243l1.02-2.267Z" fill="#8b8d8e"/>
          </g>
          <path id="Path_472" data-name="Path 472" d="M103.468,0H98.5l5.591,12.409L98.5,24.8h4.968L109.1,12.409Z" transform="translate(-79.895)" fill="#739600"/>
        </g>
        <g id="Group_12812" data-name="Group 12812" transform="translate(-1604)">
          <g id="Icon_Link_-_Hover" data-name="Icon Link - Hover" transform="translate(1614 12)">
            <rect id="Rectangle_5756" data-name="Rectangle 5756" width="36" height="36" rx="18" fill="none"/>
          </g>
          <path id="Path_8220" data-name="Path 8220" d="M172,94.5v3a.472.472,0,0,1-.5.5h-3a.472.472,0,0,1-.5-.5v-3a.472.472,0,0,1,.5-.5h3A.472.472,0,0,1,172,94.5Zm5.5-.5h-3a.472.472,0,0,0-.5.5v3a.472.472,0,0,0,.5.5h3a.472.472,0,0,0,.5-.5v-3A.472.472,0,0,0,177.5,94Zm-6,12h-3a.472.472,0,0,0-.5.5v3a.472.472,0,0,0,.5.5h3a.472.472,0,0,0,.5-.5v-3A.472.472,0,0,0,171.5,106Zm12-12h-3a.472.472,0,0,0-.5.5v3a.472.472,0,0,0,.5.5h3a.472.472,0,0,0,.5-.5v-3A.472.472,0,0,0,183.5,94Zm-12,6h-3a.472.472,0,0,0-.5.5v3a.472.472,0,0,0,.5.5h3a.472.472,0,0,0,.5-.5v-3A.472.472,0,0,0,171.5,100Zm6,0h-3a.472.472,0,0,0-.5.5v3a.472.472,0,0,0,.5.5h3a.472.472,0,0,0,.5-.5v-3A.472.472,0,0,0,177.5,100Zm0,6h-3a.472.472,0,0,0-.5.5v3a.472.472,0,0,0,.5.5h3a.472.472,0,0,0,.5-.5v-3A.472.472,0,0,0,177.5,106Zm6-6h-3a.472.472,0,0,0-.5.5v3a.472.472,0,0,0,.5.5h3a.472.472,0,0,0,.5-.5v-3A.472.472,0,0,0,183.5,100Zm0,6h-3a.472.472,0,0,0-.5.5v3a.472.472,0,0,0,.5.5h3a.472.472,0,0,0,.5-.5v-3A.472.472,0,0,0,183.5,106Z" transform="translate(1456 -72)" fill="#78788c"/>
        </g>
      </g>
    </g>
    <g id="Side_nav" data-name="Side nav" transform="translate(0 1)">
      <path id="Path_5700" data-name="Path 5700" d="M0-1l249.5.218V219H0V-1Z" transform="translate(0 70)" fill="#fff"/>
      <rect id="Rectangle_5301" data-name="Rectangle 5301" width="60" height="50" transform="translate(0 70)" fill="none" opacity="0.3"/>
      <rect id="Rectangle_5317" data-name="Rectangle 5317" width="20" height="20" transform="translate(20 85)" fill="none"/>
      <path id="zui-nav-home" d="M20,10.6H17.5v8.142a.833.833,0,0,1-.833.833H12V14.1H8v5.5H3.333a.833.833,0,0,1-.833-.833V10.6H0L10,.6Z" transform="translate(20 85.4)" fill="#494955"/>
      <g id="Group_9285" data-name="Group 9285" transform="translate(0 120)">
        <text id="Account_management" data-name="Account management" transform="translate(59.737 31)" fill="#31313a" font-size="14" font-family="SegoeUI, Segoe UI"><tspan x="0" y="0">Account management</tspan></text>
        <g id="Accounts" transform="translate(20 16)">
          <g id="Group_8145" data-name="Group 8145">
            <circle id="Ellipse_6" data-name="Ellipse 6" cx="3.167" cy="3.167" r="3.167" transform="translate(6.833)" fill="#31313a"/>
            <path id="Path_5793" data-name="Path 5793" d="M14.55,11.615v8.75H8.3v-8.75a3.5,3.5,0,0,1,6.25,0Z" transform="translate(-1.383 -1.615)" fill="#31313a"/>
            <circle id="Ellipse_7" data-name="Ellipse 7" cx="2.833" cy="2.833" r="2.833" transform="translate(14.333 0.583)" fill="#31313a"/>
            <path id="Path_5794" data-name="Path 5794" d="M22.883,11.237v7.833H17.3V11.237a3.046,3.046,0,0,1,5.583,0Z" transform="translate(-2.883 -1.571)" fill="#31313a"/>
            <circle id="Ellipse_8" data-name="Ellipse 8" cx="2.833" cy="2.833" r="2.833" transform="translate(0 0.583)" fill="#31313a"/>
            <path id="Path_5795" data-name="Path 5795" d="M5.667,11.249v7.833H0V11.249a3.167,3.167,0,0,1,1.417-1.5A3.083,3.083,0,0,1,2.75,9.5a3.083,3.083,0,0,1,1.417.25,3.167,3.167,0,0,1,1.5,1.5Z" transform="translate(0 -1.582)" fill="#31313a"/>
          </g>
        </g>
        <rect id="Rectangle_3681" data-name="Rectangle 3681" width="249.5" height="50" fill="none"/>
        <g id="Chevron-down" transform="translate(214.5 15)">
          <g id="Group_8144" data-name="Group 8144">
            <rect id="Rectangle_5318" data-name="Rectangle 5318" width="20" height="20" fill="none"/>
            <path id="Path_5792" data-name="Path 5792" d="M18.75,15.072l1.2,1.2a.25.25,0,0,1,0,.4l-4.75,4.75a.25.25,0,0,1-.4,0l-4.7-4.75a.25.25,0,0,1,0-.4l1.2-1.2a.25.25,0,0,1,.4,0l3.3,3.35,3.35-3.4a.25.25,0,0,1,.4.05Z" transform="translate(-5 -7.472)" fill="#494955"/>
          </g>
        </g>
      </g>
      <g id="Group_264130" data-name="Group 264130" transform="translate(0 170)">
        <text id="Content_library" data-name="Content library" transform="translate(59.737 31)" fill="#31313a" font-size="14" font-family="SegoeUI, Segoe UI"><tspan x="0" y="0">Content library</tspan></text>
        <rect id="Rectangle_3681-2" data-name="Rectangle 3681" width="249.5" height="50" fill="none"/>
        <g id="Chevron-down-2" data-name="Chevron-down" transform="translate(214.5 15)">
          <g id="Group_8144-2" data-name="Group 8144">
            <rect id="Rectangle_5318-2" data-name="Rectangle 5318" width="20" height="20" fill="none"/>
            <path id="Path_5792-2" data-name="Path 5792" d="M18.75,15.072l1.2,1.2a.25.25,0,0,1,0,.4l-4.75,4.75a.25.25,0,0,1-.4,0l-4.7-4.75a.25.25,0,0,1,0-.4l1.2-1.2a.25.25,0,0,1,.4,0l3.3,3.35,3.35-3.4a.25.25,0,0,1,.4.05Z" transform="translate(-5 -7.472)" fill="#494955"/>
          </g>
        </g>
        <g id="Content" transform="translate(30 25)">
          <g id="Content-2" data-name="Content" transform="translate(-10 -10)" clip-path="url(#clip-path)">
            <path id="Path_101123" data-name="Path 101123" d="M17.7,3.4h-3a.4.4,0,0,1-.4-.4V0Z" fill="#494a56"/>
            <path id="Path_101124" data-name="Path 101124" d="M13.8,4.2a.4.4,0,0,1-.4-.4V0H4.9A1.4,1.4,0,0,0,3.4,1.4V18.6A1.4,1.4,0,0,0,4.9,20H16.2a1.4,1.4,0,0,0,1.5-1.4V4.2Zm.8,4.2H6.2a.5.5,0,0,1-.5-.5V7.2a.5.5,0,0,1,.5-.5h8.4a.5.5,0,0,1,.5.5v.7a.5.5,0,0,1-.5.5m0,4.2H6.2a.5.5,0,0,1-.5-.5v-.7a.5.5,0,0,1,.5-.5h8.4a.5.5,0,0,1,.5.5v.7a.5.5,0,0,1-.5.5M12,16.8H6.2a.5.5,0,0,1-.5-.5v-.7a.5.5,0,0,1,.5-.5H12a.5.5,0,0,1,.5.5v.7a.5.5,0,0,1-.5.5" fill="#494a56"/>
          </g>
        </g>
      </g>
      <g id="Group_11709" data-name="Group 11709" transform="translate(0 270)">
        <text id="Prospecting" transform="translate(59.831 31)" fill="#31313a" font-size="14" font-family="SegoeUI, Segoe UI"><tspan x="0" y="0">Prospecting</tspan></text>
        <rect id="Rectangle_3681-3" data-name="Rectangle 3681" width="249.5" height="50" fill="none"/>
        <g id="Chevron-down-3" data-name="Chevron-down" transform="translate(214.5 15)">
          <g id="Group_8144-3" data-name="Group 8144">
            <rect id="Rectangle_5318-3" data-name="Rectangle 5318" width="20" height="20" fill="none"/>
            <path id="Path_5792-3" data-name="Path 5792" d="M18.75,15.072l1.2,1.2a.25.25,0,0,1,0,.4l-4.75,4.75a.25.25,0,0,1-.4,0l-4.7-4.75a.25.25,0,0,1,0-.4l1.2-1.2a.25.25,0,0,1,.4,0l3.3,3.35,3.35-3.4a.25.25,0,0,1,.4.05Z" transform="translate(-5 -7.472)" fill="#494955"/>
          </g>
        </g>
        <g id="Group_264122" data-name="Group 264122" transform="translate(20 16)">
          <path id="Path_101116" data-name="Path 101116" d="M3,11" transform="translate(0 -1.833)" fill="#383a45"/>
          <path id="Path_101117" data-name="Path 101117" d="M3,11" transform="translate(0 -1.833)" fill="#383a45"/>
          <g id="Group_264121" data-name="Group 264121">
            <g id="Group_264120" data-name="Group 264120" transform="translate(0 2.008)">
              <path id="Path_101118" data-name="Path 101118" d="M19.992,13.933a1.567,1.567,0,0,0,.008-.2,3.342,3.342,0,0,0-.183-1.085,1.487,1.487,0,0,0-.083-.2,2.632,2.632,0,0,0-.183-.372L15.942,5.466a2.436,2.436,0,0,0-2.15-1.224,2.612,2.612,0,0,0-.833.139A2.455,2.455,0,0,0,11.583,5.6,1.585,1.585,0,0,1,10,6.372,1.6,1.6,0,0,1,8.417,5.6,2.6,2.6,0,0,0,7.042,4.381a2.612,2.612,0,0,0-.833-.139,2.436,2.436,0,0,0-2.15,1.224L.45,12.074a2.632,2.632,0,0,0-.183.372,1.487,1.487,0,0,0-.083.2A3.341,3.341,0,0,0,0,13.731a1.567,1.567,0,0,0,.008.2v.015a1.167,1.167,0,0,0-.008.17,4.029,4.029,0,0,0,4.167,3.873,4.029,4.029,0,0,0,4.167-3.873,2.877,2.877,0,0,0-.067-.651A2.588,2.588,0,0,0,10,14.119a2.551,2.551,0,0,0,1.725-.651,3.325,3.325,0,0,0-.058.651,4.029,4.029,0,0,0,4.167,3.873A4.029,4.029,0,0,0,20,14.119a1.168,1.168,0,0,0-.008-.17Zm-15.825,2.5a2.411,2.411,0,0,1-2.493-2.318A2.411,2.411,0,0,1,4.167,11.8,2.411,2.411,0,0,1,6.66,14.119,2.411,2.411,0,0,1,4.167,16.437Zm11.667,0a2.411,2.411,0,0,1-2.493-2.318A2.411,2.411,0,0,1,15.833,11.8a2.411,2.411,0,0,1,2.493,2.318A2.411,2.411,0,0,1,15.833,16.437Z" transform="translate(0 -2.008)" fill="#494955"/>
              <g id="Group_264118" data-name="Group 264118" transform="translate(4.899)">
                <path id="Path_101119" data-name="Path 101119" d="M8.792,3.482a3.848,3.848,0,0,1,1.244.782,2,2,0,0,0-3.884-.87l-.033.1A3.89,3.89,0,0,1,8.792,3.482Z" transform="translate(-6.119 -2.008)" fill="#494955"/>
              </g>
              <g id="Group_264119" data-name="Group 264119" transform="translate(11.208)">
                <path id="Path_101120" data-name="Path 101120" d="M15.193,3.488a3.91,3.91,0,0,1,2.746.016l-.035-.11a2,2,0,0,0-3.892.835A4.031,4.031,0,0,1,15.193,3.488Z" transform="translate(-14 -2.008)" fill="#494955"/>
              </g>
            </g>
            <rect id="Rectangle_9737" data-name="Rectangle 9737" width="20" height="20" fill="none"/>
          </g>
        </g>
      </g>
      <g id="Group_11711" data-name="Group 11711" transform="translate(0 220)">
        <text id="Email_marketing" data-name="Email marketing" transform="translate(59.84 31)" fill="#31313a" font-size="14" font-family="SegoeUI, Segoe UI"><tspan x="0" y="0">Email marketing</tspan></text>
        <rect id="Rectangle_3681-4" data-name="Rectangle 3681" width="249.5" height="50" fill="none"/>
        <g id="Chevron-down-4" data-name="Chevron-down" transform="translate(214.5 15)">
          <g id="Group_8144-4" data-name="Group 8144">
            <rect id="Rectangle_5318-4" data-name="Rectangle 5318" width="20" height="20" fill="none"/>
            <path id="Path_5792-4" data-name="Path 5792" d="M18.75,15.072l1.2,1.2a.25.25,0,0,1,0,.4l-4.75,4.75a.25.25,0,0,1-.4,0l-4.7-4.75a.25.25,0,0,1,0-.4l1.2-1.2a.25.25,0,0,1,.4,0l3.3,3.35,3.35-3.4a.25.25,0,0,1,.4.05Z" transform="translate(-5 -7.472)" fill="#494955"/>
          </g>
        </g>
        <g id="Group_264117" data-name="Group 264117" transform="translate(20 16)">
          <path id="Path_101115" data-name="Path 101115" d="M18.575,3H1.425A1.425,1.425,0,0,0,0,4.425V14.908a1.425,1.425,0,0,0,1.425,1.425h17.15A1.425,1.425,0,0,0,20,14.908V4.425A1.425,1.425,0,0,0,18.575,3Zm.288,3.006-8.518,5.129a.657.657,0,0,1-.184.067c-.01,0-.018.007-.028.01a1.771,1.771,0,0,1-.266,0c-.01,0-.018-.008-.027-.01a.652.652,0,0,1-.185-.067L1.137,6.006a.617.617,0,0,1-.208-.86.649.649,0,0,1,.881-.2l7.975,4.8a.42.42,0,0,0,.43,0l7.975-4.8a.649.649,0,0,1,.881.2A.617.617,0,0,1,18.863,6.006Z" fill="#494955"/>
          <rect id="Rectangle_9736" data-name="Rectangle 9736" width="20" height="20" fill="none"/>
        </g>
      </g>
      <rect id="Rectangle_4697" data-name="Rectangle 4697" width="249.5" height="50" transform="translate(0.5 70.5)" fill="none"/>
      <text id="Home" transform="translate(59.859 101)" fill="#3d3d3d" font-size="14" font-family="SegoeUI, Segoe UI"><tspan x="0" y="0">Home</tspan></text>
    </g>
    <g id="Group_7557" data-name="Group 7557" transform="translate(197 -34)">
      <g id="Rectangle_3779" data-name="Rectangle 3779" transform="translate(53 44)" fill="#fff" stroke="#dbdbdb" stroke-width="1">
        <rect width="436" height="42" rx="2" stroke="none"/>
        <rect x="0.5" y="0.5" width="435" height="41" rx="1.5" fill="none"/>
      </g>
      <text id="Search" transform="translate(67 71)" fill="#c6c6c6" font-size="14" font-family="OpenSans, Open Sans"><tspan x="0" y="0">Search</tspan></text>
      <path id="Rectangle_3780" data-name="Rectangle 3780" d="M0,0H41a1,1,0,0,1,1,1V39a1,1,0,0,1-1,1H0a0,0,0,0,1,0,0V0A0,0,0,0,1,0,0Z" transform="translate(446 45)" fill="#fafafa"/>
      <rect id="Rectangle_3781" data-name="Rectangle 3781" width="1" height="40" transform="translate(446 45)" fill="#ebebeb"/>
      <g id="Group_7480" data-name="Group 7480" transform="translate(456 53)">
        <path id="Path_520" data-name="Path 520" d="M303.8,258.3l-5-5a6.354,6.354,0,0,0,1.1-4.9,6.471,6.471,0,0,0-5.6-5.3,6.53,6.53,0,0,0-2,12.9,6.914,6.914,0,0,0,4.9-1.1l5,5a1.088,1.088,0,0,0,1.5,0A1.222,1.222,0,0,0,303.8,258.3Zm-14.7-9.5a4.458,4.458,0,0,1,3.7-3.7,4.57,4.57,0,0,1,5.2,5.2,4.458,4.458,0,0,1-3.7,3.7A4.609,4.609,0,0,1,289.1,248.8Z" transform="translate(-284 -240)" fill="#5786bd"/>
        <path id="Path_519" data-name="Path 519" d="M284.1,240h24v24h-24Z" transform="translate(-284 -240)" fill="none"/>
        <rect id="Rectangle_304" data-name="Rectangle 304" width="24" height="24" fill="none"/>
      </g>
    </g>
    <g id="Group_13844" data-name="Group 13844" transform="translate(6 12)">
      <g id="Group_13843" data-name="Group 13843" transform="translate(274 192)">
        <g id="Group_13842" data-name="Group 13842">
          <g transform="matrix(1, 0, 0, 1, -280, -204)" filter="url(#Rectangle_9438)">
            <rect id="Rectangle_9438-2" data-name="Rectangle 9438" width="620" height="95.8" rx="2" transform="translate(280 204)" fill="#fff"/>
          </g>
        </g>
      </g>
    </g>
    <g id="Breadcrumbs_1" data-name="Breadcrumbs – 1" transform="translate(280 100)">
      <g id="Symbol_152_2" data-name="Symbol 152 – 2" transform="translate(-58 -110)">
        <text id="Breadcrumb_1" data-name="Breadcrumb #1" transform="translate(74 125)" fill="#2777d3" font-size="14" font-family="SegoeUI, Segoe UI"><tspan x="0" y="0">Breadcrumb #1</tspan></text>
        <g id="Group_8413" data-name="Group 8413" transform="translate(10 4)">
          <rect id="Rectangle_3875" data-name="Rectangle 3875" width="16" height="16" transform="translate(64 108) rotate(90)" fill="none"/>
          <path id="Path_5567" data-name="Path 5567" d="M382.3,13.533l-4.2-4.2,4.2-4.2a.644.644,0,0,0,0-.933h0a.644.644,0,0,0-.933,0l-4.2,4.2-.467.467a.644.644,0,0,0,0,.933l.467.467,4.2,4.2a.644.644,0,0,0,.933,0h0A.643.643,0,0,0,382.3,13.533Z" transform="translate(-323.5 106.667)" fill="#2777d3"/>
        </g>
      </g>
      <g id="Symbol_150" data-name="Symbol 150" transform="translate(57 -110)">
        <text id="Breadcrumb_2" data-name="Breadcrumb #2" transform="translate(74 125)" fill="#2777d3" font-size="14" font-family="SegoeUI, Segoe UI"><tspan x="0" y="0">Breadcrumb #2</tspan></text>
        <g id="Group_8413-2" data-name="Group 8413" transform="translate(10 4)">
          <rect id="Rectangle_3875-2" data-name="Rectangle 3875" width="16" height="16" transform="translate(64 108) rotate(90)" fill="none"/>
          <path id="Path_5567-2" data-name="Path 5567" d="M382.3,13.533l-4.2-4.2,4.2-4.2a.644.644,0,0,0,0-.933h0a.644.644,0,0,0-.933,0l-4.2,4.2-.467.467a.644.644,0,0,0,0,.933l.467.467,4.2,4.2a.644.644,0,0,0,.933,0h0A.643.643,0,0,0,382.3,13.533Z" transform="translate(-323.5 106.667)" fill="#2777d3"/>
        </g>
      </g>
      <g id="Symbol_151" data-name="Symbol 151" transform="translate(172 -110)">
        <g id="Group_8413-3" data-name="Group 8413" transform="translate(10 4)">
          <rect id="Rectangle_3875-3" data-name="Rectangle 3875" width="16" height="16" transform="translate(64 108) rotate(90)" fill="none"/>
          <path id="Path_5567-3" data-name="Path 5567" d="M382.3,13.533l-4.2-4.2,4.2-4.2a.644.644,0,0,0,0-.933h0a.644.644,0,0,0-.933,0l-4.2,4.2-.467.467a.644.644,0,0,0,0,.933l.467.467,4.2,4.2a.644.644,0,0,0,.933,0h0A.643.643,0,0,0,382.3,13.533Z" transform="translate(-323.5 106.667)" fill="#9494a4"/>
        </g>
        <text id="Page_title" data-name="Page title" transform="translate(74 125)" fill="#9494a4" font-size="14" font-family="SegoeUI, Segoe UI"><tspan x="0" y="0">Page title</tspan></text>
      </g>
    </g>
  </g>
</svg>
