<svg xmlns="http://www.w3.org/2000/svg" xmlns:xlink="http://www.w3.org/1999/xlink" width="840" height="283" viewBox="0 0 840 283">
  <defs>
    <clipPath id="clip-checkbox_anatomy">
      <rect width="840" height="283"/>
    </clipPath>
  </defs>
  <g id="checkbox_anatomy" clip-path="url(#clip-checkbox_anatomy)">
    <rect width="840" height="283" fill="#f9f9fa"/>
    <g id="Group_264172" data-name="Group 264172" transform="translate(-2961 -1629)">
      <g id="Checkbox" transform="translate(3127 1733)">
        <path id="Path_10344" data-name="Path 10344" d="M2.434-3.705V0H1.285V-9.8H3.979a3.555,3.555,0,0,1,2.437.766,2.734,2.734,0,0,1,.865,2.16,2.971,2.971,0,0,1-.96,2.283,3.67,3.67,0,0,1-2.594.889Zm0-5.059v4.02h1.2a2.69,2.69,0,0,0,1.815-.543,1.924,1.924,0,0,0,.625-1.535q0-1.941-2.3-1.941ZM11.382.164A3.247,3.247,0,0,1,8.9-.817a3.634,3.634,0,0,1-.926-2.6,3.785,3.785,0,0,1,.964-2.755,3.465,3.465,0,0,1,2.6-.991A3.14,3.14,0,0,1,13.99-6.2a3.822,3.822,0,0,1,.878,2.673,3.761,3.761,0,0,1-.947,2.683A3.317,3.317,0,0,1,11.382.164Zm.082-6.385a2.132,2.132,0,0,0-1.709.735,3.018,3.018,0,0,0-.629,2.027A2.854,2.854,0,0,0,9.762-1.5a2.161,2.161,0,0,0,1.7.718,2.049,2.049,0,0,0,1.671-.7,3.055,3.055,0,0,0,.584-2,3.108,3.108,0,0,0-.584-2.023A2.04,2.04,0,0,0,11.464-6.221Zm8.846.355a1.371,1.371,0,0,0-.848-.226,1.431,1.431,0,0,0-1.2.677,3.129,3.129,0,0,0-.482,1.846V0H16.659V-7H17.78v1.442h.027a2.444,2.444,0,0,1,.731-1.152,1.668,1.668,0,0,1,1.1-.414,1.83,1.83,0,0,1,.67.1ZM21.1-.253v-1.2a3.318,3.318,0,0,0,2.017.677q1.477,0,1.477-.984a.854.854,0,0,0-.126-.475,1.26,1.26,0,0,0-.342-.345,2.631,2.631,0,0,0-.506-.27q-.291-.12-.625-.25a8.056,8.056,0,0,1-.817-.373,2.468,2.468,0,0,1-.588-.424,1.577,1.577,0,0,1-.355-.537,1.9,1.9,0,0,1-.12-.7,1.673,1.673,0,0,1,.226-.872,2,2,0,0,1,.6-.636,2.805,2.805,0,0,1,.858-.386,3.805,3.805,0,0,1,.995-.13,4.016,4.016,0,0,1,1.627.314v1.135a3.171,3.171,0,0,0-1.777-.506,2.078,2.078,0,0,0-.567.072,1.389,1.389,0,0,0-.434.2.932.932,0,0,0-.28.311.819.819,0,0,0-.1.4.959.959,0,0,0,.1.458,1.008,1.008,0,0,0,.291.328,2.221,2.221,0,0,0,.465.26q.273.116.622.253a8.658,8.658,0,0,1,.834.366,2.86,2.86,0,0,1,.629.424,1.656,1.656,0,0,1,.4.543,1.753,1.753,0,0,1,.14.731,1.725,1.725,0,0,1-.229.9,1.963,1.963,0,0,1-.612.636,2.8,2.8,0,0,1-.882.376,4.354,4.354,0,0,1-1.046.123A3.971,3.971,0,0,1,21.1-.253ZM32.238-.321a3.643,3.643,0,0,1-1.914.485A3.169,3.169,0,0,1,27.908-.81a3.53,3.53,0,0,1-.919-2.526,3.881,3.881,0,0,1,.991-2.779,3.467,3.467,0,0,1,2.646-1.049,3.682,3.682,0,0,1,1.627.342v1.148a2.85,2.85,0,0,0-1.668-.547,2.254,2.254,0,0,0-1.76.769,2.918,2.918,0,0,0-.687,2.02,2.779,2.779,0,0,0,.646,1.941,2.227,2.227,0,0,0,1.733.711,2.81,2.81,0,0,0,1.723-.608ZM39.744,0H38.623V-4.033q0-2.188-1.627-2.187a1.774,1.774,0,0,0-1.381.632,2.356,2.356,0,0,0-.561,1.624V0H33.934V-10.363h1.121v4.525h.027a2.546,2.546,0,0,1,2.3-1.326q2.365,0,2.365,2.851Zm7.738-3.22H42.54a2.618,2.618,0,0,0,.629,1.8,2.168,2.168,0,0,0,1.654.636A3.439,3.439,0,0,0,47-1.559V-.506a4.063,4.063,0,0,1-2.44.67A2.959,2.959,0,0,1,42.226-.79a3.9,3.9,0,0,1-.848-2.683A3.828,3.828,0,0,1,42.3-6.135a2.97,2.97,0,0,1,2.3-1.029,2.632,2.632,0,0,1,2.126.889,3.705,3.705,0,0,1,.752,2.468Zm-1.148-.95a2.281,2.281,0,0,0-.468-1.511,1.6,1.6,0,0,0-1.282-.54,1.811,1.811,0,0,0-1.347.567,2.575,2.575,0,0,0-.684,1.483Z" transform="translate(30 17)" fill="#1a1a1e" stroke="rgba(0,0,0,0)" stroke-width="1"/>
        <g id="Unchecked">
          <path id="Unchecked-2" data-name="Unchecked" d="M21,2.4a.567.567,0,0,1,.6.6V21a.567.567,0,0,1-.6.6H3a.567.567,0,0,1-.6-.6V3A.567.567,0,0,1,3,2.4H21M21,0H3A2.971,2.971,0,0,0,0,3V21a2.971,2.971,0,0,0,3,3H21a2.971,2.971,0,0,0,3-3V3a2.971,2.971,0,0,0-3-3Z" fill="#9494a4"/>
        </g>
      </g>
      <g id="Checkbox-2" data-name="Checkbox" transform="translate(3127 1768)">
        <g id="Checked" transform="translate(0)">
          <path id="Path_5845" data-name="Path 5845" d="M46.2,0h-18a2.971,2.971,0,0,0-3,3V21a2.971,2.971,0,0,0,3,3h18a2.971,2.971,0,0,0,3-3V3A2.971,2.971,0,0,0,46.2,0ZM44.64,8.52l-8.76,8.76a1.16,1.16,0,0,1-1.68,0l-4.32-4.32a1.188,1.188,0,0,1,1.68-1.68l3.48,3.48,7.92-7.92a1.16,1.16,0,0,1,1.68,0A1.442,1.442,0,0,1,44.64,8.52Z" transform="translate(-25.2)" fill="#2777d3"/>
        </g>
        <path id="Path_10345" data-name="Path 10345" d="M7.957-.41A5.749,5.749,0,0,1,5.25.164,4.366,4.366,0,0,1,1.9-1.183,4.969,4.969,0,0,1,.643-4.717a5.208,5.208,0,0,1,1.415-3.8A4.8,4.8,0,0,1,5.646-9.967a5.754,5.754,0,0,1,2.311.4V-8.34a4.686,4.686,0,0,0-2.324-.588A3.566,3.566,0,0,0,2.9-7.8,4.249,4.249,0,0,0,1.846-4.785a4.043,4.043,0,0,0,.981,2.854A3.338,3.338,0,0,0,5.4-.868a4.828,4.828,0,0,0,2.557-.656Zm4.771.574A3.247,3.247,0,0,1,10.25-.817a3.634,3.634,0,0,1-.926-2.6,3.785,3.785,0,0,1,.964-2.755,3.465,3.465,0,0,1,2.6-.991,3.14,3.14,0,0,1,2.444.964,3.822,3.822,0,0,1,.878,2.673,3.761,3.761,0,0,1-.947,2.683A3.317,3.317,0,0,1,12.729.164Zm.082-6.385a2.132,2.132,0,0,0-1.709.735,3.018,3.018,0,0,0-.629,2.027A2.854,2.854,0,0,0,11.108-1.5a2.161,2.161,0,0,0,1.7.718,2.049,2.049,0,0,0,1.671-.7,3.055,3.055,0,0,0,.584-2,3.108,3.108,0,0,0-.584-2.023A2.04,2.04,0,0,0,12.811-6.221Zm8.846.355a1.371,1.371,0,0,0-.848-.226,1.431,1.431,0,0,0-1.2.677,3.129,3.129,0,0,0-.482,1.846V0H18.006V-7h1.121v1.442h.027a2.444,2.444,0,0,1,.731-1.152,1.668,1.668,0,0,1,1.1-.414,1.83,1.83,0,0,1,.67.1ZM28.376-7,25.587,0h-1.1L21.834-7h1.23l1.777,5.086a4.565,4.565,0,0,1,.246.978h.027a4.622,4.622,0,0,1,.219-.95L27.193-7Zm6.829,3.78H30.263a2.618,2.618,0,0,0,.629,1.8,2.168,2.168,0,0,0,1.654.636,3.439,3.439,0,0,0,2.174-.779V-.506a4.063,4.063,0,0,1-2.44.67A2.959,2.959,0,0,1,29.948-.79,3.9,3.9,0,0,1,29.1-3.473a3.828,3.828,0,0,1,.926-2.663,2.97,2.97,0,0,1,2.3-1.029,2.632,2.632,0,0,1,2.126.889,3.705,3.705,0,0,1,.752,2.468Zm-1.148-.95a2.281,2.281,0,0,0-.468-1.511,1.6,1.6,0,0,0-1.282-.54,1.811,1.811,0,0,0-1.347.567,2.575,2.575,0,0,0-.684,1.483Zm6.091,4.1A2.161,2.161,0,0,1,39.1.15Q37.263.15,37.263-1.9V-6.043h-1.2V-7h1.2V-8.709l1.121-.362V-7h1.764v.957H38.384V-2.1a1.635,1.635,0,0,0,.239,1,.955.955,0,0,0,.793.3,1.179,1.179,0,0,0,.731-.232Zm4.744,0A2.161,2.161,0,0,1,43.846.15Q42.007.15,42.007-1.9V-6.043H40.8V-7h1.2V-8.709l1.121-.362V-7h1.764v.957H43.128V-2.1a1.635,1.635,0,0,0,.239,1,.955.955,0,0,0,.793.3,1.179,1.179,0,0,0,.731-.232ZM52.015-3.22H47.072a2.618,2.618,0,0,0,.629,1.8,2.168,2.168,0,0,0,1.654.636,3.439,3.439,0,0,0,2.174-.779V-.506a4.063,4.063,0,0,1-2.44.67A2.959,2.959,0,0,1,46.758-.79a3.9,3.9,0,0,1-.848-2.683,3.828,3.828,0,0,1,.926-2.663,2.97,2.97,0,0,1,2.3-1.029,2.632,2.632,0,0,1,2.126.889,3.705,3.705,0,0,1,.752,2.468Zm-1.148-.95A2.281,2.281,0,0,0,50.4-5.681a1.6,1.6,0,0,0-1.282-.54,1.811,1.811,0,0,0-1.347.567,2.575,2.575,0,0,0-.684,1.483Z" transform="translate(30 18)" fill="#1a1a1e" stroke="rgba(0,0,0,0)" stroke-width="1"/>
      </g>
    </g>
    <g id="Group_264173" data-name="Group 264173" transform="translate(-345 -1511)">
      <g id="Gallery_checkbox-Large-NEW" data-name="Gallery checkbox-Large-NEW" transform="translate(744 1561)">
        <g id="Rectangle_4479" data-name="Rectangle 4479" fill="#fff" stroke="#c6c6c6" stroke-width="1">
          <rect width="130" height="183" rx="6" stroke="none"/>
          <rect x="0.5" y="0.5" width="129" height="182" rx="5.5" fill="none"/>
        </g>
        <path id="Path_10346" data-name="Path 10346" d="M-26.035,0h-5.653V-9.994h5.653v1.381h-4.02v2.721h3.767v1.367h-3.767v3.138h4.02Zm8.36,0h-1.613V-4.662a2.114,2.114,0,0,0-.328-1.3,1.211,1.211,0,0,0-1.025-.427A1.564,1.564,0,0,0-22-5.78a3.549,3.549,0,0,0-.434,2.013V0h-1.606V-7.561h1.258l.226.991h.082a2.1,2.1,0,0,1,.913-.834A2.943,2.943,0,0,1-20.251-7.7a2.3,2.3,0,0,1,2.311,1.189h.109a2.3,2.3,0,0,1,.943-.875A2.994,2.994,0,0,1-15.494-7.7a2.539,2.539,0,0,1,1.972.684A3.027,3.027,0,0,1-12.9-4.929V0h-1.606V-4.662a2.1,2.1,0,0,0-.332-1.3,1.221,1.221,0,0,0-1.029-.427A1.6,1.6,0,0,0-17.24-5.8a3.013,3.013,0,0,0-.434,1.794ZM-6.826.137A2.648,2.648,0,0,1-9.054-.9h-.1q.1.957.1,1.162v3.1h-1.606V-7.561h1.3q.055.212.226,1.012h.082A2.517,2.517,0,0,1-6.8-7.7a2.624,2.624,0,0,1,2.2,1.025A4.623,4.623,0,0,1-3.8-3.794,4.627,4.627,0,0,1-4.607-.9,2.648,2.648,0,0,1-6.826.137Zm-.39-6.521a1.67,1.67,0,0,0-1.4.561,2.905,2.905,0,0,0-.441,1.791v.239a3.536,3.536,0,0,0,.438,2,1.627,1.627,0,0,0,1.429.619A1.45,1.45,0,0,0-5.9-1.859a3.53,3.53,0,0,0,.451-1.948A3.407,3.407,0,0,0-5.9-5.732,1.494,1.494,0,0,0-7.215-6.385ZM-.332,0H-1.938V-10.637H-.332Zm9-3.794A4.127,4.127,0,0,1,7.721-.9,3.4,3.4,0,0,1,5.076.137,3.625,3.625,0,0,1,3.2-.342,3.159,3.159,0,0,1,1.952-1.716a4.68,4.68,0,0,1-.437-2.078,4.1,4.1,0,0,1,.943-2.871A3.42,3.42,0,0,1,5.117-7.7a3.331,3.331,0,0,1,2.6,1.056A4.08,4.08,0,0,1,8.671-3.794Zm-5.5,0q0,2.618,1.935,2.618,1.914,0,1.914-2.618,0-2.591-1.928-2.591a1.644,1.644,0,0,0-1.466.67A3.409,3.409,0,0,0,3.168-3.794Zm6.2-3.767h1.75l1.538,4.286a8.133,8.133,0,0,1,.465,1.723h.055a7.185,7.185,0,0,1,.226-.913q.164-.537,1.736-5.1h1.736L13.641,1A3.067,3.067,0,0,1,10.7,3.363a4.626,4.626,0,0,1-1.039-.116V1.976a3.765,3.765,0,0,0,.827.082A1.694,1.694,0,0,0,12.124.711L12.4,0ZM21.325.137A3.657,3.657,0,0,1,18.566-.892a3.906,3.906,0,0,1-.995-2.833,4.285,4.285,0,0,1,.923-2.912A3.188,3.188,0,0,1,21.031-7.7a3.116,3.116,0,0,1,2.365.909,3.474,3.474,0,0,1,.868,2.5v.868H19.226a2.483,2.483,0,0,0,.595,1.692,2.071,2.071,0,0,0,1.579.591,5.829,5.829,0,0,0,1.248-.126,6.539,6.539,0,0,0,1.241-.42V-.376a4.932,4.932,0,0,1-1.189.4A7.294,7.294,0,0,1,21.325.137ZM21.031-6.48A1.614,1.614,0,0,0,19.8-6a2.313,2.313,0,0,0-.55,1.415h3.432A2.093,2.093,0,0,0,22.234-6,1.543,1.543,0,0,0,21.031-6.48ZM29.391.137A3.657,3.657,0,0,1,26.633-.892a3.906,3.906,0,0,1-.995-2.833,4.285,4.285,0,0,1,.923-2.912A3.188,3.188,0,0,1,29.1-7.7a3.116,3.116,0,0,1,2.365.909,3.474,3.474,0,0,1,.868,2.5v.868H27.292a2.483,2.483,0,0,0,.595,1.692,2.071,2.071,0,0,0,1.579.591,5.829,5.829,0,0,0,1.248-.126,6.539,6.539,0,0,0,1.241-.42V-.376a4.932,4.932,0,0,1-1.189.4A7.294,7.294,0,0,1,29.391.137ZM29.1-6.48A1.614,1.614,0,0,0,27.87-6a2.313,2.313,0,0,0-.55,1.415h3.432A2.093,2.093,0,0,0,30.3-6,1.543,1.543,0,0,0,29.1-6.48ZM-25.836,19h-1.641V14.5h-4.607V19h-1.634V9.006h1.634v4.088h4.607V9.006h1.641Zm7.191,0-.321-1.053h-.055a3.1,3.1,0,0,1-1.1.94,3.481,3.481,0,0,1-1.422.25,2.406,2.406,0,0,1-1.74-.6,2.251,2.251,0,0,1-.625-1.7,2,2,0,0,1,.868-1.764A5.006,5.006,0,0,1-20.4,14.42l1.306-.041v-.4a1.529,1.529,0,0,0-.338-1.083,1.38,1.38,0,0,0-1.049-.359,3.628,3.628,0,0,0-1.114.171,8.409,8.409,0,0,0-1.025.4l-.52-1.148a5.591,5.591,0,0,1,1.347-.489,6.2,6.2,0,0,1,1.381-.167,3.27,3.27,0,0,1,2.177.629,2.462,2.462,0,0,1,.735,1.976V19Zm-2.393-1.094a1.99,1.99,0,0,0,1.4-.489,1.772,1.772,0,0,0,.53-1.371v-.656l-.971.041a3.321,3.321,0,0,0-1.651.379,1.153,1.153,0,0,0-.516,1.036,1.011,1.011,0,0,0,.3.783A1.292,1.292,0,0,0-21.038,17.906ZM-8.6,19h-1.613V14.352a2.034,2.034,0,0,0-.352-1.306,1.361,1.361,0,0,0-1.118-.431,1.777,1.777,0,0,0-1.49.6,3.321,3.321,0,0,0-.472,2.017V19h-1.606V11.439H-14l.226.991h.082a2.237,2.237,0,0,1,.971-.834,3.253,3.253,0,0,1,1.395-.294q2.721,0,2.721,2.769Zm4.785.137a2.633,2.633,0,0,1-2.208-1.025,4.609,4.609,0,0,1-.793-2.878,4.624,4.624,0,0,1,.8-2.9A2.658,2.658,0,0,1-3.791,11.3a2.606,2.606,0,0,1,2.27,1.1h.082a9.63,9.63,0,0,1-.116-1.285V8.363H.058V19H-1.2l-.28-.991h-.075A2.568,2.568,0,0,1-3.818,19.137Zm.431-1.3a1.748,1.748,0,0,0,1.442-.557,2.933,2.933,0,0,0,.465-1.808v-.226a3.389,3.389,0,0,0-.465-2.03,1.724,1.724,0,0,0-1.456-.6,1.477,1.477,0,0,0-1.306.687,3.521,3.521,0,0,0-.458,1.958,3.433,3.433,0,0,0,.444,1.917A1.5,1.5,0,0,0-3.387,17.838Zm9.6-6.535a2.624,2.624,0,0,1,2.2,1.025,4.623,4.623,0,0,1,.79,2.878,4.638,4.638,0,0,1-.8,2.9A2.649,2.649,0,0,1,6.19,19.137,2.648,2.648,0,0,1,3.961,18.1H3.852l-.294.9h-1.2V8.363H3.961v2.529q0,.28-.027.834t-.041.7h.068A2.551,2.551,0,0,1,6.217,11.3ZM5.8,12.615a1.633,1.633,0,0,0-1.4.571A3.321,3.321,0,0,0,3.961,15.1v.109a3.536,3.536,0,0,0,.438,2,1.627,1.627,0,0,0,1.429.619,1.448,1.448,0,0,0,1.3-.677,3.59,3.59,0,0,0,.441-1.955Q7.564,12.615,5.8,12.615Zm11.983,2.591a4.127,4.127,0,0,1-.95,2.892,3.4,3.4,0,0,1-2.646,1.039,3.625,3.625,0,0,1-1.873-.479,3.159,3.159,0,0,1-1.251-1.374,4.68,4.68,0,0,1-.437-2.078,4.1,4.1,0,0,1,.943-2.871A3.42,3.42,0,0,1,14.229,11.3a3.331,3.331,0,0,1,2.6,1.056A4.08,4.08,0,0,1,17.784,15.206Zm-5.5,0q0,2.618,1.935,2.618,1.914,0,1.914-2.618,0-2.591-1.928-2.591a1.644,1.644,0,0,0-1.466.67A3.409,3.409,0,0,0,12.281,15.206Zm14.055,0a4.127,4.127,0,0,1-.95,2.892,3.4,3.4,0,0,1-2.646,1.039,3.625,3.625,0,0,1-1.873-.479,3.159,3.159,0,0,1-1.251-1.374,4.68,4.68,0,0,1-.437-2.078,4.1,4.1,0,0,1,.943-2.871A3.42,3.42,0,0,1,22.781,11.3a3.331,3.331,0,0,1,2.6,1.056A4.08,4.08,0,0,1,26.335,15.206Zm-5.5,0q0,2.618,1.935,2.618,1.914,0,1.914-2.618,0-2.591-1.928-2.591a1.644,1.644,0,0,0-1.466.67A3.409,3.409,0,0,0,20.833,15.206Zm8.9-.2.909-1.135,2.283-2.434h1.853l-3.042,3.247L34.969,19H33.083l-2.427-3.315-.882.725V19H28.181V8.363h1.593v5.188l-.082,1.456Z" transform="translate(65 130)" fill="#3d3d3d"/>
        <g id="Group_7827" data-name="Group 7827" transform="translate(-78 -116)">
          <rect id="Rectangle_4483" data-name="Rectangle 4483" width="70" height="70" rx="4" transform="translate(108 146)" fill="none" opacity="0.5"/>
          <g id="Shadow_1_" transform="translate(120 153.054)">
            <path id="Path_5743" data-name="Path 5743" d="M3.5,0H44.736a1.859,1.859,0,0,1,1.889,1.889h0V53.721a2,2,0,0,1-1.971,1.971H3.5" transform="translate(-0.625)" fill="#e04a39"/>
            <path id="Path_5744" data-name="Path 5744" d="M6.654,0H1.807A1.823,1.823,0,0,0,0,1.807H0V53.886a1.823,1.823,0,0,0,1.807,1.807H6.654" fill="#cc4434"/>
            <rect id="Rectangle_4122" data-name="Rectangle 4122" width="41.646" height="9.939" transform="translate(4.354 43.864)" fill="#cb4333"/>
            <path id="Path_5745" data-name="Path 5745" d="M7.275,55.1H47.2v7.311H7.275a.561.561,0,0,1-.575-.575V55.593A.549.549,0,0,1,7.275,55.1Z" transform="translate(-1.196 -9.839)" fill="#f1f2f2"/>
            <path id="Path_5746" data-name="Path 5746" d="M27.893,30.125H22.8V21.5h5.093v1.889H25.1V24.7h2.546v1.889H25.1v1.643h2.793Z" transform="translate(-4.071 -3.839)" fill="#fff"/>
            <path id="Path_5747" data-name="Path 5747" d="M35.893,30.125H30.8V21.5h5.093v1.889H33.1V24.7h2.546v1.889H33.1v1.643h2.793Z" transform="translate(-5.5 -3.839)" fill="#fff"/>
          </g>
        </g>
      </g>
      <g id="Gallery_check_box-_large" data-name="Gallery check box- large" transform="translate(889 1561)">
        <g id="Rectangle_4479-2" data-name="Rectangle 4479" fill="#d0e2f6" stroke="#2777d3" stroke-width="2">
          <rect width="130" height="183" rx="6" stroke="none"/>
          <rect x="1" y="1" width="128" height="181" rx="5" fill="none"/>
        </g>
        <path id="Path_10347" data-name="Path 10347" d="M-26.035,0h-5.653V-9.994h5.653v1.381h-4.02v2.721h3.767v1.367h-3.767v3.138h4.02Zm8.36,0h-1.613V-4.662a2.114,2.114,0,0,0-.328-1.3,1.211,1.211,0,0,0-1.025-.427A1.564,1.564,0,0,0-22-5.78a3.549,3.549,0,0,0-.434,2.013V0h-1.606V-7.561h1.258l.226.991h.082a2.1,2.1,0,0,1,.913-.834A2.943,2.943,0,0,1-20.251-7.7a2.3,2.3,0,0,1,2.311,1.189h.109a2.3,2.3,0,0,1,.943-.875A2.994,2.994,0,0,1-15.494-7.7a2.539,2.539,0,0,1,1.972.684A3.027,3.027,0,0,1-12.9-4.929V0h-1.606V-4.662a2.1,2.1,0,0,0-.332-1.3,1.221,1.221,0,0,0-1.029-.427A1.6,1.6,0,0,0-17.24-5.8a3.013,3.013,0,0,0-.434,1.794ZM-6.826.137A2.648,2.648,0,0,1-9.054-.9h-.1q.1.957.1,1.162v3.1h-1.606V-7.561h1.3q.055.212.226,1.012h.082A2.517,2.517,0,0,1-6.8-7.7a2.624,2.624,0,0,1,2.2,1.025A4.623,4.623,0,0,1-3.8-3.794,4.627,4.627,0,0,1-4.607-.9,2.648,2.648,0,0,1-6.826.137Zm-.39-6.521a1.67,1.67,0,0,0-1.4.561,2.905,2.905,0,0,0-.441,1.791v.239a3.536,3.536,0,0,0,.438,2,1.627,1.627,0,0,0,1.429.619A1.45,1.45,0,0,0-5.9-1.859a3.53,3.53,0,0,0,.451-1.948A3.407,3.407,0,0,0-5.9-5.732,1.494,1.494,0,0,0-7.215-6.385ZM-.332,0H-1.938V-10.637H-.332Zm9-3.794A4.127,4.127,0,0,1,7.721-.9,3.4,3.4,0,0,1,5.076.137,3.625,3.625,0,0,1,3.2-.342,3.159,3.159,0,0,1,1.952-1.716a4.68,4.68,0,0,1-.437-2.078,4.1,4.1,0,0,1,.943-2.871A3.42,3.42,0,0,1,5.117-7.7a3.331,3.331,0,0,1,2.6,1.056A4.08,4.08,0,0,1,8.671-3.794Zm-5.5,0q0,2.618,1.935,2.618,1.914,0,1.914-2.618,0-2.591-1.928-2.591a1.644,1.644,0,0,0-1.466.67A3.409,3.409,0,0,0,3.168-3.794Zm6.2-3.767h1.75l1.538,4.286a8.133,8.133,0,0,1,.465,1.723h.055a7.185,7.185,0,0,1,.226-.913q.164-.537,1.736-5.1h1.736L13.641,1A3.067,3.067,0,0,1,10.7,3.363a4.626,4.626,0,0,1-1.039-.116V1.976a3.765,3.765,0,0,0,.827.082A1.694,1.694,0,0,0,12.124.711L12.4,0ZM21.325.137A3.657,3.657,0,0,1,18.566-.892a3.906,3.906,0,0,1-.995-2.833,4.285,4.285,0,0,1,.923-2.912A3.188,3.188,0,0,1,21.031-7.7a3.116,3.116,0,0,1,2.365.909,3.474,3.474,0,0,1,.868,2.5v.868H19.226a2.483,2.483,0,0,0,.595,1.692,2.071,2.071,0,0,0,1.579.591,5.829,5.829,0,0,0,1.248-.126,6.539,6.539,0,0,0,1.241-.42V-.376a4.932,4.932,0,0,1-1.189.4A7.294,7.294,0,0,1,21.325.137ZM21.031-6.48A1.614,1.614,0,0,0,19.8-6a2.313,2.313,0,0,0-.55,1.415h3.432A2.093,2.093,0,0,0,22.234-6,1.543,1.543,0,0,0,21.031-6.48ZM29.391.137A3.657,3.657,0,0,1,26.633-.892a3.906,3.906,0,0,1-.995-2.833,4.285,4.285,0,0,1,.923-2.912A3.188,3.188,0,0,1,29.1-7.7a3.116,3.116,0,0,1,2.365.909,3.474,3.474,0,0,1,.868,2.5v.868H27.292a2.483,2.483,0,0,0,.595,1.692,2.071,2.071,0,0,0,1.579.591,5.829,5.829,0,0,0,1.248-.126,6.539,6.539,0,0,0,1.241-.42V-.376a4.932,4.932,0,0,1-1.189.4A7.294,7.294,0,0,1,29.391.137ZM29.1-6.48A1.614,1.614,0,0,0,27.87-6a2.313,2.313,0,0,0-.55,1.415h3.432A2.093,2.093,0,0,0,30.3-6,1.543,1.543,0,0,0,29.1-6.48ZM-25.836,19h-1.641V14.5h-4.607V19h-1.634V9.006h1.634v4.088h4.607V9.006h1.641Zm7.191,0-.321-1.053h-.055a3.1,3.1,0,0,1-1.1.94,3.481,3.481,0,0,1-1.422.25,2.406,2.406,0,0,1-1.74-.6,2.251,2.251,0,0,1-.625-1.7,2,2,0,0,1,.868-1.764A5.006,5.006,0,0,1-20.4,14.42l1.306-.041v-.4a1.529,1.529,0,0,0-.338-1.083,1.38,1.38,0,0,0-1.049-.359,3.628,3.628,0,0,0-1.114.171,8.409,8.409,0,0,0-1.025.4l-.52-1.148a5.591,5.591,0,0,1,1.347-.489,6.2,6.2,0,0,1,1.381-.167,3.27,3.27,0,0,1,2.177.629,2.462,2.462,0,0,1,.735,1.976V19Zm-2.393-1.094a1.99,1.99,0,0,0,1.4-.489,1.772,1.772,0,0,0,.53-1.371v-.656l-.971.041a3.321,3.321,0,0,0-1.651.379,1.153,1.153,0,0,0-.516,1.036,1.011,1.011,0,0,0,.3.783A1.292,1.292,0,0,0-21.038,17.906ZM-8.6,19h-1.613V14.352a2.034,2.034,0,0,0-.352-1.306,1.361,1.361,0,0,0-1.118-.431,1.777,1.777,0,0,0-1.49.6,3.321,3.321,0,0,0-.472,2.017V19h-1.606V11.439H-14l.226.991h.082a2.237,2.237,0,0,1,.971-.834,3.253,3.253,0,0,1,1.395-.294q2.721,0,2.721,2.769Zm4.785.137a2.633,2.633,0,0,1-2.208-1.025,4.609,4.609,0,0,1-.793-2.878,4.624,4.624,0,0,1,.8-2.9A2.658,2.658,0,0,1-3.791,11.3a2.606,2.606,0,0,1,2.27,1.1h.082a9.63,9.63,0,0,1-.116-1.285V8.363H.058V19H-1.2l-.28-.991h-.075A2.568,2.568,0,0,1-3.818,19.137Zm.431-1.3a1.748,1.748,0,0,0,1.442-.557,2.933,2.933,0,0,0,.465-1.808v-.226a3.389,3.389,0,0,0-.465-2.03,1.724,1.724,0,0,0-1.456-.6,1.477,1.477,0,0,0-1.306.687,3.521,3.521,0,0,0-.458,1.958,3.433,3.433,0,0,0,.444,1.917A1.5,1.5,0,0,0-3.387,17.838Zm9.6-6.535a2.624,2.624,0,0,1,2.2,1.025,4.623,4.623,0,0,1,.79,2.878,4.638,4.638,0,0,1-.8,2.9A2.649,2.649,0,0,1,6.19,19.137,2.648,2.648,0,0,1,3.961,18.1H3.852l-.294.9h-1.2V8.363H3.961v2.529q0,.28-.027.834t-.041.7h.068A2.551,2.551,0,0,1,6.217,11.3ZM5.8,12.615a1.633,1.633,0,0,0-1.4.571A3.321,3.321,0,0,0,3.961,15.1v.109a3.536,3.536,0,0,0,.438,2,1.627,1.627,0,0,0,1.429.619,1.448,1.448,0,0,0,1.3-.677,3.59,3.59,0,0,0,.441-1.955Q7.564,12.615,5.8,12.615Zm11.983,2.591a4.127,4.127,0,0,1-.95,2.892,3.4,3.4,0,0,1-2.646,1.039,3.625,3.625,0,0,1-1.873-.479,3.159,3.159,0,0,1-1.251-1.374,4.68,4.68,0,0,1-.437-2.078,4.1,4.1,0,0,1,.943-2.871A3.42,3.42,0,0,1,14.229,11.3a3.331,3.331,0,0,1,2.6,1.056A4.08,4.08,0,0,1,17.784,15.206Zm-5.5,0q0,2.618,1.935,2.618,1.914,0,1.914-2.618,0-2.591-1.928-2.591a1.644,1.644,0,0,0-1.466.67A3.409,3.409,0,0,0,12.281,15.206Zm14.055,0a4.127,4.127,0,0,1-.95,2.892,3.4,3.4,0,0,1-2.646,1.039,3.625,3.625,0,0,1-1.873-.479,3.159,3.159,0,0,1-1.251-1.374,4.68,4.68,0,0,1-.437-2.078,4.1,4.1,0,0,1,.943-2.871A3.42,3.42,0,0,1,22.781,11.3a3.331,3.331,0,0,1,2.6,1.056A4.08,4.08,0,0,1,26.335,15.206Zm-5.5,0q0,2.618,1.935,2.618,1.914,0,1.914-2.618,0-2.591-1.928-2.591a1.644,1.644,0,0,0-1.466.67A3.409,3.409,0,0,0,20.833,15.206Zm8.9-.2.909-1.135,2.283-2.434h1.853l-3.042,3.247L34.969,19H33.083l-2.427-3.315-.882.725V19H28.181V8.363h1.593v5.188l-.082,1.456Z" transform="translate(65 130)" fill="#3d3d3d"/>
        <g id="Group_7827-2" data-name="Group 7827" transform="translate(-78 -116)">
          <rect id="Rectangle_4483-2" data-name="Rectangle 4483" width="70" height="70" rx="4" transform="translate(108 146)" fill="none" opacity="0.5"/>
          <g id="Shadow_1_2" data-name="Shadow_1_" transform="translate(120 153.054)">
            <path id="Path_5743-2" data-name="Path 5743" d="M3.5,0H44.736a1.859,1.859,0,0,1,1.889,1.889h0V53.721a2,2,0,0,1-1.971,1.971H3.5" transform="translate(-0.625)" fill="#e04a39"/>
            <path id="Path_5744-2" data-name="Path 5744" d="M6.654,0H1.807A1.823,1.823,0,0,0,0,1.807H0V53.886a1.823,1.823,0,0,0,1.807,1.807H6.654" fill="#cc4434"/>
            <rect id="Rectangle_4122-2" data-name="Rectangle 4122" width="41.646" height="9.939" transform="translate(4.354 43.864)" fill="#cb4333"/>
            <path id="Path_5745-2" data-name="Path 5745" d="M7.275,55.1H47.2v7.311H7.275a.561.561,0,0,1-.575-.575V55.593A.549.549,0,0,1,7.275,55.1Z" transform="translate(-1.196 -9.839)" fill="#f1f2f2"/>
            <path id="Path_5746-2" data-name="Path 5746" d="M27.893,30.125H22.8V21.5h5.093v1.889H25.1V24.7h2.546v1.889H25.1v1.643h2.793Z" transform="translate(-4.071 -3.839)" fill="#fff"/>
            <path id="Path_5747-2" data-name="Path 5747" d="M35.893,30.125H30.8V21.5h5.093v1.889H33.1V24.7h2.546v1.889H33.1v1.643h2.793Z" transform="translate(-5.5 -3.839)" fill="#fff"/>
          </g>
        </g>
        <g id="Checked-2" data-name="Checked" transform="translate(5 5)">
          <path id="Path_5845-2" data-name="Path 5845" d="M46.2,0h-18a2.971,2.971,0,0,0-3,3V21a2.971,2.971,0,0,0,3,3h18a2.971,2.971,0,0,0,3-3V3A2.971,2.971,0,0,0,46.2,0ZM44.64,8.52l-8.76,8.76a1.16,1.16,0,0,1-1.68,0l-4.32-4.32a1.188,1.188,0,0,1,1.68-1.68l3.48,3.48,7.92-7.92a1.16,1.16,0,0,1,1.68,0A1.442,1.442,0,0,1,44.64,8.52Z" transform="translate(-25.2)" fill="#2777d3"/>
        </g>
      </g>
    </g>
  </g>
</svg>
