<svg xmlns="http://www.w3.org/2000/svg" xmlns:xlink="http://www.w3.org/1999/xlink" width="450" height="283" viewBox="0 0 450 283">
  <defs>
    <clipPath id="clip-checklabel_dont">
      <rect width="450" height="283"/>
    </clipPath>
  </defs>
  <g id="checklabel_dont" clip-path="url(#clip-checklabel_dont)">
    <rect width="450" height="283" fill="#f9f9fa"/>
    <g id="Group_264149" data-name="Group 264149" transform="translate(23 -61)">
      <g id="Checkbox" transform="translate(190 208)">
        <g id="Checked" transform="translate(0)">
          <path id="Path_5845" data-name="Path 5845" d="M46.2,0h-18a2.971,2.971,0,0,0-3,3V21a2.971,2.971,0,0,0,3,3h18a2.971,2.971,0,0,0,3-3V3A2.971,2.971,0,0,0,46.2,0ZM44.64,8.52l-8.76,8.76a1.16,1.16,0,0,1-1.68,0l-4.32-4.32a1.188,1.188,0,0,1,1.68-1.68l3.48,3.48,7.92-7.92a1.16,1.16,0,0,1,1.68,0A1.442,1.442,0,0,1,44.64,8.52Z" transform="translate(-25.2)" fill="#2777d3"/>
        </g>
      </g>
      <g id="Checkbox-2" data-name="Checkbox" transform="translate(190 173)">
        <g id="Unchecked">
          <path id="Unchecked-2" data-name="Unchecked" d="M21,2.4a.567.567,0,0,1,.6.6V21a.567.567,0,0,1-.6.6H3a.567.567,0,0,1-.6-.6V3A.567.567,0,0,1,3,2.4H21M21,0H3A2.971,2.971,0,0,0,0,3V21a2.971,2.971,0,0,0,3,3H21a2.971,2.971,0,0,0,3-3V3a2.971,2.971,0,0,0-3-3Z" fill="#9494a4"/>
        </g>
      </g>
    </g>
  </g>
</svg>
