<svg xmlns="http://www.w3.org/2000/svg" xmlns:xlink="http://www.w3.org/1999/xlink" width="840" height="343" viewBox="0 0 840 343">
  <defs>
    <clipPath id="clip-checkbox_states_standard">
      <rect width="840" height="343"/>
    </clipPath>
  </defs>
  <g id="checkbox_states_standard" clip-path="url(#clip-checkbox_states_standard)">
    <rect width="840" height="343" fill="#f9f9fa"/>
    <path id="Path_10334" data-name="Path 10334" d="M.734,0V-5.6H2.281q2.961,0,2.961,2.73A2.752,2.752,0,0,1,4.42-.787,3.05,3.05,0,0,1,2.219,0Zm.656-5.008V-.594h.836a2.372,2.372,0,0,0,1.715-.59,2.211,2.211,0,0,0,.613-1.672q0-2.152-2.289-2.152ZM9.473-1.84H6.648A1.5,1.5,0,0,0,7.008-.809a1.239,1.239,0,0,0,.945.363A1.965,1.965,0,0,0,9.2-.891v.6A2.322,2.322,0,0,1,7.8.094,1.691,1.691,0,0,1,6.469-.451a2.23,2.23,0,0,1-.484-1.533,2.187,2.187,0,0,1,.529-1.521,1.7,1.7,0,0,1,1.314-.588,1.5,1.5,0,0,1,1.215.508,2.117,2.117,0,0,1,.43,1.41Zm-.656-.543a1.3,1.3,0,0,0-.268-.863.912.912,0,0,0-.732-.309,1.035,1.035,0,0,0-.77.324,1.471,1.471,0,0,0-.391.848ZM13.3,0h-.641V-.625h-.016a1.341,1.341,0,0,1-1.23.719,1.315,1.315,0,0,1-.936-.316,1.1,1.1,0,0,1-.338-.84q0-1.121,1.32-1.3l1.2-.168q0-1.02-.824-1.02a1.969,1.969,0,0,0-1.3.492v-.656a2.479,2.479,0,0,1,1.359-.375q1.41,0,1.41,1.492Zm-.641-2.023-.965.133a1.567,1.567,0,0,0-.672.221.637.637,0,0,0-.227.561.611.611,0,0,0,.209.479.808.808,0,0,0,.557.186,1.028,1.028,0,0,0,.787-.334,1.193,1.193,0,0,0,.311-.846Zm4.574,1.84a2.082,2.082,0,0,1-1.094.277,1.811,1.811,0,0,1-1.381-.557,2.017,2.017,0,0,1-.525-1.443A2.218,2.218,0,0,1,14.8-3.494a1.981,1.981,0,0,1,1.512-.6,2.1,2.1,0,0,1,.93.2v.656a1.629,1.629,0,0,0-.953-.312,1.288,1.288,0,0,0-1.006.439,1.668,1.668,0,0,0-.393,1.154,1.588,1.588,0,0,0,.369,1.109,1.272,1.272,0,0,0,.99.406,1.606,1.606,0,0,0,.984-.348Zm2.824.145a1.235,1.235,0,0,1-.6.125q-1.051,0-1.051-1.172V-3.453h-.687V-4h.688v-.977l.641-.207V-4h1.008v.547H19.055V-1.2a.934.934,0,0,0,.137.574.546.546,0,0,0,.453.172.674.674,0,0,0,.418-.133Zm1.184-4.977a.406.406,0,0,1-.293-.117.4.4,0,0,1-.121-.3.4.4,0,0,1,.121-.3.4.4,0,0,1,.293-.119.414.414,0,0,1,.3.119.4.4,0,0,1,.123.3.4.4,0,0,1-.123.293A.41.41,0,0,1,21.246-5.016ZM21.559,0h-.641V-4h.641ZM26-4,24.406,0h-.629L22.262-4h.7L23.98-1.094a2.608,2.608,0,0,1,.141.559h.016a2.641,2.641,0,0,1,.125-.543L25.324-4Zm3.551,4H28.91V-.625h-.016a1.341,1.341,0,0,1-1.23.719,1.315,1.315,0,0,1-.936-.316,1.1,1.1,0,0,1-.338-.84q0-1.121,1.32-1.3l1.2-.168q0-1.02-.824-1.02a1.969,1.969,0,0,0-1.3.492v-.656a2.479,2.479,0,0,1,1.359-.375q1.41,0,1.41,1.492ZM28.91-2.023l-.965.133a1.566,1.566,0,0,0-.672.221.637.637,0,0,0-.227.561.611.611,0,0,0,.209.479.808.808,0,0,0,.557.186A1.028,1.028,0,0,0,28.6-.779a1.193,1.193,0,0,0,.311-.846Zm3.7,1.984a1.235,1.235,0,0,1-.6.125q-1.051,0-1.051-1.172V-3.453h-.687V-4h.688v-.977l.641-.207V-4h1.008v.547H31.605V-1.2a.934.934,0,0,0,.137.574.546.546,0,0,0,.453.172.674.674,0,0,0,.418-.133Zm4.07-1.8H33.859a1.5,1.5,0,0,0,.359,1.031,1.239,1.239,0,0,0,.945.363,1.965,1.965,0,0,0,1.242-.445v.6a2.322,2.322,0,0,1-1.395.383A1.691,1.691,0,0,1,33.68-.451,2.23,2.23,0,0,1,33.2-1.984a2.187,2.187,0,0,1,.529-1.521,1.7,1.7,0,0,1,1.314-.588,1.5,1.5,0,0,1,1.215.508,2.117,2.117,0,0,1,.43,1.41Zm-.656-.543a1.3,1.3,0,0,0-.268-.863.912.912,0,0,0-.732-.309,1.035,1.035,0,0,0-.77.324,1.471,1.471,0,0,0-.391.848ZM41.066,0h-.641V-.68H40.41a1.479,1.479,0,0,1-1.375.773A1.494,1.494,0,0,1,37.83-.443a2.2,2.2,0,0,1-.451-1.463,2.4,2.4,0,0,1,.5-1.59,1.649,1.649,0,0,1,1.332-.6,1.282,1.282,0,0,1,1.2.648h.016V-5.922h.641Zm-.641-1.809V-2.4a1.144,1.144,0,0,0-.32-.82,1.074,1.074,0,0,0-.812-.336,1.106,1.106,0,0,0-.922.43,1.883,1.883,0,0,0-.336,1.188,1.693,1.693,0,0,0,.322,1.092,1.053,1.053,0,0,0,.865.4,1.094,1.094,0,0,0,.869-.387A1.441,1.441,0,0,0,40.426-1.809Z" transform="translate(132.266 122.922)" fill="#c6318c"/>
    <path id="Path_10335" data-name="Path 10335" d="M5.07,0H4.344L3.75-1.57H1.375L.816,0H.086L2.234-5.6h.68ZM3.535-2.16,2.656-4.547a2.285,2.285,0,0,1-.086-.375H2.555a2.092,2.092,0,0,1-.09.375L1.594-2.16Zm5,1.977A2.082,2.082,0,0,1,7.441.094,1.811,1.811,0,0,1,6.061-.463a2.017,2.017,0,0,1-.525-1.443A2.218,2.218,0,0,1,6.1-3.494a1.981,1.981,0,0,1,1.512-.6,2.1,2.1,0,0,1,.93.2v.656a1.629,1.629,0,0,0-.953-.312,1.288,1.288,0,0,0-1.006.439,1.668,1.668,0,0,0-.393,1.154A1.588,1.588,0,0,0,6.561-.852a1.272,1.272,0,0,0,.99.406,1.606,1.606,0,0,0,.984-.348Zm2.824.145a1.235,1.235,0,0,1-.6.125q-1.051,0-1.051-1.172V-3.453H9.023V-4h.688v-.977l.641-.207V-4h1.008v.547H10.352V-1.2a.934.934,0,0,0,.137.574.546.546,0,0,0,.453.172.674.674,0,0,0,.418-.133Zm1.184-4.977a.406.406,0,0,1-.293-.117.4.4,0,0,1-.121-.3.4.4,0,0,1,.121-.3.4.4,0,0,1,.293-.119.414.414,0,0,1,.3.119.4.4,0,0,1,.123.3.4.4,0,0,1-.123.293A.41.41,0,0,1,12.543-5.016ZM12.855,0h-.641V-4h.641ZM17.3-4,15.7,0h-.629L13.559-4h.7l1.016,2.906a2.609,2.609,0,0,1,.141.559h.016a2.641,2.641,0,0,1,.125-.543L16.621-4Zm3.551,4h-.641V-.625h-.016a1.341,1.341,0,0,1-1.23.719,1.315,1.315,0,0,1-.936-.316,1.1,1.1,0,0,1-.338-.84q0-1.121,1.32-1.3l1.2-.168q0-1.02-.824-1.02a1.969,1.969,0,0,0-1.3.492v-.656a2.479,2.479,0,0,1,1.359-.375q1.41,0,1.41,1.492Zm-.641-2.023-.965.133a1.566,1.566,0,0,0-.672.221.637.637,0,0,0-.227.561.611.611,0,0,0,.209.479.808.808,0,0,0,.557.186A1.028,1.028,0,0,0,19.9-.779a1.193,1.193,0,0,0,.311-.846Zm3.7,1.984a1.235,1.235,0,0,1-.6.125q-1.051,0-1.051-1.172V-3.453h-.687V-4h.688v-.977l.641-.207V-4H23.91v.547H22.9V-1.2a.934.934,0,0,0,.137.574.546.546,0,0,0,.453.172.674.674,0,0,0,.418-.133Zm4.07-1.8H25.156a1.5,1.5,0,0,0,.359,1.031,1.239,1.239,0,0,0,.945.363A1.965,1.965,0,0,0,27.7-.891v.6a2.322,2.322,0,0,1-1.395.383,1.691,1.691,0,0,1-1.332-.545,2.23,2.23,0,0,1-.484-1.533,2.187,2.187,0,0,1,.529-1.521,1.7,1.7,0,0,1,1.314-.588,1.5,1.5,0,0,1,1.215.508,2.117,2.117,0,0,1,.43,1.41Zm-.656-.543a1.3,1.3,0,0,0-.268-.863.912.912,0,0,0-.732-.309,1.035,1.035,0,0,0-.77.324,1.471,1.471,0,0,0-.391.848ZM32.363,0h-.641V-.68h-.016a1.479,1.479,0,0,1-1.375.773,1.494,1.494,0,0,1-1.205-.537,2.2,2.2,0,0,1-.451-1.463,2.4,2.4,0,0,1,.5-1.59,1.649,1.649,0,0,1,1.332-.6,1.282,1.282,0,0,1,1.2.648h.016V-5.922h.641Zm-.641-1.809V-2.4a1.144,1.144,0,0,0-.32-.82,1.074,1.074,0,0,0-.812-.336,1.106,1.106,0,0,0-.922.43,1.883,1.883,0,0,0-.336,1.188,1.693,1.693,0,0,0,.322,1.092,1.053,1.053,0,0,0,.865.4,1.094,1.094,0,0,0,.869-.387A1.441,1.441,0,0,0,31.723-1.809Z" transform="translate(141.266 200.922)" fill="#c6318c"/>
    <path id="Path_10336" data-name="Path 10336" d="M5.25,0h-.8L1.563-4.465a1.866,1.866,0,0,1-.18-.352H1.359a5.767,5.767,0,0,1,.031.77V0H.734V-5.6h.852l2.8,4.395q.176.273.227.375h.016a5.926,5.926,0,0,1-.039-.824V-5.6H5.25ZM8.3.094A1.855,1.855,0,0,1,6.889-.467a2.076,2.076,0,0,1-.529-1.486A2.163,2.163,0,0,1,6.91-3.527,1.98,1.98,0,0,1,8.4-4.094a1.794,1.794,0,0,1,1.4.551,2.184,2.184,0,0,1,.5,1.527A2.149,2.149,0,0,1,9.756-.482,1.9,1.9,0,0,1,8.3.094Zm.047-3.648a1.219,1.219,0,0,0-.977.42,1.725,1.725,0,0,0-.359,1.158A1.631,1.631,0,0,0,7.379-.855a1.235,1.235,0,0,0,.973.41,1.171,1.171,0,0,0,.955-.4,1.746,1.746,0,0,0,.334-1.145,1.776,1.776,0,0,0-.334-1.156A1.166,1.166,0,0,0,8.352-3.555Zm5.055.2a.783.783,0,0,0-.484-.129.818.818,0,0,0-.686.387,1.788,1.788,0,0,0-.275,1.055V0H11.32V-4h.641v.824h.016a1.4,1.4,0,0,1,.418-.658.953.953,0,0,1,.629-.236,1.046,1.046,0,0,1,.383.055ZM19.781,0h-.641V-2.3a1.733,1.733,0,0,0-.205-.961.778.778,0,0,0-.689-.3.854.854,0,0,0-.7.375,1.435,1.435,0,0,0-.287.9V0h-.641V-2.375q0-1.18-.91-1.18a.843.843,0,0,0-.7.354,1.461,1.461,0,0,0-.273.92V0H14.1V-4h.641v.633h.016A1.359,1.359,0,0,1,16-4.094a1.158,1.158,0,0,1,.715.229,1.15,1.15,0,0,1,.418.6,1.427,1.427,0,0,1,1.328-.828q1.32,0,1.32,1.629Zm4.074,0h-.641V-.625H23.2a1.341,1.341,0,0,1-1.23.719,1.315,1.315,0,0,1-.936-.316,1.1,1.1,0,0,1-.338-.84q0-1.121,1.32-1.3l1.2-.168q0-1.02-.824-1.02a1.969,1.969,0,0,0-1.3.492v-.656a2.479,2.479,0,0,1,1.359-.375q1.41,0,1.41,1.492Zm-.641-2.023-.965.133a1.566,1.566,0,0,0-.672.221.637.637,0,0,0-.227.561.611.611,0,0,0,.209.479.808.808,0,0,0,.557.186A1.028,1.028,0,0,0,22.9-.779a1.193,1.193,0,0,0,.311-.846ZM25.7,0h-.641V-5.922H25.7Z" transform="translate(252.266 55.922)" fill="#c6318c"/>
    <path id="Path_10337" data-name="Path 10337" d="M4.945,0H4.289V-2.555h-2.9V0H.734V-5.6h.656v2.457h2.9V-5.6h.656ZM8,.094A1.855,1.855,0,0,1,6.584-.467a2.076,2.076,0,0,1-.529-1.486,2.163,2.163,0,0,1,.551-1.574,1.98,1.98,0,0,1,1.488-.566,1.794,1.794,0,0,1,1.4.551,2.184,2.184,0,0,1,.5,1.527A2.149,2.149,0,0,1,9.451-.482,1.9,1.9,0,0,1,8,.094Zm.047-3.648a1.219,1.219,0,0,0-.977.42,1.725,1.725,0,0,0-.359,1.158A1.631,1.631,0,0,0,7.074-.855a1.235,1.235,0,0,0,.973.41A1.171,1.171,0,0,0,9-.848a1.746,1.746,0,0,0,.334-1.145A1.776,1.776,0,0,0,9-3.148,1.166,1.166,0,0,0,8.047-3.555ZM14.16-4,12.566,0h-.629L10.422-4h.7l1.016,2.906a2.609,2.609,0,0,1,.141.559H12.3a2.641,2.641,0,0,1,.125-.543L13.484-4Zm3.9,2.16H15.238A1.5,1.5,0,0,0,15.6-.809a1.239,1.239,0,0,0,.945.363,1.965,1.965,0,0,0,1.242-.445v.6a2.322,2.322,0,0,1-1.395.383,1.691,1.691,0,0,1-1.332-.545,2.23,2.23,0,0,1-.484-1.533A2.187,2.187,0,0,1,15.1-3.506a1.7,1.7,0,0,1,1.314-.588,1.5,1.5,0,0,1,1.215.508,2.117,2.117,0,0,1,.43,1.41Zm-.656-.543a1.3,1.3,0,0,0-.268-.863.912.912,0,0,0-.732-.309,1.035,1.035,0,0,0-.77.324,1.471,1.471,0,0,0-.391.848Zm3.711-.969a.783.783,0,0,0-.484-.129.818.818,0,0,0-.686.387,1.788,1.788,0,0,0-.275,1.055V0h-.641V-4h.641v.824h.016a1.4,1.4,0,0,1,.418-.658.953.953,0,0,1,.629-.236,1.046,1.046,0,0,1,.383.055Z" transform="translate(387.266 55.922)" fill="#c6318c"/>
    <path id="Path_10338" data-name="Path 10338" d="M3.578-5.008H1.391V-3.07H3.414v.59H1.391V0H.734V-5.6H3.578ZM6.227.094A1.855,1.855,0,0,1,4.811-.467a2.076,2.076,0,0,1-.529-1.486,2.163,2.163,0,0,1,.551-1.574A1.98,1.98,0,0,1,6.32-4.094a1.794,1.794,0,0,1,1.4.551,2.184,2.184,0,0,1,.5,1.527A2.149,2.149,0,0,1,7.678-.482,1.9,1.9,0,0,1,6.227.094Zm.047-3.648a1.219,1.219,0,0,0-.977.42,1.725,1.725,0,0,0-.359,1.158A1.631,1.631,0,0,0,5.3-.855a1.235,1.235,0,0,0,.973.41,1.171,1.171,0,0,0,.955-.4,1.746,1.746,0,0,0,.334-1.145,1.776,1.776,0,0,0-.334-1.156A1.166,1.166,0,0,0,6.273-3.555Zm5.7,3.371a2.082,2.082,0,0,1-1.094.277A1.811,1.811,0,0,1,9.494-.463a2.017,2.017,0,0,1-.525-1.443,2.218,2.218,0,0,1,.566-1.588,1.981,1.981,0,0,1,1.512-.6,2.1,2.1,0,0,1,.93.2v.656a1.629,1.629,0,0,0-.953-.312,1.288,1.288,0,0,0-1.006.439,1.668,1.668,0,0,0-.393,1.154A1.588,1.588,0,0,0,9.994-.852a1.272,1.272,0,0,0,.99.406,1.606,1.606,0,0,0,.984-.348Zm4.2.184h-.641V-.633h-.016a1.316,1.316,0,0,1-1.234.727q-1.43,0-1.43-1.7V-4h.637v2.289q0,1.266.969,1.266a.98.98,0,0,0,.771-.346,1.323,1.323,0,0,0,.3-.9V-4h.641Zm1.051-.145V-.832a1.9,1.9,0,0,0,1.152.387q.844,0,.844-.562a.488.488,0,0,0-.072-.271.72.72,0,0,0-.2-.2,1.5,1.5,0,0,0-.289-.154Q18.5-1.7,18.3-1.773a4.6,4.6,0,0,1-.467-.213,1.41,1.41,0,0,1-.336-.242.9.9,0,0,1-.2-.307,1.085,1.085,0,0,1-.068-.4.956.956,0,0,1,.129-.5A1.143,1.143,0,0,1,17.7-3.8a1.6,1.6,0,0,1,.49-.221,2.175,2.175,0,0,1,.568-.074,2.3,2.3,0,0,1,.93.18v.648a1.812,1.812,0,0,0-1.016-.289,1.187,1.187,0,0,0-.324.041A.794.794,0,0,0,18.1-3.4a.532.532,0,0,0-.16.178.468.468,0,0,0-.057.229.548.548,0,0,0,.057.262.576.576,0,0,0,.166.188,1.269,1.269,0,0,0,.266.148q.156.066.355.145a4.947,4.947,0,0,1,.477.209,1.635,1.635,0,0,1,.359.242.946.946,0,0,1,.229.311,1,1,0,0,1,.08.418.985.985,0,0,1-.131.516,1.122,1.122,0,0,1-.35.363,1.6,1.6,0,0,1-.5.215,2.488,2.488,0,0,1-.6.07A2.269,2.269,0,0,1,17.223-.145Zm6.852-1.7H21.25a1.5,1.5,0,0,0,.359,1.031,1.239,1.239,0,0,0,.945.363A1.965,1.965,0,0,0,23.8-.891v.6A2.322,2.322,0,0,1,22.4.094,1.691,1.691,0,0,1,21.07-.451a2.23,2.23,0,0,1-.484-1.533,2.187,2.187,0,0,1,.529-1.521,1.7,1.7,0,0,1,1.314-.588,1.5,1.5,0,0,1,1.215.508,2.117,2.117,0,0,1,.43,1.41Zm-.656-.543a1.3,1.3,0,0,0-.268-.863.912.912,0,0,0-.732-.309,1.035,1.035,0,0,0-.77.324,1.471,1.471,0,0,0-.391.848ZM28.457,0h-.641V-.68H27.8a1.479,1.479,0,0,1-1.375.773,1.494,1.494,0,0,1-1.205-.537,2.2,2.2,0,0,1-.451-1.463,2.4,2.4,0,0,1,.5-1.59,1.649,1.649,0,0,1,1.332-.6,1.282,1.282,0,0,1,1.2.648h.016V-5.922h.641Zm-.641-1.809V-2.4a1.144,1.144,0,0,0-.32-.82,1.074,1.074,0,0,0-.812-.336,1.106,1.106,0,0,0-.922.43,1.883,1.883,0,0,0-.336,1.188,1.693,1.693,0,0,0,.322,1.092,1.053,1.053,0,0,0,.865.4,1.094,1.094,0,0,0,.869-.387A1.441,1.441,0,0,0,27.816-1.809Z" transform="translate(517.266 55.922)" fill="#c6318c"/>
    <path id="Path_10339" data-name="Path 10339" d="M.734,0V-5.6H2.281q2.961,0,2.961,2.73A2.752,2.752,0,0,1,4.42-.787,3.05,3.05,0,0,1,2.219,0Zm.656-5.008V-.594h.836a2.372,2.372,0,0,0,1.715-.59,2.211,2.211,0,0,0,.613-1.672q0-2.152-2.289-2.152Zm5.2-.008a.406.406,0,0,1-.293-.117.4.4,0,0,1-.121-.3.4.4,0,0,1,.121-.3.4.4,0,0,1,.293-.119.414.414,0,0,1,.3.119.4.4,0,0,1,.123.3.4.4,0,0,1-.123.293A.41.41,0,0,1,6.586-5.016ZM6.9,0H6.258V-4H6.9ZM7.953-.145V-.832a1.9,1.9,0,0,0,1.152.387q.844,0,.844-.562a.488.488,0,0,0-.072-.271.72.72,0,0,0-.2-.2,1.5,1.5,0,0,0-.289-.154q-.166-.068-.357-.143a4.6,4.6,0,0,1-.467-.213,1.41,1.41,0,0,1-.336-.242.9.9,0,0,1-.2-.307,1.085,1.085,0,0,1-.068-.4.956.956,0,0,1,.129-.5A1.143,1.143,0,0,1,8.434-3.8a1.6,1.6,0,0,1,.49-.221,2.175,2.175,0,0,1,.568-.074,2.3,2.3,0,0,1,.93.18v.648a1.812,1.812,0,0,0-1.016-.289,1.187,1.187,0,0,0-.324.041.794.794,0,0,0-.248.115.532.532,0,0,0-.16.178.468.468,0,0,0-.057.229.548.548,0,0,0,.057.262.576.576,0,0,0,.166.188,1.269,1.269,0,0,0,.266.148q.156.066.355.145a4.947,4.947,0,0,1,.477.209A1.634,1.634,0,0,1,10.3-1.8a.946.946,0,0,1,.229.311,1,1,0,0,1,.08.418.985.985,0,0,1-.131.516,1.122,1.122,0,0,1-.35.363,1.6,1.6,0,0,1-.5.215,2.488,2.488,0,0,1-.6.07A2.269,2.269,0,0,1,7.953-.145Zm6.5.145h-.641V-.625H13.8a1.341,1.341,0,0,1-1.23.719,1.315,1.315,0,0,1-.936-.316,1.1,1.1,0,0,1-.338-.84q0-1.121,1.32-1.3l1.2-.168q0-1.02-.824-1.02a1.969,1.969,0,0,0-1.3.492v-.656a2.479,2.479,0,0,1,1.359-.375q1.41,0,1.41,1.492Zm-.641-2.023-.965.133a1.567,1.567,0,0,0-.672.221.637.637,0,0,0-.227.561.611.611,0,0,0,.209.479.808.808,0,0,0,.557.186A1.028,1.028,0,0,0,13.5-.779a1.193,1.193,0,0,0,.311-.846Zm2.5,1.445H16.3V0H15.66V-5.922H16.3V-3.3h.016a1.515,1.515,0,0,1,1.383-.8,1.466,1.466,0,0,1,1.205.537,2.218,2.218,0,0,1,.436,1.439A2.479,2.479,0,0,1,18.852-.51a1.626,1.626,0,0,1-1.336.6A1.316,1.316,0,0,1,16.316-.578ZM16.3-2.191v.559a1.189,1.189,0,0,0,.322.842,1.07,1.07,0,0,0,.818.346,1.072,1.072,0,0,0,.912-.445,2.043,2.043,0,0,0,.33-1.238,1.613,1.613,0,0,0-.309-1.047,1.021,1.021,0,0,0-.836-.379,1.135,1.135,0,0,0-.9.389A1.427,1.427,0,0,0,16.3-2.191ZM21,0h-.641V-5.922H21Zm4.512-1.84H22.691a1.5,1.5,0,0,0,.359,1.031A1.239,1.239,0,0,0,24-.445a1.965,1.965,0,0,0,1.242-.445v.6a2.322,2.322,0,0,1-1.395.383,1.691,1.691,0,0,1-1.332-.545,2.23,2.23,0,0,1-.484-1.533,2.187,2.187,0,0,1,.529-1.521,1.7,1.7,0,0,1,1.314-.588,1.5,1.5,0,0,1,1.215.508,2.117,2.117,0,0,1,.43,1.41Zm-.656-.543a1.3,1.3,0,0,0-.268-.863.912.912,0,0,0-.732-.309,1.035,1.035,0,0,0-.77.324,1.471,1.471,0,0,0-.391.848ZM29.9,0h-.641V-.68h-.016a1.479,1.479,0,0,1-1.375.773,1.494,1.494,0,0,1-1.205-.537,2.2,2.2,0,0,1-.451-1.463,2.4,2.4,0,0,1,.5-1.59,1.649,1.649,0,0,1,1.332-.6,1.282,1.282,0,0,1,1.2.648h.016V-5.922H29.9Zm-.641-1.809V-2.4a1.144,1.144,0,0,0-.32-.82,1.074,1.074,0,0,0-.812-.336,1.106,1.106,0,0,0-.922.43,1.883,1.883,0,0,0-.336,1.188,1.693,1.693,0,0,0,.322,1.092,1.053,1.053,0,0,0,.865.4,1.094,1.094,0,0,0,.869-.387A1.441,1.441,0,0,0,29.258-1.809Z" transform="translate(651.266 55.922)" fill="#c6318c"/>
    <g id="Checkbox" transform="translate(224 108)">
      <path id="Path_10348" data-name="Path 10348" d="M7.957-.41A5.749,5.749,0,0,1,5.25.164,4.366,4.366,0,0,1,1.9-1.183,4.969,4.969,0,0,1,.643-4.717a5.208,5.208,0,0,1,1.415-3.8A4.8,4.8,0,0,1,5.646-9.967a5.754,5.754,0,0,1,2.311.4V-8.34a4.686,4.686,0,0,0-2.324-.588A3.566,3.566,0,0,0,2.9-7.8,4.249,4.249,0,0,0,1.846-4.785a4.043,4.043,0,0,0,.981,2.854A3.338,3.338,0,0,0,5.4-.868a4.828,4.828,0,0,0,2.557-.656Zm4.771.574A3.247,3.247,0,0,1,10.25-.817a3.634,3.634,0,0,1-.926-2.6,3.785,3.785,0,0,1,.964-2.755,3.465,3.465,0,0,1,2.6-.991,3.14,3.14,0,0,1,2.444.964,3.822,3.822,0,0,1,.878,2.673,3.761,3.761,0,0,1-.947,2.683A3.317,3.317,0,0,1,12.729.164Zm.082-6.385a2.132,2.132,0,0,0-1.709.735,3.018,3.018,0,0,0-.629,2.027A2.854,2.854,0,0,0,11.108-1.5a2.161,2.161,0,0,0,1.7.718,2.049,2.049,0,0,0,1.671-.7,3.055,3.055,0,0,0,.584-2,3.108,3.108,0,0,0-.584-2.023A2.04,2.04,0,0,0,12.811-6.221Zm8.846.355a1.371,1.371,0,0,0-.848-.226,1.431,1.431,0,0,0-1.2.677,3.129,3.129,0,0,0-.482,1.846V0H18.006V-7h1.121v1.442h.027a2.444,2.444,0,0,1,.731-1.152,1.668,1.668,0,0,1,1.1-.414,1.83,1.83,0,0,1,.67.1ZM28.376-7,25.587,0h-1.1L21.834-7h1.23l1.777,5.086a4.565,4.565,0,0,1,.246.978h.027a4.622,4.622,0,0,1,.219-.95L27.193-7Zm6.829,3.78H30.263a2.618,2.618,0,0,0,.629,1.8,2.168,2.168,0,0,0,1.654.636,3.439,3.439,0,0,0,2.174-.779V-.506a4.063,4.063,0,0,1-2.44.67A2.959,2.959,0,0,1,29.948-.79,3.9,3.9,0,0,1,29.1-3.473a3.828,3.828,0,0,1,.926-2.663,2.97,2.97,0,0,1,2.3-1.029,2.632,2.632,0,0,1,2.126.889,3.705,3.705,0,0,1,.752,2.468Zm-1.148-.95a2.281,2.281,0,0,0-.468-1.511,1.6,1.6,0,0,0-1.282-.54,1.811,1.811,0,0,0-1.347.567,2.575,2.575,0,0,0-.684,1.483Zm6.091,4.1A2.161,2.161,0,0,1,39.1.15Q37.263.15,37.263-1.9V-6.043h-1.2V-7h1.2V-8.709l1.121-.362V-7h1.764v.957H38.384V-2.1a1.635,1.635,0,0,0,.239,1,.955.955,0,0,0,.793.3,1.179,1.179,0,0,0,.731-.232Zm4.744,0A2.161,2.161,0,0,1,43.846.15Q42.007.15,42.007-1.9V-6.043H40.8V-7h1.2V-8.709l1.121-.362V-7h1.764v.957H43.128V-2.1a1.635,1.635,0,0,0,.239,1,.955.955,0,0,0,.793.3,1.179,1.179,0,0,0,.731-.232ZM52.015-3.22H47.072a2.618,2.618,0,0,0,.629,1.8,2.168,2.168,0,0,0,1.654.636,3.439,3.439,0,0,0,2.174-.779V-.506a4.063,4.063,0,0,1-2.44.67A2.959,2.959,0,0,1,46.758-.79a3.9,3.9,0,0,1-.848-2.683,3.828,3.828,0,0,1,.926-2.663,2.97,2.97,0,0,1,2.3-1.029,2.632,2.632,0,0,1,2.126.889,3.705,3.705,0,0,1,.752,2.468Zm-1.148-.95A2.281,2.281,0,0,0,50.4-5.681a1.6,1.6,0,0,0-1.282-.54,1.811,1.811,0,0,0-1.347.567,2.575,2.575,0,0,0-.684,1.483Z" transform="translate(30 17)" fill="#1a1a1e" stroke="rgba(0,0,0,0)" stroke-width="1"/>
      <g id="Unchecked">
        <path id="Unchecked-2" data-name="Unchecked" d="M21,2.4a.567.567,0,0,1,.6.6V21a.567.567,0,0,1-.6.6H3a.567.567,0,0,1-.6-.6V3A.567.567,0,0,1,3,2.4H21M21,0H3A2.971,2.971,0,0,0,0,3V21a2.971,2.971,0,0,0,3,3H21a2.971,2.971,0,0,0,3-3V3a2.971,2.971,0,0,0-3-3Z" fill="#9494a4"/>
      </g>
    </g>
    <g id="Checkbox-2" data-name="Checkbox" transform="translate(224 185)">
      <g id="Checked" transform="translate(0)">
        <path id="Path_5845" data-name="Path 5845" d="M46.2,0h-18a2.971,2.971,0,0,0-3,3V21a2.971,2.971,0,0,0,3,3h18a2.971,2.971,0,0,0,3-3V3A2.971,2.971,0,0,0,46.2,0ZM44.64,8.52l-8.76,8.76a1.16,1.16,0,0,1-1.68,0l-4.32-4.32a1.188,1.188,0,0,1,1.68-1.68l3.48,3.48,7.92-7.92a1.16,1.16,0,0,1,1.68,0A1.442,1.442,0,0,1,44.64,8.52Z" transform="translate(-25.2)" fill="#2777d3"/>
      </g>
      <path id="Path_10349" data-name="Path 10349" d="M7.957-.41A5.749,5.749,0,0,1,5.25.164,4.366,4.366,0,0,1,1.9-1.183,4.969,4.969,0,0,1,.643-4.717a5.208,5.208,0,0,1,1.415-3.8A4.8,4.8,0,0,1,5.646-9.967a5.754,5.754,0,0,1,2.311.4V-8.34a4.686,4.686,0,0,0-2.324-.588A3.566,3.566,0,0,0,2.9-7.8,4.249,4.249,0,0,0,1.846-4.785a4.043,4.043,0,0,0,.981,2.854A3.338,3.338,0,0,0,5.4-.868a4.828,4.828,0,0,0,2.557-.656Zm4.771.574A3.247,3.247,0,0,1,10.25-.817a3.634,3.634,0,0,1-.926-2.6,3.785,3.785,0,0,1,.964-2.755,3.465,3.465,0,0,1,2.6-.991,3.14,3.14,0,0,1,2.444.964,3.822,3.822,0,0,1,.878,2.673,3.761,3.761,0,0,1-.947,2.683A3.317,3.317,0,0,1,12.729.164Zm.082-6.385a2.132,2.132,0,0,0-1.709.735,3.018,3.018,0,0,0-.629,2.027A2.854,2.854,0,0,0,11.108-1.5a2.161,2.161,0,0,0,1.7.718,2.049,2.049,0,0,0,1.671-.7,3.055,3.055,0,0,0,.584-2,3.108,3.108,0,0,0-.584-2.023A2.04,2.04,0,0,0,12.811-6.221Zm8.846.355a1.371,1.371,0,0,0-.848-.226,1.431,1.431,0,0,0-1.2.677,3.129,3.129,0,0,0-.482,1.846V0H18.006V-7h1.121v1.442h.027a2.444,2.444,0,0,1,.731-1.152,1.668,1.668,0,0,1,1.1-.414,1.83,1.83,0,0,1,.67.1ZM28.376-7,25.587,0h-1.1L21.834-7h1.23l1.777,5.086a4.565,4.565,0,0,1,.246.978h.027a4.622,4.622,0,0,1,.219-.95L27.193-7Zm6.829,3.78H30.263a2.618,2.618,0,0,0,.629,1.8,2.168,2.168,0,0,0,1.654.636,3.439,3.439,0,0,0,2.174-.779V-.506a4.063,4.063,0,0,1-2.44.67A2.959,2.959,0,0,1,29.948-.79,3.9,3.9,0,0,1,29.1-3.473a3.828,3.828,0,0,1,.926-2.663,2.97,2.97,0,0,1,2.3-1.029,2.632,2.632,0,0,1,2.126.889,3.705,3.705,0,0,1,.752,2.468Zm-1.148-.95a2.281,2.281,0,0,0-.468-1.511,1.6,1.6,0,0,0-1.282-.54,1.811,1.811,0,0,0-1.347.567,2.575,2.575,0,0,0-.684,1.483Zm6.091,4.1A2.161,2.161,0,0,1,39.1.15Q37.263.15,37.263-1.9V-6.043h-1.2V-7h1.2V-8.709l1.121-.362V-7h1.764v.957H38.384V-2.1a1.635,1.635,0,0,0,.239,1,.955.955,0,0,0,.793.3,1.179,1.179,0,0,0,.731-.232Zm4.744,0A2.161,2.161,0,0,1,43.846.15Q42.007.15,42.007-1.9V-6.043H40.8V-7h1.2V-8.709l1.121-.362V-7h1.764v.957H43.128V-2.1a1.635,1.635,0,0,0,.239,1,.955.955,0,0,0,.793.3,1.179,1.179,0,0,0,.731-.232ZM52.015-3.22H47.072a2.618,2.618,0,0,0,.629,1.8,2.168,2.168,0,0,0,1.654.636,3.439,3.439,0,0,0,2.174-.779V-.506a4.063,4.063,0,0,1-2.44.67A2.959,2.959,0,0,1,46.758-.79a3.9,3.9,0,0,1-.848-2.683,3.828,3.828,0,0,1,.926-2.663,2.97,2.97,0,0,1,2.3-1.029,2.632,2.632,0,0,1,2.126.889,3.705,3.705,0,0,1,.752,2.468Zm-1.148-.95A2.281,2.281,0,0,0,50.4-5.681a1.6,1.6,0,0,0-1.282-.54,1.811,1.811,0,0,0-1.347.567,2.575,2.575,0,0,0-.684,1.483Z" transform="translate(30 18)" fill="#1a1a1e" stroke="rgba(0,0,0,0)" stroke-width="1" opacity="0.8"/>
    </g>
    <g id="Checkbox-3" data-name="Checkbox" transform="translate(490 106)">
      <path id="Path_10352" data-name="Path 10352" d="M7.957-.41A5.749,5.749,0,0,1,5.25.164,4.366,4.366,0,0,1,1.9-1.183,4.969,4.969,0,0,1,.643-4.717a5.208,5.208,0,0,1,1.415-3.8A4.8,4.8,0,0,1,5.646-9.967a5.754,5.754,0,0,1,2.311.4V-8.34a4.686,4.686,0,0,0-2.324-.588A3.566,3.566,0,0,0,2.9-7.8,4.249,4.249,0,0,0,1.846-4.785a4.043,4.043,0,0,0,.981,2.854A3.338,3.338,0,0,0,5.4-.868a4.828,4.828,0,0,0,2.557-.656Zm4.771.574A3.247,3.247,0,0,1,10.25-.817a3.634,3.634,0,0,1-.926-2.6,3.785,3.785,0,0,1,.964-2.755,3.465,3.465,0,0,1,2.6-.991,3.14,3.14,0,0,1,2.444.964,3.822,3.822,0,0,1,.878,2.673,3.761,3.761,0,0,1-.947,2.683A3.317,3.317,0,0,1,12.729.164Zm.082-6.385a2.132,2.132,0,0,0-1.709.735,3.018,3.018,0,0,0-.629,2.027A2.854,2.854,0,0,0,11.108-1.5a2.161,2.161,0,0,0,1.7.718,2.049,2.049,0,0,0,1.671-.7,3.055,3.055,0,0,0,.584-2,3.108,3.108,0,0,0-.584-2.023A2.04,2.04,0,0,0,12.811-6.221Zm8.846.355a1.371,1.371,0,0,0-.848-.226,1.431,1.431,0,0,0-1.2.677,3.129,3.129,0,0,0-.482,1.846V0H18.006V-7h1.121v1.442h.027a2.444,2.444,0,0,1,.731-1.152,1.668,1.668,0,0,1,1.1-.414,1.83,1.83,0,0,1,.67.1ZM28.376-7,25.587,0h-1.1L21.834-7h1.23l1.777,5.086a4.565,4.565,0,0,1,.246.978h.027a4.622,4.622,0,0,1,.219-.95L27.193-7Zm6.829,3.78H30.263a2.618,2.618,0,0,0,.629,1.8,2.168,2.168,0,0,0,1.654.636,3.439,3.439,0,0,0,2.174-.779V-.506a4.063,4.063,0,0,1-2.44.67A2.959,2.959,0,0,1,29.948-.79,3.9,3.9,0,0,1,29.1-3.473a3.828,3.828,0,0,1,.926-2.663,2.97,2.97,0,0,1,2.3-1.029,2.632,2.632,0,0,1,2.126.889,3.705,3.705,0,0,1,.752,2.468Zm-1.148-.95a2.281,2.281,0,0,0-.468-1.511,1.6,1.6,0,0,0-1.282-.54,1.811,1.811,0,0,0-1.347.567,2.575,2.575,0,0,0-.684,1.483Zm6.091,4.1A2.161,2.161,0,0,1,39.1.15Q37.263.15,37.263-1.9V-6.043h-1.2V-7h1.2V-8.709l1.121-.362V-7h1.764v.957H38.384V-2.1a1.635,1.635,0,0,0,.239,1,.955.955,0,0,0,.793.3,1.179,1.179,0,0,0,.731-.232Zm4.744,0A2.161,2.161,0,0,1,43.846.15Q42.007.15,42.007-1.9V-6.043H40.8V-7h1.2V-8.709l1.121-.362V-7h1.764v.957H43.128V-2.1a1.635,1.635,0,0,0,.239,1,.955.955,0,0,0,.793.3,1.179,1.179,0,0,0,.731-.232ZM52.015-3.22H47.072a2.618,2.618,0,0,0,.629,1.8,2.168,2.168,0,0,0,1.654.636,3.439,3.439,0,0,0,2.174-.779V-.506a4.063,4.063,0,0,1-2.44.67A2.959,2.959,0,0,1,46.758-.79a3.9,3.9,0,0,1-.848-2.683,3.828,3.828,0,0,1,.926-2.663,2.97,2.97,0,0,1,2.3-1.029,2.632,2.632,0,0,1,2.126.889,3.705,3.705,0,0,1,.752,2.468Zm-1.148-.95A2.281,2.281,0,0,0,50.4-5.681a1.6,1.6,0,0,0-1.282-.54,1.811,1.811,0,0,0-1.347.567,2.575,2.575,0,0,0-.684,1.483Z" transform="translate(32 19)" fill="#1a1a1e" stroke="rgba(0,0,0,0)" stroke-width="1"/>
      <g id="Unchecked-3" data-name="Unchecked" transform="translate(2 2)">
        <path id="Unchecked-4" data-name="Unchecked" d="M21,2.4a.567.567,0,0,1,.6.6V21a.567.567,0,0,1-.6.6H3a.567.567,0,0,1-.6-.6V3A.567.567,0,0,1,3,2.4H21M21,0H3A2.971,2.971,0,0,0,0,3V21a2.971,2.971,0,0,0,3,3H21a2.971,2.971,0,0,0,3-3V3a2.971,2.971,0,0,0-3-3Z" fill="#9494a4"/>
      </g>
      <g id="Rectangle_8138" data-name="Rectangle 8138" fill="none" stroke="#2777d3" stroke-width="1">
        <rect width="28" height="28" rx="5" stroke="none"/>
        <rect x="0.5" y="0.5" width="27" height="27" rx="4.5" fill="none"/>
      </g>
    </g>
    <g id="Checkbox-4" data-name="Checkbox" transform="translate(490 184)">
      <g id="Checked-2" data-name="Checked" transform="translate(2 1)">
        <path id="Path_5845-2" data-name="Path 5845" d="M46.2,0h-18a2.971,2.971,0,0,0-3,3V21a2.971,2.971,0,0,0,3,3h18a2.971,2.971,0,0,0,3-3V3A2.971,2.971,0,0,0,46.2,0ZM44.64,8.52l-8.76,8.76a1.16,1.16,0,0,1-1.68,0l-4.32-4.32a1.188,1.188,0,0,1,1.68-1.68l3.48,3.48,7.92-7.92a1.16,1.16,0,0,1,1.68,0A1.442,1.442,0,0,1,44.64,8.52Z" transform="translate(-25.2 1)" fill="#2777d3"/>
      </g>
      <path id="Path_10353" data-name="Path 10353" d="M7.957-.41A5.749,5.749,0,0,1,5.25.164,4.366,4.366,0,0,1,1.9-1.183,4.969,4.969,0,0,1,.643-4.717a5.208,5.208,0,0,1,1.415-3.8A4.8,4.8,0,0,1,5.646-9.967a5.754,5.754,0,0,1,2.311.4V-8.34a4.686,4.686,0,0,0-2.324-.588A3.566,3.566,0,0,0,2.9-7.8,4.249,4.249,0,0,0,1.846-4.785a4.043,4.043,0,0,0,.981,2.854A3.338,3.338,0,0,0,5.4-.868a4.828,4.828,0,0,0,2.557-.656Zm4.771.574A3.247,3.247,0,0,1,10.25-.817a3.634,3.634,0,0,1-.926-2.6,3.785,3.785,0,0,1,.964-2.755,3.465,3.465,0,0,1,2.6-.991,3.14,3.14,0,0,1,2.444.964,3.822,3.822,0,0,1,.878,2.673,3.761,3.761,0,0,1-.947,2.683A3.317,3.317,0,0,1,12.729.164Zm.082-6.385a2.132,2.132,0,0,0-1.709.735,3.018,3.018,0,0,0-.629,2.027A2.854,2.854,0,0,0,11.108-1.5a2.161,2.161,0,0,0,1.7.718,2.049,2.049,0,0,0,1.671-.7,3.055,3.055,0,0,0,.584-2,3.108,3.108,0,0,0-.584-2.023A2.04,2.04,0,0,0,12.811-6.221Zm8.846.355a1.371,1.371,0,0,0-.848-.226,1.431,1.431,0,0,0-1.2.677,3.129,3.129,0,0,0-.482,1.846V0H18.006V-7h1.121v1.442h.027a2.444,2.444,0,0,1,.731-1.152,1.668,1.668,0,0,1,1.1-.414,1.83,1.83,0,0,1,.67.1ZM28.376-7,25.587,0h-1.1L21.834-7h1.23l1.777,5.086a4.565,4.565,0,0,1,.246.978h.027a4.622,4.622,0,0,1,.219-.95L27.193-7Zm6.829,3.78H30.263a2.618,2.618,0,0,0,.629,1.8,2.168,2.168,0,0,0,1.654.636,3.439,3.439,0,0,0,2.174-.779V-.506a4.063,4.063,0,0,1-2.44.67A2.959,2.959,0,0,1,29.948-.79,3.9,3.9,0,0,1,29.1-3.473a3.828,3.828,0,0,1,.926-2.663,2.97,2.97,0,0,1,2.3-1.029,2.632,2.632,0,0,1,2.126.889,3.705,3.705,0,0,1,.752,2.468Zm-1.148-.95a2.281,2.281,0,0,0-.468-1.511,1.6,1.6,0,0,0-1.282-.54,1.811,1.811,0,0,0-1.347.567,2.575,2.575,0,0,0-.684,1.483Zm6.091,4.1A2.161,2.161,0,0,1,39.1.15Q37.263.15,37.263-1.9V-6.043h-1.2V-7h1.2V-8.709l1.121-.362V-7h1.764v.957H38.384V-2.1a1.635,1.635,0,0,0,.239,1,.955.955,0,0,0,.793.3,1.179,1.179,0,0,0,.731-.232Zm4.744,0A2.161,2.161,0,0,1,43.846.15Q42.007.15,42.007-1.9V-6.043H40.8V-7h1.2V-8.709l1.121-.362V-7h1.764v.957H43.128V-2.1a1.635,1.635,0,0,0,.239,1,.955.955,0,0,0,.793.3,1.179,1.179,0,0,0,.731-.232ZM52.015-3.22H47.072a2.618,2.618,0,0,0,.629,1.8,2.168,2.168,0,0,0,1.654.636,3.439,3.439,0,0,0,2.174-.779V-.506a4.063,4.063,0,0,1-2.44.67A2.959,2.959,0,0,1,46.758-.79a3.9,3.9,0,0,1-.848-2.683,3.828,3.828,0,0,1,.926-2.663,2.97,2.97,0,0,1,2.3-1.029,2.632,2.632,0,0,1,2.126.889,3.705,3.705,0,0,1,.752,2.468Zm-1.148-.95A2.281,2.281,0,0,0,50.4-5.681a1.6,1.6,0,0,0-1.282-.54,1.811,1.811,0,0,0-1.347.567,2.575,2.575,0,0,0-.684,1.483Z" transform="translate(32 19)" fill="#1a1a1e" stroke="rgba(0,0,0,0)" stroke-width="1"/>
      <g id="Rectangle_8139" data-name="Rectangle 8139" fill="none" stroke="#2777d3" stroke-width="1">
        <rect width="28" height="28" rx="5" stroke="none"/>
        <rect x="0.5" y="0.5" width="27" height="27" rx="4.5" fill="none"/>
      </g>
    </g>
    <g id="Checkbox-5" data-name="Checkbox" transform="translate(357 108)">
      <g id="Checked-3" data-name="Checked" transform="translate(0 -1)">
        <path id="Unchecked-5" data-name="Unchecked" d="M21,2.4a.567.567,0,0,1,.6.6V21a.567.567,0,0,1-.6.6H3a.567.567,0,0,1-.6-.6V3A.567.567,0,0,1,3,2.4H21M21,0H3A2.971,2.971,0,0,0,0,3V21a2.971,2.971,0,0,0,3,3H21a2.971,2.971,0,0,0,3-3V3a2.971,2.971,0,0,0-3-3Z" transform="translate(0 1)" fill="#606071"/>
      </g>
      <path id="Path_10350" data-name="Path 10350" d="M7.957-.41A5.749,5.749,0,0,1,5.25.164,4.366,4.366,0,0,1,1.9-1.183,4.969,4.969,0,0,1,.643-4.717a5.208,5.208,0,0,1,1.415-3.8A4.8,4.8,0,0,1,5.646-9.967a5.754,5.754,0,0,1,2.311.4V-8.34a4.686,4.686,0,0,0-2.324-.588A3.566,3.566,0,0,0,2.9-7.8,4.249,4.249,0,0,0,1.846-4.785a4.043,4.043,0,0,0,.981,2.854A3.338,3.338,0,0,0,5.4-.868a4.828,4.828,0,0,0,2.557-.656Zm4.771.574A3.247,3.247,0,0,1,10.25-.817a3.634,3.634,0,0,1-.926-2.6,3.785,3.785,0,0,1,.964-2.755,3.465,3.465,0,0,1,2.6-.991,3.14,3.14,0,0,1,2.444.964,3.822,3.822,0,0,1,.878,2.673,3.761,3.761,0,0,1-.947,2.683A3.317,3.317,0,0,1,12.729.164Zm.082-6.385a2.132,2.132,0,0,0-1.709.735,3.018,3.018,0,0,0-.629,2.027A2.854,2.854,0,0,0,11.108-1.5a2.161,2.161,0,0,0,1.7.718,2.049,2.049,0,0,0,1.671-.7,3.055,3.055,0,0,0,.584-2,3.108,3.108,0,0,0-.584-2.023A2.04,2.04,0,0,0,12.811-6.221Zm8.846.355a1.371,1.371,0,0,0-.848-.226,1.431,1.431,0,0,0-1.2.677,3.129,3.129,0,0,0-.482,1.846V0H18.006V-7h1.121v1.442h.027a2.444,2.444,0,0,1,.731-1.152,1.668,1.668,0,0,1,1.1-.414,1.83,1.83,0,0,1,.67.1ZM28.376-7,25.587,0h-1.1L21.834-7h1.23l1.777,5.086a4.565,4.565,0,0,1,.246.978h.027a4.622,4.622,0,0,1,.219-.95L27.193-7Zm6.829,3.78H30.263a2.618,2.618,0,0,0,.629,1.8,2.168,2.168,0,0,0,1.654.636,3.439,3.439,0,0,0,2.174-.779V-.506a4.063,4.063,0,0,1-2.44.67A2.959,2.959,0,0,1,29.948-.79,3.9,3.9,0,0,1,29.1-3.473a3.828,3.828,0,0,1,.926-2.663,2.97,2.97,0,0,1,2.3-1.029,2.632,2.632,0,0,1,2.126.889,3.705,3.705,0,0,1,.752,2.468Zm-1.148-.95a2.281,2.281,0,0,0-.468-1.511,1.6,1.6,0,0,0-1.282-.54,1.811,1.811,0,0,0-1.347.567,2.575,2.575,0,0,0-.684,1.483Zm6.091,4.1A2.161,2.161,0,0,1,39.1.15Q37.263.15,37.263-1.9V-6.043h-1.2V-7h1.2V-8.709l1.121-.362V-7h1.764v.957H38.384V-2.1a1.635,1.635,0,0,0,.239,1,.955.955,0,0,0,.793.3,1.179,1.179,0,0,0,.731-.232Zm4.744,0A2.161,2.161,0,0,1,43.846.15Q42.007.15,42.007-1.9V-6.043H40.8V-7h1.2V-8.709l1.121-.362V-7h1.764v.957H43.128V-2.1a1.635,1.635,0,0,0,.239,1,.955.955,0,0,0,.793.3,1.179,1.179,0,0,0,.731-.232ZM52.015-3.22H47.072a2.618,2.618,0,0,0,.629,1.8,2.168,2.168,0,0,0,1.654.636,3.439,3.439,0,0,0,2.174-.779V-.506a4.063,4.063,0,0,1-2.44.67A2.959,2.959,0,0,1,46.758-.79a3.9,3.9,0,0,1-.848-2.683,3.828,3.828,0,0,1,.926-2.663,2.97,2.97,0,0,1,2.3-1.029,2.632,2.632,0,0,1,2.126.889,3.705,3.705,0,0,1,.752,2.468Zm-1.148-.95A2.281,2.281,0,0,0,50.4-5.681a1.6,1.6,0,0,0-1.282-.54,1.811,1.811,0,0,0-1.347.567,2.575,2.575,0,0,0-.684,1.483Z" transform="translate(30 17)" fill="#1a1a1e" stroke="rgba(0,0,0,0)" stroke-width="1"/>
    </g>
    <g id="Checkbox-6" data-name="Checkbox" transform="translate(357 186)">
      <g id="Checked-4" data-name="Checked" transform="translate(0)">
        <path id="Path_5845-3" data-name="Path 5845" d="M46.2,0h-18a2.971,2.971,0,0,0-3,3V21a2.971,2.971,0,0,0,3,3h18a2.971,2.971,0,0,0,3-3V3A2.971,2.971,0,0,0,46.2,0ZM44.64,8.52l-8.76,8.76a1.16,1.16,0,0,1-1.68,0l-4.32-4.32a1.188,1.188,0,0,1,1.68-1.68l3.48,3.48,7.92-7.92a1.16,1.16,0,0,1,1.68,0A1.442,1.442,0,0,1,44.64,8.52Z" transform="translate(-25.2)" fill="#4e92df"/>
      </g>
      <path id="Path_10351" data-name="Path 10351" d="M7.957-.41A5.749,5.749,0,0,1,5.25.164,4.366,4.366,0,0,1,1.9-1.183,4.969,4.969,0,0,1,.643-4.717a5.208,5.208,0,0,1,1.415-3.8A4.8,4.8,0,0,1,5.646-9.967a5.754,5.754,0,0,1,2.311.4V-8.34a4.686,4.686,0,0,0-2.324-.588A3.566,3.566,0,0,0,2.9-7.8,4.249,4.249,0,0,0,1.846-4.785a4.043,4.043,0,0,0,.981,2.854A3.338,3.338,0,0,0,5.4-.868a4.828,4.828,0,0,0,2.557-.656Zm4.771.574A3.247,3.247,0,0,1,10.25-.817a3.634,3.634,0,0,1-.926-2.6,3.785,3.785,0,0,1,.964-2.755,3.465,3.465,0,0,1,2.6-.991,3.14,3.14,0,0,1,2.444.964,3.822,3.822,0,0,1,.878,2.673,3.761,3.761,0,0,1-.947,2.683A3.317,3.317,0,0,1,12.729.164Zm.082-6.385a2.132,2.132,0,0,0-1.709.735,3.018,3.018,0,0,0-.629,2.027A2.854,2.854,0,0,0,11.108-1.5a2.161,2.161,0,0,0,1.7.718,2.049,2.049,0,0,0,1.671-.7,3.055,3.055,0,0,0,.584-2,3.108,3.108,0,0,0-.584-2.023A2.04,2.04,0,0,0,12.811-6.221Zm8.846.355a1.371,1.371,0,0,0-.848-.226,1.431,1.431,0,0,0-1.2.677,3.129,3.129,0,0,0-.482,1.846V0H18.006V-7h1.121v1.442h.027a2.444,2.444,0,0,1,.731-1.152,1.668,1.668,0,0,1,1.1-.414,1.83,1.83,0,0,1,.67.1ZM28.376-7,25.587,0h-1.1L21.834-7h1.23l1.777,5.086a4.565,4.565,0,0,1,.246.978h.027a4.622,4.622,0,0,1,.219-.95L27.193-7Zm6.829,3.78H30.263a2.618,2.618,0,0,0,.629,1.8,2.168,2.168,0,0,0,1.654.636,3.439,3.439,0,0,0,2.174-.779V-.506a4.063,4.063,0,0,1-2.44.67A2.959,2.959,0,0,1,29.948-.79,3.9,3.9,0,0,1,29.1-3.473a3.828,3.828,0,0,1,.926-2.663,2.97,2.97,0,0,1,2.3-1.029,2.632,2.632,0,0,1,2.126.889,3.705,3.705,0,0,1,.752,2.468Zm-1.148-.95a2.281,2.281,0,0,0-.468-1.511,1.6,1.6,0,0,0-1.282-.54,1.811,1.811,0,0,0-1.347.567,2.575,2.575,0,0,0-.684,1.483Zm6.091,4.1A2.161,2.161,0,0,1,39.1.15Q37.263.15,37.263-1.9V-6.043h-1.2V-7h1.2V-8.709l1.121-.362V-7h1.764v.957H38.384V-2.1a1.635,1.635,0,0,0,.239,1,.955.955,0,0,0,.793.3,1.179,1.179,0,0,0,.731-.232Zm4.744,0A2.161,2.161,0,0,1,43.846.15Q42.007.15,42.007-1.9V-6.043H40.8V-7h1.2V-8.709l1.121-.362V-7h1.764v.957H43.128V-2.1a1.635,1.635,0,0,0,.239,1,.955.955,0,0,0,.793.3,1.179,1.179,0,0,0,.731-.232ZM52.015-3.22H47.072a2.618,2.618,0,0,0,.629,1.8,2.168,2.168,0,0,0,1.654.636,3.439,3.439,0,0,0,2.174-.779V-.506a4.063,4.063,0,0,1-2.44.67A2.959,2.959,0,0,1,46.758-.79a3.9,3.9,0,0,1-.848-2.683,3.828,3.828,0,0,1,.926-2.663,2.97,2.97,0,0,1,2.3-1.029,2.632,2.632,0,0,1,2.126.889,3.705,3.705,0,0,1,.752,2.468Zm-1.148-.95A2.281,2.281,0,0,0,50.4-5.681a1.6,1.6,0,0,0-1.282-.54,1.811,1.811,0,0,0-1.347.567,2.575,2.575,0,0,0-.684,1.483Z" transform="translate(30 18)" fill="#1a1a1e" stroke="rgba(0,0,0,0)" stroke-width="1"/>
    </g>
    <g id="Checkbox-7" data-name="Checkbox" transform="translate(626 108)">
      <path id="Path_10354" data-name="Path 10354" d="M7.957-.41A5.749,5.749,0,0,1,5.25.164,4.366,4.366,0,0,1,1.9-1.183,4.969,4.969,0,0,1,.643-4.717a5.208,5.208,0,0,1,1.415-3.8A4.8,4.8,0,0,1,5.646-9.967a5.754,5.754,0,0,1,2.311.4V-8.34a4.686,4.686,0,0,0-2.324-.588A3.566,3.566,0,0,0,2.9-7.8,4.249,4.249,0,0,0,1.846-4.785a4.043,4.043,0,0,0,.981,2.854A3.338,3.338,0,0,0,5.4-.868a4.828,4.828,0,0,0,2.557-.656Zm4.771.574A3.247,3.247,0,0,1,10.25-.817a3.634,3.634,0,0,1-.926-2.6,3.785,3.785,0,0,1,.964-2.755,3.465,3.465,0,0,1,2.6-.991,3.14,3.14,0,0,1,2.444.964,3.822,3.822,0,0,1,.878,2.673,3.761,3.761,0,0,1-.947,2.683A3.317,3.317,0,0,1,12.729.164Zm.082-6.385a2.132,2.132,0,0,0-1.709.735,3.018,3.018,0,0,0-.629,2.027A2.854,2.854,0,0,0,11.108-1.5a2.161,2.161,0,0,0,1.7.718,2.049,2.049,0,0,0,1.671-.7,3.055,3.055,0,0,0,.584-2,3.108,3.108,0,0,0-.584-2.023A2.04,2.04,0,0,0,12.811-6.221Zm8.846.355a1.371,1.371,0,0,0-.848-.226,1.431,1.431,0,0,0-1.2.677,3.129,3.129,0,0,0-.482,1.846V0H18.006V-7h1.121v1.442h.027a2.444,2.444,0,0,1,.731-1.152,1.668,1.668,0,0,1,1.1-.414,1.83,1.83,0,0,1,.67.1ZM28.376-7,25.587,0h-1.1L21.834-7h1.23l1.777,5.086a4.565,4.565,0,0,1,.246.978h.027a4.622,4.622,0,0,1,.219-.95L27.193-7Zm6.829,3.78H30.263a2.618,2.618,0,0,0,.629,1.8,2.168,2.168,0,0,0,1.654.636,3.439,3.439,0,0,0,2.174-.779V-.506a4.063,4.063,0,0,1-2.44.67A2.959,2.959,0,0,1,29.948-.79,3.9,3.9,0,0,1,29.1-3.473a3.828,3.828,0,0,1,.926-2.663,2.97,2.97,0,0,1,2.3-1.029,2.632,2.632,0,0,1,2.126.889,3.705,3.705,0,0,1,.752,2.468Zm-1.148-.95a2.281,2.281,0,0,0-.468-1.511,1.6,1.6,0,0,0-1.282-.54,1.811,1.811,0,0,0-1.347.567,2.575,2.575,0,0,0-.684,1.483Zm6.091,4.1A2.161,2.161,0,0,1,39.1.15Q37.263.15,37.263-1.9V-6.043h-1.2V-7h1.2V-8.709l1.121-.362V-7h1.764v.957H38.384V-2.1a1.635,1.635,0,0,0,.239,1,.955.955,0,0,0,.793.3,1.179,1.179,0,0,0,.731-.232Zm4.744,0A2.161,2.161,0,0,1,43.846.15Q42.007.15,42.007-1.9V-6.043H40.8V-7h1.2V-8.709l1.121-.362V-7h1.764v.957H43.128V-2.1a1.635,1.635,0,0,0,.239,1,.955.955,0,0,0,.793.3,1.179,1.179,0,0,0,.731-.232ZM52.015-3.22H47.072a2.618,2.618,0,0,0,.629,1.8,2.168,2.168,0,0,0,1.654.636,3.439,3.439,0,0,0,2.174-.779V-.506a4.063,4.063,0,0,1-2.44.67A2.959,2.959,0,0,1,46.758-.79a3.9,3.9,0,0,1-.848-2.683,3.828,3.828,0,0,1,.926-2.663,2.97,2.97,0,0,1,2.3-1.029,2.632,2.632,0,0,1,2.126.889,3.705,3.705,0,0,1,.752,2.468Zm-1.148-.95A2.281,2.281,0,0,0,50.4-5.681a1.6,1.6,0,0,0-1.282-.54,1.811,1.811,0,0,0-1.347.567,2.575,2.575,0,0,0-.684,1.483Z" transform="translate(30 17)" fill="#afafbb" stroke="rgba(0,0,0,0)" stroke-width="1"/>
      <g id="Unchecked-6" data-name="Unchecked">
        <path id="Unchecked-7" data-name="Unchecked" d="M21,2.4a.567.567,0,0,1,.6.6V21a.567.567,0,0,1-.6.6H3a.567.567,0,0,1-.6-.6V3A.567.567,0,0,1,3,2.4H21M21,0H3A2.971,2.971,0,0,0,0,3V21a2.971,2.971,0,0,0,3,3H21a2.971,2.971,0,0,0,3-3V3a2.971,2.971,0,0,0-3-3Z" fill="#e6e6ea"/>
      </g>
    </g>
    <g id="Checkbox-8" data-name="Checkbox" transform="translate(626 186)">
      <path id="Path_10355" data-name="Path 10355" d="M7.957-.41A5.749,5.749,0,0,1,5.25.164,4.366,4.366,0,0,1,1.9-1.183,4.969,4.969,0,0,1,.643-4.717a5.208,5.208,0,0,1,1.415-3.8A4.8,4.8,0,0,1,5.646-9.967a5.754,5.754,0,0,1,2.311.4V-8.34a4.686,4.686,0,0,0-2.324-.588A3.566,3.566,0,0,0,2.9-7.8,4.249,4.249,0,0,0,1.846-4.785a4.043,4.043,0,0,0,.981,2.854A3.338,3.338,0,0,0,5.4-.868a4.828,4.828,0,0,0,2.557-.656Zm4.771.574A3.247,3.247,0,0,1,10.25-.817a3.634,3.634,0,0,1-.926-2.6,3.785,3.785,0,0,1,.964-2.755,3.465,3.465,0,0,1,2.6-.991,3.14,3.14,0,0,1,2.444.964,3.822,3.822,0,0,1,.878,2.673,3.761,3.761,0,0,1-.947,2.683A3.317,3.317,0,0,1,12.729.164Zm.082-6.385a2.132,2.132,0,0,0-1.709.735,3.018,3.018,0,0,0-.629,2.027A2.854,2.854,0,0,0,11.108-1.5a2.161,2.161,0,0,0,1.7.718,2.049,2.049,0,0,0,1.671-.7,3.055,3.055,0,0,0,.584-2,3.108,3.108,0,0,0-.584-2.023A2.04,2.04,0,0,0,12.811-6.221Zm8.846.355a1.371,1.371,0,0,0-.848-.226,1.431,1.431,0,0,0-1.2.677,3.129,3.129,0,0,0-.482,1.846V0H18.006V-7h1.121v1.442h.027a2.444,2.444,0,0,1,.731-1.152,1.668,1.668,0,0,1,1.1-.414,1.83,1.83,0,0,1,.67.1ZM28.376-7,25.587,0h-1.1L21.834-7h1.23l1.777,5.086a4.565,4.565,0,0,1,.246.978h.027a4.622,4.622,0,0,1,.219-.95L27.193-7Zm6.829,3.78H30.263a2.618,2.618,0,0,0,.629,1.8,2.168,2.168,0,0,0,1.654.636,3.439,3.439,0,0,0,2.174-.779V-.506a4.063,4.063,0,0,1-2.44.67A2.959,2.959,0,0,1,29.948-.79,3.9,3.9,0,0,1,29.1-3.473a3.828,3.828,0,0,1,.926-2.663,2.97,2.97,0,0,1,2.3-1.029,2.632,2.632,0,0,1,2.126.889,3.705,3.705,0,0,1,.752,2.468Zm-1.148-.95a2.281,2.281,0,0,0-.468-1.511,1.6,1.6,0,0,0-1.282-.54,1.811,1.811,0,0,0-1.347.567,2.575,2.575,0,0,0-.684,1.483Zm6.091,4.1A2.161,2.161,0,0,1,39.1.15Q37.263.15,37.263-1.9V-6.043h-1.2V-7h1.2V-8.709l1.121-.362V-7h1.764v.957H38.384V-2.1a1.635,1.635,0,0,0,.239,1,.955.955,0,0,0,.793.3,1.179,1.179,0,0,0,.731-.232Zm4.744,0A2.161,2.161,0,0,1,43.846.15Q42.007.15,42.007-1.9V-6.043H40.8V-7h1.2V-8.709l1.121-.362V-7h1.764v.957H43.128V-2.1a1.635,1.635,0,0,0,.239,1,.955.955,0,0,0,.793.3,1.179,1.179,0,0,0,.731-.232ZM52.015-3.22H47.072a2.618,2.618,0,0,0,.629,1.8,2.168,2.168,0,0,0,1.654.636,3.439,3.439,0,0,0,2.174-.779V-.506a4.063,4.063,0,0,1-2.44.67A2.959,2.959,0,0,1,46.758-.79a3.9,3.9,0,0,1-.848-2.683,3.828,3.828,0,0,1,.926-2.663,2.97,2.97,0,0,1,2.3-1.029,2.632,2.632,0,0,1,2.126.889,3.705,3.705,0,0,1,.752,2.468Zm-1.148-.95A2.281,2.281,0,0,0,50.4-5.681a1.6,1.6,0,0,0-1.282-.54,1.811,1.811,0,0,0-1.347.567,2.575,2.575,0,0,0-.684,1.483Z" transform="translate(30 17)" fill="#afafbb" stroke="rgba(0,0,0,0)" stroke-width="1"/>
      <g id="Checked-5" data-name="Checked" transform="translate(0)">
        <path id="Path_5845-4" data-name="Path 5845" d="M46.2,0h-18a2.971,2.971,0,0,0-3,3V21a2.971,2.971,0,0,0,3,3h18a2.971,2.971,0,0,0,3-3V3A2.971,2.971,0,0,0,46.2,0ZM44.64,8.52l-8.76,8.76a1.16,1.16,0,0,1-1.68,0l-4.32-4.32a1.188,1.188,0,0,1,1.68-1.68l3.48,3.48,7.92-7.92a1.16,1.16,0,0,1,1.68,0A1.442,1.442,0,0,1,44.64,8.52Z" transform="translate(-25.2)" fill="#d0e2f6"/>
      </g>
    </g>
    <text id="Tri-state" transform="translate(146 282)" fill="#c6318c" font-size="8" font-family="SegoeUI, Segoe UI"><tspan x="0" y="0">Tri-state</tspan></text>
    <g id="Tri-state_Checkbox" data-name="Tri-state Checkbox" transform="translate(224 267)">
      <path id="Path_10300" data-name="Path 10300" d="M7.957-.41A5.749,5.749,0,0,1,5.25.164,4.366,4.366,0,0,1,1.9-1.183,4.969,4.969,0,0,1,.643-4.717a5.208,5.208,0,0,1,1.415-3.8A4.8,4.8,0,0,1,5.646-9.967a5.754,5.754,0,0,1,2.311.4V-8.34a4.686,4.686,0,0,0-2.324-.588A3.566,3.566,0,0,0,2.9-7.8,4.249,4.249,0,0,0,1.846-4.785a4.043,4.043,0,0,0,.981,2.854A3.338,3.338,0,0,0,5.4-.868a4.828,4.828,0,0,0,2.557-.656Zm4.771.574A3.247,3.247,0,0,1,10.25-.817a3.634,3.634,0,0,1-.926-2.6,3.785,3.785,0,0,1,.964-2.755,3.465,3.465,0,0,1,2.6-.991,3.14,3.14,0,0,1,2.444.964,3.822,3.822,0,0,1,.878,2.673,3.761,3.761,0,0,1-.947,2.683A3.317,3.317,0,0,1,12.729.164Zm.082-6.385a2.132,2.132,0,0,0-1.709.735,3.018,3.018,0,0,0-.629,2.027A2.854,2.854,0,0,0,11.108-1.5a2.161,2.161,0,0,0,1.7.718,2.049,2.049,0,0,0,1.671-.7,3.055,3.055,0,0,0,.584-2,3.108,3.108,0,0,0-.584-2.023A2.04,2.04,0,0,0,12.811-6.221Zm8.846.355a1.371,1.371,0,0,0-.848-.226,1.431,1.431,0,0,0-1.2.677,3.129,3.129,0,0,0-.482,1.846V0H18.006V-7h1.121v1.442h.027a2.444,2.444,0,0,1,.731-1.152,1.668,1.668,0,0,1,1.1-.414,1.83,1.83,0,0,1,.67.1ZM28.376-7,25.587,0h-1.1L21.834-7h1.23l1.777,5.086a4.565,4.565,0,0,1,.246.978h.027a4.622,4.622,0,0,1,.219-.95L27.193-7Zm6.829,3.78H30.263a2.618,2.618,0,0,0,.629,1.8,2.168,2.168,0,0,0,1.654.636,3.439,3.439,0,0,0,2.174-.779V-.506a4.063,4.063,0,0,1-2.44.67A2.959,2.959,0,0,1,29.948-.79,3.9,3.9,0,0,1,29.1-3.473a3.828,3.828,0,0,1,.926-2.663,2.97,2.97,0,0,1,2.3-1.029,2.632,2.632,0,0,1,2.126.889,3.705,3.705,0,0,1,.752,2.468Zm-1.148-.95a2.281,2.281,0,0,0-.468-1.511,1.6,1.6,0,0,0-1.282-.54,1.811,1.811,0,0,0-1.347.567,2.575,2.575,0,0,0-.684,1.483Zm6.091,4.1A2.161,2.161,0,0,1,39.1.15Q37.263.15,37.263-1.9V-6.043h-1.2V-7h1.2V-8.709l1.121-.362V-7h1.764v.957H38.384V-2.1a1.635,1.635,0,0,0,.239,1,.955.955,0,0,0,.793.3,1.179,1.179,0,0,0,.731-.232Zm4.744,0A2.161,2.161,0,0,1,43.846.15Q42.007.15,42.007-1.9V-6.043H40.8V-7h1.2V-8.709l1.121-.362V-7h1.764v.957H43.128V-2.1a1.635,1.635,0,0,0,.239,1,.955.955,0,0,0,.793.3,1.179,1.179,0,0,0,.731-.232ZM52.015-3.22H47.072a2.618,2.618,0,0,0,.629,1.8,2.168,2.168,0,0,0,1.654.636,3.439,3.439,0,0,0,2.174-.779V-.506a4.063,4.063,0,0,1-2.44.67A2.959,2.959,0,0,1,46.758-.79a3.9,3.9,0,0,1-.848-2.683,3.828,3.828,0,0,1,.926-2.663,2.97,2.97,0,0,1,2.3-1.029,2.632,2.632,0,0,1,2.126.889,3.705,3.705,0,0,1,.752,2.468Zm-1.148-.95A2.281,2.281,0,0,0,50.4-5.681a1.6,1.6,0,0,0-1.282-.54,1.811,1.811,0,0,0-1.347.567,2.575,2.575,0,0,0-.684,1.483Z" transform="translate(30 17)" fill="#1a1a1e" stroke="rgba(0,0,0,0)" stroke-width="1"/>
      <path id="Subtraction_1" data-name="Subtraction 1" d="M-2398-1078h-18a2.968,2.968,0,0,1-3-3v-18a2.968,2.968,0,0,1,3-3h18a2.968,2.968,0,0,1,3,3v18A2.968,2.968,0,0,1-2398-1078Zm-15.75-13a1.251,1.251,0,0,0-1.25,1.25,1.251,1.251,0,0,0,1.25,1.25h13.5a1.252,1.252,0,0,0,1.25-1.25,1.252,1.252,0,0,0-1.25-1.25Z" transform="translate(2419 1102)" fill="#2777d3"/>
    </g>
    <g id="Group_264175" data-name="Group 264175" transform="translate(82 -43)">
      <g id="Group_15335" data-name="Group 15335" transform="translate(0 144)">
        <path id="Path_10301" data-name="Path 10301" d="M7.957-.41A5.749,5.749,0,0,1,5.25.164,4.366,4.366,0,0,1,1.9-1.183,4.969,4.969,0,0,1,.643-4.717a5.208,5.208,0,0,1,1.415-3.8A4.8,4.8,0,0,1,5.646-9.967a5.754,5.754,0,0,1,2.311.4V-8.34a4.686,4.686,0,0,0-2.324-.588A3.566,3.566,0,0,0,2.9-7.8,4.249,4.249,0,0,0,1.846-4.785a4.043,4.043,0,0,0,.981,2.854A3.338,3.338,0,0,0,5.4-.868a4.828,4.828,0,0,0,2.557-.656Zm4.771.574A3.247,3.247,0,0,1,10.25-.817a3.634,3.634,0,0,1-.926-2.6,3.785,3.785,0,0,1,.964-2.755,3.465,3.465,0,0,1,2.6-.991,3.14,3.14,0,0,1,2.444.964,3.822,3.822,0,0,1,.878,2.673,3.761,3.761,0,0,1-.947,2.683A3.317,3.317,0,0,1,12.729.164Zm.082-6.385a2.132,2.132,0,0,0-1.709.735,3.018,3.018,0,0,0-.629,2.027A2.854,2.854,0,0,0,11.108-1.5a2.161,2.161,0,0,0,1.7.718,2.049,2.049,0,0,0,1.671-.7,3.055,3.055,0,0,0,.584-2,3.108,3.108,0,0,0-.584-2.023A2.04,2.04,0,0,0,12.811-6.221Zm8.846.355a1.371,1.371,0,0,0-.848-.226,1.431,1.431,0,0,0-1.2.677,3.129,3.129,0,0,0-.482,1.846V0H18.006V-7h1.121v1.442h.027a2.444,2.444,0,0,1,.731-1.152,1.668,1.668,0,0,1,1.1-.414,1.83,1.83,0,0,1,.67.1ZM28.376-7,25.587,0h-1.1L21.834-7h1.23l1.777,5.086a4.565,4.565,0,0,1,.246.978h.027a4.622,4.622,0,0,1,.219-.95L27.193-7Zm6.829,3.78H30.263a2.618,2.618,0,0,0,.629,1.8,2.168,2.168,0,0,0,1.654.636,3.439,3.439,0,0,0,2.174-.779V-.506a4.063,4.063,0,0,1-2.44.67A2.959,2.959,0,0,1,29.948-.79,3.9,3.9,0,0,1,29.1-3.473a3.828,3.828,0,0,1,.926-2.663,2.97,2.97,0,0,1,2.3-1.029,2.632,2.632,0,0,1,2.126.889,3.705,3.705,0,0,1,.752,2.468Zm-1.148-.95a2.281,2.281,0,0,0-.468-1.511,1.6,1.6,0,0,0-1.282-.54,1.811,1.811,0,0,0-1.347.567,2.575,2.575,0,0,0-.684,1.483Zm6.091,4.1A2.161,2.161,0,0,1,39.1.15Q37.263.15,37.263-1.9V-6.043h-1.2V-7h1.2V-8.709l1.121-.362V-7h1.764v.957H38.384V-2.1a1.635,1.635,0,0,0,.239,1,.955.955,0,0,0,.793.3,1.179,1.179,0,0,0,.731-.232Zm4.744,0A2.161,2.161,0,0,1,43.846.15Q42.007.15,42.007-1.9V-6.043H40.8V-7h1.2V-8.709l1.121-.362V-7h1.764v.957H43.128V-2.1a1.635,1.635,0,0,0,.239,1,.955.955,0,0,0,.793.3,1.179,1.179,0,0,0,.731-.232ZM52.015-3.22H47.072a2.618,2.618,0,0,0,.629,1.8,2.168,2.168,0,0,0,1.654.636,3.439,3.439,0,0,0,2.174-.779V-.506a4.063,4.063,0,0,1-2.44.67A2.959,2.959,0,0,1,46.758-.79a3.9,3.9,0,0,1-.848-2.683,3.828,3.828,0,0,1,.926-2.663,2.97,2.97,0,0,1,2.3-1.029,2.632,2.632,0,0,1,2.126.889,3.705,3.705,0,0,1,.752,2.468Zm-1.148-.95A2.281,2.281,0,0,0,50.4-5.681a1.6,1.6,0,0,0-1.282-.54,1.811,1.811,0,0,0-1.347.567,2.575,2.575,0,0,0-.684,1.483Z" transform="translate(305 183)" fill="#1a1a1e" stroke="rgba(0,0,0,0)" stroke-width="1"/>
      </g>
      <path id="Subtraction_2" data-name="Subtraction 2" d="M-2398-1078h-18a2.968,2.968,0,0,1-3-3v-18a2.968,2.968,0,0,1,3-3h18a2.968,2.968,0,0,1,3,3v18A2.968,2.968,0,0,1-2398-1078Zm-15.75-13a1.251,1.251,0,0,0-1.25,1.25,1.251,1.251,0,0,0,1.25,1.25h13.5a1.252,1.252,0,0,0,1.25-1.25,1.252,1.252,0,0,0-1.25-1.25Z" transform="translate(2694 1412)" fill="#4e92df"/>
    </g>
    <g id="Group_264176" data-name="Group 264176" transform="translate(217 -196)">
      <g id="Group_15335-2" data-name="Group 15335" transform="translate(0 297)">
        <path id="Path_10302" data-name="Path 10302" d="M7.957-.41A5.749,5.749,0,0,1,5.25.164,4.366,4.366,0,0,1,1.9-1.183,4.969,4.969,0,0,1,.643-4.717a5.208,5.208,0,0,1,1.415-3.8A4.8,4.8,0,0,1,5.646-9.967a5.754,5.754,0,0,1,2.311.4V-8.34a4.686,4.686,0,0,0-2.324-.588A3.566,3.566,0,0,0,2.9-7.8,4.249,4.249,0,0,0,1.846-4.785a4.043,4.043,0,0,0,.981,2.854A3.338,3.338,0,0,0,5.4-.868a4.828,4.828,0,0,0,2.557-.656Zm4.771.574A3.247,3.247,0,0,1,10.25-.817a3.634,3.634,0,0,1-.926-2.6,3.785,3.785,0,0,1,.964-2.755,3.465,3.465,0,0,1,2.6-.991,3.14,3.14,0,0,1,2.444.964,3.822,3.822,0,0,1,.878,2.673,3.761,3.761,0,0,1-.947,2.683A3.317,3.317,0,0,1,12.729.164Zm.082-6.385a2.132,2.132,0,0,0-1.709.735,3.018,3.018,0,0,0-.629,2.027A2.854,2.854,0,0,0,11.108-1.5a2.161,2.161,0,0,0,1.7.718,2.049,2.049,0,0,0,1.671-.7,3.055,3.055,0,0,0,.584-2,3.108,3.108,0,0,0-.584-2.023A2.04,2.04,0,0,0,12.811-6.221Zm8.846.355a1.371,1.371,0,0,0-.848-.226,1.431,1.431,0,0,0-1.2.677,3.129,3.129,0,0,0-.482,1.846V0H18.006V-7h1.121v1.442h.027a2.444,2.444,0,0,1,.731-1.152,1.668,1.668,0,0,1,1.1-.414,1.83,1.83,0,0,1,.67.1ZM28.376-7,25.587,0h-1.1L21.834-7h1.23l1.777,5.086a4.565,4.565,0,0,1,.246.978h.027a4.622,4.622,0,0,1,.219-.95L27.193-7Zm6.829,3.78H30.263a2.618,2.618,0,0,0,.629,1.8,2.168,2.168,0,0,0,1.654.636,3.439,3.439,0,0,0,2.174-.779V-.506a4.063,4.063,0,0,1-2.44.67A2.959,2.959,0,0,1,29.948-.79,3.9,3.9,0,0,1,29.1-3.473a3.828,3.828,0,0,1,.926-2.663,2.97,2.97,0,0,1,2.3-1.029,2.632,2.632,0,0,1,2.126.889,3.705,3.705,0,0,1,.752,2.468Zm-1.148-.95a2.281,2.281,0,0,0-.468-1.511,1.6,1.6,0,0,0-1.282-.54,1.811,1.811,0,0,0-1.347.567,2.575,2.575,0,0,0-.684,1.483Zm6.091,4.1A2.161,2.161,0,0,1,39.1.15Q37.263.15,37.263-1.9V-6.043h-1.2V-7h1.2V-8.709l1.121-.362V-7h1.764v.957H38.384V-2.1a1.635,1.635,0,0,0,.239,1,.955.955,0,0,0,.793.3,1.179,1.179,0,0,0,.731-.232Zm4.744,0A2.161,2.161,0,0,1,43.846.15Q42.007.15,42.007-1.9V-6.043H40.8V-7h1.2V-8.709l1.121-.362V-7h1.764v.957H43.128V-2.1a1.635,1.635,0,0,0,.239,1,.955.955,0,0,0,.793.3,1.179,1.179,0,0,0,.731-.232ZM52.015-3.22H47.072a2.618,2.618,0,0,0,.629,1.8,2.168,2.168,0,0,0,1.654.636,3.439,3.439,0,0,0,2.174-.779V-.506a4.063,4.063,0,0,1-2.44.67A2.959,2.959,0,0,1,46.758-.79a3.9,3.9,0,0,1-.848-2.683,3.828,3.828,0,0,1,.926-2.663,2.97,2.97,0,0,1,2.3-1.029,2.632,2.632,0,0,1,2.126.889,3.705,3.705,0,0,1,.752,2.468Zm-1.148-.95A2.281,2.281,0,0,0,50.4-5.681a1.6,1.6,0,0,0-1.282-.54,1.811,1.811,0,0,0-1.347.567,2.575,2.575,0,0,0-.684,1.483Z" transform="translate(305 183)" fill="#1a1a1e" stroke="rgba(0,0,0,0)" stroke-width="1"/>
      </g>
      <g id="Group_15337" data-name="Group 15337" transform="translate(-5558 -1463)">
        <g id="Rectangle_8211" data-name="Rectangle 8211" transform="translate(5831 1924)" fill="none" stroke="#2777d3" stroke-width="1">
          <rect width="28" height="28" rx="5" stroke="none"/>
          <rect x="0.5" y="0.5" width="27" height="27" rx="4.5" fill="none"/>
        </g>
        <path id="Subtraction_3" data-name="Subtraction 3" d="M-2398-1078h-18a2.968,2.968,0,0,1-3-3v-18a2.968,2.968,0,0,1,3-3h18a2.968,2.968,0,0,1,3,3v18A2.968,2.968,0,0,1-2398-1078Zm-15.75-13a1.251,1.251,0,0,0-1.25,1.25,1.251,1.251,0,0,0,1.25,1.25h13.5a1.252,1.252,0,0,0,1.25-1.25,1.252,1.252,0,0,0-1.25-1.25Z" transform="translate(8252 3028)" fill="#2777d3"/>
      </g>
    </g>
    <g id="Group_264177" data-name="Group 264177" transform="translate(350 -355)">
      <g id="Group_15335-3" data-name="Group 15335" transform="translate(0 456)">
        <path id="Path_10303" data-name="Path 10303" d="M7.957-.41A5.749,5.749,0,0,1,5.25.164,4.366,4.366,0,0,1,1.9-1.183,4.969,4.969,0,0,1,.643-4.717a5.208,5.208,0,0,1,1.415-3.8A4.8,4.8,0,0,1,5.646-9.967a5.754,5.754,0,0,1,2.311.4V-8.34a4.686,4.686,0,0,0-2.324-.588A3.566,3.566,0,0,0,2.9-7.8,4.249,4.249,0,0,0,1.846-4.785a4.043,4.043,0,0,0,.981,2.854A3.338,3.338,0,0,0,5.4-.868a4.828,4.828,0,0,0,2.557-.656Zm4.771.574A3.247,3.247,0,0,1,10.25-.817a3.634,3.634,0,0,1-.926-2.6,3.785,3.785,0,0,1,.964-2.755,3.465,3.465,0,0,1,2.6-.991,3.14,3.14,0,0,1,2.444.964,3.822,3.822,0,0,1,.878,2.673,3.761,3.761,0,0,1-.947,2.683A3.317,3.317,0,0,1,12.729.164Zm.082-6.385a2.132,2.132,0,0,0-1.709.735,3.018,3.018,0,0,0-.629,2.027A2.854,2.854,0,0,0,11.108-1.5a2.161,2.161,0,0,0,1.7.718,2.049,2.049,0,0,0,1.671-.7,3.055,3.055,0,0,0,.584-2,3.108,3.108,0,0,0-.584-2.023A2.04,2.04,0,0,0,12.811-6.221Zm8.846.355a1.371,1.371,0,0,0-.848-.226,1.431,1.431,0,0,0-1.2.677,3.129,3.129,0,0,0-.482,1.846V0H18.006V-7h1.121v1.442h.027a2.444,2.444,0,0,1,.731-1.152,1.668,1.668,0,0,1,1.1-.414,1.83,1.83,0,0,1,.67.1ZM28.376-7,25.587,0h-1.1L21.834-7h1.23l1.777,5.086a4.565,4.565,0,0,1,.246.978h.027a4.622,4.622,0,0,1,.219-.95L27.193-7Zm6.829,3.78H30.263a2.618,2.618,0,0,0,.629,1.8,2.168,2.168,0,0,0,1.654.636,3.439,3.439,0,0,0,2.174-.779V-.506a4.063,4.063,0,0,1-2.44.67A2.959,2.959,0,0,1,29.948-.79,3.9,3.9,0,0,1,29.1-3.473a3.828,3.828,0,0,1,.926-2.663,2.97,2.97,0,0,1,2.3-1.029,2.632,2.632,0,0,1,2.126.889,3.705,3.705,0,0,1,.752,2.468Zm-1.148-.95a2.281,2.281,0,0,0-.468-1.511,1.6,1.6,0,0,0-1.282-.54,1.811,1.811,0,0,0-1.347.567,2.575,2.575,0,0,0-.684,1.483Zm6.091,4.1A2.161,2.161,0,0,1,39.1.15Q37.263.15,37.263-1.9V-6.043h-1.2V-7h1.2V-8.709l1.121-.362V-7h1.764v.957H38.384V-2.1a1.635,1.635,0,0,0,.239,1,.955.955,0,0,0,.793.3,1.179,1.179,0,0,0,.731-.232Zm4.744,0A2.161,2.161,0,0,1,43.846.15Q42.007.15,42.007-1.9V-6.043H40.8V-7h1.2V-8.709l1.121-.362V-7h1.764v.957H43.128V-2.1a1.635,1.635,0,0,0,.239,1,.955.955,0,0,0,.793.3,1.179,1.179,0,0,0,.731-.232ZM52.015-3.22H47.072a2.618,2.618,0,0,0,.629,1.8,2.168,2.168,0,0,0,1.654.636,3.439,3.439,0,0,0,2.174-.779V-.506a4.063,4.063,0,0,1-2.44.67A2.959,2.959,0,0,1,46.758-.79a3.9,3.9,0,0,1-.848-2.683,3.828,3.828,0,0,1,.926-2.663,2.97,2.97,0,0,1,2.3-1.029,2.632,2.632,0,0,1,2.126.889,3.705,3.705,0,0,1,.752,2.468Zm-1.148-.95A2.281,2.281,0,0,0,50.4-5.681a1.6,1.6,0,0,0-1.282-.54,1.811,1.811,0,0,0-1.347.567,2.575,2.575,0,0,0-.684,1.483Z" transform="translate(305 183)" fill="#afafbb" stroke="rgba(0,0,0,0)" stroke-width="1"/>
      </g>
      <path id="Subtraction_4" data-name="Subtraction 4" d="M-2398-1078h-18a2.968,2.968,0,0,1-3-3v-18a2.968,2.968,0,0,1,3-3h18a2.968,2.968,0,0,1,3,3v18A2.968,2.968,0,0,1-2398-1078Zm-15.75-13a1.251,1.251,0,0,0-1.25,1.25,1.251,1.251,0,0,0,1.25,1.25h13.5a1.252,1.252,0,0,0,1.25-1.25,1.252,1.252,0,0,0-1.25-1.25Z" transform="translate(2694 1724)" fill="#d0e2f6"/>
    </g>
    <g id="Group_264178" data-name="Group 264178" transform="translate(-11543.734 -738.078)">
      <g id="noun_Pointer_44803" transform="translate(11911 1005)">
        <g id="Group_15298" data-name="Group 15298" transform="translate(0 0)" opacity="0.9">
          <path id="Path_10321" data-name="Path 10321" d="M26.5,27.034a8.04,8.04,0,0,1-7.962-7.224.347.347,0,0,1-.037-.156V14.783a1.94,1.94,0,0,1,1.9-1.97,1.854,1.854,0,0,1,1.143.395V5.385a1.906,1.906,0,1,1,3.81,0v5.468a1.854,1.854,0,0,1,1.143-.395,1.91,1.91,0,0,1,1.775,1.257,1.863,1.863,0,0,1,1.272-.5,1.919,1.919,0,0,1,1.837,1.449,1.86,1.86,0,0,1,1.211-.45,1.94,1.94,0,0,1,1.9,1.97v5.031a.375.375,0,0,1,0,.051A8.045,8.045,0,0,1,26.5,27.034Z" transform="translate(-18.501 -3.415)" fill="#fff"/>
        </g>
      </g>
      <g id="noun_Pointer_44803-2" data-name="noun_Pointer_44803" transform="translate(11911 1005)">
        <g id="Group_15298-2" data-name="Group 15298" transform="translate(0 0)" opacity="0.9">
          <path id="Path_10321-2" data-name="Path 10321" d="M26.5,27.034a8.04,8.04,0,0,1-7.962-7.224.347.347,0,0,1-.037-.156V14.783a1.94,1.94,0,0,1,1.9-1.97,1.854,1.854,0,0,1,1.143.395V5.385a1.906,1.906,0,1,1,3.81,0v5.468a1.854,1.854,0,0,1,1.143-.395,1.91,1.91,0,0,1,1.775,1.257,1.863,1.863,0,0,1,1.272-.5,1.919,1.919,0,0,1,1.837,1.449,1.86,1.86,0,0,1,1.211-.45,1.94,1.94,0,0,1,1.9,1.97v5.031a.375.375,0,0,1,0,.051A8.045,8.045,0,0,1,26.5,27.034Zm-7.238-7.51a.339.339,0,0,1,.024.1,7.238,7.238,0,0,0,14.45-.424q0-.016,0-.033V14.178a1.145,1.145,0,1,0-2.286,0,.381.381,0,0,1-.762,0v-1a1.145,1.145,0,1,0-2.286,0,.381.381,0,1,1-.762,0v-.752a1.145,1.145,0,1,0-2.286,0,.381.381,0,1,1-.762,0V5.385a1.145,1.145,0,1,0-2.286,0V18.21a.381.381,0,1,1-.762,0V14.783a1.145,1.145,0,1,0-2.286,0v4.741Z" transform="translate(-18.501 -3.415)"/>
        </g>
      </g>
    </g>
    <g id="Group_264179" data-name="Group 264179" transform="translate(-11543.734 -819.078)">
      <g id="noun_Pointer_44803-3" data-name="noun_Pointer_44803" transform="translate(11911 1005)">
        <g id="Group_15298-3" data-name="Group 15298" transform="translate(0 0)" opacity="0.9">
          <path id="Path_10321-3" data-name="Path 10321" d="M26.5,27.034a8.04,8.04,0,0,1-7.962-7.224.347.347,0,0,1-.037-.156V14.783a1.94,1.94,0,0,1,1.9-1.97,1.854,1.854,0,0,1,1.143.395V5.385a1.906,1.906,0,1,1,3.81,0v5.468a1.854,1.854,0,0,1,1.143-.395,1.91,1.91,0,0,1,1.775,1.257,1.863,1.863,0,0,1,1.272-.5,1.919,1.919,0,0,1,1.837,1.449,1.86,1.86,0,0,1,1.211-.45,1.94,1.94,0,0,1,1.9,1.97v5.031a.375.375,0,0,1,0,.051A8.045,8.045,0,0,1,26.5,27.034Z" transform="translate(-18.501 -3.415)" fill="#fff"/>
        </g>
      </g>
      <g id="noun_Pointer_44803-4" data-name="noun_Pointer_44803" transform="translate(11911 1005)">
        <g id="Group_15298-4" data-name="Group 15298" transform="translate(0 0)" opacity="0.9">
          <path id="Path_10321-4" data-name="Path 10321" d="M26.5,27.034a8.04,8.04,0,0,1-7.962-7.224.347.347,0,0,1-.037-.156V14.783a1.94,1.94,0,0,1,1.9-1.97,1.854,1.854,0,0,1,1.143.395V5.385a1.906,1.906,0,1,1,3.81,0v5.468a1.854,1.854,0,0,1,1.143-.395,1.91,1.91,0,0,1,1.775,1.257,1.863,1.863,0,0,1,1.272-.5,1.919,1.919,0,0,1,1.837,1.449,1.86,1.86,0,0,1,1.211-.45,1.94,1.94,0,0,1,1.9,1.97v5.031a.375.375,0,0,1,0,.051A8.045,8.045,0,0,1,26.5,27.034Zm-7.238-7.51a.339.339,0,0,1,.024.1,7.238,7.238,0,0,0,14.45-.424q0-.016,0-.033V14.178a1.145,1.145,0,1,0-2.286,0,.381.381,0,0,1-.762,0v-1a1.145,1.145,0,1,0-2.286,0,.381.381,0,1,1-.762,0v-.752a1.145,1.145,0,1,0-2.286,0,.381.381,0,1,1-.762,0V5.385a1.145,1.145,0,1,0-2.286,0V18.21a.381.381,0,1,1-.762,0V14.783a1.145,1.145,0,1,0-2.286,0v4.741Z" transform="translate(-18.501 -3.415)"/>
        </g>
      </g>
    </g>
    <g id="Group_264180" data-name="Group 264180" transform="translate(-11543.734 -897.078)">
      <g id="noun_Pointer_44803-5" data-name="noun_Pointer_44803" transform="translate(11911 1005)">
        <g id="Group_15298-5" data-name="Group 15298" transform="translate(0 0)" opacity="0.9">
          <path id="Path_10321-5" data-name="Path 10321" d="M26.5,27.034a8.04,8.04,0,0,1-7.962-7.224.347.347,0,0,1-.037-.156V14.783a1.94,1.94,0,0,1,1.9-1.97,1.854,1.854,0,0,1,1.143.395V5.385a1.906,1.906,0,1,1,3.81,0v5.468a1.854,1.854,0,0,1,1.143-.395,1.91,1.91,0,0,1,1.775,1.257,1.863,1.863,0,0,1,1.272-.5,1.919,1.919,0,0,1,1.837,1.449,1.86,1.86,0,0,1,1.211-.45,1.94,1.94,0,0,1,1.9,1.97v5.031a.375.375,0,0,1,0,.051A8.045,8.045,0,0,1,26.5,27.034Z" transform="translate(-18.501 -3.415)" fill="#fff"/>
        </g>
      </g>
      <g id="noun_Pointer_44803-6" data-name="noun_Pointer_44803" transform="translate(11911 1005)">
        <g id="Group_15298-6" data-name="Group 15298" transform="translate(0 0)" opacity="0.9">
          <path id="Path_10321-6" data-name="Path 10321" d="M26.5,27.034a8.04,8.04,0,0,1-7.962-7.224.347.347,0,0,1-.037-.156V14.783a1.94,1.94,0,0,1,1.9-1.97,1.854,1.854,0,0,1,1.143.395V5.385a1.906,1.906,0,1,1,3.81,0v5.468a1.854,1.854,0,0,1,1.143-.395,1.91,1.91,0,0,1,1.775,1.257,1.863,1.863,0,0,1,1.272-.5,1.919,1.919,0,0,1,1.837,1.449,1.86,1.86,0,0,1,1.211-.45,1.94,1.94,0,0,1,1.9,1.97v5.031a.375.375,0,0,1,0,.051A8.045,8.045,0,0,1,26.5,27.034Zm-7.238-7.51a.339.339,0,0,1,.024.1,7.238,7.238,0,0,0,14.45-.424q0-.016,0-.033V14.178a1.145,1.145,0,1,0-2.286,0,.381.381,0,0,1-.762,0v-1a1.145,1.145,0,1,0-2.286,0,.381.381,0,1,1-.762,0v-.752a1.145,1.145,0,1,0-2.286,0,.381.381,0,1,1-.762,0V5.385a1.145,1.145,0,1,0-2.286,0V18.21a.381.381,0,1,1-.762,0V14.783a1.145,1.145,0,1,0-2.286,0v4.741Z" transform="translate(-18.501 -3.415)"/>
        </g>
      </g>
    </g>
  </g>
</svg>
