<svg xmlns="http://www.w3.org/2000/svg" xmlns:xlink="http://www.w3.org/1999/xlink" width="275" height="183" viewBox="0 0 275 183">
  <defs>
    <clipPath id="clip-gallerycheck_small">
      <rect width="275" height="183"/>
    </clipPath>
  </defs>
  <g id="gallerycheck_small" clip-path="url(#clip-gallerycheck_small)">
    <g id="Group_264171" data-name="Group 264171" transform="translate(-744 -1561)">
      <g id="Gallery_checkbox-Large-NEW" data-name="Gallery checkbox-Large-NEW" transform="translate(744 1561)">
        <g id="Rectangle_4479" data-name="Rectangle 4479" fill="#fff" stroke="#c6c6c6" stroke-width="1">
          <rect width="130" height="183" rx="6" stroke="none"/>
          <rect x="0.5" y="0.5" width="129" height="182" rx="5.5" fill="none"/>
        </g>
        <path id="Path_10343" data-name="Path 10343" d="M-26.035,0h-5.653V-9.994h5.653v1.381h-4.02v2.721h3.767v1.367h-3.767v3.138h4.02Zm8.36,0h-1.613V-4.662a2.114,2.114,0,0,0-.328-1.3,1.211,1.211,0,0,0-1.025-.427A1.564,1.564,0,0,0-22-5.78a3.549,3.549,0,0,0-.434,2.013V0h-1.606V-7.561h1.258l.226.991h.082a2.1,2.1,0,0,1,.913-.834A2.943,2.943,0,0,1-20.251-7.7a2.3,2.3,0,0,1,2.311,1.189h.109a2.3,2.3,0,0,1,.943-.875A2.994,2.994,0,0,1-15.494-7.7a2.539,2.539,0,0,1,1.972.684A3.027,3.027,0,0,1-12.9-4.929V0h-1.606V-4.662a2.1,2.1,0,0,0-.332-1.3,1.221,1.221,0,0,0-1.029-.427A1.6,1.6,0,0,0-17.24-5.8a3.013,3.013,0,0,0-.434,1.794ZM-6.826.137A2.648,2.648,0,0,1-9.054-.9h-.1q.1.957.1,1.162v3.1h-1.606V-7.561h1.3q.055.212.226,1.012h.082A2.517,2.517,0,0,1-6.8-7.7a2.624,2.624,0,0,1,2.2,1.025A4.623,4.623,0,0,1-3.8-3.794,4.627,4.627,0,0,1-4.607-.9,2.648,2.648,0,0,1-6.826.137Zm-.39-6.521a1.67,1.67,0,0,0-1.4.561,2.905,2.905,0,0,0-.441,1.791v.239a3.536,3.536,0,0,0,.438,2,1.627,1.627,0,0,0,1.429.619A1.45,1.45,0,0,0-5.9-1.859a3.53,3.53,0,0,0,.451-1.948A3.407,3.407,0,0,0-5.9-5.732,1.494,1.494,0,0,0-7.215-6.385ZM-.332,0H-1.938V-10.637H-.332Zm9-3.794A4.127,4.127,0,0,1,7.721-.9,3.4,3.4,0,0,1,5.076.137,3.625,3.625,0,0,1,3.2-.342,3.159,3.159,0,0,1,1.952-1.716a4.68,4.68,0,0,1-.437-2.078,4.1,4.1,0,0,1,.943-2.871A3.42,3.42,0,0,1,5.117-7.7a3.331,3.331,0,0,1,2.6,1.056A4.08,4.08,0,0,1,8.671-3.794Zm-5.5,0q0,2.618,1.935,2.618,1.914,0,1.914-2.618,0-2.591-1.928-2.591a1.644,1.644,0,0,0-1.466.67A3.409,3.409,0,0,0,3.168-3.794Zm6.2-3.767h1.75l1.538,4.286a8.133,8.133,0,0,1,.465,1.723h.055a7.185,7.185,0,0,1,.226-.913q.164-.537,1.736-5.1h1.736L13.641,1A3.067,3.067,0,0,1,10.7,3.363a4.626,4.626,0,0,1-1.039-.116V1.976a3.765,3.765,0,0,0,.827.082A1.694,1.694,0,0,0,12.124.711L12.4,0ZM21.325.137A3.657,3.657,0,0,1,18.566-.892a3.906,3.906,0,0,1-.995-2.833,4.285,4.285,0,0,1,.923-2.912A3.188,3.188,0,0,1,21.031-7.7a3.116,3.116,0,0,1,2.365.909,3.474,3.474,0,0,1,.868,2.5v.868H19.226a2.483,2.483,0,0,0,.595,1.692,2.071,2.071,0,0,0,1.579.591,5.829,5.829,0,0,0,1.248-.126,6.539,6.539,0,0,0,1.241-.42V-.376a4.932,4.932,0,0,1-1.189.4A7.294,7.294,0,0,1,21.325.137ZM21.031-6.48A1.614,1.614,0,0,0,19.8-6a2.313,2.313,0,0,0-.55,1.415h3.432A2.093,2.093,0,0,0,22.234-6,1.543,1.543,0,0,0,21.031-6.48ZM29.391.137A3.657,3.657,0,0,1,26.633-.892a3.906,3.906,0,0,1-.995-2.833,4.285,4.285,0,0,1,.923-2.912A3.188,3.188,0,0,1,29.1-7.7a3.116,3.116,0,0,1,2.365.909,3.474,3.474,0,0,1,.868,2.5v.868H27.292a2.483,2.483,0,0,0,.595,1.692,2.071,2.071,0,0,0,1.579.591,5.829,5.829,0,0,0,1.248-.126,6.539,6.539,0,0,0,1.241-.42V-.376a4.932,4.932,0,0,1-1.189.4A7.294,7.294,0,0,1,29.391.137ZM29.1-6.48A1.614,1.614,0,0,0,27.87-6a2.313,2.313,0,0,0-.55,1.415h3.432A2.093,2.093,0,0,0,30.3-6,1.543,1.543,0,0,0,29.1-6.48ZM-25.836,19h-1.641V14.5h-4.607V19h-1.634V9.006h1.634v4.088h4.607V9.006h1.641Zm7.191,0-.321-1.053h-.055a3.1,3.1,0,0,1-1.1.94,3.481,3.481,0,0,1-1.422.25,2.406,2.406,0,0,1-1.74-.6,2.251,2.251,0,0,1-.625-1.7,2,2,0,0,1,.868-1.764A5.006,5.006,0,0,1-20.4,14.42l1.306-.041v-.4a1.529,1.529,0,0,0-.338-1.083,1.38,1.38,0,0,0-1.049-.359,3.628,3.628,0,0,0-1.114.171,8.409,8.409,0,0,0-1.025.4l-.52-1.148a5.591,5.591,0,0,1,1.347-.489,6.2,6.2,0,0,1,1.381-.167,3.27,3.27,0,0,1,2.177.629,2.462,2.462,0,0,1,.735,1.976V19Zm-2.393-1.094a1.99,1.99,0,0,0,1.4-.489,1.772,1.772,0,0,0,.53-1.371v-.656l-.971.041a3.321,3.321,0,0,0-1.651.379,1.153,1.153,0,0,0-.516,1.036,1.011,1.011,0,0,0,.3.783A1.292,1.292,0,0,0-21.038,17.906ZM-8.6,19h-1.613V14.352a2.034,2.034,0,0,0-.352-1.306,1.361,1.361,0,0,0-1.118-.431,1.777,1.777,0,0,0-1.49.6,3.321,3.321,0,0,0-.472,2.017V19h-1.606V11.439H-14l.226.991h.082a2.237,2.237,0,0,1,.971-.834,3.253,3.253,0,0,1,1.395-.294q2.721,0,2.721,2.769Zm4.785.137a2.633,2.633,0,0,1-2.208-1.025,4.609,4.609,0,0,1-.793-2.878,4.624,4.624,0,0,1,.8-2.9A2.658,2.658,0,0,1-3.791,11.3a2.606,2.606,0,0,1,2.27,1.1h.082a9.63,9.63,0,0,1-.116-1.285V8.363H.058V19H-1.2l-.28-.991h-.075A2.568,2.568,0,0,1-3.818,19.137Zm.431-1.3a1.748,1.748,0,0,0,1.442-.557,2.933,2.933,0,0,0,.465-1.808v-.226a3.389,3.389,0,0,0-.465-2.03,1.724,1.724,0,0,0-1.456-.6,1.477,1.477,0,0,0-1.306.687,3.521,3.521,0,0,0-.458,1.958,3.433,3.433,0,0,0,.444,1.917A1.5,1.5,0,0,0-3.387,17.838Zm9.6-6.535a2.624,2.624,0,0,1,2.2,1.025,4.623,4.623,0,0,1,.79,2.878,4.638,4.638,0,0,1-.8,2.9A2.649,2.649,0,0,1,6.19,19.137,2.648,2.648,0,0,1,3.961,18.1H3.852l-.294.9h-1.2V8.363H3.961v2.529q0,.28-.027.834t-.041.7h.068A2.551,2.551,0,0,1,6.217,11.3ZM5.8,12.615a1.633,1.633,0,0,0-1.4.571A3.321,3.321,0,0,0,3.961,15.1v.109a3.536,3.536,0,0,0,.438,2,1.627,1.627,0,0,0,1.429.619,1.448,1.448,0,0,0,1.3-.677,3.59,3.59,0,0,0,.441-1.955Q7.564,12.615,5.8,12.615Zm11.983,2.591a4.127,4.127,0,0,1-.95,2.892,3.4,3.4,0,0,1-2.646,1.039,3.625,3.625,0,0,1-1.873-.479,3.159,3.159,0,0,1-1.251-1.374,4.68,4.68,0,0,1-.437-2.078,4.1,4.1,0,0,1,.943-2.871A3.42,3.42,0,0,1,14.229,11.3a3.331,3.331,0,0,1,2.6,1.056A4.08,4.08,0,0,1,17.784,15.206Zm-5.5,0q0,2.618,1.935,2.618,1.914,0,1.914-2.618,0-2.591-1.928-2.591a1.644,1.644,0,0,0-1.466.67A3.409,3.409,0,0,0,12.281,15.206Zm14.055,0a4.127,4.127,0,0,1-.95,2.892,3.4,3.4,0,0,1-2.646,1.039,3.625,3.625,0,0,1-1.873-.479,3.159,3.159,0,0,1-1.251-1.374,4.68,4.68,0,0,1-.437-2.078,4.1,4.1,0,0,1,.943-2.871A3.42,3.42,0,0,1,22.781,11.3a3.331,3.331,0,0,1,2.6,1.056A4.08,4.08,0,0,1,26.335,15.206Zm-5.5,0q0,2.618,1.935,2.618,1.914,0,1.914-2.618,0-2.591-1.928-2.591a1.644,1.644,0,0,0-1.466.67A3.409,3.409,0,0,0,20.833,15.206Zm8.9-.2.909-1.135,2.283-2.434h1.853l-3.042,3.247L34.969,19H33.083l-2.427-3.315-.882.725V19H28.181V8.363h1.593v5.188l-.082,1.456Z" transform="translate(65 130)" fill="#3d3d3d"/>
        <g id="Group_7827" data-name="Group 7827" transform="translate(-78 -116)">
          <rect id="Rectangle_4483" data-name="Rectangle 4483" width="70" height="70" rx="4" transform="translate(108 146)" fill="none" opacity="0.5"/>
          <g id="Shadow_1_" transform="translate(120 153.054)">
            <path id="Path_5743" data-name="Path 5743" d="M3.5,0H44.736a1.859,1.859,0,0,1,1.889,1.889h0V53.721a2,2,0,0,1-1.971,1.971H3.5" transform="translate(-0.625)" fill="#e04a39"/>
            <path id="Path_5744" data-name="Path 5744" d="M6.654,0H1.807A1.823,1.823,0,0,0,0,1.807H0V53.886a1.823,1.823,0,0,0,1.807,1.807H6.654" fill="#cc4434"/>
            <rect id="Rectangle_4122" data-name="Rectangle 4122" width="41.646" height="9.939" transform="translate(4.354 43.864)" fill="#cb4333"/>
            <path id="Path_5745" data-name="Path 5745" d="M7.275,55.1H47.2v7.311H7.275a.561.561,0,0,1-.575-.575V55.593A.549.549,0,0,1,7.275,55.1Z" transform="translate(-1.196 -9.839)" fill="#f1f2f2"/>
            <path id="Path_5746" data-name="Path 5746" d="M27.893,30.125H22.8V21.5h5.093v1.889H25.1V24.7h2.546v1.889H25.1v1.643h2.793Z" transform="translate(-4.071 -3.839)" fill="#fff"/>
            <path id="Path_5747" data-name="Path 5747" d="M35.893,30.125H30.8V21.5h5.093v1.889H33.1V24.7h2.546v1.889H33.1v1.643h2.793Z" transform="translate(-5.5 -3.839)" fill="#fff"/>
          </g>
        </g>
      </g>
      <g id="Gallery_check_box-_large" data-name="Gallery check box- large" transform="translate(889 1561)">
        <g id="Rectangle_4479-2" data-name="Rectangle 4479" fill="#d0e2f6" stroke="#2777d3" stroke-width="2">
          <rect width="130" height="183" rx="6" stroke="none"/>
          <rect x="1" y="1" width="128" height="181" rx="5" fill="none"/>
        </g>
        <path id="Path_10342" data-name="Path 10342" d="M-26.035,0h-5.653V-9.994h5.653v1.381h-4.02v2.721h3.767v1.367h-3.767v3.138h4.02Zm8.36,0h-1.613V-4.662a2.114,2.114,0,0,0-.328-1.3,1.211,1.211,0,0,0-1.025-.427A1.564,1.564,0,0,0-22-5.78a3.549,3.549,0,0,0-.434,2.013V0h-1.606V-7.561h1.258l.226.991h.082a2.1,2.1,0,0,1,.913-.834A2.943,2.943,0,0,1-20.251-7.7a2.3,2.3,0,0,1,2.311,1.189h.109a2.3,2.3,0,0,1,.943-.875A2.994,2.994,0,0,1-15.494-7.7a2.539,2.539,0,0,1,1.972.684A3.027,3.027,0,0,1-12.9-4.929V0h-1.606V-4.662a2.1,2.1,0,0,0-.332-1.3,1.221,1.221,0,0,0-1.029-.427A1.6,1.6,0,0,0-17.24-5.8a3.013,3.013,0,0,0-.434,1.794ZM-6.826.137A2.648,2.648,0,0,1-9.054-.9h-.1q.1.957.1,1.162v3.1h-1.606V-7.561h1.3q.055.212.226,1.012h.082A2.517,2.517,0,0,1-6.8-7.7a2.624,2.624,0,0,1,2.2,1.025A4.623,4.623,0,0,1-3.8-3.794,4.627,4.627,0,0,1-4.607-.9,2.648,2.648,0,0,1-6.826.137Zm-.39-6.521a1.67,1.67,0,0,0-1.4.561,2.905,2.905,0,0,0-.441,1.791v.239a3.536,3.536,0,0,0,.438,2,1.627,1.627,0,0,0,1.429.619A1.45,1.45,0,0,0-5.9-1.859a3.53,3.53,0,0,0,.451-1.948A3.407,3.407,0,0,0-5.9-5.732,1.494,1.494,0,0,0-7.215-6.385ZM-.332,0H-1.938V-10.637H-.332Zm9-3.794A4.127,4.127,0,0,1,7.721-.9,3.4,3.4,0,0,1,5.076.137,3.625,3.625,0,0,1,3.2-.342,3.159,3.159,0,0,1,1.952-1.716a4.68,4.68,0,0,1-.437-2.078,4.1,4.1,0,0,1,.943-2.871A3.42,3.42,0,0,1,5.117-7.7a3.331,3.331,0,0,1,2.6,1.056A4.08,4.08,0,0,1,8.671-3.794Zm-5.5,0q0,2.618,1.935,2.618,1.914,0,1.914-2.618,0-2.591-1.928-2.591a1.644,1.644,0,0,0-1.466.67A3.409,3.409,0,0,0,3.168-3.794Zm6.2-3.767h1.75l1.538,4.286a8.133,8.133,0,0,1,.465,1.723h.055a7.185,7.185,0,0,1,.226-.913q.164-.537,1.736-5.1h1.736L13.641,1A3.067,3.067,0,0,1,10.7,3.363a4.626,4.626,0,0,1-1.039-.116V1.976a3.765,3.765,0,0,0,.827.082A1.694,1.694,0,0,0,12.124.711L12.4,0ZM21.325.137A3.657,3.657,0,0,1,18.566-.892a3.906,3.906,0,0,1-.995-2.833,4.285,4.285,0,0,1,.923-2.912A3.188,3.188,0,0,1,21.031-7.7a3.116,3.116,0,0,1,2.365.909,3.474,3.474,0,0,1,.868,2.5v.868H19.226a2.483,2.483,0,0,0,.595,1.692,2.071,2.071,0,0,0,1.579.591,5.829,5.829,0,0,0,1.248-.126,6.539,6.539,0,0,0,1.241-.42V-.376a4.932,4.932,0,0,1-1.189.4A7.294,7.294,0,0,1,21.325.137ZM21.031-6.48A1.614,1.614,0,0,0,19.8-6a2.313,2.313,0,0,0-.55,1.415h3.432A2.093,2.093,0,0,0,22.234-6,1.543,1.543,0,0,0,21.031-6.48ZM29.391.137A3.657,3.657,0,0,1,26.633-.892a3.906,3.906,0,0,1-.995-2.833,4.285,4.285,0,0,1,.923-2.912A3.188,3.188,0,0,1,29.1-7.7a3.116,3.116,0,0,1,2.365.909,3.474,3.474,0,0,1,.868,2.5v.868H27.292a2.483,2.483,0,0,0,.595,1.692,2.071,2.071,0,0,0,1.579.591,5.829,5.829,0,0,0,1.248-.126,6.539,6.539,0,0,0,1.241-.42V-.376a4.932,4.932,0,0,1-1.189.4A7.294,7.294,0,0,1,29.391.137ZM29.1-6.48A1.614,1.614,0,0,0,27.87-6a2.313,2.313,0,0,0-.55,1.415h3.432A2.093,2.093,0,0,0,30.3-6,1.543,1.543,0,0,0,29.1-6.48ZM-25.836,19h-1.641V14.5h-4.607V19h-1.634V9.006h1.634v4.088h4.607V9.006h1.641Zm7.191,0-.321-1.053h-.055a3.1,3.1,0,0,1-1.1.94,3.481,3.481,0,0,1-1.422.25,2.406,2.406,0,0,1-1.74-.6,2.251,2.251,0,0,1-.625-1.7,2,2,0,0,1,.868-1.764A5.006,5.006,0,0,1-20.4,14.42l1.306-.041v-.4a1.529,1.529,0,0,0-.338-1.083,1.38,1.38,0,0,0-1.049-.359,3.628,3.628,0,0,0-1.114.171,8.409,8.409,0,0,0-1.025.4l-.52-1.148a5.591,5.591,0,0,1,1.347-.489,6.2,6.2,0,0,1,1.381-.167,3.27,3.27,0,0,1,2.177.629,2.462,2.462,0,0,1,.735,1.976V19Zm-2.393-1.094a1.99,1.99,0,0,0,1.4-.489,1.772,1.772,0,0,0,.53-1.371v-.656l-.971.041a3.321,3.321,0,0,0-1.651.379,1.153,1.153,0,0,0-.516,1.036,1.011,1.011,0,0,0,.3.783A1.292,1.292,0,0,0-21.038,17.906ZM-8.6,19h-1.613V14.352a2.034,2.034,0,0,0-.352-1.306,1.361,1.361,0,0,0-1.118-.431,1.777,1.777,0,0,0-1.49.6,3.321,3.321,0,0,0-.472,2.017V19h-1.606V11.439H-14l.226.991h.082a2.237,2.237,0,0,1,.971-.834,3.253,3.253,0,0,1,1.395-.294q2.721,0,2.721,2.769Zm4.785.137a2.633,2.633,0,0,1-2.208-1.025,4.609,4.609,0,0,1-.793-2.878,4.624,4.624,0,0,1,.8-2.9A2.658,2.658,0,0,1-3.791,11.3a2.606,2.606,0,0,1,2.27,1.1h.082a9.63,9.63,0,0,1-.116-1.285V8.363H.058V19H-1.2l-.28-.991h-.075A2.568,2.568,0,0,1-3.818,19.137Zm.431-1.3a1.748,1.748,0,0,0,1.442-.557,2.933,2.933,0,0,0,.465-1.808v-.226a3.389,3.389,0,0,0-.465-2.03,1.724,1.724,0,0,0-1.456-.6,1.477,1.477,0,0,0-1.306.687,3.521,3.521,0,0,0-.458,1.958,3.433,3.433,0,0,0,.444,1.917A1.5,1.5,0,0,0-3.387,17.838Zm9.6-6.535a2.624,2.624,0,0,1,2.2,1.025,4.623,4.623,0,0,1,.79,2.878,4.638,4.638,0,0,1-.8,2.9A2.649,2.649,0,0,1,6.19,19.137,2.648,2.648,0,0,1,3.961,18.1H3.852l-.294.9h-1.2V8.363H3.961v2.529q0,.28-.027.834t-.041.7h.068A2.551,2.551,0,0,1,6.217,11.3ZM5.8,12.615a1.633,1.633,0,0,0-1.4.571A3.321,3.321,0,0,0,3.961,15.1v.109a3.536,3.536,0,0,0,.438,2,1.627,1.627,0,0,0,1.429.619,1.448,1.448,0,0,0,1.3-.677,3.59,3.59,0,0,0,.441-1.955Q7.564,12.615,5.8,12.615Zm11.983,2.591a4.127,4.127,0,0,1-.95,2.892,3.4,3.4,0,0,1-2.646,1.039,3.625,3.625,0,0,1-1.873-.479,3.159,3.159,0,0,1-1.251-1.374,4.68,4.68,0,0,1-.437-2.078,4.1,4.1,0,0,1,.943-2.871A3.42,3.42,0,0,1,14.229,11.3a3.331,3.331,0,0,1,2.6,1.056A4.08,4.08,0,0,1,17.784,15.206Zm-5.5,0q0,2.618,1.935,2.618,1.914,0,1.914-2.618,0-2.591-1.928-2.591a1.644,1.644,0,0,0-1.466.67A3.409,3.409,0,0,0,12.281,15.206Zm14.055,0a4.127,4.127,0,0,1-.95,2.892,3.4,3.4,0,0,1-2.646,1.039,3.625,3.625,0,0,1-1.873-.479,3.159,3.159,0,0,1-1.251-1.374,4.68,4.68,0,0,1-.437-2.078,4.1,4.1,0,0,1,.943-2.871A3.42,3.42,0,0,1,22.781,11.3a3.331,3.331,0,0,1,2.6,1.056A4.08,4.08,0,0,1,26.335,15.206Zm-5.5,0q0,2.618,1.935,2.618,1.914,0,1.914-2.618,0-2.591-1.928-2.591a1.644,1.644,0,0,0-1.466.67A3.409,3.409,0,0,0,20.833,15.206Zm8.9-.2.909-1.135,2.283-2.434h1.853l-3.042,3.247L34.969,19H33.083l-2.427-3.315-.882.725V19H28.181V8.363h1.593v5.188l-.082,1.456Z" transform="translate(65 130)" fill="#3d3d3d"/>
        <g id="Group_7827-2" data-name="Group 7827" transform="translate(-78 -116)">
          <rect id="Rectangle_4483-2" data-name="Rectangle 4483" width="70" height="70" rx="4" transform="translate(108 146)" fill="none" opacity="0.5"/>
          <g id="Shadow_1_2" data-name="Shadow_1_" transform="translate(120 153.054)">
            <path id="Path_5743-2" data-name="Path 5743" d="M3.5,0H44.736a1.859,1.859,0,0,1,1.889,1.889h0V53.721a2,2,0,0,1-1.971,1.971H3.5" transform="translate(-0.625)" fill="#e04a39"/>
            <path id="Path_5744-2" data-name="Path 5744" d="M6.654,0H1.807A1.823,1.823,0,0,0,0,1.807H0V53.886a1.823,1.823,0,0,0,1.807,1.807H6.654" fill="#cc4434"/>
            <rect id="Rectangle_4122-2" data-name="Rectangle 4122" width="41.646" height="9.939" transform="translate(4.354 43.864)" fill="#cb4333"/>
            <path id="Path_5745-2" data-name="Path 5745" d="M7.275,55.1H47.2v7.311H7.275a.561.561,0,0,1-.575-.575V55.593A.549.549,0,0,1,7.275,55.1Z" transform="translate(-1.196 -9.839)" fill="#f1f2f2"/>
            <path id="Path_5746-2" data-name="Path 5746" d="M27.893,30.125H22.8V21.5h5.093v1.889H25.1V24.7h2.546v1.889H25.1v1.643h2.793Z" transform="translate(-4.071 -3.839)" fill="#fff"/>
            <path id="Path_5747-2" data-name="Path 5747" d="M35.893,30.125H30.8V21.5h5.093v1.889H33.1V24.7h2.546v1.889H33.1v1.643h2.793Z" transform="translate(-5.5 -3.839)" fill="#fff"/>
          </g>
        </g>
        <g id="Checked" transform="translate(5 5)">
          <path id="Path_5845" data-name="Path 5845" d="M46.2,0h-18a2.971,2.971,0,0,0-3,3V21a2.971,2.971,0,0,0,3,3h18a2.971,2.971,0,0,0,3-3V3A2.971,2.971,0,0,0,46.2,0ZM44.64,8.52l-8.76,8.76a1.16,1.16,0,0,1-1.68,0l-4.32-4.32a1.188,1.188,0,0,1,1.68-1.68l3.48,3.48,7.92-7.92a1.16,1.16,0,0,1,1.68,0A1.442,1.442,0,0,1,44.64,8.52Z" transform="translate(-25.2)" fill="#2777d3"/>
        </g>
      </g>
    </g>
  </g>
</svg>
