<svg xmlns="http://www.w3.org/2000/svg" xmlns:xlink="http://www.w3.org/1999/xlink" viewBox="-11996 -11321 346 300">
  <defs>
    <style>
      .cls-1 {
        clip-path: url(#clip-Gallery_Radio_1);
      }

      .cls-2 {
        fill: #e8eef6;
      }

      .cls-3 {
        fill: #fff;
      }

      .cls-4 {
        fill: #3d3d3d;
      }

      .cls-5 {
        fill: none;
        opacity: 0.5;
      }

      .cls-6 {
        fill: #e04a39;
      }

      .cls-7 {
        fill: #cc4434;
      }

      .cls-8 {
        fill: #cb4333;
      }

      .cls-9 {
        fill: #f1f2f2;
      }

      .cls-10, .cls-12 {
        fill: #1f5ea8;
      }

      .cls-11, .cls-12 {
        stroke: none;
      }

      .cls-13 {
        filter: url(#Path_6242);
      }
    </style>
    <filter id="Path_6242" x="-11974.5" y="-11269.5" width="149" height="198" filterUnits="userSpaceOnUse">
      <feOffset dy="1" input="SourceAlpha"/>
      <feGaussianBlur stdDeviation="1.5" result="blur"/>
      <feFlood flood-opacity="0.161"/>
      <feComposite operator="in" in2="blur"/>
      <feComposite in="SourceGraphic"/>
    </filter>
    <clipPath id="clip-Gallery_Radio_1">
      <rect x="-11996" y="-11321" width="346" height="300"/>
    </clipPath>
  </defs>
  <g id="Gallery_Radio_1" data-name="Gallery Radio – 1" class="cls-1">
    <g id="Path_6243" data-name="Path 6243" class="cls-2" transform="translate(-11815 -11266)">
      <path class="cls-11" d="M 137 188.5 L 3 188.5 C 1.621500015258789 188.5 0.5 187.3784942626953 0.5 186 L 0.5 3 C 0.5 1.621500015258789 1.621500015258789 0.5 3 0.5 L 137 0.5 C 138.3784942626953 0.5 139.5 1.621500015258789 139.5 3 L 139.5 186 C 139.5 187.3784942626953 138.3784942626953 188.5 137 188.5 Z"/>
      <path class="cls-12" d="M 137 188 C 138.1028137207031 188 139 187.1028137207031 139 186 L 139 3 C 139 1.897190451622009 138.1028137207031 1 137 1 L 3 1 C 1.897190451622009 1 1 1.897190451622009 1 3 L 1 186 C 1 187.1028137207031 1.897190451622009 188 3 188 L 137 188 M 137 189 L 3 189 C 1.343142867088318 189 0 187.6568603515625 0 186 L 0 3 C 0 1.343142867088318 1.343142867088318 0 3 0 L 137 0 C 138.6568603515625 0 140 1.343142867088318 140 3 L 140 186 C 140 187.6568603515625 138.6568603515625 189 137 189 Z"/>
    </g>
    <g class="cls-13" transform="matrix(1, 0, 0, 1, 0, 0)">
      <path id="Path_6242-2" data-name="Path 6242" class="cls-3" d="M3,0H137a3,3,0,0,1,3,3V186a3,3,0,0,1-3,3H3a3,3,0,0,1-3-3V3A3,3,0,0,1,3,0Z" transform="translate(-11970 -11266)"/>
    </g>
    <path id="Path_6246" data-name="Path 6246" class="cls-4" d="M-29.754,0h-6.461V-11.422h6.461v1.578h-4.594v3.109h4.3v1.563h-4.3v3.586h4.594ZM-20.2,0h-1.844V-5.328a2.416,2.416,0,0,0-.375-1.48A1.384,1.384,0,0,0-23.59-7.3a1.787,1.787,0,0,0-1.559.691,4.057,4.057,0,0,0-.5,2.3V0H-27.48V-8.641h1.438l.258,1.133h.094a2.394,2.394,0,0,1,1.043-.953,3.363,3.363,0,0,1,1.5-.336A2.628,2.628,0,0,1-20.5-7.437h.125a2.634,2.634,0,0,1,1.078-1A3.422,3.422,0,0,1-17.707-8.8a2.9,2.9,0,0,1,2.254.781,3.46,3.46,0,0,1,.707,2.383V0h-1.836V-5.328a2.4,2.4,0,0,0-.379-1.48A1.4,1.4,0,0,0-18.137-7.3a1.822,1.822,0,0,0-1.566.668,3.443,3.443,0,0,0-.5,2.051ZM-7.8.156a3.026,3.026,0,0,1-2.547-1.18h-.109Q-10.348.07-10.348.3V3.844h-1.836V-8.641H-10.7q.063.242.258,1.156h.094A2.876,2.876,0,0,1-7.77-8.8,3,3,0,0,1-5.25-7.625a5.284,5.284,0,0,1,.9,3.289,5.288,5.288,0,0,1-.918,3.3A3.026,3.026,0,0,1-7.8.156ZM-8.246-7.3a1.908,1.908,0,0,0-1.6.641,3.32,3.32,0,0,0-.5,2.047v.273a4.041,4.041,0,0,0,.5,2.285,1.86,1.86,0,0,0,1.633.707,1.658,1.658,0,0,0,1.469-.781A4.035,4.035,0,0,0-6.23-4.352a3.893,3.893,0,0,0-.512-2.2A1.707,1.707,0,0,0-8.246-7.3ZM-.379,0H-2.215V-12.156H-.379ZM9.91-4.336a4.716,4.716,0,0,1-1.086,3.3A3.891,3.891,0,0,1,5.8.156,4.143,4.143,0,0,1,3.66-.391a3.61,3.61,0,0,1-1.43-1.57,5.348,5.348,0,0,1-.5-2.375A4.684,4.684,0,0,1,2.809-7.617,3.909,3.909,0,0,1,5.848-8.8,3.807,3.807,0,0,1,8.816-7.59,4.663,4.663,0,0,1,9.91-4.336Zm-6.289,0q0,2.992,2.211,2.992,2.188,0,2.188-2.992,0-2.961-2.2-2.961a1.879,1.879,0,0,0-1.676.766A3.9,3.9,0,0,0,3.621-4.336Zm7.086-4.3h2l1.758,4.9A9.294,9.294,0,0,1,15-1.773h.063a8.212,8.212,0,0,1,.258-1.043Q15.5-3.43,17.3-8.641h1.984l-3.7,9.789q-1.008,2.7-3.359,2.7a5.287,5.287,0,0,1-1.187-.133V2.258a4.3,4.3,0,0,0,.945.094A1.936,1.936,0,0,0,13.855.813L14.176,0ZM24.371.156A4.18,4.18,0,0,1,21.219-1.02a4.463,4.463,0,0,1-1.137-3.238,4.9,4.9,0,0,1,1.055-3.328,3.643,3.643,0,0,1,2.9-1.211,3.561,3.561,0,0,1,2.7,1.039A3.97,3.97,0,0,1,27.73-4.9v.992H21.973a2.838,2.838,0,0,0,.68,1.934,2.367,2.367,0,0,0,1.8.676,6.662,6.662,0,0,0,1.426-.145,7.474,7.474,0,0,0,1.418-.48V-.43a5.637,5.637,0,0,1-1.359.453A8.336,8.336,0,0,1,24.371.156Zm-.336-7.562a1.845,1.845,0,0,0-1.4.555A2.644,2.644,0,0,0,22-5.234h3.922a2.392,2.392,0,0,0-.516-1.621A1.764,1.764,0,0,0,24.035-7.406ZM33.59.156A4.18,4.18,0,0,1,30.438-1.02,4.463,4.463,0,0,1,29.3-4.258a4.9,4.9,0,0,1,1.055-3.328,3.643,3.643,0,0,1,2.9-1.211,3.561,3.561,0,0,1,2.7,1.039A3.97,3.97,0,0,1,36.949-4.9v.992H31.191a2.838,2.838,0,0,0,.68,1.934,2.367,2.367,0,0,0,1.8.676A6.662,6.662,0,0,0,35.1-1.441a7.474,7.474,0,0,0,1.418-.48V-.43A5.637,5.637,0,0,1,35.16.023,8.336,8.336,0,0,1,33.59.156Zm-.336-7.562a1.845,1.845,0,0,0-1.4.555,2.644,2.644,0,0,0-.629,1.617h3.922a2.392,2.392,0,0,0-.516-1.621A1.764,1.764,0,0,0,33.254-7.406ZM-29.527,22H-31.4V16.852h-5.266V22h-1.867V10.578h1.867V15.25H-31.4V10.578h1.875Zm8.219,0-.367-1.2h-.062A3.54,3.54,0,0,1-23,21.871a3.978,3.978,0,0,1-1.625.285,2.75,2.75,0,0,1-1.988-.687,2.573,2.573,0,0,1-.715-1.945,2.284,2.284,0,0,1,.992-2.016,5.721,5.721,0,0,1,3.023-.742l1.492-.047v-.461A1.747,1.747,0,0,0-22.2,15.02a1.577,1.577,0,0,0-1.2-.41,4.147,4.147,0,0,0-1.273.2,9.61,9.61,0,0,0-1.172.461l-.594-1.312a6.39,6.39,0,0,1,1.539-.559,7.083,7.083,0,0,1,1.578-.191,3.738,3.738,0,0,1,2.488.719A2.814,2.814,0,0,1-20,16.18V22Zm-2.734-1.25a2.274,2.274,0,0,0,1.605-.559,2.025,2.025,0,0,0,.605-1.566v-.75l-1.109.047a3.8,3.8,0,0,0-1.887.434,1.317,1.317,0,0,0-.59,1.184,1.155,1.155,0,0,0,.344.895A1.477,1.477,0,0,0-24.043,20.75ZM-9.832,22h-1.844V16.688a2.325,2.325,0,0,0-.4-1.492,1.555,1.555,0,0,0-1.277-.492,2.031,2.031,0,0,0-1.7.688,3.8,3.8,0,0,0-.539,2.3V22h-1.836V13.359H-16l.258,1.133h.094a2.556,2.556,0,0,1,1.109-.953,3.718,3.718,0,0,1,1.594-.336q3.109,0,3.109,3.164Zm5.469.156a3.01,3.01,0,0,1-2.523-1.172A5.267,5.267,0,0,1-7.793,17.7a5.284,5.284,0,0,1,.918-3.309A3.038,3.038,0,0,1-4.332,13.2a2.979,2.979,0,0,1,2.594,1.258h.094a11.005,11.005,0,0,1-.133-1.469V9.844H.066V22H-1.371l-.32-1.133h-.086A2.935,2.935,0,0,1-4.363,22.156Zm.492-1.484a2,2,0,0,0,1.648-.637,3.352,3.352,0,0,0,.531-2.066v-.258a3.873,3.873,0,0,0-.531-2.32A1.971,1.971,0,0,0-3.887,14.7a1.688,1.688,0,0,0-1.492.785A4.024,4.024,0,0,0-5.9,17.727a3.923,3.923,0,0,0,.508,2.191A1.714,1.714,0,0,0-3.871,20.672ZM7.105,13.2a3,3,0,0,1,2.52,1.172,5.284,5.284,0,0,1,.9,3.289,5.3,5.3,0,0,1-.914,3.309,3.028,3.028,0,0,1-2.539,1.184,3.026,3.026,0,0,1-2.547-1.18H4.4L4.066,22H2.691V9.844H4.527v2.891q0,.32-.031.953t-.047.8h.078A2.916,2.916,0,0,1,7.105,13.2Zm-.477,1.5a1.866,1.866,0,0,0-1.6.652,3.8,3.8,0,0,0-.5,2.184v.125a4.041,4.041,0,0,0,.5,2.285,1.86,1.86,0,0,0,1.633.707,1.655,1.655,0,0,0,1.48-.773,4.1,4.1,0,0,0,.5-2.234Q8.645,14.7,6.629,14.7Zm13.7,2.961a4.716,4.716,0,0,1-1.086,3.3,3.891,3.891,0,0,1-3.023,1.188,4.143,4.143,0,0,1-2.141-.547,3.61,3.61,0,0,1-1.43-1.57,5.348,5.348,0,0,1-.5-2.375,4.684,4.684,0,0,1,1.078-3.281,3.909,3.909,0,0,1,3.039-1.18A3.807,3.807,0,0,1,19.23,14.41,4.663,4.663,0,0,1,20.324,17.664Zm-6.289,0q0,2.992,2.211,2.992,2.188,0,2.188-2.992,0-2.961-2.2-2.961a1.879,1.879,0,0,0-1.676.766A3.9,3.9,0,0,0,14.035,17.664Zm16.063,0a4.716,4.716,0,0,1-1.086,3.3,3.891,3.891,0,0,1-3.023,1.188,4.143,4.143,0,0,1-2.141-.547,3.61,3.61,0,0,1-1.43-1.57,5.348,5.348,0,0,1-.5-2.375A4.684,4.684,0,0,1,23,14.383a3.909,3.909,0,0,1,3.039-1.18A3.807,3.807,0,0,1,29,14.41,4.663,4.663,0,0,1,30.1,17.664Zm-6.289,0q0,2.992,2.211,2.992,2.188,0,2.188-2.992,0-2.961-2.2-2.961a1.879,1.879,0,0,0-1.676.766A3.9,3.9,0,0,0,23.809,17.664Zm10.172-.227,1.039-1.3,2.609-2.781h2.117L36.27,17.07l3.7,4.93H37.809l-2.773-3.789-1.008.828V22h-1.82V9.844h1.82v5.93l-.094,1.664Z" transform="translate(-11900 -11134)"/>
    <path id="Path_6244" data-name="Path 6244" class="cls-5" d="M4,0H66a4,4,0,0,1,4,4V66a4,4,0,0,1-4,4H4a4,4,0,0,1-4-4V4A4,4,0,0,1,4,0Z" transform="translate(-11935 -11236)"/>
    <g id="Shadow_1_" transform="translate(-11923 -11228.946)">
      <path id="Path_5743" data-name="Path 5743" class="cls-6" d="M3.5,0H44.736a1.859,1.859,0,0,1,1.889,1.889h0V53.721a2,2,0,0,1-1.971,1.971H3.5" transform="translate(-0.625)"/>
      <path id="Path_5744" data-name="Path 5744" class="cls-7" d="M6.654,0H1.807A1.823,1.823,0,0,0,0,1.807H0V53.886a1.823,1.823,0,0,0,1.807,1.807H6.654"/>
      <rect id="Rectangle_4122" data-name="Rectangle 4122" class="cls-8" width="41.646" height="9.939" transform="translate(4.354 43.864)"/>
      <path id="Path_5745" data-name="Path 5745" class="cls-9" d="M7.275,55.1H47.2v7.311H7.275a.561.561,0,0,1-.575-.575V55.593A.549.549,0,0,1,7.275,55.1Z" transform="translate(-1.196 -9.839)"/>
      <path id="Path_5746" data-name="Path 5746" class="cls-3" d="M27.893,30.125H22.8V21.5h5.093v1.889H25.1V24.7h2.546v1.889H25.1v1.643h2.793Z" transform="translate(-4.071 -3.839)"/>
      <path id="Path_5747" data-name="Path 5747" class="cls-3" d="M35.893,30.125H30.8V21.5h5.093v1.889H33.1V24.7h2.546v1.889H33.1v1.643h2.793Z" transform="translate(-5.5 -3.839)"/>
    </g>
    <path id="Path_6247" data-name="Path 6247" class="cls-4" d="M-29.754,0h-6.461V-11.422h6.461v1.578h-4.594v3.109h4.3v1.563h-4.3v3.586h4.594ZM-20.2,0h-1.844V-5.328a2.416,2.416,0,0,0-.375-1.48A1.384,1.384,0,0,0-23.59-7.3a1.787,1.787,0,0,0-1.559.691,4.057,4.057,0,0,0-.5,2.3V0H-27.48V-8.641h1.438l.258,1.133h.094a2.394,2.394,0,0,1,1.043-.953,3.363,3.363,0,0,1,1.5-.336A2.628,2.628,0,0,1-20.5-7.437h.125a2.634,2.634,0,0,1,1.078-1A3.422,3.422,0,0,1-17.707-8.8a2.9,2.9,0,0,1,2.254.781,3.46,3.46,0,0,1,.707,2.383V0h-1.836V-5.328a2.4,2.4,0,0,0-.379-1.48A1.4,1.4,0,0,0-18.137-7.3a1.822,1.822,0,0,0-1.566.668,3.443,3.443,0,0,0-.5,2.051ZM-7.8.156a3.026,3.026,0,0,1-2.547-1.18h-.109Q-10.348.07-10.348.3V3.844h-1.836V-8.641H-10.7q.063.242.258,1.156h.094A2.876,2.876,0,0,1-7.77-8.8,3,3,0,0,1-5.25-7.625a5.284,5.284,0,0,1,.9,3.289,5.288,5.288,0,0,1-.918,3.3A3.026,3.026,0,0,1-7.8.156ZM-8.246-7.3a1.908,1.908,0,0,0-1.6.641,3.32,3.32,0,0,0-.5,2.047v.273a4.041,4.041,0,0,0,.5,2.285,1.86,1.86,0,0,0,1.633.707,1.658,1.658,0,0,0,1.469-.781A4.035,4.035,0,0,0-6.23-4.352a3.893,3.893,0,0,0-.512-2.2A1.707,1.707,0,0,0-8.246-7.3ZM-.379,0H-2.215V-12.156H-.379ZM9.91-4.336a4.716,4.716,0,0,1-1.086,3.3A3.891,3.891,0,0,1,5.8.156,4.143,4.143,0,0,1,3.66-.391a3.61,3.61,0,0,1-1.43-1.57,5.348,5.348,0,0,1-.5-2.375A4.684,4.684,0,0,1,2.809-7.617,3.909,3.909,0,0,1,5.848-8.8,3.807,3.807,0,0,1,8.816-7.59,4.663,4.663,0,0,1,9.91-4.336Zm-6.289,0q0,2.992,2.211,2.992,2.188,0,2.188-2.992,0-2.961-2.2-2.961a1.879,1.879,0,0,0-1.676.766A3.9,3.9,0,0,0,3.621-4.336Zm7.086-4.3h2l1.758,4.9A9.294,9.294,0,0,1,15-1.773h.063a8.212,8.212,0,0,1,.258-1.043Q15.5-3.43,17.3-8.641h1.984l-3.7,9.789q-1.008,2.7-3.359,2.7a5.287,5.287,0,0,1-1.187-.133V2.258a4.3,4.3,0,0,0,.945.094A1.936,1.936,0,0,0,13.855.813L14.176,0ZM24.371.156A4.18,4.18,0,0,1,21.219-1.02a4.463,4.463,0,0,1-1.137-3.238,4.9,4.9,0,0,1,1.055-3.328,3.643,3.643,0,0,1,2.9-1.211,3.561,3.561,0,0,1,2.7,1.039A3.97,3.97,0,0,1,27.73-4.9v.992H21.973a2.838,2.838,0,0,0,.68,1.934,2.367,2.367,0,0,0,1.8.676,6.662,6.662,0,0,0,1.426-.145,7.474,7.474,0,0,0,1.418-.48V-.43a5.637,5.637,0,0,1-1.359.453A8.336,8.336,0,0,1,24.371.156Zm-.336-7.562a1.845,1.845,0,0,0-1.4.555A2.644,2.644,0,0,0,22-5.234h3.922a2.392,2.392,0,0,0-.516-1.621A1.764,1.764,0,0,0,24.035-7.406ZM33.59.156A4.18,4.18,0,0,1,30.438-1.02,4.463,4.463,0,0,1,29.3-4.258a4.9,4.9,0,0,1,1.055-3.328,3.643,3.643,0,0,1,2.9-1.211,3.561,3.561,0,0,1,2.7,1.039A3.97,3.97,0,0,1,36.949-4.9v.992H31.191a2.838,2.838,0,0,0,.68,1.934,2.367,2.367,0,0,0,1.8.676A6.662,6.662,0,0,0,35.1-1.441a7.474,7.474,0,0,0,1.418-.48V-.43A5.637,5.637,0,0,1,35.16.023,8.336,8.336,0,0,1,33.59.156Zm-.336-7.562a1.845,1.845,0,0,0-1.4.555,2.644,2.644,0,0,0-.629,1.617h3.922a2.392,2.392,0,0,0-.516-1.621A1.764,1.764,0,0,0,33.254-7.406ZM-29.527,22H-31.4V16.852h-5.266V22h-1.867V10.578h1.867V15.25H-31.4V10.578h1.875Zm8.219,0-.367-1.2h-.062A3.54,3.54,0,0,1-23,21.871a3.978,3.978,0,0,1-1.625.285,2.75,2.75,0,0,1-1.988-.687,2.573,2.573,0,0,1-.715-1.945,2.284,2.284,0,0,1,.992-2.016,5.721,5.721,0,0,1,3.023-.742l1.492-.047v-.461A1.747,1.747,0,0,0-22.2,15.02a1.577,1.577,0,0,0-1.2-.41,4.147,4.147,0,0,0-1.273.2,9.61,9.61,0,0,0-1.172.461l-.594-1.312a6.39,6.39,0,0,1,1.539-.559,7.083,7.083,0,0,1,1.578-.191,3.738,3.738,0,0,1,2.488.719A2.814,2.814,0,0,1-20,16.18V22Zm-2.734-1.25a2.274,2.274,0,0,0,1.605-.559,2.025,2.025,0,0,0,.605-1.566v-.75l-1.109.047a3.8,3.8,0,0,0-1.887.434,1.317,1.317,0,0,0-.59,1.184,1.155,1.155,0,0,0,.344.895A1.477,1.477,0,0,0-24.043,20.75ZM-9.832,22h-1.844V16.688a2.325,2.325,0,0,0-.4-1.492,1.555,1.555,0,0,0-1.277-.492,2.031,2.031,0,0,0-1.7.688,3.8,3.8,0,0,0-.539,2.3V22h-1.836V13.359H-16l.258,1.133h.094a2.556,2.556,0,0,1,1.109-.953,3.718,3.718,0,0,1,1.594-.336q3.109,0,3.109,3.164Zm5.469.156a3.01,3.01,0,0,1-2.523-1.172A5.267,5.267,0,0,1-7.793,17.7a5.284,5.284,0,0,1,.918-3.309A3.038,3.038,0,0,1-4.332,13.2a2.979,2.979,0,0,1,2.594,1.258h.094a11.005,11.005,0,0,1-.133-1.469V9.844H.066V22H-1.371l-.32-1.133h-.086A2.935,2.935,0,0,1-4.363,22.156Zm.492-1.484a2,2,0,0,0,1.648-.637,3.352,3.352,0,0,0,.531-2.066v-.258a3.873,3.873,0,0,0-.531-2.32A1.971,1.971,0,0,0-3.887,14.7a1.688,1.688,0,0,0-1.492.785A4.024,4.024,0,0,0-5.9,17.727a3.923,3.923,0,0,0,.508,2.191A1.714,1.714,0,0,0-3.871,20.672ZM7.105,13.2a3,3,0,0,1,2.52,1.172,5.284,5.284,0,0,1,.9,3.289,5.3,5.3,0,0,1-.914,3.309,3.028,3.028,0,0,1-2.539,1.184,3.026,3.026,0,0,1-2.547-1.18H4.4L4.066,22H2.691V9.844H4.527v2.891q0,.32-.031.953t-.047.8h.078A2.916,2.916,0,0,1,7.105,13.2Zm-.477,1.5a1.866,1.866,0,0,0-1.6.652,3.8,3.8,0,0,0-.5,2.184v.125a4.041,4.041,0,0,0,.5,2.285,1.86,1.86,0,0,0,1.633.707,1.655,1.655,0,0,0,1.48-.773,4.1,4.1,0,0,0,.5-2.234Q8.645,14.7,6.629,14.7Zm13.7,2.961a4.716,4.716,0,0,1-1.086,3.3,3.891,3.891,0,0,1-3.023,1.188,4.143,4.143,0,0,1-2.141-.547,3.61,3.61,0,0,1-1.43-1.57,5.348,5.348,0,0,1-.5-2.375,4.684,4.684,0,0,1,1.078-3.281,3.909,3.909,0,0,1,3.039-1.18A3.807,3.807,0,0,1,19.23,14.41,4.663,4.663,0,0,1,20.324,17.664Zm-6.289,0q0,2.992,2.211,2.992,2.188,0,2.188-2.992,0-2.961-2.2-2.961a1.879,1.879,0,0,0-1.676.766A3.9,3.9,0,0,0,14.035,17.664Zm16.063,0a4.716,4.716,0,0,1-1.086,3.3,3.891,3.891,0,0,1-3.023,1.188,4.143,4.143,0,0,1-2.141-.547,3.61,3.61,0,0,1-1.43-1.57,5.348,5.348,0,0,1-.5-2.375A4.684,4.684,0,0,1,23,14.383a3.909,3.909,0,0,1,3.039-1.18A3.807,3.807,0,0,1,29,14.41,4.663,4.663,0,0,1,30.1,17.664Zm-6.289,0q0,2.992,2.211,2.992,2.188,0,2.188-2.992,0-2.961-2.2-2.961a1.879,1.879,0,0,0-1.676.766A3.9,3.9,0,0,0,23.809,17.664Zm10.172-.227,1.039-1.3,2.609-2.781h2.117L36.27,17.07l3.7,4.93H37.809l-2.773-3.789-1.008.828V22h-1.82V9.844h1.82v5.93l-.094,1.664Z" transform="translate(-11745 -11134)"/>
    <path id="Path_6229" data-name="Path 6229" class="cls-10" d="M35,42.8a8,8,0,1,1-8,8,8.024,8.024,0,0,1,8-8m0-2a10,10,0,1,0,10,10,10.029,10.029,0,0,0-10-10Zm6,10a6,6,0,1,0-6,6A6.018,6.018,0,0,0,41,50.8Z" transform="translate(-11835 -11301.8)"/>
    <path id="Path_6245" data-name="Path 6245" class="cls-5" d="M4,0H66a4,4,0,0,1,4,4V66a4,4,0,0,1-4,4H4a4,4,0,0,1-4-4V4A4,4,0,0,1,4,0Z" transform="translate(-11780 -11236)"/>
    <g id="Shadow_1_2" data-name="Shadow_1_" transform="translate(-11768 -11228.946)">
      <path id="Path_5743-2" data-name="Path 5743" class="cls-6" d="M3.5,0H44.736a1.859,1.859,0,0,1,1.889,1.889h0V53.721a2,2,0,0,1-1.971,1.971H3.5" transform="translate(-0.625)"/>
      <path id="Path_5744-2" data-name="Path 5744" class="cls-7" d="M6.654,0H1.807A1.823,1.823,0,0,0,0,1.807H0V53.886a1.823,1.823,0,0,0,1.807,1.807H6.654"/>
      <rect id="Rectangle_4122-2" data-name="Rectangle 4122" class="cls-8" width="41.646" height="9.939" transform="translate(4.354 43.864)"/>
      <path id="Path_5745-2" data-name="Path 5745" class="cls-9" d="M7.275,55.1H47.2v7.311H7.275a.561.561,0,0,1-.575-.575V55.593A.549.549,0,0,1,7.275,55.1Z" transform="translate(-1.196 -9.839)"/>
      <path id="Path_5746-2" data-name="Path 5746" class="cls-3" d="M27.893,30.125H22.8V21.5h5.093v1.889H25.1V24.7h2.546v1.889H25.1v1.643h2.793Z" transform="translate(-4.071 -3.839)"/>
      <path id="Path_5747-2" data-name="Path 5747" class="cls-3" d="M35.893,30.125H30.8V21.5h5.093v1.889H33.1V24.7h2.546v1.889H33.1v1.643h2.793Z" transform="translate(-5.5 -3.839)"/>
    </g>
  </g>
</svg>
