<svg xmlns="http://www.w3.org/2000/svg" xmlns:xlink="http://www.w3.org/1999/xlink" width="627" height="208" viewBox="0 0 627 208">
  <defs>
    <filter id="Rectangle_4108" x="9" y="29" width="988" height="303" filterUnits="userSpaceOnUse">
      <feOffset dy="3" input="SourceAlpha"/>
      <feGaussianBlur stdDeviation="3" result="blur"/>
      <feFlood flood-opacity="0.251"/>
      <feComposite operator="in" in2="blur"/>
      <feComposite in="SourceGraphic"/>
    </filter>
    <clipPath id="clip-path">
      <rect id="Rectangle_8232" data-name="Rectangle 8232" width="16" height="16" fill="none"/>
    </clipPath>
    <clipPath id="clip-tooltips-anatomy">
      <rect width="627" height="208"/>
    </clipPath>
  </defs>
  <g id="tooltips-anatomy" clip-path="url(#clip-tooltips-anatomy)">
    <g transform="matrix(1, 0, 0, 1, 0, 0)" filter="url(#Rectangle_4108)">
      <rect id="Rectangle_4108-2" data-name="Rectangle 4108" width="970" height="285" transform="translate(18 35)" fill="#fff"/>
    </g>
    <path id="Path_8031" data-name="Path 8031" d="M10.713-12.031H6.689V0H4.365V-12.031H.352V-14H10.713ZM21.4,0H19.131V-5.469q0-2.969-1.982-2.969a2.073,2.073,0,0,0-1.68.859,3.421,3.421,0,0,0-.684,2.2V0H12.51V-14.8h2.275V-8.34h.039a3.578,3.578,0,0,1,3.242-1.895q3.33,0,3.33,4.072ZM32.871,0H30.605V-1.582h-.039A3.26,3.26,0,0,1,27.5.234q-3.545,0-3.545-4.258V-10h2.266v5.742q0,2.7,2.08,2.7A2.1,2.1,0,0,0,29.956-2.3a2.844,2.844,0,0,0,.649-1.943V-10h2.266Zm17.9,0H48.506V-5.449a4.416,4.416,0,0,0-.444-2.275,1.634,1.634,0,0,0-1.5-.7,1.807,1.807,0,0,0-1.509.889,3.626,3.626,0,0,0-.62,2.129V0H42.158V-5.635q0-2.793-1.973-2.793a1.779,1.779,0,0,0-1.509.84,3.7,3.7,0,0,0-.591,2.178V0H35.82V-10h2.266v1.582h.039a3.464,3.464,0,0,1,3.154-1.816,2.974,2.974,0,0,1,1.812.571,2.845,2.845,0,0,1,1.06,1.5,3.569,3.569,0,0,1,3.32-2.07q3.3,0,3.3,4.072ZM55.84-1.445H55.8V0H53.535V-14.8H55.8v6.563h.039a3.713,3.713,0,0,1,3.4-1.992A3.578,3.578,0,0,1,62.2-8.892a5.614,5.614,0,0,1,1.069,3.6,6.267,6.267,0,0,1-1.2,4.019A3.968,3.968,0,0,1,58.789.234,3.221,3.221,0,0,1,55.84-1.445ZM55.781-5.42v1.24a2.646,2.646,0,0,0,.7,1.855,2.3,2.3,0,0,0,1.772.762,2.315,2.315,0,0,0,1.978-.981,4.567,4.567,0,0,0,.718-2.739,3.6,3.6,0,0,0-.669-2.31,2.2,2.2,0,0,0-1.812-.835,2.441,2.441,0,0,0-1.948.859A3.183,3.183,0,0,0,55.781-5.42ZM74.492,0H72.227V-5.635q0-2.8-1.982-2.8a2.164,2.164,0,0,0-1.709.776A2.88,2.88,0,0,0,67.861-5.7V0H65.586V-10h2.275v1.66H67.9a3.564,3.564,0,0,1,3.242-1.895,3.02,3.02,0,0,1,2.49,1.06,4.758,4.758,0,0,1,.859,3.062ZM84.932,0h-2.2V-1.562H82.7a3.308,3.308,0,0,1-3.037,1.8,3.2,3.2,0,0,1-2.31-.8,2.8,2.8,0,0,1-.835-2.119q0-2.832,3.262-3.3l2.969-.42q0-2.139-2.031-2.139a4.825,4.825,0,0,0-3.223,1.23V-9.3a7.028,7.028,0,0,1,3.652-.937q3.789,0,3.789,3.73ZM82.744-4.912l-2.1.293a3.328,3.328,0,0,0-1.47.474,1.384,1.384,0,0,0-.493,1.216,1.331,1.331,0,0,0,.454,1.04,1.758,1.758,0,0,0,1.216.405,2.243,2.243,0,0,0,1.714-.728,2.58,2.58,0,0,0,.679-1.831ZM88.838-12.1a1.362,1.362,0,0,1-.952-.361,1.189,1.189,0,0,1-.4-.918,1.219,1.219,0,0,1,.4-.928,1.342,1.342,0,0,1,.952-.371,1.384,1.384,0,0,1,.977.371,1.212,1.212,0,0,1,.4.928,1.2,1.2,0,0,1-.4.9A1.374,1.374,0,0,1,88.838-12.1ZM89.961,0H87.7V-10h2.266ZM95.2,0H92.92V-14.8H95.2Z" transform="translate(48 84)" fill="#303030"/>
    <path id="Path_8032" data-name="Path 8032" d="M8.873,0H7.6L6.563-2.748H2.406L1.429,0H.15L3.91-9.8H5.1ZM6.187-3.78,4.648-7.957a4,4,0,0,1-.15-.656H4.471a3.661,3.661,0,0,1-.157.656L2.789-3.78ZM15.825,0H14.7V-1.107h-.027A2.3,2.3,0,0,1,12.517.164q-2.5,0-2.5-2.98V-7h1.114v4.006q0,2.215,1.7,2.215a1.715,1.715,0,0,0,1.35-.6,2.315,2.315,0,0,0,.53-1.583V-7h1.121Zm5.51-.068A2.161,2.161,0,0,1,20.289.15Q18.45.15,18.45-1.9V-6.043h-1.2V-7h1.2V-8.709l1.121-.362V-7h1.764v.957H19.571V-2.1a1.635,1.635,0,0,0,.239,1,.955.955,0,0,0,.793.3,1.179,1.179,0,0,0,.731-.232Zm4.423.232A3.247,3.247,0,0,1,23.28-.817a3.633,3.633,0,0,1-.926-2.6,3.785,3.785,0,0,1,.964-2.755,3.465,3.465,0,0,1,2.6-.991,3.14,3.14,0,0,1,2.444.964,3.822,3.822,0,0,1,.878,2.673A3.761,3.761,0,0,1,28.3-.844,3.317,3.317,0,0,1,25.758.164Zm.082-6.385a2.132,2.132,0,0,0-1.709.735A3.018,3.018,0,0,0,23.5-3.459,2.854,2.854,0,0,0,24.138-1.5a2.161,2.161,0,0,0,1.7.718,2.049,2.049,0,0,0,1.671-.7,3.055,3.055,0,0,0,.584-2,3.108,3.108,0,0,0-.584-2.023A2.04,2.04,0,0,0,25.84-6.221ZM40.975,0H39.854V-4.02A3.032,3.032,0,0,0,39.495-5.7a1.361,1.361,0,0,0-1.207-.52,1.494,1.494,0,0,0-1.22.656,2.511,2.511,0,0,0-.5,1.572V0H35.444V-4.156q0-2.064-1.593-2.064a1.475,1.475,0,0,0-1.217.619,2.557,2.557,0,0,0-.479,1.61V0H31.035V-7h1.121v1.107h.027a2.378,2.378,0,0,1,2.174-1.271,2.027,2.027,0,0,1,1.251.4,2.012,2.012,0,0,1,.731,1.049,2.5,2.5,0,0,1,2.324-1.449q2.311,0,2.311,2.851ZM48.1,0H46.983V-1.094h-.027A2.347,2.347,0,0,1,44.8.164,2.3,2.3,0,0,1,43.166-.39a1.918,1.918,0,0,1-.591-1.47q0-1.962,2.311-2.283l2.1-.294q0-1.784-1.442-1.784a3.446,3.446,0,0,0-2.283.861V-6.508a4.338,4.338,0,0,1,2.379-.656q2.468,0,2.468,2.611ZM46.983-3.541l-1.688.232a2.741,2.741,0,0,0-1.176.386,1.114,1.114,0,0,0-.4.981,1.068,1.068,0,0,0,.366.837,1.413,1.413,0,0,0,.974.325,1.8,1.8,0,0,0,1.377-.584,2.088,2.088,0,0,0,.543-1.48Zm6.48,3.473A2.161,2.161,0,0,1,52.418.15Q50.579.15,50.579-1.9V-6.043h-1.2V-7h1.2V-8.709L51.7-9.071V-7h1.764v.957H51.7V-2.1a1.635,1.635,0,0,0,.239,1,.955.955,0,0,0,.793.3,1.179,1.179,0,0,0,.731-.232Zm2.071-8.709a.71.71,0,0,1-.513-.205.692.692,0,0,1-.212-.52.7.7,0,0,1,.212-.523.7.7,0,0,1,.513-.208.724.724,0,0,1,.523.208.7.7,0,0,1,.215.523.693.693,0,0,1-.215.513A.718.718,0,0,1,55.535-8.777ZM56.082,0H54.961V-7h1.121Zm7.041-.321a3.643,3.643,0,0,1-1.914.485A3.169,3.169,0,0,1,58.792-.81a3.53,3.53,0,0,1-.919-2.526,3.881,3.881,0,0,1,.991-2.779A3.468,3.468,0,0,1,61.51-7.164a3.682,3.682,0,0,1,1.627.342v1.148a2.85,2.85,0,0,0-1.668-.547,2.254,2.254,0,0,0-1.76.769,2.918,2.918,0,0,0-.687,2.02,2.779,2.779,0,0,0,.646,1.941A2.227,2.227,0,0,0,61.4-.779a2.81,2.81,0,0,0,1.723-.608ZM69.829,0H68.708V-1.094h-.027A2.347,2.347,0,0,1,66.527.164,2.3,2.3,0,0,1,64.89-.39a1.918,1.918,0,0,1-.591-1.47q0-1.962,2.311-2.283l2.1-.294q0-1.784-1.442-1.784a3.446,3.446,0,0,0-2.283.861V-6.508a4.338,4.338,0,0,1,2.379-.656q2.468,0,2.468,2.611ZM68.708-3.541l-1.688.232a2.741,2.741,0,0,0-1.176.386,1.114,1.114,0,0,0-.4.981,1.068,1.068,0,0,0,.366.837,1.413,1.413,0,0,0,.974.325,1.8,1.8,0,0,0,1.377-.584,2.088,2.088,0,0,0,.543-1.48ZM73.063,0H71.941V-10.363h1.121Zm3.391,0H75.332V-10.363h1.121Zm7.841-7-3.22,8.121q-.861,2.174-2.42,2.174a2.565,2.565,0,0,1-.731-.089v-1a2.078,2.078,0,0,0,.663.123,1.374,1.374,0,0,0,1.271-1.012l.561-1.326L77.684-7h1.244l1.894,5.387q.034.1.144.533h.041q.034-.164.137-.52L83.132-7ZM95.307-.561q0,3.855-3.691,3.855a4.956,4.956,0,0,1-2.27-.492V1.682a4.661,4.661,0,0,0,2.256.656q2.584,0,2.584-2.748v-.766h-.027A2.622,2.622,0,0,1,91.752.164a2.628,2.628,0,0,1-2.1-.933,3.73,3.73,0,0,1-.8-2.505,4.358,4.358,0,0,1,.858-2.837A2.866,2.866,0,0,1,92.06-7.164a2.282,2.282,0,0,1,2.1,1.135h.027V-7h1.121Zm-1.121-2.6V-4.2a2,2,0,0,0-.564-1.429,1.857,1.857,0,0,0-1.4-.595,1.947,1.947,0,0,0-1.627.755A3.372,3.372,0,0,0,90-3.35a2.894,2.894,0,0,0,.564,1.87,1.822,1.822,0,0,0,1.494.7,1.951,1.951,0,0,0,1.535-.67A2.5,2.5,0,0,0,94.186-3.165ZM103.2-3.22H98.26a2.618,2.618,0,0,0,.629,1.8,2.168,2.168,0,0,0,1.654.636,3.439,3.439,0,0,0,2.174-.779V-.506a4.063,4.063,0,0,1-2.44.67A2.959,2.959,0,0,1,97.945-.79,3.9,3.9,0,0,1,97.1-3.473a3.828,3.828,0,0,1,.926-2.663,2.97,2.97,0,0,1,2.3-1.029,2.632,2.632,0,0,1,2.126.889,3.705,3.705,0,0,1,.752,2.468Zm-1.148-.95a2.281,2.281,0,0,0-.468-1.511,1.6,1.6,0,0,0-1.282-.54,1.811,1.811,0,0,0-1.347.567,2.575,2.575,0,0,0-.684,1.483ZM110.708,0h-1.121V-3.992q0-2.229-1.627-2.229a1.765,1.765,0,0,0-1.391.632,2.344,2.344,0,0,0-.55,1.6V0H104.9V-7h1.121v1.162h.027a2.526,2.526,0,0,1,2.3-1.326,2.142,2.142,0,0,1,1.757.742,3.3,3.3,0,0,1,.608,2.143Zm7.738-3.22H113.5a2.618,2.618,0,0,0,.629,1.8,2.168,2.168,0,0,0,1.654.636,3.439,3.439,0,0,0,2.174-.779V-.506a4.063,4.063,0,0,1-2.44.67,2.959,2.959,0,0,1-2.331-.954,3.9,3.9,0,0,1-.848-2.683,3.828,3.828,0,0,1,.926-2.663,2.97,2.97,0,0,1,2.3-1.029,2.632,2.632,0,0,1,2.126.889,3.705,3.705,0,0,1,.752,2.468ZM117.3-4.17a2.281,2.281,0,0,0-.468-1.511,1.6,1.6,0,0,0-1.282-.54,1.811,1.811,0,0,0-1.347.567,2.575,2.575,0,0,0-.684,1.483Zm6.494-1.7a1.371,1.371,0,0,0-.848-.226,1.431,1.431,0,0,0-1.2.677,3.129,3.129,0,0,0-.482,1.846V0h-1.121V-7h1.121v1.442h.027a2.444,2.444,0,0,1,.731-1.152,1.668,1.668,0,0,1,1.1-.414,1.83,1.83,0,0,1,.67.1ZM130.02,0H128.9V-1.094h-.027A2.347,2.347,0,0,1,126.718.164a2.3,2.3,0,0,1-1.637-.554,1.918,1.918,0,0,1-.591-1.47q0-1.962,2.311-2.283l2.1-.294q0-1.784-1.442-1.784a3.446,3.446,0,0,0-2.283.861V-6.508a4.338,4.338,0,0,1,2.379-.656q2.468,0,2.468,2.611ZM128.9-3.541l-1.688.232a2.741,2.741,0,0,0-1.176.386,1.114,1.114,0,0,0-.4.981A1.068,1.068,0,0,0,126-1.1a1.413,1.413,0,0,0,.974.325,1.8,1.8,0,0,0,1.377-.584,2.088,2.088,0,0,0,.543-1.48Zm6.48,3.473a2.162,2.162,0,0,1-1.046.219q-1.839,0-1.839-2.051V-6.043h-1.2V-7h1.2V-8.709l1.121-.362V-7h1.764v.957h-1.764V-2.1a1.635,1.635,0,0,0,.239,1,.955.955,0,0,0,.793.3,1.179,1.179,0,0,0,.731-.232ZM142.5-3.22H137.56a2.618,2.618,0,0,0,.629,1.8,2.168,2.168,0,0,0,1.654.636,3.439,3.439,0,0,0,2.174-.779V-.506a4.063,4.063,0,0,1-2.44.67,2.959,2.959,0,0,1-2.331-.954,3.9,3.9,0,0,1-.848-2.683,3.828,3.828,0,0,1,.926-2.663,2.97,2.97,0,0,1,2.3-1.029,2.632,2.632,0,0,1,2.126.889,3.705,3.705,0,0,1,.752,2.468Zm-1.148-.95a2.281,2.281,0,0,0-.468-1.511,1.6,1.6,0,0,0-1.282-.54,1.811,1.811,0,0,0-1.347.567,2.575,2.575,0,0,0-.684,1.483Zm9.926,4.1a2.162,2.162,0,0,1-1.046.219q-1.839,0-1.839-2.051V-6.043h-1.2V-7h1.2V-8.709l1.121-.362V-7h1.764v.957h-1.764V-2.1a1.635,1.635,0,0,0,.239,1,.955.955,0,0,0,.793.3,1.179,1.179,0,0,0,.731-.232ZM158.587,0h-1.121V-4.033q0-2.188-1.627-2.187a1.774,1.774,0,0,0-1.381.632,2.356,2.356,0,0,0-.561,1.624V0h-1.121V-10.363H153.9v4.525h.027a2.546,2.546,0,0,1,2.3-1.326q2.365,0,2.365,2.851Zm7.772,0h-1.121V-1.107h-.027a2.3,2.3,0,0,1-2.16,1.271q-2.5,0-2.5-2.98V-7h1.114v4.006q0,2.215,1.7,2.215a1.715,1.715,0,0,0,1.35-.6,2.315,2.315,0,0,0,.53-1.583V-7h1.121Zm12.2,0H177.44V-4.02a3.032,3.032,0,0,0-.359-1.682,1.361,1.361,0,0,0-1.207-.52,1.494,1.494,0,0,0-1.22.656,2.511,2.511,0,0,0-.5,1.572V0h-1.121V-4.156q0-2.064-1.593-2.064a1.475,1.475,0,0,0-1.217.619,2.557,2.557,0,0,0-.479,1.61V0h-1.121V-7h1.121v1.107h.027a2.378,2.378,0,0,1,2.174-1.271,2.027,2.027,0,0,1,1.251.4,2.012,2.012,0,0,1,.731,1.049,2.5,2.5,0,0,1,2.324-1.449q2.311,0,2.311,2.851Zm3.268-1.012H181.8V0h-1.121V-10.363H181.8V-5.77h.027a2.651,2.651,0,0,1,2.42-1.395,2.566,2.566,0,0,1,2.109.94,3.881,3.881,0,0,1,.762,2.519,4.339,4.339,0,0,1-.854,2.813A2.845,2.845,0,0,1,183.928.164,2.3,2.3,0,0,1,181.829-1.012ZM181.8-3.835v.978a2.081,2.081,0,0,0,.564,1.473,1.873,1.873,0,0,0,1.432.6,1.876,1.876,0,0,0,1.6-.779,3.575,3.575,0,0,0,.578-2.167,2.822,2.822,0,0,0-.54-1.832,1.787,1.787,0,0,0-1.463-.663,1.986,1.986,0,0,0-1.572.68A2.5,2.5,0,0,0,181.8-3.835ZM194.722,0H193.6V-3.992q0-2.229-1.627-2.229a1.765,1.765,0,0,0-1.391.632,2.344,2.344,0,0,0-.55,1.6V0h-1.121V-7h1.121v1.162h.027a2.526,2.526,0,0,1,2.3-1.326,2.142,2.142,0,0,1,1.757.742,3.3,3.3,0,0,1,.608,2.143Zm7.123,0h-1.121V-1.094H200.7A2.347,2.347,0,0,1,198.543.164a2.3,2.3,0,0,1-1.637-.554,1.918,1.918,0,0,1-.591-1.47q0-1.962,2.311-2.283l2.1-.294q0-1.784-1.442-1.784A3.446,3.446,0,0,0,197-5.359V-6.508a4.338,4.338,0,0,1,2.379-.656q2.468,0,2.468,2.611Zm-1.121-3.541-1.688.232a2.741,2.741,0,0,0-1.176.386,1.114,1.114,0,0,0-.4.981,1.068,1.068,0,0,0,.366.837,1.413,1.413,0,0,0,.974.325,1.8,1.8,0,0,0,1.377-.584,2.088,2.088,0,0,0,.543-1.48Zm3.808-5.236a.71.71,0,0,1-.513-.205.692.692,0,0,1-.212-.52.7.7,0,0,1,.212-.523.7.7,0,0,1,.513-.208.724.724,0,0,1,.523.208.7.7,0,0,1,.215.523.693.693,0,0,1-.215.513A.718.718,0,0,1,204.531-8.777ZM205.078,0h-1.121V-7h1.121Zm3.391,0h-1.121V-10.363h1.121Z" transform="translate(83 138)" fill="#1a1a1e"/>
    <path id="Path_8033" data-name="Path 8033" d="M8.456-3.965Q8.456.164,4.73.164q-3.568,0-3.568-3.972v-6H2.311v5.92q0,3.015,2.543,3.015,2.454,0,2.454-2.912V-9.8H8.456ZM11.9-1.012h-.027V3.22H10.753V-7h1.121v1.23H11.9a2.651,2.651,0,0,1,2.42-1.395,2.563,2.563,0,0,1,2.112.94,3.893,3.893,0,0,1,.759,2.519,4.339,4.339,0,0,1-.854,2.813A2.845,2.845,0,0,1,14,.164,2.342,2.342,0,0,1,11.9-1.012Zm-.027-2.823v.978a2.081,2.081,0,0,0,.564,1.473,1.873,1.873,0,0,0,1.432.6,1.876,1.876,0,0,0,1.6-.779,3.575,3.575,0,0,0,.578-2.167,2.822,2.822,0,0,0-.54-1.832,1.787,1.787,0,0,0-1.463-.663,1.986,1.986,0,0,0-1.572.68A2.5,2.5,0,0,0,11.874-3.835ZM20.1,0H18.983V-10.363H20.1Zm5.2.164a3.247,3.247,0,0,1-2.478-.981,3.633,3.633,0,0,1-.926-2.6,3.785,3.785,0,0,1,.964-2.755,3.465,3.465,0,0,1,2.6-.991,3.14,3.14,0,0,1,2.444.964,3.822,3.822,0,0,1,.878,2.673,3.761,3.761,0,0,1-.947,2.683A3.317,3.317,0,0,1,25.3.164Zm.082-6.385a2.132,2.132,0,0,0-1.709.735,3.018,3.018,0,0,0-.629,2.027A2.854,2.854,0,0,0,23.68-1.5a2.161,2.161,0,0,0,1.7.718,2.049,2.049,0,0,0,1.671-.7,3.055,3.055,0,0,0,.584-2,3.108,3.108,0,0,0-.584-2.023A2.04,2.04,0,0,0,25.382-6.221ZM35.588,0H34.467V-1.094h-.027A2.347,2.347,0,0,1,32.286.164,2.3,2.3,0,0,1,30.649-.39a1.918,1.918,0,0,1-.591-1.47q0-1.962,2.311-2.283l2.1-.294q0-1.784-1.442-1.784a3.446,3.446,0,0,0-2.283.861V-6.508a4.338,4.338,0,0,1,2.379-.656q2.468,0,2.468,2.611ZM34.467-3.541l-1.688.232a2.741,2.741,0,0,0-1.176.386,1.114,1.114,0,0,0-.4.981,1.068,1.068,0,0,0,.366.837,1.413,1.413,0,0,0,.974.325,1.8,1.8,0,0,0,1.377-.584,2.088,2.088,0,0,0,.543-1.48ZM43.675,0H42.554V-1.189h-.027A2.588,2.588,0,0,1,40.12.164a2.615,2.615,0,0,1-2.109-.94,3.856,3.856,0,0,1-.79-2.56A4.2,4.2,0,0,1,38.1-6.118a2.886,2.886,0,0,1,2.331-1.046,2.244,2.244,0,0,1,2.1,1.135h.027v-4.334h1.121ZM42.554-3.165V-4.2a2,2,0,0,0-.561-1.436,1.88,1.88,0,0,0-1.422-.588,1.936,1.936,0,0,0-1.613.752,3.3,3.3,0,0,0-.588,2.078,2.964,2.964,0,0,0,.564,1.911,1.843,1.843,0,0,0,1.514.7,1.915,1.915,0,0,0,1.521-.677A2.521,2.521,0,0,0,42.554-3.165ZM54.79,0H53.669V-1.094h-.027A2.347,2.347,0,0,1,51.488.164,2.3,2.3,0,0,1,49.851-.39a1.918,1.918,0,0,1-.591-1.47q0-1.962,2.311-2.283l2.1-.294q0-1.784-1.442-1.784a3.446,3.446,0,0,0-2.283.861V-6.508a4.338,4.338,0,0,1,2.379-.656q2.468,0,2.468,2.611ZM53.669-3.541l-1.688.232a2.741,2.741,0,0,0-1.176.386,1.114,1.114,0,0,0-.4.981,1.068,1.068,0,0,0,.366.837,1.413,1.413,0,0,0,.974.325,1.8,1.8,0,0,0,1.377-.584,2.088,2.088,0,0,0,.543-1.48Zm11.84,3.22a3.643,3.643,0,0,1-1.914.485A3.169,3.169,0,0,1,61.178-.81a3.53,3.53,0,0,1-.919-2.526,3.881,3.881,0,0,1,.991-2.779A3.468,3.468,0,0,1,63.9-7.164a3.682,3.682,0,0,1,1.627.342v1.148a2.85,2.85,0,0,0-1.668-.547,2.254,2.254,0,0,0-1.76.769,2.918,2.918,0,0,0-.687,2.02,2.779,2.779,0,0,0,.646,1.941,2.227,2.227,0,0,0,1.733.711,2.81,2.81,0,0,0,1.723-.608ZM72.864,0H71.743V-1.107h-.027A2.3,2.3,0,0,1,69.556.164q-2.5,0-2.5-2.98V-7h1.114v4.006q0,2.215,1.7,2.215a1.715,1.715,0,0,0,1.35-.6,2.315,2.315,0,0,0,.53-1.583V-7h1.121ZM74.7-.253v-1.2a3.318,3.318,0,0,0,2.017.677q1.477,0,1.477-.984a.854.854,0,0,0-.126-.475,1.26,1.26,0,0,0-.342-.345,2.631,2.631,0,0,0-.506-.27q-.291-.12-.625-.25a8.056,8.056,0,0,1-.817-.373,2.468,2.468,0,0,1-.588-.424,1.577,1.577,0,0,1-.355-.537,1.9,1.9,0,0,1-.12-.7,1.673,1.673,0,0,1,.226-.872,2,2,0,0,1,.6-.636,2.805,2.805,0,0,1,.858-.386,3.805,3.805,0,0,1,.995-.13,4.016,4.016,0,0,1,1.627.314v1.135a3.171,3.171,0,0,0-1.777-.506,2.078,2.078,0,0,0-.567.072,1.389,1.389,0,0,0-.434.2.932.932,0,0,0-.28.311.819.819,0,0,0-.1.4.959.959,0,0,0,.1.458,1.008,1.008,0,0,0,.291.328,2.221,2.221,0,0,0,.465.26q.273.116.622.253a8.658,8.658,0,0,1,.834.366,2.86,2.86,0,0,1,.629.424,1.656,1.656,0,0,1,.4.543,1.753,1.753,0,0,1,.14.731,1.725,1.725,0,0,1-.229.9,1.963,1.963,0,0,1-.612.636,2.8,2.8,0,0,1-.882.376,4.354,4.354,0,0,1-1.046.123A3.971,3.971,0,0,1,74.7-.253Zm9.611.185A2.161,2.161,0,0,1,83.269.15Q81.43.15,81.43-1.9V-6.043h-1.2V-7h1.2V-8.709l1.121-.362V-7h1.764v.957H82.551V-2.1a1.635,1.635,0,0,0,.239,1,.955.955,0,0,0,.793.3,1.179,1.179,0,0,0,.731-.232Zm4.423.232a3.247,3.247,0,0,1-2.478-.981,3.633,3.633,0,0,1-.926-2.6A3.785,3.785,0,0,1,86.3-6.173a3.465,3.465,0,0,1,2.6-.991,3.14,3.14,0,0,1,2.444.964,3.822,3.822,0,0,1,.878,2.673,3.761,3.761,0,0,1-.947,2.683A3.317,3.317,0,0,1,88.737.164Zm.082-6.385a2.132,2.132,0,0,0-1.709.735,3.018,3.018,0,0,0-.629,2.027A2.854,2.854,0,0,0,87.117-1.5a2.161,2.161,0,0,0,1.7.718,2.049,2.049,0,0,0,1.671-.7,3.055,3.055,0,0,0,.584-2,3.108,3.108,0,0,0-.584-2.023A2.04,2.04,0,0,0,88.819-6.221ZM103.954,0h-1.121V-4.02a3.032,3.032,0,0,0-.359-1.682,1.361,1.361,0,0,0-1.207-.52,1.494,1.494,0,0,0-1.22.656,2.511,2.511,0,0,0-.5,1.572V0H98.424V-4.156q0-2.064-1.593-2.064a1.475,1.475,0,0,0-1.217.619,2.557,2.557,0,0,0-.479,1.61V0H94.015V-7h1.121v1.107h.027a2.378,2.378,0,0,1,2.174-1.271,2.027,2.027,0,0,1,1.251.4,2.012,2.012,0,0,1,.731,1.049,2.5,2.5,0,0,1,2.324-1.449q2.311,0,2.311,2.851Zm9.2-.068a2.161,2.161,0,0,1-1.046.219q-1.839,0-1.839-2.051V-6.043h-1.2V-7h1.2V-8.709l1.121-.362V-7h1.764v.957h-1.764V-2.1a1.635,1.635,0,0,0,.239,1,.955.955,0,0,0,.793.3,1.179,1.179,0,0,0,.731-.232ZM120.463,0h-1.121V-4.033q0-2.188-1.627-2.187a1.774,1.774,0,0,0-1.381.632,2.356,2.356,0,0,0-.561,1.624V0h-1.121V-10.363h1.121v4.525h.027a2.546,2.546,0,0,1,2.3-1.326q2.365,0,2.365,2.851Zm7.772,0h-1.121V-1.107h-.027a2.3,2.3,0,0,1-2.16,1.271q-2.5,0-2.5-2.98V-7h1.114v4.006q0,2.215,1.7,2.215a1.715,1.715,0,0,0,1.35-.6,2.315,2.315,0,0,0,.53-1.583V-7h1.121Zm12.2,0h-1.121V-4.02a3.032,3.032,0,0,0-.359-1.682,1.361,1.361,0,0,0-1.207-.52,1.494,1.494,0,0,0-1.22.656,2.511,2.511,0,0,0-.5,1.572V0h-1.121V-4.156q0-2.064-1.593-2.064A1.475,1.475,0,0,0,132.1-5.6a2.557,2.557,0,0,0-.479,1.61V0H130.5V-7h1.121v1.107h.027a2.378,2.378,0,0,1,2.174-1.271,2.027,2.027,0,0,1,1.251.4,2.012,2.012,0,0,1,.731,1.049,2.5,2.5,0,0,1,2.324-1.449q2.311,0,2.311,2.851Zm3.268-1.012h-.027V0h-1.121V-10.363h1.121V-5.77h.027a2.651,2.651,0,0,1,2.42-1.395,2.566,2.566,0,0,1,2.109.94A3.881,3.881,0,0,1,149-3.705a4.339,4.339,0,0,1-.854,2.813A2.845,2.845,0,0,1,145.8.164,2.3,2.3,0,0,1,143.705-1.012Zm-.027-2.823v.978a2.081,2.081,0,0,0,.564,1.473,1.873,1.873,0,0,0,1.432.6,1.876,1.876,0,0,0,1.6-.779,3.575,3.575,0,0,0,.578-2.167,2.822,2.822,0,0,0-.54-1.832,1.787,1.787,0,0,0-1.463-.663,1.986,1.986,0,0,0-1.572.68A2.5,2.5,0,0,0,143.678-3.835ZM156.6,0h-1.121V-3.992q0-2.229-1.627-2.229a1.765,1.765,0,0,0-1.391.632,2.344,2.344,0,0,0-.55,1.6V0h-1.121V-7h1.121v1.162h.027a2.526,2.526,0,0,1,2.3-1.326,2.142,2.142,0,0,1,1.757.742,3.3,3.3,0,0,1,.608,2.143Zm7.123,0H162.6V-1.094h-.027A2.347,2.347,0,0,1,160.419.164a2.3,2.3,0,0,1-1.637-.554,1.918,1.918,0,0,1-.591-1.47q0-1.962,2.311-2.283l2.1-.294q0-1.784-1.442-1.784a3.446,3.446,0,0,0-2.283.861V-6.508a4.338,4.338,0,0,1,2.379-.656q2.468,0,2.468,2.611ZM162.6-3.541l-1.688.232a2.741,2.741,0,0,0-1.176.386,1.114,1.114,0,0,0-.4.981,1.068,1.068,0,0,0,.366.837,1.413,1.413,0,0,0,.974.325,1.8,1.8,0,0,0,1.377-.584,2.088,2.088,0,0,0,.543-1.48Zm3.808-5.236a.71.71,0,0,1-.513-.205.692.692,0,0,1-.212-.52.7.7,0,0,1,.212-.523.7.7,0,0,1,.513-.208.724.724,0,0,1,.523.208.7.7,0,0,1,.215.523.693.693,0,0,1-.215.513A.718.718,0,0,1,166.407-8.777ZM166.954,0h-1.121V-7h1.121Zm3.391,0h-1.121V-10.363h1.121Z" transform="translate(83 181)" fill="#1a1a1e"/>
    <g id="Rectangle_4119" data-name="Rectangle 4119" transform="translate(528 65)" fill="#fff" stroke="#d7d7d7" stroke-width="1" stroke-dasharray="4">
      <rect width="430" height="210" stroke="none"/>
      <rect x="0.5" y="0.5" width="429" height="209" fill="none"/>
    </g>
    <g id="Group_7816" data-name="Group 7816" transform="translate(-371 -118)">
      <circle id="Ellipse_2" data-name="Ellipse 2" cx="9" cy="9" r="9" transform="translate(420 285)" fill="#fff"/>
      <path id="Path_6085" data-name="Path 6085" d="M35,42.8a8,8,0,1,1-8,8,8.024,8.024,0,0,1,8-8m0-2a10,10,0,1,0,10,10,10.029,10.029,0,0,0-10-10Zm6,10a6,6,0,1,0-6,6A6.018,6.018,0,0,0,41,50.8Z" transform="translate(394 243.2)" fill="#1f5ea8"/>
    </g>
    <path id="Path_5843" data-name="Path 5843" d="M10,42.8a8,8,0,1,1-8,8,8.024,8.024,0,0,1,8-8m0-2a10,10,0,1,0,10,10,10.029,10.029,0,0,0-10-10Z" transform="translate(48 82)" fill="#999"/>
    <g id="Component_8" data-name="Component 8" transform="translate(83 22)">
      <path id="Union_8" data-name="Union 8" d="M-1302-2862h-73a2,2,0,0,1-2-2v-32a2,2,0,0,1,2-2h158a2,2,0,0,1,2,2v32a2,2,0,0,1-2,2h-73.687l-5.656,5.656Z" transform="translate(1377 2898)" fill="#494955"/>
      <path id="Path_8028" data-name="Path 8028" d="M8.456-3.965Q8.456.164,4.73.164q-3.568,0-3.568-3.972v-6H2.311v5.92q0,3.015,2.543,3.015,2.454,0,2.454-2.912V-9.8H8.456ZM11.9-1.012h-.027V3.22H10.753V-7h1.121v1.23H11.9a2.651,2.651,0,0,1,2.42-1.395,2.563,2.563,0,0,1,2.112.94,3.893,3.893,0,0,1,.759,2.519,4.339,4.339,0,0,1-.854,2.813A2.845,2.845,0,0,1,14,.164,2.342,2.342,0,0,1,11.9-1.012Zm-.027-2.823v.978a2.081,2.081,0,0,0,.564,1.473,1.873,1.873,0,0,0,1.432.6,1.876,1.876,0,0,0,1.6-.779,3.575,3.575,0,0,0,.578-2.167,2.822,2.822,0,0,0-.54-1.832,1.787,1.787,0,0,0-1.463-.663,1.986,1.986,0,0,0-1.572.68A2.5,2.5,0,0,0,11.874-3.835ZM20.1,0H18.983V-10.363H20.1Zm5.2.164a3.247,3.247,0,0,1-2.478-.981,3.633,3.633,0,0,1-.926-2.6,3.785,3.785,0,0,1,.964-2.755,3.465,3.465,0,0,1,2.6-.991,3.14,3.14,0,0,1,2.444.964,3.822,3.822,0,0,1,.878,2.673,3.761,3.761,0,0,1-.947,2.683A3.317,3.317,0,0,1,25.3.164Zm.082-6.385a2.132,2.132,0,0,0-1.709.735,3.018,3.018,0,0,0-.629,2.027A2.854,2.854,0,0,0,23.68-1.5a2.161,2.161,0,0,0,1.7.718,2.049,2.049,0,0,0,1.671-.7,3.055,3.055,0,0,0,.584-2,3.108,3.108,0,0,0-.584-2.023A2.04,2.04,0,0,0,25.382-6.221ZM35.588,0H34.467V-1.094h-.027A2.347,2.347,0,0,1,32.286.164,2.3,2.3,0,0,1,30.649-.39a1.918,1.918,0,0,1-.591-1.47q0-1.962,2.311-2.283l2.1-.294q0-1.784-1.442-1.784a3.446,3.446,0,0,0-2.283.861V-6.508a4.338,4.338,0,0,1,2.379-.656q2.468,0,2.468,2.611ZM34.467-3.541l-1.688.232a2.741,2.741,0,0,0-1.176.386,1.114,1.114,0,0,0-.4.981,1.068,1.068,0,0,0,.366.837,1.413,1.413,0,0,0,.974.325,1.8,1.8,0,0,0,1.377-.584,2.088,2.088,0,0,0,.543-1.48ZM43.675,0H42.554V-1.189h-.027A2.588,2.588,0,0,1,40.12.164a2.615,2.615,0,0,1-2.109-.94,3.856,3.856,0,0,1-.79-2.56A4.2,4.2,0,0,1,38.1-6.118a2.886,2.886,0,0,1,2.331-1.046,2.244,2.244,0,0,1,2.1,1.135h.027v-4.334h1.121ZM42.554-3.165V-4.2a2,2,0,0,0-.561-1.436,1.88,1.88,0,0,0-1.422-.588,1.936,1.936,0,0,0-1.613.752,3.3,3.3,0,0,0-.588,2.078,2.964,2.964,0,0,0,.564,1.911,1.843,1.843,0,0,0,1.514.7,1.915,1.915,0,0,0,1.521-.677A2.521,2.521,0,0,0,42.554-3.165Zm12,2.844a3.643,3.643,0,0,1-1.914.485A3.169,3.169,0,0,1,50.22-.81,3.53,3.53,0,0,1,49.3-3.336a3.881,3.881,0,0,1,.991-2.779,3.468,3.468,0,0,1,2.646-1.049,3.682,3.682,0,0,1,1.627.342v1.148A2.85,2.85,0,0,0,52.9-6.221a2.254,2.254,0,0,0-1.76.769,2.918,2.918,0,0,0-.687,2.02A2.779,2.779,0,0,0,51.1-1.49a2.227,2.227,0,0,0,1.733.711,2.81,2.81,0,0,0,1.723-.608ZM61.906,0H60.785V-1.107h-.027A2.3,2.3,0,0,1,58.6.164q-2.5,0-2.5-2.98V-7H57.21v4.006q0,2.215,1.7,2.215a1.715,1.715,0,0,0,1.35-.6,2.315,2.315,0,0,0,.53-1.583V-7h1.121Zm1.839-.253v-1.2a3.318,3.318,0,0,0,2.017.677q1.477,0,1.477-.984a.854.854,0,0,0-.126-.475,1.26,1.26,0,0,0-.342-.345,2.631,2.631,0,0,0-.506-.27q-.291-.12-.625-.25a8.056,8.056,0,0,1-.817-.373,2.468,2.468,0,0,1-.588-.424,1.577,1.577,0,0,1-.355-.537,1.9,1.9,0,0,1-.12-.7,1.673,1.673,0,0,1,.226-.872,2,2,0,0,1,.6-.636,2.805,2.805,0,0,1,.858-.386,3.805,3.805,0,0,1,.995-.13,4.016,4.016,0,0,1,1.627.314v1.135a3.171,3.171,0,0,0-1.777-.506,2.078,2.078,0,0,0-.567.072,1.389,1.389,0,0,0-.434.2.932.932,0,0,0-.28.311.819.819,0,0,0-.1.4.959.959,0,0,0,.1.458,1.008,1.008,0,0,0,.291.328,2.221,2.221,0,0,0,.465.26q.273.116.622.253a8.658,8.658,0,0,1,.834.366,2.86,2.86,0,0,1,.629.424,1.656,1.656,0,0,1,.4.543,1.753,1.753,0,0,1,.14.731,1.725,1.725,0,0,1-.229.9,1.963,1.963,0,0,1-.612.636,2.8,2.8,0,0,1-.882.376,4.354,4.354,0,0,1-1.046.123A3.971,3.971,0,0,1,63.745-.253Zm9.611.185A2.161,2.161,0,0,1,72.311.15Q70.472.15,70.472-1.9V-6.043h-1.2V-7h1.2V-8.709l1.121-.362V-7h1.764v.957H71.593V-2.1a1.635,1.635,0,0,0,.239,1,.955.955,0,0,0,.793.3,1.179,1.179,0,0,0,.731-.232Zm4.423.232A3.247,3.247,0,0,1,75.3-.817a3.633,3.633,0,0,1-.926-2.6,3.785,3.785,0,0,1,.964-2.755,3.465,3.465,0,0,1,2.6-.991,3.14,3.14,0,0,1,2.444.964,3.822,3.822,0,0,1,.878,2.673,3.761,3.761,0,0,1-.947,2.683A3.317,3.317,0,0,1,77.779.164Zm.082-6.385a2.132,2.132,0,0,0-1.709.735,3.018,3.018,0,0,0-.629,2.027A2.854,2.854,0,0,0,76.159-1.5a2.161,2.161,0,0,0,1.7.718,2.049,2.049,0,0,0,1.671-.7,3.055,3.055,0,0,0,.584-2,3.108,3.108,0,0,0-.584-2.023A2.04,2.04,0,0,0,77.861-6.221ZM93,0H91.875V-4.02A3.032,3.032,0,0,0,91.516-5.7a1.361,1.361,0,0,0-1.207-.52,1.494,1.494,0,0,0-1.22.656,2.511,2.511,0,0,0-.5,1.572V0H87.466V-4.156q0-2.064-1.593-2.064a1.475,1.475,0,0,0-1.217.619,2.557,2.557,0,0,0-.479,1.61V0H83.057V-7h1.121v1.107h.027a2.378,2.378,0,0,1,2.174-1.271,2.027,2.027,0,0,1,1.251.4,2.012,2.012,0,0,1,.731,1.049,2.5,2.5,0,0,1,2.324-1.449Q93-7.164,93-4.313Zm6.528-8.777a.71.71,0,0,1-.513-.205A.692.692,0,0,1,98.8-9.5a.7.7,0,0,1,.212-.523.7.7,0,0,1,.513-.208.724.724,0,0,1,.523.208.7.7,0,0,1,.215.523.693.693,0,0,1-.215.513A.718.718,0,0,1,99.524-8.777ZM100.071,0H98.95V-7h1.121ZM112.28,0h-1.121V-4.02A3.032,3.032,0,0,0,110.8-5.7a1.361,1.361,0,0,0-1.207-.52,1.494,1.494,0,0,0-1.22.656,2.511,2.511,0,0,0-.5,1.572V0H106.75V-4.156q0-2.064-1.593-2.064a1.475,1.475,0,0,0-1.217.619,2.557,2.557,0,0,0-.479,1.61V0h-1.121V-7h1.121v1.107h.027a2.378,2.378,0,0,1,2.174-1.271,2.027,2.027,0,0,1,1.251.4,2.012,2.012,0,0,1,.731,1.049,2.5,2.5,0,0,1,2.324-1.449q2.311,0,2.311,2.851Zm7.13,0h-1.121V-1.094h-.027A2.347,2.347,0,0,1,116.108.164a2.3,2.3,0,0,1-1.637-.554,1.918,1.918,0,0,1-.591-1.47q0-1.962,2.311-2.283l2.1-.294q0-1.784-1.442-1.784a3.446,3.446,0,0,0-2.283.861V-6.508a4.338,4.338,0,0,1,2.379-.656q2.468,0,2.468,2.611Zm-1.121-3.541-1.688.232a2.741,2.741,0,0,0-1.176.386,1.114,1.114,0,0,0-.4.981,1.068,1.068,0,0,0,.366.837,1.413,1.413,0,0,0,.974.325,1.8,1.8,0,0,0,1.377-.584,2.088,2.088,0,0,0,.543-1.48ZM127.5-.561q0,3.855-3.691,3.855a4.956,4.956,0,0,1-2.27-.492V1.682a4.661,4.661,0,0,0,2.256.656q2.584,0,2.584-2.748v-.766h-.027a2.622,2.622,0,0,1-2.406,1.34,2.628,2.628,0,0,1-2.1-.933,3.73,3.73,0,0,1-.8-2.505,4.358,4.358,0,0,1,.858-2.837,2.866,2.866,0,0,1,2.348-1.053,2.282,2.282,0,0,1,2.1,1.135h.027V-7H127.5Zm-1.121-2.6V-4.2a2,2,0,0,0-.564-1.429,1.857,1.857,0,0,0-1.4-.595,1.947,1.947,0,0,0-1.627.755,3.372,3.372,0,0,0-.588,2.116,2.894,2.894,0,0,0,.564,1.87,1.822,1.822,0,0,0,1.494.7,1.951,1.951,0,0,0,1.535-.67A2.5,2.5,0,0,0,126.376-3.165Zm9.017-.055H130.45a2.618,2.618,0,0,0,.629,1.8,2.168,2.168,0,0,0,1.654.636,3.439,3.439,0,0,0,2.174-.779V-.506a4.063,4.063,0,0,1-2.44.67,2.959,2.959,0,0,1-2.331-.954,3.9,3.9,0,0,1-.848-2.683,3.828,3.828,0,0,1,.926-2.663,2.97,2.97,0,0,1,2.3-1.029,2.632,2.632,0,0,1,2.126.889,3.705,3.705,0,0,1,.752,2.468Zm-1.148-.95a2.281,2.281,0,0,0-.468-1.511,1.6,1.6,0,0,0-1.282-.54,1.811,1.811,0,0,0-1.347.567,2.575,2.575,0,0,0-.684,1.483Zm2.42,3.917v-1.2a3.318,3.318,0,0,0,2.017.677q1.477,0,1.477-.984a.854.854,0,0,0-.126-.475,1.26,1.26,0,0,0-.342-.345,2.631,2.631,0,0,0-.506-.27q-.291-.12-.625-.25a8.056,8.056,0,0,1-.817-.373,2.468,2.468,0,0,1-.588-.424,1.577,1.577,0,0,1-.355-.537,1.9,1.9,0,0,1-.12-.7,1.673,1.673,0,0,1,.226-.872,2,2,0,0,1,.6-.636,2.805,2.805,0,0,1,.858-.386,3.805,3.805,0,0,1,.995-.13,4.016,4.016,0,0,1,1.627.314v1.135a3.171,3.171,0,0,0-1.777-.506,2.078,2.078,0,0,0-.567.072,1.389,1.389,0,0,0-.434.2.932.932,0,0,0-.28.311.819.819,0,0,0-.1.4.959.959,0,0,0,.1.458,1.008,1.008,0,0,0,.291.328,2.221,2.221,0,0,0,.465.26q.273.116.622.253a8.658,8.658,0,0,1,.834.366,2.86,2.86,0,0,1,.629.424,1.656,1.656,0,0,1,.4.543,1.753,1.753,0,0,1,.14.731,1.725,1.725,0,0,1-.229.9,1.963,1.963,0,0,1-.612.636,2.8,2.8,0,0,1-.882.376,4.354,4.354,0,0,1-1.046.123A3.971,3.971,0,0,1,136.664-.253Z" transform="translate(10 23)" fill="#fff"/>
    </g>
    <g id="Group_13711" data-name="Group 13711" transform="translate(-339 -1177)">
      <circle id="Ellipse_365" data-name="Ellipse 365" cx="8" cy="8" r="8" transform="translate(412 1192)" fill="#c6318c"/>
      <path id="Path_8029" data-name="Path 8029" d="M3.182,0H2.461V-5.445a1.668,1.668,0,0,1-.244.191,3.976,3.976,0,0,1-.36.213q-.2.105-.422.2A3.066,3.066,0,0,1,1-4.7v-.729a4.19,4.19,0,0,0,.5-.178q.266-.112.523-.25t.486-.29a3.855,3.855,0,0,0,.4-.3h.272Z" transform="translate(417.786 1203.5)" fill="#fff"/>
    </g>
    <g id="Group_13712" data-name="Group 13712" transform="translate(-184 -1166)">
      <circle id="Ellipse_365-2" data-name="Ellipse 365" cx="8" cy="8" r="8" transform="translate(412 1192)" fill="#c6318c"/>
      <path id="Path_8030" data-name="Path 8030" d="M3.393-4.649a1.3,1.3,0,0,0-.09-.505,1,1,0,0,0-.246-.358,1.008,1.008,0,0,0-.367-.213,1.437,1.437,0,0,0-.457-.07,1.512,1.512,0,0,0-.413.057,2.008,2.008,0,0,0-.393.158,2.419,2.419,0,0,0-.369.242,2.666,2.666,0,0,0-.332.312V-5.8a2.155,2.155,0,0,1,.679-.45,2.391,2.391,0,0,1,.916-.156,2.212,2.212,0,0,1,.716.112,1.642,1.642,0,0,1,.571.327,1.513,1.513,0,0,1,.38.532,1.793,1.793,0,0,1,.138.725,2.486,2.486,0,0,1-.086.677,2.093,2.093,0,0,1-.259.571,2.757,2.757,0,0,1-.437.514,6.194,6.194,0,0,1-.62.5q-.444.316-.732.541a3.235,3.235,0,0,0-.457.42A1.218,1.218,0,0,0,1.3-1.1a1.367,1.367,0,0,0-.068.45H4.368V0H.479V-.312a2.6,2.6,0,0,1,.088-.712,1.849,1.849,0,0,1,.29-.584,3.244,3.244,0,0,1,.53-.554q.327-.277.8-.624a5.07,5.07,0,0,0,.573-.47A2.445,2.445,0,0,0,3.133-3.7a1.61,1.61,0,0,0,.2-.455A1.961,1.961,0,0,0,3.393-4.649Z" transform="translate(417.786 1203.5)" fill="#fff"/>
    </g>
    <g id="help" transform="translate(164 77)">
      <g id="Group_15347" data-name="Group 15347" transform="translate(-8 -8)" clip-path="url(#clip-path)">
        <path id="Path_10443" data-name="Path 10443" d="M15.7,14.5h0a11.3,11.3,0,0,1-1-3.7,7.6,7.6,0,0,0,.7-3.2,7.7,7.7,0,1,0-5.1,7.2A19,19,0,0,0,14.7,16h.2a1,1,0,0,0,.9-1.5m-5-.9h-.5a6.4,6.4,0,1,1,4-5.9,6.3,6.3,0,0,1-.7,2.8v.3a13.6,13.6,0,0,0,.9,3.8,15.5,15.5,0,0,1-3.7-1" fill="#2f2f2f"/>
        <path id="Path_10444" data-name="Path 10444" d="M8,9.9a.8.8,0,1,0,.8.8h0A.8.8,0,0,0,8,9.9" fill="#2f2f2f"/>
        <path id="Path_10445" data-name="Path 10445" d="M8.1,3.5A2.5,2.5,0,0,0,5.6,6H6.9c0-.1.1-1.3,1.2-1.3a1,1,0,0,1,1,.6A1.3,1.3,0,0,1,9,6.7l-.6.5A1.8,1.8,0,0,0,7.5,9H8.7c0-.5,0-.5.4-.8l.7-.6a2.5,2.5,0,0,0,.4-2.7A2.2,2.2,0,0,0,8.1,3.5" fill="#2f2f2f"/>
      </g>
    </g>
  </g>
</svg>
