<svg xmlns="http://www.w3.org/2000/svg" xmlns:xlink="http://www.w3.org/1999/xlink" width="840" height="190" viewBox="0 0 840 190">
  <defs>
    <clipPath id="clip-path">
      <rect id="Rectangle_8224" data-name="Rectangle 8224" width="16" height="16" fill="none"/>
    </clipPath>
    <clipPath id="clip-tooltips-positioning">
      <rect width="840" height="190"/>
    </clipPath>
  </defs>
  <g id="tooltips-positioning" clip-path="url(#clip-tooltips-positioning)">
    <g id="Group_13725" data-name="Group 13725" transform="translate(-22 3)">
      <g id="Group_13723" data-name="Group 13723" transform="translate(12)">
        <g id="Component_4" data-name="Component 4" transform="translate(631 74)">
          <path id="Union_10" data-name="Union 10" d="M-1412-2862a2,2,0,0,1-2-2v-32a2,2,0,0,1,2-2h124a2,2,0,0,1,2,2v10.687l5.314,5.314-5.314,5.313V-2864a2,2,0,0,1-2,2Z" transform="translate(1414 2898)" fill="#494955"/>
          <path id="Path_8037" data-name="Path 8037" d="M-107.42-.4V-1.75a2.629,2.629,0,0,0,.557.369,4.514,4.514,0,0,0,.684.277,5.442,5.442,0,0,0,.721.174,4.021,4.021,0,0,0,.67.062,2.624,2.624,0,0,0,1.583-.393,1.33,1.33,0,0,0,.523-1.131,1.328,1.328,0,0,0-.174-.69,1.964,1.964,0,0,0-.482-.537,4.782,4.782,0,0,0-.728-.465q-.42-.222-.906-.468-.513-.26-.957-.526a4.147,4.147,0,0,1-.772-.588,2.452,2.452,0,0,1-.516-.728,2.253,2.253,0,0,1-.188-.954,2.242,2.242,0,0,1,.294-1.166,2.521,2.521,0,0,1,.772-.817,3.5,3.5,0,0,1,1.09-.479A4.992,4.992,0,0,1-104-9.967a4.781,4.781,0,0,1,2.112.349v1.292a3.829,3.829,0,0,0-2.229-.6,3.665,3.665,0,0,0-.752.079,2.124,2.124,0,0,0-.67.256,1.484,1.484,0,0,0-.479.458,1.216,1.216,0,0,0-.185.684,1.407,1.407,0,0,0,.14.649,1.592,1.592,0,0,0,.414.5,4.119,4.119,0,0,0,.667.438q.393.212.906.465t1,.547a4.562,4.562,0,0,1,.827.636,2.825,2.825,0,0,1,.564.772,2.171,2.171,0,0,1,.208.971,2.462,2.462,0,0,1-.284,1.227,2.328,2.328,0,0,1-.766.817,3.344,3.344,0,0,1-1.111.455,6.084,6.084,0,0,1-1.326.14,5.4,5.4,0,0,1-.574-.038q-.342-.038-.7-.109a5.69,5.69,0,0,1-.673-.178A2.1,2.1,0,0,1-107.42-.4ZM-94.049-3.22h-4.942a2.618,2.618,0,0,0,.629,1.8,2.168,2.168,0,0,0,1.654.636,3.439,3.439,0,0,0,2.174-.779V-.506a4.063,4.063,0,0,1-2.44.67A2.959,2.959,0,0,1-99.306-.79a3.9,3.9,0,0,1-.848-2.683,3.828,3.828,0,0,1,.926-2.663,2.97,2.97,0,0,1,2.3-1.029,2.632,2.632,0,0,1,2.126.889,3.705,3.705,0,0,1,.752,2.468ZM-95.2-4.17a2.281,2.281,0,0,0-.468-1.511,1.6,1.6,0,0,0-1.282-.54,1.811,1.811,0,0,0-1.347.567,2.575,2.575,0,0,0-.684,1.483ZM-91.232,0h-1.121V-10.363h1.121Zm7.9-3.22h-4.942a2.618,2.618,0,0,0,.629,1.8A2.168,2.168,0,0,0-86-.779a3.439,3.439,0,0,0,2.174-.779V-.506a4.063,4.063,0,0,1-2.44.67A2.959,2.959,0,0,1-88.594-.79a3.9,3.9,0,0,1-.848-2.683,3.828,3.828,0,0,1,.926-2.663,2.97,2.97,0,0,1,2.3-1.029,2.632,2.632,0,0,1,2.126.889,3.705,3.705,0,0,1,.752,2.468Zm-1.148-.95a2.281,2.281,0,0,0-.468-1.511,1.6,1.6,0,0,0-1.282-.54,1.811,1.811,0,0,0-1.347.567,2.575,2.575,0,0,0-.684,1.483ZM-76.87-.321a3.643,3.643,0,0,1-1.914.485A3.169,3.169,0,0,1-81.2-.81a3.53,3.53,0,0,1-.919-2.526,3.881,3.881,0,0,1,.991-2.779,3.467,3.467,0,0,1,2.646-1.049,3.682,3.682,0,0,1,1.627.342v1.148a2.85,2.85,0,0,0-1.668-.547,2.254,2.254,0,0,0-1.76.769,2.918,2.918,0,0,0-.687,2.02,2.779,2.779,0,0,0,.646,1.941,2.227,2.227,0,0,0,1.733.711,2.81,2.81,0,0,0,1.723-.608Zm4.942.253A2.161,2.161,0,0,1-72.974.15q-1.839,0-1.839-2.051V-6.043h-1.2V-7h1.2V-8.709l1.121-.362V-7h1.764v.957h-1.764V-2.1a1.635,1.635,0,0,0,.239,1,.955.955,0,0,0,.793.3,1.179,1.179,0,0,0,.731-.232ZM-61.585,0h-1.121V-1.094h-.027A2.347,2.347,0,0,1-64.887.164,2.3,2.3,0,0,1-66.524-.39a1.918,1.918,0,0,1-.591-1.47q0-1.962,2.311-2.283l2.1-.294q0-1.784-1.442-1.784a3.446,3.446,0,0,0-2.283.861V-6.508a4.338,4.338,0,0,1,2.379-.656q2.468,0,2.468,2.611Zm-1.121-3.541-1.688.232a2.741,2.741,0,0,0-1.176.386,1.114,1.114,0,0,0-.4.981A1.068,1.068,0,0,0-65.6-1.1a1.413,1.413,0,0,0,.974.325,1.8,1.8,0,0,0,1.377-.584,2.088,2.088,0,0,0,.543-1.48ZM-53.662,0h-1.121V-3.992q0-2.229-1.627-2.229a1.765,1.765,0,0,0-1.391.632,2.344,2.344,0,0,0-.55,1.6V0h-1.121V-7h1.121v1.162h.027a2.526,2.526,0,0,1,2.3-1.326,2.142,2.142,0,0,1,1.757.742,3.3,3.3,0,0,1,.608,2.143ZM-42.7,0h-1.121V-1.094h-.027A2.347,2.347,0,0,1-46.006.164,2.3,2.3,0,0,1-47.643-.39a1.918,1.918,0,0,1-.591-1.47q0-1.962,2.311-2.283l2.1-.294q0-1.784-1.442-1.784a3.446,3.446,0,0,0-2.283.861V-6.508a4.338,4.338,0,0,1,2.379-.656q2.468,0,2.468,2.611Zm-1.121-3.541-1.688.232a2.741,2.741,0,0,0-1.176.386,1.114,1.114,0,0,0-.4.981,1.068,1.068,0,0,0,.366.837,1.413,1.413,0,0,0,.974.325,1.8,1.8,0,0,0,1.377-.584,2.088,2.088,0,0,0,.543-1.48Zm8,3.22a3.643,3.643,0,0,1-1.914.485A3.169,3.169,0,0,1-40.151-.81a3.53,3.53,0,0,1-.919-2.526,3.881,3.881,0,0,1,.991-2.779,3.468,3.468,0,0,1,2.646-1.049,3.682,3.682,0,0,1,1.627.342v1.148a2.85,2.85,0,0,0-1.668-.547,2.254,2.254,0,0,0-1.76.769,2.918,2.918,0,0,0-.687,2.02,2.779,2.779,0,0,0,.646,1.941,2.227,2.227,0,0,0,1.733.711,2.81,2.81,0,0,0,1.723-.608Zm6.467,0a3.643,3.643,0,0,1-1.914.485A3.169,3.169,0,0,1-33.684-.81,3.53,3.53,0,0,1-34.6-3.336a3.881,3.881,0,0,1,.991-2.779,3.468,3.468,0,0,1,2.646-1.049,3.682,3.682,0,0,1,1.627.342v1.148a2.85,2.85,0,0,0-1.668-.547,2.254,2.254,0,0,0-1.76.769,2.918,2.918,0,0,0-.687,2.02,2.779,2.779,0,0,0,.646,1.941,2.227,2.227,0,0,0,1.733.711,2.81,2.81,0,0,0,1.723-.608Zm4.621.485A3.247,3.247,0,0,1-27.21-.817a3.633,3.633,0,0,1-.926-2.6,3.785,3.785,0,0,1,.964-2.755,3.465,3.465,0,0,1,2.6-.991,3.14,3.14,0,0,1,2.444.964,3.822,3.822,0,0,1,.878,2.673,3.761,3.761,0,0,1-.947,2.683A3.317,3.317,0,0,1-24.732.164Zm.082-6.385a2.132,2.132,0,0,0-1.709.735,3.018,3.018,0,0,0-.629,2.027A2.854,2.854,0,0,0-26.353-1.5a2.161,2.161,0,0,0,1.7.718,2.049,2.049,0,0,0,1.671-.7,3.055,3.055,0,0,0,.584-2,3.108,3.108,0,0,0-.584-2.023A2.04,2.04,0,0,0-24.65-6.221ZM-13.795,0h-1.121V-1.107h-.027A2.3,2.3,0,0,1-17.1.164q-2.5,0-2.5-2.98V-7h1.114v4.006q0,2.215,1.7,2.215a1.715,1.715,0,0,0,1.35-.6,2.315,2.315,0,0,0,.53-1.583V-7h1.121Zm8.073,0H-6.843V-3.992q0-2.229-1.627-2.229a1.765,1.765,0,0,0-1.391.632,2.344,2.344,0,0,0-.55,1.6V0h-1.121V-7h1.121v1.162h.027a2.526,2.526,0,0,1,2.3-1.326,2.142,2.142,0,0,1,1.757.742,3.3,3.3,0,0,1,.608,2.143ZM-.362-.068A2.161,2.161,0,0,1-1.408.15Q-3.247.15-3.247-1.9V-6.043h-1.2V-7h1.2V-8.709l1.121-.362V-7H-.362v.957H-2.126V-2.1a1.635,1.635,0,0,0,.239,1,.955.955,0,0,0,.793.3,1.179,1.179,0,0,0,.731-.232Z" transform="translate(118 23)" fill="#fff"/>
        </g>
      </g>
      <g id="Group_13722" data-name="Group 13722" transform="translate(12)">
        <g id="Component_3" data-name="Component 3" transform="translate(448 74)">
          <path id="Union_10-2" data-name="Union 10" d="M-1370-2862a2,2,0,0,1-2-2v-11l-5-5,5-5v-11a2,2,0,0,1,2-2h124a2,2,0,0,1,2,2v32a2,2,0,0,1-2,2Z" transform="translate(1377 2898)" fill="#494955"/>
          <path id="Path_8036" data-name="Path 8036" d="M.827-.4V-1.75a2.629,2.629,0,0,0,.557.369,4.514,4.514,0,0,0,.684.277,5.442,5.442,0,0,0,.721.174,4.021,4.021,0,0,0,.67.062,2.624,2.624,0,0,0,1.583-.393,1.33,1.33,0,0,0,.523-1.131,1.328,1.328,0,0,0-.174-.69,1.964,1.964,0,0,0-.482-.537,4.782,4.782,0,0,0-.728-.465q-.42-.222-.906-.468-.513-.26-.957-.526a4.147,4.147,0,0,1-.772-.588A2.452,2.452,0,0,1,1.029-6.4a2.253,2.253,0,0,1-.188-.954,2.242,2.242,0,0,1,.294-1.166,2.521,2.521,0,0,1,.772-.817A3.5,3.5,0,0,1,3-9.81a4.992,4.992,0,0,1,1.248-.157,4.781,4.781,0,0,1,2.112.349v1.292a3.829,3.829,0,0,0-2.229-.6,3.665,3.665,0,0,0-.752.079,2.124,2.124,0,0,0-.67.256,1.484,1.484,0,0,0-.479.458,1.216,1.216,0,0,0-.185.684,1.407,1.407,0,0,0,.14.649,1.592,1.592,0,0,0,.414.5,4.119,4.119,0,0,0,.667.438q.393.212.906.465t1,.547A4.562,4.562,0,0,1,6-4.218a2.825,2.825,0,0,1,.564.772,2.171,2.171,0,0,1,.208.971,2.462,2.462,0,0,1-.284,1.227,2.328,2.328,0,0,1-.766.817A3.344,3.344,0,0,1,4.607.024a6.084,6.084,0,0,1-1.326.14A5.4,5.4,0,0,1,2.707.126Q2.365.089,2.01.017a5.689,5.689,0,0,1-.673-.178A2.1,2.1,0,0,1,.827-.4ZM14.2-3.22H9.256a2.618,2.618,0,0,0,.629,1.8,2.168,2.168,0,0,0,1.654.636,3.439,3.439,0,0,0,2.174-.779V-.506a4.063,4.063,0,0,1-2.44.67A2.959,2.959,0,0,1,8.941-.79a3.9,3.9,0,0,1-.848-2.683A3.828,3.828,0,0,1,9.02-6.135a2.97,2.97,0,0,1,2.3-1.029,2.632,2.632,0,0,1,2.126.889A3.705,3.705,0,0,1,14.2-3.808ZM13.05-4.17a2.281,2.281,0,0,0-.468-1.511,1.6,1.6,0,0,0-1.282-.54,1.811,1.811,0,0,0-1.347.567A2.575,2.575,0,0,0,9.27-4.17ZM17.015,0H15.894V-10.363h1.121Zm7.9-3.22H19.968a2.618,2.618,0,0,0,.629,1.8,2.168,2.168,0,0,0,1.654.636,3.439,3.439,0,0,0,2.174-.779V-.506a4.063,4.063,0,0,1-2.44.67A2.959,2.959,0,0,1,19.653-.79a3.9,3.9,0,0,1-.848-2.683,3.828,3.828,0,0,1,.926-2.663,2.97,2.97,0,0,1,2.3-1.029,2.632,2.632,0,0,1,2.126.889,3.705,3.705,0,0,1,.752,2.468Zm-1.148-.95a2.281,2.281,0,0,0-.468-1.511,1.6,1.6,0,0,0-1.282-.54,1.811,1.811,0,0,0-1.347.567,2.575,2.575,0,0,0-.684,1.483ZM31.377-.321a3.643,3.643,0,0,1-1.914.485A3.169,3.169,0,0,1,27.046-.81a3.53,3.53,0,0,1-.919-2.526,3.881,3.881,0,0,1,.991-2.779,3.467,3.467,0,0,1,2.646-1.049,3.682,3.682,0,0,1,1.627.342v1.148a2.85,2.85,0,0,0-1.668-.547,2.254,2.254,0,0,0-1.76.769,2.918,2.918,0,0,0-.687,2.02,2.779,2.779,0,0,0,.646,1.941,2.227,2.227,0,0,0,1.733.711,2.81,2.81,0,0,0,1.723-.608Zm4.942.253A2.161,2.161,0,0,1,35.273.15Q33.435.15,33.435-1.9V-6.043h-1.2V-7h1.2V-8.709l1.121-.362V-7h1.764v.957H34.556V-2.1a1.635,1.635,0,0,0,.239,1,.955.955,0,0,0,.793.3,1.179,1.179,0,0,0,.731-.232ZM46.662,0H45.541V-1.094h-.027A2.347,2.347,0,0,1,43.36.164,2.3,2.3,0,0,1,41.723-.39a1.918,1.918,0,0,1-.591-1.47q0-1.962,2.311-2.283l2.1-.294q0-1.784-1.442-1.784a3.446,3.446,0,0,0-2.283.861V-6.508a4.338,4.338,0,0,1,2.379-.656q2.468,0,2.468,2.611ZM45.541-3.541l-1.688.232a2.741,2.741,0,0,0-1.176.386,1.114,1.114,0,0,0-.4.981,1.068,1.068,0,0,0,.366.837,1.413,1.413,0,0,0,.974.325A1.8,1.8,0,0,0,45-1.364a2.088,2.088,0,0,0,.543-1.48ZM54.585,0H53.464V-3.992q0-2.229-1.627-2.229a1.765,1.765,0,0,0-1.391.632,2.344,2.344,0,0,0-.55,1.6V0H48.774V-7H49.9v1.162h.027a2.526,2.526,0,0,1,2.3-1.326,2.142,2.142,0,0,1,1.757.742,3.3,3.3,0,0,1,.608,2.143ZM65.543,0H64.422V-1.094h-.027A2.347,2.347,0,0,1,62.241.164,2.3,2.3,0,0,1,60.6-.39a1.918,1.918,0,0,1-.591-1.47q0-1.962,2.311-2.283l2.1-.294q0-1.784-1.442-1.784a3.446,3.446,0,0,0-2.283.861V-6.508a4.338,4.338,0,0,1,2.379-.656q2.468,0,2.468,2.611ZM64.422-3.541l-1.688.232a2.741,2.741,0,0,0-1.176.386,1.114,1.114,0,0,0-.4.981,1.068,1.068,0,0,0,.366.837,1.413,1.413,0,0,0,.974.325,1.8,1.8,0,0,0,1.377-.584,2.088,2.088,0,0,0,.543-1.48Zm8,3.22a3.643,3.643,0,0,1-1.914.485A3.169,3.169,0,0,1,68.1-.81a3.53,3.53,0,0,1-.919-2.526,3.881,3.881,0,0,1,.991-2.779,3.467,3.467,0,0,1,2.646-1.049,3.682,3.682,0,0,1,1.627.342v1.148a2.85,2.85,0,0,0-1.668-.547,2.254,2.254,0,0,0-1.76.769,2.918,2.918,0,0,0-.687,2.02,2.779,2.779,0,0,0,.646,1.941A2.227,2.227,0,0,0,70.7-.779a2.81,2.81,0,0,0,1.723-.608Zm6.467,0a3.643,3.643,0,0,1-1.914.485A3.169,3.169,0,0,1,74.563-.81a3.53,3.53,0,0,1-.919-2.526,3.881,3.881,0,0,1,.991-2.779A3.467,3.467,0,0,1,77.28-7.164a3.682,3.682,0,0,1,1.627.342v1.148a2.85,2.85,0,0,0-1.668-.547,2.254,2.254,0,0,0-1.76.769,2.918,2.918,0,0,0-.687,2.02,2.779,2.779,0,0,0,.646,1.941,2.227,2.227,0,0,0,1.733.711,2.81,2.81,0,0,0,1.723-.608Zm4.621.485a3.247,3.247,0,0,1-2.478-.981,3.633,3.633,0,0,1-.926-2.6,3.785,3.785,0,0,1,.964-2.755,3.465,3.465,0,0,1,2.6-.991,3.14,3.14,0,0,1,2.444.964A3.822,3.822,0,0,1,87-3.527a3.761,3.761,0,0,1-.947,2.683A3.317,3.317,0,0,1,83.515.164ZM83.6-6.221a2.132,2.132,0,0,0-1.709.735,3.018,3.018,0,0,0-.629,2.027A2.854,2.854,0,0,0,81.895-1.5a2.161,2.161,0,0,0,1.7.718,2.049,2.049,0,0,0,1.671-.7,3.055,3.055,0,0,0,.584-2,3.108,3.108,0,0,0-.584-2.023A2.04,2.04,0,0,0,83.6-6.221ZM94.452,0H93.331V-1.107H93.3A2.3,2.3,0,0,1,91.144.164q-2.5,0-2.5-2.98V-7h1.114v4.006q0,2.215,1.7,2.215a1.715,1.715,0,0,0,1.35-.6,2.315,2.315,0,0,0,.53-1.583V-7h1.121Zm8.073,0H101.4V-3.992q0-2.229-1.627-2.229a1.765,1.765,0,0,0-1.391.632,2.344,2.344,0,0,0-.55,1.6V0H96.715V-7h1.121v1.162h.027a2.526,2.526,0,0,1,2.3-1.326,2.142,2.142,0,0,1,1.757.742,3.3,3.3,0,0,1,.608,2.143Zm5.359-.068a2.161,2.161,0,0,1-1.046.219Q105,.15,105-1.9V-6.043h-1.2V-7H105V-8.709l1.121-.362V-7h1.764v.957h-1.764V-2.1a1.635,1.635,0,0,0,.239,1,.955.955,0,0,0,.793.3,1.179,1.179,0,0,0,.731-.232Z" transform="translate(15 23)" fill="#fff"/>
        </g>
      </g>
      <g id="Group_13724" data-name="Group 13724" transform="translate(-4 -3)">
        <g id="Component_2" data-name="Component 2" transform="translate(265 71)">
          <path id="Union_9" data-name="Union 9" d="M-1375-2856.344a2,2,0,0,1-2-2v-32a2,2,0,0,1,2-2h56l5.657-5.656,5.656,5.656H-1251a2,2,0,0,1,2,2v32a2,2,0,0,1-2,2Z" transform="translate(1377 2898)" fill="#494955"/>
          <path id="Path_8035" data-name="Path 8035" d="M.827-.4V-1.75a2.629,2.629,0,0,0,.557.369,4.514,4.514,0,0,0,.684.277,5.442,5.442,0,0,0,.721.174,4.021,4.021,0,0,0,.67.062,2.624,2.624,0,0,0,1.583-.393,1.33,1.33,0,0,0,.523-1.131,1.328,1.328,0,0,0-.174-.69,1.964,1.964,0,0,0-.482-.537,4.782,4.782,0,0,0-.728-.465q-.42-.222-.906-.468-.513-.26-.957-.526a4.147,4.147,0,0,1-.772-.588A2.452,2.452,0,0,1,1.029-6.4a2.253,2.253,0,0,1-.188-.954,2.242,2.242,0,0,1,.294-1.166,2.521,2.521,0,0,1,.772-.817A3.5,3.5,0,0,1,3-9.81a4.992,4.992,0,0,1,1.248-.157,4.781,4.781,0,0,1,2.112.349v1.292a3.829,3.829,0,0,0-2.229-.6,3.665,3.665,0,0,0-.752.079,2.124,2.124,0,0,0-.67.256,1.484,1.484,0,0,0-.479.458,1.216,1.216,0,0,0-.185.684,1.407,1.407,0,0,0,.14.649,1.592,1.592,0,0,0,.414.5,4.119,4.119,0,0,0,.667.438q.393.212.906.465t1,.547A4.562,4.562,0,0,1,6-4.218a2.825,2.825,0,0,1,.564.772,2.171,2.171,0,0,1,.208.971,2.462,2.462,0,0,1-.284,1.227,2.328,2.328,0,0,1-.766.817A3.344,3.344,0,0,1,4.607.024a6.084,6.084,0,0,1-1.326.14A5.4,5.4,0,0,1,2.707.126Q2.365.089,2.01.017a5.689,5.689,0,0,1-.673-.178A2.1,2.1,0,0,1,.827-.4ZM14.2-3.22H9.256a2.618,2.618,0,0,0,.629,1.8,2.168,2.168,0,0,0,1.654.636,3.439,3.439,0,0,0,2.174-.779V-.506a4.063,4.063,0,0,1-2.44.67A2.959,2.959,0,0,1,8.941-.79a3.9,3.9,0,0,1-.848-2.683A3.828,3.828,0,0,1,9.02-6.135a2.97,2.97,0,0,1,2.3-1.029,2.632,2.632,0,0,1,2.126.889A3.705,3.705,0,0,1,14.2-3.808ZM13.05-4.17a2.281,2.281,0,0,0-.468-1.511,1.6,1.6,0,0,0-1.282-.54,1.811,1.811,0,0,0-1.347.567A2.575,2.575,0,0,0,9.27-4.17ZM17.015,0H15.894V-10.363h1.121Zm7.9-3.22H19.968a2.618,2.618,0,0,0,.629,1.8,2.168,2.168,0,0,0,1.654.636,3.439,3.439,0,0,0,2.174-.779V-.506a4.063,4.063,0,0,1-2.44.67A2.959,2.959,0,0,1,19.653-.79a3.9,3.9,0,0,1-.848-2.683,3.828,3.828,0,0,1,.926-2.663,2.97,2.97,0,0,1,2.3-1.029,2.632,2.632,0,0,1,2.126.889,3.705,3.705,0,0,1,.752,2.468Zm-1.148-.95a2.281,2.281,0,0,0-.468-1.511,1.6,1.6,0,0,0-1.282-.54,1.811,1.811,0,0,0-1.347.567,2.575,2.575,0,0,0-.684,1.483ZM31.377-.321a3.643,3.643,0,0,1-1.914.485A3.169,3.169,0,0,1,27.046-.81a3.53,3.53,0,0,1-.919-2.526,3.881,3.881,0,0,1,.991-2.779,3.467,3.467,0,0,1,2.646-1.049,3.682,3.682,0,0,1,1.627.342v1.148a2.85,2.85,0,0,0-1.668-.547,2.254,2.254,0,0,0-1.76.769,2.918,2.918,0,0,0-.687,2.02,2.779,2.779,0,0,0,.646,1.941,2.227,2.227,0,0,0,1.733.711,2.81,2.81,0,0,0,1.723-.608Zm4.942.253A2.161,2.161,0,0,1,35.273.15Q33.435.15,33.435-1.9V-6.043h-1.2V-7h1.2V-8.709l1.121-.362V-7h1.764v.957H34.556V-2.1a1.635,1.635,0,0,0,.239,1,.955.955,0,0,0,.793.3,1.179,1.179,0,0,0,.731-.232ZM46.662,0H45.541V-1.094h-.027A2.347,2.347,0,0,1,43.36.164,2.3,2.3,0,0,1,41.723-.39a1.918,1.918,0,0,1-.591-1.47q0-1.962,2.311-2.283l2.1-.294q0-1.784-1.442-1.784a3.446,3.446,0,0,0-2.283.861V-6.508a4.338,4.338,0,0,1,2.379-.656q2.468,0,2.468,2.611ZM45.541-3.541l-1.688.232a2.741,2.741,0,0,0-1.176.386,1.114,1.114,0,0,0-.4.981,1.068,1.068,0,0,0,.366.837,1.413,1.413,0,0,0,.974.325A1.8,1.8,0,0,0,45-1.364a2.088,2.088,0,0,0,.543-1.48ZM54.585,0H53.464V-3.992q0-2.229-1.627-2.229a1.765,1.765,0,0,0-1.391.632,2.344,2.344,0,0,0-.55,1.6V0H48.774V-7H49.9v1.162h.027a2.526,2.526,0,0,1,2.3-1.326,2.142,2.142,0,0,1,1.757.742,3.3,3.3,0,0,1,.608,2.143ZM65.543,0H64.422V-1.094h-.027A2.347,2.347,0,0,1,62.241.164,2.3,2.3,0,0,1,60.6-.39a1.918,1.918,0,0,1-.591-1.47q0-1.962,2.311-2.283l2.1-.294q0-1.784-1.442-1.784a3.446,3.446,0,0,0-2.283.861V-6.508a4.338,4.338,0,0,1,2.379-.656q2.468,0,2.468,2.611ZM64.422-3.541l-1.688.232a2.741,2.741,0,0,0-1.176.386,1.114,1.114,0,0,0-.4.981,1.068,1.068,0,0,0,.366.837,1.413,1.413,0,0,0,.974.325,1.8,1.8,0,0,0,1.377-.584,2.088,2.088,0,0,0,.543-1.48Zm8,3.22a3.643,3.643,0,0,1-1.914.485A3.169,3.169,0,0,1,68.1-.81a3.53,3.53,0,0,1-.919-2.526,3.881,3.881,0,0,1,.991-2.779,3.467,3.467,0,0,1,2.646-1.049,3.682,3.682,0,0,1,1.627.342v1.148a2.85,2.85,0,0,0-1.668-.547,2.254,2.254,0,0,0-1.76.769,2.918,2.918,0,0,0-.687,2.02,2.779,2.779,0,0,0,.646,1.941A2.227,2.227,0,0,0,70.7-.779a2.81,2.81,0,0,0,1.723-.608Zm6.467,0a3.643,3.643,0,0,1-1.914.485A3.169,3.169,0,0,1,74.563-.81a3.53,3.53,0,0,1-.919-2.526,3.881,3.881,0,0,1,.991-2.779A3.467,3.467,0,0,1,77.28-7.164a3.682,3.682,0,0,1,1.627.342v1.148a2.85,2.85,0,0,0-1.668-.547,2.254,2.254,0,0,0-1.76.769,2.918,2.918,0,0,0-.687,2.02,2.779,2.779,0,0,0,.646,1.941,2.227,2.227,0,0,0,1.733.711,2.81,2.81,0,0,0,1.723-.608Zm4.621.485a3.247,3.247,0,0,1-2.478-.981,3.633,3.633,0,0,1-.926-2.6,3.785,3.785,0,0,1,.964-2.755,3.465,3.465,0,0,1,2.6-.991,3.14,3.14,0,0,1,2.444.964A3.822,3.822,0,0,1,87-3.527a3.761,3.761,0,0,1-.947,2.683A3.317,3.317,0,0,1,83.515.164ZM83.6-6.221a2.132,2.132,0,0,0-1.709.735,3.018,3.018,0,0,0-.629,2.027A2.854,2.854,0,0,0,81.895-1.5a2.161,2.161,0,0,0,1.7.718,2.049,2.049,0,0,0,1.671-.7,3.055,3.055,0,0,0,.584-2,3.108,3.108,0,0,0-.584-2.023A2.04,2.04,0,0,0,83.6-6.221ZM94.452,0H93.331V-1.107H93.3A2.3,2.3,0,0,1,91.144.164q-2.5,0-2.5-2.98V-7h1.114v4.006q0,2.215,1.7,2.215a1.715,1.715,0,0,0,1.35-.6,2.315,2.315,0,0,0,.53-1.583V-7h1.121Zm8.073,0H101.4V-3.992q0-2.229-1.627-2.229a1.765,1.765,0,0,0-1.391.632,2.344,2.344,0,0,0-.55,1.6V0H96.715V-7h1.121v1.162h.027a2.526,2.526,0,0,1,2.3-1.326,2.142,2.142,0,0,1,1.757.742,3.3,3.3,0,0,1,.608,2.143Zm5.359-.068a2.161,2.161,0,0,1-1.046.219Q105,.15,105-1.9V-6.043h-1.2V-7H105V-8.709l1.121-.362V-7h1.764v.957h-1.764V-2.1a1.635,1.635,0,0,0,.239,1,.955.955,0,0,0,.793.3,1.179,1.179,0,0,0,.731-.232Z" transform="translate(10 28.657)" fill="#fff"/>
        </g>
      </g>
      <g id="Group_13721" data-name="Group 13721" transform="translate(-41 25)">
        <g id="Component_12" data-name="Component 12" transform="translate(128 49)">
          <path id="Union_8" data-name="Union 8" d="M-1319-2862h-56a2,2,0,0,1-2-2v-32a2,2,0,0,1,2-2h124a2,2,0,0,1,2,2v32a2,2,0,0,1-2,2h-56.687l-5.656,5.656Z" transform="translate(1377 2898)" fill="#494955"/>
          <path id="Path_8034" data-name="Path 8034" d="M.827-.4V-1.75a2.629,2.629,0,0,0,.557.369,4.514,4.514,0,0,0,.684.277,5.442,5.442,0,0,0,.721.174,4.021,4.021,0,0,0,.67.062,2.624,2.624,0,0,0,1.583-.393,1.33,1.33,0,0,0,.523-1.131,1.328,1.328,0,0,0-.174-.69,1.964,1.964,0,0,0-.482-.537,4.782,4.782,0,0,0-.728-.465q-.42-.222-.906-.468-.513-.26-.957-.526a4.147,4.147,0,0,1-.772-.588A2.452,2.452,0,0,1,1.029-6.4a2.253,2.253,0,0,1-.188-.954,2.242,2.242,0,0,1,.294-1.166,2.521,2.521,0,0,1,.772-.817A3.5,3.5,0,0,1,3-9.81a4.992,4.992,0,0,1,1.248-.157,4.781,4.781,0,0,1,2.112.349v1.292a3.829,3.829,0,0,0-2.229-.6,3.665,3.665,0,0,0-.752.079,2.124,2.124,0,0,0-.67.256,1.484,1.484,0,0,0-.479.458,1.216,1.216,0,0,0-.185.684,1.407,1.407,0,0,0,.14.649,1.592,1.592,0,0,0,.414.5,4.119,4.119,0,0,0,.667.438q.393.212.906.465t1,.547A4.562,4.562,0,0,1,6-4.218a2.825,2.825,0,0,1,.564.772,2.171,2.171,0,0,1,.208.971,2.462,2.462,0,0,1-.284,1.227,2.328,2.328,0,0,1-.766.817A3.344,3.344,0,0,1,4.607.024a6.084,6.084,0,0,1-1.326.14A5.4,5.4,0,0,1,2.707.126Q2.365.089,2.01.017a5.689,5.689,0,0,1-.673-.178A2.1,2.1,0,0,1,.827-.4ZM14.2-3.22H9.256a2.618,2.618,0,0,0,.629,1.8,2.168,2.168,0,0,0,1.654.636,3.439,3.439,0,0,0,2.174-.779V-.506a4.063,4.063,0,0,1-2.44.67A2.959,2.959,0,0,1,8.941-.79a3.9,3.9,0,0,1-.848-2.683A3.828,3.828,0,0,1,9.02-6.135a2.97,2.97,0,0,1,2.3-1.029,2.632,2.632,0,0,1,2.126.889A3.705,3.705,0,0,1,14.2-3.808ZM13.05-4.17a2.281,2.281,0,0,0-.468-1.511,1.6,1.6,0,0,0-1.282-.54,1.811,1.811,0,0,0-1.347.567A2.575,2.575,0,0,0,9.27-4.17ZM17.015,0H15.894V-10.363h1.121Zm7.9-3.22H19.968a2.618,2.618,0,0,0,.629,1.8,2.168,2.168,0,0,0,1.654.636,3.439,3.439,0,0,0,2.174-.779V-.506a4.063,4.063,0,0,1-2.44.67A2.959,2.959,0,0,1,19.653-.79a3.9,3.9,0,0,1-.848-2.683,3.828,3.828,0,0,1,.926-2.663,2.97,2.97,0,0,1,2.3-1.029,2.632,2.632,0,0,1,2.126.889,3.705,3.705,0,0,1,.752,2.468Zm-1.148-.95a2.281,2.281,0,0,0-.468-1.511,1.6,1.6,0,0,0-1.282-.54,1.811,1.811,0,0,0-1.347.567,2.575,2.575,0,0,0-.684,1.483ZM31.377-.321a3.643,3.643,0,0,1-1.914.485A3.169,3.169,0,0,1,27.046-.81a3.53,3.53,0,0,1-.919-2.526,3.881,3.881,0,0,1,.991-2.779,3.467,3.467,0,0,1,2.646-1.049,3.682,3.682,0,0,1,1.627.342v1.148a2.85,2.85,0,0,0-1.668-.547,2.254,2.254,0,0,0-1.76.769,2.918,2.918,0,0,0-.687,2.02,2.779,2.779,0,0,0,.646,1.941,2.227,2.227,0,0,0,1.733.711,2.81,2.81,0,0,0,1.723-.608Zm4.942.253A2.161,2.161,0,0,1,35.273.15Q33.435.15,33.435-1.9V-6.043h-1.2V-7h1.2V-8.709l1.121-.362V-7h1.764v.957H34.556V-2.1a1.635,1.635,0,0,0,.239,1,.955.955,0,0,0,.793.3,1.179,1.179,0,0,0,.731-.232ZM46.662,0H45.541V-1.094h-.027A2.347,2.347,0,0,1,43.36.164,2.3,2.3,0,0,1,41.723-.39a1.918,1.918,0,0,1-.591-1.47q0-1.962,2.311-2.283l2.1-.294q0-1.784-1.442-1.784a3.446,3.446,0,0,0-2.283.861V-6.508a4.338,4.338,0,0,1,2.379-.656q2.468,0,2.468,2.611ZM45.541-3.541l-1.688.232a2.741,2.741,0,0,0-1.176.386,1.114,1.114,0,0,0-.4.981,1.068,1.068,0,0,0,.366.837,1.413,1.413,0,0,0,.974.325A1.8,1.8,0,0,0,45-1.364a2.088,2.088,0,0,0,.543-1.48ZM54.585,0H53.464V-3.992q0-2.229-1.627-2.229a1.765,1.765,0,0,0-1.391.632,2.344,2.344,0,0,0-.55,1.6V0H48.774V-7H49.9v1.162h.027a2.526,2.526,0,0,1,2.3-1.326,2.142,2.142,0,0,1,1.757.742,3.3,3.3,0,0,1,.608,2.143ZM65.543,0H64.422V-1.094h-.027A2.347,2.347,0,0,1,62.241.164,2.3,2.3,0,0,1,60.6-.39a1.918,1.918,0,0,1-.591-1.47q0-1.962,2.311-2.283l2.1-.294q0-1.784-1.442-1.784a3.446,3.446,0,0,0-2.283.861V-6.508a4.338,4.338,0,0,1,2.379-.656q2.468,0,2.468,2.611ZM64.422-3.541l-1.688.232a2.741,2.741,0,0,0-1.176.386,1.114,1.114,0,0,0-.4.981,1.068,1.068,0,0,0,.366.837,1.413,1.413,0,0,0,.974.325,1.8,1.8,0,0,0,1.377-.584,2.088,2.088,0,0,0,.543-1.48Zm8,3.22a3.643,3.643,0,0,1-1.914.485A3.169,3.169,0,0,1,68.1-.81a3.53,3.53,0,0,1-.919-2.526,3.881,3.881,0,0,1,.991-2.779,3.467,3.467,0,0,1,2.646-1.049,3.682,3.682,0,0,1,1.627.342v1.148a2.85,2.85,0,0,0-1.668-.547,2.254,2.254,0,0,0-1.76.769,2.918,2.918,0,0,0-.687,2.02,2.779,2.779,0,0,0,.646,1.941A2.227,2.227,0,0,0,70.7-.779a2.81,2.81,0,0,0,1.723-.608Zm6.467,0a3.643,3.643,0,0,1-1.914.485A3.169,3.169,0,0,1,74.563-.81a3.53,3.53,0,0,1-.919-2.526,3.881,3.881,0,0,1,.991-2.779A3.467,3.467,0,0,1,77.28-7.164a3.682,3.682,0,0,1,1.627.342v1.148a2.85,2.85,0,0,0-1.668-.547,2.254,2.254,0,0,0-1.76.769,2.918,2.918,0,0,0-.687,2.02,2.779,2.779,0,0,0,.646,1.941,2.227,2.227,0,0,0,1.733.711,2.81,2.81,0,0,0,1.723-.608Zm4.621.485a3.247,3.247,0,0,1-2.478-.981,3.633,3.633,0,0,1-.926-2.6,3.785,3.785,0,0,1,.964-2.755,3.465,3.465,0,0,1,2.6-.991,3.14,3.14,0,0,1,2.444.964A3.822,3.822,0,0,1,87-3.527a3.761,3.761,0,0,1-.947,2.683A3.317,3.317,0,0,1,83.515.164ZM83.6-6.221a2.132,2.132,0,0,0-1.709.735,3.018,3.018,0,0,0-.629,2.027A2.854,2.854,0,0,0,81.895-1.5a2.161,2.161,0,0,0,1.7.718,2.049,2.049,0,0,0,1.671-.7,3.055,3.055,0,0,0,.584-2,3.108,3.108,0,0,0-.584-2.023A2.04,2.04,0,0,0,83.6-6.221ZM94.452,0H93.331V-1.107H93.3A2.3,2.3,0,0,1,91.144.164q-2.5,0-2.5-2.98V-7h1.114v4.006q0,2.215,1.7,2.215a1.715,1.715,0,0,0,1.35-.6,2.315,2.315,0,0,0,.53-1.583V-7h1.121Zm8.073,0H101.4V-3.992q0-2.229-1.627-2.229a1.765,1.765,0,0,0-1.391.632,2.344,2.344,0,0,0-.55,1.6V0H96.715V-7h1.121v1.162h.027a2.526,2.526,0,0,1,2.3-1.326,2.142,2.142,0,0,1,1.757.742,3.3,3.3,0,0,1,.608,2.143Zm5.359-.068a2.161,2.161,0,0,1-1.046.219Q105,.15,105-1.9V-6.043h-1.2V-7H105V-8.709l1.121-.362V-7h1.764v.957h-1.764V-2.1a1.635,1.635,0,0,0,.239,1,.955.955,0,0,0,.793.3,1.179,1.179,0,0,0,.731-.232Z" transform="translate(10 23)" fill="#fff"/>
        </g>
      </g>
    </g>
    <g id="help" transform="translate(129 132)">
      <g id="Group_15339" data-name="Group 15339" transform="translate(-8 -8)" clip-path="url(#clip-path)">
        <path id="Path_10419" data-name="Path 10419" d="M15.7,14.5h0a11.3,11.3,0,0,1-1-3.7,7.6,7.6,0,0,0,.7-3.2,7.7,7.7,0,1,0-5.1,7.2A19,19,0,0,0,14.7,16h.2a1,1,0,0,0,.9-1.5m-5-.9h-.5a6.4,6.4,0,1,1,4-5.9,6.3,6.3,0,0,1-.7,2.8v.3a13.6,13.6,0,0,0,.9,3.8,15.5,15.5,0,0,1-3.7-1" fill="#2f2f2f"/>
        <path id="Path_10420" data-name="Path 10420" d="M8,9.9a.8.8,0,1,0,.8.8h0A.8.8,0,0,0,8,9.9" fill="#2f2f2f"/>
        <path id="Path_10421" data-name="Path 10421" d="M8.1,3.5A2.5,2.5,0,0,0,5.6,6H6.9c0-.1.1-1.3,1.2-1.3a1,1,0,0,1,1,.6A1.3,1.3,0,0,1,9,6.7l-.6.5A1.8,1.8,0,0,0,7.5,9H8.7c0-.5,0-.5.4-.8l.7-.6a2.5,2.5,0,0,0,.4-2.7A2.2,2.2,0,0,0,8.1,3.5" fill="#2f2f2f"/>
      </g>
    </g>
    <g id="help-2" data-name="help" transform="translate(303 58)">
      <g id="Group_15341" data-name="Group 15341" transform="translate(-8 -8)" clip-path="url(#clip-path)">
        <path id="Path_10425" data-name="Path 10425" d="M15.7,14.5h0a11.3,11.3,0,0,1-1-3.7,7.6,7.6,0,0,0,.7-3.2,7.7,7.7,0,1,0-5.1,7.2A19,19,0,0,0,14.7,16h.2a1,1,0,0,0,.9-1.5m-5-.9h-.5a6.4,6.4,0,1,1,4-5.9,6.3,6.3,0,0,1-.7,2.8v.3a13.6,13.6,0,0,0,.9,3.8,15.5,15.5,0,0,1-3.7-1" fill="#2f2f2f"/>
        <path id="Path_10426" data-name="Path 10426" d="M8,9.9a.8.8,0,1,0,.8.8h0A.8.8,0,0,0,8,9.9" fill="#2f2f2f"/>
        <path id="Path_10427" data-name="Path 10427" d="M8.1,3.5A2.5,2.5,0,0,0,5.6,6H6.9c0-.1.1-1.3,1.2-1.3a1,1,0,0,1,1,.6A1.3,1.3,0,0,1,9,6.7l-.6.5A1.8,1.8,0,0,0,7.5,9H8.7c0-.5,0-.5.4-.8l.7-.6a2.5,2.5,0,0,0,.4-2.7A2.2,2.2,0,0,0,8.1,3.5" fill="#2f2f2f"/>
      </g>
    </g>
    <g id="help-3" data-name="help" transform="translate(425 95)">
      <g id="Group_15343" data-name="Group 15343" transform="translate(-8 -8)" clip-path="url(#clip-path)">
        <path id="Path_10431" data-name="Path 10431" d="M15.7,14.5h0a11.3,11.3,0,0,1-1-3.7,7.6,7.6,0,0,0,.7-3.2,7.7,7.7,0,1,0-5.1,7.2A19,19,0,0,0,14.7,16h.2a1,1,0,0,0,.9-1.5m-5-.9h-.5a6.4,6.4,0,1,1,4-5.9,6.3,6.3,0,0,1-.7,2.8v.3a13.6,13.6,0,0,0,.9,3.8,15.5,15.5,0,0,1-3.7-1" fill="#2f2f2f"/>
        <path id="Path_10432" data-name="Path 10432" d="M8,9.9a.8.8,0,1,0,.8.8h0A.8.8,0,0,0,8,9.9" fill="#2f2f2f"/>
        <path id="Path_10433" data-name="Path 10433" d="M8.1,3.5A2.5,2.5,0,0,0,5.6,6H6.9c0-.1.1-1.3,1.2-1.3a1,1,0,0,1,1,.6A1.3,1.3,0,0,1,9,6.7l-.6.5A1.8,1.8,0,0,0,7.5,9H8.7c0-.5,0-.5.4-.8l.7-.6a2.5,2.5,0,0,0,.4-2.7A2.2,2.2,0,0,0,8.1,3.5" fill="#2f2f2f"/>
      </g>
    </g>
    <g id="help-4" data-name="help" transform="translate(768 95)">
      <g id="Group_15345" data-name="Group 15345" transform="translate(-8 -8)" clip-path="url(#clip-path)">
        <path id="Path_10437" data-name="Path 10437" d="M15.7,14.5h0a11.3,11.3,0,0,1-1-3.7,7.6,7.6,0,0,0,.7-3.2,7.7,7.7,0,1,0-5.1,7.2A19,19,0,0,0,14.7,16h.2a1,1,0,0,0,.9-1.5m-5-.9h-.5a6.4,6.4,0,1,1,4-5.9,6.3,6.3,0,0,1-.7,2.8v.3a13.6,13.6,0,0,0,.9,3.8,15.5,15.5,0,0,1-3.7-1" fill="#2f2f2f"/>
        <path id="Path_10438" data-name="Path 10438" d="M8,9.9a.8.8,0,1,0,.8.8h0A.8.8,0,0,0,8,9.9" fill="#2f2f2f"/>
        <path id="Path_10439" data-name="Path 10439" d="M8.1,3.5A2.5,2.5,0,0,0,5.6,6H6.9c0-.1.1-1.3,1.2-1.3a1,1,0,0,1,1,.6A1.3,1.3,0,0,1,9,6.7l-.6.5A1.8,1.8,0,0,0,7.5,9H8.7c0-.5,0-.5.4-.8l.7-.6a2.5,2.5,0,0,0,.4-2.7A2.2,2.2,0,0,0,8.1,3.5" fill="#2f2f2f"/>
      </g>
    </g>
  </g>
</svg>
