<svg xmlns="http://www.w3.org/2000/svg" xmlns:xlink="http://www.w3.org/1999/xlink" width="900" height="290" viewBox="0 0 900 290">
  <defs>
    <filter id="Rectangle_801" x="-4.833" y="-3.5" width="1289.333" height="79" filterUnits="userSpaceOnUse">
      <feOffset dy="1" input="SourceAlpha"/>
      <feGaussianBlur stdDeviation="1.5" result="blur"/>
      <feFlood flood-opacity="0.161"/>
      <feComposite operator="in" in2="blur"/>
      <feComposite in="SourceGraphic"/>
    </filter>
    <filter id="Rectangle_9438" x="275.5" y="224.5" width="984.5" height="393" filterUnits="userSpaceOnUse">
      <feOffset dy="1" input="SourceAlpha"/>
      <feGaussianBlur stdDeviation="1.5" result="blur-2"/>
      <feFlood flood-opacity="0.161"/>
      <feComposite operator="in" in2="blur-2"/>
      <feComposite in="SourceGraphic"/>
    </filter>
    <clipPath id="clip-Breadcrumb_3_level_1">
      <rect width="900" height="290"/>
    </clipPath>
  </defs>
  <g id="Breadcrumb_3_level_1" data-name="Breadcrumb 3 level – 1" clip-path="url(#clip-Breadcrumb_3_level_1)">
    <g id="Group_13848" data-name="Group 13848">
      <rect id="Rectangle_4105" data-name="Rectangle 4105" width="250" height="530" transform="translate(0 70)" fill="#fff"/>
      <rect id="Rectangle_1" data-name="Rectangle 1" width="250" height="3518.633" transform="translate(0 96.3)" fill="#fff"/>
      <g id="Group_3" data-name="Group 3" transform="translate(0 160)">
        <rect id="Rectangle_797" data-name="Rectangle 797" width="250" height="64.1" fill="#fff"/>
      </g>
      <g id="Group_6" data-name="Group 6" transform="translate(0 96)">
        <rect id="Rectangle_800" data-name="Rectangle 800" width="250" height="64.1" fill="#fff"/>
      </g>
      <rect id="Rectangle_9605" data-name="Rectangle 9605" width="19" height="19" transform="translate(21 119)" fill="#78788c"/>
      <rect id="Rectangle_9606" data-name="Rectangle 9606" width="19" height="19" transform="translate(21 182)" fill="#78788c"/>
      <text id="Menu_Item" data-name="Menu Item" transform="translate(47 134)" fill="#3d3d3d" font-size="16" font-family="OpenSans-Regular, Open Sans"><tspan x="0" y="0">Menu Item</tspan></text>
      <text id="Menu_Item-2" data-name="Menu Item" transform="translate(50 198)" fill="#3d3d3d" font-size="16" font-family="OpenSans-Regular, Open Sans"><tspan x="0" y="0">Menu Item</tspan></text>
      <g id="Group_13845" data-name="Group 13845">
        <rect id="Rectangle_798" data-name="Rectangle 798" width="250" height="64.1" transform="translate(0 224)" fill="#fff"/>
        <rect id="Rectangle_9607" data-name="Rectangle 9607" width="19" height="19" transform="translate(21 247)" fill="#78788c"/>
        <text id="Menu_Item-3" data-name="Menu Item" transform="translate(50 262)" fill="#3d3d3d" font-size="16" font-family="OpenSans-Regular, Open Sans"><tspan x="0" y="0">Menu Item</tspan></text>
      </g>
      <g id="Group_13846" data-name="Group 13846" transform="translate(0 64)">
        <rect id="Rectangle_798-2" data-name="Rectangle 798" width="250" height="64.1" transform="translate(0 224)" fill="#fff"/>
        <rect id="Rectangle_9607-2" data-name="Rectangle 9607" width="19" height="19" transform="translate(21 247)" fill="#78788c"/>
        <text id="Menu_Item-4" data-name="Menu Item" transform="translate(50 262)" fill="#3d3d3d" font-size="16" font-family="OpenSans-Regular, Open Sans"><tspan x="0" y="0">Menu Item</tspan></text>
      </g>
    </g>
    <g id="Image_3870" data-name="Image 3870" transform="translate(250 57)" fill="#f4f4f4" stroke="#e3e3e3" stroke-width="1">
      <rect width="1030" height="3554" stroke="none"/>
      <rect x="0.5" y="0.5" width="1029" height="3553" fill="none"/>
    </g>
    <g id="Group_13670" data-name="Group 13670" transform="translate(-0.333)">
      <g id="Group_1620" data-name="Group 1620" transform="translate(0)">
        <g id="Group_1597" data-name="Group 1597">
          <g id="Group_1596" data-name="Group 1596">
            <g transform="matrix(1, 0, 0, 1, 0.33, 0)" filter="url(#Rectangle_801)">
              <rect id="Rectangle_801-2" data-name="Rectangle 801" width="1280.333" height="70" transform="translate(-0.33)" fill="#1f5ea8"/>
            </g>
          </g>
        </g>
        <text id="Broker_Briefcase_Administration" data-name="Broker Briefcase Administration" transform="translate(72.127 38.653)" fill="#dde7f2" font-size="16" font-family="OpenSans-Regular, Open Sans"><tspan x="0" y="0">Broker Briefcase Administration</tspan></text>
        <g id="Group_1604" data-name="Group 1604" transform="translate(16.537 14)" opacity="0.12">
          <circle id="Ellipse_364" data-name="Ellipse 364" cx="21" cy="21" r="21"/>
        </g>
        <g id="Group_1605" data-name="Group 1605" transform="translate(26.162 25.375)">
          <path id="Path_1242" data-name="Path 1242" d="M37.05,47.125,45.363,34H35.3l-.788,1.75h7.7L33.9,48.875H45.363l.787-1.75Z" transform="translate(-33.9 -34)" fill="#fff"/>
          <path id="Path_1243" data-name="Path 1243" d="M53.662,34H49.9l4.2,9.625L49.9,53.25h3.762l4.2-9.625Z" transform="translate(-35.9 -34)" fill="#fff"/>
        </g>
      </g>
    </g>
    <rect id="Rectangle_4099" data-name="Rectangle 4099" width="1280" height="60" fill="#fff"/>
    <path id="Path_5690" data-name="Path 5690" d="M0,0H1280V36H0Z" transform="translate(0 60)" fill="#2777d3"/>
    <g id="Group_7321" data-name="Group 7321" transform="translate(20 69)">
      <text id="App_Title" data-name="App Title" transform="translate(0 15)" fill="#2777d3" font-size="14" font-family="OpenSans-Bold, Open Sans" font-weight="700"><tspan x="0" y="0">App Title</tspan></text>
    </g>
    <g id="Group_8109" data-name="Group 8109" transform="translate(20 20)">
      <g id="Group_8108" data-name="Group 8108">
        <path id="Path_5691" data-name="Path 5691" d="M340.587,52.669l-6.541,14.446L327.5,52.669h-2.616l9.16,20.259,9.167-20.259Z" transform="translate(-240.611 -52.669)" fill="#8b8d8e"/>
        <path id="Path_5692" data-name="Path 5692" d="M322.153,72.928h2.623L315.63,52.669h-1l-9.146,20.259h2.629l2.006-4.484h10.028Zm-10.965-6.865,3.938-8.684,3.938,8.684Z" transform="translate(-240.611 -52.669)" fill="#8b8d8e"/>
        <path id="Path_5693" data-name="Path 5693" d="M350.18,63.606h7.281V61.216H350.18V55.048H358.1l1.27-2.379H347.79V72.928h10.328l1.27-2.439H350.18Z" transform="translate(-240.611 -52.669)" fill="#8b8d8e"/>
        <path id="Path_5694" data-name="Path 5694" d="M303.177,52.669l-6.49,14.446-5.8-12.689-5.748,12.689-6.285-14.446h-3.9l-3.5,7.735,1.313,2.9,4.02-8.874,8.353,18.494,5.748-12.713,5.8,12.713,9.107-20.259Z" transform="translate(-240.611 -52.669)" fill="#8b8d8e"/>
        <path id="Path_5695" data-name="Path 5695" d="M245,70.511l11.6-17.834h-14.06l-1.085,2.373H252.21l-11.6,17.834h15.978l1.073-2.373Z" transform="translate(-240.611 -52.669)" fill="#8b8d8e"/>
      </g>
      <path id="Path_5696" data-name="Path 5696" d="M265.319,52.669h-5.2l5.856,13-5.856,13h5.2l5.894-13Z" transform="translate(-240.611 -52.669)" fill="#5fb53b"/>
    </g>
    <g id="Group_7557" data-name="Group 7557" transform="translate(197 -34)">
      <g id="Rectangle_3779" data-name="Rectangle 3779" transform="translate(53 44)" fill="#fff" stroke="#dbdbdb" stroke-width="1">
        <rect width="436" height="42" rx="2" stroke="none"/>
        <rect x="0.5" y="0.5" width="435" height="41" rx="1.5" fill="none"/>
      </g>
      <text id="Search" transform="translate(67 71)" fill="#c6c6c6" font-size="14" font-family="OpenSans-Regular, Open Sans"><tspan x="0" y="0">Search</tspan></text>
      <path id="Rectangle_3780" data-name="Rectangle 3780" d="M0,0H41a1,1,0,0,1,1,1V39a1,1,0,0,1-1,1H0a0,0,0,0,1,0,0V0A0,0,0,0,1,0,0Z" transform="translate(446 45)" fill="#fafafa"/>
      <rect id="Rectangle_3781" data-name="Rectangle 3781" width="1" height="40" transform="translate(446 45)" fill="#ebebeb"/>
      <g id="Group_7480" data-name="Group 7480" transform="translate(456 53)">
        <path id="Path_520" data-name="Path 520" d="M303.8,258.3l-5-5a6.354,6.354,0,0,0,1.1-4.9,6.471,6.471,0,0,0-5.6-5.3,6.53,6.53,0,0,0-2,12.9,6.914,6.914,0,0,0,4.9-1.1l5,5a1.088,1.088,0,0,0,1.5,0A1.222,1.222,0,0,0,303.8,258.3Zm-14.7-9.5a4.458,4.458,0,0,1,3.7-3.7,4.57,4.57,0,0,1,5.2,5.2,4.458,4.458,0,0,1-3.7,3.7A4.609,4.609,0,0,1,289.1,248.8Z" transform="translate(-284 -240)" fill="#5786bd"/>
        <path id="Path_519" data-name="Path 519" d="M284.1,240h24v24h-24Z" transform="translate(-284 -240)" fill="none"/>
        <rect id="Rectangle_304" data-name="Rectangle 304" width="24" height="24" fill="none"/>
      </g>
    </g>
    <text id="Page_Header_" data-name="Page Header " transform="translate(280 162)" fill="#303030" font-size="26" font-family="SegoeUI-Semibold, Segoe UI" font-weight="600"><tspan x="0" y="28">Page Header </tspan></text>
    <g id="Group_13844" data-name="Group 13844" transform="translate(6 36)">
      <g id="Group_13843" data-name="Group 13843" transform="translate(274 192)">
        <g id="Group_13842" data-name="Group 13842">
          <g transform="matrix(1, 0, 0, 1, -280, -228)" filter="url(#Rectangle_9438)">
            <rect id="Rectangle_9438-2" data-name="Rectangle 9438" width="975.5" height="384" rx="2" transform="translate(280 228)" fill="#fff"/>
          </g>
        </g>
      </g>
    </g>
    <g id="Group_13857" data-name="Group 13857" transform="translate(0 -9)" style="isolation: isolate">
      <text id="Breadcrumb_1" data-name="Breadcrumb #1" transform="translate(291 148)" fill="#2777d3" font-size="12" font-family="SegoeUI, Segoe UI"><tspan x="0" y="0">Breadcrumb #1</tspan></text>
      <g id="Group_13853" data-name="Group 13853" transform="translate(277 137)" style="isolation: isolate">
        <g id="Group_13856" data-name="Group 13856" transform="translate(14 14) rotate(180)">
          <rect id="Rectangle_3875" data-name="Rectangle 3875" width="14" height="14" transform="translate(14 0) rotate(90)" fill="none"/>
          <path id="Path_5567" data-name="Path 5567" d="M5.019,8.249,1.384,4.615,5.019.981a.558.558,0,0,0,0-.808h0a.558.558,0,0,0-.808,0L.577,3.807l-.4.4a.558.558,0,0,0,0,.808l.4.4L4.211,9.057a.558.558,0,0,0,.808,0h0A.557.557,0,0,0,5.019,8.249Z" transform="translate(9.674 11.537) rotate(180)" fill="#2777d3"/>
        </g>
      </g>
    </g>
    <g id="Group_13862" data-name="Group 13862" transform="translate(99 -9)" style="isolation: isolate">
      <text id="Breadcrumb_2" data-name="Breadcrumb #2" transform="translate(291 148)" fill="#2777d3" font-size="12" font-family="SegoeUI, Segoe UI"><tspan x="0" y="0">Breadcrumb #2</tspan></text>
      <g id="Group_13853-2" data-name="Group 13853" transform="translate(277 137)" style="isolation: isolate">
        <g id="Group_13856-2" data-name="Group 13856" transform="translate(14 14) rotate(180)">
          <rect id="Rectangle_3875-2" data-name="Rectangle 3875" width="14" height="14" transform="translate(14 0) rotate(90)" fill="none"/>
          <path id="Path_5567-2" data-name="Path 5567" d="M5.019,8.249,1.384,4.615,5.019.981a.558.558,0,0,0,0-.808h0a.558.558,0,0,0-.808,0L.577,3.807l-.4.4a.558.558,0,0,0,0,.808l.4.4L4.211,9.057a.558.558,0,0,0,.808,0h0A.557.557,0,0,0,5.019,8.249Z" transform="translate(9.674 11.537) rotate(180)" fill="#2777d3"/>
        </g>
      </g>
    </g>
    <g id="Group_13863" data-name="Group 13863" transform="translate(198 -9)" style="isolation: isolate">
      <text id="Page_Header" data-name="Page Header" transform="translate(291 148)" fill="#9494a4" font-size="12" font-family="SegoeUI, Segoe UI"><tspan x="0" y="0">Page Header</tspan></text>
      <g id="Group_13853-3" data-name="Group 13853" transform="translate(277 137)" style="isolation: isolate">
        <g id="Group_13856-3" data-name="Group 13856" transform="translate(14 14) rotate(180)">
          <rect id="Rectangle_3875-3" data-name="Rectangle 3875" width="14" height="14" transform="translate(14 0) rotate(90)" fill="none"/>
          <path id="Path_5567-3" data-name="Path 5567" d="M5.019,8.249,1.384,4.615,5.019.981a.558.558,0,0,0,0-.808h0a.558.558,0,0,0-.808,0L.577,3.807l-.4.4a.558.558,0,0,0,0,.808l.4.4L4.211,9.057a.558.558,0,0,0,.808,0h0A.557.557,0,0,0,5.019,8.249Z" transform="translate(9.674 11.537) rotate(180)" fill="#9494a4"/>
        </g>
      </g>
    </g>
  </g>
</svg>
