<svg xmlns="http://www.w3.org/2000/svg" xmlns:xlink="http://www.w3.org/1999/xlink" viewBox="6092 146 564 371">
  <defs>
    <style>
      .cls-1 {
        clip-path: url(#clip-plain_peekaboo_1);
      }

      .cls-2, .cls-3 {
        fill: #5786bd;
      }

      .cls-2 {
        stroke: rgba(0,0,0,0);
      }

      .cls-4 {
        fill: none;
      }

      .cls-5, .cls-6 {
        fill: rgba(0,0,0,0);
        stroke: #d4d4d4;
      }

      .cls-5 {
        stroke-width: 10px;
      }

      .cls-6 {
        stroke-width: 4px;
      }
    </style>
    <clipPath id="clip-plain_peekaboo_1">
      <rect x="6092" y="146" width="564" height="371"/>
    </clipPath>
  </defs>
  <g id="plain_peekaboo_1" data-name="plain peekaboo – 1" class="cls-1">
    <path id="Path_215" data-name="Path 215" class="cls-2" d="M7.014-2.659A2.451,2.451,0,0,1,6.057-.6a4.15,4.15,0,0,1-2.6.738A6.506,6.506,0,0,1,.725-.321V-1.442a7.2,7.2,0,0,0,1.34.41A7.049,7.049,0,0,0,3.5-.882a2.9,2.9,0,0,0,1.75-.441A1.447,1.447,0,0,0,5.838-2.55,1.575,1.575,0,0,0,5.629-3.4a1.937,1.937,0,0,0-.7-.612,9.755,9.755,0,0,0-1.487-.636A4.746,4.746,0,0,1,1.453-5.831a2.611,2.611,0,0,1-.6-1.784,2.219,2.219,0,0,1,.868-1.839,3.608,3.608,0,0,1,2.3-.684,6.769,6.769,0,0,1,2.741.547L6.4-8.579A6.2,6.2,0,0,0,3.992-9.1a2.329,2.329,0,0,0-1.442.4,1.307,1.307,0,0,0-.52,1.1,1.687,1.687,0,0,0,.191.851,1.8,1.8,0,0,0,.646.608,8.026,8.026,0,0,0,1.391.612,5.507,5.507,0,0,1,2.164,1.2A2.366,2.366,0,0,1,7.014-2.659Zm7,2.659V-4.847A1.955,1.955,0,0,0,13.6-6.214a1.7,1.7,0,0,0-1.306-.451,2.139,2.139,0,0,0-1.726.643,3.255,3.255,0,0,0-.543,2.105V0H8.887V-10.637h1.135v3.22a7.015,7.015,0,0,1-.055.964h.068a2.314,2.314,0,0,1,.954-.851A3.1,3.1,0,0,1,12.4-7.615a2.891,2.891,0,0,1,2.061.653,2.749,2.749,0,0,1,.687,2.075V0Zm9.933-3.753a4.133,4.133,0,0,1-.923,2.861A3.25,3.25,0,0,1,20.474.137a3.377,3.377,0,0,1-1.784-.472,3.113,3.113,0,0,1-1.2-1.354,4.717,4.717,0,0,1-.424-2.064,4.127,4.127,0,0,1,.916-2.854,3.24,3.24,0,0,1,2.543-1.022,3.169,3.169,0,0,1,2.5,1.046A4.115,4.115,0,0,1,23.946-3.753Zm-5.708,0a3.556,3.556,0,0,0,.574,2.188A1.993,1.993,0,0,0,20.5-.813a2.006,2.006,0,0,0,1.692-.749,3.538,3.538,0,0,0,.578-2.191,3.481,3.481,0,0,0-.578-2.17,2.03,2.03,0,0,0-1.706-.742,2,2,0,0,0-1.682.731A3.52,3.52,0,0,0,18.238-3.753ZM32.054,0,30.68-4.4q-.13-.4-.485-1.832H30.14q-.273,1.2-.479,1.846L28.246,0H26.934L24.89-7.492h1.189l1.1,4.3A17.421,17.421,0,0,1,27.617-1.2h.055q.075-.39.243-1.008t.291-.981l1.374-4.3h1.23l1.34,4.3a14.513,14.513,0,0,1,.52,1.976h.055a7.246,7.246,0,0,1,.147-.759q.12-.513,1.425-5.517h1.176L33.4,0ZM50.012,0V-4.874a2.023,2.023,0,0,0-.383-1.343,1.481,1.481,0,0,0-1.189-.448,1.92,1.92,0,0,0-1.565.608,2.891,2.891,0,0,0-.506,1.873V0H45.233V-4.874a2.023,2.023,0,0,0-.383-1.343,1.49,1.49,0,0,0-1.2-.448,1.853,1.853,0,0,0-1.562.639,3.459,3.459,0,0,0-.5,2.1V0H40.462V-7.492h.923l.185,1.025h.055a2.23,2.23,0,0,1,.906-.854,2.767,2.767,0,0,1,1.309-.308,2.226,2.226,0,0,1,2.3,1.271h.055a2.389,2.389,0,0,1,.971-.93,3.012,3.012,0,0,1,1.449-.342,2.537,2.537,0,0,1,1.9.653,2.921,2.921,0,0,1,.632,2.088V0Zm9.939-3.753a4.133,4.133,0,0,1-.923,2.861A3.25,3.25,0,0,1,56.479.137a3.377,3.377,0,0,1-1.784-.472,3.113,3.113,0,0,1-1.2-1.354,4.717,4.717,0,0,1-.424-2.064,4.127,4.127,0,0,1,.916-2.854,3.24,3.24,0,0,1,2.543-1.022,3.169,3.169,0,0,1,2.5,1.046A4.115,4.115,0,0,1,59.951-3.753Zm-5.708,0a3.556,3.556,0,0,0,.574,2.188,1.993,1.993,0,0,0,1.688.752A2.006,2.006,0,0,0,58.2-1.562a3.538,3.538,0,0,0,.578-2.191,3.481,3.481,0,0,0-.578-2.17,2.03,2.03,0,0,0-1.706-.742,2,2,0,0,0-1.682.731A3.52,3.52,0,0,0,54.243-3.753ZM65.358-7.629a4.44,4.44,0,0,1,.9.082L66.1-6.494a3.865,3.865,0,0,0-.82-.1,2,2,0,0,0-1.555.738,2.692,2.692,0,0,0-.646,1.839V0H61.94V-7.492h.937l.13,1.388h.055a3.293,3.293,0,0,1,1-1.128A2.262,2.262,0,0,1,65.358-7.629ZM70.82.137A3.442,3.442,0,0,1,68.2-.875a3.917,3.917,0,0,1-.96-2.81,4.344,4.344,0,0,1,.892-2.878,2.963,2.963,0,0,1,2.4-1.066,2.825,2.825,0,0,1,2.229.926,3.55,3.55,0,0,1,.82,2.444v.718H68.414a2.97,2.97,0,0,0,.667,2,2.305,2.305,0,0,0,1.781.684,6.035,6.035,0,0,0,2.393-.506V-.349a6.005,6.005,0,0,1-1.138.373A6.4,6.4,0,0,1,70.82.137Zm-.308-6.815a1.853,1.853,0,0,0-1.439.588,2.71,2.71,0,0,0-.632,1.627h3.917a2.5,2.5,0,0,0-.479-1.644A1.684,1.684,0,0,0,70.513-6.679Z" transform="translate(6171 338)"/>
    <g id="Symbol_8_1" data-name="Symbol 8 – 1" transform="translate(6008 -18)">
      <path id="Path_23" data-name="Path 23" class="cls-3" d="M1.366.241,4.5,3.375,7.634.241a.777.777,0,0,1,1.125,0h0a.777.777,0,0,1,0,1.125L4.9,5.223a.537.537,0,0,1-.8,0L.241,1.366a.777.777,0,0,1,0-1.125h0A.777.777,0,0,1,1.366.241Z" transform="translate(147 348)"/>
      <rect id="Rectangle_52" data-name="Rectangle 52" class="cls-4" width="18" height="18" transform="translate(142 342)"/>
    </g>
    <path id="Path_214" data-name="Path 214" class="cls-5" d="M0,0H143" transform="translate(6149.5 202.5)"/>
    <path id="Path_213" data-name="Path 213" class="cls-6" d="M0,0H416" transform="translate(6149.5 246.5)"/>
    <path id="Path_212" data-name="Path 212" class="cls-6" d="M0,0H380" transform="translate(6149.5 272.5)"/>
    <path id="Path_211" data-name="Path 211" class="cls-6" d="M0,0H402" transform="translate(6149.5 297.5)"/>
  </g>
</svg>
