<svg xmlns="http://www.w3.org/2000/svg" xmlns:xlink="http://www.w3.org/1999/xlink" viewBox="4280 -474 1168 420">
  <defs>
    <style>
      .cls-1 {
        clip-path: url(#clip-Expander_terms_diagram_1);
      }

      .cls-2, .cls-3 {
        fill: #fff;
      }

      .cls-3 {
        opacity: 0.4;
      }

      .cls-4 {
        fill: #959595;
      }

      .cls-12, .cls-5 {
        fill: none;
      }

      .cls-6 {
        fill: rgba(61,61,61,0.56);
      }

      .cls-7 {
        fill: #e91e63;
      }

      .cls-7, .cls-8, .cls-9 {
        stroke: rgba(0,0,0,0);
      }

      .cls-8 {
        fill: #3d3d3d;
      }

      .cls-9 {
        fill: #7a7a7a;
      }

      .cls-10, .cls-11 {
        fill: rgba(0,0,0,0);
      }

      .cls-10, .cls-12 {
        stroke: #e91e63;
      }

      .cls-11 {
        stroke: #ebebeb;
      }

      .cls-13 {
        fill: #ed1e79;
      }

      .cls-14 {
        filter: url(#Path_216);
      }
    </style>
    <filter id="Path_216" x="4457.425" y="-430.5" width="802.009" height="332" filterUnits="userSpaceOnUse">
      <feOffset dy="1" input="SourceAlpha"/>
      <feGaussianBlur stdDeviation="1.5" result="blur"/>
      <feFlood flood-opacity="0.161"/>
      <feComposite operator="in" in2="blur"/>
      <feComposite in="SourceGraphic"/>
    </filter>
    <clipPath id="clip-Expander_terms_diagram_1">
      <rect x="4280" y="-474" width="1168" height="420"/>
    </clipPath>
  </defs>
  <g id="Expander_terms_diagram_1" data-name="Expander terms diagram – 1" class="cls-1">
    <g class="cls-14" transform="matrix(1, 0, 0, 1, 0, 0)">
      <path id="Path_216-2" data-name="Path 216" class="cls-2" d="M2,0H791.009a2,2,0,0,1,2,2V321a2,2,0,0,1-2,2H2a2,2,0,0,1-2-2V2A2,2,0,0,1,2,0Z" transform="translate(4461.93 -427)"/>
    </g>
    <path id="Path_232" data-name="Path 232" class="cls-3" d="M2,0H791.009a2,2,0,0,1,2,2V64H0V2A2,2,0,0,1,2,0Z" transform="translate(4461.925 -427)"/>
    <g id="Symbol_54" data-name="Symbol 54" transform="translate(3989 -591)">
      <path id="Path_23" data-name="Path 23" class="cls-4" d="M1.821.321,6,4.5,10.179.321a1.036,1.036,0,0,1,1.5,0h0a1.036,1.036,0,0,1,0,1.5L6.536,6.964a.716.716,0,0,1-1.071,0L.321,1.821a1.036,1.036,0,0,1,0-1.5h0A1.036,1.036,0,0,1,1.821.321Z" transform="translate(1229 188)"/>
      <rect id="Rectangle_52" data-name="Rectangle 52" class="cls-5" width="24" height="24" transform="translate(1223 180)"/>
    </g>
    <g id="Symbol_55" data-name="Symbol 55" transform="translate(4080 -541)">
      <path id="Path_23-2" data-name="Path 23" class="cls-6" d="M1.821.321,6,4.5,10.179.321a1.036,1.036,0,0,1,1.5,0h0a1.036,1.036,0,0,1,0,1.5L6.536,6.964a.716.716,0,0,1-1.071,0L.321,1.821a1.036,1.036,0,0,1,0-1.5h0A1.036,1.036,0,0,1,1.821.321Z" transform="translate(1150 211.205) rotate(180)"/>
      <rect id="Rectangle_52-2" data-name="Rectangle 52" class="cls-5" width="24" height="24" transform="translate(1132 196)"/>
    </g>
    <path id="Path_237" data-name="Path 237" class="cls-7" d="M6.563,0,5.5-2.725H2.063L1.008,0H0L3.387-8.6h.838L7.594,0ZM5.186-3.621l-1-2.654q-.193-.5-.4-1.236a11.1,11.1,0,0,1-.369,1.236L2.414-3.621ZM11.191.117A2.741,2.741,0,0,1,9.032-.741,3.53,3.53,0,0,1,8.268-3.17a3.64,3.64,0,0,1,.776-2.49,2.8,2.8,0,0,1,2.212-.879,4.389,4.389,0,0,1,.926.1,3.05,3.05,0,0,1,.727.234l-.3.826a4.574,4.574,0,0,0-.7-.214,3.139,3.139,0,0,0-.674-.085q-1.957,0-1.957,2.5a2.972,2.972,0,0,0,.478,1.816,1.661,1.661,0,0,0,1.415.633,4.326,4.326,0,0,0,1.646-.346v.861A3.509,3.509,0,0,1,11.191.117Zm5.221-.8a3.177,3.177,0,0,0,.5-.038A3.224,3.224,0,0,0,17.291-.8v.744a1.778,1.778,0,0,1-.466.126,3.5,3.5,0,0,1-.554.05q-1.863,0-1.863-1.963v-3.82h-.92v-.469l.92-.4.41-1.371h.563v1.488h1.863v.756H15.381v3.779A1.3,1.3,0,0,0,15.656-1,.958.958,0,0,0,16.412-.686ZM19.547,0h-.973V-6.422h.973ZM18.492-8.162a.646.646,0,0,1,.164-.489.573.573,0,0,1,.41-.155.573.573,0,0,1,.4.158.634.634,0,0,1,.17.486.644.644,0,0,1-.17.489.567.567,0,0,1-.4.161.562.562,0,0,1-.41-.161A.658.658,0,0,1,18.492-8.162Zm8.66,4.945a3.543,3.543,0,0,1-.791,2.452,2.786,2.786,0,0,1-2.186.882,2.9,2.9,0,0,1-1.529-.4,2.668,2.668,0,0,1-1.031-1.16,4.043,4.043,0,0,1-.363-1.77,3.537,3.537,0,0,1,.785-2.446,2.777,2.777,0,0,1,2.18-.876,2.717,2.717,0,0,1,2.142.9A3.527,3.527,0,0,1,27.152-3.217Zm-4.893,0a3.048,3.048,0,0,0,.492,1.875A1.708,1.708,0,0,0,24.2-.7a1.72,1.72,0,0,0,1.45-.642,3.033,3.033,0,0,0,.5-1.878,2.984,2.984,0,0,0-.5-1.86,1.74,1.74,0,0,0-1.462-.636,1.712,1.712,0,0,0-1.441.627A3.017,3.017,0,0,0,22.26-3.217ZM33.252,0V-4.154a1.676,1.676,0,0,0-.357-1.172,1.456,1.456,0,0,0-1.119-.387,1.846,1.846,0,0,0-1.477.545,2.751,2.751,0,0,0-.469,1.8V0h-.973V-6.422h.791l.158.879h.047a1.986,1.986,0,0,1,.838-.735,2.722,2.722,0,0,1,1.2-.261,2.439,2.439,0,0,1,1.746.56,2.381,2.381,0,0,1,.586,1.79V0Zm7.061,0H39.34V-6.422h.973ZM39.258-8.162a.646.646,0,0,1,.164-.489.573.573,0,0,1,.41-.155.573.573,0,0,1,.4.158.634.634,0,0,1,.17.486.644.644,0,0,1-.17.489.567.567,0,0,1-.4.161.562.562,0,0,1-.41-.161A.658.658,0,0,1,39.258-8.162ZM44.941.117a2.741,2.741,0,0,1-2.159-.858,3.53,3.53,0,0,1-.765-2.429,3.64,3.64,0,0,1,.776-2.49,2.8,2.8,0,0,1,2.212-.879,4.389,4.389,0,0,1,.926.1,3.05,3.05,0,0,1,.727.234l-.3.826a4.574,4.574,0,0,0-.7-.214,3.139,3.139,0,0,0-.674-.085q-1.957,0-1.957,2.5A2.972,2.972,0,0,0,43.5-1.365a1.661,1.661,0,0,0,1.415.633,4.326,4.326,0,0,0,1.646-.346v.861A3.509,3.509,0,0,1,44.941.117Zm8.689-3.334A3.543,3.543,0,0,1,52.84-.765a2.786,2.786,0,0,1-2.186.882,2.9,2.9,0,0,1-1.529-.4,2.668,2.668,0,0,1-1.031-1.16,4.043,4.043,0,0,1-.363-1.77,3.537,3.537,0,0,1,.785-2.446,2.777,2.777,0,0,1,2.18-.876,2.717,2.717,0,0,1,2.142.9A3.527,3.527,0,0,1,53.631-3.217Zm-4.893,0a3.048,3.048,0,0,0,.492,1.875A1.708,1.708,0,0,0,50.678-.7a1.72,1.72,0,0,0,1.45-.642,3.033,3.033,0,0,0,.5-1.878,2.984,2.984,0,0,0-.5-1.86,1.74,1.74,0,0,0-1.462-.636,1.712,1.712,0,0,0-1.441.627A3.017,3.017,0,0,0,48.738-3.217ZM59.73,0V-4.154a1.676,1.676,0,0,0-.357-1.172,1.456,1.456,0,0,0-1.119-.387,1.846,1.846,0,0,0-1.477.545,2.751,2.751,0,0,0-.469,1.8V0h-.973V-6.422h.791l.158.879h.047a1.986,1.986,0,0,1,.838-.735,2.722,2.722,0,0,1,1.2-.261,2.439,2.439,0,0,1,1.746.56,2.381,2.381,0,0,1,.586,1.79V0Z" transform="translate(5317 -394)"/>
    <path id="Path_235" data-name="Path 235" class="cls-8" d="M4.846-7.8a2.8,2.8,0,0,0-2.229.94A3.793,3.793,0,0,0,1.8-4.283a3.869,3.869,0,0,0,.788,2.6,2.8,2.8,0,0,0,2.247.917A7.672,7.672,0,0,0,6.879-1.09v.873a6.3,6.3,0,0,1-2.2.334A3.717,3.717,0,0,1,1.761-1.031,4.729,4.729,0,0,1,.732-4.295a5.151,5.151,0,0,1,.5-2.32A3.555,3.555,0,0,1,2.657-8.15a4.327,4.327,0,0,1,2.2-.539A5.309,5.309,0,0,1,7.213-8.2l-.422.855A4.54,4.54,0,0,0,4.846-7.8Zm9.3,4.582a3.543,3.543,0,0,1-.791,2.452,2.786,2.786,0,0,1-2.186.882,2.9,2.9,0,0,1-1.529-.4,2.668,2.668,0,0,1-1.031-1.16,4.043,4.043,0,0,1-.363-1.77,3.537,3.537,0,0,1,.785-2.446,2.777,2.777,0,0,1,2.18-.876,2.717,2.717,0,0,1,2.142.9A3.527,3.527,0,0,1,14.145-3.217Zm-4.893,0a3.048,3.048,0,0,0,.492,1.875A1.708,1.708,0,0,0,11.191-.7a1.72,1.72,0,0,0,1.45-.642,3.033,3.033,0,0,0,.5-1.878,2.984,2.984,0,0,0-.5-1.86,1.74,1.74,0,0,0-1.462-.636,1.712,1.712,0,0,0-1.441.627A3.017,3.017,0,0,0,9.252-3.217ZM20.244,0V-4.154a1.676,1.676,0,0,0-.357-1.172,1.456,1.456,0,0,0-1.119-.387,1.846,1.846,0,0,0-1.477.545,2.751,2.751,0,0,0-.469,1.8V0H15.85V-6.422h.791l.158.879h.047a1.986,1.986,0,0,1,.838-.735,2.722,2.722,0,0,1,1.2-.261,2.439,2.439,0,0,1,1.746.56,2.381,2.381,0,0,1,.586,1.79V0Zm5.045-.686a3.177,3.177,0,0,0,.5-.038A3.224,3.224,0,0,0,26.168-.8v.744A1.778,1.778,0,0,1,25.7.067a3.5,3.5,0,0,1-.554.05q-1.863,0-1.863-1.963v-3.82h-.92v-.469l.92-.4L23.7-7.91h.563v1.488h1.863v.756H24.258v3.779A1.3,1.3,0,0,0,24.533-1,.958.958,0,0,0,25.289-.686Zm4.875.8A2.95,2.95,0,0,1,27.917-.75a3.357,3.357,0,0,1-.823-2.408,3.723,3.723,0,0,1,.765-2.467,2.54,2.54,0,0,1,2.054-.914,2.422,2.422,0,0,1,1.91.794,3.043,3.043,0,0,1,.7,2.095v.615H28.1a2.546,2.546,0,0,0,.571,1.717A1.976,1.976,0,0,0,30.2-.732a5.172,5.172,0,0,0,2.051-.434V-.3a5.147,5.147,0,0,1-.976.319A5.483,5.483,0,0,1,30.164.117ZM29.9-5.725a1.588,1.588,0,0,0-1.233.5,2.323,2.323,0,0,0-.542,1.395h3.357a2.139,2.139,0,0,0-.41-1.409A1.444,1.444,0,0,0,29.9-5.725ZM38.578,0V-4.154a1.676,1.676,0,0,0-.357-1.172A1.456,1.456,0,0,0,37.1-5.713a1.846,1.846,0,0,0-1.477.545,2.751,2.751,0,0,0-.469,1.8V0h-.973V-6.422h.791l.158.879h.047a1.986,1.986,0,0,1,.838-.735,2.722,2.722,0,0,1,1.2-.261,2.439,2.439,0,0,1,1.746.56,2.381,2.381,0,0,1,.586,1.79V0Zm5.045-.686a3.177,3.177,0,0,0,.5-.038A3.224,3.224,0,0,0,44.5-.8v.744a1.778,1.778,0,0,1-.466.126,3.5,3.5,0,0,1-.554.05q-1.863,0-1.863-1.963v-3.82H40.7v-.469l.92-.4.41-1.371h.563v1.488h1.863v.756H42.592v3.779A1.3,1.3,0,0,0,42.867-1,.958.958,0,0,0,43.623-.686Zm9.65-.176h-.053a2.285,2.285,0,0,1-2.016.979,2.384,2.384,0,0,1-1.96-.861,3.791,3.791,0,0,1-.7-2.449,3.855,3.855,0,0,1,.7-2.467,2.366,2.366,0,0,1,1.957-.879,2.335,2.335,0,0,1,2,.949h.076l-.041-.463L53.221-6.5V-9.117h.973V0H53.4ZM51.328-.7a1.771,1.771,0,0,0,1.444-.542,2.739,2.739,0,0,0,.448-1.749v-.205a3.222,3.222,0,0,0-.454-1.948,1.724,1.724,0,0,0-1.45-.583,1.489,1.489,0,0,0-1.31.665,3.307,3.307,0,0,0-.454,1.878A3.17,3.17,0,0,0,50-1.324,1.528,1.528,0,0,0,51.328-.7Zm7.641.814A2.95,2.95,0,0,1,56.722-.75,3.357,3.357,0,0,1,55.9-3.158a3.723,3.723,0,0,1,.765-2.467,2.54,2.54,0,0,1,2.054-.914,2.422,2.422,0,0,1,1.91.794,3.043,3.043,0,0,1,.7,2.095v.615H56.906a2.546,2.546,0,0,0,.571,1.717A1.976,1.976,0,0,0,59-.732a5.172,5.172,0,0,0,2.051-.434V-.3a5.147,5.147,0,0,1-.976.319A5.483,5.483,0,0,1,58.969.117Zm-.264-5.842a1.588,1.588,0,0,0-1.233.5,2.323,2.323,0,0,0-.542,1.395h3.357a2.139,2.139,0,0,0-.41-1.409A1.444,1.444,0,0,0,58.705-5.725ZM65.063-.686a3.177,3.177,0,0,0,.5-.038A3.224,3.224,0,0,0,65.941-.8v.744a1.778,1.778,0,0,1-.466.126,3.5,3.5,0,0,1-.554.05q-1.863,0-1.863-1.963v-3.82h-.92v-.469l.92-.4.41-1.371h.563v1.488h1.863v.756H64.031v3.779A1.3,1.3,0,0,0,64.307-1,.958.958,0,0,0,65.063-.686ZM71.174,0,70.98-.914h-.047a2.7,2.7,0,0,1-.958.817,2.92,2.92,0,0,1-1.192.214,2.145,2.145,0,0,1-1.5-.492,1.8,1.8,0,0,1-.542-1.4q0-1.945,3.111-2.039l1.09-.035v-.4a1.628,1.628,0,0,0-.325-1.116,1.337,1.337,0,0,0-1.04-.36,4.238,4.238,0,0,0-1.816.492l-.3-.744a4.571,4.571,0,0,1,1.04-.4,4.5,4.5,0,0,1,1.134-.146,2.446,2.446,0,0,1,1.7.51,2.128,2.128,0,0,1,.554,1.635V0Zm-2.2-.686a1.974,1.974,0,0,0,1.427-.5,1.842,1.842,0,0,0,.519-1.395v-.58l-.973.041a3.538,3.538,0,0,0-1.673.36,1.087,1.087,0,0,0-.513.993,1,1,0,0,0,.319.8A1.326,1.326,0,0,0,68.977-.686ZM74.871,0H73.9V-6.422h.973ZM73.816-8.162a.646.646,0,0,1,.164-.489.573.573,0,0,1,.41-.155.573.573,0,0,1,.4.158.634.634,0,0,1,.17.486.644.644,0,0,1-.17.489.567.567,0,0,1-.4.161.562.562,0,0,1-.41-.161A.658.658,0,0,1,73.816-8.162ZM77.906,0h-.973V-9.117h.973Zm6.205-1.752a1.609,1.609,0,0,1-.668,1.383,3.14,3.14,0,0,1-1.875.486,4.077,4.077,0,0,1-1.992-.4v-.9a4.818,4.818,0,0,0,.993.369,4.147,4.147,0,0,0,1.022.135,2.319,2.319,0,0,0,1.172-.243.8.8,0,0,0,.41-.741.8.8,0,0,0-.325-.642,5.115,5.115,0,0,0-1.269-.63,6.879,6.879,0,0,1-1.274-.583,1.741,1.741,0,0,1-.562-.565,1.475,1.475,0,0,1-.185-.756A1.441,1.441,0,0,1,80.2-6.085a2.976,2.976,0,0,1,1.752-.454,5.126,5.126,0,0,1,2.027.422l-.346.791a4.654,4.654,0,0,0-1.752-.4,2.016,2.016,0,0,0-1.043.217.67.67,0,0,0-.352.6.728.728,0,0,0,.132.439,1.3,1.3,0,0,0,.425.346,9.493,9.493,0,0,0,1.125.475,4.2,4.2,0,0,1,1.544.838A1.478,1.478,0,0,1,84.111-1.752Z" transform="translate(4480 -378)"/>
    <path id="Path_226" data-name="Path 226" class="cls-8" d="M10.516,0H8.641V-5.148H3.375V0H1.508V-11.422H3.375V-6.75H8.641v-4.672h1.875ZM17.1.156A4.18,4.18,0,0,1,13.949-1.02a4.463,4.463,0,0,1-1.137-3.238,4.9,4.9,0,0,1,1.055-3.328,3.643,3.643,0,0,1,2.9-1.211,3.561,3.561,0,0,1,2.7,1.039A3.97,3.97,0,0,1,20.461-4.9v.992H14.7a2.838,2.838,0,0,0,.68,1.934,2.367,2.367,0,0,0,1.8.676,6.662,6.662,0,0,0,1.426-.145,7.474,7.474,0,0,0,1.418-.48V-.43a5.637,5.637,0,0,1-1.359.453A8.336,8.336,0,0,1,17.1.156Zm-.336-7.562a1.845,1.845,0,0,0-1.4.555,2.644,2.644,0,0,0-.629,1.617h3.922a2.392,2.392,0,0,0-.516-1.621A1.764,1.764,0,0,0,16.766-7.406ZM27.953,0l-.367-1.2h-.062A3.54,3.54,0,0,1,26.266-.129a3.978,3.978,0,0,1-1.625.285,2.75,2.75,0,0,1-1.988-.687,2.573,2.573,0,0,1-.715-1.945,2.284,2.284,0,0,1,.992-2.016,5.721,5.721,0,0,1,3.023-.742l1.492-.047v-.461a1.747,1.747,0,0,0-.387-1.238,1.577,1.577,0,0,0-1.2-.41,4.147,4.147,0,0,0-1.273.2,9.61,9.61,0,0,0-1.172.461L22.82-8.047a6.39,6.39,0,0,1,1.539-.559A7.083,7.083,0,0,1,25.938-8.8a3.738,3.738,0,0,1,2.488.719,2.814,2.814,0,0,1,.84,2.258V0ZM25.219-1.25a2.274,2.274,0,0,0,1.605-.559,2.025,2.025,0,0,0,.605-1.566v-.75l-1.109.047a3.8,3.8,0,0,0-1.887.434,1.317,1.317,0,0,0-.59,1.184,1.155,1.155,0,0,0,.344.895A1.477,1.477,0,0,0,25.219-1.25ZM34.742.156a3.01,3.01,0,0,1-2.523-1.172A5.267,5.267,0,0,1,31.313-4.3a5.284,5.284,0,0,1,.918-3.309A3.038,3.038,0,0,1,34.773-8.8a2.979,2.979,0,0,1,2.594,1.258h.094a11.005,11.005,0,0,1-.133-1.469v-3.148h1.844V0H37.734l-.32-1.133h-.086A2.935,2.935,0,0,1,34.742.156Zm.492-1.484a2,2,0,0,0,1.648-.637,3.352,3.352,0,0,0,.531-2.066v-.258a3.873,3.873,0,0,0-.531-2.32A1.971,1.971,0,0,0,35.219-7.3a1.688,1.688,0,0,0-1.492.785A4.024,4.024,0,0,0,33.2-4.273a3.923,3.923,0,0,0,.508,2.191A1.714,1.714,0,0,0,35.234-1.328ZM45.57.156A4.18,4.18,0,0,1,42.418-1.02a4.463,4.463,0,0,1-1.137-3.238,4.9,4.9,0,0,1,1.055-3.328,3.643,3.643,0,0,1,2.9-1.211,3.561,3.561,0,0,1,2.7,1.039A3.97,3.97,0,0,1,48.93-4.9v.992H43.172a2.838,2.838,0,0,0,.68,1.934,2.367,2.367,0,0,0,1.8.676,6.662,6.662,0,0,0,1.426-.145,7.474,7.474,0,0,0,1.418-.48V-.43a5.637,5.637,0,0,1-1.359.453A8.336,8.336,0,0,1,45.57.156Zm-.336-7.562a1.845,1.845,0,0,0-1.4.555A2.643,2.643,0,0,0,43.2-5.234h3.922a2.392,2.392,0,0,0-.516-1.621A1.764,1.764,0,0,0,45.234-7.406ZM55.4-8.8a4.42,4.42,0,0,1,.914.078l-.18,1.711A3.47,3.47,0,0,0,55.32-7.1a2.351,2.351,0,0,0-1.785.719,2.6,2.6,0,0,0-.684,1.867V0H51.016V-8.641h1.438L52.7-7.117h.094A3.423,3.423,0,0,1,53.91-8.344,2.665,2.665,0,0,1,55.4-8.8ZM63.906,0H62.07V-12.156h1.836Zm8.031,0L71.57-1.2h-.062A3.54,3.54,0,0,1,70.25-.129a3.978,3.978,0,0,1-1.625.285,2.75,2.75,0,0,1-1.988-.687,2.573,2.573,0,0,1-.715-1.945,2.284,2.284,0,0,1,.992-2.016,5.721,5.721,0,0,1,3.023-.742l1.492-.047v-.461a1.747,1.747,0,0,0-.387-1.238,1.577,1.577,0,0,0-1.2-.41,4.147,4.147,0,0,0-1.273.2,9.61,9.61,0,0,0-1.172.461L66.8-8.047a6.39,6.39,0,0,1,1.539-.559A7.083,7.083,0,0,1,69.922-8.8a3.738,3.738,0,0,1,2.488.719,2.814,2.814,0,0,1,.84,2.258V0ZM69.2-1.25a2.274,2.274,0,0,0,1.605-.559,2.025,2.025,0,0,0,.605-1.566v-.75L70.3-4.078a3.8,3.8,0,0,0-1.887.434,1.317,1.317,0,0,0-.59,1.184,1.155,1.155,0,0,0,.344.895A1.477,1.477,0,0,0,69.2-1.25ZM80.227-8.8a3,3,0,0,1,2.52,1.172,5.284,5.284,0,0,1,.9,3.289,5.3,5.3,0,0,1-.914,3.309A3.028,3.028,0,0,1,80.2.156a3.026,3.026,0,0,1-2.547-1.18h-.125L77.188,0H75.813V-12.156h1.836v2.891q0,.32-.031.953t-.047.8h.078A2.916,2.916,0,0,1,80.227-8.8ZM79.75-7.3a1.866,1.866,0,0,0-1.6.652,3.8,3.8,0,0,0-.5,2.184v.125a4.041,4.041,0,0,0,.5,2.285,1.86,1.86,0,0,0,1.633.707,1.655,1.655,0,0,0,1.48-.773,4.1,4.1,0,0,0,.5-2.234Q81.766-7.3,79.75-7.3Zm9.8,7.453A4.18,4.18,0,0,1,86.4-1.02a4.463,4.463,0,0,1-1.137-3.238A4.9,4.9,0,0,1,86.32-7.586a3.643,3.643,0,0,1,2.9-1.211,3.561,3.561,0,0,1,2.7,1.039A3.97,3.97,0,0,1,92.914-4.9v.992H87.156a2.838,2.838,0,0,0,.68,1.934,2.367,2.367,0,0,0,1.8.676,6.662,6.662,0,0,0,1.426-.145,7.474,7.474,0,0,0,1.418-.48V-.43a5.637,5.637,0,0,1-1.359.453A8.336,8.336,0,0,1,89.555.156Zm-.336-7.562a1.845,1.845,0,0,0-1.4.555,2.644,2.644,0,0,0-.629,1.617h3.922a2.392,2.392,0,0,0-.516-1.621A1.764,1.764,0,0,0,89.219-7.406ZM96.836,0H95V-12.156h1.836Z" transform="translate(4479 -324)"/>
    <path id="Path_238" data-name="Path 238" class="cls-9" d="M10.516,0H8.641V-5.148H3.375V0H1.508V-11.422H3.375V-6.75H8.641v-4.672h1.875ZM17.1.156A4.18,4.18,0,0,1,13.949-1.02a4.463,4.463,0,0,1-1.137-3.238,4.9,4.9,0,0,1,1.055-3.328,3.643,3.643,0,0,1,2.9-1.211,3.561,3.561,0,0,1,2.7,1.039A3.97,3.97,0,0,1,20.461-4.9v.992H14.7a2.838,2.838,0,0,0,.68,1.934,2.367,2.367,0,0,0,1.8.676,6.662,6.662,0,0,0,1.426-.145,7.474,7.474,0,0,0,1.418-.48V-.43a5.637,5.637,0,0,1-1.359.453A8.336,8.336,0,0,1,17.1.156Zm-.336-7.562a1.845,1.845,0,0,0-1.4.555,2.644,2.644,0,0,0-.629,1.617h3.922a2.392,2.392,0,0,0-.516-1.621A1.764,1.764,0,0,0,16.766-7.406ZM27.953,0l-.367-1.2h-.062A3.54,3.54,0,0,1,26.266-.129a3.978,3.978,0,0,1-1.625.285,2.75,2.75,0,0,1-1.988-.687,2.573,2.573,0,0,1-.715-1.945,2.284,2.284,0,0,1,.992-2.016,5.721,5.721,0,0,1,3.023-.742l1.492-.047v-.461a1.747,1.747,0,0,0-.387-1.238,1.577,1.577,0,0,0-1.2-.41,4.147,4.147,0,0,0-1.273.2,9.61,9.61,0,0,0-1.172.461L22.82-8.047a6.39,6.39,0,0,1,1.539-.559A7.083,7.083,0,0,1,25.938-8.8a3.738,3.738,0,0,1,2.488.719,2.814,2.814,0,0,1,.84,2.258V0ZM25.219-1.25a2.274,2.274,0,0,0,1.605-.559,2.025,2.025,0,0,0,.605-1.566v-.75l-1.109.047a3.8,3.8,0,0,0-1.887.434,1.317,1.317,0,0,0-.59,1.184,1.155,1.155,0,0,0,.344.895A1.477,1.477,0,0,0,25.219-1.25ZM34.742.156a3.01,3.01,0,0,1-2.523-1.172A5.267,5.267,0,0,1,31.313-4.3a5.284,5.284,0,0,1,.918-3.309A3.038,3.038,0,0,1,34.773-8.8a2.979,2.979,0,0,1,2.594,1.258h.094a11.005,11.005,0,0,1-.133-1.469v-3.148h1.844V0H37.734l-.32-1.133h-.086A2.935,2.935,0,0,1,34.742.156Zm.492-1.484a2,2,0,0,0,1.648-.637,3.352,3.352,0,0,0,.531-2.066v-.258a3.873,3.873,0,0,0-.531-2.32A1.971,1.971,0,0,0,35.219-7.3a1.688,1.688,0,0,0-1.492.785A4.024,4.024,0,0,0,33.2-4.273a3.923,3.923,0,0,0,.508,2.191A1.714,1.714,0,0,0,35.234-1.328ZM45.57.156A4.18,4.18,0,0,1,42.418-1.02a4.463,4.463,0,0,1-1.137-3.238,4.9,4.9,0,0,1,1.055-3.328,3.643,3.643,0,0,1,2.9-1.211,3.561,3.561,0,0,1,2.7,1.039A3.97,3.97,0,0,1,48.93-4.9v.992H43.172a2.838,2.838,0,0,0,.68,1.934,2.367,2.367,0,0,0,1.8.676,6.662,6.662,0,0,0,1.426-.145,7.474,7.474,0,0,0,1.418-.48V-.43a5.637,5.637,0,0,1-1.359.453A8.336,8.336,0,0,1,45.57.156Zm-.336-7.562a1.845,1.845,0,0,0-1.4.555A2.643,2.643,0,0,0,43.2-5.234h3.922a2.392,2.392,0,0,0-.516-1.621A1.764,1.764,0,0,0,45.234-7.406ZM55.4-8.8a4.42,4.42,0,0,1,.914.078l-.18,1.711A3.47,3.47,0,0,0,55.32-7.1a2.351,2.351,0,0,0-1.785.719,2.6,2.6,0,0,0-.684,1.867V0H51.016V-8.641h1.438L52.7-7.117h.094A3.423,3.423,0,0,1,53.91-8.344,2.665,2.665,0,0,1,55.4-8.8ZM63.906,0H62.07V-12.156h1.836Zm8.031,0L71.57-1.2h-.062A3.54,3.54,0,0,1,70.25-.129a3.978,3.978,0,0,1-1.625.285,2.75,2.75,0,0,1-1.988-.687,2.573,2.573,0,0,1-.715-1.945,2.284,2.284,0,0,1,.992-2.016,5.721,5.721,0,0,1,3.023-.742l1.492-.047v-.461a1.747,1.747,0,0,0-.387-1.238,1.577,1.577,0,0,0-1.2-.41,4.147,4.147,0,0,0-1.273.2,9.61,9.61,0,0,0-1.172.461L66.8-8.047a6.39,6.39,0,0,1,1.539-.559A7.083,7.083,0,0,1,69.922-8.8a3.738,3.738,0,0,1,2.488.719,2.814,2.814,0,0,1,.84,2.258V0ZM69.2-1.25a2.274,2.274,0,0,0,1.605-.559,2.025,2.025,0,0,0,.605-1.566v-.75L70.3-4.078a3.8,3.8,0,0,0-1.887.434,1.317,1.317,0,0,0-.59,1.184,1.155,1.155,0,0,0,.344.895A1.477,1.477,0,0,0,69.2-1.25ZM80.227-8.8a3,3,0,0,1,2.52,1.172,5.284,5.284,0,0,1,.9,3.289,5.3,5.3,0,0,1-.914,3.309A3.028,3.028,0,0,1,80.2.156a3.026,3.026,0,0,1-2.547-1.18h-.125L77.188,0H75.813V-12.156h1.836v2.891q0,.32-.031.953t-.047.8h.078A2.916,2.916,0,0,1,80.227-8.8ZM79.75-7.3a1.866,1.866,0,0,0-1.6.652,3.8,3.8,0,0,0-.5,2.184v.125a4.041,4.041,0,0,0,.5,2.285,1.86,1.86,0,0,0,1.633.707,1.655,1.655,0,0,0,1.48-.773,4.1,4.1,0,0,0,.5-2.234Q81.766-7.3,79.75-7.3Zm9.8,7.453A4.18,4.18,0,0,1,86.4-1.02a4.463,4.463,0,0,1-1.137-3.238A4.9,4.9,0,0,1,86.32-7.586a3.643,3.643,0,0,1,2.9-1.211,3.561,3.561,0,0,1,2.7,1.039A3.97,3.97,0,0,1,92.914-4.9v.992H87.156a2.838,2.838,0,0,0,.68,1.934,2.367,2.367,0,0,0,1.8.676,6.662,6.662,0,0,0,1.426-.145,7.474,7.474,0,0,0,1.418-.48V-.43a5.637,5.637,0,0,1-1.359.453A8.336,8.336,0,0,1,89.555.156Zm-.336-7.562a1.845,1.845,0,0,0-1.4.555,2.644,2.644,0,0,0-.629,1.617h3.922a2.392,2.392,0,0,0-.516-1.621A1.764,1.764,0,0,0,89.219-7.406ZM96.836,0H95V-12.156h1.836Z" transform="translate(4479 -396)"/>
    <path id="Path_221" data-name="Path 221" class="cls-8" d="M4.45,0H3.288V-8.962H.123V-9.994H7.615v1.032H4.45Zm9.625,0V-4.847a1.955,1.955,0,0,0-.417-1.367,1.7,1.7,0,0,0-1.306-.451,2.139,2.139,0,0,0-1.726.643,3.255,3.255,0,0,0-.543,2.105V0H8.948V-10.637h1.135v3.22a7.015,7.015,0,0,1-.055.964H10.1A2.314,2.314,0,0,1,11.05-7.3a3.1,3.1,0,0,1,1.412-.311,2.891,2.891,0,0,1,2.061.653,2.749,2.749,0,0,1,.687,2.075V0Zm4.6,0H17.541V-7.492h1.135Zm-1.23-9.522a.754.754,0,0,1,.191-.571.669.669,0,0,1,.479-.181.669.669,0,0,1,.472.185.74.74,0,0,1,.2.567.752.752,0,0,1-.2.571.662.662,0,0,1-.472.188.655.655,0,0,1-.479-.188A.768.768,0,0,1,17.445-9.522Zm8.47,7.479a1.877,1.877,0,0,1-.779,1.613,3.663,3.663,0,0,1-2.187.567,4.757,4.757,0,0,1-2.324-.472V-1.388a5.621,5.621,0,0,0,1.159.431A4.839,4.839,0,0,0,22.976-.8a2.705,2.705,0,0,0,1.367-.284.938.938,0,0,0,.479-.865.939.939,0,0,0-.379-.749,5.968,5.968,0,0,0-1.48-.735,8.025,8.025,0,0,1-1.487-.68,2.031,2.031,0,0,1-.656-.66,1.72,1.72,0,0,1-.215-.882A1.681,1.681,0,0,1,21.349-7.1a3.472,3.472,0,0,1,2.044-.53,5.98,5.98,0,0,1,2.365.492l-.4.923a5.429,5.429,0,0,0-2.044-.465,2.352,2.352,0,0,0-1.217.253.782.782,0,0,0-.41.7.849.849,0,0,0,.154.513,1.518,1.518,0,0,0,.5.4,11.076,11.076,0,0,0,1.313.554,4.9,4.9,0,0,1,1.8.978A1.724,1.724,0,0,1,25.915-2.044ZM32.532,0H31.4V-7.492h1.135ZM31.3-9.522a.754.754,0,0,1,.191-.571.669.669,0,0,1,.479-.181.669.669,0,0,1,.472.185.74.74,0,0,1,.2.567.752.752,0,0,1-.2.571.662.662,0,0,1-.472.188.655.655,0,0,1-.479-.188A.768.768,0,0,1,31.3-9.522Zm8.47,7.479a1.877,1.877,0,0,1-.779,1.613A3.663,3.663,0,0,1,36.8.137,4.757,4.757,0,0,1,34.48-.335V-1.388a5.621,5.621,0,0,0,1.159.431A4.839,4.839,0,0,0,36.832-.8,2.705,2.705,0,0,0,38.2-1.083a.938.938,0,0,0,.479-.865A.939.939,0,0,0,38.3-2.7a5.968,5.968,0,0,0-1.48-.735,8.025,8.025,0,0,1-1.487-.68,2.031,2.031,0,0,1-.656-.66,1.72,1.72,0,0,1-.215-.882A1.681,1.681,0,0,1,35.205-7.1a3.472,3.472,0,0,1,2.044-.53,5.98,5.98,0,0,1,2.365.492l-.4.923a5.429,5.429,0,0,0-2.044-.465,2.352,2.352,0,0,0-1.217.253.782.782,0,0,0-.41.7.849.849,0,0,0,.154.513,1.518,1.518,0,0,0,.5.4,11.075,11.075,0,0,0,1.313.554,4.9,4.9,0,0,1,1.8.978A1.724,1.724,0,0,1,39.771-2.044ZM48.248.137a3.2,3.2,0,0,1-2.519-1A4.118,4.118,0,0,1,44.837-3.7,4.247,4.247,0,0,1,45.743-6.6a3.261,3.261,0,0,1,2.581-1.025,5.121,5.121,0,0,1,1.08.116,3.558,3.558,0,0,1,.848.273l-.349.964a5.336,5.336,0,0,0-.82-.25,3.663,3.663,0,0,0-.786-.1q-2.283,0-2.283,2.912a3.468,3.468,0,0,0,.557,2.119,1.938,1.938,0,0,0,1.651.738,5.048,5.048,0,0,0,1.921-.4v1A4.094,4.094,0,0,1,48.248.137Zm10.138-3.89a4.133,4.133,0,0,1-.923,2.861A3.25,3.25,0,0,1,54.913.137a3.377,3.377,0,0,1-1.784-.472,3.113,3.113,0,0,1-1.2-1.354A4.717,4.717,0,0,1,51.5-3.753a4.127,4.127,0,0,1,.916-2.854,3.24,3.24,0,0,1,2.543-1.022,3.169,3.169,0,0,1,2.5,1.046A4.115,4.115,0,0,1,58.386-3.753Zm-5.708,0a3.556,3.556,0,0,0,.574,2.188,1.993,1.993,0,0,0,1.688.752,2.006,2.006,0,0,0,1.692-.749,3.538,3.538,0,0,0,.578-2.191,3.481,3.481,0,0,0-.578-2.17,2.03,2.03,0,0,0-1.706-.742,2,2,0,0,0-1.682.731A3.52,3.52,0,0,0,52.678-3.753ZM65.5,0V-4.847a1.955,1.955,0,0,0-.417-1.367,1.7,1.7,0,0,0-1.306-.451,2.153,2.153,0,0,0-1.723.636,3.21,3.21,0,0,0-.547,2.1V0H60.375V-7.492H61.3l.185,1.025h.055a2.317,2.317,0,0,1,.978-.858,3.176,3.176,0,0,1,1.4-.3,2.846,2.846,0,0,1,2.037.653,2.778,2.778,0,0,1,.684,2.088V0Zm5.886-.8a3.707,3.707,0,0,0,.581-.044,3.761,3.761,0,0,0,.444-.092v.868a2.074,2.074,0,0,1-.543.147,4.081,4.081,0,0,1-.646.058q-2.174,0-2.174-2.29V-6.61H67.977v-.547l1.073-.472.479-1.6h.656v1.736h2.174v.882H70.185V-2.2a1.517,1.517,0,0,0,.321,1.039A1.118,1.118,0,0,0,71.388-.8Zm5.688.937A3.442,3.442,0,0,1,74.454-.875a3.917,3.917,0,0,1-.96-2.81,4.344,4.344,0,0,1,.892-2.878,2.963,2.963,0,0,1,2.4-1.066A2.825,2.825,0,0,1,79.01-6.7a3.55,3.55,0,0,1,.82,2.444v.718H74.669a2.97,2.97,0,0,0,.667,2,2.305,2.305,0,0,0,1.781.684,6.035,6.035,0,0,0,2.393-.506V-.349a6.005,6.005,0,0,1-1.138.373A6.4,6.4,0,0,1,77.075.137Zm-.308-6.815a1.853,1.853,0,0,0-1.439.588A2.71,2.71,0,0,0,74.7-4.464h3.917a2.5,2.5,0,0,0-.479-1.644A1.684,1.684,0,0,0,76.768-6.679ZM86.892,0V-4.847a1.955,1.955,0,0,0-.417-1.367,1.7,1.7,0,0,0-1.306-.451,2.153,2.153,0,0,0-1.723.636,3.21,3.21,0,0,0-.547,2.1V0H81.765V-7.492h.923l.185,1.025h.055a2.317,2.317,0,0,1,.978-.858,3.176,3.176,0,0,1,1.4-.3,2.846,2.846,0,0,1,2.037.653,2.778,2.778,0,0,1,.684,2.088V0Zm5.886-.8a3.707,3.707,0,0,0,.581-.044A3.761,3.761,0,0,0,93.8-.937v.868a2.074,2.074,0,0,1-.543.147,4.081,4.081,0,0,1-.646.058q-2.174,0-2.174-2.29V-6.61H89.366v-.547l1.073-.472.479-1.6h.656v1.736h2.174v.882H91.574V-2.2A1.517,1.517,0,0,0,91.9-1.162,1.118,1.118,0,0,0,92.777-.8Zm3.712-.827.1.157q-.178.684-.513,1.589t-.7,1.685h-.854q.185-.711.407-1.757t.311-1.675ZM95.1-6.761q0-.923.813-.923.841,0,.841.923a.959.959,0,0,1-.226.684.8.8,0,0,1-.615.239.759.759,0,0,1-.6-.239A1.009,1.009,0,0,1,95.1-6.761ZM103.8,0h-1.135V-7.492H103.8Zm-1.23-9.522a.754.754,0,0,1,.191-.571.669.669,0,0,1,.479-.181.669.669,0,0,1,.472.185.74.74,0,0,1,.2.567.752.752,0,0,1-.2.571.662.662,0,0,1-.472.188.655.655,0,0,1-.479-.188A.768.768,0,0,1,102.566-9.522ZM108.623-.8a3.707,3.707,0,0,0,.581-.044,3.761,3.761,0,0,0,.444-.092v.868a2.074,2.074,0,0,1-.543.147,4.081,4.081,0,0,1-.646.058q-2.174,0-2.174-2.29V-6.61h-1.073v-.547l1.073-.472.479-1.6h.656v1.736h2.174v.882H107.42V-2.2a1.517,1.517,0,0,0,.321,1.039A1.118,1.118,0,0,0,108.623-.8Zm9.153.937a3.2,3.2,0,0,1-2.519-1,4.118,4.118,0,0,1-.892-2.833,4.247,4.247,0,0,1,.906-2.905,3.261,3.261,0,0,1,2.581-1.025,5.121,5.121,0,0,1,1.08.116,3.558,3.558,0,0,1,.848.273l-.349.964a5.336,5.336,0,0,0-.82-.25,3.663,3.663,0,0,0-.786-.1q-2.283,0-2.283,2.912a3.467,3.467,0,0,0,.557,2.119,1.938,1.938,0,0,0,1.651.738,5.048,5.048,0,0,0,1.921-.4v1A4.094,4.094,0,0,1,117.776.137ZM126.055,0l-.226-1.066h-.055a3.153,3.153,0,0,1-1.118.954,3.407,3.407,0,0,1-1.391.25,2.5,2.5,0,0,1-1.747-.574,2.094,2.094,0,0,1-.632-1.634q0-2.27,3.63-2.379l1.271-.041v-.465a1.9,1.9,0,0,0-.379-1.3,1.56,1.56,0,0,0-1.213-.42,4.944,4.944,0,0,0-2.119.574l-.349-.868a5.332,5.332,0,0,1,1.213-.472,5.255,5.255,0,0,1,1.323-.171,2.854,2.854,0,0,1,1.986.595,2.482,2.482,0,0,1,.646,1.907V0Zm-2.563-.8a2.3,2.3,0,0,0,1.665-.581,2.15,2.15,0,0,0,.6-1.627v-.677l-1.135.048a4.128,4.128,0,0,0-1.952.42,1.268,1.268,0,0,0-.6,1.159,1.169,1.169,0,0,0,.373.937A1.546,1.546,0,0,0,123.491-.8ZM134.36,0V-4.847a1.955,1.955,0,0,0-.417-1.367,1.7,1.7,0,0,0-1.306-.451,2.153,2.153,0,0,0-1.723.636,3.21,3.21,0,0,0-.547,2.1V0h-1.135V-7.492h.923l.185,1.025h.055a2.317,2.317,0,0,1,.978-.858,3.176,3.176,0,0,1,1.4-.3,2.846,2.846,0,0,1,2.037.653,2.778,2.778,0,0,1,.684,2.088V0ZM142.6,0h-1.135V-7.492H142.6Zm-1.23-9.522a.754.754,0,0,1,.191-.571.669.669,0,0,1,.479-.181.669.669,0,0,1,.472.185.74.74,0,0,1,.2.567.752.752,0,0,1-.2.571.662.662,0,0,1-.472.188.655.655,0,0,1-.479-.188A.768.768,0,0,1,141.367-9.522ZM150.131,0V-4.847a1.955,1.955,0,0,0-.417-1.367,1.7,1.7,0,0,0-1.306-.451,2.153,2.153,0,0,0-1.723.636,3.21,3.21,0,0,0-.547,2.1V0H145V-7.492h.923l.185,1.025h.055a2.317,2.317,0,0,1,.978-.858,3.176,3.176,0,0,1,1.4-.3,2.846,2.846,0,0,1,2.037.653,2.778,2.778,0,0,1,.684,2.088V0Zm6.46.137a3.2,3.2,0,0,1-2.519-1A4.118,4.118,0,0,1,153.18-3.7a4.247,4.247,0,0,1,.906-2.905,3.261,3.261,0,0,1,2.581-1.025,5.121,5.121,0,0,1,1.08.116,3.558,3.558,0,0,1,.848.273l-.349.964a5.336,5.336,0,0,0-.82-.25,3.663,3.663,0,0,0-.786-.1q-2.283,0-2.283,2.912a3.468,3.468,0,0,0,.557,2.119,1.938,1.938,0,0,0,1.651.738,5.048,5.048,0,0,0,1.921-.4v1A4.094,4.094,0,0,1,156.591.137ZM161.4,0h-1.135V-10.637H161.4Zm3.473-7.492v4.86a1.955,1.955,0,0,0,.417,1.367,1.7,1.7,0,0,0,1.306.451,2.13,2.13,0,0,0,1.719-.643,3.241,3.241,0,0,0,.543-2.1V-7.492h1.135V0h-.937l-.164-1h-.062a2.262,2.262,0,0,1-.967.848,3.251,3.251,0,0,1-1.412.294A2.864,2.864,0,0,1,164.4-.513a2.765,2.765,0,0,1-.68-2.078v-4.9ZM177.5-1h-.062A2.666,2.666,0,0,1,175.082.137a2.782,2.782,0,0,1-2.287-1,4.423,4.423,0,0,1-.817-2.857A4.5,4.5,0,0,1,172.8-6.6a2.76,2.76,0,0,1,2.283-1.025,2.724,2.724,0,0,1,2.338,1.107h.089l-.048-.54-.027-.526v-3.049h1.135V0h-.923Zm-2.27.191a2.066,2.066,0,0,0,1.685-.632,3.2,3.2,0,0,0,.523-2.041v-.239A3.76,3.76,0,0,0,176.9-6a2.012,2.012,0,0,0-1.692-.68,1.737,1.737,0,0,0-1.528.776,3.858,3.858,0,0,0-.53,2.191,3.7,3.7,0,0,0,.526,2.167A1.783,1.783,0,0,0,175.226-.813Zm8.914.95a3.442,3.442,0,0,1-2.622-1.012,3.917,3.917,0,0,1-.96-2.81,4.344,4.344,0,0,1,.892-2.878,2.963,2.963,0,0,1,2.4-1.066,2.825,2.825,0,0,1,2.229.926,3.55,3.55,0,0,1,.82,2.444v.718h-5.161a2.97,2.97,0,0,0,.667,2,2.305,2.305,0,0,0,1.781.684,6.035,6.035,0,0,0,2.393-.506V-.349a6.005,6.005,0,0,1-1.138.373A6.4,6.4,0,0,1,184.14.137Zm-.308-6.815a1.853,1.853,0,0,0-1.439.588,2.71,2.71,0,0,0-.632,1.627h3.917a2.5,2.5,0,0,0-.479-1.644A1.684,1.684,0,0,0,183.832-6.679ZM202.016,0V-4.874a2.023,2.023,0,0,0-.383-1.343,1.481,1.481,0,0,0-1.189-.448,1.92,1.92,0,0,0-1.565.608,2.891,2.891,0,0,0-.506,1.873V0h-1.135V-4.874a2.023,2.023,0,0,0-.383-1.343,1.49,1.49,0,0,0-1.2-.448,1.853,1.853,0,0,0-1.562.639,3.459,3.459,0,0,0-.5,2.1V0h-1.135V-7.492h.923l.185,1.025h.055a2.23,2.23,0,0,1,.906-.854,2.767,2.767,0,0,1,1.309-.308,2.226,2.226,0,0,1,2.3,1.271h.055a2.389,2.389,0,0,1,.971-.93,3.012,3.012,0,0,1,1.449-.342,2.537,2.537,0,0,1,1.9.653,2.921,2.921,0,0,1,.632,2.088V0Zm8.08,0-.226-1.066h-.055a3.153,3.153,0,0,1-1.118.954,3.407,3.407,0,0,1-1.391.25,2.5,2.5,0,0,1-1.747-.574,2.094,2.094,0,0,1-.632-1.634q0-2.27,3.63-2.379l1.271-.041v-.465a1.9,1.9,0,0,0-.379-1.3,1.56,1.56,0,0,0-1.213-.42,4.944,4.944,0,0,0-2.119.574l-.349-.868a5.333,5.333,0,0,1,1.213-.472,5.255,5.255,0,0,1,1.323-.171,2.854,2.854,0,0,1,1.986.595,2.482,2.482,0,0,1,.646,1.907V0Zm-2.563-.8a2.3,2.3,0,0,0,1.665-.581,2.15,2.15,0,0,0,.6-1.627v-.677l-1.135.048a4.128,4.128,0,0,0-1.952.42,1.268,1.268,0,0,0-.6,1.159,1.169,1.169,0,0,0,.373.937A1.546,1.546,0,0,0,207.532-.8ZM218.4,0V-4.847a1.955,1.955,0,0,0-.417-1.367,1.7,1.7,0,0,0-1.306-.451,2.153,2.153,0,0,0-1.723.636,3.21,3.21,0,0,0-.547,2.1V0h-1.135V-7.492h.923l.185,1.025h.055a2.317,2.317,0,0,1,.978-.858,3.176,3.176,0,0,1,1.4-.3,2.846,2.846,0,0,1,2.037.653,2.778,2.778,0,0,1,.684,2.088V0Zm2.276-7.492h1.217l1.641,4.272a16.251,16.251,0,0,1,.67,2.112h.055q.089-.349.373-1.193t1.856-5.192h1.217l-3.22,8.531a4.256,4.256,0,0,1-1.118,1.794,2.377,2.377,0,0,1-1.569.53,4.565,4.565,0,0,1-1.025-.116V2.338a3.956,3.956,0,0,0,.841.082,1.733,1.733,0,0,0,1.668-1.312L223.7.041ZM237.658-1H237.6A2.666,2.666,0,0,1,235.245.137a2.782,2.782,0,0,1-2.287-1,4.423,4.423,0,0,1-.817-2.857,4.5,4.5,0,0,1,.82-2.878,2.76,2.76,0,0,1,2.283-1.025,2.724,2.724,0,0,1,2.338,1.107h.089l-.048-.54-.027-.526v-3.049h1.135V0h-.923Zm-2.27.191a2.066,2.066,0,0,0,1.685-.632,3.2,3.2,0,0,0,.523-2.041v-.239A3.76,3.76,0,0,0,237.067-6a2.012,2.012,0,0,0-1.692-.68,1.737,1.737,0,0,0-1.528.776,3.858,3.858,0,0,0-.53,2.191,3.7,3.7,0,0,0,.526,2.167A1.783,1.783,0,0,0,235.389-.813ZM242.272,0h-1.135V-7.492h1.135Zm-1.23-9.522a.754.754,0,0,1,.191-.571.669.669,0,0,1,.479-.181.669.669,0,0,1,.472.185.74.74,0,0,1,.2.567.752.752,0,0,1-.2.571.662.662,0,0,1-.472.188.655.655,0,0,1-.479-.188A.768.768,0,0,1,241.042-9.522ZM252.8-6.61h-1.907V0h-1.135V-6.61h-1.34v-.513l1.34-.41V-7.95q0-2.762,2.413-2.762a4.966,4.966,0,0,1,1.395.239l-.294.909a3.754,3.754,0,0,0-1.121-.212,1.092,1.092,0,0,0-.95.427,2.384,2.384,0,0,0-.308,1.371v.485H252.8Zm-4.744,0h-1.907V0h-1.135V-6.61h-1.34v-.513l1.34-.41V-7.95q0-2.762,2.413-2.762a4.966,4.966,0,0,1,1.395.239l-.294.909a3.754,3.754,0,0,0-1.121-.212,1.092,1.092,0,0,0-.95.427,2.384,2.384,0,0,0-.308,1.371v.485h1.907ZM257.339.137a3.442,3.442,0,0,1-2.622-1.012,3.917,3.917,0,0,1-.96-2.81,4.344,4.344,0,0,1,.892-2.878,2.963,2.963,0,0,1,2.4-1.066,2.825,2.825,0,0,1,2.229.926,3.55,3.55,0,0,1,.82,2.444v.718h-5.161a2.97,2.97,0,0,0,.667,2,2.305,2.305,0,0,0,1.781.684,6.035,6.035,0,0,0,2.393-.506V-.349a6,6,0,0,1-1.138.373A6.4,6.4,0,0,1,257.339.137Zm-.308-6.815a1.853,1.853,0,0,0-1.439.588,2.71,2.71,0,0,0-.632,1.627h3.917a2.5,2.5,0,0,0-.479-1.644A1.684,1.684,0,0,0,257.031-6.679Zm8.415-.95a4.44,4.44,0,0,1,.9.082l-.157,1.053a3.866,3.866,0,0,0-.82-.1,2,2,0,0,0-1.555.738,2.692,2.692,0,0,0-.646,1.839V0h-1.135V-7.492h.937l.13,1.388h.055a3.293,3.293,0,0,1,1-1.128A2.262,2.262,0,0,1,265.446-7.629ZM270.908.137a3.442,3.442,0,0,1-2.622-1.012,3.917,3.917,0,0,1-.96-2.81,4.344,4.344,0,0,1,.892-2.878,2.963,2.963,0,0,1,2.4-1.066,2.825,2.825,0,0,1,2.229.926,3.55,3.55,0,0,1,.82,2.444v.718H268.5a2.97,2.97,0,0,0,.667,2,2.305,2.305,0,0,0,1.781.684,6.035,6.035,0,0,0,2.393-.506V-.349A6,6,0,0,1,272.2.024,6.4,6.4,0,0,1,270.908.137ZM270.6-6.679a1.853,1.853,0,0,0-1.439.588,2.71,2.71,0,0,0-.632,1.627h3.917a2.5,2.5,0,0,0-.479-1.644A1.684,1.684,0,0,0,270.6-6.679ZM280.725,0V-4.847a1.955,1.955,0,0,0-.417-1.367A1.7,1.7,0,0,0,279-6.665a2.153,2.153,0,0,0-1.723.636,3.21,3.21,0,0,0-.547,2.1V0H275.6V-7.492h.923l.185,1.025h.055a2.317,2.317,0,0,1,.978-.858,3.176,3.176,0,0,1,1.4-.3,2.846,2.846,0,0,1,2.037.653,2.778,2.778,0,0,1,.684,2.088V0Zm5.886-.8a3.707,3.707,0,0,0,.581-.044,3.761,3.761,0,0,0,.444-.092v.868a2.074,2.074,0,0,1-.543.147,4.081,4.081,0,0,1-.646.058q-2.174,0-2.174-2.29V-6.61H283.2v-.547l1.073-.472.479-1.6h.656v1.736h2.174v.882h-2.174V-2.2a1.517,1.517,0,0,0,.321,1.039A1.118,1.118,0,0,0,286.61-.8Zm8.579,0a3.707,3.707,0,0,0,.581-.044,3.761,3.761,0,0,0,.444-.092v.868a2.074,2.074,0,0,1-.543.147,4.081,4.081,0,0,1-.646.058q-2.174,0-2.174-2.29V-6.61h-1.073v-.547l1.073-.472.479-1.6h.656v1.736h2.174v.882h-2.174V-2.2a1.517,1.517,0,0,0,.321,1.039A1.118,1.118,0,0,0,295.189-.8Zm7.649.8V-4.847a1.955,1.955,0,0,0-.417-1.367,1.7,1.7,0,0,0-1.306-.451,2.139,2.139,0,0,0-1.726.643,3.255,3.255,0,0,0-.543,2.105V0h-1.135V-10.637h1.135v3.22a7.014,7.014,0,0,1-.055.964h.068a2.314,2.314,0,0,1,.954-.851,3.1,3.1,0,0,1,1.412-.311,2.891,2.891,0,0,1,2.061.653,2.749,2.749,0,0,1,.687,2.075V0Zm4.6,0H306.3V-7.492h1.135Zm-1.23-9.522a.754.754,0,0,1,.191-.571.669.669,0,0,1,.479-.181.669.669,0,0,1,.472.185.74.74,0,0,1,.2.567.752.752,0,0,1-.2.571.662.662,0,0,1-.472.188.655.655,0,0,1-.479-.188A.768.768,0,0,1,306.209-9.522ZM314.973,0V-4.847a1.955,1.955,0,0,0-.417-1.367,1.7,1.7,0,0,0-1.306-.451,2.153,2.153,0,0,0-1.723.636,3.21,3.21,0,0,0-.547,2.1V0h-1.135V-7.492h.923l.185,1.025h.055a2.317,2.317,0,0,1,.978-.858,3.176,3.176,0,0,1,1.4-.3,2.846,2.846,0,0,1,2.037.653,2.778,2.778,0,0,1,.684,2.088V0Zm9.6-7.492v.718l-1.388.164a2.385,2.385,0,0,1,.342.625,2.387,2.387,0,0,1,.15.872,2.215,2.215,0,0,1-.752,1.757,3.033,3.033,0,0,1-2.064.656,3.438,3.438,0,0,1-.629-.055,1.117,1.117,0,0,0-.725.964.49.49,0,0,0,.253.455,1.848,1.848,0,0,0,.868.147h1.326a2.97,2.97,0,0,1,1.87.513,1.781,1.781,0,0,1,.653,1.49,2.127,2.127,0,0,1-1,1.9,5.342,5.342,0,0,1-2.912.653,3.978,3.978,0,0,1-2.266-.547,1.766,1.766,0,0,1-.8-1.545,1.735,1.735,0,0,1,.438-1.183,2.228,2.228,0,0,1,1.23-.677,1.187,1.187,0,0,1-.482-.4,1.067,1.067,0,0,1-.195-.636,1.206,1.206,0,0,1,.219-.718,2.3,2.3,0,0,1,.69-.595,2.024,2.024,0,0,1-.947-.813,2.39,2.39,0,0,1-.366-1.312,2.424,2.424,0,0,1,.738-1.9,3.014,3.014,0,0,1,2.092-.667,3.8,3.8,0,0,1,1.06.137ZM318.6,1.258a1.017,1.017,0,0,0,.513.923,2.83,2.83,0,0,0,1.47.314,4.1,4.1,0,0,0,2.116-.427,1.308,1.308,0,0,0,.687-1.159A.917.917,0,0,0,323,.065a2.92,2.92,0,0,0-1.415-.236h-1.36a1.792,1.792,0,0,0-1.2.369A1.319,1.319,0,0,0,318.6,1.258Zm.615-6.351a1.525,1.525,0,0,0,.444,1.189,1.774,1.774,0,0,0,1.237.4,1.447,1.447,0,0,0,1.661-1.613A1.489,1.489,0,0,0,320.872-6.8a1.665,1.665,0,0,0-1.23.431A1.734,1.734,0,0,0,319.211-5.093Zm11.73,3.049a1.877,1.877,0,0,1-.779,1.613,3.663,3.663,0,0,1-2.187.567,4.757,4.757,0,0,1-2.324-.472V-1.388a5.62,5.62,0,0,0,1.159.431A4.839,4.839,0,0,0,328-.8a2.705,2.705,0,0,0,1.367-.284.938.938,0,0,0,.479-.865.939.939,0,0,0-.379-.749,5.968,5.968,0,0,0-1.48-.735,8.025,8.025,0,0,1-1.487-.68,2.031,2.031,0,0,1-.656-.66,1.72,1.72,0,0,1-.215-.882,1.681,1.681,0,0,1,.745-1.446,3.472,3.472,0,0,1,2.044-.53,5.98,5.98,0,0,1,2.365.492l-.4.923a5.429,5.429,0,0,0-2.044-.465,2.352,2.352,0,0,0-1.217.253.782.782,0,0,0-.41.7.849.849,0,0,0,.154.513,1.518,1.518,0,0,0,.5.4,11.077,11.077,0,0,0,1.313.554,4.9,4.9,0,0,1,1.8.978A1.724,1.724,0,0,1,330.941-2.044Zm3.035.417.1.157q-.178.684-.513,1.589t-.7,1.685h-.854q.185-.711.407-1.757t.311-1.675ZM340.99,0h-1.135V-7.492h1.135Zm-1.23-9.522a.754.754,0,0,1,.191-.571.669.669,0,0,1,.479-.181.669.669,0,0,1,.472.185.74.74,0,0,1,.2.567.752.752,0,0,1-.2.571.662.662,0,0,1-.472.188.655.655,0,0,1-.479-.188A.768.768,0,0,1,339.76-9.522ZM348.523,0V-4.847a1.955,1.955,0,0,0-.417-1.367,1.7,1.7,0,0,0-1.306-.451,2.153,2.153,0,0,0-1.723.636,3.21,3.21,0,0,0-.547,2.1V0H343.4V-7.492h.923l.185,1.025h.055a2.317,2.317,0,0,1,.978-.858,3.176,3.176,0,0,1,1.4-.3,2.846,2.846,0,0,1,2.037.653,2.778,2.778,0,0,1,.684,2.088V0Zm6.46.137a3.2,3.2,0,0,1-2.519-1,4.118,4.118,0,0,1-.892-2.833,4.247,4.247,0,0,1,.906-2.905,3.261,3.261,0,0,1,2.581-1.025,5.121,5.121,0,0,1,1.08.116,3.558,3.558,0,0,1,.848.273l-.349.964a5.335,5.335,0,0,0-.82-.25,3.663,3.663,0,0,0-.786-.1q-2.283,0-2.283,2.912a3.467,3.467,0,0,0,.557,2.119,1.938,1.938,0,0,0,1.651.738,5.048,5.048,0,0,0,1.921-.4v1A4.094,4.094,0,0,1,354.983.137ZM359.789,0h-1.135V-10.637h1.135Zm3.473-7.492v4.86a1.955,1.955,0,0,0,.417,1.367,1.7,1.7,0,0,0,1.306.451,2.13,2.13,0,0,0,1.719-.643,3.241,3.241,0,0,0,.543-2.1V-7.492h1.135V0h-.937l-.164-1h-.062a2.262,2.262,0,0,1-.967.848,3.251,3.251,0,0,1-1.412.294,2.864,2.864,0,0,1-2.047-.649,2.764,2.764,0,0,1-.68-2.078v-4.9ZM375.888-1h-.062A2.666,2.666,0,0,1,373.475.137a2.782,2.782,0,0,1-2.287-1,4.423,4.423,0,0,1-.817-2.857,4.5,4.5,0,0,1,.82-2.878,2.76,2.76,0,0,1,2.283-1.025,2.724,2.724,0,0,1,2.338,1.107h.089l-.048-.54-.027-.526v-3.049h1.135V0h-.923Zm-2.27.191a2.066,2.066,0,0,0,1.685-.632,3.2,3.2,0,0,0,.523-2.041v-.239A3.76,3.76,0,0,0,375.3-6a2.012,2.012,0,0,0-1.692-.68,1.737,1.737,0,0,0-1.528.776,3.858,3.858,0,0,0-.53,2.191,3.7,3.7,0,0,0,.526,2.167A1.783,1.783,0,0,0,373.618-.813ZM380.5,0h-1.135V-7.492H380.5Zm-1.23-9.522a.754.754,0,0,1,.191-.571.669.669,0,0,1,.479-.181.669.669,0,0,1,.472.185.74.74,0,0,1,.2.567.752.752,0,0,1-.2.571.662.662,0,0,1-.472.188.655.655,0,0,1-.479-.188A.768.768,0,0,1,379.271-9.522ZM388.035,0V-4.847a1.955,1.955,0,0,0-.417-1.367,1.7,1.7,0,0,0-1.306-.451,2.153,2.153,0,0,0-1.723.636,3.21,3.21,0,0,0-.547,2.1V0h-1.135V-7.492h.923l.185,1.025h.055a2.317,2.317,0,0,1,.978-.858,3.176,3.176,0,0,1,1.4-.3,2.846,2.846,0,0,1,2.037.653,2.778,2.778,0,0,1,.684,2.088V0Zm9.6-7.492v.718l-1.388.164a2.385,2.385,0,0,1,.342.625,2.387,2.387,0,0,1,.15.872,2.215,2.215,0,0,1-.752,1.757,3.033,3.033,0,0,1-2.064.656,3.438,3.438,0,0,1-.629-.055,1.117,1.117,0,0,0-.725.964.49.49,0,0,0,.253.455,1.848,1.848,0,0,0,.868.147h1.326a2.97,2.97,0,0,1,1.87.513,1.781,1.781,0,0,1,.653,1.49,2.127,2.127,0,0,1-1,1.9,5.342,5.342,0,0,1-2.912.653,3.978,3.978,0,0,1-2.266-.547,1.766,1.766,0,0,1-.8-1.545A1.735,1.735,0,0,1,391,.089a2.228,2.228,0,0,1,1.23-.677,1.187,1.187,0,0,1-.482-.4,1.067,1.067,0,0,1-.195-.636,1.206,1.206,0,0,1,.219-.718,2.3,2.3,0,0,1,.69-.595,2.024,2.024,0,0,1-.947-.813,2.39,2.39,0,0,1-.366-1.312,2.424,2.424,0,0,1,.738-1.9,3.014,3.014,0,0,1,2.092-.667,3.8,3.8,0,0,1,1.06.137Zm-5.975,8.75a1.017,1.017,0,0,0,.513.923,2.83,2.83,0,0,0,1.47.314,4.1,4.1,0,0,0,2.116-.427,1.308,1.308,0,0,0,.687-1.159.917.917,0,0,0-.376-.844,2.92,2.92,0,0,0-1.415-.236h-1.36a1.792,1.792,0,0,0-1.2.369A1.319,1.319,0,0,0,391.658,1.258Zm.615-6.351a1.525,1.525,0,0,0,.444,1.189,1.774,1.774,0,0,0,1.237.4,1.447,1.447,0,0,0,1.661-1.613A1.489,1.489,0,0,0,393.935-6.8a1.665,1.665,0,0,0-1.23.431A1.734,1.734,0,0,0,392.273-5.093Zm6.733,4.368a1.018,1.018,0,0,1,.208-.694.756.756,0,0,1,.6-.236.809.809,0,0,1,.619.236.976.976,0,0,1,.222.694.959.959,0,0,1-.226.684.8.8,0,0,1-.615.239.81.81,0,0,1-.578-.215A.936.936,0,0,1,399.007-.725Zm0-6.036q0-.923.807-.923.841,0,.841.923a.959.959,0,0,1-.226.684.8.8,0,0,1-.615.239.81.81,0,0,1-.578-.215A.936.936,0,0,1,399.007-6.761ZM.574,36.767V35.728H3.931v1.039ZM12.592,40H11.43V31.038H8.265V30.006h7.492v1.032H12.592Zm7.663.137a3.442,3.442,0,0,1-2.622-1.012,3.917,3.917,0,0,1-.96-2.81,4.344,4.344,0,0,1,.892-2.878,2.963,2.963,0,0,1,2.4-1.066,2.825,2.825,0,0,1,2.229.926,3.55,3.55,0,0,1,.82,2.444v.718H17.849a2.97,2.97,0,0,0,.667,2,2.305,2.305,0,0,0,1.781.684,6.035,6.035,0,0,0,2.393-.506v1.012a6.005,6.005,0,0,1-1.138.373A6.4,6.4,0,0,1,20.255,40.137Zm-.308-6.815a1.853,1.853,0,0,0-1.439.588,2.71,2.71,0,0,0-.632,1.627h3.917a2.5,2.5,0,0,0-.479-1.644A1.684,1.684,0,0,0,19.947,33.321Zm6.8,2.844-2.6-3.657h1.292l1.976,2.871,1.969-2.871h1.278l-2.6,3.657L30.8,40H29.511l-2.1-3.035L25.293,40H24.008ZM34.7,39.2a3.707,3.707,0,0,0,.581-.044,3.761,3.761,0,0,0,.444-.092v.868a2.074,2.074,0,0,1-.543.147,4.081,4.081,0,0,1-.646.058q-2.174,0-2.174-2.29V33.39H31.288v-.547l1.073-.472.479-1.6H33.5v1.736H35.67v.882H33.5V37.8a1.517,1.517,0,0,0,.321,1.039A1.118,1.118,0,0,0,34.7,39.2ZM.574,56.767V55.728H3.931v1.039ZM9.516,60V50.006h1.162V60ZM22.8,60V55.126a2.023,2.023,0,0,0-.383-1.343,1.481,1.481,0,0,0-1.189-.448,1.92,1.92,0,0,0-1.565.608,2.891,2.891,0,0,0-.506,1.873V60H18.02V55.126a2.023,2.023,0,0,0-.383-1.343,1.49,1.49,0,0,0-1.2-.448,1.853,1.853,0,0,0-1.562.639,3.459,3.459,0,0,0-.5,2.1V60H13.248V52.508h.923l.185,1.025h.055a2.23,2.23,0,0,1,.906-.854,2.767,2.767,0,0,1,1.309-.308,2.226,2.226,0,0,1,2.3,1.271h.055a2.389,2.389,0,0,1,.971-.93,3.012,3.012,0,0,1,1.449-.342,2.537,2.537,0,0,1,1.9.653,2.921,2.921,0,0,1,.632,2.088V60Zm8.08,0-.226-1.066H30.6a3.153,3.153,0,0,1-1.118.954,3.407,3.407,0,0,1-1.391.25,2.5,2.5,0,0,1-1.747-.574,2.094,2.094,0,0,1-.632-1.634q0-2.27,3.63-2.379l1.271-.041v-.465a1.9,1.9,0,0,0-.379-1.3,1.56,1.56,0,0,0-1.213-.42A4.944,4.944,0,0,0,26.9,53.9l-.349-.868a5.332,5.332,0,0,1,1.213-.472,5.255,5.255,0,0,1,1.323-.171,2.854,2.854,0,0,1,1.986.595,2.482,2.482,0,0,1,.646,1.907V60Zm-2.563-.8a2.3,2.3,0,0,0,1.665-.581,2.15,2.15,0,0,0,.6-1.627v-.677l-1.135.048a4.128,4.128,0,0,0-1.952.42,1.268,1.268,0,0,0-.6,1.159,1.169,1.169,0,0,0,.373.937A1.546,1.546,0,0,0,28.314,59.2Zm11.874-6.692v.718L38.8,53.39a2.437,2.437,0,0,1,.492,1.5,2.215,2.215,0,0,1-.752,1.757,3.033,3.033,0,0,1-2.064.656,3.438,3.438,0,0,1-.629-.055,1.117,1.117,0,0,0-.725.964.49.49,0,0,0,.253.455,1.848,1.848,0,0,0,.868.147H37.57a2.97,2.97,0,0,1,1.87.513,1.781,1.781,0,0,1,.653,1.49,2.127,2.127,0,0,1-1,1.9,5.342,5.342,0,0,1-2.912.653,3.979,3.979,0,0,1-2.266-.547,1.766,1.766,0,0,1-.8-1.545,1.735,1.735,0,0,1,.438-1.183,2.228,2.228,0,0,1,1.23-.677,1.187,1.187,0,0,1-.482-.4,1.067,1.067,0,0,1-.195-.636,1.207,1.207,0,0,1,.219-.718,2.3,2.3,0,0,1,.69-.595,2.024,2.024,0,0,1-.947-.813,2.39,2.39,0,0,1-.366-1.312,2.424,2.424,0,0,1,.738-1.9,3.014,3.014,0,0,1,2.092-.667,3.8,3.8,0,0,1,1.06.137Zm-5.975,8.75a1.017,1.017,0,0,0,.513.923,2.83,2.83,0,0,0,1.47.314,4.1,4.1,0,0,0,2.116-.427A1.308,1.308,0,0,0,39,60.909a.917.917,0,0,0-.376-.844,2.92,2.92,0,0,0-1.415-.236h-1.36a1.792,1.792,0,0,0-1.2.369A1.319,1.319,0,0,0,34.214,61.258Zm.615-6.351a1.525,1.525,0,0,0,.444,1.189,1.774,1.774,0,0,0,1.237.4,1.447,1.447,0,0,0,1.661-1.613A1.489,1.489,0,0,0,36.49,53.2a1.665,1.665,0,0,0-1.23.431A1.734,1.734,0,0,0,34.829,54.907Zm10.063,5.229a3.442,3.442,0,0,1-2.622-1.012,3.917,3.917,0,0,1-.96-2.81,4.344,4.344,0,0,1,.892-2.878,2.963,2.963,0,0,1,2.4-1.066,2.825,2.825,0,0,1,2.229.926,3.55,3.55,0,0,1,.82,2.444v.718H42.485a2.97,2.97,0,0,0,.667,2,2.305,2.305,0,0,0,1.781.684,6.035,6.035,0,0,0,2.393-.506v1.012a6.005,6.005,0,0,1-1.138.373A6.4,6.4,0,0,1,44.892,60.137Zm-.308-6.815a1.853,1.853,0,0,0-1.439.588,2.71,2.71,0,0,0-.632,1.627H46.43a2.5,2.5,0,0,0-.479-1.644A1.684,1.684,0,0,0,44.584,53.321Zm9.83,4.635a1.877,1.877,0,0,1-.779,1.613,3.663,3.663,0,0,1-2.187.567,4.757,4.757,0,0,1-2.324-.472V58.612a5.621,5.621,0,0,0,1.159.431,4.839,4.839,0,0,0,1.193.157,2.705,2.705,0,0,0,1.367-.284.977.977,0,0,0,.1-1.613,5.968,5.968,0,0,0-1.48-.735,8.025,8.025,0,0,1-1.487-.68,2.031,2.031,0,0,1-.656-.66,1.72,1.72,0,0,1-.215-.882,1.681,1.681,0,0,1,.745-1.446,3.472,3.472,0,0,1,2.044-.53,5.98,5.98,0,0,1,2.365.492l-.4.923a5.429,5.429,0,0,0-2.044-.465,2.352,2.352,0,0,0-1.217.253.782.782,0,0,0-.41.7.849.849,0,0,0,.154.513,1.518,1.518,0,0,0,.5.4,11.075,11.075,0,0,0,1.313.554,4.9,4.9,0,0,1,1.8.978A1.724,1.724,0,0,1,54.414,57.956ZM.574,76.767V75.728H3.931v1.039ZM18.19,74.989a5.5,5.5,0,0,1-1.213,3.773A4.266,4.266,0,0,1,13.6,80.137a4.32,4.32,0,0,1-3.408-1.35A5.547,5.547,0,0,1,9,74.976a5.477,5.477,0,0,1,1.2-3.784,4.35,4.35,0,0,1,3.418-1.343,4.257,4.257,0,0,1,3.363,1.367A5.5,5.5,0,0,1,18.19,74.989Zm-7.964,0a4.743,4.743,0,0,0,.865,3.08A3.068,3.068,0,0,0,13.6,79.118a3.039,3.039,0,0,0,2.509-1.046,6,6,0,0,0,0-6.142,3.025,3.025,0,0,0-2.5-1.042,3.084,3.084,0,0,0-2.526,1.049A4.7,4.7,0,0,0,10.227,74.989ZM22.668,79.2a3.707,3.707,0,0,0,.581-.044,3.762,3.762,0,0,0,.444-.092v.868a2.074,2.074,0,0,1-.543.147,4.081,4.081,0,0,1-.646.058q-2.174,0-2.174-2.29V73.39H19.257v-.547l1.073-.472.479-1.6h.656v1.736h2.174v.882H21.465V77.8a1.517,1.517,0,0,0,.321,1.039A1.118,1.118,0,0,0,22.668,79.2Zm7.649.8V75.153a1.955,1.955,0,0,0-.417-1.367,1.7,1.7,0,0,0-1.306-.451,2.139,2.139,0,0,0-1.726.643,3.255,3.255,0,0,0-.543,2.105V80H25.19V69.363h1.135v3.22a7.015,7.015,0,0,1-.055.964h.068a2.314,2.314,0,0,1,.954-.851,3.1,3.1,0,0,1,1.412-.311,2.891,2.891,0,0,1,2.061.653,2.749,2.749,0,0,1,.687,2.075V80Zm6.631.137a3.442,3.442,0,0,1-2.622-1.012,3.917,3.917,0,0,1-.96-2.81,4.344,4.344,0,0,1,.892-2.878,2.963,2.963,0,0,1,2.4-1.066,2.825,2.825,0,0,1,2.229.926,3.55,3.55,0,0,1,.82,2.444v.718H34.542a2.97,2.97,0,0,0,.667,2,2.305,2.305,0,0,0,1.781.684,6.034,6.034,0,0,0,2.393-.506v1.012a6.005,6.005,0,0,1-1.138.373A6.4,6.4,0,0,1,36.948,80.137Zm-.308-6.815a1.853,1.853,0,0,0-1.439.588,2.71,2.71,0,0,0-.632,1.627h3.917a2.5,2.5,0,0,0-.479-1.644A1.684,1.684,0,0,0,36.641,73.321Zm8.415-.95a4.44,4.44,0,0,1,.9.082l-.157,1.053a3.865,3.865,0,0,0-.82-.1,2,2,0,0,0-1.555.738,2.692,2.692,0,0,0-.646,1.839V80H41.638V72.508h.937L42.7,73.9h.055a3.293,3.293,0,0,1,1-1.128A2.262,2.262,0,0,1,45.056,72.371ZM56.089,79h-.062a2.666,2.666,0,0,1-2.352,1.142,2.782,2.782,0,0,1-2.287-1,4.423,4.423,0,0,1-.817-2.857,4.5,4.5,0,0,1,.82-2.878,2.76,2.76,0,0,1,2.283-1.025,2.724,2.724,0,0,1,2.338,1.107H56.1l-.048-.54-.027-.526V69.363h1.135V80h-.923Zm-2.27.191a2.066,2.066,0,0,0,1.685-.632,3.2,3.2,0,0,0,.523-2.041v-.239A3.76,3.76,0,0,0,55.5,74a2.012,2.012,0,0,0-1.692-.68,1.737,1.737,0,0,0-1.528.776,3.858,3.858,0,0,0-.53,2.191,3.7,3.7,0,0,0,.526,2.167A1.783,1.783,0,0,0,53.819,79.187Zm8.914.95a3.442,3.442,0,0,1-2.622-1.012,3.917,3.917,0,0,1-.96-2.81,4.344,4.344,0,0,1,.892-2.878,2.963,2.963,0,0,1,2.4-1.066,2.825,2.825,0,0,1,2.229.926,3.55,3.55,0,0,1,.82,2.444v.718H60.327a2.97,2.97,0,0,0,.667,2,2.305,2.305,0,0,0,1.781.684,6.035,6.035,0,0,0,2.393-.506v1.012a6,6,0,0,1-1.138.373A6.4,6.4,0,0,1,62.733,80.137Zm-.308-6.815a1.853,1.853,0,0,0-1.439.588,2.71,2.71,0,0,0-.632,1.627h3.917a2.5,2.5,0,0,0-.479-1.644A1.684,1.684,0,0,0,62.426,73.321Zm9.83,4.635a1.877,1.877,0,0,1-.779,1.613,3.663,3.663,0,0,1-2.187.567,4.757,4.757,0,0,1-2.324-.472V78.612a5.621,5.621,0,0,0,1.159.431,4.838,4.838,0,0,0,1.193.157,2.705,2.705,0,0,0,1.367-.284.977.977,0,0,0,.1-1.613,5.968,5.968,0,0,0-1.48-.735,8.025,8.025,0,0,1-1.487-.68,2.031,2.031,0,0,1-.656-.66,1.72,1.72,0,0,1-.215-.882,1.681,1.681,0,0,1,.745-1.446,3.472,3.472,0,0,1,2.044-.53,5.98,5.98,0,0,1,2.365.492l-.4.923a5.429,5.429,0,0,0-2.044-.465,2.352,2.352,0,0,0-1.217.253.782.782,0,0,0-.41.7.849.849,0,0,0,.154.513,1.518,1.518,0,0,0,.5.4,11.077,11.077,0,0,0,1.313.554,4.9,4.9,0,0,1,1.8.978A1.724,1.724,0,0,1,72.256,77.956ZM75.236,80H74.1V72.508h1.135Zm-1.23-9.522a.754.754,0,0,1,.191-.571.709.709,0,0,1,.95,0,.74.74,0,0,1,.2.567.752.752,0,0,1-.2.571.694.694,0,0,1-.95,0A.768.768,0,0,1,74.006,70.478Zm9.769,2.03v.718l-1.388.164a2.437,2.437,0,0,1,.492,1.5,2.215,2.215,0,0,1-.752,1.757,3.033,3.033,0,0,1-2.064.656,3.438,3.438,0,0,1-.629-.055,1.117,1.117,0,0,0-.725.964.49.49,0,0,0,.253.455,1.848,1.848,0,0,0,.868.147h1.326a2.97,2.97,0,0,1,1.87.513,1.781,1.781,0,0,1,.653,1.49,2.127,2.127,0,0,1-1,1.9,5.342,5.342,0,0,1-2.912.653,3.978,3.978,0,0,1-2.266-.547,1.766,1.766,0,0,1-.8-1.545,1.735,1.735,0,0,1,.438-1.183,2.228,2.228,0,0,1,1.23-.677,1.187,1.187,0,0,1-.482-.4,1.067,1.067,0,0,1-.195-.636,1.207,1.207,0,0,1,.219-.718,2.3,2.3,0,0,1,.69-.595,2.024,2.024,0,0,1-.947-.813,2.39,2.39,0,0,1-.366-1.312,2.424,2.424,0,0,1,.738-1.9,3.014,3.014,0,0,1,2.092-.667,3.8,3.8,0,0,1,1.06.137ZM77.8,81.258a1.017,1.017,0,0,0,.513.923,2.83,2.83,0,0,0,1.47.314,4.1,4.1,0,0,0,2.116-.427,1.308,1.308,0,0,0,.687-1.159.917.917,0,0,0-.376-.844,2.92,2.92,0,0,0-1.415-.236h-1.36a1.792,1.792,0,0,0-1.2.369A1.319,1.319,0,0,0,77.8,81.258Zm.615-6.351a1.525,1.525,0,0,0,.444,1.189,1.774,1.774,0,0,0,1.237.4,1.447,1.447,0,0,0,1.661-1.613A1.489,1.489,0,0,0,80.076,73.2a1.665,1.665,0,0,0-1.23.431A1.734,1.734,0,0,0,78.415,74.907ZM90.439,80V75.153a1.955,1.955,0,0,0-.417-1.367,1.7,1.7,0,0,0-1.306-.451,2.153,2.153,0,0,0-1.723.636,3.21,3.21,0,0,0-.547,2.1V80H85.313V72.508h.923l.185,1.025h.055a2.317,2.317,0,0,1,.978-.858,3.176,3.176,0,0,1,1.4-.3,2.846,2.846,0,0,1,2.037.653,2.778,2.778,0,0,1,.684,2.088V80Zm10.1.137a3.2,3.2,0,0,1-2.519-1,4.118,4.118,0,0,1-.892-2.833,4.247,4.247,0,0,1,.906-2.905,3.261,3.261,0,0,1,2.581-1.025,5.121,5.121,0,0,1,1.08.116,3.558,3.558,0,0,1,.848.273l-.349.964a5.336,5.336,0,0,0-.82-.25,3.663,3.663,0,0,0-.786-.1q-2.283,0-2.283,2.912a3.467,3.467,0,0,0,.557,2.119,1.938,1.938,0,0,0,1.651.738,5.048,5.048,0,0,0,1.921-.4v1A4.094,4.094,0,0,1,100.536,80.137Zm10.138-3.89a4.133,4.133,0,0,1-.923,2.861,3.25,3.25,0,0,1-2.55,1.029,3.377,3.377,0,0,1-1.784-.472,3.113,3.113,0,0,1-1.2-1.354,4.717,4.717,0,0,1-.424-2.064,4.127,4.127,0,0,1,.916-2.854,3.24,3.24,0,0,1,2.543-1.022,3.169,3.169,0,0,1,2.5,1.046A4.115,4.115,0,0,1,110.674,76.247Zm-5.708,0a3.556,3.556,0,0,0,.574,2.188,2.279,2.279,0,0,0,3.38,0,3.538,3.538,0,0,0,.578-2.191,3.481,3.481,0,0,0-.578-2.17,2.03,2.03,0,0,0-1.706-.742,2,2,0,0,0-1.682.731A3.52,3.52,0,0,0,104.966,76.247ZM122.213,80V75.126a2.023,2.023,0,0,0-.383-1.343,1.481,1.481,0,0,0-1.189-.448,1.92,1.92,0,0,0-1.565.608,2.891,2.891,0,0,0-.506,1.873V80h-1.135V75.126a2.023,2.023,0,0,0-.383-1.343,1.49,1.49,0,0,0-1.2-.448,1.853,1.853,0,0,0-1.562.639,3.459,3.459,0,0,0-.5,2.1V80h-1.135V72.508h.923l.185,1.025h.055a2.23,2.23,0,0,1,.906-.854,2.767,2.767,0,0,1,1.309-.308,2.226,2.226,0,0,1,2.3,1.271h.055a2.389,2.389,0,0,1,.971-.93,3.012,3.012,0,0,1,1.449-.342,2.537,2.537,0,0,1,1.9.653,2.921,2.921,0,0,1,.632,2.088V80Zm6.959.137a3.242,3.242,0,0,1-1.336-.27,2.513,2.513,0,0,1-1.015-.831h-.082a10.049,10.049,0,0,1,.082,1.244v3.083h-1.135V72.508h.923l.157,1.025h.055a2.635,2.635,0,0,1,1.019-.889,3.1,3.1,0,0,1,1.333-.273,2.769,2.769,0,0,1,2.3,1.019,5.424,5.424,0,0,1-.014,5.725A2.774,2.774,0,0,1,129.172,80.137Zm-.164-6.8a2.011,2.011,0,0,0-1.661.636,3.271,3.271,0,0,0-.526,2.023v.253a3.749,3.749,0,0,0,.526,2.259,2,2,0,0,0,1.688.68,1.756,1.756,0,0,0,1.521-.786,3.728,3.728,0,0,0,.55-2.167,3.588,3.588,0,0,0-.55-2.15A1.81,1.81,0,0,0,129.008,73.335Zm11.724,2.912a4.133,4.133,0,0,1-.923,2.861,3.25,3.25,0,0,1-2.55,1.029,3.377,3.377,0,0,1-1.784-.472,3.113,3.113,0,0,1-1.2-1.354,4.717,4.717,0,0,1-.424-2.064,4.127,4.127,0,0,1,.916-2.854,3.24,3.24,0,0,1,2.543-1.022,3.169,3.169,0,0,1,2.5,1.046A4.115,4.115,0,0,1,140.731,76.247Zm-5.708,0a3.556,3.556,0,0,0,.574,2.188,2.279,2.279,0,0,0,3.38,0,3.538,3.538,0,0,0,.578-2.191,3.481,3.481,0,0,0-.578-2.17,2.03,2.03,0,0,0-1.706-.742,2,2,0,0,0-1.682.731A3.52,3.52,0,0,0,135.023,76.247ZM147.848,80V75.153a1.955,1.955,0,0,0-.417-1.367,1.7,1.7,0,0,0-1.306-.451,2.153,2.153,0,0,0-1.723.636,3.21,3.21,0,0,0-.547,2.1V80h-1.135V72.508h.923l.185,1.025h.055a2.317,2.317,0,0,1,.978-.858,3.176,3.176,0,0,1,1.4-.3,2.846,2.846,0,0,1,2.037.653,2.778,2.778,0,0,1,.684,2.088V80Zm6.631.137a3.442,3.442,0,0,1-2.622-1.012,3.917,3.917,0,0,1-.96-2.81,4.344,4.344,0,0,1,.892-2.878,2.963,2.963,0,0,1,2.4-1.066,2.825,2.825,0,0,1,2.229.926,3.55,3.55,0,0,1,.82,2.444v.718h-5.161a2.97,2.97,0,0,0,.667,2,2.305,2.305,0,0,0,1.781.684,6.034,6.034,0,0,0,2.393-.506v1.012a6.005,6.005,0,0,1-1.138.373A6.4,6.4,0,0,1,154.479,80.137Zm-.308-6.815a1.853,1.853,0,0,0-1.439.588,2.71,2.71,0,0,0-.632,1.627h3.917a2.5,2.5,0,0,0-.479-1.644A1.684,1.684,0,0,0,154.171,73.321ZM164.295,80V75.153a1.955,1.955,0,0,0-.417-1.367,1.7,1.7,0,0,0-1.306-.451,2.153,2.153,0,0,0-1.723.636,3.21,3.21,0,0,0-.547,2.1V80h-1.135V72.508h.923l.185,1.025h.055a2.317,2.317,0,0,1,.978-.858,3.176,3.176,0,0,1,1.4-.3,2.846,2.846,0,0,1,2.037.653,2.778,2.778,0,0,1,.684,2.088V80Zm5.886-.8a3.707,3.707,0,0,0,.581-.044,3.762,3.762,0,0,0,.444-.092v.868a2.074,2.074,0,0,1-.543.147,4.081,4.081,0,0,1-.646.058q-2.174,0-2.174-2.29V73.39H166.77v-.547l1.073-.472.479-1.6h.656v1.736h2.174v.882h-2.174V77.8a1.517,1.517,0,0,0,.321,1.039A1.118,1.118,0,0,0,170.181,79.2Zm7.355-1.244a1.877,1.877,0,0,1-.779,1.613,3.663,3.663,0,0,1-2.187.567,4.757,4.757,0,0,1-2.324-.472V78.612a5.621,5.621,0,0,0,1.159.431,4.838,4.838,0,0,0,1.193.157,2.705,2.705,0,0,0,1.367-.284.977.977,0,0,0,.1-1.613,5.968,5.968,0,0,0-1.48-.735,8.025,8.025,0,0,1-1.487-.68,2.031,2.031,0,0,1-.656-.66,1.72,1.72,0,0,1-.215-.882,1.681,1.681,0,0,1,.745-1.446,3.472,3.472,0,0,1,2.044-.53,5.98,5.98,0,0,1,2.365.492l-.4.923a5.429,5.429,0,0,0-2.044-.465,2.352,2.352,0,0,0-1.217.253.782.782,0,0,0-.41.7.849.849,0,0,0,.154.513,1.518,1.518,0,0,0,.5.4,11.076,11.076,0,0,0,1.313.554,4.9,4.9,0,0,1,1.8.978A1.724,1.724,0,0,1,177.536,77.956Z" transform="translate(4480 -272)"/>
    <path id="Path_239" data-name="Path 239" class="cls-10" d="M0,0H47" transform="translate(5238.5 -398.5)"/>
    <path id="Path_222" data-name="Path 222" class="cls-10" d="M0,0H37" transform="translate(5249.5 -232.5)"/>
    <path id="Path_233" data-name="Path 233" class="cls-11" d="M0,0H793" transform="translate(4463.5 -362.5)"/>
    <path id="Path_234" data-name="Path 234" class="cls-12" d="M0,0H7.8" transform="translate(4454 -362.5)"/>
    <path id="Path_240" data-name="Path 240" class="cls-12" d="M0,0H7.3" transform="translate(4454 -426)"/>
    <path id="Path_223" data-name="Path 223" class="cls-12" d="M0,0H6.8" transform="translate(5246.4 -296.7)"/>
    <path id="Path_227" data-name="Path 227" class="cls-12" d="M.2,0,0,322.2" transform="translate(4457.5 -425.7)"/>
    <path id="Path_218" data-name="Path 218" class="cls-12" d="M0,0V130.3" transform="translate(5249.7 -296.7)"/>
    <path id="Path_228" data-name="Path 228" class="cls-13" d="M6.012-2.279a2.1,2.1,0,0,1-.82,1.764A3.557,3.557,0,0,1,2.965.117,5.577,5.577,0,0,1,.621-.275v-.961A6.171,6.171,0,0,0,1.77-.885,6.042,6.042,0,0,0,3-.756a2.483,2.483,0,0,0,1.5-.378A1.24,1.24,0,0,0,5-2.186a1.35,1.35,0,0,0-.179-.729,1.66,1.66,0,0,0-.6-.524,8.361,8.361,0,0,0-1.274-.545A4.068,4.068,0,0,1,1.245-5,2.238,2.238,0,0,1,.732-6.527,1.9,1.9,0,0,1,1.477-8.1a3.092,3.092,0,0,1,1.969-.586,5.8,5.8,0,0,1,2.35.469l-.311.867A5.31,5.31,0,0,0,3.422-7.8a2,2,0,0,0-1.236.34,1.12,1.12,0,0,0-.445.943,1.446,1.446,0,0,0,.164.729,1.545,1.545,0,0,0,.554.521A6.88,6.88,0,0,0,3.65-4.74,4.721,4.721,0,0,1,5.5-3.709,2.028,2.028,0,0,1,6.012-2.279ZM10.33.117A2.95,2.95,0,0,1,8.083-.75,3.357,3.357,0,0,1,7.26-3.158a3.723,3.723,0,0,1,.765-2.467,2.54,2.54,0,0,1,2.054-.914,2.422,2.422,0,0,1,1.91.794,3.043,3.043,0,0,1,.7,2.095v.615H8.268a2.546,2.546,0,0,0,.571,1.717,1.976,1.976,0,0,0,1.526.586,5.172,5.172,0,0,0,2.051-.434V-.3a5.147,5.147,0,0,1-.976.319A5.483,5.483,0,0,1,10.33.117Zm-.264-5.842a1.588,1.588,0,0,0-1.233.5,2.323,2.323,0,0,0-.542,1.395h3.357a2.139,2.139,0,0,0-.41-1.409A1.444,1.444,0,0,0,10.066-5.725ZM16.916.117a2.741,2.741,0,0,1-2.159-.858,3.53,3.53,0,0,1-.765-2.429,3.64,3.64,0,0,1,.776-2.49,2.8,2.8,0,0,1,2.212-.879,4.389,4.389,0,0,1,.926.1,3.05,3.05,0,0,1,.727.234l-.3.826a4.574,4.574,0,0,0-.7-.214,3.139,3.139,0,0,0-.674-.085Q15-5.678,15-3.182a2.972,2.972,0,0,0,.478,1.816,1.661,1.661,0,0,0,1.415.633,4.326,4.326,0,0,0,1.646-.346v.861A3.509,3.509,0,0,1,16.916.117Zm5.221-.8a3.177,3.177,0,0,0,.5-.038A3.224,3.224,0,0,0,23.016-.8v.744a1.778,1.778,0,0,1-.466.126A3.5,3.5,0,0,1,22,.117q-1.863,0-1.863-1.963v-3.82h-.92v-.469l.92-.4.41-1.371h.563v1.488h1.863v.756H21.105v3.779A1.3,1.3,0,0,0,21.381-1,.958.958,0,0,0,22.137-.686ZM25.271,0H24.3V-6.422h.973ZM24.217-8.162a.646.646,0,0,1,.164-.489.573.573,0,0,1,.41-.155.573.573,0,0,1,.4.158.634.634,0,0,1,.17.486.644.644,0,0,1-.17.489.567.567,0,0,1-.4.161.562.562,0,0,1-.41-.161A.658.658,0,0,1,24.217-8.162Zm8.66,4.945a3.543,3.543,0,0,1-.791,2.452A2.786,2.786,0,0,1,29.9.117a2.9,2.9,0,0,1-1.529-.4,2.668,2.668,0,0,1-1.031-1.16,4.043,4.043,0,0,1-.363-1.77,3.537,3.537,0,0,1,.785-2.446,2.777,2.777,0,0,1,2.18-.876,2.717,2.717,0,0,1,2.142.9A3.527,3.527,0,0,1,32.877-3.217Zm-4.893,0a3.048,3.048,0,0,0,.492,1.875A1.708,1.708,0,0,0,29.924-.7a1.72,1.72,0,0,0,1.45-.642,3.033,3.033,0,0,0,.5-1.878,2.984,2.984,0,0,0-.5-1.86,1.74,1.74,0,0,0-1.462-.636,1.712,1.712,0,0,0-1.441.627A3.017,3.017,0,0,0,27.984-3.217ZM38.977,0V-4.154a1.676,1.676,0,0,0-.357-1.172A1.456,1.456,0,0,0,37.5-5.713a1.846,1.846,0,0,0-1.477.545,2.751,2.751,0,0,0-.469,1.8V0h-.973V-6.422h.791l.158.879h.047a1.986,1.986,0,0,1,.838-.735,2.722,2.722,0,0,1,1.2-.261,2.439,2.439,0,0,1,1.746.56,2.381,2.381,0,0,1,.586,1.79V0ZM.48,13.713a9.08,9.08,0,0,1,.454-2.906,7.225,7.225,0,0,1,1.31-2.373h.949a8.261,8.261,0,0,0-1.269,2.484A9.24,9.24,0,0,0,1.5,13.7a8.883,8.883,0,0,0,.434,2.748A8.531,8.531,0,0,0,3.182,18.9H2.244A6.905,6.905,0,0,1,.932,16.572,8.844,8.844,0,0,1,.48,13.713Zm6.814,3.4a2.95,2.95,0,0,1-2.247-.867,3.357,3.357,0,0,1-.823-2.408,3.723,3.723,0,0,1,.765-2.467,2.54,2.54,0,0,1,2.054-.914,2.422,2.422,0,0,1,1.91.794,3.043,3.043,0,0,1,.7,2.095v.615H5.232A2.546,2.546,0,0,0,5.8,15.682a1.976,1.976,0,0,0,1.526.586,5.172,5.172,0,0,0,2.051-.434V16.7a5.147,5.147,0,0,1-.976.319A5.483,5.483,0,0,1,7.295,17.117Zm-.264-5.842a1.588,1.588,0,0,0-1.233.5,2.323,2.323,0,0,0-.542,1.395H8.613a2.139,2.139,0,0,0-.41-1.409A1.444,1.444,0,0,0,7.031,11.275Zm5.83,2.438-2.232-3.135h1.107l1.693,2.461,1.688-2.461h1.1L13.98,13.713,16.33,17h-1.1l-1.8-2.6L11.613,17h-1.1Zm7.729,3.4a2.779,2.779,0,0,1-1.146-.231,2.154,2.154,0,0,1-.87-.712H18.5a8.614,8.614,0,0,1,.07,1.066v2.643H17.6v-9.3h.791l.135.879h.047a2.259,2.259,0,0,1,.873-.762,2.654,2.654,0,0,1,1.143-.234,2.374,2.374,0,0,1,1.972.873,3.844,3.844,0,0,1,.694,2.449,3.821,3.821,0,0,1-.706,2.458A2.378,2.378,0,0,1,20.59,17.117Zm-.141-5.83a1.724,1.724,0,0,0-1.424.545,2.8,2.8,0,0,0-.451,1.734v.217a3.214,3.214,0,0,0,.451,1.937,1.716,1.716,0,0,0,1.447.583,1.5,1.5,0,0,0,1.3-.674,3.2,3.2,0,0,0,.472-1.857,3.075,3.075,0,0,0-.472-1.843A1.551,1.551,0,0,0,20.449,11.287ZM28.9,17l-.193-.914h-.047a2.7,2.7,0,0,1-.958.817,2.92,2.92,0,0,1-1.192.214,2.145,2.145,0,0,1-1.5-.492,1.8,1.8,0,0,1-.542-1.4q0-1.945,3.111-2.039l1.09-.035v-.4a1.628,1.628,0,0,0-.325-1.116,1.337,1.337,0,0,0-1.04-.36,4.238,4.238,0,0,0-1.816.492l-.3-.744a4.571,4.571,0,0,1,1.04-.4,4.5,4.5,0,0,1,1.134-.146,2.446,2.446,0,0,1,1.7.51,2.128,2.128,0,0,1,.554,1.635V17Zm-2.2-.686a1.974,1.974,0,0,0,1.427-.5,1.842,1.842,0,0,0,.519-1.395v-.58l-.973.041a3.538,3.538,0,0,0-1.673.36,1.087,1.087,0,0,0-.513.993,1,1,0,0,0,.319.8A1.326,1.326,0,0,0,26.707,16.314ZM36.023,17V12.846a1.676,1.676,0,0,0-.357-1.172,1.456,1.456,0,0,0-1.119-.387,1.846,1.846,0,0,0-1.477.545,2.751,2.751,0,0,0-.469,1.8V17h-.973V10.578h.791l.158.879h.047a1.986,1.986,0,0,1,.838-.735,2.722,2.722,0,0,1,1.2-.261,2.439,2.439,0,0,1,1.746.56A2.381,2.381,0,0,1,37,12.811V17Zm7.342-.861h-.053a2.285,2.285,0,0,1-2.016.979,2.384,2.384,0,0,1-1.96-.861,3.791,3.791,0,0,1-.7-2.449,3.855,3.855,0,0,1,.7-2.467,2.366,2.366,0,0,1,1.957-.879,2.335,2.335,0,0,1,2,.949h.076l-.041-.463-.023-.451V7.883h.973V17h-.791ZM41.42,16.3a1.771,1.771,0,0,0,1.444-.542,2.739,2.739,0,0,0,.448-1.749v-.205a3.222,3.222,0,0,0-.454-1.948,1.724,1.724,0,0,0-1.45-.583,1.489,1.489,0,0,0-1.31.665,3.307,3.307,0,0,0-.454,1.878,3.17,3.17,0,0,0,.451,1.857A1.528,1.528,0,0,0,41.42,16.3Zm7.641.814a2.95,2.95,0,0,1-2.247-.867,3.357,3.357,0,0,1-.823-2.408,3.723,3.723,0,0,1,.765-2.467,2.54,2.54,0,0,1,2.054-.914,2.422,2.422,0,0,1,1.91.794,3.043,3.043,0,0,1,.7,2.095v.615H47a2.546,2.546,0,0,0,.571,1.717,1.976,1.976,0,0,0,1.526.586,5.172,5.172,0,0,0,2.051-.434V16.7a5.147,5.147,0,0,1-.976.319A5.483,5.483,0,0,1,49.061,17.117ZM48.8,11.275a1.588,1.588,0,0,0-1.233.5,2.323,2.323,0,0,0-.542,1.395h3.357a2.139,2.139,0,0,0-.41-1.409A1.444,1.444,0,0,0,48.8,11.275Zm8.654,4.863H57.4a2.285,2.285,0,0,1-2.016.979,2.384,2.384,0,0,1-1.96-.861,3.791,3.791,0,0,1-.7-2.449,3.855,3.855,0,0,1,.7-2.467,2.366,2.366,0,0,1,1.957-.879,2.335,2.335,0,0,1,2,.949h.076l-.041-.463L57.4,10.5V7.883h.973V17H57.58Zm-1.945.164a1.771,1.771,0,0,0,1.444-.542,2.739,2.739,0,0,0,.448-1.749v-.205a3.222,3.222,0,0,0-.454-1.948,1.724,1.724,0,0,0-1.45-.583,1.489,1.489,0,0,0-1.31.665,3.307,3.307,0,0,0-.454,1.878,3.17,3.17,0,0,0,.451,1.857A1.528,1.528,0,0,0,55.506,16.3Zm6.967-2.59a8.83,8.83,0,0,1-.454,2.871,6.868,6.868,0,0,1-1.31,2.314h-.937a8.44,8.44,0,0,0,1.248-2.446,8.911,8.911,0,0,0,.434-2.751,9.24,9.24,0,0,0-.425-2.783A8.261,8.261,0,0,0,59.76,8.434h.949a7.188,7.188,0,0,1,1.313,2.382A9.123,9.123,0,0,1,62.473,13.713Z" transform="translate(4375.481 -256.873)"/>
    <path id="Path_236" data-name="Path 236" class="cls-13" d="M7.682,0h-1V-4.031H2.174V0h-1V-8.566h1v3.645H6.686V-8.566h1ZM12.6.117A2.95,2.95,0,0,1,10.351-.75a3.357,3.357,0,0,1-.823-2.408,3.723,3.723,0,0,1,.765-2.467,2.54,2.54,0,0,1,2.054-.914,2.422,2.422,0,0,1,1.91.794,3.043,3.043,0,0,1,.7,2.095v.615H10.535a2.546,2.546,0,0,0,.571,1.717,1.976,1.976,0,0,0,1.526.586,5.172,5.172,0,0,0,2.051-.434V-.3a5.147,5.147,0,0,1-.976.319A5.483,5.483,0,0,1,12.6.117Zm-.264-5.842a1.588,1.588,0,0,0-1.233.5,2.323,2.323,0,0,0-.542,1.395h3.357a2.139,2.139,0,0,0-.41-1.409A1.444,1.444,0,0,0,12.334-5.725ZM20.566,0l-.193-.914h-.047a2.7,2.7,0,0,1-.958.817,2.92,2.92,0,0,1-1.192.214,2.145,2.145,0,0,1-1.5-.492,1.8,1.8,0,0,1-.542-1.4q0-1.945,3.111-2.039l1.09-.035v-.4a1.628,1.628,0,0,0-.325-1.116,1.337,1.337,0,0,0-1.04-.36,4.238,4.238,0,0,0-1.816.492l-.3-.744a4.571,4.571,0,0,1,1.04-.4,4.5,4.5,0,0,1,1.134-.146,2.446,2.446,0,0,1,1.7.51,2.128,2.128,0,0,1,.554,1.635V0Zm-2.2-.686a1.974,1.974,0,0,0,1.427-.5,1.842,1.842,0,0,0,.519-1.395v-.58l-.973.041a3.538,3.538,0,0,0-1.673.36,1.087,1.087,0,0,0-.513.993,1,1,0,0,0,.319.8A1.326,1.326,0,0,0,18.369-.686Zm9.293-.176h-.053a2.285,2.285,0,0,1-2.016.979,2.384,2.384,0,0,1-1.96-.861,3.791,3.791,0,0,1-.7-2.449,3.855,3.855,0,0,1,.7-2.467,2.366,2.366,0,0,1,1.957-.879,2.335,2.335,0,0,1,2,.949h.076l-.041-.463L27.609-6.5V-9.117h.973V0h-.791ZM25.717-.7a1.771,1.771,0,0,0,1.444-.542,2.739,2.739,0,0,0,.448-1.749v-.205a3.222,3.222,0,0,0-.454-1.948,1.724,1.724,0,0,0-1.45-.583,1.489,1.489,0,0,0-1.31.665,3.307,3.307,0,0,0-.454,1.878,3.17,3.17,0,0,0,.451,1.857A1.528,1.528,0,0,0,25.717-.7Zm7.641.814A2.95,2.95,0,0,1,31.11-.75a3.357,3.357,0,0,1-.823-2.408,3.723,3.723,0,0,1,.765-2.467,2.54,2.54,0,0,1,2.054-.914,2.422,2.422,0,0,1,1.91.794,3.043,3.043,0,0,1,.7,2.095v.615H31.295a2.546,2.546,0,0,0,.571,1.717,1.976,1.976,0,0,0,1.526.586,5.172,5.172,0,0,0,2.051-.434V-.3a5.147,5.147,0,0,1-.976.319A5.483,5.483,0,0,1,33.357.117Zm-.264-5.842a1.588,1.588,0,0,0-1.233.5,2.323,2.323,0,0,0-.542,1.395h3.357a2.139,2.139,0,0,0-.41-1.409A1.444,1.444,0,0,0,33.094-5.725Zm7.213-.814a3.806,3.806,0,0,1,.768.07l-.135.9a3.313,3.313,0,0,0-.7-.088,1.712,1.712,0,0,0-1.333.633,2.307,2.307,0,0,0-.554,1.576V0h-.973V-6.422h.8l.111,1.189h.047A2.823,2.823,0,0,1,39.2-6.2,1.939,1.939,0,0,1,40.307-6.539Z" transform="translate(4375.846 -386.073)"/>
    <path id="Path_224" data-name="Path 224" class="cls-13" d="M4.846-7.8a2.8,2.8,0,0,0-2.229.94A3.793,3.793,0,0,0,1.8-4.283a3.869,3.869,0,0,0,.788,2.6,2.8,2.8,0,0,0,2.247.917A7.672,7.672,0,0,0,6.879-1.09v.873a6.3,6.3,0,0,1-2.2.334A3.717,3.717,0,0,1,1.761-1.031,4.729,4.729,0,0,1,.732-4.295a5.151,5.151,0,0,1,.5-2.32A3.555,3.555,0,0,1,2.657-8.15a4.327,4.327,0,0,1,2.2-.539A5.309,5.309,0,0,1,7.213-8.2l-.422.855A4.54,4.54,0,0,0,4.846-7.8Zm9.3,4.582a3.543,3.543,0,0,1-.791,2.452,2.786,2.786,0,0,1-2.186.882,2.9,2.9,0,0,1-1.529-.4,2.668,2.668,0,0,1-1.031-1.16,4.043,4.043,0,0,1-.363-1.77,3.537,3.537,0,0,1,.785-2.446,2.777,2.777,0,0,1,2.18-.876,2.717,2.717,0,0,1,2.142.9A3.527,3.527,0,0,1,14.145-3.217Zm-4.893,0a3.048,3.048,0,0,0,.492,1.875A1.708,1.708,0,0,0,11.191-.7a1.72,1.72,0,0,0,1.45-.642,3.033,3.033,0,0,0,.5-1.878,2.984,2.984,0,0,0-.5-1.86,1.74,1.74,0,0,0-1.462-.636,1.712,1.712,0,0,0-1.441.627A3.017,3.017,0,0,0,9.252-3.217ZM20.244,0V-4.154a1.676,1.676,0,0,0-.357-1.172,1.456,1.456,0,0,0-1.119-.387,1.846,1.846,0,0,0-1.477.545,2.751,2.751,0,0,0-.469,1.8V0H15.85V-6.422h.791l.158.879h.047a1.986,1.986,0,0,1,.838-.735,2.722,2.722,0,0,1,1.2-.261,2.439,2.439,0,0,1,1.746.56,2.381,2.381,0,0,1,.586,1.79V0Zm5.045-.686a3.177,3.177,0,0,0,.5-.038A3.224,3.224,0,0,0,26.168-.8v.744A1.778,1.778,0,0,1,25.7.067a3.5,3.5,0,0,1-.554.05q-1.863,0-1.863-1.963v-3.82h-.92v-.469l.92-.4L23.7-7.91h.563v1.488h1.863v.756H24.258v3.779A1.3,1.3,0,0,0,24.533-1,.958.958,0,0,0,25.289-.686Zm4.875.8A2.95,2.95,0,0,1,27.917-.75a3.357,3.357,0,0,1-.823-2.408,3.723,3.723,0,0,1,.765-2.467,2.54,2.54,0,0,1,2.054-.914,2.422,2.422,0,0,1,1.91.794,3.043,3.043,0,0,1,.7,2.095v.615H28.1a2.546,2.546,0,0,0,.571,1.717A1.976,1.976,0,0,0,30.2-.732a5.172,5.172,0,0,0,2.051-.434V-.3a5.147,5.147,0,0,1-.976.319A5.483,5.483,0,0,1,30.164.117ZM29.9-5.725a1.588,1.588,0,0,0-1.233.5,2.323,2.323,0,0,0-.542,1.395h3.357a2.139,2.139,0,0,0-.41-1.409A1.444,1.444,0,0,0,29.9-5.725ZM38.578,0V-4.154a1.676,1.676,0,0,0-.357-1.172A1.456,1.456,0,0,0,37.1-5.713a1.846,1.846,0,0,0-1.477.545,2.751,2.751,0,0,0-.469,1.8V0h-.973V-6.422h.791l.158.879h.047a1.986,1.986,0,0,1,.838-.735,2.722,2.722,0,0,1,1.2-.261,2.439,2.439,0,0,1,1.746.56,2.381,2.381,0,0,1,.586,1.79V0Zm5.045-.686a3.177,3.177,0,0,0,.5-.038A3.224,3.224,0,0,0,44.5-.8v.744a1.778,1.778,0,0,1-.466.126,3.5,3.5,0,0,1-.554.05q-1.863,0-1.863-1.963v-3.82H40.7v-.469l.92-.4.41-1.371h.563v1.488h1.863v.756H42.592v3.779A1.3,1.3,0,0,0,42.867-1,.958.958,0,0,0,43.623-.686ZM52.852,0l-.193-.914h-.047a2.7,2.7,0,0,1-.958.817,2.92,2.92,0,0,1-1.192.214,2.145,2.145,0,0,1-1.5-.492,1.8,1.8,0,0,1-.542-1.4q0-1.945,3.111-2.039l1.09-.035v-.4A1.628,1.628,0,0,0,52.3-5.364a1.337,1.337,0,0,0-1.04-.36,4.238,4.238,0,0,0-1.816.492l-.3-.744a4.571,4.571,0,0,1,1.04-.4,4.5,4.5,0,0,1,1.134-.146,2.446,2.446,0,0,1,1.7.51,2.128,2.128,0,0,1,.554,1.635V0Zm-2.2-.686a1.974,1.974,0,0,0,1.427-.5A1.842,1.842,0,0,0,52.6-2.578v-.58l-.973.041a3.538,3.538,0,0,0-1.673.36,1.087,1.087,0,0,0-.513.993,1,1,0,0,0,.319.8A1.326,1.326,0,0,0,50.654-.686Zm7.852-5.854a3.806,3.806,0,0,1,.768.07l-.135.9a3.313,3.313,0,0,0-.7-.088,1.712,1.712,0,0,0-1.333.633,2.307,2.307,0,0,0-.554,1.576V0h-.973V-6.422h.8l.111,1.189h.047A2.823,2.823,0,0,1,57.4-6.2,1.939,1.939,0,0,1,58.506-6.539ZM63.188.117A2.95,2.95,0,0,1,60.94-.75a3.357,3.357,0,0,1-.823-2.408,3.723,3.723,0,0,1,.765-2.467,2.54,2.54,0,0,1,2.054-.914,2.422,2.422,0,0,1,1.91.794,3.043,3.043,0,0,1,.7,2.095v.615H61.125A2.546,2.546,0,0,0,61.7-1.318a1.976,1.976,0,0,0,1.526.586,5.172,5.172,0,0,0,2.051-.434V-.3A5.147,5.147,0,0,1,64.3.021,5.483,5.483,0,0,1,63.188.117Zm-.264-5.842a1.588,1.588,0,0,0-1.233.5,2.323,2.323,0,0,0-.542,1.395h3.357a2.139,2.139,0,0,0-.41-1.409A1.444,1.444,0,0,0,62.924-5.725ZM71.156,0l-.193-.914h-.047a2.7,2.7,0,0,1-.958.817,2.92,2.92,0,0,1-1.192.214,2.145,2.145,0,0,1-1.5-.492,1.8,1.8,0,0,1-.542-1.4q0-1.945,3.111-2.039l1.09-.035v-.4A1.628,1.628,0,0,0,70.6-5.364a1.337,1.337,0,0,0-1.04-.36,4.238,4.238,0,0,0-1.816.492l-.3-.744a4.571,4.571,0,0,1,1.04-.4,4.5,4.5,0,0,1,1.134-.146,2.446,2.446,0,0,1,1.7.51,2.128,2.128,0,0,1,.554,1.635V0Zm-2.2-.686a1.974,1.974,0,0,0,1.427-.5A1.842,1.842,0,0,0,70.9-2.578v-.58l-.973.041a3.538,3.538,0,0,0-1.673.36,1.087,1.087,0,0,0-.513.993,1,1,0,0,0,.319.8A1.326,1.326,0,0,0,68.959-.686Z" transform="translate(5316.846 -228.073)"/>
    <path id="Path_217" data-name="Path 217" class="cls-3" d="M2,0H791.009a2,2,0,0,1,2,2V64H0V2A2,2,0,0,1,2,0Z" transform="translate(4460.925 -168)"/>
    <g id="Symbol_56" data-name="Symbol 56" transform="translate(3989 -329)">
      <path id="Path_23-3" data-name="Path 23" class="cls-6" d="M1.821.321,6,4.5,10.179.321a1.036,1.036,0,0,1,1.5,0h0a1.036,1.036,0,0,1,0,1.5L6.536,6.964a.716.716,0,0,1-1.071,0L.321,1.821a1.036,1.036,0,0,1,0-1.5h0A1.036,1.036,0,0,1,1.821.321Z" transform="translate(1229 188)"/>
      <rect id="Rectangle_52-3" data-name="Rectangle 52" class="cls-5" width="24" height="24" transform="translate(1223 180)"/>
    </g>
    <path id="Path_225" data-name="Path 225" class="cls-9" d="M10.516,0H8.641V-5.148H3.375V0H1.508V-11.422H3.375V-6.75H8.641v-4.672h1.875ZM17.1.156A4.18,4.18,0,0,1,13.949-1.02a4.463,4.463,0,0,1-1.137-3.238,4.9,4.9,0,0,1,1.055-3.328,3.643,3.643,0,0,1,2.9-1.211,3.561,3.561,0,0,1,2.7,1.039A3.97,3.97,0,0,1,20.461-4.9v.992H14.7a2.838,2.838,0,0,0,.68,1.934,2.367,2.367,0,0,0,1.8.676,6.662,6.662,0,0,0,1.426-.145,7.474,7.474,0,0,0,1.418-.48V-.43a5.637,5.637,0,0,1-1.359.453A8.336,8.336,0,0,1,17.1.156Zm-.336-7.562a1.845,1.845,0,0,0-1.4.555,2.644,2.644,0,0,0-.629,1.617h3.922a2.392,2.392,0,0,0-.516-1.621A1.764,1.764,0,0,0,16.766-7.406ZM27.953,0l-.367-1.2h-.062A3.54,3.54,0,0,1,26.266-.129a3.978,3.978,0,0,1-1.625.285,2.75,2.75,0,0,1-1.988-.687,2.573,2.573,0,0,1-.715-1.945,2.284,2.284,0,0,1,.992-2.016,5.721,5.721,0,0,1,3.023-.742l1.492-.047v-.461a1.747,1.747,0,0,0-.387-1.238,1.577,1.577,0,0,0-1.2-.41,4.147,4.147,0,0,0-1.273.2,9.61,9.61,0,0,0-1.172.461L22.82-8.047a6.39,6.39,0,0,1,1.539-.559A7.083,7.083,0,0,1,25.938-8.8a3.738,3.738,0,0,1,2.488.719,2.814,2.814,0,0,1,.84,2.258V0ZM25.219-1.25a2.274,2.274,0,0,0,1.605-.559,2.025,2.025,0,0,0,.605-1.566v-.75l-1.109.047a3.8,3.8,0,0,0-1.887.434,1.317,1.317,0,0,0-.59,1.184,1.155,1.155,0,0,0,.344.895A1.477,1.477,0,0,0,25.219-1.25ZM34.742.156a3.01,3.01,0,0,1-2.523-1.172A5.267,5.267,0,0,1,31.313-4.3a5.284,5.284,0,0,1,.918-3.309A3.038,3.038,0,0,1,34.773-8.8a2.979,2.979,0,0,1,2.594,1.258h.094a11.005,11.005,0,0,1-.133-1.469v-3.148h1.844V0H37.734l-.32-1.133h-.086A2.935,2.935,0,0,1,34.742.156Zm.492-1.484a2,2,0,0,0,1.648-.637,3.352,3.352,0,0,0,.531-2.066v-.258a3.873,3.873,0,0,0-.531-2.32A1.971,1.971,0,0,0,35.219-7.3a1.688,1.688,0,0,0-1.492.785A4.024,4.024,0,0,0,33.2-4.273a3.923,3.923,0,0,0,.508,2.191A1.714,1.714,0,0,0,35.234-1.328ZM45.57.156A4.18,4.18,0,0,1,42.418-1.02a4.463,4.463,0,0,1-1.137-3.238,4.9,4.9,0,0,1,1.055-3.328,3.643,3.643,0,0,1,2.9-1.211,3.561,3.561,0,0,1,2.7,1.039A3.97,3.97,0,0,1,48.93-4.9v.992H43.172a2.838,2.838,0,0,0,.68,1.934,2.367,2.367,0,0,0,1.8.676,6.662,6.662,0,0,0,1.426-.145,7.474,7.474,0,0,0,1.418-.48V-.43a5.637,5.637,0,0,1-1.359.453A8.336,8.336,0,0,1,45.57.156Zm-.336-7.562a1.845,1.845,0,0,0-1.4.555A2.643,2.643,0,0,0,43.2-5.234h3.922a2.392,2.392,0,0,0-.516-1.621A1.764,1.764,0,0,0,45.234-7.406ZM55.4-8.8a4.42,4.42,0,0,1,.914.078l-.18,1.711A3.47,3.47,0,0,0,55.32-7.1a2.351,2.351,0,0,0-1.785.719,2.6,2.6,0,0,0-.684,1.867V0H51.016V-8.641h1.438L52.7-7.117h.094A3.423,3.423,0,0,1,53.91-8.344,2.665,2.665,0,0,1,55.4-8.8ZM63.906,0H62.07V-12.156h1.836Zm8.031,0L71.57-1.2h-.062A3.54,3.54,0,0,1,70.25-.129a3.978,3.978,0,0,1-1.625.285,2.75,2.75,0,0,1-1.988-.687,2.573,2.573,0,0,1-.715-1.945,2.284,2.284,0,0,1,.992-2.016,5.721,5.721,0,0,1,3.023-.742l1.492-.047v-.461a1.747,1.747,0,0,0-.387-1.238,1.577,1.577,0,0,0-1.2-.41,4.147,4.147,0,0,0-1.273.2,9.61,9.61,0,0,0-1.172.461L66.8-8.047a6.39,6.39,0,0,1,1.539-.559A7.083,7.083,0,0,1,69.922-8.8a3.738,3.738,0,0,1,2.488.719,2.814,2.814,0,0,1,.84,2.258V0ZM69.2-1.25a2.274,2.274,0,0,0,1.605-.559,2.025,2.025,0,0,0,.605-1.566v-.75L70.3-4.078a3.8,3.8,0,0,0-1.887.434,1.317,1.317,0,0,0-.59,1.184,1.155,1.155,0,0,0,.344.895A1.477,1.477,0,0,0,69.2-1.25ZM80.227-8.8a3,3,0,0,1,2.52,1.172,5.284,5.284,0,0,1,.9,3.289,5.3,5.3,0,0,1-.914,3.309A3.028,3.028,0,0,1,80.2.156a3.026,3.026,0,0,1-2.547-1.18h-.125L77.188,0H75.813V-12.156h1.836v2.891q0,.32-.031.953t-.047.8h.078A2.916,2.916,0,0,1,80.227-8.8ZM79.75-7.3a1.866,1.866,0,0,0-1.6.652,3.8,3.8,0,0,0-.5,2.184v.125a4.041,4.041,0,0,0,.5,2.285,1.86,1.86,0,0,0,1.633.707,1.655,1.655,0,0,0,1.48-.773,4.1,4.1,0,0,0,.5-2.234Q81.766-7.3,79.75-7.3Zm9.8,7.453A4.18,4.18,0,0,1,86.4-1.02a4.463,4.463,0,0,1-1.137-3.238A4.9,4.9,0,0,1,86.32-7.586a3.643,3.643,0,0,1,2.9-1.211,3.561,3.561,0,0,1,2.7,1.039A3.97,3.97,0,0,1,92.914-4.9v.992H87.156a2.838,2.838,0,0,0,.68,1.934,2.367,2.367,0,0,0,1.8.676,6.662,6.662,0,0,0,1.426-.145,7.474,7.474,0,0,0,1.418-.48V-.43a5.637,5.637,0,0,1-1.359.453A8.336,8.336,0,0,1,89.555.156Zm-.336-7.562a1.845,1.845,0,0,0-1.4.555,2.644,2.644,0,0,0-.629,1.617h3.922a2.392,2.392,0,0,0-.516-1.621A1.764,1.764,0,0,0,89.219-7.406ZM96.836,0H95V-12.156h1.836Z" transform="translate(4480 -129)"/>
    <path id="Path_219" data-name="Path 219" class="cls-11" d="M0,0H793" transform="translate(4461.5 -166.5)"/>
    <path id="Path_229" data-name="Path 229" class="cls-12" d="M0,0H6.8" transform="translate(4454.4 -166.7)"/>
    <path id="Path_220" data-name="Path 220" class="cls-12" d="M0,0H6.8" transform="translate(5246.4 -166.7)"/>
    <path id="Path_230" data-name="Path 230" class="cls-13" d="M6.012-2.279a2.1,2.1,0,0,1-.82,1.764A3.557,3.557,0,0,1,2.965.117,5.577,5.577,0,0,1,.621-.275v-.961A6.171,6.171,0,0,0,1.77-.885,6.042,6.042,0,0,0,3-.756a2.483,2.483,0,0,0,1.5-.378A1.24,1.24,0,0,0,5-2.186a1.35,1.35,0,0,0-.179-.729,1.66,1.66,0,0,0-.6-.524,8.361,8.361,0,0,0-1.274-.545A4.068,4.068,0,0,1,1.245-5,2.238,2.238,0,0,1,.732-6.527,1.9,1.9,0,0,1,1.477-8.1a3.092,3.092,0,0,1,1.969-.586,5.8,5.8,0,0,1,2.35.469l-.311.867A5.31,5.31,0,0,0,3.422-7.8a2,2,0,0,0-1.236.34,1.12,1.12,0,0,0-.445.943,1.446,1.446,0,0,0,.164.729,1.545,1.545,0,0,0,.554.521A6.88,6.88,0,0,0,3.65-4.74,4.721,4.721,0,0,1,5.5-3.709,2.028,2.028,0,0,1,6.012-2.279ZM10.33.117A2.95,2.95,0,0,1,8.083-.75,3.357,3.357,0,0,1,7.26-3.158a3.723,3.723,0,0,1,.765-2.467,2.54,2.54,0,0,1,2.054-.914,2.422,2.422,0,0,1,1.91.794,3.043,3.043,0,0,1,.7,2.095v.615H8.268a2.546,2.546,0,0,0,.571,1.717,1.976,1.976,0,0,0,1.526.586,5.172,5.172,0,0,0,2.051-.434V-.3a5.147,5.147,0,0,1-.976.319A5.483,5.483,0,0,1,10.33.117Zm-.264-5.842a1.588,1.588,0,0,0-1.233.5,2.323,2.323,0,0,0-.542,1.395h3.357a2.139,2.139,0,0,0-.41-1.409A1.444,1.444,0,0,0,10.066-5.725ZM16.916.117a2.741,2.741,0,0,1-2.159-.858,3.53,3.53,0,0,1-.765-2.429,3.64,3.64,0,0,1,.776-2.49,2.8,2.8,0,0,1,2.212-.879,4.389,4.389,0,0,1,.926.1,3.05,3.05,0,0,1,.727.234l-.3.826a4.574,4.574,0,0,0-.7-.214,3.139,3.139,0,0,0-.674-.085Q15-5.678,15-3.182a2.972,2.972,0,0,0,.478,1.816,1.661,1.661,0,0,0,1.415.633,4.326,4.326,0,0,0,1.646-.346v.861A3.509,3.509,0,0,1,16.916.117Zm5.221-.8a3.177,3.177,0,0,0,.5-.038A3.224,3.224,0,0,0,23.016-.8v.744a1.778,1.778,0,0,1-.466.126A3.5,3.5,0,0,1,22,.117q-1.863,0-1.863-1.963v-3.82h-.92v-.469l.92-.4.41-1.371h.563v1.488h1.863v.756H21.105v3.779A1.3,1.3,0,0,0,21.381-1,.958.958,0,0,0,22.137-.686ZM25.271,0H24.3V-6.422h.973ZM24.217-8.162a.646.646,0,0,1,.164-.489.573.573,0,0,1,.41-.155.573.573,0,0,1,.4.158.634.634,0,0,1,.17.486.644.644,0,0,1-.17.489.567.567,0,0,1-.4.161.562.562,0,0,1-.41-.161A.658.658,0,0,1,24.217-8.162Zm8.66,4.945a3.543,3.543,0,0,1-.791,2.452A2.786,2.786,0,0,1,29.9.117a2.9,2.9,0,0,1-1.529-.4,2.668,2.668,0,0,1-1.031-1.16,4.043,4.043,0,0,1-.363-1.77,3.537,3.537,0,0,1,.785-2.446,2.777,2.777,0,0,1,2.18-.876,2.717,2.717,0,0,1,2.142.9A3.527,3.527,0,0,1,32.877-3.217Zm-4.893,0a3.048,3.048,0,0,0,.492,1.875A1.708,1.708,0,0,0,29.924-.7a1.72,1.72,0,0,0,1.45-.642,3.033,3.033,0,0,0,.5-1.878,2.984,2.984,0,0,0-.5-1.86,1.74,1.74,0,0,0-1.462-.636,1.712,1.712,0,0,0-1.441.627A3.017,3.017,0,0,0,27.984-3.217ZM38.977,0V-4.154a1.676,1.676,0,0,0-.357-1.172A1.456,1.456,0,0,0,37.5-5.713a1.846,1.846,0,0,0-1.477.545,2.751,2.751,0,0,0-.469,1.8V0h-.973V-6.422h.791l.158.879h.047a1.986,1.986,0,0,1,.838-.735,2.722,2.722,0,0,1,1.2-.261,2.439,2.439,0,0,1,1.746.56,2.381,2.381,0,0,1,.586,1.79V0ZM.48,13.713a9.08,9.08,0,0,1,.454-2.906,7.225,7.225,0,0,1,1.31-2.373h.949a8.261,8.261,0,0,0-1.269,2.484A9.24,9.24,0,0,0,1.5,13.7a8.883,8.883,0,0,0,.434,2.748A8.531,8.531,0,0,0,3.182,18.9H2.244A6.905,6.905,0,0,1,.932,16.572,8.844,8.844,0,0,1,.48,13.713Zm6.668,3.4a2.741,2.741,0,0,1-2.159-.858,3.53,3.53,0,0,1-.765-2.429A3.64,3.64,0,0,1,5,11.34a2.8,2.8,0,0,1,2.212-.879,4.389,4.389,0,0,1,.926.1,3.05,3.05,0,0,1,.727.234l-.3.826a4.574,4.574,0,0,0-.7-.214,3.139,3.139,0,0,0-.674-.085q-1.957,0-1.957,2.5a2.972,2.972,0,0,0,.478,1.816,1.661,1.661,0,0,0,1.415.633,4.326,4.326,0,0,0,1.646-.346v.861A3.509,3.509,0,0,1,7.148,17.117Zm8.689-3.334a3.543,3.543,0,0,1-.791,2.452,2.786,2.786,0,0,1-2.186.882,2.9,2.9,0,0,1-1.529-.4,2.668,2.668,0,0,1-1.031-1.16,4.043,4.043,0,0,1-.363-1.77,3.537,3.537,0,0,1,.785-2.446,2.777,2.777,0,0,1,2.18-.876,2.717,2.717,0,0,1,2.142.9A3.527,3.527,0,0,1,15.838,13.783Zm-4.893,0a3.048,3.048,0,0,0,.492,1.875,1.708,1.708,0,0,0,1.447.645,1.72,1.72,0,0,0,1.45-.642,3.033,3.033,0,0,0,.5-1.878,2.984,2.984,0,0,0-.5-1.86,1.74,1.74,0,0,0-1.462-.636,1.712,1.712,0,0,0-1.441.627A3.017,3.017,0,0,0,10.945,13.783ZM18.516,17h-.973V7.883h.973Zm3.035,0h-.973V7.883h.973Zm6.012,0-.193-.914h-.047a2.7,2.7,0,0,1-.958.817,2.92,2.92,0,0,1-1.192.214,2.145,2.145,0,0,1-1.5-.492,1.8,1.8,0,0,1-.542-1.4q0-1.945,3.111-2.039l1.09-.035v-.4a1.628,1.628,0,0,0-.325-1.116,1.337,1.337,0,0,0-1.04-.36,4.238,4.238,0,0,0-1.816.492l-.3-.744a4.571,4.571,0,0,1,1.04-.4,4.5,4.5,0,0,1,1.134-.146,2.446,2.446,0,0,1,1.7.51,2.128,2.128,0,0,1,.554,1.635V17Zm-2.2-.686a1.974,1.974,0,0,0,1.427-.5,1.842,1.842,0,0,0,.519-1.395v-.58l-.973.041a3.538,3.538,0,0,0-1.673.36,1.087,1.087,0,0,0-.513.993,1,1,0,0,0,.319.8A1.326,1.326,0,0,0,25.365,16.314Zm7.91.8a2.779,2.779,0,0,1-1.146-.231,2.154,2.154,0,0,1-.87-.712h-.07a8.614,8.614,0,0,1,.07,1.066v2.643h-.973v-9.3h.791l.135.879h.047a2.259,2.259,0,0,1,.873-.762,2.654,2.654,0,0,1,1.143-.234,2.374,2.374,0,0,1,1.972.873,3.844,3.844,0,0,1,.694,2.449,3.821,3.821,0,0,1-.706,2.458A2.378,2.378,0,0,1,33.275,17.117Zm-.141-5.83a1.724,1.724,0,0,0-1.424.545,2.8,2.8,0,0,0-.451,1.734v.217a3.214,3.214,0,0,0,.451,1.937,1.716,1.716,0,0,0,1.447.583,1.5,1.5,0,0,0,1.3-.674,3.2,3.2,0,0,0,.472-1.857,3.075,3.075,0,0,0-.472-1.843A1.551,1.551,0,0,0,33.135,11.287Zm8.648,3.961a1.609,1.609,0,0,1-.668,1.383,3.14,3.14,0,0,1-1.875.486,4.077,4.077,0,0,1-1.992-.4v-.9a4.818,4.818,0,0,0,.993.369,4.147,4.147,0,0,0,1.022.135,2.319,2.319,0,0,0,1.172-.243.837.837,0,0,0,.085-1.383,5.115,5.115,0,0,0-1.269-.63,6.879,6.879,0,0,1-1.274-.583,1.741,1.741,0,0,1-.562-.565,1.475,1.475,0,0,1-.185-.756,1.441,1.441,0,0,1,.639-1.239,2.976,2.976,0,0,1,1.752-.454,5.126,5.126,0,0,1,2.027.422l-.346.791a4.654,4.654,0,0,0-1.752-.4,2.016,2.016,0,0,0-1.043.217.67.67,0,0,0-.352.6.728.728,0,0,0,.132.439,1.3,1.3,0,0,0,.425.346,9.493,9.493,0,0,0,1.125.475,4.2,4.2,0,0,1,1.544.838A1.478,1.478,0,0,1,41.783,15.248Zm4.295,1.869a2.95,2.95,0,0,1-2.247-.867,3.357,3.357,0,0,1-.823-2.408,3.723,3.723,0,0,1,.765-2.467,2.54,2.54,0,0,1,2.054-.914,2.422,2.422,0,0,1,1.91.794,3.043,3.043,0,0,1,.7,2.095v.615H44.016a2.546,2.546,0,0,0,.571,1.717,1.976,1.976,0,0,0,1.526.586,5.172,5.172,0,0,0,2.051-.434V16.7a5.147,5.147,0,0,1-.976.319A5.483,5.483,0,0,1,46.078,17.117Zm-.264-5.842a1.588,1.588,0,0,0-1.233.5,2.323,2.323,0,0,0-.542,1.395H47.4a2.139,2.139,0,0,0-.41-1.409A1.444,1.444,0,0,0,45.814,11.275Zm8.654,4.863h-.053a2.285,2.285,0,0,1-2.016.979,2.384,2.384,0,0,1-1.96-.861,3.791,3.791,0,0,1-.7-2.449,3.855,3.855,0,0,1,.7-2.467,2.366,2.366,0,0,1,1.957-.879,2.335,2.335,0,0,1,2,.949h.076l-.041-.463-.023-.451V7.883h.973V17H54.6Zm-1.945.164a1.771,1.771,0,0,0,1.444-.542,2.739,2.739,0,0,0,.448-1.749v-.205a3.222,3.222,0,0,0-.454-1.948,1.724,1.724,0,0,0-1.45-.583,1.489,1.489,0,0,0-1.31.665,3.307,3.307,0,0,0-.454,1.878,3.17,3.17,0,0,0,.451,1.857A1.528,1.528,0,0,0,52.523,16.3Zm6.967-2.59a8.83,8.83,0,0,1-.454,2.871,6.868,6.868,0,0,1-1.31,2.314h-.937a8.44,8.44,0,0,0,1.248-2.446,8.911,8.911,0,0,0,.434-2.751,9.24,9.24,0,0,0-.425-2.783,8.261,8.261,0,0,0-1.269-2.484h.949a7.188,7.188,0,0,1,1.313,2.382A9.123,9.123,0,0,1,59.49,13.713Z" transform="translate(4375.481 -140.873)"/>
    <path id="Path_231" data-name="Path 231" class="cls-12" d="M0,0H6.8" transform="translate(4454.4 -103.7)"/>
  </g>
</svg>
