<svg xmlns="http://www.w3.org/2000/svg" xmlns:xlink="http://www.w3.org/1999/xlink" width="60" height="83" viewBox="0 0 60 83">
  <defs>
    <filter id="Path_7456" x="25.5" y="7.5" width="33" height="33" filterUnits="userSpaceOnUse">
      <feOffset dy="2" input="SourceAlpha"/>
      <feGaussianBlur stdDeviation="1.5" result="blur"/>
      <feFlood flood-opacity="0.102"/>
      <feComposite operator="in" in2="blur"/>
      <feComposite in="SourceGraphic"/>
    </filter>
    <filter id="Path_8384" x="1.5" y="47.5" width="33" height="33" filterUnits="userSpaceOnUse">
      <feOffset dy="2" input="SourceAlpha"/>
      <feGaussianBlur stdDeviation="1.5" result="blur-2"/>
      <feFlood flood-opacity="0.102"/>
      <feComposite operator="in" in2="blur-2"/>
      <feComposite in="SourceGraphic"/>
    </filter>
    <clipPath id="clip-toggles-touchtargets">
      <rect width="60" height="83"/>
    </clipPath>
  </defs>
  <g id="toggles-touchtargets" clip-path="url(#clip-toggles-touchtargets)">
    <g id="Group_13282" data-name="Group 13282" transform="translate(0 4)">
      <rect id="Rectangle_6844" data-name="Rectangle 6844" width="60" height="36" rx="18" fill="#c6318c" opacity="0.5"/>
      <rect id="Rectangle_6838" data-name="Rectangle 6838" width="48" height="14" rx="7" transform="translate(6 11)" fill="#5fb53b"/>
      <g transform="matrix(1, 0, 0, 1, 0, -4)" filter="url(#Path_7456)">
        <g id="Path_7456-2" data-name="Path 7456" transform="translate(30 10)" fill="#fff">
          <path d="M 12 23.75 C 8.861459732055664 23.75 5.91077995300293 22.52779006958008 3.691489934921265 20.30850982666016 C 1.472210049629211 18.08922004699707 0.25 15.13854026794434 0.25 12 C 0.25 8.861459732055664 1.472210049629211 5.91077995300293 3.691489934921265 3.691489934921265 C 5.91077995300293 1.472210049629211 8.861459732055664 0.25 12 0.25 C 15.13854026794434 0.25 18.08922004699707 1.472210049629211 20.30850982666016 3.691489934921265 C 22.52779006958008 5.91077995300293 23.75 8.861459732055664 23.75 12 C 23.75 15.13854026794434 22.52779006958008 18.08922004699707 20.30850982666016 20.30850982666016 C 18.08922004699707 22.52779006958008 15.13854026794434 23.75 12 23.75 Z" stroke="none"/>
          <path d="M 12 0.5 C 8.928239822387695 0.5 6.04033088684082 1.696210861206055 3.868270874023438 3.868270874023438 C 1.696210861206055 6.04033088684082 0.5 8.928239822387695 0.5 12 C 0.5 15.0717601776123 1.696210861206055 17.95967102050781 3.868270874023438 20.13172912597656 C 6.04033088684082 22.30378913879395 8.928239822387695 23.5 12 23.5 C 15.0717601776123 23.5 17.95967102050781 22.30378913879395 20.13172912597656 20.13172912597656 C 22.30378913879395 17.95967102050781 23.5 15.0717601776123 23.5 12 C 23.5 8.928239822387695 22.30378913879395 6.04033088684082 20.13172912597656 3.868270874023438 C 17.95967102050781 1.696210861206055 15.0717601776123 0.5 12 0.5 M 12 0 C 18.62742042541504 0 24 5.372579574584961 24 12 C 24 18.62742042541504 18.62742042541504 24 12 24 C 5.372579574584961 24 0 18.62742042541504 0 12 C 0 5.372579574584961 5.372579574584961 0 12 0 Z" stroke="none" fill="#e6e6ea"/>
        </g>
      </g>
    </g>
    <g id="Group_13283" data-name="Group 13283" transform="translate(0 8)">
      <rect id="Rectangle_6842" data-name="Rectangle 6842" width="60" height="36" rx="18" transform="translate(0 36)" fill="#c6318c" opacity="0.5"/>
      <g id="Group_13277" data-name="Group 13277" transform="translate(-298 -411)">
        <rect id="Rectangle_6839" data-name="Rectangle 6839" width="48" height="14" rx="7" transform="translate(304 458)" fill="#9494a4"/>
        <g transform="matrix(1, 0, 0, 1, 298, 403)" filter="url(#Path_8384)">
          <g id="Path_8384-2" data-name="Path 8384" transform="translate(6 50)" fill="#fff">
            <path d="M 12 23.75 C 8.861459732055664 23.75 5.91077995300293 22.52779006958008 3.691489934921265 20.30850982666016 C 1.472210049629211 18.08922004699707 0.25 15.13854026794434 0.25 12 C 0.25 8.861459732055664 1.472210049629211 5.91077995300293 3.691489934921265 3.691489934921265 C 5.91077995300293 1.472210049629211 8.861459732055664 0.25 12 0.25 C 15.13854026794434 0.25 18.08922004699707 1.472210049629211 20.30850982666016 3.691489934921265 C 22.52779006958008 5.91077995300293 23.75 8.861459732055664 23.75 12 C 23.75 15.13854026794434 22.52779006958008 18.08922004699707 20.30850982666016 20.30850982666016 C 18.08922004699707 22.52779006958008 15.13854026794434 23.75 12 23.75 Z" stroke="none"/>
            <path d="M 12 0.5 C 8.928239822387695 0.5 6.04033088684082 1.696210861206055 3.868270874023438 3.868270874023438 C 1.696210861206055 6.04033088684082 0.5 8.928239822387695 0.5 12 C 0.5 15.0717601776123 1.696210861206055 17.95967102050781 3.868270874023438 20.13172912597656 C 6.04033088684082 22.30378913879395 8.928239822387695 23.5 12 23.5 C 15.0717601776123 23.5 17.95967102050781 22.30378913879395 20.13172912597656 20.13172912597656 C 22.30378913879395 17.95967102050781 23.5 15.0717601776123 23.5 12 C 23.5 8.928239822387695 22.30378913879395 6.04033088684082 20.13172912597656 3.868270874023438 C 17.95967102050781 1.696210861206055 15.0717601776123 0.5 12 0.5 M 12 0 C 18.62742042541504 0 24 5.372579574584961 24 12 C 24 18.62742042541504 18.62742042541504 24 12 24 C 5.372579574584961 24 0 18.62742042541504 0 12 C 0 5.372579574584961 5.372579574584961 0 12 0 Z" stroke="none" fill="#e6e6ea"/>
          </g>
        </g>
      </g>
    </g>
  </g>
</svg>
