<svg xmlns="http://www.w3.org/2000/svg" xmlns:xlink="http://www.w3.org/1999/xlink" viewBox="0 0 750 516">
  <defs>
    <style>
      .cls-1 {
        clip-path: url(#clip-select_label);
      }

      .cls-2, .cls-6 {
        fill: #fff;
      }

      .cls-3 {
        fill: #3d3d3d;
      }

      .cls-4, .cls-7 {
        fill: none;
      }

      .cls-4 {
        stroke: #e91e63;
      }

      .cls-5 {
        fill: #7a7a7a;
      }

      .cls-8 {
        fill: #5b5b5b;
      }

      .cls-9 {
        fill: #c6c6c6;
      }

      .cls-10 {
        fill: #e91e63;
      }

      .cls-11, .cls-12 {
        stroke: none;
      }

      .cls-12 {
        fill: #50a7ed;
      }

      .cls-13 {
        filter: url(#Path_7029);
      }
    </style>
    <filter id="Path_7029" x="166" y="129" width="418" height="316" filterUnits="userSpaceOnUse">
      <feOffset dy="3" input="SourceAlpha"/>
      <feGaussianBlur stdDeviation="3" result="blur"/>
      <feFlood flood-opacity="0.161"/>
      <feComposite operator="in" in2="blur"/>
      <feComposite in="SourceGraphic"/>
    </filter>
    <clipPath id="clip-select_label">
      <rect width="750" height="516"/>
    </clipPath>
  </defs>
  <g id="select_label" class="cls-1">
    <g id="Path_7026" data-name="Path 7026" class="cls-2" transform="translate(175 91)">
      <path class="cls-11" d="M 398 43 L 2 43 C 0.3458000123500824 43 -1 41.65420150756836 -1 40 L -1 2 C -1 0.3458000123500824 0.3458000123500824 -1 2 -1 L 398 -1 C 399.6542053222656 -1 401 0.3458000123500824 401 2 L 401 40 C 401 41.65420150756836 399.6542053222656 43 398 43 Z"/>
      <path class="cls-12" d="M 398 42 C 399.1045837402344 42 400 41.10457992553711 400 40 L 400 2 C 400 0.895421028137207 399.1045837402344 0 398 0 L 2 0 C 0.895421028137207 0 0 0.895421028137207 0 2 L 0 40 C 0 41.10457992553711 0.895421028137207 42 2 42 L 398 42 M 398 44 L 2 44 C -0.2056315839290619 44 -2 42.20563125610352 -2 40 L -2 2 C -2 -0.2056315839290619 -0.2056315839290619 -2 2 -2 L 398 -2 C 400.2056274414063 -2 402 -0.2056315839290619 402 2 L 402 40 C 402 42.20563125610352 400.2056274414063 44 398 44 Z"/>
    </g>
    <path id="Path_7027" data-name="Path 7027" class="cls-3" d="M7.082-2.714A2.515,2.515,0,0,1,6.118-.622,4.2,4.2,0,0,1,3.459.137,6.345,6.345,0,0,1,.684-.39V-1.935a7.543,7.543,0,0,0,1.453.506,6.159,6.159,0,0,0,1.432.185A2.278,2.278,0,0,0,5-1.613,1.2,1.2,0,0,0,5.462-2.6a1.242,1.242,0,0,0-.424-.95,6.381,6.381,0,0,0-1.75-.923A4.63,4.63,0,0,1,1.36-5.742,2.676,2.676,0,0,1,.8-7.451,2.393,2.393,0,0,1,1.688-9.42a3.686,3.686,0,0,1,2.386-.718,7.01,7.01,0,0,1,2.857.629l-.52,1.333a6.243,6.243,0,0,0-2.379-.561,1.826,1.826,0,0,0-1.2.345,1.134,1.134,0,0,0-.41.913,1.285,1.285,0,0,0,.164.667,1.676,1.676,0,0,0,.54.523,9.135,9.135,0,0,0,1.354.649,7.406,7.406,0,0,1,1.613.854,2.513,2.513,0,0,1,.752.9A2.694,2.694,0,0,1,7.082-2.714Zm4.58,1.552a3.907,3.907,0,0,0,1.176-.185v1.21a3.243,3.243,0,0,1-.687.195,4.733,4.733,0,0,1-.872.079Q9,.137,9-2.27V-6.344H7.964v-.711l1.107-.588.547-1.6h.991v1.682h2.153v1.217H10.609V-2.3a1.135,1.135,0,0,0,.291.858A1.059,1.059,0,0,0,11.662-1.162ZM19.079,0l-.321-1.053H18.7a3.1,3.1,0,0,1-1.1.94,3.481,3.481,0,0,1-1.422.25,2.406,2.406,0,0,1-1.74-.6,2.251,2.251,0,0,1-.625-1.7,2,2,0,0,1,.868-1.764,5.006,5.006,0,0,1,2.646-.649l1.306-.041v-.4A1.529,1.529,0,0,0,18.3-6.108a1.38,1.38,0,0,0-1.049-.359,3.628,3.628,0,0,0-1.114.171,8.409,8.409,0,0,0-1.025.4l-.52-1.148a5.591,5.591,0,0,1,1.347-.489A6.2,6.2,0,0,1,17.315-7.7a3.27,3.27,0,0,1,2.177.629,2.462,2.462,0,0,1,.735,1.976V0ZM16.687-1.094a1.99,1.99,0,0,0,1.4-.489,1.772,1.772,0,0,0,.53-1.371v-.656l-.971.041A3.321,3.321,0,0,0,16-3.189a1.153,1.153,0,0,0-.516,1.036,1.011,1.011,0,0,0,.3.783A1.292,1.292,0,0,0,16.687-1.094Zm8.6-.068a3.907,3.907,0,0,0,1.176-.185v1.21a3.243,3.243,0,0,1-.687.195A4.733,4.733,0,0,1,24.9.137Q22.62.137,22.62-2.27V-6.344H21.588v-.711L22.7-7.643l.547-1.6h.991v1.682h2.153v1.217H24.233V-2.3a1.135,1.135,0,0,0,.291.858A1.059,1.059,0,0,0,25.286-1.162Zm5.988,1.3A3.657,3.657,0,0,1,28.516-.892a3.906,3.906,0,0,1-.995-2.833,4.285,4.285,0,0,1,.923-2.912A3.188,3.188,0,0,1,30.98-7.7a3.116,3.116,0,0,1,2.365.909,3.474,3.474,0,0,1,.868,2.5v.868H29.176a2.483,2.483,0,0,0,.595,1.692,2.071,2.071,0,0,0,1.579.591A5.829,5.829,0,0,0,32.6-1.261a6.539,6.539,0,0,0,1.241-.42V-.376a4.932,4.932,0,0,1-1.189.4A7.294,7.294,0,0,1,31.274.137ZM30.98-6.48A1.614,1.614,0,0,0,29.753-6,2.313,2.313,0,0,0,29.2-4.58h3.432A2.093,2.093,0,0,0,32.184-6,1.543,1.543,0,0,0,30.98-6.48Z" transform="translate(175 82)"/>
    <g id="Group_7969" data-name="Group 7969" transform="translate(-275 -1607)">
      <rect id="Rectangle_3867" data-name="Rectangle 3867" class="cls-4" width="24" height="24" transform="translate(816 1707)"/>
      <path id="Path_5558" data-name="Path 5558" class="cls-5" d="M56,9.4l-3,3-3-3a.967.967,0,0,0-1.4,0h0a.967.967,0,0,0,0,1.4l3.7,3.7a.967.967,0,0,0,1.4,0l3.7-3.7a.967.967,0,0,0,0-1.4h0A.965.965,0,0,0,56,9.4Z" transform="translate(881 1730.9) rotate(180)"/>
    </g>
    <path id="Path_7028" data-name="Path 7028" class="cls-3" d="M0,0H1V18H0Z" transform="translate(249 103)"/>
    <g class="cls-13" transform="matrix(1, 0, 0, 1, 0, 0)">
      <path id="Path_7029-2" data-name="Path 7029" class="cls-6" d="M4,0H396a4,4,0,0,1,4,4V294a4,4,0,0,1-4,4H4a4,4,0,0,1-4-4V4A4,4,0,0,1,4,0Z" transform="translate(175 135)"/>
    </g>
    <path id="Path_7030" data-name="Path 7030" class="cls-7" d="M0,0H400V36H0Z" transform="translate(175 176)"/>
    <path id="Path_7031" data-name="Path 7031" class="cls-7" d="M0,0H400V36H0Z" transform="translate(175 248)"/>
    <path id="Path_7032" data-name="Path 7032" class="cls-7" d="M0,0H400V36H0Z" transform="translate(175 320)"/>
    <path id="Path_7033" data-name="Path 7033" class="cls-7" d="M0,0H400V36H0Z" transform="translate(175 392)"/>
    <path id="Path_7034" data-name="Path 7034" class="cls-7" d="M0,0H400V36H0Z" transform="translate(175 140)"/>
    <path id="Path_7035" data-name="Path 7035" class="cls-7" d="M0,0H400V36H0Z" transform="translate(175 212)"/>
    <path id="Path_7036" data-name="Path 7036" class="cls-7" d="M0,0H400V36H0Z" transform="translate(175 284)"/>
    <path id="Path_7037" data-name="Path 7037" class="cls-7" d="M0,0H400V36H0Z" transform="translate(175 356)"/>
    <path id="Path_7038" data-name="Path 7038" class="cls-8" d="M7.656,0,6.412-3.179H2.406L1.176,0H0L3.951-10.035h.978L8.859,0ZM6.05-4.225l-1.162-3.1q-.226-.588-.465-1.442a12.952,12.952,0,0,1-.431,1.442l-1.176,3.1ZM11.2,0H10.063V-10.637H11.2Zm7.014,0-.226-1.066h-.055a3.153,3.153,0,0,1-1.118.954,3.407,3.407,0,0,1-1.391.25,2.5,2.5,0,0,1-1.747-.574,2.094,2.094,0,0,1-.632-1.634q0-2.27,3.63-2.379l1.271-.041v-.465a1.9,1.9,0,0,0-.379-1.3,1.56,1.56,0,0,0-1.213-.42,4.944,4.944,0,0,0-2.119.574l-.349-.868A5.332,5.332,0,0,1,15.1-7.444a5.255,5.255,0,0,1,1.323-.171,2.854,2.854,0,0,1,1.986.595,2.482,2.482,0,0,1,.646,1.907V0ZM15.647-.8a2.3,2.3,0,0,0,1.665-.581,2.15,2.15,0,0,0,.6-1.627v-.677l-1.135.048a4.128,4.128,0,0,0-1.952.42,1.268,1.268,0,0,0-.6,1.159,1.169,1.169,0,0,0,.373.937A1.546,1.546,0,0,0,15.647-.8ZM26.223-2.044a1.877,1.877,0,0,1-.779,1.613,3.663,3.663,0,0,1-2.187.567,4.757,4.757,0,0,1-2.324-.472V-1.388a5.621,5.621,0,0,0,1.159.431A4.839,4.839,0,0,0,23.283-.8a2.705,2.705,0,0,0,1.367-.284.938.938,0,0,0,.479-.865A.939.939,0,0,0,24.75-2.7a5.968,5.968,0,0,0-1.48-.735,8.025,8.025,0,0,1-1.487-.68,2.031,2.031,0,0,1-.656-.66,1.72,1.72,0,0,1-.215-.882A1.681,1.681,0,0,1,21.656-7.1a3.472,3.472,0,0,1,2.044-.53,5.98,5.98,0,0,1,2.365.492l-.4.923a5.429,5.429,0,0,0-2.044-.465,2.352,2.352,0,0,0-1.217.253.782.782,0,0,0-.41.7.849.849,0,0,0,.154.513,1.518,1.518,0,0,0,.5.4,11.076,11.076,0,0,0,1.313.554,4.9,4.9,0,0,1,1.8.978A1.724,1.724,0,0,1,26.223-2.044Zm2.967-1.791a13.345,13.345,0,0,1,.9-1.094L32.5-7.492h1.347L30.816-4.3,34.063,0H32.689L30.044-3.541l-.854.738V0H28.068V-10.637h1.121V-5q0,.376-.055,1.162ZM40.024,0,39.8-1.066h-.055a3.153,3.153,0,0,1-1.118.954,3.407,3.407,0,0,1-1.391.25,2.5,2.5,0,0,1-1.747-.574,2.094,2.094,0,0,1-.632-1.634q0-2.27,3.63-2.379l1.271-.041v-.465a1.9,1.9,0,0,0-.379-1.3,1.56,1.56,0,0,0-1.213-.42,4.944,4.944,0,0,0-2.119.574L35.7-6.973a5.332,5.332,0,0,1,1.213-.472,5.255,5.255,0,0,1,1.323-.171,2.854,2.854,0,0,1,1.986.595,2.482,2.482,0,0,1,.646,1.907V0ZM37.461-.8a2.3,2.3,0,0,0,1.665-.581,2.15,2.15,0,0,0,.6-1.627v-.677L38.6-3.637a4.128,4.128,0,0,0-1.952.42,1.268,1.268,0,0,0-.6,1.159,1.169,1.169,0,0,0,.373.937A1.546,1.546,0,0,0,37.461-.8Z" transform="translate(190 164)"/>
    <path id="Path_7039" data-name="Path 7039" class="cls-8" d="M5.653-9.1A3.268,3.268,0,0,0,3.052-8,4.426,4.426,0,0,0,2.1-5a4.514,4.514,0,0,0,.919,3.032A3.268,3.268,0,0,0,5.64-.9a8.951,8.951,0,0,0,2.386-.376V-.253a7.347,7.347,0,0,1-2.563.39A4.337,4.337,0,0,1,2.054-1.2a5.518,5.518,0,0,1-1.2-3.808,6.01,6.01,0,0,1,.578-2.707A4.147,4.147,0,0,1,3.1-9.509a5.049,5.049,0,0,1,2.567-.629,6.194,6.194,0,0,1,2.748.574l-.492,1A5.3,5.3,0,0,0,5.653-9.1ZM14.643,0l-.226-1.066h-.055a3.153,3.153,0,0,1-1.118.954,3.407,3.407,0,0,1-1.391.25,2.5,2.5,0,0,1-1.747-.574,2.094,2.094,0,0,1-.632-1.634q0-2.27,3.63-2.379l1.271-.041v-.465A1.9,1.9,0,0,0,14-6.258a1.56,1.56,0,0,0-1.213-.42,4.944,4.944,0,0,0-2.119.574l-.349-.868a5.332,5.332,0,0,1,1.213-.472,5.255,5.255,0,0,1,1.323-.171,2.854,2.854,0,0,1,1.986.595,2.482,2.482,0,0,1,.646,1.907V0ZM12.079-.8a2.3,2.3,0,0,0,1.665-.581,2.15,2.15,0,0,0,.6-1.627v-.677l-1.135.048a4.128,4.128,0,0,0-1.952.42,1.268,1.268,0,0,0-.6,1.159,1.169,1.169,0,0,0,.373.937A1.546,1.546,0,0,0,12.079-.8Zm6.877.8H17.821V-10.637h1.135ZM22.5,0H21.362V-7.492H22.5Zm-1.23-9.522a.754.754,0,0,1,.191-.571.669.669,0,0,1,.479-.181.669.669,0,0,1,.472.185.74.74,0,0,1,.2.567.752.752,0,0,1-.2.571.662.662,0,0,1-.472.188.655.655,0,0,1-.479-.188A.768.768,0,0,1,21.267-9.522ZM28.28-6.61H26.373V0H25.238V-6.61H23.9v-.513l1.34-.41V-7.95q0-2.762,2.413-2.762a4.966,4.966,0,0,1,1.395.239l-.294.909a3.754,3.754,0,0,0-1.121-.212,1.092,1.092,0,0,0-.95.427,2.384,2.384,0,0,0-.308,1.371v.485H28.28Zm7.834,2.857a4.133,4.133,0,0,1-.923,2.861A3.25,3.25,0,0,1,32.642.137a3.377,3.377,0,0,1-1.784-.472,3.113,3.113,0,0,1-1.2-1.354,4.717,4.717,0,0,1-.424-2.064,4.127,4.127,0,0,1,.916-2.854,3.24,3.24,0,0,1,2.543-1.022,3.169,3.169,0,0,1,2.5,1.046A4.115,4.115,0,0,1,36.114-3.753Zm-5.708,0a3.556,3.556,0,0,0,.574,2.188,1.993,1.993,0,0,0,1.688.752,2.006,2.006,0,0,0,1.692-.749,3.538,3.538,0,0,0,.578-2.191,3.481,3.481,0,0,0-.578-2.17,2.03,2.03,0,0,0-1.706-.742,2,2,0,0,0-1.682.731A3.52,3.52,0,0,0,30.406-3.753ZM41.521-7.629a4.44,4.44,0,0,1,.9.082L42.26-6.494a3.865,3.865,0,0,0-.82-.1,2,2,0,0,0-1.555.738,2.692,2.692,0,0,0-.646,1.839V0H38.1V-7.492h.937L39.17-6.1h.055a3.293,3.293,0,0,1,1-1.128A2.262,2.262,0,0,1,41.521-7.629ZM48.945,0V-4.847a1.955,1.955,0,0,0-.417-1.367,1.7,1.7,0,0,0-1.306-.451,2.153,2.153,0,0,0-1.723.636,3.21,3.21,0,0,0-.547,2.1V0H43.818V-7.492h.923l.185,1.025h.055a2.317,2.317,0,0,1,.978-.858,3.176,3.176,0,0,1,1.4-.3,2.846,2.846,0,0,1,2.037.653,2.778,2.778,0,0,1,.684,2.088V0Zm4.6,0H52.411V-7.492h1.135Zm-1.23-9.522a.754.754,0,0,1,.191-.571.669.669,0,0,1,.479-.181.669.669,0,0,1,.472.185.74.74,0,0,1,.2.567.752.752,0,0,1-.2.571.662.662,0,0,1-.472.188.655.655,0,0,1-.479-.188A.768.768,0,0,1,52.315-9.522ZM60.56,0l-.226-1.066h-.055a3.153,3.153,0,0,1-1.118.954,3.407,3.407,0,0,1-1.391.25,2.5,2.5,0,0,1-1.747-.574,2.094,2.094,0,0,1-.632-1.634q0-2.27,3.63-2.379l1.271-.041v-.465a1.9,1.9,0,0,0-.379-1.3,1.56,1.56,0,0,0-1.213-.42,4.944,4.944,0,0,0-2.119.574l-.349-.868a5.332,5.332,0,0,1,1.213-.472,5.255,5.255,0,0,1,1.323-.171,2.854,2.854,0,0,1,1.986.595A2.482,2.482,0,0,1,61.4-5.113V0ZM58-.8a2.3,2.3,0,0,0,1.665-.581,2.15,2.15,0,0,0,.6-1.627v-.677l-1.135.048a4.128,4.128,0,0,0-1.952.42,1.268,1.268,0,0,0-.6,1.159,1.169,1.169,0,0,0,.373.937A1.546,1.546,0,0,0,58-.8Z" transform="translate(190 272)"/>
    <path id="Path_7040" data-name="Path 7040" class="cls-8" d="M7.52,0l-1-2.775H2.7L1.723,0H0L3.739-10.035H5.517L9.256,0ZM6.091-4.184,5.154-6.9q-.1-.273-.284-.861t-.25-.861a15.32,15.32,0,0,1-.54,1.839l-.9,2.6ZM12.011,0H10.4V-10.637h1.606Zm7.027,0-.321-1.053h-.055a3.1,3.1,0,0,1-1.1.94,3.481,3.481,0,0,1-1.422.25,2.406,2.406,0,0,1-1.74-.6,2.251,2.251,0,0,1-.625-1.7,2,2,0,0,1,.868-1.764,5.006,5.006,0,0,1,2.646-.649l1.306-.041v-.4a1.529,1.529,0,0,0-.338-1.083,1.38,1.38,0,0,0-1.049-.359,3.628,3.628,0,0,0-1.114.171,8.409,8.409,0,0,0-1.025.4l-.52-1.148a5.591,5.591,0,0,1,1.347-.489A6.2,6.2,0,0,1,17.274-7.7a3.27,3.27,0,0,1,2.177.629,2.462,2.462,0,0,1,.735,1.976V0ZM16.646-1.094a1.99,1.99,0,0,0,1.4-.489,1.772,1.772,0,0,0,.53-1.371v-.656l-.971.041a3.321,3.321,0,0,0-1.651.379,1.153,1.153,0,0,0-.516,1.036,1.011,1.011,0,0,0,.3.783A1.292,1.292,0,0,0,16.646-1.094Zm9.646-6.6a2.624,2.624,0,0,1,2.2,1.025,4.623,4.623,0,0,1,.79,2.878,4.638,4.638,0,0,1-.8,2.9A2.649,2.649,0,0,1,26.264.137,2.648,2.648,0,0,1,24.035-.9h-.109l-.294.9h-1.2V-10.637h1.606v2.529q0,.28-.027.834t-.041.7h.068A2.551,2.551,0,0,1,26.291-7.7Zm-.417,1.313a1.633,1.633,0,0,0-1.4.571A3.321,3.321,0,0,0,24.035-3.9v.109a3.536,3.536,0,0,0,.438,2,1.627,1.627,0,0,0,1.429.619,1.448,1.448,0,0,0,1.3-.677,3.59,3.59,0,0,0,.441-1.955Q27.638-6.385,25.874-6.385ZM35.882,0l-.321-1.053h-.055a3.1,3.1,0,0,1-1.1.94,3.481,3.481,0,0,1-1.422.25,2.406,2.406,0,0,1-1.74-.6,2.251,2.251,0,0,1-.625-1.7,2,2,0,0,1,.868-1.764,5.006,5.006,0,0,1,2.646-.649l1.306-.041v-.4A1.529,1.529,0,0,0,35.1-6.108a1.38,1.38,0,0,0-1.049-.359,3.628,3.628,0,0,0-1.114.171,8.409,8.409,0,0,0-1.025.4l-.52-1.148a5.591,5.591,0,0,1,1.347-.489A6.2,6.2,0,0,1,34.118-7.7a3.27,3.27,0,0,1,2.177.629,2.462,2.462,0,0,1,.735,1.976V0ZM33.489-1.094a1.99,1.99,0,0,0,1.4-.489,1.772,1.772,0,0,0,.53-1.371v-.656l-.971.041a3.321,3.321,0,0,0-1.651.379,1.153,1.153,0,0,0-.516,1.036,1.011,1.011,0,0,0,.3.783A1.292,1.292,0,0,0,33.489-1.094ZM45.644,0H44.03V-4.662a2.114,2.114,0,0,0-.328-1.3,1.211,1.211,0,0,0-1.025-.427,1.564,1.564,0,0,0-1.364.6,3.55,3.55,0,0,0-.434,2.013V0H39.272V-7.561H40.53l.226.991h.082A2.1,2.1,0,0,1,41.75-7.4,2.943,2.943,0,0,1,43.066-7.7a2.3,2.3,0,0,1,2.311,1.189h.109a2.3,2.3,0,0,1,.943-.875A2.994,2.994,0,0,1,47.824-7.7a2.539,2.539,0,0,1,1.972.684,3.027,3.027,0,0,1,.619,2.085V0H48.809V-4.662a2.1,2.1,0,0,0-.332-1.3,1.221,1.221,0,0,0-1.029-.427,1.6,1.6,0,0,0-1.371.584,3.013,3.013,0,0,0-.434,1.794ZM57.388,0l-.321-1.053h-.055a3.1,3.1,0,0,1-1.1.94,3.481,3.481,0,0,1-1.422.25,2.406,2.406,0,0,1-1.74-.6,2.251,2.251,0,0,1-.625-1.7,2,2,0,0,1,.868-1.764,5.006,5.006,0,0,1,2.646-.649l1.306-.041v-.4A1.529,1.529,0,0,0,56.6-6.108a1.38,1.38,0,0,0-1.049-.359,3.628,3.628,0,0,0-1.114.171,8.409,8.409,0,0,0-1.025.4L52.9-7.041a5.591,5.591,0,0,1,1.347-.489A6.2,6.2,0,0,1,55.624-7.7a3.27,3.27,0,0,1,2.177.629,2.462,2.462,0,0,1,.735,1.976V0ZM55-1.094a1.99,1.99,0,0,0,1.4-.489,1.772,1.772,0,0,0,.53-1.371v-.656l-.971.041a3.321,3.321,0,0,0-1.651.379,1.153,1.153,0,0,0-.516,1.036,1.011,1.011,0,0,0,.3.783A1.292,1.292,0,0,0,55-1.094Z" transform="translate(190 200)"/>
    <path id="Path_7041" data-name="Path 7041" class="cls-8" d="M5.653-9.1A3.268,3.268,0,0,0,3.052-8,4.426,4.426,0,0,0,2.1-5a4.514,4.514,0,0,0,.919,3.032A3.268,3.268,0,0,0,5.64-.9a8.951,8.951,0,0,0,2.386-.376V-.253a7.347,7.347,0,0,1-2.563.39A4.337,4.337,0,0,1,2.054-1.2a5.518,5.518,0,0,1-1.2-3.808,6.01,6.01,0,0,1,.578-2.707A4.147,4.147,0,0,1,3.1-9.509a5.049,5.049,0,0,1,2.567-.629,6.194,6.194,0,0,1,2.748.574l-.492,1A5.3,5.3,0,0,0,5.653-9.1ZM16.5-3.753a4.133,4.133,0,0,1-.923,2.861A3.25,3.25,0,0,1,13.029.137a3.377,3.377,0,0,1-1.784-.472,3.113,3.113,0,0,1-1.2-1.354,4.717,4.717,0,0,1-.424-2.064,4.127,4.127,0,0,1,.916-2.854,3.24,3.24,0,0,1,2.543-1.022,3.169,3.169,0,0,1,2.5,1.046A4.115,4.115,0,0,1,16.5-3.753Zm-5.708,0a3.556,3.556,0,0,0,.574,2.188,1.993,1.993,0,0,0,1.688.752,2.006,2.006,0,0,0,1.692-.749,3.538,3.538,0,0,0,.578-2.191,3.481,3.481,0,0,0-.578-2.17,2.03,2.03,0,0,0-1.706-.742,2,2,0,0,0-1.682.731A3.52,3.52,0,0,0,10.794-3.753ZM19.626,0H18.491V-10.637h1.135ZM28.5-3.753a4.133,4.133,0,0,1-.923,2.861A3.25,3.25,0,0,1,25.026.137a3.377,3.377,0,0,1-1.784-.472,3.113,3.113,0,0,1-1.2-1.354,4.717,4.717,0,0,1-.424-2.064,4.127,4.127,0,0,1,.916-2.854,3.24,3.24,0,0,1,2.543-1.022,3.169,3.169,0,0,1,2.5,1.046A4.115,4.115,0,0,1,28.5-3.753Zm-5.708,0a3.556,3.556,0,0,0,.574,2.188,1.993,1.993,0,0,0,1.688.752,2.006,2.006,0,0,0,1.692-.749,3.538,3.538,0,0,0,.578-2.191,3.481,3.481,0,0,0-.578-2.17,2.03,2.03,0,0,0-1.706-.742,2,2,0,0,0-1.682.731A3.52,3.52,0,0,0,22.791-3.753ZM33.906-7.629a4.44,4.44,0,0,1,.9.082l-.157,1.053a3.865,3.865,0,0,0-.82-.1,2,2,0,0,0-1.555.738,2.692,2.692,0,0,0-.646,1.839V0H30.488V-7.492h.937l.13,1.388h.055a3.293,3.293,0,0,1,1-1.128A2.262,2.262,0,0,1,33.906-7.629ZM40.811,0l-.226-1.066H40.53a3.153,3.153,0,0,1-1.118.954,3.407,3.407,0,0,1-1.391.25,2.5,2.5,0,0,1-1.747-.574,2.094,2.094,0,0,1-.632-1.634q0-2.27,3.63-2.379l1.271-.041v-.465a1.9,1.9,0,0,0-.379-1.3,1.56,1.56,0,0,0-1.213-.42,4.944,4.944,0,0,0-2.119.574l-.349-.868A5.332,5.332,0,0,1,37.7-7.444a5.255,5.255,0,0,1,1.323-.171,2.854,2.854,0,0,1,1.986.595,2.482,2.482,0,0,1,.646,1.907V0ZM38.247-.8a2.3,2.3,0,0,0,1.665-.581,2.15,2.15,0,0,0,.6-1.627v-.677l-1.135.048a4.128,4.128,0,0,0-1.952.42,1.268,1.268,0,0,0-.6,1.159,1.169,1.169,0,0,0,.373.937A1.546,1.546,0,0,0,38.247-.8ZM49.089-1h-.062A2.666,2.666,0,0,1,46.676.137a2.782,2.782,0,0,1-2.287-1,4.423,4.423,0,0,1-.817-2.857,4.5,4.5,0,0,1,.82-2.878,2.76,2.76,0,0,1,2.283-1.025,2.724,2.724,0,0,1,2.338,1.107H49.1l-.048-.54-.027-.526v-3.049h1.135V0h-.923Zm-2.27.191A2.066,2.066,0,0,0,48.5-1.446a3.2,3.2,0,0,0,.523-2.041v-.239A3.76,3.76,0,0,0,48.5-6a2.012,2.012,0,0,0-1.692-.68,1.737,1.737,0,0,0-1.528.776,3.858,3.858,0,0,0-.53,2.191,3.7,3.7,0,0,0,.526,2.167A1.783,1.783,0,0,0,46.819-.813ZM59.035-3.753a4.133,4.133,0,0,1-.923,2.861A3.25,3.25,0,0,1,55.563.137a3.377,3.377,0,0,1-1.784-.472,3.113,3.113,0,0,1-1.2-1.354,4.717,4.717,0,0,1-.424-2.064,4.127,4.127,0,0,1,.916-2.854A3.24,3.24,0,0,1,55.61-7.629a3.169,3.169,0,0,1,2.5,1.046A4.115,4.115,0,0,1,59.035-3.753Zm-5.708,0A3.556,3.556,0,0,0,53.9-1.565a1.993,1.993,0,0,0,1.688.752,2.006,2.006,0,0,0,1.692-.749,3.538,3.538,0,0,0,.578-2.191,3.481,3.481,0,0,0-.578-2.17,2.03,2.03,0,0,0-1.706-.742,2,2,0,0,0-1.682.731A3.52,3.52,0,0,0,53.327-3.753Z" transform="translate(190 308)"/>
    <path id="Path_7042" data-name="Path 7042" class="cls-8" d="M7.656,0,6.412-3.179H2.406L1.176,0H0L3.951-10.035h.978L8.859,0ZM6.05-4.225l-1.162-3.1q-.226-.588-.465-1.442a12.952,12.952,0,0,1-.431,1.442l-1.176,3.1Zm7.431-3.4a4.44,4.44,0,0,1,.9.082l-.157,1.053a3.865,3.865,0,0,0-.82-.1,2,2,0,0,0-1.555.738A2.692,2.692,0,0,0,11.2-4.02V0H10.063V-7.492H11l.13,1.388h.055a3.293,3.293,0,0,1,1-1.128A2.262,2.262,0,0,1,13.48-7.629ZM16.912,0H15.777V-7.492h1.135Zm-1.23-9.522a.754.754,0,0,1,.191-.571.669.669,0,0,1,.479-.181.669.669,0,0,1,.472.185.74.74,0,0,1,.2.567.752.752,0,0,1-.2.571.662.662,0,0,1-.472.188.655.655,0,0,1-.479-.188A.768.768,0,0,1,15.682-9.522ZM24.11,0H18.676V-.772L22.764-6.61H18.929v-.882h5.079v.882L19.975-.882H24.11Zm8.224-3.753a4.133,4.133,0,0,1-.923,2.861A3.25,3.25,0,0,1,28.861.137a3.377,3.377,0,0,1-1.784-.472,3.113,3.113,0,0,1-1.2-1.354,4.717,4.717,0,0,1-.424-2.064,4.127,4.127,0,0,1,.916-2.854,3.24,3.24,0,0,1,2.543-1.022,3.169,3.169,0,0,1,2.5,1.046A4.115,4.115,0,0,1,32.334-3.753Zm-5.708,0A3.556,3.556,0,0,0,27.2-1.565a1.993,1.993,0,0,0,1.688.752,2.006,2.006,0,0,0,1.692-.749,3.538,3.538,0,0,0,.578-2.191,3.481,3.481,0,0,0-.578-2.17,2.03,2.03,0,0,0-1.706-.742,2,2,0,0,0-1.682.731A3.52,3.52,0,0,0,26.626-3.753ZM39.45,0V-4.847a1.955,1.955,0,0,0-.417-1.367,1.7,1.7,0,0,0-1.306-.451A2.153,2.153,0,0,0,36-6.029a3.21,3.21,0,0,0-.547,2.1V0H34.323V-7.492h.923l.185,1.025h.055a2.317,2.317,0,0,1,.978-.858,3.176,3.176,0,0,1,1.4-.3,2.846,2.846,0,0,1,2.037.653,2.778,2.778,0,0,1,.684,2.088V0Zm8.073,0L47.3-1.066h-.055a3.153,3.153,0,0,1-1.118.954,3.407,3.407,0,0,1-1.391.25,2.5,2.5,0,0,1-1.747-.574,2.094,2.094,0,0,1-.632-1.634q0-2.27,3.63-2.379l1.271-.041v-.465a1.9,1.9,0,0,0-.379-1.3,1.56,1.56,0,0,0-1.213-.42,4.944,4.944,0,0,0-2.119.574L43.2-6.973a5.332,5.332,0,0,1,1.213-.472,5.255,5.255,0,0,1,1.323-.171,2.854,2.854,0,0,1,1.986.595,2.482,2.482,0,0,1,.646,1.907V0ZM44.96-.8a2.3,2.3,0,0,0,1.665-.581,2.15,2.15,0,0,0,.6-1.627v-.677l-1.135.048a4.128,4.128,0,0,0-1.952.42,1.268,1.268,0,0,0-.6,1.159,1.169,1.169,0,0,0,.373.937A1.546,1.546,0,0,0,44.96-.8Z" transform="translate(190 236)"/>
    <path id="Path_7043" data-name="Path 7043" class="cls-8" d="M5.653-9.1A3.268,3.268,0,0,0,3.052-8,4.426,4.426,0,0,0,2.1-5a4.514,4.514,0,0,0,.919,3.032A3.268,3.268,0,0,0,5.64-.9a8.951,8.951,0,0,0,2.386-.376V-.253a7.347,7.347,0,0,1-2.563.39A4.337,4.337,0,0,1,2.054-1.2a5.518,5.518,0,0,1-1.2-3.808,6.01,6.01,0,0,1,.578-2.707A4.147,4.147,0,0,1,3.1-9.509a5.049,5.049,0,0,1,2.567-.629,6.194,6.194,0,0,1,2.748.574l-.492,1A5.3,5.3,0,0,0,5.653-9.1ZM16.5-3.753a4.133,4.133,0,0,1-.923,2.861A3.25,3.25,0,0,1,13.029.137a3.377,3.377,0,0,1-1.784-.472,3.113,3.113,0,0,1-1.2-1.354,4.717,4.717,0,0,1-.424-2.064,4.127,4.127,0,0,1,.916-2.854,3.24,3.24,0,0,1,2.543-1.022,3.169,3.169,0,0,1,2.5,1.046A4.115,4.115,0,0,1,16.5-3.753Zm-5.708,0a3.556,3.556,0,0,0,.574,2.188,1.993,1.993,0,0,0,1.688.752,2.006,2.006,0,0,0,1.692-.749,3.538,3.538,0,0,0,.578-2.191,3.481,3.481,0,0,0-.578-2.17,2.03,2.03,0,0,0-1.706-.742,2,2,0,0,0-1.682.731A3.52,3.52,0,0,0,10.794-3.753ZM23.618,0V-4.847A1.955,1.955,0,0,0,23.2-6.214,1.7,1.7,0,0,0,21.9-6.665a2.153,2.153,0,0,0-1.723.636,3.21,3.21,0,0,0-.547,2.1V0H18.491V-7.492h.923L19.6-6.467h.055a2.317,2.317,0,0,1,.978-.858,3.176,3.176,0,0,1,1.4-.3,2.846,2.846,0,0,1,2.037.653,2.778,2.778,0,0,1,.684,2.088V0Zm8.593,0V-4.847a1.955,1.955,0,0,0-.417-1.367,1.7,1.7,0,0,0-1.306-.451,2.153,2.153,0,0,0-1.723.636,3.21,3.21,0,0,0-.547,2.1V0H27.084V-7.492h.923l.185,1.025h.055a2.317,2.317,0,0,1,.978-.858,3.176,3.176,0,0,1,1.4-.3,2.846,2.846,0,0,1,2.037.653,2.778,2.778,0,0,1,.684,2.088V0Zm6.631.137A3.442,3.442,0,0,1,36.22-.875a3.917,3.917,0,0,1-.96-2.81,4.344,4.344,0,0,1,.892-2.878,2.963,2.963,0,0,1,2.4-1.066,2.825,2.825,0,0,1,2.229.926,3.55,3.55,0,0,1,.82,2.444v.718H36.436a2.97,2.97,0,0,0,.667,2,2.305,2.305,0,0,0,1.781.684,6.035,6.035,0,0,0,2.393-.506V-.349a6.005,6.005,0,0,1-1.138.373A6.4,6.4,0,0,1,38.842.137Zm-.308-6.815a1.853,1.853,0,0,0-1.439.588,2.71,2.71,0,0,0-.632,1.627H40.38A2.5,2.5,0,0,0,39.9-6.108,1.684,1.684,0,0,0,38.534-6.679ZM46.525.137a3.2,3.2,0,0,1-2.519-1A4.118,4.118,0,0,1,43.114-3.7,4.247,4.247,0,0,1,44.02-6.6,3.261,3.261,0,0,1,46.6-7.629a5.121,5.121,0,0,1,1.08.116,3.558,3.558,0,0,1,.848.273l-.349.964a5.336,5.336,0,0,0-.82-.25,3.663,3.663,0,0,0-.786-.1q-2.283,0-2.283,2.912a3.468,3.468,0,0,0,.557,2.119A1.938,1.938,0,0,0,46.5-.854a5.048,5.048,0,0,0,1.921-.4v1A4.094,4.094,0,0,1,46.525.137ZM52.616-.8A3.707,3.707,0,0,0,53.2-.844a3.761,3.761,0,0,0,.444-.092v.868A2.074,2.074,0,0,1,53.1.079a4.081,4.081,0,0,1-.646.058q-2.174,0-2.174-2.29V-6.61H49.205v-.547l1.073-.472.479-1.6h.656v1.736h2.174v.882H51.413V-2.2a1.517,1.517,0,0,0,.321,1.039A1.118,1.118,0,0,0,52.616-.8Zm3.657.8H55.139V-7.492h1.135Zm-1.23-9.522a.754.754,0,0,1,.191-.571.669.669,0,0,1,.479-.181.669.669,0,0,1,.472.185.74.74,0,0,1,.2.567.752.752,0,0,1-.2.571.662.662,0,0,1-.472.188.655.655,0,0,1-.479-.188A.768.768,0,0,1,55.043-9.522ZM61.674.137a3.2,3.2,0,0,1-2.519-1A4.118,4.118,0,0,1,58.263-3.7,4.247,4.247,0,0,1,59.168-6.6a3.261,3.261,0,0,1,2.581-1.025,5.121,5.121,0,0,1,1.08.116,3.558,3.558,0,0,1,.848.273l-.349.964a5.336,5.336,0,0,0-.82-.25,3.663,3.663,0,0,0-.786-.1q-2.283,0-2.283,2.912A3.468,3.468,0,0,0,60-1.593a1.938,1.938,0,0,0,1.651.738,5.048,5.048,0,0,0,1.921-.4v1A4.094,4.094,0,0,1,61.674.137Zm4.737-7.629v4.86a1.955,1.955,0,0,0,.417,1.367,1.7,1.7,0,0,0,1.306.451,2.13,2.13,0,0,0,1.719-.643,3.241,3.241,0,0,0,.543-2.1V-7.492h1.135V0h-.937l-.164-1h-.062a2.262,2.262,0,0,1-.967.848A3.251,3.251,0,0,1,67.99.137a2.864,2.864,0,0,1-2.047-.649,2.764,2.764,0,0,1-.68-2.078v-4.9ZM76.357-.8a3.707,3.707,0,0,0,.581-.044,3.761,3.761,0,0,0,.444-.092v.868a2.074,2.074,0,0,1-.543.147,4.081,4.081,0,0,1-.646.058q-2.174,0-2.174-2.29V-6.61H72.946v-.547l1.073-.472.479-1.6h.656v1.736h2.174v.882H75.154V-2.2a1.517,1.517,0,0,0,.321,1.039A1.118,1.118,0,0,0,76.357-.8Z" transform="translate(190 344)"/>
    <path id="Path_7044" data-name="Path 7044" class="cls-8" d="M9.352-5.093A5.046,5.046,0,0,1,8.008-1.309,5.315,5.315,0,0,1,4.143,0H1.374V-9.994H4.437A4.9,4.9,0,0,1,8.06-8.7,4.879,4.879,0,0,1,9.352-5.093Zm-1.23.041A4.024,4.024,0,0,0,7.14-8a3.931,3.931,0,0,0-2.916-.991H2.536V-1H3.951A4.3,4.3,0,0,0,7.075-2.027,4.046,4.046,0,0,0,8.121-5.052ZM14.574.137A3.442,3.442,0,0,1,11.953-.875a3.917,3.917,0,0,1-.96-2.81,4.344,4.344,0,0,1,.892-2.878,2.963,2.963,0,0,1,2.4-1.066,2.825,2.825,0,0,1,2.229.926,3.55,3.55,0,0,1,.82,2.444v.718H12.168a2.97,2.97,0,0,0,.667,2,2.305,2.305,0,0,0,1.781.684,6.035,6.035,0,0,0,2.393-.506V-.349A6.005,6.005,0,0,1,15.87.024,6.4,6.4,0,0,1,14.574.137Zm-.308-6.815a1.853,1.853,0,0,0-1.439.588A2.71,2.71,0,0,0,12.2-4.464h3.917a2.5,2.5,0,0,0-.479-1.644A1.684,1.684,0,0,0,14.267-6.679ZM20.4,0H19.264V-10.637H20.4Zm7.014,0-.226-1.066h-.055a3.153,3.153,0,0,1-1.118.954,3.407,3.407,0,0,1-1.391.25,2.5,2.5,0,0,1-1.747-.574,2.094,2.094,0,0,1-.632-1.634q0-2.27,3.63-2.379l1.271-.041v-.465a1.9,1.9,0,0,0-.379-1.3,1.56,1.56,0,0,0-1.213-.42,4.944,4.944,0,0,0-2.119.574l-.349-.868A5.332,5.332,0,0,1,24.3-7.444a5.255,5.255,0,0,1,1.323-.171,2.854,2.854,0,0,1,1.986.595,2.482,2.482,0,0,1,.646,1.907V0ZM24.849-.8a2.3,2.3,0,0,0,1.665-.581,2.15,2.15,0,0,0,.6-1.627v-.677l-1.135.048a4.128,4.128,0,0,0-1.952.42,1.268,1.268,0,0,0-.6,1.159,1.169,1.169,0,0,0,.373.937A1.546,1.546,0,0,0,24.849-.8Zm11.86.8L35.335-4.4q-.13-.4-.485-1.832h-.055q-.273,1.2-.479,1.846L32.9,0H31.589L29.545-7.492h1.189l1.1,4.3A17.421,17.421,0,0,1,32.272-1.2h.055q.075-.39.243-1.008t.291-.981l1.374-4.3h1.23l1.34,4.3a14.513,14.513,0,0,1,.52,1.976h.055a7.246,7.246,0,0,1,.147-.759q.12-.513,1.425-5.517h1.176L38.056,0Zm9.379,0-.226-1.066h-.055a3.153,3.153,0,0,1-1.118.954A3.407,3.407,0,0,1,43.3.137a2.5,2.5,0,0,1-1.747-.574,2.094,2.094,0,0,1-.632-1.634q0-2.27,3.63-2.379l1.271-.041v-.465a1.9,1.9,0,0,0-.379-1.3,1.56,1.56,0,0,0-1.213-.42,4.944,4.944,0,0,0-2.119.574l-.349-.868a5.332,5.332,0,0,1,1.213-.472A5.255,5.255,0,0,1,44.3-7.615a2.854,2.854,0,0,1,1.986.595,2.482,2.482,0,0,1,.646,1.907V0ZM43.524-.8a2.3,2.3,0,0,0,1.665-.581,2.15,2.15,0,0,0,.6-1.627v-.677l-1.135.048a4.128,4.128,0,0,0-1.952.42,1.268,1.268,0,0,0-.6,1.159,1.169,1.169,0,0,0,.373.937A1.546,1.546,0,0,0,43.524-.8Zm9.16-6.829a4.44,4.44,0,0,1,.9.082l-.157,1.053a3.865,3.865,0,0,0-.82-.1,2,2,0,0,0-1.555.738A2.692,2.692,0,0,0,50.4-4.02V0H49.267V-7.492H50.2l.13,1.388h.055a3.293,3.293,0,0,1,1-1.128A2.262,2.262,0,0,1,52.685-7.629ZM58.146.137A3.442,3.442,0,0,1,55.525-.875a3.917,3.917,0,0,1-.96-2.81,4.344,4.344,0,0,1,.892-2.878,2.963,2.963,0,0,1,2.4-1.066,2.825,2.825,0,0,1,2.229.926,3.55,3.55,0,0,1,.82,2.444v.718H55.74a2.97,2.97,0,0,0,.667,2,2.305,2.305,0,0,0,1.781.684A6.035,6.035,0,0,0,60.58-1.36V-.349a6.005,6.005,0,0,1-1.138.373A6.4,6.4,0,0,1,58.146.137Zm-.308-6.815a1.853,1.853,0,0,0-1.439.588,2.71,2.71,0,0,0-.632,1.627h3.917a2.5,2.5,0,0,0-.479-1.644A1.684,1.684,0,0,0,57.839-6.679Z" transform="translate(190 380)"/>
    <path id="Path_7045" data-name="Path 7045" class="cls-8" d="M2.536,0H1.374V-9.994H6.945v1.032H2.536V-5.3H6.679v1.032H2.536ZM9.563,0H8.429V-10.637H9.563Zm8.873-3.753a4.133,4.133,0,0,1-.923,2.861A3.25,3.25,0,0,1,14.964.137,3.377,3.377,0,0,1,13.18-.335a3.113,3.113,0,0,1-1.2-1.354,4.717,4.717,0,0,1-.424-2.064,4.127,4.127,0,0,1,.916-2.854,3.24,3.24,0,0,1,2.543-1.022,3.169,3.169,0,0,1,2.5,1.046A4.115,4.115,0,0,1,18.437-3.753Zm-5.708,0A3.556,3.556,0,0,0,13.3-1.565a1.993,1.993,0,0,0,1.688.752,2.006,2.006,0,0,0,1.692-.749,3.538,3.538,0,0,0,.578-2.191,3.481,3.481,0,0,0-.578-2.17,2.03,2.03,0,0,0-1.706-.742,2,2,0,0,0-1.682.731A3.52,3.52,0,0,0,12.729-3.753ZM23.844-7.629a4.44,4.44,0,0,1,.9.082l-.157,1.053a3.865,3.865,0,0,0-.82-.1,2,2,0,0,0-1.555.738,2.692,2.692,0,0,0-.646,1.839V0H20.426V-7.492h.937l.13,1.388h.055a3.293,3.293,0,0,1,1-1.128A2.262,2.262,0,0,1,23.844-7.629ZM27.275,0H26.141V-7.492h1.135Zm-1.23-9.522a.754.754,0,0,1,.191-.571.669.669,0,0,1,.479-.181.669.669,0,0,1,.472.185.74.74,0,0,1,.2.567.752.752,0,0,1-.2.571.662.662,0,0,1-.472.188.655.655,0,0,1-.479-.188A.768.768,0,0,1,26.045-9.522ZM34.781-1H34.72A2.666,2.666,0,0,1,32.368.137a2.782,2.782,0,0,1-2.287-1,4.423,4.423,0,0,1-.817-2.857,4.5,4.5,0,0,1,.82-2.878,2.76,2.76,0,0,1,2.283-1.025,2.724,2.724,0,0,1,2.338,1.107h.089l-.048-.54-.027-.526v-3.049h1.135V0h-.923Zm-2.27.191A2.066,2.066,0,0,0,34.2-1.446a3.2,3.2,0,0,0,.523-2.041v-.239A3.76,3.76,0,0,0,34.19-6a2.012,2.012,0,0,0-1.692-.68A1.737,1.737,0,0,0,30.97-5.9a3.858,3.858,0,0,0-.53,2.191,3.7,3.7,0,0,0,.526,2.167A1.783,1.783,0,0,0,32.512-.813ZM42.868,0l-.226-1.066h-.055a3.153,3.153,0,0,1-1.118.954,3.407,3.407,0,0,1-1.391.25,2.5,2.5,0,0,1-1.747-.574A2.094,2.094,0,0,1,37.7-2.071q0-2.27,3.63-2.379L42.6-4.491v-.465a1.9,1.9,0,0,0-.379-1.3,1.56,1.56,0,0,0-1.213-.42A4.944,4.944,0,0,0,38.89-6.1l-.349-.868a5.332,5.332,0,0,1,1.213-.472,5.255,5.255,0,0,1,1.323-.171,2.854,2.854,0,0,1,1.986.595,2.482,2.482,0,0,1,.646,1.907V0ZM40.3-.8a2.3,2.3,0,0,0,1.665-.581,2.15,2.15,0,0,0,.6-1.627v-.677l-1.135.048a4.128,4.128,0,0,0-1.952.42,1.268,1.268,0,0,0-.6,1.159,1.169,1.169,0,0,0,.373.937A1.546,1.546,0,0,0,40.3-.8Z" transform="translate(190 416)"/>
    <path id="Path_7046" data-name="Path 7046" class="cls-9" d="M2.5,0A2.5,2.5,0,0,1,5,2.5v95a2.5,2.5,0,0,1-5,0V2.5A2.5,2.5,0,0,1,2.5,0Z" transform="translate(565 140)"/>
    <path id="_20" data-name="20" class="cls-10" d="M-26.442,0V-7.853h.913V-.827h3.464V0Zm9.2,0-.177-.838h-.043a2.477,2.477,0,0,1-.878.749,2.677,2.677,0,0,1-1.093.2A1.966,1.966,0,0,1-20.81-.344a1.646,1.646,0,0,1-.5-1.284q0-1.783,2.852-1.869l1-.032v-.365a1.492,1.492,0,0,0-.3-1.023,1.226,1.226,0,0,0-.953-.33,3.885,3.885,0,0,0-1.665.451l-.274-.682a4.19,4.19,0,0,1,.953-.371,4.129,4.129,0,0,1,1.039-.134,2.242,2.242,0,0,1,1.56.467,1.95,1.95,0,0,1,.508,1.5V0Zm-2.014-.628a1.81,1.81,0,0,0,1.308-.457,1.689,1.689,0,0,0,.475-1.278V-2.9l-.892.038a3.243,3.243,0,0,0-1.533.33,1,1,0,0,0-.47.91.919.919,0,0,0,.293.736A1.215,1.215,0,0,0-19.261-.628Zm7.251-5.355a2.189,2.189,0,0,1,1.8.792,3.477,3.477,0,0,1,.642,2.242A3.5,3.5,0,0,1-10.213-.7a2.18,2.18,0,0,1-1.8.8A2.548,2.548,0,0,1-13.06-.1a1.975,1.975,0,0,1-.8-.653h-.064L-14.11,0h-.639V-8.357h.892v2.03q0,.682-.043,1.225h.043A2.117,2.117,0,0,1-12.01-5.983Zm-.129.747a1.557,1.557,0,0,0-1.316.524,2.954,2.954,0,0,0-.4,1.764,2.946,2.946,0,0,0,.414,1.775,1.573,1.573,0,0,0,1.327.534,1.375,1.375,0,0,0,1.225-.6,3.078,3.078,0,0,0,.4-1.721,2.958,2.958,0,0,0-.4-1.713A1.428,1.428,0,0,0-12.139-5.237ZM-5.521.107a2.7,2.7,0,0,1-2.06-.795A3.077,3.077,0,0,1-8.336-2.9a3.413,3.413,0,0,1,.7-2.261,2.328,2.328,0,0,1,1.883-.838A2.22,2.22,0,0,1-4-5.266a2.789,2.789,0,0,1,.645,1.92v.564H-7.412a2.333,2.333,0,0,0,.524,1.574,1.811,1.811,0,0,0,1.4.537,4.741,4.741,0,0,0,1.88-.4v.795A4.718,4.718,0,0,1-4.5.019,5.026,5.026,0,0,1-5.521.107Zm-.242-5.355a1.456,1.456,0,0,0-1.131.462,2.129,2.129,0,0,0-.5,1.278h3.078A1.96,1.96,0,0,0-4.689-4.8,1.323,1.323,0,0,0-5.763-5.248ZM-.945,0h-.892V-8.357h.892Z" transform="translate(152 81)"/>
    <path id="_20-2" data-name="20" class="cls-10" d="M7.348-4A3.965,3.965,0,0,1,6.292-1.029,4.176,4.176,0,0,1,3.255,0H1.08V-7.853H3.486A3.849,3.849,0,0,1,6.333-6.837,3.834,3.834,0,0,1,7.348-4Zm-.967.032A3.161,3.161,0,0,0,5.61-6.284a3.089,3.089,0,0,0-2.291-.779H1.993V-.79H3.1a3.38,3.38,0,0,0,2.455-.8A3.179,3.179,0,0,0,6.381-3.969ZM11.65-5.994a3.489,3.489,0,0,1,.7.064L12.23-5.1a3.037,3.037,0,0,0-.645-.081,1.569,1.569,0,0,0-1.222.58,2.115,2.115,0,0,0-.508,1.445V0H8.964V-5.887H9.7L9.8-4.8h.043a2.588,2.588,0,0,1,.79-.886A1.777,1.777,0,0,1,11.65-5.994Zm6.886,3.045A3.247,3.247,0,0,1,17.811-.7a2.554,2.554,0,0,1-2,.808,2.653,2.653,0,0,1-1.4-.371,2.446,2.446,0,0,1-.945-1.063,3.706,3.706,0,0,1-.333-1.622,3.242,3.242,0,0,1,.72-2.242,2.545,2.545,0,0,1,2-.8,2.49,2.49,0,0,1,1.963.822A3.233,3.233,0,0,1,18.536-2.949Zm-4.485,0A2.794,2.794,0,0,0,14.5-1.23a1.566,1.566,0,0,0,1.327.591,1.576,1.576,0,0,0,1.329-.588,2.78,2.78,0,0,0,.454-1.721,2.735,2.735,0,0,0-.454-1.705,1.6,1.6,0,0,0-1.34-.583,1.569,1.569,0,0,0-1.321.575A2.766,2.766,0,0,0,14.051-2.949ZM22.838.107A2.548,2.548,0,0,1,21.788-.1a1.975,1.975,0,0,1-.8-.653h-.064A7.9,7.9,0,0,1,20.99.22V2.643H20.1V-5.887h.725l.124.806h.043a2.071,2.071,0,0,1,.8-.7,2.433,2.433,0,0,1,1.047-.215,2.176,2.176,0,0,1,1.807.8,3.523,3.523,0,0,1,.636,2.245A3.5,3.5,0,0,1,24.635-.7,2.18,2.18,0,0,1,22.838.107Zm-.129-5.344a1.58,1.58,0,0,0-1.305.5,2.57,2.57,0,0,0-.414,1.59v.2A2.946,2.946,0,0,0,21.4-1.174a1.573,1.573,0,0,0,1.327.534,1.379,1.379,0,0,0,1.2-.618,2.929,2.929,0,0,0,.432-1.7,2.819,2.819,0,0,0-.432-1.689A1.422,1.422,0,0,0,22.709-5.237ZM30.846-.79H30.8a2.1,2.1,0,0,1-1.848.9,2.186,2.186,0,0,1-1.8-.79,3.475,3.475,0,0,1-.642-2.245,3.534,3.534,0,0,1,.645-2.261,2.169,2.169,0,0,1,1.794-.806,2.141,2.141,0,0,1,1.837.87h.07l-.038-.424L30.8-5.962v-2.4h.892V0h-.725Zm-1.783.15a1.623,1.623,0,0,0,1.324-.5,2.51,2.51,0,0,0,.411-1.6v-.188a2.954,2.954,0,0,0-.416-1.786,1.581,1.581,0,0,0-1.329-.534,1.365,1.365,0,0,0-1.2.61,3.031,3.031,0,0,0-.416,1.721,2.906,2.906,0,0,0,.414,1.7A1.4,1.4,0,0,0,29.063-.639Zm9.6-2.31A3.247,3.247,0,0,1,37.936-.7a2.554,2.554,0,0,1-2,.808,2.653,2.653,0,0,1-1.4-.371,2.446,2.446,0,0,1-.945-1.063,3.706,3.706,0,0,1-.333-1.622,3.242,3.242,0,0,1,.72-2.242,2.545,2.545,0,0,1,2-.8,2.49,2.49,0,0,1,1.963.822A3.233,3.233,0,0,1,38.661-2.949Zm-4.485,0a2.794,2.794,0,0,0,.451,1.719,1.566,1.566,0,0,0,1.327.591,1.576,1.576,0,0,0,1.329-.588,2.78,2.78,0,0,0,.454-1.721,2.735,2.735,0,0,0-.454-1.705,1.6,1.6,0,0,0-1.34-.583,1.569,1.569,0,0,0-1.321.575A2.766,2.766,0,0,0,34.176-2.949ZM45.031,0l-1.08-3.454q-.1-.317-.381-1.439h-.043q-.215.94-.376,1.45L42.04,0H41.008L39.4-5.887h.935L41.2-2.508a13.688,13.688,0,0,1,.341,1.563h.043q.059-.306.191-.792t.228-.771l1.08-3.378h.967l1.053,3.378a11.4,11.4,0,0,1,.408,1.552h.043a5.693,5.693,0,0,1,.115-.6q.094-.4,1.12-4.334h.924L46.089,0Zm7.777,0V-3.808a1.536,1.536,0,0,0-.328-1.074,1.335,1.335,0,0,0-1.026-.354,1.692,1.692,0,0,0-1.354.5,2.522,2.522,0,0,0-.43,1.649V0H48.78V-5.887h.725l.145.806h.043a1.821,1.821,0,0,1,.768-.674,2.5,2.5,0,0,1,1.1-.239,2.236,2.236,0,0,1,1.6.513A2.183,2.183,0,0,1,53.7-3.84V0Zm7.933.107a2.512,2.512,0,0,1-1.979-.787,3.236,3.236,0,0,1-.7-2.226,3.337,3.337,0,0,1,.712-2.283A2.562,2.562,0,0,1,60.8-5.994a4.024,4.024,0,0,1,.849.091,2.8,2.8,0,0,1,.666.215l-.274.757a4.192,4.192,0,0,0-.645-.2,2.878,2.878,0,0,0-.618-.078q-1.794,0-1.794,2.288a2.724,2.724,0,0,0,.438,1.665,1.523,1.523,0,0,0,1.3.58,3.966,3.966,0,0,0,1.509-.317V-.2A3.217,3.217,0,0,1,60.742.107ZM67.654,0V-3.808a1.536,1.536,0,0,0-.328-1.074A1.335,1.335,0,0,0,66.3-5.237a1.681,1.681,0,0,0-1.356.5,2.557,2.557,0,0,0-.427,1.654V0h-.892V-8.357h.892v2.53a5.512,5.512,0,0,1-.043.757h.054a1.818,1.818,0,0,1,.749-.669,2.436,2.436,0,0,1,1.109-.244,2.271,2.271,0,0,1,1.619.513,2.16,2.16,0,0,1,.54,1.63V0Zm5.21.107A2.7,2.7,0,0,1,70.8-.687,3.077,3.077,0,0,1,70.05-2.9a3.413,3.413,0,0,1,.7-2.261,2.328,2.328,0,0,1,1.883-.838,2.22,2.22,0,0,1,1.751.728,2.789,2.789,0,0,1,.645,1.92v.564H70.974A2.333,2.333,0,0,0,71.5-1.208a1.811,1.811,0,0,0,1.4.537,4.741,4.741,0,0,0,1.88-.4v.795a4.718,4.718,0,0,1-.894.293A5.026,5.026,0,0,1,72.864.107Zm-.242-5.355a1.456,1.456,0,0,0-1.131.462A2.129,2.129,0,0,0,71-3.507h3.078A1.96,1.96,0,0,0,73.7-4.8,1.323,1.323,0,0,0,72.623-5.248ZM77.838,0,75.6-5.887h.956L77.827-2.4a16.524,16.524,0,0,1,.5,1.59h.043a12.009,12.009,0,0,1,.373-1.179q.314-.894,1.41-3.9h.956L78.88,0Zm6.907-5.994a3.489,3.489,0,0,1,.7.064l-.124.827a3.037,3.037,0,0,0-.645-.081,1.569,1.569,0,0,0-1.222.58,2.115,2.115,0,0,0-.508,1.445V0H82.06V-5.887H82.8l.1,1.09h.043a2.588,2.588,0,0,1,.79-.886A1.777,1.777,0,0,1,84.745-5.994Zm6.886,3.045A3.247,3.247,0,0,1,90.906-.7a2.554,2.554,0,0,1-2,.808,2.653,2.653,0,0,1-1.4-.371,2.446,2.446,0,0,1-.945-1.063,3.706,3.706,0,0,1-.333-1.622,3.242,3.242,0,0,1,.72-2.242,2.545,2.545,0,0,1,2-.8,2.49,2.49,0,0,1,1.963.822A3.233,3.233,0,0,1,91.631-2.949Zm-4.485,0A2.794,2.794,0,0,0,87.6-1.23a1.566,1.566,0,0,0,1.327.591,1.577,1.577,0,0,0,1.329-.588,2.78,2.78,0,0,0,.454-1.721,2.735,2.735,0,0,0-.454-1.705,1.6,1.6,0,0,0-1.34-.583,1.569,1.569,0,0,0-1.321.575A2.766,2.766,0,0,0,87.146-2.949ZM97.222,0V-3.808a1.536,1.536,0,0,0-.328-1.074,1.335,1.335,0,0,0-1.026-.354,1.692,1.692,0,0,0-1.354.5,2.522,2.522,0,0,0-.43,1.649V0h-.892V-5.887h.725l.145.806h.043a1.821,1.821,0,0,1,.768-.674,2.5,2.5,0,0,1,1.1-.239,2.236,2.236,0,0,1,1.6.513,2.183,2.183,0,0,1,.537,1.641V0Z" transform="translate(598 116)"/>
    <path id="_20-3" data-name="20" class="cls-10" d="M5.511-2.089A1.926,1.926,0,0,1,4.759-.473a3.26,3.26,0,0,1-2.041.58A5.112,5.112,0,0,1,.569-.252v-.881a5.656,5.656,0,0,0,1.053.322A5.539,5.539,0,0,0,2.75-.693a2.276,2.276,0,0,0,1.375-.346A1.137,1.137,0,0,0,4.587-2a1.238,1.238,0,0,0-.164-.669,1.522,1.522,0,0,0-.548-.481,7.664,7.664,0,0,0-1.168-.5,3.729,3.729,0,0,1-1.566-.929,2.051,2.051,0,0,1-.47-1.4,1.743,1.743,0,0,1,.682-1.445,2.835,2.835,0,0,1,1.8-.537,5.319,5.319,0,0,1,2.154.43l-.285.795a4.867,4.867,0,0,0-1.891-.408A1.83,1.83,0,0,0,2-6.837a1.027,1.027,0,0,0-.408.865,1.325,1.325,0,0,0,.15.669,1.416,1.416,0,0,0,.508.478,6.306,6.306,0,0,0,1.093.481,4.327,4.327,0,0,1,1.7.945A1.859,1.859,0,0,1,5.511-2.089ZM9.335.107A2.512,2.512,0,0,1,7.356-.679a3.236,3.236,0,0,1-.7-2.226,3.337,3.337,0,0,1,.712-2.283,2.562,2.562,0,0,1,2.028-.806,4.024,4.024,0,0,1,.849.091,2.8,2.8,0,0,1,.666.215l-.274.757a4.192,4.192,0,0,0-.645-.2A2.878,2.878,0,0,0,9.373-5.2q-1.794,0-1.794,2.288a2.724,2.724,0,0,0,.438,1.665,1.523,1.523,0,0,0,1.3.58,3.966,3.966,0,0,0,1.509-.317V-.2A3.217,3.217,0,0,1,9.335.107Zm5.57-6.1a3.489,3.489,0,0,1,.7.064l-.124.827a3.037,3.037,0,0,0-.645-.081,1.569,1.569,0,0,0-1.222.58,2.115,2.115,0,0,0-.508,1.445V0h-.892V-5.887h.736l.1,1.09H13.1a2.588,2.588,0,0,1,.79-.886A1.777,1.777,0,0,1,14.9-5.994Zm6.886,3.045A3.247,3.247,0,0,1,21.065-.7a2.554,2.554,0,0,1-2,.808,2.653,2.653,0,0,1-1.4-.371,2.446,2.446,0,0,1-.945-1.063,3.706,3.706,0,0,1-.333-1.622,3.242,3.242,0,0,1,.72-2.242,2.545,2.545,0,0,1,2-.8,2.49,2.49,0,0,1,1.963.822A3.233,3.233,0,0,1,21.791-2.949Zm-4.485,0a2.794,2.794,0,0,0,.451,1.719,1.566,1.566,0,0,0,1.327.591,1.576,1.576,0,0,0,1.329-.588,2.78,2.78,0,0,0,.454-1.721,2.735,2.735,0,0,0-.454-1.705,1.6,1.6,0,0,0-1.34-.583,1.569,1.569,0,0,0-1.321.575A2.766,2.766,0,0,0,17.306-2.949ZM24.245,0h-.892V-8.357h.892Zm2.782,0h-.892V-8.357h.892Zm4.63-5.983a2.189,2.189,0,0,1,1.8.792A3.477,3.477,0,0,1,34.1-2.949,3.5,3.5,0,0,1,33.454-.7a2.18,2.18,0,0,1-1.8.8A2.548,2.548,0,0,1,30.607-.1a1.975,1.975,0,0,1-.8-.653h-.064L29.557,0h-.639V-8.357h.892v2.03q0,.682-.043,1.225h.043A2.117,2.117,0,0,1,31.657-5.983Zm-.129.747a1.557,1.557,0,0,0-1.316.524,2.954,2.954,0,0,0-.4,1.764,2.946,2.946,0,0,0,.414,1.775,1.573,1.573,0,0,0,1.327.534,1.375,1.375,0,0,0,1.225-.6,3.078,3.078,0,0,0,.4-1.721,2.958,2.958,0,0,0-.4-1.713A1.428,1.428,0,0,0,31.528-5.237ZM39.279,0,39.1-.838h-.043a2.477,2.477,0,0,1-.878.749,2.677,2.677,0,0,1-1.093.2,1.966,1.966,0,0,1-1.372-.451,1.646,1.646,0,0,1-.5-1.284q0-1.783,2.852-1.869l1-.032v-.365a1.492,1.492,0,0,0-.3-1.023,1.226,1.226,0,0,0-.953-.33,3.885,3.885,0,0,0-1.665.451l-.274-.682a4.19,4.19,0,0,1,.953-.371,4.129,4.129,0,0,1,1.039-.134,2.242,2.242,0,0,1,1.56.467,1.95,1.95,0,0,1,.508,1.5V0ZM37.265-.628a1.81,1.81,0,0,0,1.308-.457,1.689,1.689,0,0,0,.475-1.278V-2.9l-.892.038a3.243,3.243,0,0,0-1.533.33,1,1,0,0,0-.47.91.919.919,0,0,0,.293.736A1.215,1.215,0,0,0,37.265-.628Zm7.2-5.366a3.489,3.489,0,0,1,.7.064l-.124.827a3.037,3.037,0,0,0-.645-.081,1.569,1.569,0,0,0-1.222.58,2.115,2.115,0,0,0-.508,1.445V0h-.892V-5.887h.736l.1,1.09h.043a2.588,2.588,0,0,1,.79-.886A1.777,1.777,0,0,1,44.462-5.994Z" transform="translate(598 194)"/>
    <path id="_20-4" data-name="20" class="cls-10" d="M-50.273-3.937a4.323,4.323,0,0,1-.953,2.965A3.352,3.352,0,0,1-53.877.107,3.394,3.394,0,0,1-56.555-.953,4.358,4.358,0,0,1-57.5-3.948a4.3,4.3,0,0,1,.945-2.973,3.418,3.418,0,0,1,2.686-1.055A3.345,3.345,0,0,1-51.224-6.9,4.319,4.319,0,0,1-50.273-3.937Zm-6.257,0a3.727,3.727,0,0,0,.679,2.42,2.411,2.411,0,0,0,1.974.824,2.388,2.388,0,0,0,1.971-.822,3.779,3.779,0,0,0,.666-2.422,3.749,3.749,0,0,0-.663-2.4,2.377,2.377,0,0,0-1.963-.819,2.423,2.423,0,0,0-1.985.824A3.689,3.689,0,0,0-56.531-3.937ZM-45.917.107A2.548,2.548,0,0,1-46.968-.1a1.975,1.975,0,0,1-.8-.653h-.064a7.9,7.9,0,0,1,.064.978V2.643h-.892V-5.887h.725l.124.806h.043a2.071,2.071,0,0,1,.8-.7,2.433,2.433,0,0,1,1.047-.215,2.176,2.176,0,0,1,1.807.8,3.523,3.523,0,0,1,.636,2.245A3.5,3.5,0,0,1-44.121-.7,2.18,2.18,0,0,1-45.917.107Zm-.129-5.344a1.58,1.58,0,0,0-1.305.5,2.57,2.57,0,0,0-.414,1.59v.2a2.946,2.946,0,0,0,.414,1.775,1.573,1.573,0,0,0,1.327.534,1.379,1.379,0,0,0,1.2-.618,2.929,2.929,0,0,0,.432-1.7,2.819,2.819,0,0,0-.432-1.689A1.422,1.422,0,0,0-46.046-5.237Zm6.032,4.608a2.913,2.913,0,0,0,.457-.035,2.955,2.955,0,0,0,.349-.073v.682a1.63,1.63,0,0,1-.427.115,3.207,3.207,0,0,1-.508.046q-1.708,0-1.708-1.8v-3.5h-.843v-.43l.843-.371.376-1.257h.516v1.364h1.708v.693H-40.96v3.464a1.192,1.192,0,0,0,.252.816A.878.878,0,0,0-40.015-.628ZM-37.141,0h-.892V-5.887h.892Zm-.967-7.482a.592.592,0,0,1,.15-.448.526.526,0,0,1,.376-.142.525.525,0,0,1,.371.145.581.581,0,0,1,.156.446.591.591,0,0,1-.156.448.52.52,0,0,1-.371.148.515.515,0,0,1-.376-.148A.6.6,0,0,1-38.108-7.482Zm7.938,4.533A3.247,3.247,0,0,1-30.895-.7a2.554,2.554,0,0,1-2,.808,2.653,2.653,0,0,1-1.4-.371,2.446,2.446,0,0,1-.945-1.063,3.706,3.706,0,0,1-.333-1.622,3.242,3.242,0,0,1,.72-2.242,2.545,2.545,0,0,1,2-.8,2.49,2.49,0,0,1,1.963.822A3.233,3.233,0,0,1-30.169-2.949Zm-4.485,0A2.794,2.794,0,0,0-34.2-1.23a1.566,1.566,0,0,0,1.327.591,1.576,1.576,0,0,0,1.329-.588,2.78,2.78,0,0,0,.454-1.721,2.735,2.735,0,0,0-.454-1.705,1.6,1.6,0,0,0-1.34-.583,1.569,1.569,0,0,0-1.321.575A2.766,2.766,0,0,0-34.654-2.949ZM-24.578,0V-3.808a1.536,1.536,0,0,0-.328-1.074,1.335,1.335,0,0,0-1.026-.354,1.692,1.692,0,0,0-1.354.5,2.522,2.522,0,0,0-.43,1.649V0h-.892V-5.887h.725l.145.806h.043a1.821,1.821,0,0,1,.768-.674,2.5,2.5,0,0,1,1.1-.239,2.236,2.236,0,0,1,1.6.513,2.183,2.183,0,0,1,.537,1.641V0Zm6.521-1.606A1.475,1.475,0,0,1-18.67-.338a2.878,2.878,0,0,1-1.719.446,3.737,3.737,0,0,1-1.826-.371V-1.09a4.416,4.416,0,0,0,.91.338,3.8,3.8,0,0,0,.937.124,2.125,2.125,0,0,0,1.074-.223.737.737,0,0,0,.376-.679.737.737,0,0,0-.3-.588A4.689,4.689,0,0,0-20.378-2.7a6.306,6.306,0,0,1-1.168-.534,1.6,1.6,0,0,1-.516-.518,1.352,1.352,0,0,1-.169-.693,1.321,1.321,0,0,1,.585-1.136,2.728,2.728,0,0,1,1.606-.416,4.7,4.7,0,0,1,1.858.387l-.317.725A4.266,4.266,0,0,0-20.1-5.248a1.848,1.848,0,0,0-.956.2.614.614,0,0,0-.322.548.667.667,0,0,0,.121.4,1.193,1.193,0,0,0,.389.317,8.7,8.7,0,0,0,1.031.435,3.853,3.853,0,0,1,1.415.768A1.354,1.354,0,0,1-18.058-1.606ZM-12.858,0h-.892V-8.357h.892Zm2.782,0h-.892V-5.887h.892Zm-.967-7.482a.592.592,0,0,1,.15-.448.526.526,0,0,1,.376-.142.525.525,0,0,1,.371.145.581.581,0,0,1,.156.446.591.591,0,0,1-.156.448.52.52,0,0,1-.371.148.515.515,0,0,1-.376-.148A.6.6,0,0,1-11.043-7.482Zm6.655,5.876A1.475,1.475,0,0,1-5-.338,2.878,2.878,0,0,1-6.719.107,3.737,3.737,0,0,1-8.545-.263V-1.09a4.416,4.416,0,0,0,.91.338A3.8,3.8,0,0,0-6.7-.628,2.125,2.125,0,0,0-5.624-.851a.737.737,0,0,0,.376-.679.737.737,0,0,0-.3-.588A4.689,4.689,0,0,0-6.708-2.7a6.306,6.306,0,0,1-1.168-.534,1.6,1.6,0,0,1-.516-.518,1.352,1.352,0,0,1-.169-.693,1.321,1.321,0,0,1,.585-1.136A2.728,2.728,0,0,1-6.37-5.994a4.7,4.7,0,0,1,1.858.387l-.317.725a4.266,4.266,0,0,0-1.606-.365,1.848,1.848,0,0,0-.956.2.614.614,0,0,0-.322.548.667.667,0,0,0,.121.4,1.193,1.193,0,0,0,.389.317,8.7,8.7,0,0,0,1.031.435,3.853,3.853,0,0,1,1.415.768A1.354,1.354,0,0,1-4.388-1.606Zm3.352.978A2.913,2.913,0,0,0-.58-.663,2.955,2.955,0,0,0-.231-.736v.682A1.63,1.63,0,0,1-.658.062a3.207,3.207,0,0,1-.508.046q-1.708,0-1.708-1.8v-3.5h-.843v-.43l.843-.371L-2.5-7.251h.516v1.364H-.274v.693H-1.982v3.464a1.192,1.192,0,0,0,.252.816A.878.878,0,0,0-1.037-.628Z" transform="translate(152 288)"/>
    <path id="_20-5" data-name="20" class="cls-10" d="M-73.987-2.089a1.926,1.926,0,0,1-.752,1.617,3.261,3.261,0,0,1-2.041.58,5.112,5.112,0,0,1-2.148-.36v-.881a5.656,5.656,0,0,0,1.053.322,5.539,5.539,0,0,0,1.128.118,2.276,2.276,0,0,0,1.375-.346A1.137,1.137,0,0,0-74.911-2a1.238,1.238,0,0,0-.164-.669,1.522,1.522,0,0,0-.548-.481,7.664,7.664,0,0,0-1.168-.5,3.729,3.729,0,0,1-1.566-.929,2.051,2.051,0,0,1-.47-1.4,1.743,1.743,0,0,1,.682-1.445,2.835,2.835,0,0,1,1.8-.537,5.319,5.319,0,0,1,2.154.43l-.285.795a4.867,4.867,0,0,0-1.891-.408,1.83,1.83,0,0,0-1.133.312,1.027,1.027,0,0,0-.408.865,1.325,1.325,0,0,0,.15.669,1.416,1.416,0,0,0,.508.478,6.306,6.306,0,0,0,1.093.481,4.327,4.327,0,0,1,1.7.945A1.859,1.859,0,0,1-73.987-2.089Zm3.958,2.2a2.7,2.7,0,0,1-2.06-.795A3.077,3.077,0,0,1-72.843-2.9a3.413,3.413,0,0,1,.7-2.261,2.328,2.328,0,0,1,1.883-.838,2.22,2.22,0,0,1,1.751.728,2.789,2.789,0,0,1,.645,1.92v.564h-4.055A2.333,2.333,0,0,0-71.4-1.208,1.811,1.811,0,0,0-70-.671a4.741,4.741,0,0,0,1.88-.4v.795a4.718,4.718,0,0,1-.894.293A5.026,5.026,0,0,1-70.028.107Zm-.242-5.355a1.456,1.456,0,0,0-1.131.462,2.129,2.129,0,0,0-.5,1.278h3.078A1.96,1.96,0,0,0-69.2-4.8,1.323,1.323,0,0,0-70.27-5.248ZM-65.452,0h-.892V-8.357h.892Zm4.377.107a2.7,2.7,0,0,1-2.06-.795A3.077,3.077,0,0,1-63.889-2.9a3.413,3.413,0,0,1,.7-2.261,2.328,2.328,0,0,1,1.883-.838,2.22,2.22,0,0,1,1.751.728,2.789,2.789,0,0,1,.645,1.92v.564h-4.055a2.333,2.333,0,0,0,.524,1.574,1.811,1.811,0,0,0,1.4.537,4.741,4.741,0,0,0,1.88-.4v.795a4.718,4.718,0,0,1-.894.293A5.026,5.026,0,0,1-61.075.107Zm-.242-5.355a1.456,1.456,0,0,0-1.131.462,2.129,2.129,0,0,0-.5,1.278h3.078A1.96,1.96,0,0,0-60.242-4.8,1.323,1.323,0,0,0-61.316-5.248ZM-55.038.107a2.512,2.512,0,0,1-1.979-.787,3.236,3.236,0,0,1-.7-2.226,3.337,3.337,0,0,1,.712-2.283,2.562,2.562,0,0,1,2.028-.806,4.024,4.024,0,0,1,.849.091,2.8,2.8,0,0,1,.666.215l-.274.757a4.192,4.192,0,0,0-.645-.2A2.878,2.878,0,0,0-55-5.2q-1.794,0-1.794,2.288a2.724,2.724,0,0,0,.438,1.665,1.523,1.523,0,0,0,1.3.58A3.966,3.966,0,0,0-53.55-.988V-.2A3.217,3.217,0,0,1-55.038.107Zm4.786-.736A2.913,2.913,0,0,0-49.8-.663a2.955,2.955,0,0,0,.349-.073v.682a1.63,1.63,0,0,1-.427.115,3.207,3.207,0,0,1-.508.046q-1.708,0-1.708-1.8v-3.5h-.843v-.43l.843-.371.376-1.257h.516v1.364h1.708v.693H-51.2v3.464a1.192,1.192,0,0,0,.252.816A.878.878,0,0,0-50.252-.628Zm4.469.736a2.7,2.7,0,0,1-2.06-.795A3.077,3.077,0,0,1-48.6-2.9a3.413,3.413,0,0,1,.7-2.261,2.328,2.328,0,0,1,1.883-.838,2.22,2.22,0,0,1,1.751.728,2.789,2.789,0,0,1,.645,1.92v.564h-4.055a2.333,2.333,0,0,0,.524,1.574,1.811,1.811,0,0,0,1.4.537,4.741,4.741,0,0,0,1.88-.4v.795a4.718,4.718,0,0,1-.894.293A5.026,5.026,0,0,1-45.783.107Zm-.242-5.355a1.456,1.456,0,0,0-1.131.462,2.129,2.129,0,0,0-.5,1.278h3.078A1.96,1.96,0,0,0-44.951-4.8,1.323,1.323,0,0,0-46.025-5.248ZM-38.092-.79h-.048a2.1,2.1,0,0,1-1.848.9,2.186,2.186,0,0,1-1.8-.79,3.475,3.475,0,0,1-.642-2.245,3.534,3.534,0,0,1,.645-2.261,2.169,2.169,0,0,1,1.794-.806,2.141,2.141,0,0,1,1.837.87h.07l-.038-.424-.021-.414v-2.4h.892V0h-.725Zm-1.783.15a1.623,1.623,0,0,0,1.324-.5,2.51,2.51,0,0,0,.411-1.6v-.188a2.954,2.954,0,0,0-.416-1.786,1.581,1.581,0,0,0-1.329-.534,1.365,1.365,0,0,0-1.2.61A3.031,3.031,0,0,0-41.5-2.917a2.906,2.906,0,0,0,.414,1.7A1.4,1.4,0,0,0-39.875-.639Zm12.456-2.31A3.247,3.247,0,0,1-28.145-.7a2.554,2.554,0,0,1-2,.808,2.653,2.653,0,0,1-1.4-.371A2.446,2.446,0,0,1-32.5-1.327a3.706,3.706,0,0,1-.333-1.622,3.242,3.242,0,0,1,.72-2.242,2.545,2.545,0,0,1,2-.8,2.49,2.49,0,0,1,1.963.822A3.233,3.233,0,0,1-27.419-2.949Zm-4.485,0a2.794,2.794,0,0,0,.451,1.719,1.566,1.566,0,0,0,1.327.591A1.576,1.576,0,0,0-28.8-1.227a2.78,2.78,0,0,0,.454-1.721A2.735,2.735,0,0,0-28.8-4.654a1.6,1.6,0,0,0-1.34-.583,1.569,1.569,0,0,0-1.321.575A2.766,2.766,0,0,0-31.9-2.949ZM-23.117.107A2.548,2.548,0,0,1-24.167-.1a1.975,1.975,0,0,1-.8-.653h-.064a7.9,7.9,0,0,1,.064.978V2.643h-.892V-5.887h.725l.124.806h.043a2.071,2.071,0,0,1,.8-.7,2.433,2.433,0,0,1,1.047-.215,2.176,2.176,0,0,1,1.807.8,3.523,3.523,0,0,1,.636,2.245A3.5,3.5,0,0,1-21.321-.7,2.18,2.18,0,0,1-23.117.107Zm-.129-5.344a1.58,1.58,0,0,0-1.305.5,2.57,2.57,0,0,0-.414,1.59v.2a2.946,2.946,0,0,0,.414,1.775,1.573,1.573,0,0,0,1.327.534,1.379,1.379,0,0,0,1.2-.618,2.929,2.929,0,0,0,.432-1.7,2.819,2.819,0,0,0-.432-1.689A1.422,1.422,0,0,0-23.246-5.237Zm6.032,4.608a2.913,2.913,0,0,0,.457-.035,2.955,2.955,0,0,0,.349-.073v.682a1.63,1.63,0,0,1-.427.115,3.207,3.207,0,0,1-.508.046q-1.708,0-1.708-1.8v-3.5h-.843v-.43l.843-.371.376-1.257h.516v1.364h1.708v.693H-18.16v3.464a1.192,1.192,0,0,0,.252.816A.878.878,0,0,0-17.214-.628ZM-14.341,0h-.892V-5.887h.892Zm-.967-7.482a.592.592,0,0,1,.15-.448.526.526,0,0,1,.376-.142.525.525,0,0,1,.371.145.581.581,0,0,1,.156.446.591.591,0,0,1-.156.448.52.52,0,0,1-.371.148.515.515,0,0,1-.376-.148A.6.6,0,0,1-15.308-7.482Zm7.938,4.533A3.247,3.247,0,0,1-8.094-.7a2.554,2.554,0,0,1-2,.808,2.653,2.653,0,0,1-1.4-.371,2.446,2.446,0,0,1-.945-1.063,3.706,3.706,0,0,1-.333-1.622,3.242,3.242,0,0,1,.72-2.242,2.545,2.545,0,0,1,2-.8A2.49,2.49,0,0,1-8.1-5.172,3.233,3.233,0,0,1-7.369-2.949Zm-4.485,0A2.794,2.794,0,0,0-11.4-1.23a1.566,1.566,0,0,0,1.327.591,1.576,1.576,0,0,0,1.329-.588,2.78,2.78,0,0,0,.454-1.721,2.735,2.735,0,0,0-.454-1.705,1.6,1.6,0,0,0-1.34-.583,1.569,1.569,0,0,0-1.321.575A2.766,2.766,0,0,0-11.854-2.949ZM-1.778,0V-3.808a1.536,1.536,0,0,0-.328-1.074,1.335,1.335,0,0,0-1.026-.354,1.692,1.692,0,0,0-1.354.5,2.522,2.522,0,0,0-.43,1.649V0h-.892V-5.887h.725l.145.806h.043a1.821,1.821,0,0,1,.768-.674,2.5,2.5,0,0,1,1.1-.239,2.236,2.236,0,0,1,1.6.513A2.183,2.183,0,0,1-.886-3.84V0Z" transform="translate(152 199)"/>
    <path id="_20-6" data-name="20" class="cls-10" d="M-27.473-3.937a4.323,4.323,0,0,1-.953,2.965A3.352,3.352,0,0,1-31.077.107,3.394,3.394,0,0,1-33.755-.953,4.358,4.358,0,0,1-34.7-3.948a4.3,4.3,0,0,1,.945-2.973,3.418,3.418,0,0,1,2.686-1.055A3.345,3.345,0,0,1-28.424-6.9,4.319,4.319,0,0,1-27.473-3.937Zm-6.257,0a3.727,3.727,0,0,0,.679,2.42,2.411,2.411,0,0,0,1.974.824,2.388,2.388,0,0,0,1.971-.822,3.779,3.779,0,0,0,.666-2.422,3.749,3.749,0,0,0-.663-2.4,2.377,2.377,0,0,0-1.963-.819,2.423,2.423,0,0,0-1.985.824A3.689,3.689,0,0,0-33.73-3.937ZM-23.117.107A2.548,2.548,0,0,1-24.167-.1a1.975,1.975,0,0,1-.8-.653h-.064a7.9,7.9,0,0,1,.064.978V2.643h-.892V-5.887h.725l.124.806h.043a2.071,2.071,0,0,1,.8-.7,2.433,2.433,0,0,1,1.047-.215,2.176,2.176,0,0,1,1.807.8,3.523,3.523,0,0,1,.636,2.245A3.5,3.5,0,0,1-21.321-.7,2.18,2.18,0,0,1-23.117.107Zm-.129-5.344a1.58,1.58,0,0,0-1.305.5,2.57,2.57,0,0,0-.414,1.59v.2a2.946,2.946,0,0,0,.414,1.775,1.573,1.573,0,0,0,1.327.534,1.379,1.379,0,0,0,1.2-.618,2.929,2.929,0,0,0,.432-1.7,2.819,2.819,0,0,0-.432-1.689A1.422,1.422,0,0,0-23.246-5.237Zm6.032,4.608a2.913,2.913,0,0,0,.457-.035,2.955,2.955,0,0,0,.349-.073v.682a1.63,1.63,0,0,1-.427.115,3.207,3.207,0,0,1-.508.046q-1.708,0-1.708-1.8v-3.5h-.843v-.43l.843-.371.376-1.257h.516v1.364h1.708v.693H-18.16v3.464a1.192,1.192,0,0,0,.252.816A.878.878,0,0,0-17.214-.628ZM-14.341,0h-.892V-5.887h.892Zm-.967-7.482a.592.592,0,0,1,.15-.448.526.526,0,0,1,.376-.142.525.525,0,0,1,.371.145.581.581,0,0,1,.156.446.591.591,0,0,1-.156.448.52.52,0,0,1-.371.148.515.515,0,0,1-.376-.148A.6.6,0,0,1-15.308-7.482Zm7.938,4.533A3.247,3.247,0,0,1-8.094-.7a2.554,2.554,0,0,1-2,.808,2.653,2.653,0,0,1-1.4-.371,2.446,2.446,0,0,1-.945-1.063,3.706,3.706,0,0,1-.333-1.622,3.242,3.242,0,0,1,.72-2.242,2.545,2.545,0,0,1,2-.8A2.49,2.49,0,0,1-8.1-5.172,3.233,3.233,0,0,1-7.369-2.949Zm-4.485,0A2.794,2.794,0,0,0-11.4-1.23a1.566,1.566,0,0,0,1.327.591,1.576,1.576,0,0,0,1.329-.588,2.78,2.78,0,0,0,.454-1.721,2.735,2.735,0,0,0-.454-1.705,1.6,1.6,0,0,0-1.34-.583,1.569,1.569,0,0,0-1.321.575A2.766,2.766,0,0,0-11.854-2.949ZM-1.778,0V-3.808a1.536,1.536,0,0,0-.328-1.074,1.335,1.335,0,0,0-1.026-.354,1.692,1.692,0,0,0-1.354.5,2.522,2.522,0,0,0-.43,1.649V0h-.892V-5.887h.725l.145.806h.043a1.821,1.821,0,0,1,.768-.674,2.5,2.5,0,0,1,1.1-.239,2.236,2.236,0,0,1,1.6.513A2.183,2.183,0,0,1-.886-3.84V0Z" transform="translate(152 343)"/>
    <path id="_20-7" data-name="20" class="cls-10" d="M-40.949-2.089A1.926,1.926,0,0,1-41.7-.473a3.26,3.26,0,0,1-2.041.58,5.112,5.112,0,0,1-2.148-.36v-.881a5.656,5.656,0,0,0,1.053.322,5.539,5.539,0,0,0,1.128.118,2.276,2.276,0,0,0,1.375-.346A1.137,1.137,0,0,0-41.873-2a1.238,1.238,0,0,0-.164-.669,1.522,1.522,0,0,0-.548-.481,7.664,7.664,0,0,0-1.168-.5,3.729,3.729,0,0,1-1.566-.929,2.051,2.051,0,0,1-.47-1.4,1.743,1.743,0,0,1,.682-1.445,2.835,2.835,0,0,1,1.8-.537,5.319,5.319,0,0,1,2.154.43l-.285.795a4.867,4.867,0,0,0-1.891-.408,1.83,1.83,0,0,0-1.133.312,1.027,1.027,0,0,0-.408.865,1.325,1.325,0,0,0,.15.669,1.416,1.416,0,0,0,.508.478,6.306,6.306,0,0,0,1.093.481,4.327,4.327,0,0,1,1.7.945A1.859,1.859,0,0,1-40.949-2.089Zm3.958,2.2a2.7,2.7,0,0,1-2.06-.795A3.077,3.077,0,0,1-39.805-2.9a3.413,3.413,0,0,1,.7-2.261,2.328,2.328,0,0,1,1.883-.838,2.22,2.22,0,0,1,1.751.728,2.789,2.789,0,0,1,.645,1.92v.564h-4.055a2.333,2.333,0,0,0,.524,1.574,1.811,1.811,0,0,0,1.4.537,4.741,4.741,0,0,0,1.88-.4v.795a4.718,4.718,0,0,1-.894.293A5.026,5.026,0,0,1-36.991.107Zm-.242-5.355a1.456,1.456,0,0,0-1.131.462,2.129,2.129,0,0,0-.5,1.278h3.078A1.96,1.96,0,0,0-36.158-4.8,1.323,1.323,0,0,0-37.232-5.248ZM-32.415,0h-.892V-8.357h.892Zm4.377.107A2.7,2.7,0,0,1-30.1-.687,3.077,3.077,0,0,1-30.852-2.9a3.413,3.413,0,0,1,.7-2.261,2.328,2.328,0,0,1,1.883-.838,2.22,2.22,0,0,1,1.751.728,2.789,2.789,0,0,1,.645,1.92v.564h-4.055A2.333,2.333,0,0,0-29.4-1.208,1.811,1.811,0,0,0-28-.671a4.741,4.741,0,0,0,1.88-.4v.795a4.718,4.718,0,0,1-.894.293A5.026,5.026,0,0,1-28.037.107Zm-.242-5.355a1.456,1.456,0,0,0-1.131.462,2.129,2.129,0,0,0-.5,1.278h3.078A1.96,1.96,0,0,0-27.2-4.8,1.323,1.323,0,0,0-28.279-5.248ZM-22,.107a2.512,2.512,0,0,1-1.979-.787,3.236,3.236,0,0,1-.7-2.226,3.337,3.337,0,0,1,.712-2.283,2.562,2.562,0,0,1,2.028-.806,4.024,4.024,0,0,1,.849.091,2.8,2.8,0,0,1,.666.215l-.274.757a4.192,4.192,0,0,0-.645-.2,2.878,2.878,0,0,0-.618-.078q-1.794,0-1.794,2.288a2.724,2.724,0,0,0,.438,1.665,1.523,1.523,0,0,0,1.3.58,3.966,3.966,0,0,0,1.509-.317V-.2A3.217,3.217,0,0,1-22,.107Zm4.786-.736a2.913,2.913,0,0,0,.457-.035,2.955,2.955,0,0,0,.349-.073v.682a1.63,1.63,0,0,1-.427.115,3.207,3.207,0,0,1-.508.046q-1.708,0-1.708-1.8v-3.5h-.843v-.43l.843-.371.376-1.257h.516v1.364h1.708v.693H-18.16v3.464a1.192,1.192,0,0,0,.252.816A.878.878,0,0,0-17.214-.628ZM-14.341,0h-.892V-5.887h.892Zm-.967-7.482a.592.592,0,0,1,.15-.448.526.526,0,0,1,.376-.142.525.525,0,0,1,.371.145.581.581,0,0,1,.156.446.591.591,0,0,1-.156.448.52.52,0,0,1-.371.148.515.515,0,0,1-.376-.148A.6.6,0,0,1-15.308-7.482Zm7.938,4.533A3.247,3.247,0,0,1-8.094-.7a2.554,2.554,0,0,1-2,.808,2.653,2.653,0,0,1-1.4-.371,2.446,2.446,0,0,1-.945-1.063,3.706,3.706,0,0,1-.333-1.622,3.242,3.242,0,0,1,.72-2.242,2.545,2.545,0,0,1,2-.8A2.49,2.49,0,0,1-8.1-5.172,3.233,3.233,0,0,1-7.369-2.949Zm-4.485,0A2.794,2.794,0,0,0-11.4-1.23a1.566,1.566,0,0,0,1.327.591,1.576,1.576,0,0,0,1.329-.588,2.78,2.78,0,0,0,.454-1.721,2.735,2.735,0,0,0-.454-1.705,1.6,1.6,0,0,0-1.34-.583,1.569,1.569,0,0,0-1.321.575A2.766,2.766,0,0,0-11.854-2.949ZM-1.778,0V-3.808a1.536,1.536,0,0,0-.328-1.074,1.335,1.335,0,0,0-1.026-.354,1.692,1.692,0,0,0-1.354.5,2.522,2.522,0,0,0-.43,1.649V0h-.892V-5.887h.725l.145.806h.043a1.821,1.821,0,0,1,.768-.674,2.5,2.5,0,0,1,1.1-.239,2.236,2.236,0,0,1,1.6.513A2.183,2.183,0,0,1-.886-3.84V0Z" transform="translate(152 119)"/>
    <path id="Rectangle_138" data-name="Rectangle 138" class="cls-10" d="M0,0H15V1H0Z" transform="translate(171 77) rotate(180)"/>
    <path id="Rectangle_138-2" data-name="Rectangle 138" class="cls-10" d="M0,0H29V1H0Z" transform="translate(565 111)"/>
    <path id="Rectangle_138-3" data-name="Rectangle 138" class="cls-10" d="M0,0H25V1H0Z" transform="translate(569 189)"/>
    <path id="Rectangle_138-4" data-name="Rectangle 138" class="cls-10" d="M0,0H19V1H0Z" transform="translate(156 283)"/>
    <path id="Rectangle_138-5" data-name="Rectangle 138" class="cls-10" d="M0,0H30V1H0Z" transform="translate(156 194)"/>
    <path id="Rectangle_138-6" data-name="Rectangle 138" class="cls-10" d="M0,0H30V1H0Z" transform="translate(156 338)"/>
    <path id="Rectangle_138-7" data-name="Rectangle 138" class="cls-10" d="M0,0H31V1H0Z" transform="translate(156 114)"/>
    <path id="_20-8" data-name="20" class="cls-10" d="M-26.114,0V-7.853h.913V0Zm6.961,0V-3.808a1.536,1.536,0,0,0-.328-1.074,1.335,1.335,0,0,0-1.026-.354,1.692,1.692,0,0,0-1.354.5,2.522,2.522,0,0,0-.43,1.649V0h-.892V-5.887h.725l.145.806h.043a1.821,1.821,0,0,1,.768-.674,2.5,2.5,0,0,1,1.1-.239,2.236,2.236,0,0,1,1.6.513,2.183,2.183,0,0,1,.537,1.641V0Zm5.462.107A2.548,2.548,0,0,1-14.741-.1a1.975,1.975,0,0,1-.8-.653H-15.6a7.9,7.9,0,0,1,.064.978V2.643h-.892V-5.887h.725l.124.806h.043a2.071,2.071,0,0,1,.8-.7,2.433,2.433,0,0,1,1.047-.215,2.176,2.176,0,0,1,1.807.8,3.523,3.523,0,0,1,.636,2.245A3.5,3.5,0,0,1-11.894-.7,2.18,2.18,0,0,1-13.691.107Zm-.129-5.344a1.58,1.58,0,0,0-1.305.5,2.57,2.57,0,0,0-.414,1.59v.2a2.946,2.946,0,0,0,.414,1.775A1.573,1.573,0,0,0-13.8-.639a1.379,1.379,0,0,0,1.2-.618,2.929,2.929,0,0,0,.432-1.7A2.819,2.819,0,0,0-12.6-4.649,1.422,1.422,0,0,0-13.82-5.237Zm4.968-.65v3.819A1.536,1.536,0,0,0-8.524-.994,1.335,1.335,0,0,0-7.5-.639a1.674,1.674,0,0,0,1.351-.5A2.547,2.547,0,0,0-5.72-2.793V-5.887h.892V0h-.736l-.129-.79h-.048a1.777,1.777,0,0,1-.76.666A2.554,2.554,0,0,1-7.611.107,2.25,2.25,0,0,1-9.219-.4a2.172,2.172,0,0,1-.534-1.633V-5.887ZM-1.037-.628A2.913,2.913,0,0,0-.58-.663,2.955,2.955,0,0,0-.231-.736v.682A1.63,1.63,0,0,1-.658.062a3.207,3.207,0,0,1-.508.046q-1.708,0-1.708-1.8v-3.5h-.843v-.43l.843-.371L-2.5-7.251h.516v1.364H-.274v.693H-1.982v3.464a1.192,1.192,0,0,0,.252.816A.878.878,0,0,0-1.037-.628Z" transform="translate(388 65)"/>
    <path id="Rectangle_138-8" data-name="Rectangle 138" class="cls-10" d="M0,0H19V1H0Z" transform="translate(375 72) rotate(90)"/>
    <path id="Path_7047" data-name="Path 7047" class="cls-8" d="M7.656,0,6.412-3.179H2.406L1.176,0H0L3.951-10.035h.978L8.859,0ZM6.05-4.225l-1.162-3.1q-.226-.588-.465-1.442a12.952,12.952,0,0,1-.431,1.442l-1.176,3.1ZM11.2,0H10.063V-10.637H11.2Zm7.014,0-.226-1.066h-.055a3.153,3.153,0,0,1-1.118.954,3.407,3.407,0,0,1-1.391.25,2.5,2.5,0,0,1-1.747-.574,2.094,2.094,0,0,1-.632-1.634q0-2.27,3.63-2.379l1.271-.041v-.465a1.9,1.9,0,0,0-.379-1.3,1.56,1.56,0,0,0-1.213-.42,4.944,4.944,0,0,0-2.119.574l-.349-.868A5.332,5.332,0,0,1,15.1-7.444a5.255,5.255,0,0,1,1.323-.171,2.854,2.854,0,0,1,1.986.595,2.482,2.482,0,0,1,.646,1.907V0ZM15.647-.8a2.3,2.3,0,0,0,1.665-.581,2.15,2.15,0,0,0,.6-1.627v-.677l-1.135.048a4.128,4.128,0,0,0-1.952.42,1.268,1.268,0,0,0-.6,1.159,1.169,1.169,0,0,0,.373.937A1.546,1.546,0,0,0,15.647-.8Zm9.229-6.815a2.785,2.785,0,0,1,2.293,1.008,4.426,4.426,0,0,1,.817,2.854,4.458,4.458,0,0,1-.824,2.868A2.774,2.774,0,0,1,24.876.137a3.242,3.242,0,0,1-1.336-.27,2.513,2.513,0,0,1-1.015-.831h-.082L22.2,0H21.39V-10.637h1.135v2.584q0,.868-.055,1.559h.055A2.694,2.694,0,0,1,24.876-7.615Zm-.164.95A1.981,1.981,0,0,0,23.037-6a3.76,3.76,0,0,0-.513,2.246,3.749,3.749,0,0,0,.526,2.259,2,2,0,0,0,1.688.68A1.75,1.75,0,0,0,26.3-1.576a3.917,3.917,0,0,0,.513-2.191A3.765,3.765,0,0,0,26.3-5.947,1.817,1.817,0,0,0,24.712-6.665ZM34.576,0l-.226-1.066H34.3a3.153,3.153,0,0,1-1.118.954,3.407,3.407,0,0,1-1.391.25,2.5,2.5,0,0,1-1.747-.574,2.094,2.094,0,0,1-.632-1.634q0-2.27,3.63-2.379l1.271-.041v-.465a1.9,1.9,0,0,0-.379-1.3,1.56,1.56,0,0,0-1.213-.42A4.944,4.944,0,0,0,30.6-6.1l-.349-.868a5.332,5.332,0,0,1,1.213-.472,5.255,5.255,0,0,1,1.323-.171,2.854,2.854,0,0,1,1.986.595,2.482,2.482,0,0,1,.646,1.907V0ZM32.013-.8a2.3,2.3,0,0,0,1.665-.581,2.15,2.15,0,0,0,.6-1.627v-.677l-1.135.048a4.128,4.128,0,0,0-1.952.42,1.268,1.268,0,0,0-.6,1.159,1.169,1.169,0,0,0,.373.937A1.546,1.546,0,0,0,32.013-.8ZM47.3,0V-4.874a2.023,2.023,0,0,0-.383-1.343,1.481,1.481,0,0,0-1.189-.448,1.92,1.92,0,0,0-1.565.608,2.891,2.891,0,0,0-.506,1.873V0H42.526V-4.874a2.023,2.023,0,0,0-.383-1.343,1.49,1.49,0,0,0-1.2-.448,1.853,1.853,0,0,0-1.562.639,3.459,3.459,0,0,0-.5,2.1V0H37.755V-7.492h.923l.185,1.025h.055a2.23,2.23,0,0,1,.906-.854,2.767,2.767,0,0,1,1.309-.308,2.226,2.226,0,0,1,2.3,1.271h.055a2.389,2.389,0,0,1,.971-.93A3.012,3.012,0,0,1,45.9-7.629a2.537,2.537,0,0,1,1.9.653,2.921,2.921,0,0,1,.632,2.088V0Zm8.08,0-.226-1.066H55.1a3.153,3.153,0,0,1-1.118.954A3.407,3.407,0,0,1,52.6.137a2.5,2.5,0,0,1-1.747-.574,2.094,2.094,0,0,1-.632-1.634q0-2.27,3.63-2.379l1.271-.041v-.465a1.9,1.9,0,0,0-.379-1.3,1.56,1.56,0,0,0-1.213-.42,4.944,4.944,0,0,0-2.119.574l-.349-.868a5.332,5.332,0,0,1,1.213-.472,5.255,5.255,0,0,1,1.323-.171,2.854,2.854,0,0,1,1.986.595,2.482,2.482,0,0,1,.646,1.907V0ZM52.821-.8a2.3,2.3,0,0,0,1.665-.581,2.15,2.15,0,0,0,.6-1.627v-.677l-1.135.048A4.128,4.128,0,0,0,52-3.216a1.268,1.268,0,0,0-.6,1.159,1.169,1.169,0,0,0,.373.937A1.546,1.546,0,0,0,52.821-.8Z" transform="translate(191 118)"/>
    <g id="Group_7970" data-name="Group 7970">
      <rect id="Rectangle_4862" data-name="Rectangle 4862" class="cls-4" width="24" height="24" transform="translate(516.5 100)"/>
      <path id="Union_9" data-name="Union 9" class="cls-5" d="M-1373.293-2255.636v-4h-4a1,1,0,0,1-1-1,1,1,0,0,1,1-1h4v-4a1,1,0,0,1,1-1,1,1,0,0,1,1,1v4h4a1,1,0,0,1,1,1,1,1,0,0,1-1,1h-4v4a1,1,0,0,1-1,1A1,1,0,0,1-1373.293-2255.636Z" transform="translate(3097.354 740.639) rotate(-45)"/>
    </g>
    <path id="_20-9" data-name="20" class="cls-10" d="M-88.064-3.266V0h-.913V-7.853h2.154a3.389,3.389,0,0,1,2.135.553A2.006,2.006,0,0,1-84-5.634a2.086,2.086,0,0,1-1.579,2.105L-83.445,0h-1.08l-1.9-3.266Zm0-.784h1.251A2.161,2.161,0,0,0-85.4-4.434a1.429,1.429,0,0,0,.451-1.152A1.311,1.311,0,0,0-85.4-6.708a2.488,2.488,0,0,0-1.474-.344h-1.187ZM-79.825.107a2.7,2.7,0,0,1-2.06-.795A3.077,3.077,0,0,1-82.64-2.9a3.413,3.413,0,0,1,.7-2.261,2.328,2.328,0,0,1,1.883-.838,2.22,2.22,0,0,1,1.751.728,2.789,2.789,0,0,1,.645,1.92v.564h-4.055a2.333,2.333,0,0,0,.524,1.574,1.811,1.811,0,0,0,1.4.537,4.741,4.741,0,0,0,1.88-.4v.795a4.718,4.718,0,0,1-.894.293A5.026,5.026,0,0,1-79.825.107Zm-.242-5.355a1.456,1.456,0,0,0-1.131.462,2.129,2.129,0,0,0-.5,1.278h3.078A1.96,1.96,0,0,0-78.993-4.8,1.323,1.323,0,0,0-80.067-5.248ZM-68.637,0V-3.83a1.59,1.59,0,0,0-.3-1.055,1.163,1.163,0,0,0-.935-.352,1.509,1.509,0,0,0-1.23.478,2.272,2.272,0,0,0-.4,1.472V0h-.892V-3.83a1.59,1.59,0,0,0-.3-1.055,1.17,1.17,0,0,0-.94-.352,1.456,1.456,0,0,0-1.227.5,2.718,2.718,0,0,0-.389,1.646V0h-.892V-5.887h.725l.145.806h.043a1.752,1.752,0,0,1,.712-.671,2.174,2.174,0,0,1,1.029-.242,1.749,1.749,0,0,1,1.8,1h.043a1.877,1.877,0,0,1,.763-.73,2.367,2.367,0,0,1,1.139-.269,1.993,1.993,0,0,1,1.5.513,2.3,2.3,0,0,1,.5,1.641V0Zm7.81-2.949A3.247,3.247,0,0,1-61.553-.7a2.554,2.554,0,0,1-2,.808,2.653,2.653,0,0,1-1.4-.371A2.446,2.446,0,0,1-65.9-1.327a3.706,3.706,0,0,1-.333-1.622,3.242,3.242,0,0,1,.72-2.242,2.545,2.545,0,0,1,2-.8,2.49,2.49,0,0,1,1.963.822A3.233,3.233,0,0,1-60.828-2.949Zm-4.485,0a2.794,2.794,0,0,0,.451,1.719,1.566,1.566,0,0,0,1.327.591,1.576,1.576,0,0,0,1.329-.588,2.78,2.78,0,0,0,.454-1.721,2.735,2.735,0,0,0-.454-1.705,1.6,1.6,0,0,0-1.34-.583,1.569,1.569,0,0,0-1.321.575A2.766,2.766,0,0,0-65.312-2.949ZM-57.976,0-60.21-5.887h.956L-57.986-2.4a16.524,16.524,0,0,1,.5,1.59h.043a12.008,12.008,0,0,1,.373-1.179q.314-.894,1.41-3.9h.956L-56.934,0Zm6.708.107a2.7,2.7,0,0,1-2.06-.795A3.077,3.077,0,0,1-54.082-2.9a3.413,3.413,0,0,1,.7-2.261A2.328,2.328,0,0,1-51.5-5.994a2.22,2.22,0,0,1,1.751.728,2.789,2.789,0,0,1,.645,1.92v.564h-4.055a2.333,2.333,0,0,0,.524,1.574,1.811,1.811,0,0,0,1.4.537,4.741,4.741,0,0,0,1.88-.4v.795a4.718,4.718,0,0,1-.894.293A5.026,5.026,0,0,1-51.267.107Zm-.242-5.355a1.456,1.456,0,0,0-1.131.462,2.129,2.129,0,0,0-.5,1.278h3.078A1.96,1.96,0,0,0-50.435-4.8,1.323,1.323,0,0,0-51.509-5.248Zm10.581,3.642A1.475,1.475,0,0,1-41.54-.338a2.878,2.878,0,0,1-1.719.446,3.737,3.737,0,0,1-1.826-.371V-1.09a4.416,4.416,0,0,0,.91.338,3.8,3.8,0,0,0,.937.124,2.125,2.125,0,0,0,1.074-.223.737.737,0,0,0,.376-.679.737.737,0,0,0-.3-.588A4.689,4.689,0,0,0-43.248-2.7a6.306,6.306,0,0,1-1.168-.534,1.6,1.6,0,0,1-.516-.518,1.352,1.352,0,0,1-.169-.693,1.321,1.321,0,0,1,.585-1.136,2.728,2.728,0,0,1,1.606-.416,4.7,4.7,0,0,1,1.858.387l-.317.725a4.266,4.266,0,0,0-1.606-.365,1.848,1.848,0,0,0-.956.2.614.614,0,0,0-.322.548.667.667,0,0,0,.121.4,1.193,1.193,0,0,0,.389.317,8.7,8.7,0,0,0,1.031.435,3.853,3.853,0,0,1,1.415.768A1.354,1.354,0,0,1-40.928-1.606ZM-36.991.107a2.7,2.7,0,0,1-2.06-.795A3.077,3.077,0,0,1-39.805-2.9a3.413,3.413,0,0,1,.7-2.261,2.328,2.328,0,0,1,1.883-.838,2.22,2.22,0,0,1,1.751.728,2.789,2.789,0,0,1,.645,1.92v.564h-4.055a2.333,2.333,0,0,0,.524,1.574,1.811,1.811,0,0,0,1.4.537,4.741,4.741,0,0,0,1.88-.4v.795a4.718,4.718,0,0,1-.894.293A5.026,5.026,0,0,1-36.991.107Zm-.242-5.355a1.456,1.456,0,0,0-1.131.462,2.129,2.129,0,0,0-.5,1.278h3.078A1.96,1.96,0,0,0-36.158-4.8,1.323,1.323,0,0,0-37.232-5.248ZM-32.415,0h-.892V-8.357h.892Zm4.377.107A2.7,2.7,0,0,1-30.1-.687,3.077,3.077,0,0,1-30.852-2.9a3.413,3.413,0,0,1,.7-2.261,2.328,2.328,0,0,1,1.883-.838,2.22,2.22,0,0,1,1.751.728,2.789,2.789,0,0,1,.645,1.92v.564h-4.055A2.333,2.333,0,0,0-29.4-1.208,1.811,1.811,0,0,0-28-.671a4.741,4.741,0,0,0,1.88-.4v.795a4.718,4.718,0,0,1-.894.293A5.026,5.026,0,0,1-28.037.107Zm-.242-5.355a1.456,1.456,0,0,0-1.131.462,2.129,2.129,0,0,0-.5,1.278h3.078A1.96,1.96,0,0,0-27.2-4.8,1.323,1.323,0,0,0-28.279-5.248ZM-22,.107a2.512,2.512,0,0,1-1.979-.787,3.236,3.236,0,0,1-.7-2.226,3.337,3.337,0,0,1,.712-2.283,2.562,2.562,0,0,1,2.028-.806,4.024,4.024,0,0,1,.849.091,2.8,2.8,0,0,1,.666.215l-.274.757a4.192,4.192,0,0,0-.645-.2,2.878,2.878,0,0,0-.618-.078q-1.794,0-1.794,2.288a2.724,2.724,0,0,0,.438,1.665,1.523,1.523,0,0,0,1.3.58,3.966,3.966,0,0,0,1.509-.317V-.2A3.217,3.217,0,0,1-22,.107Zm4.786-.736a2.913,2.913,0,0,0,.457-.035,2.955,2.955,0,0,0,.349-.073v.682a1.63,1.63,0,0,1-.427.115,3.207,3.207,0,0,1-.508.046q-1.708,0-1.708-1.8v-3.5h-.843v-.43l.843-.371.376-1.257h.516v1.364h1.708v.693H-18.16v3.464a1.192,1.192,0,0,0,.252.816A.878.878,0,0,0-17.214-.628ZM-14.341,0h-.892V-5.887h.892Zm-.967-7.482a.592.592,0,0,1,.15-.448.526.526,0,0,1,.376-.142.525.525,0,0,1,.371.145.581.581,0,0,1,.156.446.591.591,0,0,1-.156.448.52.52,0,0,1-.371.148.515.515,0,0,1-.376-.148A.6.6,0,0,1-15.308-7.482Zm7.938,4.533A3.247,3.247,0,0,1-8.094-.7a2.554,2.554,0,0,1-2,.808,2.653,2.653,0,0,1-1.4-.371,2.446,2.446,0,0,1-.945-1.063,3.706,3.706,0,0,1-.333-1.622,3.242,3.242,0,0,1,.72-2.242,2.545,2.545,0,0,1,2-.8A2.49,2.49,0,0,1-8.1-5.172,3.233,3.233,0,0,1-7.369-2.949Zm-4.485,0A2.794,2.794,0,0,0-11.4-1.23a1.566,1.566,0,0,0,1.327.591,1.576,1.576,0,0,0,1.329-.588,2.78,2.78,0,0,0,.454-1.721,2.735,2.735,0,0,0-.454-1.705,1.6,1.6,0,0,0-1.34-.583,1.569,1.569,0,0,0-1.321.575A2.766,2.766,0,0,0-11.854-2.949ZM-1.778,0V-3.808a1.536,1.536,0,0,0-.328-1.074,1.335,1.335,0,0,0-1.026-.354,1.692,1.692,0,0,0-1.354.5,2.522,2.522,0,0,0-.43,1.649V0h-.892V-5.887h.725l.145.806h.043a1.821,1.821,0,0,1,.768-.674,2.5,2.5,0,0,1,1.1-.239,2.236,2.236,0,0,1,1.6.513A2.183,2.183,0,0,1-.886-3.84V0Z" transform="translate(573 65)"/>
    <path id="Rectangle_138-9" data-name="Rectangle 138" class="cls-10" d="M0,0H28V1H0Z" transform="translate(529 72) rotate(90)"/>
  </g>
</svg>
