<svg xmlns="http://www.w3.org/2000/svg" xmlns:xlink="http://www.w3.org/1999/xlink" width="1280" height="372" viewBox="0 0 1280 372">
  <defs>
    <filter id="Rectangle_4037" x="310.5" y="237.5" width="909" height="185" filterUnits="userSpaceOnUse">
      <feOffset dy="1" input="SourceAlpha"/>
      <feGaussianBlur stdDeviation="1.5" result="blur"/>
      <feFlood flood-opacity="0.161"/>
      <feComposite operator="in" in2="blur"/>
      <feComposite in="SourceGraphic"/>
    </filter>
    <filter id="Path_5700" x="-4.5" y="61.5" width="258.5" height="316" filterUnits="userSpaceOnUse">
      <feOffset dy="1" input="SourceAlpha"/>
      <feGaussianBlur stdDeviation="1.5" result="blur-2"/>
      <feFlood flood-opacity="0.161"/>
      <feComposite operator="in" in2="blur-2"/>
      <feComposite in="SourceGraphic"/>
    </filter>
    <clipPath id="clip-path">
      <rect id="Rectangle_9751" data-name="Rectangle 9751" width="20" height="20" fill="none"/>
    </clipPath>
    <clipPath id="clip-with_Card">
      <rect width="1280" height="372"/>
    </clipPath>
  </defs>
  <g id="with_Card" clip-path="url(#clip-with_Card)">
    <rect width="1280" height="372" fill="#f9f9fa"/>
    <g transform="matrix(1, 0, 0, 1, 0, 0)" filter="url(#Rectangle_4037)">
      <rect id="Rectangle_4037-2" data-name="Rectangle 4037" width="900" height="176" transform="translate(315 241)" fill="#fff"/>
    </g>
    <text id="Page_Header" data-name="Page Header" transform="translate(316 124)" fill="#31313a" font-size="26" font-family="SegoeUI-Semibold, Segoe UI" font-weight="600"><tspan x="0" y="0">Page Header</tspan></text>
    <text id="Page_subheading_clarifying_sentence" data-name="Page subheading clarifying sentence" transform="translate(316 157)" fill="#31313a" font-size="14" font-family="SegoeUI, Segoe UI"><tspan x="0" y="0">Page subheading clarifying sentence</tspan></text>
    <text id="Best_practices_Tabs_provide_the_user_with_a_way_of_viewing_a_subset_of_the_information_in_a_given_section_of_content._Tabs_can_be_used_to_display_alternate_view_of_the_same_content_or_break_up_a_long_workflow_or_page_of_information_into_separate_buckets._" data-name="Best practices
Tabs provide the user with a way of viewing a subset of the information in a given section of content. Tabs can  be used to display alternate view of the same content or break up a long workflow or page of information into separate buckets. " transform="translate(415 271)" fill="#3d3d3d" font-size="20" font-family="SegoeUI-Semibold, Segoe UI" font-weight="600"><tspan x="0" y="22">Best practices</tspan><tspan font-size="14" font-family="SegoeUI, Segoe UI" font-weight="400"><tspan x="0" y="42" xml:space="preserve">Tabs provide the user with a way of viewing a subset of the information in a given section of content. Tabs can  </tspan><tspan x="0" y="61">be used to display alternate view of the same content or break up a long workflow or page of information into </tspan><tspan x="0" y="80">separate buckets. Tab labels should generally be short and sweet - one to two words - and parallel in nature. </tspan><tspan x="0" y="99">They can be used as a form of tertiary navigation when necessary. </tspan></tspan></text>
    <g id="Top_Bar" data-name="Top Bar">
      <rect id="Rectangle_1" data-name="Rectangle 1" width="1280" height="60" fill="#fff"/>
      <path id="Path_5690" data-name="Path 5690" d="M0,0H1280V5H0Z" transform="translate(0 60)" fill="#2777d3"/>
      <g id="Group_12278" data-name="Group 12278">
        <rect id="Rectangle_5392" data-name="Rectangle 5392" width="208" height="60" transform="translate(1072)" fill="none"/>
        <g id="Group_8927" data-name="Group 8927" transform="translate(255)">
          <text id="Adam_Gilson" data-name="Adam Gilson" transform="translate(970 29)" fill="#494955" font-size="14" font-family="SegoeUI-Semibold, Segoe UI" font-weight="600"><tspan x="-81.033" y="0">Adam Gilson</tspan></text>
        </g>
        <circle id="Ellipse_402" data-name="Ellipse 402" cx="18" cy="18" r="18" transform="translate(1234 13)" fill="#78788c"/>
        <text id="Willis_Insurance_-_Nashville" data-name="Willis Insurance - Nashville" transform="translate(1225 45)" fill="#494955" font-size="12" font-family="SegoeUI, Segoe UI"><tspan x="-141.047" y="0">Willis Insurance - Nashville</tspan></text>
        <text id="AG" transform="translate(1243 36)" fill="#fff" font-size="14" font-family="SegoeUI-Semibold, Segoe UI" font-weight="600"><tspan x="0" y="0">AG</tspan></text>
      </g>
      <g id="Group_12989" data-name="Group 12989">
        <rect id="Rectangle_6530" data-name="Rectangle 6530" width="198" height="60" fill="none"/>
        <g id="Group_72" data-name="Group 72" transform="translate(57 20)">
          <g id="Group_6" data-name="Group 6">
            <path id="Path_467" data-name="Path 467" d="M440.678,0l-6.233,13.788L428.193,0H425.7l8.745,19.322L443.19,0Z" transform="translate(-345.294)" fill="#8b8d8e"/>
            <path id="Path_468" data-name="Path 468" d="M343.6,19.322h2.512L337.39,0h-.963L327.7,19.322h2.512l1.908-4.269H341.7ZM333.14,12.787,336.9,4.5l3.759,8.292Z" transform="translate(-265.804)" fill="#8b8d8e"/>
            <path id="Path_469" data-name="Path 469" d="M543.685,10.426h6.951V8.16h-6.951V2.267h7.555L552.45,0H541.4V19.322h9.859L552.468,17h-8.783Z" transform="translate(-439.14)" fill="#8b8d8e"/>
            <path id="Path_470" data-name="Path 470" d="M186.078,0l-6.2,13.788L174.348,1.681l-5.5,12.107L162.864,0h-3.721L155.8,7.385l1.247,2.758,3.834-8.462,7.971,17.641,5.5-12.126,5.534,12.126L188.571,0Z" transform="translate(-126.372)" fill="#8b8d8e"/>
            <path id="Path_471" data-name="Path 471" d="M4.193,17.018,15.262,0H1.851L.812,2.267H11.068L0,19.285H15.243l1.02-2.267Z" fill="#8b8d8e"/>
          </g>
          <path id="Path_472" data-name="Path 472" d="M103.468,0H98.5l5.591,12.409L98.5,24.8h4.968L109.1,12.409Z" transform="translate(-79.895)" fill="#739600"/>
        </g>
        <g id="Group_12812" data-name="Group 12812" transform="translate(-1604)">
          <g id="Icon_Link_-_Hover" data-name="Icon Link - Hover" transform="translate(1614 12)">
            <rect id="Rectangle_5756" data-name="Rectangle 5756" width="36" height="36" rx="18" fill="none"/>
          </g>
          <path id="Path_8220" data-name="Path 8220" d="M172,94.5v3a.472.472,0,0,1-.5.5h-3a.472.472,0,0,1-.5-.5v-3a.472.472,0,0,1,.5-.5h3A.472.472,0,0,1,172,94.5Zm5.5-.5h-3a.472.472,0,0,0-.5.5v3a.472.472,0,0,0,.5.5h3a.472.472,0,0,0,.5-.5v-3A.472.472,0,0,0,177.5,94Zm-6,12h-3a.472.472,0,0,0-.5.5v3a.472.472,0,0,0,.5.5h3a.472.472,0,0,0,.5-.5v-3A.472.472,0,0,0,171.5,106Zm12-12h-3a.472.472,0,0,0-.5.5v3a.472.472,0,0,0,.5.5h3a.472.472,0,0,0,.5-.5v-3A.472.472,0,0,0,183.5,94Zm-12,6h-3a.472.472,0,0,0-.5.5v3a.472.472,0,0,0,.5.5h3a.472.472,0,0,0,.5-.5v-3A.472.472,0,0,0,171.5,100Zm6,0h-3a.472.472,0,0,0-.5.5v3a.472.472,0,0,0,.5.5h3a.472.472,0,0,0,.5-.5v-3A.472.472,0,0,0,177.5,100Zm0,6h-3a.472.472,0,0,0-.5.5v3a.472.472,0,0,0,.5.5h3a.472.472,0,0,0,.5-.5v-3A.472.472,0,0,0,177.5,106Zm6-6h-3a.472.472,0,0,0-.5.5v3a.472.472,0,0,0,.5.5h3a.472.472,0,0,0,.5-.5v-3A.472.472,0,0,0,183.5,100Zm0,6h-3a.472.472,0,0,0-.5.5v3a.472.472,0,0,0,.5.5h3a.472.472,0,0,0,.5-.5v-3A.472.472,0,0,0,183.5,106Z" transform="translate(1456 -72)" fill="#78788c"/>
        </g>
      </g>
      <g id="Group_70" data-name="Group 70" transform="translate(-4.8)">
        <g id="Rectangle_2" data-name="Rectangle 2" transform="translate(254.8 9)" fill="#fff" stroke="#dbdbdb" stroke-width="1">
          <rect width="390" height="42" rx="2" stroke="none"/>
          <rect x="0.5" y="0.5" width="389" height="41" rx="1.5" fill="none"/>
        </g>
        <text id="Search_Content" data-name="Search Content" transform="translate(268.8 36)" fill="#c6c6c6" font-size="14" font-family="OpenSans, Open Sans"><tspan x="0" y="0">Search Content</tspan></text>
        <path id="Rectangle_3" data-name="Rectangle 3" d="M0,0H158a1,1,0,0,1,1,1V39a1,1,0,0,1-1,1H0a0,0,0,0,1,0,0V0A0,0,0,0,1,0,0Z" transform="translate(484.8 10)" fill="#fafafa"/>
        <text id="in_content" data-name="in content" transform="translate(495.8 36)" fill="#5c5c5c" font-size="14" font-family="OpenSans, Open Sans"><tspan x="0" y="0">in content</tspan></text>
        <rect id="Rectangle_4" data-name="Rectangle 4" width="1" height="40" transform="translate(483.8 10)" fill="#ebebeb"/>
        <rect id="Rectangle_5" data-name="Rectangle 5" width="1" height="40" transform="translate(601.8 10)" fill="#ebebeb"/>
        <path id="Path_3" data-name="Path 3" d="M303.8,258.3l-5-5a6.354,6.354,0,0,0,1.1-4.9,6.471,6.471,0,0,0-5.6-5.3,6.53,6.53,0,0,0-2,12.9,6.914,6.914,0,0,0,4.9-1.1l5,5a1.088,1.088,0,0,0,1.5,0A1.222,1.222,0,0,0,303.8,258.3Zm-14.7-9.5a4.458,4.458,0,0,1,3.7-3.7,4.57,4.57,0,0,1,5.2,5.2,4.458,4.458,0,0,1-3.7,3.7A4.609,4.609,0,0,1,289.1,248.8Z" transform="translate(327.8 -222.052)" fill="#4e92df"/>
        <path id="Path_4" data-name="Path 4" d="M284.1,240h24v24h-24Z" transform="translate(327.8 -222)" fill="none"/>
        <rect id="Rectangle_6" data-name="Rectangle 6" width="24" height="24" transform="translate(611.8 18)" fill="none"/>
        <path id="Path_5" data-name="Path 5" d="M150.8,40.2l-4.1,4.1a.967.967,0,0,1-1.4,0l-4.1-4.1a.539.539,0,0,1,.4-.9h8.9A.537.537,0,0,1,150.8,40.2Z" transform="translate(437.8 -12.3)" fill="#5c5c5c"/>
        <rect id="Rectangle_7" data-name="Rectangle 7" width="24" height="24" transform="translate(571.8 18)" fill="none"/>
      </g>
    </g>
    <g id="Side_nav" data-name="Side nav" transform="translate(0 65)">
      <g transform="matrix(1, 0, 0, 1, 0, -65)" filter="url(#Path_5700)">
        <path id="Path_5700-2" data-name="Path 5700" d="M0-1l249.5.3V306H0V-1Z" transform="translate(0 66)" fill="#fff"/>
      </g>
      <rect id="Rectangle_5301" data-name="Rectangle 5301" width="60" height="50" transform="translate(0 1)" fill="none" opacity="0.3"/>
      <rect id="Rectangle_5317" data-name="Rectangle 5317" width="20" height="20" transform="translate(20 16)" fill="none"/>
      <path id="zui-nav-home" d="M20,10.6H17.5v8.142a.833.833,0,0,1-.833.833H12V14.1H8v5.5H3.333a.833.833,0,0,1-.833-.833V10.6H0L10,.6Z" transform="translate(20 16.4)" fill="#494955"/>
      <g id="Group_9285" data-name="Group 9285" transform="translate(0 51)">
        <text id="Account_management" data-name="Account management" transform="translate(59.737 31)" fill="#31313a" font-size="14" font-family="SegoeUI, Segoe UI"><tspan x="0" y="0">Account management</tspan></text>
        <g id="Accounts" transform="translate(20 16)">
          <g id="Group_8145" data-name="Group 8145">
            <circle id="Ellipse_6" data-name="Ellipse 6" cx="3.167" cy="3.167" r="3.167" transform="translate(6.833)" fill="#31313a"/>
            <path id="Path_5793" data-name="Path 5793" d="M14.55,11.615v8.75H8.3v-8.75a3.5,3.5,0,0,1,6.25,0Z" transform="translate(-1.383 -1.615)" fill="#31313a"/>
            <circle id="Ellipse_7" data-name="Ellipse 7" cx="2.833" cy="2.833" r="2.833" transform="translate(14.333 0.583)" fill="#31313a"/>
            <path id="Path_5794" data-name="Path 5794" d="M22.883,11.237v7.833H17.3V11.237a3.046,3.046,0,0,1,5.583,0Z" transform="translate(-2.883 -1.571)" fill="#31313a"/>
            <circle id="Ellipse_8" data-name="Ellipse 8" cx="2.833" cy="2.833" r="2.833" transform="translate(0 0.583)" fill="#31313a"/>
            <path id="Path_5795" data-name="Path 5795" d="M5.667,11.249v7.833H0V11.249a3.167,3.167,0,0,1,1.417-1.5A3.083,3.083,0,0,1,2.75,9.5a3.083,3.083,0,0,1,1.417.25,3.167,3.167,0,0,1,1.5,1.5Z" transform="translate(0 -1.582)" fill="#31313a"/>
          </g>
        </g>
        <rect id="Rectangle_3681" data-name="Rectangle 3681" width="249.5" height="50" fill="none"/>
        <g id="Chevron-down" transform="translate(214.5 15)">
          <g id="Group_8144" data-name="Group 8144">
            <rect id="Rectangle_5318" data-name="Rectangle 5318" width="20" height="20" fill="none"/>
            <path id="Path_5792" data-name="Path 5792" d="M18.75,15.072l1.2,1.2a.25.25,0,0,1,0,.4l-4.75,4.75a.25.25,0,0,1-.4,0l-4.7-4.75a.25.25,0,0,1,0-.4l1.2-1.2a.25.25,0,0,1,.4,0l3.3,3.35,3.35-3.4a.25.25,0,0,1,.4.05Z" transform="translate(-5 -7.472)" fill="#494955"/>
          </g>
        </g>
      </g>
      <g id="Group_264130" data-name="Group 264130" transform="translate(0 101)">
        <text id="Content_library" data-name="Content library" transform="translate(59.737 31)" fill="#31313a" font-size="14" font-family="SegoeUI, Segoe UI"><tspan x="0" y="0">Content library</tspan></text>
        <rect id="Rectangle_3681-2" data-name="Rectangle 3681" width="249.5" height="50" fill="none"/>
        <g id="Chevron-down-2" data-name="Chevron-down" transform="translate(214.5 15)">
          <g id="Group_8144-2" data-name="Group 8144">
            <rect id="Rectangle_5318-2" data-name="Rectangle 5318" width="20" height="20" fill="none"/>
            <path id="Path_5792-2" data-name="Path 5792" d="M18.75,15.072l1.2,1.2a.25.25,0,0,1,0,.4l-4.75,4.75a.25.25,0,0,1-.4,0l-4.7-4.75a.25.25,0,0,1,0-.4l1.2-1.2a.25.25,0,0,1,.4,0l3.3,3.35,3.35-3.4a.25.25,0,0,1,.4.05Z" transform="translate(-5 -7.472)" fill="#494955"/>
          </g>
        </g>
        <g id="Content" transform="translate(30 25)">
          <g id="Content-2" data-name="Content" transform="translate(-10 -10)" clip-path="url(#clip-path)">
            <path id="Path_101123" data-name="Path 101123" d="M17.7,3.4h-3a.4.4,0,0,1-.4-.4V0Z" fill="#494a56"/>
            <path id="Path_101124" data-name="Path 101124" d="M13.8,4.2a.4.4,0,0,1-.4-.4V0H4.9A1.4,1.4,0,0,0,3.4,1.4V18.6A1.4,1.4,0,0,0,4.9,20H16.2a1.4,1.4,0,0,0,1.5-1.4V4.2Zm.8,4.2H6.2a.5.5,0,0,1-.5-.5V7.2a.5.5,0,0,1,.5-.5h8.4a.5.5,0,0,1,.5.5v.7a.5.5,0,0,1-.5.5m0,4.2H6.2a.5.5,0,0,1-.5-.5v-.7a.5.5,0,0,1,.5-.5h8.4a.5.5,0,0,1,.5.5v.7a.5.5,0,0,1-.5.5M12,16.8H6.2a.5.5,0,0,1-.5-.5v-.7a.5.5,0,0,1,.5-.5H12a.5.5,0,0,1,.5.5v.7a.5.5,0,0,1-.5.5" fill="#494a56"/>
          </g>
        </g>
      </g>
      <g id="Group_264128" data-name="Group 264128" transform="translate(0 251)">
        <text id="Quoting_and_renewals" data-name="Quoting and renewals" transform="translate(59.737 31)" fill="#31313a" font-size="14" font-family="SegoeUI, Segoe UI"><tspan x="0" y="0">Quoting and renewals</tspan></text>
        <rect id="Rectangle_3681-3" data-name="Rectangle 3681" width="249.5" height="50" fill="none"/>
        <g id="Chevron-down-3" data-name="Chevron-down" transform="translate(214.5 15)">
          <g id="Group_8144-3" data-name="Group 8144">
            <rect id="Rectangle_5318-3" data-name="Rectangle 5318" width="20" height="20" fill="none"/>
            <path id="Path_5792-3" data-name="Path 5792" d="M8.75.128l1.2,1.2a.25.25,0,0,1,0,.4L5.2,6.478a.25.25,0,0,1-.4,0L.1,1.728a.25.25,0,0,1,0-.4L1.3.128a.25.25,0,0,1,.4,0L5,3.478,8.35.078a.25.25,0,0,1,.4.05Z" transform="translate(5 7.472)" fill="#494955"/>
          </g>
        </g>
        <g id="Group_264129" data-name="Group 264129" transform="translate(20 15)">
          <path id="Path_101122" data-name="Path 101122" d="M17.361.835v18.33a.835.835,0,0,1-.835.835h-5.01V18.088c1.8-.343,3.223-1.378,3.223-3.274,0-2.613-2.246-3.507-4.334-4.05S7.641,9.654,7.641,8.785c0-1.01.927-1.712,2.505-1.712s2.246.785,2.305,1.938h2.037A3.675,3.675,0,0,0,11.532,5.5V3.483H8.685V5.47c-1.779.392-3.224,1.553-3.224,3.34,0,2.13,1.762,3.19,4.334,3.816,2.305.552,2.764,1.362,2.764,2.222,0,.634-.45,1.67-2.505,1.67-1.895,0-2.647-.835-2.747-1.938H5.294a3.864,3.864,0,0,0,3.391,3.533V20H3.474a.835.835,0,0,1-.835-.835V.835A.835.835,0,0,1,3.474,0H16.5a.836.836,0,0,1,.86.81Z" transform="translate(0 0)" fill="#494955"/>
          <rect id="Rectangle_9750" data-name="Rectangle 9750" width="20" height="20" transform="translate(0 0)" fill="none"/>
        </g>
      </g>
      <g id="Group_11709" data-name="Group 11709" transform="translate(0 201)">
        <text id="Prospecting" transform="translate(59.831 31)" fill="#31313a" font-size="14" font-family="SegoeUI, Segoe UI"><tspan x="0" y="0">Prospecting</tspan></text>
        <rect id="Rectangle_3681-4" data-name="Rectangle 3681" width="249.5" height="50" fill="none"/>
        <g id="Chevron-down-4" data-name="Chevron-down" transform="translate(214.5 15)">
          <g id="Group_8144-4" data-name="Group 8144">
            <rect id="Rectangle_5318-4" data-name="Rectangle 5318" width="20" height="20" fill="none"/>
            <path id="Path_5792-4" data-name="Path 5792" d="M18.75,15.072l1.2,1.2a.25.25,0,0,1,0,.4l-4.75,4.75a.25.25,0,0,1-.4,0l-4.7-4.75a.25.25,0,0,1,0-.4l1.2-1.2a.25.25,0,0,1,.4,0l3.3,3.35,3.35-3.4a.25.25,0,0,1,.4.05Z" transform="translate(-5 -7.472)" fill="#494955"/>
          </g>
        </g>
        <g id="Group_264122" data-name="Group 264122" transform="translate(20 16)">
          <path id="Path_101116" data-name="Path 101116" d="M3,11" transform="translate(0 -1.833)" fill="#383a45"/>
          <path id="Path_101117" data-name="Path 101117" d="M3,11" transform="translate(0 -1.833)" fill="#383a45"/>
          <g id="Group_264121" data-name="Group 264121">
            <g id="Group_264120" data-name="Group 264120" transform="translate(0 2.008)">
              <path id="Path_101118" data-name="Path 101118" d="M19.992,13.933a1.567,1.567,0,0,0,.008-.2,3.342,3.342,0,0,0-.183-1.085,1.487,1.487,0,0,0-.083-.2,2.632,2.632,0,0,0-.183-.372L15.942,5.466a2.436,2.436,0,0,0-2.15-1.224,2.612,2.612,0,0,0-.833.139A2.455,2.455,0,0,0,11.583,5.6,1.585,1.585,0,0,1,10,6.372,1.6,1.6,0,0,1,8.417,5.6,2.6,2.6,0,0,0,7.042,4.381a2.612,2.612,0,0,0-.833-.139,2.436,2.436,0,0,0-2.15,1.224L.45,12.074a2.632,2.632,0,0,0-.183.372,1.487,1.487,0,0,0-.083.2A3.341,3.341,0,0,0,0,13.731a1.567,1.567,0,0,0,.008.2v.015a1.167,1.167,0,0,0-.008.17,4.029,4.029,0,0,0,4.167,3.873,4.029,4.029,0,0,0,4.167-3.873,2.877,2.877,0,0,0-.067-.651A2.588,2.588,0,0,0,10,14.119a2.551,2.551,0,0,0,1.725-.651,3.325,3.325,0,0,0-.058.651,4.029,4.029,0,0,0,4.167,3.873A4.029,4.029,0,0,0,20,14.119a1.168,1.168,0,0,0-.008-.17Zm-15.825,2.5a2.411,2.411,0,0,1-2.493-2.318A2.411,2.411,0,0,1,4.167,11.8,2.411,2.411,0,0,1,6.66,14.119,2.411,2.411,0,0,1,4.167,16.437Zm11.667,0a2.411,2.411,0,0,1-2.493-2.318A2.411,2.411,0,0,1,15.833,11.8a2.411,2.411,0,0,1,2.493,2.318A2.411,2.411,0,0,1,15.833,16.437Z" transform="translate(0 -2.008)" fill="#494955"/>
              <g id="Group_264118" data-name="Group 264118" transform="translate(4.899)">
                <path id="Path_101119" data-name="Path 101119" d="M8.792,3.482a3.848,3.848,0,0,1,1.244.782,2,2,0,0,0-3.884-.87l-.033.1A3.89,3.89,0,0,1,8.792,3.482Z" transform="translate(-6.119 -2.008)" fill="#494955"/>
              </g>
              <g id="Group_264119" data-name="Group 264119" transform="translate(11.208)">
                <path id="Path_101120" data-name="Path 101120" d="M15.193,3.488a3.91,3.91,0,0,1,2.746.016l-.035-.11a2,2,0,0,0-3.892.835A4.031,4.031,0,0,1,15.193,3.488Z" transform="translate(-14 -2.008)" fill="#494955"/>
              </g>
            </g>
            <rect id="Rectangle_9737" data-name="Rectangle 9737" width="20" height="20" fill="none"/>
          </g>
        </g>
      </g>
      <g id="Group_11711" data-name="Group 11711" transform="translate(0 151)">
        <text id="Email_marketing" data-name="Email marketing" transform="translate(59.84 31)" fill="#31313a" font-size="14" font-family="SegoeUI, Segoe UI"><tspan x="0" y="0">Email marketing</tspan></text>
        <rect id="Rectangle_3681-5" data-name="Rectangle 3681" width="249.5" height="50" fill="none"/>
        <g id="Chevron-down-5" data-name="Chevron-down" transform="translate(214.5 15)">
          <g id="Group_8144-5" data-name="Group 8144">
            <rect id="Rectangle_5318-5" data-name="Rectangle 5318" width="20" height="20" fill="none"/>
            <path id="Path_5792-5" data-name="Path 5792" d="M18.75,15.072l1.2,1.2a.25.25,0,0,1,0,.4l-4.75,4.75a.25.25,0,0,1-.4,0l-4.7-4.75a.25.25,0,0,1,0-.4l1.2-1.2a.25.25,0,0,1,.4,0l3.3,3.35,3.35-3.4a.25.25,0,0,1,.4.05Z" transform="translate(-5 -7.472)" fill="#494955"/>
          </g>
        </g>
        <g id="Group_264117" data-name="Group 264117" transform="translate(20 16)">
          <path id="Path_101115" data-name="Path 101115" d="M18.575,3H1.425A1.425,1.425,0,0,0,0,4.425V14.908a1.425,1.425,0,0,0,1.425,1.425h17.15A1.425,1.425,0,0,0,20,14.908V4.425A1.425,1.425,0,0,0,18.575,3Zm.288,3.006-8.518,5.129a.657.657,0,0,1-.184.067c-.01,0-.018.007-.028.01a1.771,1.771,0,0,1-.266,0c-.01,0-.018-.008-.027-.01a.652.652,0,0,1-.185-.067L1.137,6.006a.617.617,0,0,1-.208-.86.649.649,0,0,1,.881-.2l7.975,4.8a.42.42,0,0,0,.43,0l7.975-4.8a.649.649,0,0,1,.881.2A.617.617,0,0,1,18.863,6.006Z" fill="#494955"/>
          <rect id="Rectangle_9736" data-name="Rectangle 9736" width="20" height="20" fill="none"/>
        </g>
      </g>
      <rect id="Rectangle_4697" data-name="Rectangle 4697" width="249.5" height="50" transform="translate(0.5 1.5)" fill="none"/>
      <text id="Home" transform="translate(59.859 32)" fill="#3d3d3d" font-size="14" font-family="SegoeUI, Segoe UI"><tspan x="0" y="0">Home</tspan></text>
    </g>
    <g id="Group_8095" data-name="Group 8095" transform="translate(38 -55)">
      <rect id="Rectangle_4038" data-name="Rectangle 4038" width="900" height="1" transform="translate(278 295)" fill="#cbcbd2"/>
      <text id="Tab_one" data-name="Tab one" transform="translate(298 271)" fill="#2777d3" font-size="14" font-family="SegoeUI-Bold, Segoe UI" font-weight="700"><tspan x="0" y="0">Tab one</tspan></text>
      <text id="Tab_two" data-name="Tab two" transform="translate(390 271)" fill="#5b5b5b" font-size="14" font-family="SegoeUI, Segoe UI"><tspan x="0" y="0">Tab two</tspan></text>
      <text id="Tab_three" data-name="Tab three" transform="translate(478 271)" fill="#5b5b5b" font-size="14" font-family="SegoeUI, Segoe UI"><tspan x="0" y="0">Tab three</tspan></text>
      <text id="Tab_three-2" data-name="Tab three" transform="translate(575 271)" fill="#5b5b5b" font-size="14" font-family="SegoeUI, Segoe UI"><tspan x="0" y="0">Tab three</tspan></text>
      <rect id="Rectangle_4039" data-name="Rectangle 4039" width="92" height="4" transform="translate(278 291)" fill="#2777d3"/>
    </g>
  </g>
</svg>
