<svg xmlns="http://www.w3.org/2000/svg" xmlns:xlink="http://www.w3.org/1999/xlink" width="900" height="115" viewBox="0 0 900 115">
  <defs>
    <clipPath id="clip-Breadcrumb_ellipsis_expanded">
      <rect width="900" height="115"/>
    </clipPath>
  </defs>
  <g id="Breadcrumb_ellipsis_expanded" data-name="Breadcrumb ellipsis expanded" clip-path="url(#clip-Breadcrumb_ellipsis_expanded)">
    <rect width="900" height="115" fill="#f4f4f6"/>
    <g id="Breadcrumb_ellipses" data-name="Breadcrumb ellipses" transform="translate(30 31)">
      <g id="Symbol_152_2" data-name="Symbol 152 – 2">
        <text id="Breadcrumb_1" data-name="Breadcrumb #1" transform="translate(16 15)" fill="#2777d3" font-size="14" font-family="SegoeUI, Segoe UI"><tspan x="0" y="0">Breadcrumb #1</tspan></text>
        <g id="Group_8413" data-name="Group 8413" transform="translate(0 2)">
          <rect id="Rectangle_3875" data-name="Rectangle 3875" width="16" height="16" transform="translate(16) rotate(90)" fill="none"/>
          <path id="Path_5567" data-name="Path 5567" d="M382.3,13.533l-4.2-4.2,4.2-4.2a.644.644,0,0,0,0-.933h0a.644.644,0,0,0-.933,0l-4.2,4.2-.467.467a.644.644,0,0,0,0,.933l.467.467,4.2,4.2a.644.644,0,0,0,.933,0h0A.643.643,0,0,0,382.3,13.533Z" transform="translate(-371.5 -1.333)" fill="#2777d3"/>
        </g>
      </g>
      <g id="_2" data-name=" 2" transform="translate(115)">
        <text id="Breadcrumb_2" data-name="Breadcrumb #2" transform="translate(16 15)" fill="#2777d3" font-size="14" font-family="SegoeUI, Segoe UI"><tspan x="0" y="0">Breadcrumb #2</tspan></text>
        <g id="Group_8413-2" data-name="Group 8413" transform="translate(0 2)">
          <rect id="Rectangle_3875-2" data-name="Rectangle 3875" width="16" height="16" transform="translate(16) rotate(90)" fill="none"/>
          <path id="Path_5567-2" data-name="Path 5567" d="M382.3,13.533l-4.2-4.2,4.2-4.2a.644.644,0,0,0,0-.933h0a.644.644,0,0,0-.933,0l-4.2,4.2-.467.467a.644.644,0,0,0,0,.933l.467.467,4.2,4.2a.644.644,0,0,0,.933,0h0A.643.643,0,0,0,382.3,13.533Z" transform="translate(-371.5 -1.333)" fill="#2777d3"/>
        </g>
      </g>
      <g id="_3" data-name=" 3" transform="translate(230)">
        <text id="Breadcrumb_3" data-name="Breadcrumb #3" transform="translate(16 15)" fill="#2777d3" font-size="14" font-family="SegoeUI, Segoe UI"><tspan x="0" y="0">Breadcrumb #3</tspan></text>
        <g id="Group_8413-3" data-name="Group 8413" transform="translate(0 2)">
          <rect id="Rectangle_3875-3" data-name="Rectangle 3875" width="16" height="16" transform="translate(16) rotate(90)" fill="none"/>
          <path id="Path_5567-3" data-name="Path 5567" d="M382.3,13.533l-4.2-4.2,4.2-4.2a.644.644,0,0,0,0-.933h0a.644.644,0,0,0-.933,0l-4.2,4.2-.467.467a.644.644,0,0,0,0,.933l.467.467,4.2,4.2a.644.644,0,0,0,.933,0h0A.643.643,0,0,0,382.3,13.533Z" transform="translate(-371.5 -1.333)" fill="#2777d3"/>
        </g>
      </g>
      <g id="_4" data-name=" 4" transform="translate(345)">
        <text id="Breadcrumb_4" data-name="Breadcrumb #4" transform="translate(16 15)" fill="#2777d3" font-size="14" font-family="SegoeUI, Segoe UI"><tspan x="0" y="0">Breadcrumb #4</tspan></text>
        <g id="Group_8413-4" data-name="Group 8413" transform="translate(0 2)">
          <rect id="Rectangle_3875-4" data-name="Rectangle 3875" width="16" height="16" transform="translate(16) rotate(90)" fill="none"/>
          <path id="Path_5567-4" data-name="Path 5567" d="M382.3,13.533l-4.2-4.2,4.2-4.2a.644.644,0,0,0,0-.933h0a.644.644,0,0,0-.933,0l-4.2,4.2-.467.467a.644.644,0,0,0,0,.933l.467.467,4.2,4.2a.644.644,0,0,0,.933,0h0A.643.643,0,0,0,382.3,13.533Z" transform="translate(-371.5 -1.333)" fill="#2777d3"/>
        </g>
      </g>
      <g id="_5" data-name=" 5" transform="translate(460)">
        <text id="Breadcrumb_5" data-name="Breadcrumb #5" transform="translate(16 15)" fill="#2777d3" font-size="14" font-family="SegoeUI, Segoe UI"><tspan x="0" y="0">Breadcrumb #5</tspan></text>
        <g id="Group_8413-5" data-name="Group 8413" transform="translate(0 2)">
          <rect id="Rectangle_3875-5" data-name="Rectangle 3875" width="16" height="16" transform="translate(16) rotate(90)" fill="none"/>
          <path id="Path_5567-5" data-name="Path 5567" d="M382.3,13.533l-4.2-4.2,4.2-4.2a.644.644,0,0,0,0-.933h0a.644.644,0,0,0-.933,0l-4.2,4.2-.467.467a.644.644,0,0,0,0,.933l.467.467,4.2,4.2a.644.644,0,0,0,.933,0h0A.643.643,0,0,0,382.3,13.533Z" transform="translate(-371.5 -1.333)" fill="#2777d3"/>
        </g>
      </g>
      <g id="_6" data-name=" 6" transform="translate(575)">
        <text id="Breadcrumb_6" data-name="Breadcrumb #6" transform="translate(16 15)" fill="#2777d3" font-size="14" font-family="SegoeUI, Segoe UI"><tspan x="0" y="0">Breadcrumb #6</tspan></text>
        <g id="Group_8413-6" data-name="Group 8413" transform="translate(0 2)">
          <rect id="Rectangle_3875-6" data-name="Rectangle 3875" width="16" height="16" transform="translate(16) rotate(90)" fill="none"/>
          <path id="Path_5567-6" data-name="Path 5567" d="M382.3,13.533l-4.2-4.2,4.2-4.2a.644.644,0,0,0,0-.933h0a.644.644,0,0,0-.933,0l-4.2,4.2-.467.467a.644.644,0,0,0,0,.933l.467.467,4.2,4.2a.644.644,0,0,0,.933,0h0A.643.643,0,0,0,382.3,13.533Z" transform="translate(-371.5 -1.333)" fill="#2777d3"/>
        </g>
      </g>
      <g id="_7" data-name=" 7" transform="translate(690)">
        <text id="Breadcrumb_7" data-name="Breadcrumb #7" transform="translate(16 15)" fill="#2777d3" font-size="14" font-family="SegoeUI, Segoe UI"><tspan x="0" y="0">Breadcrumb #7</tspan></text>
        <g id="Group_8413-7" data-name="Group 8413" transform="translate(0 2)">
          <rect id="Rectangle_3875-7" data-name="Rectangle 3875" width="16" height="16" transform="translate(16) rotate(90)" fill="none"/>
          <path id="Path_5567-7" data-name="Path 5567" d="M382.3,13.533l-4.2-4.2,4.2-4.2a.644.644,0,0,0,0-.933h0a.644.644,0,0,0-.933,0l-4.2,4.2-.467.467a.644.644,0,0,0,0,.933l.467.467,4.2,4.2a.644.644,0,0,0,.933,0h0A.643.643,0,0,0,382.3,13.533Z" transform="translate(-371.5 -1.333)" fill="#2777d3"/>
        </g>
      </g>
      <g id="_1" data-name=" 1" transform="translate(0 39)">
        <text id="Breadcrumb_8" data-name="Breadcrumb #8" transform="translate(16 15)" fill="#2777d3" font-size="14" font-family="SegoeUI, Segoe UI"><tspan x="0" y="0">Breadcrumb #8</tspan></text>
        <g id="Group_8413-8" data-name="Group 8413" transform="translate(0 2)">
          <rect id="Rectangle_3875-8" data-name="Rectangle 3875" width="16" height="16" transform="translate(16) rotate(90)" fill="none"/>
          <path id="Path_5567-8" data-name="Path 5567" d="M382.3,13.533l-4.2-4.2,4.2-4.2a.644.644,0,0,0,0-.933h0a.644.644,0,0,0-.933,0l-4.2,4.2-.467.467a.644.644,0,0,0,0,.933l.467.467,4.2,4.2a.644.644,0,0,0,.933,0h0A.643.643,0,0,0,382.3,13.533Z" transform="translate(-371.5 -1.333)" fill="#2777d3"/>
        </g>
      </g>
      <g id="_8" data-name=" 8" transform="translate(119.307 39)">
        <text id="Breadcrumb_9" data-name="Breadcrumb #9" transform="translate(15.693 15)" fill="#2777d3" font-size="14" font-family="SegoeUI, Segoe UI"><tspan x="0" y="0">Breadcrumb #9</tspan></text>
        <g id="Group_8413-9" data-name="Group 8413" transform="translate(0 2)">
          <rect id="Rectangle_3875-9" data-name="Rectangle 3875" width="16" height="16" transform="translate(15.693) rotate(90)" fill="none"/>
          <path id="Path_5567-9" data-name="Path 5567" d="M382.3,13.533l-4.2-4.2,4.2-4.2a.644.644,0,0,0,0-.933h0a.644.644,0,0,0-.933,0l-4.2,4.2-.467.467a.644.644,0,0,0,0,.933l.467.467,4.2,4.2a.644.644,0,0,0,.933,0h0A.643.643,0,0,0,382.3,13.533Z" transform="translate(-371.5 -1.333)" fill="#2777d3"/>
        </g>
      </g>
      <g id="Symbol_151" data-name="Symbol 151" transform="translate(240 39)">
        <g id="Group_8413-10" data-name="Group 8413" transform="translate(0 2)">
          <rect id="Rectangle_3875-10" data-name="Rectangle 3875" width="16" height="16" transform="translate(16) rotate(90)" fill="none"/>
          <path id="Path_5567-10" data-name="Path 5567" d="M382.3,13.533l-4.2-4.2,4.2-4.2a.644.644,0,0,0,0-.933h0a.644.644,0,0,0-.933,0l-4.2,4.2-.467.467a.644.644,0,0,0,0,.933l.467.467,4.2,4.2a.644.644,0,0,0,.933,0h0A.643.643,0,0,0,382.3,13.533Z" transform="translate(-371.5 -1.333)" fill="#9494a4"/>
        </g>
        <text id="Breadcrumb_10" data-name="Breadcrumb #10" transform="translate(16 15)" fill="#9494a4" font-size="14" font-family="SegoeUI, Segoe UI"><tspan x="0" y="0">Breadcrumb #10</tspan></text>
      </g>
    </g>
  </g>
</svg>
