<svg xmlns="http://www.w3.org/2000/svg" xmlns:xlink="http://www.w3.org/1999/xlink" width="900" height="350" viewBox="0 0 900 350">
  <defs>
    <filter id="Rectangle_9438" x="258.5" y="188.5" width="384" height="354" filterUnits="userSpaceOnUse">
      <feOffset dy="1" input="SourceAlpha"/>
      <feGaussianBlur stdDeviation="1.5" result="blur"/>
      <feFlood flood-opacity="0.161"/>
      <feComposite operator="in" in2="blur"/>
      <feComposite in="SourceGraphic"/>
    </filter>
    <clipPath id="clip-Mobile_breadcrumb">
      <rect width="900" height="350"/>
    </clipPath>
  </defs>
  <g id="Mobile_breadcrumb" data-name="Mobile breadcrumb" clip-path="url(#clip-Mobile_breadcrumb)">
    <rect width="900" height="350" fill="#f4f4f6"/>
    <g id="Rectangle_9762" data-name="Rectangle 9762" transform="translate(262 -14)" fill="#f4f4f6" stroke="#707070" stroke-width="1">
      <rect width="377" height="472" stroke="none"/>
      <rect x="0.5" y="0.5" width="376" height="471" fill="none"/>
    </g>
    <text id="Page_Header_" data-name="Page Header " transform="translate(278 126)" fill="#303030" font-size="26" font-family="SegoeUI-Semibold, Segoe UI" font-weight="600"><tspan x="0" y="28">Page Header </tspan></text>
    <g id="Group_13857" data-name="Group 13857" transform="translate(1 -45)" style="isolation: isolate">
      <text id="Breadcrumb_1" data-name="Breadcrumb #1" transform="translate(291 149)" fill="#2777d3" font-size="14" font-family="SegoeUI, Segoe UI"><tspan x="0" y="0">Breadcrumb #1</tspan></text>
      <g id="Group_13853" data-name="Group 13853" transform="translate(277 137)" style="isolation: isolate">
        <g id="Group_13856" data-name="Group 13856" transform="translate(14 14) rotate(180)">
          <rect id="Rectangle_3875" data-name="Rectangle 3875" width="14" height="14" transform="translate(14 0) rotate(90)" fill="none"/>
          <path id="Path_5567" data-name="Path 5567" d="M5.019,8.249,1.384,4.615,5.019.981a.558.558,0,0,0,0-.808h0a.558.558,0,0,0-.808,0L.577,3.807l-.4.4a.558.558,0,0,0,0,.808l.4.4L4.211,9.057a.558.558,0,0,0,.808,0h0A.557.557,0,0,0,5.019,8.249Z" transform="translate(9.674 11.537) rotate(180)" fill="#2777d3"/>
        </g>
      </g>
    </g>
    <g id="Group_8093" data-name="Group 8093" transform="translate(263)">
      <g id="Group_13851" data-name="Group 13851">
        <rect id="Rectangle_1" data-name="Rectangle 1" width="375" height="56" fill="#fff"/>
        <g id="Group_72" data-name="Group 72" transform="translate(131 18)">
          <g id="Group_6" data-name="Group 6">
            <path id="Path_467" data-name="Path 467" d="M440.678,0l-6.233,13.788L428.193,0H425.7l8.745,19.322L443.19,0Z" transform="translate(-345.294)" fill="#8b8d8e"/>
            <path id="Path_468" data-name="Path 468" d="M343.6,19.322h2.512L337.39,0h-.963L327.7,19.322h2.512l1.908-4.269H341.7ZM333.14,12.787,336.9,4.5l3.759,8.292Z" transform="translate(-265.804)" fill="#8b8d8e"/>
            <path id="Path_469" data-name="Path 469" d="M543.685,10.426h6.951V8.16h-6.951V2.267h7.555L552.45,0H541.4V19.322h9.859L552.468,17h-8.783Z" transform="translate(-439.14)" fill="#8b8d8e"/>
            <path id="Path_470" data-name="Path 470" d="M186.078,0l-6.2,13.788L174.348,1.681l-5.5,12.107L162.864,0h-3.721L155.8,7.385l1.247,2.758,3.834-8.462,7.971,17.641,5.5-12.126,5.534,12.126L188.571,0Z" transform="translate(-126.372)" fill="#8b8d8e"/>
            <path id="Path_471" data-name="Path 471" d="M4.193,17.018,15.262,0H1.851L.812,2.267H11.068L0,19.285H15.243l1.02-2.267Z" fill="#8b8d8e"/>
          </g>
          <path id="Path_472" data-name="Path 472" d="M103.468,0H98.5l5.591,12.409L98.5,24.8h4.968L109.1,12.409Z" transform="translate(-79.895)" fill="#5fb53b"/>
        </g>
        <path id="Path_5695" data-name="Path 5695" d="M0,0H375V4H0Z" transform="translate(0 56)" fill="#2777d3"/>
        <circle id="Ellipse_402" data-name="Ellipse 402" cx="18" cy="18" r="18" transform="translate(327 10)" fill="#78788c"/>
        <text id="AG" transform="translate(336 34)" fill="#fff" font-size="14" font-family="SegoeUI-Semibold, Segoe UI" font-weight="600"><tspan x="0" y="0">AG</tspan></text>
        <g id="Group_2" data-name="Group 2" transform="translate(5 10)">
          <rect id="Rectangle_5240" data-name="Rectangle 5240" width="36" height="36" rx="18" fill="none"/>
        </g>
        <path id="Path_2" data-name="Path 2" d="M25.822,8.685H4.342A1.342,1.342,0,0,1,3,7.342H3A1.342,1.342,0,0,1,4.342,6H25.822a1.342,1.342,0,0,1,1.342,1.342h0A1.342,1.342,0,0,1,25.822,8.685Zm1.342,5.37h0a1.342,1.342,0,0,0-1.342-1.342H4.342A1.342,1.342,0,0,0,3,14.055H3A1.342,1.342,0,0,0,4.342,15.4H25.822A1.342,1.342,0,0,0,27.164,14.055Zm0,6.712h0a1.342,1.342,0,0,0-1.342-1.342H4.342A1.342,1.342,0,0,0,3,20.767H3a1.342,1.342,0,0,0,1.342,1.342H25.822A1.342,1.342,0,0,0,27.164,20.767Z" transform="translate(12 14.279)" fill="#2777d3"/>
      </g>
    </g>
    <g id="Group_13844" data-name="Group 13844" transform="translate(-11)">
      <g id="Group_13843" data-name="Group 13843" transform="translate(274 192)">
        <g id="Group_13842" data-name="Group 13842">
          <g transform="matrix(1, 0, 0, 1, -263, -192)" filter="url(#Rectangle_9438)">
            <rect id="Rectangle_9438-2" data-name="Rectangle 9438" width="375" height="345" rx="2" transform="translate(263 192)" fill="#fff"/>
          </g>
        </g>
      </g>
    </g>
  </g>
</svg>
