<svg xmlns="http://www.w3.org/2000/svg" xmlns:xlink="http://www.w3.org/1999/xlink" width="900" height="354" viewBox="0 0 900 354">
  <defs>
    <clipPath id="clip-path">
      <rect width="300" height="42" fill="none"/>
    </clipPath>
    <clipPath id="clip-singlefileselector_dropform">
      <rect width="900" height="354"/>
    </clipPath>
  </defs>
  <g id="singlefileselector_dropform" clip-path="url(#clip-singlefileselector_dropform)">
    <rect width="900" height="354" fill="#f4f4f6"/>
    <path id="Path_101944" data-name="Path 101944" d="M-61.106,0h-5.428V-9.8h1.627v8.429h3.8Zm6.61,0h-1.538V-1.094h-.027A2.316,2.316,0,0,1-58.187.164,2.239,2.239,0,0,1-59.8-.4a1.961,1.961,0,0,1-.584-1.483q0-1.982,2.283-2.311l2.078-.294q0-1.5-1.422-1.5a3.378,3.378,0,0,0-2.256.861V-6.508a4.919,4.919,0,0,1,2.557-.656A2.326,2.326,0,0,1-54.5-4.553Zm-1.531-3.438-1.47.205a2.33,2.33,0,0,0-1.029.332.969.969,0,0,0-.345.851.932.932,0,0,0,.318.728,1.231,1.231,0,0,0,.851.284,1.57,1.57,0,0,0,1.2-.509,1.806,1.806,0,0,0,.475-1.282ZM-48.5-5.489a1.315,1.315,0,0,0-.827-.226,1.416,1.416,0,0,0-1.176.636,2.843,2.843,0,0,0-.472,1.729V0h-1.586V-7h1.586v1.442h.027a2.439,2.439,0,0,1,.714-1.152,1.612,1.612,0,0,1,1.077-.414,1.337,1.337,0,0,1,.656.13Zm7.369,4.929q0,3.855-3.876,3.855a5.773,5.773,0,0,1-2.386-.458V1.388a4.415,4.415,0,0,0,2.181.656,2.187,2.187,0,0,0,2.5-2.454v-.766h-.027A2.568,2.568,0,0,1-45.11.164a2.558,2.558,0,0,1-2.061-.933,3.773,3.773,0,0,1-.783-2.505,4.419,4.419,0,0,1,.841-2.837A2.8,2.8,0,0,1-44.8-7.164a2.227,2.227,0,0,1,2.058,1.135h.027V-7h1.586ZM-42.7-3.206v-.909a1.781,1.781,0,0,0-.489-1.261,1.6,1.6,0,0,0-1.22-.523,1.677,1.677,0,0,0-1.412.667,3.008,3.008,0,0,0-.509,1.863,2.589,2.589,0,0,0,.489,1.651,1.569,1.569,0,0,0,1.3.619,1.681,1.681,0,0,0,1.333-.591A2.228,2.228,0,0,0-42.7-3.206Zm9.563.137h-4.771a2.017,2.017,0,0,0,.6,1.5,2.225,2.225,0,0,0,1.569.526,3.459,3.459,0,0,0,2.058-.67V-.437a4.7,4.7,0,0,1-2.529.6A3.131,3.131,0,0,1-38.64-.79a3.814,3.814,0,0,1-.878-2.683,3.73,3.73,0,0,1,.967-2.663,3.164,3.164,0,0,1,2.4-1.029,2.759,2.759,0,0,1,2.222.923,3.832,3.832,0,0,1,.786,2.563ZM-34.672-4.19a2.044,2.044,0,0,0-.4-1.33A1.348,1.348,0,0,0-36.169-6a1.539,1.539,0,0,0-1.159.5,2.28,2.28,0,0,0-.584,1.306ZM-26.188,0h-1.593V-10.363h1.593Zm5.168.164a3.47,3.47,0,0,1-2.587-.981,3.544,3.544,0,0,1-.967-2.6,3.687,3.687,0,0,1,1.008-2.755,3.708,3.708,0,0,1,2.717-.991,3.358,3.358,0,0,1,2.557.964,3.723,3.723,0,0,1,.916,2.673,3.669,3.669,0,0,1-.988,2.683A3.548,3.548,0,0,1-21.021.164Zm.075-6.063a1.81,1.81,0,0,0-1.47.649,2.719,2.719,0,0,0-.54,1.791,2.561,2.561,0,0,0,.547,1.733,1.837,1.837,0,0,0,1.463.632,1.743,1.743,0,0,0,1.439-.622A2.754,2.754,0,0,0-19-3.486a2.8,2.8,0,0,0-.5-1.784A1.734,1.734,0,0,0-20.945-5.9ZM-9.393-.561q0,3.855-3.876,3.855a5.773,5.773,0,0,1-2.386-.458V1.388a4.415,4.415,0,0,0,2.181.656,2.187,2.187,0,0,0,2.5-2.454v-.766h-.027A2.568,2.568,0,0,1-13.371.164a2.558,2.558,0,0,1-2.061-.933,3.773,3.773,0,0,1-.783-2.505,4.419,4.419,0,0,1,.841-2.837,2.8,2.8,0,0,1,2.311-1.053,2.227,2.227,0,0,1,2.058,1.135h.027V-7h1.586Zm-1.572-2.646v-.909a1.781,1.781,0,0,0-.489-1.261,1.6,1.6,0,0,0-1.22-.523,1.677,1.677,0,0,0-1.412.667,3.008,3.008,0,0,0-.509,1.863,2.589,2.589,0,0,0,.489,1.651,1.569,1.569,0,0,0,1.3.619,1.681,1.681,0,0,0,1.333-.591A2.228,2.228,0,0,0-10.965-3.206Zm6.74,3.37A3.47,3.47,0,0,1-6.812-.817a3.544,3.544,0,0,1-.967-2.6A3.687,3.687,0,0,1-6.771-6.173a3.708,3.708,0,0,1,2.717-.991A3.358,3.358,0,0,1-1.5-6.2,3.723,3.723,0,0,1-.581-3.527,3.669,3.669,0,0,1-1.569-.844,3.548,3.548,0,0,1-4.225.164ZM-4.149-5.9a1.81,1.81,0,0,0-1.47.649,2.719,2.719,0,0,0-.54,1.791,2.561,2.561,0,0,0,.547,1.733,1.837,1.837,0,0,0,1.463.632A1.743,1.743,0,0,0-2.71-1.716a2.754,2.754,0,0,0,.5-1.771,2.8,2.8,0,0,0-.5-1.784A1.734,1.734,0,0,0-4.149-5.9Z" transform="translate(327 181)" fill="#31313a"/>
    <g id="Input-_no_label" data-name="Input- no label" transform="translate(367 30)" clip-path="url(#clip-path)">
      <g id="Rectangle_288" data-name="Rectangle 288" fill="#fff" stroke="#cbcbd2" stroke-width="1">
        <rect width="300" height="42" rx="4" stroke="none"/>
        <rect x="0.5" y="0.5" width="299" height="41" rx="3.5" fill="none"/>
      </g>
    </g>
    <path id="Path_101942" data-name="Path 101942" d="M-84.793,0h-1.784l-.882-2.5h-3.855L-92.162,0h-1.777l3.671-9.8h1.832Zm-3.1-3.821-1.36-3.91a4.631,4.631,0,0,1-.13-.615h-.027a4,4,0,0,1-.137.615l-1.347,3.91Zm9.276,3.5A3.911,3.911,0,0,1-80.6.164,3.369,3.369,0,0,1-83.118-.81a3.451,3.451,0,0,1-.957-2.526,3.8,3.8,0,0,1,1.029-2.779,3.678,3.678,0,0,1,2.751-1.049,4.016,4.016,0,0,1,1.688.335v1.477A2.557,2.557,0,0,0-80.165-5.9a2.166,2.166,0,0,0-1.647.68,2.487,2.487,0,0,0-.643,1.781,2.371,2.371,0,0,0,.6,1.716,2.148,2.148,0,0,0,1.624.629A2.537,2.537,0,0,0-78.613-1.7Zm6.583,0A3.911,3.911,0,0,1-74.02.164,3.369,3.369,0,0,1-76.535-.81a3.451,3.451,0,0,1-.957-2.526,3.8,3.8,0,0,1,1.029-2.779,3.678,3.678,0,0,1,2.751-1.049,4.016,4.016,0,0,1,1.688.335v1.477A2.557,2.557,0,0,0-73.582-5.9a2.166,2.166,0,0,0-1.647.68,2.487,2.487,0,0,0-.643,1.781,2.371,2.371,0,0,0,.6,1.716,2.148,2.148,0,0,0,1.624.629A2.537,2.537,0,0,0-72.03-1.7Zm4.676.485a3.47,3.47,0,0,1-2.587-.981,3.544,3.544,0,0,1-.967-2.6A3.687,3.687,0,0,1-69.9-6.173a3.708,3.708,0,0,1,2.717-.991,3.358,3.358,0,0,1,2.557.964,3.723,3.723,0,0,1,.916,2.673A3.669,3.669,0,0,1-64.7-.844,3.548,3.548,0,0,1-67.354.164Zm.075-6.063a1.81,1.81,0,0,0-1.47.649,2.719,2.719,0,0,0-.54,1.791,2.561,2.561,0,0,0,.547,1.733,1.837,1.837,0,0,0,1.463.632,1.743,1.743,0,0,0,1.439-.622,2.754,2.754,0,0,0,.5-1.771,2.8,2.8,0,0,0-.5-1.784A1.734,1.734,0,0,0-67.279-5.9ZM-55.993,0h-1.586V-1.107h-.027A2.282,2.282,0,0,1-59.753.164q-2.481,0-2.481-2.98V-7h1.586v4.02q0,1.887,1.456,1.887a1.471,1.471,0,0,0,1.159-.52,1.991,1.991,0,0,0,.455-1.36V-7h1.586Zm8.3,0H-49.28V-3.944q0-1.962-1.388-1.962a1.515,1.515,0,0,0-1.2.543,2.016,2.016,0,0,0-.472,1.371V0h-1.593V-7h1.593v1.162h.027a2.5,2.5,0,0,1,2.27-1.326,2.114,2.114,0,0,1,1.743.742,3.33,3.33,0,0,1,.6,2.143Zm5.626-.075a2.748,2.748,0,0,1-1.224.232q-2.037,0-2.037-1.955V-5.756H-46.5V-7h1.169V-8.62l1.586-.451V-7h1.675v1.244h-1.675v3.5a1.379,1.379,0,0,0,.226.889.936.936,0,0,0,.752.267,1.09,1.09,0,0,0,.7-.232ZM-28.362,0H-30.14l-4.683-7.205a3.2,3.2,0,0,1-.294-.567h-.041A10.092,10.092,0,0,1-35.1-6.426V0h-1.572V-9.8h1.894l4.525,7.034q.287.438.369.6h.027a8.71,8.71,0,0,1-.068-1.319V-9.8h1.565Zm7.622,0h-1.538V-1.094h-.027A2.316,2.316,0,0,1-24.432.164,2.239,2.239,0,0,1-26.048-.4a1.961,1.961,0,0,1-.584-1.483q0-1.982,2.283-2.311l2.078-.294q0-1.5-1.422-1.5a3.378,3.378,0,0,0-2.256.861V-6.508a4.919,4.919,0,0,1,2.557-.656A2.326,2.326,0,0,1-20.74-4.553Zm-1.531-3.438-1.47.205A2.33,2.33,0,0,0-24.77-2.9a.969.969,0,0,0-.345.851.932.932,0,0,0,.318.728,1.231,1.231,0,0,0,.851.284,1.57,1.57,0,0,0,1.2-.509,1.806,1.806,0,0,0,.475-1.282ZM-8.34,0H-9.926V-3.814a3.091,3.091,0,0,0-.311-1.593A1.144,1.144,0,0,0-11.286-5.9a1.265,1.265,0,0,0-1.056.622,2.538,2.538,0,0,0-.434,1.49V0h-1.593V-3.944q0-1.955-1.381-1.955a1.246,1.246,0,0,0-1.056.588,2.592,2.592,0,0,0-.414,1.524V0h-1.586V-7h1.586v1.107h.027a2.425,2.425,0,0,1,2.208-1.271,2.082,2.082,0,0,1,1.268.4,1.992,1.992,0,0,1,.742,1.049A2.5,2.5,0,0,1-10.65-7.164q2.311,0,2.311,2.851ZM-.479-3.069H-5.25a2.017,2.017,0,0,0,.6,1.5,2.225,2.225,0,0,0,1.569.526,3.459,3.459,0,0,0,2.058-.67V-.437a4.7,4.7,0,0,1-2.529.6A3.131,3.131,0,0,1-5.978-.79a3.814,3.814,0,0,1-.878-2.683,3.73,3.73,0,0,1,.967-2.663,3.164,3.164,0,0,1,2.4-1.029,2.759,2.759,0,0,1,2.222.923A3.832,3.832,0,0,1-.479-3.678ZM-2.01-4.19a2.044,2.044,0,0,0-.4-1.33A1.348,1.348,0,0,0-3.507-6a1.539,1.539,0,0,0-1.159.5A2.28,2.28,0,0,0-5.25-4.19Z" transform="translate(327 57)" fill="#31313a"/>
    <g id="Input-_no_label-2" data-name="Input- no label" transform="translate(367 92)" clip-path="url(#clip-path)">
      <g id="Rectangle_288-2" data-name="Rectangle 288" fill="#fff" stroke="#cbcbd2" stroke-width="1">
        <rect width="300" height="42" rx="4" stroke="none"/>
        <rect x="0.5" y="0.5" width="299" height="41" rx="3.5" fill="none"/>
      </g>
    </g>
    <path id="Path_101943" data-name="Path 101943" d="M-79.55,0V-9.8h3.11a3.676,3.676,0,0,1,2.252.622,1.934,1.934,0,0,1,.831,1.62,2.313,2.313,0,0,1-.472,1.449,2.545,2.545,0,0,1-1.306.875v.027a2.558,2.558,0,0,1,1.617.749,2.28,2.28,0,0,1,.6,1.644A2.469,2.469,0,0,1-73.9-.779a3.924,3.924,0,0,1-2.5.779Zm1.62-8.5v2.789h1.053a2.022,2.022,0,0,0,1.33-.4,1.388,1.388,0,0,0,.482-1.131q0-1.258-1.682-1.258Zm0,4.095v3.1h1.388a2.11,2.11,0,0,0,1.4-.42,1.438,1.438,0,0,0,.5-1.159q0-1.524-2.112-1.524Zm10.719-1.087a1.315,1.315,0,0,0-.827-.226,1.416,1.416,0,0,0-1.176.636,2.843,2.843,0,0,0-.472,1.729V0h-1.586V-7h1.586v1.442h.027a2.438,2.438,0,0,1,.714-1.152,1.612,1.612,0,0,1,1.077-.414,1.337,1.337,0,0,1,.656.13Zm4.1,5.653A3.47,3.47,0,0,1-65.7-.817a3.544,3.544,0,0,1-.967-2.6,3.687,3.687,0,0,1,1.008-2.755,3.708,3.708,0,0,1,2.717-.991,3.358,3.358,0,0,1,2.557.964,3.723,3.723,0,0,1,.916,2.673,3.669,3.669,0,0,1-.988,2.683A3.548,3.548,0,0,1-63.109.164Zm.075-6.063a1.81,1.81,0,0,0-1.47.649,2.719,2.719,0,0,0-.54,1.791A2.561,2.561,0,0,0-64.5-1.726a1.837,1.837,0,0,0,1.463.632A1.743,1.743,0,0,0-61.6-1.716a2.754,2.754,0,0,0,.5-1.771,2.8,2.8,0,0,0-.5-1.784A1.734,1.734,0,0,0-63.034-5.9ZM-51.5,0h-2.01l-2.721-3.363h-.027V0h-1.593V-10.363h1.593v6.569h.027L-53.662-7h1.907l-2.892,3.377Zm6.679-3.069h-4.771a2.017,2.017,0,0,0,.6,1.5,2.225,2.225,0,0,0,1.569.526,3.459,3.459,0,0,0,2.058-.67V-.437a4.7,4.7,0,0,1-2.529.6A3.131,3.131,0,0,1-50.323-.79,3.814,3.814,0,0,1-51.2-3.473a3.73,3.73,0,0,1,.967-2.663,3.164,3.164,0,0,1,2.4-1.029,2.759,2.759,0,0,1,2.222.923,3.832,3.832,0,0,1,.786,2.563ZM-46.354-4.19a2.044,2.044,0,0,0-.4-1.33A1.348,1.348,0,0,0-47.852-6a1.539,1.539,0,0,0-1.159.5,2.28,2.28,0,0,0-.584,1.306Zm7.1-1.3a1.315,1.315,0,0,0-.827-.226,1.416,1.416,0,0,0-1.176.636,2.843,2.843,0,0,0-.472,1.729V0h-1.586V-7h1.586v1.442h.027a2.439,2.439,0,0,1,.714-1.152,1.612,1.612,0,0,1,1.077-.414,1.337,1.337,0,0,1,.656.13ZM-28.048,0h-1.586V-3.944q0-1.962-1.388-1.962a1.515,1.515,0,0,0-1.2.543,2.016,2.016,0,0,0-.472,1.371V0h-1.593V-7h1.593v1.162h.027a2.5,2.5,0,0,1,2.27-1.326,2.114,2.114,0,0,1,1.743.742,3.33,3.33,0,0,1,.6,2.143Zm7.308,0h-1.538V-1.094h-.027A2.316,2.316,0,0,1-24.432.164,2.239,2.239,0,0,1-26.048-.4a1.961,1.961,0,0,1-.584-1.483q0-1.982,2.283-2.311l2.078-.294q0-1.5-1.422-1.5a3.378,3.378,0,0,0-2.256.861V-6.508a4.919,4.919,0,0,1,2.557-.656A2.326,2.326,0,0,1-20.74-4.553Zm-1.531-3.438-1.47.205A2.33,2.33,0,0,0-24.77-2.9a.969.969,0,0,0-.345.851.932.932,0,0,0,.318.728,1.231,1.231,0,0,0,.851.284,1.57,1.57,0,0,0,1.2-.509,1.806,1.806,0,0,0,.475-1.282ZM-8.34,0H-9.926V-3.814a3.091,3.091,0,0,0-.311-1.593A1.144,1.144,0,0,0-11.286-5.9a1.265,1.265,0,0,0-1.056.622,2.538,2.538,0,0,0-.434,1.49V0h-1.593V-3.944q0-1.955-1.381-1.955a1.246,1.246,0,0,0-1.056.588,2.592,2.592,0,0,0-.414,1.524V0h-1.586V-7h1.586v1.107h.027a2.425,2.425,0,0,1,2.208-1.271,2.082,2.082,0,0,1,1.268.4,1.992,1.992,0,0,1,.742,1.049A2.5,2.5,0,0,1-10.65-7.164q2.311,0,2.311,2.851ZM-.479-3.069H-5.25a2.017,2.017,0,0,0,.6,1.5,2.225,2.225,0,0,0,1.569.526,3.459,3.459,0,0,0,2.058-.67V-.437a4.7,4.7,0,0,1-2.529.6A3.131,3.131,0,0,1-5.978-.79a3.814,3.814,0,0,1-.878-2.683,3.73,3.73,0,0,1,.967-2.663,3.164,3.164,0,0,1,2.4-1.029,2.759,2.759,0,0,1,2.222.923A3.832,3.832,0,0,1-.479-3.678ZM-2.01-4.19a2.044,2.044,0,0,0-.4-1.33A1.348,1.348,0,0,0-3.507-6a1.539,1.539,0,0,0-1.159.5A2.28,2.28,0,0,0-5.25-4.19Z" transform="translate(327 119)" fill="#31313a"/>
    <g id="Primary_Button_-_Normal" data-name="Primary Button - Normal" transform="translate(367 288)">
      <rect id="Rectangle_3990" data-name="Rectangle 3990" width="73.934" height="36" rx="18" fill="#2777d3"/>
      <path id="Path_101951" data-name="Path 101951" d="M-13.921-.39V-2.064a2.587,2.587,0,0,0,.537.369,4.146,4.146,0,0,0,.66.277,5.2,5.2,0,0,0,.7.174,3.717,3.717,0,0,0,.643.062,2.742,2.742,0,0,0,1.528-.342,1.124,1.124,0,0,0,.5-.991,1.081,1.081,0,0,0-.167-.6,1.757,1.757,0,0,0-.468-.468A4.92,4.92,0,0,0-10.7-4Q-11.1-4.19-11.57-4.4q-.5-.267-.93-.54a4,4,0,0,1-.749-.6,2.531,2.531,0,0,1-.5-.749,2.438,2.438,0,0,1-.181-.978,2.256,2.256,0,0,1,.311-1.2,2.627,2.627,0,0,1,.82-.841,3.761,3.761,0,0,1,1.159-.492,5.5,5.5,0,0,1,1.326-.161,5.353,5.353,0,0,1,2.242.349v1.606a3.581,3.581,0,0,0-2.146-.6,3.846,3.846,0,0,0-.721.068,2.144,2.144,0,0,0-.643.226,1.391,1.391,0,0,0-.461.4.989.989,0,0,0-.178.595,1.125,1.125,0,0,0,.137.567,1.464,1.464,0,0,0,.4.438,4.086,4.086,0,0,0,.643.386q.379.188.878.407.513.267.967.561a4.56,4.56,0,0,1,.8.649,2.854,2.854,0,0,1,.547.79,2.319,2.319,0,0,1,.2.988,2.448,2.448,0,0,1-.3,1.258,2.424,2.424,0,0,1-.81.834A3.608,3.608,0,0,1-9.929.021a6.61,6.61,0,0,1-1.4.144,5.967,5.967,0,0,1-.6-.038q-.359-.038-.735-.109a6.759,6.759,0,0,1-.711-.174A2.251,2.251,0,0,1-13.921-.39ZM-.653,0H-2.191V-1.094h-.027A2.316,2.316,0,0,1-4.344.164,2.239,2.239,0,0,1-5.961-.4,1.961,1.961,0,0,1-6.545-1.88q0-1.982,2.283-2.311l2.078-.294q0-1.5-1.422-1.5a3.378,3.378,0,0,0-2.256.861V-6.508a4.919,4.919,0,0,1,2.557-.656A2.326,2.326,0,0,1-.653-4.553ZM-2.184-3.438l-1.47.205A2.33,2.33,0,0,0-4.683-2.9a.969.969,0,0,0-.345.851.932.932,0,0,0,.318.728,1.231,1.231,0,0,0,.851.284,1.57,1.57,0,0,0,1.2-.509A1.806,1.806,0,0,0-2.184-2.83ZM7.311-7,4.6,0H2.888L.311-7H2.034L3.585-2.105a4.563,4.563,0,0,1,.219.943h.021a5.064,5.064,0,0,1,.191-.916L5.643-7ZM14.2-3.069H9.43a2.017,2.017,0,0,0,.6,1.5,2.225,2.225,0,0,0,1.569.526,3.459,3.459,0,0,0,2.058-.67V-.437a4.7,4.7,0,0,1-2.529.6A3.131,3.131,0,0,1,8.7-.79a3.814,3.814,0,0,1-.878-2.683,3.73,3.73,0,0,1,.967-2.663,3.164,3.164,0,0,1,2.4-1.029,2.759,2.759,0,0,1,2.222.923A3.832,3.832,0,0,1,14.2-3.678ZM12.67-4.19a2.044,2.044,0,0,0-.4-1.33A1.348,1.348,0,0,0,11.173-6a1.539,1.539,0,0,0-1.159.5A2.28,2.28,0,0,0,9.43-4.19Z" transform="translate(37 23)" fill="#fff"/>
    </g>
    <g id="Secondary_Button_-_Normal" data-name="Secondary Button - Normal" transform="translate(451 288)">
      <rect id="Rectangle_3991" data-name="Rectangle 3991" width="73.934" height="36" rx="18" fill="none"/>
      <path id="Path_101950" data-name="Path 101950" d="M-12.879-.41a5.943,5.943,0,0,1-2.755.574,4.5,4.5,0,0,1-3.418-1.347,4.907,4.907,0,0,1-1.285-3.534,5.146,5.146,0,0,1,1.446-3.8,4.946,4.946,0,0,1,3.654-1.449,5.988,5.988,0,0,1,2.358.4V-7.95a4.208,4.208,0,0,0-2.187-.588A3.433,3.433,0,0,0-17.647-7.52,3.742,3.742,0,0,0-18.635-4.8a3.568,3.568,0,0,0,.923,2.581,3.212,3.212,0,0,0,2.427.96,4.345,4.345,0,0,0,2.406-.656ZM-5.824,0H-7.362V-1.094H-7.39A2.316,2.316,0,0,1-9.516.164,2.239,2.239,0,0,1-11.132-.4a1.961,1.961,0,0,1-.584-1.483q0-1.982,2.283-2.311l2.078-.294q0-1.5-1.422-1.5a3.378,3.378,0,0,0-2.256.861V-6.508a4.919,4.919,0,0,1,2.557-.656A2.326,2.326,0,0,1-5.824-4.553ZM-7.355-3.438l-1.47.205A2.33,2.33,0,0,0-9.854-2.9a.969.969,0,0,0-.345.851.932.932,0,0,0,.318.728,1.231,1.231,0,0,0,.851.284,1.57,1.57,0,0,0,1.2-.509A1.806,1.806,0,0,0-7.355-2.83ZM2.345,0H.759V-3.944q0-1.962-1.388-1.962a1.515,1.515,0,0,0-1.2.543A2.016,2.016,0,0,0-2.3-3.992V0H-3.89V-7H-2.3v1.162h.027A2.5,2.5,0,0,1,0-7.164a2.114,2.114,0,0,1,1.743.742,3.33,3.33,0,0,1,.6,2.143ZM9.29-.321A3.911,3.911,0,0,1,7.3.164,3.369,3.369,0,0,1,4.785-.81a3.451,3.451,0,0,1-.957-2.526A3.8,3.8,0,0,1,4.857-6.115,3.678,3.678,0,0,1,7.608-7.164,4.016,4.016,0,0,1,9.3-6.829v1.477A2.557,2.557,0,0,0,7.738-5.9a2.166,2.166,0,0,0-1.647.68,2.487,2.487,0,0,0-.643,1.781,2.371,2.371,0,0,0,.6,1.716,2.148,2.148,0,0,0,1.624.629A2.537,2.537,0,0,0,9.29-1.7Zm7.5-2.748H12.018a2.017,2.017,0,0,0,.6,1.5,2.225,2.225,0,0,0,1.569.526,3.459,3.459,0,0,0,2.058-.67V-.437a4.7,4.7,0,0,1-2.529.6A3.131,3.131,0,0,1,11.29-.79a3.814,3.814,0,0,1-.878-2.683,3.73,3.73,0,0,1,.967-2.663,3.164,3.164,0,0,1,2.4-1.029A2.759,2.759,0,0,1,16-6.241a3.832,3.832,0,0,1,.786,2.563ZM15.258-4.19a2.044,2.044,0,0,0-.4-1.33A1.348,1.348,0,0,0,13.761-6a1.539,1.539,0,0,0-1.159.5,2.28,2.28,0,0,0-.584,1.306ZM19.893,0H18.3V-10.363h1.593Z" transform="translate(37 23)" fill="#2777d3"/>
    </g>
    <path id="Path_101945" data-name="Path 101945" d="M-66.548-.39V-2.064a2.587,2.587,0,0,0,.537.369,4.147,4.147,0,0,0,.66.277,5.2,5.2,0,0,0,.7.174,3.717,3.717,0,0,0,.643.062,2.742,2.742,0,0,0,1.528-.342,1.124,1.124,0,0,0,.5-.991,1.081,1.081,0,0,0-.167-.6,1.757,1.757,0,0,0-.468-.468A4.92,4.92,0,0,0-63.325-4q-.407-.195-.872-.407-.5-.267-.93-.54a4,4,0,0,1-.749-.6,2.531,2.531,0,0,1-.5-.749,2.438,2.438,0,0,1-.181-.978,2.256,2.256,0,0,1,.311-1.2,2.627,2.627,0,0,1,.82-.841,3.761,3.761,0,0,1,1.159-.492,5.5,5.5,0,0,1,1.326-.161,5.353,5.353,0,0,1,2.242.349v1.606a3.581,3.581,0,0,0-2.146-.6,3.846,3.846,0,0,0-.721.068,2.144,2.144,0,0,0-.643.226,1.391,1.391,0,0,0-.461.4.989.989,0,0,0-.178.595,1.125,1.125,0,0,0,.137.567,1.464,1.464,0,0,0,.4.438,4.086,4.086,0,0,0,.643.386q.379.188.878.407.513.267.967.561a4.56,4.56,0,0,1,.8.649,2.854,2.854,0,0,1,.547.79,2.319,2.319,0,0,1,.2.988,2.448,2.448,0,0,1-.3,1.258,2.424,2.424,0,0,1-.81.834,3.608,3.608,0,0,1-1.172.465,6.61,6.61,0,0,1-1.4.144,5.967,5.967,0,0,1-.6-.038Q-64.921.089-65.3.017a6.759,6.759,0,0,1-.711-.174A2.251,2.251,0,0,1-66.548-.39ZM-48.187,0h-1.586V-3.814a3.091,3.091,0,0,0-.311-1.593A1.144,1.144,0,0,0-51.133-5.9a1.265,1.265,0,0,0-1.056.622,2.538,2.538,0,0,0-.434,1.49V0h-1.593V-3.944q0-1.955-1.381-1.955a1.246,1.246,0,0,0-1.056.588,2.592,2.592,0,0,0-.414,1.524V0h-1.586V-7h1.586v1.107h.027a2.425,2.425,0,0,1,2.208-1.271,2.082,2.082,0,0,1,1.268.4,1.992,1.992,0,0,1,.742,1.049A2.5,2.5,0,0,1-50.5-7.164q2.311,0,2.311,2.851Zm7.308,0h-1.538V-1.094h-.027A2.316,2.316,0,0,1-44.57.164,2.239,2.239,0,0,1-46.187-.4a1.961,1.961,0,0,1-.584-1.483q0-1.982,2.283-2.311l2.078-.294q0-1.5-1.422-1.5a3.378,3.378,0,0,0-2.256.861V-6.508a4.919,4.919,0,0,1,2.557-.656,2.326,2.326,0,0,1,2.652,2.611ZM-42.41-3.438l-1.47.205a2.33,2.33,0,0,0-1.029.332.969.969,0,0,0-.345.851.932.932,0,0,0,.318.728,1.231,1.231,0,0,0,.851.284,1.57,1.57,0,0,0,1.2-.509A1.806,1.806,0,0,0-42.41-2.83ZM-37.352,0h-1.593V-10.363h1.593Zm3.657,0h-1.593V-10.363h1.593Zm7.506,0h-1.593V-10.363h1.593Zm5.168.164a3.47,3.47,0,0,1-2.587-.981,3.544,3.544,0,0,1-.967-2.6,3.687,3.687,0,0,1,1.008-2.755,3.708,3.708,0,0,1,2.717-.991,3.358,3.358,0,0,1,2.557.964,3.723,3.723,0,0,1,.916,2.673,3.669,3.669,0,0,1-.988,2.683A3.548,3.548,0,0,1-21.021.164Zm.075-6.063a1.81,1.81,0,0,0-1.47.649,2.719,2.719,0,0,0-.54,1.791,2.561,2.561,0,0,0,.547,1.733,1.837,1.837,0,0,0,1.463.632,1.743,1.743,0,0,0,1.439-.622A2.754,2.754,0,0,0-19-3.486a2.8,2.8,0,0,0-.5-1.784A1.734,1.734,0,0,0-20.945-5.9ZM-9.393-.561q0,3.855-3.876,3.855a5.773,5.773,0,0,1-2.386-.458V1.388a4.415,4.415,0,0,0,2.181.656,2.187,2.187,0,0,0,2.5-2.454v-.766h-.027A2.568,2.568,0,0,1-13.371.164a2.558,2.558,0,0,1-2.061-.933,3.773,3.773,0,0,1-.783-2.505,4.419,4.419,0,0,1,.841-2.837,2.8,2.8,0,0,1,2.311-1.053,2.227,2.227,0,0,1,2.058,1.135h.027V-7h1.586Zm-1.572-2.646v-.909a1.781,1.781,0,0,0-.489-1.261,1.6,1.6,0,0,0-1.22-.523,1.677,1.677,0,0,0-1.412.667,3.008,3.008,0,0,0-.509,1.863,2.589,2.589,0,0,0,.489,1.651,1.569,1.569,0,0,0,1.3.619,1.681,1.681,0,0,0,1.333-.591A2.228,2.228,0,0,0-10.965-3.206Zm6.74,3.37A3.47,3.47,0,0,1-6.812-.817a3.544,3.544,0,0,1-.967-2.6A3.687,3.687,0,0,1-6.771-6.173a3.708,3.708,0,0,1,2.717-.991A3.358,3.358,0,0,1-1.5-6.2,3.723,3.723,0,0,1-.581-3.527,3.669,3.669,0,0,1-1.569-.844,3.548,3.548,0,0,1-4.225.164ZM-4.149-5.9a1.81,1.81,0,0,0-1.47.649,2.719,2.719,0,0,0-.54,1.791,2.561,2.561,0,0,0,.547,1.733,1.837,1.837,0,0,0,1.463.632A1.743,1.743,0,0,0-2.71-1.716a2.754,2.754,0,0,0,.5-1.771,2.8,2.8,0,0,0-.5-1.784A1.734,1.734,0,0,0-4.149-5.9Z" transform="translate(327 243)" fill="#31313a"/>
    <g id="Group_267482" data-name="Group 267482" transform="translate(98.066 -34)">
      <g id="Input-_no_label-3" data-name="Input- no label" transform="translate(369 250)">
        <g id="Rectangle_288-3" data-name="Rectangle 288" transform="translate(1)" fill="#fff" stroke="#cbcbd2" stroke-width="1">
          <path d="M0,0H195a4,4,0,0,1,4,4V38a4,4,0,0,1-4,4H0a0,0,0,0,1,0,0V0A0,0,0,0,1,0,0Z" stroke="none"/>
          <path d="M1,.5H195A3.5,3.5,0,0,1,198.5,4V38a3.5,3.5,0,0,1-3.5,3.5H1A.5.5,0,0,1,.5,41V1A.5.5,0,0,1,1,.5Z" fill="none"/>
        </g>
      </g>
      <g id="Path_8229" data-name="Path 8229" transform="translate(325.934 292) rotate(180)" fill="#f4f4f6">
        <path d="M 53.56950759887695 41.5 L -44.5 41.5 L -44.5 0.5 L 53.56950759887695 0.5 C 55.18538665771484 0.5 56.5 2.070093393325806 56.5 4 L 56.5 38 C 56.5 39.92990493774414 55.18538665771484 41.5 53.56950759887695 41.5 Z" stroke="none"/>
        <path d="M -44 1 L -44 41 L 53.56950759887695 41 C 54.9096794128418 41 56 39.65420150756836 56 38 L 56 4 C 56 2.345798492431641 54.9096794128418 1 53.56950759887695 1 L -44 1 M -45 0 L 53.56950759887695 0 C 55.46410751342773 0 57 1.790851593017578 57 4 L 57 38 C 57 40.20913314819336 55.46410751342773 42 53.56950759887695 42 L -45 42 L -45 0 Z" stroke="none" fill="#cbcbd2"/>
      </g>
      <path id="Path_101949" data-name="Path 101949" d="M-21.759,0V-9.8h3.11a3.675,3.675,0,0,1,2.252.622,1.934,1.934,0,0,1,.831,1.62,2.313,2.313,0,0,1-.472,1.449,2.545,2.545,0,0,1-1.306.875v.027a2.558,2.558,0,0,1,1.617.749,2.28,2.28,0,0,1,.6,1.644,2.469,2.469,0,0,1-.991,2.037,3.924,3.924,0,0,1-2.5.779Zm1.62-8.5v2.789h1.053a2.022,2.022,0,0,0,1.33-.4,1.388,1.388,0,0,0,.482-1.131q0-1.258-1.682-1.258Zm0,4.095v3.1h1.388a2.11,2.11,0,0,0,1.4-.42,1.438,1.438,0,0,0,.5-1.159q0-1.524-2.112-1.524ZM-9.42-5.489a1.315,1.315,0,0,0-.827-.226,1.416,1.416,0,0,0-1.176.636,2.843,2.843,0,0,0-.472,1.729V0H-13.48V-7h1.586v1.442h.027a2.439,2.439,0,0,1,.714-1.152,1.612,1.612,0,0,1,1.077-.414,1.337,1.337,0,0,1,.656.13Zm4.1,5.653A3.47,3.47,0,0,1-7.906-.817a3.544,3.544,0,0,1-.967-2.6A3.687,3.687,0,0,1-7.865-6.173a3.708,3.708,0,0,1,2.717-.991A3.358,3.358,0,0,1-2.591-6.2a3.723,3.723,0,0,1,.916,2.673A3.669,3.669,0,0,1-2.663-.844,3.548,3.548,0,0,1-5.318.164ZM-5.243-5.9a1.81,1.81,0,0,0-1.47.649,2.719,2.719,0,0,0-.54,1.791,2.561,2.561,0,0,0,.547,1.733,1.837,1.837,0,0,0,1.463.632A1.743,1.743,0,0,0-3.8-1.716a2.754,2.754,0,0,0,.5-1.771,2.8,2.8,0,0,0-.5-1.784A1.734,1.734,0,0,0-5.243-5.9ZM9.352-7,7.287,0H5.626L4.354-4.744a3,3,0,0,1-.1-.615H4.231a2.8,2.8,0,0,1-.123.6L2.728,0H1.1L-.957-7H.684L1.955-1.955a2.989,2.989,0,0,1,.082.6h.048a3.249,3.249,0,0,1,.109-.615L3.609-7H5.1L6.357-1.935a3.543,3.543,0,0,1,.089.6h.048a3.19,3.19,0,0,1,.1-.6L7.841-7ZM10.09-.219v-1.47a3.164,3.164,0,0,0,1.962.677q1.436,0,1.436-.848a.668.668,0,0,0-.123-.407,1.175,1.175,0,0,0-.332-.3,2.607,2.607,0,0,0-.492-.232q-.284-.1-.632-.232a6.694,6.694,0,0,1-.776-.362,2.344,2.344,0,0,1-.574-.434,1.639,1.639,0,0,1-.345-.55,2.026,2.026,0,0,1-.116-.718,1.659,1.659,0,0,1,.239-.892,2.079,2.079,0,0,1,.643-.649,3.081,3.081,0,0,1,.916-.4,4.194,4.194,0,0,1,1.06-.133,4.817,4.817,0,0,1,1.736.294v1.388A2.927,2.927,0,0,0,13-5.988a2.214,2.214,0,0,0-.543.062,1.4,1.4,0,0,0-.414.171.841.841,0,0,0-.267.263.628.628,0,0,0-.1.338.723.723,0,0,0,.1.383.869.869,0,0,0,.284.277,2.45,2.45,0,0,0,.451.219q.263.1.6.215a8.839,8.839,0,0,1,.81.376,2.737,2.737,0,0,1,.612.434,1.7,1.7,0,0,1,.39.561,1.9,1.9,0,0,1,.137.755,1.727,1.727,0,0,1-.246.93,2.051,2.051,0,0,1-.656.656,3.072,3.072,0,0,1-.947.386,4.918,4.918,0,0,1-1.131.126A4.767,4.767,0,0,1,10.09-.219Zm12.4-2.851H17.719a2.017,2.017,0,0,0,.6,1.5,2.225,2.225,0,0,0,1.569.526,3.459,3.459,0,0,0,2.058-.67V-.437a4.7,4.7,0,0,1-2.529.6A3.131,3.131,0,0,1,16.991-.79a3.814,3.814,0,0,1-.878-2.683,3.73,3.73,0,0,1,.967-2.663,3.164,3.164,0,0,1,2.4-1.029,2.759,2.759,0,0,1,2.222.923,3.832,3.832,0,0,1,.786,2.563ZM20.959-4.19a2.044,2.044,0,0,0-.4-1.33A1.348,1.348,0,0,0,19.462-6a1.539,1.539,0,0,0-1.159.5,2.28,2.28,0,0,0-.584,1.306Z" transform="translate(333 277)" fill="#2777d3"/>
      <g id="Group_267410" data-name="Group 267410" transform="translate(284 263)">
        <g id="Group_267409" data-name="Group 267409">
          <path id="Path_101926" data-name="Path 101926" d="M8.2,4.1H7.8L4.3,7.8a.2.2,0,0,0,0,.3l.9,1h.3L7.1,7.5v8.3a.2.2,0,0,0,.2.2H8.7a.2.2,0,0,0,.2-.2V7.5l1.6,1.7h.3l.9-1a.2.2,0,0,0,0-.3Z" fill="#2777d3"/>
          <rect id="Rectangle_10371" data-name="Rectangle 10371" width="16" height="2" rx="0.5" transform="translate(16 2) rotate(180)" fill="#2777d3"/>
        </g>
        <rect id="Rectangle_10372" data-name="Rectangle 10372" width="16" height="16" transform="translate(16 16) rotate(180)" fill="none"/>
      </g>
      <path id="Path_101948" data-name="Path 101948" d="M.827-.4V-1.75a2.629,2.629,0,0,0,.557.369,4.514,4.514,0,0,0,.684.277,5.442,5.442,0,0,0,.721.174,4.021,4.021,0,0,0,.67.062,2.624,2.624,0,0,0,1.583-.393,1.33,1.33,0,0,0,.523-1.131,1.328,1.328,0,0,0-.174-.69,1.964,1.964,0,0,0-.482-.537,4.782,4.782,0,0,0-.728-.465q-.42-.222-.906-.468-.513-.26-.957-.526a4.147,4.147,0,0,1-.772-.588A2.452,2.452,0,0,1,1.029-6.4a2.253,2.253,0,0,1-.188-.954,2.242,2.242,0,0,1,.294-1.166,2.521,2.521,0,0,1,.772-.817A3.5,3.5,0,0,1,3-9.81a4.992,4.992,0,0,1,1.248-.157,4.781,4.781,0,0,1,2.112.349v1.292a3.829,3.829,0,0,0-2.229-.6,3.665,3.665,0,0,0-.752.079,2.124,2.124,0,0,0-.67.256,1.484,1.484,0,0,0-.479.458,1.216,1.216,0,0,0-.185.684,1.407,1.407,0,0,0,.14.649,1.592,1.592,0,0,0,.414.5,4.119,4.119,0,0,0,.667.438q.393.212.906.465t1,.547A4.562,4.562,0,0,1,6-4.218a2.825,2.825,0,0,1,.564.772,2.171,2.171,0,0,1,.208.971,2.462,2.462,0,0,1-.284,1.227,2.328,2.328,0,0,1-.766.817A3.344,3.344,0,0,1,4.607.024a6.084,6.084,0,0,1-1.326.14A5.4,5.4,0,0,1,2.707.126Q2.365.089,2.01.017a5.689,5.689,0,0,1-.673-.178A2.1,2.1,0,0,1,.827-.4ZM14.2-3.22H9.256a2.618,2.618,0,0,0,.629,1.8,2.168,2.168,0,0,0,1.654.636,3.439,3.439,0,0,0,2.174-.779V-.506a4.063,4.063,0,0,1-2.44.67A2.959,2.959,0,0,1,8.941-.79a3.9,3.9,0,0,1-.848-2.683A3.828,3.828,0,0,1,9.02-6.135a2.97,2.97,0,0,1,2.3-1.029,2.632,2.632,0,0,1,2.126.889A3.705,3.705,0,0,1,14.2-3.808ZM13.05-4.17a2.281,2.281,0,0,0-.468-1.511,1.6,1.6,0,0,0-1.282-.54,1.811,1.811,0,0,0-1.347.567A2.575,2.575,0,0,0,9.27-4.17ZM17.015,0H15.894V-10.363h1.121Zm7.9-3.22H19.968a2.618,2.618,0,0,0,.629,1.8,2.168,2.168,0,0,0,1.654.636,3.439,3.439,0,0,0,2.174-.779V-.506a4.063,4.063,0,0,1-2.44.67A2.959,2.959,0,0,1,19.653-.79a3.9,3.9,0,0,1-.848-2.683,3.828,3.828,0,0,1,.926-2.663,2.97,2.97,0,0,1,2.3-1.029,2.632,2.632,0,0,1,2.126.889,3.705,3.705,0,0,1,.752,2.468Zm-1.148-.95a2.281,2.281,0,0,0-.468-1.511,1.6,1.6,0,0,0-1.282-.54,1.811,1.811,0,0,0-1.347.567,2.575,2.575,0,0,0-.684,1.483ZM31.377-.321a3.643,3.643,0,0,1-1.914.485A3.169,3.169,0,0,1,27.046-.81a3.53,3.53,0,0,1-.919-2.526,3.881,3.881,0,0,1,.991-2.779,3.467,3.467,0,0,1,2.646-1.049,3.682,3.682,0,0,1,1.627.342v1.148a2.85,2.85,0,0,0-1.668-.547,2.254,2.254,0,0,0-1.76.769,2.918,2.918,0,0,0-.687,2.02,2.779,2.779,0,0,0,.646,1.941,2.227,2.227,0,0,0,1.733.711,2.81,2.81,0,0,0,1.723-.608Zm4.942.253A2.161,2.161,0,0,1,35.273.15Q33.435.15,33.435-1.9V-6.043h-1.2V-7h1.2V-8.709l1.121-.362V-7h1.764v.957H34.556V-2.1a1.635,1.635,0,0,0,.239,1,.955.955,0,0,0,.793.3,1.179,1.179,0,0,0,.731-.232Zm8.258.232A3.247,3.247,0,0,1,42.1-.817a3.634,3.634,0,0,1-.926-2.6,3.785,3.785,0,0,1,.964-2.755,3.465,3.465,0,0,1,2.6-.991,3.14,3.14,0,0,1,2.444.964,3.822,3.822,0,0,1,.878,2.673,3.761,3.761,0,0,1-.947,2.683A3.317,3.317,0,0,1,44.577.164Zm.082-6.385a2.132,2.132,0,0,0-1.709.735,3.018,3.018,0,0,0-.629,2.027A2.854,2.854,0,0,0,42.957-1.5a2.161,2.161,0,0,0,1.7.718,2.049,2.049,0,0,0,1.671-.7,3.055,3.055,0,0,0,.584-2,3.108,3.108,0,0,0-.584-2.023A2.04,2.04,0,0,0,44.659-6.221Zm8.846.355a1.371,1.371,0,0,0-.848-.226,1.431,1.431,0,0,0-1.2.677,3.129,3.129,0,0,0-.482,1.846V0H49.854V-7h1.121v1.442H51a2.444,2.444,0,0,1,.731-1.152,1.668,1.668,0,0,1,1.1-.414,1.83,1.83,0,0,1,.67.1ZM64.531,0H63.41V-1.189h-.027A2.588,2.588,0,0,1,60.977.164a2.615,2.615,0,0,1-2.109-.94,3.856,3.856,0,0,1-.79-2.56,4.2,4.2,0,0,1,.875-2.782,2.886,2.886,0,0,1,2.331-1.046,2.244,2.244,0,0,1,2.1,1.135h.027v-4.334h1.121ZM63.41-3.165V-4.2a2,2,0,0,0-.561-1.436,1.88,1.88,0,0,0-1.422-.588,1.936,1.936,0,0,0-1.613.752,3.3,3.3,0,0,0-.588,2.078,2.964,2.964,0,0,0,.564,1.911,1.843,1.843,0,0,0,1.514.7,1.915,1.915,0,0,0,1.521-.677A2.521,2.521,0,0,0,63.41-3.165Zm7.041-2.7a1.371,1.371,0,0,0-.848-.226,1.431,1.431,0,0,0-1.2.677,3.129,3.129,0,0,0-.482,1.846V0H66.8V-7h1.121v1.442h.027a2.444,2.444,0,0,1,.731-1.152,1.668,1.668,0,0,1,1.1-.414,1.83,1.83,0,0,1,.67.1ZM76.679,0H75.558V-1.094H75.53A2.347,2.347,0,0,1,73.377.164,2.3,2.3,0,0,1,71.74-.39a1.918,1.918,0,0,1-.591-1.47q0-1.962,2.311-2.283l2.1-.294q0-1.784-1.442-1.784a3.446,3.446,0,0,0-2.283.861V-6.508a4.338,4.338,0,0,1,2.379-.656q2.468,0,2.468,2.611ZM75.558-3.541l-1.688.232a2.741,2.741,0,0,0-1.176.386,1.114,1.114,0,0,0-.4.981,1.068,1.068,0,0,0,.366.837,1.413,1.413,0,0,0,.974.325,1.8,1.8,0,0,0,1.377-.584,2.088,2.088,0,0,0,.543-1.48Zm9.208,2.98q0,3.855-3.691,3.855A4.956,4.956,0,0,1,78.8,2.8V1.682a4.661,4.661,0,0,0,2.256.656q2.584,0,2.584-2.748v-.766h-.027A2.622,2.622,0,0,1,81.211.164a2.628,2.628,0,0,1-2.1-.933,3.73,3.73,0,0,1-.8-2.505,4.358,4.358,0,0,1,.858-2.837,2.866,2.866,0,0,1,2.348-1.053,2.282,2.282,0,0,1,2.1,1.135h.027V-7h1.121Zm-1.121-2.6V-4.2a2,2,0,0,0-.564-1.429,1.857,1.857,0,0,0-1.4-.595,1.947,1.947,0,0,0-1.627.755,3.372,3.372,0,0,0-.588,2.116,2.894,2.894,0,0,0,.564,1.87,1.822,1.822,0,0,0,1.494.7,1.951,1.951,0,0,0,1.535-.67A2.5,2.5,0,0,0,83.645-3.165ZM94.329-9.379a1.493,1.493,0,0,0-.745-.185q-1.176,0-1.176,1.483V-7h1.641v.957H92.408V0H91.294V-6.043H90.1V-7h1.2V-8.135a2.358,2.358,0,0,1,.636-1.74,2.146,2.146,0,0,1,1.586-.639,2.2,2.2,0,0,1,.813.123Zm1.5.6a.71.71,0,0,1-.513-.205A.692.692,0,0,1,95.1-9.5a.7.7,0,0,1,.212-.523.7.7,0,0,1,.513-.208.724.724,0,0,1,.523.208.7.7,0,0,1,.215.523.693.693,0,0,1-.215.513A.718.718,0,0,1,95.826-8.777ZM96.373,0H95.252V-7h1.121Zm3.391,0H98.643V-10.363h1.121Zm7.9-3.22h-4.942a2.618,2.618,0,0,0,.629,1.8A2.168,2.168,0,0,0,105-.779a3.439,3.439,0,0,0,2.174-.779V-.506a4.063,4.063,0,0,1-2.44.67A2.959,2.959,0,0,1,102.4-.79a3.9,3.9,0,0,1-.848-2.683,3.828,3.828,0,0,1,.926-2.663,2.97,2.97,0,0,1,2.3-1.029,2.632,2.632,0,0,1,2.126.889,3.705,3.705,0,0,1,.752,2.468Zm-1.148-.95a2.281,2.281,0,0,0-.468-1.511,1.6,1.6,0,0,0-1.282-.54,1.811,1.811,0,0,0-1.347.567,2.575,2.575,0,0,0-.684,1.483Zm2.42,3.917v-1.2a3.318,3.318,0,0,0,2.017.677q1.477,0,1.477-.984a.854.854,0,0,0-.126-.475,1.26,1.26,0,0,0-.342-.345,2.631,2.631,0,0,0-.506-.27q-.291-.12-.625-.25a8.056,8.056,0,0,1-.817-.373,2.468,2.468,0,0,1-.588-.424,1.577,1.577,0,0,1-.355-.537,1.9,1.9,0,0,1-.12-.7,1.673,1.673,0,0,1,.226-.872,2,2,0,0,1,.6-.636,2.805,2.805,0,0,1,.858-.386,3.805,3.805,0,0,1,.995-.13,4.016,4.016,0,0,1,1.627.314v1.135a3.171,3.171,0,0,0-1.777-.506,2.078,2.078,0,0,0-.567.072,1.389,1.389,0,0,0-.434.2.932.932,0,0,0-.28.311.819.819,0,0,0-.1.4.959.959,0,0,0,.1.458,1.008,1.008,0,0,0,.291.328,2.221,2.221,0,0,0,.465.26q.273.116.622.253a8.658,8.658,0,0,1,.834.366,2.86,2.86,0,0,1,.629.424,1.656,1.656,0,0,1,.4.543,1.753,1.753,0,0,1,.14.731,1.725,1.725,0,0,1-.229.9,1.963,1.963,0,0,1-.612.636,2.8,2.8,0,0,1-.882.376A4.354,4.354,0,0,1,110.8.164,3.971,3.971,0,0,1,108.931-.253ZM124.94,0h-1.121V-4.033q0-2.188-1.627-2.187a1.774,1.774,0,0,0-1.381.632,2.356,2.356,0,0,0-.561,1.624V0H119.13V-10.363h1.121v4.525h.027a2.546,2.546,0,0,1,2.3-1.326q2.365,0,2.365,2.851Zm7.738-3.22h-4.942a2.618,2.618,0,0,0,.629,1.8,2.168,2.168,0,0,0,1.654.636,3.439,3.439,0,0,0,2.174-.779V-.506a4.063,4.063,0,0,1-2.44.67,2.959,2.959,0,0,1-2.331-.954,3.9,3.9,0,0,1-.848-2.683,3.828,3.828,0,0,1,.926-2.663,2.97,2.97,0,0,1,2.3-1.029,2.632,2.632,0,0,1,2.126.889,3.705,3.705,0,0,1,.752,2.468Zm-1.148-.95a2.281,2.281,0,0,0-.468-1.511,1.6,1.6,0,0,0-1.282-.54,1.811,1.811,0,0,0-1.347.567,2.575,2.575,0,0,0-.684,1.483Zm6.494-1.7a1.371,1.371,0,0,0-.848-.226,1.431,1.431,0,0,0-1.2.677,3.129,3.129,0,0,0-.482,1.846V0h-1.121V-7H135.5v1.442h.027a2.444,2.444,0,0,1,.731-1.152,1.668,1.668,0,0,1,1.1-.414,1.83,1.83,0,0,1,.67.1Zm6.843,2.646h-4.942a2.618,2.618,0,0,0,.629,1.8,2.168,2.168,0,0,0,1.654.636,3.439,3.439,0,0,0,2.174-.779V-.506a4.063,4.063,0,0,1-2.44.67A2.959,2.959,0,0,1,139.61-.79a3.9,3.9,0,0,1-.848-2.683,3.828,3.828,0,0,1,.926-2.663,2.97,2.97,0,0,1,2.3-1.029,2.632,2.632,0,0,1,2.126.889,3.705,3.705,0,0,1,.752,2.468Zm-1.148-.95a2.281,2.281,0,0,0-.468-1.511,1.6,1.6,0,0,0-1.282-.54,1.811,1.811,0,0,0-1.347.567,2.575,2.575,0,0,0-.684,1.483Z" transform="translate(384.934 277)" fill="#cbcbd2"/>
    </g>
    <g id="Group_267475" data-name="Group 267475" transform="translate(161 -133)">
      <g id="Group_267455" data-name="Group 267455" transform="translate(-62.934 37)">
        <g id="Path_8229-2" data-name="Path 8229" transform="translate(325.934 292) rotate(180)" fill="#f4f4f6">
          <path d="M 53.56950759887695 41.5 L -44.5 41.5 L -44.5 0.5 L 53.56950759887695 0.5 C 55.18538665771484 0.5 56.5 2.070093393325806 56.5 4 L 56.5 38 C 56.5 39.92990493774414 55.18538665771484 41.5 53.56950759887695 41.5 Z" stroke="none"/>
          <path d="M -44 1 L -44 41 L 53.56950759887695 41 C 54.9096794128418 41 56 39.65420150756836 56 38 L 56 4 C 56 2.345798492431641 54.9096794128418 1 53.56950759887695 1 L -44 1 M -45 0 L 53.56950759887695 0 C 55.46410751342773 0 57 1.790851593017578 57 4 L 57 38 C 57 40.20913314819336 55.46410751342773 42 53.56950759887695 42 L -45 42 L -45 0 Z" stroke="none" fill="#cbcbd2"/>
        </g>
        <g id="Input-_no_label-4" data-name="Input- no label" transform="translate(368 250)">
          <g id="Rectangle_288-4" data-name="Rectangle 288" transform="translate(1)" fill="#fff" stroke="#cbcbd2" stroke-width="1">
            <path d="M0,0H195a4,4,0,0,1,4,4V38a4,4,0,0,1-4,4H0a0,0,0,0,1,0,0V0A0,0,0,0,1,0,0Z" stroke="none"/>
            <path d="M1,.5H195A3.5,3.5,0,0,1,198.5,4V38a3.5,3.5,0,0,1-3.5,3.5H1A.5.5,0,0,1,.5,41V1A.5.5,0,0,1,1,.5Z" fill="none"/>
          </g>
          <g id="Rectangle_10373" data-name="Rectangle 10373" transform="translate(-99)" fill="none" stroke="#4e92df" stroke-width="2">
            <rect width="299" height="42" rx="4" stroke="none"/>
            <rect x="1" y="1" width="297" height="40" rx="3" fill="none"/>
          </g>
        </g>
        <path id="Path_101946" data-name="Path 101946" d="M-21.759,0V-9.8h3.11a3.675,3.675,0,0,1,2.252.622,1.934,1.934,0,0,1,.831,1.62,2.313,2.313,0,0,1-.472,1.449,2.545,2.545,0,0,1-1.306.875v.027a2.558,2.558,0,0,1,1.617.749,2.28,2.28,0,0,1,.6,1.644,2.469,2.469,0,0,1-.991,2.037,3.924,3.924,0,0,1-2.5.779Zm1.62-8.5v2.789h1.053a2.022,2.022,0,0,0,1.33-.4,1.388,1.388,0,0,0,.482-1.131q0-1.258-1.682-1.258Zm0,4.095v3.1h1.388a2.11,2.11,0,0,0,1.4-.42,1.438,1.438,0,0,0,.5-1.159q0-1.524-2.112-1.524ZM-9.42-5.489a1.315,1.315,0,0,0-.827-.226,1.416,1.416,0,0,0-1.176.636,2.843,2.843,0,0,0-.472,1.729V0H-13.48V-7h1.586v1.442h.027a2.439,2.439,0,0,1,.714-1.152,1.612,1.612,0,0,1,1.077-.414,1.337,1.337,0,0,1,.656.13Zm4.1,5.653A3.47,3.47,0,0,1-7.906-.817a3.544,3.544,0,0,1-.967-2.6A3.687,3.687,0,0,1-7.865-6.173a3.708,3.708,0,0,1,2.717-.991A3.358,3.358,0,0,1-2.591-6.2a3.723,3.723,0,0,1,.916,2.673A3.669,3.669,0,0,1-2.663-.844,3.548,3.548,0,0,1-5.318.164ZM-5.243-5.9a1.81,1.81,0,0,0-1.47.649,2.719,2.719,0,0,0-.54,1.791,2.561,2.561,0,0,0,.547,1.733,1.837,1.837,0,0,0,1.463.632A1.743,1.743,0,0,0-3.8-1.716a2.754,2.754,0,0,0,.5-1.771,2.8,2.8,0,0,0-.5-1.784A1.734,1.734,0,0,0-5.243-5.9ZM9.352-7,7.287,0H5.626L4.354-4.744a3,3,0,0,1-.1-.615H4.231a2.8,2.8,0,0,1-.123.6L2.728,0H1.1L-.957-7H.684L1.955-1.955a2.989,2.989,0,0,1,.082.6h.048a3.249,3.249,0,0,1,.109-.615L3.609-7H5.1L6.357-1.935a3.543,3.543,0,0,1,.089.6h.048a3.19,3.19,0,0,1,.1-.6L7.841-7ZM10.09-.219v-1.47a3.164,3.164,0,0,0,1.962.677q1.436,0,1.436-.848a.668.668,0,0,0-.123-.407,1.175,1.175,0,0,0-.332-.3,2.607,2.607,0,0,0-.492-.232q-.284-.1-.632-.232a6.694,6.694,0,0,1-.776-.362,2.344,2.344,0,0,1-.574-.434,1.639,1.639,0,0,1-.345-.55,2.026,2.026,0,0,1-.116-.718,1.659,1.659,0,0,1,.239-.892,2.079,2.079,0,0,1,.643-.649,3.081,3.081,0,0,1,.916-.4,4.194,4.194,0,0,1,1.06-.133,4.817,4.817,0,0,1,1.736.294v1.388A2.927,2.927,0,0,0,13-5.988a2.214,2.214,0,0,0-.543.062,1.4,1.4,0,0,0-.414.171.841.841,0,0,0-.267.263.628.628,0,0,0-.1.338.723.723,0,0,0,.1.383.869.869,0,0,0,.284.277,2.45,2.45,0,0,0,.451.219q.263.1.6.215a8.839,8.839,0,0,1,.81.376,2.737,2.737,0,0,1,.612.434,1.7,1.7,0,0,1,.39.561,1.9,1.9,0,0,1,.137.755,1.727,1.727,0,0,1-.246.93,2.051,2.051,0,0,1-.656.656,3.072,3.072,0,0,1-.947.386,4.918,4.918,0,0,1-1.131.126A4.767,4.767,0,0,1,10.09-.219Zm12.4-2.851H17.719a2.017,2.017,0,0,0,.6,1.5,2.225,2.225,0,0,0,1.569.526,3.459,3.459,0,0,0,2.058-.67V-.437a4.7,4.7,0,0,1-2.529.6A3.131,3.131,0,0,1,16.991-.79a3.814,3.814,0,0,1-.878-2.683,3.73,3.73,0,0,1,.967-2.663,3.164,3.164,0,0,1,2.4-1.029,2.759,2.759,0,0,1,2.222.923,3.832,3.832,0,0,1,.786,2.563ZM20.959-4.19a2.044,2.044,0,0,0-.4-1.33A1.348,1.348,0,0,0,19.462-6a1.539,1.539,0,0,0-1.159.5,2.28,2.28,0,0,0-.584,1.306Z" transform="translate(333 277)" fill="#2777d3"/>
        <g id="Group_267410-2" data-name="Group 267410" transform="translate(284 263)">
          <g id="Group_267409-2" data-name="Group 267409">
            <path id="Path_101926-2" data-name="Path 101926" d="M8.2,4.1H7.8L4.3,7.8a.2.2,0,0,0,0,.3l.9,1h.3L7.1,7.5v8.3a.2.2,0,0,0,.2.2H8.7a.2.2,0,0,0,.2-.2V7.5l1.6,1.7h.3l.9-1a.2.2,0,0,0,0-.3Z" fill="#2777d3"/>
            <rect id="Rectangle_10371-2" data-name="Rectangle 10371" width="16" height="2" rx="0.5" transform="translate(16 2) rotate(180)" fill="#2777d3"/>
          </g>
          <rect id="Rectangle_10372-2" data-name="Rectangle 10372" width="16" height="16" transform="translate(16 16) rotate(180)" fill="none"/>
        </g>
        <path id="Path_101947" data-name="Path 101947" d="M.827-.4V-1.75a2.629,2.629,0,0,0,.557.369,4.514,4.514,0,0,0,.684.277,5.442,5.442,0,0,0,.721.174,4.021,4.021,0,0,0,.67.062,2.624,2.624,0,0,0,1.583-.393,1.33,1.33,0,0,0,.523-1.131,1.328,1.328,0,0,0-.174-.69,1.964,1.964,0,0,0-.482-.537,4.782,4.782,0,0,0-.728-.465q-.42-.222-.906-.468-.513-.26-.957-.526a4.147,4.147,0,0,1-.772-.588A2.452,2.452,0,0,1,1.029-6.4a2.253,2.253,0,0,1-.188-.954,2.242,2.242,0,0,1,.294-1.166,2.521,2.521,0,0,1,.772-.817A3.5,3.5,0,0,1,3-9.81a4.992,4.992,0,0,1,1.248-.157,4.781,4.781,0,0,1,2.112.349v1.292a3.829,3.829,0,0,0-2.229-.6,3.665,3.665,0,0,0-.752.079,2.124,2.124,0,0,0-.67.256,1.484,1.484,0,0,0-.479.458,1.216,1.216,0,0,0-.185.684,1.407,1.407,0,0,0,.14.649,1.592,1.592,0,0,0,.414.5,4.119,4.119,0,0,0,.667.438q.393.212.906.465t1,.547A4.562,4.562,0,0,1,6-4.218a2.825,2.825,0,0,1,.564.772,2.171,2.171,0,0,1,.208.971,2.462,2.462,0,0,1-.284,1.227,2.328,2.328,0,0,1-.766.817A3.344,3.344,0,0,1,4.607.024a6.084,6.084,0,0,1-1.326.14A5.4,5.4,0,0,1,2.707.126Q2.365.089,2.01.017a5.689,5.689,0,0,1-.673-.178A2.1,2.1,0,0,1,.827-.4ZM14.2-3.22H9.256a2.618,2.618,0,0,0,.629,1.8,2.168,2.168,0,0,0,1.654.636,3.439,3.439,0,0,0,2.174-.779V-.506a4.063,4.063,0,0,1-2.44.67A2.959,2.959,0,0,1,8.941-.79a3.9,3.9,0,0,1-.848-2.683A3.828,3.828,0,0,1,9.02-6.135a2.97,2.97,0,0,1,2.3-1.029,2.632,2.632,0,0,1,2.126.889A3.705,3.705,0,0,1,14.2-3.808ZM13.05-4.17a2.281,2.281,0,0,0-.468-1.511,1.6,1.6,0,0,0-1.282-.54,1.811,1.811,0,0,0-1.347.567A2.575,2.575,0,0,0,9.27-4.17ZM17.015,0H15.894V-10.363h1.121Zm7.9-3.22H19.968a2.618,2.618,0,0,0,.629,1.8,2.168,2.168,0,0,0,1.654.636,3.439,3.439,0,0,0,2.174-.779V-.506a4.063,4.063,0,0,1-2.44.67A2.959,2.959,0,0,1,19.653-.79a3.9,3.9,0,0,1-.848-2.683,3.828,3.828,0,0,1,.926-2.663,2.97,2.97,0,0,1,2.3-1.029,2.632,2.632,0,0,1,2.126.889,3.705,3.705,0,0,1,.752,2.468Zm-1.148-.95a2.281,2.281,0,0,0-.468-1.511,1.6,1.6,0,0,0-1.282-.54,1.811,1.811,0,0,0-1.347.567,2.575,2.575,0,0,0-.684,1.483ZM31.377-.321a3.643,3.643,0,0,1-1.914.485A3.169,3.169,0,0,1,27.046-.81a3.53,3.53,0,0,1-.919-2.526,3.881,3.881,0,0,1,.991-2.779,3.467,3.467,0,0,1,2.646-1.049,3.682,3.682,0,0,1,1.627.342v1.148a2.85,2.85,0,0,0-1.668-.547,2.254,2.254,0,0,0-1.76.769,2.918,2.918,0,0,0-.687,2.02,2.779,2.779,0,0,0,.646,1.941,2.227,2.227,0,0,0,1.733.711,2.81,2.81,0,0,0,1.723-.608Zm4.942.253A2.161,2.161,0,0,1,35.273.15Q33.435.15,33.435-1.9V-6.043h-1.2V-7h1.2V-8.709l1.121-.362V-7h1.764v.957H34.556V-2.1a1.635,1.635,0,0,0,.239,1,.955.955,0,0,0,.793.3,1.179,1.179,0,0,0,.731-.232Zm8.258.232A3.247,3.247,0,0,1,42.1-.817a3.634,3.634,0,0,1-.926-2.6,3.785,3.785,0,0,1,.964-2.755,3.465,3.465,0,0,1,2.6-.991,3.14,3.14,0,0,1,2.444.964,3.822,3.822,0,0,1,.878,2.673,3.761,3.761,0,0,1-.947,2.683A3.317,3.317,0,0,1,44.577.164Zm.082-6.385a2.132,2.132,0,0,0-1.709.735,3.018,3.018,0,0,0-.629,2.027A2.854,2.854,0,0,0,42.957-1.5a2.161,2.161,0,0,0,1.7.718,2.049,2.049,0,0,0,1.671-.7,3.055,3.055,0,0,0,.584-2,3.108,3.108,0,0,0-.584-2.023A2.04,2.04,0,0,0,44.659-6.221Zm8.846.355a1.371,1.371,0,0,0-.848-.226,1.431,1.431,0,0,0-1.2.677,3.129,3.129,0,0,0-.482,1.846V0H49.854V-7h1.121v1.442H51a2.444,2.444,0,0,1,.731-1.152,1.668,1.668,0,0,1,1.1-.414,1.83,1.83,0,0,1,.67.1ZM64.531,0H63.41V-1.189h-.027A2.588,2.588,0,0,1,60.977.164a2.615,2.615,0,0,1-2.109-.94,3.856,3.856,0,0,1-.79-2.56,4.2,4.2,0,0,1,.875-2.782,2.886,2.886,0,0,1,2.331-1.046,2.244,2.244,0,0,1,2.1,1.135h.027v-4.334h1.121ZM63.41-3.165V-4.2a2,2,0,0,0-.561-1.436,1.88,1.88,0,0,0-1.422-.588,1.936,1.936,0,0,0-1.613.752,3.3,3.3,0,0,0-.588,2.078,2.964,2.964,0,0,0,.564,1.911,1.843,1.843,0,0,0,1.514.7,1.915,1.915,0,0,0,1.521-.677A2.521,2.521,0,0,0,63.41-3.165Zm7.041-2.7a1.371,1.371,0,0,0-.848-.226,1.431,1.431,0,0,0-1.2.677,3.129,3.129,0,0,0-.482,1.846V0H66.8V-7h1.121v1.442h.027a2.444,2.444,0,0,1,.731-1.152,1.668,1.668,0,0,1,1.1-.414,1.83,1.83,0,0,1,.67.1ZM76.679,0H75.558V-1.094H75.53A2.347,2.347,0,0,1,73.377.164,2.3,2.3,0,0,1,71.74-.39a1.918,1.918,0,0,1-.591-1.47q0-1.962,2.311-2.283l2.1-.294q0-1.784-1.442-1.784a3.446,3.446,0,0,0-2.283.861V-6.508a4.338,4.338,0,0,1,2.379-.656q2.468,0,2.468,2.611ZM75.558-3.541l-1.688.232a2.741,2.741,0,0,0-1.176.386,1.114,1.114,0,0,0-.4.981,1.068,1.068,0,0,0,.366.837,1.413,1.413,0,0,0,.974.325,1.8,1.8,0,0,0,1.377-.584,2.088,2.088,0,0,0,.543-1.48Zm9.208,2.98q0,3.855-3.691,3.855A4.956,4.956,0,0,1,78.8,2.8V1.682a4.661,4.661,0,0,0,2.256.656q2.584,0,2.584-2.748v-.766h-.027A2.622,2.622,0,0,1,81.211.164a2.628,2.628,0,0,1-2.1-.933,3.73,3.73,0,0,1-.8-2.505,4.358,4.358,0,0,1,.858-2.837,2.866,2.866,0,0,1,2.348-1.053,2.282,2.282,0,0,1,2.1,1.135h.027V-7h1.121Zm-1.121-2.6V-4.2a2,2,0,0,0-.564-1.429,1.857,1.857,0,0,0-1.4-.595,1.947,1.947,0,0,0-1.627.755,3.372,3.372,0,0,0-.588,2.116,2.894,2.894,0,0,0,.564,1.87,1.822,1.822,0,0,0,1.494.7,1.951,1.951,0,0,0,1.535-.67A2.5,2.5,0,0,0,83.645-3.165ZM94.329-9.379a1.493,1.493,0,0,0-.745-.185q-1.176,0-1.176,1.483V-7h1.641v.957H92.408V0H91.294V-6.043H90.1V-7h1.2V-8.135a2.358,2.358,0,0,1,.636-1.74,2.146,2.146,0,0,1,1.586-.639,2.2,2.2,0,0,1,.813.123Zm1.5.6a.71.71,0,0,1-.513-.205A.692.692,0,0,1,95.1-9.5a.7.7,0,0,1,.212-.523.7.7,0,0,1,.513-.208.724.724,0,0,1,.523.208.7.7,0,0,1,.215.523.693.693,0,0,1-.215.513A.718.718,0,0,1,95.826-8.777ZM96.373,0H95.252V-7h1.121Zm3.391,0H98.643V-10.363h1.121Zm7.9-3.22h-4.942a2.618,2.618,0,0,0,.629,1.8A2.168,2.168,0,0,0,105-.779a3.439,3.439,0,0,0,2.174-.779V-.506a4.063,4.063,0,0,1-2.44.67A2.959,2.959,0,0,1,102.4-.79a3.9,3.9,0,0,1-.848-2.683,3.828,3.828,0,0,1,.926-2.663,2.97,2.97,0,0,1,2.3-1.029,2.632,2.632,0,0,1,2.126.889,3.705,3.705,0,0,1,.752,2.468Zm-1.148-.95a2.281,2.281,0,0,0-.468-1.511,1.6,1.6,0,0,0-1.282-.54,1.811,1.811,0,0,0-1.347.567,2.575,2.575,0,0,0-.684,1.483Zm2.42,3.917v-1.2a3.318,3.318,0,0,0,2.017.677q1.477,0,1.477-.984a.854.854,0,0,0-.126-.475,1.26,1.26,0,0,0-.342-.345,2.631,2.631,0,0,0-.506-.27q-.291-.12-.625-.25a8.056,8.056,0,0,1-.817-.373,2.468,2.468,0,0,1-.588-.424,1.577,1.577,0,0,1-.355-.537,1.9,1.9,0,0,1-.12-.7,1.673,1.673,0,0,1,.226-.872,2,2,0,0,1,.6-.636,2.805,2.805,0,0,1,.858-.386,3.805,3.805,0,0,1,.995-.13,4.016,4.016,0,0,1,1.627.314v1.135a3.171,3.171,0,0,0-1.777-.506,2.078,2.078,0,0,0-.567.072,1.389,1.389,0,0,0-.434.2.932.932,0,0,0-.28.311.819.819,0,0,0-.1.4.959.959,0,0,0,.1.458,1.008,1.008,0,0,0,.291.328,2.221,2.221,0,0,0,.465.26q.273.116.622.253a8.658,8.658,0,0,1,.834.366,2.86,2.86,0,0,1,.629.424,1.656,1.656,0,0,1,.4.543,1.753,1.753,0,0,1,.14.731,1.725,1.725,0,0,1-.229.9,1.963,1.963,0,0,1-.612.636,2.8,2.8,0,0,1-.882.376A4.354,4.354,0,0,1,110.8.164,3.971,3.971,0,0,1,108.931-.253ZM124.94,0h-1.121V-4.033q0-2.188-1.627-2.187a1.774,1.774,0,0,0-1.381.632,2.356,2.356,0,0,0-.561,1.624V0H119.13V-10.363h1.121v4.525h.027a2.546,2.546,0,0,1,2.3-1.326q2.365,0,2.365,2.851Zm7.738-3.22h-4.942a2.618,2.618,0,0,0,.629,1.8,2.168,2.168,0,0,0,1.654.636,3.439,3.439,0,0,0,2.174-.779V-.506a4.063,4.063,0,0,1-2.44.67,2.959,2.959,0,0,1-2.331-.954,3.9,3.9,0,0,1-.848-2.683,3.828,3.828,0,0,1,.926-2.663,2.97,2.97,0,0,1,2.3-1.029,2.632,2.632,0,0,1,2.126.889,3.705,3.705,0,0,1,.752,2.468Zm-1.148-.95a2.281,2.281,0,0,0-.468-1.511,1.6,1.6,0,0,0-1.282-.54,1.811,1.811,0,0,0-1.347.567,2.575,2.575,0,0,0-.684,1.483Zm6.494-1.7a1.371,1.371,0,0,0-.848-.226,1.431,1.431,0,0,0-1.2.677,3.129,3.129,0,0,0-.482,1.846V0h-1.121V-7H135.5v1.442h.027a2.444,2.444,0,0,1,.731-1.152,1.668,1.668,0,0,1,1.1-.414,1.83,1.83,0,0,1,.67.1Zm6.843,2.646h-4.942a2.618,2.618,0,0,0,.629,1.8,2.168,2.168,0,0,0,1.654.636,3.439,3.439,0,0,0,2.174-.779V-.506a4.063,4.063,0,0,1-2.44.67A2.959,2.959,0,0,1,139.61-.79a3.9,3.9,0,0,1-.848-2.683,3.828,3.828,0,0,1,.926-2.663,2.97,2.97,0,0,1,2.3-1.029,2.632,2.632,0,0,1,2.126.889,3.705,3.705,0,0,1,.752,2.468Zm-1.148-.95a2.281,2.281,0,0,0-.468-1.511,1.6,1.6,0,0,0-1.282-.54,1.811,1.811,0,0,0-1.347.567,2.575,2.575,0,0,0-.684,1.483Z" transform="translate(384.934 277)" fill="#cbcbd2"/>
      </g>
      <g id="Group_267464" data-name="Group 267464" transform="translate(24)">
        <g id="Group_267456" data-name="Group 267456" transform="translate(-11456 -709)">
          <g id="noun_Pointer_44803" transform="translate(11911 1005)">
            <g id="Group_15298" data-name="Group 15298" transform="translate(0 0)" opacity="0.9">
              <path id="Path_10321" data-name="Path 10321" d="M26.5,27.034a8.04,8.04,0,0,1-7.962-7.224.347.347,0,0,1-.037-.156V14.783a1.94,1.94,0,0,1,1.9-1.97,1.854,1.854,0,0,1,1.143.395V5.385a1.906,1.906,0,1,1,3.81,0v5.468a1.854,1.854,0,0,1,1.143-.395,1.91,1.91,0,0,1,1.775,1.257,1.863,1.863,0,0,1,1.272-.5,1.919,1.919,0,0,1,1.837,1.449,1.86,1.86,0,0,1,1.211-.45,1.94,1.94,0,0,1,1.9,1.97v5.031a.375.375,0,0,1,0,.051A8.045,8.045,0,0,1,26.5,27.034Z" transform="translate(-18.501 -3.415)" fill="#fff"/>
            </g>
          </g>
          <g id="noun_Pointer_44803-2" data-name="noun_Pointer_44803" transform="translate(11911 1005)">
            <g id="Group_15298-2" data-name="Group 15298" transform="translate(0 0)" opacity="0.9">
              <path id="Path_10321-2" data-name="Path 10321" d="M26.5,27.034a8.04,8.04,0,0,1-7.962-7.224.347.347,0,0,1-.037-.156V14.783a1.94,1.94,0,0,1,1.9-1.97,1.854,1.854,0,0,1,1.143.395V5.385a1.906,1.906,0,1,1,3.81,0v5.468a1.854,1.854,0,0,1,1.143-.395,1.91,1.91,0,0,1,1.775,1.257,1.863,1.863,0,0,1,1.272-.5,1.919,1.919,0,0,1,1.837,1.449,1.86,1.86,0,0,1,1.211-.45,1.94,1.94,0,0,1,1.9,1.97v5.031a.375.375,0,0,1,0,.051A8.045,8.045,0,0,1,26.5,27.034Zm-7.238-7.51a.339.339,0,0,1,.024.1,7.238,7.238,0,0,0,14.45-.424q0-.016,0-.033V14.178a1.145,1.145,0,1,0-2.286,0,.381.381,0,0,1-.762,0v-1a1.145,1.145,0,1,0-2.286,0,.381.381,0,1,1-.762,0v-.752a1.145,1.145,0,1,0-2.286,0,.381.381,0,1,1-.762,0V5.385a1.145,1.145,0,1,0-2.286,0V18.21a.381.381,0,1,1-.762,0V14.783a1.145,1.145,0,1,0-2.286,0v4.741Z" transform="translate(-18.501 -3.415)"/>
            </g>
          </g>
        </g>
        <path id="Rectangle_10394" data-name="Rectangle 10394" d="M0,0H8a4,4,0,0,1,4,4V14a0,0,0,0,1,0,0H0a0,0,0,0,1,0,0V0A0,0,0,0,1,0,0Z" transform="translate(465 311)" fill="#fff"/>
        <g id="Doc" transform="translate(471 318.002)">
          <g id="Doc-2" data-name="Doc" transform="translate(-8 -8.002)">
            <g id="Group_267457" data-name="Group 267457">
              <path id="Path_101935" data-name="Path 101935" d="M14.3,2.7,11.6.1H2.3a.7.7,0,0,0-.7.7v15A.4.4,0,0,0,2,16H14a.4.4,0,0,0,.4-.4V2.9ZM11.6,1.6l1.2,1.2H11.6Zm1.6,13.2H2.9V1.2h7.5V4h2.8Z" fill="#2f2f2f"/>
              <rect id="Rectangle_10379" data-name="Rectangle 10379" width="7.1" height="1.2" rx="0.2" transform="translate(4.4 6)" fill="#2f2f2f"/>
              <rect id="Rectangle_10380" data-name="Rectangle 10380" width="7.1" height="1.2" rx="0.2" transform="translate(4.4 8.4)" fill="#2f2f2f"/>
              <rect id="Rectangle_10381" data-name="Rectangle 10381" width="5.1" height="1.2" rx="0.2" transform="translate(4.4 10.7)" fill="#2f2f2f"/>
            </g>
            <rect id="Rectangle_10382" data-name="Rectangle 10382" width="16" height="16" fill="none"/>
          </g>
        </g>
      </g>
    </g>
  </g>
</svg>
