<svg xmlns="http://www.w3.org/2000/svg" xmlns:xlink="http://www.w3.org/1999/xlink" width="900" height="717" viewBox="0 0 900 717">
  <defs>
    <filter id="Rectangle_10040" x="261" y="24" width="378" height="674" filterUnits="userSpaceOnUse">
      <feOffset dy="3" input="SourceAlpha"/>
      <feGaussianBlur stdDeviation="3" result="blur"/>
      <feFlood flood-opacity="0.161"/>
      <feComposite operator="in" in2="blur"/>
      <feComposite in="SourceGraphic"/>
    </filter>
    <clipPath id="clip-path">
      <rect width="360" height="65" fill="none"/>
    </clipPath>
    <filter id="Card" x="275.5" y="104.5" width="348.5" height="587" filterUnits="userSpaceOnUse">
      <feOffset dy="1" input="SourceAlpha"/>
      <feGaussianBlur stdDeviation="1.5" result="blur-2"/>
      <feFlood flood-opacity="0.161"/>
      <feComposite operator="in" in2="blur-2"/>
      <feComposite in="SourceGraphic"/>
    </filter>
    <clipPath id="clip-path-2">
      <rect width="300" height="42" fill="none"/>
    </clipPath>
    <clipPath id="clip-singlefileselector_mobile">
      <rect width="900" height="717"/>
    </clipPath>
  </defs>
  <g id="singlefileselector_mobile" clip-path="url(#clip-singlefileselector_mobile)">
    <rect width="900" height="717" fill="#f4f4f6"/>
    <g id="Group_267471" data-name="Group 267471">
      <g transform="matrix(1, 0, 0, 1, 0, 0)" filter="url(#Rectangle_10040)">
        <rect id="Rectangle_10040-2" data-name="Rectangle 10040" width="360" height="656" transform="translate(270 30)" fill="#f4f4f6"/>
      </g>
      <g id="Mobile_Top_Bar" data-name="Mobile Top Bar" transform="translate(270 30)" clip-path="url(#clip-path)">
        <rect id="Rectangle_1" data-name="Rectangle 1" width="360" height="60" fill="#fff"/>
        <g id="Group_72" data-name="Group 72" transform="translate(123.11 20)">
          <g id="Group_6" data-name="Group 6">
            <path id="Path_467" data-name="Path 467" d="M440.678,0l-6.233,13.788L428.193,0H425.7l8.745,19.322L443.19,0Z" transform="translate(-345.294)" fill="#8b8d8e"/>
            <path id="Path_468" data-name="Path 468" d="M343.6,19.322h2.512L337.39,0h-.963L327.7,19.322h2.512l1.908-4.269H341.7ZM333.14,12.787,336.9,4.5l3.759,8.292Z" transform="translate(-265.804)" fill="#8b8d8e"/>
            <path id="Path_469" data-name="Path 469" d="M543.685,10.426h6.951V8.16h-6.951V2.267h7.555L552.45,0H541.4V19.322h9.859L552.468,17h-8.783Z" transform="translate(-439.14)" fill="#8b8d8e"/>
            <path id="Path_470" data-name="Path 470" d="M186.078,0l-6.2,13.788L174.348,1.681l-5.5,12.107L162.864,0h-3.721L155.8,7.385l1.247,2.758,3.834-8.462,7.971,17.641,5.5-12.126,5.534,12.126L188.571,0Z" transform="translate(-126.372)" fill="#8b8d8e"/>
            <path id="Path_471" data-name="Path 471" d="M4.193,17.018,15.262,0H1.851L.812,2.267H11.068L0,19.285H15.243l1.02-2.267Z" fill="#8b8d8e"/>
          </g>
          <path id="Path_472" data-name="Path 472" d="M103.468,0H98.5l5.591,12.409L98.5,24.8h4.968L109.1,12.409Z" transform="translate(-79.895)" fill="#5fb53b"/>
        </g>
        <g id="Group_8092" data-name="Group 8092" transform="translate(314 13)">
          <ellipse id="Ellipse_1" data-name="Ellipse 1" cx="18" cy="17.5" rx="18" ry="17.5" transform="translate(0)" fill="none"/>
          <path id="Path_5694" data-name="Path 5694" d="M302.715,257.318l-4.678-4.678a5.945,5.945,0,0,0,1.029-4.584,6.054,6.054,0,0,0-5.239-4.959,6.109,6.109,0,0,0-1.871,12.069,6.469,6.469,0,0,0,4.585-1.029l4.678,4.678a1.018,1.018,0,0,0,1.4,0A1.143,1.143,0,0,0,302.715,257.318Zm-13.753-8.888a4.171,4.171,0,0,1,3.462-3.462,4.275,4.275,0,0,1,4.865,4.865,4.171,4.171,0,0,1-3.462,3.462A4.313,4.313,0,0,1,288.962,248.43Z" transform="translate(-276.954 -234.052)" fill="#2777d3"/>
        </g>
        <g id="Group_8091" data-name="Group 8091" transform="translate(10 12)">
          <ellipse id="Ellipse_2" data-name="Ellipse 2" cx="18" cy="17.5" rx="18" ry="17.5" fill="none"/>
          <g id="Group_7747" data-name="Group 7747" transform="translate(10 12)">
            <rect id="Rectangle_4038" data-name="Rectangle 4038" width="16" height="2" fill="#1f5ea8"/>
            <rect id="Rectangle_4039" data-name="Rectangle 4039" width="16" height="2" transform="translate(0 5)" fill="#1f5ea8"/>
            <rect id="Rectangle_4040" data-name="Rectangle 4040" width="16" height="2" transform="translate(0 10)" fill="#1f5ea8"/>
          </g>
        </g>
        <path id="Path_5695" data-name="Path 5695" d="M0,0H360V5H0Z" transform="translate(0 60)" fill="#2777d3"/>
      </g>
      <g id="Card-2" data-name="Card" transform="translate(280 108)">
        <g transform="matrix(1, 0, 0, 1, -280, -108)" filter="url(#Card)">
          <rect id="Card-3" data-name="Card" width="339.5" height="578" rx="2" transform="translate(280 108)" fill="#fff"/>
        </g>
      </g>
      <g id="Input-_no_label" data-name="Input- no label" transform="translate(300 151)" clip-path="url(#clip-path-2)">
        <g id="Rectangle_288" data-name="Rectangle 288" fill="#fff" stroke="#cbcbd2" stroke-width="1">
          <rect width="300" height="42" rx="4" stroke="none"/>
          <rect x="0.5" y="0.5" width="299" height="41" rx="3.5" fill="none"/>
        </g>
      </g>
      <path id="Path_102006" data-name="Path 102006" d="M-84.793,0h-1.784l-.882-2.5h-3.855L-92.162,0h-1.777l3.671-9.8h1.832Zm-3.1-3.821-1.36-3.91a4.631,4.631,0,0,1-.13-.615h-.027a4,4,0,0,1-.137.615l-1.347,3.91Zm9.276,3.5A3.911,3.911,0,0,1-80.6.164,3.369,3.369,0,0,1-83.118-.81a3.451,3.451,0,0,1-.957-2.526,3.8,3.8,0,0,1,1.029-2.779,3.678,3.678,0,0,1,2.751-1.049,4.016,4.016,0,0,1,1.688.335v1.477A2.557,2.557,0,0,0-80.165-5.9a2.166,2.166,0,0,0-1.647.68,2.487,2.487,0,0,0-.643,1.781,2.371,2.371,0,0,0,.6,1.716,2.148,2.148,0,0,0,1.624.629A2.537,2.537,0,0,0-78.613-1.7Zm6.583,0A3.911,3.911,0,0,1-74.02.164,3.369,3.369,0,0,1-76.535-.81a3.451,3.451,0,0,1-.957-2.526,3.8,3.8,0,0,1,1.029-2.779,3.678,3.678,0,0,1,2.751-1.049,4.016,4.016,0,0,1,1.688.335v1.477A2.557,2.557,0,0,0-73.582-5.9a2.166,2.166,0,0,0-1.647.68,2.487,2.487,0,0,0-.643,1.781,2.371,2.371,0,0,0,.6,1.716,2.148,2.148,0,0,0,1.624.629A2.537,2.537,0,0,0-72.03-1.7Zm4.676.485a3.47,3.47,0,0,1-2.587-.981,3.544,3.544,0,0,1-.967-2.6A3.687,3.687,0,0,1-69.9-6.173a3.708,3.708,0,0,1,2.717-.991,3.358,3.358,0,0,1,2.557.964,3.723,3.723,0,0,1,.916,2.673A3.669,3.669,0,0,1-64.7-.844,3.548,3.548,0,0,1-67.354.164Zm.075-6.063a1.81,1.81,0,0,0-1.47.649,2.719,2.719,0,0,0-.54,1.791,2.561,2.561,0,0,0,.547,1.733,1.837,1.837,0,0,0,1.463.632,1.743,1.743,0,0,0,1.439-.622,2.754,2.754,0,0,0,.5-1.771,2.8,2.8,0,0,0-.5-1.784A1.734,1.734,0,0,0-67.279-5.9ZM-55.993,0h-1.586V-1.107h-.027A2.282,2.282,0,0,1-59.753.164q-2.481,0-2.481-2.98V-7h1.586v4.02q0,1.887,1.456,1.887a1.471,1.471,0,0,0,1.159-.52,1.991,1.991,0,0,0,.455-1.36V-7h1.586Zm8.3,0H-49.28V-3.944q0-1.962-1.388-1.962a1.515,1.515,0,0,0-1.2.543,2.016,2.016,0,0,0-.472,1.371V0h-1.593V-7h1.593v1.162h.027a2.5,2.5,0,0,1,2.27-1.326,2.114,2.114,0,0,1,1.743.742,3.33,3.33,0,0,1,.6,2.143Zm5.626-.075a2.748,2.748,0,0,1-1.224.232q-2.037,0-2.037-1.955V-5.756H-46.5V-7h1.169V-8.62l1.586-.451V-7h1.675v1.244h-1.675v3.5a1.379,1.379,0,0,0,.226.889.936.936,0,0,0,.752.267,1.09,1.09,0,0,0,.7-.232ZM-28.362,0H-30.14l-4.683-7.205a3.2,3.2,0,0,1-.294-.567h-.041A10.092,10.092,0,0,1-35.1-6.426V0h-1.572V-9.8h1.894l4.525,7.034q.287.438.369.6h.027a8.71,8.71,0,0,1-.068-1.319V-9.8h1.565Zm7.622,0h-1.538V-1.094h-.027A2.316,2.316,0,0,1-24.432.164,2.239,2.239,0,0,1-26.048-.4a1.961,1.961,0,0,1-.584-1.483q0-1.982,2.283-2.311l2.078-.294q0-1.5-1.422-1.5a3.378,3.378,0,0,0-2.256.861V-6.508a4.919,4.919,0,0,1,2.557-.656A2.326,2.326,0,0,1-20.74-4.553Zm-1.531-3.438-1.47.205A2.33,2.33,0,0,0-24.77-2.9a.969.969,0,0,0-.345.851.932.932,0,0,0,.318.728,1.231,1.231,0,0,0,.851.284,1.57,1.57,0,0,0,1.2-.509,1.806,1.806,0,0,0,.475-1.282ZM-8.34,0H-9.926V-3.814a3.091,3.091,0,0,0-.311-1.593A1.144,1.144,0,0,0-11.286-5.9a1.265,1.265,0,0,0-1.056.622,2.538,2.538,0,0,0-.434,1.49V0h-1.593V-3.944q0-1.955-1.381-1.955a1.246,1.246,0,0,0-1.056.588,2.592,2.592,0,0,0-.414,1.524V0h-1.586V-7h1.586v1.107h.027a2.425,2.425,0,0,1,2.208-1.271,2.082,2.082,0,0,1,1.268.4,1.992,1.992,0,0,1,.742,1.049A2.5,2.5,0,0,1-10.65-7.164q2.311,0,2.311,2.851ZM-.479-3.069H-5.25a2.017,2.017,0,0,0,.6,1.5,2.225,2.225,0,0,0,1.569.526,3.459,3.459,0,0,0,2.058-.67V-.437a4.7,4.7,0,0,1-2.529.6A3.131,3.131,0,0,1-5.978-.79a3.814,3.814,0,0,1-.878-2.683,3.73,3.73,0,0,1,.967-2.663,3.164,3.164,0,0,1,2.4-1.029,2.759,2.759,0,0,1,2.222.923A3.832,3.832,0,0,1-.479-3.678ZM-2.01-4.19a2.044,2.044,0,0,0-.4-1.33A1.348,1.348,0,0,0-3.507-6a1.539,1.539,0,0,0-1.159.5A2.28,2.28,0,0,0-5.25-4.19Z" transform="translate(394 143)" fill="#31313a"/>
      <g id="Input-_no_label-2" data-name="Input- no label" transform="translate(300 236)" clip-path="url(#clip-path-2)">
        <g id="Rectangle_288-2" data-name="Rectangle 288" fill="#fff" stroke="#cbcbd2" stroke-width="1">
          <rect width="300" height="42" rx="4" stroke="none"/>
          <rect x="0.5" y="0.5" width="299" height="41" rx="3.5" fill="none"/>
        </g>
      </g>
      <path id="Path_102007" data-name="Path 102007" d="M-56.417-.39V-2.064a2.587,2.587,0,0,0,.537.369,4.146,4.146,0,0,0,.66.277,5.2,5.2,0,0,0,.7.174,3.717,3.717,0,0,0,.643.062,2.742,2.742,0,0,0,1.528-.342,1.124,1.124,0,0,0,.5-.991,1.081,1.081,0,0,0-.167-.6,1.757,1.757,0,0,0-.468-.468A4.92,4.92,0,0,0-53.194-4q-.407-.195-.872-.407-.5-.267-.93-.54a4,4,0,0,1-.749-.6,2.531,2.531,0,0,1-.5-.749,2.438,2.438,0,0,1-.181-.978,2.256,2.256,0,0,1,.311-1.2,2.627,2.627,0,0,1,.82-.841,3.761,3.761,0,0,1,1.159-.492,5.5,5.5,0,0,1,1.326-.161,5.353,5.353,0,0,1,2.242.349v1.606a3.581,3.581,0,0,0-2.146-.6,3.846,3.846,0,0,0-.721.068,2.144,2.144,0,0,0-.643.226,1.391,1.391,0,0,0-.461.4.989.989,0,0,0-.178.595,1.125,1.125,0,0,0,.137.567,1.464,1.464,0,0,0,.4.438,4.086,4.086,0,0,0,.643.386q.379.188.878.407.513.267.967.561a4.56,4.56,0,0,1,.8.649,2.854,2.854,0,0,1,.547.79,2.319,2.319,0,0,1,.2.988,2.448,2.448,0,0,1-.3,1.258,2.424,2.424,0,0,1-.81.834,3.608,3.608,0,0,1-1.172.465,6.61,6.61,0,0,1-1.4.144,5.967,5.967,0,0,1-.6-.038q-.359-.038-.735-.109a6.759,6.759,0,0,1-.711-.174A2.251,2.251,0,0,1-56.417-.39Zm9.741.39h-1.675V-9.8h1.675Zm9.249-.41a5.943,5.943,0,0,1-2.755.574A4.5,4.5,0,0,1-43.6-1.183a4.907,4.907,0,0,1-1.285-3.534,5.146,5.146,0,0,1,1.446-3.8,4.946,4.946,0,0,1,3.654-1.449,5.988,5.988,0,0,1,2.358.4V-7.95a4.208,4.208,0,0,0-2.187-.588A3.433,3.433,0,0,0-42.195-7.52,3.742,3.742,0,0,0-43.183-4.8a3.568,3.568,0,0,0,.923,2.581,3.212,3.212,0,0,0,2.427.96,4.345,4.345,0,0,0,2.406-.656Zm12.544,0a5.943,5.943,0,0,1-2.755.574,4.5,4.5,0,0,1-3.418-1.347,4.907,4.907,0,0,1-1.285-3.534,5.146,5.146,0,0,1,1.446-3.8,4.946,4.946,0,0,1,3.654-1.449,5.988,5.988,0,0,1,2.358.4V-7.95a4.208,4.208,0,0,0-2.187-.588A3.433,3.433,0,0,0-29.651-7.52,3.742,3.742,0,0,0-30.639-4.8a3.568,3.568,0,0,0,.923,2.581,3.212,3.212,0,0,0,2.427.96,4.345,4.345,0,0,0,2.406-.656ZM-20.1.164a3.47,3.47,0,0,1-2.587-.981,3.544,3.544,0,0,1-.967-2.6,3.687,3.687,0,0,1,1.008-2.755,3.708,3.708,0,0,1,2.717-.991A3.358,3.358,0,0,1-17.37-6.2a3.723,3.723,0,0,1,.916,2.673,3.669,3.669,0,0,1-.988,2.683A3.548,3.548,0,0,1-20.1.164Zm.075-6.063a1.81,1.81,0,0,0-1.47.649,2.719,2.719,0,0,0-.54,1.791,2.561,2.561,0,0,0,.547,1.733,1.837,1.837,0,0,0,1.463.632,1.743,1.743,0,0,0,1.439-.622,2.754,2.754,0,0,0,.5-1.771,2.8,2.8,0,0,0-.5-1.784A1.734,1.734,0,0,0-20.022-5.9ZM-8.477,0h-1.586V-1.189h-.027A2.53,2.53,0,0,1-12.448.164a2.546,2.546,0,0,1-2.068-.94,3.9,3.9,0,0,1-.776-2.56,4.251,4.251,0,0,1,.858-2.782,2.808,2.808,0,0,1,2.287-1.046A2.19,2.19,0,0,1-10.09-6.029h.027v-4.334h1.586Zm-1.565-3.2v-.916a1.785,1.785,0,0,0-.485-1.265,1.619,1.619,0,0,0-1.237-.52,1.666,1.666,0,0,0-1.4.663A2.955,2.955,0,0,0-13.672-3.4a2.648,2.648,0,0,0,.489,1.685,1.59,1.59,0,0,0,1.316.619,1.646,1.646,0,0,0,1.319-.6A2.253,2.253,0,0,0-10.042-3.2Zm9.563.13H-5.25a2.017,2.017,0,0,0,.6,1.5,2.225,2.225,0,0,0,1.569.526,3.459,3.459,0,0,0,2.058-.67V-.437a4.7,4.7,0,0,1-2.529.6A3.131,3.131,0,0,1-5.978-.79a3.814,3.814,0,0,1-.878-2.683,3.73,3.73,0,0,1,.967-2.663,3.164,3.164,0,0,1,2.4-1.029,2.759,2.759,0,0,1,2.222.923A3.832,3.832,0,0,1-.479-3.678ZM-2.01-4.19a2.044,2.044,0,0,0-.4-1.33A1.348,1.348,0,0,0-3.507-6a1.539,1.539,0,0,0-1.159.5A2.28,2.28,0,0,0-5.25-4.19Z" transform="translate(357 228)" fill="#31313a"/>
      <path id="Path_102008" data-name="Path 102008" d="M-36.5-.41a5.943,5.943,0,0,1-2.755.574A4.5,4.5,0,0,1-42.67-1.183a4.907,4.907,0,0,1-1.285-3.534,5.146,5.146,0,0,1,1.446-3.8,4.946,4.946,0,0,1,3.654-1.449,5.988,5.988,0,0,1,2.358.4V-7.95a4.208,4.208,0,0,0-2.187-.588A3.433,3.433,0,0,0-41.265-7.52,3.742,3.742,0,0,0-42.253-4.8a3.568,3.568,0,0,0,.923,2.581,3.212,3.212,0,0,0,2.427.96A4.345,4.345,0,0,0-36.5-1.914Zm7.608-2.659H-33.66a2.017,2.017,0,0,0,.6,1.5,2.225,2.225,0,0,0,1.569.526,3.459,3.459,0,0,0,2.058-.67V-.437a4.7,4.7,0,0,1-2.529.6A3.131,3.131,0,0,1-34.388-.79a3.814,3.814,0,0,1-.878-2.683A3.73,3.73,0,0,1-34.3-6.135a3.164,3.164,0,0,1,2.4-1.029,2.759,2.759,0,0,1,2.222.923,3.832,3.832,0,0,1,.786,2.563ZM-30.42-4.19a2.044,2.044,0,0,0-.4-1.33A1.348,1.348,0,0,0-31.917-6a1.539,1.539,0,0,0-1.159.5A2.28,2.28,0,0,0-33.66-4.19ZM-21.144,0h-1.586V-3.944q0-1.962-1.388-1.962a1.515,1.515,0,0,0-1.2.543,2.016,2.016,0,0,0-.472,1.371V0h-1.593V-7h1.593v1.162h.027a2.5,2.5,0,0,1,2.27-1.326,2.114,2.114,0,0,1,1.743.742,3.33,3.33,0,0,1,.6,2.143Zm1.5-.219v-1.47a3.164,3.164,0,0,0,1.962.677q1.436,0,1.436-.848a.668.668,0,0,0-.123-.407,1.175,1.175,0,0,0-.332-.3A2.607,2.607,0,0,0-17.2-2.8q-.284-.1-.632-.232a6.694,6.694,0,0,1-.776-.362,2.344,2.344,0,0,1-.574-.434,1.639,1.639,0,0,1-.345-.55,2.026,2.026,0,0,1-.116-.718,1.659,1.659,0,0,1,.239-.892,2.079,2.079,0,0,1,.643-.649,3.081,3.081,0,0,1,.916-.4,4.194,4.194,0,0,1,1.06-.133,4.817,4.817,0,0,1,1.736.294v1.388a2.927,2.927,0,0,0-1.7-.506,2.214,2.214,0,0,0-.543.062,1.4,1.4,0,0,0-.414.171.841.841,0,0,0-.267.263.628.628,0,0,0-.1.338.723.723,0,0,0,.1.383.869.869,0,0,0,.284.277,2.45,2.45,0,0,0,.451.219q.263.1.6.215a8.839,8.839,0,0,1,.81.376,2.737,2.737,0,0,1,.612.434,1.7,1.7,0,0,1,.39.561,1.9,1.9,0,0,1,.137.755,1.727,1.727,0,0,1-.246.93,2.051,2.051,0,0,1-.656.656,3.072,3.072,0,0,1-.947.386,4.919,4.919,0,0,1-1.131.126A4.767,4.767,0,0,1-19.646-.219ZM-7.068,0H-8.654V-1.107h-.027A2.282,2.282,0,0,1-10.828.164q-2.481,0-2.481-2.98V-7h1.586v4.02q0,1.887,1.456,1.887a1.471,1.471,0,0,0,1.159-.52,1.991,1.991,0,0,0,.455-1.36V-7h1.586Zm1.627-.219v-1.47a3.164,3.164,0,0,0,1.962.677q1.436,0,1.436-.848a.668.668,0,0,0-.123-.407,1.175,1.175,0,0,0-.332-.3A2.607,2.607,0,0,0-2.991-2.8q-.284-.1-.632-.232A6.694,6.694,0,0,1-4.4-3.391a2.344,2.344,0,0,1-.574-.434,1.639,1.639,0,0,1-.345-.55,2.026,2.026,0,0,1-.116-.718A1.659,1.659,0,0,1-5.2-5.985a2.079,2.079,0,0,1,.643-.649,3.081,3.081,0,0,1,.916-.4,4.194,4.194,0,0,1,1.06-.133A4.817,4.817,0,0,1-.841-6.87v1.388a2.927,2.927,0,0,0-1.7-.506,2.214,2.214,0,0,0-.543.062,1.4,1.4,0,0,0-.414.171.841.841,0,0,0-.267.263.628.628,0,0,0-.1.338.723.723,0,0,0,.1.383.869.869,0,0,0,.284.277,2.45,2.45,0,0,0,.451.219q.263.1.6.215a8.839,8.839,0,0,1,.81.376A2.737,2.737,0,0,1-1-3.25a1.7,1.7,0,0,1,.39.561,1.9,1.9,0,0,1,.137.755A1.727,1.727,0,0,1-.718-1a2.051,2.051,0,0,1-.656.656,3.072,3.072,0,0,1-.947.386A4.919,4.919,0,0,1-3.452.164,4.767,4.767,0,0,1-5.441-.219Z" transform="translate(345 313)" fill="#31313a"/>
      <g id="Group_267434" data-name="Group 267434" transform="translate(216 237)">
        <g id="Input-_no_label-3" data-name="Input- no label" transform="translate(128.843 84)">
          <g id="Rectangle_288-3" data-name="Rectangle 288" transform="translate(1)" fill="#fff" stroke="#cbcbd2" stroke-width="1">
            <path d="M0,0H250.224a4,4,0,0,1,4,4V38a4,4,0,0,1-4,4H0a0,0,0,0,1,0,0V0A0,0,0,0,1,0,0Z" stroke="none"/>
            <path d="M1,.5H250.224a3.5,3.5,0,0,1,3.5,3.5V38a3.5,3.5,0,0,1-3.5,3.5H1A.5.5,0,0,1,.5,41V1A.5.5,0,0,1,1,.5Z" fill="none"/>
          </g>
        </g>
        <g id="Path_8229" data-name="Path 8229" transform="translate(85.869 126) rotate(180)" fill="#f4f4f6">
          <path d="M 0.2930585741996765 41.5 L -44.5 41.5 L -44.5 0.5 L 0.2930585741996765 0.5 C 0.4011585712432861 0.5 0.6760185956954956 0.6786699891090393 0.9424985647201538 1.354889988899231 C 1.217778563499451 2.053420066833496 1.369378566741943 2.992799997329712 1.369378566741943 4 L 1.369378566741943 38 C 1.369378566741943 39.00719833374023 1.217778563499451 39.94657897949219 0.9424985647201538 40.64511108398438 C 0.6760185956954956 41.32133102416992 0.4011585712432861 41.5 0.2930585741996765 41.5 Z" stroke="none"/>
          <path d="M -44 1 L -44 41 L 0.1798591613769531 41 C 0.2657585144042969 40.9064826965332 0.4312515258789063 40.65500640869141 0.5840568542480469 40.15375137329102 C 0.7680473327636719 39.55023193359375 0.8693771362304688 38.78533935546875 0.8693771362304688 38 L 0.8693771362304688 4 C 0.8693771362304688 3.21466064453125 0.7680473327636719 2.449771881103516 0.5840568542480469 1.846248626708984 C 0.4312515258789063 1.344993591308594 0.2657585144042969 1.093517303466797 0.1798591613769531 1 L -44 1 M -45 0 L 0.2930488586425781 0 C 1.163627624511719 0 1.869377136230469 1.790859222412109 1.869377136230469 4 L 1.869377136230469 38 C 1.869377136230469 40.20914077758789 1.163627624511719 42 0.2930488586425781 42 L -45 42 L -45 0 Z" stroke="none" fill="#cbcbd2"/>
        </g>
        <g id="Group_267410" data-name="Group 267410" transform="translate(99.066 97)">
          <g id="Group_267409" data-name="Group 267409">
            <path id="Path_101926" data-name="Path 101926" d="M8.2,4.1H7.8L4.3,7.8a.2.2,0,0,0,0,.3l.9,1h.3L7.1,7.5v8.3a.2.2,0,0,0,.2.2H8.7a.2.2,0,0,0,.2-.2V7.5l1.6,1.7h.3l.9-1a.2.2,0,0,0,0-.3Z" fill="#2777d3"/>
            <rect id="Rectangle_10371" data-name="Rectangle 10371" width="16" height="2" rx="0.5" transform="translate(16 2) rotate(180)" fill="#2777d3"/>
          </g>
          <rect id="Rectangle_10372" data-name="Rectangle 10372" width="16" height="16" transform="translate(16 16) rotate(180)" fill="none"/>
        </g>
      </g>
      <path id="Path_102012" data-name="Path 102012" d="M-31.24-.39V-2.064A2.587,2.587,0,0,0-30.7-1.7a4.147,4.147,0,0,0,.66.277,5.2,5.2,0,0,0,.7.174,3.717,3.717,0,0,0,.643.062,2.742,2.742,0,0,0,1.528-.342,1.124,1.124,0,0,0,.5-.991,1.081,1.081,0,0,0-.167-.6,1.757,1.757,0,0,0-.468-.468A4.92,4.92,0,0,0-28.017-4q-.407-.195-.872-.407-.5-.267-.93-.54a4,4,0,0,1-.749-.6,2.531,2.531,0,0,1-.5-.749,2.438,2.438,0,0,1-.181-.978,2.256,2.256,0,0,1,.311-1.2,2.627,2.627,0,0,1,.82-.841,3.761,3.761,0,0,1,1.159-.492,5.5,5.5,0,0,1,1.326-.161,5.353,5.353,0,0,1,2.242.349v1.606a3.581,3.581,0,0,0-2.146-.6,3.846,3.846,0,0,0-.721.068,2.144,2.144,0,0,0-.643.226,1.391,1.391,0,0,0-.461.4.989.989,0,0,0-.178.595,1.125,1.125,0,0,0,.137.567,1.464,1.464,0,0,0,.4.438,4.086,4.086,0,0,0,.643.386q.379.188.878.407.513.267.967.561a4.56,4.56,0,0,1,.8.649,2.854,2.854,0,0,1,.547.79,2.319,2.319,0,0,1,.2.988,2.448,2.448,0,0,1-.3,1.258,2.424,2.424,0,0,1-.81.834,3.608,3.608,0,0,1-1.172.465,6.61,6.61,0,0,1-1.4.144,5.967,5.967,0,0,1-.6-.038q-.359-.038-.735-.109A6.759,6.759,0,0,1-30.7-.157,2.251,2.251,0,0,1-31.24-.39Zm11.184.314A2.748,2.748,0,0,1-21.28.157q-2.037,0-2.037-1.955V-5.756h-1.169V-7h1.169V-8.62l1.586-.451V-7h1.675v1.244h-1.675v3.5a1.379,1.379,0,0,0,.226.889.936.936,0,0,0,.752.267,1.09,1.09,0,0,0,.7-.232Zm6.74.075h-1.538V-1.094h-.027A2.316,2.316,0,0,1-17.008.164,2.239,2.239,0,0,1-18.625-.4a1.961,1.961,0,0,1-.584-1.483q0-1.982,2.283-2.311l2.078-.294q0-1.5-1.422-1.5a3.378,3.378,0,0,0-2.256.861V-6.508a4.919,4.919,0,0,1,2.557-.656,2.326,2.326,0,0,1,2.652,2.611Zm-1.531-3.438-1.47.205a2.33,2.33,0,0,0-1.029.332.969.969,0,0,0-.345.851.932.932,0,0,0,.318.728,1.231,1.231,0,0,0,.851.284,1.57,1.57,0,0,0,1.2-.509,1.806,1.806,0,0,0,.475-1.282ZM-7.69-.075A2.748,2.748,0,0,1-8.914.157q-2.037,0-2.037-1.955V-5.756H-12.12V-7h1.169V-8.62l1.586-.451V-7H-7.69v1.244H-9.365v3.5a1.379,1.379,0,0,0,.226.889.936.936,0,0,0,.752.267,1.09,1.09,0,0,0,.7-.232ZM-.479-3.069H-5.25a2.017,2.017,0,0,0,.6,1.5,2.225,2.225,0,0,0,1.569.526,3.459,3.459,0,0,0,2.058-.67V-.437a4.7,4.7,0,0,1-2.529.6A3.131,3.131,0,0,1-5.978-.79a3.814,3.814,0,0,1-.878-2.683,3.73,3.73,0,0,1,.967-2.663,3.164,3.164,0,0,1,2.4-1.029,2.759,2.759,0,0,1,2.222.923A3.832,3.832,0,0,1-.479-3.678ZM-2.01-4.19a2.044,2.044,0,0,0-.4-1.33A1.348,1.348,0,0,0-3.507-6a1.539,1.539,0,0,0-1.159.5A2.28,2.28,0,0,0-5.25-4.19Z" transform="translate(332 568)" fill="#31313a"/>
      <g id="Dropdown_Input_-_Unselected" data-name="Dropdown Input - Unselected" transform="translate(300 576)">
        <g id="Rectangle_288-4" data-name="Rectangle 288" fill="#fff" stroke="#cbcbd2" stroke-width="1">
          <rect width="213" height="42" rx="4" stroke="none"/>
          <rect x="0.5" y="0.5" width="212" height="41" rx="3.5" fill="none"/>
        </g>
        <g id="Group_7793" data-name="Group 7793" transform="translate(-637 -1698)">
          <rect id="Rectangle_3867" data-name="Rectangle 3867" width="24" height="24" transform="translate(816 1707)" fill="none"/>
          <path id="Path_5558" data-name="Path 5558" d="M56,9.4l-3,3-3-3a.967.967,0,0,0-1.4,0h0a.967.967,0,0,0,0,1.4l3.7,3.7a.967.967,0,0,0,1.4,0l3.7-3.7a.967.967,0,0,0,0-1.4h0A.965.965,0,0,0,56,9.4Z" transform="translate(775 1707)" fill="#9494a4"/>
        </g>
      </g>
      <path id="Path_102013" data-name="Path 102013" d="M-12.414-9.092l-5.373,7.718h5.3V0h-7.581V-.745l5.394-7.677h-4.977V-9.8h7.232Zm2.153.622a.953.953,0,0,1-.667-.253.832.832,0,0,1-.277-.643.854.854,0,0,1,.277-.649.939.939,0,0,1,.667-.26.969.969,0,0,1,.684.26.849.849,0,0,1,.28.649.837.837,0,0,1-.28.632A.962.962,0,0,1-10.261-8.47ZM-9.475,0h-1.586V-7h1.586ZM-5.79-1.032h-.027V3.22H-7.4V-7h1.586v1.23h.027A2.6,2.6,0,0,1-3.411-7.164a2.506,2.506,0,0,1,2.078.937A3.928,3.928,0,0,1-.588-3.712a4.361,4.361,0,0,1-.841,2.8A2.781,2.781,0,0,1-3.726.144,2.294,2.294,0,0,1-5.79-1.032Zm-.041-2.762v.868a1.852,1.852,0,0,0,.489,1.3A1.61,1.61,0,0,0-4.1-1.094a1.621,1.621,0,0,0,1.384-.687,3.2,3.2,0,0,0,.5-1.917,2.52,2.52,0,0,0-.468-1.617A1.539,1.539,0,0,0-3.951-5.9a1.709,1.709,0,0,0-1.364.6A2.228,2.228,0,0,0-5.831-3.794Z" transform="translate(320 653)" fill="#31313a"/>
      <g id="Input-_no_label-4" data-name="Input- no label" transform="translate(300 406)" clip-path="url(#clip-path-2)">
        <g id="Rectangle_288-5" data-name="Rectangle 288" fill="#fff" stroke="#cbcbd2" stroke-width="1">
          <rect width="300" height="42" rx="4" stroke="none"/>
          <rect x="0.5" y="0.5" width="299" height="41" rx="3.5" fill="none"/>
        </g>
      </g>
      <path id="Path_102010" data-name="Path 102010" d="M-41.576,0H-43.36l-.882-2.5H-48.1L-48.945,0h-1.777l3.671-9.8h1.832Zm-3.1-3.821-1.36-3.91a4.632,4.632,0,0,1-.13-.615h-.027a4,4,0,0,1-.137.615l-1.347,3.91ZM-34.043,0h-1.586V-1.189h-.027A2.53,2.53,0,0,1-38.015.164a2.546,2.546,0,0,1-2.068-.94,3.9,3.9,0,0,1-.776-2.56A4.251,4.251,0,0,1-40-6.118a2.808,2.808,0,0,1,2.287-1.046,2.19,2.19,0,0,1,2.058,1.135h.027v-4.334h1.586Zm-1.565-3.2v-.916a1.785,1.785,0,0,0-.485-1.265,1.619,1.619,0,0,0-1.237-.52,1.666,1.666,0,0,0-1.4.663A2.955,2.955,0,0,0-39.238-3.4a2.648,2.648,0,0,0,.489,1.685,1.59,1.59,0,0,0,1.316.619,1.646,1.646,0,0,0,1.319-.6A2.253,2.253,0,0,0-35.608-3.2Zm10,3.2h-1.586V-1.189h-.027A2.53,2.53,0,0,1-29.579.164a2.546,2.546,0,0,1-2.068-.94,3.9,3.9,0,0,1-.776-2.56,4.251,4.251,0,0,1,.858-2.782,2.808,2.808,0,0,1,2.287-1.046,2.19,2.19,0,0,1,2.058,1.135h.027v-4.334h1.586Zm-1.565-3.2v-.916a1.785,1.785,0,0,0-.485-1.265A1.619,1.619,0,0,0-28.9-5.9a1.666,1.666,0,0,0-1.4.663A2.955,2.955,0,0,0-30.8-3.4a2.648,2.648,0,0,0,.489,1.685A1.59,1.59,0,0,0-29-1.094a1.646,1.646,0,0,0,1.319-.6A2.253,2.253,0,0,0-27.173-3.2Zm7.7-2.29a1.315,1.315,0,0,0-.827-.226,1.416,1.416,0,0,0-1.176.636A2.843,2.843,0,0,0-21.95-3.35V0h-1.586V-7h1.586v1.442h.027a2.439,2.439,0,0,1,.714-1.152,1.612,1.612,0,0,1,1.077-.414,1.337,1.337,0,0,1,.656.13Zm6.925,2.42h-4.771a2.017,2.017,0,0,0,.6,1.5,2.225,2.225,0,0,0,1.569.526,3.459,3.459,0,0,0,2.058-.67V-.437a4.7,4.7,0,0,1-2.529.6A3.131,3.131,0,0,1-18.05-.79a3.814,3.814,0,0,1-.878-2.683,3.73,3.73,0,0,1,.967-2.663,3.164,3.164,0,0,1,2.4-1.029,2.759,2.759,0,0,1,2.222.923,3.832,3.832,0,0,1,.786,2.563ZM-14.082-4.19a2.044,2.044,0,0,0-.4-1.33A1.348,1.348,0,0,0-15.579-6a1.539,1.539,0,0,0-1.159.5,2.28,2.28,0,0,0-.584,1.306Zm2.6,3.972v-1.47a3.164,3.164,0,0,0,1.962.677q1.436,0,1.436-.848A.668.668,0,0,0-8.2-2.266a1.175,1.175,0,0,0-.332-.3A2.607,2.607,0,0,0-9.027-2.8q-.284-.1-.632-.232a6.694,6.694,0,0,1-.776-.362,2.344,2.344,0,0,1-.574-.434,1.639,1.639,0,0,1-.345-.55,2.026,2.026,0,0,1-.116-.718,1.659,1.659,0,0,1,.239-.892,2.079,2.079,0,0,1,.643-.649,3.081,3.081,0,0,1,.916-.4,4.194,4.194,0,0,1,1.06-.133,4.817,4.817,0,0,1,1.736.294v1.388a2.927,2.927,0,0,0-1.7-.506,2.214,2.214,0,0,0-.543.062,1.4,1.4,0,0,0-.414.171.841.841,0,0,0-.267.263.628.628,0,0,0-.1.338.723.723,0,0,0,.1.383.869.869,0,0,0,.284.277,2.45,2.45,0,0,0,.451.219q.263.1.6.215a8.839,8.839,0,0,1,.81.376,2.737,2.737,0,0,1,.612.434,1.7,1.7,0,0,1,.39.561,1.9,1.9,0,0,1,.137.755A1.727,1.727,0,0,1-6.754-1a2.051,2.051,0,0,1-.656.656,3.072,3.072,0,0,1-.947.386A4.918,4.918,0,0,1-9.488.164,4.767,4.767,0,0,1-11.478-.219Zm6.036,0v-1.47a3.164,3.164,0,0,0,1.962.677q1.436,0,1.436-.848a.668.668,0,0,0-.123-.407,1.175,1.175,0,0,0-.332-.3A2.607,2.607,0,0,0-2.991-2.8q-.284-.1-.632-.232A6.694,6.694,0,0,1-4.4-3.391a2.344,2.344,0,0,1-.574-.434,1.639,1.639,0,0,1-.345-.55,2.026,2.026,0,0,1-.116-.718A1.659,1.659,0,0,1-5.2-5.985a2.079,2.079,0,0,1,.643-.649,3.081,3.081,0,0,1,.916-.4,4.194,4.194,0,0,1,1.06-.133A4.817,4.817,0,0,1-.841-6.87v1.388a2.927,2.927,0,0,0-1.7-.506,2.214,2.214,0,0,0-.543.062,1.4,1.4,0,0,0-.414.171.841.841,0,0,0-.267.263.628.628,0,0,0-.1.338.723.723,0,0,0,.1.383.869.869,0,0,0,.284.277,2.45,2.45,0,0,0,.451.219q.263.1.6.215a8.839,8.839,0,0,1,.81.376A2.737,2.737,0,0,1-1-3.25a1.7,1.7,0,0,1,.39.561,1.9,1.9,0,0,1,.137.755A1.727,1.727,0,0,1-.718-1a2.051,2.051,0,0,1-.656.656,3.072,3.072,0,0,1-.947.386A4.919,4.919,0,0,1-3.452.164,4.767,4.767,0,0,1-5.441-.219Z" transform="translate(351 398)" fill="#31313a"/>
      <g id="Input-_no_label-5" data-name="Input- no label" transform="translate(300 491)" clip-path="url(#clip-path-2)">
        <g id="Rectangle_288-6" data-name="Rectangle 288" fill="#fff" stroke="#cbcbd2" stroke-width="1">
          <rect width="300" height="42" rx="4" stroke="none"/>
          <rect x="0.5" y="0.5" width="299" height="41" rx="3.5" fill="none"/>
        </g>
      </g>
      <path id="Path_102011" data-name="Path 102011" d="M-16.481-.41a5.943,5.943,0,0,1-2.755.574,4.5,4.5,0,0,1-3.418-1.347,4.907,4.907,0,0,1-1.285-3.534,5.146,5.146,0,0,1,1.446-3.8A4.946,4.946,0,0,1-18.84-9.967a5.988,5.988,0,0,1,2.358.4V-7.95a4.208,4.208,0,0,0-2.187-.588A3.433,3.433,0,0,0-21.25-7.52,3.742,3.742,0,0,0-22.237-4.8a3.568,3.568,0,0,0,.923,2.581,3.212,3.212,0,0,0,2.427.96,4.345,4.345,0,0,0,2.406-.656ZM-14-8.47a.953.953,0,0,1-.667-.253.832.832,0,0,1-.277-.643.854.854,0,0,1,.277-.649.939.939,0,0,1,.667-.26.969.969,0,0,1,.684.26.849.849,0,0,1,.28.649.837.837,0,0,1-.28.632A.962.962,0,0,1-14-8.47ZM-13.214,0H-14.8V-7h1.586Zm5.763-.075A2.748,2.748,0,0,1-8.675.157q-2.037,0-2.037-1.955V-5.756h-1.169V-7h1.169V-8.62l1.586-.451V-7h1.675v1.244H-9.126v3.5a1.379,1.379,0,0,0,.226.889.936.936,0,0,0,.752.267,1.09,1.09,0,0,0,.7-.232ZM-.021-7-3.179,1.121Q-4.163,3.295-5.94,3.295a3.311,3.311,0,0,1-.834-.089V1.887a2.218,2.218,0,0,0,.684.123,1.411,1.411,0,0,0,1.326-.875l.472-1.148L-7.075-7h1.757L-3.65-1.914q.027.1.123.506h.034q.034-.157.123-.492L-1.62-7Z" transform="translate(325 483)" fill="#31313a"/>
      <g id="Subtraction_1" data-name="Subtraction 1" transform="translate(3006 661)" fill="#fff">
        <path d="M -2517.500244140625 25.50009727478027 L -2705.500244140625 25.50009727478027 L -2705.500244140625 3.999598264694214 C -2705.500244140625 2.069907665252686 -2703.929931640625 0.500002920627594 -2701.999755859375 0.500002920627594 L -2521 0.500002920627594 C -2519.0703125 0.500002920627594 -2517.500244140625 2.069907665252686 -2517.500244140625 3.999598264694214 L -2517.500244140625 25.50009727478027 Z" stroke="none"/>
        <path d="M -2518.000244140625 25.00009727478027 L -2518.000244140625 3.999598264694214 C -2518.000244140625 2.345622062683105 -2519.345947265625 1.000002980232239 -2521 1.000002980232239 L -2701.999755859375 1.000002980232239 C -2703.654296875 1.000002980232239 -2705.000244140625 2.345622062683105 -2705.000244140625 3.999598264694214 L -2705.000244140625 25.00009727478027 L -2518.000244140625 25.00009727478027 M -2517.000244140625 26.00009727478027 L -2706.000244140625 26.00009727478027 L -2706.000244140625 3.999598264694214 C -2706.000244140625 1.794217228889465 -2704.20556640625 2.925691205746261e-06 -2701.999755859375 2.925691205746261e-06 L -2521 2.925691205746261e-06 C -2518.79443359375 2.925691205746261e-06 -2517.000244140625 1.794217228889465 -2517.000244140625 3.999598264694214 L -2517.000244140625 25.99909782409668 L -2517.000244140625 26.00009727478027 Z" stroke="none" fill="#cbcbd2"/>
      </g>
      <path id="Path_102009" data-name="Path 102009" d="M.827-.4V-1.75a2.629,2.629,0,0,0,.557.369,4.514,4.514,0,0,0,.684.277,5.442,5.442,0,0,0,.721.174,4.021,4.021,0,0,0,.67.062,2.624,2.624,0,0,0,1.583-.393,1.33,1.33,0,0,0,.523-1.131,1.328,1.328,0,0,0-.174-.69,1.964,1.964,0,0,0-.482-.537,4.782,4.782,0,0,0-.728-.465q-.42-.222-.906-.468-.513-.26-.957-.526a4.147,4.147,0,0,1-.772-.588A2.452,2.452,0,0,1,1.029-6.4a2.253,2.253,0,0,1-.188-.954,2.242,2.242,0,0,1,.294-1.166,2.521,2.521,0,0,1,.772-.817A3.5,3.5,0,0,1,3-9.81a4.992,4.992,0,0,1,1.248-.157,4.781,4.781,0,0,1,2.112.349v1.292a3.829,3.829,0,0,0-2.229-.6,3.665,3.665,0,0,0-.752.079,2.124,2.124,0,0,0-.67.256,1.484,1.484,0,0,0-.479.458,1.216,1.216,0,0,0-.185.684,1.407,1.407,0,0,0,.14.649,1.592,1.592,0,0,0,.414.5,4.119,4.119,0,0,0,.667.438q.393.212.906.465t1,.547A4.562,4.562,0,0,1,6-4.218a2.825,2.825,0,0,1,.564.772,2.171,2.171,0,0,1,.208.971,2.462,2.462,0,0,1-.284,1.227,2.328,2.328,0,0,1-.766.817A3.344,3.344,0,0,1,4.607.024a6.084,6.084,0,0,1-1.326.14A5.4,5.4,0,0,1,2.707.126Q2.365.089,2.01.017a5.689,5.689,0,0,1-.673-.178A2.1,2.1,0,0,1,.827-.4ZM14.2-3.22H9.256a2.618,2.618,0,0,0,.629,1.8,2.168,2.168,0,0,0,1.654.636,3.439,3.439,0,0,0,2.174-.779V-.506a4.063,4.063,0,0,1-2.44.67A2.959,2.959,0,0,1,8.941-.79a3.9,3.9,0,0,1-.848-2.683A3.828,3.828,0,0,1,9.02-6.135a2.97,2.97,0,0,1,2.3-1.029,2.632,2.632,0,0,1,2.126.889A3.705,3.705,0,0,1,14.2-3.808ZM13.05-4.17a2.281,2.281,0,0,0-.468-1.511,1.6,1.6,0,0,0-1.282-.54,1.811,1.811,0,0,0-1.347.567A2.575,2.575,0,0,0,9.27-4.17ZM17.015,0H15.894V-10.363h1.121Zm7.9-3.22H19.968a2.618,2.618,0,0,0,.629,1.8,2.168,2.168,0,0,0,1.654.636,3.439,3.439,0,0,0,2.174-.779V-.506a4.063,4.063,0,0,1-2.44.67A2.959,2.959,0,0,1,19.653-.79a3.9,3.9,0,0,1-.848-2.683,3.828,3.828,0,0,1,.926-2.663,2.97,2.97,0,0,1,2.3-1.029,2.632,2.632,0,0,1,2.126.889,3.705,3.705,0,0,1,.752,2.468Zm-1.148-.95a2.281,2.281,0,0,0-.468-1.511,1.6,1.6,0,0,0-1.282-.54,1.811,1.811,0,0,0-1.347.567,2.575,2.575,0,0,0-.684,1.483ZM31.377-.321a3.643,3.643,0,0,1-1.914.485A3.169,3.169,0,0,1,27.046-.81a3.53,3.53,0,0,1-.919-2.526,3.881,3.881,0,0,1,.991-2.779,3.467,3.467,0,0,1,2.646-1.049,3.682,3.682,0,0,1,1.627.342v1.148a2.85,2.85,0,0,0-1.668-.547,2.254,2.254,0,0,0-1.76.769,2.918,2.918,0,0,0-.687,2.02,2.779,2.779,0,0,0,.646,1.941,2.227,2.227,0,0,0,1.733.711,2.81,2.81,0,0,0,1.723-.608Zm4.942.253A2.161,2.161,0,0,1,35.273.15Q33.435.15,33.435-1.9V-6.043h-1.2V-7h1.2V-8.709l1.121-.362V-7h1.764v.957H34.556V-2.1a1.635,1.635,0,0,0,.239,1,.955.955,0,0,0,.793.3,1.179,1.179,0,0,0,.731-.232Zm8.258.232A3.247,3.247,0,0,1,42.1-.817a3.634,3.634,0,0,1-.926-2.6,3.785,3.785,0,0,1,.964-2.755,3.465,3.465,0,0,1,2.6-.991,3.14,3.14,0,0,1,2.444.964,3.822,3.822,0,0,1,.878,2.673,3.761,3.761,0,0,1-.947,2.683A3.317,3.317,0,0,1,44.577.164Zm.082-6.385a2.132,2.132,0,0,0-1.709.735,3.018,3.018,0,0,0-.629,2.027A2.854,2.854,0,0,0,42.957-1.5a2.161,2.161,0,0,0,1.7.718,2.049,2.049,0,0,0,1.671-.7,3.055,3.055,0,0,0,.584-2,3.108,3.108,0,0,0-.584-2.023A2.04,2.04,0,0,0,44.659-6.221Zm8.846.355a1.371,1.371,0,0,0-.848-.226,1.431,1.431,0,0,0-1.2.677,3.129,3.129,0,0,0-.482,1.846V0H49.854V-7h1.121v1.442H51a2.444,2.444,0,0,1,.731-1.152,1.668,1.668,0,0,1,1.1-.414,1.83,1.83,0,0,1,.67.1ZM64.531,0H63.41V-1.189h-.027A2.588,2.588,0,0,1,60.977.164a2.615,2.615,0,0,1-2.109-.94,3.856,3.856,0,0,1-.79-2.56,4.2,4.2,0,0,1,.875-2.782,2.886,2.886,0,0,1,2.331-1.046,2.244,2.244,0,0,1,2.1,1.135h.027v-4.334h1.121ZM63.41-3.165V-4.2a2,2,0,0,0-.561-1.436,1.88,1.88,0,0,0-1.422-.588,1.936,1.936,0,0,0-1.613.752,3.3,3.3,0,0,0-.588,2.078,2.964,2.964,0,0,0,.564,1.911,1.843,1.843,0,0,0,1.514.7,1.915,1.915,0,0,0,1.521-.677A2.521,2.521,0,0,0,63.41-3.165Zm7.041-2.7a1.371,1.371,0,0,0-.848-.226,1.431,1.431,0,0,0-1.2.677,3.129,3.129,0,0,0-.482,1.846V0H66.8V-7h1.121v1.442h.027a2.444,2.444,0,0,1,.731-1.152,1.668,1.668,0,0,1,1.1-.414,1.83,1.83,0,0,1,.67.1ZM76.679,0H75.558V-1.094H75.53A2.347,2.347,0,0,1,73.377.164,2.3,2.3,0,0,1,71.74-.39a1.918,1.918,0,0,1-.591-1.47q0-1.962,2.311-2.283l2.1-.294q0-1.784-1.442-1.784a3.446,3.446,0,0,0-2.283.861V-6.508a4.338,4.338,0,0,1,2.379-.656q2.468,0,2.468,2.611ZM75.558-3.541l-1.688.232a2.741,2.741,0,0,0-1.176.386,1.114,1.114,0,0,0-.4.981,1.068,1.068,0,0,0,.366.837,1.413,1.413,0,0,0,.974.325,1.8,1.8,0,0,0,1.377-.584,2.088,2.088,0,0,0,.543-1.48Zm9.208,2.98q0,3.855-3.691,3.855A4.956,4.956,0,0,1,78.8,2.8V1.682a4.661,4.661,0,0,0,2.256.656q2.584,0,2.584-2.748v-.766h-.027A2.622,2.622,0,0,1,81.211.164a2.628,2.628,0,0,1-2.1-.933,3.73,3.73,0,0,1-.8-2.505,4.358,4.358,0,0,1,.858-2.837,2.866,2.866,0,0,1,2.348-1.053,2.282,2.282,0,0,1,2.1,1.135h.027V-7h1.121Zm-1.121-2.6V-4.2a2,2,0,0,0-.564-1.429,1.857,1.857,0,0,0-1.4-.595,1.947,1.947,0,0,0-1.627.755,3.372,3.372,0,0,0-.588,2.116,2.894,2.894,0,0,0,.564,1.87,1.822,1.822,0,0,0,1.494.7,1.951,1.951,0,0,0,1.535-.67A2.5,2.5,0,0,0,83.645-3.165ZM94.329-9.379a1.493,1.493,0,0,0-.745-.185q-1.176,0-1.176,1.483V-7h1.641v.957H92.408V0H91.294V-6.043H90.1V-7h1.2V-8.135a2.358,2.358,0,0,1,.636-1.74,2.146,2.146,0,0,1,1.586-.639,2.2,2.2,0,0,1,.813.123Zm1.5.6a.71.71,0,0,1-.513-.205A.692.692,0,0,1,95.1-9.5a.7.7,0,0,1,.212-.523.7.7,0,0,1,.513-.208.724.724,0,0,1,.523.208.7.7,0,0,1,.215.523.693.693,0,0,1-.215.513A.718.718,0,0,1,95.826-8.777ZM96.373,0H95.252V-7h1.121Zm3.391,0H98.643V-10.363h1.121Zm7.9-3.22h-4.942a2.618,2.618,0,0,0,.629,1.8A2.168,2.168,0,0,0,105-.779a3.439,3.439,0,0,0,2.174-.779V-.506a4.063,4.063,0,0,1-2.44.67A2.959,2.959,0,0,1,102.4-.79a3.9,3.9,0,0,1-.848-2.683,3.828,3.828,0,0,1,.926-2.663,2.97,2.97,0,0,1,2.3-1.029,2.632,2.632,0,0,1,2.126.889,3.705,3.705,0,0,1,.752,2.468Zm-1.148-.95a2.281,2.281,0,0,0-.468-1.511,1.6,1.6,0,0,0-1.282-.54,1.811,1.811,0,0,0-1.347.567,2.575,2.575,0,0,0-.684,1.483Zm2.42,3.917v-1.2a3.318,3.318,0,0,0,2.017.677q1.477,0,1.477-.984a.854.854,0,0,0-.126-.475,1.26,1.26,0,0,0-.342-.345,2.631,2.631,0,0,0-.506-.27q-.291-.12-.625-.25a8.056,8.056,0,0,1-.817-.373,2.468,2.468,0,0,1-.588-.424,1.577,1.577,0,0,1-.355-.537,1.9,1.9,0,0,1-.12-.7,1.673,1.673,0,0,1,.226-.872,2,2,0,0,1,.6-.636,2.805,2.805,0,0,1,.858-.386,3.805,3.805,0,0,1,.995-.13,4.016,4.016,0,0,1,1.627.314v1.135a3.171,3.171,0,0,0-1.777-.506,2.078,2.078,0,0,0-.567.072,1.389,1.389,0,0,0-.434.2.932.932,0,0,0-.28.311.819.819,0,0,0-.1.4.959.959,0,0,0,.1.458,1.008,1.008,0,0,0,.291.328,2.221,2.221,0,0,0,.465.26q.273.116.622.253a8.658,8.658,0,0,1,.834.366,2.86,2.86,0,0,1,.629.424,1.656,1.656,0,0,1,.4.543,1.753,1.753,0,0,1,.14.731,1.725,1.725,0,0,1-.229.9,1.963,1.963,0,0,1-.612.636,2.8,2.8,0,0,1-.882.376A4.354,4.354,0,0,1,110.8.164,3.971,3.971,0,0,1,108.931-.253ZM124.94,0h-1.121V-4.033q0-2.188-1.627-2.187a1.774,1.774,0,0,0-1.381.632,2.356,2.356,0,0,0-.561,1.624V0H119.13V-10.363h1.121v4.525h.027a2.546,2.546,0,0,1,2.3-1.326q2.365,0,2.365,2.851Zm7.738-3.22h-4.942a2.618,2.618,0,0,0,.629,1.8,2.168,2.168,0,0,0,1.654.636,3.439,3.439,0,0,0,2.174-.779V-.506a4.063,4.063,0,0,1-2.44.67,2.959,2.959,0,0,1-2.331-.954,3.9,3.9,0,0,1-.848-2.683,3.828,3.828,0,0,1,.926-2.663,2.97,2.97,0,0,1,2.3-1.029,2.632,2.632,0,0,1,2.126.889,3.705,3.705,0,0,1,.752,2.468Zm-1.148-.95a2.281,2.281,0,0,0-.468-1.511,1.6,1.6,0,0,0-1.282-.54,1.811,1.811,0,0,0-1.347.567,2.575,2.575,0,0,0-.684,1.483Zm6.494-1.7a1.371,1.371,0,0,0-.848-.226,1.431,1.431,0,0,0-1.2.677,3.129,3.129,0,0,0-.482,1.846V0h-1.121V-7H135.5v1.442h.027a2.444,2.444,0,0,1,.731-1.152,1.668,1.668,0,0,1,1.1-.414,1.83,1.83,0,0,1,.67.1Zm6.843,2.646h-4.942a2.618,2.618,0,0,0,.629,1.8,2.168,2.168,0,0,0,1.654.636,3.439,3.439,0,0,0,2.174-.779V-.506a4.063,4.063,0,0,1-2.44.67A2.959,2.959,0,0,1,139.61-.79a3.9,3.9,0,0,1-.848-2.683,3.828,3.828,0,0,1,.926-2.663,2.97,2.97,0,0,1,2.3-1.029,2.632,2.632,0,0,1,2.126.889,3.705,3.705,0,0,1,.752,2.468Zm-1.148-.95a2.281,2.281,0,0,0-.468-1.511,1.6,1.6,0,0,0-1.282-.54,1.811,1.811,0,0,0-1.347.567,2.575,2.575,0,0,0-.684,1.483Z" transform="translate(361 348)" fill="#cbcbd2"/>
    </g>
  </g>
</svg>
