<svg xmlns="http://www.w3.org/2000/svg" xmlns:xlink="http://www.w3.org/1999/xlink" width="900" height="434" viewBox="0 0 900 434">
  <defs>
    <clipPath id="clip-path">
      <rect width="300" height="42" fill="none"/>
    </clipPath>
    <clipPath id="clip-forms--spacing">
      <rect width="900" height="434"/>
    </clipPath>
  </defs>
  <g id="forms--spacing" clip-path="url(#clip-forms--spacing)">
    <g id="Input-_no_label" data-name="Input- no label" transform="translate(300 122)" clip-path="url(#clip-path)">
      <g id="Rectangle_288" data-name="Rectangle 288" fill="#fff" stroke="#cbcbd2" stroke-width="1">
        <rect width="300" height="42" rx="4" stroke="none"/>
        <rect x="0.5" y="0.5" width="299" height="41" rx="3.5" fill="none"/>
      </g>
    </g>
    <g id="Input-_no_label-2" data-name="Input- no label" transform="translate(300 286)">
      <g id="Rectangle_288-2" data-name="Rectangle 288" fill="#fff" stroke="#cbcbd2" stroke-width="1">
        <rect width="189" height="42" rx="4" stroke="none"/>
        <rect x="0.5" y="0.5" width="188" height="41" rx="3.5" fill="none"/>
      </g>
    </g>
    <text id="City" transform="translate(300 112)" fill="#31313a" font-size="14" font-family="SegoeUI-Semibold, Segoe UI" font-weight="600"><tspan x="0" y="0">City</tspan></text>
    <text id="State" transform="translate(300 194)" fill="#31313a" font-size="14" font-family="SegoeUI-Semibold, Segoe UI" font-weight="600"><tspan x="0" y="0">State</tspan></text>
    <text id="Zip" transform="translate(300 276)" fill="#31313a" font-size="14" font-family="SegoeUI-Semibold, Segoe UI" font-weight="600"><tspan x="0" y="0">Zip</tspan></text>
    <g id="Primary_Button_-_Normal" data-name="Primary Button - Normal" transform="translate(300 358)">
      <rect id="Rectangle_3990" data-name="Rectangle 3990" width="73.934" height="36" rx="18" fill="#2777d3"/>
      <text id="Save" transform="translate(37 23)" fill="#fff" font-size="14" font-family="SegoeUI-Semibold, Segoe UI" font-weight="600"><tspan x="-14.68" y="0">Save</tspan></text>
    </g>
    <g id="Secondary_Button_-_Normal" data-name="Secondary Button - Normal" transform="translate(384 358)">
      <g id="Rectangle_3991" data-name="Rectangle 3991" fill="none" stroke="#cbcbd2" stroke-width="1">
        <rect width="73.934" height="36" rx="18" stroke="none"/>
        <rect x="0.5" y="0.5" width="72.934" height="35" rx="17.5" fill="none"/>
      </g>
      <text id="Cancel" transform="translate(37 23)" fill="#2777d3" font-size="14" font-family="SegoeUI-Semibold, Segoe UI" font-weight="600"><tspan x="-20.925" y="0">Cancel</tspan></text>
    </g>
    <g id="Dropdown_Input_-_Unselected" data-name="Dropdown Input - Unselected" transform="translate(300 204)">
      <g id="Rectangle_288-3" data-name="Rectangle 288" fill="#fff" stroke="#cbcbd2" stroke-width="1">
        <rect width="213" height="42" rx="4" stroke="none"/>
        <rect x="0.5" y="0.5" width="212" height="41" rx="3.5" fill="none"/>
      </g>
      <g id="Group_7793" data-name="Group 7793" transform="translate(-637 -1698)">
        <rect id="Rectangle_3867" data-name="Rectangle 3867" width="24" height="24" transform="translate(816 1707)" fill="none"/>
        <path id="Path_5558" data-name="Path 5558" d="M56,9.4l-3,3-3-3a.967.967,0,0,0-1.4,0h0a.967.967,0,0,0,0,1.4l3.7,3.7a.967.967,0,0,0,1.4,0l3.7-3.7a.967.967,0,0,0,0-1.4h0A.965.965,0,0,0,56,9.4Z" transform="translate(775 1707)" fill="#9494a4"/>
      </g>
    </g>
    <g id="Group_13014" data-name="Group 13014" transform="translate(-8 60)">
      <rect id="Rectangle_6842" data-name="Rectangle 6842" width="3" height="1" transform="translate(305 52)" fill="#c6318c"/>
      <rect id="Rectangle_6843" data-name="Rectangle 6843" width="3" height="1" transform="translate(305 61)" fill="#c6318c"/>
      <rect id="Rectangle_6844" data-name="Rectangle 6844" width="1" height="10" transform="translate(306 52)" fill="#c6318c"/>
    </g>
    <g id="Group_13015" data-name="Group 13015" transform="translate(-8 112)">
      <rect id="Rectangle_6842-2" data-name="Rectangle 6842" width="3" height="1" transform="translate(305 52)" fill="#c6318c"/>
      <rect id="Rectangle_6843-2" data-name="Rectangle 6843" width="3" height="1" transform="translate(305 71)" fill="#c6318c"/>
      <rect id="Rectangle_6844-2" data-name="Rectangle 6844" width="1" height="20" transform="translate(306 52)" fill="#c6318c"/>
    </g>
    <g id="Group_13017" data-name="Group 13017" transform="translate(-8 276)">
      <rect id="Rectangle_6842-3" data-name="Rectangle 6842" width="3" height="1" transform="translate(305 52)" fill="#c6318c"/>
      <rect id="Rectangle_6843-3" data-name="Rectangle 6843" width="3" height="1" transform="translate(305 81)" fill="#c6318c"/>
      <rect id="Rectangle_6844-3" data-name="Rectangle 6844" width="1" height="30" transform="translate(306 52)" fill="#c6318c"/>
    </g>
    <g id="Group_13019" data-name="Group 13019" transform="translate(-8 18)">
      <rect id="Rectangle_6842-4" data-name="Rectangle 6842" width="3" height="1" transform="translate(305 52)" fill="#c6318c"/>
      <rect id="Rectangle_6843-4" data-name="Rectangle 6843" width="3" height="1" transform="translate(305 81)" fill="#c6318c"/>
      <rect id="Rectangle_6844-4" data-name="Rectangle 6844" width="1" height="30" transform="translate(306 52)" fill="#c6318c"/>
    </g>
    <rect id="Rectangle_6845" data-name="Rectangle 6845" width="25" height="1" transform="translate(274 116)" fill="#c6318c"/>
    <rect id="Rectangle_6846" data-name="Rectangle 6846" width="25" height="1" transform="translate(274 174)" fill="#c6318c"/>
    <rect id="Rectangle_6847" data-name="Rectangle 6847" width="25" height="1" transform="translate(274 342)" fill="#c6318c"/>
    <rect id="Rectangle_6852" data-name="Rectangle 6852" width="25" height="1" transform="translate(274 84)" fill="#c6318c"/>
    <circle id="Ellipse_2016" data-name="Ellipse 2016" cx="12" cy="12" r="12" transform="translate(250 104)" fill="#c6318c"/>
    <circle id="Ellipse_2017" data-name="Ellipse 2017" cx="12" cy="12" r="12" transform="translate(250 162)" fill="#c6318c"/>
    <circle id="Ellipse_2018" data-name="Ellipse 2018" cx="12" cy="12" r="12" transform="translate(250 330)" fill="#c6318c"/>
    <circle id="Ellipse_2020" data-name="Ellipse 2020" cx="12" cy="12" r="12" transform="translate(250 72)" fill="#c6318c"/>
    <text id="_2" data-name="2" transform="translate(258 121)" fill="#fff" stroke="rgba(0,0,0,0)" stroke-width="1" font-size="14" font-family="SegoeUI-Bold, Segoe UI" font-weight="700"><tspan x="0" y="0">2</tspan></text>
    <text id="_3" data-name="3" transform="translate(258 179)" fill="#fff" stroke="rgba(0,0,0,0)" stroke-width="1" font-size="14" font-family="SegoeUI-Bold, Segoe UI" font-weight="700"><tspan x="0" y="0">3</tspan></text>
    <text id="_4" data-name="4" transform="translate(258 347)" fill="#fff" stroke="rgba(0,0,0,0)" stroke-width="1" font-size="14" font-family="SegoeUI-Bold, Segoe UI" font-weight="700"><tspan x="0" y="0">4</tspan></text>
    <text id="_1" data-name="1" transform="translate(258 89)" fill="#fff" stroke="rgba(0,0,0,0)" stroke-width="1" font-size="14" font-family="SegoeUI-Bold, Segoe UI" font-weight="700"><tspan x="0" y="0">1</tspan></text>
    <text id="Add_Location" data-name="Add Location" transform="translate(300 60)" fill="#31313a" font-size="26" font-family="SegoeUI-Semibold, Segoe UI" font-weight="600"><tspan x="0" y="0">Add Location</tspan></text>
  </g>
</svg>
