<svg xmlns="http://www.w3.org/2000/svg" xmlns:xlink="http://www.w3.org/1999/xlink" width="900" height="371" viewBox="0 0 900 371">
  <defs>
    <clipPath id="clip-forms--actions-back">
      <rect width="900" height="371"/>
    </clipPath>
  </defs>
  <g id="forms--actions-back" clip-path="url(#clip-forms--actions-back)">
    <g id="Input-_no_label" data-name="Input- no label" transform="translate(300 224)">
      <g id="Rectangle_288" data-name="Rectangle 288" fill="#fff" stroke="#cbcbd2" stroke-width="1">
        <rect width="253" height="42" rx="4" stroke="none"/>
        <rect x="0.5" y="0.5" width="252" height="41" rx="3.5" fill="none"/>
      </g>
    </g>
    <text id="First_Name" data-name="First Name" transform="translate(300 132)" fill="#31313a" font-size="14" font-family="SegoeUI-Semibold, Segoe UI" font-weight="600"><tspan x="0" y="0">First Name</tspan></text>
    <text id="Last_Name" data-name="Last Name" transform="translate(300 214)" fill="#31313a" font-size="14" font-family="SegoeUI-Semibold, Segoe UI" font-weight="600"><tspan x="0" y="0">Last Name</tspan></text>
    <g id="Primary_Button_-_Normal" data-name="Primary Button - Normal" transform="translate(300 296)">
      <path id="Path_5559" data-name="Path 5559" d="M18,0H66.934a18,18,0,0,1,0,36H18A18,18,0,0,1,18,0Z" fill="#2777d3"/>
      <text id="Continue" transform="translate(42 23)" fill="#fff" font-size="14" font-family="SegoeUI-Semibold, Segoe UI" font-weight="600"><tspan x="-28.858" y="0">Continue</tspan></text>
    </g>
    <g id="Dropdown_Input_-_Unselected" data-name="Dropdown Input - Unselected" transform="translate(300 142)">
      <g id="Rectangle_288-2" data-name="Rectangle 288" fill="#fff" stroke="#cbcbd2" stroke-width="1">
        <rect width="253" height="42" rx="4" stroke="none"/>
        <rect x="0.5" y="0.5" width="252" height="41" rx="3.5" fill="none"/>
      </g>
    </g>
    <g id="Secondary_Button_-_Normal" data-name="Secondary Button - Normal" transform="translate(395 296)">
      <path id="Path_8849" data-name="Path 8849" d="M18,0H55.934a18,18,0,0,1,0,36H18A18,18,0,0,1,18,0Z" fill="none"/>
      <text id="Cancel" transform="translate(37 23)" fill="#2777d3" font-size="14" font-family="SegoeUI-Semibold, Segoe UI" font-weight="600"><tspan x="-20.925" y="0">Cancel</tspan></text>
    </g>
    <text id="Add_Account" data-name="Add Account" transform="translate(300 80)" fill="#31313a" font-size="26" font-family="SegoeUI-Semibold, Segoe UI" font-weight="600"><tspan x="0" y="0">Add Account</tspan></text>
    <g id="Group_13854" data-name="Group 13854" transform="translate(292)">
      <g id="Symbol_3" data-name="Symbol 3" transform="translate(-40 -90)">
        <text id="Back" transform="translate(74 125)" fill="#5786bd" font-size="14" font-family="OpenSans-Semibold, Open Sans" font-weight="600"><tspan x="0" y="0">Back</tspan></text>
        <g id="Group_8413" data-name="Group 8413">
          <rect id="Rectangle_3875" data-name="Rectangle 3875" width="24" height="24" transform="translate(72 108) rotate(90)" fill="none"/>
          <path id="Path_5567" data-name="Path 5567" d="M385.2,18.3,378.9,12l6.3-6.3a.967.967,0,0,0,0-1.4h0a.967.967,0,0,0-1.4,0l-6.3,6.3-.7.7a.967.967,0,0,0,0,1.4l.7.7,6.3,6.3a.967.967,0,0,0,1.4,0h0A.965.965,0,0,0,385.2,18.3Z" transform="translate(-321 108)" fill="#5786bd"/>
        </g>
      </g>
    </g>
  </g>
</svg>
