<svg xmlns="http://www.w3.org/2000/svg" xmlns:xlink="http://www.w3.org/1999/xlink" viewBox="1209 56 346 300">
  <defs>
    <style>
      .cls-1 {
        clip-path: url(#clip-path);
      }

      .cls-2 {
        fill: none;
      }

      .cls-3 {
        fill: rgba(31,210,219,0.4);
        opacity: 0.5;
      }

      .cls-4 {
        fill: #1f5ea8;
      }

      .cls-5 {
        fill: #3d3d3d;
      }

      .cls-6 {
        fill: #e91e63;
      }
    </style>
    <clipPath id="clip-path">
      <path id="Path_6190" data-name="Path 6190" d="M0,0H346V300H0Z" transform="translate(-12774 -10495)"/>
    </clipPath>
  </defs>
  <g id="Mask_Group_1" data-name="Mask Group 1" class="cls-1" transform="translate(13983 10551)">
    <path id="Path_6189" data-name="Path 6189" class="cls-2" d="M0,0H346V300H0Z" transform="translate(-12774 -10495)"/>
    <path id="Path_6277" data-name="Path 6277" class="cls-3" d="M21,0A21,21,0,1,1,0,21,21,21,0,0,1,21,0Z" transform="translate(-12645 -10388)"/>
    <path id="Path_6255" data-name="Path 6255" class="cls-4" d="M35,42.8a8,8,0,1,1-8,8,8,8,0,0,1,8-8m0-2a10,10,0,1,0,10,10A10,10,0,0,0,35,40.8Zm6,10a6,6,0,1,0-6,6,6,6,0,0,0,6-6Z" transform="translate(-12659 -10417.8)"/>
    <path id="Path_6256" data-name="Path 6256" class="cls-4" d="M35,42.8a8,8,0,1,1-8,8,8,8,0,0,1,8-8m0-2a10,10,0,1,0,10,10A10,10,0,0,0,35,40.8Zm6,10a6,6,0,1,0-6,6,6,6,0,0,0,6-6Z" transform="translate(-12659 -10374.8)"/>
    <path id="Path_6278" data-name="Path 6278" class="cls-5" d="M1.374,0V-9.994H2.536v8.941H6.945V0Zm11.7,0-.226-1.066H12.8a3.153,3.153,0,0,1-1.118.954,3.407,3.407,0,0,1-1.391.25A2.5,2.5,0,0,1,8.542-.437,2.094,2.094,0,0,1,7.91-2.071q0-2.27,3.63-2.379l1.271-.041v-.465a1.9,1.9,0,0,0-.379-1.3,1.56,1.56,0,0,0-1.213-.42A4.944,4.944,0,0,0,9.1-6.1l-.35-.873a5.332,5.332,0,0,1,1.213-.472,5.255,5.255,0,0,1,1.323-.171,2.854,2.854,0,0,1,1.986.595,2.482,2.482,0,0,1,.646,1.907V0Zm-2.56-.8a2.3,2.3,0,0,0,1.665-.581,2.15,2.15,0,0,0,.6-1.627v-.677l-1.135.048a4.128,4.128,0,0,0-1.952.42,1.268,1.268,0,0,0-.6,1.159,1.169,1.169,0,0,0,.373.937A1.546,1.546,0,0,0,10.514-.8Zm9.229-6.815a2.785,2.785,0,0,1,2.293,1.008,4.426,4.426,0,0,1,.817,2.854,4.458,4.458,0,0,1-.824,2.868A2.774,2.774,0,0,1,19.742.137a3.242,3.242,0,0,1-1.336-.27,2.513,2.513,0,0,1-1.015-.831h-.082L17.069,0h-.813V-10.637h1.135v2.584q0,.868-.055,1.559h.055a2.694,2.694,0,0,1,2.351-1.121Zm-.164.95A1.981,1.981,0,0,0,17.9-6a3.76,3.76,0,0,0-.513,2.246A3.749,3.749,0,0,0,17.913-1.5a2,2,0,0,0,1.688.68,1.75,1.75,0,0,0,1.559-.762,3.917,3.917,0,0,0,.513-2.191,3.765,3.765,0,0,0-.513-2.181,1.817,1.817,0,0,0-1.582-.716ZM28,.137A3.442,3.442,0,0,1,25.378-.875a3.917,3.917,0,0,1-.96-2.81,4.344,4.344,0,0,1,.892-2.878,2.963,2.963,0,0,1,2.4-1.066,2.825,2.825,0,0,1,2.229.926,3.55,3.55,0,0,1,.82,2.444v.718H25.594a2.97,2.97,0,0,0,.667,2,2.305,2.305,0,0,0,1.781.684,6.035,6.035,0,0,0,2.393-.506V-.349A6,6,0,0,1,29.3.024,6.4,6.4,0,0,1,28,.137Zm-.308-6.815a1.853,1.853,0,0,0-1.439.588,2.71,2.71,0,0,0-.632,1.627h3.917a2.5,2.5,0,0,0-.479-1.644,1.684,1.684,0,0,0-1.367-.572ZM33.824,0H32.689V-10.637h1.135Z" transform="translate(-12603 -10362)"/>
    <path id="Path_6279" data-name="Path 6279" class="cls-5" d="M1.374,0V-9.994H2.536v8.941H6.945V0Zm11.7,0-.226-1.066H12.8a3.153,3.153,0,0,1-1.118.954,3.407,3.407,0,0,1-1.391.25A2.5,2.5,0,0,1,8.542-.437,2.094,2.094,0,0,1,7.91-2.071q0-2.27,3.63-2.379l1.271-.041v-.465a1.9,1.9,0,0,0-.379-1.3,1.56,1.56,0,0,0-1.213-.42A4.944,4.944,0,0,0,9.1-6.1l-.35-.873a5.332,5.332,0,0,1,1.213-.472,5.255,5.255,0,0,1,1.323-.171,2.854,2.854,0,0,1,1.986.595,2.482,2.482,0,0,1,.646,1.907V0Zm-2.56-.8a2.3,2.3,0,0,0,1.665-.581,2.15,2.15,0,0,0,.6-1.627v-.677l-1.135.048a4.128,4.128,0,0,0-1.952.42,1.268,1.268,0,0,0-.6,1.159,1.169,1.169,0,0,0,.373.937A1.546,1.546,0,0,0,10.514-.8Zm9.229-6.815a2.785,2.785,0,0,1,2.293,1.008,4.426,4.426,0,0,1,.817,2.854,4.458,4.458,0,0,1-.824,2.868A2.774,2.774,0,0,1,19.742.137a3.242,3.242,0,0,1-1.336-.27,2.513,2.513,0,0,1-1.015-.831h-.082L17.069,0h-.813V-10.637h1.135v2.584q0,.868-.055,1.559h.055a2.694,2.694,0,0,1,2.351-1.121Zm-.164.95A1.981,1.981,0,0,0,17.9-6a3.76,3.76,0,0,0-.513,2.246A3.749,3.749,0,0,0,17.913-1.5a2,2,0,0,0,1.688.68,1.75,1.75,0,0,0,1.559-.762,3.917,3.917,0,0,0,.513-2.191,3.765,3.765,0,0,0-.513-2.181,1.817,1.817,0,0,0-1.582-.716ZM28,.137A3.442,3.442,0,0,1,25.378-.875a3.917,3.917,0,0,1-.96-2.81,4.344,4.344,0,0,1,.892-2.878,2.963,2.963,0,0,1,2.4-1.066,2.825,2.825,0,0,1,2.229.926,3.55,3.55,0,0,1,.82,2.444v.718H25.594a2.97,2.97,0,0,0,.667,2,2.305,2.305,0,0,0,1.781.684,6.035,6.035,0,0,0,2.393-.506V-.349A6,6,0,0,1,29.3.024,6.4,6.4,0,0,1,28,.137Zm-.308-6.815a1.853,1.853,0,0,0-1.439.588,2.71,2.71,0,0,0-.632,1.627h3.917a2.5,2.5,0,0,0-.479-1.644,1.684,1.684,0,0,0-1.367-.572ZM33.824,0H32.689V-10.637h1.135Z" transform="translate(-12603 -10319)"/>
    <g id="Group_7748" data-name="Group 7748" transform="translate(-12715 -10455)">
      <rect id="Rectangle_68" data-name="Rectangle 68" class="cls-6" width="20" height="1" transform="translate(60 98) rotate(-90)"/>
      <rect id="Rectangle_137" data-name="Rectangle 137" class="cls-6" width="15" height="1" transform="translate(68 79) rotate(180)"/>
      <rect id="Rectangle_138" data-name="Rectangle 138" class="cls-6" width="15" height="1" transform="translate(68 98) rotate(180)"/>
    </g>
    <g id="Group_10" data-name="Group 10" transform="translate(-11965 -10184) rotate(180)">
      <rect id="Rectangle_89" data-name="Rectangle 89" class="cls-6" width="15" height="1" transform="translate(680 206) rotate(90)"/>
      <rect id="Rectangle_89-2" data-name="Rectangle 89" class="cls-6" width="15" height="1" transform="translate(639 206) rotate(90)"/>
      <rect id="Rectangle_68-2" data-name="Rectangle 68" class="cls-6" width="42" height="1" transform="translate(680 214) rotate(180)"/>
    </g>
    <g id="Group_10-2" data-name="Group 10" transform="translate(-11965 -10111) rotate(180)">
      <rect id="Rectangle_89-3" data-name="Rectangle 89" class="cls-6" width="15" height="1" transform="translate(649 206) rotate(90)"/>
      <rect id="Rectangle_89-4" data-name="Rectangle 89" class="cls-6" width="15" height="1" transform="translate(639 206) rotate(90)"/>
      <rect id="Rectangle_68-3" data-name="Rectangle 68" class="cls-6" width="11" height="1" transform="translate(649 214) rotate(180)"/>
    </g>
    <path id="_82" data-name="82" class="cls-6" d="M-.591,0H-5.752V-.768l2.068-2.079A15.227,15.227,0,0,0-2.438-4.211a3.482,3.482,0,0,0,.451-.8,2.277,2.277,0,0,0,.15-.833,1.32,1.32,0,0,0-.381-1A1.461,1.461,0,0,0-3.276-7.2a2.661,2.661,0,0,0-.927.161,3.693,3.693,0,0,0-.975.585l-.473-.607a3.62,3.62,0,0,1,2.363-.9A2.5,2.5,0,0,1-1.552-7.4,1.949,1.949,0,0,1-.924-5.876,2.941,2.941,0,0,1-1.343-4.4,9.378,9.378,0,0,1-2.911-2.551L-4.63-.87v.043H-.591ZM5.742-3.937A5.734,5.734,0,0,1,5.1-.9,2.169,2.169,0,0,1,3.137.1,2.15,2.15,0,0,1,1.208-.921a5.621,5.621,0,0,1-.66-3.016,5.733,5.733,0,0,1,.639-3.045,2.159,2.159,0,0,1,1.95-.994A2.162,2.162,0,0,1,5.078-6.939a5.6,5.6,0,0,1,.664,3Zm-4.292,0a5.751,5.751,0,0,0,.4,2.5,1.347,1.347,0,0,0,1.284.781,1.348,1.348,0,0,0,1.292-.792,5.8,5.8,0,0,0,.4-2.484,5.757,5.757,0,0,0-.4-2.479A1.349,1.349,0,0,0,3.137-7.2a1.348,1.348,0,0,0-1.284.776,5.713,5.713,0,0,0-.4,2.487Z" transform="translate(-12670 -10362.5)"/>
    <path id="_82-2" data-name="82" class="cls-6" d="M-.22-1.8H-1.386V0H-2.24V-1.8H-6.059v-.779L-2.331-7.9h.945v5.28H-.22Zm-2.02-.811v-2.61q0-.768.054-1.735h-.043a8.071,8.071,0,0,1-.483.854L-5.167-2.616ZM5.7,0H.537V-.768L2.6-2.847A15.227,15.227,0,0,0,3.851-4.211a3.482,3.482,0,0,0,.449-.8,2.277,2.277,0,0,0,.15-.833,1.32,1.32,0,0,0-.381-1A1.461,1.461,0,0,0,3.013-7.2a2.661,2.661,0,0,0-.927.161,3.693,3.693,0,0,0-.975.585L.639-7.063A3.62,3.62,0,0,1,3-7.965,2.5,2.5,0,0,1,4.737-7.4a1.949,1.949,0,0,1,.628,1.523A2.941,2.941,0,0,1,4.947-4.4,9.378,9.378,0,0,1,3.378-2.551L1.66-.87v.043H5.7Z" transform="translate(-12624 -10407.5)"/>
    <path id="_82-3" data-name="82" class="cls-6" d="M-2.449,0h-.87V-5.6q0-.7.043-1.321-.113.113-.252.236T-4.807-5.634l-.473-.612L-3.2-7.853h.752ZM3.84,0H2.97V-5.6q0-.7.043-1.321-.113.113-.252.236T1.482-5.634L1.01-6.247,3.088-7.853H3.84Z" transform="translate(-12608.5 -10334)"/>
    <path id="_82-4" data-name="82" class="cls-6" d="M-.591,0H-5.752V-.768l2.068-2.079A15.227,15.227,0,0,0-2.438-4.211a3.482,3.482,0,0,0,.451-.8,2.277,2.277,0,0,0,.15-.833,1.32,1.32,0,0,0-.381-1A1.461,1.461,0,0,0-3.276-7.2a2.661,2.661,0,0,0-.927.161,3.693,3.693,0,0,0-.975.585l-.473-.607a3.62,3.62,0,0,1,2.363-.9A2.5,2.5,0,0,1-1.552-7.4,1.949,1.949,0,0,1-.924-5.876,2.941,2.941,0,0,1-1.343-4.4,9.378,9.378,0,0,1-2.911-2.551L-4.63-.87v.043H-.591ZM5.7,0H.537V-.768L2.6-2.847A15.227,15.227,0,0,0,3.851-4.211a3.482,3.482,0,0,0,.449-.8,2.277,2.277,0,0,0,.15-.833,1.32,1.32,0,0,0-.381-1A1.461,1.461,0,0,0,3.013-7.2a2.661,2.661,0,0,0-.927.161,3.693,3.693,0,0,0-.975.585L.639-7.063A3.62,3.62,0,0,1,3-7.965,2.5,2.5,0,0,1,4.737-7.4a1.949,1.949,0,0,1,.628,1.523A2.941,2.941,0,0,1,4.947-4.4,9.378,9.378,0,0,1,3.378-2.551L1.66-.87v.043H5.7Z" transform="translate(-12638 -10342.5)"/>
    <path id="Rectangle_138-2" data-name="Rectangle 138" class="cls-6" d="M0,0H15V1H0Z" transform="translate(-12617 -10357) rotate(180)"/>
    <path id="Rectangle_138-3" data-name="Rectangle 138" class="cls-6" d="M0,0H15V1H0Z" transform="translate(-12617 -10334) rotate(180)"/>
    <path id="Rectangle_68-4" data-name="Rectangle 68" class="cls-6" d="M0,0H22V1H0Z" transform="translate(-12625 -10335) rotate(-90)"/>
  </g>
</svg>
