<svg xmlns="http://www.w3.org/2000/svg" xmlns:xlink="http://www.w3.org/1999/xlink" width="300" height="42" viewBox="0 0 300 42">
  <defs>
    <clipPath id="clip-text-input--label-prefix">
      <rect width="300" height="42"/>
    </clipPath>
  </defs>
  <g id="text-input--label-prefix" clip-path="url(#clip-text-input--label-prefix)">
    <rect width="300" height="42" fill="#fff"/>
    <g id="Group_13005" data-name="Group 13005" transform="translate(-2)">
      <g id="Group_13003" data-name="Group 13003" transform="translate(-53 -726)">
        <g id="Input-_no_label" data-name="Input- no label" transform="translate(55 726)">
          <g id="Rectangle_288" data-name="Rectangle 288" transform="translate(0)" fill="#fff" stroke="#cbcbd2" stroke-width="1">
            <rect width="300" height="42" rx="4" stroke="none"/>
            <rect x="0.5" y="0.5" width="299" height="41" rx="3.5" fill="none"/>
          </g>
        </g>
      </g>
      <path id="Path_8384" data-name="Path 8384" d="M302.715,257.318l-4.678-4.678a5.945,5.945,0,0,0,1.029-4.584,6.054,6.054,0,0,0-5.239-4.959,6.109,6.109,0,0,0-1.871,12.069,6.469,6.469,0,0,0,4.584-1.029l4.678,4.678a1.017,1.017,0,0,0,1.4,0A1.143,1.143,0,0,0,302.715,257.318Zm-13.753-8.888a4.171,4.171,0,0,1,3.462-3.462,4.275,4.275,0,0,1,4.865,4.865,4.171,4.171,0,0,1-3.462,3.462A4.313,4.313,0,0,1,288.962,248.43Z" transform="translate(-276.953 -230.052)" fill="#78788c"/>
    </g>
  </g>
</svg>
