<svg xmlns="http://www.w3.org/2000/svg" xmlns:xlink="http://www.w3.org/1999/xlink" width="300" height="235" viewBox="0 0 300 235">
  <defs>
    <clipPath id="clip-text-input--sizing">
      <rect width="300" height="235"/>
    </clipPath>
  </defs>
  <g id="text-input--sizing" clip-path="url(#clip-text-input--sizing)">
    <g id="Group_14580" data-name="Group 14580" transform="translate(1352 -1533)">
      <g id="Input_-_top_label" data-name="Input - top label" transform="translate(-1352 1533)">
        <g id="Rectangle_288" data-name="Rectangle 288" transform="translate(0 23)" fill="#fff" stroke="#cbcbd2" stroke-width="1">
          <rect width="300" height="42" rx="4" stroke="none"/>
          <rect x="0.5" y="0.5" width="299" height="41" rx="3.5" fill="none"/>
        </g>
        <text id="City" transform="translate(0 15)" fill="#31313a" font-size="14" font-family="SegoeUI-Semibold, Segoe UI" font-weight="600"><tspan x="0" y="0">City</tspan></text>
      </g>
      <g id="Input_-_top_label-2" data-name="Input - top label" transform="translate(-1352 1703)">
        <g id="Rectangle_288-2" data-name="Rectangle 288" transform="translate(0 23)" fill="#fff" stroke="#cbcbd2" stroke-width="1">
          <rect width="153" height="42" rx="4" stroke="none"/>
          <rect x="0.5" y="0.5" width="152" height="41" rx="3.5" fill="none"/>
        </g>
        <text id="ZIP" transform="translate(0 15)" fill="#31313a" font-size="14" font-family="SegoeUI-Semibold, Segoe UI" font-weight="600"><tspan x="0" y="0">ZIP</tspan></text>
      </g>
      <g id="Dropdown_input_-_top_label" data-name="Dropdown input - top label" transform="translate(-1352 1618)">
        <g id="Group_14579" data-name="Group 14579">
          <g id="Rectangle_288-3" data-name="Rectangle 288" transform="translate(0 23)" fill="#fff" stroke="#cbcbd2" stroke-width="1">
            <rect width="192" height="42" rx="4" stroke="none"/>
            <rect x="0.5" y="0.5" width="191" height="41" rx="3.5" fill="none"/>
          </g>
          <g id="Group_7793" data-name="Group 7793" transform="translate(158.2 32)">
            <rect id="Rectangle_3867" data-name="Rectangle 3867" width="24" height="24" transform="translate(-0.2)" fill="none"/>
            <path id="Path_5558" data-name="Path 5558" d="M56,9.4l-3,3-3-3a.967.967,0,0,0-1.4,0h0a.967.967,0,0,0,0,1.4l3.7,3.7a.967.967,0,0,0,1.4,0l3.7-3.7a.967.967,0,0,0,0-1.4h0A.965.965,0,0,0,56,9.4Z" transform="translate(-41)" fill="#9494a4"/>
          </g>
        </g>
        <text id="State" transform="translate(0 15)" fill="#31313a" font-size="14" font-family="SegoeUI-Semibold, Segoe UI" font-weight="600"><tspan x="0" y="0">State</tspan></text>
      </g>
    </g>
  </g>
</svg>
