<svg xmlns="http://www.w3.org/2000/svg" xmlns:xlink="http://www.w3.org/1999/xlink" width="1024" height="600" viewBox="0 0 1024 600"><defs><clipPath id="b"><rect width="1024" height="600"/></clipPath></defs><g id="a" clip-path="url(#b)"><rect width="1024" height="600" fill="#f4f4f6"/><rect width="774" height="1" transform="translate(250 558)" fill="#cbcbd2"/><rect width="1024" height="60" fill="#fff"/><rect width="1024" height="10" transform="translate(0 60)" fill="#1f5ea8"/><rect width="1" height="530" transform="translate(249 70)" fill="#cbcbd2"/><rect width="250" height="530" transform="translate(0 70)" fill="#fff"/><g transform="translate(20 22)"><path d="M440.2,0l-6.032,13.343L428.113,0H425.7l8.463,18.7L442.626,0Z" transform="translate(-347.887)" fill="#8b8d8e"/><path d="M343.091,18.7h2.431L337.077,0h-.932L327.7,18.7h2.431l1.846-4.131h9.267Zm-10.126-6.324L336.6,4.35l3.637,8.024Z" transform="translate(-267.8)" fill="#8b8d8e"/><path d="M543.612,10.09h6.727V7.9h-6.727v-5.7h7.312L552.093,0H541.4V18.7h9.541l1.17-2.248h-8.5Z" transform="translate(-442.439)" fill="#8b8d8e"/><path d="M185.1,0l-6,13.343L173.75,1.627l-5.319,11.717L162.636,0h-3.6L155.8,7.147l1.206,2.669,3.711-8.189L168.431,18.7,173.75,6.964,179.105,18.7,187.514,0Z" transform="translate(-127.322)" fill="#8b8d8e"/><path d="M4.058,16.469,14.769,0H1.791L.786,2.193h9.925L0,18.663H14.751l.987-2.193Z" fill="#8b8d8e"/><path d="M103.307,0H98.5l5.411,12.009L98.5,24h4.807l5.447-11.991Z" transform="translate(-80.495)" fill="#5FB53B"/></g><g fill="none" stroke="#e6e6ea" stroke-width="1"><rect width="1024" height="600" stroke="none"/><rect x="0.5" y="0.5" width="1023" height="599" fill="none"/></g></g></svg>