<svg xmlns="http://www.w3.org/2000/svg" xmlns:xlink="http://www.w3.org/1999/xlink" width="1024" height="600" viewBox="0 0 1024 600">
  <defs>
    <clipPath id="clip-shell--individual-mm">
      <rect width="1024" height="600"/>
    </clipPath>
  </defs>
  <g id="shell--individual-mm" clip-path="url(#clip-shell--individual-mm)">
    <rect width="1024" height="600" fill="#f4f4f6"/>
    <rect id="Rectangle_4050" data-name="Rectangle 4050" width="774" height="1" transform="translate(250 558)" fill="#e6e6ea"/>
    <rect id="Rectangle_4099" data-name="Rectangle 4099" width="1024" height="60" fill="#fff"/>
    <rect id="Rectangle_4049" data-name="Rectangle 4049" width="1" height="530" transform="translate(249 70)" fill="#cbcbd2"/>
    <rect id="Rectangle_4048" data-name="Rectangle 4048" width="250" height="504" transform="translate(0 96)" fill="#fff"/>
    <g id="Group_7750" data-name="Group 7750" transform="translate(329 -109)">
      <path id="Path_5690" data-name="Path 5690" d="M0,0H1024V36H0Z" transform="translate(-329 169)" fill="#2777d3"/>
      <g id="Group_7321" data-name="Group 7321" transform="translate(-309 178)">
        <text id="ModMaster" transform="translate(0 15)" fill="#fff" font-size="14" font-family="OpenSans-Bold, Open Sans" font-weight="700"><tspan x="0" y="0">ModMaster</tspan></text>
      </g>
    </g>
    <g id="Rectangle_4051" data-name="Rectangle 4051" fill="none" stroke="#e6e6ea" stroke-width="1">
      <rect width="1024" height="600" stroke="none"/>
      <rect x="0.5" y="0.5" width="1023" height="599" fill="none"/>
    </g>
    <rect id="Rectangle_4101" data-name="Rectangle 4101" width="1" height="504" transform="translate(250 96)" fill="#e6e6ea"/>
    <g id="Group_12989" data-name="Group 12989">
      <rect id="Rectangle_6530" data-name="Rectangle 6530" width="198" height="60" fill="none"/>
      <g id="Group_72" data-name="Group 72" transform="translate(57 20)">
        <g id="Group_6" data-name="Group 6">
          <path id="Path_467" data-name="Path 467" d="M440.678,0l-6.233,13.788L428.193,0H425.7l8.745,19.322L443.19,0Z" transform="translate(-345.294)" fill="#8b8d8e"/>
          <path id="Path_468" data-name="Path 468" d="M343.6,19.322h2.512L337.39,0h-.963L327.7,19.322h2.512l1.908-4.269H341.7ZM333.14,12.787,336.9,4.5l3.759,8.292Z" transform="translate(-265.804)" fill="#8b8d8e"/>
          <path id="Path_469" data-name="Path 469" d="M543.685,10.426h6.951V8.16h-6.951V2.267h7.555L552.45,0H541.4V19.322h9.859L552.468,17h-8.783Z" transform="translate(-439.14)" fill="#8b8d8e"/>
          <path id="Path_470" data-name="Path 470" d="M186.078,0l-6.2,13.788L174.348,1.681l-5.5,12.107L162.864,0h-3.721L155.8,7.385l1.247,2.758,3.834-8.462,7.971,17.641,5.5-12.126,5.534,12.126L188.571,0Z" transform="translate(-126.372)" fill="#8b8d8e"/>
          <path id="Path_471" data-name="Path 471" d="M4.193,17.018,15.262,0H1.851L.812,2.267H11.068L0,19.285H15.243l1.02-2.267Z" fill="#8b8d8e"/>
        </g>
        <path id="Path_472" data-name="Path 472" d="M103.468,0H98.5l5.591,12.409L98.5,24.8h4.968L109.1,12.409Z" transform="translate(-79.895)" fill="#5fb53b"/>
      </g>
      <g id="Group_12812" data-name="Group 12812" transform="translate(10 12)">
        <g id="Icon_Link_-_Hover" data-name="Icon Link - Hover">
          <rect id="Rectangle_5756" data-name="Rectangle 5756" width="36" height="36" rx="18" fill="none"/>
        </g>
        <path id="Path_8220" data-name="Path 8220" d="M172,94.5v3a.472.472,0,0,1-.5.5h-3a.472.472,0,0,1-.5-.5v-3a.472.472,0,0,1,.5-.5h3A.472.472,0,0,1,172,94.5Zm5.5-.5h-3a.472.472,0,0,0-.5.5v3a.472.472,0,0,0,.5.5h3a.472.472,0,0,0,.5-.5v-3A.472.472,0,0,0,177.5,94Zm-6,12h-3a.472.472,0,0,0-.5.5v3a.472.472,0,0,0,.5.5h3a.472.472,0,0,0,.5-.5v-3A.472.472,0,0,0,171.5,106Zm12-12h-3a.472.472,0,0,0-.5.5v3a.472.472,0,0,0,.5.5h3a.472.472,0,0,0,.5-.5v-3A.472.472,0,0,0,183.5,94Zm-12,6h-3a.472.472,0,0,0-.5.5v3a.472.472,0,0,0,.5.5h3a.472.472,0,0,0,.5-.5v-3A.472.472,0,0,0,171.5,100Zm6,0h-3a.472.472,0,0,0-.5.5v3a.472.472,0,0,0,.5.5h3a.472.472,0,0,0,.5-.5v-3A.472.472,0,0,0,177.5,100Zm0,6h-3a.472.472,0,0,0-.5.5v3a.472.472,0,0,0,.5.5h3a.472.472,0,0,0,.5-.5v-3A.472.472,0,0,0,177.5,106Zm6-6h-3a.472.472,0,0,0-.5.5v3a.472.472,0,0,0,.5.5h3a.472.472,0,0,0,.5-.5v-3A.472.472,0,0,0,183.5,100Zm0,6h-3a.472.472,0,0,0-.5.5v3a.472.472,0,0,0,.5.5h3a.472.472,0,0,0,.5-.5v-3A.472.472,0,0,0,183.5,106Z" transform="translate(-158 -84)" fill="#78788c"/>
      </g>
    </g>
  </g>
</svg>
