<svg xmlns="http://www.w3.org/2000/svg" xmlns:xlink="http://www.w3.org/1999/xlink" width="1024" height="600" viewBox="0 0 1024 600">
  <defs>
    <clipPath id="clip-shell-basics">
      <rect width="1024" height="600"/>
    </clipPath>
  </defs>
  <g id="shell-basics" clip-path="url(#clip-shell-basics)">
    <rect width="1024" height="600" fill="#f4f4f6"/>
    <rect id="Rectangle_4101" data-name="Rectangle 4101" width="250" height="538" transform="translate(0 62)" fill="#fff"/>
    <rect id="Rectangle_4102" data-name="Rectangle 4102" width="1" height="538" transform="translate(249 62)" fill="#cbcbd2"/>
    <circle id="Ellipse_2" data-name="Ellipse 2" cx="15" cy="15" r="15" transform="translate(39 114)" fill="#d454a3"/>
    <text id="_2" data-name="2" transform="translate(49 134)" fill="#fff" font-size="16" font-family="SegoeUI-Bold, Segoe UI" font-weight="700"><tspan x="0" y="0">2</tspan></text>
    <g id="Group_7847" data-name="Group 7847" transform="translate(20 5)">
      <circle id="Ellipse_3" data-name="Ellipse 3" cx="15" cy="15" r="15" transform="translate(349 559)" fill="#d454a3"/>
      <text id="_3" data-name="3" transform="translate(360 580)" fill="#fff" font-size="16" font-family="SegoeUI-Bold, Segoe UI" font-weight="700"><tspan x="0" y="0">3</tspan></text>
    </g>
    <g id="Group_7848" data-name="Group 7848" transform="translate(237 -268)">
      <circle id="Ellipse_3-2" data-name="Ellipse 3" cx="15" cy="15" r="15" transform="translate(349 559)" fill="#d454a3"/>
      <text id="_4" data-name="4" transform="translate(359 579)" fill="#fff" font-size="16" font-family="SegoeUI-Bold, Segoe UI" font-weight="700"><tspan x="0" y="0">4</tspan></text>
    </g>
    <rect id="Rectangle_4103" data-name="Rectangle 4103" width="774" height="1" transform="translate(250 558)" fill="#cbcbd2"/>
    <g id="Rectangle_4104" data-name="Rectangle 4104" fill="none" stroke="#e6e6ea" stroke-width="1">
      <rect width="1024" height="600" stroke="none"/>
      <rect x="0.5" y="0.5" width="1023" height="599" fill="none"/>
    </g>
    <g id="Group_13269" data-name="Group 13269" transform="translate(0 60)">
      <path id="Path_5690" data-name="Path 5690" d="M0,0H1023.8V5H0Z" fill="#2777d3"/>
    </g>
    <g id="Group_13268" data-name="Group 13268">
      <rect id="Rectangle_1" data-name="Rectangle 1" width="1024" height="60" fill="#fff"/>
      <g id="Group_12989" data-name="Group 12989">
        <rect id="Rectangle_6530" data-name="Rectangle 6530" width="198" height="60" fill="none"/>
        <g id="Group_72" data-name="Group 72" transform="translate(57 20)">
          <g id="Group_6" data-name="Group 6">
            <path id="Path_467" data-name="Path 467" d="M440.678,0l-6.233,13.788L428.193,0H425.7l8.745,19.322L443.19,0Z" transform="translate(-345.294)" fill="#8b8d8e"/>
            <path id="Path_468" data-name="Path 468" d="M343.6,19.322h2.512L337.39,0h-.963L327.7,19.322h2.512l1.908-4.269H341.7ZM333.14,12.787,336.9,4.5l3.759,8.292Z" transform="translate(-265.804)" fill="#8b8d8e"/>
            <path id="Path_469" data-name="Path 469" d="M543.685,10.426h6.951V8.16h-6.951V2.267h7.555L552.45,0H541.4V19.322h9.859L552.468,17h-8.783Z" transform="translate(-439.14)" fill="#8b8d8e"/>
            <path id="Path_470" data-name="Path 470" d="M186.078,0l-6.2,13.788L174.348,1.681l-5.5,12.107L162.864,0h-3.721L155.8,7.385l1.247,2.758,3.834-8.462,7.971,17.641,5.5-12.126,5.534,12.126L188.571,0Z" transform="translate(-126.372)" fill="#8b8d8e"/>
            <path id="Path_471" data-name="Path 471" d="M4.193,17.018,15.262,0H1.851L.812,2.267H11.068L0,19.285H15.243l1.02-2.267Z" fill="#8b8d8e"/>
          </g>
          <path id="Path_472" data-name="Path 472" d="M103.468,0H98.5l5.591,12.409L98.5,24.8h4.968L109.1,12.409Z" transform="translate(-79.895)" fill="#5fb53b"/>
        </g>
        <g id="Group_12812" data-name="Group 12812" transform="translate(10 12)">
          <g id="Icon_Link_-_Hover" data-name="Icon Link - Hover">
            <rect id="Rectangle_5756" data-name="Rectangle 5756" width="36" height="36" rx="18" fill="none"/>
          </g>
          <path id="Path_8220" data-name="Path 8220" d="M172,94.5v3a.472.472,0,0,1-.5.5h-3a.472.472,0,0,1-.5-.5v-3a.472.472,0,0,1,.5-.5h3A.472.472,0,0,1,172,94.5Zm5.5-.5h-3a.472.472,0,0,0-.5.5v3a.472.472,0,0,0,.5.5h3a.472.472,0,0,0,.5-.5v-3A.472.472,0,0,0,177.5,94Zm-6,12h-3a.472.472,0,0,0-.5.5v3a.472.472,0,0,0,.5.5h3a.472.472,0,0,0,.5-.5v-3A.472.472,0,0,0,171.5,106Zm12-12h-3a.472.472,0,0,0-.5.5v3a.472.472,0,0,0,.5.5h3a.472.472,0,0,0,.5-.5v-3A.472.472,0,0,0,183.5,94Zm-12,6h-3a.472.472,0,0,0-.5.5v3a.472.472,0,0,0,.5.5h3a.472.472,0,0,0,.5-.5v-3A.472.472,0,0,0,171.5,100Zm6,0h-3a.472.472,0,0,0-.5.5v3a.472.472,0,0,0,.5.5h3a.472.472,0,0,0,.5-.5v-3A.472.472,0,0,0,177.5,100Zm0,6h-3a.472.472,0,0,0-.5.5v3a.472.472,0,0,0,.5.5h3a.472.472,0,0,0,.5-.5v-3A.472.472,0,0,0,177.5,106Zm6-6h-3a.472.472,0,0,0-.5.5v3a.472.472,0,0,0,.5.5h3a.472.472,0,0,0,.5-.5v-3A.472.472,0,0,0,183.5,100Zm0,6h-3a.472.472,0,0,0-.5.5v3a.472.472,0,0,0,.5.5h3a.472.472,0,0,0,.5-.5v-3A.472.472,0,0,0,183.5,106Z" transform="translate(-158 -84)" fill="#78788c"/>
        </g>
      </g>
    </g>
    <g id="Group_14580" data-name="Group 14580" transform="translate(0 4)">
      <circle id="Ellipse_1" data-name="Ellipse 1" cx="15" cy="15" r="15" transform="translate(474 13)" fill="#d454a3"/>
      <text id="_1" data-name="1" transform="translate(484 33)" fill="#fff" font-size="16" font-family="SegoeUI-Bold, Segoe UI" font-weight="700"><tspan x="0" y="0">1</tspan></text>
    </g>
  </g>
</svg>
