<svg xmlns="http://www.w3.org/2000/svg" xmlns:xlink="http://www.w3.org/1999/xlink" width="375" height="667" viewBox="0 0 375 667">
  <defs>
    <clipPath id="clip-iPhone_6_7_8_1">
      <rect width="375" height="667"/>
    </clipPath>
  </defs>
  <g id="iPhone_6_7_8_1" data-name="iPhone 6/7/8 – 1" clip-path="url(#clip-iPhone_6_7_8_1)">
    <rect width="375" height="667" fill="#f4f4f6"/>
    <rect id="Rectangle_2" data-name="Rectangle 2" width="375" height="1" transform="translate(0 622)" fill="#e6e6ea"/>
    <g id="Group_8093" data-name="Group 8093">
      <rect id="Rectangle_1" data-name="Rectangle 1" width="375" height="56" fill="#fff"/>
      <g id="Group_72" data-name="Group 72" transform="translate(130.596 18)">
        <g id="Group_6" data-name="Group 6">
          <path id="Path_467" data-name="Path 467" d="M440.678,0l-6.233,13.788L428.193,0H425.7l8.745,19.322L443.19,0Z" transform="translate(-345.294)" fill="#8b8d8e"/>
          <path id="Path_468" data-name="Path 468" d="M343.6,19.322h2.512L337.39,0h-.963L327.7,19.322h2.512l1.908-4.269H341.7ZM333.14,12.787,336.9,4.5l3.759,8.292Z" transform="translate(-265.804)" fill="#8b8d8e"/>
          <path id="Path_469" data-name="Path 469" d="M543.685,10.426h6.951V8.16h-6.951V2.267h7.555L552.45,0H541.4V19.322h9.859L552.468,17h-8.783Z" transform="translate(-439.14)" fill="#8b8d8e"/>
          <path id="Path_470" data-name="Path 470" d="M186.078,0l-6.2,13.788L174.348,1.681l-5.5,12.107L162.864,0h-3.721L155.8,7.385l1.247,2.758,3.834-8.462,7.971,17.641,5.5-12.126,5.534,12.126L188.571,0Z" transform="translate(-126.372)" fill="#8b8d8e"/>
          <path id="Path_471" data-name="Path 471" d="M4.193,17.018,15.262,0H1.851L.812,2.267H11.068L0,19.285H15.243l1.02-2.267Z" fill="#8b8d8e"/>
        </g>
        <path id="Path_472" data-name="Path 472" d="M103.468,0H98.5l5.591,12.409L98.5,24.8h4.968L109.1,12.409Z" transform="translate(-79.895)" fill="#5fb53b"/>
      </g>
      <path id="Path_5695" data-name="Path 5695" d="M0,0H375V4H0Z" transform="translate(0 56)" fill="#2777d3"/>
      <circle id="Ellipse_402" data-name="Ellipse 402" cx="18" cy="18" r="18" transform="translate(327 10)" fill="#78788c"/>
      <text id="AG" transform="translate(336 34)" fill="#fff" font-size="14" font-family="SegoeUI-Semibold, Segoe UI" font-weight="600"><tspan x="0" y="0">AG</tspan></text>
      <g id="Group_2" data-name="Group 2" transform="translate(5 10)">
        <rect id="Rectangle_5240" data-name="Rectangle 5240" width="36" height="36" rx="18" fill="none"/>
      </g>
      <path id="Path_2" data-name="Path 2" d="M18.111,7.778H3.889A.889.889,0,0,1,3,6.889H3A.889.889,0,0,1,3.889,6H18.111A.889.889,0,0,1,19,6.889h0A.889.889,0,0,1,18.111,7.778ZM19,11.333h0a.889.889,0,0,0-.889-.889H3.889A.889.889,0,0,0,3,11.333H3a.889.889,0,0,0,.889.889H18.111A.889.889,0,0,0,19,11.333Zm0,4.444h0a.889.889,0,0,0-.889-.889H3.889A.889.889,0,0,0,3,15.778H3a.889.889,0,0,0,.889.889H18.111A.889.889,0,0,0,19,15.778Z" transform="translate(12 17)" fill="#2777d3"/>
    </g>
  </g>
</svg>
