<svg xmlns="http://www.w3.org/2000/svg" xmlns:xlink="http://www.w3.org/1999/xlink" width="900" height="546" viewBox="0 0 900 546">
  <defs>
    <clipPath id="clip-path">
      <rect width="300" height="42" fill="none"/>
    </clipPath>
    <filter id="Rectangle_6365" x="296" y="376.5" width="385" height="66" filterUnits="userSpaceOnUse">
      <feOffset dy="1" input="SourceAlpha"/>
      <feGaussianBlur stdDeviation="1.5" result="blur"/>
      <feFlood flood-color="#aa2d0e" flood-opacity="0.161"/>
      <feComposite operator="in" in2="blur"/>
      <feComposite in="SourceGraphic"/>
    </filter>
    <clipPath id="clip-forms--spacing--withvalidation">
      <rect width="900" height="546"/>
    </clipPath>
  </defs>
  <g id="forms--spacing--withvalidation" clip-path="url(#clip-forms--spacing--withvalidation)">
    <g id="Input-_no_label" data-name="Input- no label" transform="translate(300 122)" clip-path="url(#clip-path)">
      <g id="Rectangle_288" data-name="Rectangle 288" fill="#fff" stroke="#cbcbd2" stroke-width="1">
        <rect width="300" height="42" rx="4" stroke="none"/>
        <rect x="0.5" y="0.5" width="299" height="41" rx="3.5" fill="none"/>
      </g>
    </g>
    <g id="Input-_no_label-2" data-name="Input- no label" transform="translate(300 308)">
      <g id="Rectangle_288-2" data-name="Rectangle 288" fill="#fff" stroke="#cbcbd2" stroke-width="1">
        <rect width="189" height="42" rx="4" stroke="none"/>
        <rect x="0.5" y="0.5" width="188" height="41" rx="3.5" fill="none"/>
      </g>
    </g>
    <text id="City" transform="translate(300 112)" fill="#31313a" font-size="14" font-family="SegoeUI-Semibold, Segoe UI" font-weight="600"><tspan x="0" y="0">City</tspan></text>
    <text id="Zip" transform="translate(300 298)" fill="#31313a" font-size="14" font-family="SegoeUI-Semibold, Segoe UI" font-weight="600"><tspan x="0" y="0">Zip</tspan></text>
    <g id="Primary_Button_-_Normal" data-name="Primary Button - Normal" transform="translate(300 468)">
      <rect id="Rectangle_3990" data-name="Rectangle 3990" width="73.934" height="36" rx="18" fill="#2777d3"/>
      <text id="Save" transform="translate(37 23)" fill="#fff" font-size="14" font-family="SegoeUI-Semibold, Segoe UI" font-weight="600"><tspan x="-14.68" y="0">Save</tspan></text>
    </g>
    <g id="Secondary_Button_-_Normal" data-name="Secondary Button - Normal" transform="translate(384 468)">
      <g id="Rectangle_3991" data-name="Rectangle 3991" fill="none" stroke="#cbcbd2" stroke-width="1">
        <rect width="73.934" height="36" rx="18" stroke="none"/>
        <rect x="0.5" y="0.5" width="72.934" height="35" rx="17.5" fill="none"/>
      </g>
      <text id="Cancel" transform="translate(37 23)" fill="#2777d3" font-size="14" font-family="SegoeUI-Semibold, Segoe UI" font-weight="600"><tspan x="-20.925" y="0">Cancel</tspan></text>
    </g>
    <g id="Group_13017" data-name="Group 13017" transform="translate(-8 386)">
      <rect id="Rectangle_6842" data-name="Rectangle 6842" width="3" height="1" transform="translate(305 52)" fill="#c6318c"/>
      <rect id="Rectangle_6843" data-name="Rectangle 6843" width="3" height="1" transform="translate(305 81)" fill="#c6318c"/>
      <rect id="Rectangle_6844" data-name="Rectangle 6844" width="1" height="30" transform="translate(306 52)" fill="#c6318c"/>
    </g>
    <g id="Group_13020" data-name="Group 13020" transform="translate(-8 298)">
      <rect id="Rectangle_6842-2" data-name="Rectangle 6842" width="3" height="1" transform="translate(305 52)" fill="#c6318c"/>
      <rect id="Rectangle_6843-2" data-name="Rectangle 6843" width="3" height="1" transform="translate(305 81)" fill="#c6318c"/>
      <rect id="Rectangle_6844-2" data-name="Rectangle 6844" width="1" height="30" transform="translate(306 52)" fill="#c6318c"/>
    </g>
    <rect id="Rectangle_6847" data-name="Rectangle 6847" width="25" height="1" transform="translate(274 452)" fill="#c6318c"/>
    <rect id="Rectangle_6853" data-name="Rectangle 6853" width="25" height="1" transform="translate(274 364)" fill="#c6318c"/>
    <circle id="Ellipse_2018" data-name="Ellipse 2018" cx="12" cy="12" r="12" transform="translate(250 440)" fill="#c6318c"/>
    <circle id="Ellipse_2021" data-name="Ellipse 2021" cx="12" cy="12" r="12" transform="translate(250 352)" fill="#c6318c"/>
    <text id="_3" data-name="3" transform="translate(258 457)" fill="#fff" stroke="rgba(0,0,0,0)" stroke-width="1" font-size="14" font-family="SegoeUI-Bold, Segoe UI" font-weight="700"><tspan x="0" y="0">3</tspan></text>
    <text id="_2" data-name="2" transform="translate(258 369)" fill="#fff" stroke="rgba(0,0,0,0)" stroke-width="1" font-size="14" font-family="SegoeUI-Bold, Segoe UI" font-weight="700"><tspan x="0" y="0">2</tspan></text>
    <text id="Add_Location" data-name="Add Location" transform="translate(300 60)" fill="#31313a" font-size="26" font-family="SegoeUI-Semibold, Segoe UI" font-weight="600"><tspan x="0" y="0">Add Location</tspan></text>
    <g id="Group_3" data-name="Group 3" transform="translate(134 324.5)">
      <g id="Error_well" data-name="Error well" transform="translate(166.5 55.5)">
        <g transform="matrix(1, 0, 0, 1, -300.5, -380)" filter="url(#Rectangle_6365)">
          <rect id="Rectangle_6365-2" data-name="Rectangle 6365" width="376" height="57" rx="4" transform="translate(300.5 380)" fill="#fff"/>
        </g>
        <path id="Rectangle_6366" data-name="Rectangle 6366" d="M4,0H372a4,4,0,0,1,4,4v6a0,0,0,0,1,0,0H0a0,0,0,0,1,0,0V4A4,4,0,0,1,4,0Z" fill="#ee562f"/>
        <text id="Hold_on_You_ll_need_to_add_a_State_to_continue." data-name="Hold on! You&apos;ll need to add a State to continue." transform="translate(54 23)" fill="#31313a" font-size="14" font-family="SegoeUI, Segoe UI"><tspan x="0" y="15">Hold on! You&apos;ll need to add a State to continue.</tspan></text>
        <path id="Path_8228" data-name="Path 8228" d="M10.717,3.4h2.717a.455.455,0,0,1,.455.455h0L12.98,14.679a.444.444,0,0,1-.444.444h-.909a.445.445,0,0,1-.455-.433v-.011l-.9-10.825a.445.445,0,0,1,.433-.455ZM13.965,18.89a1.84,1.84,0,0,1-1.851,1.829h-.26a1.873,1.873,0,0,1-1.5-1.321,1.84,1.84,0,0,1,1.765-2.349h0a1.851,1.851,0,0,1,1.83,1.83ZM16.974,0H7.026L0,7.026v9.949L7.026,24h9.949L24,16.974V7.026Z" transform="translate(10 20)" fill="#d83d26"/>
      </g>
    </g>
    <g id="Group_13021" data-name="Group 13021" transform="translate(-288 -3)">
      <text id="This_field_is_required." data-name="This field is required." transform="translate(588 266)" fill="#d93911" font-size="12" font-family="SegoeUI, Segoe UI"><tspan x="0" y="0">This field is required.</tspan></text>
      <text id="State" transform="translate(588 197)" fill="#31313a" font-size="14" font-family="SegoeUI-Semibold, Segoe UI" font-weight="600"><tspan x="0" y="0">State</tspan></text>
      <g id="Dropdown_Input_-_Unselected" data-name="Dropdown Input - Unselected" transform="translate(588 207)">
        <g id="Rectangle_288-3" data-name="Rectangle 288" fill="#fff" stroke="#d93911" stroke-width="2">
          <rect width="213" height="42" rx="4" stroke="none"/>
          <rect x="1" y="1" width="211" height="40" rx="3" fill="none"/>
        </g>
        <g id="Group_7793" data-name="Group 7793" transform="translate(-637 -1698)">
          <rect id="Rectangle_3867" data-name="Rectangle 3867" width="24" height="24" transform="translate(816 1707)" fill="none"/>
          <path id="Path_5558" data-name="Path 5558" d="M56,9.4l-3,3-3-3a.967.967,0,0,0-1.4,0h0a.967.967,0,0,0,0,1.4l3.7,3.7a.967.967,0,0,0,1.4,0l3.7-3.7a.967.967,0,0,0,0-1.4h0A.965.965,0,0,0,56,9.4Z" transform="translate(775 1707)" fill="#9494a4"/>
        </g>
      </g>
    </g>
    <g id="Group_13015" data-name="Group 13015" transform="translate(-8 216)">
      <rect id="Rectangle_6842-3" data-name="Rectangle 6842" width="3" height="1" transform="translate(305 52)" fill="#c6318c"/>
      <rect id="Rectangle_6843-3" data-name="Rectangle 6843" width="3" height="1" transform="translate(305 71)" fill="#c6318c"/>
      <rect id="Rectangle_6844-3" data-name="Rectangle 6844" width="1" height="20" transform="translate(306 52)" fill="#c6318c"/>
    </g>
    <rect id="Rectangle_6846" data-name="Rectangle 6846" width="25" height="1" transform="translate(274 278)" fill="#c6318c"/>
    <circle id="Ellipse_2017" data-name="Ellipse 2017" cx="12" cy="12" r="12" transform="translate(250 266)" fill="#c6318c"/>
    <text id="_1" data-name="1" transform="translate(258 283)" fill="#fff" stroke="rgba(0,0,0,0)" stroke-width="1" font-size="14" font-family="SegoeUI-Bold, Segoe UI" font-weight="700"><tspan x="0" y="0">1</tspan></text>
  </g>
</svg>
