<svg xmlns="http://www.w3.org/2000/svg" xmlns:xlink="http://www.w3.org/1999/xlink" width="300" height="66" viewBox="0 0 300 66">
  <defs>
    <clipPath id="clip-path">
      <rect width="300" height="42" fill="none"/>
    </clipPath>
    <clipPath id="clip-forms--indicator-required">
      <rect width="300" height="66"/>
    </clipPath>
  </defs>
  <g id="forms--indicator-required" clip-path="url(#clip-forms--indicator-required)">
    <text id="Account_Type" data-name="Account Type" transform="translate(1 15)" fill="#31313a" font-size="14" font-family="SegoeUI-Semibold, Segoe UI" font-weight="600"><tspan x="0" y="0">Account Type</tspan></text>
    <text id="_" data-name="*" transform="translate(91 15)" fill="#d93911" font-size="14" font-family="SegoeUI-Bold, Segoe UI" font-weight="700"><tspan x="0" y="0">*</tspan></text>
    <g id="Dropdown_Input_-_Unselected" data-name="Dropdown Input - Unselected" transform="translate(0 24)" clip-path="url(#clip-path)">
      <g id="Rectangle_288" data-name="Rectangle 288" fill="#fff" stroke="#cbcbd2" stroke-width="1">
        <rect width="300" height="42" rx="4" stroke="none"/>
        <rect x="0.5" y="0.5" width="299" height="41" rx="3.5" fill="none"/>
      </g>
      <text id="Hint_text" data-name="Hint text" transform="translate(15 27)" fill="#afafbb" font-size="14" font-family="SegoeUI, Segoe UI"><tspan x="0" y="0">Hint text</tspan></text>
      <g id="Group_7793" data-name="Group 7793" transform="translate(-550 -1698)">
        <rect id="Rectangle_3867" data-name="Rectangle 3867" width="24" height="24" transform="translate(816 1707)" fill="none"/>
        <path id="Path_5558" data-name="Path 5558" d="M56,9.4l-3,3-3-3a.967.967,0,0,0-1.4,0h0a.967.967,0,0,0,0,1.4l3.7,3.7a.967.967,0,0,0,1.4,0l3.7-3.7a.967.967,0,0,0,0-1.4h0A.965.965,0,0,0,56,9.4Z" transform="translate(775 1707)" fill="#9494a4"/>
      </g>
    </g>
  </g>
</svg>
