<svg xmlns="http://www.w3.org/2000/svg" xmlns:xlink="http://www.w3.org/1999/xlink" width="409.656" height="376.148" viewBox="0 0 409.656 376.148">
  <defs>
    <clipPath id="clip-path">
      <rect id="Rectangle_6968" data-name="Rectangle 6968" width="57.296" height="83.976" fill="none"/>
    </clipPath>
  </defs>
  <g id="Group_14170" data-name="Group 14170" transform="translate(-882.5 -365.941)">
    <g id="Group_13695" data-name="Group 13695" transform="translate(913.001 434.771)">
      <path id="Path_8993" data-name="Path 8993" d="M827.166,810.522a87.319,87.319,0,0,0-135.4,3.64,16.084,16.084,0,0,1-19.536,4.617,102.042,102.042,0,1,0-73.47,189.953,79.682,79.682,0,0,1,35.668,23.164l.538.6a82.9,82.9,0,0,0,143.4-67.525,12.787,12.787,0,0,1,8.727-14.045,87.463,87.463,0,0,0,40.068-140.4Z" transform="translate(-510.474 -780.121)" fill="#f1f1f3"/>
      <path id="Path_8994" data-name="Path 8994" d="M749,813.586a9.289,9.289,0,1,0-9.289-9.289A9.29,9.29,0,0,0,749,813.586Zm0-17.171a7.882,7.882,0,1,1-7.882,7.882A7.882,7.882,0,0,1,749,796.414h0Z" transform="translate(-580.311 -785.017)" fill="#f1f1f3"/>
      <path id="Path_8995" data-name="Path 8995" d="M731.8,791.156a5,5,0,1,0-5-5A5,5,0,0,0,731.8,791.156Zm0-8.585a3.586,3.586,0,1,1-3.589,3.586,3.586,3.586,0,0,1,3.589-3.586Z" transform="translate(-576.068 -780.462)" fill="#f1f1f3"/>
      <path id="Path_8996" data-name="Path 8996" d="M927.131,1052.305a9.29,9.29,0,1,0,9.289,9.289,9.29,9.29,0,0,0-9.289-9.289Zm0,17.171a7.882,7.882,0,1,1,7.882-7.882,7.882,7.882,0,0,1-7.882,7.882h0Z" transform="translate(-638.893 -869.631)" fill="#f1f1f3"/>
      <path id="Path_8997" data-name="Path 8997" d="M511.5,1039.815a9.289,9.289,0,1,0,9.29,9.289,9.29,9.29,0,0,0-9.29-9.289Zm0,17.171a7.882,7.882,0,1,1,7.882-7.882,7.881,7.881,0,0,1-7.882,7.882Z" transform="translate(-502.208 -865.524)" fill="#f1f1f3"/>
      <path id="Path_8998" data-name="Path 8998" d="M943.372,1036.916a5,5,0,1,0,5,5A5,5,0,0,0,943.372,1036.916Zm0,8.589a3.589,3.589,0,1,1,3.589-3.589v0a3.592,3.592,0,0,1-3.589,3.583Z" transform="translate(-645.645 -864.57)" fill="#f1f1f3"/>
      <path id="Path_8999" data-name="Path 8999" d="M985.353,811.393a5,5,0,1,0-5-5A5,5,0,0,0,985.353,811.393Zm0-8.586a3.589,3.589,0,1,1-3.586,3.592v0a3.591,3.591,0,0,1,3.586-3.592Z" transform="translate(-659.45 -787.117)" fill="#f1f1f3"/>
      <path id="Path_9000" data-name="Path 9000" d="M645.787,1131.611a5,5,0,1,0,5,5A5,5,0,0,0,645.787,1131.611Zm0,8.589a3.589,3.589,0,1,1,3.587-3.592v0A3.592,3.592,0,0,1,645.787,1140.2Z" transform="translate(-547.781 -895.712)" fill="#f1f1f3"/>
    </g>
    <path id="Path_8946" data-name="Path 8946" d="M410.543,119.1a56.8,56.8,0,0,0-35.91,16.8l-.137.139c-7.909,8.01-15.846,16.051-22.6,25.053-7.913,10.54-14.242,22.428-23.888,31.407-15.442,14.376-37.141,19.377-57.763,23.833l-38.41,8.3c-14.874,3.214-30.6,6.875-41.439,17.561-6.068,5.983-10.113,13.791-12.595,21.942-9.929,32.609,5.391,68.955,30.474,92.038s58.3,35.115,91.275,43.764c17.061,4.475,34.615,8.225,52.207,6.959,19.164-1.378,37.4-8.636,54.774-16.841,16.109-7.608,32.025-16.274,44.786-28.705,21.123-20.578,31.451-49.08,39.343-77.868,2.328-8.488,4.895-16.906,7.551-25.3,3.062-9.674,7.266-28.836,6.022-58.784-1.075-25.9-13.586-50.2-34.733-65.2C449.732,120.186,428.062,117.725,410.543,119.1Z" transform="translate(849.093 198.992) rotate(18)" fill="#f1f1f3"/>
    <g id="Group_14099" data-name="Group 14099" transform="translate(-42 -57.29)">
      <g id="Group_14004" data-name="Group 14004" transform="matrix(0.996, -0.087, 0.087, 0.996, 921.022, 600.304)">
        <path id="Path_9022" data-name="Path 9022" d="M7.073,105.978s9.78-33.2-1.835-57.638A52.451,52.451,0,0,1,1,15.443,88.189,88.189,0,0,1,5.654,0" transform="translate(18.387 23.928)" fill="none" stroke="#535461" stroke-linecap="round" stroke-miterlimit="10" stroke-width="2"/>
        <path id="Path_9023" data-name="Path 9023" d="M0,7.373c0,4.069,7.367,15.871,7.367,15.871s7.367-11.8,7.367-15.871A7.367,7.367,0,0,0,0,7.361v.012Z" transform="translate(16.817 0)" fill="#7bc959" stroke="#5fb53b" stroke-width="1"/>
        <path id="Path_9024" data-name="Path 9024" d="M1.2,11.377C3.418,14.793,16,20.694,16,20.694s-.228-13.91-2.441-17.325a7.372,7.372,0,0,0-12.38,8.009Z" transform="translate(2.332 19.642)" fill="#7bc959" stroke="#5fb53b" stroke-width="1"/>
        <path id="Path_9025" data-name="Path 9025" d="M4.052,13.948c3.635,1.832,17.487.565,17.487.565S14.321,2.622,10.686.791A7.368,7.368,0,0,0,4.052,13.948Z" transform="translate(0 55.587)" fill="#7bc959" stroke="#5fb53b" stroke-width="1"/>
        <path id="Path_9026" data-name="Path 9026" d="M2.986,13.292c3.273,2.42,17.14,3.514,17.14,3.514S15.023,3.865,11.75,1.445A7.368,7.368,0,0,0,2.986,13.292Z" transform="translate(9.158 85.294)" fill="#7bc959" stroke="#5fb53b" stroke-width="1"/>
        <path id="Path_9027" data-name="Path 9027" d="M16.506,12.677C13.589,15.512,0,18.448,0,18.448S3.33,4.942,6.247,2.107A7.367,7.367,0,1,1,16.563,12.628l-.051.049Z" transform="translate(19.519 28.445)" fill="#7bc959" stroke="#5fb53b" stroke-width="1"/>
        <path id="Path_9028" data-name="Path 9028" d="M17.487,13.948A7.368,7.368,0,1,0,10.853.791C7.218,2.622,0,14.513,0,14.513s13.852,1.266,17.487-.565Z" transform="translate(26.238 61.253)" fill="#7bc959" stroke="#5fb53b" stroke-width="1"/>
        <path id="Path_9029" data-name="Path 9029" d="M17.141,13.34C13.868,15.759,0,16.854,0,16.854S5.1,3.913,8.377,1.494a7.367,7.367,0,1,1,8.895,11.747l-.134.1Z" transform="translate(28.44 96.012)" fill="#7bc959" stroke="#5fb53b" stroke-width="1"/>
      </g>
      <g id="Group_14098" data-name="Group 14098" transform="translate(929.914 720.077)">
        <path id="Path_9134" data-name="Path 9134" d="M569.3,351.283h-28.29l4.184,44.523a2.472,2.472,0,0,0,2.462,2.241h31.753a2.472,2.472,0,0,0,2.461-2.241l4.184-44.523Z" transform="translate(-537.988 -346.528)" fill="#383a44" stroke="rgba(0,0,0,0)" stroke-width="1"/>
        <rect id="Rectangle_6957" data-name="Rectangle 6957" width="51.086" height="7.296" rx="3.648" transform="translate(0 0)" fill="#bebfc7" stroke="rgba(0,0,0,0)" stroke-width="1"/>
      </g>
    </g>
    <g id="Group_14126" data-name="Group 14126" transform="translate(787.723 353.187)">
      <rect id="Rectangle_6972" data-name="Rectangle 6972" width="3.785" height="22.033" rx="1.892" transform="translate(241.865 144.568)" fill="#131416"/>
      <rect id="Rectangle_6973" data-name="Rectangle 6973" width="5.312" height="49.365" transform="translate(226.132 287.286)" fill="#24252c"/>
      <rect id="Rectangle_6974" data-name="Rectangle 6974" width="42.921" height="3.752" transform="translate(206.296 333.536)" fill="#24252c"/>
      <path id="Rectangle_6975" data-name="Rectangle 6975" d="M0,0H4.641a0,0,0,0,1,0,0V1.693A2.321,2.321,0,0,1,2.321,4.013h0A2.321,2.321,0,0,1,0,1.693V0A0,0,0,0,1,0,0Z" transform="translate(206.296 336.651)" fill="#24252c"/>
      <path id="Path_9195" data-name="Path 9195" d="M356.878,336.382c-.014,8.446-4.523,35.236-8.4,56.882-1.092,6.092-2.135,11.782-3.009,16.529-1.337,7.225-2.292,12.3-2.47,13.379-.689,4.3-8.057,5.437-8.487.013-.232-2.947-.532-8.377-.778-14.8-.2-5.246-.362-11.167-.416-16.932-.089-7.824.034-15.369.512-20.609.484-5.28,1-10.329,1.521-14.892.041-.368.082-.737.123-1.1q-9.4,16.976-28.12,47.242-1.934,3.121-3.964,6.385l-7.852-3.588q.788-2.6,1.555-5.069,8.2-26.494,13.617-37.978c6.761-14.34,13.105-26.619,15.772-30.945a.052.052,0,0,0,.014-.027c4.2-6.767,11.5-4.394,15.343-.28C347.456,327.22,356.884,331.551,356.878,336.382Z" transform="translate(-45.845 -70.546)" fill="#a57753" fill-rule="evenodd"/>
      <path id="Rectangle_6976" data-name="Rectangle 6976" d="M0,0H4.641a0,0,0,0,1,0,0V1.693A2.321,2.321,0,0,1,2.321,4.013h0A2.321,2.321,0,0,1,0,1.693V0A0,0,0,0,1,0,0Z" transform="translate(244.575 336.651)" fill="#24252c"/>
      <g id="LegLower" transform="translate(252.044 258.134)" opacity="0.1">
        <path id="Path_9196" data-name="Path 9196" d="M343.519,340.46c-1.2,3.281-3.479,8.371-6.276,14.258.041-.368.082-.737.123-1.1-6.269,11.318-15.251,27.07-27.728,47.242-.368-.082-1.129-.191-1.477-.314-4.018-1.46-4.482-.177-8.507-1.637a3.752,3.752,0,0,1-.669-.321q8.2-26.493,13.617-37.978c6.761-14.34,13.105-26.62,15.773-30.945a.052.052,0,0,0,.014-.027C335.79,330.172,345.1,336.128,343.519,340.46Z" transform="translate(-298.985 -329.64)" fill="#040505" fill-rule="evenodd"/>
      </g>
      <g id="LegLower-2" data-name="LegLower" transform="translate(252.044 258.134)" opacity="0.1">
        <path id="Path_9197" data-name="Path 9197" d="M343.519,340.46c-1.2,3.281-3.479,8.371-6.276,14.258.041-.368.082-.737.123-1.1-6.269,11.318-15.251,27.07-27.728,47.242-.368-.082-1.129-.191-1.477-.314-4.018-1.46-4.482-.177-8.507-1.637a3.752,3.752,0,0,1-.669-.321q8.2-26.493,13.617-37.978c6.761-14.34,13.105-26.62,15.773-30.945a.052.052,0,0,0,.014-.027C335.79,330.172,345.1,336.128,343.519,340.46Z" transform="translate(-298.985 -329.64)" fill="#040505" fill-rule="evenodd"/>
      </g>
      <g id="Group_14118" data-name="Group 14118" transform="translate(188.582 273.442)">
        <ellipse id="Ellipse_2135" data-name="Ellipse 2135" cx="29.484" cy="5.164" rx="29.484" ry="5.164" transform="translate(0 6.745)" fill="#383a44"/>
        <path id="Path_9198" data-name="Path 9198" d="M205.96,358.973v7.219h58.969v-7.76Z" transform="translate(-205.96 -354.099)" fill="#383a44" fill-rule="evenodd"/>
        <ellipse id="Ellipse_2136" data-name="Ellipse 2136" cx="29.484" cy="5.164" rx="29.484" ry="5.164" fill="#bebfc7"/>
      </g>
      <path id="LegLower-3" data-name="LegLower" d="M298.337,388.461c12.342-29.237,13.6-28.706,25.941-57.943.126-.3-.891-1.351-.671-1.586,5.781-6.165,24.132,2.835,21.959,8.781-4.289,11.735-22.364,46.54-28.719,58.628-1.189,2.261-4.238,2.333-6.639,1.461-4.022-1.461-4.488-.178-8.509-1.638A6.343,6.343,0,0,1,298.337,388.461Z" transform="translate(-46.623 -70.623)" fill="#91bbe4" fill-rule="evenodd"/>
      <g id="Group_14120" data-name="Group 14120" transform="translate(285.112 346.907)">
        <g id="Group_14119" data-name="Group 14119">
          <path id="Path_9199" data-name="Path 9199" d="M386.548,473.867H348.072c-.211-1.2-.362-2.258-.471-3.165a21.014,21.014,0,0,1-.143-2.217,14.638,14.638,0,0,1,1.146-4.578.475.475,0,0,1,.034-.089,1.366,1.366,0,0,1,1.242-.791,1.389,1.389,0,0,1,.566.123,11.111,11.111,0,0,0,4.2,1.221,12.292,12.292,0,0,0,4.857-1.392l1.153-2.79a.024.024,0,0,1,.007-.014.677.677,0,0,1,.9-.348l17.887,7.975c1.419.212,3.213.45,5.362.71A2.255,2.255,0,0,1,387,470.7,8.3,8.3,0,0,1,386.548,473.867Z" transform="translate(-347.458 -459.767)" fill="#e0e0e4" fill-rule="evenodd"/>
        </g>
        <path id="Path_9200" data-name="Path 9200" d="M386.615,478.961H348.139c-.211-1.2-.362-2.258-.471-3.165h39.4A8.3,8.3,0,0,1,386.615,478.961Z" transform="translate(-347.525 -464.861)" fill="#040505" fill-rule="evenodd" opacity="0.1"/>
      </g>
      <g id="Group_14122" data-name="Group 14122" transform="translate(243.467 330.98)">
        <g id="Group_14121" data-name="Group 14121" transform="translate(0 0)">
          <path id="Path_9201" data-name="Path 9201" d="M319.99,463.961l-33.577-18.788c.4-1.151.787-2.147,1.135-2.992a20.917,20.917,0,0,1,.957-2,14.637,14.637,0,0,1,3.236-3.436.464.464,0,0,1,.073-.061,1.367,1.367,0,0,1,1.47-.085,1.39,1.39,0,0,1,.434.384,11.1,11.1,0,0,0,3.071,3.118,12.3,12.3,0,0,0,4.918,1.157l2.369-1.872a.024.024,0,0,1,.013-.009.677.677,0,0,1,.956.136L316.76,455.2c1.135.877,2.584,1.961,4.333,3.237a2.256,2.256,0,0,1,.836,2.977A8.288,8.288,0,0,1,319.99,463.961Z" transform="translate(-286.413 -436.421)" fill="#e0e0e4" fill-rule="evenodd"/>
        </g>
        <path id="Path_9202" data-name="Path 9202" d="M319.99,466.644l-33.577-18.788c.4-1.151.787-2.147,1.135-2.992L321.929,464.1A8.289,8.289,0,0,1,319.99,466.644Z" transform="translate(-286.413 -439.104)" fill="#040505" fill-rule="evenodd" opacity="0.1"/>
      </g>
      <rect id="Rectangle_6977" data-name="Rectangle 6977" width="7.13" height="67.488" transform="translate(212.9 285.536)" fill="#383a44"/>
      <rect id="Rectangle_6978" data-name="Rectangle 6978" width="57.105" height="4.992" transform="translate(190.714 349.649)" fill="#383a44"/>
      <path id="Rectangle_6979" data-name="Rectangle 6979" d="M0,0H6.175a0,0,0,0,1,0,0V2.252A3.088,3.088,0,0,1,3.088,5.34h0A3.088,3.088,0,0,1,0,2.252V0A0,0,0,0,1,0,0Z" transform="translate(190.714 353.794)" fill="#383a44"/>
      <path id="Rectangle_6980" data-name="Rectangle 6980" d="M0,0H6.175a0,0,0,0,1,0,0V2.252A3.088,3.088,0,0,1,3.088,5.34h0A3.088,3.088,0,0,1,0,2.252V0A0,0,0,0,1,0,0Z" transform="translate(241.644 353.794)" fill="#383a44"/>
      <path id="Path_9203" data-name="Path 9203" d="M366.073,423.467c-1.092,6.092-2.135,11.782-3.009,16.529l-11.734-1.405c-.2-5.246-.362-11.167-.416-16.932Z" transform="translate(-63.444 -100.749)" fill="#040505" fill-rule="evenodd" opacity="0.1"/>
      <g id="LegLower-4" data-name="LegLower" transform="translate(251.361 256.238)" opacity="0.36">
        <g id="Path_9204" data-name="Path 9204" transform="translate(-297.984 -326.861)" fill="none" stroke-miterlimit="10" fill-rule="evenodd" opacity="0.1">
          <path d="M298.337,388.461c12.342-29.237,13.6-28.706,25.941-57.943.126-.3-.891-1.351-.671-1.586,5.781-6.165,24.132,2.835,21.959,8.781-4.289,11.735-22.364,46.54-28.719,58.628-1.189,2.261-4.238,2.333-6.639,1.461-4.022-1.461-4.488-.178-8.509-1.638A6.343,6.343,0,0,1,298.337,388.461Z" stroke="none"/>
          <path d="M 313.020263671875 395.3189392089844 C 313.5394897460938 395.3189392089844 313.831298828125 395.2166442871094 313.9590454101563 395.1556701660156 C 314.0945129394531 395.0910034179688 314.1468505859375 395.0292358398438 314.1914367675781 394.9444885253906 C 318.1690063476563 387.3787536621094 338.2337341308594 349.0237426757813 342.7434997558594 336.6945190429688 C 342.7434387207031 336.5690307617188 342.58349609375 335.9905700683594 341.7466430664063 335.0924377441406 C 340.5261840820313 333.7826232910156 338.5198974609375 332.4639282226563 336.2422180175781 331.4744873046875 C 333.8471374511719 330.4340515136719 331.4153137207031 329.8610534667969 329.3946838378906 329.8610534667969 C 328.7499084472656 329.8610534667969 327.980224609375 329.9209899902344 327.2743835449219 330.1326293945313 C 327.3259582519531 330.6052856445313 327.2758178710938 331.1282958984375 327.0412292480469 331.6842956542969 C 320.8453063964844 346.3622131347656 317.3746337890625 353.6885070800781 314.0182189941406 360.7736206054688 C 310.6889343261719 367.8014526367188 307.2463073730469 375.0685424804688 301.1004028320313 389.6279907226563 C 300.8860778808594 390.1356201171875 300.9676208496094 390.9678955078125 301.3081359863281 391.748291015625 C 301.64892578125 392.5293273925781 302.2041931152344 393.1557006835938 302.7221984863281 393.3438720703125 C 304.2940673828125 393.9144897460938 305.0783996582031 393.945556640625 306.0713500976563 393.9848937988281 C 307.2789306640625 394.03271484375 308.7818298339844 394.0922241210938 311.2313842773438 394.9818725585938 C 311.8300476074219 395.19921875 312.46533203125 395.3189392089844 313.020263671875 395.3189392089844 M 313.020263671875 398.3189392089844 C 312.0789489746094 398.3189392089844 311.0987548828125 398.1253356933594 310.2076110839844 397.8017883300781 C 306.18603515625 396.3412170410156 305.7200927734375 397.6237182617188 301.6985168457031 396.163818359375 C 298.9472045898438 395.1643981933594 297.1980590820313 391.1578063964844 298.3366394042969 388.4610900878906 C 310.6783752441406 359.2239379882813 311.9356384277344 359.7547302246094 324.2773742675781 330.5176086425781 C 324.4028930664063 330.2201232910156 323.3863830566406 329.1668395996094 323.6067504882813 328.9314880371094 C 324.9768371582031 327.4703674316406 327.0530700683594 326.8610534667969 329.3946838378906 326.8610534667969 C 336.9334106445313 326.8610534667969 347.2238159179688 333.1759338378906 345.5654296875 337.7127685546875 C 341.2764587402344 349.447998046875 323.2015075683594 384.2532653808594 316.8468017578125 396.3405151367188 C 316.0989990234375 397.7627868652344 314.6155395507813 398.3189392089844 313.020263671875 398.3189392089844 Z" stroke="none" fill="#040505"/>
        </g>
      </g>
      <g id="LegLower-5" data-name="LegLower" transform="translate(251.361 256.238)" opacity="0.2">
        <path id="Path_9205" data-name="Path 9205" d="M298.337,388.461c12.342-29.237,13.6-28.706,25.941-57.943.126-.3-.891-1.351-.671-1.586,5.781-6.165,24.132,2.835,21.959,8.781-4.289,11.735-22.364,46.54-28.719,58.628-1.189,2.261-4.238,2.333-6.639,1.461-4.022-1.461-4.488-.178-8.509-1.638A6.343,6.343,0,0,1,298.337,388.461Z" transform="translate(-297.984 -326.861)" fill="#040505" fill-rule="evenodd"/>
      </g>
      <path id="Path_9206" data-name="Path 9206" d="M325.475,324.9c-13.665-3.91-48.461-10.624-62.423-13.167v-.048H218.8a25.841,25.841,0,0,0,.181,6.976c2.06,19.411,10.11,30.494,28.452,30.494,14.183,0,61.784-6.62,62.967-6.01.75.387-1.077,18.221-3.494,52.386-.2,2.9,2.77,4.73,5.675,4.727,4.368,0,4.37,1.362,8.738,1.358,2.464,0,3.883-2.581,4.264-5.016,1.879-12.006,9.435-44.679,9.435-60.06C335.013,331.552,332.442,326.9,325.475,324.9Z" transform="translate(-21.408 -65.802)" fill="#91bbe4" fill-rule="evenodd"/>
      <path id="Path_9207" data-name="Path 9207" d="M233.456,315.925s-7.6,24.277,25.262,33.566c0,0-24.66,5.9-31.759-7.711a33.91,33.91,0,0,1-6.63-23Z" transform="translate(-21.904 -67.147)" fill="#131416" opacity="0.05"/>
      <g id="Path_9208" data-name="Path 9208" transform="translate(-21.408 -65.802)" fill="none" stroke-miterlimit="10" fill-rule="evenodd" opacity="0.05">
        <path d="M325.475,324.9c-13.665-3.91-48.461-10.624-62.423-13.167v-.048H218.8a25.841,25.841,0,0,0,.181,6.976c2.06,19.411,10.11,30.494,28.452,30.494,14.183,0,61.784-6.62,62.967-6.01.75.387-1.077,18.221-3.494,52.386-.2,2.9,2.77,4.73,5.675,4.727,4.368,0,4.37,1.362,8.738,1.358,2.464,0,3.883-2.581,4.264-5.016,1.879-12.006,9.435-44.679,9.435-60.06C335.013,331.552,332.442,326.9,325.475,324.9Z" stroke="none"/>
        <path d="M 221.6436157226563 314.6900024414063 C 221.6520080566406 315.8660888671875 221.7503051757813 317.0333862304688 221.9382934570313 318.1813659667969 L 221.9519958496094 318.2651062011719 L 221.9609680175781 318.3495178222656 C 222.460693359375 323.0579833984375 223.3290405273438 327.1867065429688 224.5418701171875 330.6209716796875 C 225.76220703125 334.0764465332031 227.3806762695313 336.9672546386719 229.3523254394531 339.2130126953125 C 233.4562683105469 343.8875732421875 239.3694152832031 346.159912109375 247.4296264648438 346.159912109375 C 255.7272033691406 346.159912109375 276.2582702636719 343.7822875976563 291.2493591308594 342.0462341308594 C 301.9264526367188 340.8097534179688 308.0606079101563 340.1101684570313 309.9763793945313 340.1100158691406 C 310.5055847167969 340.1099853515625 311.1326293945313 340.1542663574219 311.7717895507813 340.4837036132813 C 313.5798645019531 341.4166259765625 313.5716552734375 343.3844299316406 313.5662536621094 344.6865844726563 C 313.5621337890625 345.6721496582031 313.5039672851563 347.0552673339844 313.3831481933594 349.0393371582031 C 313.158203125 352.7333679199219 312.725341796875 358.2884521484375 312.1773071289063 365.3214416503906 C 311.5467834472656 373.4133605957031 310.7620849609375 383.4840698242188 309.8945007324219 395.7474365234375 C 309.8829040527344 395.9113464355469 309.8917846679688 396.1090393066406 310.1455383300781 396.3813171386719 C 310.636962890625 396.90869140625 311.6112670898438 397.2630004882813 312.5699768066406 397.2630004882813 L 312.5764770507813 397.2630004882813 L 312.5896606445313 397.2630004882813 C 315.2215576171875 397.2629699707031 316.672119140625 397.7149047851563 317.837646484375 398.0780334472656 C 318.811767578125 398.3815612792969 319.5811462402344 398.6212768554688 321.2982788085938 398.6212768554688 L 321.3115844726563 398.6212768554688 C 321.3659362792969 398.6212158203125 321.5313110351563 398.62109375 321.8253479003906 398.2281188964844 C 322.1915283203125 397.7386779785156 322.4866333007813 396.9583435058594 322.6146850585938 396.1410217285156 C 323.153564453125 392.6985778808594 324.1402587890625 387.6422729492188 325.2827758789063 381.7875366210938 C 328.1232604980469 367.2318420410156 332.013427734375 347.2970581054688 332.013427734375 336.544677734375 C 332.013427734375 332.1325988769531 329.5359802246094 329.1868896484375 324.649658203125 327.7892150878906 C 310.6480407714844 323.783203125 274.1842956542969 316.8150329589844 262.5154113769531 314.6900024414063 L 258.3844299316406 314.6900024414063 L 240.5939636230469 314.6900024414063 L 235.8847045898438 314.6900024414063 L 221.6436157226563 314.6900024414063 M 218.7962646484375 311.6900024414063 L 220.5419921875 311.6900024414063 L 220.9710998535156 311.6900024414063 L 235.8847045898438 311.6900024414063 L 240.5939636230469 311.6900024414063 L 258.3844299316406 311.6900024414063 L 262.7853393554688 311.6900024414063 L 263.0520629882813 311.6900024414063 L 263.0520629882813 311.7384033203125 C 277.0139770507813 314.281005859375 311.8096923828125 320.9951782226563 325.4748840332031 324.9049682617188 C 332.4415283203125 326.8976440429688 335.013427734375 331.5515747070313 335.013427734375 336.544677734375 C 335.013427734375 351.92626953125 327.4580078125 384.5989379882813 325.5785827636719 396.60498046875 C 325.1971740722656 399.039794921875 323.7782592773438 401.6192016601563 321.3140869140625 401.6212768554688 C 321.3087768554688 401.6212768554688 321.3035888671875 401.6212768554688 321.2982788085938 401.6212768554688 C 316.9503784179688 401.6212768554688 316.9397888183594 400.2629089355469 312.5897216796875 400.2630004882813 C 312.58544921875 400.2630004882813 312.5807495117188 400.2630004882813 312.5764770507813 400.2630004882813 C 312.5741577148438 400.2630004882813 312.572265625 400.2630004882813 312.5699768066406 400.2630004882813 C 309.6680603027344 400.2630004882813 306.6974487304688 398.4303283691406 306.9019470214844 395.5360107421875 C 309.3189697265625 361.3706665039063 311.1459045410156 343.5365600585938 310.3961791992188 343.1497192382813 C 310.3440551757813 343.1228332519531 310.2022094726563 343.1100158691406 309.9766235351563 343.1100158691406 C 305.0833129882813 343.1103820800781 260.9876098632813 349.159912109375 247.4296264648438 349.159912109375 C 229.0872802734375 349.159912109375 221.0379333496094 338.0775146484375 218.9777221679688 318.6661376953125 C 218.6365966796875 316.582763671875 218.5199584960938 314.2489624023438 218.7962646484375 311.6900024414063 Z" stroke="none" fill="#040505"/>
      </g>
      <g id="Group_14124" data-name="Group 14124" transform="translate(160.964 104.635)">
        <g id="Group_14123" data-name="Group 14123" transform="translate(54.141 29.642)">
          <g id="Head">
            <path id="Path_9209" data-name="Path 9209" d="M273.368,171.5c-2.142,4.857-6.119,8.3-10.922,8.828a32,32,0,0,1-4-2.06l.266,1.876,2.5,17.737H244.838l5.11-23.836.525-2.435a21.478,21.478,0,0,1-4.086-7.006q-.061-.471-.1-.962a20.113,20.113,0,0,1,3.534-13.439c6.44-4.462,18.147-1.289,21.046,4.114C272.979,158.267,273.832,165.471,273.368,171.5Z" transform="translate(-244.838 -148.087)" fill="#a57753" fill-rule="evenodd"/>
          </g>
        </g>
        <path id="Path_9210" data-name="Path 9210" d="M231.92,143.933c0-9.387,14.364-17,24.794-17s18.885,7.61,18.885,17-8.455,17-18.885,17S231.92,153.32,231.92,143.933Z" transform="translate(-186.592 -111.722)" fill="#131416" fill-rule="evenodd"/>
        <path id="Path_9211" data-name="Path 9211" d="M274.01,169.876a17.543,17.543,0,0,1-2.524,4.114,12.8,12.8,0,0,1-8.4,4.714,3.506,3.506,0,0,1-.375.041,11.542,11.542,0,0,1-3.363-.225,14.553,14.553,0,0,1-8.759-6.1,20.554,20.554,0,0,1-3.561-9.442q-.061-.471-.1-.962a20.113,20.113,0,0,1,3.534-13.439,13.824,13.824,0,0,1,5.935-4.762,11.684,11.684,0,0,1,3.472-.819c7.934-.634,15,6.856,15.786,16.728A20.988,20.988,0,0,1,274.01,169.876Z" transform="translate(-191.338 -116.815)" fill="#a57753" fill-rule="evenodd"/>
        <path id="Path_9212" data-name="Path 9212" d="M274.01,169.876a17.543,17.543,0,0,1-2.524,4.114,12.8,12.8,0,0,1-8.4,4.714,3.506,3.506,0,0,1-.375.041,11.542,11.542,0,0,1-3.363-.225,14.553,14.553,0,0,1-8.759-6.1,20.554,20.554,0,0,1-3.561-9.442q-.061-.471-.1-.962a20.113,20.113,0,0,1,3.534-13.439,13.824,13.824,0,0,1,5.935-4.762,11.684,11.684,0,0,1,3.472-.819c7.934-.634,15,6.856,15.786,16.728A20.988,20.988,0,0,1,274.01,169.876Z" transform="translate(-191.338 -116.815)" fill="#040505" fill-rule="evenodd" opacity="0.1"/>
        <path id="Path_9213" data-name="Path 9213" d="M276.116,169.876a17.542,17.542,0,0,1-2.524,4.114A10.65,10.65,0,0,1,268.564,176a3.216,3.216,0,0,1-.348.041,9.972,9.972,0,0,1-3.124-.225,13.536,13.536,0,0,1-8.139-6.1,21.459,21.459,0,0,1-3.309-9.442c-.041-.314-.075-.634-.1-.962a21.276,21.276,0,0,1,3.281-13.439,14.611,14.611,0,0,1,1.671-2.053,11.684,11.684,0,0,1,3.472-.819c7.934-.634,15,6.856,15.786,16.728A20.987,20.987,0,0,1,276.116,169.876Z" transform="translate(-193.444 -116.815)" fill="#a57753" fill-rule="evenodd"/>
        <path id="Path_9214" data-name="Path 9214" d="M215.661,134a8.409,8.409,0,0,0-2.813-16.1c-7.966-4.851-8.5-15.55-23.247-12.818-16.717,3.1-6.292,28.3-19.461,25.083s3.775,21.478,23.093,14.259c6.948-2.6,10.4-10.257,14.063-12.575,2.252,1.118,6.118,3.123,8.347,2.161l-.007.126Z" transform="translate(-165.476 -104.635)" fill="#131416"/>
        <path id="Path_9215" data-name="Path 9215" d="M269.276,148.923a11.491,11.491,0,0,0-6.085-3.609c-4.489-.928-11.1.962-18.624,13.624a6.5,6.5,0,0,0-.86,4.155,24.152,24.152,0,0,1-3.807.3h-.14a11.747,11.747,0,0,1-11.076-15.041c1.684-5.891,4.884-10.532,10.172-11.954,10.9-2.933,19.77-1.746,25.064,2.238A13.117,13.117,0,0,1,269.276,148.923Z" transform="translate(-185.416 -114.211)" fill="#131416"/>
        <path id="Path_9216" data-name="Path 9216" d="M263.924,138.642a24.217,24.217,0,0,1-.733,6.672c-4.489-.928-11.1.962-18.624,13.624a6.5,6.5,0,0,0-.86,4.155,24.152,24.152,0,0,1-3.807.3h-.14a11.747,11.747,0,0,1-11.076-15.041c1.684-5.891,4.884-10.532,10.172-11.954,10.9-2.933,19.77-1.746,25.064,2.238Z" transform="translate(-185.416 -114.211)" fill="#131416"/>
      </g>
      <path id="Path_9217" data-name="Path 9217" d="M284.609,309.536" transform="translate(-42.373 -65.117)" fill="#77bac2" fill-rule="evenodd"/>
      <path id="Path_9218" data-name="Path 9218" d="M283.155,309.536" transform="translate(-41.91 -65.117)" fill="#77bac2" fill-rule="evenodd"/>
      <path id="Path_9219" data-name="Path 9219" d="M255.614,282.813c-9.892,5.164-12.587-4.168-24.314-4.168a41.237,41.237,0,0,0-13.61,1.8,76.624,76.624,0,0,1-9.305,2.156.912.912,0,0,0-.764.75c-.014.1-.034.2-.055.293-.628,3.309-2.872,5.164-3.07,8.862a22.456,22.456,0,0,0,.628,5.369,3.327,3.327,0,0,1-3.261,3.977h-5.239v-.027H174.61v.007a4.47,4.47,0,0,1-3.854-5.621c4.537-16.584,12.191-31.77,18.761-45.23,8.439-17.28,16.277-34.287,29.144-46.7h7.832c1.255,1.528,1.9,3.391,4.734,4.032,4.339,1,8.746-4.694,10.977-1.173a.951.951,0,0,1,.136.491c0,.58-.007,1.16-.014,1.733v.02c-.136,13.358-1.555,25.849,1.044,36.109,1.821,7.163,4.905,14.319,7.716,21.38v.007a108.625,108.625,0,0,1,5,14.9A.925.925,0,0,1,255.614,282.813Z" transform="translate(-6.139 -31.668)" fill="#1663ae" fill-rule="evenodd"/>
      <g id="Group_14125" data-name="Group 14125" transform="translate(151.277 175.161)">
        <path id="Skin" d="M185.258,273.795q-9.056,27-13.958,41.116c-.709,2.047-1.358,3.9-1.937,5.533q-2.1,5.956-3.056,8.343c-.232.58-.409,1-.539,1.262-.982,1.978-8.214,8-13.235,11.447-2.012,1.378-1.18,3.145-.416,3.616,6.188,3.82,10.26-.7,15.622-3.186,5.867-2.736,5.369,4.98,10.022,2.893-1.426-3.2-4.769-9.155-3.186-13.071q.2-.5,1.276-2.961,1.75-4,5.819-13.207c.1-.218.2-.443.3-.669q6.375-14.418,18.222-41.062Zm126.419-16a58.875,58.875,0,0,0-14.872,6.085l-2.128.293-4.8.655-20.009,2.729,4.83,12.068,12.9-5.117,4.864-1.924v-.007l4.093-1.617q14.132,1.392,13.664-.675c-.464-2.06-3.275-1.562-3.807-2.906s2.524-4.127,5.539-6.645S312.952,257.763,311.676,257.8Z" transform="translate(-151.277 -223.835)" fill="#a57753" fill-rule="evenodd"/>
        <path id="Path_9220" data-name="Path 9220" d="M322.995,270.593a6.962,6.962,0,0,1-5.563,11.275,70.392,70.392,0,0,1-26.974-6.028c-1.119-.484-2.217-1-3.3-1.521-.246-.116-.484-.239-.723-.362-.266-.13-.532-.266-.791-.4-.368-.191-.737-.382-1.1-.58-1.167-.621-2.3-1.269-3.4-1.931-11.979-7.218-23.686-17.294-26.626-35.031-.737-4.434,2.661-9.51,2.2-13.9-.02-.171-.041-.341-.075-.512-.02-.116-.041-.225-.068-.334-.007-.02-.007-.034-.014-.055-.034-.136-.068-.273-.109-.409s-.089-.287-.143-.43a6.2,6.2,0,0,0-.266-.669,3.3,3.3,0,0,0-.143-.321,12.683,12.683,0,0,0-.587-1.126c-.075-.136-.15-.273-.232-.4-.116-.184-.232-.375-.348-.566s-.252-.4-.382-.587c-1.76-2.674-3.841-5.232-3.779-7.736,2.483-1.562,6.229,2.149,9.148,2.34s6.481-5.192,7.811-2.579c.1.941.211,1.89.327,2.824.273,2.244.58,4.475.948,6.651v.007c1.794,10.649,5.055,20.18,12.989,25.207,7.409,4.694,19.131,4.339,32.517,2.517a6.7,6.7,0,0,1,7.038,9.3c-1.057,2.449-2.088,5.192-1.638,8.427A14.319,14.319,0,0,0,322.995,270.593Z" transform="translate(-182.832 -208.015)" fill="#1663ae" fill-rule="evenodd"/>
      </g>
      <path id="Path_9221" data-name="Path 9221" d="M190.02,341.518c-.1.225-.2.45-.3.669a71.692,71.692,0,0,0-2.843,7.838H176.61c1.69-5.484,2.195-6.937,2.74-8.506Z" transform="translate(-8.051 -75.281)" fill="#040505" fill-rule="evenodd" opacity="0.1"/>
      <path id="Path_9222" data-name="Path 9222" d="M322.857,270.415a7.138,7.138,0,0,1-5.829,11.446,70.542,70.542,0,0,1-26.57-6.022c-1.119-.484-2.217-1-3.3-1.521-.246-.116-.484-.239-.723-.362-.266-.13-.532-.266-.791-.4-.368-.191-.737-.382-1.1-.58-1.167-.621-2.3-1.269-3.4-1.931-11.979-7.218-23.686-17.294-26.626-35.031-.737-4.434,2.661-9.51,2.2-13.9-.02-.171-.041-.341-.075-.512-.02-.116-.041-.225-.068-.334-.007-.02-.007-.034-.014-.055-.034-.136-.068-.273-.109-.409s-.089-.287-.143-.43a6.2,6.2,0,0,0-.266-.669,3.3,3.3,0,0,0-.143-.321,12.683,12.683,0,0,0-.587-1.126c-.075-.136-.15-.273-.232-.4-.116-.184-.232-.375-.348-.566s-.252-.4-.382-.587c-1.76-2.674-3.841-5.232-3.779-7.736,2.483-1.562,6.229,2.149,9.148,2.34s6.481-5.192,7.811-2.579c.1.941.211,1.89.327,2.824.273,2.244.58,4.475.948,6.651v.007c1.794,10.649,5.055,20.18,12.989,25.207,7.409,4.694,19.131,4.339,32.517,2.517a6.7,6.7,0,0,1,7.038,9.3c-1.057,2.449-2.088,5.192-1.638,8.427A14.1,14.1,0,0,0,322.857,270.415Z" transform="translate(-31.554 -32.854)" fill="#040505" fill-rule="evenodd" opacity="0.2"/>
      <path id="Path_9223" data-name="Path 9223" d="M292.219,277.489c-1.119-.484-2.217-1-3.3-1.521-.246-.116-.484-.239-.723-.362-.266-.13-.532-.266-.791-.4-.368-.191-.737-.382-1.1-.58-1.167-.621-2.3-1.269-3.4-1.931-11.98-7.218-23.686-17.294-26.626-35.031-.737-4.434,2.661-9.51,2.2-13.9-.02-.171-.041-.341-.075-.512-.02-.116-.041-.225-.068-.334-.007-.02-.007-.034-.014-.055-.034-.136-.068-.273-.109-.409s-.089-.287-.143-.43a6.187,6.187,0,0,0-.266-.669,2.693,2.693,0,0,0-.143-.321,12.681,12.681,0,0,0-.587-1.126c-.068-.13-.15-.266-.232-.4-.116-.184-.232-.375-.348-.566s-.252-.389-.382-.587l3.043-4.236,10.465-.914c.273,2.244.58,4.475.948,6.651v.007C271.187,231.706,274.68,256.961,292.219,277.489Z" transform="translate(-33.316 -34.503)" fill="#040505" fill-rule="evenodd" opacity="0.05"/>
      <g id="Path_9224" data-name="Path 9224" transform="translate(-31.554 -32.854)" fill="none" stroke-miterlimit="10" fill-rule="evenodd" opacity="0.05">
        <path d="M322.857,270.415a7.138,7.138,0,0,1-5.829,11.446,70.542,70.542,0,0,1-26.57-6.022c-1.119-.484-2.217-1-3.3-1.521-.246-.116-.484-.239-.723-.362-.266-.13-.532-.266-.791-.4-.368-.191-.737-.382-1.1-.58-1.167-.621-2.3-1.269-3.4-1.931-11.979-7.218-23.686-17.294-26.626-35.031-.737-4.434,2.661-9.51,2.2-13.9-.02-.171-.041-.341-.075-.512-.02-.116-.041-.225-.068-.334-.007-.02-.007-.034-.014-.055-.034-.136-.068-.273-.109-.409s-.089-.287-.143-.43a6.2,6.2,0,0,0-.266-.669,3.3,3.3,0,0,0-.143-.321,12.683,12.683,0,0,0-.587-1.126c-.075-.136-.15-.273-.232-.4-.116-.184-.232-.375-.348-.566s-.252-.4-.382-.587c-1.76-2.674-3.841-5.232-3.779-7.736,2.483-1.562,6.229,2.149,9.148,2.34s6.481-5.192,7.811-2.579c.1.941.211,1.89.327,2.824.273,2.244.58,4.475.948,6.651v.007c1.794,10.649,5.055,20.18,12.989,25.207,7.409,4.694,19.131,4.339,32.517,2.517a6.7,6.7,0,0,1,7.038,9.3c-1.057,2.449-2.088,5.192-1.638,8.427A14.1,14.1,0,0,0,322.857,270.415Z" stroke="none"/>
        <path d="M 317.1725769042969 278.8626098632813 C 318.7826538085938 278.8626098632813 320.1739501953125 277.987548828125 320.8943176269531 276.5217895507813 C 321.5972595214844 275.0915222167969 321.4429931640625 273.4938049316406 320.4813537597656 272.2474670410156 C 319.0007934570313 270.3279724121094 317.2374267578125 267.6652221679688 316.7391357421875 264.0825805664063 C 316.1823120117188 260.0824279785156 317.4047241210938 256.8082275390625 318.5941772460938 254.0532989501953 C 319.0995483398438 252.8828125 318.9901123046875 251.604248046875 318.2939758300781 250.5454254150391 C 317.6058349609375 249.4987640380859 316.4666748046875 248.8739013671875 315.2467651367188 248.8739013671875 C 315.0724487304688 248.8739013671875 314.8935546875 248.8861999511719 314.7155151367188 248.9104156494141 C 308.2895202636719 249.7851409912109 303.2216491699219 250.1925659179688 298.7666320800781 250.1925659179688 C 290.7655334472656 250.1925659179688 284.6884460449219 248.8065795898438 280.1878967285156 245.9552307128906 C 270.5115051269531 239.8233032226563 267.4406127929688 228.1750793457031 265.8462829589844 218.7122497558594 L 265.8045959472656 218.4647827148438 L 265.8045959472656 218.4573059082031 C 265.4961853027344 216.609130859375 265.2073364257813 214.5864715576172 264.9244384765625 212.2943267822266 C 263.517822265625 213.2776641845703 261.8283081054688 214.3152923583984 259.8772583007813 214.3152923583984 C 259.7567749023438 214.3152923583984 259.6351318359375 214.3112182617188 259.5157775878906 214.3031616210938 L 259.5157775878906 214.3031616210938 C 258.1039123535156 214.20947265625 256.7545776367188 213.6645660400391 255.518310546875 213.0791473388672 C 255.6692352294922 213.3030853271484 255.8209381103516 213.5255432128906 255.9699554443359 213.7440338134766 C 256.2563781738281 214.1639709472656 256.5523681640625 214.5979919433594 256.8431701660156 215.0394287109375 C 257.0005798339844 215.2718048095703 257.1473999023438 215.4976348876953 257.2798461914063 215.7110290527344 L 257.2874145507813 215.7232360839844 L 257.2948608398438 215.7355194091797 L 257.29931640625 215.7428588867188 C 257.4106750488281 215.9261932373047 257.515869140625 216.0993499755859 257.6152038574219 216.2571563720703 C 257.7369689941406 216.4499969482422 257.8387451171875 216.6332092285156 257.9224243164063 216.7851715087891 C 258.1857604980469 217.2398529052734 258.4098510742188 217.6697082519531 258.6058654785156 218.096435546875 C 258.6641845703125 218.2147216796875 258.7331848144531 218.3612518310547 258.8021240234375 218.5324401855469 C 258.9241638183594 218.8013916015625 259.0350646972656 219.0818328857422 259.1326904296875 219.3683624267578 C 259.2061157226563 219.5656127929688 259.2721557617188 219.7656555175781 259.329345703125 219.9641723632813 C 259.3822021484375 220.1421051025391 259.4244384765625 220.3079986572266 259.459228515625 220.44677734375 C 259.4685668945313 220.4816284179688 259.4773559570313 220.5167999267578 259.4856262207031 220.5524291992188 C 259.5313415527344 220.7365570068359 259.5630187988281 220.9016571044922 259.5899963378906 221.0532531738281 C 259.6424560546875 221.3235778808594 259.6712646484375 221.5640258789063 259.6946411132813 221.7589111328125 L 259.6971435546875 221.7797088623047 L 259.6993408203125 221.8005523681641 C 259.9852600097656 224.5043334960938 259.2157897949219 227.1089477539063 258.4716491699219 229.6277923583984 C 257.8225708007813 231.8249359130859 257.2094421386719 233.9002075195313 257.4789123535156 235.5218658447266 C 258.1346740722656 239.4779205322266 259.2998657226563 243.2253112792969 260.9420166015625 246.6599426269531 C 262.4368286132813 249.7863464355469 264.3837585449219 252.7707061767578 266.7287902832031 255.5301513671875 C 270.6782836914063 260.1776123046875 275.7507629394531 264.290283203125 282.6906127929688 268.4719543457031 C 283.8480224609375 269.1648864746094 284.9172058105469 269.7713317871094 285.9591979980469 270.3258361816406 L 285.9747314453125 270.3341064453125 L 285.9901428222656 270.3425598144531 C 286.3187561035156 270.5223999023438 286.6587219238281 270.6986999511719 287.0186462402344 270.8853759765625 L 287.029296875 270.8908996582031 L 287.0374145507813 270.8951110839844 L 287.0454711914063 270.8993530273438 C 287.3086242675781 271.0378723144531 287.5401916503906 271.1556701660156 287.7533569335938 271.259521484375 L 287.7848510742188 271.2749328613281 L 287.8137512207031 271.289794921875 C 288.0354309082031 271.4037780761719 288.2448120117188 271.511474609375 288.4438171386719 271.6054382324219 L 288.4603576660156 271.6132507324219 L 288.4767761230469 271.6212768554688 C 289.6095275878906 272.1732482910156 290.6473388671875 272.6524658203125 291.6522827148438 273.0875244140625 C 295.6691589355469 274.8312683105469 299.7882995605469 276.2047729492188 303.8952331542969 277.1698608398438 C 308.3249816894531 278.2108154296875 312.7626037597656 278.7800598144531 317.0845642089844 278.8617858886719 C 317.1141967773438 278.8623352050781 317.1431579589844 278.8626098632813 317.1725769042969 278.8626098632813 M 317.1725769042969 281.8626098632813 C 317.124267578125 281.8626098632813 317.0766906738281 281.8621520996094 317.0280456542969 281.8612365722656 C 307.5755004882813 281.6824951171875 298.4865112304688 279.3247985839844 290.4576721191406 275.8394165039063 C 289.3388671875 275.3550720214844 288.2405395507813 274.8433837890625 287.1626281738281 274.318115234375 C 286.9170837402344 274.2021484375 286.6782836914063 274.0793151855469 286.4394836425781 273.9565124511719 C 286.1734619140625 273.826904296875 285.9073791503906 273.6904907226563 285.6481323242188 273.5540466308594 C 285.27978515625 273.3630065917969 284.9113464355469 273.1720275878906 284.5498352050781 272.9741821289063 C 283.3832702636719 272.3533630371094 282.2507934570313 271.7052612304688 281.1456298828125 271.0435180664063 C 269.1661376953125 263.8258666992188 257.4595947265625 253.7497253417969 254.519287109375 236.0124816894531 C 253.7825012207031 231.5781707763672 257.1798706054688 226.5026092529297 256.7159729003906 222.1160430908203 C 256.6955261230469 221.9454803466797 256.6750793457031 221.7749328613281 256.6409301757813 221.6044006347656 C 256.6204833984375 221.4884033203125 256.6000366210938 221.3792572021484 256.5727233886719 221.2701110839844 C 256.56591796875 221.2496490478516 256.56591796875 221.2360076904297 256.55908203125 221.2155303955078 C 256.5249633789063 221.0791015625 256.4908447265625 220.9426574707031 256.4499206542969 220.8062286376953 C 256.4089965820313 220.6629486083984 256.3612365722656 220.5196838378906 256.3066711425781 220.3764343261719 C 256.2316284179688 220.1513061523438 256.1429443359375 219.9261627197266 256.0406188964844 219.7078704833984 C 255.9996948242188 219.5987091064453 255.951904296875 219.4963836669922 255.8973388671875 219.3872528076172 C 255.7267761230469 219.0120086669922 255.5289611816406 218.6368103027344 255.3106384277344 218.2615966796875 C 255.235595703125 218.1251678466797 255.1605529785156 217.9887084960938 255.0787048339844 217.8591156005859 C 254.9627380371094 217.6748962402344 254.8467712402344 217.48388671875 254.7307739257813 217.2928924560547 C 254.6079711914063 217.0950164794922 254.4783630371094 216.8972015380859 254.3487243652344 216.7061920166016 C 252.5886535644531 214.0319519042969 250.5079650878906 211.4737091064453 250.5693359375 208.9700012207031 C 250.9991760253906 208.6995849609375 251.4669189453125 208.587158203125 251.9615631103516 208.587158203125 C 254.3245239257813 208.587158203125 257.3032836914063 211.1520233154297 259.7177124023438 211.3099670410156 C 259.7705688476563 211.3135375976563 259.8240051269531 211.3152923583984 259.8772583007813 211.3152923583984 C 262.1948852539063 211.3152923583984 264.8684997558594 208.0148162841797 266.5130310058594 208.0148162841797 C 266.9227905273438 208.0148162841797 267.2683715820313 208.2194976806641 267.5289001464844 208.7312469482422 C 267.6311950683594 209.6726684570313 267.7403869628906 210.6209564208984 267.8563537597656 211.5555572509766 C 268.1292419433594 213.8000030517578 268.4362182617188 216.0307769775391 268.8045959472656 218.2070159912109 L 268.8045959472656 218.2138366699219 C 270.5987854003906 228.863037109375 273.8596801757813 238.3933868408203 281.793701171875 243.4212036132813 C 286.1432495117188 246.1768646240234 291.9805603027344 247.1925659179688 298.7666320800781 247.1925659179688 C 303.5404052734375 247.1925659179688 308.7828674316406 246.6903228759766 314.3108520507813 245.9378356933594 C 314.6278076171875 245.8947296142578 314.940185546875 245.8739013671875 315.2467651367188 245.8739013671875 C 319.9384155273438 245.8739013671875 323.2887268066406 250.7483978271484 321.3484497070313 255.242431640625 C 320.2910461425781 257.6914978027344 319.26025390625 260.4346313476563 319.7104797363281 263.6689758300781 C 320.0945739746094 266.4304809570313 321.4255676269531 268.5596618652344 322.8568115234375 270.4152221679688 C 326.4618225097656 275.0873413085938 323.0322875976563 281.8626098632813 317.1725769042969 281.8626098632813 Z" stroke="none" fill="#040505"/>
      </g>
      <path id="Path_9225" data-name="Path 9225" d="M255.614,282.813c-9.892,5.164-12.587-4.168-24.314-4.168a41.237,41.237,0,0,0-13.61,1.8,76.624,76.624,0,0,1-9.305,2.156.912.912,0,0,0-.764.75c-.014.1-.034.2-.055.293-.628,3.309-2.872,5.164-3.07,8.862a22.456,22.456,0,0,0,.628,5.369,3.327,3.327,0,0,1-3.261,3.977h-5.239v-.027H174.61v.007a4.47,4.47,0,0,1-3.854-5.621c4.537-16.584,12.191-31.77,18.761-45.23,8.439-17.28,16.277-34.287,29.144-46.7h7.832c1.255,1.528,1.9,3.391,4.734,4.032,4.339,1,8.746-4.694,10.977-1.173a.951.951,0,0,1,.136.491c0,.58-.007,1.16-.014,1.733v.02c-.136,13.358-1.555,25.849,1.044,36.109,1.821,7.163,4.905,14.319,7.716,21.38v.007a108.625,108.625,0,0,1,5,14.9A.925.925,0,0,1,255.614,282.813Z" transform="translate(-6.139 -31.668)" fill="#1663ae" fill-rule="evenodd"/>
      <path id="Path_9226" data-name="Path 9226" d="M234.914,295.783a76.616,76.616,0,0,1-9.305,2.156.912.912,0,0,0-.764.75c-.014.1-.034.2-.055.293,1.385-15.083,4.257-33.182,8.009-46.437Q230.957,280.8,234.914,295.783Z" transform="translate(-23.362 -47.005)" fill="rgba(4,5,5,0.1)" fill-rule="evenodd"/>
      <g id="Path_9227" data-name="Path 9227" transform="translate(-6.139 -31.668)" fill="none" stroke-linecap="round" stroke-linejoin="round" fill-rule="evenodd" opacity="0.05">
        <path d="M255.614,282.813c-9.892,5.164-12.587-4.168-24.314-4.168a41.237,41.237,0,0,0-13.61,1.8,76.624,76.624,0,0,1-9.305,2.156.912.912,0,0,0-.764.75c-.014.1-.034.2-.055.293-.628,3.309-2.872,5.164-3.07,8.862a22.456,22.456,0,0,0,.628,5.369,3.327,3.327,0,0,1-3.261,3.977h-5.239v-.027H174.61v.007a4.47,4.47,0,0,1-3.854-5.621c4.537-16.584,12.191-31.77,18.761-45.23,8.439-17.28,16.277-34.287,29.144-46.7h7.832c1.255,1.528,1.9,3.391,4.734,4.032,4.339,1,8.746-4.694,10.977-1.173a.951.951,0,0,1,.136.491c0,.58-.007,1.16-.014,1.733v.02c-.136,13.358-1.555,25.849,1.044,36.109,1.821,7.163,4.905,14.319,7.716,21.38v.007a108.625,108.625,0,0,1,5,14.9A.925.925,0,0,1,255.614,282.813Z" stroke="none"/>
        <path d="M 201.8634948730469 298.8534851074219 C 201.9652252197266 298.8534851074219 202.0505065917969 298.812255859375 202.116943359375 298.7309875488281 C 202.2095336914063 298.6177978515625 202.1926574707031 298.5146179199219 202.1849670410156 298.4761047363281 C 201.7878570556641 296.55029296875 201.3964996337891 294.3171081542969 201.5010528564453 292.3470764160156 C 201.6451416015625 289.6544189453125 202.6325378417969 287.6903076171875 203.4259185791016 286.1120910644531 C 203.9596862792969 285.0503540039063 204.420654296875 284.1333923339844 204.6192779541016 283.0863952636719 C 204.6236724853516 283.0632019042969 204.6283569335938 283.0400390625 204.6332855224609 283.0169677734375 C 204.6389312744141 282.9906311035156 204.6449890136719 282.96435546875 204.6500854492188 282.9374389648438 C 204.6525573730469 282.9197082519531 204.6551971435547 282.9020080566406 204.6579742431641 282.8843383789063 C 204.9215087890625 281.2152709960938 206.2225952148438 279.9143981933594 207.8984527587891 279.6415100097656 C 212.0011444091797 278.9496459960938 214.5363616943359 278.2262573242188 216.7736206054688 277.5879211425781 L 216.8675537109375 277.5610961914063 C 216.8693237304688 277.5606079101563 216.8710784912109 277.5601196289063 216.8728485107422 277.5596313476563 C 220.4992370605469 276.5322570800781 223.631103515625 275.6449890136719 231.3004913330078 275.6449890136719 C 237.133056640625 275.6449890136719 241.0473327636719 277.6813049316406 244.1925048828125 279.3175048828125 C 246.3975830078125 280.4646606445313 248.1392669677734 281.3707275390625 250.03173828125 281.3707275390625 C 250.8766479492188 281.3707275390625 251.7751617431641 281.1899719238281 252.7514495849609 280.8213806152344 C 251.6968994140625 276.852294921875 250.1906585693359 272.7662353515625 248.2957458496094 267.9901733398438 C 248.2811279296875 267.9533081054688 248.2672424316406 267.9161682128906 248.2541046142578 267.8788452148438 C 247.8304443359375 266.8153991699219 247.3929901123047 265.7306213378906 246.9694671630859 264.6803283691406 C 244.5496978759766 258.6797180175781 242.0475463867188 252.4747924804688 240.4604949951172 246.2335052490234 C 238.4058685302734 238.1229095458984 238.7269287109375 228.8890991210938 239.0668640136719 219.1131134033203 C 239.1770324707031 215.9444580078125 239.2909393310547 212.6679229736328 239.3248596191406 209.3721160888672 L 239.3248596191406 209.3673706054688 C 239.3248596191406 209.3554534912109 239.3249359130859 209.3435211181641 239.3250732421875 209.3316192626953 C 239.3253326416016 209.3101501464844 239.3255920410156 209.2886199951172 239.3258361816406 209.26708984375 C 238.9281311035156 209.4291381835938 238.4869995117188 209.6306304931641 238.1365051269531 209.7907257080078 C 236.5319976806641 210.5236206054688 234.5351409912109 211.4357299804688 232.3007507324219 211.4357299804688 C 231.7058563232422 211.4357299804688 231.1186065673828 211.3702087402344 230.5553588867188 211.2410125732422 C 227.4131317138672 210.5268707275391 225.9380035400391 208.6483459472656 224.9716949462891 207.2849884033203 L 219.8852081298828 207.2849884033203 C 217.4105834960938 209.7556457519531 215.06689453125 212.467041015625 212.7467498779297 215.5414276123047 C 210.4184875488281 218.6265869140625 208.1625366210938 222.0159454345703 205.8500061035156 225.9031829833984 C 201.5056457519531 233.205810546875 197.7326965332031 240.9576110839844 193.7382354736328 249.1645660400391 C 193.2306518554688 250.2074432373047 192.7221069335938 251.2522888183594 192.2116394042969 252.2975769042969 C 191.8205871582031 253.0987701416016 191.4256896972656 253.9060821533203 191.0278472900391 254.7194213867188 C 184.8468017578125 267.3556518554688 177.8410491943359 281.6778564453125 173.6483764648438 297.0047302246094 C 173.4929962158203 297.5715942382813 173.7096557617188 298.0057373046875 173.8526458740234 298.2140808105469 C 174.0715789794922 298.5331115722656 174.3991241455078 298.7509155273438 174.7665100097656 298.8262023925781 L 196.6241607666016 298.8262023925781 C 196.7620086669922 298.8262023925781 196.8975372314453 298.8354797363281 197.0304412841797 298.8534851074219 L 201.8634948730469 298.8534851074219 M 201.8634948730469 301.8534851074219 L 196.6241607666016 301.8534851074219 L 196.6241607666016 301.8262023925781 L 174.6095123291016 301.8262023925781 L 174.6095123291016 301.8330078125 C 171.9011688232422 301.5601501464844 170.0183258056641 298.8995971679688 170.7551116943359 296.211669921875 C 175.2917327880859 279.6273498535156 182.9460144042969 264.4415283203125 189.5156402587891 250.9816741943359 C 197.9544372558594 233.7015380859375 205.7929382324219 216.6942443847656 218.6592712402344 204.2849884033203 L 226.490966796875 204.2849884033203 C 227.7462310791016 205.8131103515625 228.3943023681641 207.6755218505859 231.2254638671875 208.3168029785156 C 231.5837554931641 208.3990478515625 231.9427795410156 208.4357299804688 232.3007507324219 208.4357299804688 C 235.2308807373047 208.4357299804688 238.1077880859375 205.9805603027344 240.2376556396484 205.9805603027344 C 240.9984436035156 205.9805603027344 241.6634216308594 206.2934417724609 242.2020568847656 207.1434020996094 C 242.2907562255859 207.2866516113281 242.3385162353516 207.4640502929688 242.3385162353516 207.6345977783203 C 242.3385162353516 208.2144927978516 242.3316955566406 208.7943267822266 242.3248596191406 209.3673706054688 L 242.3248596191406 209.3878479003906 C 242.1884155273438 222.745361328125 240.7694396972656 235.2364807128906 243.3686218261719 245.4968109130859 C 245.1901092529297 252.6599273681641 248.2736511230469 259.8162231445313 251.0842895507813 266.8770141601563 L 251.0842895507813 266.8838195800781 C 253.0763854980469 271.9048156738281 254.9319458007813 276.8780822753906 256.0848388671875 281.7831115722656 C 256.1803283691406 282.1924133300781 255.9893798828125 282.6154174804688 255.6141662597656 282.8132019042969 C 253.4708404541016 283.9321594238281 251.6643829345703 284.3707275390625 250.03173828125 284.3707275390625 C 244.1294097900391 284.3707275390625 240.486572265625 278.6449890136719 231.3004913330078 278.6449890136719 C 224.1441955566406 278.6449890136719 221.3267059326172 279.4158935546875 217.6905670166016 280.4460144042969 C 215.3710784912109 281.1077270507813 212.7173156738281 281.8717956542969 208.3853302001953 282.6017456054688 C 207.9964752197266 282.6631469726563 207.6826782226563 282.9633178710938 207.6212768554688 283.3522033691406 C 207.6076049804688 283.4545288085938 207.587158203125 283.5500183105469 207.5667114257813 283.6455078125 C 206.9390563964844 286.9541931152344 204.6946105957031 288.809814453125 204.4967651367188 292.5073547363281 C 204.4149322509766 294.0491027832031 204.7219085693359 295.9251403808594 205.1244049072266 297.8762817382813 C 205.5405731201172 299.9296569824219 203.9578399658203 301.8534851074219 201.8634948730469 301.8534851074219 Z" stroke="none" fill="#040505"/>
      </g>
      <rect id="Rectangle_6981" data-name="Rectangle 6981" width="3.785" height="22.033" rx="1.892" transform="translate(216.481 144.568)" fill="#131416"/>
      <path id="Path_9228" data-name="Path 9228" d="M226.778,138.513s2.141-11.187,9.144-12.875c0,0,3.653-.5,3.993,5.177,0,0-4.421,2.534-10.46,11.188C229.455,142,226.888,140.534,226.778,138.513Z" transform="translate(-23.994 -6.671)" fill="#1663ae"/>
    </g>
    <g id="Group_14117" data-name="Group 14117" transform="translate(694.106 308.864)">
      <path id="Path_9169" data-name="Path 9169" d="M411.581,311.69V428.885a6.209,6.209,0,0,0,6.208,6.208h0A6.208,6.208,0,0,0,424,428.885V329.415H553v99.469a6.208,6.208,0,0,0,6.208,6.208h0a6.209,6.209,0,0,0,6.208-6.208V311.69Z" transform="translate(-0.953 -29.277)" fill="#e0e0e5" fill-rule="evenodd"/>
      <g id="Path_9170" data-name="Path 9170" transform="translate(-0.953 -29.277)" fill="none" stroke-miterlimit="10" fill-rule="evenodd" opacity="0.05">
        <path d="M411.581,311.69V428.885a6.209,6.209,0,0,0,6.208,6.208h0A6.208,6.208,0,0,0,424,428.885V329.415H553v99.469a6.208,6.208,0,0,0,6.208,6.208h0a6.209,6.209,0,0,0,6.208-6.208V311.69Z" stroke="none"/>
        <path d="M 414.5809326171875 314.6900024414063 L 414.5809326171875 327.4763488769531 L 414.5809326171875 329.4153137207031 L 414.5809326171875 428.8847961425781 C 414.5809326171875 430.6539611816406 416.020263671875 432.09326171875 417.7894287109375 432.09326171875 C 419.55859375 432.09326171875 420.9979248046875 430.6539611816406 420.9979248046875 428.8847961425781 L 420.9979248046875 329.4153137207031 L 420.9979248046875 326.4153137207031 L 423.9979248046875 326.4153137207031 L 552.9950561523438 326.4153137207031 L 555.9950561523438 326.4153137207031 L 555.9950561523438 329.4153137207031 L 555.9950561523438 428.8847961425781 C 555.9950561523438 430.6539611816406 557.434326171875 432.09326171875 559.2035522460938 432.09326171875 C 560.9727172851563 432.09326171875 562.4120483398438 430.6539611816406 562.4120483398438 428.8847961425781 L 562.4120483398438 329.4153137207031 L 562.4120483398438 327.4763488769531 L 562.4120483398438 314.6900024414063 L 414.5809326171875 314.6900024414063 M 411.5809326171875 311.6900024414063 L 565.4120483398438 311.6900024414063 L 565.4120483398438 327.4763488769531 L 565.4120483398438 329.4153137207031 L 565.4120483398438 428.8847961425781 C 565.4120483398438 432.3134460449219 562.6322021484375 435.09326171875 559.2035522460938 435.09326171875 C 555.774169921875 435.09326171875 552.9950561523438 432.3134460449219 552.9950561523438 428.8847961425781 L 552.9950561523438 329.4153137207031 L 423.9979248046875 329.4153137207031 L 423.9979248046875 428.8847961425781 C 423.9979248046875 432.3134460449219 421.2188720703125 435.09326171875 417.7894287109375 435.09326171875 C 414.36083984375 435.09326171875 411.5809326171875 432.3134460449219 411.5809326171875 428.8847961425781 L 411.5809326171875 329.4153137207031 L 411.5809326171875 327.4763488769531 L 411.5809326171875 311.6900024414063 Z" stroke="none" fill="#030504"/>
      </g>
      <g id="Group_14113" data-name="Group 14113" transform="translate(514.346 198.436)">
        <path id="Path_9171" data-name="Path 9171" d="M570.064,226.768a6.558,6.558,0,1,1-6.558-6.558,6.558,6.558,0,0,1,6.558,6.558Zm0,0" transform="translate(-552.878 -204.065)" fill="#ffeece"/>
        <path id="Path_9172" data-name="Path 9172" d="M583.149,291.02l-3.032,1.7-3.033-1.7v-2.135a2.343,2.343,0,0,1,2.342-2.342h1.381a2.342,2.342,0,0,1,2.342,2.342Zm0,0" transform="translate(-558.084 -221.213)" fill="#5a5a5a"/>
        <path id="Path_9173" data-name="Path 9173" d="M590.927,290.953l-5-3.562,22.856-28.805,5,3.563Zm0,0" transform="translate(-560.371 -213.985)" fill="#9ea0ae"/>
        <path id="Path_9174" data-name="Path 9174" d="M589.684,219.6l24.474,25.34-4.831,4.592-24.174-25.028" transform="translate(-560.17 -203.908)" fill="#9ea0ae"/>
        <path id="Path_9175" data-name="Path 9175" d="M592.644,305.729A13.148,13.148,0,0,0,579.5,292.581h-8.922a13.148,13.148,0,0,0-13.149,13.148,1.021,1.021,0,0,0,1.021,1.021h33.177a1.021,1.021,0,0,0,1.021-1.021Zm0,0" transform="translate(-553.002 -222.773)" fill="#808193"/>
        <g id="Group_14110" data-name="Group 14110">
          <g id="Group_14109" data-name="Group 14109" clip-path="url(#clip-path)">
            <path id="Path_9176" data-name="Path 9176" d="M585.408,292.581h-5.113a13.148,13.148,0,0,1,13.148,13.148,1.021,1.021,0,0,1-1.02,1.021h5.113a1.021,1.021,0,0,0,1.021-1.021,13.148,13.148,0,0,0-13.149-13.148Zm0,0" transform="translate(-558.914 -222.773)" fill="#636579" opacity="0.2"/>
          </g>
        </g>
        <path id="Path_9177" data-name="Path 9177" d="M623.945,258.6a6.837,6.837,0,1,1-6.836-6.837,6.837,6.837,0,0,1,6.836,6.837Zm0,0" transform="translate(-566.663 -212.223)" fill="#e0e0e5"/>
        <path id="Path_9178" data-name="Path 9178" d="M620.934,260.215A2.216,2.216,0,1,1,618.719,258a2.215,2.215,0,0,1,2.215,2.216Zm0,0" transform="translate(-568.274 -213.834)" fill="#f1f1f3"/>
        <path id="Path_9179" data-name="Path 9179" d="M580.152,231.3a1.275,1.275,0,0,1-.9-.374l-4.349-4.35a1.278,1.278,0,1,1,1.808-1.807l4.349,4.35a1.278,1.278,0,0,1-.9,2.181Zm0,0" transform="translate(-557.422 -205.148)" fill="#e7a70a"/>
        <g id="Group_14112" data-name="Group 14112">
          <g id="Group_14111" data-name="Group 14111" clip-path="url(#clip-path)">
            <path id="Path_9180" data-name="Path 9180" d="M567.741,218.573a1.271,1.271,0,0,1-.9-.374l-4.35-4.35a1.279,1.279,0,1,1,1.809-1.808l4.349,4.35a1.278,1.278,0,0,1-.9,2.181Zm0,0" transform="translate(-554.214 -201.856)" fill="#e7a70a"/>
            <path id="Path_9181" data-name="Path 9181" d="M579.4,204.282a12.037,12.037,0,0,0-17.023,0l-.187.186a18.389,18.389,0,0,1-9.3,4.9l-.067.014a1.737,1.737,0,0,0-.834,2.924l19.391,19.391a1.738,1.738,0,0,0,2.925-.834c0-.021.01-.044.015-.066a18.525,18.525,0,0,1,4.42-8.807,23.71,23.71,0,0,0-.373-3.478c2.329-.043,3.515-.428,4.066-2.29a12.037,12.037,0,0,0-3.03-11.939Zm0,0" transform="translate(-551.465 -199.036)" fill="#808193"/>
          </g>
        </g>
        <path id="Path_9182" data-name="Path 9182" d="M585.243,204.283a12.024,12.024,0,0,0-11.175-3.225,12.035,12.035,0,0,1,5.848,20.249l-.187.188a18.118,18.118,0,0,0-4.606,8.1l2.1,2.1a1.738,1.738,0,0,0,2.925-.835c0-.022.01-.044.013-.066a18.393,18.393,0,0,1,4.9-9.3l.188-.188a12.037,12.037,0,0,0,0-17.023Zm0,0" transform="translate(-557.304 -199.037)" fill="#636579" opacity="0.2"/>
      </g>
      <path id="Path_9183" data-name="Path 9183" d="M610.272,258.6a6.837,6.837,0,1,1,6.837,6.837,6.837,6.837,0,0,1-6.837-6.837Zm0,0" transform="translate(-52.317 -13.787)" fill="none" stroke="#9ea0ae" stroke-linejoin="round" stroke-width="2"/>
      <g id="Group_14115" data-name="Group 14115" transform="translate(418.874 218.814)">
        <path id="Path_9184" data-name="Path 9184" d="M427.2,230.443v47.795l41.7,2.815,41.289-2.815V230.443a4.524,4.524,0,0,0-4.524-4.524H431.726A4.524,4.524,0,0,0,427.2,230.443Z" transform="translate(-423.865 -225.919)" fill="#bebfc7"/>
        <path id="Path_9185" data-name="Path 9185" d="M422.7,296.478v6.752a4.524,4.524,0,0,0,4.524,4.523h80.613a4.524,4.524,0,0,0,4.524-4.523v-6.752H422.7Z" transform="translate(-422.702 -244.159)" fill="#9ea0ae"/>
        <path id="Path_9186" data-name="Path 9186" d="M423.239,296.478v4.755a4.524,4.524,0,0,0,4.524,4.524h80.613a4.524,4.524,0,0,0,3.983-2.378,4.524,4.524,0,0,1-4.52,4.375H427.226a4.524,4.524,0,0,1-4.524-4.524v-6.752Z" transform="translate(-422.702 -244.159)" fill="#808193"/>
        <path id="Path_9187" data-name="Path 9187" d="M491.252,296.478H466.415a5.631,5.631,0,0,0,5.63,5.63h13.574A5.633,5.633,0,0,0,491.252,296.478Z" transform="translate(-434.002 -244.159)" fill="#373944"/>
        <g id="Group_14114" data-name="Group 14114" transform="translate(57.23 52.319)" opacity="0.2">
          <path id="Path_9188" data-name="Path 9188" d="M499.885,296.923c.012-.147.019-.3.019-.445h.171C500.018,296.629,499.955,296.778,499.885,296.923Z" transform="translate(-499.885 -296.478)" fill="#040505"/>
        </g>
        <rect id="Rectangle_6970" data-name="Rectangle 6970" width="69.458" height="37.887" transform="translate(10.101 7.081)" fill="#e0e0e5"/>
        <path id="Path_9189" data-name="Path 9189" d="M476.56,273.356H436.324V235.47h23.882Z" transform="translate(-426.223 -228.388)" fill="#e0e0e5"/>
      </g>
      <circle id="Ellipse_2134" data-name="Ellipse 2134" cx="10.467" cy="10.467" r="10.467" transform="translate(453.167 228.469)" fill="#fff"/>
      <g id="Group_14116" data-name="Group 14116" transform="translate(456.164 233.027)">
        <path id="Path_9190" data-name="Path 9190" d="M486.093,248.869a4.364,4.364,0,0,0-7.848-1.992,2.191,2.191,0,0,0-2.558,1.738,3.062,3.062,0,0,0,.37,6.1h3.093v-.876h-3.093a2.188,2.188,0,1,1,.029-4.376h.438v-.437a1.315,1.315,0,0,1,1.313-1.313,2.209,2.209,0,0,1,.78.2l.187-.3a3.49,3.49,0,0,1,6.446,1.6l.021.288.274.094a2.176,2.176,0,0,1-.676,4.248h-3.093v.876h3.093a3.049,3.049,0,0,0,1.225-5.847Zm0,0" transform="translate(-472.993 -245.087)" fill="#1663ae"/>
        <path id="Path_9191" data-name="Path 9191" d="M483.789,254.605l.619-.619-2.061-2.06-2.06,2.06.619.619,1-1v5.07h.876V253.6Zm0,0" transform="translate(-474.879 -246.855)" fill="#1663ae"/>
      </g>
      <path id="Path_9192" data-name="Path 9192" d="M496.146,275.707a1.923,1.923,0,0,1-1.917,1.917H455.973a1.916,1.916,0,1,1,0-3.833h38.256A1.925,1.925,0,0,1,496.146,275.707Z" transform="translate(-11.933 -19.48)" fill="#fff"/>
      <path id="Path_9193" data-name="Path 9193" d="M469.979,273.791v3.833H455.973a1.916,1.916,0,1,1,0-3.833Z" transform="translate(-11.933 -19.48)" fill="#1663ae"/>
      <path id="Path_9194" data-name="Path 9194" d="M431.726,225.919h23.066l22.584,52.319H427.2V230.443A4.524,4.524,0,0,1,431.726,225.919Z" transform="translate(-4.991 -7.105)" fill="#131316" opacity="0.02"/>
      <rect id="Rectangle_6971" data-name="Rectangle 6971" width="158.079" height="17.726" rx="5.528" transform="translate(407.894 282.412)" fill="#4c4e5f"/>
    </g>
  </g>
</svg>
