<svg xmlns="http://www.w3.org/2000/svg" xmlns:xlink="http://www.w3.org/1999/xlink" width="900" height="500" viewBox="0 0 900 500">
  <defs>
    <filter id="Rectangle_53" x="15.5" y="16.5" width="869" height="205" filterUnits="userSpaceOnUse">
      <feOffset dy="1" input="SourceAlpha"/>
      <feGaussianBlur stdDeviation="1.5" result="blur"/>
      <feFlood flood-opacity="0.161"/>
      <feComposite operator="in" in2="blur"/>
      <feComposite in="SourceGraphic"/>
    </filter>
    <clipPath id="clip-basic-expander--collapsed">
      <rect width="900" height="500"/>
    </clipPath>
  </defs>
  <g id="basic-expander--collapsed" clip-path="url(#clip-basic-expander--collapsed)">
    <rect width="900" height="500" fill="#f9f9fa"/>
    <g transform="matrix(1, 0, 0, 1, 0, 0)" filter="url(#Rectangle_53)">
      <rect id="Rectangle_53-2" data-name="Rectangle 53" width="860" height="196" rx="2" transform="translate(20 20)" fill="#fff"/>
    </g>
    <path id="Rectangle_54" data-name="Rectangle 54" d="M2.522,0H857.478C858.871,0,860,.672,860,1.5V48H0V1.5C0,.672,1.129,0,2.522,0Z" transform="translate(20 20)" fill="#fff" opacity="0.4"/>
    <rect id="Rectangle_57" data-name="Rectangle 57" width="860" height="1" transform="translate(20 68)" fill="#e6e6ea"/>
    <path id="Rectangle_55" data-name="Rectangle 55" d="M0,0H860V46.5c0,.828-1.129,1.5-2.522,1.5H2.522C1.129,48,0,47.328,0,46.5Z" transform="translate(20 118)" fill="#fff"/>
    <path id="Rectangle_55-2" data-name="Rectangle 55" d="M0,0H860V46.5c0,.828-1.129,1.5-2.522,1.5H2.522C1.129,48,0,47.328,0,46.5Z" transform="translate(20 168)" fill="#fff"/>
    <rect id="Rectangle_56" data-name="Rectangle 56" width="860" height="48" transform="translate(20 69)" fill="#fff"/>
    <path id="Eighties" d="M3.234-4.062V0H1.383V-11.2h3.4a4.5,4.5,0,0,1,2.992.9A3.133,3.133,0,0,1,8.836-7.773,3.5,3.5,0,0,1,7.727-5.1a4.212,4.212,0,0,1-3,1.039Zm0-5.609v4.094h1.2a2.661,2.661,0,0,0,1.82-.555A1.98,1.98,0,0,0,6.883-7.7q0-1.977-2.3-1.977ZM16.211,0H14.453V-1.25h-.031A2.647,2.647,0,0,1,11.992.188a2.559,2.559,0,0,1-1.848-.641,2.241,2.241,0,0,1-.668-1.7q0-2.266,2.609-2.641l2.375-.336q0-1.711-1.625-1.711a3.86,3.86,0,0,0-2.578.984V-7.437a5.622,5.622,0,0,1,2.922-.75q3.031,0,3.031,2.984Zm-1.75-3.93-1.68.234a2.662,2.662,0,0,0-1.176.379,1.107,1.107,0,0,0-.395.973,1.065,1.065,0,0,0,.363.832,1.407,1.407,0,0,0,.973.324,1.8,1.8,0,0,0,1.371-.582,2.064,2.064,0,0,0,.543-1.465ZM25.352-8,21.742,1.281q-1.125,2.484-3.156,2.484a3.784,3.784,0,0,1-.953-.1V2.156a2.535,2.535,0,0,0,.781.141,1.612,1.612,0,0,0,1.516-1l.539-1.312L17.289-8H19.3L21.2-2.187q.031.109.141.578h.039q.039-.18.141-.562l2-5.828ZM31.2-6.273a1.5,1.5,0,0,0-.945-.258,1.618,1.618,0,0,0-1.344.727,3.249,3.249,0,0,0-.539,1.977V0H26.555V-8h1.813v1.648H28.4a2.787,2.787,0,0,1,.816-1.316,1.843,1.843,0,0,1,1.23-.473,1.528,1.528,0,0,1,.75.148ZM35.883.188A3.965,3.965,0,0,1,32.926-.934,4.05,4.05,0,0,1,31.82-3.906a4.214,4.214,0,0,1,1.152-3.148,4.237,4.237,0,0,1,3.105-1.133A3.838,3.838,0,0,1,39-7.086a4.255,4.255,0,0,1,1.047,3.055A4.193,4.193,0,0,1,38.918-.965,4.055,4.055,0,0,1,35.883.188Zm.086-6.93A2.069,2.069,0,0,0,34.289-6a3.108,3.108,0,0,0-.617,2.047,2.927,2.927,0,0,0,.625,1.98,2.1,2.1,0,0,0,1.672.723,1.992,1.992,0,0,0,1.645-.711,3.147,3.147,0,0,0,.574-2.023,3.2,3.2,0,0,0-.574-2.039A1.982,1.982,0,0,0,35.969-6.742ZM43.711,0h-1.82V-11.844h1.82Zm4.18,0H46.07V-11.844h1.82ZM62.523.008,61.5-1.078a4.649,4.649,0,0,1-.746.535,5.26,5.26,0,0,1-.867.4,5.711,5.711,0,0,1-.949.25A5.758,5.758,0,0,1,57.945.2a4.959,4.959,0,0,1-1.523-.219,3.412,3.412,0,0,1-1.16-.621,2.767,2.767,0,0,1-.742-.965,2.927,2.927,0,0,1-.262-1.25q0-1.93,2.563-3.25A4.367,4.367,0,0,1,55.641-8.7a2.511,2.511,0,0,1,.23-1.078,2.506,2.506,0,0,1,.645-.848,3.072,3.072,0,0,1,.988-.559,3.736,3.736,0,0,1,1.254-.2,3.63,3.63,0,0,1,1.176.18,2.725,2.725,0,0,1,.9.5,2.2,2.2,0,0,1,.578.762,2.261,2.261,0,0,1,.2.957,3.054,3.054,0,0,1-.129.918,2.381,2.381,0,0,1-.414.77,3.59,3.59,0,0,1-.75.688,8.3,8.3,0,0,1-1.137.656q.617.664,1.246,1.32t1.277,1.32a3.8,3.8,0,0,0,.3-.562,5.139,5.139,0,0,0,.234-.656A5.638,5.638,0,0,0,62.4-5.25a4.876,4.876,0,0,0,.055-.719h1.586A5.645,5.645,0,0,1,62.68-2.211q.352.375.887.922t1.262,1.3ZM59.984-8.852a1.211,1.211,0,0,0-.1-.484,1.288,1.288,0,0,0-.262-.395A1.232,1.232,0,0,0,59.242-10a1.137,1.137,0,0,0-.469-.1,1.744,1.744,0,0,0-.6.1,1.292,1.292,0,0,0-.461.281,1.287,1.287,0,0,0-.3.434,1.413,1.413,0,0,0-.105.555,3.209,3.209,0,0,0,1.023,1.859Q59.984-7.711,59.984-8.852Zm.57,6.758q-.914-.945-2.859-3.047a3.565,3.565,0,0,0-1.238.953A1.931,1.931,0,0,0,56.078-3a1.769,1.769,0,0,0,.152.746,1.68,1.68,0,0,0,.418.566,1.846,1.846,0,0,0,.629.359,2.4,2.4,0,0,0,.785.125A3.665,3.665,0,0,0,60.555-2.094ZM74.711-.086a3.141,3.141,0,0,1-1.4.266q-2.328,0-2.328-2.234V-6.578H69.648V-8h1.336V-9.852l1.813-.516V-8h1.914v1.422H72.8v4a1.576,1.576,0,0,0,.258,1.016,1.07,1.07,0,0,0,.859.3,1.246,1.246,0,0,0,.8-.266Zm7.7.086H80.656V-1.25h-.031A2.647,2.647,0,0,1,78.2.188a2.559,2.559,0,0,1-1.848-.641,2.241,2.241,0,0,1-.668-1.7q0-2.266,2.609-2.641l2.375-.336q0-1.711-1.625-1.711a3.86,3.86,0,0,0-2.578.984V-7.437a5.622,5.622,0,0,1,2.922-.75q3.031,0,3.031,2.984Zm-1.75-3.93-1.68.234a2.662,2.662,0,0,0-1.176.379,1.107,1.107,0,0,0-.395.973,1.065,1.065,0,0,0,.363.832,1.407,1.407,0,0,0,.973.324,1.8,1.8,0,0,0,1.371-.582,2.064,2.064,0,0,0,.543-1.465ZM91.313-8,88.648-3.953,91.281,0h-2.1L87.773-2.477q-.133-.227-.312-.578H87.43q-.031.07-.328.578L85.672,0H83.578L86.3-3.922,83.719-8h2.109l1.383,2.6q.156.289.3.594h.023L89.328-8Zm10.25-2.367a1.648,1.648,0,0,0-.836-.211q-1.32,0-1.32,1.492V-8h1.859v1.422H99.414V0H97.6V-6.578H96.234V-8H97.6V-9.3a2.525,2.525,0,0,1,.828-2,3.016,3.016,0,0,1,2.07-.73,3.074,3.074,0,0,1,1.063.148ZM106.1.188a3.965,3.965,0,0,1-2.957-1.121,4.05,4.05,0,0,1-1.105-2.973,4.214,4.214,0,0,1,1.152-3.148A4.237,4.237,0,0,1,106.3-8.187a3.838,3.838,0,0,1,2.922,1.1,4.255,4.255,0,0,1,1.047,3.055,4.193,4.193,0,0,1-1.129,3.066A4.055,4.055,0,0,1,106.1.188Zm.086-6.93a2.069,2.069,0,0,0-1.68.742,3.108,3.108,0,0,0-.617,2.047,2.927,2.927,0,0,0,.625,1.98,2.1,2.1,0,0,0,1.672.723,1.992,1.992,0,0,0,1.645-.711,3.147,3.147,0,0,0,.574-2.023,3.2,3.2,0,0,0-.574-2.039A1.982,1.982,0,0,0,106.188-6.742Zm10.563.469a1.5,1.5,0,0,0-.945-.258,1.618,1.618,0,0,0-1.344.727,3.249,3.249,0,0,0-.539,1.977V0h-1.812V-8h1.813v1.648h.031a2.787,2.787,0,0,1,.816-1.316A1.843,1.843,0,0,1,116-8.141a1.528,1.528,0,0,1,.75.148ZM129.992,0H128.18V-4.359a3.533,3.533,0,0,0-.355-1.82,1.308,1.308,0,0,0-1.2-.562,1.445,1.445,0,0,0-1.207.711,2.9,2.9,0,0,0-.5,1.7V0H123.1V-4.508q0-2.234-1.578-2.234a1.424,1.424,0,0,0-1.207.672,2.963,2.963,0,0,0-.473,1.742V0h-1.812V-8h1.813v1.266h.031A2.771,2.771,0,0,1,122.4-8.187a2.379,2.379,0,0,1,1.449.457,2.276,2.276,0,0,1,.848,1.2,2.855,2.855,0,0,1,2.656-1.656q2.641,0,2.641,3.258ZM131.7-.25V-1.93a3.616,3.616,0,0,0,2.242.773q1.641,0,1.641-.969a.763.763,0,0,0-.141-.465,1.342,1.342,0,0,0-.379-.34A2.979,2.979,0,0,0,134.5-3.2q-.324-.117-.723-.266a7.65,7.65,0,0,1-.887-.414,2.679,2.679,0,0,1-.656-.5A1.873,1.873,0,0,1,131.844-5a2.316,2.316,0,0,1-.133-.82,1.9,1.9,0,0,1,.273-1.02,2.376,2.376,0,0,1,.734-.742,3.522,3.522,0,0,1,1.047-.453,4.793,4.793,0,0,1,1.211-.152,5.5,5.5,0,0,1,1.984.336v1.586a3.345,3.345,0,0,0-1.937-.578,2.53,2.53,0,0,0-.621.07,1.6,1.6,0,0,0-.473.2.961.961,0,0,0-.3.3.718.718,0,0,0-.109.387.826.826,0,0,0,.109.438.993.993,0,0,0,.324.316,2.8,2.8,0,0,0,.516.25q.3.113.691.246a10.1,10.1,0,0,1,.926.43,3.128,3.128,0,0,1,.7.5,1.945,1.945,0,0,1,.445.641,2.175,2.175,0,0,1,.156.863,1.973,1.973,0,0,1-.281,1.063,2.344,2.344,0,0,1-.75.75,3.511,3.511,0,0,1-1.082.441,5.621,5.621,0,0,1-1.293.145A5.448,5.448,0,0,1,131.7-.25Z" transform="translate(30 100)" fill="#31313a"/>
    <path id="Ninties" d="M7.672,0H1.383V-11.2H7.422v1.578H3.242v3.172H7.094v1.57H3.242V-1.57h4.43Zm8.914,0H14.773V-4.508q0-2.242-1.586-2.242a1.731,1.731,0,0,0-1.367.621,2.3,2.3,0,0,0-.539,1.566V0H9.461V-8h1.82v1.328h.031a2.851,2.851,0,0,1,2.594-1.516A2.416,2.416,0,0,1,15.9-7.34a3.806,3.806,0,0,1,.688,2.449Zm6.852-6.273a1.5,1.5,0,0,0-.945-.258,1.618,1.618,0,0,0-1.344.727,3.249,3.249,0,0,0-.539,1.977V0H18.8V-8h1.813v1.648h.031a2.787,2.787,0,0,1,.816-1.316,1.843,1.843,0,0,1,1.23-.473,1.528,1.528,0,0,1,.75.148ZM28.125.188A3.965,3.965,0,0,1,25.168-.934a4.05,4.05,0,0,1-1.105-2.973,4.214,4.214,0,0,1,1.152-3.148A4.237,4.237,0,0,1,28.32-8.187a3.838,3.838,0,0,1,2.922,1.1,4.255,4.255,0,0,1,1.047,3.055A4.193,4.193,0,0,1,31.16-.965,4.055,4.055,0,0,1,28.125.188Zm.086-6.93A2.069,2.069,0,0,0,26.531-6a3.108,3.108,0,0,0-.617,2.047,2.927,2.927,0,0,0,.625,1.98,2.1,2.1,0,0,0,1.672.723,1.992,1.992,0,0,0,1.645-.711,3.147,3.147,0,0,0,.574-2.023,3.2,3.2,0,0,0-.574-2.039A1.982,1.982,0,0,0,28.211-6.742ZM35.953,0h-1.82V-11.844h1.82Zm4.18,0h-1.82V-11.844h1.82Zm14.32,0H52.641V-4.359a3.533,3.533,0,0,0-.355-1.82,1.308,1.308,0,0,0-1.2-.562,1.445,1.445,0,0,0-1.207.711,2.9,2.9,0,0,0-.5,1.7V0h-1.82V-4.508q0-2.234-1.578-2.234a1.424,1.424,0,0,0-1.207.672A2.963,2.963,0,0,0,44.3-4.328V0H42.492V-8H44.3v1.266h.031a2.771,2.771,0,0,1,2.523-1.453,2.379,2.379,0,0,1,1.449.457,2.276,2.276,0,0,1,.848,1.2,2.855,2.855,0,0,1,2.656-1.656q2.641,0,2.641,3.258Zm8.984-3.508H57.984A2.305,2.305,0,0,0,58.668-1.8a2.543,2.543,0,0,0,1.793.6,3.954,3.954,0,0,0,2.352-.766V-.5a5.373,5.373,0,0,1-2.891.688A3.578,3.578,0,0,1,57.152-.9a4.359,4.359,0,0,1-1-3.066,4.263,4.263,0,0,1,1.105-3.043A3.616,3.616,0,0,1,60-8.187a3.153,3.153,0,0,1,2.539,1.055,4.379,4.379,0,0,1,.9,2.93Zm-1.75-1.281a2.336,2.336,0,0,0-.461-1.52,1.54,1.54,0,0,0-1.25-.543,1.759,1.759,0,0,0-1.324.57,2.605,2.605,0,0,0-.668,1.492ZM72.289,0H70.477V-4.508q0-2.242-1.586-2.242a1.731,1.731,0,0,0-1.367.621,2.3,2.3,0,0,0-.539,1.566V0h-1.82V-8h1.82v1.328h.031a2.851,2.851,0,0,1,2.594-1.516A2.416,2.416,0,0,1,71.6-7.34a3.806,3.806,0,0,1,.688,2.449Zm6.43-.086a3.141,3.141,0,0,1-1.4.266q-2.328,0-2.328-2.234V-6.578H73.656V-8h1.336V-9.852l1.813-.516V-8h1.914v1.422H76.8v4a1.576,1.576,0,0,0,.258,1.016,1.07,1.07,0,0,0,.859.3,1.246,1.246,0,0,0,.8-.266Zm10.6-6.187a1.5,1.5,0,0,0-.945-.258,1.618,1.618,0,0,0-1.344.727,3.249,3.249,0,0,0-.539,1.977V0H84.68V-8h1.813v1.648h.031a2.787,2.787,0,0,1,.816-1.316,1.843,1.843,0,0,1,1.23-.473,1.528,1.528,0,0,1,.75.148Zm7.914,2.766H91.781A2.305,2.305,0,0,0,92.465-1.8a2.543,2.543,0,0,0,1.793.6,3.954,3.954,0,0,0,2.352-.766V-.5a5.373,5.373,0,0,1-2.891.688A3.578,3.578,0,0,1,90.949-.9a4.359,4.359,0,0,1-1-3.066,4.263,4.263,0,0,1,1.105-3.043A3.616,3.616,0,0,1,93.8-8.187a3.153,3.153,0,0,1,2.539,1.055,4.379,4.379,0,0,1,.9,2.93Zm-1.75-1.281a2.336,2.336,0,0,0-.461-1.52,1.54,1.54,0,0,0-1.25-.543,1.759,1.759,0,0,0-1.324.57,2.605,2.605,0,0,0-.668,1.492ZM98.461-.25V-1.93a3.616,3.616,0,0,0,2.242.773q1.641,0,1.641-.969a.763.763,0,0,0-.141-.465,1.342,1.342,0,0,0-.379-.34,2.979,2.979,0,0,0-.562-.266q-.324-.117-.723-.266a7.651,7.651,0,0,1-.887-.414,2.679,2.679,0,0,1-.656-.5A1.873,1.873,0,0,1,98.6-5a2.316,2.316,0,0,1-.133-.82,1.9,1.9,0,0,1,.273-1.02,2.376,2.376,0,0,1,.734-.742,3.522,3.522,0,0,1,1.047-.453,4.793,4.793,0,0,1,1.211-.152,5.5,5.5,0,0,1,1.984.336v1.586a3.345,3.345,0,0,0-1.937-.578,2.53,2.53,0,0,0-.621.07,1.6,1.6,0,0,0-.473.2.961.961,0,0,0-.3.3.718.718,0,0,0-.109.387.826.826,0,0,0,.109.438.993.993,0,0,0,.324.316,2.8,2.8,0,0,0,.516.25q.3.113.691.246a10.1,10.1,0,0,1,.926.43,3.129,3.129,0,0,1,.7.5,1.945,1.945,0,0,1,.445.641,2.175,2.175,0,0,1,.156.863,1.973,1.973,0,0,1-.281,1.063,2.344,2.344,0,0,1-.75.75,3.511,3.511,0,0,1-1.082.441,5.621,5.621,0,0,1-1.293.145A5.448,5.448,0,0,1,98.461-.25Zm10.945.438a3.965,3.965,0,0,1-2.957-1.121,4.05,4.05,0,0,1-1.105-2.973A4.214,4.214,0,0,1,106.5-7.055,4.237,4.237,0,0,1,109.6-8.187a3.838,3.838,0,0,1,2.922,1.1,4.255,4.255,0,0,1,1.047,3.055,4.193,4.193,0,0,1-1.129,3.066A4.055,4.055,0,0,1,109.406.188Zm.086-6.93a2.069,2.069,0,0,0-1.68.742,3.108,3.108,0,0,0-.617,2.047,2.927,2.927,0,0,0,.625,1.98,2.1,2.1,0,0,0,1.672.723,1.992,1.992,0,0,0,1.645-.711,3.147,3.147,0,0,0,.574-2.023,3.2,3.2,0,0,0-.574-2.039A1.982,1.982,0,0,0,109.492-6.742ZM122.391,0h-1.812V-1.266h-.031A2.608,2.608,0,0,1,118.094.188q-2.836,0-2.836-3.406V-8h1.813v4.594q0,2.156,1.664,2.156a1.682,1.682,0,0,0,1.324-.594,2.275,2.275,0,0,0,.52-1.555V-8h1.813Zm7-6.273a1.5,1.5,0,0,0-.945-.258A1.618,1.618,0,0,0,127.1-5.8a3.249,3.249,0,0,0-.539,1.977V0H124.75V-8h1.813v1.648h.031a2.787,2.787,0,0,1,.816-1.316,1.843,1.843,0,0,1,1.23-.473,1.528,1.528,0,0,1,.75.148Zm6.867,5.906a4.47,4.47,0,0,1-2.273.555,3.85,3.85,0,0,1-2.875-1.113,3.944,3.944,0,0,1-1.094-2.887,4.341,4.341,0,0,1,1.176-3.176,4.2,4.2,0,0,1,3.145-1.2,4.59,4.59,0,0,1,1.93.383v1.688a2.923,2.923,0,0,0-1.781-.625,2.475,2.475,0,0,0-1.883.777,2.842,2.842,0,0,0-.734,2.035,2.71,2.71,0,0,0,.691,1.961,2.455,2.455,0,0,0,1.855.719,2.9,2.9,0,0,0,1.844-.7Zm8.57-3.141h-5.453a2.305,2.305,0,0,0,.684,1.711,2.543,2.543,0,0,0,1.793.6,3.954,3.954,0,0,0,2.352-.766V-.5a5.373,5.373,0,0,1-2.891.688,3.578,3.578,0,0,1-2.77-1.09,4.359,4.359,0,0,1-1-3.066,4.263,4.263,0,0,1,1.105-3.043,3.616,3.616,0,0,1,2.746-1.176,3.153,3.153,0,0,1,2.539,1.055,4.379,4.379,0,0,1,.9,2.93Zm-1.75-1.281a2.336,2.336,0,0,0-.461-1.52,1.54,1.54,0,0,0-1.25-.543,1.759,1.759,0,0,0-1.324.57,2.605,2.605,0,0,0-.668,1.492ZM146.055-.25V-1.93a3.616,3.616,0,0,0,2.242.773q1.641,0,1.641-.969a.763.763,0,0,0-.141-.465,1.342,1.342,0,0,0-.379-.34,2.979,2.979,0,0,0-.562-.266q-.324-.117-.723-.266a7.65,7.65,0,0,1-.887-.414,2.679,2.679,0,0,1-.656-.5A1.873,1.873,0,0,1,146.2-5a2.316,2.316,0,0,1-.133-.82,1.9,1.9,0,0,1,.273-1.02,2.376,2.376,0,0,1,.734-.742,3.522,3.522,0,0,1,1.047-.453,4.793,4.793,0,0,1,1.211-.152,5.5,5.5,0,0,1,1.984.336v1.586a3.345,3.345,0,0,0-1.937-.578,2.53,2.53,0,0,0-.621.07,1.6,1.6,0,0,0-.473.2.961.961,0,0,0-.3.3.718.718,0,0,0-.109.387.826.826,0,0,0,.109.438.993.993,0,0,0,.324.316,2.8,2.8,0,0,0,.516.25q.3.113.691.246a10.1,10.1,0,0,1,.926.43,3.128,3.128,0,0,1,.7.5,1.945,1.945,0,0,1,.445.641,2.175,2.175,0,0,1,.156.863,1.973,1.973,0,0,1-.281,1.063,2.344,2.344,0,0,1-.75.75,3.511,3.511,0,0,1-1.082.441,5.621,5.621,0,0,1-1.293.145A5.448,5.448,0,0,1,146.055-.25Z" transform="translate(30 149)" fill="#31313a"/>
    <path id="Ninties-2" data-name="Ninties" d="M10.125-.766a8.016,8.016,0,0,1-3.9.953A5.426,5.426,0,0,1,2.2-1.359,5.549,5.549,0,0,1,.664-5.453a5.753,5.753,0,0,1,1.684-4.27,5.824,5.824,0,0,1,4.277-1.668,7.966,7.966,0,0,1,3.141.547V-8.93A5.406,5.406,0,0,0,6.7-9.789a3.909,3.909,0,0,0-2.934,1.18A4.2,4.2,0,0,0,2.617-5.555,4.4,4.4,0,0,0,3.6-2.52,3.4,3.4,0,0,0,6.273-1.414a4.229,4.229,0,0,0,2-.445V-4.523H5.914V-6.086h4.211Zm8.984-2.742H13.656A2.305,2.305,0,0,0,14.34-1.8a2.543,2.543,0,0,0,1.793.6,3.954,3.954,0,0,0,2.352-.766V-.5a5.373,5.373,0,0,1-2.891.688A3.578,3.578,0,0,1,12.824-.9a4.359,4.359,0,0,1-1-3.066,4.263,4.263,0,0,1,1.105-3.043,3.616,3.616,0,0,1,2.746-1.176,3.153,3.153,0,0,1,2.539,1.055,4.379,4.379,0,0,1,.9,2.93Zm-1.75-1.281a2.336,2.336,0,0,0-.461-1.52,1.54,1.54,0,0,0-1.25-.543,1.759,1.759,0,0,0-1.324.57,2.605,2.605,0,0,0-.668,1.492ZM27.961,0H26.148V-4.508q0-2.242-1.586-2.242a1.731,1.731,0,0,0-1.367.621,2.3,2.3,0,0,0-.539,1.566V0h-1.82V-8h1.82v1.328h.031a2.851,2.851,0,0,1,2.594-1.516,2.416,2.416,0,0,1,1.992.848,3.806,3.806,0,0,1,.688,2.449Zm8.984-3.508H31.492A2.305,2.305,0,0,0,32.176-1.8a2.543,2.543,0,0,0,1.793.6,3.954,3.954,0,0,0,2.352-.766V-.5A5.373,5.373,0,0,1,33.43.188,3.578,3.578,0,0,1,30.66-.9a4.359,4.359,0,0,1-1-3.066,4.263,4.263,0,0,1,1.105-3.043,3.616,3.616,0,0,1,2.746-1.176,3.153,3.153,0,0,1,2.539,1.055,4.379,4.379,0,0,1,.9,2.93ZM35.2-4.789a2.336,2.336,0,0,0-.461-1.52,1.54,1.54,0,0,0-1.25-.543,1.759,1.759,0,0,0-1.324.57,2.605,2.605,0,0,0-.668,1.492Zm8.117-1.484a1.5,1.5,0,0,0-.945-.258,1.618,1.618,0,0,0-1.344.727,3.249,3.249,0,0,0-.539,1.977V0H38.672V-8h1.813v1.648h.031a2.787,2.787,0,0,1,.816-1.316,1.843,1.843,0,0,1,1.23-.473,1.528,1.528,0,0,1,.75.148ZM50.734,0H48.977V-1.25h-.031A2.647,2.647,0,0,1,46.516.188a2.559,2.559,0,0,1-1.848-.641A2.241,2.241,0,0,1,44-2.148q0-2.266,2.609-2.641l2.375-.336q0-1.711-1.625-1.711a3.86,3.86,0,0,0-2.578.984V-7.437a5.622,5.622,0,0,1,2.922-.75q3.031,0,3.031,2.984Zm-1.75-3.93L47.3-3.7a2.662,2.662,0,0,0-1.176.379,1.107,1.107,0,0,0-.395.973,1.065,1.065,0,0,0,.363.832,1.407,1.407,0,0,0,.973.324,1.8,1.8,0,0,0,1.371-.582,2.064,2.064,0,0,0,.543-1.465ZM54.766,0h-1.82V-11.844h1.82ZM67.117-11.2,61.7,1.859H60.055L65.445-11.2ZM74.383-1.18h-.031V3.68H72.539V-8h1.813v1.406h.031A2.97,2.97,0,0,1,77.1-8.187a2.864,2.864,0,0,1,2.375,1.07,4.489,4.489,0,0,1,.852,2.875,4.984,4.984,0,0,1-.961,3.2,3.178,3.178,0,0,1-2.625,1.2A2.621,2.621,0,0,1,74.383-1.18Zm-.047-3.156v.992a2.117,2.117,0,0,0,.559,1.484,1.84,1.84,0,0,0,1.418.609,1.852,1.852,0,0,0,1.582-.785,3.654,3.654,0,0,0,.574-2.191,2.88,2.88,0,0,0-.535-1.848,1.759,1.759,0,0,0-1.449-.668,1.953,1.953,0,0,0-1.559.688A2.547,2.547,0,0,0,74.336-4.336ZM85.727.188A3.965,3.965,0,0,1,82.77-.934a4.05,4.05,0,0,1-1.105-2.973,4.214,4.214,0,0,1,1.152-3.148,4.237,4.237,0,0,1,3.105-1.133,3.838,3.838,0,0,1,2.922,1.1,4.255,4.255,0,0,1,1.047,3.055A4.193,4.193,0,0,1,88.762-.965,4.055,4.055,0,0,1,85.727.188Zm.086-6.93A2.069,2.069,0,0,0,84.133-6a3.108,3.108,0,0,0-.617,2.047,2.927,2.927,0,0,0,.625,1.98,2.1,2.1,0,0,0,1.672.723,1.992,1.992,0,0,0,1.645-.711,3.147,3.147,0,0,0,.574-2.023,3.2,3.2,0,0,0-.574-2.039A1.982,1.982,0,0,0,85.813-6.742ZM93.555,0h-1.82V-11.844h1.82Zm3.273-9.68a1.09,1.09,0,0,1-.762-.289.951.951,0,0,1-.316-.734.975.975,0,0,1,.316-.742,1.074,1.074,0,0,1,.762-.3,1.107,1.107,0,0,1,.781.3.97.97,0,0,1,.32.742.956.956,0,0,1-.32.723A1.1,1.1,0,0,1,96.828-9.68Zm.9,9.68H95.914V-8h1.813Zm8.094-.367a4.47,4.47,0,0,1-2.273.555,3.85,3.85,0,0,1-2.875-1.113,3.944,3.944,0,0,1-1.094-2.887,4.341,4.341,0,0,1,1.176-3.176,4.2,4.2,0,0,1,3.145-1.2,4.59,4.59,0,0,1,1.93.383v1.688a2.923,2.923,0,0,0-1.781-.625,2.475,2.475,0,0,0-1.883.777,2.842,2.842,0,0,0-.734,2.035,2.71,2.71,0,0,0,.691,1.961,2.455,2.455,0,0,0,1.855.719,2.9,2.9,0,0,0,1.844-.7ZM114.547-8l-3.609,9.281q-1.125,2.484-3.156,2.484a3.784,3.784,0,0,1-.953-.1V2.156a2.535,2.535,0,0,0,.781.141,1.612,1.612,0,0,0,1.516-1l.539-1.312L106.484-8h2.008L110.4-2.187q.031.109.141.578h.039q.039-.18.141-.562l2-5.828Zm10.125-2.367a1.648,1.648,0,0,0-.836-.211q-1.32,0-1.32,1.492V-8h1.859v1.422h-1.852V0h-1.812V-6.578h-1.367V-8h1.367V-9.3a2.525,2.525,0,0,1,.828-2,3.016,3.016,0,0,1,2.07-.73,3.074,3.074,0,0,1,1.063.148ZM129.211.188a3.965,3.965,0,0,1-2.957-1.121,4.05,4.05,0,0,1-1.105-2.973A4.214,4.214,0,0,1,126.3-7.055a4.237,4.237,0,0,1,3.105-1.133,3.838,3.838,0,0,1,2.922,1.1,4.255,4.255,0,0,1,1.047,3.055,4.193,4.193,0,0,1-1.129,3.066A4.055,4.055,0,0,1,129.211.188Zm.086-6.93a2.069,2.069,0,0,0-1.68.742A3.108,3.108,0,0,0,127-3.953a2.927,2.927,0,0,0,.625,1.98,2.1,2.1,0,0,0,1.672.723,1.992,1.992,0,0,0,1.645-.711,3.147,3.147,0,0,0,.574-2.023,3.2,3.2,0,0,0-.574-2.039A1.982,1.982,0,0,0,129.3-6.742Zm10.563.469a1.5,1.5,0,0,0-.945-.258,1.618,1.618,0,0,0-1.344.727,3.249,3.249,0,0,0-.539,1.977V0h-1.812V-8h1.813v1.648h.031a2.787,2.787,0,0,1,.816-1.316,1.843,1.843,0,0,1,1.23-.473,1.528,1.528,0,0,1,.75.148ZM153.1,0h-1.812V-4.359a3.533,3.533,0,0,0-.355-1.82,1.308,1.308,0,0,0-1.2-.562,1.445,1.445,0,0,0-1.207.711,2.9,2.9,0,0,0-.5,1.7V0h-1.82V-4.508q0-2.234-1.578-2.234a1.424,1.424,0,0,0-1.207.672,2.963,2.963,0,0,0-.473,1.742V0h-1.812V-8h1.813v1.266h.031a2.771,2.771,0,0,1,2.523-1.453,2.379,2.379,0,0,1,1.449.457,2.276,2.276,0,0,1,.848,1.2,2.855,2.855,0,0,1,2.656-1.656q2.641,0,2.641,3.258Zm1.711-.25V-1.93a3.616,3.616,0,0,0,2.242.773q1.641,0,1.641-.969a.763.763,0,0,0-.141-.465,1.342,1.342,0,0,0-.379-.34,2.979,2.979,0,0,0-.562-.266q-.324-.117-.723-.266A7.65,7.65,0,0,1,156-3.875a2.679,2.679,0,0,1-.656-.5A1.873,1.873,0,0,1,154.953-5a2.316,2.316,0,0,1-.133-.82,1.9,1.9,0,0,1,.273-1.02,2.376,2.376,0,0,1,.734-.742,3.522,3.522,0,0,1,1.047-.453,4.793,4.793,0,0,1,1.211-.152,5.5,5.5,0,0,1,1.984.336v1.586a3.345,3.345,0,0,0-1.937-.578,2.53,2.53,0,0,0-.621.07,1.6,1.6,0,0,0-.473.2.961.961,0,0,0-.3.3.718.718,0,0,0-.109.387.826.826,0,0,0,.109.438.993.993,0,0,0,.324.316,2.8,2.8,0,0,0,.516.25q.3.113.691.246a10.1,10.1,0,0,1,.926.43,3.128,3.128,0,0,1,.7.5,1.945,1.945,0,0,1,.445.641,2.175,2.175,0,0,1,.156.863,1.973,1.973,0,0,1-.281,1.063,2.344,2.344,0,0,1-.75.75,3.511,3.511,0,0,1-1.082.441,5.621,5.621,0,0,1-1.293.145A5.448,5.448,0,0,1,154.813-.25Z" transform="translate(30 199)" fill="#31313a"/>
    <g id="Group_14630" data-name="Group 14630" transform="translate(10 -8)">
      <circle id="Ellipse_2012" data-name="Ellipse 2012" cx="18" cy="18" r="18" transform="translate(824 34)" fill="none"/>
      <path id="Path_23" data-name="Path 23" d="M1.821.321,6,4.5,10.179.321a1.036,1.036,0,0,1,1.5,0h0a1.036,1.036,0,0,1,0,1.5L6.536,6.964a.716.716,0,0,1-1.071,0L.321,1.821a1.036,1.036,0,0,1,0-1.5h0a1.036,1.036,0,0,1,1.5,0Z" transform="translate(836 48)" fill="rgba(61,61,61,0.56)"/>
    </g>
    <g id="Group_14631" data-name="Group 14631" transform="translate(10 -24)">
      <circle id="Ellipse_2012-2" data-name="Ellipse 2012" cx="18" cy="18" r="18" transform="translate(824 99)" fill="none"/>
      <path id="Path_23-2" data-name="Path 23" d="M1.821.321,6,4.5,10.179.321a1.036,1.036,0,0,1,1.5,0h0a1.036,1.036,0,0,1,0,1.5L6.536,6.964a.716.716,0,0,1-1.071,0L.321,1.821a1.036,1.036,0,0,1,0-1.5h0a1.036,1.036,0,0,1,1.5,0Z" transform="translate(836 113)" fill="rgba(61,61,61,0.56)"/>
    </g>
    <g id="Group_14632" data-name="Group 14632" transform="translate(10 -39)">
      <circle id="Ellipse_2012-3" data-name="Ellipse 2012" cx="18" cy="18" r="18" transform="translate(824 163)" fill="none"/>
      <path id="Path_23-3" data-name="Path 23" d="M1.821.321,6,4.5,10.179.321a1.036,1.036,0,0,1,1.5,0h0a1.036,1.036,0,0,1,0,1.5L6.536,6.964a.716.716,0,0,1-1.071,0L.321,1.821a1.036,1.036,0,0,1,0-1.5h0a1.036,1.036,0,0,1,1.5,0Z" transform="translate(836 177)" fill="rgba(61,61,61,0.56)"/>
    </g>
    <g id="Group_14633" data-name="Group 14633" transform="translate(10 11)">
      <circle id="Ellipse_2012-4" data-name="Ellipse 2012" cx="18" cy="18" r="18" transform="translate(824 163)" fill="none"/>
      <path id="Path_23-4" data-name="Path 23" d="M1.821.321,6,4.5,10.179.321a1.036,1.036,0,0,1,1.5,0h0a1.036,1.036,0,0,1,0,1.5L6.536,6.964a.716.716,0,0,1-1.071,0L.321,1.821a1.036,1.036,0,0,1,0-1.5h0a1.036,1.036,0,0,1,1.5,0Z" transform="translate(836 177)" fill="rgba(61,61,61,0.56)"/>
    </g>
    <path id="Seventies" d="M6,.188a5.039,5.039,0,0,1-3.879-1.57A5.768,5.768,0,0,1,.664-5.469,6.111,6.111,0,0,1,2.148-9.781,5.215,5.215,0,0,1,6.18-11.391a4.926,4.926,0,0,1,3.8,1.563,5.788,5.788,0,0,1,1.441,4.086A6.13,6.13,0,0,1,9.945-1.406,5.12,5.12,0,0,1,6,.188Zm.086-9.945a3.117,3.117,0,0,0-2.5,1.148,4.544,4.544,0,0,0-.965,3.023,4.587,4.587,0,0,0,.938,3.008A3.023,3.023,0,0,0,6.008-1.437,3.167,3.167,0,0,0,8.547-2.523a4.53,4.53,0,0,0,.93-3.039,4.75,4.75,0,0,0-.9-3.1A3.051,3.051,0,0,0,6.086-9.758ZM17.492-.086a3.141,3.141,0,0,1-1.4.266q-2.328,0-2.328-2.234V-6.578H12.43V-8h1.336V-9.852l1.813-.516V-8h1.914v1.422H15.578v4a1.576,1.576,0,0,0,.258,1.016,1.07,1.07,0,0,0,.859.3,1.246,1.246,0,0,0,.8-.266ZM26.164,0H24.352V-4.375q0-2.375-1.586-2.375a1.659,1.659,0,0,0-1.344.688A2.737,2.737,0,0,0,20.875-4.3V0h-1.82V-11.844h1.82v5.172h.031A2.862,2.862,0,0,1,23.5-8.187q2.664,0,2.664,3.258Zm8.977-3.508H29.688A2.305,2.305,0,0,0,30.371-1.8a2.543,2.543,0,0,0,1.793.6,3.954,3.954,0,0,0,2.352-.766V-.5a5.373,5.373,0,0,1-2.891.688A3.578,3.578,0,0,1,28.855-.9a4.359,4.359,0,0,1-1-3.066,4.263,4.263,0,0,1,1.105-3.043A3.616,3.616,0,0,1,31.7-8.187a3.153,3.153,0,0,1,2.539,1.055,4.379,4.379,0,0,1,.9,2.93Zm-1.75-1.281a2.336,2.336,0,0,0-.461-1.52,1.54,1.54,0,0,0-1.25-.543,1.759,1.759,0,0,0-1.324.57,2.605,2.605,0,0,0-.668,1.492Zm8.117-1.484a1.5,1.5,0,0,0-.945-.258,1.618,1.618,0,0,0-1.344.727,3.249,3.249,0,0,0-.539,1.977V0H36.867V-8H38.68v1.648h.031a2.787,2.787,0,0,1,.816-1.316,1.843,1.843,0,0,1,1.23-.473,1.528,1.528,0,0,1,.75.148ZM48.1-9.68a1.09,1.09,0,0,1-.762-.289.951.951,0,0,1-.316-.734.975.975,0,0,1,.316-.742,1.074,1.074,0,0,1,.762-.3,1.107,1.107,0,0,1,.781.3.97.97,0,0,1,.32.742.956.956,0,0,1-.32.723A1.1,1.1,0,0,1,48.1-9.68ZM49,0H47.188V-8H49Zm9.492,0H56.68V-4.508q0-2.242-1.586-2.242a1.731,1.731,0,0,0-1.367.621,2.3,2.3,0,0,0-.539,1.566V0h-1.82V-8h1.82v1.328h.031a2.851,2.851,0,0,1,2.594-1.516A2.416,2.416,0,0,1,57.8-7.34a3.806,3.806,0,0,1,.688,2.449Zm6.734-10.367a1.648,1.648,0,0,0-.836-.211q-1.32,0-1.32,1.492V-8H64.93v1.422H63.078V0H61.266V-6.578H59.9V-8h1.367V-9.3a2.525,2.525,0,0,1,.828-2,3.016,3.016,0,0,1,2.07-.73,3.074,3.074,0,0,1,1.063.148ZM69.766.188A3.965,3.965,0,0,1,66.809-.934,4.05,4.05,0,0,1,65.7-3.906a4.214,4.214,0,0,1,1.152-3.148,4.237,4.237,0,0,1,3.105-1.133,3.838,3.838,0,0,1,2.922,1.1A4.255,4.255,0,0,1,73.93-4.031,4.193,4.193,0,0,1,72.8-.965,4.055,4.055,0,0,1,69.766.188Zm.086-6.93A2.069,2.069,0,0,0,68.172-6a3.108,3.108,0,0,0-.617,2.047,2.927,2.927,0,0,0,.625,1.98,2.1,2.1,0,0,0,1.672.723A1.992,1.992,0,0,0,71.5-1.961a3.147,3.147,0,0,0,.574-2.023A3.2,3.2,0,0,0,71.5-6.023,1.982,1.982,0,0,0,69.852-6.742Zm10.563.469a1.5,1.5,0,0,0-.945-.258,1.618,1.618,0,0,0-1.344.727,3.249,3.249,0,0,0-.539,1.977V0H75.773V-8h1.813v1.648h.031a2.787,2.787,0,0,1,.816-1.316,1.843,1.843,0,0,1,1.23-.473,1.528,1.528,0,0,1,.75.148ZM93.656,0H91.844V-4.359a3.533,3.533,0,0,0-.355-1.82,1.308,1.308,0,0,0-1.2-.562,1.445,1.445,0,0,0-1.207.711,2.9,2.9,0,0,0-.5,1.7V0h-1.82V-4.508q0-2.234-1.578-2.234a1.424,1.424,0,0,0-1.207.672,2.963,2.963,0,0,0-.473,1.742V0H81.7V-8h1.813v1.266h.031a2.771,2.771,0,0,1,2.523-1.453,2.379,2.379,0,0,1,1.449.457,2.276,2.276,0,0,1,.848,1.2,2.855,2.855,0,0,1,2.656-1.656q2.641,0,2.641,3.258Zm8.352,0H100.25V-1.25h-.031A2.647,2.647,0,0,1,97.789.188a2.559,2.559,0,0,1-1.848-.641,2.241,2.241,0,0,1-.668-1.7q0-2.266,2.609-2.641l2.375-.336q0-1.711-1.625-1.711a3.86,3.86,0,0,0-2.578.984V-7.437a5.622,5.622,0,0,1,2.922-.75q3.031,0,3.031,2.984Zm-1.75-3.93-1.68.234a2.662,2.662,0,0,0-1.176.379,1.107,1.107,0,0,0-.395.973,1.065,1.065,0,0,0,.363.832,1.407,1.407,0,0,0,.973.324,1.8,1.8,0,0,0,1.371-.582,2.064,2.064,0,0,0,.543-1.465Zm8.18,3.844a3.141,3.141,0,0,1-1.4.266q-2.328,0-2.328-2.234V-6.578h-1.336V-8h1.336V-9.852l1.813-.516V-8h1.914v1.422h-1.914v4a1.576,1.576,0,0,0,.258,1.016,1.07,1.07,0,0,0,.859.3,1.246,1.246,0,0,0,.8-.266Zm2.477-9.594a1.09,1.09,0,0,1-.762-.289.951.951,0,0,1-.316-.734.975.975,0,0,1,.316-.742,1.074,1.074,0,0,1,.762-.3,1.107,1.107,0,0,1,.781.3.97.97,0,0,1,.32.742.956.956,0,0,1-.32.723A1.1,1.1,0,0,1,110.914-9.68Zm.9,9.68H110V-8h1.813Zm5.914.188A3.965,3.965,0,0,1,114.77-.934a4.05,4.05,0,0,1-1.105-2.973,4.214,4.214,0,0,1,1.152-3.148,4.237,4.237,0,0,1,3.105-1.133,3.838,3.838,0,0,1,2.922,1.1,4.255,4.255,0,0,1,1.047,3.055,4.193,4.193,0,0,1-1.129,3.066A4.055,4.055,0,0,1,117.727.188Zm.086-6.93a2.069,2.069,0,0,0-1.68.742,3.108,3.108,0,0,0-.617,2.047,2.927,2.927,0,0,0,.625,1.98,2.1,2.1,0,0,0,1.672.723,1.992,1.992,0,0,0,1.645-.711,3.147,3.147,0,0,0,.574-2.023,3.2,3.2,0,0,0-.574-2.039A1.982,1.982,0,0,0,117.813-6.742ZM130.859,0h-1.812V-4.508q0-2.242-1.586-2.242a1.731,1.731,0,0,0-1.367.621,2.3,2.3,0,0,0-.539,1.566V0h-1.82V-8h1.82v1.328h.031a2.851,2.851,0,0,1,2.594-1.516,2.416,2.416,0,0,1,1.992.848,3.806,3.806,0,0,1,.688,2.449Z" transform="translate(30 51)" fill="#31313a"/>
    <rect id="Rectangle_58" data-name="Rectangle 58" width="860" height="1" transform="translate(20 117)" fill="#e6e6ea"/>
    <rect id="Rectangle_58-2" data-name="Rectangle 58" width="860" height="1" transform="translate(20 167)" fill="#e6e6ea"/>
  </g>
</svg>
