<svg xmlns="http://www.w3.org/2000/svg" xmlns:xlink="http://www.w3.org/1999/xlink" width="900" height="500" viewBox="0 0 900 500">
  <defs>
    <filter id="Rectangle_53" x="15.5" y="16.5" width="869" height="203" filterUnits="userSpaceOnUse">
      <feOffset dy="1" input="SourceAlpha"/>
      <feGaussianBlur stdDeviation="1.5" result="blur"/>
      <feFlood flood-opacity="0.161"/>
      <feComposite operator="in" in2="blur"/>
      <feComposite in="SourceGraphic"/>
    </filter>
    <clipPath id="clip-basic-expander--with-header-details-collapsed">
      <rect width="900" height="500"/>
    </clipPath>
  </defs>
  <g id="basic-expander--with-header-details-collapsed" clip-path="url(#clip-basic-expander--with-header-details-collapsed)">
    <rect width="900" height="500" fill="#f9f9fa"/>
    <g transform="matrix(1, 0, 0, 1, 0, 0)" filter="url(#Rectangle_53)">
      <path id="Rectangle_53-2" data-name="Rectangle 53" d="M2,0H858a2,2,0,0,1,2,2V192a2,2,0,0,1-2,2H2a2,2,0,0,1-2-2V2A2,2,0,0,1,2,0Z" transform="translate(20 20)" fill="#fff"/>
    </g>
    <circle id="Ellipse_2012" data-name="Ellipse 2012" cx="18" cy="18" r="18" transform="translate(834 26)" fill="none"/>
    <path id="Path_23" data-name="Path 23" d="M1.821.321,6,4.5,10.179.321a1.036,1.036,0,0,1,1.5,0h0a1.036,1.036,0,0,1,0,1.5L6.536,6.964a.716.716,0,0,1-1.071,0L.321,1.821a1.036,1.036,0,0,1,0-1.5h0a1.036,1.036,0,0,1,1.5,0Z" transform="translate(846 40)" fill="rgba(61,61,61,0.56)"/>
    <circle id="Ellipse_2012-2" data-name="Ellipse 2012" cx="18" cy="18" r="18" transform="translate(834 74)" fill="none"/>
    <path id="Path_23-2" data-name="Path 23" d="M1.821.321,6,4.5,10.179.321a1.036,1.036,0,0,1,1.5,0h0a1.036,1.036,0,0,1,0,1.5L6.536,6.964a.716.716,0,0,1-1.071,0L.321,1.821a1.036,1.036,0,0,1,0-1.5h0a1.036,1.036,0,0,1,1.5,0Z" transform="translate(846 88)" fill="rgba(61,61,61,0.56)"/>
    <path id="Rectangle_55" data-name="Rectangle 55" d="M0,0H860V46.5c0,.828-1.129,1.5-2.522,1.5H2.522C1.129,48,0,47.328,0,46.5Z" transform="translate(20 166)" fill="#fff"/>
    <circle id="Ellipse_2012-3" data-name="Ellipse 2012" cx="18" cy="18" r="18" transform="translate(834 123)" fill="none"/>
    <path id="Path_23-3" data-name="Path 23" d="M1.821.321,6,4.5,10.179.321a1.036,1.036,0,0,1,1.5,0h0a1.036,1.036,0,0,1,0,1.5L6.536,6.964a.716.716,0,0,1-1.071,0L.321,1.821a1.036,1.036,0,0,1,0-1.5h0a1.036,1.036,0,0,1,1.5,0Z" transform="translate(846 137)" fill="rgba(61,61,61,0.56)"/>
    <circle id="Ellipse_2012-4" data-name="Ellipse 2012" cx="18" cy="18" r="18" transform="translate(834 172)" fill="none"/>
    <path id="Path_23-4" data-name="Path 23" d="M1.821.321,6,4.5,10.179.321a1.036,1.036,0,0,1,1.5,0h0a1.036,1.036,0,0,1,0,1.5L6.536,6.964a.716.716,0,0,1-1.071,0L.321,1.821a1.036,1.036,0,0,1,0-1.5h0a1.036,1.036,0,0,1,1.5,0Z" transform="translate(846 186)" fill="rgba(61,61,61,0.56)"/>
    <path id="Rectangle_58" data-name="Rectangle 58" d="M0,0H860V1H0Z" transform="translate(20 165)" fill="#e6e6ea"/>
    <path id="Rectangle_58-2" data-name="Rectangle 58" d="M0,0H860V1H0Z" transform="translate(20 68)" fill="#e6e6ea"/>
    <path id="Rectangle_58-3" data-name="Rectangle 58" d="M0,0H860V1H0Z" transform="translate(20 116)" fill="#e6e6ea"/>
    <path id="Eighties" d="M10.586,0H8.547L7.539-2.852H3.133L2.164,0H.133l4.2-11.2H6.422ZM7.047-4.367,5.492-8.836a5.293,5.293,0,0,1-.148-.7H5.313a4.573,4.573,0,0,1-.156.7L3.617-4.367ZM19.2-.641q0,4.406-4.43,4.406a6.6,6.6,0,0,1-2.727-.523V1.586a5.045,5.045,0,0,0,2.492.75q2.852,0,2.852-2.8v-.875h-.031a2.935,2.935,0,0,1-2.7,1.531A2.924,2.924,0,0,1,12.3-.879a4.312,4.312,0,0,1-.895-2.863,5.05,5.05,0,0,1,.961-3.242,3.2,3.2,0,0,1,2.641-1.2,2.545,2.545,0,0,1,2.352,1.3h.031V-8H19.2Zm-1.8-3.023V-4.7a2.036,2.036,0,0,0-.559-1.441,1.83,1.83,0,0,0-1.395-.6,1.916,1.916,0,0,0-1.613.762,3.437,3.437,0,0,0-.582,2.129,2.959,2.959,0,0,0,.559,1.887,1.793,1.793,0,0,0,1.48.707,1.921,1.921,0,0,0,1.523-.676A2.546,2.546,0,0,0,17.406-3.664Zm10.93.156H22.883A2.305,2.305,0,0,0,23.566-1.8a2.543,2.543,0,0,0,1.793.6,3.954,3.954,0,0,0,2.352-.766V-.5A5.373,5.373,0,0,1,24.82.188,3.578,3.578,0,0,1,22.051-.9a4.359,4.359,0,0,1-1-3.066,4.263,4.263,0,0,1,1.105-3.043A3.616,3.616,0,0,1,24.9-8.187a3.153,3.153,0,0,1,2.539,1.055,4.379,4.379,0,0,1,.9,2.93Zm-1.75-1.281a2.336,2.336,0,0,0-.461-1.52,1.54,1.54,0,0,0-1.25-.543,1.759,1.759,0,0,0-1.324.57,2.605,2.605,0,0,0-.668,1.492ZM37.188,0H35.375V-4.508q0-2.242-1.586-2.242a1.731,1.731,0,0,0-1.367.621,2.3,2.3,0,0,0-.539,1.566V0h-1.82V-8h1.82v1.328h.031a2.851,2.851,0,0,1,2.594-1.516A2.416,2.416,0,0,1,36.5-7.34a3.806,3.806,0,0,1,.688,2.449Zm7.938-.367a4.47,4.47,0,0,1-2.273.555A3.85,3.85,0,0,1,39.977-.926a3.944,3.944,0,0,1-1.094-2.887,4.341,4.341,0,0,1,1.176-3.176,4.2,4.2,0,0,1,3.145-1.2,4.59,4.59,0,0,1,1.93.383v1.688a2.923,2.923,0,0,0-1.781-.625,2.475,2.475,0,0,0-1.883.777,2.842,2.842,0,0,0-.734,2.035,2.71,2.71,0,0,0,.691,1.961,2.455,2.455,0,0,0,1.855.719,2.9,2.9,0,0,0,1.844-.7ZM53.852-8,50.242,1.281q-1.125,2.484-3.156,2.484a3.784,3.784,0,0,1-.953-.1V2.156a2.535,2.535,0,0,0,.781.141,1.612,1.612,0,0,0,1.516-1l.539-1.312L45.789-8H47.8L49.7-2.187q.031.109.141.578h.039q.039-.18.141-.562l2-5.828ZM71.688,0H69.844V-7.25q0-.891.109-2.18h-.031a7.528,7.528,0,0,1-.3,1.055L66.273,0H64.992L61.641-8.312a7.83,7.83,0,0,1-.3-1.117h-.031q.063.672.063,2.2V0H59.656V-11.2h2.617l2.945,7.461a11.034,11.034,0,0,1,.438,1.281H65.7q.289-.883.469-1.312l3-7.43h2.523Zm8.7,0H78.625V-1.25h-.031A2.647,2.647,0,0,1,76.164.188a2.559,2.559,0,0,1-1.848-.641,2.241,2.241,0,0,1-.668-1.7q0-2.266,2.609-2.641l2.375-.336q0-1.711-1.625-1.711a3.86,3.86,0,0,0-2.578.984V-7.437a5.622,5.622,0,0,1,2.922-.75q3.031,0,3.031,2.984Zm-1.75-3.93-1.68.234a2.662,2.662,0,0,0-1.176.379,1.107,1.107,0,0,0-.395.973,1.065,1.065,0,0,0,.363.832,1.407,1.407,0,0,0,.973.324A1.8,1.8,0,0,0,78.09-1.77a2.064,2.064,0,0,0,.543-1.465Zm8.6-2.344a1.5,1.5,0,0,0-.945-.258,1.618,1.618,0,0,0-1.344.727,3.249,3.249,0,0,0-.539,1.977V0H82.594V-8h1.813v1.648h.031a2.787,2.787,0,0,1,.816-1.316,1.843,1.843,0,0,1,1.23-.473,1.528,1.528,0,0,1,.75.148ZM95.773,0h-2.3L90.367-3.844h-.031V0h-1.82V-11.844h1.82v7.508h.031L93.3-8h2.18l-3.3,3.859Zm7.633-3.508H97.953A2.305,2.305,0,0,0,98.637-1.8a2.543,2.543,0,0,0,1.793.6,3.954,3.954,0,0,0,2.352-.766V-.5a5.373,5.373,0,0,1-2.891.688A3.578,3.578,0,0,1,97.121-.9a4.359,4.359,0,0,1-1-3.066,4.263,4.263,0,0,1,1.105-3.043,3.616,3.616,0,0,1,2.746-1.176,3.153,3.153,0,0,1,2.539,1.055,4.379,4.379,0,0,1,.9,2.93Zm-1.75-1.281a2.336,2.336,0,0,0-.461-1.52,1.54,1.54,0,0,0-1.25-.543,1.759,1.759,0,0,0-1.324.57,2.605,2.605,0,0,0-.668,1.492Zm7.7,4.7a3.141,3.141,0,0,1-1.4.266q-2.328,0-2.328-2.234V-6.578h-1.336V-8h1.336V-9.852l1.813-.516V-8h1.914v1.422h-1.914v4a1.576,1.576,0,0,0,.258,1.016,1.07,1.07,0,0,0,.859.3,1.246,1.246,0,0,0,.8-.266Zm2.477-9.594a1.09,1.09,0,0,1-.762-.289.951.951,0,0,1-.316-.734.975.975,0,0,1,.316-.742,1.074,1.074,0,0,1,.762-.3,1.107,1.107,0,0,1,.781.3.97.97,0,0,1,.32.742.956.956,0,0,1-.32.723A1.1,1.1,0,0,1,111.828-9.68Zm.9,9.68h-1.812V-8h1.813Zm9.492,0h-1.812V-4.508q0-2.242-1.586-2.242a1.731,1.731,0,0,0-1.367.621,2.3,2.3,0,0,0-.539,1.566V0h-1.82V-8h1.82v1.328h.031a2.851,2.851,0,0,1,2.594-1.516,2.416,2.416,0,0,1,1.992.848,3.806,3.806,0,0,1,.688,2.449Zm9.492-.641q0,4.406-4.43,4.406a6.6,6.6,0,0,1-2.727-.523V1.586a5.045,5.045,0,0,0,2.492.75q2.852,0,2.852-2.8v-.875h-.031a2.935,2.935,0,0,1-2.7,1.531,2.924,2.924,0,0,1-2.355-1.066,4.312,4.312,0,0,1-.895-2.863,5.05,5.05,0,0,1,.961-3.242,3.2,3.2,0,0,1,2.641-1.2,2.545,2.545,0,0,1,2.352,1.3h.031V-8h1.813Zm-1.8-3.023V-4.7a2.036,2.036,0,0,0-.559-1.441,1.83,1.83,0,0,0-1.395-.6,1.916,1.916,0,0,0-1.613.762,3.437,3.437,0,0,0-.582,2.129,2.959,2.959,0,0,0,.559,1.887,1.793,1.793,0,0,0,1.48.707,1.921,1.921,0,0,0,1.523-.676A2.546,2.546,0,0,0,129.914-3.664ZM144.609,0h-1.758V-1.25h-.031a2.647,2.647,0,0,1-2.43,1.438,2.559,2.559,0,0,1-1.848-.641,2.241,2.241,0,0,1-.668-1.7q0-2.266,2.609-2.641l2.375-.336q0-1.711-1.625-1.711a3.86,3.86,0,0,0-2.578.984V-7.437a5.622,5.622,0,0,1,2.922-.75q3.031,0,3.031,2.984Zm-1.75-3.93-1.68.234A2.662,2.662,0,0,0,140-3.316a1.107,1.107,0,0,0-.395.973,1.065,1.065,0,0,0,.363.832,1.407,1.407,0,0,0,.973.324,1.8,1.8,0,0,0,1.371-.582,2.064,2.064,0,0,0,.543-1.465ZM153.945,0h-1.812V-4.508q0-2.242-1.586-2.242a1.732,1.732,0,0,0-1.367.621,2.3,2.3,0,0,0-.539,1.566V0h-1.82V-8h1.82v1.328h.031a2.851,2.851,0,0,1,2.594-1.516,2.416,2.416,0,0,1,1.992.848,3.806,3.806,0,0,1,.688,2.449Zm9.484,0h-1.812V-1.359h-.031a2.891,2.891,0,0,1-2.7,1.547,2.909,2.909,0,0,1-2.363-1.074,4.459,4.459,0,0,1-.887-2.926,4.858,4.858,0,0,1,.98-3.18,3.209,3.209,0,0,1,2.613-1.2,2.5,2.5,0,0,1,2.352,1.3h.031v-4.953h1.813Zm-1.789-3.656V-4.7a2.04,2.04,0,0,0-.555-1.445,1.85,1.85,0,0,0-1.414-.594,1.9,1.9,0,0,0-1.6.758,3.377,3.377,0,0,0-.582,2.1,3.026,3.026,0,0,0,.559,1.926,1.817,1.817,0,0,0,1.5.707,1.881,1.881,0,0,0,1.508-.684A2.575,2.575,0,0,0,161.641-3.656Zm10.609-.406V0H170.4V-11.2h3.4a4.5,4.5,0,0,1,2.992.9,3.133,3.133,0,0,1,1.063,2.531A3.5,3.5,0,0,1,176.742-5.1a4.212,4.212,0,0,1-3,1.039Zm0-5.609v4.094h1.2a2.661,2.661,0,0,0,1.82-.555A1.98,1.98,0,0,0,175.9-7.7q0-1.977-2.3-1.977Zm11.938,3.4a1.5,1.5,0,0,0-.945-.258A1.618,1.618,0,0,0,181.9-5.8a3.249,3.249,0,0,0-.539,1.977V0h-1.812V-8h1.813v1.648h.031a2.787,2.787,0,0,1,.816-1.316,1.843,1.843,0,0,1,1.23-.473,1.528,1.528,0,0,1,.75.148ZM188.875.188a3.965,3.965,0,0,1-2.957-1.121,4.05,4.05,0,0,1-1.105-2.973,4.214,4.214,0,0,1,1.152-3.148,4.237,4.237,0,0,1,3.105-1.133,3.838,3.838,0,0,1,2.922,1.1,4.255,4.255,0,0,1,1.047,3.055A4.193,4.193,0,0,1,191.91-.965,4.055,4.055,0,0,1,188.875.188Zm.086-6.93a2.069,2.069,0,0,0-1.68.742,3.108,3.108,0,0,0-.617,2.047,2.927,2.927,0,0,0,.625,1.98,2.1,2.1,0,0,0,1.672.723,1.992,1.992,0,0,0,1.645-.711,3.147,3.147,0,0,0,.574-2.023,3.2,3.2,0,0,0-.574-2.039A1.982,1.982,0,0,0,188.961-6.742ZM194.383-.25V-1.93a3.616,3.616,0,0,0,2.242.773q1.641,0,1.641-.969a.763.763,0,0,0-.141-.465,1.342,1.342,0,0,0-.379-.34,2.979,2.979,0,0,0-.562-.266q-.324-.117-.723-.266a7.65,7.65,0,0,1-.887-.414,2.679,2.679,0,0,1-.656-.5A1.873,1.873,0,0,1,194.523-5a2.316,2.316,0,0,1-.133-.82,1.9,1.9,0,0,1,.273-1.02,2.376,2.376,0,0,1,.734-.742,3.522,3.522,0,0,1,1.047-.453,4.793,4.793,0,0,1,1.211-.152,5.5,5.5,0,0,1,1.984.336v1.586a3.345,3.345,0,0,0-1.937-.578,2.53,2.53,0,0,0-.621.07,1.6,1.6,0,0,0-.473.2.961.961,0,0,0-.3.3.718.718,0,0,0-.109.387.826.826,0,0,0,.109.438.993.993,0,0,0,.324.316,2.8,2.8,0,0,0,.516.25q.3.113.691.246a10.1,10.1,0,0,1,.926.43,3.128,3.128,0,0,1,.7.5,1.945,1.945,0,0,1,.445.641,2.175,2.175,0,0,1,.156.863,1.973,1.973,0,0,1-.281,1.063,2.344,2.344,0,0,1-.75.75,3.511,3.511,0,0,1-1.082.441,5.621,5.621,0,0,1-1.293.145A5.448,5.448,0,0,1,194.383-.25Zm9.242-.93h-.031V3.68h-1.812V-8h1.813v1.406h.031a2.97,2.97,0,0,1,2.719-1.594,2.864,2.864,0,0,1,2.375,1.07,4.489,4.489,0,0,1,.852,2.875,4.984,4.984,0,0,1-.961,3.2,3.178,3.178,0,0,1-2.625,1.2A2.621,2.621,0,0,1,203.625-1.18Zm-.047-3.156v.992a2.117,2.117,0,0,0,.559,1.484,1.84,1.84,0,0,0,1.418.609,1.852,1.852,0,0,0,1.582-.785,3.654,3.654,0,0,0,.574-2.191,2.88,2.88,0,0,0-.535-1.848,1.759,1.759,0,0,0-1.449-.668,1.953,1.953,0,0,0-1.559.688A2.547,2.547,0,0,0,203.578-4.336Zm14.617.828h-5.453a2.305,2.305,0,0,0,.684,1.711,2.543,2.543,0,0,0,1.793.6,3.954,3.954,0,0,0,2.352-.766V-.5a5.373,5.373,0,0,1-2.891.688A3.578,3.578,0,0,1,211.91-.9a4.359,4.359,0,0,1-1-3.066,4.263,4.263,0,0,1,1.105-3.043,3.616,3.616,0,0,1,2.746-1.176A3.153,3.153,0,0,1,217.3-7.133a4.379,4.379,0,0,1,.9,2.93Zm-1.75-1.281a2.336,2.336,0,0,0-.461-1.52,1.54,1.54,0,0,0-1.25-.543,1.759,1.759,0,0,0-1.324.57,2.605,2.605,0,0,0-.668,1.492Zm9.2,4.422a4.47,4.47,0,0,1-2.273.555A3.85,3.85,0,0,1,220.5-.926a3.944,3.944,0,0,1-1.094-2.887,4.341,4.341,0,0,1,1.176-3.176,4.2,4.2,0,0,1,3.145-1.2,4.59,4.59,0,0,1,1.93.383v1.688a2.923,2.923,0,0,0-1.781-.625,2.475,2.475,0,0,0-1.883.777,2.842,2.842,0,0,0-.734,2.035,2.71,2.71,0,0,0,.691,1.961,2.455,2.455,0,0,0,1.855.719,2.9,2.9,0,0,0,1.844-.7Zm6.016.281a3.141,3.141,0,0,1-1.4.266q-2.328,0-2.328-2.234V-6.578H226.6V-8h1.336V-9.852l1.813-.516V-8h1.914v1.422H229.75v4a1.576,1.576,0,0,0,.258,1.016,1.07,1.07,0,0,0,.859.3,1.246,1.246,0,0,0,.8-.266Zm2.477-9.594a1.09,1.09,0,0,1-.762-.289.951.951,0,0,1-.316-.734.975.975,0,0,1,.316-.742,1.074,1.074,0,0,1,.762-.3,1.107,1.107,0,0,1,.781.3.97.97,0,0,1,.32.742.956.956,0,0,1-.32.723A1.1,1.1,0,0,1,234.141-9.68Zm.9,9.68h-1.812V-8h1.813Zm9.492,0h-1.812V-4.508q0-2.242-1.586-2.242a1.732,1.732,0,0,0-1.367.621,2.3,2.3,0,0,0-.539,1.566V0h-1.82V-8h1.82v1.328h.031a2.851,2.851,0,0,1,2.594-1.516,2.416,2.416,0,0,1,1.992.848,3.806,3.806,0,0,1,.688,2.449Zm9.492-.641q0,4.406-4.43,4.406a6.6,6.6,0,0,1-2.727-.523V1.586a5.045,5.045,0,0,0,2.492.75q2.852,0,2.852-2.8v-.875h-.031a2.935,2.935,0,0,1-2.7,1.531,2.924,2.924,0,0,1-2.355-1.066,4.312,4.312,0,0,1-.895-2.863,5.05,5.05,0,0,1,.961-3.242,3.2,3.2,0,0,1,2.641-1.2,2.545,2.545,0,0,1,2.352,1.3h.031V-8h1.813Zm-1.8-3.023V-4.7a2.036,2.036,0,0,0-.559-1.441,1.83,1.83,0,0,0-1.395-.6,1.916,1.916,0,0,0-1.613.762,3.437,3.437,0,0,0-.582,2.129,2.959,2.959,0,0,0,.559,1.887,1.793,1.793,0,0,0,1.48.707,1.921,1.921,0,0,0,1.523-.676A2.546,2.546,0,0,0,252.227-3.664Z" transform="translate(30 99)" fill="#31313a"/>
    <path id="Ninties" d="M1.383,0V-11.2H4.938a4.2,4.2,0,0,1,2.574.711,2.21,2.21,0,0,1,.949,1.852,2.644,2.644,0,0,1-.539,1.656,2.908,2.908,0,0,1-1.492,1v.031A2.924,2.924,0,0,1,8.277-5.1a2.605,2.605,0,0,1,.691,1.879A2.822,2.822,0,0,1,7.836-.891,4.485,4.485,0,0,1,4.977,0ZM3.234-9.711v3.188h1.2a2.311,2.311,0,0,0,1.52-.457,1.586,1.586,0,0,0,.551-1.293q0-1.437-1.922-1.437Zm0,4.68v3.547H4.82a2.412,2.412,0,0,0,1.605-.48,1.644,1.644,0,0,0,.566-1.324q0-1.742-2.414-1.742ZM17.617-3.508H12.164A2.305,2.305,0,0,0,12.848-1.8a2.543,2.543,0,0,0,1.793.6,3.954,3.954,0,0,0,2.352-.766V-.5A5.373,5.373,0,0,1,14.1.188,3.578,3.578,0,0,1,11.332-.9a4.359,4.359,0,0,1-1-3.066,4.263,4.263,0,0,1,1.105-3.043A3.616,3.616,0,0,1,14.18-8.187a3.153,3.153,0,0,1,2.539,1.055,4.379,4.379,0,0,1,.9,2.93Zm-1.75-1.281a2.336,2.336,0,0,0-.461-1.52,1.54,1.54,0,0,0-1.25-.543,1.759,1.759,0,0,0-1.324.57,2.605,2.605,0,0,0-.668,1.492ZM26.469,0H24.656V-4.508q0-2.242-1.586-2.242a1.731,1.731,0,0,0-1.367.621,2.3,2.3,0,0,0-.539,1.566V0h-1.82V-8h1.82v1.328H21.2a2.851,2.851,0,0,1,2.594-1.516,2.416,2.416,0,0,1,1.992.848,3.806,3.806,0,0,1,.688,2.449Zm8.984-3.508H30A2.305,2.305,0,0,0,30.684-1.8a2.543,2.543,0,0,0,1.793.6,3.954,3.954,0,0,0,2.352-.766V-.5a5.373,5.373,0,0,1-2.891.688A3.578,3.578,0,0,1,29.168-.9a4.359,4.359,0,0,1-1-3.066A4.263,4.263,0,0,1,29.27-7.012a3.616,3.616,0,0,1,2.746-1.176,3.153,3.153,0,0,1,2.539,1.055,4.379,4.379,0,0,1,.9,2.93ZM33.7-4.789a2.336,2.336,0,0,0-.461-1.52,1.54,1.54,0,0,0-1.25-.543,1.759,1.759,0,0,0-1.324.57A2.605,2.605,0,0,0,30-4.789Zm8-5.578a1.648,1.648,0,0,0-.836-.211q-1.32,0-1.32,1.492V-8h1.859v1.422H39.555V0H37.742V-6.578H36.375V-8h1.367V-9.3a2.525,2.525,0,0,1,.828-2,3.016,3.016,0,0,1,2.07-.73,3.074,3.074,0,0,1,1.063.148Zm1.906.688a1.09,1.09,0,0,1-.762-.289.951.951,0,0,1-.316-.734.975.975,0,0,1,.316-.742,1.074,1.074,0,0,1,.762-.3,1.107,1.107,0,0,1,.781.3.97.97,0,0,1,.32.742.956.956,0,0,1-.32.723A1.1,1.1,0,0,1,43.609-9.68Zm.9,9.68H42.7V-8h1.813Zm6.586-.086A3.141,3.141,0,0,1,49.7.18q-2.328,0-2.328-2.234V-6.578H46.031V-8h1.336V-9.852l1.813-.516V-8h1.914v1.422H49.18v4a1.576,1.576,0,0,0,.258,1.016,1.07,1.07,0,0,0,.859.3,1.246,1.246,0,0,0,.8-.266ZM52.156-.25V-1.93a3.616,3.616,0,0,0,2.242.773q1.641,0,1.641-.969A.763.763,0,0,0,55.9-2.59a1.342,1.342,0,0,0-.379-.34,2.979,2.979,0,0,0-.562-.266q-.324-.117-.723-.266a7.65,7.65,0,0,1-.887-.414,2.679,2.679,0,0,1-.656-.5A1.873,1.873,0,0,1,52.3-5a2.316,2.316,0,0,1-.133-.82,1.9,1.9,0,0,1,.273-1.02,2.376,2.376,0,0,1,.734-.742,3.522,3.522,0,0,1,1.047-.453,4.793,4.793,0,0,1,1.211-.152,5.5,5.5,0,0,1,1.984.336v1.586a3.345,3.345,0,0,0-1.937-.578,2.53,2.53,0,0,0-.621.07,1.6,1.6,0,0,0-.473.2.961.961,0,0,0-.3.3.718.718,0,0,0-.109.387.826.826,0,0,0,.109.438.993.993,0,0,0,.324.316,2.8,2.8,0,0,0,.516.25q.3.113.691.246a10.1,10.1,0,0,1,.926.43,3.129,3.129,0,0,1,.7.5,1.945,1.945,0,0,1,.445.641,2.175,2.175,0,0,1,.156.863,1.973,1.973,0,0,1-.281,1.063,2.344,2.344,0,0,1-.75.75,3.511,3.511,0,0,1-1.082.441A5.621,5.621,0,0,1,54.43.188,5.448,5.448,0,0,1,52.156-.25Zm21.2.25H71.32L70.313-2.852H65.906L64.938,0H62.906l4.2-11.2H69.2ZM69.82-4.367,68.266-8.836a5.294,5.294,0,0,1-.148-.7h-.031a4.574,4.574,0,0,1-.156.7L66.391-4.367ZM81.969,0H80.156V-1.359h-.031A2.891,2.891,0,0,1,77.43.188,2.909,2.909,0,0,1,75.066-.887a4.459,4.459,0,0,1-.887-2.926,4.858,4.858,0,0,1,.98-3.18,3.209,3.209,0,0,1,2.613-1.2,2.5,2.5,0,0,1,2.352,1.3h.031v-4.953h1.813ZM80.18-3.656V-4.7a2.04,2.04,0,0,0-.555-1.445,1.85,1.85,0,0,0-1.414-.594,1.9,1.9,0,0,0-1.6.758,3.377,3.377,0,0,0-.582,2.1,3.026,3.026,0,0,0,.559,1.926,1.817,1.817,0,0,0,1.5.707A1.881,1.881,0,0,0,79.6-1.934,2.575,2.575,0,0,0,80.18-3.656ZM96.3,0H94.484V-4.359a3.533,3.533,0,0,0-.355-1.82,1.308,1.308,0,0,0-1.2-.562,1.445,1.445,0,0,0-1.207.711,2.9,2.9,0,0,0-.5,1.7V0h-1.82V-4.508q0-2.234-1.578-2.234a1.424,1.424,0,0,0-1.207.672,2.963,2.963,0,0,0-.473,1.742V0H84.336V-8h1.813v1.266h.031A2.771,2.771,0,0,1,88.7-8.187a2.379,2.379,0,0,1,1.449.457A2.276,2.276,0,0,1,91-6.531a2.855,2.855,0,0,1,2.656-1.656q2.641,0,2.641,3.258Zm3.125-9.68a1.09,1.09,0,0,1-.762-.289.951.951,0,0,1-.316-.734.975.975,0,0,1,.316-.742,1.074,1.074,0,0,1,.762-.3,1.107,1.107,0,0,1,.781.3.97.97,0,0,1,.32.742.956.956,0,0,1-.32.723A1.1,1.1,0,0,1,99.422-9.68Zm.9,9.68H98.508V-8h1.813Zm9.492,0H108V-4.508q0-2.242-1.586-2.242a1.731,1.731,0,0,0-1.367.621,2.3,2.3,0,0,0-.539,1.566V0h-1.82V-8h1.82v1.328h.031a2.851,2.851,0,0,1,2.594-1.516,2.416,2.416,0,0,1,1.992.848,3.806,3.806,0,0,1,.688,2.449Zm3.125-9.68a1.09,1.09,0,0,1-.762-.289.951.951,0,0,1-.316-.734.975.975,0,0,1,.316-.742,1.074,1.074,0,0,1,.762-.3,1.107,1.107,0,0,1,.781.3.97.97,0,0,1,.32.742.956.956,0,0,1-.32.723A1.1,1.1,0,0,1,112.938-9.68Zm.9,9.68h-1.812V-8h1.813ZM115.7-.25V-1.93a3.616,3.616,0,0,0,2.242.773q1.641,0,1.641-.969a.763.763,0,0,0-.141-.465,1.342,1.342,0,0,0-.379-.34A2.979,2.979,0,0,0,118.5-3.2q-.324-.117-.723-.266a7.651,7.651,0,0,1-.887-.414,2.679,2.679,0,0,1-.656-.5A1.873,1.873,0,0,1,115.844-5a2.316,2.316,0,0,1-.133-.82,1.9,1.9,0,0,1,.273-1.02,2.376,2.376,0,0,1,.734-.742,3.522,3.522,0,0,1,1.047-.453,4.793,4.793,0,0,1,1.211-.152,5.5,5.5,0,0,1,1.984.336v1.586a3.345,3.345,0,0,0-1.937-.578,2.53,2.53,0,0,0-.621.07,1.6,1.6,0,0,0-.473.2.961.961,0,0,0-.3.3.718.718,0,0,0-.109.387.826.826,0,0,0,.109.438.993.993,0,0,0,.324.316,2.8,2.8,0,0,0,.516.25q.3.113.691.246a10.1,10.1,0,0,1,.926.43,3.129,3.129,0,0,1,.7.5,1.945,1.945,0,0,1,.445.641,2.175,2.175,0,0,1,.156.863,1.973,1.973,0,0,1-.281,1.063,2.344,2.344,0,0,1-.75.75,3.511,3.511,0,0,1-1.082.441,5.621,5.621,0,0,1-1.293.145A5.448,5.448,0,0,1,115.7-.25Zm11.617.164a3.141,3.141,0,0,1-1.4.266q-2.328,0-2.328-2.234V-6.578h-1.336V-8h1.336V-9.852l1.813-.516V-8h1.914v1.422h-1.914v4a1.576,1.576,0,0,0,.258,1.016,1.07,1.07,0,0,0,.859.3,1.246,1.246,0,0,0,.8-.266Zm6.2-6.187a1.5,1.5,0,0,0-.945-.258,1.618,1.618,0,0,0-1.344.727,3.249,3.249,0,0,0-.539,1.977V0h-1.812V-8H130.7v1.648h.031a2.787,2.787,0,0,1,.816-1.316,1.843,1.843,0,0,1,1.23-.473,1.528,1.528,0,0,1,.75.148ZM140.945,0h-1.758V-1.25h-.031a2.647,2.647,0,0,1-2.43,1.438,2.559,2.559,0,0,1-1.848-.641,2.241,2.241,0,0,1-.668-1.7q0-2.266,2.609-2.641l2.375-.336q0-1.711-1.625-1.711a3.86,3.86,0,0,0-2.578.984V-7.437a5.622,5.622,0,0,1,2.922-.75q3.031,0,3.031,2.984ZM139.2-3.93l-1.68.234a2.662,2.662,0,0,0-1.176.379,1.107,1.107,0,0,0-.395.973,1.065,1.065,0,0,0,.363.832,1.407,1.407,0,0,0,.973.324,1.8,1.8,0,0,0,1.371-.582,2.064,2.064,0,0,0,.543-1.465Zm8.18,3.844a3.141,3.141,0,0,1-1.4.266q-2.328,0-2.328-2.234V-6.578h-1.336V-8h1.336V-9.852l1.813-.516V-8h1.914v1.422h-1.914v4a1.576,1.576,0,0,0,.258,1.016,1.07,1.07,0,0,0,.859.3,1.246,1.246,0,0,0,.8-.266Zm2.477-9.594a1.09,1.09,0,0,1-.762-.289.951.951,0,0,1-.316-.734.975.975,0,0,1,.316-.742,1.074,1.074,0,0,1,.762-.3,1.107,1.107,0,0,1,.781.3.97.97,0,0,1,.32.742.956.956,0,0,1-.32.723A1.1,1.1,0,0,1,149.852-9.68Zm.9,9.68h-1.812V-8h1.813Zm5.914.188a3.965,3.965,0,0,1-2.957-1.121A4.05,4.05,0,0,1,152.6-3.906a4.214,4.214,0,0,1,1.152-3.148,4.237,4.237,0,0,1,3.105-1.133,3.838,3.838,0,0,1,2.922,1.1,4.255,4.255,0,0,1,1.047,3.055A4.193,4.193,0,0,1,159.7-.965,4.055,4.055,0,0,1,156.664.188Zm.086-6.93A2.069,2.069,0,0,0,155.07-6a3.108,3.108,0,0,0-.617,2.047,2.927,2.927,0,0,0,.625,1.98,2.1,2.1,0,0,0,1.672.723,1.992,1.992,0,0,0,1.645-.711,3.147,3.147,0,0,0,.574-2.023,3.2,3.2,0,0,0-.574-2.039A1.982,1.982,0,0,0,156.75-6.742ZM169.8,0h-1.812V-4.508q0-2.242-1.586-2.242a1.732,1.732,0,0,0-1.367.621,2.3,2.3,0,0,0-.539,1.566V0h-1.82V-8h1.82v1.328h.031a2.851,2.851,0,0,1,2.594-1.516,2.416,2.416,0,0,1,1.992.848,3.806,3.806,0,0,1,.688,2.449Z" transform="translate(30 148)" fill="#31313a"/>
    <path id="Ninties-2" data-name="Ninties" d="M9.2-.469A6.792,6.792,0,0,1,6.047.188,5.148,5.148,0,0,1,2.141-1.352,5.608,5.608,0,0,1,.672-5.391,5.881,5.881,0,0,1,2.324-9.734,5.653,5.653,0,0,1,6.5-11.391a6.843,6.843,0,0,1,2.7.461v1.844a4.81,4.81,0,0,0-2.5-.672A3.924,3.924,0,0,0,3.746-8.594,4.276,4.276,0,0,0,2.617-5.484,4.078,4.078,0,0,0,3.672-2.535a3.671,3.671,0,0,0,2.773,1.1,4.966,4.966,0,0,0,2.75-.75Zm5.469.656A3.965,3.965,0,0,1,11.707-.934,4.05,4.05,0,0,1,10.6-3.906a4.214,4.214,0,0,1,1.152-3.148,4.237,4.237,0,0,1,3.105-1.133,3.838,3.838,0,0,1,2.922,1.1,4.255,4.255,0,0,1,1.047,3.055A4.193,4.193,0,0,1,17.7-.965,4.055,4.055,0,0,1,14.664.188Zm.086-6.93A2.069,2.069,0,0,0,13.07-6a3.108,3.108,0,0,0-.617,2.047,2.927,2.927,0,0,0,.625,1.98,2.1,2.1,0,0,0,1.672.723,1.992,1.992,0,0,0,1.645-.711,3.147,3.147,0,0,0,.574-2.023,3.2,3.2,0,0,0-.574-2.039A1.982,1.982,0,0,0,14.75-6.742ZM32.633,0H30.82V-4.359a3.533,3.533,0,0,0-.355-1.82,1.308,1.308,0,0,0-1.2-.562,1.445,1.445,0,0,0-1.207.711,2.9,2.9,0,0,0-.5,1.7V0h-1.82V-4.508q0-2.234-1.578-2.234a1.424,1.424,0,0,0-1.207.672,2.963,2.963,0,0,0-.473,1.742V0H20.672V-8h1.813v1.266h.031a2.771,2.771,0,0,1,2.523-1.453,2.379,2.379,0,0,1,1.449.457,2.276,2.276,0,0,1,.848,1.2,2.855,2.855,0,0,1,2.656-1.656q2.641,0,2.641,3.258Zm4.055-1.18h-.031V3.68H34.844V-8h1.813v1.406h.031a2.97,2.97,0,0,1,2.719-1.594,2.864,2.864,0,0,1,2.375,1.07,4.489,4.489,0,0,1,.852,2.875,4.984,4.984,0,0,1-.961,3.2,3.178,3.178,0,0,1-2.625,1.2A2.621,2.621,0,0,1,36.688-1.18Zm-.047-3.156v.992A2.117,2.117,0,0,0,37.2-1.859a1.84,1.84,0,0,0,1.418.609A1.852,1.852,0,0,0,40.2-2.035a3.654,3.654,0,0,0,.574-2.191,2.88,2.88,0,0,0-.535-1.848,1.759,1.759,0,0,0-1.449-.668,1.953,1.953,0,0,0-1.559.688A2.547,2.547,0,0,0,36.641-4.336ZM46.3,0h-1.82V-11.844H46.3Zm3.273-9.68a1.09,1.09,0,0,1-.762-.289A.951.951,0,0,1,48.5-10.7a.975.975,0,0,1,.316-.742,1.074,1.074,0,0,1,.762-.3,1.107,1.107,0,0,1,.781.3.97.97,0,0,1,.32.742.956.956,0,0,1-.32.723A1.1,1.1,0,0,1,49.578-9.68Zm.9,9.68H48.664V-8h1.813Zm8.508,0H57.227V-1.25H57.2A2.647,2.647,0,0,1,54.766.188a2.559,2.559,0,0,1-1.848-.641,2.241,2.241,0,0,1-.668-1.7q0-2.266,2.609-2.641l2.375-.336q0-1.711-1.625-1.711a3.86,3.86,0,0,0-2.578.984V-7.437a5.622,5.622,0,0,1,2.922-.75q3.031,0,3.031,2.984Zm-1.75-3.93-1.68.234a2.662,2.662,0,0,0-1.176.379,1.107,1.107,0,0,0-.395.973,1.065,1.065,0,0,0,.363.832,1.407,1.407,0,0,0,.973.324,1.8,1.8,0,0,0,1.371-.582,2.064,2.064,0,0,0,.543-1.465ZM68.32,0H66.508V-4.508q0-2.242-1.586-2.242a1.731,1.731,0,0,0-1.367.621,2.3,2.3,0,0,0-.539,1.566V0H61.2V-8h1.82v1.328h.031a2.851,2.851,0,0,1,2.594-1.516,2.416,2.416,0,0,1,1.992.848,3.806,3.806,0,0,1,.688,2.449Zm7.938-.367a4.47,4.47,0,0,1-2.273.555A3.85,3.85,0,0,1,71.109-.926a3.944,3.944,0,0,1-1.094-2.887,4.341,4.341,0,0,1,1.176-3.176,4.2,4.2,0,0,1,3.145-1.2,4.59,4.59,0,0,1,1.93.383v1.688a2.923,2.923,0,0,0-1.781-.625,2.475,2.475,0,0,0-1.883.777,2.842,2.842,0,0,0-.734,2.035,2.71,2.71,0,0,0,.691,1.961,2.455,2.455,0,0,0,1.855.719,2.9,2.9,0,0,0,1.844-.7Zm8.57-3.141H79.375A2.305,2.305,0,0,0,80.059-1.8a2.543,2.543,0,0,0,1.793.6A3.954,3.954,0,0,0,84.2-1.961V-.5a5.373,5.373,0,0,1-2.891.688A3.578,3.578,0,0,1,78.543-.9a4.359,4.359,0,0,1-1-3.066,4.263,4.263,0,0,1,1.105-3.043,3.616,3.616,0,0,1,2.746-1.176A3.153,3.153,0,0,1,83.93-7.133a4.379,4.379,0,0,1,.9,2.93Zm-1.75-1.281a2.336,2.336,0,0,0-.461-1.52,1.54,1.54,0,0,0-1.25-.543,1.759,1.759,0,0,0-1.324.57,2.605,2.605,0,0,0-.668,1.492ZM99.813,0H97.641L95.852-3a6.266,6.266,0,0,0-.473-.707,2.845,2.845,0,0,0-.469-.48,1.582,1.582,0,0,0-.52-.273,2.163,2.163,0,0,0-.633-.086h-.75V0H91.156V-11.2h3.688a5.334,5.334,0,0,1,1.453.188,3.377,3.377,0,0,1,1.156.566,2.642,2.642,0,0,1,.77.945A2.978,2.978,0,0,1,98.5-8.18a3.243,3.243,0,0,1-.176,1.09,2.834,2.834,0,0,1-.5.883,3.058,3.058,0,0,1-.781.66,3.9,3.9,0,0,1-1.027.422v.031a2.884,2.884,0,0,1,.531.379q.227.207.43.426a5.107,5.107,0,0,1,.4.5q.2.277.441.645Zm-6.8-9.7v3.641h1.547a2.293,2.293,0,0,0,.793-.133,1.815,1.815,0,0,0,.629-.383,1.733,1.733,0,0,0,.414-.609,2.09,2.09,0,0,0,.148-.8,1.6,1.6,0,0,0-.508-1.258A2.125,2.125,0,0,0,94.57-9.7Zm14.258,6.188h-5.453A2.305,2.305,0,0,0,102.5-1.8a2.543,2.543,0,0,0,1.793.6,3.954,3.954,0,0,0,2.352-.766V-.5a5.373,5.373,0,0,1-2.891.688A3.578,3.578,0,0,1,100.98-.9a4.359,4.359,0,0,1-1-3.066,4.263,4.263,0,0,1,1.105-3.043,3.616,3.616,0,0,1,2.746-1.176,3.153,3.153,0,0,1,2.539,1.055,4.379,4.379,0,0,1,.9,2.93Zm-1.75-1.281a2.336,2.336,0,0,0-.461-1.52,1.54,1.54,0,0,0-1.25-.543,1.759,1.759,0,0,0-1.324.57,2.605,2.605,0,0,0-.668,1.492ZM108.492-.25V-1.93a3.616,3.616,0,0,0,2.242.773q1.641,0,1.641-.969a.763.763,0,0,0-.141-.465,1.342,1.342,0,0,0-.379-.34,2.979,2.979,0,0,0-.562-.266q-.324-.117-.723-.266a7.651,7.651,0,0,1-.887-.414,2.679,2.679,0,0,1-.656-.5A1.873,1.873,0,0,1,108.633-5a2.316,2.316,0,0,1-.133-.82,1.9,1.9,0,0,1,.273-1.02,2.376,2.376,0,0,1,.734-.742,3.522,3.522,0,0,1,1.047-.453,4.793,4.793,0,0,1,1.211-.152,5.5,5.5,0,0,1,1.984.336v1.586a3.345,3.345,0,0,0-1.937-.578,2.53,2.53,0,0,0-.621.07,1.6,1.6,0,0,0-.473.2.961.961,0,0,0-.3.3.718.718,0,0,0-.109.387.826.826,0,0,0,.109.438.993.993,0,0,0,.324.316,2.8,2.8,0,0,0,.516.25q.3.113.691.246a10.1,10.1,0,0,1,.926.43,3.129,3.129,0,0,1,.7.5,1.945,1.945,0,0,1,.445.641,2.175,2.175,0,0,1,.156.863,1.973,1.973,0,0,1-.281,1.063,2.344,2.344,0,0,1-.75.75,3.511,3.511,0,0,1-1.082.441,5.621,5.621,0,0,1-1.293.145A5.448,5.448,0,0,1,108.492-.25Zm10.945.438A3.965,3.965,0,0,1,116.48-.934a4.05,4.05,0,0,1-1.105-2.973,4.214,4.214,0,0,1,1.152-3.148,4.237,4.237,0,0,1,3.105-1.133,3.838,3.838,0,0,1,2.922,1.1A4.255,4.255,0,0,1,123.6-4.031a4.193,4.193,0,0,1-1.129,3.066A4.055,4.055,0,0,1,119.438.188Zm.086-6.93a2.069,2.069,0,0,0-1.68.742,3.108,3.108,0,0,0-.617,2.047,2.927,2.927,0,0,0,.625,1.98,2.1,2.1,0,0,0,1.672.723,1.992,1.992,0,0,0,1.645-.711,3.147,3.147,0,0,0,.574-2.023,3.2,3.2,0,0,0-.574-2.039A1.982,1.982,0,0,0,119.523-6.742ZM132.422,0h-1.812V-1.266h-.031A2.608,2.608,0,0,1,128.125.188q-2.836,0-2.836-3.406V-8H127.1v4.594q0,2.156,1.664,2.156a1.682,1.682,0,0,0,1.324-.594,2.275,2.275,0,0,0,.52-1.555V-8h1.813Zm7-6.273a1.5,1.5,0,0,0-.945-.258,1.618,1.618,0,0,0-1.344.727,3.249,3.249,0,0,0-.539,1.977V0h-1.812V-8h1.813v1.648h.031a2.787,2.787,0,0,1,.816-1.316,1.843,1.843,0,0,1,1.23-.473,1.528,1.528,0,0,1,.75.148Zm6.867,5.906a4.47,4.47,0,0,1-2.273.555,3.85,3.85,0,0,1-2.875-1.113,3.944,3.944,0,0,1-1.094-2.887,4.341,4.341,0,0,1,1.176-3.176,4.2,4.2,0,0,1,3.145-1.2,4.59,4.59,0,0,1,1.93.383v1.688a2.923,2.923,0,0,0-1.781-.625,2.475,2.475,0,0,0-1.883.777A2.842,2.842,0,0,0,141.9-3.93a2.71,2.71,0,0,0,.691,1.961,2.455,2.455,0,0,0,1.855.719,2.9,2.9,0,0,0,1.844-.7Zm8.57-3.141h-5.453A2.305,2.305,0,0,0,150.09-1.8a2.543,2.543,0,0,0,1.793.6,3.954,3.954,0,0,0,2.352-.766V-.5a5.373,5.373,0,0,1-2.891.688,3.578,3.578,0,0,1-2.77-1.09,4.359,4.359,0,0,1-1-3.066,4.263,4.263,0,0,1,1.105-3.043,3.616,3.616,0,0,1,2.746-1.176,3.153,3.153,0,0,1,2.539,1.055,4.379,4.379,0,0,1,.9,2.93Zm-1.75-1.281a2.336,2.336,0,0,0-.461-1.52,1.54,1.54,0,0,0-1.25-.543,1.759,1.759,0,0,0-1.324.57,2.605,2.605,0,0,0-.668,1.492ZM156.086-.25V-1.93a3.616,3.616,0,0,0,2.242.773q1.641,0,1.641-.969a.763.763,0,0,0-.141-.465,1.342,1.342,0,0,0-.379-.34,2.979,2.979,0,0,0-.562-.266q-.324-.117-.723-.266a7.65,7.65,0,0,1-.887-.414,2.679,2.679,0,0,1-.656-.5A1.873,1.873,0,0,1,156.227-5a2.316,2.316,0,0,1-.133-.82,1.9,1.9,0,0,1,.273-1.02,2.376,2.376,0,0,1,.734-.742,3.522,3.522,0,0,1,1.047-.453,4.793,4.793,0,0,1,1.211-.152,5.5,5.5,0,0,1,1.984.336v1.586a3.345,3.345,0,0,0-1.937-.578,2.53,2.53,0,0,0-.621.07,1.6,1.6,0,0,0-.473.2.961.961,0,0,0-.3.3.718.718,0,0,0-.109.387.826.826,0,0,0,.109.438.993.993,0,0,0,.324.316,2.8,2.8,0,0,0,.516.25q.3.113.691.246a10.1,10.1,0,0,1,.926.43,3.128,3.128,0,0,1,.7.5,1.945,1.945,0,0,1,.445.641,2.175,2.175,0,0,1,.156.863,1.973,1.973,0,0,1-.281,1.063,2.344,2.344,0,0,1-.75.75,3.511,3.511,0,0,1-1.082.441,5.621,5.621,0,0,1-1.293.145A5.448,5.448,0,0,1,156.086-.25Z" transform="translate(30 197)" fill="#31313a"/>
    <path id="Seventies" d="M10.586,0H8.547L7.539-2.852H3.133L2.164,0H.133l4.2-11.2H6.422ZM7.047-4.367,5.492-8.836a5.293,5.293,0,0,1-.148-.7H5.313a4.573,4.573,0,0,1-.156.7L3.617-4.367ZM19.2-.641q0,4.406-4.43,4.406a6.6,6.6,0,0,1-2.727-.523V1.586a5.045,5.045,0,0,0,2.492.75q2.852,0,2.852-2.8v-.875h-.031a2.935,2.935,0,0,1-2.7,1.531A2.924,2.924,0,0,1,12.3-.879a4.312,4.312,0,0,1-.895-2.863,5.05,5.05,0,0,1,.961-3.242,3.2,3.2,0,0,1,2.641-1.2,2.545,2.545,0,0,1,2.352,1.3h.031V-8H19.2Zm-1.8-3.023V-4.7a2.036,2.036,0,0,0-.559-1.441,1.83,1.83,0,0,0-1.395-.6,1.916,1.916,0,0,0-1.613.762,3.437,3.437,0,0,0-.582,2.129,2.959,2.959,0,0,0,.559,1.887,1.793,1.793,0,0,0,1.48.707,1.921,1.921,0,0,0,1.523-.676A2.546,2.546,0,0,0,17.406-3.664Zm10.93.156H22.883A2.305,2.305,0,0,0,23.566-1.8a2.543,2.543,0,0,0,1.793.6,3.954,3.954,0,0,0,2.352-.766V-.5A5.373,5.373,0,0,1,24.82.188,3.578,3.578,0,0,1,22.051-.9a4.359,4.359,0,0,1-1-3.066,4.263,4.263,0,0,1,1.105-3.043A3.616,3.616,0,0,1,24.9-8.187a3.153,3.153,0,0,1,2.539,1.055,4.379,4.379,0,0,1,.9,2.93Zm-1.75-1.281a2.336,2.336,0,0,0-.461-1.52,1.54,1.54,0,0,0-1.25-.543,1.759,1.759,0,0,0-1.324.57,2.605,2.605,0,0,0-.668,1.492ZM37.188,0H35.375V-4.508q0-2.242-1.586-2.242a1.731,1.731,0,0,0-1.367.621,2.3,2.3,0,0,0-.539,1.566V0h-1.82V-8h1.82v1.328h.031a2.851,2.851,0,0,1,2.594-1.516A2.416,2.416,0,0,1,36.5-7.34a3.806,3.806,0,0,1,.688,2.449Zm7.938-.367a4.47,4.47,0,0,1-2.273.555A3.85,3.85,0,0,1,39.977-.926a3.944,3.944,0,0,1-1.094-2.887,4.341,4.341,0,0,1,1.176-3.176,4.2,4.2,0,0,1,3.145-1.2,4.59,4.59,0,0,1,1.93.383v1.688a2.923,2.923,0,0,0-1.781-.625,2.475,2.475,0,0,0-1.883.777,2.842,2.842,0,0,0-.734,2.035,2.71,2.71,0,0,0,.691,1.961,2.455,2.455,0,0,0,1.855.719,2.9,2.9,0,0,0,1.844-.7ZM53.852-8,50.242,1.281q-1.125,2.484-3.156,2.484a3.784,3.784,0,0,1-.953-.1V2.156a2.535,2.535,0,0,0,.781.141,1.612,1.612,0,0,0,1.516-1l.539-1.312L45.789-8H47.8L49.7-2.187q.031.109.141.578h.039q.039-.18.141-.562l2-5.828ZM59.141-.445V-2.359a2.956,2.956,0,0,0,.613.422,4.739,4.739,0,0,0,.754.316,5.941,5.941,0,0,0,.8.2,4.248,4.248,0,0,0,.734.07,3.134,3.134,0,0,0,1.746-.391,1.285,1.285,0,0,0,.574-1.133,1.236,1.236,0,0,0-.191-.691,2.007,2.007,0,0,0-.535-.535,5.623,5.623,0,0,0-.809-.465q-.465-.223-1-.465-.57-.3-1.062-.617a4.573,4.573,0,0,1-.855-.691,2.893,2.893,0,0,1-.57-.855,2.786,2.786,0,0,1-.207-1.117,2.579,2.579,0,0,1,.355-1.371,3,3,0,0,1,.938-.961,4.3,4.3,0,0,1,1.324-.562,6.288,6.288,0,0,1,1.516-.184,6.117,6.117,0,0,1,2.563.4v1.836a4.093,4.093,0,0,0-2.453-.687,4.4,4.4,0,0,0-.824.078,2.45,2.45,0,0,0-.734.258,1.59,1.59,0,0,0-.527.461,1.13,1.13,0,0,0-.2.68,1.285,1.285,0,0,0,.156.648,1.673,1.673,0,0,0,.457.5,4.669,4.669,0,0,0,.734.441q.434.215,1,.465.586.3,1.105.641a5.211,5.211,0,0,1,.914.742,3.261,3.261,0,0,1,.625.9,2.65,2.65,0,0,1,.23,1.129,2.8,2.8,0,0,1-.344,1.438,2.77,2.77,0,0,1-.926.953A4.124,4.124,0,0,1,63.7.023a7.554,7.554,0,0,1-1.6.164A6.82,6.82,0,0,1,61.41.145Q61,.1,60.57.02a7.725,7.725,0,0,1-.812-.2A2.572,2.572,0,0,1,59.141-.445Zm12.781.359a3.141,3.141,0,0,1-1.4.266Q68.2.18,68.2-2.055V-6.578H66.859V-8H68.2V-9.852l1.813-.516V-8h1.914v1.422H70.008v4a1.576,1.576,0,0,0,.258,1.016,1.07,1.07,0,0,0,.859.3,1.246,1.246,0,0,0,.8-.266Zm6.2-6.187a1.5,1.5,0,0,0-.945-.258,1.618,1.618,0,0,0-1.344.727A3.249,3.249,0,0,0,75.3-3.828V0H73.484V-8H75.3v1.648h.031a2.787,2.787,0,0,1,.816-1.316,1.843,1.843,0,0,1,1.23-.473,1.528,1.528,0,0,1,.75.148ZM85.547,0H83.789V-1.25h-.031A2.647,2.647,0,0,1,81.328.188,2.559,2.559,0,0,1,79.48-.453a2.241,2.241,0,0,1-.668-1.7q0-2.266,2.609-2.641L83.8-5.125q0-1.711-1.625-1.711a3.86,3.86,0,0,0-2.578.984V-7.437a5.622,5.622,0,0,1,2.922-.75q3.031,0,3.031,2.984ZM83.8-3.93l-1.68.234a2.662,2.662,0,0,0-1.176.379,1.107,1.107,0,0,0-.395.973,1.065,1.065,0,0,0,.363.832,1.407,1.407,0,0,0,.973.324,1.8,1.8,0,0,0,1.371-.582A2.064,2.064,0,0,0,83.8-3.234Zm8.18,3.844a3.141,3.141,0,0,1-1.4.266Q88.25.18,88.25-2.055V-6.578H86.914V-8H88.25V-9.852l1.813-.516V-8h1.914v1.422H90.063v4a1.576,1.576,0,0,0,.258,1.016,1.07,1.07,0,0,0,.859.3,1.246,1.246,0,0,0,.8-.266Zm8.242-3.422H94.766A2.305,2.305,0,0,0,95.449-1.8a2.543,2.543,0,0,0,1.793.6,3.954,3.954,0,0,0,2.352-.766V-.5A5.373,5.373,0,0,1,96.7.188,3.578,3.578,0,0,1,93.934-.9a4.359,4.359,0,0,1-1-3.066,4.263,4.263,0,0,1,1.105-3.043,3.616,3.616,0,0,1,2.746-1.176A3.153,3.153,0,0,1,99.32-7.133a4.379,4.379,0,0,1,.9,2.93Zm-1.75-1.281a2.336,2.336,0,0,0-.461-1.52,1.54,1.54,0,0,0-1.25-.543,1.759,1.759,0,0,0-1.324.57,2.605,2.605,0,0,0-.668,1.492ZM109.227-.641q0,4.406-4.43,4.406a6.6,6.6,0,0,1-2.727-.523V1.586a5.045,5.045,0,0,0,2.492.75q2.852,0,2.852-2.8v-.875h-.031a2.935,2.935,0,0,1-2.7,1.531,2.924,2.924,0,0,1-2.355-1.066,4.312,4.312,0,0,1-.895-2.863,5.05,5.05,0,0,1,.961-3.242,3.2,3.2,0,0,1,2.641-1.2,2.545,2.545,0,0,1,2.352,1.3h.031V-8h1.813Zm-1.8-3.023V-4.7a2.036,2.036,0,0,0-.559-1.441,1.83,1.83,0,0,0-1.395-.6,1.916,1.916,0,0,0-1.613.762,3.437,3.437,0,0,0-.582,2.129,2.959,2.959,0,0,0,.559,1.887,1.793,1.793,0,0,0,1.48.707,1.921,1.921,0,0,0,1.523-.676A2.546,2.546,0,0,0,107.43-3.664ZM112.5-9.68a1.09,1.09,0,0,1-.762-.289.951.951,0,0,1-.316-.734.975.975,0,0,1,.316-.742,1.074,1.074,0,0,1,.762-.3,1.107,1.107,0,0,1,.781.3.97.97,0,0,1,.32.742.956.956,0,0,1-.32.723A1.1,1.1,0,0,1,112.5-9.68ZM113.4,0h-1.812V-8H113.4Zm9.141-3.508h-5.453A2.305,2.305,0,0,0,117.77-1.8a2.543,2.543,0,0,0,1.793.6,3.954,3.954,0,0,0,2.352-.766V-.5a5.373,5.373,0,0,1-2.891.688,3.578,3.578,0,0,1-2.77-1.09,4.359,4.359,0,0,1-1-3.066,4.263,4.263,0,0,1,1.105-3.043A3.616,3.616,0,0,1,119.1-8.187a3.153,3.153,0,0,1,2.539,1.055,4.379,4.379,0,0,1,.9,2.93Zm-1.75-1.281a2.336,2.336,0,0,0-.461-1.52,1.54,1.54,0,0,0-1.25-.543,1.759,1.759,0,0,0-1.324.57,2.605,2.605,0,0,0-.668,1.492ZM123.766-.25V-1.93a3.616,3.616,0,0,0,2.242.773q1.641,0,1.641-.969a.763.763,0,0,0-.141-.465,1.342,1.342,0,0,0-.379-.34,2.979,2.979,0,0,0-.562-.266q-.324-.117-.723-.266a7.651,7.651,0,0,1-.887-.414,2.679,2.679,0,0,1-.656-.5A1.873,1.873,0,0,1,123.906-5a2.316,2.316,0,0,1-.133-.82,1.9,1.9,0,0,1,.273-1.02,2.376,2.376,0,0,1,.734-.742,3.522,3.522,0,0,1,1.047-.453,4.793,4.793,0,0,1,1.211-.152,5.5,5.5,0,0,1,1.984.336v1.586a3.345,3.345,0,0,0-1.937-.578,2.53,2.53,0,0,0-.621.07,1.6,1.6,0,0,0-.473.2.961.961,0,0,0-.3.3.718.718,0,0,0-.109.387.826.826,0,0,0,.109.438.993.993,0,0,0,.324.316,2.8,2.8,0,0,0,.516.25q.3.113.691.246a10.1,10.1,0,0,1,.926.43,3.128,3.128,0,0,1,.7.5,1.945,1.945,0,0,1,.445.641,2.175,2.175,0,0,1,.156.863,1.973,1.973,0,0,1-.281,1.063,2.344,2.344,0,0,1-.75.75,3.511,3.511,0,0,1-1.082.441,5.621,5.621,0,0,1-1.293.145A5.448,5.448,0,0,1,123.766-.25Zm9.094-1.617-1.211,3.9h-1.359l.859-3.9ZM148.281,0h-2.172L144.32-3a6.266,6.266,0,0,0-.473-.707,2.845,2.845,0,0,0-.469-.48,1.582,1.582,0,0,0-.52-.273,2.163,2.163,0,0,0-.633-.086h-.75V0h-1.852V-11.2h3.688a5.334,5.334,0,0,1,1.453.188,3.377,3.377,0,0,1,1.156.566,2.642,2.642,0,0,1,.77.945,2.978,2.978,0,0,1,.277,1.324,3.243,3.243,0,0,1-.176,1.09,2.834,2.834,0,0,1-.5.883,3.058,3.058,0,0,1-.781.66,3.9,3.9,0,0,1-1.027.422v.031a2.884,2.884,0,0,1,.531.379q.227.207.43.426a5.106,5.106,0,0,1,.4.5q.2.277.441.645Zm-6.8-9.7v3.641h1.547a2.293,2.293,0,0,0,.793-.133,1.815,1.815,0,0,0,.629-.383,1.733,1.733,0,0,0,.414-.609,2.09,2.09,0,0,0,.148-.8,1.6,1.6,0,0,0-.508-1.258,2.125,2.125,0,0,0-1.461-.453Zm14.258,6.188h-5.453a2.305,2.305,0,0,0,.684,1.711,2.543,2.543,0,0,0,1.793.6,3.954,3.954,0,0,0,2.352-.766V-.5a5.373,5.373,0,0,1-2.891.688,3.578,3.578,0,0,1-2.77-1.09,4.359,4.359,0,0,1-1-3.066,4.263,4.263,0,0,1,1.105-3.043A3.616,3.616,0,0,1,152.3-8.187a3.153,3.153,0,0,1,2.539,1.055,4.379,4.379,0,0,1,.9,2.93Zm-1.75-1.281a2.336,2.336,0,0,0-.461-1.52,1.54,1.54,0,0,0-1.25-.543,1.759,1.759,0,0,0-1.324.57,2.605,2.605,0,0,0-.668,1.492ZM156.961-.25V-1.93a3.616,3.616,0,0,0,2.242.773q1.641,0,1.641-.969a.763.763,0,0,0-.141-.465,1.342,1.342,0,0,0-.379-.34,2.979,2.979,0,0,0-.562-.266q-.324-.117-.723-.266a7.65,7.65,0,0,1-.887-.414,2.679,2.679,0,0,1-.656-.5A1.873,1.873,0,0,1,157.1-5a2.316,2.316,0,0,1-.133-.82,1.9,1.9,0,0,1,.273-1.02,2.376,2.376,0,0,1,.734-.742,3.522,3.522,0,0,1,1.047-.453,4.793,4.793,0,0,1,1.211-.152,5.5,5.5,0,0,1,1.984.336v1.586a3.345,3.345,0,0,0-1.937-.578,2.53,2.53,0,0,0-.621.07,1.6,1.6,0,0,0-.473.2.961.961,0,0,0-.3.3.718.718,0,0,0-.109.387.826.826,0,0,0,.109.438.993.993,0,0,0,.324.316,2.8,2.8,0,0,0,.516.25q.3.113.691.246a10.1,10.1,0,0,1,.926.43,3.128,3.128,0,0,1,.7.5,1.945,1.945,0,0,1,.445.641,2.175,2.175,0,0,1,.156.863,1.973,1.973,0,0,1-.281,1.063,2.344,2.344,0,0,1-.75.75,3.511,3.511,0,0,1-1.082.441,5.621,5.621,0,0,1-1.293.145A5.448,5.448,0,0,1,156.961-.25Zm10.945.438a3.965,3.965,0,0,1-2.957-1.121,4.05,4.05,0,0,1-1.105-2.973A4.214,4.214,0,0,1,165-7.055,4.237,4.237,0,0,1,168.1-8.187a3.838,3.838,0,0,1,2.922,1.1,4.255,4.255,0,0,1,1.047,3.055,4.193,4.193,0,0,1-1.129,3.066A4.055,4.055,0,0,1,167.906.188Zm.086-6.93a2.069,2.069,0,0,0-1.68.742,3.108,3.108,0,0,0-.617,2.047,2.927,2.927,0,0,0,.625,1.98,2.1,2.1,0,0,0,1.672.723,1.992,1.992,0,0,0,1.645-.711,3.147,3.147,0,0,0,.574-2.023,3.2,3.2,0,0,0-.574-2.039A1.982,1.982,0,0,0,167.992-6.742ZM180.891,0h-1.812V-1.266h-.031A2.608,2.608,0,0,1,176.594.188q-2.836,0-2.836-3.406V-8h1.813v4.594q0,2.156,1.664,2.156a1.682,1.682,0,0,0,1.324-.594,2.275,2.275,0,0,0,.52-1.555V-8h1.813Zm7-6.273a1.5,1.5,0,0,0-.945-.258A1.618,1.618,0,0,0,185.6-5.8a3.249,3.249,0,0,0-.539,1.977V0H183.25V-8h1.813v1.648h.031a2.787,2.787,0,0,1,.816-1.316,1.843,1.843,0,0,1,1.23-.473,1.528,1.528,0,0,1,.75.148Zm6.867,5.906a4.47,4.47,0,0,1-2.273.555,3.85,3.85,0,0,1-2.875-1.113,3.944,3.944,0,0,1-1.094-2.887,4.341,4.341,0,0,1,1.176-3.176,4.2,4.2,0,0,1,3.145-1.2,4.59,4.59,0,0,1,1.93.383v1.688a2.923,2.923,0,0,0-1.781-.625,2.475,2.475,0,0,0-1.883.777,2.842,2.842,0,0,0-.734,2.035,2.71,2.71,0,0,0,.691,1.961,2.455,2.455,0,0,0,1.855.719,2.9,2.9,0,0,0,1.844-.7Zm8.57-3.141h-5.453a2.305,2.305,0,0,0,.684,1.711,2.543,2.543,0,0,0,1.793.6,3.954,3.954,0,0,0,2.352-.766V-.5a5.373,5.373,0,0,1-2.891.688,3.578,3.578,0,0,1-2.77-1.09,4.359,4.359,0,0,1-1-3.066,4.263,4.263,0,0,1,1.105-3.043,3.616,3.616,0,0,1,2.746-1.176,3.153,3.153,0,0,1,2.539,1.055,4.379,4.379,0,0,1,.9,2.93Zm-1.75-1.281a2.336,2.336,0,0,0-.461-1.52,1.54,1.54,0,0,0-1.25-.543,1.759,1.759,0,0,0-1.324.57,2.605,2.605,0,0,0-.668,1.492ZM204.555-.25V-1.93a3.616,3.616,0,0,0,2.242.773q1.641,0,1.641-.969a.763.763,0,0,0-.141-.465,1.342,1.342,0,0,0-.379-.34,2.979,2.979,0,0,0-.562-.266q-.324-.117-.723-.266a7.65,7.65,0,0,1-.887-.414,2.679,2.679,0,0,1-.656-.5A1.873,1.873,0,0,1,204.7-5a2.316,2.316,0,0,1-.133-.82,1.9,1.9,0,0,1,.273-1.02,2.376,2.376,0,0,1,.734-.742,3.522,3.522,0,0,1,1.047-.453,4.793,4.793,0,0,1,1.211-.152,5.5,5.5,0,0,1,1.984.336v1.586a3.345,3.345,0,0,0-1.937-.578,2.53,2.53,0,0,0-.621.07,1.6,1.6,0,0,0-.473.2.961.961,0,0,0-.3.3.718.718,0,0,0-.109.387.826.826,0,0,0,.109.438.993.993,0,0,0,.324.316,2.8,2.8,0,0,0,.516.25q.3.113.691.246a10.1,10.1,0,0,1,.926.43,3.128,3.128,0,0,1,.7.5,1.945,1.945,0,0,1,.445.641,2.175,2.175,0,0,1,.156.863,1.973,1.973,0,0,1-.281,1.063,2.344,2.344,0,0,1-.75.75,3.511,3.511,0,0,1-1.082.441,5.621,5.621,0,0,1-1.293.145A5.448,5.448,0,0,1,204.555-.25ZM222.492,0h-1.758V-1.25H220.7a2.647,2.647,0,0,1-2.43,1.438,2.559,2.559,0,0,1-1.848-.641,2.241,2.241,0,0,1-.668-1.7q0-2.266,2.609-2.641l2.375-.336q0-1.711-1.625-1.711a3.86,3.86,0,0,0-2.578.984V-7.437a5.622,5.622,0,0,1,2.922-.75q3.031,0,3.031,2.984Zm-1.75-3.93-1.68.234a2.662,2.662,0,0,0-1.176.379,1.107,1.107,0,0,0-.395.973,1.065,1.065,0,0,0,.363.832,1.407,1.407,0,0,0,.973.324A1.8,1.8,0,0,0,220.2-1.77a2.064,2.064,0,0,0,.543-1.465ZM231.828,0h-1.812V-4.508q0-2.242-1.586-2.242a1.732,1.732,0,0,0-1.367.621,2.3,2.3,0,0,0-.539,1.566V0H224.7V-8h1.82v1.328h.031a2.851,2.851,0,0,1,2.594-1.516,2.416,2.416,0,0,1,1.992.848,3.806,3.806,0,0,1,.688,2.449Zm9.484,0H239.5V-1.359h-.031a2.891,2.891,0,0,1-2.7,1.547A2.909,2.909,0,0,1,234.41-.887a4.459,4.459,0,0,1-.887-2.926,4.858,4.858,0,0,1,.98-3.18,3.209,3.209,0,0,1,2.613-1.2,2.5,2.5,0,0,1,2.352,1.3h.031v-4.953h1.813Zm-1.789-3.656V-4.7a2.04,2.04,0,0,0-.555-1.445,1.85,1.85,0,0,0-1.414-.594,1.9,1.9,0,0,0-1.6.758,3.377,3.377,0,0,0-.582,2.1,3.026,3.026,0,0,0,.559,1.926,1.817,1.817,0,0,0,1.5.707,1.881,1.881,0,0,0,1.508-.684A2.575,2.575,0,0,0,239.523-3.656Zm15.945-5.969H252.25V0h-1.859V-9.625H247.18V-11.2h8.289ZM258.9.188a3.965,3.965,0,0,1-2.957-1.121,4.05,4.05,0,0,1-1.105-2.973,4.214,4.214,0,0,1,1.152-3.148,4.237,4.237,0,0,1,3.105-1.133,3.838,3.838,0,0,1,2.922,1.1,4.255,4.255,0,0,1,1.047,3.055,4.193,4.193,0,0,1-1.129,3.066A4.055,4.055,0,0,1,258.9.188Zm.086-6.93A2.069,2.069,0,0,0,257.3-6a3.108,3.108,0,0,0-.617,2.047,2.927,2.927,0,0,0,.625,1.98,2.1,2.1,0,0,0,1.672.723,1.992,1.992,0,0,0,1.645-.711,3.147,3.147,0,0,0,.574-2.023,3.2,3.2,0,0,0-.574-2.039A1.982,1.982,0,0,0,258.984-6.742Zm9.469,6.93A3.965,3.965,0,0,1,265.5-.934a4.05,4.05,0,0,1-1.105-2.973,4.214,4.214,0,0,1,1.152-3.148,4.237,4.237,0,0,1,3.105-1.133,3.838,3.838,0,0,1,2.922,1.1,4.255,4.255,0,0,1,1.047,3.055,4.193,4.193,0,0,1-1.129,3.066A4.055,4.055,0,0,1,268.453.188Zm.086-6.93a2.069,2.069,0,0,0-1.68.742,3.108,3.108,0,0,0-.617,2.047,2.927,2.927,0,0,0,.625,1.98,2.1,2.1,0,0,0,1.672.723,1.992,1.992,0,0,0,1.645-.711,3.147,3.147,0,0,0,.574-2.023,3.2,3.2,0,0,0-.574-2.039A1.982,1.982,0,0,0,268.539-6.742ZM276.281,0h-1.82V-11.844h1.82Zm1.859-.25V-1.93a3.616,3.616,0,0,0,2.242.773q1.641,0,1.641-.969a.763.763,0,0,0-.141-.465,1.343,1.343,0,0,0-.379-.34,2.978,2.978,0,0,0-.562-.266q-.324-.117-.723-.266a7.651,7.651,0,0,1-.887-.414,2.679,2.679,0,0,1-.656-.5A1.873,1.873,0,0,1,278.281-5a2.316,2.316,0,0,1-.133-.82,1.9,1.9,0,0,1,.273-1.02,2.376,2.376,0,0,1,.734-.742,3.521,3.521,0,0,1,1.047-.453,4.793,4.793,0,0,1,1.211-.152,5.5,5.5,0,0,1,1.984.336v1.586a3.345,3.345,0,0,0-1.937-.578,2.53,2.53,0,0,0-.621.07,1.6,1.6,0,0,0-.473.2.961.961,0,0,0-.3.3.718.718,0,0,0-.109.387.826.826,0,0,0,.109.438.993.993,0,0,0,.324.316,2.8,2.8,0,0,0,.516.25q.3.113.691.246a10.1,10.1,0,0,1,.926.43,3.129,3.129,0,0,1,.7.5,1.944,1.944,0,0,1,.445.641,2.175,2.175,0,0,1,.156.863,1.973,1.973,0,0,1-.281,1.063,2.344,2.344,0,0,1-.75.75,3.511,3.511,0,0,1-1.082.441,5.621,5.621,0,0,1-1.293.145A5.448,5.448,0,0,1,278.141-.25Z" transform="translate(30 51)" fill="#31313a"/>
    <path id="Path_10276" data-name="Path 10276" d="M6.986-3.11a3.631,3.631,0,0,1-.232,1.319A3.171,3.171,0,0,1,6.111-.752a2.871,2.871,0,0,1-.978.68A3.1,3.1,0,0,1,3.9.171,2.8,2.8,0,0,1,2.581-.137a2.8,2.8,0,0,1-.991-.885A4.246,4.246,0,0,1,.971-2.434a7.648,7.648,0,0,1-.212-1.88,8.834,8.834,0,0,1,.284-2.321,5.638,5.638,0,0,1,.807-1.784A3.719,3.719,0,0,1,3.11-9.563a3.379,3.379,0,0,1,1.647-.4,3.968,3.968,0,0,1,1.627.28v1.06a3.455,3.455,0,0,0-1.6-.39A2.384,2.384,0,0,0,3.6-8.723a2.716,2.716,0,0,0-.9.831,4.051,4.051,0,0,0-.578,1.3,6.572,6.572,0,0,0-.2,1.688h.027A2.354,2.354,0,0,1,4.184-6.132a2.942,2.942,0,0,1,1.159.219,2.5,2.5,0,0,1,.882.619,2.785,2.785,0,0,1,.564.954A3.63,3.63,0,0,1,6.986-3.11Zm-1.148.144a3.051,3.051,0,0,0-.13-.923,2,2,0,0,0-.373-.7,1.606,1.606,0,0,0-.6-.441,2.013,2.013,0,0,0-.807-.154,1.888,1.888,0,0,0-.772.157,1.924,1.924,0,0,0-.615.427,1.98,1.98,0,0,0-.407.629,1.992,1.992,0,0,0-.147.762,3.041,3.041,0,0,0,.144.947,2.446,2.446,0,0,0,.4.769,1.918,1.918,0,0,0,.619.516,1.69,1.69,0,0,0,.8.188,1.824,1.824,0,0,0,.772-.161,1.723,1.723,0,0,0,.595-.448A2.073,2.073,0,0,0,5.7-2.082,2.723,2.723,0,0,0,5.838-2.967ZM17.288-.321a3.643,3.643,0,0,1-1.914.485A3.169,3.169,0,0,1,12.958-.81a3.53,3.53,0,0,1-.919-2.526,3.881,3.881,0,0,1,.991-2.779,3.467,3.467,0,0,1,2.646-1.049,3.682,3.682,0,0,1,1.627.342v1.148a2.85,2.85,0,0,0-1.668-.547,2.254,2.254,0,0,0-1.76.769,2.918,2.918,0,0,0-.687,2.02,2.779,2.779,0,0,0,.646,1.941,2.227,2.227,0,0,0,1.733.711,2.81,2.81,0,0,0,1.723-.608ZM23.994,0H22.873V-1.094h-.027A2.347,2.347,0,0,1,20.692.164,2.3,2.3,0,0,1,19.055-.39a1.918,1.918,0,0,1-.591-1.47q0-1.962,2.311-2.283l2.1-.294q0-1.784-1.442-1.784a3.446,3.446,0,0,0-2.283.861V-6.508a4.338,4.338,0,0,1,2.379-.656q2.468,0,2.468,2.611ZM22.873-3.541l-1.688.232a2.741,2.741,0,0,0-1.176.386,1.114,1.114,0,0,0-.4.981,1.068,1.068,0,0,0,.366.837,1.413,1.413,0,0,0,.974.325,1.8,1.8,0,0,0,1.377-.584,2.088,2.088,0,0,0,.543-1.48Zm6.48,3.473A2.161,2.161,0,0,1,28.308.15Q26.469.15,26.469-1.9V-6.043h-1.2V-7h1.2V-8.709l1.121-.362V-7h1.764v.957H27.59V-2.1a1.635,1.635,0,0,0,.239,1,.955.955,0,0,0,.793.3,1.179,1.179,0,0,0,.731-.232ZM36.477-3.22H31.534a2.618,2.618,0,0,0,.629,1.8,2.168,2.168,0,0,0,1.654.636,3.439,3.439,0,0,0,2.174-.779V-.506a4.063,4.063,0,0,1-2.44.67A2.959,2.959,0,0,1,31.22-.79a3.9,3.9,0,0,1-.848-2.683A3.828,3.828,0,0,1,31.3-6.135a2.97,2.97,0,0,1,2.3-1.029,2.632,2.632,0,0,1,2.126.889,3.705,3.705,0,0,1,.752,2.468Zm-1.148-.95a2.281,2.281,0,0,0-.468-1.511,1.6,1.6,0,0,0-1.282-.54,1.811,1.811,0,0,0-1.347.567,2.575,2.575,0,0,0-.684,1.483ZM44.146-.561q0,3.855-3.691,3.855a4.956,4.956,0,0,1-2.27-.492V1.682a4.661,4.661,0,0,0,2.256.656q2.584,0,2.584-2.748v-.766H43A2.622,2.622,0,0,1,40.592.164a2.628,2.628,0,0,1-2.1-.933,3.73,3.73,0,0,1-.8-2.505,4.358,4.358,0,0,1,.858-2.837A2.866,2.866,0,0,1,40.9-7.164,2.282,2.282,0,0,1,43-6.029h.027V-7h1.121Zm-1.121-2.6V-4.2a2,2,0,0,0-.564-1.429,1.857,1.857,0,0,0-1.4-.595,1.947,1.947,0,0,0-1.627.755,3.372,3.372,0,0,0-.588,2.116,2.894,2.894,0,0,0,.564,1.87,1.822,1.822,0,0,0,1.494.7,1.951,1.951,0,0,0,1.535-.67A2.5,2.5,0,0,0,43.025-3.165ZM49.342.164a3.247,3.247,0,0,1-2.478-.981,3.634,3.634,0,0,1-.926-2.6A3.785,3.785,0,0,1,46.9-6.173a3.465,3.465,0,0,1,2.6-.991A3.14,3.14,0,0,1,51.95-6.2a3.822,3.822,0,0,1,.878,2.673,3.761,3.761,0,0,1-.947,2.683A3.317,3.317,0,0,1,49.342.164Zm.082-6.385a2.132,2.132,0,0,0-1.709.735,3.018,3.018,0,0,0-.629,2.027A2.854,2.854,0,0,0,47.722-1.5a2.161,2.161,0,0,0,1.7.718,2.049,2.049,0,0,0,1.671-.7,3.055,3.055,0,0,0,.584-2A3.108,3.108,0,0,0,51.1-5.51,2.04,2.04,0,0,0,49.424-6.221Zm8.846.355a1.371,1.371,0,0,0-.848-.226,1.431,1.431,0,0,0-1.2.677,3.129,3.129,0,0,0-.482,1.846V0H54.619V-7H55.74v1.442h.027A2.444,2.444,0,0,1,56.5-6.709a1.668,1.668,0,0,1,1.1-.414,1.83,1.83,0,0,1,.67.1Zm1.791-2.912a.71.71,0,0,1-.513-.205.692.692,0,0,1-.212-.52.7.7,0,0,1,.212-.523.7.7,0,0,1,.513-.208.724.724,0,0,1,.523.208A.7.7,0,0,1,60.8-9.5a.693.693,0,0,1-.215.513A.718.718,0,0,1,60.061-8.777ZM60.607,0H59.486V-7h1.121Zm7.9-3.22H63.561a2.618,2.618,0,0,0,.629,1.8,2.168,2.168,0,0,0,1.654.636,3.439,3.439,0,0,0,2.174-.779V-.506a4.063,4.063,0,0,1-2.44.67A2.959,2.959,0,0,1,63.246-.79,3.9,3.9,0,0,1,62.4-3.473a3.828,3.828,0,0,1,.926-2.663,2.97,2.97,0,0,1,2.3-1.029,2.632,2.632,0,0,1,2.126.889A3.705,3.705,0,0,1,68.5-3.808Zm-1.148-.95a2.281,2.281,0,0,0-.468-1.511,1.6,1.6,0,0,0-1.282-.54,1.811,1.811,0,0,0-1.347.567,2.575,2.575,0,0,0-.684,1.483Zm2.42,3.917v-1.2a3.318,3.318,0,0,0,2.017.677q1.477,0,1.477-.984a.854.854,0,0,0-.126-.475,1.26,1.26,0,0,0-.342-.345,2.631,2.631,0,0,0-.506-.27q-.291-.12-.625-.25a8.056,8.056,0,0,1-.817-.373,2.468,2.468,0,0,1-.588-.424,1.577,1.577,0,0,1-.355-.537,1.9,1.9,0,0,1-.12-.7,1.673,1.673,0,0,1,.226-.872,2,2,0,0,1,.6-.636,2.805,2.805,0,0,1,.858-.386,3.805,3.805,0,0,1,.995-.13,4.016,4.016,0,0,1,1.627.314v1.135a3.171,3.171,0,0,0-1.777-.506,2.078,2.078,0,0,0-.567.072,1.389,1.389,0,0,0-.434.2.932.932,0,0,0-.28.311.819.819,0,0,0-.1.4.959.959,0,0,0,.1.458,1.008,1.008,0,0,0,.291.328,2.221,2.221,0,0,0,.465.26q.273.116.622.253a8.658,8.658,0,0,1,.834.366,2.86,2.86,0,0,1,.629.424,1.656,1.656,0,0,1,.4.543,1.753,1.753,0,0,1,.14.731,1.725,1.725,0,0,1-.229.9,1.963,1.963,0,0,1-.612.636,2.8,2.8,0,0,1-.882.376,4.354,4.354,0,0,1-1.046.123A3.971,3.971,0,0,1,69.774-.253Z" transform="translate(367 50)" fill="#31313a"/>
    <path id="Path_10274" data-name="Path 10274" d="M6.863-5.489a9.764,9.764,0,0,1-.267,2.4,5.345,5.345,0,0,1-.779,1.777A3.45,3.45,0,0,1,4.566-.208,3.627,3.627,0,0,1,2.885.171,4.028,4.028,0,0,1,1.176-.171V-1.244a3.484,3.484,0,0,0,1.736.458A2.521,2.521,0,0,0,4.1-1.06a2.456,2.456,0,0,0,.885-.8,3.91,3.91,0,0,0,.554-1.289A7.276,7.276,0,0,0,5.729-4.9H5.7A2.239,2.239,0,0,1,3.514-3.637a2.941,2.941,0,0,1-1.155-.222,2.647,2.647,0,0,1-.909-.629,2.878,2.878,0,0,1-.595-.967A3.474,3.474,0,0,1,.643-6.692,3.6,3.6,0,0,1,.878-8.019a3.091,3.091,0,0,1,.656-1.036,2.936,2.936,0,0,1,1-.673,3.264,3.264,0,0,1,1.261-.239,2.792,2.792,0,0,1,1.309.3,2.624,2.624,0,0,1,.96.868,4.29,4.29,0,0,1,.595,1.4A8.021,8.021,0,0,1,6.863-5.489Zm-1.21-1a3.413,3.413,0,0,0-.147-1.032,2.5,2.5,0,0,0-.407-.8,1.825,1.825,0,0,0-.619-.513A1.712,1.712,0,0,0,3.7-9.017a1.775,1.775,0,0,0-.752.161,1.808,1.808,0,0,0-.6.451,2.154,2.154,0,0,0-.4.69,2.508,2.508,0,0,0-.147.872,2.867,2.867,0,0,0,.14.93,1.942,1.942,0,0,0,.4.694,1.727,1.727,0,0,0,.625.434,2.111,2.111,0,0,0,.81.15A1.856,1.856,0,0,0,4.5-4.782a1.946,1.946,0,0,0,.6-.4,1.827,1.827,0,0,0,.4-.588A1.807,1.807,0,0,0,5.653-6.494ZM17.288-.321a3.643,3.643,0,0,1-1.914.485A3.169,3.169,0,0,1,12.958-.81a3.53,3.53,0,0,1-.919-2.526,3.881,3.881,0,0,1,.991-2.779,3.467,3.467,0,0,1,2.646-1.049,3.682,3.682,0,0,1,1.627.342v1.148a2.85,2.85,0,0,0-1.668-.547,2.254,2.254,0,0,0-1.76.769,2.918,2.918,0,0,0-.687,2.02,2.779,2.779,0,0,0,.646,1.941,2.227,2.227,0,0,0,1.733.711,2.81,2.81,0,0,0,1.723-.608ZM23.994,0H22.873V-1.094h-.027A2.347,2.347,0,0,1,20.692.164,2.3,2.3,0,0,1,19.055-.39a1.918,1.918,0,0,1-.591-1.47q0-1.962,2.311-2.283l2.1-.294q0-1.784-1.442-1.784a3.446,3.446,0,0,0-2.283.861V-6.508a4.338,4.338,0,0,1,2.379-.656q2.468,0,2.468,2.611ZM22.873-3.541l-1.688.232a2.741,2.741,0,0,0-1.176.386,1.114,1.114,0,0,0-.4.981,1.068,1.068,0,0,0,.366.837,1.413,1.413,0,0,0,.974.325,1.8,1.8,0,0,0,1.377-.584,2.088,2.088,0,0,0,.543-1.48Zm6.48,3.473A2.161,2.161,0,0,1,28.308.15Q26.469.15,26.469-1.9V-6.043h-1.2V-7h1.2V-8.709l1.121-.362V-7h1.764v.957H27.59V-2.1a1.635,1.635,0,0,0,.239,1,.955.955,0,0,0,.793.3,1.179,1.179,0,0,0,.731-.232ZM36.477-3.22H31.534a2.618,2.618,0,0,0,.629,1.8,2.168,2.168,0,0,0,1.654.636,3.439,3.439,0,0,0,2.174-.779V-.506a4.063,4.063,0,0,1-2.44.67A2.959,2.959,0,0,1,31.22-.79a3.9,3.9,0,0,1-.848-2.683A3.828,3.828,0,0,1,31.3-6.135a2.97,2.97,0,0,1,2.3-1.029,2.632,2.632,0,0,1,2.126.889,3.705,3.705,0,0,1,.752,2.468Zm-1.148-.95a2.281,2.281,0,0,0-.468-1.511,1.6,1.6,0,0,0-1.282-.54,1.811,1.811,0,0,0-1.347.567,2.575,2.575,0,0,0-.684,1.483ZM44.146-.561q0,3.855-3.691,3.855a4.956,4.956,0,0,1-2.27-.492V1.682a4.661,4.661,0,0,0,2.256.656q2.584,0,2.584-2.748v-.766H43A2.622,2.622,0,0,1,40.592.164a2.628,2.628,0,0,1-2.1-.933,3.73,3.73,0,0,1-.8-2.505,4.358,4.358,0,0,1,.858-2.837A2.866,2.866,0,0,1,40.9-7.164,2.282,2.282,0,0,1,43-6.029h.027V-7h1.121Zm-1.121-2.6V-4.2a2,2,0,0,0-.564-1.429,1.857,1.857,0,0,0-1.4-.595,1.947,1.947,0,0,0-1.627.755,3.372,3.372,0,0,0-.588,2.116,2.894,2.894,0,0,0,.564,1.87,1.822,1.822,0,0,0,1.494.7,1.951,1.951,0,0,0,1.535-.67A2.5,2.5,0,0,0,43.025-3.165ZM49.342.164a3.247,3.247,0,0,1-2.478-.981,3.634,3.634,0,0,1-.926-2.6A3.785,3.785,0,0,1,46.9-6.173a3.465,3.465,0,0,1,2.6-.991A3.14,3.14,0,0,1,51.95-6.2a3.822,3.822,0,0,1,.878,2.673,3.761,3.761,0,0,1-.947,2.683A3.317,3.317,0,0,1,49.342.164Zm.082-6.385a2.132,2.132,0,0,0-1.709.735,3.018,3.018,0,0,0-.629,2.027A2.854,2.854,0,0,0,47.722-1.5a2.161,2.161,0,0,0,1.7.718,2.049,2.049,0,0,0,1.671-.7,3.055,3.055,0,0,0,.584-2A3.108,3.108,0,0,0,51.1-5.51,2.04,2.04,0,0,0,49.424-6.221Zm8.846.355a1.371,1.371,0,0,0-.848-.226,1.431,1.431,0,0,0-1.2.677,3.129,3.129,0,0,0-.482,1.846V0H54.619V-7H55.74v1.442h.027A2.444,2.444,0,0,1,56.5-6.709a1.668,1.668,0,0,1,1.1-.414,1.83,1.83,0,0,1,.67.1Zm1.791-2.912a.71.71,0,0,1-.513-.205.692.692,0,0,1-.212-.52.7.7,0,0,1,.212-.523.7.7,0,0,1,.513-.208.724.724,0,0,1,.523.208A.7.7,0,0,1,60.8-9.5a.693.693,0,0,1-.215.513A.718.718,0,0,1,60.061-8.777ZM60.607,0H59.486V-7h1.121Zm7.9-3.22H63.561a2.618,2.618,0,0,0,.629,1.8,2.168,2.168,0,0,0,1.654.636,3.439,3.439,0,0,0,2.174-.779V-.506a4.063,4.063,0,0,1-2.44.67A2.959,2.959,0,0,1,63.246-.79,3.9,3.9,0,0,1,62.4-3.473a3.828,3.828,0,0,1,.926-2.663,2.97,2.97,0,0,1,2.3-1.029,2.632,2.632,0,0,1,2.126.889A3.705,3.705,0,0,1,68.5-3.808Zm-1.148-.95a2.281,2.281,0,0,0-.468-1.511,1.6,1.6,0,0,0-1.282-.54,1.811,1.811,0,0,0-1.347.567,2.575,2.575,0,0,0-.684,1.483Zm2.42,3.917v-1.2a3.318,3.318,0,0,0,2.017.677q1.477,0,1.477-.984a.854.854,0,0,0-.126-.475,1.26,1.26,0,0,0-.342-.345,2.631,2.631,0,0,0-.506-.27q-.291-.12-.625-.25a8.056,8.056,0,0,1-.817-.373,2.468,2.468,0,0,1-.588-.424,1.577,1.577,0,0,1-.355-.537,1.9,1.9,0,0,1-.12-.7,1.673,1.673,0,0,1,.226-.872,2,2,0,0,1,.6-.636,2.805,2.805,0,0,1,.858-.386,3.805,3.805,0,0,1,.995-.13,4.016,4.016,0,0,1,1.627.314v1.135a3.171,3.171,0,0,0-1.777-.506,2.078,2.078,0,0,0-.567.072,1.389,1.389,0,0,0-.434.2.932.932,0,0,0-.28.311.819.819,0,0,0-.1.4.959.959,0,0,0,.1.458,1.008,1.008,0,0,0,.291.328,2.221,2.221,0,0,0,.465.26q.273.116.622.253a8.658,8.658,0,0,1,.834.366,2.86,2.86,0,0,1,.629.424,1.656,1.656,0,0,1,.4.543,1.753,1.753,0,0,1,.14.731,1.725,1.725,0,0,1-.229.9,1.963,1.963,0,0,1-.612.636,2.8,2.8,0,0,1-.882.376,4.354,4.354,0,0,1-1.046.123A3.971,3.971,0,0,1,69.774-.253Z" transform="translate(367 147)" fill="#31313a"/>
    <path id="Path_10275" data-name="Path 10275" d="M.615-2.734a2.608,2.608,0,0,1,.123-.783,2.835,2.835,0,0,1,.352-.735,2.913,2.913,0,0,1,.567-.622,2.7,2.7,0,0,1,.769-.444,2.906,2.906,0,0,1-1.012-.913,2.158,2.158,0,0,1-.376-1.234,2.38,2.38,0,0,1,.208-1,2.4,2.4,0,0,1,.578-.793A2.67,2.67,0,0,1,2.7-9.779a3.115,3.115,0,0,1,1.094-.188,3.085,3.085,0,0,1,1.1.191,2.717,2.717,0,0,1,.875.526,2.363,2.363,0,0,1,.574.793,2.4,2.4,0,0,1,.205.991,2.158,2.158,0,0,1-.376,1.234,2.943,2.943,0,0,1-1,.913,2.681,2.681,0,0,1,.759.444,2.956,2.956,0,0,1,.564.622,2.835,2.835,0,0,1,.352.735,2.608,2.608,0,0,1,.123.783A2.911,2.911,0,0,1,6.74-1.559a2.627,2.627,0,0,1-.653.913,3.014,3.014,0,0,1-1,.591A3.756,3.756,0,0,1,3.794.157,3.706,3.706,0,0,1,2.516-.055a3.06,3.06,0,0,1-1-.591,2.645,2.645,0,0,1-.66-.913A2.875,2.875,0,0,1,.615-2.734Zm1.217-.1A2.316,2.316,0,0,0,1.972-2a1.783,1.783,0,0,0,.4.629,1.731,1.731,0,0,0,.622.4,2.247,2.247,0,0,0,.81.14,2.134,2.134,0,0,0,.793-.144,1.848,1.848,0,0,0,.625-.4,1.813,1.813,0,0,0,.41-.629,2.2,2.2,0,0,0,.147-.82,2.1,2.1,0,0,0-.14-.769,1.925,1.925,0,0,0-.4-.632,1.879,1.879,0,0,0-.622-.431A2.024,2.024,0,0,0,3.8-4.819a2.046,2.046,0,0,0-.783.147,1.873,1.873,0,0,0-.622.41,1.9,1.9,0,0,0-.414.629A2.092,2.092,0,0,0,1.832-2.83Zm.349-4.546a1.633,1.633,0,0,0,.126.646,1.628,1.628,0,0,0,.349.52,1.638,1.638,0,0,0,.516.349,1.574,1.574,0,0,0,.629.126,1.562,1.562,0,0,0,.632-.13,1.634,1.634,0,0,0,.516-.352,1.706,1.706,0,0,0,.349-.52,1.579,1.579,0,0,0,.13-.639A1.676,1.676,0,0,0,5.3-8.032a1.606,1.606,0,0,0-.345-.52A1.616,1.616,0,0,0,4.44-8.9,1.616,1.616,0,0,0,3.8-9.023a1.631,1.631,0,0,0-.66.13,1.594,1.594,0,0,0-.513.352,1.539,1.539,0,0,0-.332.523A1.767,1.767,0,0,0,2.181-7.376ZM17.288-.321a3.643,3.643,0,0,1-1.914.485A3.169,3.169,0,0,1,12.958-.81a3.53,3.53,0,0,1-.919-2.526,3.881,3.881,0,0,1,.991-2.779,3.467,3.467,0,0,1,2.646-1.049,3.682,3.682,0,0,1,1.627.342v1.148a2.85,2.85,0,0,0-1.668-.547,2.254,2.254,0,0,0-1.76.769,2.918,2.918,0,0,0-.687,2.02,2.779,2.779,0,0,0,.646,1.941,2.227,2.227,0,0,0,1.733.711,2.81,2.81,0,0,0,1.723-.608ZM23.994,0H22.873V-1.094h-.027A2.347,2.347,0,0,1,20.692.164,2.3,2.3,0,0,1,19.055-.39a1.918,1.918,0,0,1-.591-1.47q0-1.962,2.311-2.283l2.1-.294q0-1.784-1.442-1.784a3.446,3.446,0,0,0-2.283.861V-6.508a4.338,4.338,0,0,1,2.379-.656q2.468,0,2.468,2.611ZM22.873-3.541l-1.688.232a2.741,2.741,0,0,0-1.176.386,1.114,1.114,0,0,0-.4.981,1.068,1.068,0,0,0,.366.837,1.413,1.413,0,0,0,.974.325,1.8,1.8,0,0,0,1.377-.584,2.088,2.088,0,0,0,.543-1.48Zm6.48,3.473A2.161,2.161,0,0,1,28.308.15Q26.469.15,26.469-1.9V-6.043h-1.2V-7h1.2V-8.709l1.121-.362V-7h1.764v.957H27.59V-2.1a1.635,1.635,0,0,0,.239,1,.955.955,0,0,0,.793.3,1.179,1.179,0,0,0,.731-.232ZM36.477-3.22H31.534a2.618,2.618,0,0,0,.629,1.8,2.168,2.168,0,0,0,1.654.636,3.439,3.439,0,0,0,2.174-.779V-.506a4.063,4.063,0,0,1-2.44.67A2.959,2.959,0,0,1,31.22-.79a3.9,3.9,0,0,1-.848-2.683A3.828,3.828,0,0,1,31.3-6.135a2.97,2.97,0,0,1,2.3-1.029,2.632,2.632,0,0,1,2.126.889,3.705,3.705,0,0,1,.752,2.468Zm-1.148-.95a2.281,2.281,0,0,0-.468-1.511,1.6,1.6,0,0,0-1.282-.54,1.811,1.811,0,0,0-1.347.567,2.575,2.575,0,0,0-.684,1.483ZM44.146-.561q0,3.855-3.691,3.855a4.956,4.956,0,0,1-2.27-.492V1.682a4.661,4.661,0,0,0,2.256.656q2.584,0,2.584-2.748v-.766H43A2.622,2.622,0,0,1,40.592.164a2.628,2.628,0,0,1-2.1-.933,3.73,3.73,0,0,1-.8-2.505,4.358,4.358,0,0,1,.858-2.837A2.866,2.866,0,0,1,40.9-7.164,2.282,2.282,0,0,1,43-6.029h.027V-7h1.121Zm-1.121-2.6V-4.2a2,2,0,0,0-.564-1.429,1.857,1.857,0,0,0-1.4-.595,1.947,1.947,0,0,0-1.627.755,3.372,3.372,0,0,0-.588,2.116,2.894,2.894,0,0,0,.564,1.87,1.822,1.822,0,0,0,1.494.7,1.951,1.951,0,0,0,1.535-.67A2.5,2.5,0,0,0,43.025-3.165ZM49.342.164a3.247,3.247,0,0,1-2.478-.981,3.634,3.634,0,0,1-.926-2.6A3.785,3.785,0,0,1,46.9-6.173a3.465,3.465,0,0,1,2.6-.991A3.14,3.14,0,0,1,51.95-6.2a3.822,3.822,0,0,1,.878,2.673,3.761,3.761,0,0,1-.947,2.683A3.317,3.317,0,0,1,49.342.164Zm.082-6.385a2.132,2.132,0,0,0-1.709.735,3.018,3.018,0,0,0-.629,2.027A2.854,2.854,0,0,0,47.722-1.5a2.161,2.161,0,0,0,1.7.718,2.049,2.049,0,0,0,1.671-.7,3.055,3.055,0,0,0,.584-2A3.108,3.108,0,0,0,51.1-5.51,2.04,2.04,0,0,0,49.424-6.221Zm8.846.355a1.371,1.371,0,0,0-.848-.226,1.431,1.431,0,0,0-1.2.677,3.129,3.129,0,0,0-.482,1.846V0H54.619V-7H55.74v1.442h.027A2.444,2.444,0,0,1,56.5-6.709a1.668,1.668,0,0,1,1.1-.414,1.83,1.83,0,0,1,.67.1Zm1.791-2.912a.71.71,0,0,1-.513-.205.692.692,0,0,1-.212-.52.7.7,0,0,1,.212-.523.7.7,0,0,1,.513-.208.724.724,0,0,1,.523.208A.7.7,0,0,1,60.8-9.5a.693.693,0,0,1-.215.513A.718.718,0,0,1,60.061-8.777ZM60.607,0H59.486V-7h1.121Zm7.9-3.22H63.561a2.618,2.618,0,0,0,.629,1.8,2.168,2.168,0,0,0,1.654.636,3.439,3.439,0,0,0,2.174-.779V-.506a4.063,4.063,0,0,1-2.44.67A2.959,2.959,0,0,1,63.246-.79,3.9,3.9,0,0,1,62.4-3.473a3.828,3.828,0,0,1,.926-2.663,2.97,2.97,0,0,1,2.3-1.029,2.632,2.632,0,0,1,2.126.889A3.705,3.705,0,0,1,68.5-3.808Zm-1.148-.95a2.281,2.281,0,0,0-.468-1.511,1.6,1.6,0,0,0-1.282-.54,1.811,1.811,0,0,0-1.347.567,2.575,2.575,0,0,0-.684,1.483Zm2.42,3.917v-1.2a3.318,3.318,0,0,0,2.017.677q1.477,0,1.477-.984a.854.854,0,0,0-.126-.475,1.26,1.26,0,0,0-.342-.345,2.631,2.631,0,0,0-.506-.27q-.291-.12-.625-.25a8.056,8.056,0,0,1-.817-.373,2.468,2.468,0,0,1-.588-.424,1.577,1.577,0,0,1-.355-.537,1.9,1.9,0,0,1-.12-.7,1.673,1.673,0,0,1,.226-.872,2,2,0,0,1,.6-.636,2.805,2.805,0,0,1,.858-.386,3.805,3.805,0,0,1,.995-.13,4.016,4.016,0,0,1,1.627.314v1.135a3.171,3.171,0,0,0-1.777-.506,2.078,2.078,0,0,0-.567.072,1.389,1.389,0,0,0-.434.2.932.932,0,0,0-.28.311.819.819,0,0,0-.1.4.959.959,0,0,0,.1.458,1.008,1.008,0,0,0,.291.328,2.221,2.221,0,0,0,.465.26q.273.116.622.253a8.658,8.658,0,0,1,.834.366,2.86,2.86,0,0,1,.629.424,1.656,1.656,0,0,1,.4.543,1.753,1.753,0,0,1,.14.731,1.725,1.725,0,0,1-.229.9,1.963,1.963,0,0,1-.612.636,2.8,2.8,0,0,1-.882.376,4.354,4.354,0,0,1-1.046.123A3.971,3.971,0,0,1,69.774-.253Z" transform="translate(367 98)" fill="#31313a"/>
    <path id="Path_10273" data-name="Path 10273" d="M4.949,0H3.828V-8.47a2.6,2.6,0,0,1-.379.3,6.184,6.184,0,0,1-.561.332q-.311.164-.656.308a4.769,4.769,0,0,1-.673.226V-8.442a6.517,6.517,0,0,0,.783-.277q.414-.174.813-.39T3.91-9.56a6,6,0,0,0,.615-.461h.424Zm9.57-4.942A9.63,9.63,0,0,1,14.3-2.762a5.081,5.081,0,0,1-.643,1.6,2.892,2.892,0,0,1-1.032.991,2.826,2.826,0,0,1-1.391.338A2.639,2.639,0,0,1,9.916-.154,2.758,2.758,0,0,1,8.941-1.1a4.8,4.8,0,0,1-.6-1.528A9.447,9.447,0,0,1,8.135-4.7a10.694,10.694,0,0,1,.215-2.27,5.191,5.191,0,0,1,.632-1.651,2.814,2.814,0,0,1,1.036-1,2.908,2.908,0,0,1,1.418-.338Q14.52-9.967,14.52-4.942Zm-1.148.109q0-4.184-1.989-4.184-2.1,0-2.1,4.259,0,3.972,2.058,3.972Q13.371-.786,13.371-4.833ZM24.835-.321a3.643,3.643,0,0,1-1.914.485A3.169,3.169,0,0,1,20.5-.81a3.53,3.53,0,0,1-.919-2.526,3.881,3.881,0,0,1,.991-2.779,3.467,3.467,0,0,1,2.646-1.049,3.682,3.682,0,0,1,1.627.342v1.148a2.85,2.85,0,0,0-1.668-.547,2.254,2.254,0,0,0-1.76.769,2.918,2.918,0,0,0-.687,2.02,2.779,2.779,0,0,0,.646,1.941,2.227,2.227,0,0,0,1.733.711,2.81,2.81,0,0,0,1.723-.608ZM31.541,0H30.42V-1.094h-.027A2.347,2.347,0,0,1,28.239.164,2.3,2.3,0,0,1,26.6-.39a1.918,1.918,0,0,1-.591-1.47q0-1.962,2.311-2.283l2.1-.294q0-1.784-1.442-1.784a3.446,3.446,0,0,0-2.283.861V-6.508a4.338,4.338,0,0,1,2.379-.656q2.468,0,2.468,2.611ZM30.42-3.541l-1.688.232a2.741,2.741,0,0,0-1.176.386,1.114,1.114,0,0,0-.4.981,1.068,1.068,0,0,0,.366.837,1.413,1.413,0,0,0,.974.325,1.8,1.8,0,0,0,1.377-.584,2.088,2.088,0,0,0,.543-1.48ZM36.9-.068A2.161,2.161,0,0,1,35.854.15Q34.016.15,34.016-1.9V-6.043h-1.2V-7h1.2V-8.709l1.121-.362V-7H36.9v.957H35.137V-2.1a1.635,1.635,0,0,0,.239,1,.955.955,0,0,0,.793.3,1.179,1.179,0,0,0,.731-.232ZM44.023-3.22H39.081a2.618,2.618,0,0,0,.629,1.8,2.168,2.168,0,0,0,1.654.636,3.439,3.439,0,0,0,2.174-.779V-.506a4.063,4.063,0,0,1-2.44.67A2.959,2.959,0,0,1,38.767-.79a3.9,3.9,0,0,1-.848-2.683,3.828,3.828,0,0,1,.926-2.663,2.97,2.97,0,0,1,2.3-1.029,2.632,2.632,0,0,1,2.126.889,3.705,3.705,0,0,1,.752,2.468Zm-1.148-.95a2.281,2.281,0,0,0-.468-1.511,1.6,1.6,0,0,0-1.282-.54,1.811,1.811,0,0,0-1.347.567,2.575,2.575,0,0,0-.684,1.483ZM51.693-.561q0,3.855-3.691,3.855a4.956,4.956,0,0,1-2.27-.492V1.682a4.661,4.661,0,0,0,2.256.656q2.584,0,2.584-2.748v-.766h-.027A2.622,2.622,0,0,1,48.139.164a2.628,2.628,0,0,1-2.1-.933,3.73,3.73,0,0,1-.8-2.505A4.358,4.358,0,0,1,46.1-6.111a2.866,2.866,0,0,1,2.348-1.053,2.282,2.282,0,0,1,2.1,1.135h.027V-7h1.121Zm-1.121-2.6V-4.2a2,2,0,0,0-.564-1.429,1.857,1.857,0,0,0-1.4-.595,1.947,1.947,0,0,0-1.627.755,3.372,3.372,0,0,0-.588,2.116,2.894,2.894,0,0,0,.564,1.87,1.822,1.822,0,0,0,1.494.7,1.951,1.951,0,0,0,1.535-.67A2.5,2.5,0,0,0,50.572-3.165ZM56.889.164a3.247,3.247,0,0,1-2.478-.981,3.634,3.634,0,0,1-.926-2.6,3.785,3.785,0,0,1,.964-2.755,3.465,3.465,0,0,1,2.6-.991A3.14,3.14,0,0,1,59.5-6.2a3.822,3.822,0,0,1,.878,2.673,3.761,3.761,0,0,1-.947,2.683A3.317,3.317,0,0,1,56.889.164Zm.082-6.385a2.132,2.132,0,0,0-1.709.735,3.018,3.018,0,0,0-.629,2.027A2.854,2.854,0,0,0,55.269-1.5a2.161,2.161,0,0,0,1.7.718,2.049,2.049,0,0,0,1.671-.7,3.055,3.055,0,0,0,.584-2,3.108,3.108,0,0,0-.584-2.023A2.04,2.04,0,0,0,56.971-6.221Zm8.846.355a1.371,1.371,0,0,0-.848-.226,1.431,1.431,0,0,0-1.2.677,3.129,3.129,0,0,0-.482,1.846V0H62.166V-7h1.121v1.442h.027a2.444,2.444,0,0,1,.731-1.152,1.668,1.668,0,0,1,1.1-.414,1.83,1.83,0,0,1,.67.1Zm1.791-2.912a.71.71,0,0,1-.513-.205.692.692,0,0,1-.212-.52.7.7,0,0,1,.212-.523.7.7,0,0,1,.513-.208.724.724,0,0,1,.523.208.7.7,0,0,1,.215.523.693.693,0,0,1-.215.513A.718.718,0,0,1,67.607-8.777ZM68.154,0H67.033V-7h1.121Zm7.9-3.22H71.107a2.618,2.618,0,0,0,.629,1.8,2.168,2.168,0,0,0,1.654.636,3.439,3.439,0,0,0,2.174-.779V-.506a4.063,4.063,0,0,1-2.44.67A2.959,2.959,0,0,1,70.793-.79a3.9,3.9,0,0,1-.848-2.683,3.828,3.828,0,0,1,.926-2.663,2.97,2.97,0,0,1,2.3-1.029,2.632,2.632,0,0,1,2.126.889,3.705,3.705,0,0,1,.752,2.468ZM74.9-4.17a2.281,2.281,0,0,0-.468-1.511,1.6,1.6,0,0,0-1.282-.54,1.811,1.811,0,0,0-1.347.567,2.575,2.575,0,0,0-.684,1.483Zm2.42,3.917v-1.2a3.318,3.318,0,0,0,2.017.677q1.477,0,1.477-.984a.854.854,0,0,0-.126-.475,1.26,1.26,0,0,0-.342-.345,2.631,2.631,0,0,0-.506-.27q-.291-.12-.625-.25a8.056,8.056,0,0,1-.817-.373A2.468,2.468,0,0,1,77.81-3.9a1.577,1.577,0,0,1-.355-.537,1.9,1.9,0,0,1-.12-.7,1.673,1.673,0,0,1,.226-.872,2,2,0,0,1,.6-.636,2.805,2.805,0,0,1,.858-.386,3.805,3.805,0,0,1,.995-.13,4.016,4.016,0,0,1,1.627.314v1.135a3.171,3.171,0,0,0-1.777-.506,2.078,2.078,0,0,0-.567.072,1.389,1.389,0,0,0-.434.2.932.932,0,0,0-.28.311.819.819,0,0,0-.1.4.959.959,0,0,0,.1.458,1.008,1.008,0,0,0,.291.328,2.221,2.221,0,0,0,.465.26q.273.116.622.253a8.658,8.658,0,0,1,.834.366,2.86,2.86,0,0,1,.629.424,1.656,1.656,0,0,1,.4.543,1.753,1.753,0,0,1,.14.731,1.725,1.725,0,0,1-.229.9,1.963,1.963,0,0,1-.612.636,2.8,2.8,0,0,1-.882.376,4.354,4.354,0,0,1-1.046.123A3.971,3.971,0,0,1,77.321-.253Z" transform="translate(367 196)" fill="#31313a"/>
  </g>
</svg>
