<svg xmlns="http://www.w3.org/2000/svg" xmlns:xlink="http://www.w3.org/1999/xlink" width="296" height="222" viewBox="0 0 296 222">
  <defs>
    <filter id="Path_7609" x="84" y="82" width="42" height="42" filterUnits="userSpaceOnUse">
      <feOffset dy="3" input="SourceAlpha"/>
      <feGaussianBlur stdDeviation="1" result="blur"/>
      <feFlood flood-opacity="0.078"/>
      <feComposite operator="in" in2="blur"/>
      <feComposite in="SourceGraphic"/>
    </filter>
    <filter id="Path_7609-2" x="220" y="82" width="42" height="42" filterUnits="userSpaceOnUse">
      <feOffset dy="3" input="SourceAlpha"/>
      <feGaussianBlur stdDeviation="1" result="blur-2"/>
      <feFlood flood-opacity="0.078"/>
      <feComposite operator="in" in2="blur-2"/>
      <feComposite in="SourceGraphic"/>
    </filter>
    <filter id="Path_7610" x="40" y="157" width="42" height="42" filterUnits="userSpaceOnUse">
      <feOffset dy="3" input="SourceAlpha"/>
      <feGaussianBlur stdDeviation="1" result="blur-3"/>
      <feFlood flood-opacity="0.078"/>
      <feComposite operator="in" in2="blur-3"/>
      <feComposite in="SourceGraphic"/>
    </filter>
    <filter id="Path_7610-2" x="176" y="157" width="42" height="42" filterUnits="userSpaceOnUse">
      <feOffset dy="3" input="SourceAlpha"/>
      <feGaussianBlur stdDeviation="1" result="blur-4"/>
      <feFlood flood-opacity="0.078"/>
      <feComposite operator="in" in2="blur-4"/>
      <feComposite in="SourceGraphic"/>
    </filter>
    <clipPath id="clip-toggle_States">
      <rect width="296" height="222"/>
    </clipPath>
  </defs>
  <g id="toggle_States" clip-path="url(#clip-toggle_States)">
    <rect width="296" height="222" fill="#fff"/>
    <g id="Group_124" data-name="Group 124" transform="translate(-363 -81.5)">
      <rect id="Rectangle_281" data-name="Rectangle 281" width="80" height="35" rx="17.5" transform="translate(406 164)" fill="#5fb53b"/>
      <g transform="matrix(1, 0, 0, 1, 363, 81.5)" filter="url(#Path_7609)">
        <g id="Path_7609-3" data-name="Path 7609" transform="translate(87 82)" fill="#fff">
          <path d="M 18 35.5 C 13.32557964324951 35.5 8.930950164794922 33.67967987060547 5.625629901885986 30.37437057495117 C 2.320319890975952 27.06905937194824 0.5 22.67441940307617 0.5 18 C 0.5 13.32557964324951 2.320319890975952 8.930950164794922 5.625629901885986 5.625629901885986 C 8.930950164794922 2.320319890975952 13.32557964324951 0.5 18 0.5 C 22.67441940307617 0.5 27.06905937194824 2.320319890975952 30.37437057495117 5.625629901885986 C 33.67967987060547 8.930950164794922 35.5 13.32557964324951 35.5 18 C 35.5 22.67441940307617 33.67967987060547 27.06905937194824 30.37437057495117 30.37437057495117 C 27.06905937194824 33.67967987060547 22.67441940307617 35.5 18 35.5 Z" stroke="none"/>
          <path d="M 18 1 C 13.45914077758789 1 9.190059661865234 2.768310546875 5.979190826416016 5.979190826416016 C 2.768310546875 9.190059661865234 1 13.45914077758789 1 18 C 1 22.54087066650391 2.768310546875 26.80994033813477 5.979190826416016 30.02082061767578 C 9.190059661865234 33.231689453125 13.45914077758789 35 18 35 C 22.54087066650391 35 26.80994033813477 33.231689453125 30.02082061767578 30.02082061767578 C 33.231689453125 26.80994033813477 35 22.54087066650391 35 18 C 35 13.45914077758789 33.231689453125 9.190059661865234 30.02082061767578 5.979190826416016 C 26.80994033813477 2.768310546875 22.54087066650391 1 18 1 M 18 0 C 27.94112968444824 0 36 8.058879852294922 36 18 C 36 27.94112968444824 27.94112968444824 36 18 36 C 8.058879852294922 36 0 27.94112968444824 0 18 C 0 8.058879852294922 8.058879852294922 0 18 0 Z" stroke="none" fill="#e6e6ea"/>
        </g>
      </g>
    </g>
    <g id="Group_7819" data-name="Group 7819" transform="translate(-227 -81.5)">
      <rect id="Rectangle_281-2" data-name="Rectangle 281" width="80" height="35" rx="17.5" transform="translate(406 164)" fill="#b8e2a6"/>
      <g transform="matrix(1, 0, 0, 1, 227, 81.5)" filter="url(#Path_7609-2)">
        <g id="Path_7609-4" data-name="Path 7609" transform="translate(223 82)" fill="#fff">
          <path d="M 18 35.5 C 13.32557964324951 35.5 8.930950164794922 33.67967987060547 5.625629901885986 30.37437057495117 C 2.320319890975952 27.06905937194824 0.5 22.67441940307617 0.5 18 C 0.5 13.32557964324951 2.320319890975952 8.930950164794922 5.625629901885986 5.625629901885986 C 8.930950164794922 2.320319890975952 13.32557964324951 0.5 18 0.5 C 22.67441940307617 0.5 27.06905937194824 2.320319890975952 30.37437057495117 5.625629901885986 C 33.67967987060547 8.930950164794922 35.5 13.32557964324951 35.5 18 C 35.5 22.67441940307617 33.67967987060547 27.06905937194824 30.37437057495117 30.37437057495117 C 27.06905937194824 33.67967987060547 22.67441940307617 35.5 18 35.5 Z" stroke="none"/>
          <path d="M 18 1 C 13.45914077758789 1 9.190059661865234 2.768310546875 5.979190826416016 5.979190826416016 C 2.768310546875 9.190059661865234 1 13.45914077758789 1 18 C 1 22.54087066650391 2.768310546875 26.80994033813477 5.979190826416016 30.02082061767578 C 9.190059661865234 33.231689453125 13.45914077758789 35 18 35 C 22.54087066650391 35 26.80994033813477 33.231689453125 30.02082061767578 30.02082061767578 C 33.231689453125 26.80994033813477 35 22.54087066650391 35 18 C 35 13.45914077758789 33.231689453125 9.190059661865234 30.02082061767578 5.979190826416016 C 26.80994033813477 2.768310546875 22.54087066650391 1 18 1 M 18 0 C 27.94112968444824 0 36 8.058879852294922 36 18 C 36 27.94112968444824 27.94112968444824 36 18 36 C 8.058879852294922 36 0 27.94112968444824 0 18 C 0 8.058879852294922 8.058879852294922 0 18 0 Z" stroke="none" fill="#e6e6ea"/>
        </g>
      </g>
    </g>
    <g id="Group_125" data-name="Group 125" transform="translate(-363 -112.5)">
      <rect id="Rectangle_282" data-name="Rectangle 282" width="80" height="35" rx="17.5" transform="translate(406 270)" fill="#9494a4"/>
      <g transform="matrix(1, 0, 0, 1, 363, 112.5)" filter="url(#Path_7610)">
        <g id="Path_7610-3" data-name="Path 7610" transform="translate(43 157)" fill="#fff">
          <path d="M 18 35.5 C 13.32557964324951 35.5 8.930950164794922 33.67967987060547 5.625629901885986 30.37437057495117 C 2.320319890975952 27.06905937194824 0.5 22.67441940307617 0.5 18 C 0.5 13.32557964324951 2.320319890975952 8.930950164794922 5.625629901885986 5.625629901885986 C 8.930950164794922 2.320319890975952 13.32557964324951 0.5 18 0.5 C 22.67441940307617 0.5 27.06905937194824 2.320319890975952 30.37437057495117 5.625629901885986 C 33.67967987060547 8.930950164794922 35.5 13.32557964324951 35.5 18 C 35.5 22.67441940307617 33.67967987060547 27.06905937194824 30.37437057495117 30.37437057495117 C 27.06905937194824 33.67967987060547 22.67441940307617 35.5 18 35.5 Z" stroke="none"/>
          <path d="M 18 1 C 13.45914077758789 1 9.190059661865234 2.768310546875 5.979190826416016 5.979190826416016 C 2.768310546875 9.190059661865234 1 13.45914077758789 1 18 C 1 22.54087066650391 2.768310546875 26.80994033813477 5.979190826416016 30.02082061767578 C 9.190059661865234 33.231689453125 13.45914077758789 35 18 35 C 22.54087066650391 35 26.80994033813477 33.231689453125 30.02082061767578 30.02082061767578 C 33.231689453125 26.80994033813477 35 22.54087066650391 35 18 C 35 13.45914077758789 33.231689453125 9.190059661865234 30.02082061767578 5.979190826416016 C 26.80994033813477 2.768310546875 22.54087066650391 1 18 1 M 18 0 C 27.94112968444824 0 36 8.058879852294922 36 18 C 36 27.94112968444824 27.94112968444824 36 18 36 C 8.058879852294922 36 0 27.94112968444824 0 18 C 0 8.058879852294922 8.058879852294922 0 18 0 Z" stroke="none" fill="#e6e6ea"/>
        </g>
      </g>
    </g>
    <g id="Group_7820" data-name="Group 7820" transform="translate(-227 -112.5)">
      <rect id="Rectangle_282-2" data-name="Rectangle 282" width="80" height="35" rx="17.5" transform="translate(406 270)" fill="#e6e6ea"/>
      <g transform="matrix(1, 0, 0, 1, 227, 112.5)" filter="url(#Path_7610-2)">
        <g id="Path_7610-4" data-name="Path 7610" transform="translate(179 157)" fill="#fff">
          <path d="M 18 35.5 C 13.32557964324951 35.5 8.930950164794922 33.67967987060547 5.625629901885986 30.37437057495117 C 2.320319890975952 27.06905937194824 0.5 22.67441940307617 0.5 18 C 0.5 13.32557964324951 2.320319890975952 8.930950164794922 5.625629901885986 5.625629901885986 C 8.930950164794922 2.320319890975952 13.32557964324951 0.5 18 0.5 C 22.67441940307617 0.5 27.06905937194824 2.320319890975952 30.37437057495117 5.625629901885986 C 33.67967987060547 8.930950164794922 35.5 13.32557964324951 35.5 18 C 35.5 22.67441940307617 33.67967987060547 27.06905937194824 30.37437057495117 30.37437057495117 C 27.06905937194824 33.67967987060547 22.67441940307617 35.5 18 35.5 Z" stroke="none"/>
          <path d="M 18 1 C 13.45914077758789 1 9.190059661865234 2.768310546875 5.979190826416016 5.979190826416016 C 2.768310546875 9.190059661865234 1 13.45914077758789 1 18 C 1 22.54087066650391 2.768310546875 26.80994033813477 5.979190826416016 30.02082061767578 C 9.190059661865234 33.231689453125 13.45914077758789 35 18 35 C 22.54087066650391 35 26.80994033813477 33.231689453125 30.02082061767578 30.02082061767578 C 33.231689453125 26.80994033813477 35 22.54087066650391 35 18 C 35 13.45914077758789 33.231689453125 9.190059661865234 30.02082061767578 5.979190826416016 C 26.80994033813477 2.768310546875 22.54087066650391 1 18 1 M 18 0 C 27.94112968444824 0 36 8.058879852294922 36 18 C 36 27.94112968444824 27.94112968444824 36 18 36 C 8.058879852294922 36 0 27.94112968444824 0 18 C 0 8.058879852294922 8.058879852294922 0 18 0 Z" stroke="none" fill="#e6e6ea"/>
        </g>
      </g>
    </g>
    <text id="flat_light" transform="translate(219 42)" fill="#b2b2b2" font-size="12" font-family="OpenSans, Open Sans"><tspan x="-19.787" y="0">Locked</tspan></text>
    <text id="flat_light-2" data-name="flat_light" transform="translate(88 42)" fill="#b2b2b2" font-size="12" font-family="OpenSans, Open Sans"><tspan x="-22.594" y="0">Enabled</tspan></text>
    <text id="flat_light-3" data-name="flat_light" transform="translate(20 107)" fill="#b2b2b2" font-size="12" font-family="OpenSans, Open Sans"><tspan x="-8.355" y="0">On</tspan></text>
    <text id="flat_light-4" data-name="flat_light" transform="translate(20 180)" fill="#b2b2b2" font-size="12" font-family="OpenSans, Open Sans"><tspan x="-8.742" y="0">Off</tspan></text>
  </g>
</svg>
