<svg xmlns="http://www.w3.org/2000/svg" xmlns:xlink="http://www.w3.org/1999/xlink" width="564" height="132" viewBox="0 0 564 132">
  <defs>
    <filter id="Rectangle_5232" x="26" y="-1" width="430" height="113" filterUnits="userSpaceOnUse">
      <feOffset dy="6" input="SourceAlpha"/>
      <feGaussianBlur stdDeviation="5" result="blur"/>
      <feFlood flood-opacity="0.2"/>
      <feComposite operator="in" in2="blur"/>
      <feComposite in="SourceGraphic"/>
    </filter>
    <filter id="Rectangle_3830" x="26" y="0" width="430" height="115" filterUnits="userSpaceOnUse">
      <feOffset dy="6" input="SourceAlpha"/>
      <feGaussianBlur stdDeviation="5" result="blur-2"/>
      <feFlood flood-opacity="0.302"/>
      <feComposite operator="in" in2="blur-2"/>
      <feComposite in="SourceGraphic"/>
    </filter>
    <clipPath id="clip-path">
      <g transform="matrix(1, 0, 0, 1, 0, 0)" filter="url(#Rectangle_5232)">
        <rect id="Rectangle_5232-2" data-name="Rectangle 5232" width="400" height="83" rx="4" transform="translate(0)" fill="#fff" opacity="0.9"/>
      </g>
    </clipPath>
  </defs>
  <g id="Container" transform="translate(-694 -407)">
    <g id="Group_11929" data-name="Group 11929" transform="translate(4 -19)">
      <g id="Group_11899" data-name="Group 11899" transform="translate(690 90)">
        <g id="Group_11892" data-name="Group 11892" transform="translate(-75 246)">
          <g transform="matrix(1, 0, 0, 1, 75, 90)" filter="url(#Rectangle_3830)">
            <rect id="Rectangle_3830-2" data-name="Rectangle 3830" width="400" height="85" rx="4" transform="translate(41 9)" fill="#fff"/>
          </g>
          <text id="Success_" data-name="Success! " transform="translate(169 135)" fill="#3d3d3d" font-size="16" font-family="OpenSans-Bold, Open Sans" font-weight="700"><tspan x="0" y="0">Success! </tspan></text>
          <text id="The_data_from_your_file_has_been_imported._" data-name="The data from your file has been imported. " transform="translate(169 160)" fill="#3d3d3d" font-size="14" font-family="OpenSans, Open Sans"><tspan x="0" y="0">The data from your file has been imported. </tspan></text>
          <path id="Rectangle_5242" data-name="Rectangle 5242" d="M4,0H396a4,4,0,0,1,4,4v6a0,0,0,0,1,0,0H0a0,0,0,0,1,0,0V4A4,4,0,0,1,4,0Z" transform="translate(116 98)" fill="#5fb53b"/>
        </g>
        <g id="Group_11927" data-name="Group 11927" transform="translate(-74 246)">
          <circle id="Ellipse_6" data-name="Ellipse 6" cx="12" cy="12" r="12" transform="translate(125 118)" fill="#5fb53b"/>
          <g id="Group_11924" data-name="Group 11924" transform="translate(129 122.8)">
            <path id="Path_6639" data-name="Path 6639" d="M7.547,15.8a.2.2,0,0,1-.286,0l-4.2-4.2a.2.2,0,0,1,0-.286L4.2,10.17a.2.2,0,0,1,.286,0L7.4,13.083l7.464-7.465a.2.2,0,0,1,.287,0L16.3,6.764a.2.2,0,0,1,0,.286Z" transform="translate(-1.785 -3.308)" fill="#fff"/>
            <rect id="Rectangle_5235" data-name="Rectangle 5235" width="16.2" height="16.2" transform="translate(0)" fill="none"/>
          </g>
        </g>
        <g id="Remove" transform="translate(427 384)">
          <g id="Group_11940" data-name="Group 11940" transform="translate(-20 -20)">
            <rect id="Rectangle_5239" data-name="Rectangle 5239" width="24" height="24" fill="none"/>
            <path id="Path_6644" data-name="Path 6644" d="M13.905,12l4.673-4.673a.227.227,0,0,0,0-.318L16.99,5.422a.227.227,0,0,0-.318,0L12,10.095,7.327,5.422a.227.227,0,0,0-.318,0L5.422,7.01a.227.227,0,0,0,0,.318L10.095,12,5.422,16.673a.227.227,0,0,0,0,.318L7.01,18.578a.227.227,0,0,0,.318,0L12,13.905l4.673,4.673a.227.227,0,0,0,.318,0l1.588-1.588a.227.227,0,0,0,0-.318Z" transform="translate(0 0)" fill="#31313a"/>
          </g>
        </g>
      </g>
      <text id="Width:_400px" data-name="Width: 400px" transform="translate(888 554)" fill="#d454a3" font-size="14" font-family="OpenSans, Open Sans"><tspan x="0" y="0">Width: 400px</tspan></text>
      <g id="Group_11900" data-name="Group 11900" transform="translate(417 -155)">
        <line id="Line_1" data-name="Line 1" y2="10" transform="translate(309.5 589.5)" fill="none" stroke="#d454a3" stroke-width="1"/>
        <line id="Line_2" data-name="Line 2" x2="3.267" transform="translate(307.867 589.5)" fill="none" stroke="#d454a3" stroke-width="1"/>
        <line id="Line_3" data-name="Line 3" x2="3.267" transform="translate(307.867 599.5)" fill="none" stroke="#d454a3" stroke-width="1"/>
      </g>
      <text id="_10px" data-name="10px" transform="translate(690 445)" fill="#d454a3" font-size="14" font-family="OpenSans, Open Sans"><tspan x="0" y="0">10px</tspan></text>
      <text id="_10px-2" data-name="10px" transform="translate(690 473)" fill="#d454a3" font-size="14" font-family="OpenSans, Open Sans"><tspan x="0" y="0">10px</tspan></text>
      <text id="_20px" data-name="20px" transform="translate(749 515)" fill="#d454a3" font-size="14" font-family="OpenSans, Open Sans"><tspan x="0" y="0">20px</tspan></text>
      <text id="_20px-2" data-name="20px" transform="translate(760 455)" fill="#d454a3" font-size="14" font-family="OpenSans, Open Sans"><tspan x="0" y="0">20px</tspan></text>
      <g id="Group_11902" data-name="Group 11902" transform="translate(141 843) rotate(-90)">
        <line id="Line_1-2" data-name="Line 1" y2="400" transform="translate(309.5 589.5)" fill="none" stroke="#d454a3" stroke-width="1"/>
        <line id="Line_2-2" data-name="Line 2" x2="3.267" transform="translate(307.867 589.5)" fill="none" stroke="#d454a3" stroke-width="1"/>
        <line id="Line_3-2" data-name="Line 3" x2="3.267" transform="translate(307.867 989.5)" fill="none" stroke="#d454a3" stroke-width="1"/>
      </g>
      <text id="Min_Height_86px" data-name="Min Height 86px" transform="translate(1147 483)" fill="#d454a3" font-size="14" font-family="OpenSans, Open Sans"><tspan x="0" y="0">Min Height 86px</tspan></text>
      <g id="Group_11911" data-name="Group 11911" transform="translate(832 -155)">
        <line id="Line_1-3" data-name="Line 1" y2="86" transform="translate(309.5 589.5)" fill="none" stroke="#d454a3" stroke-width="1"/>
        <line id="Line_2-3" data-name="Line 2" x2="3.267" transform="translate(307.867 589.5)" fill="none" stroke="#d454a3" stroke-width="1"/>
        <line id="Line_3-3" data-name="Line 3" x2="3.267" transform="translate(307.867 675.5)" fill="none" stroke="#d454a3" stroke-width="1"/>
      </g>
      <g id="Group_11937" data-name="Group 11937" transform="translate(1330.3 157) rotate(90)">
        <line id="Line_1-4" data-name="Line 1" y2="9.3" transform="translate(309.5 589.5)" fill="none" stroke="#d454a3" stroke-width="1"/>
        <line id="Line_2-4" data-name="Line 2" x2="3.267" transform="translate(307.867 589.5)" fill="none" stroke="#d454a3" stroke-width="1"/>
        <line id="Line_3-4" data-name="Line 3" x2="3.267" transform="translate(307.867 598.8)" fill="none" stroke="#d454a3" stroke-width="1"/>
      </g>
      <g id="Group_11938" data-name="Group 11938" transform="translate(1097 1109) rotate(180)">
        <line id="Line_1-5" data-name="Line 1" y2="20" transform="translate(309.5 589.5)" fill="none" stroke="#d454a3" stroke-width="1"/>
        <line id="Line_2-5" data-name="Line 2" x2="3.267" transform="translate(307.867 589.5)" fill="none" stroke="#d454a3" stroke-width="1"/>
        <line id="Line_3-5" data-name="Line 3" x2="3.267" transform="translate(307.867 609.5)" fill="none" stroke="#d454a3" stroke-width="1"/>
      </g>
      <g id="Group_11939" data-name="Group 11939" transform="translate(175.5 776) rotate(-90)">
        <line id="Line_1-6" data-name="Line 1" y2="19.5" transform="translate(309.5 589.5)" fill="none" stroke="#d454a3" stroke-width="1"/>
        <line id="Line_2-6" data-name="Line 2" x2="3.267" transform="translate(307.867 589.5)" fill="none" stroke="#d454a3" stroke-width="1"/>
        <line id="Line_3-6" data-name="Line 3" x2="3.267" transform="translate(307.867 609)" fill="none" stroke="#d454a3" stroke-width="1"/>
      </g>
    </g>
  </g>
</svg>
