<svg xmlns="http://www.w3.org/2000/svg" xmlns:xlink="http://www.w3.org/1999/xlink" width="900" height="330" viewBox="0 0 900 330">
  <defs>
    <filter id="Path_101200" x="86" y="158" width="788.5" height="178" filterUnits="userSpaceOnUse">
      <feOffset dy="1" input="SourceAlpha"/>
      <feGaussianBlur stdDeviation="1.5" result="blur"/>
      <feFlood flood-opacity="0.161"/>
      <feComposite operator="in" in2="blur"/>
      <feComposite in="SourceGraphic"/>
    </filter>
    <filter id="White_background" x="465" y="76" width="430" height="112" filterUnits="userSpaceOnUse">
      <feOffset dy="6" input="SourceAlpha"/>
      <feGaussianBlur stdDeviation="5" result="blur-2"/>
      <feFlood flood-opacity="0.302"/>
      <feComposite operator="in" in2="blur-2"/>
      <feComposite in="SourceGraphic"/>
    </filter>
    <clipPath id="clip-path">
      <rect id="Rectangle_8076" data-name="Rectangle 8076" width="20" height="20" fill="none"/>
    </clipPath>
    <clipPath id="clip-notifier_placement">
      <rect width="900" height="330"/>
    </clipPath>
  </defs>
  <g id="notifier_placement" clip-path="url(#clip-notifier_placement)">
    <rect width="900" height="330" fill="#f4f4f6"/>
    <g id="Table">
      <path id="Path_101199" data-name="Path 101199" d="M13.965,0,12.111-5.154h-7.1L3.2,0H0L6.944-18.637h3.3L17.189,0ZM11.312-7.77,9.572-12.822q-.19-.508-.527-1.6t-.463-1.6a28.452,28.452,0,0,1-1,3.415L5.9-7.77ZM24.984.254a6.147,6.147,0,0,1-4.843-1.86,7.77,7.77,0,0,1-1.657-5.338,7.814,7.814,0,0,1,1.733-5.446,6.428,6.428,0,0,1,5.008-1.9,9.386,9.386,0,0,1,4,.825l-.9,2.4a9.035,9.035,0,0,0-3.123-.736q-3.644,0-3.644,4.837a5.792,5.792,0,0,0,.908,3.548,3.142,3.142,0,0,0,2.66,1.187,7.631,7.631,0,0,0,3.771-.99v2.6a5.892,5.892,0,0,1-1.708.673A10.246,10.246,0,0,1,24.984.254Zm12.873,0a6.147,6.147,0,0,1-4.843-1.86,7.77,7.77,0,0,1-1.657-5.338,7.814,7.814,0,0,1,1.733-5.446,6.428,6.428,0,0,1,5.008-1.9,9.386,9.386,0,0,1,4,.825l-.9,2.4a9.035,9.035,0,0,0-3.123-.736q-3.644,0-3.644,4.837a5.792,5.792,0,0,0,.908,3.548A3.142,3.142,0,0,0,38-2.234a7.631,7.631,0,0,0,3.771-.99v2.6A5.892,5.892,0,0,1,40.06.051,10.246,10.246,0,0,1,37.857.254Zm19.665-7.3a7.664,7.664,0,0,1-1.765,5.37A6.323,6.323,0,0,1,50.845.254a6.732,6.732,0,0,1-3.479-.889,5.867,5.867,0,0,1-2.323-2.552,8.691,8.691,0,0,1-.812-3.859,7.612,7.612,0,0,1,1.752-5.332,6.352,6.352,0,0,1,4.938-1.917,6.186,6.186,0,0,1,4.824,1.961A7.577,7.577,0,0,1,57.522-7.046Zm-10.22,0q0,4.862,3.593,4.862,3.555,0,3.555-4.862,0-4.812-3.58-4.812a3.053,3.053,0,0,0-2.723,1.244A6.331,6.331,0,0,0,47.3-7.046ZM70.853,0l-.419-1.841h-.152A4.233,4.233,0,0,1,68.51-.3a5.921,5.921,0,0,1-2.622.559,5.146,5.146,0,0,1-3.809-1.27,5.263,5.263,0,0,1-1.257-3.847v-9.179h3.009v8.658a3.756,3.756,0,0,0,.66,2.418,2.52,2.52,0,0,0,2.069.806,3.3,3.3,0,0,0,2.761-1.124,6.191,6.191,0,0,0,.882-3.764v-7h3V0ZM89.807,0h-3V-8.633a3.778,3.778,0,0,0-.654-2.425,2.527,2.527,0,0,0-2.076-.8,3.3,3.3,0,0,0-2.768,1.117A6.168,6.168,0,0,0,80.438-7V0H77.454V-14.041H79.79l.419,1.841h.152a4.154,4.154,0,0,1,1.8-1.549,6.041,6.041,0,0,1,2.59-.546q5.053,0,5.053,5.142Zm9.382-2.158a7.255,7.255,0,0,0,2.184-.343V-.254A6.022,6.022,0,0,1,100.1.108a8.79,8.79,0,0,1-1.619.146q-4.24,0-4.24-4.469v-7.566H92.32V-13.1l2.057-1.092,1.016-2.971h1.841v3.123h4v2.26h-4v7.516a2.109,2.109,0,0,0,.54,1.593A1.967,1.967,0,0,0,99.188-2.158ZM122.764,0h-3V-8.658a3.926,3.926,0,0,0-.609-2.406,2.249,2.249,0,0,0-1.9-.793,2.9,2.9,0,0,0-2.533,1.124A6.592,6.592,0,0,0,113.915-7V0h-2.983V-14.041h2.336l.419,1.841h.152a3.89,3.89,0,0,1,1.695-1.549,5.465,5.465,0,0,1,2.444-.546q3.237,0,4.291,2.209h.2a4.28,4.28,0,0,1,1.752-1.625,5.56,5.56,0,0,1,2.59-.584,4.716,4.716,0,0,1,3.663,1.27,5.622,5.622,0,0,1,1.149,3.872V0h-2.983V-8.658a3.9,3.9,0,0,0-.616-2.406,2.267,2.267,0,0,0-1.911-.793,2.961,2.961,0,0,0-2.545,1.085,5.6,5.6,0,0,0-.806,3.333Zm21.811,0-.6-1.955h-.1a5.752,5.752,0,0,1-2.044,1.746,6.464,6.464,0,0,1-2.641.463A4.469,4.469,0,0,1,135.96-.863,4.18,4.18,0,0,1,134.8-4.024,3.712,3.712,0,0,1,136.411-7.3a9.3,9.3,0,0,1,4.913-1.206l2.425-.076v-.749a2.839,2.839,0,0,0-.628-2.012,2.563,2.563,0,0,0-1.949-.667,6.738,6.738,0,0,0-2.069.317,15.616,15.616,0,0,0-1.9.749l-.965-2.133a10.384,10.384,0,0,1,2.5-.908,11.51,11.51,0,0,1,2.564-.311,6.074,6.074,0,0,1,4.043,1.168,4.573,4.573,0,0,1,1.365,3.669V0Zm-4.443-2.031a3.7,3.7,0,0,0,2.609-.908,3.291,3.291,0,0,0,.984-2.545V-6.7l-1.8.076a6.168,6.168,0,0,0-3.066.7A2.141,2.141,0,0,0,137.9-4a1.877,1.877,0,0,0,.559,1.454A2.4,2.4,0,0,0,140.131-2.031ZM163.224,0h-3V-8.633a3.778,3.778,0,0,0-.654-2.425,2.527,2.527,0,0,0-2.076-.8,3.3,3.3,0,0,0-2.768,1.117A6.168,6.168,0,0,0,153.854-7V0h-2.983V-14.041h2.336l.419,1.841h.152a4.154,4.154,0,0,1,1.8-1.549,6.041,6.041,0,0,1,2.59-.546q5.053,0,5.053,5.142ZM176.16,0l-.6-1.955h-.1a5.752,5.752,0,0,1-2.044,1.746,6.464,6.464,0,0,1-2.641.463,4.469,4.469,0,0,1-3.231-1.117,4.18,4.18,0,0,1-1.162-3.161A3.712,3.712,0,0,1,168-7.3a9.3,9.3,0,0,1,4.913-1.206l2.425-.076v-.749a2.839,2.839,0,0,0-.628-2.012,2.563,2.563,0,0,0-1.949-.667,6.738,6.738,0,0,0-2.069.317,15.616,15.616,0,0,0-1.9.749l-.965-2.133a10.384,10.384,0,0,1,2.5-.908,11.51,11.51,0,0,1,2.564-.311,6.074,6.074,0,0,1,4.043,1.168,4.573,4.573,0,0,1,1.365,3.669V0Zm-4.443-2.031a3.7,3.7,0,0,0,2.609-.908,3.291,3.291,0,0,0,.984-2.545V-6.7l-1.8.076a6.168,6.168,0,0,0-3.066.7A2.141,2.141,0,0,0,169.482-4a1.877,1.877,0,0,0,.559,1.454A2.4,2.4,0,0,0,171.717-2.031Zm22.6-12.01V-12.4l-2.4.444a3.873,3.873,0,0,1,.546,1.092,4.308,4.308,0,0,1,.216,1.371,4.2,4.2,0,0,1-1.5,3.415,6.269,6.269,0,0,1-4.126,1.244,6.69,6.69,0,0,1-1.219-.1,1.681,1.681,0,0,0-.965,1.4.776.776,0,0,0,.451.724,3.9,3.9,0,0,0,1.657.241h2.45a5.448,5.448,0,0,1,3.529.99,3.484,3.484,0,0,1,1.206,2.856,4.154,4.154,0,0,1-1.968,3.682,10.361,10.361,0,0,1-5.687,1.295,7.849,7.849,0,0,1-4.38-1.016,3.283,3.283,0,0,1-1.511-2.895,3.08,3.08,0,0,1,.819-2.177,4.388,4.388,0,0,1,2.292-1.225,2.242,2.242,0,0,1-.984-.819,2.067,2.067,0,0,1-.387-1.187,2.043,2.043,0,0,1,.444-1.333,5.126,5.126,0,0,1,1.32-1.079,3.911,3.911,0,0,1-1.771-1.53A4.5,4.5,0,0,1,181.67-9.5a4.449,4.449,0,0,1,1.441-3.542,6.058,6.058,0,0,1,4.107-1.257,10,10,0,0,1,1.25.083,7.872,7.872,0,0,1,.984.171ZM183.282,2.184a1.641,1.641,0,0,0,.87,1.485,4.78,4.78,0,0,0,2.444.521,7.383,7.383,0,0,0,3.631-.7,2.093,2.093,0,0,0,1.193-1.854,1.39,1.39,0,0,0-.654-1.3,5.25,5.25,0,0,0-2.431-.387h-2.26a3.175,3.175,0,0,0-2.038.6A1.977,1.977,0,0,0,183.282,2.184ZM184.564-9.5a2.826,2.826,0,0,0,.679,2.031,2.568,2.568,0,0,0,1.949.711q2.59,0,2.59-2.768a3.139,3.139,0,0,0-.641-2.114,2.436,2.436,0,0,0-1.949-.743,2.511,2.511,0,0,0-1.961.736A3.1,3.1,0,0,0,184.564-9.5ZM203.049.254a6.792,6.792,0,0,1-5.123-1.911,7.253,7.253,0,0,1-1.847-5.262,7.958,7.958,0,0,1,1.714-5.408,5.92,5.92,0,0,1,4.71-1.968,5.786,5.786,0,0,1,4.393,1.688,6.452,6.452,0,0,1,1.612,4.646v1.612h-9.356a4.612,4.612,0,0,0,1.1,3.142,3.847,3.847,0,0,0,2.933,1.1,10.826,10.826,0,0,0,2.317-.235,12.145,12.145,0,0,0,2.3-.781V-.7A9.16,9.16,0,0,1,205.6.038,13.545,13.545,0,0,1,203.049.254ZM202.5-12.035a3,3,0,0,0-2.279.9A4.3,4.3,0,0,0,199.2-8.506h6.373a3.887,3.887,0,0,0-.838-2.634A2.866,2.866,0,0,0,202.5-12.035ZM223.729,0h-3V-8.658a3.926,3.926,0,0,0-.609-2.406,2.249,2.249,0,0,0-1.9-.793,2.9,2.9,0,0,0-2.533,1.124A6.592,6.592,0,0,0,214.881-7V0H211.9V-14.041h2.336l.419,1.841h.152a3.89,3.89,0,0,1,1.695-1.549,5.465,5.465,0,0,1,2.444-.546q3.237,0,4.291,2.209h.2a4.28,4.28,0,0,1,1.752-1.625,5.56,5.56,0,0,1,2.59-.584,4.716,4.716,0,0,1,3.663,1.27,5.622,5.622,0,0,1,1.149,3.872V0h-2.983V-8.658a3.9,3.9,0,0,0-.616-2.406,2.267,2.267,0,0,0-1.911-.793,2.961,2.961,0,0,0-2.545,1.085,5.6,5.6,0,0,0-.806,3.333Zm19.157.254a6.792,6.792,0,0,1-5.123-1.911,7.253,7.253,0,0,1-1.847-5.262,7.958,7.958,0,0,1,1.714-5.408,5.92,5.92,0,0,1,4.71-1.968,5.786,5.786,0,0,1,4.393,1.688,6.452,6.452,0,0,1,1.612,4.646v1.612h-9.356a4.612,4.612,0,0,0,1.1,3.142,3.847,3.847,0,0,0,2.933,1.1,10.826,10.826,0,0,0,2.317-.235,12.145,12.145,0,0,0,2.3-.781V-.7a9.16,9.16,0,0,1-2.209.736A13.545,13.545,0,0,1,242.887.254Zm-.546-12.289a3,3,0,0,0-2.279.9,4.3,4.3,0,0,0-1.022,2.628h6.373a3.887,3.887,0,0,0-.838-2.634A2.866,2.866,0,0,0,242.341-12.035ZM264.088,0h-3V-8.633a3.778,3.778,0,0,0-.654-2.425,2.527,2.527,0,0,0-2.076-.8,3.3,3.3,0,0,0-2.768,1.117A6.168,6.168,0,0,0,254.719-7V0h-2.983V-14.041h2.336l.419,1.841h.152a4.154,4.154,0,0,1,1.8-1.549,6.041,6.041,0,0,1,2.59-.546q5.053,0,5.053,5.142Zm9.382-2.158a7.255,7.255,0,0,0,2.184-.343V-.254a6.022,6.022,0,0,1-1.276.362,8.79,8.79,0,0,1-1.619.146q-4.24,0-4.24-4.469v-7.566H266.6V-13.1l2.057-1.092,1.016-2.971h1.841v3.123h4v2.26h-4v7.516a2.109,2.109,0,0,0,.54,1.593A1.967,1.967,0,0,0,273.47-2.158Z" transform="translate(90 123)" fill="#3d3d3d"/>
      <g transform="matrix(1, 0, 0, 1, 0, 0)" filter="url(#Path_101200)">
        <path id="Path_101200-2" data-name="Path 101200" d="M2,0H777.5a2,2,0,0,1,2,2V167a2,2,0,0,1-2,2H2a2,2,0,0,1-2-2V2A2,2,0,0,1,2,0Z" transform="translate(90.5 161.5)" fill="#fff"/>
      </g>
      <path id="Path_101201" data-name="Path 101201" d="M2,0H777.5a2,2,0,0,1,2,2V56H0V2A2,2,0,0,1,2,0Z" transform="translate(90.5 161.5)" fill="#f9f9fa"/>
      <path id="Path_101202" data-name="Path 101202" d="M9.263,0H7.479L6.6-2.5H2.741L1.894,0H.116L3.787-9.8H5.619Zm-3.1-3.821-1.36-3.91a4.631,4.631,0,0,1-.13-.615H4.648a4,4,0,0,1-.137.615L3.165-3.821Zm9.276,3.5a3.911,3.911,0,0,1-1.989.485A3.369,3.369,0,0,1,10.938-.81,3.451,3.451,0,0,1,9.98-3.336a3.8,3.8,0,0,1,1.029-2.779,3.678,3.678,0,0,1,2.751-1.049,4.016,4.016,0,0,1,1.688.335v1.477A2.557,2.557,0,0,0,13.891-5.9a2.166,2.166,0,0,0-1.647.68A2.487,2.487,0,0,0,11.6-3.438a2.371,2.371,0,0,0,.6,1.716,2.148,2.148,0,0,0,1.624.629A2.537,2.537,0,0,0,15.442-1.7Zm6.583,0a3.911,3.911,0,0,1-1.989.485A3.369,3.369,0,0,1,17.521-.81a3.451,3.451,0,0,1-.957-2.526,3.8,3.8,0,0,1,1.029-2.779,3.678,3.678,0,0,1,2.751-1.049,4.016,4.016,0,0,1,1.688.335v1.477A2.557,2.557,0,0,0,20.474-5.9a2.166,2.166,0,0,0-1.647.68,2.487,2.487,0,0,0-.643,1.781,2.371,2.371,0,0,0,.6,1.716,2.148,2.148,0,0,0,1.624.629A2.537,2.537,0,0,0,22.025-1.7ZM26.7.164a3.47,3.47,0,0,1-2.587-.981,3.544,3.544,0,0,1-.967-2.6,3.687,3.687,0,0,1,1.008-2.755,3.708,3.708,0,0,1,2.717-.991,3.358,3.358,0,0,1,2.557.964,3.723,3.723,0,0,1,.916,2.673,3.669,3.669,0,0,1-.988,2.683A3.548,3.548,0,0,1,26.7.164ZM26.776-5.9a1.81,1.81,0,0,0-1.47.649,2.719,2.719,0,0,0-.54,1.791,2.561,2.561,0,0,0,.547,1.733,1.837,1.837,0,0,0,1.463.632,1.743,1.743,0,0,0,1.439-.622,2.754,2.754,0,0,0,.5-1.771,2.8,2.8,0,0,0-.5-1.784A1.734,1.734,0,0,0,26.776-5.9ZM38.063,0H36.477V-1.107h-.027A2.282,2.282,0,0,1,34.3.164q-2.481,0-2.481-2.98V-7h1.586v4.02q0,1.887,1.456,1.887a1.471,1.471,0,0,0,1.159-.52,1.991,1.991,0,0,0,.455-1.36V-7h1.586Zm8.3,0H44.775V-3.944q0-1.962-1.388-1.962a1.515,1.515,0,0,0-1.2.543,2.016,2.016,0,0,0-.472,1.371V0H40.127V-7H41.72v1.162h.027a2.5,2.5,0,0,1,2.27-1.326,2.114,2.114,0,0,1,1.743.742,3.33,3.33,0,0,1,.6,2.143Zm5.626-.075a2.748,2.748,0,0,1-1.224.232q-2.037,0-2.037-1.955V-5.756H47.558V-7h1.169V-8.62l1.586-.451V-7h1.675v1.244H50.313v3.5a1.379,1.379,0,0,0,.226.889.936.936,0,0,0,.752.267,1.09,1.09,0,0,0,.7-.232ZM63.438,0H61.852V-3.944q0-1.962-1.388-1.962a1.515,1.515,0,0,0-1.2.543A2.016,2.016,0,0,0,58.8-3.992V0H57.2V-7H58.8v1.162h.027a2.5,2.5,0,0,1,2.27-1.326,2.114,2.114,0,0,1,1.743.742,3.33,3.33,0,0,1,.6,2.143Zm7.308,0H69.207V-1.094H69.18A2.316,2.316,0,0,1,67.054.164,2.239,2.239,0,0,1,65.437-.4a1.961,1.961,0,0,1-.584-1.483q0-1.982,2.283-2.311l2.078-.294q0-1.5-1.422-1.5a3.378,3.378,0,0,0-2.256.861V-6.508a4.919,4.919,0,0,1,2.557-.656,2.326,2.326,0,0,1,2.652,2.611ZM69.214-3.438l-1.47.205a2.33,2.33,0,0,0-1.029.332.969.969,0,0,0-.345.851.932.932,0,0,0,.318.728,1.231,1.231,0,0,0,.851.284,1.57,1.57,0,0,0,1.2-.509,1.806,1.806,0,0,0,.475-1.282ZM83.146,0H81.56V-3.814a3.091,3.091,0,0,0-.311-1.593A1.144,1.144,0,0,0,80.2-5.9a1.265,1.265,0,0,0-1.056.622,2.538,2.538,0,0,0-.434,1.49V0H77.116V-3.944q0-1.955-1.381-1.955a1.246,1.246,0,0,0-1.056.588,2.592,2.592,0,0,0-.414,1.524V0H72.68V-7h1.586v1.107h.027A2.425,2.425,0,0,1,76.5-7.164a2.082,2.082,0,0,1,1.268.4,1.992,1.992,0,0,1,.742,1.049,2.5,2.5,0,0,1,2.324-1.449q2.311,0,2.311,2.851Zm7.861-3.069H86.235a2.017,2.017,0,0,0,.6,1.5,2.225,2.225,0,0,0,1.569.526,3.459,3.459,0,0,0,2.058-.67V-.437a4.7,4.7,0,0,1-2.529.6A3.131,3.131,0,0,1,85.507-.79a3.814,3.814,0,0,1-.878-2.683A3.73,3.73,0,0,1,85.6-6.135,3.164,3.164,0,0,1,88-7.164a2.759,2.759,0,0,1,2.222.923,3.832,3.832,0,0,1,.786,2.563ZM89.476-4.19a2.044,2.044,0,0,0-.4-1.33A1.348,1.348,0,0,0,87.979-6a1.539,1.539,0,0,0-1.159.5,2.28,2.28,0,0,0-.584,1.306Z" transform="translate(110.5 195.5)" fill="#3d3d3d"/>
      <path id="Path_101206" data-name="Path 101206" d="M8.75-3.965Q8.75.164,4.84.164q-3.746,0-3.746-3.972v-6H2.721v5.66q0,2.885,2.242,2.885,2.16,0,2.16-2.782V-9.8H8.75Zm3.739,2.933h-.027V3.22H10.876V-7h1.586v1.23h.027a2.6,2.6,0,0,1,2.379-1.395,2.506,2.506,0,0,1,2.078.937,3.928,3.928,0,0,1,.745,2.516,4.361,4.361,0,0,1-.841,2.8,2.781,2.781,0,0,1-2.3,1.053A2.294,2.294,0,0,1,12.489-1.032Zm-.041-2.762v.868a1.852,1.852,0,0,0,.489,1.3,1.61,1.61,0,0,0,1.241.533,1.621,1.621,0,0,0,1.384-.687,3.2,3.2,0,0,0,.5-1.917A2.52,2.52,0,0,0,15.6-5.315,1.539,1.539,0,0,0,14.328-5.9a1.709,1.709,0,0,0-1.364.6A2.228,2.228,0,0,0,12.448-3.794ZM25.676,0H24.09V-1.189h-.027A2.53,2.53,0,0,1,21.7.164a2.546,2.546,0,0,1-2.068-.94,3.9,3.9,0,0,1-.776-2.56,4.251,4.251,0,0,1,.858-2.782A2.808,2.808,0,0,1,22-7.164a2.19,2.19,0,0,1,2.058,1.135h.027v-4.334h1.586ZM24.11-3.2v-.916a1.785,1.785,0,0,0-.485-1.265,1.619,1.619,0,0,0-1.237-.52,1.666,1.666,0,0,0-1.4.663A2.955,2.955,0,0,0,20.48-3.4a2.648,2.648,0,0,0,.489,1.685,1.59,1.59,0,0,0,1.316.619,1.646,1.646,0,0,0,1.319-.6A2.253,2.253,0,0,0,24.11-3.2ZM33.12,0H31.582V-1.094h-.027A2.316,2.316,0,0,1,29.429.164,2.239,2.239,0,0,1,27.812-.4a1.961,1.961,0,0,1-.584-1.483q0-1.982,2.283-2.311l2.078-.294q0-1.5-1.422-1.5a3.378,3.378,0,0,0-2.256.861V-6.508a4.919,4.919,0,0,1,2.557-.656A2.326,2.326,0,0,1,33.12-4.553ZM31.589-3.438l-1.47.205A2.33,2.33,0,0,0,29.09-2.9a.969.969,0,0,0-.345.851.932.932,0,0,0,.318.728,1.231,1.231,0,0,0,.851.284,1.57,1.57,0,0,0,1.2-.509,1.806,1.806,0,0,0,.475-1.282ZM38.746-.075a2.748,2.748,0,0,1-1.224.232q-2.037,0-2.037-1.955V-5.756H34.316V-7h1.169V-8.62l1.586-.451V-7h1.675v1.244H37.071v3.5a1.379,1.379,0,0,0,.226.889.936.936,0,0,0,.752.267,1.09,1.09,0,0,0,.7-.232Zm7.212-2.994H41.187a2.017,2.017,0,0,0,.6,1.5,2.225,2.225,0,0,0,1.569.526,3.459,3.459,0,0,0,2.058-.67V-.437a4.7,4.7,0,0,1-2.529.6A3.131,3.131,0,0,1,40.458-.79a3.814,3.814,0,0,1-.878-2.683,3.73,3.73,0,0,1,.967-2.663,3.164,3.164,0,0,1,2.4-1.029,2.759,2.759,0,0,1,2.222.923,3.832,3.832,0,0,1,.786,2.563ZM44.427-4.19a2.044,2.044,0,0,0-.4-1.33A1.348,1.348,0,0,0,42.93-6a1.539,1.539,0,0,0-1.159.5,2.28,2.28,0,0,0-.584,1.306ZM53.833,0H52.247V-1.189H52.22A2.53,2.53,0,0,1,49.861.164a2.546,2.546,0,0,1-2.068-.94,3.9,3.9,0,0,1-.776-2.56,4.251,4.251,0,0,1,.858-2.782,2.808,2.808,0,0,1,2.287-1.046A2.19,2.19,0,0,1,52.22-6.029h.027v-4.334h1.586ZM52.268-3.2v-.916a1.785,1.785,0,0,0-.485-1.265,1.619,1.619,0,0,0-1.237-.52,1.666,1.666,0,0,0-1.4.663A2.955,2.955,0,0,0,48.638-3.4a2.648,2.648,0,0,0,.489,1.685,1.59,1.59,0,0,0,1.316.619,1.646,1.646,0,0,0,1.319-.6A2.253,2.253,0,0,0,52.268-3.2ZM66.117,0H64.531V-1.189H64.5A2.53,2.53,0,0,1,62.146.164a2.546,2.546,0,0,1-2.068-.94,3.9,3.9,0,0,1-.776-2.56,4.251,4.251,0,0,1,.858-2.782,2.808,2.808,0,0,1,2.287-1.046A2.19,2.19,0,0,1,64.5-6.029h.027v-4.334h1.586ZM64.552-3.2v-.916a1.785,1.785,0,0,0-.485-1.265,1.619,1.619,0,0,0-1.237-.52,1.666,1.666,0,0,0-1.4.663A2.955,2.955,0,0,0,60.922-3.4a2.648,2.648,0,0,0,.489,1.685,1.59,1.59,0,0,0,1.316.619,1.646,1.646,0,0,0,1.319-.6A2.253,2.253,0,0,0,64.552-3.2ZM73.562,0H72.023V-1.094H72A2.316,2.316,0,0,1,69.87.164,2.239,2.239,0,0,1,68.253-.4a1.961,1.961,0,0,1-.584-1.483q0-1.982,2.283-2.311l2.078-.294q0-1.5-1.422-1.5a3.378,3.378,0,0,0-2.256.861V-6.508a4.919,4.919,0,0,1,2.557-.656,2.326,2.326,0,0,1,2.652,2.611ZM72.03-3.438l-1.47.205a2.33,2.33,0,0,0-1.029.332.969.969,0,0,0-.345.851.932.932,0,0,0,.318.728,1.231,1.231,0,0,0,.851.284,1.57,1.57,0,0,0,1.2-.509A1.806,1.806,0,0,0,72.03-2.83ZM79.188-.075a2.748,2.748,0,0,1-1.224.232q-2.037,0-2.037-1.955V-5.756H74.758V-7h1.169V-8.62l1.586-.451V-7h1.675v1.244H77.513v3.5a1.379,1.379,0,0,0,.226.889.936.936,0,0,0,.752.267,1.09,1.09,0,0,0,.7-.232ZM86.4-3.069H81.628a2.017,2.017,0,0,0,.6,1.5,2.225,2.225,0,0,0,1.569.526,3.459,3.459,0,0,0,2.058-.67V-.437a4.7,4.7,0,0,1-2.529.6A3.131,3.131,0,0,1,80.9-.79a3.814,3.814,0,0,1-.878-2.683,3.73,3.73,0,0,1,.967-2.663,3.164,3.164,0,0,1,2.4-1.029,2.759,2.759,0,0,1,2.222.923A3.832,3.832,0,0,1,86.4-3.678ZM84.868-4.19a2.044,2.044,0,0,0-.4-1.33A1.348,1.348,0,0,0,83.371-6a1.539,1.539,0,0,0-1.159.5,2.28,2.28,0,0,0-.584,1.306Z" transform="translate(382.5 195.5)" fill="#31313a"/>
      <path id="Path_101213" data-name="Path 101213" d="M9.263,0H7.479L6.6-2.5H2.741L1.894,0H.116L3.787-9.8H5.619Zm-3.1-3.821-1.36-3.91a4.631,4.631,0,0,1-.13-.615H4.648a4,4,0,0,1-.137.615L3.165-3.821Zm9.276,3.5a3.911,3.911,0,0,1-1.989.485A3.369,3.369,0,0,1,10.938-.81,3.451,3.451,0,0,1,9.98-3.336a3.8,3.8,0,0,1,1.029-2.779,3.678,3.678,0,0,1,2.751-1.049,4.016,4.016,0,0,1,1.688.335v1.477A2.557,2.557,0,0,0,13.891-5.9a2.166,2.166,0,0,0-1.647.68A2.487,2.487,0,0,0,11.6-3.438a2.371,2.371,0,0,0,.6,1.716,2.148,2.148,0,0,0,1.624.629A2.537,2.537,0,0,0,15.442-1.7Zm6.583,0a3.911,3.911,0,0,1-1.989.485A3.369,3.369,0,0,1,17.521-.81a3.451,3.451,0,0,1-.957-2.526,3.8,3.8,0,0,1,1.029-2.779,3.678,3.678,0,0,1,2.751-1.049,4.016,4.016,0,0,1,1.688.335v1.477A2.557,2.557,0,0,0,20.474-5.9a2.166,2.166,0,0,0-1.647.68,2.487,2.487,0,0,0-.643,1.781,2.371,2.371,0,0,0,.6,1.716,2.148,2.148,0,0,0,1.624.629A2.537,2.537,0,0,0,22.025-1.7ZM26.7.164a3.47,3.47,0,0,1-2.587-.981,3.544,3.544,0,0,1-.967-2.6,3.687,3.687,0,0,1,1.008-2.755,3.708,3.708,0,0,1,2.717-.991,3.358,3.358,0,0,1,2.557.964,3.723,3.723,0,0,1,.916,2.673,3.669,3.669,0,0,1-.988,2.683A3.548,3.548,0,0,1,26.7.164ZM26.776-5.9a1.81,1.81,0,0,0-1.47.649,2.719,2.719,0,0,0-.54,1.791,2.561,2.561,0,0,0,.547,1.733,1.837,1.837,0,0,0,1.463.632,1.743,1.743,0,0,0,1.439-.622,2.754,2.754,0,0,0,.5-1.771,2.8,2.8,0,0,0-.5-1.784A1.734,1.734,0,0,0,26.776-5.9ZM38.063,0H36.477V-1.107h-.027A2.282,2.282,0,0,1,34.3.164q-2.481,0-2.481-2.98V-7h1.586v4.02q0,1.887,1.456,1.887a1.471,1.471,0,0,0,1.159-.52,1.991,1.991,0,0,0,.455-1.36V-7h1.586Zm8.3,0H44.775V-3.944q0-1.962-1.388-1.962a1.515,1.515,0,0,0-1.2.543,2.016,2.016,0,0,0-.472,1.371V0H40.127V-7H41.72v1.162h.027a2.5,2.5,0,0,1,2.27-1.326,2.114,2.114,0,0,1,1.743.742,3.33,3.33,0,0,1,.6,2.143Zm5.626-.075a2.748,2.748,0,0,1-1.224.232q-2.037,0-2.037-1.955V-5.756H47.558V-7h1.169V-8.62l1.586-.451V-7h1.675v1.244H50.313v3.5a1.379,1.379,0,0,0,.226.889.936.936,0,0,0,.752.267,1.09,1.09,0,0,0,.7-.232Zm8.319.239a3.47,3.47,0,0,1-2.587-.981,3.544,3.544,0,0,1-.967-2.6A3.687,3.687,0,0,1,57.76-6.173a3.708,3.708,0,0,1,2.717-.991,3.358,3.358,0,0,1,2.557.964,3.723,3.723,0,0,1,.916,2.673,3.669,3.669,0,0,1-.988,2.683A3.548,3.548,0,0,1,60.307.164ZM60.382-5.9a1.81,1.81,0,0,0-1.47.649,2.719,2.719,0,0,0-.54,1.791,2.561,2.561,0,0,0,.547,1.733,1.837,1.837,0,0,0,1.463.632,1.743,1.743,0,0,0,1.439-.622,2.754,2.754,0,0,0,.5-1.771,2.8,2.8,0,0,0-.5-1.784A1.734,1.734,0,0,0,60.382-5.9ZM74.977-7,72.912,0H71.251L69.979-4.744a3,3,0,0,1-.1-.615h-.027a2.805,2.805,0,0,1-.123.6L68.353,0H66.726L64.668-7h1.641L67.58-1.955a2.989,2.989,0,0,1,.082.6h.048a3.249,3.249,0,0,1,.109-.615L69.234-7h1.49l1.258,5.065a3.543,3.543,0,0,1,.089.6h.048a3.191,3.191,0,0,1,.1-.6L73.466-7Zm7.41,7H80.8V-3.944q0-1.962-1.388-1.962a1.515,1.515,0,0,0-1.2.543,2.016,2.016,0,0,0-.472,1.371V0H76.152V-7h1.593v1.162h.027a2.5,2.5,0,0,1,2.27-1.326,2.114,2.114,0,0,1,1.743.742,3.331,3.331,0,0,1,.6,2.143Zm7.861-3.069H85.477a2.017,2.017,0,0,0,.6,1.5,2.225,2.225,0,0,0,1.569.526,3.459,3.459,0,0,0,2.058-.67V-.437a4.7,4.7,0,0,1-2.529.6A3.131,3.131,0,0,1,84.749-.79a3.814,3.814,0,0,1-.878-2.683,3.73,3.73,0,0,1,.967-2.663,3.164,3.164,0,0,1,2.4-1.029,2.759,2.759,0,0,1,2.222.923,3.832,3.832,0,0,1,.786,2.563ZM88.717-4.19a2.044,2.044,0,0,0-.4-1.33A1.348,1.348,0,0,0,87.22-6a1.539,1.539,0,0,0-1.159.5,2.28,2.28,0,0,0-.584,1.306Zm7.1-1.3a1.315,1.315,0,0,0-.827-.226,1.416,1.416,0,0,0-1.176.636,2.843,2.843,0,0,0-.472,1.729V0H91.759V-7h1.586v1.442h.027a2.438,2.438,0,0,1,.714-1.152,1.612,1.612,0,0,1,1.077-.414,1.337,1.337,0,0,1,.656.13Z" transform="translate(648.5 195.5)" fill="#31313a"/>
      <path id="Path_101203" data-name="Path 101203" d="M0,0H1V111.5H0Z" transform="translate(345.5 218.5)" fill="#cbcbd2"/>
      <path id="Path_101212" data-name="Path 101212" d="M0,0H1V111.5H0Z" transform="translate(611.5 218.5)" fill="#cbcbd2"/>
      <path id="Path_101204" data-name="Path 101204" d="M0,0H779V1H0Z" transform="translate(90.5 217.5)" fill="#cbcbd2"/>
      <path id="Path_101207" data-name="Path 101207" d="M0,0H779V1H0Z" transform="translate(90.5 266.5)" fill="#cbcbd2"/>
      <path id="Path_101211" data-name="Path 101211" d="M0,0H779V1H0Z" transform="translate(90.5 315.5)" fill="#cbcbd2"/>
      <path id="Path_101205" data-name="Path 101205" d="M1.285,0V-9.8H3.992q5.182,0,5.182,4.778A4.815,4.815,0,0,1,7.735-1.377,5.338,5.338,0,0,1,3.883,0ZM2.434-8.764v7.725H3.9a4.152,4.152,0,0,0,3-1.032A3.869,3.869,0,0,0,7.971-5q0-3.767-4.006-3.767ZM16.611,0H15.49V-1.107h-.027A2.3,2.3,0,0,1,13.3.164q-2.5,0-2.5-2.98V-7h1.114v4.006q0,2.215,1.7,2.215a1.715,1.715,0,0,0,1.35-.6,2.315,2.315,0,0,0,.53-1.583V-7h1.121Zm8.073,0H23.563V-3.992q0-2.229-1.627-2.229a1.765,1.765,0,0,0-1.391.632,2.344,2.344,0,0,0-.55,1.6V0H18.874V-7H20v1.162h.027a2.526,2.526,0,0,1,2.3-1.326,2.142,2.142,0,0,1,1.757.742,3.3,3.3,0,0,1,.608,2.143Zm8.087,0H31.65V-1.189h-.027A2.588,2.588,0,0,1,29.217.164a2.615,2.615,0,0,1-2.109-.94,3.856,3.856,0,0,1-.79-2.56,4.2,4.2,0,0,1,.875-2.782,2.886,2.886,0,0,1,2.331-1.046,2.244,2.244,0,0,1,2.1,1.135h.027v-4.334h1.121ZM31.65-3.165V-4.2a2,2,0,0,0-.561-1.436,1.88,1.88,0,0,0-1.422-.588,1.936,1.936,0,0,0-1.613.752,3.3,3.3,0,0,0-.588,2.078,2.964,2.964,0,0,0,.564,1.911,1.843,1.843,0,0,0,1.514.7,1.915,1.915,0,0,0,1.521-.677A2.521,2.521,0,0,0,31.65-3.165Zm9.017-.055H35.725a2.618,2.618,0,0,0,.629,1.8,2.168,2.168,0,0,0,1.654.636,3.439,3.439,0,0,0,2.174-.779V-.506a4.063,4.063,0,0,1-2.44.67A2.959,2.959,0,0,1,35.41-.79a3.9,3.9,0,0,1-.848-2.683,3.828,3.828,0,0,1,.926-2.663,2.97,2.97,0,0,1,2.3-1.029,2.632,2.632,0,0,1,2.126.889,3.705,3.705,0,0,1,.752,2.468Zm-1.148-.95a2.281,2.281,0,0,0-.468-1.511,1.6,1.6,0,0,0-1.282-.54,1.811,1.811,0,0,0-1.347.567,2.575,2.575,0,0,0-.684,1.483Zm6.494-1.7a1.371,1.371,0,0,0-.848-.226,1.431,1.431,0,0,0-1.2.677,3.129,3.129,0,0,0-.482,1.846V0H42.362V-7h1.121v1.442h.027a2.444,2.444,0,0,1,.731-1.152,1.668,1.668,0,0,1,1.1-.414,1.83,1.83,0,0,1,.67.1ZM61.209,0H60.067V-6.576q0-.779.1-1.907h-.027a6.1,6.1,0,0,1-.294.95L56.492,0h-.561L52.589-7.479a5.859,5.859,0,0,1-.294-1h-.027q.055.588.055,1.921V0H51.215V-9.8h1.518L55.74-2.967a8.753,8.753,0,0,1,.451,1.176h.041q.294-.807.472-1.2L59.773-9.8h1.436Zm3-8.777a.71.71,0,0,1-.513-.205.692.692,0,0,1-.212-.52.7.7,0,0,1,.212-.523.7.7,0,0,1,.513-.208.724.724,0,0,1,.523.208.7.7,0,0,1,.215.523.693.693,0,0,1-.215.513A.718.718,0,0,1,64.21-8.777ZM64.757,0H63.636V-7h1.121Zm5.729-9.379a1.493,1.493,0,0,0-.745-.185q-1.176,0-1.176,1.483V-7h1.641v.957H68.564V0H67.45V-6.043h-1.2V-7h1.2V-8.135a2.358,2.358,0,0,1,.636-1.74,2.146,2.146,0,0,1,1.586-.639,2.2,2.2,0,0,1,.813.123Zm4.382,0a1.493,1.493,0,0,0-.745-.185q-1.176,0-1.176,1.483V-7h1.641v.957H72.946V0H71.832V-6.043h-1.2V-7h1.2V-8.135a2.358,2.358,0,0,1,.636-1.74,2.146,2.146,0,0,1,1.586-.639,2.2,2.2,0,0,1,.813.123ZM76.911,0H75.79V-10.363h1.121Zm2.844-8.777a.71.71,0,0,1-.513-.205.692.692,0,0,1-.212-.52.7.7,0,0,1,.212-.523.7.7,0,0,1,.513-.208.724.724,0,0,1,.523.208.7.7,0,0,1,.215.523.693.693,0,0,1-.215.513A.718.718,0,0,1,79.755-8.777ZM80.3,0H79.181V-7H80.3Zm8.08,0H87.261V-3.992q0-2.229-1.627-2.229a1.765,1.765,0,0,0-1.391.632,2.344,2.344,0,0,0-.55,1.6V0H82.571V-7h1.121v1.162h.027a2.526,2.526,0,0,1,2.3-1.326,2.142,2.142,0,0,1,1.757.742,3.3,3.3,0,0,1,.608,2.143Z" transform="translate(110.5 247.5)" fill="#31313a"/>
      <path id="Path_101208" data-name="Path 101208" d="M8.572-9.8,4.942,0H3.678L.123-9.8H1.4L4.115-2.03a4.615,4.615,0,0,1,.2.868h.027a4.258,4.258,0,0,1,.226-.882L7.335-9.8ZM13.815,0H12.694V-1.094h-.027A2.347,2.347,0,0,1,10.514.164,2.3,2.3,0,0,1,8.876-.39a1.918,1.918,0,0,1-.591-1.47q0-1.962,2.311-2.283l2.1-.294q0-1.784-1.442-1.784a3.446,3.446,0,0,0-2.283.861V-6.508a4.338,4.338,0,0,1,2.379-.656q2.468,0,2.468,2.611ZM12.694-3.541l-1.688.232a2.741,2.741,0,0,0-1.176.386,1.114,1.114,0,0,0-.4.981A1.068,1.068,0,0,0,9.8-1.1a1.413,1.413,0,0,0,.974.325,1.8,1.8,0,0,0,1.377-.584,2.088,2.088,0,0,0,.543-1.48ZM21.738,0H20.617V-3.992q0-2.229-1.627-2.229a1.765,1.765,0,0,0-1.391.632,2.344,2.344,0,0,0-.55,1.6V0H15.928V-7h1.121v1.162h.027a2.526,2.526,0,0,1,2.3-1.326,2.142,2.142,0,0,1,1.757.742,3.3,3.3,0,0,1,.608,2.143Zm6.884-.321a3.643,3.643,0,0,1-1.914.485A3.169,3.169,0,0,1,24.292-.81a3.53,3.53,0,0,1-.919-2.526,3.881,3.881,0,0,1,.991-2.779,3.467,3.467,0,0,1,2.646-1.049,3.682,3.682,0,0,1,1.627.342v1.148a2.85,2.85,0,0,0-1.668-.547,2.254,2.254,0,0,0-1.76.769,2.918,2.918,0,0,0-.687,2.02,2.779,2.779,0,0,0,.646,1.941A2.227,2.227,0,0,0,26.9-.779a2.81,2.81,0,0,0,1.723-.608Zm7.321-2.9H31a2.618,2.618,0,0,0,.629,1.8,2.168,2.168,0,0,0,1.654.636,3.439,3.439,0,0,0,2.174-.779V-.506a4.063,4.063,0,0,1-2.44.67A2.959,2.959,0,0,1,30.687-.79a3.9,3.9,0,0,1-.848-2.683,3.828,3.828,0,0,1,.926-2.663,2.97,2.97,0,0,1,2.3-1.029,2.632,2.632,0,0,1,2.126.889,3.705,3.705,0,0,1,.752,2.468Zm-1.148-.95a2.281,2.281,0,0,0-.468-1.511,1.6,1.6,0,0,0-1.282-.54,1.811,1.811,0,0,0-1.347.567,2.575,2.575,0,0,0-.684,1.483ZM48.651,0H47.284L45.644-2.748a5.985,5.985,0,0,0-.437-.653,2.494,2.494,0,0,0-.434-.441,1.5,1.5,0,0,0-.479-.25,1.968,1.968,0,0,0-.578-.079h-.943V0H41.624V-9.8H44.55a4.17,4.17,0,0,1,1.186.161,2.654,2.654,0,0,1,.943.489,2.271,2.271,0,0,1,.625.817,2.709,2.709,0,0,1,.226,1.145,2.757,2.757,0,0,1-.154.94,2.455,2.455,0,0,1-.437.762,2.652,2.652,0,0,1-.684.571,3.49,3.49,0,0,1-.9.366v.027a2.068,2.068,0,0,1,.427.25,2.351,2.351,0,0,1,.345.332,4.392,4.392,0,0,1,.325.434q.161.243.359.564ZM42.772-8.764v3.555h1.559a2.364,2.364,0,0,0,.8-.13,1.844,1.844,0,0,0,.632-.373,1.69,1.69,0,0,0,.417-.595,1.991,1.991,0,0,0,.15-.79,1.537,1.537,0,0,0-.509-1.227,2.188,2.188,0,0,0-1.473-.441ZM55.063-3.22H50.121a2.618,2.618,0,0,0,.629,1.8A2.168,2.168,0,0,0,52.4-.779a3.439,3.439,0,0,0,2.174-.779V-.506a4.063,4.063,0,0,1-2.44.67A2.959,2.959,0,0,1,49.807-.79a3.9,3.9,0,0,1-.848-2.683,3.828,3.828,0,0,1,.926-2.663,2.97,2.97,0,0,1,2.3-1.029,2.632,2.632,0,0,1,2.126.889,3.705,3.705,0,0,1,.752,2.468Zm-1.148-.95a2.281,2.281,0,0,0-.468-1.511,1.6,1.6,0,0,0-1.282-.54,1.811,1.811,0,0,0-1.347.567,2.575,2.575,0,0,0-.684,1.483Zm6.3-5.209a1.493,1.493,0,0,0-.745-.185Q58.3-9.563,58.3-8.08V-7h1.641v.957H58.3V0H57.183V-6.043h-1.2V-7h1.2V-8.135a2.358,2.358,0,0,1,.636-1.74,2.146,2.146,0,0,1,1.586-.639,2.2,2.2,0,0,1,.813.123Zm4.573,3.514a1.371,1.371,0,0,0-.848-.226,1.431,1.431,0,0,0-1.2.677,3.129,3.129,0,0,0-.482,1.846V0H61.141V-7h1.121v1.442h.027a2.444,2.444,0,0,1,.731-1.152,1.668,1.668,0,0,1,1.1-.414,1.83,1.83,0,0,1,.67.1Zm1.791-2.912a.71.71,0,0,1-.513-.205.692.692,0,0,1-.212-.52.7.7,0,0,1,.212-.523.7.7,0,0,1,.513-.208.724.724,0,0,1,.523.208.7.7,0,0,1,.215.523.693.693,0,0,1-.215.513A.718.718,0,0,1,66.582-8.777ZM67.129,0H66.008V-7h1.121Zm8.244-.561q0,3.855-3.691,3.855a4.956,4.956,0,0,1-2.27-.492V1.682a4.661,4.661,0,0,0,2.256.656q2.584,0,2.584-2.748v-.766h-.027A2.622,2.622,0,0,1,71.818.164a2.628,2.628,0,0,1-2.1-.933,3.73,3.73,0,0,1-.8-2.505,4.358,4.358,0,0,1,.858-2.837,2.866,2.866,0,0,1,2.348-1.053,2.282,2.282,0,0,1,2.1,1.135h.027V-7h1.121Zm-1.121-2.6V-4.2a2,2,0,0,0-.564-1.429,1.857,1.857,0,0,0-1.4-.595,1.947,1.947,0,0,0-1.627.755,3.372,3.372,0,0,0-.588,2.116,2.894,2.894,0,0,0,.564,1.87,1.822,1.822,0,0,0,1.494.7,1.951,1.951,0,0,0,1.535-.67A2.5,2.5,0,0,0,74.252-3.165Zm9.017-.055H78.326a2.618,2.618,0,0,0,.629,1.8,2.168,2.168,0,0,0,1.654.636,3.439,3.439,0,0,0,2.174-.779V-.506a4.063,4.063,0,0,1-2.44.67A2.959,2.959,0,0,1,78.012-.79a3.9,3.9,0,0,1-.848-2.683,3.828,3.828,0,0,1,.926-2.663,2.97,2.97,0,0,1,2.3-1.029,2.632,2.632,0,0,1,2.126.889,3.705,3.705,0,0,1,.752,2.468ZM82.12-4.17a2.281,2.281,0,0,0-.468-1.511,1.6,1.6,0,0,0-1.282-.54,1.811,1.811,0,0,0-1.347.567A2.575,2.575,0,0,0,78.34-4.17Zm6.494-1.7a1.371,1.371,0,0,0-.848-.226,1.431,1.431,0,0,0-1.2.677,3.129,3.129,0,0,0-.482,1.846V0H84.964V-7h1.121v1.442h.027a2.444,2.444,0,0,1,.731-1.152,1.668,1.668,0,0,1,1.1-.414,1.83,1.83,0,0,1,.67.1ZM94.842,0H93.721V-1.094h-.027A2.347,2.347,0,0,1,91.54.164,2.3,2.3,0,0,1,89.9-.39a1.918,1.918,0,0,1-.591-1.47q0-1.962,2.311-2.283l2.1-.294q0-1.784-1.442-1.784A3.446,3.446,0,0,0,90-5.359V-6.508a4.338,4.338,0,0,1,2.379-.656q2.468,0,2.468,2.611ZM93.721-3.541l-1.688.232a2.741,2.741,0,0,0-1.176.386,1.114,1.114,0,0,0-.4.981,1.068,1.068,0,0,0,.366.837,1.413,1.413,0,0,0,.974.325,1.8,1.8,0,0,0,1.377-.584,2.088,2.088,0,0,0,.543-1.48ZM100.2-.068A2.161,2.161,0,0,1,99.155.15Q97.316.15,97.316-1.9V-6.043h-1.2V-7h1.2V-8.709l1.121-.362V-7H100.2v.957H98.438V-2.1a1.635,1.635,0,0,0,.239,1,.955.955,0,0,0,.793.3,1.179,1.179,0,0,0,.731-.232Zm2.071-8.709a.71.71,0,0,1-.513-.205.692.692,0,0,1-.212-.52.7.7,0,0,1,.212-.523.7.7,0,0,1,.513-.208.724.724,0,0,1,.523.208.7.7,0,0,1,.215.523.693.693,0,0,1-.215.513A.718.718,0,0,1,102.272-8.777ZM102.819,0H101.7V-7h1.121Zm5.2.164a3.247,3.247,0,0,1-2.478-.981,3.633,3.633,0,0,1-.926-2.6,3.785,3.785,0,0,1,.964-2.755,3.465,3.465,0,0,1,2.6-.991,3.14,3.14,0,0,1,2.444.964,3.822,3.822,0,0,1,.878,2.673,3.761,3.761,0,0,1-.947,2.683A3.317,3.317,0,0,1,108.015.164Zm.082-6.385a2.132,2.132,0,0,0-1.709.735,3.018,3.018,0,0,0-.629,2.027,2.854,2.854,0,0,0,.636,1.962,2.161,2.161,0,0,0,1.7.718,2.049,2.049,0,0,0,1.671-.7,3.055,3.055,0,0,0,.584-2,3.108,3.108,0,0,0-.584-2.023A2.04,2.04,0,0,0,108.1-6.221ZM119.1,0h-1.121V-3.992q0-2.229-1.627-2.229a1.765,1.765,0,0,0-1.391.632,2.344,2.344,0,0,0-.55,1.6V0h-1.121V-7h1.121v1.162h.027a2.526,2.526,0,0,1,2.3-1.326,2.142,2.142,0,0,1,1.757.742,3.3,3.3,0,0,1,.608,2.143Z" transform="translate(110.5 295.5)" fill="#31313a"/>
      <path id="Path_101209" data-name="Path 101209" d="M4.949,0H3.828V-8.47a2.6,2.6,0,0,1-.379.3,6.184,6.184,0,0,1-.561.332q-.311.164-.656.308a4.769,4.769,0,0,1-.673.226V-8.442a6.517,6.517,0,0,0,.783-.277q.414-.174.813-.39T3.91-9.56a6,6,0,0,0,.615-.461h.424Zm7.875-7.232a2.027,2.027,0,0,0-.14-.786,1.557,1.557,0,0,0-.383-.557,1.568,1.568,0,0,0-.571-.332,2.235,2.235,0,0,0-.711-.109,2.352,2.352,0,0,0-.643.089,3.124,3.124,0,0,0-.612.246,3.764,3.764,0,0,0-.574.376,4.148,4.148,0,0,0-.516.485v-1.2a3.352,3.352,0,0,1,1.056-.7,3.719,3.719,0,0,1,1.425-.243,3.441,3.441,0,0,1,1.114.174,2.555,2.555,0,0,1,.889.509,2.354,2.354,0,0,1,.591.827,2.79,2.79,0,0,1,.215,1.128,3.868,3.868,0,0,1-.133,1.053,3.256,3.256,0,0,1-.4.889,4.288,4.288,0,0,1-.68.8,9.635,9.635,0,0,1-.964.779q-.69.492-1.138.841a5.031,5.031,0,0,0-.711.653,1.894,1.894,0,0,0-.369.608,2.127,2.127,0,0,0-.106.7h4.881V0H8.292V-.485a4.045,4.045,0,0,1,.137-1.107A2.876,2.876,0,0,1,8.88-2.5,5.046,5.046,0,0,1,9.7-3.363q.509-.431,1.248-.971a7.887,7.887,0,0,0,.892-.731,3.8,3.8,0,0,0,.578-.7,2.5,2.5,0,0,0,.311-.708A3.051,3.051,0,0,0,12.824-7.232ZM20.651-9.8l-4.7,11.43H14.9L19.592-9.8Zm5.175,2.57a2.027,2.027,0,0,0-.14-.786,1.557,1.557,0,0,0-.383-.557,1.568,1.568,0,0,0-.571-.332,2.235,2.235,0,0,0-.711-.109,2.352,2.352,0,0,0-.643.089,3.124,3.124,0,0,0-.612.246,3.764,3.764,0,0,0-.574.376,4.148,4.148,0,0,0-.516.485v-1.2a3.352,3.352,0,0,1,1.056-.7,3.719,3.719,0,0,1,1.425-.243,3.441,3.441,0,0,1,1.114.174,2.555,2.555,0,0,1,.889.509,2.354,2.354,0,0,1,.591.827,2.79,2.79,0,0,1,.215,1.128,3.868,3.868,0,0,1-.133,1.053,3.256,3.256,0,0,1-.4.889,4.288,4.288,0,0,1-.68.8,9.635,9.635,0,0,1-.964.779q-.69.492-1.138.841a5.031,5.031,0,0,0-.711.653,1.894,1.894,0,0,0-.369.608,2.127,2.127,0,0,0-.106.7h4.881V0h-6.05V-.485a4.045,4.045,0,0,1,.137-1.107,2.876,2.876,0,0,1,.451-.909,5.046,5.046,0,0,1,.824-.861q.509-.431,1.248-.971a7.887,7.887,0,0,0,.892-.731,3.8,3.8,0,0,0,.578-.7,2.5,2.5,0,0,0,.311-.708A3.051,3.051,0,0,0,25.826-7.232Zm9.133,1.743a9.764,9.764,0,0,1-.267,2.4,5.345,5.345,0,0,1-.779,1.777A3.45,3.45,0,0,1,32.662-.208,3.627,3.627,0,0,1,30.98.171a4.028,4.028,0,0,1-1.709-.342V-1.244a3.484,3.484,0,0,0,1.736.458,2.521,2.521,0,0,0,1.186-.273,2.456,2.456,0,0,0,.885-.8,3.91,3.91,0,0,0,.554-1.289A7.276,7.276,0,0,0,33.824-4.9H33.8a2.239,2.239,0,0,1-2.187,1.265,2.941,2.941,0,0,1-1.155-.222,2.647,2.647,0,0,1-.909-.629,2.878,2.878,0,0,1-.595-.967,3.474,3.474,0,0,1-.212-1.237,3.6,3.6,0,0,1,.236-1.326,3.091,3.091,0,0,1,.656-1.036,2.936,2.936,0,0,1,1-.673,3.264,3.264,0,0,1,1.261-.239,2.792,2.792,0,0,1,1.309.3,2.624,2.624,0,0,1,.96.868,4.29,4.29,0,0,1,.595,1.4A8.021,8.021,0,0,1,34.959-5.489Zm-1.21-1A3.413,3.413,0,0,0,33.6-7.526a2.5,2.5,0,0,0-.407-.8,1.825,1.825,0,0,0-.619-.513,1.712,1.712,0,0,0-.783-.181,1.775,1.775,0,0,0-.752.161,1.808,1.808,0,0,0-.6.451,2.154,2.154,0,0,0-.4.69,2.508,2.508,0,0,0-.147.872,2.867,2.867,0,0,0,.14.93,1.942,1.942,0,0,0,.4.694,1.727,1.727,0,0,0,.625.434,2.111,2.111,0,0,0,.81.15,1.856,1.856,0,0,0,.735-.147,1.946,1.946,0,0,0,.6-.4,1.827,1.827,0,0,0,.4-.588A1.807,1.807,0,0,0,33.749-6.494ZM41.2-9.8,36.5,1.627H35.451L40.141-9.8Zm5.175,2.57a2.027,2.027,0,0,0-.14-.786,1.557,1.557,0,0,0-.383-.557,1.568,1.568,0,0,0-.571-.332,2.235,2.235,0,0,0-.711-.109,2.352,2.352,0,0,0-.643.089,3.124,3.124,0,0,0-.612.246,3.764,3.764,0,0,0-.574.376,4.148,4.148,0,0,0-.516.485v-1.2a3.352,3.352,0,0,1,1.056-.7,3.719,3.719,0,0,1,1.425-.243,3.441,3.441,0,0,1,1.114.174,2.555,2.555,0,0,1,.889.509,2.354,2.354,0,0,1,.591.827,2.79,2.79,0,0,1,.215,1.128,3.868,3.868,0,0,1-.133,1.053,3.256,3.256,0,0,1-.4.889,4.288,4.288,0,0,1-.68.8,9.635,9.635,0,0,1-.964.779q-.69.492-1.138.841a5.031,5.031,0,0,0-.711.653,1.894,1.894,0,0,0-.369.608,2.127,2.127,0,0,0-.106.7h4.881V0h-6.05V-.485a4.045,4.045,0,0,1,.137-1.107,2.876,2.876,0,0,1,.451-.909,5.046,5.046,0,0,1,.824-.861q.509-.431,1.248-.971a7.887,7.887,0,0,0,.892-.731,3.8,3.8,0,0,0,.578-.7,2.5,2.5,0,0,0,.311-.708A3.051,3.051,0,0,0,46.375-7.232Zm9.242,2.29A9.63,9.63,0,0,1,55.4-2.762a5.081,5.081,0,0,1-.643,1.6,2.892,2.892,0,0,1-1.032.991,2.826,2.826,0,0,1-1.391.338,2.639,2.639,0,0,1-1.316-.325,2.758,2.758,0,0,1-.974-.947,4.8,4.8,0,0,1-.6-1.528A9.447,9.447,0,0,1,49.232-4.7a10.694,10.694,0,0,1,.215-2.27,5.191,5.191,0,0,1,.632-1.651,2.814,2.814,0,0,1,1.036-1,2.908,2.908,0,0,1,1.418-.338Q55.617-9.967,55.617-4.942Zm-1.148.109q0-4.184-1.989-4.184-2.1,0-2.1,4.259,0,3.972,2.058,3.972Q54.469-.786,54.469-4.833ZM61.141,0H60.02V-8.47a2.6,2.6,0,0,1-.379.3,6.184,6.184,0,0,1-.561.332q-.311.164-.656.308a4.769,4.769,0,0,1-.673.226V-8.442a6.517,6.517,0,0,0,.783-.277q.414-.174.813-.39T60.1-9.56a6,6,0,0,0,.615-.461h.424ZM70.6-5.489a9.764,9.764,0,0,1-.267,2.4,5.345,5.345,0,0,1-.779,1.777A3.45,3.45,0,0,1,68.3-.208a3.627,3.627,0,0,1-1.682.379,4.028,4.028,0,0,1-1.709-.342V-1.244a3.484,3.484,0,0,0,1.736.458,2.521,2.521,0,0,0,1.186-.273,2.456,2.456,0,0,0,.885-.8,3.91,3.91,0,0,0,.554-1.289A7.276,7.276,0,0,0,69.467-4.9h-.027a2.239,2.239,0,0,1-2.187,1.265A2.941,2.941,0,0,1,66.1-3.859a2.647,2.647,0,0,1-.909-.629,2.878,2.878,0,0,1-.595-.967,3.474,3.474,0,0,1-.212-1.237,3.6,3.6,0,0,1,.236-1.326,3.091,3.091,0,0,1,.656-1.036,2.936,2.936,0,0,1,1-.673,3.264,3.264,0,0,1,1.261-.239,2.792,2.792,0,0,1,1.309.3,2.624,2.624,0,0,1,.96.868A4.29,4.29,0,0,1,70.4-7.4,8.021,8.021,0,0,1,70.6-5.489Zm-1.21-1a3.413,3.413,0,0,0-.147-1.032,2.5,2.5,0,0,0-.407-.8,1.825,1.825,0,0,0-.619-.513,1.712,1.712,0,0,0-.783-.181,1.775,1.775,0,0,0-.752.161,1.808,1.808,0,0,0-.6.451,2.154,2.154,0,0,0-.4.69,2.508,2.508,0,0,0-.147.872,2.867,2.867,0,0,0,.14.93,1.941,1.941,0,0,0,.4.694,1.727,1.727,0,0,0,.625.434,2.111,2.111,0,0,0,.81.15,1.856,1.856,0,0,0,.735-.147,1.946,1.946,0,0,0,.6-.4,1.827,1.827,0,0,0,.4-.588A1.807,1.807,0,0,0,69.392-6.494Z" transform="translate(382.5 247.5)" fill="#31313a"/>
      <path id="Path_101210" data-name="Path 101210" d="M6.973-4.942A9.63,9.63,0,0,1,6.75-2.762a5.081,5.081,0,0,1-.643,1.6,2.892,2.892,0,0,1-1.032.991A2.826,2.826,0,0,1,3.685.171,2.639,2.639,0,0,1,2.369-.154,2.758,2.758,0,0,1,1.395-1.1a4.8,4.8,0,0,1-.6-1.528A9.447,9.447,0,0,1,.588-4.7,10.694,10.694,0,0,1,.8-6.973a5.191,5.191,0,0,1,.632-1.651,2.814,2.814,0,0,1,1.036-1A2.908,2.908,0,0,1,3.89-9.967Q6.973-9.967,6.973-4.942Zm-1.148.109q0-4.184-1.989-4.184-2.1,0-2.1,4.259,0,3.972,2.058,3.972Q5.824-.786,5.824-4.833ZM12.5,0H11.375V-8.47a2.6,2.6,0,0,1-.379.3,6.184,6.184,0,0,1-.561.332q-.311.164-.656.308a4.769,4.769,0,0,1-.673.226V-8.442a6.517,6.517,0,0,0,.783-.277q.414-.174.813-.39t.755-.451a6,6,0,0,0,.615-.461H12.5Zm8.155-9.8-4.7,11.43H14.9L19.592-9.8Zm5.175,2.57a2.027,2.027,0,0,0-.14-.786,1.557,1.557,0,0,0-.383-.557,1.568,1.568,0,0,0-.571-.332,2.235,2.235,0,0,0-.711-.109,2.352,2.352,0,0,0-.643.089,3.124,3.124,0,0,0-.612.246,3.764,3.764,0,0,0-.574.376,4.148,4.148,0,0,0-.516.485v-1.2a3.352,3.352,0,0,1,1.056-.7,3.719,3.719,0,0,1,1.425-.243,3.441,3.441,0,0,1,1.114.174,2.555,2.555,0,0,1,.889.509,2.354,2.354,0,0,1,.591.827,2.79,2.79,0,0,1,.215,1.128,3.868,3.868,0,0,1-.133,1.053,3.256,3.256,0,0,1-.4.889,4.288,4.288,0,0,1-.68.8,9.635,9.635,0,0,1-.964.779q-.69.492-1.138.841a5.031,5.031,0,0,0-.711.653,1.894,1.894,0,0,0-.369.608,2.127,2.127,0,0,0-.106.7h4.881V0h-6.05V-.485a4.045,4.045,0,0,1,.137-1.107,2.876,2.876,0,0,1,.451-.909,5.046,5.046,0,0,1,.824-.861q.509-.431,1.248-.971a7.887,7.887,0,0,0,.892-.731,3.8,3.8,0,0,0,.578-.7,2.5,2.5,0,0,0,.311-.708A3.051,3.051,0,0,0,25.826-7.232Zm9.242,2.29a9.63,9.63,0,0,1-.222,2.181,5.081,5.081,0,0,1-.643,1.6,2.892,2.892,0,0,1-1.032.991A2.826,2.826,0,0,1,31.78.171a2.639,2.639,0,0,1-1.316-.325A2.758,2.758,0,0,1,29.49-1.1a4.8,4.8,0,0,1-.6-1.528A9.447,9.447,0,0,1,28.684-4.7a10.694,10.694,0,0,1,.215-2.27,5.191,5.191,0,0,1,.632-1.651,2.814,2.814,0,0,1,1.036-1,2.908,2.908,0,0,1,1.418-.338Q35.068-9.967,35.068-4.942Zm-1.148.109q0-4.184-1.989-4.184-2.1,0-2.1,4.259,0,3.972,2.058,3.972Q33.92-.786,33.92-4.833ZM41.2-9.8,36.5,1.627H35.451L40.141-9.8Zm5.175,2.57a2.027,2.027,0,0,0-.14-.786,1.557,1.557,0,0,0-.383-.557,1.568,1.568,0,0,0-.571-.332,2.235,2.235,0,0,0-.711-.109,2.352,2.352,0,0,0-.643.089,3.124,3.124,0,0,0-.612.246,3.764,3.764,0,0,0-.574.376,4.148,4.148,0,0,0-.516.485v-1.2a3.352,3.352,0,0,1,1.056-.7,3.719,3.719,0,0,1,1.425-.243,3.441,3.441,0,0,1,1.114.174,2.555,2.555,0,0,1,.889.509,2.354,2.354,0,0,1,.591.827,2.79,2.79,0,0,1,.215,1.128,3.868,3.868,0,0,1-.133,1.053,3.256,3.256,0,0,1-.4.889,4.288,4.288,0,0,1-.68.8,9.635,9.635,0,0,1-.964.779q-.69.492-1.138.841a5.031,5.031,0,0,0-.711.653,1.894,1.894,0,0,0-.369.608,2.127,2.127,0,0,0-.106.7h4.881V0h-6.05V-.485a4.045,4.045,0,0,1,.137-1.107,2.876,2.876,0,0,1,.451-.909,5.046,5.046,0,0,1,.824-.861q.509-.431,1.248-.971a7.887,7.887,0,0,0,.892-.731,3.8,3.8,0,0,0,.578-.7,2.5,2.5,0,0,0,.311-.708A3.051,3.051,0,0,0,46.375-7.232Zm9.242,2.29A9.63,9.63,0,0,1,55.4-2.762a5.081,5.081,0,0,1-.643,1.6,2.892,2.892,0,0,1-1.032.991,2.826,2.826,0,0,1-1.391.338,2.639,2.639,0,0,1-1.316-.325,2.758,2.758,0,0,1-.974-.947,4.8,4.8,0,0,1-.6-1.528A9.447,9.447,0,0,1,49.232-4.7a10.694,10.694,0,0,1,.215-2.27,5.191,5.191,0,0,1,.632-1.651,2.814,2.814,0,0,1,1.036-1,2.908,2.908,0,0,1,1.418-.338Q55.617-9.967,55.617-4.942Zm-1.148.109q0-4.184-1.989-4.184-2.1,0-2.1,4.259,0,3.972,2.058,3.972Q54.469-.786,54.469-4.833Zm7-2.4a2.027,2.027,0,0,0-.14-.786,1.557,1.557,0,0,0-.383-.557,1.568,1.568,0,0,0-.571-.332,2.235,2.235,0,0,0-.711-.109,2.352,2.352,0,0,0-.643.089,3.124,3.124,0,0,0-.612.246,3.764,3.764,0,0,0-.574.376,4.148,4.148,0,0,0-.516.485v-1.2a3.352,3.352,0,0,1,1.056-.7A3.719,3.719,0,0,1,59.8-9.967a3.441,3.441,0,0,1,1.114.174,2.555,2.555,0,0,1,.889.509,2.354,2.354,0,0,1,.591.827,2.79,2.79,0,0,1,.215,1.128,3.868,3.868,0,0,1-.133,1.053,3.256,3.256,0,0,1-.4.889,4.288,4.288,0,0,1-.68.8,9.635,9.635,0,0,1-.964.779q-.69.492-1.138.841a5.031,5.031,0,0,0-.711.653,1.894,1.894,0,0,0-.369.608,2.127,2.127,0,0,0-.106.7h4.881V0h-6.05V-.485a4.045,4.045,0,0,1,.137-1.107,2.876,2.876,0,0,1,.451-.909,5.046,5.046,0,0,1,.824-.861q.509-.431,1.248-.971a7.887,7.887,0,0,0,.892-.731,3.8,3.8,0,0,0,.578-.7,2.5,2.5,0,0,0,.311-.708A3.051,3.051,0,0,0,61.469-7.232Zm9.242,2.29a9.63,9.63,0,0,1-.222,2.181,5.081,5.081,0,0,1-.643,1.6,2.892,2.892,0,0,1-1.032.991,2.826,2.826,0,0,1-1.391.338,2.639,2.639,0,0,1-1.316-.325,2.758,2.758,0,0,1-.974-.947,4.8,4.8,0,0,1-.6-1.528A9.447,9.447,0,0,1,64.326-4.7a10.694,10.694,0,0,1,.215-2.27,5.191,5.191,0,0,1,.632-1.651,2.814,2.814,0,0,1,1.036-1,2.908,2.908,0,0,1,1.418-.338Q70.711-9.967,70.711-4.942Zm-1.148.109q0-4.184-1.989-4.184-2.1,0-2.1,4.259,0,3.972,2.058,3.972Q69.563-.786,69.563-4.833Z" transform="translate(382.5 295.5)" fill="#31313a"/>
      <path id="Path_101214" data-name="Path 101214" d="M8.873,0H7.6L6.563-2.748H2.406L1.429,0H.15L3.91-9.8H5.1ZM6.187-3.78,4.648-7.957a4,4,0,0,1-.15-.656H4.471a3.661,3.661,0,0,1-.157.656L2.789-3.78ZM16.14,0H15.019V-1.189h-.027A2.588,2.588,0,0,1,12.585.164a2.615,2.615,0,0,1-2.109-.94,3.856,3.856,0,0,1-.79-2.56,4.2,4.2,0,0,1,.875-2.782,2.886,2.886,0,0,1,2.331-1.046,2.244,2.244,0,0,1,2.1,1.135h.027v-4.334H16.14ZM15.019-3.165V-4.2a2,2,0,0,0-.561-1.436,1.88,1.88,0,0,0-1.422-.588,1.936,1.936,0,0,0-1.613.752,3.3,3.3,0,0,0-.588,2.078A2.964,2.964,0,0,0,11.4-1.48a1.843,1.843,0,0,0,1.514.7,1.915,1.915,0,0,0,1.521-.677A2.521,2.521,0,0,0,15.019-3.165ZM23.42,0H22.3V-1.094h-.027A2.347,2.347,0,0,1,20.118.164,2.3,2.3,0,0,1,18.481-.39a1.918,1.918,0,0,1-.591-1.47q0-1.962,2.311-2.283l2.1-.294q0-1.784-1.442-1.784a3.446,3.446,0,0,0-2.283.861V-6.508a4.338,4.338,0,0,1,2.379-.656q2.468,0,2.468,2.611ZM22.3-3.541l-1.688.232a2.741,2.741,0,0,0-1.176.386,1.114,1.114,0,0,0-.4.981A1.068,1.068,0,0,0,19.4-1.1a1.413,1.413,0,0,0,.974.325,1.8,1.8,0,0,0,1.377-.584,2.088,2.088,0,0,0,.543-1.48ZM35.472,0H34.351V-4.02A3.032,3.032,0,0,0,33.992-5.7a1.361,1.361,0,0,0-1.207-.52,1.494,1.494,0,0,0-1.22.656,2.511,2.511,0,0,0-.5,1.572V0H29.941V-4.156q0-2.064-1.593-2.064a1.475,1.475,0,0,0-1.217.619,2.557,2.557,0,0,0-.479,1.61V0H25.532V-7h1.121v1.107h.027a2.378,2.378,0,0,1,2.174-1.271,2.027,2.027,0,0,1,1.251.4,2.012,2.012,0,0,1,.731,1.049,2.5,2.5,0,0,1,2.324-1.449q2.311,0,2.311,2.851ZM48.9-.67a6.555,6.555,0,0,1-3.281.834,4.484,4.484,0,0,1-3.394-1.354,4.964,4.964,0,0,1-1.3-3.582,5.1,5.1,0,0,1,1.439-3.736A4.905,4.905,0,0,1,46.02-9.967a6.206,6.206,0,0,1,2.687.52v1.271a5.159,5.159,0,0,0-2.816-.752,3.519,3.519,0,0,0-2.7,1.135,4.15,4.15,0,0,0-1.053,2.939,4.153,4.153,0,0,0,.978,2.922A3.426,3.426,0,0,0,45.767-.868a4.1,4.1,0,0,0,1.989-.458V-4.074H45.609V-5.113H48.9Zm2.7-8.107a.71.71,0,0,1-.513-.205.692.692,0,0,1-.212-.52.7.7,0,0,1,.212-.523.7.7,0,0,1,.513-.208.724.724,0,0,1,.523.208.7.7,0,0,1,.215.523.693.693,0,0,1-.215.513A.718.718,0,0,1,51.6-8.777ZM52.151,0H51.03V-7h1.121Zm3.391,0H54.421V-10.363h1.121Zm1.846-.253v-1.2A3.318,3.318,0,0,0,59.4-.779q1.477,0,1.477-.984a.854.854,0,0,0-.126-.475,1.26,1.26,0,0,0-.342-.345,2.631,2.631,0,0,0-.506-.27q-.291-.12-.625-.25a8.056,8.056,0,0,1-.817-.373,2.468,2.468,0,0,1-.588-.424,1.577,1.577,0,0,1-.355-.537,1.9,1.9,0,0,1-.12-.7,1.673,1.673,0,0,1,.226-.872,2,2,0,0,1,.6-.636,2.805,2.805,0,0,1,.858-.386,3.805,3.805,0,0,1,.995-.13,4.016,4.016,0,0,1,1.627.314v1.135a3.171,3.171,0,0,0-1.777-.506,2.078,2.078,0,0,0-.567.072,1.389,1.389,0,0,0-.434.2.932.932,0,0,0-.28.311.819.819,0,0,0-.1.4.959.959,0,0,0,.1.458,1.008,1.008,0,0,0,.291.328,2.221,2.221,0,0,0,.465.26q.273.116.622.253a8.658,8.658,0,0,1,.834.366,2.86,2.86,0,0,1,.629.424,1.656,1.656,0,0,1,.4.543,1.753,1.753,0,0,1,.14.731,1.725,1.725,0,0,1-.229.9,1.963,1.963,0,0,1-.612.636,2.8,2.8,0,0,1-.882.376,4.354,4.354,0,0,1-1.046.123A3.971,3.971,0,0,1,57.388-.253Zm9.29.417A3.247,3.247,0,0,1,64.2-.817a3.634,3.634,0,0,1-.926-2.6,3.785,3.785,0,0,1,.964-2.755,3.465,3.465,0,0,1,2.6-.991,3.14,3.14,0,0,1,2.444.964,3.822,3.822,0,0,1,.878,2.673,3.761,3.761,0,0,1-.947,2.683A3.317,3.317,0,0,1,66.678.164Zm.082-6.385a2.132,2.132,0,0,0-1.709.735,3.018,3.018,0,0,0-.629,2.027A2.854,2.854,0,0,0,65.058-1.5a2.161,2.161,0,0,0,1.7.718,2.049,2.049,0,0,0,1.671-.7,3.055,3.055,0,0,0,.584-2,3.108,3.108,0,0,0-.584-2.023A2.04,2.04,0,0,0,66.76-6.221ZM77.766,0H76.645V-3.992q0-2.229-1.627-2.229a1.765,1.765,0,0,0-1.391.632,2.344,2.344,0,0,0-.55,1.6V0H71.955V-7h1.121v1.162H73.1a2.526,2.526,0,0,1,2.3-1.326,2.142,2.142,0,0,1,1.757.742,3.3,3.3,0,0,1,.608,2.143Z" transform="translate(648.5 247.5)" fill="#31313a"/>
      <path id="Path_101215" data-name="Path 101215" d="M8.873,0H7.6L6.563-2.748H2.406L1.429,0H.15L3.91-9.8H5.1ZM6.187-3.78,4.648-7.957a4,4,0,0,1-.15-.656H4.471a3.661,3.661,0,0,1-.157.656L2.789-3.78ZM16.14,0H15.019V-1.189h-.027A2.588,2.588,0,0,1,12.585.164a2.615,2.615,0,0,1-2.109-.94,3.856,3.856,0,0,1-.79-2.56,4.2,4.2,0,0,1,.875-2.782,2.886,2.886,0,0,1,2.331-1.046,2.244,2.244,0,0,1,2.1,1.135h.027v-4.334H16.14ZM15.019-3.165V-4.2a2,2,0,0,0-.561-1.436,1.88,1.88,0,0,0-1.422-.588,1.936,1.936,0,0,0-1.613.752,3.3,3.3,0,0,0-.588,2.078A2.964,2.964,0,0,0,11.4-1.48a1.843,1.843,0,0,0,1.514.7,1.915,1.915,0,0,0,1.521-.677A2.521,2.521,0,0,0,15.019-3.165ZM23.42,0H22.3V-1.094h-.027A2.347,2.347,0,0,1,20.118.164,2.3,2.3,0,0,1,18.481-.39a1.918,1.918,0,0,1-.591-1.47q0-1.962,2.311-2.283l2.1-.294q0-1.784-1.442-1.784a3.446,3.446,0,0,0-2.283.861V-6.508a4.338,4.338,0,0,1,2.379-.656q2.468,0,2.468,2.611ZM22.3-3.541l-1.688.232a2.741,2.741,0,0,0-1.176.386,1.114,1.114,0,0,0-.4.981A1.068,1.068,0,0,0,19.4-1.1a1.413,1.413,0,0,0,.974.325,1.8,1.8,0,0,0,1.377-.584,2.088,2.088,0,0,0,.543-1.48ZM35.472,0H34.351V-4.02A3.032,3.032,0,0,0,33.992-5.7a1.361,1.361,0,0,0-1.207-.52,1.494,1.494,0,0,0-1.22.656,2.511,2.511,0,0,0-.5,1.572V0H29.941V-4.156q0-2.064-1.593-2.064a1.475,1.475,0,0,0-1.217.619,2.557,2.557,0,0,0-.479,1.61V0H25.532V-7h1.121v1.107h.027a2.378,2.378,0,0,1,2.174-1.271,2.027,2.027,0,0,1,1.251.4,2.012,2.012,0,0,1,.731,1.049,2.5,2.5,0,0,1,2.324-1.449q2.311,0,2.311,2.851ZM48.9-.67a6.555,6.555,0,0,1-3.281.834,4.484,4.484,0,0,1-3.394-1.354,4.964,4.964,0,0,1-1.3-3.582,5.1,5.1,0,0,1,1.439-3.736A4.905,4.905,0,0,1,46.02-9.967a6.206,6.206,0,0,1,2.687.52v1.271a5.159,5.159,0,0,0-2.816-.752,3.519,3.519,0,0,0-2.7,1.135,4.15,4.15,0,0,0-1.053,2.939,4.153,4.153,0,0,0,.978,2.922A3.426,3.426,0,0,0,45.767-.868a4.1,4.1,0,0,0,1.989-.458V-4.074H45.609V-5.113H48.9Zm2.7-8.107a.71.71,0,0,1-.513-.205.692.692,0,0,1-.212-.52.7.7,0,0,1,.212-.523.7.7,0,0,1,.513-.208.724.724,0,0,1,.523.208.7.7,0,0,1,.215.523.693.693,0,0,1-.215.513A.718.718,0,0,1,51.6-8.777ZM52.151,0H51.03V-7h1.121Zm3.391,0H54.421V-10.363h1.121Zm1.846-.253v-1.2A3.318,3.318,0,0,0,59.4-.779q1.477,0,1.477-.984a.854.854,0,0,0-.126-.475,1.26,1.26,0,0,0-.342-.345,2.631,2.631,0,0,0-.506-.27q-.291-.12-.625-.25a8.056,8.056,0,0,1-.817-.373,2.468,2.468,0,0,1-.588-.424,1.577,1.577,0,0,1-.355-.537,1.9,1.9,0,0,1-.12-.7,1.673,1.673,0,0,1,.226-.872,2,2,0,0,1,.6-.636,2.805,2.805,0,0,1,.858-.386,3.805,3.805,0,0,1,.995-.13,4.016,4.016,0,0,1,1.627.314v1.135a3.171,3.171,0,0,0-1.777-.506,2.078,2.078,0,0,0-.567.072,1.389,1.389,0,0,0-.434.2.932.932,0,0,0-.28.311.819.819,0,0,0-.1.4.959.959,0,0,0,.1.458,1.008,1.008,0,0,0,.291.328,2.221,2.221,0,0,0,.465.26q.273.116.622.253a8.658,8.658,0,0,1,.834.366,2.86,2.86,0,0,1,.629.424,1.656,1.656,0,0,1,.4.543,1.753,1.753,0,0,1,.14.731,1.725,1.725,0,0,1-.229.9,1.963,1.963,0,0,1-.612.636,2.8,2.8,0,0,1-.882.376,4.354,4.354,0,0,1-1.046.123A3.971,3.971,0,0,1,57.388-.253Zm9.29.417A3.247,3.247,0,0,1,64.2-.817a3.634,3.634,0,0,1-.926-2.6,3.785,3.785,0,0,1,.964-2.755,3.465,3.465,0,0,1,2.6-.991,3.14,3.14,0,0,1,2.444.964,3.822,3.822,0,0,1,.878,2.673,3.761,3.761,0,0,1-.947,2.683A3.317,3.317,0,0,1,66.678.164Zm.082-6.385a2.132,2.132,0,0,0-1.709.735,3.018,3.018,0,0,0-.629,2.027A2.854,2.854,0,0,0,65.058-1.5a2.161,2.161,0,0,0,1.7.718,2.049,2.049,0,0,0,1.671-.7,3.055,3.055,0,0,0,.584-2,3.108,3.108,0,0,0-.584-2.023A2.04,2.04,0,0,0,66.76-6.221ZM77.766,0H76.645V-3.992q0-2.229-1.627-2.229a1.765,1.765,0,0,0-1.391.632,2.344,2.344,0,0,0-.55,1.6V0H71.955V-7h1.121v1.162H73.1a2.526,2.526,0,0,1,2.3-1.326,2.142,2.142,0,0,1,1.757.742,3.3,3.3,0,0,1,.608,2.143Z" transform="translate(648.5 295.5)" fill="#31313a"/>
      <g id="Sort" transform="translate(368.5 193.5)">
        <g id="Group_13118" data-name="Group 13118" transform="translate(-12 -12.035)">
          <rect id="Rectangle_6828" data-name="Rectangle 6828" width="15.953" height="15.953" transform="translate(0 0.024)" fill="none"/>
          <g id="Group_13117" data-name="Group 13117" transform="translate(2.968)">
            <path id="Path_8841" data-name="Path 8841" d="M5.751,6.369a.266.266,0,0,0,.4,0L9.473,3.046,12.8,6.369a.266.266,0,0,0,.4,0l1.2-1.2a.266.266,0,0,0,0-.4L9.673.055a.266.266,0,0,0-.4,0L4.555,4.84a.266.266,0,0,0,0,.4Z" transform="translate(-4.465 0.035)" fill="#24252c"/>
            <path id="Path_8842" data-name="Path 8842" d="M13.2,14.355a.266.266,0,0,0-.4,0L9.473,17.678,6.15,14.355a.266.266,0,0,0-.4,0l-1.2,1.2a.266.266,0,0,0,0,.4l4.719,4.719a.266.266,0,0,0,.4,0l4.719-4.719a.266.266,0,0,0,0-.4Z" transform="translate(-4.465 -4.759)" fill="#24252c"/>
          </g>
        </g>
      </g>
    </g>
    <g id="Success_notifier" data-name="Success notifier" transform="translate(365 -13)">
      <g transform="matrix(1, 0, 0, 1, -365, 13)" filter="url(#White_background)">
        <rect id="White_background-2" data-name="White background" width="400" height="82" rx="4" transform="translate(480 85)" fill="#fff"/>
      </g>
      <path id="Path_101197" data-name="Path 101197" d="M.766-.43v-2.5a4.8,4.8,0,0,0,1.477.855,4.746,4.746,0,0,0,1.609.285,3.569,3.569,0,0,0,.832-.086,1.949,1.949,0,0,0,.594-.238,1.039,1.039,0,0,0,.355-.359.9.9,0,0,0,.117-.449.971.971,0,0,0-.187-.586,2.018,2.018,0,0,0-.512-.477,5.347,5.347,0,0,0-.77-.422q-.445-.2-.961-.414A4.9,4.9,0,0,1,1.363-6.156,2.917,2.917,0,0,1,.719-8.062a3.036,3.036,0,0,1,.352-1.5A2.986,2.986,0,0,1,2.027-10.6a4.291,4.291,0,0,1,1.4-.6,7.206,7.206,0,0,1,1.688-.191,10.15,10.15,0,0,1,1.551.105,6.1,6.1,0,0,1,1.246.324v2.336A3.768,3.768,0,0,0,7.3-8.969a4.859,4.859,0,0,0-.684-.246,5.214,5.214,0,0,0-.7-.145,4.949,4.949,0,0,0-.66-.047,3.443,3.443,0,0,0-.781.082,2,2,0,0,0-.594.23,1.147,1.147,0,0,0-.375.355.843.843,0,0,0-.133.465.888.888,0,0,0,.148.5,1.7,1.7,0,0,0,.422.422,4.477,4.477,0,0,0,.664.391q.391.191.883.395a9.837,9.837,0,0,1,1.207.6,4.291,4.291,0,0,1,.918.715,2.785,2.785,0,0,1,.586.91,3.216,3.216,0,0,1,.2,1.191,3.191,3.191,0,0,1-.355,1.574A2.886,2.886,0,0,1,7.086-.543,4.184,4.184,0,0,1,5.668.023,8.2,8.2,0,0,1,3.961.2,9.492,9.492,0,0,1,2.207.039,5.3,5.3,0,0,1,.766-.43ZM17.609,0H15.148V-1.219h-.039A2.792,2.792,0,0,1,12.664.2Q9.883.2,9.883-3.172V-8h2.461v4.609q0,1.7,1.344,1.7A1.329,1.329,0,0,0,14.75-2.16a1.874,1.874,0,0,0,.4-1.262V-8h2.461ZM25.75-.289A4.881,4.881,0,0,1,23.336.2,4.083,4.083,0,0,1,20.352-.922,3.859,3.859,0,0,1,19.211-3.8,4.251,4.251,0,0,1,20.434-7.02,4.518,4.518,0,0,1,23.7-8.2a4.2,4.2,0,0,1,2.047.375v2.094A2.814,2.814,0,0,0,24.023-6.3a2.275,2.275,0,0,0-1.684.621,2.317,2.317,0,0,0-.621,1.715A2.28,2.28,0,0,0,22.313-2.3a2.182,2.182,0,0,0,1.633.605,3.258,3.258,0,0,0,1.8-.578Zm7.68,0A4.881,4.881,0,0,1,31.016.2,4.083,4.083,0,0,1,28.031-.922,3.859,3.859,0,0,1,26.891-3.8,4.251,4.251,0,0,1,28.113-7.02,4.518,4.518,0,0,1,31.383-8.2a4.2,4.2,0,0,1,2.047.375v2.094A2.814,2.814,0,0,0,31.7-6.3a2.275,2.275,0,0,0-1.684.621A2.317,2.317,0,0,0,29.4-3.969,2.28,2.28,0,0,0,29.992-2.3a2.182,2.182,0,0,0,1.633.605,3.258,3.258,0,0,0,1.8-.578Zm8.8-3.008H37.016q.125,1.742,2.2,1.742a4.286,4.286,0,0,0,2.32-.625V-.4A6.1,6.1,0,0,1,38.648.2,4.058,4.058,0,0,1,35.641-.879a4.058,4.058,0,0,1-1.07-3,4.281,4.281,0,0,1,1.156-3.156A3.852,3.852,0,0,1,38.57-8.2a3.5,3.5,0,0,1,2.707,1.039,4,4,0,0,1,.957,2.82ZM39.945-4.812q0-1.719-1.391-1.719a1.328,1.328,0,0,0-1.027.492A2.234,2.234,0,0,0,37-4.812Zm3.234,4.6v-2a5.256,5.256,0,0,0,1.215.547,4.028,4.028,0,0,0,1.145.18,2.455,2.455,0,0,0,1.035-.18.581.581,0,0,0,.379-.547.506.506,0,0,0-.172-.391,1.6,1.6,0,0,0-.441-.273,5.009,5.009,0,0,0-.59-.211q-.32-.094-.617-.211a5.913,5.913,0,0,1-.84-.387,2.427,2.427,0,0,1-.609-.48,1.889,1.889,0,0,1-.375-.633,2.525,2.525,0,0,1-.129-.852A2.192,2.192,0,0,1,43.473-6.8a2.393,2.393,0,0,1,.781-.793,3.57,3.57,0,0,1,1.117-.453A5.825,5.825,0,0,1,46.68-8.2a7.261,7.261,0,0,1,1.078.082,8.047,8.047,0,0,1,1.078.238v1.906a3.9,3.9,0,0,0-1-.41,4.235,4.235,0,0,0-1.051-.137,2.328,2.328,0,0,0-.457.043,1.505,1.505,0,0,0-.379.125.7.7,0,0,0-.258.211.486.486,0,0,0-.094.293.541.541,0,0,0,.141.375,1.221,1.221,0,0,0,.367.27,3.625,3.625,0,0,0,.5.2q.277.09.551.184a7.161,7.161,0,0,1,.891.375,2.848,2.848,0,0,1,.684.477,1.871,1.871,0,0,1,.438.641,2.277,2.277,0,0,1,.152.875,2.282,2.282,0,0,1-.309,1.215,2.471,2.471,0,0,1-.82.82,3.72,3.72,0,0,1-1.18.461A6.54,6.54,0,0,1,45.625.2,7.149,7.149,0,0,1,43.18-.211Zm7.039,0v-2a5.256,5.256,0,0,0,1.215.547,4.028,4.028,0,0,0,1.145.18,2.455,2.455,0,0,0,1.035-.18.581.581,0,0,0,.379-.547A.506.506,0,0,0,53.82-2.6a1.6,1.6,0,0,0-.441-.273,5.009,5.009,0,0,0-.59-.211q-.32-.094-.617-.211a5.913,5.913,0,0,1-.84-.387,2.427,2.427,0,0,1-.609-.48,1.889,1.889,0,0,1-.375-.633,2.525,2.525,0,0,1-.129-.852A2.192,2.192,0,0,1,50.512-6.8a2.393,2.393,0,0,1,.781-.793,3.57,3.57,0,0,1,1.117-.453A5.825,5.825,0,0,1,53.719-8.2a7.261,7.261,0,0,1,1.078.082,8.047,8.047,0,0,1,1.078.238v1.906a3.9,3.9,0,0,0-1-.41,4.235,4.235,0,0,0-1.051-.137,2.328,2.328,0,0,0-.457.043,1.505,1.505,0,0,0-.379.125.7.7,0,0,0-.258.211.486.486,0,0,0-.094.293.541.541,0,0,0,.141.375,1.221,1.221,0,0,0,.367.27,3.625,3.625,0,0,0,.5.2q.277.09.551.184a7.161,7.161,0,0,1,.891.375,2.848,2.848,0,0,1,.684.477,1.871,1.871,0,0,1,.438.641,2.277,2.277,0,0,1,.152.875,2.282,2.282,0,0,1-.309,1.215,2.471,2.471,0,0,1-.82.82,3.72,3.72,0,0,1-1.18.461A6.54,6.54,0,0,1,52.664.2,7.149,7.149,0,0,1,50.219-.211ZM60.648-11.2l-.3,7.719h-2L58.055-11.2ZM59.367.18A1.452,1.452,0,0,1,58.336-.2a1.209,1.209,0,0,1-.406-.918,1.17,1.17,0,0,1,.41-.922A1.5,1.5,0,0,1,59.367-2.4a1.46,1.46,0,0,1,1.023.363,1.189,1.189,0,0,1,.4.918,1.215,1.215,0,0,1-.395.93A1.448,1.448,0,0,1,59.367.18Z" transform="translate(164 137)" fill="#3d3d3d"/>
      <path id="Path_101198" data-name="Path 101198" d="M7.082-8.764H4.252V0H3.1V-8.764H.28V-9.8h6.8ZM14.28,0H13.159V-4.033q0-2.188-1.627-2.187a1.774,1.774,0,0,0-1.381.632,2.356,2.356,0,0,0-.561,1.624V0H8.47V-10.363H9.591v4.525h.027a2.546,2.546,0,0,1,2.3-1.326q2.365,0,2.365,2.851Zm7.738-3.22H17.076a2.618,2.618,0,0,0,.629,1.8,2.168,2.168,0,0,0,1.654.636,3.439,3.439,0,0,0,2.174-.779V-.506a4.063,4.063,0,0,1-2.44.67A2.959,2.959,0,0,1,16.762-.79a3.9,3.9,0,0,1-.848-2.683,3.828,3.828,0,0,1,.926-2.663,2.97,2.97,0,0,1,2.3-1.029,2.632,2.632,0,0,1,2.126.889,3.705,3.705,0,0,1,.752,2.468ZM20.87-4.17A2.281,2.281,0,0,0,20.4-5.681a1.6,1.6,0,0,0-1.282-.54,1.811,1.811,0,0,0-1.347.567A2.575,2.575,0,0,0,17.09-4.17ZM33.523,0H32.4V-1.189h-.027A2.588,2.588,0,0,1,29.969.164a2.615,2.615,0,0,1-2.109-.94,3.856,3.856,0,0,1-.79-2.56,4.2,4.2,0,0,1,.875-2.782,2.886,2.886,0,0,1,2.331-1.046,2.244,2.244,0,0,1,2.1,1.135H32.4v-4.334h1.121ZM32.4-3.165V-4.2a2,2,0,0,0-.561-1.436,1.88,1.88,0,0,0-1.422-.588,1.936,1.936,0,0,0-1.613.752,3.3,3.3,0,0,0-.588,2.078,2.964,2.964,0,0,0,.564,1.911,1.843,1.843,0,0,0,1.514.7,1.915,1.915,0,0,0,1.521-.677A2.521,2.521,0,0,0,32.4-3.165ZM40.8,0H39.683V-1.094h-.027A2.347,2.347,0,0,1,37.5.164,2.3,2.3,0,0,1,35.865-.39a1.918,1.918,0,0,1-.591-1.47q0-1.962,2.311-2.283l2.1-.294q0-1.784-1.442-1.784a3.446,3.446,0,0,0-2.283.861V-6.508a4.338,4.338,0,0,1,2.379-.656q2.468,0,2.468,2.611ZM39.683-3.541l-1.688.232a2.741,2.741,0,0,0-1.176.386,1.114,1.114,0,0,0-.4.981,1.068,1.068,0,0,0,.366.837,1.413,1.413,0,0,0,.974.325,1.8,1.8,0,0,0,1.377-.584,2.088,2.088,0,0,0,.543-1.48Zm6.48,3.473A2.161,2.161,0,0,1,45.117.15Q43.278.15,43.278-1.9V-6.043h-1.2V-7h1.2V-8.709L44.4-9.071V-7h1.764v.957H44.4V-2.1a1.635,1.635,0,0,0,.239,1,.955.955,0,0,0,.793.3,1.179,1.179,0,0,0,.731-.232ZM52.671,0H51.55V-1.094h-.027A2.347,2.347,0,0,1,49.369.164,2.3,2.3,0,0,1,47.732-.39a1.918,1.918,0,0,1-.591-1.47q0-1.962,2.311-2.283l2.1-.294q0-1.784-1.442-1.784a3.446,3.446,0,0,0-2.283.861V-6.508A4.338,4.338,0,0,1,50.2-7.164q2.468,0,2.468,2.611ZM51.55-3.541l-1.688.232a2.741,2.741,0,0,0-1.176.386,1.114,1.114,0,0,0-.4.981,1.068,1.068,0,0,0,.366.837,1.413,1.413,0,0,0,.974.325,1.8,1.8,0,0,0,1.377-.584,2.088,2.088,0,0,0,.543-1.48ZM62.077-9.379a1.493,1.493,0,0,0-.745-.185q-1.176,0-1.176,1.483V-7H61.8v.957H60.156V0H59.042V-6.043h-1.2V-7h1.2V-8.135a2.358,2.358,0,0,1,.636-1.74,2.146,2.146,0,0,1,1.586-.639,2.2,2.2,0,0,1,.813.123ZM66.65-5.865a1.371,1.371,0,0,0-.848-.226,1.431,1.431,0,0,0-1.2.677,3.129,3.129,0,0,0-.482,1.846V0H63V-7h1.121v1.442h.027a2.444,2.444,0,0,1,.731-1.152,1.668,1.668,0,0,1,1.1-.414,1.83,1.83,0,0,1,.67.1ZM70.793.164a3.247,3.247,0,0,1-2.478-.981,3.633,3.633,0,0,1-.926-2.6,3.785,3.785,0,0,1,.964-2.755,3.465,3.465,0,0,1,2.6-.991A3.14,3.14,0,0,1,73.4-6.2a3.822,3.822,0,0,1,.878,2.673,3.761,3.761,0,0,1-.947,2.683A3.317,3.317,0,0,1,70.793.164Zm.082-6.385a2.132,2.132,0,0,0-1.709.735,3.018,3.018,0,0,0-.629,2.027A2.854,2.854,0,0,0,69.173-1.5a2.161,2.161,0,0,0,1.7.718,2.049,2.049,0,0,0,1.671-.7,3.055,3.055,0,0,0,.584-2,3.108,3.108,0,0,0-.584-2.023A2.04,2.04,0,0,0,70.875-6.221ZM86.01,0H84.889V-4.02A3.032,3.032,0,0,0,84.53-5.7a1.361,1.361,0,0,0-1.207-.52,1.494,1.494,0,0,0-1.22.656,2.511,2.511,0,0,0-.5,1.572V0H80.479V-4.156q0-2.064-1.593-2.064A1.475,1.475,0,0,0,77.67-5.6a2.557,2.557,0,0,0-.479,1.61V0H76.07V-7h1.121v1.107h.027a2.378,2.378,0,0,1,2.174-1.271,2.027,2.027,0,0,1,1.251.4,2.012,2.012,0,0,1,.731,1.049A2.5,2.5,0,0,1,83.7-7.164q2.311,0,2.311,2.851ZM97.535-7l-3.22,8.121q-.861,2.174-2.42,2.174a2.565,2.565,0,0,1-.731-.089v-1a2.078,2.078,0,0,0,.663.123A1.374,1.374,0,0,0,93.1,1.313l.561-1.326L90.925-7h1.244l1.894,5.387q.034.1.144.533h.041q.034-.164.137-.52L96.373-7ZM101.664.164a3.247,3.247,0,0,1-2.478-.981,3.633,3.633,0,0,1-.926-2.6,3.785,3.785,0,0,1,.964-2.755,3.465,3.465,0,0,1,2.6-.991,3.14,3.14,0,0,1,2.444.964,3.822,3.822,0,0,1,.878,2.673A3.761,3.761,0,0,1,104.2-.844,3.317,3.317,0,0,1,101.664.164Zm.082-6.385a2.132,2.132,0,0,0-1.709.735,3.018,3.018,0,0,0-.629,2.027,2.854,2.854,0,0,0,.636,1.962,2.161,2.161,0,0,0,1.7.718,2.049,2.049,0,0,0,1.671-.7,3.055,3.055,0,0,0,.584-2,3.108,3.108,0,0,0-.584-2.023A2.04,2.04,0,0,0,101.746-6.221ZM112.6,0H111.48V-1.107h-.027a2.3,2.3,0,0,1-2.16,1.271q-2.5,0-2.5-2.98V-7h1.114v4.006q0,2.215,1.7,2.215a1.715,1.715,0,0,0,1.35-.6,2.315,2.315,0,0,0,.53-1.583V-7H112.6Zm5.913-5.865a1.371,1.371,0,0,0-.848-.226,1.431,1.431,0,0,0-1.2.677,3.129,3.129,0,0,0-.482,1.846V0h-1.121V-7h1.121v1.442h.027a2.444,2.444,0,0,1,.731-1.152,1.668,1.668,0,0,1,1.1-.414,1.83,1.83,0,0,1,.67.1Zm8.511-3.514a1.493,1.493,0,0,0-.745-.185q-1.176,0-1.176,1.483V-7h1.641v.957H125.1V0H123.99V-6.043h-1.2V-7h1.2V-8.135a2.358,2.358,0,0,1,.636-1.74,2.146,2.146,0,0,1,1.586-.639,2.2,2.2,0,0,1,.813.123Zm1.5.6a.71.71,0,0,1-.513-.205.692.692,0,0,1-.212-.52.7.7,0,0,1,.212-.523.7.7,0,0,1,.513-.208.724.724,0,0,1,.523.208.7.7,0,0,1,.215.523.693.693,0,0,1-.215.513A.718.718,0,0,1,128.522-8.777ZM129.069,0h-1.121V-7h1.121Zm3.391,0h-1.121V-10.363h1.121Zm7.9-3.22h-4.942a2.618,2.618,0,0,0,.629,1.8,2.168,2.168,0,0,0,1.654.636,3.439,3.439,0,0,0,2.174-.779V-.506a4.063,4.063,0,0,1-2.44.67A2.959,2.959,0,0,1,135.1-.79a3.9,3.9,0,0,1-.848-2.683,3.828,3.828,0,0,1,.926-2.663,2.97,2.97,0,0,1,2.3-1.029,2.632,2.632,0,0,1,2.126.889,3.705,3.705,0,0,1,.752,2.468Zm-1.148-.95a2.281,2.281,0,0,0-.468-1.511,1.6,1.6,0,0,0-1.282-.54,1.811,1.811,0,0,0-1.347.567,2.575,2.575,0,0,0-.684,1.483ZM151.7,0h-1.121V-4.033q0-2.188-1.627-2.187a1.774,1.774,0,0,0-1.381.632,2.356,2.356,0,0,0-.561,1.624V0h-1.121V-10.363h1.121v4.525h.027a2.546,2.546,0,0,1,2.3-1.326q2.365,0,2.365,2.851Zm7.123,0H157.7V-1.094h-.027A2.347,2.347,0,0,1,155.518.164,2.3,2.3,0,0,1,153.88-.39a1.918,1.918,0,0,1-.591-1.47q0-1.962,2.311-2.283l2.1-.294q0-1.784-1.442-1.784a3.446,3.446,0,0,0-2.283.861V-6.508a4.338,4.338,0,0,1,2.379-.656q2.468,0,2.468,2.611ZM157.7-3.541l-1.688.232a2.741,2.741,0,0,0-1.176.386,1.114,1.114,0,0,0-.4.981,1.068,1.068,0,0,0,.366.837,1.413,1.413,0,0,0,.974.325,1.8,1.8,0,0,0,1.377-.584,2.088,2.088,0,0,0,.543-1.48Zm2.81,3.288v-1.2a3.318,3.318,0,0,0,2.017.677Q164-.779,164-1.764a.854.854,0,0,0-.126-.475,1.26,1.26,0,0,0-.342-.345,2.631,2.631,0,0,0-.506-.27q-.291-.12-.625-.25a8.056,8.056,0,0,1-.817-.373A2.468,2.468,0,0,1,161-3.9a1.577,1.577,0,0,1-.355-.537,1.9,1.9,0,0,1-.12-.7,1.673,1.673,0,0,1,.226-.872,2,2,0,0,1,.6-.636,2.805,2.805,0,0,1,.858-.386,3.805,3.805,0,0,1,.995-.13,4.016,4.016,0,0,1,1.627.314v1.135a3.171,3.171,0,0,0-1.777-.506,2.078,2.078,0,0,0-.567.072,1.389,1.389,0,0,0-.434.2.932.932,0,0,0-.28.311.819.819,0,0,0-.1.4.959.959,0,0,0,.1.458,1.008,1.008,0,0,0,.291.328,2.221,2.221,0,0,0,.465.26q.273.116.622.253a8.658,8.658,0,0,1,.834.366,2.86,2.86,0,0,1,.629.424,1.656,1.656,0,0,1,.4.543,1.753,1.753,0,0,1,.14.731,1.725,1.725,0,0,1-.229.9,1.963,1.963,0,0,1-.612.636,2.8,2.8,0,0,1-.882.376,4.354,4.354,0,0,1-1.046.123A3.971,3.971,0,0,1,160.508-.253Zm11.348-.759h-.027V0h-1.121V-10.363h1.121V-5.77h.027a2.651,2.651,0,0,1,2.42-1.395,2.566,2.566,0,0,1,2.109.94,3.881,3.881,0,0,1,.762,2.519,4.339,4.339,0,0,1-.854,2.813A2.845,2.845,0,0,1,173.954.164,2.3,2.3,0,0,1,171.855-1.012Zm-.027-2.823v.978a2.081,2.081,0,0,0,.564,1.473,1.873,1.873,0,0,0,1.432.6,1.876,1.876,0,0,0,1.6-.779A3.575,3.575,0,0,0,176-3.726a2.822,2.822,0,0,0-.54-1.832A1.787,1.787,0,0,0,174-6.221a1.986,1.986,0,0,0-1.572.68A2.5,2.5,0,0,0,171.828-3.835Zm12.735.615h-4.942a2.618,2.618,0,0,0,.629,1.8,2.168,2.168,0,0,0,1.654.636,3.439,3.439,0,0,0,2.174-.779V-.506a4.063,4.063,0,0,1-2.44.67,2.959,2.959,0,0,1-2.331-.954,3.9,3.9,0,0,1-.848-2.683,3.828,3.828,0,0,1,.926-2.663,2.97,2.97,0,0,1,2.3-1.029,2.632,2.632,0,0,1,2.126.889,3.705,3.705,0,0,1,.752,2.468Zm-1.148-.95a2.281,2.281,0,0,0-.468-1.511,1.6,1.6,0,0,0-1.282-.54,1.811,1.811,0,0,0-1.347.567,2.575,2.575,0,0,0-.684,1.483Zm8.47.95h-4.942a2.618,2.618,0,0,0,.629,1.8,2.168,2.168,0,0,0,1.654.636,3.439,3.439,0,0,0,2.174-.779V-.506a4.063,4.063,0,0,1-2.44.67,2.959,2.959,0,0,1-2.331-.954,3.9,3.9,0,0,1-.848-2.683,3.828,3.828,0,0,1,.926-2.663,2.97,2.97,0,0,1,2.3-1.029,2.632,2.632,0,0,1,2.126.889,3.705,3.705,0,0,1,.752,2.468Zm-1.148-.95a2.281,2.281,0,0,0-.468-1.511,1.6,1.6,0,0,0-1.282-.54,1.811,1.811,0,0,0-1.347.567,2.575,2.575,0,0,0-.684,1.483ZM199.391,0H198.27V-3.992q0-2.229-1.627-2.229a1.765,1.765,0,0,0-1.391.632,2.344,2.344,0,0,0-.55,1.6V0H193.58V-7H194.7v1.162h.027a2.526,2.526,0,0,1,2.3-1.326,2.142,2.142,0,0,1,1.757.742,3.3,3.3,0,0,1,.608,2.143Zm6.521-8.777a.71.71,0,0,1-.513-.205.692.692,0,0,1-.212-.52.7.7,0,0,1,.212-.523.7.7,0,0,1,.513-.208.724.724,0,0,1,.523.208.7.7,0,0,1,.215.523.693.693,0,0,1-.215.513A.718.718,0,0,1,205.912-8.777ZM206.459,0h-1.121V-7h1.121Zm12.209,0h-1.121V-4.02a3.032,3.032,0,0,0-.359-1.682,1.361,1.361,0,0,0-1.207-.52,1.494,1.494,0,0,0-1.22.656,2.511,2.511,0,0,0-.5,1.572V0h-1.121V-4.156q0-2.064-1.593-2.064a1.475,1.475,0,0,0-1.217.619,2.557,2.557,0,0,0-.479,1.61V0h-1.121V-7h1.121v1.107h.027a2.378,2.378,0,0,1,2.174-1.271,2.027,2.027,0,0,1,1.251.4,2.012,2.012,0,0,1,.731,1.049,2.5,2.5,0,0,1,2.324-1.449q2.311,0,2.311,2.851Zm3.268-1.012h-.027V3.22h-1.121V-7h1.121v1.23h.027a2.651,2.651,0,0,1,2.42-1.395,2.563,2.563,0,0,1,2.112.94,3.893,3.893,0,0,1,.759,2.519,4.339,4.339,0,0,1-.854,2.813A2.845,2.845,0,0,1,224.034.164,2.342,2.342,0,0,1,221.936-1.012Zm-.027-2.823v.978a2.081,2.081,0,0,0,.564,1.473,1.873,1.873,0,0,0,1.432.6,1.876,1.876,0,0,0,1.6-.779,3.575,3.575,0,0,0,.578-2.167,2.822,2.822,0,0,0-.54-1.832,1.787,1.787,0,0,0-1.463-.663,1.986,1.986,0,0,0-1.572.68A2.5,2.5,0,0,0,221.908-3.835Zm10.035,4a3.247,3.247,0,0,1-2.478-.981,3.634,3.634,0,0,1-.926-2.6,3.785,3.785,0,0,1,.964-2.755,3.465,3.465,0,0,1,2.6-.991,3.14,3.14,0,0,1,2.444.964,3.822,3.822,0,0,1,.878,2.673,3.761,3.761,0,0,1-.947,2.683A3.317,3.317,0,0,1,231.943.164Zm.082-6.385a2.132,2.132,0,0,0-1.709.735,3.018,3.018,0,0,0-.629,2.027,2.854,2.854,0,0,0,.636,1.962,2.161,2.161,0,0,0,1.7.718,2.049,2.049,0,0,0,1.671-.7,3.055,3.055,0,0,0,.584-2A3.108,3.108,0,0,0,233.7-5.51,2.04,2.04,0,0,0,232.025-6.221Zm8.846.355a1.371,1.371,0,0,0-.848-.226,1.431,1.431,0,0,0-1.2.677,3.129,3.129,0,0,0-.482,1.846V0h-1.121V-7h1.121v1.442h.027a2.444,2.444,0,0,1,.731-1.152,1.668,1.668,0,0,1,1.1-.414,1.83,1.83,0,0,1,.67.1Zm4.464,5.8a2.162,2.162,0,0,1-1.046.219Q242.45.15,242.45-1.9V-6.043h-1.2V-7h1.2V-8.709l1.121-.362V-7h1.764v.957h-1.764V-2.1a1.635,1.635,0,0,0,.239,1,.955.955,0,0,0,.793.3,1.179,1.179,0,0,0,.731-.232Zm7.123-3.151h-4.942a2.618,2.618,0,0,0,.629,1.8,2.168,2.168,0,0,0,1.654.636,3.439,3.439,0,0,0,2.174-.779V-.506a4.063,4.063,0,0,1-2.44.67A2.959,2.959,0,0,1,247.2-.79a3.9,3.9,0,0,1-.848-2.683,3.828,3.828,0,0,1,.926-2.663,2.97,2.97,0,0,1,2.3-1.029,2.632,2.632,0,0,1,2.126.889,3.705,3.705,0,0,1,.752,2.468Zm-1.148-.95a2.281,2.281,0,0,0-.468-1.511,1.6,1.6,0,0,0-1.282-.54,1.811,1.811,0,0,0-1.347.567,2.575,2.575,0,0,0-.684,1.483ZM260.128,0h-1.121V-1.189h-.027A2.588,2.588,0,0,1,256.573.164a2.615,2.615,0,0,1-2.109-.94,3.856,3.856,0,0,1-.79-2.56,4.2,4.2,0,0,1,.875-2.782,2.886,2.886,0,0,1,2.331-1.046,2.244,2.244,0,0,1,2.1,1.135h.027v-4.334h1.121Zm-1.121-3.165V-4.2a2,2,0,0,0-.561-1.436,1.88,1.88,0,0,0-1.422-.588,1.936,1.936,0,0,0-1.613.752,3.3,3.3,0,0,0-.588,2.078,2.964,2.964,0,0,0,.564,1.911,1.843,1.843,0,0,0,1.514.7,1.915,1.915,0,0,0,1.521-.677A2.521,2.521,0,0,0,259.007-3.165ZM262.787.15a.726.726,0,0,1-.537-.226.743.743,0,0,1-.222-.54.754.754,0,0,1,.222-.543.72.72,0,0,1,.537-.229.739.739,0,0,1,.547.229.748.748,0,0,1,.226.543.737.737,0,0,1-.226.54A.745.745,0,0,1,262.787.15Z" transform="translate(164 161)" fill="#3d3d3d"/>
      <g id="Success_icon" data-name="Success icon">
        <circle id="Ellipse_6" data-name="Ellipse 6" cx="12" cy="12" r="12" transform="translate(125 118)" fill="#5fb53b"/>
        <g id="Group_11924" data-name="Group 11924" transform="translate(129 122.8)">
          <path id="Path_6639" data-name="Path 6639" d="M7.547,15.8a.2.2,0,0,1-.286,0l-4.2-4.2a.2.2,0,0,1,0-.286L4.2,10.17a.2.2,0,0,1,.286,0L7.4,13.083l7.464-7.465a.2.2,0,0,1,.287,0L16.3,6.764a.2.2,0,0,1,0,.286Z" transform="translate(-1.785 -3.308)" fill="#fff"/>
          <rect id="Rectangle_5235" data-name="Rectangle 5235" width="16.2" height="16.2" transform="translate(0)" fill="none"/>
        </g>
      </g>
      <path id="Green_bar" data-name="Green bar" d="M4,0H396a4,4,0,0,1,4,4v6a0,0,0,0,1,0,0H0a0,0,0,0,1,0,0V4A4,4,0,0,1,4,0Z" transform="translate(115 98)" fill="#5fb53b"/>
      <g id="Icon_link" data-name="Icon link" transform="translate(475 112)">
        <rect id="Rectangle_5240" data-name="Rectangle 5240" width="36" height="36" rx="18" fill="none"/>
        <g id="Remove" transform="translate(18 18)">
          <g id="Remove-2" data-name="Remove" transform="translate(-8 -8)">
            <path id="Path_101130" data-name="Path 101130" d="M12.8,11.4a.5.5,0,0,1,0,.7l-.7.7a.5.5,0,0,1-.7,0L8,9.4,4.6,12.8a.5.5,0,0,1-.7,0l-.7-.7a.5.5,0,0,1,0-.7L6.6,8,3.2,4.6a.5.5,0,0,1,0-.7l.7-.7a.5.5,0,0,1,.7,0L8,6.6l3.4-3.4a.5.5,0,0,1,.7,0l.7.7a.5.5,0,0,1,0,.7L9.4,8Z" fill="#303030"/>
            <rect id="Rectangle_10005" data-name="Rectangle 10005" width="16" height="16" fill="none"/>
          </g>
        </g>
      </g>
    </g>
    <g id="Side_nav" data-name="Side nav" transform="translate(0 -6)">
      <path id="Path_5700" data-name="Path 5700" d="M0,0H60V265.5H0V0Z" transform="translate(0 71)" fill="#fff"/>
      <g id="Group_266249" data-name="Group 266249" transform="translate(20 91)">
        <path id="zui-nav-home" d="M20,10.6H17.5v8.142a.833.833,0,0,1-.833.833H12V14.1H8v5.5H3.333a.833.833,0,0,1-.833-.833V10.6H0L10,.6Z" transform="translate(0 -0.6)" fill="#494955"/>
        <g id="Content" transform="translate(10 110)">
          <g id="Content-2" data-name="Content" transform="translate(-10 -10)" clip-path="url(#clip-path)">
            <path id="Path_9732" data-name="Path 9732" d="M17.7,3.4h-3a.4.4,0,0,1-.4-.4V0Z" fill="#494a56"/>
            <path id="Path_9733" data-name="Path 9733" d="M13.8,4.2a.4.4,0,0,1-.4-.4V0H4.9A1.4,1.4,0,0,0,3.4,1.4V18.6A1.4,1.4,0,0,0,4.9,20H16.2a1.4,1.4,0,0,0,1.5-1.4V4.2Zm.8,4.2H6.2a.5.5,0,0,1-.5-.5V7.2a.5.5,0,0,1,.5-.5h8.4a.5.5,0,0,1,.5.5v.7a.5.5,0,0,1-.5.5m0,4.2H6.2a.5.5,0,0,1-.5-.5v-.7a.5.5,0,0,1,.5-.5h8.4a.5.5,0,0,1,.5.5v.7a.5.5,0,0,1-.5.5M12,16.8H6.2a.5.5,0,0,1-.5-.5v-.7a.5.5,0,0,1,.5-.5H12a.5.5,0,0,1,.5.5v.7a.5.5,0,0,1-.5.5" fill="#494a56"/>
          </g>
        </g>
        <g id="Accounts" transform="translate(0 51)">
          <g id="Group_8145" data-name="Group 8145">
            <circle id="Ellipse_6-2" data-name="Ellipse 6" cx="3.167" cy="3.167" r="3.167" transform="translate(6.833)" fill="#2777d3"/>
            <path id="Path_5793" data-name="Path 5793" d="M14.55,11.615v8.75H8.3v-8.75a3.5,3.5,0,0,1,6.25,0Z" transform="translate(-1.383 -1.615)" fill="#2777d3"/>
            <circle id="Ellipse_7" data-name="Ellipse 7" cx="2.833" cy="2.833" r="2.833" transform="translate(14.333 0.583)" fill="#2777d3"/>
            <path id="Path_5794" data-name="Path 5794" d="M22.883,11.237v7.833H17.3V11.237a3.046,3.046,0,0,1,5.583,0Z" transform="translate(-2.883 -1.571)" fill="#2777d3"/>
            <circle id="Ellipse_8" data-name="Ellipse 8" cx="2.833" cy="2.833" r="2.833" transform="translate(0 0.583)" fill="#2777d3"/>
            <path id="Path_5795" data-name="Path 5795" d="M5.667,11.249v7.833H0V11.249a3.167,3.167,0,0,1,1.417-1.5A3.083,3.083,0,0,1,2.75,9.5a3.083,3.083,0,0,1,1.417.25,3.167,3.167,0,0,1,1.5,1.5Z" transform="translate(0 -1.582)" fill="#2777d3"/>
          </g>
        </g>
        <g id="Communications" transform="translate(11 160)">
          <g id="Communications-2" data-name="Communications" transform="translate(-10 -10)" clip-path="url(#clip-path)">
            <path id="Path_10252" data-name="Path 10252" d="M18.6,3H1.4A1.4,1.4,0,0,0,0,4.4V14.9a1.4,1.4,0,0,0,1.4,1.4H18.6A1.4,1.4,0,0,0,20,14.9V4.4A1.4,1.4,0,0,0,18.6,3m.3,3-8.5,5.1H9.7L1.1,6a.6.6,0,0,1-.2-.9.6.6,0,0,1,.9-.2l8,4.8h.4l8-4.8a.6.6,0,0,1,.9.2.6.6,0,0,1-.2.9" fill="#494a56"/>
          </g>
        </g>
        <g id="Group_14117" data-name="Group 14117" transform="translate(0.1 199.5)">
          <path id="Path_5828" data-name="Path 5828" d="M-228.9,139.7h20.286l-8.627,10.959v6.3l-3.431,3.431v-9.727Z" transform="translate(228.9 -139.7)" fill="#494955"/>
        </g>
      </g>
    </g>
    <g id="Top_Bar" data-name="Top Bar">
      <rect id="Rectangle_1" data-name="Rectangle 1" width="900" height="60" fill="#fff"/>
      <path id="Path_5690" data-name="Path 5690" d="M0,0H900V5H0Z" transform="translate(0 60)" fill="#2777d3"/>
      <g id="Group_12278" data-name="Group 12278" transform="translate(692)">
        <rect id="Rectangle_5392" data-name="Rectangle 5392" width="208" height="60" fill="none"/>
        <g id="Group_8927" data-name="Group 8927" transform="translate(72 14)">
          <path id="Path_101220" data-name="Path 101220" d="M-71.771,0h-1.784l-.882-2.5h-3.855L-79.14,0h-1.777l3.671-9.8h1.832Zm-3.1-3.821-1.36-3.91a4.631,4.631,0,0,1-.13-.615h-.027a4,4,0,0,1-.137.615l-1.347,3.91ZM-64.237,0h-1.586V-1.189h-.027A2.53,2.53,0,0,1-68.209.164a2.546,2.546,0,0,1-2.068-.94,3.9,3.9,0,0,1-.776-2.56,4.251,4.251,0,0,1,.858-2.782,2.808,2.808,0,0,1,2.287-1.046,2.19,2.19,0,0,1,2.058,1.135h.027v-4.334h1.586ZM-65.8-3.2v-.916a1.785,1.785,0,0,0-.485-1.265,1.619,1.619,0,0,0-1.237-.52,1.666,1.666,0,0,0-1.4.663A2.955,2.955,0,0,0-69.433-3.4a2.648,2.648,0,0,0,.489,1.685,1.59,1.59,0,0,0,1.316.619,1.646,1.646,0,0,0,1.319-.6A2.253,2.253,0,0,0-65.8-3.2Zm9.01,3.2h-1.538V-1.094h-.027A2.316,2.316,0,0,1-60.484.164,2.239,2.239,0,0,1-62.1-.4a1.961,1.961,0,0,1-.584-1.483q0-1.982,2.283-2.311l2.078-.294q0-1.5-1.422-1.5A3.378,3.378,0,0,0-62-5.12V-6.508a4.919,4.919,0,0,1,2.557-.656,2.326,2.326,0,0,1,2.652,2.611Zm-1.531-3.438-1.47.205a2.33,2.33,0,0,0-1.029.332.969.969,0,0,0-.345.851.932.932,0,0,0,.318.728A1.231,1.231,0,0,0-60-1.039a1.57,1.57,0,0,0,1.2-.509,1.806,1.806,0,0,0,.475-1.282ZM-44.393,0h-1.586V-3.814a3.091,3.091,0,0,0-.311-1.593A1.144,1.144,0,0,0-47.339-5.9a1.265,1.265,0,0,0-1.056.622,2.538,2.538,0,0,0-.434,1.49V0h-1.593V-3.944q0-1.955-1.381-1.955a1.246,1.246,0,0,0-1.056.588,2.592,2.592,0,0,0-.414,1.524V0h-1.586V-7h1.586v1.107h.027a2.425,2.425,0,0,1,2.208-1.271,2.082,2.082,0,0,1,1.268.4,1.992,1.992,0,0,1,.742,1.049A2.5,2.5,0,0,1-46.7-7.164q2.311,0,2.311,2.851Zm13.61-.67a7.014,7.014,0,0,1-3.411.834,4.748,4.748,0,0,1-3.521-1.354,4.856,4.856,0,0,1-1.347-3.582,5.033,5.033,0,0,1,1.473-3.736,5.1,5.1,0,0,1,3.743-1.459,6.97,6.97,0,0,1,2.748.479v1.675a4.73,4.73,0,0,0-2.687-.752A3.421,3.421,0,0,0-36.35-7.533a3.677,3.677,0,0,0-1,2.673A3.852,3.852,0,0,0-36.49-2.2a2.972,2.972,0,0,0,2.338.967,3.7,3.7,0,0,0,1.75-.39V-3.958h-2.064V-5.325h3.685Zm2.734-7.8a.953.953,0,0,1-.667-.253.832.832,0,0,1-.277-.643.854.854,0,0,1,.277-.649.939.939,0,0,1,.667-.26.969.969,0,0,1,.684.26.849.849,0,0,1,.28.649.837.837,0,0,1-.28.632A.962.962,0,0,1-28.048-8.47ZM-27.262,0h-1.586V-7h1.586ZM-23.6,0H-25.19V-10.363H-23.6Zm1.627-.219v-1.47a3.164,3.164,0,0,0,1.962.677q1.436,0,1.436-.848a.668.668,0,0,0-.123-.407,1.175,1.175,0,0,0-.332-.3A2.607,2.607,0,0,0-19.52-2.8q-.284-.1-.632-.232a6.694,6.694,0,0,1-.776-.362,2.344,2.344,0,0,1-.574-.434,1.639,1.639,0,0,1-.345-.55,2.026,2.026,0,0,1-.116-.718,1.659,1.659,0,0,1,.239-.892,2.079,2.079,0,0,1,.643-.649,3.081,3.081,0,0,1,.916-.4,4.194,4.194,0,0,1,1.06-.133,4.817,4.817,0,0,1,1.736.294v1.388a2.927,2.927,0,0,0-1.7-.506,2.214,2.214,0,0,0-.543.062,1.4,1.4,0,0,0-.414.171.841.841,0,0,0-.267.263.628.628,0,0,0-.1.338.723.723,0,0,0,.1.383.869.869,0,0,0,.284.277,2.45,2.45,0,0,0,.451.219q.263.1.6.215a8.839,8.839,0,0,1,.81.376,2.737,2.737,0,0,1,.612.434,1.7,1.7,0,0,1,.39.561A1.9,1.9,0,0,1-17-1.935a1.727,1.727,0,0,1-.246.93,2.051,2.051,0,0,1-.656.656,3.072,3.072,0,0,1-.947.386,4.919,4.919,0,0,1-1.131.126A4.767,4.767,0,0,1-21.971-.219Zm9.577.383a3.47,3.47,0,0,1-2.587-.981,3.544,3.544,0,0,1-.967-2.6A3.687,3.687,0,0,1-14.94-6.173a3.708,3.708,0,0,1,2.717-.991A3.358,3.358,0,0,1-9.666-6.2,3.723,3.723,0,0,1-8.75-3.527,3.669,3.669,0,0,1-9.738-.844,3.548,3.548,0,0,1-12.394.164Zm.075-6.063a1.81,1.81,0,0,0-1.47.649,2.719,2.719,0,0,0-.54,1.791,2.561,2.561,0,0,0,.547,1.733,1.837,1.837,0,0,0,1.463.632,1.743,1.743,0,0,0,1.439-.622,2.754,2.754,0,0,0,.5-1.771,2.8,2.8,0,0,0-.5-1.784A1.734,1.734,0,0,0-12.318-5.9ZM-.9,0H-2.488V-3.944q0-1.962-1.388-1.962a1.515,1.515,0,0,0-1.2.543,2.016,2.016,0,0,0-.472,1.371V0H-7.137V-7h1.593v1.162h.027a2.5,2.5,0,0,1,2.27-1.326A2.114,2.114,0,0,1-1.5-6.422,3.33,3.33,0,0,1-.9-4.279Z" transform="translate(81 15)" fill="#494955"/>
        </g>
        <circle id="Ellipse_402" data-name="Ellipse 402" cx="18" cy="18" r="18" transform="translate(162 13)" fill="#78788c"/>
        <path id="Path_101195" data-name="Path 101195" d="M-129.984-8.4-132.357,0h-1.154l-1.729-6.141A3.844,3.844,0,0,1-135.375-7h-.023a4.34,4.34,0,0,1-.152.844L-137.291,0h-1.143l-2.461-8.4h1.084l1.787,6.445a4.23,4.23,0,0,1,.141.844h.029a4.981,4.981,0,0,1,.182-.844l1.857-6.445h.943l1.781,6.492a4.749,4.749,0,0,1,.141.785h.023a4.707,4.707,0,0,1,.158-.809l1.717-6.469Zm1.611.879a.609.609,0,0,1-.439-.176.593.593,0,0,1-.182-.445.6.6,0,0,1,.182-.448.6.6,0,0,1,.439-.179.621.621,0,0,1,.448.179.6.6,0,0,1,.185.448.594.594,0,0,1-.185.439A.615.615,0,0,1-128.373-7.523ZM-127.9,0h-.961V-6h.961ZM-125,0h-.961V-8.883H-125Zm2.906,0h-.961V-8.883h.961Zm2.438-7.523a.609.609,0,0,1-.439-.176.593.593,0,0,1-.182-.445.6.6,0,0,1,.182-.448.6.6,0,0,1,.439-.179.621.621,0,0,1,.448.179.6.6,0,0,1,.185.448.594.594,0,0,1-.185.439A.615.615,0,0,1-119.654-7.523ZM-119.186,0h-.961V-6h.961Zm1.582-.217V-1.248a2.844,2.844,0,0,0,1.729.58q1.266,0,1.266-.844a.732.732,0,0,0-.108-.407,1.08,1.08,0,0,0-.293-.3,2.255,2.255,0,0,0-.434-.231q-.249-.1-.536-.214a6.9,6.9,0,0,1-.7-.319,2.115,2.115,0,0,1-.5-.363,1.352,1.352,0,0,1-.3-.46,1.627,1.627,0,0,1-.1-.6,1.434,1.434,0,0,1,.193-.747,1.715,1.715,0,0,1,.516-.545,2.4,2.4,0,0,1,.735-.331,3.262,3.262,0,0,1,.853-.111,3.442,3.442,0,0,1,1.395.27V-4.9a2.718,2.718,0,0,0-1.523-.434,1.781,1.781,0,0,0-.486.062,1.191,1.191,0,0,0-.372.173.8.8,0,0,0-.24.267.7.7,0,0,0-.085.343.822.822,0,0,0,.085.393.864.864,0,0,0,.249.281,1.9,1.9,0,0,0,.4.223q.234.1.533.217a7.421,7.421,0,0,1,.715.313,2.452,2.452,0,0,1,.539.363,1.42,1.42,0,0,1,.343.466,1.5,1.5,0,0,1,.12.627,1.478,1.478,0,0,1-.2.773,1.682,1.682,0,0,1-.524.545,2.4,2.4,0,0,1-.756.322,3.732,3.732,0,0,1-.9.105A3.4,3.4,0,0,1-117.6-.217Zm9.855.217h-.984V-8.4h.984Zm7.061,0h-.961V-3.422q0-1.91-1.395-1.91a1.513,1.513,0,0,0-1.192.542,2.009,2.009,0,0,0-.472,1.368V0h-.961V-6h.961v1h.023a2.166,2.166,0,0,1,1.969-1.137,1.836,1.836,0,0,1,1.506.636,2.832,2.832,0,0,1,.521,1.837Zm1.447-.217V-1.248a2.844,2.844,0,0,0,1.729.58q1.266,0,1.266-.844a.732.732,0,0,0-.108-.407,1.08,1.08,0,0,0-.293-.3,2.255,2.255,0,0,0-.434-.231q-.249-.1-.536-.214a6.9,6.9,0,0,1-.7-.319,2.115,2.115,0,0,1-.5-.363,1.352,1.352,0,0,1-.3-.46,1.627,1.627,0,0,1-.1-.6,1.434,1.434,0,0,1,.193-.747A1.715,1.715,0,0,1-98.52-5.7a2.4,2.4,0,0,1,.735-.331,3.262,3.262,0,0,1,.853-.111,3.442,3.442,0,0,1,1.395.27V-4.9a2.718,2.718,0,0,0-1.523-.434,1.781,1.781,0,0,0-.486.062,1.191,1.191,0,0,0-.372.173.8.8,0,0,0-.24.267.7.7,0,0,0-.085.343.822.822,0,0,0,.085.393.864.864,0,0,0,.249.281,1.9,1.9,0,0,0,.4.223q.234.1.533.217a7.421,7.421,0,0,1,.715.313,2.452,2.452,0,0,1,.539.363,1.42,1.42,0,0,1,.343.466,1.5,1.5,0,0,1,.12.627,1.478,1.478,0,0,1-.2.773,1.682,1.682,0,0,1-.524.545,2.4,2.4,0,0,1-.756.322,3.732,3.732,0,0,1-.9.105A3.4,3.4,0,0,1-99.24-.217ZM-88.934,0h-.961V-.949h-.023A1.973,1.973,0,0,1-91.77.141q-2.145,0-2.145-2.555V-6h.955v3.434q0,1.9,1.453,1.9a1.47,1.47,0,0,0,1.157-.519,1.984,1.984,0,0,0,.454-1.356V-6h.961Zm5.068-5.027a1.175,1.175,0,0,0-.727-.193,1.226,1.226,0,0,0-1.028.58,2.682,2.682,0,0,0-.413,1.582V0h-.961V-6h.961v1.236h.023a2.1,2.1,0,0,1,.627-.987,1.43,1.43,0,0,1,.943-.354,1.569,1.569,0,0,1,.574.082ZM-78.527,0h-.961V-.937h-.023A2.012,2.012,0,0,1-81.357.141a1.973,1.973,0,0,1-1.4-.475,1.644,1.644,0,0,1-.507-1.26q0-1.682,1.98-1.957l1.8-.252q0-1.529-1.236-1.529a2.954,2.954,0,0,0-1.957.738v-.984a3.718,3.718,0,0,1,2.039-.562q2.115,0,2.115,2.238Zm-.961-3.035-1.447.2a2.35,2.35,0,0,0-1.008.331.955.955,0,0,0-.34.841.916.916,0,0,0,.313.718,1.211,1.211,0,0,0,.835.278,1.542,1.542,0,0,0,1.181-.5,1.79,1.79,0,0,0,.466-1.269ZM-71.736,0H-72.7V-3.422q0-1.91-1.395-1.91a1.513,1.513,0,0,0-1.192.542,2.009,2.009,0,0,0-.472,1.368V0h-.961V-6h.961v1h.023a2.166,2.166,0,0,1,1.969-1.137,1.836,1.836,0,0,1,1.506.636,2.832,2.832,0,0,1,.521,1.837Zm5.9-.275a3.122,3.122,0,0,1-1.641.416,2.716,2.716,0,0,1-2.071-.835,3.026,3.026,0,0,1-.788-2.165,3.326,3.326,0,0,1,.85-2.382,2.972,2.972,0,0,1,2.268-.9,3.156,3.156,0,0,1,1.395.293v.984a2.443,2.443,0,0,0-1.43-.469,1.932,1.932,0,0,0-1.509.659,2.5,2.5,0,0,0-.589,1.731A2.382,2.382,0,0,0-68.8-1.277a1.909,1.909,0,0,0,1.485.609,2.408,2.408,0,0,0,1.477-.521Zm6.275-2.484H-63.8a2.244,2.244,0,0,0,.539,1.547,1.858,1.858,0,0,0,1.418.545,2.948,2.948,0,0,0,1.863-.668v.9a3.482,3.482,0,0,1-2.092.574,2.536,2.536,0,0,1-2-.817,3.346,3.346,0,0,1-.727-2.3A3.281,3.281,0,0,1-64-5.259a2.546,2.546,0,0,1,1.972-.882,2.256,2.256,0,0,1,1.822.762,3.176,3.176,0,0,1,.645,2.115Zm-.984-.814a1.955,1.955,0,0,0-.4-1.295,1.368,1.368,0,0,0-1.1-.463,1.552,1.552,0,0,0-1.154.486,2.207,2.207,0,0,0-.586,1.271Zm8.795.609h-3.2v-.756h3.2ZM-39.832,0h-1.207l-4.324-6.7a2.8,2.8,0,0,1-.27-.527h-.035a8.65,8.65,0,0,1,.047,1.154V0h-.984V-8.4h1.277l4.207,6.592q.264.41.34.563h.023a8.89,8.89,0,0,1-.059-1.236V-8.4h.984Zm6.369,0h-.961V-.937h-.023A2.012,2.012,0,0,1-36.293.141a1.973,1.973,0,0,1-1.4-.475,1.644,1.644,0,0,1-.507-1.26q0-1.682,1.98-1.957l1.8-.252q0-1.529-1.236-1.529a2.954,2.954,0,0,0-1.957.738v-.984a3.718,3.718,0,0,1,2.039-.562q2.115,0,2.115,2.238Zm-.961-3.035-1.447.2a2.35,2.35,0,0,0-1.008.331.955.955,0,0,0-.34.841.916.916,0,0,0,.313.718,1.211,1.211,0,0,0,.835.278,1.542,1.542,0,0,0,1.181-.5,1.79,1.79,0,0,0,.466-1.269Zm2.408,2.818V-1.248a2.844,2.844,0,0,0,1.729.58q1.266,0,1.266-.844a.732.732,0,0,0-.108-.407,1.08,1.08,0,0,0-.293-.3,2.255,2.255,0,0,0-.434-.231q-.249-.1-.536-.214a6.9,6.9,0,0,1-.7-.319,2.115,2.115,0,0,1-.5-.363,1.352,1.352,0,0,1-.3-.46,1.627,1.627,0,0,1-.1-.6,1.434,1.434,0,0,1,.193-.747,1.715,1.715,0,0,1,.516-.545,2.4,2.4,0,0,1,.735-.331,3.262,3.262,0,0,1,.853-.111,3.442,3.442,0,0,1,1.395.27V-4.9a2.718,2.718,0,0,0-1.523-.434,1.781,1.781,0,0,0-.486.062,1.191,1.191,0,0,0-.372.173.8.8,0,0,0-.24.267.7.7,0,0,0-.085.343.822.822,0,0,0,.085.393.864.864,0,0,0,.249.281,1.9,1.9,0,0,0,.4.223q.234.1.533.217a7.421,7.421,0,0,1,.715.313A2.452,2.452,0,0,1-28.5-2.7a1.42,1.42,0,0,1,.343.466,1.5,1.5,0,0,1,.12.627,1.478,1.478,0,0,1-.2.773,1.682,1.682,0,0,1-.524.545,2.4,2.4,0,0,1-.756.322,3.732,3.732,0,0,1-.9.105A3.4,3.4,0,0,1-32.016-.217ZM-21.58,0h-.961V-3.457q0-1.875-1.395-1.875a1.52,1.52,0,0,0-1.184.542A2.02,2.02,0,0,0-25.6-3.4V0h-.961V-8.883h.961V-5h.023a2.182,2.182,0,0,1,1.969-1.137q2.027,0,2.027,2.443Zm6.527-6-2.391,6h-.943L-20.66-6h1.055l1.523,4.359a3.913,3.913,0,0,1,.211.838h.023a3.962,3.962,0,0,1,.188-.814L-16.066-6Zm1.523-1.523a.609.609,0,0,1-.439-.176.593.593,0,0,1-.182-.445.6.6,0,0,1,.182-.448.6.6,0,0,1,.439-.179.621.621,0,0,1,.448.179.6.6,0,0,1,.185.448.594.594,0,0,1-.185.439A.615.615,0,0,1-13.529-7.523ZM-13.061,0h-.961V-6h.961Zm2.906,0h-.961V-8.883h.961Zm2.906,0h-.961V-8.883h.961ZM-.48-2.76H-4.717a2.244,2.244,0,0,0,.539,1.547A1.858,1.858,0,0,0-2.76-.668,2.948,2.948,0,0,0-.9-1.336v.9A3.482,3.482,0,0,1-2.988.141a2.536,2.536,0,0,1-2-.817,3.346,3.346,0,0,1-.727-2.3,3.281,3.281,0,0,1,.794-2.282,2.546,2.546,0,0,1,1.972-.882,2.256,2.256,0,0,1,1.822.762A3.176,3.176,0,0,1-.48-3.264Zm-.984-.814a1.955,1.955,0,0,0-.4-1.295,1.368,1.368,0,0,0-1.1-.463,1.552,1.552,0,0,0-1.154.486,2.207,2.207,0,0,0-.586,1.271Z" transform="translate(153 45)" fill="#494955"/>
        <path id="Path_101196" data-name="Path 101196" d="M9.263,0H7.479L6.6-2.5H2.741L1.894,0H.116L3.787-9.8H5.619Zm-3.1-3.821-1.36-3.91a4.631,4.631,0,0,1-.13-.615H4.648a4,4,0,0,1-.137.615L3.165-3.821ZM18.095-.67a7.014,7.014,0,0,1-3.411.834,4.748,4.748,0,0,1-3.521-1.354A4.856,4.856,0,0,1,9.816-4.771,5.033,5.033,0,0,1,11.29-8.507a5.1,5.1,0,0,1,3.743-1.459,6.97,6.97,0,0,1,2.748.479v1.675a4.73,4.73,0,0,0-2.687-.752,3.421,3.421,0,0,0-2.567,1.032,3.677,3.677,0,0,0-1,2.673A3.852,3.852,0,0,0,12.387-2.2a2.972,2.972,0,0,0,2.338.967,3.7,3.7,0,0,0,1.75-.39V-3.958H14.41V-5.325h3.685Z" transform="translate(171 36)" fill="#fff"/>
      </g>
      <g id="Group_12989" data-name="Group 12989">
        <rect id="Rectangle_6530" data-name="Rectangle 6530" width="198" height="60" fill="none"/>
        <g id="Group_72" data-name="Group 72" transform="translate(57 20)">
          <g id="Group_6" data-name="Group 6">
            <path id="Path_467" data-name="Path 467" d="M440.678,0l-6.233,13.788L428.193,0H425.7l8.745,19.322L443.19,0Z" transform="translate(-345.294)" fill="#8b8d8e"/>
            <path id="Path_468" data-name="Path 468" d="M343.6,19.322h2.512L337.39,0h-.963L327.7,19.322h2.512l1.908-4.269H341.7ZM333.14,12.787,336.9,4.5l3.759,8.292Z" transform="translate(-265.804)" fill="#8b8d8e"/>
            <path id="Path_469" data-name="Path 469" d="M543.685,10.426h6.951V8.16h-6.951V2.267h7.555L552.45,0H541.4V19.322h9.859L552.468,17h-8.783Z" transform="translate(-439.14)" fill="#8b8d8e"/>
            <path id="Path_470" data-name="Path 470" d="M186.078,0l-6.2,13.788L174.348,1.681l-5.5,12.107L162.864,0h-3.721L155.8,7.385l1.247,2.758,3.834-8.462,7.971,17.641,5.5-12.126,5.534,12.126L188.571,0Z" transform="translate(-126.372)" fill="#8b8d8e"/>
            <path id="Path_471" data-name="Path 471" d="M4.193,17.018,15.262,0H1.851L.812,2.267H11.068L0,19.285H15.243l1.02-2.267Z" fill="#8b8d8e"/>
          </g>
          <path id="Path_472" data-name="Path 472" d="M103.468,0H98.5l5.591,12.409L98.5,24.8h4.968L109.1,12.409Z" transform="translate(-79.895)" fill="#5fb53b"/>
        </g>
        <g id="Group_12812" data-name="Group 12812" transform="translate(10 12)">
          <g id="Icon_Link_-_Hover" data-name="Icon Link - Hover">
            <rect id="Rectangle_5756" data-name="Rectangle 5756" width="36" height="36" rx="18" fill="none"/>
          </g>
          <path id="Path_8220" data-name="Path 8220" d="M172,94.5v3a.472.472,0,0,1-.5.5h-3a.472.472,0,0,1-.5-.5v-3a.472.472,0,0,1,.5-.5h3A.472.472,0,0,1,172,94.5Zm5.5-.5h-3a.472.472,0,0,0-.5.5v3a.472.472,0,0,0,.5.5h3a.472.472,0,0,0,.5-.5v-3A.472.472,0,0,0,177.5,94Zm-6,12h-3a.472.472,0,0,0-.5.5v3a.472.472,0,0,0,.5.5h3a.472.472,0,0,0,.5-.5v-3A.472.472,0,0,0,171.5,106Zm12-12h-3a.472.472,0,0,0-.5.5v3a.472.472,0,0,0,.5.5h3a.472.472,0,0,0,.5-.5v-3A.472.472,0,0,0,183.5,94Zm-12,6h-3a.472.472,0,0,0-.5.5v3a.472.472,0,0,0,.5.5h3a.472.472,0,0,0,.5-.5v-3A.472.472,0,0,0,171.5,100Zm6,0h-3a.472.472,0,0,0-.5.5v3a.472.472,0,0,0,.5.5h3a.472.472,0,0,0,.5-.5v-3A.472.472,0,0,0,177.5,100Zm0,6h-3a.472.472,0,0,0-.5.5v3a.472.472,0,0,0,.5.5h3a.472.472,0,0,0,.5-.5v-3A.472.472,0,0,0,177.5,106Zm6-6h-3a.472.472,0,0,0-.5.5v3a.472.472,0,0,0,.5.5h3a.472.472,0,0,0,.5-.5v-3A.472.472,0,0,0,183.5,100Zm0,6h-3a.472.472,0,0,0-.5.5v3a.472.472,0,0,0,.5.5h3a.472.472,0,0,0,.5-.5v-3A.472.472,0,0,0,183.5,106Z" transform="translate(-158 -84)" fill="#78788c"/>
        </g>
      </g>
      <g id="Group_70" data-name="Group 70" transform="translate(249.879 9)">
        <g id="Rectangle_2" data-name="Rectangle 2" fill="#fff" stroke="#dbdbdb" stroke-width="1">
          <rect width="390" height="42" rx="2" stroke="none"/>
          <rect x="0.5" y="0.5" width="389" height="41" rx="1.5" fill="none"/>
        </g>
        <path id="Path_101194" data-name="Path 101194" d="M7.014-2.659A2.451,2.451,0,0,1,6.057-.6a4.15,4.15,0,0,1-2.6.738A6.506,6.506,0,0,1,.725-.321V-1.442a7.2,7.2,0,0,0,1.34.41A7.049,7.049,0,0,0,3.5-.882a2.9,2.9,0,0,0,1.75-.441A1.447,1.447,0,0,0,5.838-2.55,1.575,1.575,0,0,0,5.629-3.4a1.937,1.937,0,0,0-.7-.612,9.755,9.755,0,0,0-1.487-.636A4.746,4.746,0,0,1,1.453-5.831a2.611,2.611,0,0,1-.6-1.784,2.219,2.219,0,0,1,.868-1.839,3.608,3.608,0,0,1,2.3-.684,6.769,6.769,0,0,1,2.741.547L6.4-8.579A6.2,6.2,0,0,0,3.992-9.1a2.329,2.329,0,0,0-1.442.4,1.307,1.307,0,0,0-.52,1.1,1.687,1.687,0,0,0,.191.851,1.8,1.8,0,0,0,.646.608,8.026,8.026,0,0,0,1.391.612,5.507,5.507,0,0,1,2.164,1.2A2.366,2.366,0,0,1,7.014-2.659Zm5.038,2.8A3.442,3.442,0,0,1,9.43-.875a3.917,3.917,0,0,1-.96-2.81,4.344,4.344,0,0,1,.892-2.878,2.963,2.963,0,0,1,2.4-1.066,2.825,2.825,0,0,1,2.229.926,3.55,3.55,0,0,1,.82,2.444v.718H9.646a2.97,2.97,0,0,0,.667,2,2.305,2.305,0,0,0,1.781.684,6.035,6.035,0,0,0,2.393-.506V-.349a6.005,6.005,0,0,1-1.138.373A6.4,6.4,0,0,1,12.052.137Zm-.308-6.815a1.853,1.853,0,0,0-1.439.588,2.71,2.71,0,0,0-.632,1.627H13.59a2.5,2.5,0,0,0-.479-1.644A1.684,1.684,0,0,0,11.744-6.679ZM21.349,0l-.226-1.066h-.055a3.153,3.153,0,0,1-1.118.954,3.407,3.407,0,0,1-1.391.25,2.5,2.5,0,0,1-1.747-.574,2.094,2.094,0,0,1-.632-1.634q0-2.27,3.63-2.379l1.271-.041v-.465a1.9,1.9,0,0,0-.379-1.3,1.56,1.56,0,0,0-1.213-.42A4.944,4.944,0,0,0,17.37-6.1l-.349-.868a5.332,5.332,0,0,1,1.213-.472,5.255,5.255,0,0,1,1.323-.171,2.854,2.854,0,0,1,1.986.595,2.482,2.482,0,0,1,.646,1.907V0ZM18.785-.8a2.3,2.3,0,0,0,1.665-.581,2.15,2.15,0,0,0,.6-1.627v-.677l-1.135.048a4.128,4.128,0,0,0-1.952.42,1.268,1.268,0,0,0-.6,1.159,1.169,1.169,0,0,0,.373.937A1.546,1.546,0,0,0,18.785-.8Zm9.16-6.829a4.44,4.44,0,0,1,.9.082l-.157,1.053a3.865,3.865,0,0,0-.82-.1,2,2,0,0,0-1.555.738,2.692,2.692,0,0,0-.646,1.839V0H24.527V-7.492h.937l.13,1.388h.055a3.293,3.293,0,0,1,1-1.128A2.262,2.262,0,0,1,27.945-7.629ZM33.236.137a3.2,3.2,0,0,1-2.519-1A4.118,4.118,0,0,1,29.825-3.7,4.247,4.247,0,0,1,30.731-6.6a3.261,3.261,0,0,1,2.581-1.025,5.121,5.121,0,0,1,1.08.116,3.558,3.558,0,0,1,.848.273l-.349.964a5.336,5.336,0,0,0-.82-.25,3.663,3.663,0,0,0-.786-.1Q31-6.624,31-3.712a3.468,3.468,0,0,0,.557,2.119,1.938,1.938,0,0,0,1.651.738,5.048,5.048,0,0,0,1.921-.4v1A4.094,4.094,0,0,1,33.236.137ZM42.034,0V-4.847a1.955,1.955,0,0,0-.417-1.367,1.7,1.7,0,0,0-1.306-.451,2.139,2.139,0,0,0-1.726.643,3.255,3.255,0,0,0-.543,2.105V0H36.907V-10.637h1.135v3.22a7.016,7.016,0,0,1-.055.964h.068a2.314,2.314,0,0,1,.954-.851,3.1,3.1,0,0,1,1.412-.311,2.891,2.891,0,0,1,2.061.653,2.749,2.749,0,0,1,.687,2.075V0ZM53.587-9.1a3.268,3.268,0,0,0-2.6,1.1,4.426,4.426,0,0,0-.954,3,4.514,4.514,0,0,0,.919,3.032A3.268,3.268,0,0,0,53.573-.9a8.951,8.951,0,0,0,2.386-.376V-.253A7.347,7.347,0,0,1,53.4.137,4.337,4.337,0,0,1,49.988-1.2a5.518,5.518,0,0,1-1.2-3.808,6.01,6.01,0,0,1,.578-2.707,4.147,4.147,0,0,1,1.668-1.791,5.049,5.049,0,0,1,2.567-.629,6.194,6.194,0,0,1,2.748.574l-.492,1A5.3,5.3,0,0,0,53.587-9.1ZM64.436-3.753a4.133,4.133,0,0,1-.923,2.861A3.25,3.25,0,0,1,60.963.137a3.377,3.377,0,0,1-1.784-.472,3.113,3.113,0,0,1-1.2-1.354,4.717,4.717,0,0,1-.424-2.064,4.127,4.127,0,0,1,.916-2.854,3.24,3.24,0,0,1,2.543-1.022,3.169,3.169,0,0,1,2.5,1.046A4.115,4.115,0,0,1,64.436-3.753Zm-5.708,0A3.556,3.556,0,0,0,59.3-1.565a1.993,1.993,0,0,0,1.688.752,2.006,2.006,0,0,0,1.692-.749,3.538,3.538,0,0,0,.578-2.191,3.481,3.481,0,0,0-.578-2.17,2.03,2.03,0,0,0-1.706-.742,2,2,0,0,0-1.682.731A3.52,3.52,0,0,0,58.728-3.753ZM71.552,0V-4.847a1.955,1.955,0,0,0-.417-1.367,1.7,1.7,0,0,0-1.306-.451,2.153,2.153,0,0,0-1.723.636,3.21,3.21,0,0,0-.547,2.1V0H66.425V-7.492h.923l.185,1.025h.055a2.317,2.317,0,0,1,.978-.858,3.176,3.176,0,0,1,1.4-.3A2.846,2.846,0,0,1,72-6.976a2.778,2.778,0,0,1,.684,2.088V0Zm5.886-.8a3.707,3.707,0,0,0,.581-.044,3.761,3.761,0,0,0,.444-.092v.868a2.074,2.074,0,0,1-.543.147,4.081,4.081,0,0,1-.646.058Q75.1.137,75.1-2.153V-6.61H74.026v-.547L75.1-7.629l.479-1.6h.656v1.736h2.174v.882H76.234V-2.2a1.517,1.517,0,0,0,.321,1.039A1.118,1.118,0,0,0,77.438-.8Zm5.688.937A3.442,3.442,0,0,1,80.5-.875a3.917,3.917,0,0,1-.96-2.81,4.344,4.344,0,0,1,.892-2.878,2.963,2.963,0,0,1,2.4-1.066A2.825,2.825,0,0,1,85.06-6.7a3.55,3.55,0,0,1,.82,2.444v.718H80.719a2.97,2.97,0,0,0,.667,2,2.305,2.305,0,0,0,1.781.684,6.035,6.035,0,0,0,2.393-.506V-.349A6.005,6.005,0,0,1,84.42.024,6.4,6.4,0,0,1,83.125.137Zm-.308-6.815a1.853,1.853,0,0,0-1.439.588,2.71,2.71,0,0,0-.632,1.627h3.917a2.5,2.5,0,0,0-.479-1.644A1.684,1.684,0,0,0,82.817-6.679ZM92.941,0V-4.847a1.955,1.955,0,0,0-.417-1.367,1.7,1.7,0,0,0-1.306-.451,2.153,2.153,0,0,0-1.723.636,3.21,3.21,0,0,0-.547,2.1V0H87.814V-7.492h.923l.185,1.025h.055a2.317,2.317,0,0,1,.978-.858,3.176,3.176,0,0,1,1.4-.3,2.846,2.846,0,0,1,2.037.653,2.778,2.778,0,0,1,.684,2.088V0Zm5.886-.8a3.707,3.707,0,0,0,.581-.044,3.761,3.761,0,0,0,.444-.092v.868a2.074,2.074,0,0,1-.543.147,4.081,4.081,0,0,1-.646.058q-2.174,0-2.174-2.29V-6.61H95.416v-.547l1.073-.472.479-1.6h.656v1.736H99.8v.882H97.624V-2.2a1.517,1.517,0,0,0,.321,1.039A1.118,1.118,0,0,0,98.827-.8Z" transform="translate(14 27)" fill="#c6c6c6"/>
        <path id="Rectangle_3" data-name="Rectangle 3" d="M0,0H158a1,1,0,0,1,1,1V39a1,1,0,0,1-1,1H0a0,0,0,0,1,0,0V0A0,0,0,0,1,0,0Z" transform="translate(230 1)" fill="#fafafa"/>
        <path id="Path_101193" data-name="Path 101193" d="M2.338,0H1.2V-7.492H2.338ZM1.107-9.522a.754.754,0,0,1,.191-.571.669.669,0,0,1,.479-.181.669.669,0,0,1,.472.185.74.74,0,0,1,.2.567.752.752,0,0,1-.2.571.662.662,0,0,1-.472.188A.655.655,0,0,1,1.3-8.952.768.768,0,0,1,1.107-9.522ZM9.871,0V-4.847a1.955,1.955,0,0,0-.417-1.367,1.7,1.7,0,0,0-1.306-.451,2.153,2.153,0,0,0-1.723.636,3.21,3.21,0,0,0-.547,2.1V0H4.744V-7.492h.923l.185,1.025h.055a2.317,2.317,0,0,1,.978-.858,3.176,3.176,0,0,1,1.4-.3,2.846,2.846,0,0,1,2.037.653,2.778,2.778,0,0,1,.684,2.088V0Zm10.1.137a3.2,3.2,0,0,1-2.519-1A4.118,4.118,0,0,1,16.557-3.7,4.247,4.247,0,0,1,17.462-6.6a3.261,3.261,0,0,1,2.581-1.025,5.121,5.121,0,0,1,1.08.116,3.558,3.558,0,0,1,.848.273l-.349.964a5.336,5.336,0,0,0-.82-.25,3.663,3.663,0,0,0-.786-.1q-2.283,0-2.283,2.912a3.468,3.468,0,0,0,.557,2.119,1.938,1.938,0,0,0,1.651.738,5.048,5.048,0,0,0,1.921-.4v1A4.094,4.094,0,0,1,19.968.137Zm10.138-3.89a4.133,4.133,0,0,1-.923,2.861A3.25,3.25,0,0,1,26.633.137a3.377,3.377,0,0,1-1.784-.472,3.113,3.113,0,0,1-1.2-1.354,4.717,4.717,0,0,1-.424-2.064,4.127,4.127,0,0,1,.916-2.854,3.24,3.24,0,0,1,2.543-1.022,3.169,3.169,0,0,1,2.5,1.046A4.115,4.115,0,0,1,30.105-3.753Zm-5.708,0a3.556,3.556,0,0,0,.574,2.188,1.993,1.993,0,0,0,1.688.752,2.006,2.006,0,0,0,1.692-.749,3.538,3.538,0,0,0,.578-2.191,3.481,3.481,0,0,0-.578-2.17,2.03,2.03,0,0,0-1.706-.742,2,2,0,0,0-1.682.731A3.52,3.52,0,0,0,24.4-3.753ZM37.222,0V-4.847A1.955,1.955,0,0,0,36.8-6.214,1.7,1.7,0,0,0,35.5-6.665a2.153,2.153,0,0,0-1.723.636,3.21,3.21,0,0,0-.547,2.1V0H32.095V-7.492h.923L33.2-6.467h.055a2.317,2.317,0,0,1,.978-.858,3.176,3.176,0,0,1,1.4-.3,2.846,2.846,0,0,1,2.037.653,2.778,2.778,0,0,1,.684,2.088V0Zm5.886-.8a3.707,3.707,0,0,0,.581-.044,3.761,3.761,0,0,0,.444-.092v.868a2.074,2.074,0,0,1-.543.147,4.081,4.081,0,0,1-.646.058q-2.174,0-2.174-2.29V-6.61H39.7v-.547l1.073-.472.479-1.6H41.9v1.736h2.174v.882H41.9V-2.2a1.517,1.517,0,0,0,.321,1.039A1.118,1.118,0,0,0,43.107-.8Zm5.688.937A3.442,3.442,0,0,1,46.173-.875a3.917,3.917,0,0,1-.96-2.81A4.344,4.344,0,0,1,46.1-6.562a2.963,2.963,0,0,1,2.4-1.066,2.825,2.825,0,0,1,2.229.926,3.55,3.55,0,0,1,.82,2.444v.718H46.389a2.97,2.97,0,0,0,.667,2,2.305,2.305,0,0,0,1.781.684,6.035,6.035,0,0,0,2.393-.506V-.349A6.005,6.005,0,0,1,50.09.024,6.4,6.4,0,0,1,48.795.137Zm-.308-6.815a1.853,1.853,0,0,0-1.439.588,2.71,2.71,0,0,0-.632,1.627h3.917a2.5,2.5,0,0,0-.479-1.644A1.684,1.684,0,0,0,48.487-6.679ZM58.611,0V-4.847a1.955,1.955,0,0,0-.417-1.367,1.7,1.7,0,0,0-1.306-.451,2.153,2.153,0,0,0-1.723.636,3.21,3.21,0,0,0-.547,2.1V0H53.484V-7.492h.923l.185,1.025h.055a2.317,2.317,0,0,1,.978-.858,3.176,3.176,0,0,1,1.4-.3,2.846,2.846,0,0,1,2.037.653,2.778,2.778,0,0,1,.684,2.088V0ZM64.5-.8a3.707,3.707,0,0,0,.581-.044,3.761,3.761,0,0,0,.444-.092v.868a2.074,2.074,0,0,1-.543.147,4.081,4.081,0,0,1-.646.058q-2.174,0-2.174-2.29V-6.61H61.086v-.547l1.073-.472.479-1.6h.656v1.736h2.174v.882H63.294V-2.2a1.517,1.517,0,0,0,.321,1.039A1.118,1.118,0,0,0,64.5-.8Z" transform="translate(241 27)" fill="#5c5c5c"/>
        <rect id="Rectangle_4" data-name="Rectangle 4" width="1" height="40" transform="translate(229 1)" fill="#ebebeb"/>
        <rect id="Rectangle_5" data-name="Rectangle 5" width="1" height="40" transform="translate(347 1)" fill="#ebebeb"/>
        <path id="Path_3" data-name="Path 3" d="M303.8,258.3l-5-5a6.354,6.354,0,0,0,1.1-4.9,6.471,6.471,0,0,0-5.6-5.3,6.53,6.53,0,0,0-2,12.9,6.914,6.914,0,0,0,4.9-1.1l5,5a1.088,1.088,0,0,0,1.5,0A1.222,1.222,0,0,0,303.8,258.3Zm-14.7-9.5a4.458,4.458,0,0,1,3.7-3.7,4.57,4.57,0,0,1,5.2,5.2,4.458,4.458,0,0,1-3.7,3.7A4.609,4.609,0,0,1,289.1,248.8Z" transform="translate(73.382 -231.052)" fill="#4e92df"/>
        <path id="Path_4" data-name="Path 4" d="M284.1,240h24v24h-24Z" transform="translate(73.382 -231)" fill="none"/>
        <rect id="Rectangle_6" data-name="Rectangle 6" width="24" height="24" transform="translate(357 9)" fill="none"/>
        <path id="Path_5" data-name="Path 5" d="M150.8,40.2l-4.1,4.1a.967.967,0,0,1-1.4,0l-4.1-4.1a.539.539,0,0,1,.4-.9h8.9A.537.537,0,0,1,150.8,40.2Z" transform="translate(183.382 -21.3)" fill="#5c5c5c"/>
        <rect id="Rectangle_7" data-name="Rectangle 7" width="24" height="24" transform="translate(317 9)" fill="none"/>
      </g>
    </g>
  </g>
</svg>
