<svg xmlns="http://www.w3.org/2000/svg" xmlns:xlink="http://www.w3.org/1999/xlink" width="900" height="283" viewBox="0 0 900 283">
  <defs>
    <filter id="White_background" x="235" y="90" width="430" height="164" filterUnits="userSpaceOnUse">
      <feOffset dy="6" input="SourceAlpha"/>
      <feGaussianBlur stdDeviation="5" result="blur"/>
      <feFlood flood-opacity="0.302"/>
      <feComposite operator="in" in2="blur"/>
      <feComposite in="SourceGraphic"/>
    </filter>
    <clipPath id="clip-notifier_anatomy">
      <rect width="900" height="283"/>
    </clipPath>
  </defs>
  <g id="notifier_anatomy" clip-path="url(#clip-notifier_anatomy)">
    <rect width="900" height="283" fill="#f9f9fa"/>
    <g id="Group_266259" data-name="Group 266259" transform="translate(-46 -18)">
      <g transform="matrix(1, 0, 0, 1, 46, 18)" filter="url(#White_background)">
        <rect id="White_background-2" data-name="White background" width="400" height="134" rx="4" transform="translate(250 99)" fill="#fff"/>
      </g>
      <path id="Path_101157" data-name="Path 101157" d="M7.758-9.148H3.8V-6.4H7.438v2.047H3.8V0H1.281V-11.2H7.758Zm2.852-.117a1.442,1.442,0,0,1-1.023-.371,1.2,1.2,0,0,1-.4-.91,1.153,1.153,0,0,1,.4-.906,1.49,1.49,0,0,1,1.023-.352,1.486,1.486,0,0,1,1.027.352,1.158,1.158,0,0,1,.395.906,1.191,1.191,0,0,1-.395.922A1.466,1.466,0,0,1,10.609-9.266ZM11.828,0H9.359V-8h2.469Zm4.547,0H13.906V-11.844h2.469Zm9.266-3.3H20.422q.125,1.742,2.2,1.742a4.286,4.286,0,0,0,2.32-.625V-.4A6.1,6.1,0,0,1,22.055.2,4.058,4.058,0,0,1,19.047-.879a4.058,4.058,0,0,1-1.07-3,4.281,4.281,0,0,1,1.156-3.156A3.852,3.852,0,0,1,21.977-8.2a3.5,3.5,0,0,1,2.707,1.039,4,4,0,0,1,.957,2.82ZM23.352-4.812q0-1.719-1.391-1.719a1.328,1.328,0,0,0-1.027.492,2.234,2.234,0,0,0-.527,1.227Zm13.391-.961A2.142,2.142,0,0,0,35.7-6.016a1.5,1.5,0,0,0-1.258.59,2.573,2.573,0,0,0-.453,1.605V0H31.523V-8h2.469v1.484h.031a2.136,2.136,0,0,1,2.109-1.625,1.59,1.59,0,0,1,.609.094ZM45.016-3.3H39.8q.125,1.742,2.2,1.742a4.286,4.286,0,0,0,2.32-.625V-.4A6.1,6.1,0,0,1,41.43.2,4.058,4.058,0,0,1,38.422-.879a4.058,4.058,0,0,1-1.07-3,4.281,4.281,0,0,1,1.156-3.156A3.852,3.852,0,0,1,41.352-8.2a3.5,3.5,0,0,1,2.707,1.039,4,4,0,0,1,.957,2.82ZM42.727-4.812q0-1.719-1.391-1.719a1.328,1.328,0,0,0-1.027.492,2.234,2.234,0,0,0-.527,1.227ZM53.141,0H50.8V-1.148h-.031A2.607,2.607,0,0,1,48.391.2a2.492,2.492,0,0,1-1.832-.66,2.366,2.366,0,0,1-.668-1.762q0-2.328,2.758-2.687L50.82-5.2q0-1.312-1.422-1.312a4.853,4.853,0,0,0-2.719.852V-7.523a6.116,6.116,0,0,1,1.41-.469,7.413,7.413,0,0,1,1.629-.2q3.422,0,3.422,3.414ZM50.82-3.25v-.539L49.367-3.6q-1.2.156-1.2,1.086a.9.9,0,0,0,.293.691,1.126,1.126,0,0,0,.793.27,1.462,1.462,0,0,0,1.133-.48A1.735,1.735,0,0,0,50.82-3.25ZM62.922,0H60.453V-1.1h-.031A2.768,2.768,0,0,1,57.945.2,3.033,3.033,0,0,1,55.531-.863a4.382,4.382,0,0,1-.914-2.957A4.77,4.77,0,0,1,55.625-7a3.287,3.287,0,0,1,2.641-1.2,2.246,2.246,0,0,1,2.156,1.109h.031v-4.758h2.469ZM60.5-3.891v-.6a1.893,1.893,0,0,0-.453-1.3,1.5,1.5,0,0,0-1.18-.516,1.487,1.487,0,0,0-1.281.645,2.993,2.993,0,0,0-.461,1.77,2.59,2.59,0,0,0,.445,1.625A1.479,1.479,0,0,0,58.8-1.7a1.485,1.485,0,0,0,1.223-.6A2.507,2.507,0,0,0,60.5-3.891ZM72.617-8,69.367.641Q68.2,3.758,65.836,3.758a4.524,4.524,0,0,1-1.477-.2V1.586a2.076,2.076,0,0,0,1.07.289,1.337,1.337,0,0,0,1.328-.9l.422-.992L63.93-8h2.734l1.492,4.867a6.325,6.325,0,0,1,.219,1.07h.031a7.463,7.463,0,0,1,.258-1.055L70.172-8ZM83.242-9.953a2.494,2.494,0,0,0-.914-.187q-1.187,0-1.187,1.289V-8h1.828v1.82H81.141V0H78.68V-6.18H77.336V-8H78.68v-.992a2.88,2.88,0,0,1,.891-2.2,3.4,3.4,0,0,1,2.422-.836,4.253,4.253,0,0,1,1.25.156ZM87.969.2A4.3,4.3,0,0,1,84.824-.926,4.064,4.064,0,0,1,83.68-3.969a4.065,4.065,0,0,1,1.188-3.105A4.487,4.487,0,0,1,88.078-8.2,4.249,4.249,0,0,1,91.2-7.074a3.985,3.985,0,0,1,1.133,2.965A4.23,4.23,0,0,1,91.168-.961,4.348,4.348,0,0,1,87.969.2Zm.063-6.5a1.647,1.647,0,0,0-1.359.6A2.653,2.653,0,0,0,86.188-4q0,2.3,1.859,2.3,1.773,0,1.773-2.367Q89.82-6.3,88.031-6.3Zm11.125.531a2.142,2.142,0,0,0-1.039-.242,1.5,1.5,0,0,0-1.258.59,2.573,2.573,0,0,0-.453,1.605V0H93.938V-8h2.469v1.484h.031a2.136,2.136,0,0,1,2.109-1.625,1.59,1.59,0,0,1,.609.094Zm10.781,0a2.142,2.142,0,0,0-1.039-.242,1.5,1.5,0,0,0-1.258.59,2.573,2.573,0,0,0-.453,1.605V0h-2.469V-8h2.469v1.484h.031a2.136,2.136,0,0,1,2.109-1.625,1.59,1.59,0,0,1,.609.094ZM118.211-3.3h-5.219q.125,1.742,2.2,1.742a4.286,4.286,0,0,0,2.32-.625V-.4A6.1,6.1,0,0,1,114.625.2a4.058,4.058,0,0,1-3.008-1.074,4.058,4.058,0,0,1-1.07-3A4.281,4.281,0,0,1,111.7-7.031,3.852,3.852,0,0,1,114.547-8.2a3.5,3.5,0,0,1,2.707,1.039,4,4,0,0,1,.957,2.82Zm-2.289-1.516q0-1.719-1.391-1.719a1.328,1.328,0,0,0-1.027.492,2.234,2.234,0,0,0-.527,1.227ZM127.3-8,124.32,0h-2.812l-2.836-8h2.641L122.7-3.07a7.2,7.2,0,0,1,.273,1.422h.031a8.069,8.069,0,0,1,.289-1.375L124.719-8Zm2.3-1.266a1.442,1.442,0,0,1-1.023-.371,1.2,1.2,0,0,1-.4-.91,1.153,1.153,0,0,1,.4-.906A1.49,1.49,0,0,1,129.6-11.8a1.486,1.486,0,0,1,1.027.352,1.158,1.158,0,0,1,.395.906,1.191,1.191,0,0,1-.395.922A1.466,1.466,0,0,1,129.6-9.266ZM130.82,0h-2.469V-8h2.469Zm9.266-3.3h-5.219q.125,1.742,2.2,1.742a4.286,4.286,0,0,0,2.32-.625V-.4A6.1,6.1,0,0,1,136.5.2a4.058,4.058,0,0,1-3.008-1.074,4.058,4.058,0,0,1-1.07-3,4.281,4.281,0,0,1,1.156-3.156A3.852,3.852,0,0,1,136.422-8.2a3.5,3.5,0,0,1,2.707,1.039,4,4,0,0,1,.957,2.82ZM137.8-4.812q0-1.719-1.391-1.719a1.328,1.328,0,0,0-1.027.492,2.234,2.234,0,0,0-.527,1.227ZM153.141-8l-2.3,8h-2.594l-1.18-4.687a4.773,4.773,0,0,1-.133-1.023h-.047a6.124,6.124,0,0,1-.156.992L145.461,0H142.9l-2.258-8h2.516l1.1,5.219a6.787,6.787,0,0,1,.117.891h.047a4.933,4.933,0,0,1,.141-.922L145.938-8h2.352l1.234,5.219a8.3,8.3,0,0,1,.109.906h.055a9.017,9.017,0,0,1,.125-.906L150.852-8Z" transform="translate(344 154)" fill="#3d3d3d"/>
      <path id="Path_101158" data-name="Path 101158" d="M8.873,15H7.6L6.563,12.252H2.406L1.429,15H.15L3.91,5.2H5.1ZM6.187,11.22,4.648,7.043a4,4,0,0,1-.15-.656H4.471a3.661,3.661,0,0,1-.157.656L2.789,11.22ZM19.811,15H18.689V11.008q0-2.229-1.627-2.229a1.765,1.765,0,0,0-1.391.632,2.344,2.344,0,0,0-.55,1.6V15H14V8h1.121V9.162h.027a2.526,2.526,0,0,1,2.3-1.326,2.142,2.142,0,0,1,1.757.742,3.3,3.3,0,0,1,.608,2.143Zm7.738-3.22H22.606a2.618,2.618,0,0,0,.629,1.8,2.168,2.168,0,0,0,1.654.636,3.439,3.439,0,0,0,2.174-.779v1.053a4.063,4.063,0,0,1-2.44.67,2.959,2.959,0,0,1-2.331-.954,3.9,3.9,0,0,1-.848-2.683,3.828,3.828,0,0,1,.926-2.663,2.97,2.97,0,0,1,2.3-1.029,2.632,2.632,0,0,1,2.126.889,3.705,3.705,0,0,1,.752,2.468ZM26.4,10.83a2.281,2.281,0,0,0-.468-1.511,1.6,1.6,0,0,0-1.282-.54,1.811,1.811,0,0,0-1.347.567,2.575,2.575,0,0,0-.684,1.483ZM38.063,8l-2.1,7H34.8L33.359,9.989a3.265,3.265,0,0,1-.109-.649h-.027a3.065,3.065,0,0,1-.144.636L31.514,15H30.393L28.273,8h1.176L30.9,13.264a3.171,3.171,0,0,1,.1.629h.055a2.942,2.942,0,0,1,.123-.643L32.785,8h1.025l1.449,5.277a3.767,3.767,0,0,1,.1.629h.055a2.909,2.909,0,0,1,.116-.629L36.955,8Zm8.784,1.135A1.371,1.371,0,0,0,46,8.909a1.431,1.431,0,0,0-1.2.677,3.129,3.129,0,0,0-.482,1.846V15H43.2V8h1.121V9.442h.027a2.444,2.444,0,0,1,.731-1.152,1.668,1.668,0,0,1,1.1-.414,1.83,1.83,0,0,1,.67.1Zm6.843,2.646H48.747a2.618,2.618,0,0,0,.629,1.8,2.168,2.168,0,0,0,1.654.636,3.439,3.439,0,0,0,2.174-.779v1.053a4.063,4.063,0,0,1-2.44.67,2.959,2.959,0,0,1-2.331-.954,3.9,3.9,0,0,1-.848-2.683,3.828,3.828,0,0,1,.926-2.663,2.97,2.97,0,0,1,2.3-1.029,2.632,2.632,0,0,1,2.126.889,3.705,3.705,0,0,1,.752,2.468Zm-1.148-.95a2.281,2.281,0,0,0-.468-1.511,1.6,1.6,0,0,0-1.282-.54,1.811,1.811,0,0,0-1.347.567,2.575,2.575,0,0,0-.684,1.483ZM61.2,15H60.074V11.008q0-2.229-1.627-2.229a1.765,1.765,0,0,0-1.391.632,2.344,2.344,0,0,0-.55,1.6V15H55.385V8h1.121V9.162h.027a2.526,2.526,0,0,1,2.3-1.326,2.142,2.142,0,0,1,1.757.742,3.3,3.3,0,0,1,.608,2.143Zm7.738-3.22H63.991a2.618,2.618,0,0,0,.629,1.8,2.168,2.168,0,0,0,1.654.636,3.439,3.439,0,0,0,2.174-.779v1.053a4.063,4.063,0,0,1-2.44.67,2.959,2.959,0,0,1-2.331-.954,3.9,3.9,0,0,1-.848-2.683,3.828,3.828,0,0,1,.926-2.663,2.97,2.97,0,0,1,2.3-1.029,2.632,2.632,0,0,1,2.126.889,3.705,3.705,0,0,1,.752,2.468Zm-1.148-.95a2.281,2.281,0,0,0-.468-1.511,1.6,1.6,0,0,0-1.282-.54,1.811,1.811,0,0,0-1.347.567A2.575,2.575,0,0,0,64,10.83ZM79.447,8l-2.1,7H76.187L74.744,9.989a3.265,3.265,0,0,1-.109-.649h-.027a3.065,3.065,0,0,1-.144.636L72.9,15H71.777L69.658,8h1.176l1.449,5.264a3.171,3.171,0,0,1,.1.629h.055a2.942,2.942,0,0,1,.123-.643L74.17,8H75.2l1.449,5.277a3.768,3.768,0,0,1,.1.629H76.8a2.909,2.909,0,0,1,.116-.629L78.34,8Zm6.31,7H84.636V13.906h-.027a2.347,2.347,0,0,1-2.153,1.258,2.3,2.3,0,0,1-1.637-.554,1.918,1.918,0,0,1-.591-1.47q0-1.962,2.311-2.283l2.1-.294q0-1.784-1.442-1.784a3.446,3.446,0,0,0-2.283.861V8.492a4.338,4.338,0,0,1,2.379-.656q2.468,0,2.468,2.611Zm-1.121-3.541-1.688.232a2.741,2.741,0,0,0-1.176.386,1.114,1.114,0,0,0-.4.981,1.068,1.068,0,0,0,.366.837,1.413,1.413,0,0,0,.974.325,1.8,1.8,0,0,0,1.377-.584,2.088,2.088,0,0,0,.543-1.48ZM88.99,15H87.869V4.637H88.99Zm7.253-1.012h-.027V18.22H95.095V8h1.121V9.23h.027a2.651,2.651,0,0,1,2.42-1.395,2.563,2.563,0,0,1,2.112.94,3.893,3.893,0,0,1,.759,2.519,4.339,4.339,0,0,1-.854,2.813,2.845,2.845,0,0,1-2.338,1.056A2.342,2.342,0,0,1,96.243,13.988Zm-.027-2.823v.978a2.081,2.081,0,0,0,.564,1.473,2.012,2.012,0,0,0,3.028-.174,3.575,3.575,0,0,0,.578-2.167,2.822,2.822,0,0,0-.54-1.832,1.787,1.787,0,0,0-1.463-.663,1.986,1.986,0,0,0-1.572.68A2.5,2.5,0,0,0,96.216,11.165Zm10.76-2.03a1.371,1.371,0,0,0-.848-.226,1.431,1.431,0,0,0-1.2.677,3.129,3.129,0,0,0-.482,1.846V15h-1.121V8h1.121V9.442h.027a2.444,2.444,0,0,1,.731-1.152,1.668,1.668,0,0,1,1.1-.414,1.83,1.83,0,0,1,.67.1Zm6.843,2.646h-4.942a2.618,2.618,0,0,0,.629,1.8,2.168,2.168,0,0,0,1.654.636,3.439,3.439,0,0,0,2.174-.779v1.053a4.063,4.063,0,0,1-2.44.67,2.959,2.959,0,0,1-2.331-.954,3.9,3.9,0,0,1-.848-2.683,3.828,3.828,0,0,1,.926-2.663,2.97,2.97,0,0,1,2.3-1.029,2.632,2.632,0,0,1,2.126.889,3.705,3.705,0,0,1,.752,2.468Zm-1.148-.95a2.281,2.281,0,0,0-.468-1.511,1.6,1.6,0,0,0-1.282-.54,1.811,1.811,0,0,0-1.347.567,2.575,2.575,0,0,0-.684,1.483Zm2.42,3.917v-1.2a3.318,3.318,0,0,0,2.017.677q1.477,0,1.477-.984a.854.854,0,0,0-.126-.475,1.26,1.26,0,0,0-.342-.345,2.631,2.631,0,0,0-.506-.27q-.291-.12-.625-.25a8.056,8.056,0,0,1-.817-.373,2.468,2.468,0,0,1-.588-.424,1.577,1.577,0,0,1-.355-.537,1.9,1.9,0,0,1-.12-.7,1.673,1.673,0,0,1,.226-.872,2,2,0,0,1,.6-.636,2.805,2.805,0,0,1,.858-.386,3.805,3.805,0,0,1,.995-.13,4.016,4.016,0,0,1,1.627.314V9.285a3.171,3.171,0,0,0-1.777-.506,2.078,2.078,0,0,0-.567.072,1.389,1.389,0,0,0-.434.2.932.932,0,0,0-.28.311.819.819,0,0,0-.1.4.959.959,0,0,0,.1.458,1.008,1.008,0,0,0,.291.328,2.221,2.221,0,0,0,.465.26q.273.116.622.253a8.657,8.657,0,0,1,.834.366,2.86,2.86,0,0,1,.629.424,1.656,1.656,0,0,1,.4.543,1.753,1.753,0,0,1,.14.731,1.725,1.725,0,0,1-.229.9,1.963,1.963,0,0,1-.612.636,2.8,2.8,0,0,1-.882.376,4.354,4.354,0,0,1-1.046.123A3.971,3.971,0,0,1,115.09,14.747Zm11.99-2.967h-4.942a2.618,2.618,0,0,0,.629,1.8,2.168,2.168,0,0,0,1.654.636,3.439,3.439,0,0,0,2.174-.779v1.053a4.063,4.063,0,0,1-2.44.67,2.959,2.959,0,0,1-2.331-.954,3.9,3.9,0,0,1-.848-2.683,3.828,3.828,0,0,1,.926-2.663,2.97,2.97,0,0,1,2.3-1.029,2.632,2.632,0,0,1,2.126.889,3.705,3.705,0,0,1,.752,2.468Zm-1.148-.95a2.281,2.281,0,0,0-.468-1.511,1.6,1.6,0,0,0-1.282-.54,1.811,1.811,0,0,0-1.347.567,2.575,2.575,0,0,0-.684,1.483ZM134.586,15h-1.121V11.008q0-2.229-1.627-2.229a1.765,1.765,0,0,0-1.391.632,2.344,2.344,0,0,0-.55,1.6V15h-1.121V8H129.9V9.162h.027a2.526,2.526,0,0,1,2.3-1.326,2.142,2.142,0,0,1,1.757.742,3.3,3.3,0,0,1,.608,2.143Zm5.359-.068a2.162,2.162,0,0,1-1.046.219q-1.839,0-1.839-2.051V8.957h-1.2V8h1.2V6.291l1.121-.362V8h1.764v.957h-1.764V12.9a1.635,1.635,0,0,0,.239,1,.955.955,0,0,0,.793.3,1.179,1.179,0,0,0,.731-.232Zm6.508.068h-1.121V13.906H145.3a2.347,2.347,0,0,1-2.153,1.258,2.3,2.3,0,0,1-1.637-.554,1.918,1.918,0,0,1-.591-1.47q0-1.962,2.311-2.283l2.1-.294q0-1.784-1.442-1.784a3.446,3.446,0,0,0-2.283.861V8.492a4.338,4.338,0,0,1,2.379-.656q2.468,0,2.468,2.611Zm-1.121-3.541-1.688.232a2.741,2.741,0,0,0-1.176.386,1.114,1.114,0,0,0-.4.981,1.068,1.068,0,0,0,.366.837,1.413,1.413,0,0,0,.974.325,1.8,1.8,0,0,0,1.377-.584,2.088,2.088,0,0,0,.543-1.48Zm6.48,3.473a2.162,2.162,0,0,1-1.046.219q-1.839,0-1.839-2.051V8.957h-1.2V8h1.2V6.291l1.121-.362V8h1.764v.957h-1.764V12.9a1.635,1.635,0,0,0,.239,1,.955.955,0,0,0,.793.3,1.179,1.179,0,0,0,.731-.232Zm2.071-8.709a.71.71,0,0,1-.513-.205.692.692,0,0,1-.212-.52.718.718,0,0,1,.725-.731.724.724,0,0,1,.523.208.73.73,0,0,1,0,1.036A.718.718,0,0,1,153.884,6.223ZM154.431,15H153.31V8h1.121Zm5.2.164a3.247,3.247,0,0,1-2.478-.981,3.634,3.634,0,0,1-.926-2.6,3.785,3.785,0,0,1,.964-2.755,3.465,3.465,0,0,1,2.6-.991,3.14,3.14,0,0,1,2.444.964,3.822,3.822,0,0,1,.878,2.673,3.761,3.761,0,0,1-.947,2.683A3.317,3.317,0,0,1,159.626,15.164Zm.082-6.385A2.132,2.132,0,0,0,158,9.514a3.018,3.018,0,0,0-.629,2.027,2.854,2.854,0,0,0,.636,1.962,2.161,2.161,0,0,0,1.7.718,2.049,2.049,0,0,0,1.671-.7,3.055,3.055,0,0,0,.584-2,3.108,3.108,0,0,0-.584-2.023A2.04,2.04,0,0,0,159.708,8.779ZM170.714,15h-1.121V11.008q0-2.229-1.627-2.229a1.765,1.765,0,0,0-1.391.632,2.344,2.344,0,0,0-.55,1.6V15H164.9V8h1.121V9.162h.027a2.526,2.526,0,0,1,2.3-1.326,2.142,2.142,0,0,1,1.757.742,3.3,3.3,0,0,1,.608,2.143Zm6.521-8.777a.71.71,0,0,1-.513-.205.692.692,0,0,1-.212-.52.718.718,0,0,1,.725-.731.724.724,0,0,1,.523.208.73.73,0,0,1,0,1.036A.718.718,0,0,1,177.235,6.223ZM177.782,15h-1.121V8h1.121Zm1.846-.253v-1.2a3.318,3.318,0,0,0,2.017.677q1.477,0,1.477-.984a.854.854,0,0,0-.126-.475,1.26,1.26,0,0,0-.342-.345,2.631,2.631,0,0,0-.506-.27q-.291-.12-.625-.25a8.056,8.056,0,0,1-.817-.373,2.468,2.468,0,0,1-.588-.424,1.577,1.577,0,0,1-.355-.537,1.9,1.9,0,0,1-.12-.7,1.673,1.673,0,0,1,.226-.872,2,2,0,0,1,.6-.636,2.805,2.805,0,0,1,.858-.386,3.805,3.805,0,0,1,.995-.13,4.016,4.016,0,0,1,1.627.314V9.285a3.171,3.171,0,0,0-1.777-.506,2.078,2.078,0,0,0-.567.072,1.389,1.389,0,0,0-.434.2.932.932,0,0,0-.28.311.819.819,0,0,0-.1.4.959.959,0,0,0,.1.458,1.008,1.008,0,0,0,.291.328,2.221,2.221,0,0,0,.465.26q.273.116.622.253a8.658,8.658,0,0,1,.834.366,2.86,2.86,0,0,1,.629.424,1.656,1.656,0,0,1,.4.543,1.753,1.753,0,0,1,.14.731,1.725,1.725,0,0,1-.229.9,1.963,1.963,0,0,1-.612.636,2.8,2.8,0,0,1-.882.376,4.354,4.354,0,0,1-1.046.123A3.971,3.971,0,0,1,179.628,14.747Zm14.971-.068a3.643,3.643,0,0,1-1.914.485,3.169,3.169,0,0,1-2.417-.974,3.53,3.53,0,0,1-.919-2.526,3.881,3.881,0,0,1,.991-2.779,3.468,3.468,0,0,1,2.646-1.049,3.682,3.682,0,0,1,1.627.342V9.326a2.85,2.85,0,0,0-1.668-.547,2.254,2.254,0,0,0-1.76.769,2.918,2.918,0,0,0-.687,2.02,2.779,2.779,0,0,0,.646,1.941,2.227,2.227,0,0,0,1.733.711,2.81,2.81,0,0,0,1.723-.608Zm4.621.485a3.247,3.247,0,0,1-2.478-.981,3.634,3.634,0,0,1-.926-2.6,3.785,3.785,0,0,1,.964-2.755,3.465,3.465,0,0,1,2.6-.991,3.14,3.14,0,0,1,2.444.964,3.822,3.822,0,0,1,.878,2.673,3.761,3.761,0,0,1-.947,2.683A3.317,3.317,0,0,1,199.22,15.164Zm.082-6.385a2.132,2.132,0,0,0-1.709.735,3.018,3.018,0,0,0-.629,2.027A2.854,2.854,0,0,0,197.6,13.5a2.161,2.161,0,0,0,1.7.718,2.049,2.049,0,0,0,1.671-.7,3.055,3.055,0,0,0,.584-2,3.108,3.108,0,0,0-.584-2.023A2.04,2.04,0,0,0,199.3,8.779ZM214.437,15h-1.121V10.98a3.032,3.032,0,0,0-.359-1.682,1.361,1.361,0,0,0-1.207-.52,1.494,1.494,0,0,0-1.22.656,2.511,2.511,0,0,0-.5,1.572V15h-1.121V10.844q0-2.064-1.593-2.064A1.475,1.475,0,0,0,206.1,9.4a2.557,2.557,0,0,0-.479,1.61V15H204.5V8h1.121V9.107h.027a2.378,2.378,0,0,1,2.174-1.271A2.022,2.022,0,0,1,209.8,9.285a2.5,2.5,0,0,1,2.324-1.449q2.311,0,2.311,2.851Zm3.268-1.012h-.027V18.22h-1.121V8h1.121V9.23h.027a2.651,2.651,0,0,1,2.42-1.395,2.563,2.563,0,0,1,2.112.94A3.893,3.893,0,0,1,223,11.295a4.339,4.339,0,0,1-.854,2.813,2.845,2.845,0,0,1-2.338,1.056A2.342,2.342,0,0,1,217.7,13.988Zm-.027-2.823v.978a2.081,2.081,0,0,0,.564,1.473,2.012,2.012,0,0,0,3.028-.174,3.575,3.575,0,0,0,.578-2.167,2.822,2.822,0,0,0-.54-1.832,1.787,1.787,0,0,0-1.463-.663,1.986,1.986,0,0,0-1.572.68A2.5,2.5,0,0,0,217.677,11.165ZM225.907,15h-1.121V4.637h1.121Zm7.9-3.22H228.86a2.618,2.618,0,0,0,.629,1.8,2.168,2.168,0,0,0,1.654.636,3.439,3.439,0,0,0,2.174-.779v1.053a4.063,4.063,0,0,1-2.44.67,2.959,2.959,0,0,1-2.331-.954,3.9,3.9,0,0,1-.848-2.683,3.828,3.828,0,0,1,.926-2.663,2.97,2.97,0,0,1,2.3-1.029,2.632,2.632,0,0,1,2.126.889,3.705,3.705,0,0,1,.752,2.468Zm-1.148-.95a2.281,2.281,0,0,0-.468-1.511,1.6,1.6,0,0,0-1.282-.54,1.811,1.811,0,0,0-1.347.567,2.575,2.575,0,0,0-.684,1.483Zm6.091,4.1a2.162,2.162,0,0,1-1.046.219q-1.839,0-1.839-2.051V8.957h-1.2V8h1.2V6.291l1.121-.362V8h1.764v.957h-1.764V12.9a1.635,1.635,0,0,0,.239,1,.955.955,0,0,0,.793.3,1.179,1.179,0,0,0,.731-.232Zm7.123-3.151h-4.942a2.618,2.618,0,0,0,.629,1.8,2.168,2.168,0,0,0,1.654.636,3.439,3.439,0,0,0,2.174-.779v1.053a4.063,4.063,0,0,1-2.44.67,2.959,2.959,0,0,1-2.331-.954,3.9,3.9,0,0,1-.848-2.683,3.828,3.828,0,0,1,.926-2.663,2.97,2.97,0,0,1,2.3-1.029,2.632,2.632,0,0,1,2.126.889,3.705,3.705,0,0,1,.752,2.468Zm-1.148-.95a2.281,2.281,0,0,0-.468-1.511,1.6,1.6,0,0,0-1.282-.54,1.811,1.811,0,0,0-1.347.567,2.575,2.575,0,0,0-.684,1.483ZM256.409,15h-1.121V13.906h-.027a2.347,2.347,0,0,1-2.153,1.258,2.3,2.3,0,0,1-1.637-.554,1.918,1.918,0,0,1-.591-1.47q0-1.962,2.311-2.283l2.1-.294q0-1.784-1.442-1.784a3.446,3.446,0,0,0-2.283.861V8.492a4.338,4.338,0,0,1,2.379-.656q2.468,0,2.468,2.611Zm-1.121-3.541-1.688.232a2.741,2.741,0,0,0-1.176.386,1.114,1.114,0,0,0-.4.981,1.068,1.068,0,0,0,.366.837,1.413,1.413,0,0,0,.974.325,1.8,1.8,0,0,0,1.377-.584,2.088,2.088,0,0,0,.543-1.48ZM264.332,15h-1.121V11.008q0-2.229-1.627-2.229a1.765,1.765,0,0,0-1.391.632,2.344,2.344,0,0,0-.55,1.6V15h-1.121V8h1.121V9.162h.027a2.526,2.526,0,0,1,2.3-1.326,2.142,2.142,0,0,1,1.757.742,3.3,3.3,0,0,1,.608,2.143Zm8.087,0H271.3V13.811h-.027a2.588,2.588,0,0,1-2.406,1.354,2.615,2.615,0,0,1-2.109-.94,3.856,3.856,0,0,1-.79-2.56,4.2,4.2,0,0,1,.875-2.782,2.886,2.886,0,0,1,2.331-1.046,2.244,2.244,0,0,1,2.1,1.135h.027V4.637h1.121ZM271.3,11.835V10.8a2,2,0,0,0-.561-1.436,1.88,1.88,0,0,0-1.422-.588,1.936,1.936,0,0,0-1.613.752,3.3,3.3,0,0,0-.588,2.078,2.964,2.964,0,0,0,.564,1.911,1.843,1.843,0,0,0,1.514.7,1.915,1.915,0,0,0,1.521-.677A2.521,2.521,0,0,0,271.3,11.835ZM4.785,28.135a1.371,1.371,0,0,0-.848-.226,1.431,1.431,0,0,0-1.2.677,3.129,3.129,0,0,0-.482,1.846V34H1.135V27H2.256v1.442h.027a2.444,2.444,0,0,1,.731-1.152,1.668,1.668,0,0,1,1.1-.414,1.83,1.83,0,0,1,.67.1Zm6.843,2.646H6.686a2.618,2.618,0,0,0,.629,1.8,2.168,2.168,0,0,0,1.654.636,3.439,3.439,0,0,0,2.174-.779v1.053a4.063,4.063,0,0,1-2.44.67,2.959,2.959,0,0,1-2.331-.954,3.9,3.9,0,0,1-.848-2.683,3.828,3.828,0,0,1,.926-2.663,2.97,2.97,0,0,1,2.3-1.029,2.632,2.632,0,0,1,2.126.889,3.705,3.705,0,0,1,.752,2.468Zm-1.148-.95a2.281,2.281,0,0,0-.468-1.511,1.6,1.6,0,0,0-1.282-.54,1.811,1.811,0,0,0-1.347.567A2.575,2.575,0,0,0,6.7,29.83ZM18.334,34H17.213V32.906h-.027a2.347,2.347,0,0,1-2.153,1.258A2.3,2.3,0,0,1,13.4,33.61a1.918,1.918,0,0,1-.591-1.47q0-1.962,2.311-2.283l2.1-.294q0-1.784-1.442-1.784a3.446,3.446,0,0,0-2.283.861V27.492a4.338,4.338,0,0,1,2.379-.656q2.468,0,2.468,2.611Zm-1.121-3.541-1.688.232a2.741,2.741,0,0,0-1.176.386,1.114,1.114,0,0,0-.4.981,1.068,1.068,0,0,0,.366.837,1.413,1.413,0,0,0,.974.325,1.8,1.8,0,0,0,1.377-.584,2.088,2.088,0,0,0,.543-1.48ZM26.421,34H25.3V32.811h-.027a2.588,2.588,0,0,1-2.406,1.354,2.615,2.615,0,0,1-2.109-.94,3.856,3.856,0,0,1-.79-2.56,4.2,4.2,0,0,1,.875-2.782,2.886,2.886,0,0,1,2.331-1.046,2.244,2.244,0,0,1,2.1,1.135H25.3V23.637h1.121ZM25.3,30.835V29.8a2,2,0,0,0-.561-1.436,1.88,1.88,0,0,0-1.422-.588,1.936,1.936,0,0,0-1.613.752,3.3,3.3,0,0,0-.588,2.078,2.964,2.964,0,0,0,.564,1.911,1.843,1.843,0,0,0,1.514.7,1.915,1.915,0,0,0,1.521-.677A2.521,2.521,0,0,0,25.3,30.835ZM34.262,27l-3.22,8.121q-.861,2.174-2.42,2.174a2.565,2.565,0,0,1-.731-.089v-1a2.078,2.078,0,0,0,.663.123,1.374,1.374,0,0,0,1.271-1.012l.561-1.326L27.651,27H28.9l1.894,5.387q.034.1.144.533h.041q.034-.164.137-.52L33.1,27Zm8.5-2.379a1.493,1.493,0,0,0-.745-.185q-1.176,0-1.176,1.483V27h1.641v.957H40.838V34H39.724V27.957h-1.2V27h1.2V25.865a2.358,2.358,0,0,1,.636-1.74,2.146,2.146,0,0,1,1.586-.639,2.2,2.2,0,0,1,.813.123Zm3.849,9.543a3.247,3.247,0,0,1-2.478-.981,3.634,3.634,0,0,1-.926-2.6,3.785,3.785,0,0,1,.964-2.755,3.465,3.465,0,0,1,2.6-.991,3.14,3.14,0,0,1,2.444.964,3.822,3.822,0,0,1,.878,2.673,3.761,3.761,0,0,1-.947,2.683A3.318,3.318,0,0,1,46.607,34.164Zm.082-6.385a2.132,2.132,0,0,0-1.709.735,3.018,3.018,0,0,0-.629,2.027,2.854,2.854,0,0,0,.636,1.962,2.161,2.161,0,0,0,1.7.718,2.049,2.049,0,0,0,1.671-.7,3.055,3.055,0,0,0,.584-2,3.108,3.108,0,0,0-.584-2.023A2.04,2.04,0,0,0,46.689,27.779Zm8.846.355a1.371,1.371,0,0,0-.848-.226,1.431,1.431,0,0,0-1.2.677,3.129,3.129,0,0,0-.482,1.846V34H51.885V27h1.121v1.442h.027a2.444,2.444,0,0,1,.731-1.152,1.668,1.668,0,0,1,1.1-.414,1.83,1.83,0,0,1,.67.1ZM66.158,27l-3.22,8.121q-.861,2.174-2.42,2.174a2.565,2.565,0,0,1-.731-.089v-1a2.078,2.078,0,0,0,.663.123,1.374,1.374,0,0,0,1.271-1.012l.561-1.326L59.548,27h1.244l1.894,5.387q.034.1.144.533h.041q.034-.164.137-.52L65,27Zm4.129,7.164a3.247,3.247,0,0,1-2.478-.981,3.633,3.633,0,0,1-.926-2.6,3.785,3.785,0,0,1,.964-2.755,3.465,3.465,0,0,1,2.6-.991A3.14,3.14,0,0,1,72.9,27.8a3.822,3.822,0,0,1,.878,2.673,3.761,3.761,0,0,1-.947,2.683A3.318,3.318,0,0,1,70.287,34.164Zm.082-6.385a2.132,2.132,0,0,0-1.709.735,3.018,3.018,0,0,0-.629,2.027,2.854,2.854,0,0,0,.636,1.962,2.161,2.161,0,0,0,1.7.718,2.049,2.049,0,0,0,1.671-.7,3.055,3.055,0,0,0,.584-2,3.108,3.108,0,0,0-.584-2.023A2.04,2.04,0,0,0,70.369,27.779ZM81.225,34H80.1V32.893h-.027a2.3,2.3,0,0,1-2.16,1.271q-2.5,0-2.5-2.98V27h1.114v4.006q0,2.215,1.7,2.215a1.715,1.715,0,0,0,1.35-.6,2.315,2.315,0,0,0,.53-1.583V27h1.121Zm9.345-.068a2.161,2.161,0,0,1-1.046.219q-1.839,0-1.839-2.051V27.957h-1.2V27h1.2V25.291l1.121-.362V27h1.764v.957H88.806V31.9a1.635,1.635,0,0,0,.239,1,.955.955,0,0,0,.793.3,1.179,1.179,0,0,0,.731-.232Zm4.423.232a3.247,3.247,0,0,1-2.478-.981,3.633,3.633,0,0,1-.926-2.6,3.785,3.785,0,0,1,.964-2.755,3.465,3.465,0,0,1,2.6-.991A3.14,3.14,0,0,1,97.6,27.8a3.822,3.822,0,0,1,.878,2.673,3.761,3.761,0,0,1-.947,2.683A3.318,3.318,0,0,1,94.992,34.164Zm.082-6.385a2.132,2.132,0,0,0-1.709.735,3.018,3.018,0,0,0-.629,2.027,2.854,2.854,0,0,0,.636,1.962,2.161,2.161,0,0,0,1.7.718,2.049,2.049,0,0,0,1.671-.7,3.055,3.055,0,0,0,.584-2,3.108,3.108,0,0,0-.584-2.023A2.04,2.04,0,0,0,95.074,27.779Zm12.681.355a1.371,1.371,0,0,0-.848-.226,1.431,1.431,0,0,0-1.2.677,3.129,3.129,0,0,0-.482,1.846V34H104.1V27h1.121v1.442h.027a2.444,2.444,0,0,1,.731-1.152,1.668,1.668,0,0,1,1.1-.414,1.83,1.83,0,0,1,.67.1ZM114.6,30.78h-4.942a2.618,2.618,0,0,0,.629,1.8,2.168,2.168,0,0,0,1.654.636,3.439,3.439,0,0,0,2.174-.779v1.053a4.063,4.063,0,0,1-2.44.67,2.959,2.959,0,0,1-2.331-.954,3.9,3.9,0,0,1-.848-2.683,3.828,3.828,0,0,1,.926-2.663,2.97,2.97,0,0,1,2.3-1.029,2.632,2.632,0,0,1,2.126.889,3.705,3.705,0,0,1,.752,2.468Zm-1.148-.95a2.281,2.281,0,0,0-.468-1.511,1.6,1.6,0,0,0-1.282-.54,1.811,1.811,0,0,0-1.347.567,2.575,2.575,0,0,0-.684,1.483ZM121.8,27l-2.789,7h-1.1l-2.652-7h1.23l1.777,5.086a4.565,4.565,0,0,1,.246.978h.027a4.622,4.622,0,0,1,.219-.95L120.613,27Zm1.777-1.777a.71.71,0,0,1-.513-.205.692.692,0,0,1-.212-.52.718.718,0,0,1,.725-.731.724.724,0,0,1,.523.208.73.73,0,0,1,0,1.036A.718.718,0,0,1,123.573,25.223ZM124.12,34H123V27h1.121Zm7.9-3.22h-4.942a2.618,2.618,0,0,0,.629,1.8,2.168,2.168,0,0,0,1.654.636,3.439,3.439,0,0,0,2.174-.779v1.053a4.063,4.063,0,0,1-2.44.67,2.959,2.959,0,0,1-2.331-.954,3.9,3.9,0,0,1-.848-2.683,3.828,3.828,0,0,1,.926-2.663,2.97,2.97,0,0,1,2.3-1.029,2.632,2.632,0,0,1,2.126.889,3.705,3.705,0,0,1,.752,2.468Zm-1.148-.95a2.281,2.281,0,0,0-.468-1.511,1.6,1.6,0,0,0-1.282-.54,1.811,1.811,0,0,0-1.347.567,2.575,2.575,0,0,0-.684,1.483ZM142.529,27l-2.1,7h-1.162l-1.442-5.011a3.266,3.266,0,0,1-.109-.649h-.027a3.066,3.066,0,0,1-.144.636L135.98,34h-1.121l-2.119-7h1.176l1.449,5.264a3.171,3.171,0,0,1,.1.629h.055a2.942,2.942,0,0,1,.123-.643L137.252,27h1.025l1.449,5.277a3.767,3.767,0,0,1,.1.629h.055a2.909,2.909,0,0,1,.116-.629L141.422,27Zm1.688,7.15a.726.726,0,0,1-.537-.226.742.742,0,0,1-.222-.54.754.754,0,0,1,.222-.543.72.72,0,0,1,.537-.229.739.739,0,0,1,.547.229.748.748,0,0,1,.226.543.737.737,0,0,1-.226.54A.745.745,0,0,1,144.218,34.15Z" transform="translate(346 164)" fill="#3d3d3d"/>
      <g id="Info_icon" data-name="Info icon" transform="translate(181 19)">
        <circle id="Ellipse_6" data-name="Ellipse 6" cx="12" cy="12" r="12" transform="translate(125 118)" fill="#2777d3"/>
        <path id="Info_icon-2" data-name="Info icon" d="M153,35.709V25.291a.29.29,0,0,1,.29-.291h1.919a.29.29,0,0,1,.29.291V35.709a.29.29,0,0,1-.29.291H153.29A.29.29,0,0,1,153,35.709Zm.29-13.209h1.919a.29.29,0,0,0,.29-.291V20.291a.29.29,0,0,0-.29-.291H153.29a.29.29,0,0,0-.29.291v1.919A.29.29,0,0,0,153.29,22.5Z" transform="translate(-17 102)" fill="#fff"/>
      </g>
      <path id="Rectangle_5246" data-name="Rectangle 5246" d="M4,0H396a4,4,0,0,1,4,4v6a0,0,0,0,1,0,0H0a0,0,0,0,1,0,0V4A4,4,0,0,1,4,0Z" transform="translate(296 117)" fill="#2777d3"/>
      <path id="Path_101159" data-name="Path 101159" d="M8.894-9.8,5.373,0H3.555L.1-9.8H1.873l2.42,7.438a4.588,4.588,0,0,1,.178.827H4.5a4.355,4.355,0,0,1,.2-.841L7.171-9.8ZM10.814-8.47a.953.953,0,0,1-.667-.253.832.832,0,0,1-.277-.643.854.854,0,0,1,.277-.649.939.939,0,0,1,.667-.26.969.969,0,0,1,.684.26.849.849,0,0,1,.28.649.837.837,0,0,1-.28.632A.962.962,0,0,1,10.814-8.47ZM11.6,0H10.015V-7H11.6Zm8-3.069H14.827a2.017,2.017,0,0,0,.6,1.5,2.225,2.225,0,0,0,1.569.526,3.459,3.459,0,0,0,2.058-.67V-.437a4.7,4.7,0,0,1-2.529.6A3.131,3.131,0,0,1,14.1-.79a3.814,3.814,0,0,1-.878-2.683,3.73,3.73,0,0,1,.967-2.663,3.164,3.164,0,0,1,2.4-1.029,2.759,2.759,0,0,1,2.222.923A3.832,3.832,0,0,1,19.6-3.678ZM18.067-4.19a2.044,2.044,0,0,0-.4-1.33A1.348,1.348,0,0,0,16.57-6a1.539,1.539,0,0,0-1.159.5,2.28,2.28,0,0,0-.584,1.306ZM30.522-7,28.458,0H26.8L25.525-4.744a3,3,0,0,1-.1-.615H25.4a2.805,2.805,0,0,1-.123.6L23.9,0H22.271L20.214-7h1.641l1.271,5.045a2.989,2.989,0,0,1,.082.6h.048a3.249,3.249,0,0,1,.109-.615L24.78-7h1.49l1.258,5.065a3.543,3.543,0,0,1,.089.6h.048a3.191,3.191,0,0,1,.1-.6L29.012-7ZM41.911,0H40.325V-1.189H40.3A2.53,2.53,0,0,1,37.939.164a2.546,2.546,0,0,1-2.068-.94,3.9,3.9,0,0,1-.776-2.56,4.251,4.251,0,0,1,.858-2.782A2.808,2.808,0,0,1,38.24-7.164,2.19,2.19,0,0,1,40.3-6.029h.027v-4.334h1.586ZM40.346-3.2v-.916A1.785,1.785,0,0,0,39.86-5.38a1.619,1.619,0,0,0-1.237-.52,1.666,1.666,0,0,0-1.4.663A2.955,2.955,0,0,0,36.716-3.4,2.648,2.648,0,0,0,37.2-1.712a1.59,1.59,0,0,0,1.316.619,1.646,1.646,0,0,0,1.319-.6A2.253,2.253,0,0,0,40.346-3.2Zm9.563.13H45.138a2.017,2.017,0,0,0,.6,1.5,2.225,2.225,0,0,0,1.569.526,3.459,3.459,0,0,0,2.058-.67V-.437a4.7,4.7,0,0,1-2.529.6A3.131,3.131,0,0,1,44.41-.79a3.814,3.814,0,0,1-.878-2.683A3.73,3.73,0,0,1,44.5-6.135a3.164,3.164,0,0,1,2.4-1.029,2.759,2.759,0,0,1,2.222.923,3.832,3.832,0,0,1,.786,2.563ZM48.378-4.19a2.044,2.044,0,0,0-.4-1.33A1.348,1.348,0,0,0,46.881-6a1.539,1.539,0,0,0-1.159.5,2.28,2.28,0,0,0-.584,1.306ZM55.111-.075a2.748,2.748,0,0,1-1.224.232q-2.037,0-2.037-1.955V-5.756H50.682V-7h1.169V-8.62l1.586-.451V-7h1.675v1.244H53.437v3.5a1.379,1.379,0,0,0,.226.889.936.936,0,0,0,.752.267,1.09,1.09,0,0,0,.7-.232ZM61.852,0H60.313V-1.094h-.027A2.316,2.316,0,0,1,58.16.164,2.239,2.239,0,0,1,56.543-.4a1.961,1.961,0,0,1-.584-1.483q0-1.982,2.283-2.311l2.078-.294q0-1.5-1.422-1.5a3.378,3.378,0,0,0-2.256.861V-6.508A4.919,4.919,0,0,1,59.2-7.164a2.326,2.326,0,0,1,2.652,2.611ZM60.32-3.438l-1.47.205a2.33,2.33,0,0,0-1.029.332.969.969,0,0,0-.345.851.932.932,0,0,0,.318.728,1.231,1.231,0,0,0,.851.284,1.57,1.57,0,0,0,1.2-.509A1.806,1.806,0,0,0,60.32-2.83ZM64.586-8.47a.953.953,0,0,1-.667-.253.832.832,0,0,1-.277-.643.854.854,0,0,1,.277-.649.939.939,0,0,1,.667-.26.969.969,0,0,1,.684.26.849.849,0,0,1,.28.649.837.837,0,0,1-.28.632A.962.962,0,0,1,64.586-8.47ZM65.372,0H63.786V-7h1.586Zm3.664,0H67.443V-10.363h1.593Zm1.627-.219v-1.47a3.164,3.164,0,0,0,1.962.677q1.436,0,1.436-.848a.668.668,0,0,0-.123-.407,1.175,1.175,0,0,0-.332-.3,2.607,2.607,0,0,0-.492-.232q-.284-.1-.632-.232a6.694,6.694,0,0,1-.776-.362,2.344,2.344,0,0,1-.574-.434,1.639,1.639,0,0,1-.345-.55,2.026,2.026,0,0,1-.116-.718,1.659,1.659,0,0,1,.239-.892,2.079,2.079,0,0,1,.643-.649,3.081,3.081,0,0,1,.916-.4,4.194,4.194,0,0,1,1.06-.133,4.817,4.817,0,0,1,1.736.294v1.388a2.927,2.927,0,0,0-1.7-.506,2.214,2.214,0,0,0-.543.062,1.4,1.4,0,0,0-.414.171.841.841,0,0,0-.267.263.628.628,0,0,0-.1.338.723.723,0,0,0,.1.383.869.869,0,0,0,.284.277,2.451,2.451,0,0,0,.451.219q.263.1.6.215a8.839,8.839,0,0,1,.81.376,2.737,2.737,0,0,1,.612.434,1.7,1.7,0,0,1,.39.561,1.9,1.9,0,0,1,.137.755,1.727,1.727,0,0,1-.246.93,2.051,2.051,0,0,1-.656.656,3.072,3.072,0,0,1-.947.386,4.919,4.919,0,0,1-1.131.126A4.767,4.767,0,0,1,70.663-.219ZM0,1H76.1V2H0Z" transform="translate(345.6 227)" fill="#2777d3"/>
      <path id="Path_101133" data-name="Path 101133" d="M0,0H35V1H0Z" transform="translate(271 149)" fill="#c6318c"/>
      <circle id="Ellipse_2063" data-name="Ellipse 2063" cx="12" cy="12" r="12" transform="translate(247 110)" fill="#c6318c"/>
      <path id="Path_101134" data-name="Path 101134" d="M5.688-10.021V0H3.534V-7.588a2.579,2.579,0,0,1-.42.3,4.34,4.34,0,0,1-.516.253,4.608,4.608,0,0,1-.567.191,4.144,4.144,0,0,1-.581.113V-8.552a8.982,8.982,0,0,0,1.586-.629,9.025,9.025,0,0,0,1.347-.841Z" transform="translate(255 127)" fill="#fff" stroke="rgba(0,0,0,0)" stroke-width="1"/>
      <path id="Path_101135" data-name="Path 101135" d="M0,0H25V1H0Z" transform="translate(271 122)" fill="#c6318c"/>
      <path id="Path_101136" data-name="Path 101136" d="M0,0H45V1H0Z" transform="translate(363 92) rotate(90)" fill="#c6318c"/>
      <path id="Path_101137" data-name="Path 101137" d="M12,0A12,12,0,1,1,0,12,12,12,0,0,1,12,0Z" transform="translate(247 137)" fill="#c6318c"/>
      <path id="Path_101138" data-name="Path 101138" d="M2.933-1.791H7.089V0H.567V-.738A3.436,3.436,0,0,1,.82-2.088a4.48,4.48,0,0,1,.636-1.073A5.514,5.514,0,0,1,2.293-4q.455-.366.865-.66.431-.308.755-.588a4.3,4.3,0,0,0,.547-.557,2.118,2.118,0,0,0,.332-.561,1.667,1.667,0,0,0,.109-.6,1.216,1.216,0,0,0-.355-.95,1.58,1.58,0,0,0-1.087-.321,3.651,3.651,0,0,0-2.42,1v-1.9a5.2,5.2,0,0,1,2.885-.827,4.26,4.26,0,0,1,1.336.195,2.827,2.827,0,0,1,1,.557,2.376,2.376,0,0,1,.625.878A2.964,2.964,0,0,1,7.1-7.185a3.248,3.248,0,0,1-.208,1.2,3.7,3.7,0,0,1-.554.957,5.023,5.023,0,0,1-.8.79q-.451.359-.937.694-.328.232-.632.461a6,6,0,0,0-.537.451,2.449,2.449,0,0,0-.369.434A.749.749,0,0,0,2.933-1.791Z" transform="translate(255 153.967)" fill="#fff" stroke="rgba(0,0,0,0)" stroke-width="1"/>
      <path id="Path_101141" data-name="Path 101141" d="M12,0A12,12,0,1,1,0,12,12,12,0,0,1,12,0Z" transform="translate(350 68)" fill="#c6318c"/>
      <path id="Path_101142" data-name="Path 101142" d="M.8-.321V-2.2a3.794,3.794,0,0,0,2.3.718,2.068,2.068,0,0,0,1.289-.355,1.18,1.18,0,0,0,.461-.991,1.127,1.127,0,0,0-.571-1.012A2.957,2.957,0,0,0,2.707-4.2H1.8V-5.852h.841q1.914,0,1.914-1.271,0-1.2-1.47-1.2a3.351,3.351,0,0,0-1.914.636V-9.447a5.286,5.286,0,0,1,2.406-.52,3.631,3.631,0,0,1,2.341.677,2.154,2.154,0,0,1,.837,1.757A2.284,2.284,0,0,1,4.806-5.127v.034a2.649,2.649,0,0,1,1.641.755,2.13,2.13,0,0,1,.6,1.535,2.63,2.63,0,0,1-1,2.174,4.345,4.345,0,0,1-2.775.8A5.364,5.364,0,0,1,.8-.321Z" transform="translate(358.2 85)" fill="#fff" stroke="rgba(0,0,0,0)" stroke-width="1"/>
      <path id="Path_101132" data-name="Path 101132" d="M0,0H1V74.17H0Z" transform="translate(270.429 223) rotate(-90)" fill="#c6318c"/>
      <path id="Path_101139" data-name="Path 101139" d="M0,0H1V45H0Z" transform="translate(674 92)" fill="#c6318c"/>
      <path id="Path_101143" data-name="Path 101143" d="M12,0A12,12,0,1,1,0,12,12,12,0,0,1,12,0Z" transform="translate(247 210)" fill="#c6318c"/>
      <path id="Path_101144" data-name="Path 101144" d="M.971-.253V-2.1a4.03,4.03,0,0,0,2.14.615A2.01,2.01,0,0,0,4.447-1.89a1.369,1.369,0,0,0,.482-1.1q0-1.456-2.058-1.456a15.236,15.236,0,0,0-1.75.116L1.49-9.8H6.679v1.764H3.138L3-6.077q.526-.041.909-.041a3.343,3.343,0,0,1,2.365.793A2.769,2.769,0,0,1,7.13-3.192,3.148,3.148,0,0,1,6.111-.769,3.914,3.914,0,0,1,3.35.171,5.91,5.91,0,0,1,.971-.253Z" transform="translate(255.029 226.803)" fill="#fff"/>
      <path id="Path_101145" data-name="Path 101145" d="M12,0A12,12,0,1,1,0,12,12,12,0,0,1,12,0Z" transform="translate(662 68)" fill="#c6318c"/>
      <path id="Path_101146" data-name="Path 101146" d="M7.588-3.261a3.593,3.593,0,0,1-.253,1.354,3.3,3.3,0,0,1-.7,1.09,3.258,3.258,0,0,1-1.073.725A3.456,3.456,0,0,1,4.2.171a3.431,3.431,0,0,1-1.48-.308,2.987,2.987,0,0,1-1.1-.892,4.171,4.171,0,0,1-.69-1.432A7.077,7.077,0,0,1,.684-4.382,7.909,7.909,0,0,1,.995-6.675a5.266,5.266,0,0,1,.889-1.76,3.992,3.992,0,0,1,1.4-1.131,4.157,4.157,0,0,1,1.846-.4A4.655,4.655,0,0,1,6.891-9.7v1.8a3.234,3.234,0,0,0-1.627-.424,2.273,2.273,0,0,0-.991.212,2.191,2.191,0,0,0-.762.6,2.909,2.909,0,0,0-.5.94,4.183,4.183,0,0,0-.195,1.227h.041A2.377,2.377,0,0,1,4.915-6.3a2.681,2.681,0,0,1,1.1.219,2.388,2.388,0,0,1,.841.619,2.838,2.838,0,0,1,.54.96A3.832,3.832,0,0,1,7.588-3.261Zm-2.112.137Q5.476-4.7,4.184-4.7a1.268,1.268,0,0,0-.533.109,1.186,1.186,0,0,0-.41.308,1.4,1.4,0,0,0-.263.468,1.84,1.84,0,0,0-.092.6,2.313,2.313,0,0,0,.1.677,1.8,1.8,0,0,0,.27.55,1.337,1.337,0,0,0,.414.373,1.055,1.055,0,0,0,.533.137,1.154,1.154,0,0,0,.53-.12,1.186,1.186,0,0,0,.4-.335,1.54,1.54,0,0,0,.256-.52A2.37,2.37,0,0,0,5.476-3.124Z" transform="translate(670.316 84.967)" fill="#fff"/>
      <path id="Path_101149" data-name="Path 101149" d="M0,0H1V74.13H0Z" transform="translate(270.469 184) rotate(-90)" fill="#c6318c"/>
      <g id="Group_266258" data-name="Group 266258" transform="translate(-25 125)">
        <path id="Path_10280" data-name="Path 10280" d="M12,0A12,12,0,1,1,0,12,12,12,0,0,1,12,0Z" transform="translate(272 46)" fill="#c6318c"/>
        <path id="Path_10285" data-name="Path 10285" d="M6.508-9.8v6.18H7.684V-2.01H6.508V0H4.539V-2.01H.267V-3.7q.567-.636,1.176-1.391T2.618-6.645q.567-.8,1.056-1.61A16.138,16.138,0,0,0,4.5-9.8ZM2.2-3.623H4.539V-7.048q-.239.444-.52.9t-.588.9q-.308.441-.622.854T2.2-3.623Z" transform="translate(279.733 62.803)" fill="#fff"/>
      </g>
      <g id="Icon_link" data-name="Icon link" transform="translate(656 131)">
        <rect id="Rectangle_5240" data-name="Rectangle 5240" width="36" height="36" rx="18" fill="none"/>
        <g id="Remove" transform="translate(18 18)">
          <g id="Remove-2" data-name="Remove" transform="translate(-8 -8)">
            <path id="Path_101130" data-name="Path 101130" d="M12.8,11.4a.5.5,0,0,1,0,.7l-.7.7a.5.5,0,0,1-.7,0L8,9.4,4.6,12.8a.5.5,0,0,1-.7,0l-.7-.7a.5.5,0,0,1,0-.7L6.6,8,3.2,4.6a.5.5,0,0,1,0-.7l.7-.7a.5.5,0,0,1,.7,0L8,6.6l3.4-3.4a.5.5,0,0,1,.7,0l.7.7a.5.5,0,0,1,0,.7L9.4,8Z" fill="#303030"/>
            <rect id="Rectangle_10005" data-name="Rectangle 10005" width="16" height="16" fill="none"/>
          </g>
        </g>
      </g>
    </g>
  </g>
</svg>
