<svg xmlns="http://www.w3.org/2000/svg" xmlns:xlink="http://www.w3.org/1999/xlink" viewBox="0 0 564 535">
  <defs>
    <style>
      .cls-1 {
        clip-path: url(#clip-select_icon_specs);
      }

      .cls-2, .cls-6 {
        fill: #fff;
      }

      .cls-3 {
        fill: #3d3d3d;
      }

      .cls-4 {
        fill: none;
      }

      .cls-5 {
        fill: #7a7a7a;
      }

      .cls-7 {
        fill: #5b5b5b;
      }

      .cls-8 {
        fill: #b2b2b2;
      }

      .cls-10, .cls-9 {
        stroke: none;
      }

      .cls-10 {
        fill: #50a7ed;
      }

      .cls-11 {
        filter: url(#Path_6736);
      }
    </style>
    <filter id="Path_6736" x="123" y="126" width="318" height="316" filterUnits="userSpaceOnUse">
      <feOffset dy="3" input="SourceAlpha"/>
      <feGaussianBlur stdDeviation="3" result="blur"/>
      <feFlood flood-opacity="0.161"/>
      <feComposite operator="in" in2="blur"/>
      <feComposite in="SourceGraphic"/>
    </filter>
    <clipPath id="clip-select_icon_specs">
      <rect width="564" height="535"/>
    </clipPath>
  </defs>
  <g id="select_icon_specs" class="cls-1">
    <g id="Path_6734" data-name="Path 6734" class="cls-2" transform="translate(132 90)">
      <path class="cls-9" d="M 296 41 L 4 41 C 2.345807790756226 41 1 39.65419387817383 1 38 L 1 4 C 1 2.345807790756226 2.345807790756226 1 4 1 L 296 1 C 297.6542053222656 1 299 2.345807790756226 299 4 L 299 38 C 299 39.65419387817383 297.6542053222656 41 296 41 Z"/>
      <path class="cls-10" d="M 296 40 C 297.1028137207031 40 298 39.10280609130859 298 38 L 298 4 C 298 2.897192239761353 297.1028137207031 2 296 2 L 4 2 C 2.897192239761353 2 2 2.897192239761353 2 4 L 2 38 C 2 39.10280609130859 2.897192239761353 40 4 40 L 296 40 M 296 42 L 4 42 C 1.790884613990784 42 0 40.20915222167969 0 38 L 0 4 C 0 1.790846109390259 1.790884613990784 0 4 0 L 296 0 C 298.2091674804688 0 300 1.790846109390259 300 4 L 300 38 C 300 40.20915222167969 298.2091674804688 42 296 42 Z"/>
    </g>
    <path id="Path_6735" data-name="Path 6735" class="cls-3" d="M2.953-5.346H4.088A2.591,2.591,0,0,0,5.742-5.77a1.538,1.538,0,0,0,.513-1.258A1.354,1.354,0,0,0,5.7-8.244a3.036,3.036,0,0,0-1.668-.369H2.953Zm0,1.354V0H1.319V-9.994H4.143a4.639,4.639,0,0,1,2.864.725,2.6,2.6,0,0,1,.93,2.188A2.734,2.734,0,0,1,6-4.423L8.818,0H6.959L4.566-3.992ZM13.4.137A3.657,3.657,0,0,1,10.64-.892a3.906,3.906,0,0,1-.995-2.833,4.285,4.285,0,0,1,.923-2.912A3.188,3.188,0,0,1,13.1-7.7a3.116,3.116,0,0,1,2.365.909,3.474,3.474,0,0,1,.868,2.5v.868H11.3a2.483,2.483,0,0,0,.595,1.692,2.071,2.071,0,0,0,1.579.591,5.829,5.829,0,0,0,1.248-.126,6.539,6.539,0,0,0,1.241-.42V-.376a4.932,4.932,0,0,1-1.189.4A7.294,7.294,0,0,1,13.4.137ZM13.1-6.48A1.614,1.614,0,0,0,11.877-6a2.313,2.313,0,0,0-.55,1.415h3.432A2.093,2.093,0,0,0,14.308-6,1.543,1.543,0,0,0,13.1-6.48ZM21.212.137a3.31,3.31,0,0,1-2.608-1,4.184,4.184,0,0,1-.892-2.875,4.208,4.208,0,0,1,.933-2.933,3.461,3.461,0,0,1,2.7-1.025,5.054,5.054,0,0,1,2.153.444L23.01-5.961a4.865,4.865,0,0,0-1.682-.4q-1.962,0-1.962,2.6a3.119,3.119,0,0,0,.489,1.911,1.692,1.692,0,0,0,1.432.639,4.109,4.109,0,0,0,2.03-.533v1.4A3.173,3.173,0,0,1,22.4.027,5.517,5.517,0,0,1,21.212.137ZM26.7,0H25.095V-7.561H26.7ZM25-9.563a.889.889,0,0,1,.236-.663.919.919,0,0,1,.673-.232.9.9,0,0,1,.66.232.889.889,0,0,1,.236.663.873.873,0,0,1-.236.646.892.892,0,0,1-.66.236.911.911,0,0,1-.673-.236A.873.873,0,0,1,25-9.563Zm7.834,9.7A2.648,2.648,0,0,1,30.6-.9h-.1q.1.957.1,1.162v3.1H29V-7.561h1.3q.055.212.226,1.012H30.6A2.517,2.517,0,0,1,32.86-7.7a2.624,2.624,0,0,1,2.2,1.025,4.623,4.623,0,0,1,.79,2.878,4.627,4.627,0,0,1-.8,2.892A2.648,2.648,0,0,1,32.833.137Zm-.39-6.521a1.67,1.67,0,0,0-1.4.561A2.905,2.905,0,0,0,30.6-4.033v.239a3.536,3.536,0,0,0,.438,2,1.627,1.627,0,0,0,1.429.619,1.45,1.45,0,0,0,1.285-.684,3.53,3.53,0,0,0,.451-1.948,3.406,3.406,0,0,0-.448-1.924A1.494,1.494,0,0,0,32.443-6.385ZM39.327,0H37.721V-7.561h1.606Zm-1.7-9.563a.889.889,0,0,1,.236-.663.919.919,0,0,1,.673-.232.9.9,0,0,1,.66.232.889.889,0,0,1,.236.663.873.873,0,0,1-.236.646.892.892,0,0,1-.66.236.911.911,0,0,1-.673-.236A.873.873,0,0,1,37.625-9.563Zm7.3,9.7A3.657,3.657,0,0,1,42.167-.892a3.906,3.906,0,0,1-.995-2.833A4.285,4.285,0,0,1,42.1-6.638,3.188,3.188,0,0,1,44.632-7.7,3.116,3.116,0,0,1,47-6.788a3.474,3.474,0,0,1,.868,2.5v.868H42.827a2.483,2.483,0,0,0,.595,1.692A2.071,2.071,0,0,0,45-1.135a5.829,5.829,0,0,0,1.248-.126,6.539,6.539,0,0,0,1.241-.42V-.376a4.932,4.932,0,0,1-1.189.4A7.294,7.294,0,0,1,44.926.137ZM44.632-6.48A1.614,1.614,0,0,0,43.4-6a2.313,2.313,0,0,0-.55,1.415h3.432A2.093,2.093,0,0,0,45.835-6,1.543,1.543,0,0,0,44.632-6.48ZM56.342,0H54.729V-4.648a2.034,2.034,0,0,0-.352-1.306,1.361,1.361,0,0,0-1.118-.431,1.777,1.777,0,0,0-1.49.6A3.321,3.321,0,0,0,51.3-3.767V0H49.69V-7.561h1.258l.226.991h.082a2.237,2.237,0,0,1,.971-.834A3.253,3.253,0,0,1,53.621-7.7q2.721,0,2.721,2.769Zm5.052-1.162a3.907,3.907,0,0,0,1.176-.185v1.21a3.243,3.243,0,0,1-.687.195,4.733,4.733,0,0,1-.872.079q-2.283,0-2.283-2.406V-6.344H57.7v-.711L58.8-7.643l.547-1.6h.991v1.682h2.153v1.217H60.341V-2.3a1.135,1.135,0,0,0,.291.858A1.059,1.059,0,0,0,61.394-1.162Z" transform="translate(132 82)"/>
    <g id="Group_7859" data-name="Group 7859" transform="translate(-420 -1608)">
      <rect id="Rectangle_3867" data-name="Rectangle 3867" class="cls-4" width="24" height="24" transform="translate(816 1707)"/>
      <path id="Path_5558" data-name="Path 5558" class="cls-5" d="M56,9.4l-3,3-3-3a.967.967,0,0,0-1.4,0h0a.967.967,0,0,0,0,1.4l3.7,3.7a.967.967,0,0,0,1.4,0l3.7-3.7a.967.967,0,0,0,0-1.4h0A.965.965,0,0,0,56,9.4Z" transform="translate(881 1730.9) rotate(180)"/>
    </g>
    <g class="cls-11" transform="matrix(1, 0, 0, 1, 0, 0)">
      <path id="Path_6736-2" data-name="Path 6736" class="cls-6" d="M4,0H296a4,4,0,0,1,4,4V294a4,4,0,0,1-4,4H4a4,4,0,0,1-4-4V4A4,4,0,0,1,4,0Z" transform="translate(132 132)"/>
    </g>
    <path id="Path_6737" data-name="Path 6737" class="cls-4" d="M0,0H300V36H0Z" transform="translate(132 173)"/>
    <path id="Path_6738" data-name="Path 6738" class="cls-4" d="M0,0H300V36H0Z" transform="translate(132 137)"/>
    <path id="Path_6739" data-name="Path 6739" class="cls-4" d="M0,0H300V36H0Z" transform="translate(132 209)"/>
    <path id="Path_6740" data-name="Path 6740" class="cls-4" d="M0,0H300V36H0Z" transform="translate(132 245)"/>
    <path id="Path_6741" data-name="Path 6741" class="cls-4" d="M0,0H300V36H0Z" transform="translate(132 281)"/>
    <path id="Path_6742" data-name="Path 6742" class="cls-4" d="M0,0H300V36H0Z" transform="translate(132 317)"/>
    <path id="Path_6750" data-name="Path 6750" class="cls-4" d="M0,0H300V36H0Z" transform="translate(132 353)"/>
    <path id="Path_6752" data-name="Path 6752" class="cls-4" d="M0,0H300V36H0Z" transform="translate(132 389)"/>
    <path id="Path_6743" data-name="Path 6743" class="cls-3" d="M0,0H1V18H0Z" transform="translate(146 102)"/>
    <path id="Path_6744" data-name="Path 6744" class="cls-7" d="M7.656,0,6.412-3.179H2.406L1.176,0H0L3.951-10.035h.978L8.859,0ZM6.05-4.225l-1.162-3.1q-.226-.588-.465-1.442a12.952,12.952,0,0,1-.431,1.442l-1.176,3.1Zm4.184-5.77h2.823a5.327,5.327,0,0,1,2.878.595,2.1,2.1,0,0,1,.889,1.88,2.172,2.172,0,0,1-.5,1.466,2.386,2.386,0,0,1-1.446.749v.068q2.276.39,2.276,2.393a2.57,2.57,0,0,1-.906,2.092A3.855,3.855,0,0,1,13.72,0H10.233ZM11.4-5.715H13.31A3.116,3.116,0,0,0,15.08-6.1a1.491,1.491,0,0,0,.54-1.3,1.318,1.318,0,0,0-.6-1.213A3.759,3.759,0,0,0,13.1-8.989H11.4Zm0,.984V-.991H13.48A2.97,2.97,0,0,0,15.3-1.459a1.729,1.729,0,0,0,.612-1.466,1.553,1.553,0,0,0-.625-1.367,3.343,3.343,0,0,0-1.9-.437ZM23.584-9.1a3.268,3.268,0,0,0-2.6,1.1,4.426,4.426,0,0,0-.954,3,4.514,4.514,0,0,0,.919,3.032A3.268,3.268,0,0,0,23.57-.9a8.951,8.951,0,0,0,2.386-.376V-.253a7.347,7.347,0,0,1-2.563.39A4.337,4.337,0,0,1,19.985-1.2a5.518,5.518,0,0,1-1.2-3.808,6.01,6.01,0,0,1,.578-2.707,4.147,4.147,0,0,1,1.668-1.791,5.049,5.049,0,0,1,2.567-.629,6.194,6.194,0,0,1,2.748.574l-.492,1A5.3,5.3,0,0,0,23.584-9.1Zm12.469,0a3.268,3.268,0,0,0-2.6,1.1A4.426,4.426,0,0,0,32.5-5a4.514,4.514,0,0,0,.919,3.032A3.268,3.268,0,0,0,36.039-.9a8.951,8.951,0,0,0,2.386-.376V-.253a7.347,7.347,0,0,1-2.563.39A4.337,4.337,0,0,1,32.454-1.2a5.518,5.518,0,0,1-1.2-3.808,6.01,6.01,0,0,1,.578-2.707A4.147,4.147,0,0,1,33.5-9.509a5.049,5.049,0,0,1,2.567-.629,6.194,6.194,0,0,1,2.748.574l-.492,1A5.3,5.3,0,0,0,36.053-9.1ZM46.9-3.753a4.133,4.133,0,0,1-.923,2.861A3.25,3.25,0,0,1,43.429.137a3.377,3.377,0,0,1-1.784-.472,3.113,3.113,0,0,1-1.2-1.354,4.717,4.717,0,0,1-.424-2.064,4.127,4.127,0,0,1,.916-2.854,3.24,3.24,0,0,1,2.543-1.022,3.169,3.169,0,0,1,2.5,1.046A4.115,4.115,0,0,1,46.9-3.753Zm-5.708,0a3.556,3.556,0,0,0,.574,2.188,1.993,1.993,0,0,0,1.688.752,2.006,2.006,0,0,0,1.692-.749,3.538,3.538,0,0,0,.578-2.191,3.481,3.481,0,0,0-.578-2.17,2.03,2.03,0,0,0-1.706-.742,2,2,0,0,0-1.682.731A3.52,3.52,0,0,0,41.193-3.753ZM58.44,0V-4.874a2.023,2.023,0,0,0-.383-1.343,1.481,1.481,0,0,0-1.189-.448,1.92,1.92,0,0,0-1.565.608A2.891,2.891,0,0,0,54.8-4.184V0H53.662V-4.874a2.023,2.023,0,0,0-.383-1.343,1.49,1.49,0,0,0-1.2-.448,1.853,1.853,0,0,0-1.562.639,3.459,3.459,0,0,0-.5,2.1V0H48.891V-7.492h.923L50-6.467h.055a2.23,2.23,0,0,1,.906-.854,2.767,2.767,0,0,1,1.309-.308,2.226,2.226,0,0,1,2.3,1.271h.055a2.389,2.389,0,0,1,.971-.93,3.012,3.012,0,0,1,1.449-.342,2.537,2.537,0,0,1,1.9.653,2.921,2.921,0,0,1,.632,2.088V0ZM65.4.137a3.242,3.242,0,0,1-1.336-.27,2.513,2.513,0,0,1-1.015-.831h-.082A10.049,10.049,0,0,1,63.048.28V3.363H61.913V-7.492h.923l.157,1.025h.055a2.635,2.635,0,0,1,1.019-.889A3.1,3.1,0,0,1,65.4-7.629,2.769,2.769,0,0,1,67.7-6.61a4.484,4.484,0,0,1,.81,2.857,4.458,4.458,0,0,1-.824,2.868A2.774,2.774,0,0,1,65.4.137Zm-.164-6.8a2.011,2.011,0,0,0-1.661.636,3.271,3.271,0,0,0-.526,2.023v.253a3.749,3.749,0,0,0,.526,2.259,2,2,0,0,0,1.688.68A1.756,1.756,0,0,0,66.784-1.6a3.728,3.728,0,0,0,.55-2.167,3.588,3.588,0,0,0-.55-2.15A1.81,1.81,0,0,0,65.235-6.665ZM75.1,0l-.226-1.066h-.055A3.153,3.153,0,0,1,73.7-.113a3.407,3.407,0,0,1-1.391.25,2.5,2.5,0,0,1-1.747-.574,2.094,2.094,0,0,1-.632-1.634q0-2.27,3.63-2.379l1.271-.041v-.465a1.9,1.9,0,0,0-.379-1.3,1.56,1.56,0,0,0-1.213-.42,4.944,4.944,0,0,0-2.119.574l-.349-.868a5.332,5.332,0,0,1,1.213-.472,5.255,5.255,0,0,1,1.323-.171,2.854,2.854,0,0,1,1.986.595,2.482,2.482,0,0,1,.646,1.907V0ZM72.536-.8A2.3,2.3,0,0,0,74.2-1.381a2.15,2.15,0,0,0,.6-1.627v-.677l-1.135.048a4.128,4.128,0,0,0-1.952.42,1.268,1.268,0,0,0-.6,1.159,1.169,1.169,0,0,0,.373.937A1.546,1.546,0,0,0,72.536-.8ZM83.405,0V-4.847a1.955,1.955,0,0,0-.417-1.367,1.7,1.7,0,0,0-1.306-.451,2.153,2.153,0,0,0-1.723.636,3.21,3.21,0,0,0-.547,2.1V0H78.278V-7.492H79.2l.185,1.025h.055a2.317,2.317,0,0,1,.978-.858,3.176,3.176,0,0,1,1.4-.3,2.846,2.846,0,0,1,2.037.653,2.778,2.778,0,0,1,.684,2.088V0Zm2.276-7.492H86.9L88.539-3.22a16.251,16.251,0,0,1,.67,2.112h.055q.089-.349.373-1.193t1.856-5.192h1.217l-3.22,8.531a4.256,4.256,0,0,1-1.118,1.794,2.377,2.377,0,0,1-1.569.53,4.565,4.565,0,0,1-1.025-.116V2.338a3.955,3.955,0,0,0,.841.082,1.733,1.733,0,0,0,1.668-1.312L88.7.041Z" transform="translate(182 159)"/>
    <path id="Path_6745" data-name="Path 6745" class="cls-7" d="M1.374-9.994H4.2A5.327,5.327,0,0,1,7.075-9.4a2.1,2.1,0,0,1,.889,1.88,2.172,2.172,0,0,1-.5,1.466A2.386,2.386,0,0,1,6.022-5.3v.068Q8.3-4.847,8.3-2.844A2.57,2.57,0,0,1,7.393-.752,3.855,3.855,0,0,1,4.86,0H1.374ZM2.536-5.715H4.45A3.116,3.116,0,0,0,6.221-6.1a1.491,1.491,0,0,0,.54-1.3,1.318,1.318,0,0,0-.6-1.213,3.759,3.759,0,0,0-1.914-.373H2.536Zm0,.984V-.991H4.621a2.97,2.97,0,0,0,1.822-.468,1.729,1.729,0,0,0,.612-1.466,1.553,1.553,0,0,0-.625-1.367,3.343,3.343,0,0,0-1.9-.437Zm11.156-2.9a4.44,4.44,0,0,1,.9.082l-.157,1.053a3.865,3.865,0,0,0-.82-.1,2,2,0,0,0-1.555.738,2.692,2.692,0,0,0-.646,1.839V0H10.274V-7.492h.937l.13,1.388H11.4a3.293,3.293,0,0,1,1-1.128A2.262,2.262,0,0,1,13.692-7.629Zm1.107.137h1.217L17.657-3.22a16.251,16.251,0,0,1,.67,2.112h.055q.089-.349.373-1.193T20.61-7.492h1.217l-3.22,8.531A4.256,4.256,0,0,1,17.49,2.833a2.377,2.377,0,0,1-1.569.53A4.565,4.565,0,0,1,14.9,3.247V2.338a3.955,3.955,0,0,0,.841.082A1.733,1.733,0,0,0,17.4,1.107L17.821.041ZM27.651,0l-.226-1.066h-.055a3.153,3.153,0,0,1-1.118.954,3.407,3.407,0,0,1-1.391.25,2.5,2.5,0,0,1-1.747-.574,2.094,2.094,0,0,1-.632-1.634q0-2.27,3.63-2.379l1.271-.041v-.465a1.9,1.9,0,0,0-.379-1.3,1.56,1.56,0,0,0-1.213-.42,4.944,4.944,0,0,0-2.119.574l-.349-.868a5.332,5.332,0,0,1,1.213-.472,5.255,5.255,0,0,1,1.323-.171,2.854,2.854,0,0,1,1.986.595,2.482,2.482,0,0,1,.646,1.907V0ZM25.088-.8a2.3,2.3,0,0,0,1.665-.581,2.15,2.15,0,0,0,.6-1.627v-.677l-1.135.048a4.128,4.128,0,0,0-1.952.42,1.268,1.268,0,0,0-.6,1.159,1.169,1.169,0,0,0,.373.937A1.546,1.546,0,0,0,25.088-.8ZM35.957,0V-4.847a1.955,1.955,0,0,0-.417-1.367,1.7,1.7,0,0,0-1.306-.451,2.153,2.153,0,0,0-1.723.636,3.21,3.21,0,0,0-.547,2.1V0H30.83V-7.492h.923l.185,1.025h.055a2.317,2.317,0,0,1,.978-.858,3.176,3.176,0,0,1,1.4-.3,2.846,2.846,0,0,1,2.037.653,2.778,2.778,0,0,1,.684,2.088V0ZM49.513,0,48.269-3.179H44.263L43.032,0H41.856l3.951-10.035h.978L50.716,0ZM47.906-4.225l-1.162-3.1q-.226-.588-.465-1.442a12.953,12.953,0,0,1-.431,1.442l-1.176,3.1ZM57.019-1h-.062A2.666,2.666,0,0,1,54.605.137a2.782,2.782,0,0,1-2.287-1A4.423,4.423,0,0,1,51.5-3.726a4.5,4.5,0,0,1,.82-2.878,2.76,2.76,0,0,1,2.283-1.025,2.724,2.724,0,0,1,2.338,1.107h.089l-.048-.54-.027-.526v-3.049h1.135V0h-.923Zm-2.27.191a2.066,2.066,0,0,0,1.685-.632,3.2,3.2,0,0,0,.523-2.041v-.239A3.76,3.76,0,0,0,56.427-6a2.012,2.012,0,0,0-1.692-.68,1.737,1.737,0,0,0-1.528.776,3.858,3.858,0,0,0-.53,2.191A3.7,3.7,0,0,0,53.2-1.545,1.783,1.783,0,0,0,54.749-.813ZM65.105,0,64.88-1.066h-.055a3.153,3.153,0,0,1-1.118.954,3.407,3.407,0,0,1-1.391.25A2.5,2.5,0,0,1,60.57-.437a2.094,2.094,0,0,1-.632-1.634q0-2.27,3.63-2.379l1.271-.041v-.465a1.9,1.9,0,0,0-.379-1.3,1.56,1.56,0,0,0-1.213-.42,4.944,4.944,0,0,0-2.119.574l-.349-.868a5.332,5.332,0,0,1,1.213-.472,5.255,5.255,0,0,1,1.323-.171,2.854,2.854,0,0,1,1.986.595,2.482,2.482,0,0,1,.646,1.907V0ZM62.542-.8a2.3,2.3,0,0,0,1.665-.581,2.15,2.15,0,0,0,.6-1.627v-.677l-1.135.048a4.128,4.128,0,0,0-1.952.42,1.268,1.268,0,0,0-.6,1.159,1.169,1.169,0,0,0,.373.937A1.546,1.546,0,0,0,62.542-.8ZM77.834,0V-4.874a2.023,2.023,0,0,0-.383-1.343,1.481,1.481,0,0,0-1.189-.448,1.92,1.92,0,0,0-1.565.608,2.891,2.891,0,0,0-.506,1.873V0H73.056V-4.874a2.023,2.023,0,0,0-.383-1.343,1.49,1.49,0,0,0-1.2-.448,1.853,1.853,0,0,0-1.562.639,3.459,3.459,0,0,0-.5,2.1V0H68.284V-7.492h.923l.185,1.025h.055a2.23,2.23,0,0,1,.906-.854,2.767,2.767,0,0,1,1.309-.308,2.226,2.226,0,0,1,2.3,1.271h.055a2.389,2.389,0,0,1,.971-.93,3.012,3.012,0,0,1,1.449-.342,2.537,2.537,0,0,1,1.9.653,2.921,2.921,0,0,1,.632,2.088V0ZM86.14-2.044A1.877,1.877,0,0,1,85.36-.431a3.663,3.663,0,0,1-2.187.567,4.757,4.757,0,0,1-2.324-.472V-1.388a5.621,5.621,0,0,0,1.159.431A4.839,4.839,0,0,0,83.2-.8a2.705,2.705,0,0,0,1.367-.284.938.938,0,0,0,.479-.865.939.939,0,0,0-.379-.749,5.968,5.968,0,0,0-1.48-.735,8.025,8.025,0,0,1-1.487-.68,2.031,2.031,0,0,1-.656-.66,1.72,1.72,0,0,1-.215-.882A1.681,1.681,0,0,1,81.573-7.1a3.472,3.472,0,0,1,2.044-.53,5.98,5.98,0,0,1,2.365.492l-.4.923a5.429,5.429,0,0,0-2.044-.465,2.352,2.352,0,0,0-1.217.253.782.782,0,0,0-.41.7.849.849,0,0,0,.154.513,1.518,1.518,0,0,0,.5.4,11.076,11.076,0,0,0,1.313.554,4.9,4.9,0,0,1,1.8.978A1.724,1.724,0,0,1,86.14-2.044Z" transform="translate(183 195)"/>
    <path id="Path_6746" data-name="Path 6746" class="cls-7" d="M-.082,2.632a2.292,2.292,0,0,1-1.012-.185V1.456a3.714,3.714,0,0,0,1.012.137,1.281,1.281,0,0,0,1.029-.41A1.766,1.766,0,0,0,1.3,0V-9.994H2.461V-.1A2.867,2.867,0,0,1,1.8,1.917,2.434,2.434,0,0,1-.082,2.632ZM6.009-7.492v4.86a1.955,1.955,0,0,0,.417,1.367,1.7,1.7,0,0,0,1.306.451,2.13,2.13,0,0,0,1.719-.643,3.241,3.241,0,0,0,.543-2.1V-7.492h1.135V0h-.937l-.164-1H9.967A2.262,2.262,0,0,1,9-.157,3.251,3.251,0,0,1,7.588.137,2.864,2.864,0,0,1,5.541-.513a2.764,2.764,0,0,1-.68-2.078v-4.9ZM18.143,0l-.226-1.066h-.055a3.153,3.153,0,0,1-1.118.954,3.407,3.407,0,0,1-1.391.25,2.5,2.5,0,0,1-1.747-.574,2.094,2.094,0,0,1-.632-1.634q0-2.27,3.63-2.379l1.271-.041v-.465a1.9,1.9,0,0,0-.379-1.3,1.56,1.56,0,0,0-1.213-.42,4.944,4.944,0,0,0-2.119.574l-.349-.868a5.332,5.332,0,0,1,1.213-.472,5.255,5.255,0,0,1,1.323-.171,2.854,2.854,0,0,1,1.986.595,2.482,2.482,0,0,1,.646,1.907V0ZM15.579-.8a2.3,2.3,0,0,0,1.665-.581,2.15,2.15,0,0,0,.6-1.627v-.677l-1.135.048a4.128,4.128,0,0,0-1.952.42,1.268,1.268,0,0,0-.6,1.159,1.169,1.169,0,0,0,.373.937A1.546,1.546,0,0,0,15.579-.8ZM26.448,0V-4.847a1.955,1.955,0,0,0-.417-1.367,1.7,1.7,0,0,0-1.306-.451A2.153,2.153,0,0,0,23-6.029a3.21,3.21,0,0,0-.547,2.1V0H21.321V-7.492h.923l.185,1.025h.055a2.317,2.317,0,0,1,.978-.858,3.176,3.176,0,0,1,1.4-.3,2.846,2.846,0,0,1,2.037.653,2.778,2.778,0,0,1,.684,2.088V0ZM40,0,38.76-3.179H34.754L33.523,0H32.348L36.3-10.035h.978L41.207,0ZM38.4-4.225l-1.162-3.1q-.226-.588-.465-1.442a12.953,12.953,0,0,1-.431,1.442l-1.176,3.1ZM51.96,0V-4.874a2.023,2.023,0,0,0-.383-1.343,1.481,1.481,0,0,0-1.189-.448,1.92,1.92,0,0,0-1.565.608,2.891,2.891,0,0,0-.506,1.873V0H47.182V-4.874A2.023,2.023,0,0,0,46.8-6.217a1.49,1.49,0,0,0-1.2-.448,1.853,1.853,0,0,0-1.562.639,3.459,3.459,0,0,0-.5,2.1V0H42.41V-7.492h.923l.185,1.025h.055a2.23,2.23,0,0,1,.906-.854,2.767,2.767,0,0,1,1.309-.308,2.226,2.226,0,0,1,2.3,1.271h.055a2.389,2.389,0,0,1,.971-.93,3.012,3.012,0,0,1,1.449-.342,2.537,2.537,0,0,1,1.9.653,2.921,2.921,0,0,1,.632,2.088V0Zm8.08,0-.226-1.066H59.76a3.153,3.153,0,0,1-1.118.954,3.407,3.407,0,0,1-1.391.25A2.5,2.5,0,0,1,55.5-.437a2.094,2.094,0,0,1-.632-1.634q0-2.27,3.63-2.379l1.271-.041v-.465a1.9,1.9,0,0,0-.379-1.3,1.56,1.56,0,0,0-1.213-.42,4.944,4.944,0,0,0-2.119.574l-.349-.868a5.332,5.332,0,0,1,1.213-.472,5.255,5.255,0,0,1,1.323-.171,2.854,2.854,0,0,1,1.986.595,2.482,2.482,0,0,1,.646,1.907V0ZM57.477-.8a2.3,2.3,0,0,0,1.665-.581,2.15,2.15,0,0,0,.6-1.627v-.677l-1.135.048a4.128,4.128,0,0,0-1.952.42,1.268,1.268,0,0,0-.6,1.159,1.169,1.169,0,0,0,.373.937A1.546,1.546,0,0,0,57.477-.8ZM68.318-1h-.062A2.666,2.666,0,0,1,65.905.137a2.782,2.782,0,0,1-2.287-1A4.423,4.423,0,0,1,62.8-3.726a4.5,4.5,0,0,1,.82-2.878,2.76,2.76,0,0,1,2.283-1.025,2.724,2.724,0,0,1,2.338,1.107h.089l-.048-.54-.027-.526v-3.049h1.135V0h-.923Zm-2.27.191a2.066,2.066,0,0,0,1.685-.632,3.2,3.2,0,0,0,.523-2.041v-.239A3.76,3.76,0,0,0,67.727-6a2.012,2.012,0,0,0-1.692-.68,1.737,1.737,0,0,0-1.528.776,3.858,3.858,0,0,0-.53,2.191A3.7,3.7,0,0,0,64.5-1.545,1.783,1.783,0,0,0,66.049-.813ZM78.265-3.753a4.133,4.133,0,0,1-.923,2.861A3.25,3.25,0,0,1,74.792.137a3.377,3.377,0,0,1-1.784-.472,3.113,3.113,0,0,1-1.2-1.354,4.717,4.717,0,0,1-.424-2.064A4.127,4.127,0,0,1,72.3-6.607,3.24,3.24,0,0,1,74.84-7.629a3.169,3.169,0,0,1,2.5,1.046A4.115,4.115,0,0,1,78.265-3.753Zm-5.708,0a3.556,3.556,0,0,0,.574,2.188,1.993,1.993,0,0,0,1.688.752,2.006,2.006,0,0,0,1.692-.749,3.538,3.538,0,0,0,.578-2.191,3.481,3.481,0,0,0-.578-2.17,2.03,2.03,0,0,0-1.706-.742,2,2,0,0,0-1.682.731A3.52,3.52,0,0,0,72.557-3.753Z" transform="translate(182 231)"/>
    <path id="Path_6747" data-name="Path 6747" class="cls-7" d="M5.653-9.1A3.268,3.268,0,0,0,3.052-8,4.426,4.426,0,0,0,2.1-5a4.514,4.514,0,0,0,.919,3.032A3.268,3.268,0,0,0,5.64-.9a8.951,8.951,0,0,0,2.386-.376V-.253a7.347,7.347,0,0,1-2.563.39A4.337,4.337,0,0,1,2.054-1.2a5.518,5.518,0,0,1-1.2-3.808,6.01,6.01,0,0,1,.578-2.707A4.147,4.147,0,0,1,3.1-9.509a5.049,5.049,0,0,1,2.567-.629,6.194,6.194,0,0,1,2.748.574l-.492,1A5.3,5.3,0,0,0,5.653-9.1ZM15.162,0V-4.847a1.955,1.955,0,0,0-.417-1.367,1.7,1.7,0,0,0-1.306-.451,2.139,2.139,0,0,0-1.726.643,3.255,3.255,0,0,0-.543,2.105V0H10.035V-10.637H11.17v3.22a7.015,7.015,0,0,1-.055.964h.068a2.314,2.314,0,0,1,.954-.851,3.1,3.1,0,0,1,1.412-.311,2.891,2.891,0,0,1,2.061.653A2.749,2.749,0,0,1,16.3-4.888V0Zm8.073,0L23.01-1.066h-.055a3.153,3.153,0,0,1-1.118.954,3.407,3.407,0,0,1-1.391.25A2.5,2.5,0,0,1,18.7-.437a2.094,2.094,0,0,1-.632-1.634q0-2.27,3.63-2.379l1.271-.041v-.465a1.9,1.9,0,0,0-.379-1.3,1.56,1.56,0,0,0-1.213-.42,4.944,4.944,0,0,0-2.119.574l-.349-.868a5.332,5.332,0,0,1,1.213-.472,5.255,5.255,0,0,1,1.323-.171,2.854,2.854,0,0,1,1.986.595,2.482,2.482,0,0,1,.646,1.907V0ZM20.672-.8a2.3,2.3,0,0,0,1.665-.581,2.15,2.15,0,0,0,.6-1.627v-.677l-1.135.048a4.128,4.128,0,0,0-1.952.42,1.268,1.268,0,0,0-.6,1.159,1.169,1.169,0,0,0,.373.937A1.546,1.546,0,0,0,20.672-.8ZM31.514-1h-.062A2.666,2.666,0,0,1,29.1.137a2.782,2.782,0,0,1-2.287-1A4.423,4.423,0,0,1,26-3.726a4.5,4.5,0,0,1,.82-2.878A2.76,2.76,0,0,1,29.1-7.629a2.724,2.724,0,0,1,2.338,1.107h.089l-.048-.54-.027-.526v-3.049h1.135V0h-.923Zm-2.27.191a2.066,2.066,0,0,0,1.685-.632,3.2,3.2,0,0,0,.523-2.041v-.239A3.76,3.76,0,0,0,30.922-6a2.012,2.012,0,0,0-1.692-.68A1.737,1.737,0,0,0,27.7-5.9a3.858,3.858,0,0,0-.53,2.191A3.7,3.7,0,0,0,27.7-1.545,1.783,1.783,0,0,0,29.244-.813ZM45.083,0,43.839-3.179H39.833L38.6,0H37.427l3.951-10.035h.978L46.286,0ZM43.477-4.225l-1.162-3.1q-.226-.588-.465-1.442a12.953,12.953,0,0,1-.431,1.442l-1.176,3.1ZM52.616,0V-4.847A1.955,1.955,0,0,0,52.2-6.214a1.7,1.7,0,0,0-1.306-.451,2.153,2.153,0,0,0-1.723.636,3.21,3.21,0,0,0-.547,2.1V0H47.489V-7.492h.923L48.6-6.467h.055a2.317,2.317,0,0,1,.978-.858,3.176,3.176,0,0,1,1.4-.3,2.846,2.846,0,0,1,2.037.653,2.778,2.778,0,0,1,.684,2.088V0Zm8.565-1H61.12A2.666,2.666,0,0,1,58.769.137a2.782,2.782,0,0,1-2.287-1,4.423,4.423,0,0,1-.817-2.857,4.5,4.5,0,0,1,.82-2.878,2.76,2.76,0,0,1,2.283-1.025,2.724,2.724,0,0,1,2.338,1.107H61.2l-.048-.54-.027-.526v-3.049h1.135V0h-.923Zm-2.27.191A2.066,2.066,0,0,0,60.6-1.446a3.2,3.2,0,0,0,.523-2.041v-.239A3.76,3.76,0,0,0,60.59-6a2.012,2.012,0,0,0-1.692-.68,1.737,1.737,0,0,0-1.528.776,3.858,3.858,0,0,0-.53,2.191,3.7,3.7,0,0,0,.526,2.167A1.783,1.783,0,0,0,58.912-.813Zm8.914.95A3.442,3.442,0,0,1,65.2-.875a3.917,3.917,0,0,1-.96-2.81,4.344,4.344,0,0,1,.892-2.878,2.963,2.963,0,0,1,2.4-1.066,2.825,2.825,0,0,1,2.229.926,3.55,3.55,0,0,1,.82,2.444v.718H65.42a2.97,2.97,0,0,0,.667,2,2.305,2.305,0,0,0,1.781.684A6.035,6.035,0,0,0,70.26-1.36V-.349a6.005,6.005,0,0,1-1.138.373A6.4,6.4,0,0,1,67.826.137Zm-.308-6.815a1.853,1.853,0,0,0-1.439.588,2.71,2.71,0,0,0-.632,1.627h3.917a2.5,2.5,0,0,0-.479-1.644A1.684,1.684,0,0,0,67.519-6.679Zm8.415-.95a4.44,4.44,0,0,1,.9.082l-.157,1.053a3.865,3.865,0,0,0-.82-.1,2,2,0,0,0-1.555.738A2.692,2.692,0,0,0,73.65-4.02V0H72.516V-7.492h.937l.13,1.388h.055a3.293,3.293,0,0,1,1-1.128A2.262,2.262,0,0,1,75.934-7.629Zm7.13,5.585a1.877,1.877,0,0,1-.779,1.613A3.663,3.663,0,0,1,80.1.137a4.757,4.757,0,0,1-2.324-.472V-1.388a5.621,5.621,0,0,0,1.159.431A4.839,4.839,0,0,0,80.124-.8a2.705,2.705,0,0,0,1.367-.284.938.938,0,0,0,.479-.865A.939.939,0,0,0,81.59-2.7a5.968,5.968,0,0,0-1.48-.735,8.025,8.025,0,0,1-1.487-.68,2.031,2.031,0,0,1-.656-.66,1.72,1.72,0,0,1-.215-.882A1.681,1.681,0,0,1,78.5-7.1a3.472,3.472,0,0,1,2.044-.53,5.98,5.98,0,0,1,2.365.492l-.4.923a5.429,5.429,0,0,0-2.044-.465,2.352,2.352,0,0,0-1.217.253.782.782,0,0,0-.41.7.849.849,0,0,0,.154.513,1.518,1.518,0,0,0,.5.4,11.076,11.076,0,0,0,1.313.554,4.9,4.9,0,0,1,1.8.978A1.724,1.724,0,0,1,83.063-2.044Zm8.313-1.709a4.133,4.133,0,0,1-.923,2.861A3.25,3.25,0,0,1,87.9.137a3.377,3.377,0,0,1-1.784-.472,3.113,3.113,0,0,1-1.2-1.354,4.717,4.717,0,0,1-.424-2.064,4.127,4.127,0,0,1,.916-2.854,3.24,3.24,0,0,1,2.543-1.022,3.169,3.169,0,0,1,2.5,1.046A4.115,4.115,0,0,1,91.376-3.753Zm-5.708,0a3.556,3.556,0,0,0,.574,2.188,1.993,1.993,0,0,0,1.688.752,2.006,2.006,0,0,0,1.692-.749A3.538,3.538,0,0,0,90.2-3.753a3.481,3.481,0,0,0-.578-2.17,2.03,2.03,0,0,0-1.706-.742,2,2,0,0,0-1.682.731A3.52,3.52,0,0,0,85.668-3.753ZM98.492,0V-4.847a1.955,1.955,0,0,0-.417-1.367,1.7,1.7,0,0,0-1.306-.451,2.153,2.153,0,0,0-1.723.636,3.21,3.21,0,0,0-.547,2.1V0H93.365V-7.492h.923l.185,1.025h.055a2.317,2.317,0,0,1,.978-.858,3.176,3.176,0,0,1,1.4-.3,2.846,2.846,0,0,1,2.037.653,2.778,2.778,0,0,1,.684,2.088V0Z" transform="translate(182 267)"/>
    <path id="Path_6748" data-name="Path 6748" class="cls-7" d="M2.536-4.156V0H1.374V-9.994H4.115a4.313,4.313,0,0,1,2.717.7,2.553,2.553,0,0,1,.878,2.119A2.654,2.654,0,0,1,5.7-4.491L8.415,0H7.041L4.621-4.156Zm0-1H4.129a2.751,2.751,0,0,0,1.8-.489,1.819,1.819,0,0,0,.574-1.466,1.669,1.669,0,0,0-.584-1.429,3.166,3.166,0,0,0-1.876-.437H2.536ZM13.022.137A3.442,3.442,0,0,1,10.4-.875a3.917,3.917,0,0,1-.96-2.81,4.344,4.344,0,0,1,.892-2.878,2.963,2.963,0,0,1,2.4-1.066,2.825,2.825,0,0,1,2.229.926,3.55,3.55,0,0,1,.82,2.444v.718H10.616a2.97,2.97,0,0,0,.667,2,2.305,2.305,0,0,0,1.781.684,6.035,6.035,0,0,0,2.393-.506V-.349a6.005,6.005,0,0,1-1.138.373A6.4,6.4,0,0,1,13.022.137Zm-.308-6.815a1.853,1.853,0,0,0-1.439.588,2.71,2.71,0,0,0-.632,1.627h3.917a2.5,2.5,0,0,0-.479-1.644A1.684,1.684,0,0,0,12.715-6.679ZM22.319,0l-.226-1.066h-.055a3.153,3.153,0,0,1-1.118.954,3.407,3.407,0,0,1-1.391.25,2.5,2.5,0,0,1-1.747-.574,2.094,2.094,0,0,1-.632-1.634q0-2.27,3.63-2.379l1.271-.041v-.465a1.9,1.9,0,0,0-.379-1.3,1.56,1.56,0,0,0-1.213-.42,4.944,4.944,0,0,0-2.119.574l-.349-.868a5.332,5.332,0,0,1,1.213-.472,5.255,5.255,0,0,1,1.323-.171,2.854,2.854,0,0,1,1.986.595,2.482,2.482,0,0,1,.646,1.907V0ZM19.756-.8a2.3,2.3,0,0,0,1.665-.581,2.15,2.15,0,0,0,.6-1.627v-.677l-1.135.048a4.128,4.128,0,0,0-1.952.42,1.268,1.268,0,0,0-.6,1.159,1.169,1.169,0,0,0,.373.937A1.546,1.546,0,0,0,19.756-.8ZM30.625,0V-4.847a1.955,1.955,0,0,0-.417-1.367A1.7,1.7,0,0,0,28.9-6.665a2.153,2.153,0,0,0-1.723.636,3.21,3.21,0,0,0-.547,2.1V0H25.5V-7.492h.923l.185,1.025h.055a2.317,2.317,0,0,1,.978-.858,3.176,3.176,0,0,1,1.4-.3,2.846,2.846,0,0,1,2.037.653,2.778,2.778,0,0,1,.684,2.088V0Zm8.593,0V-4.847A1.955,1.955,0,0,0,38.8-6.214,1.7,1.7,0,0,0,37.5-6.665a2.153,2.153,0,0,0-1.723.636,3.21,3.21,0,0,0-.547,2.1V0H34.091V-7.492h.923L35.2-6.467h.055a2.317,2.317,0,0,1,.978-.858,3.176,3.176,0,0,1,1.4-.3,2.846,2.846,0,0,1,2.037.653,2.778,2.778,0,0,1,.684,2.088V0Zm6.631.137A3.442,3.442,0,0,1,43.227-.875a3.917,3.917,0,0,1-.96-2.81,4.344,4.344,0,0,1,.892-2.878,2.963,2.963,0,0,1,2.4-1.066,2.825,2.825,0,0,1,2.229.926,3.55,3.55,0,0,1,.82,2.444v.718H43.442a2.97,2.97,0,0,0,.667,2,2.305,2.305,0,0,0,1.781.684,6.035,6.035,0,0,0,2.393-.506V-.349a6.005,6.005,0,0,1-1.138.373A6.4,6.4,0,0,1,45.849.137Zm-.308-6.815a1.853,1.853,0,0,0-1.439.588,2.71,2.71,0,0,0-.632,1.627h3.917a2.5,2.5,0,0,0-.479-1.644A1.684,1.684,0,0,0,45.541-6.679ZM55.665,0V-4.847a1.955,1.955,0,0,0-.417-1.367,1.7,1.7,0,0,0-1.306-.451,2.153,2.153,0,0,0-1.723.636,3.21,3.21,0,0,0-.547,2.1V0H50.538V-7.492h.923l.185,1.025H51.7a2.317,2.317,0,0,1,.978-.858,3.176,3.176,0,0,1,1.4-.3,2.846,2.846,0,0,1,2.037.653A2.778,2.778,0,0,1,56.8-4.888V0ZM69.221,0,67.977-3.179H63.971L62.74,0H61.564l3.951-10.035h.978L70.424,0ZM67.614-4.225l-1.162-3.1q-.226-.588-.465-1.442a12.951,12.951,0,0,1-.431,1.442l-1.176,3.1ZM76.754,0V-4.847a1.955,1.955,0,0,0-.417-1.367,1.7,1.7,0,0,0-1.306-.451,2.153,2.153,0,0,0-1.723.636,3.21,3.21,0,0,0-.547,2.1V0H71.627V-7.492h.923l.185,1.025h.055a2.317,2.317,0,0,1,.978-.858,3.176,3.176,0,0,1,1.4-.3,2.846,2.846,0,0,1,2.037.653,2.778,2.778,0,0,1,.684,2.088V0Zm8.565-1h-.062A2.666,2.666,0,0,1,82.906.137a2.782,2.782,0,0,1-2.287-1A4.423,4.423,0,0,1,79.8-3.726a4.5,4.5,0,0,1,.82-2.878,2.76,2.76,0,0,1,2.283-1.025,2.724,2.724,0,0,1,2.338,1.107h.089l-.048-.54-.027-.526v-3.049h1.135V0H85.47Zm-2.27.191a2.066,2.066,0,0,0,1.685-.632,3.2,3.2,0,0,0,.523-2.041v-.239A3.76,3.76,0,0,0,84.728-6a2.012,2.012,0,0,0-1.692-.68,1.737,1.737,0,0,0-1.528.776,3.858,3.858,0,0,0-.53,2.191A3.7,3.7,0,0,0,81.5-1.545,1.783,1.783,0,0,0,83.05-.813Zm8.914.95A3.442,3.442,0,0,1,89.342-.875a3.917,3.917,0,0,1-.96-2.81,4.344,4.344,0,0,1,.892-2.878,2.963,2.963,0,0,1,2.4-1.066A2.825,2.825,0,0,1,93.9-6.7a3.55,3.55,0,0,1,.82,2.444v.718H89.558a2.97,2.97,0,0,0,.667,2A2.305,2.305,0,0,0,92-.854,6.035,6.035,0,0,0,94.4-1.36V-.349a6.005,6.005,0,0,1-1.138.373A6.4,6.4,0,0,1,91.964.137Zm-.308-6.815a1.853,1.853,0,0,0-1.439.588,2.71,2.71,0,0,0-.632,1.627H93.5a2.5,2.5,0,0,0-.479-1.644A1.684,1.684,0,0,0,91.656-6.679Zm8.415-.95a4.44,4.44,0,0,1,.9.082l-.157,1.053a3.865,3.865,0,0,0-.82-.1,2,2,0,0,0-1.555.738,2.692,2.692,0,0,0-.646,1.839V0H96.653V-7.492h.937L97.72-6.1h.055a3.293,3.293,0,0,1,1-1.128A2.262,2.262,0,0,1,100.071-7.629Zm7.13,5.585a1.877,1.877,0,0,1-.779,1.613,3.663,3.663,0,0,1-2.187.567,4.757,4.757,0,0,1-2.324-.472V-1.388a5.621,5.621,0,0,0,1.159.431,4.839,4.839,0,0,0,1.193.157,2.705,2.705,0,0,0,1.367-.284.938.938,0,0,0,.479-.865.939.939,0,0,0-.379-.749,5.968,5.968,0,0,0-1.48-.735,8.025,8.025,0,0,1-1.487-.68,2.031,2.031,0,0,1-.656-.66,1.72,1.72,0,0,1-.215-.882,1.681,1.681,0,0,1,.745-1.446,3.472,3.472,0,0,1,2.044-.53,5.98,5.98,0,0,1,2.365.492l-.4.923a5.429,5.429,0,0,0-2.044-.465,2.352,2.352,0,0,0-1.217.253.782.782,0,0,0-.41.7.849.849,0,0,0,.154.513,1.518,1.518,0,0,0,.5.4,11.076,11.076,0,0,0,1.313.554,4.9,4.9,0,0,1,1.8.978A1.724,1.724,0,0,1,107.2-2.044Zm8.313-1.709a4.133,4.133,0,0,1-.923,2.861,3.25,3.25,0,0,1-2.55,1.029,3.377,3.377,0,0,1-1.784-.472,3.113,3.113,0,0,1-1.2-1.354,4.717,4.717,0,0,1-.424-2.064,4.127,4.127,0,0,1,.916-2.854,3.24,3.24,0,0,1,2.543-1.022,3.169,3.169,0,0,1,2.5,1.046A4.115,4.115,0,0,1,115.514-3.753Zm-5.708,0a3.556,3.556,0,0,0,.574,2.188,1.993,1.993,0,0,0,1.688.752,2.006,2.006,0,0,0,1.692-.749,3.538,3.538,0,0,0,.578-2.191,3.481,3.481,0,0,0-.578-2.17,2.03,2.03,0,0,0-1.706-.742,2,2,0,0,0-1.682.731A3.52,3.52,0,0,0,109.806-3.753ZM122.63,0V-4.847a1.955,1.955,0,0,0-.417-1.367,1.7,1.7,0,0,0-1.306-.451,2.153,2.153,0,0,0-1.723.636,3.21,3.21,0,0,0-.547,2.1V0H117.5V-7.492h.923l.185,1.025h.055a2.317,2.317,0,0,1,.978-.858,3.176,3.176,0,0,1,1.4-.3,2.846,2.846,0,0,1,2.037.653,2.778,2.778,0,0,1,.684,2.088V0Z" transform="translate(182 303)"/>
    <g id="Symbol_6_6" data-name="Symbol 6 – 6" transform="translate(-284 -166)">
      <rect id="Rectangle_3945" data-name="Rectangle 3945" class="cls-4" width="24" height="24" transform="translate(431 345)"/>
      <path id="Path_5647" data-name="Path 5647" class="cls-8" d="M171.5,169.5A4.5,4.5,0,1,1,176,174,4.481,4.481,0,0,1,171.5,169.5Zm12.7,9.8a9.969,9.969,0,0,0-16.4,0,.984.984,0,0,0,.3,1.4,15.063,15.063,0,0,0,16,0A.958.958,0,0,0,184.2,179.3Z" transform="translate(267 183)"/>
    </g>
    <g id="Symbol_6_7" data-name="Symbol 6 – 7" transform="translate(-284 -130)">
      <rect id="Rectangle_3945-2" data-name="Rectangle 3945" class="cls-4" width="24" height="24" transform="translate(431 345)"/>
      <path id="Path_5647-2" data-name="Path 5647" class="cls-8" d="M171.5,169.5A4.5,4.5,0,1,1,176,174,4.481,4.481,0,0,1,171.5,169.5Zm12.7,9.8a9.969,9.969,0,0,0-16.4,0,.984.984,0,0,0,.3,1.4,15.063,15.063,0,0,0,16,0A.958.958,0,0,0,184.2,179.3Z" transform="translate(267 183)"/>
    </g>
    <g id="Symbol_6_8" data-name="Symbol 6 – 8" transform="translate(-284 -94)">
      <rect id="Rectangle_3945-3" data-name="Rectangle 3945" class="cls-4" width="24" height="24" transform="translate(431 345)"/>
      <path id="Path_5647-3" data-name="Path 5647" class="cls-8" d="M171.5,169.5A4.5,4.5,0,1,1,176,174,4.481,4.481,0,0,1,171.5,169.5Zm12.7,9.8a9.969,9.969,0,0,0-16.4,0,.984.984,0,0,0,.3,1.4,15.063,15.063,0,0,0,16,0A.958.958,0,0,0,184.2,179.3Z" transform="translate(267 183)"/>
    </g>
    <g id="Symbol_6_9" data-name="Symbol 6 – 9" transform="translate(-284 -58)">
      <rect id="Rectangle_3945-4" data-name="Rectangle 3945" class="cls-4" width="24" height="24" transform="translate(431 345)"/>
      <path id="Path_5647-4" data-name="Path 5647" class="cls-8" d="M171.5,169.5A4.5,4.5,0,1,1,176,174,4.481,4.481,0,0,1,171.5,169.5Zm12.7,9.8a9.969,9.969,0,0,0-16.4,0,.984.984,0,0,0,.3,1.4,15.063,15.063,0,0,0,16,0A.958.958,0,0,0,184.2,179.3Z" transform="translate(267 183)"/>
    </g>
    <g id="Symbol_6_10" data-name="Symbol 6 – 10" transform="translate(-284 14)">
      <rect id="Rectangle_3945-5" data-name="Rectangle 3945" class="cls-4" width="24" height="24" transform="translate(431 345)"/>
      <path id="Path_5647-5" data-name="Path 5647" class="cls-8" d="M171.5,169.5A4.5,4.5,0,1,1,176,174,4.481,4.481,0,0,1,171.5,169.5Zm12.7,9.8a9.969,9.969,0,0,0-16.4,0,.984.984,0,0,0,.3,1.4,15.063,15.063,0,0,0,16,0A.958.958,0,0,0,184.2,179.3Z" transform="translate(267 183)"/>
    </g>
    <path id="Path_6749" data-name="Path 6749" class="cls-7" d="M1.374-9.994H4.2A5.327,5.327,0,0,1,7.075-9.4a2.1,2.1,0,0,1,.889,1.88,2.172,2.172,0,0,1-.5,1.466A2.386,2.386,0,0,1,6.022-5.3v.068Q8.3-4.847,8.3-2.844A2.57,2.57,0,0,1,7.393-.752,3.855,3.855,0,0,1,4.86,0H1.374ZM2.536-5.715H4.45A3.116,3.116,0,0,0,6.221-6.1a1.491,1.491,0,0,0,.54-1.3,1.318,1.318,0,0,0-.6-1.213,3.759,3.759,0,0,0-1.914-.373H2.536Zm0,.984V-.991H4.621a2.97,2.97,0,0,0,1.822-.468,1.729,1.729,0,0,0,.612-1.466,1.553,1.553,0,0,0-.625-1.367,3.343,3.343,0,0,0-1.9-.437ZM14.725-9.1a3.268,3.268,0,0,0-2.6,1.1,4.426,4.426,0,0,0-.954,3,4.514,4.514,0,0,0,.919,3.032A3.268,3.268,0,0,0,14.711-.9,8.951,8.951,0,0,0,17.1-1.271V-.253a7.347,7.347,0,0,1-2.563.39A4.337,4.337,0,0,1,11.125-1.2a5.518,5.518,0,0,1-1.2-3.808A6.01,6.01,0,0,1,10.5-7.718a4.147,4.147,0,0,1,1.668-1.791,5.049,5.049,0,0,1,2.567-.629,6.194,6.194,0,0,1,2.748.574l-.492,1A5.3,5.3,0,0,0,14.725-9.1ZM29.2,0,27.952-3.179H23.946L22.716,0H21.54l3.951-10.035h.978L30.4,0ZM27.59-4.225l-1.162-3.1q-.226-.588-.465-1.442a12.952,12.952,0,0,1-.431,1.442l-1.176,3.1ZM36.7-1h-.062A2.666,2.666,0,0,1,34.289.137,2.782,2.782,0,0,1,32-.868a4.423,4.423,0,0,1-.817-2.857,4.5,4.5,0,0,1,.82-2.878,2.76,2.76,0,0,1,2.283-1.025,2.724,2.724,0,0,1,2.338,1.107h.089l-.048-.54-.027-.526v-3.049h1.135V0h-.923Zm-2.27.191a2.066,2.066,0,0,0,1.685-.632,3.2,3.2,0,0,0,.523-2.041v-.239A3.76,3.76,0,0,0,36.111-6a2.012,2.012,0,0,0-1.692-.68,1.737,1.737,0,0,0-1.528.776,3.858,3.858,0,0,0-.53,2.191,3.7,3.7,0,0,0,.526,2.167A1.783,1.783,0,0,0,34.433-.813ZM44.789,0l-.226-1.066h-.055a3.153,3.153,0,0,1-1.118.954A3.407,3.407,0,0,1,42,.137a2.5,2.5,0,0,1-1.747-.574,2.094,2.094,0,0,1-.632-1.634q0-2.27,3.63-2.379l1.271-.041v-.465a1.9,1.9,0,0,0-.379-1.3,1.56,1.56,0,0,0-1.213-.42,4.944,4.944,0,0,0-2.119.574l-.349-.868a5.332,5.332,0,0,1,1.213-.472A5.255,5.255,0,0,1,43-7.615a2.854,2.854,0,0,1,1.986.595,2.482,2.482,0,0,1,.646,1.907V0ZM42.226-.8a2.3,2.3,0,0,0,1.665-.581,2.15,2.15,0,0,0,.6-1.627v-.677l-1.135.048a4.128,4.128,0,0,0-1.952.42,1.268,1.268,0,0,0-.6,1.159,1.169,1.169,0,0,0,.373.937A1.546,1.546,0,0,0,42.226-.8ZM57.518,0V-4.874a2.023,2.023,0,0,0-.383-1.343,1.481,1.481,0,0,0-1.189-.448,1.92,1.92,0,0,0-1.565.608,2.891,2.891,0,0,0-.506,1.873V0H52.739V-4.874a2.023,2.023,0,0,0-.383-1.343,1.49,1.49,0,0,0-1.2-.448,1.853,1.853,0,0,0-1.562.639,3.459,3.459,0,0,0-.5,2.1V0H47.968V-7.492h.923l.185,1.025h.055a2.23,2.23,0,0,1,.906-.854,2.767,2.767,0,0,1,1.309-.308,2.226,2.226,0,0,1,2.3,1.271H53.7a2.389,2.389,0,0,1,.971-.93,3.012,3.012,0,0,1,1.449-.342,2.537,2.537,0,0,1,1.9.653,2.921,2.921,0,0,1,.632,2.088V0Zm8.306-2.044a1.877,1.877,0,0,1-.779,1.613,3.663,3.663,0,0,1-2.187.567,4.757,4.757,0,0,1-2.324-.472V-1.388a5.621,5.621,0,0,0,1.159.431A4.839,4.839,0,0,0,62.884-.8a2.705,2.705,0,0,0,1.367-.284.938.938,0,0,0,.479-.865A.939.939,0,0,0,64.35-2.7a5.968,5.968,0,0,0-1.48-.735,8.025,8.025,0,0,1-1.487-.68,2.031,2.031,0,0,1-.656-.66,1.72,1.72,0,0,1-.215-.882A1.681,1.681,0,0,1,61.257-7.1a3.472,3.472,0,0,1,2.044-.53,5.98,5.98,0,0,1,2.365.492l-.4.923a5.429,5.429,0,0,0-2.044-.465A2.352,2.352,0,0,0,62-6.426a.782.782,0,0,0-.41.7.849.849,0,0,0,.154.513,1.518,1.518,0,0,0,.5.4,11.075,11.075,0,0,0,1.313.554,4.9,4.9,0,0,1,1.8.978A1.724,1.724,0,0,1,65.823-2.044ZM71.477,0V-9.994h1.162V0Zm8.859,0V-4.847a1.955,1.955,0,0,0-.417-1.367,1.7,1.7,0,0,0-1.306-.451,2.153,2.153,0,0,0-1.723.636,3.21,3.21,0,0,0-.547,2.1V0H75.209V-7.492h.923l.185,1.025h.055a2.317,2.317,0,0,1,.978-.858,3.176,3.176,0,0,1,1.4-.3,2.846,2.846,0,0,1,2.037.653,2.778,2.778,0,0,1,.684,2.088V0Zm8.3-2.044a1.877,1.877,0,0,1-.779,1.613,3.663,3.663,0,0,1-2.187.567,4.757,4.757,0,0,1-2.324-.472V-1.388A5.621,5.621,0,0,0,84.5-.957,4.839,4.839,0,0,0,85.7-.8a2.705,2.705,0,0,0,1.367-.284.938.938,0,0,0,.479-.865.939.939,0,0,0-.379-.749,5.968,5.968,0,0,0-1.48-.735,8.025,8.025,0,0,1-1.487-.68,2.031,2.031,0,0,1-.656-.66,1.72,1.72,0,0,1-.215-.882A1.681,1.681,0,0,1,84.068-7.1a3.472,3.472,0,0,1,2.044-.53,5.98,5.98,0,0,1,2.365.492l-.4.923a5.429,5.429,0,0,0-2.044-.465,2.352,2.352,0,0,0-1.217.253.782.782,0,0,0-.41.7.849.849,0,0,0,.154.513,1.518,1.518,0,0,0,.5.4,11.076,11.076,0,0,0,1.313.554,4.9,4.9,0,0,1,1.8.978A1.724,1.724,0,0,1,88.635-2.044Zm2.912-5.448v4.86a1.955,1.955,0,0,0,.417,1.367,1.7,1.7,0,0,0,1.306.451,2.13,2.13,0,0,0,1.719-.643,3.241,3.241,0,0,0,.543-2.1V-7.492h1.135V0H95.73l-.164-1H95.5a2.262,2.262,0,0,1-.967.848,3.251,3.251,0,0,1-1.412.294,2.864,2.864,0,0,1-2.047-.649,2.764,2.764,0,0,1-.68-2.078v-4.9Zm10.944-.137a4.44,4.44,0,0,1,.9.082l-.157,1.053a3.865,3.865,0,0,0-.82-.1,2,2,0,0,0-1.555.738,2.692,2.692,0,0,0-.646,1.839V0H99.073V-7.492h.937l.13,1.388h.055a3.293,3.293,0,0,1,1-1.128A2.262,2.262,0,0,1,102.491-7.629ZM109.4,0l-.226-1.066h-.055A3.153,3.153,0,0,1,108-.113a3.407,3.407,0,0,1-1.391.25,2.5,2.5,0,0,1-1.747-.574,2.094,2.094,0,0,1-.632-1.634q0-2.27,3.63-2.379l1.271-.041v-.465a1.9,1.9,0,0,0-.379-1.3,1.56,1.56,0,0,0-1.213-.42,4.944,4.944,0,0,0-2.119.574l-.349-.868a5.332,5.332,0,0,1,1.213-.472,5.255,5.255,0,0,1,1.323-.171,2.854,2.854,0,0,1,1.986.595,2.482,2.482,0,0,1,.646,1.907V0Zm-2.563-.8a2.3,2.3,0,0,0,1.665-.581,2.15,2.15,0,0,0,.6-1.627v-.677l-1.135.048a4.128,4.128,0,0,0-1.952.42,1.268,1.268,0,0,0-.6,1.159,1.169,1.169,0,0,0,.373.937A1.546,1.546,0,0,0,106.832-.8ZM117.7,0V-4.847a1.955,1.955,0,0,0-.417-1.367,1.7,1.7,0,0,0-1.306-.451,2.153,2.153,0,0,0-1.723.636,3.21,3.21,0,0,0-.547,2.1V0h-1.135V-7.492h.923l.185,1.025h.055a2.317,2.317,0,0,1,.978-.858,3.176,3.176,0,0,1,1.4-.3,2.846,2.846,0,0,1,2.037.653,2.778,2.778,0,0,1,.684,2.088V0Zm6.46.137a3.2,3.2,0,0,1-2.519-1A4.118,4.118,0,0,1,120.75-3.7a4.247,4.247,0,0,1,.906-2.905,3.261,3.261,0,0,1,2.581-1.025,5.121,5.121,0,0,1,1.08.116,3.558,3.558,0,0,1,.848.273l-.349.964a5.336,5.336,0,0,0-.82-.25,3.663,3.663,0,0,0-.786-.1q-2.283,0-2.283,2.912a3.467,3.467,0,0,0,.557,2.119,1.938,1.938,0,0,0,1.651.738,5.048,5.048,0,0,0,1.921-.4v1A4.094,4.094,0,0,1,124.161.137Zm6.836,0a3.442,3.442,0,0,1-2.622-1.012,3.917,3.917,0,0,1-.96-2.81,4.344,4.344,0,0,1,.892-2.878,2.963,2.963,0,0,1,2.4-1.066,2.825,2.825,0,0,1,2.229.926,3.55,3.55,0,0,1,.82,2.444v.718h-5.161a2.97,2.97,0,0,0,.667,2,2.305,2.305,0,0,0,1.781.684,6.035,6.035,0,0,0,2.393-.506V-.349a6.005,6.005,0,0,1-1.138.373A6.4,6.4,0,0,1,131,.137Zm-.308-6.815a1.853,1.853,0,0,0-1.439.588,2.71,2.71,0,0,0-.632,1.627h3.917a2.5,2.5,0,0,0-.479-1.644A1.684,1.684,0,0,0,130.689-6.679ZM145.776,0l-1.244-3.179h-4.006L139.3,0H138.12l3.951-10.035h.978L146.979,0ZM144.17-4.225l-1.162-3.1q-.226-.588-.465-1.442a12.954,12.954,0,0,1-.431,1.442l-1.176,3.1Zm10.145-3.268v.718l-1.388.164a2.385,2.385,0,0,1,.342.625,2.386,2.386,0,0,1,.15.872,2.215,2.215,0,0,1-.752,1.757A3.033,3.033,0,0,1,150.6-2.7a3.438,3.438,0,0,1-.629-.055,1.117,1.117,0,0,0-.725.964.49.49,0,0,0,.253.455,1.848,1.848,0,0,0,.868.147H151.7a2.97,2.97,0,0,1,1.87.513,1.781,1.781,0,0,1,.653,1.49,2.127,2.127,0,0,1-1,1.9,5.342,5.342,0,0,1-2.912.653,3.979,3.979,0,0,1-2.266-.547,1.766,1.766,0,0,1-.8-1.545,1.735,1.735,0,0,1,.438-1.183,2.228,2.228,0,0,1,1.23-.677,1.187,1.187,0,0,1-.482-.4,1.067,1.067,0,0,1-.195-.636,1.207,1.207,0,0,1,.219-.718,2.3,2.3,0,0,1,.69-.595,2.024,2.024,0,0,1-.947-.813,2.39,2.39,0,0,1-.366-1.312,2.424,2.424,0,0,1,.738-1.9,3.014,3.014,0,0,1,2.092-.667,3.8,3.8,0,0,1,1.06.137Zm-5.975,8.75a1.017,1.017,0,0,0,.513.923,2.83,2.83,0,0,0,1.47.314,4.1,4.1,0,0,0,2.116-.427,1.308,1.308,0,0,0,.687-1.159.917.917,0,0,0-.376-.844,2.92,2.92,0,0,0-1.415-.236h-1.36a1.792,1.792,0,0,0-1.2.369A1.319,1.319,0,0,0,148.34,1.258Zm.615-6.351A1.525,1.525,0,0,0,149.4-3.9a1.774,1.774,0,0,0,1.237.4A1.447,1.447,0,0,0,152.3-5.113,1.489,1.489,0,0,0,150.616-6.8a1.665,1.665,0,0,0-1.23.431A1.734,1.734,0,0,0,148.955-5.093ZM159.018.137A3.442,3.442,0,0,1,156.4-.875a3.917,3.917,0,0,1-.96-2.81,4.344,4.344,0,0,1,.892-2.878,2.963,2.963,0,0,1,2.4-1.066,2.825,2.825,0,0,1,2.229.926,3.55,3.55,0,0,1,.82,2.444v.718h-5.161a2.97,2.97,0,0,0,.667,2,2.305,2.305,0,0,0,1.781.684,6.035,6.035,0,0,0,2.393-.506V-.349a6.005,6.005,0,0,1-1.138.373A6.4,6.4,0,0,1,159.018.137Zm-.308-6.815a1.853,1.853,0,0,0-1.439.588,2.71,2.71,0,0,0-.632,1.627h3.917a2.5,2.5,0,0,0-.479-1.644A1.684,1.684,0,0,0,158.71-6.679ZM168.834,0V-4.847a1.955,1.955,0,0,0-.417-1.367,1.7,1.7,0,0,0-1.306-.451,2.153,2.153,0,0,0-1.723.636,3.21,3.21,0,0,0-.547,2.1V0h-1.135V-7.492h.923l.185,1.025h.055a2.317,2.317,0,0,1,.978-.858,3.176,3.176,0,0,1,1.4-.3,2.846,2.846,0,0,1,2.037.653,2.778,2.778,0,0,1,.684,2.088V0Zm6.46.137a3.2,3.2,0,0,1-2.519-1,4.118,4.118,0,0,1-.892-2.833,4.247,4.247,0,0,1,.906-2.905,3.261,3.261,0,0,1,2.581-1.025,5.121,5.121,0,0,1,1.08.116,3.558,3.558,0,0,1,.848.273l-.349.964a5.336,5.336,0,0,0-.82-.25,3.663,3.663,0,0,0-.786-.1q-2.283,0-2.283,2.912a3.468,3.468,0,0,0,.557,2.119,1.938,1.938,0,0,0,1.651.738,5.048,5.048,0,0,0,1.921-.4v1A4.094,4.094,0,0,1,175.294.137Zm2.481-7.629h1.217l1.641,4.272a16.251,16.251,0,0,1,.67,2.112h.055q.089-.349.373-1.193t1.856-5.192H184.8l-3.22,8.531a4.256,4.256,0,0,1-1.118,1.794,2.377,2.377,0,0,1-1.569.53,4.565,4.565,0,0,1-1.025-.116V2.338a3.956,3.956,0,0,0,.841.082,1.733,1.733,0,0,0,1.668-1.312L180.8.041Z" transform="translate(183 339)"/>
    <path id="Path_6751" data-name="Path 6751" class="cls-7" d="M7.656,0,6.412-3.179H2.406L1.176,0H0L3.951-10.035h.978L8.859,0ZM6.05-4.225l-1.162-3.1q-.226-.588-.465-1.442a12.952,12.952,0,0,1-.431,1.442l-1.176,3.1ZM15.189,0V-4.847a1.955,1.955,0,0,0-.417-1.367,1.7,1.7,0,0,0-1.306-.451,2.153,2.153,0,0,0-1.723.636,3.21,3.21,0,0,0-.547,2.1V0H10.063V-7.492h.923l.185,1.025h.055a2.317,2.317,0,0,1,.978-.858,3.176,3.176,0,0,1,1.4-.3,2.846,2.846,0,0,1,2.037.653,2.778,2.778,0,0,1,.684,2.088V0Zm8.565-1h-.062A2.666,2.666,0,0,1,21.342.137a2.782,2.782,0,0,1-2.287-1,4.423,4.423,0,0,1-.817-2.857,4.5,4.5,0,0,1,.82-2.878,2.76,2.76,0,0,1,2.283-1.025A2.724,2.724,0,0,1,23.68-6.521h.089l-.048-.54-.027-.526v-3.049h1.135V0h-.923Zm-2.27.191a2.066,2.066,0,0,0,1.685-.632,3.2,3.2,0,0,0,.523-2.041v-.239A3.76,3.76,0,0,0,23.164-6a2.012,2.012,0,0,0-1.692-.68,1.737,1.737,0,0,0-1.528.776,3.858,3.858,0,0,0-.53,2.191,3.7,3.7,0,0,0,.526,2.167A1.783,1.783,0,0,0,21.485-.813Zm4.56-6.679h1.217L28.9-3.22a16.251,16.251,0,0,1,.67,2.112h.055Q29.716-1.456,30-2.3t1.856-5.192h1.217l-3.22,8.531a4.256,4.256,0,0,1-1.118,1.794,2.377,2.377,0,0,1-1.569.53,4.565,4.565,0,0,1-1.025-.116V2.338a3.955,3.955,0,0,0,.841.082,1.733,1.733,0,0,0,1.668-1.312L29.066.041ZM42.376-9.1a3.268,3.268,0,0,0-2.6,1.1,4.426,4.426,0,0,0-.954,3,4.514,4.514,0,0,0,.919,3.032A3.268,3.268,0,0,0,42.362-.9a8.951,8.951,0,0,0,2.386-.376V-.253a7.347,7.347,0,0,1-2.563.39A4.337,4.337,0,0,1,38.777-1.2a5.518,5.518,0,0,1-1.2-3.808,6.01,6.01,0,0,1,.578-2.707,4.147,4.147,0,0,1,1.668-1.791,5.049,5.049,0,0,1,2.567-.629,6.194,6.194,0,0,1,2.748.574l-.492,1A5.3,5.3,0,0,0,42.376-9.1ZM53.225-3.753A4.133,4.133,0,0,1,52.3-.892,3.25,3.25,0,0,1,49.752.137a3.377,3.377,0,0,1-1.784-.472,3.113,3.113,0,0,1-1.2-1.354,4.717,4.717,0,0,1-.424-2.064,4.127,4.127,0,0,1,.916-2.854A3.24,3.24,0,0,1,49.8-7.629a3.169,3.169,0,0,1,2.5,1.046A4.115,4.115,0,0,1,53.225-3.753Zm-5.708,0a3.556,3.556,0,0,0,.574,2.188,1.993,1.993,0,0,0,1.688.752,2.006,2.006,0,0,0,1.692-.749,3.538,3.538,0,0,0,.578-2.191,3.481,3.481,0,0,0-.578-2.17,2.03,2.03,0,0,0-1.706-.742,2,2,0,0,0-1.682.731A3.52,3.52,0,0,0,47.517-3.753ZM56.349,0H55.214V-10.637h1.135ZM61.92.137A3.442,3.442,0,0,1,59.3-.875a3.917,3.917,0,0,1-.96-2.81,4.344,4.344,0,0,1,.892-2.878,2.963,2.963,0,0,1,2.4-1.066,2.825,2.825,0,0,1,2.229.926,3.55,3.55,0,0,1,.82,2.444v.718H59.514a2.97,2.97,0,0,0,.667,2,2.305,2.305,0,0,0,1.781.684,6.035,6.035,0,0,0,2.393-.506V-.349a6.005,6.005,0,0,1-1.138.373A6.4,6.4,0,0,1,61.92.137Zm-.308-6.815a1.853,1.853,0,0,0-1.439.588,2.71,2.71,0,0,0-.632,1.627h3.917a2.5,2.5,0,0,0-.479-1.644A1.684,1.684,0,0,0,61.612-6.679Z" transform="translate(182 375)"/>
    <path id="Path_6753" data-name="Path 6753" class="cls-7" d="M2.536,0H1.374V-9.994H6.945v1.032H2.536V-5.3H6.679v1.032H2.536ZM12.879-9.1a3.268,3.268,0,0,0-2.6,1.1,4.426,4.426,0,0,0-.954,3,4.514,4.514,0,0,0,.919,3.032A3.268,3.268,0,0,0,12.865-.9a8.951,8.951,0,0,0,2.386-.376V-.253a7.347,7.347,0,0,1-2.563.39A4.337,4.337,0,0,1,9.28-1.2a5.518,5.518,0,0,1-1.2-3.808,6.01,6.01,0,0,1,.578-2.707,4.147,4.147,0,0,1,1.668-1.791,5.049,5.049,0,0,1,2.567-.629,6.194,6.194,0,0,1,2.748.574l-.492,1A5.3,5.3,0,0,0,12.879-9.1ZM17.432,0V-9.994h1.162V0ZM31.254,0,30.01-3.179H26L24.773,0H23.6l3.951-10.035h.978L32.457,0ZM29.647-4.225l-1.162-3.1q-.226-.588-.465-1.442a12.952,12.952,0,0,1-.431,1.442l-1.176,3.1ZM39.792-7.492v.718L38.4-6.61a2.385,2.385,0,0,1,.342.625,2.386,2.386,0,0,1,.15.872,2.215,2.215,0,0,1-.752,1.757A3.033,3.033,0,0,1,36.08-2.7a3.438,3.438,0,0,1-.629-.055,1.117,1.117,0,0,0-.725.964.49.49,0,0,0,.253.455,1.848,1.848,0,0,0,.868.147h1.326a2.97,2.97,0,0,1,1.87.513A1.781,1.781,0,0,1,39.7.813a2.127,2.127,0,0,1-1,1.9,5.342,5.342,0,0,1-2.912.653,3.979,3.979,0,0,1-2.266-.547,1.766,1.766,0,0,1-.8-1.545A1.735,1.735,0,0,1,33.161.089a2.228,2.228,0,0,1,1.23-.677,1.187,1.187,0,0,1-.482-.4,1.067,1.067,0,0,1-.195-.636,1.207,1.207,0,0,1,.219-.718,2.3,2.3,0,0,1,.69-.595,2.024,2.024,0,0,1-.947-.813,2.39,2.39,0,0,1-.366-1.312,2.424,2.424,0,0,1,.738-1.9,3.014,3.014,0,0,1,2.092-.667,3.8,3.8,0,0,1,1.06.137Zm-5.975,8.75a1.017,1.017,0,0,0,.513.923A2.83,2.83,0,0,0,35.8,2.5a4.1,4.1,0,0,0,2.116-.427A1.308,1.308,0,0,0,38.6.909a.917.917,0,0,0-.376-.844,2.92,2.92,0,0,0-1.415-.236h-1.36a1.792,1.792,0,0,0-1.2.369A1.319,1.319,0,0,0,33.817,1.258Zm.615-6.351A1.525,1.525,0,0,0,34.877-3.9a1.774,1.774,0,0,0,1.237.4,1.447,1.447,0,0,0,1.661-1.613A1.489,1.489,0,0,0,36.094-6.8a1.665,1.665,0,0,0-1.23.431A1.734,1.734,0,0,0,34.433-5.093ZM44.5.137A3.442,3.442,0,0,1,41.874-.875a3.917,3.917,0,0,1-.96-2.81,4.344,4.344,0,0,1,.892-2.878,2.963,2.963,0,0,1,2.4-1.066A2.825,2.825,0,0,1,46.43-6.7a3.55,3.55,0,0,1,.82,2.444v.718H42.089a2.97,2.97,0,0,0,.667,2,2.305,2.305,0,0,0,1.781.684,6.035,6.035,0,0,0,2.393-.506V-.349a6.005,6.005,0,0,1-1.138.373A6.4,6.4,0,0,1,44.5.137Zm-.308-6.815a1.853,1.853,0,0,0-1.439.588,2.71,2.71,0,0,0-.632,1.627h3.917a2.5,2.5,0,0,0-.479-1.644A1.684,1.684,0,0,0,44.188-6.679ZM54.312,0V-4.847a1.955,1.955,0,0,0-.417-1.367,1.7,1.7,0,0,0-1.306-.451,2.153,2.153,0,0,0-1.723.636,3.21,3.21,0,0,0-.547,2.1V0H49.185V-7.492h.923l.185,1.025h.055a2.317,2.317,0,0,1,.978-.858,3.176,3.176,0,0,1,1.4-.3,2.846,2.846,0,0,1,2.037.653,2.778,2.778,0,0,1,.684,2.088V0Zm6.46.137a3.2,3.2,0,0,1-2.519-1A4.118,4.118,0,0,1,57.36-3.7,4.247,4.247,0,0,1,58.266-6.6a3.261,3.261,0,0,1,2.581-1.025,5.121,5.121,0,0,1,1.08.116,3.558,3.558,0,0,1,.848.273l-.349.964a5.336,5.336,0,0,0-.82-.25,3.663,3.663,0,0,0-.786-.1q-2.283,0-2.283,2.912a3.468,3.468,0,0,0,.557,2.119,1.938,1.938,0,0,0,1.651.738,5.048,5.048,0,0,0,1.921-.4v1A4.094,4.094,0,0,1,60.771.137Zm2.481-7.629H64.47L66.11-3.22a16.251,16.251,0,0,1,.67,2.112h.055q.089-.349.373-1.193t1.856-5.192H70.28l-3.22,8.531a4.256,4.256,0,0,1-1.118,1.794,2.377,2.377,0,0,1-1.569.53,4.565,4.565,0,0,1-1.025-.116V2.338a3.955,3.955,0,0,0,.841.082,1.733,1.733,0,0,0,1.668-1.312L66.274.041Z" transform="translate(182 411)"/>
    <g id="Symbol_7_4" data-name="Symbol 7 – 4" transform="translate(-407 -121)">
      <rect id="Rectangle_3908" data-name="Rectangle 3908" class="cls-4" width="24" height="24" transform="translate(554 264)"/>
      <path id="Path_5606" data-name="Path 5606" class="cls-8" d="M292,86v15.5a1.538,1.538,0,0,0,1.5,1.5H295V98.5a.472.472,0,0,1,.5-.5h2a.472.472,0,0,1,.5.5V103h6.5a1.538,1.538,0,0,0,1.5-1.5V86Zm6,9.5a.472.472,0,0,1-.5.5h-2a.472.472,0,0,1-.5-.5v-2a.472.472,0,0,1,.5-.5h2a.472.472,0,0,1,.5.5Zm0-5a.472.472,0,0,1-.5.5h-2a.472.472,0,0,1-.5-.5v-2a.472.472,0,0,1,.5-.5h2a.472.472,0,0,1,.5.5Zm5,10a.472.472,0,0,1-.5.5h-2a.472.472,0,0,1-.5-.5v-2a.472.472,0,0,1,.5-.5h2a.472.472,0,0,1,.5.5Zm0-5a.472.472,0,0,1-.5.5h-2a.472.472,0,0,1-.5-.5v-2a.472.472,0,0,1,.5-.5h2a.472.472,0,0,1,.5.5Zm0-5a.472.472,0,0,1-.5.5h-2a.472.472,0,0,1-.5-.5v-2a.472.472,0,0,1,.5-.5h2a.472.472,0,0,1,.5.5Zm3-5.5H292a.945.945,0,0,1-1-1h0a.945.945,0,0,1,1-1h14a.945.945,0,0,1,1,1h0A.945.945,0,0,1,306,85Z" transform="translate(267 183)"/>
    </g>
    <g id="Symbol_7_5" data-name="Symbol 7 – 5" transform="translate(-407 59)">
      <rect id="Rectangle_3908-2" data-name="Rectangle 3908" class="cls-4" width="24" height="24" transform="translate(554 264)"/>
      <path id="Path_5606-2" data-name="Path 5606" class="cls-8" d="M292,86v15.5a1.538,1.538,0,0,0,1.5,1.5H295V98.5a.472.472,0,0,1,.5-.5h2a.472.472,0,0,1,.5.5V103h6.5a1.538,1.538,0,0,0,1.5-1.5V86Zm6,9.5a.472.472,0,0,1-.5.5h-2a.472.472,0,0,1-.5-.5v-2a.472.472,0,0,1,.5-.5h2a.472.472,0,0,1,.5.5Zm0-5a.472.472,0,0,1-.5.5h-2a.472.472,0,0,1-.5-.5v-2a.472.472,0,0,1,.5-.5h2a.472.472,0,0,1,.5.5Zm5,10a.472.472,0,0,1-.5.5h-2a.472.472,0,0,1-.5-.5v-2a.472.472,0,0,1,.5-.5h2a.472.472,0,0,1,.5.5Zm0-5a.472.472,0,0,1-.5.5h-2a.472.472,0,0,1-.5-.5v-2a.472.472,0,0,1,.5-.5h2a.472.472,0,0,1,.5.5Zm0-5a.472.472,0,0,1-.5.5h-2a.472.472,0,0,1-.5-.5v-2a.472.472,0,0,1,.5-.5h2a.472.472,0,0,1,.5.5Zm3-5.5H292a.945.945,0,0,1-1-1h0a.945.945,0,0,1,1-1h14a.945.945,0,0,1,1,1h0A.945.945,0,0,1,306,85Z" transform="translate(267 183)"/>
    </g>
    <g id="Symbol_7_6" data-name="Symbol 7 – 6" transform="translate(-407 131)">
      <rect id="Rectangle_3908-3" data-name="Rectangle 3908" class="cls-4" width="24" height="24" transform="translate(554 264)"/>
      <path id="Path_5606-3" data-name="Path 5606" class="cls-8" d="M292,86v15.5a1.538,1.538,0,0,0,1.5,1.5H295V98.5a.472.472,0,0,1,.5-.5h2a.472.472,0,0,1,.5.5V103h6.5a1.538,1.538,0,0,0,1.5-1.5V86Zm6,9.5a.472.472,0,0,1-.5.5h-2a.472.472,0,0,1-.5-.5v-2a.472.472,0,0,1,.5-.5h2a.472.472,0,0,1,.5.5Zm0-5a.472.472,0,0,1-.5.5h-2a.472.472,0,0,1-.5-.5v-2a.472.472,0,0,1,.5-.5h2a.472.472,0,0,1,.5.5Zm5,10a.472.472,0,0,1-.5.5h-2a.472.472,0,0,1-.5-.5v-2a.472.472,0,0,1,.5-.5h2a.472.472,0,0,1,.5.5Zm0-5a.472.472,0,0,1-.5.5h-2a.472.472,0,0,1-.5-.5v-2a.472.472,0,0,1,.5-.5h2a.472.472,0,0,1,.5.5Zm0-5a.472.472,0,0,1-.5.5h-2a.472.472,0,0,1-.5-.5v-2a.472.472,0,0,1,.5-.5h2a.472.472,0,0,1,.5.5Zm3-5.5H292a.945.945,0,0,1-1-1h0a.945.945,0,0,1,1-1h14a.945.945,0,0,1,1,1h0A.945.945,0,0,1,306,85Z" transform="translate(267 183)"/>
    </g>
  </g>
</svg>
