<svg xmlns="http://www.w3.org/2000/svg" xmlns:xlink="http://www.w3.org/1999/xlink" viewBox="0 0 347 639">
  <defs>
    <style>
      .cls-1 {
        clip-path: url(#clip-Mobile_with_progress_indicator);
      }

      .cls-2 {
        fill: #f2f2f2;
      }

      .cls-3 {
        fill: #fff;
      }

      .cls-4 {
        fill: #333;
      }

      .cls-5 {
        fill: #5786bd;
      }

      .cls-6, .cls-7 {
        fill: none;
        stroke: #ccc;
      }

      .cls-6 {
        stroke-width: 0.5px;
      }

      .cls-7 {
        stroke-width: 0.562px;
      }

      .cls-8 {
        fill: #ccc;
      }

      .cls-9 {
        fill: #999;
      }

      .cls-10 {
        fill: #b3b3b3;
      }

      .cls-11 {
        fill: #3d3d3d;
      }

      .cls-12 {
        fill: #c6c6c6;
      }
    </style>
    <clipPath id="clip-Mobile_with_progress_indicator">
      <rect width="347" height="639"/>
    </clipPath>
  </defs>
  <g id="Mobile_with_progress_indicator" data-name="Mobile with progress indicator" class="cls-1">
    <rect class="cls-3" width="347" height="639"/>
    <path id="Path_387" data-name="Path 387" class="cls-2" d="M0,0H348V640H0Z"/>
    <path id="Path_388" data-name="Path 388" class="cls-2" d="M0,0H308V601H0Z" transform="translate(20 18.8)"/>
    <path id="Path_389" data-name="Path 389" class="cls-3" d="M0,0H308V600H0Z" transform="translate(20.5 18.8)"/>
    <path id="Path_398" data-name="Path 398" class="cls-2" d="M0,0H308V64.8H0Z" transform="translate(20.5 553.1)"/>
    <path id="Path_290" data-name="Path 290" class="cls-4" d="M290.6,606.9H251.7a21,21,0,0,1-21-21h0a21,21,0,0,1,21-21h38.9a21,21,0,0,1,21,21h0A21.062,21.062,0,0,1,290.6,606.9Z"/>
    <path id="Path_347" data-name="Path 347" class="cls-3" d="M9.181,0H7.854L2.393-8.388H2.338q.109,1.477.109,2.707V0H1.374V-9.994H2.687L8.135-1.641h.055q-.014-.185-.062-1.186T8.094-4.259V-9.994H9.181Zm5.742.137A3.442,3.442,0,0,1,12.3-.875a3.917,3.917,0,0,1-.96-2.81,4.344,4.344,0,0,1,.892-2.878,2.963,2.963,0,0,1,2.4-1.066,2.825,2.825,0,0,1,2.229.926,3.55,3.55,0,0,1,.82,2.444v.718H12.517a2.97,2.97,0,0,0,.667,2,2.305,2.305,0,0,0,1.781.684,6.035,6.035,0,0,0,2.393-.506V-.349a6.005,6.005,0,0,1-1.138.373A6.4,6.4,0,0,1,14.923.137Zm-.308-6.815a1.853,1.853,0,0,0-1.439.588,2.71,2.71,0,0,0-.632,1.627h3.917a2.5,2.5,0,0,0-.479-1.644A1.684,1.684,0,0,0,14.615-6.679Zm6.8,2.844-2.6-3.657H20.1L22.08-4.621l1.969-2.871h1.278l-2.6,3.657L25.464,0H24.179l-2.1-3.035L19.961,0H18.676ZM29.367-.8a3.707,3.707,0,0,0,.581-.044,3.761,3.761,0,0,0,.444-.092v.868a2.074,2.074,0,0,1-.543.147A4.081,4.081,0,0,1,29.2.137q-2.174,0-2.174-2.29V-6.61H25.956v-.547l1.073-.472.479-1.6h.656v1.736h2.174v.882H28.164V-2.2a1.517,1.517,0,0,0,.321,1.039A1.118,1.118,0,0,0,29.367-.8Z" transform="translate(255.813 589.852)"/>
    <path id="Path_346" data-name="Path 346" class="cls-5" d="M7.711-7.082A2.8,2.8,0,0,1,6.675-4.748a4.691,4.691,0,0,1-2.963.817H2.536V0H1.374V-9.994H3.965Q7.711-9.994,7.711-7.082ZM2.536-4.929H3.582a3.887,3.887,0,0,0,2.235-.5,1.839,1.839,0,0,0,.69-1.6A1.724,1.724,0,0,0,5.858-8.5a3.393,3.393,0,0,0-2.023-.485h-1.3Zm10.514-2.7a4.44,4.44,0,0,1,.9.082l-.157,1.053a3.865,3.865,0,0,0-.82-.1,2,2,0,0,0-1.555.738,2.692,2.692,0,0,0-.646,1.839V0H9.632V-7.492h.937L10.7-6.1h.055a3.293,3.293,0,0,1,1-1.128A2.262,2.262,0,0,1,13.05-7.629ZM18.512.137A3.442,3.442,0,0,1,15.89-.875a3.917,3.917,0,0,1-.96-2.81,4.344,4.344,0,0,1,.892-2.878,2.963,2.963,0,0,1,2.4-1.066,2.825,2.825,0,0,1,2.229.926,3.55,3.55,0,0,1,.82,2.444v.718H16.105a2.97,2.97,0,0,0,.667,2,2.305,2.305,0,0,0,1.781.684,6.035,6.035,0,0,0,2.393-.506V-.349a6.005,6.005,0,0,1-1.138.373A6.4,6.4,0,0,1,18.512.137ZM18.2-6.679a1.853,1.853,0,0,0-1.439.588,2.71,2.71,0,0,0-.632,1.627H20.05a2.5,2.5,0,0,0-.479-1.644A1.684,1.684,0,0,0,18.2-6.679ZM24.842,0,22-7.492h1.217l1.613,4.443a21.031,21.031,0,0,1,.643,2.023h.055A15.284,15.284,0,0,1,26-2.526q.4-1.138,1.794-4.966h1.217L26.168,0ZM31.35,0H30.215V-7.492H31.35Zm-1.23-9.522a.754.754,0,0,1,.191-.571.669.669,0,0,1,.479-.181.669.669,0,0,1,.472.185.74.74,0,0,1,.2.567.752.752,0,0,1-.2.571.662.662,0,0,1-.472.188.655.655,0,0,1-.479-.188A.768.768,0,0,1,30.119-9.522Zm10.1,5.77A4.133,4.133,0,0,1,39.3-.892,3.25,3.25,0,0,1,36.75.137a3.377,3.377,0,0,1-1.784-.472,3.113,3.113,0,0,1-1.2-1.354,4.717,4.717,0,0,1-.424-2.064,4.127,4.127,0,0,1,.916-2.854A3.24,3.24,0,0,1,36.8-7.629a3.169,3.169,0,0,1,2.5,1.046A4.115,4.115,0,0,1,40.223-3.753Zm-5.708,0a3.556,3.556,0,0,0,.574,2.188,1.993,1.993,0,0,0,1.688.752,2.006,2.006,0,0,0,1.692-.749,3.538,3.538,0,0,0,.578-2.191,3.481,3.481,0,0,0-.578-2.17,2.03,2.03,0,0,0-1.706-.742,2,2,0,0,0-1.682.731A3.52,3.52,0,0,0,34.515-3.753Zm8.764-3.739v4.86A1.955,1.955,0,0,0,43.7-1.265,1.7,1.7,0,0,0,45-.813a2.13,2.13,0,0,0,1.719-.643,3.241,3.241,0,0,0,.543-2.1V-7.492H48.4V0h-.937L47.3-1h-.062a2.262,2.262,0,0,1-.967.848,3.251,3.251,0,0,1-1.412.294A2.864,2.864,0,0,1,42.81-.513a2.765,2.765,0,0,1-.68-2.078v-4.9ZM55.638-2.044a1.877,1.877,0,0,1-.779,1.613,3.663,3.663,0,0,1-2.187.567,4.757,4.757,0,0,1-2.324-.472V-1.388a5.621,5.621,0,0,0,1.159.431A4.839,4.839,0,0,0,52.7-.8a2.705,2.705,0,0,0,1.367-.284.938.938,0,0,0,.479-.865.939.939,0,0,0-.379-.749,5.968,5.968,0,0,0-1.48-.735,8.025,8.025,0,0,1-1.487-.68,2.031,2.031,0,0,1-.656-.66,1.72,1.72,0,0,1-.215-.882A1.681,1.681,0,0,1,51.071-7.1a3.472,3.472,0,0,1,2.044-.53,5.98,5.98,0,0,1,2.365.492l-.4.923a5.429,5.429,0,0,0-2.044-.465,2.352,2.352,0,0,0-1.217.253.782.782,0,0,0-.41.7.849.849,0,0,0,.154.513,1.518,1.518,0,0,0,.5.4,11.075,11.075,0,0,0,1.313.554,4.9,4.9,0,0,1,1.8.978A1.724,1.724,0,0,1,55.638-2.044Z" transform="translate(150.593 589.953)"/>
    <path id="Path_345" data-name="Path 345" class="cls-5" d="M6.945,0H1.374V-9.994H6.945v1.032H2.536v3.22H6.679v1.025H2.536v3.678H6.945Zm3.849-3.835-2.6-3.657H9.481l1.976,2.871,1.969-2.871H14.7L12.1-3.835,14.841,0H13.556l-2.1-3.035L9.338,0H8.053ZM17.459,0H16.324V-7.492h1.135Zm-1.23-9.522a.754.754,0,0,1,.191-.571.669.669,0,0,1,.479-.181.669.669,0,0,1,.472.185.74.74,0,0,1,.2.567.752.752,0,0,1-.2.571.662.662,0,0,1-.472.188.655.655,0,0,1-.479-.188A.768.768,0,0,1,16.229-9.522ZM22.285-.8a3.707,3.707,0,0,0,.581-.044,3.761,3.761,0,0,0,.444-.092v.868a2.074,2.074,0,0,1-.543.147,4.081,4.081,0,0,1-.646.058q-2.174,0-2.174-2.29V-6.61H18.874v-.547l1.073-.472.479-1.6h.656v1.736h2.174v.882H21.082V-2.2A1.517,1.517,0,0,0,21.4-1.162,1.118,1.118,0,0,0,22.285-.8Z" transform="translate(47.101 589.953)"/>
    <path id="Path_399" data-name="Path 399" class="cls-6" d="M0,0H308" transform="translate(20.5 553.1)"/>
    <path id="Path_391" data-name="Path 391" class="cls-7" d="M0,0H248.5" transform="translate(53.6 55.9)"/>
    <path id="Path_390" data-name="Path 390" class="cls-3" d="M6.2,0A6.2,6.2,0,1,1,0,6.2,6.2,6.2,0,0,1,6.2,0Z" transform="translate(47.4 49.7)"/>
    <path id="Path_291" data-name="Path 291" class="cls-8" d="M53.6,74.3A5.6,5.6,0,1,1,48,79.9a5.591,5.591,0,0,1,5.6-5.6m0-1.1a6.7,6.7,0,1,0,6.7,6.7,6.7,6.7,0,0,0-6.7-6.7Z" transform="translate(0 -24)"/>
    <path id="Path_392" data-name="Path 392" class="cls-3" d="M6.2,0A6.2,6.2,0,1,1,0,6.2,6.2,6.2,0,0,1,6.2,0Z" transform="translate(107.8 49.7)"/>
    <path id="Path_292" data-name="Path 292" class="cls-9" d="M114,74.3a5.6,5.6,0,1,1-5.6,5.6,5.591,5.591,0,0,1,5.6-5.6m0-1.1a6.7,6.7,0,1,0,6.7,6.7,6.576,6.576,0,0,0-6.7-6.7Z" transform="translate(0 -24)"/>
    <path id="Path_396" data-name="Path 396" class="cls-3" d="M6.2,0A6.2,6.2,0,1,1,0,6.2,6.2,6.2,0,0,1,6.2,0Z" transform="translate(168.3 49.7)"/>
    <path id="Path_293" data-name="Path 293" class="cls-8" d="M174.5,74.3a5.6,5.6,0,1,1-5.6,5.6,5.591,5.591,0,0,1,5.6-5.6m0-1.1a6.7,6.7,0,1,0,6.7,6.7,6.7,6.7,0,0,0-6.7-6.7Z" transform="translate(0 -24)"/>
    <path id="Path_397" data-name="Path 397" class="cls-3" d="M6.2,0A6.2,6.2,0,1,1,0,6.2,6.2,6.2,0,0,1,6.2,0Z" transform="translate(228.7 49.8)"/>
    <path id="Path_294" data-name="Path 294" class="cls-8" d="M234.9,74.3a5.6,5.6,0,1,1-5.6,5.6,5.656,5.656,0,0,1,5.6-5.6m0-1.1a6.7,6.7,0,1,0,6.7,6.7,6.576,6.576,0,0,0-6.7-6.7Z" transform="translate(0 -24)"/>
    <path id="Path_400" data-name="Path 400" class="cls-3" d="M6.2,0A6.2,6.2,0,1,1,0,6.2,6.2,6.2,0,0,1,6.2,0Z" transform="translate(289.2 49.8)"/>
    <path id="Path_295" data-name="Path 295" class="cls-8" d="M295.4,74.4a5.6,5.6,0,1,1-5.6,5.6,5.591,5.591,0,0,1,5.6-5.6m0-1.1a6.7,6.7,0,1,0,6.7,6.7,6.7,6.7,0,0,0-6.7-6.7Z" transform="translate(0 -24)"/>
    <path id="Path_296" data-name="Path 296" class="cls-10" d="M327.7,19.6V617.9H21.3V19.6H327.7m.8-.8H20.5v600h308V18.8Z"/>
    <path id="Path_341" data-name="Path 341" class="cls-11" d="M17.088,0H14.041V-8.366H5.484V0H2.45V-18.561H5.484v7.592h8.557v-7.592h3.047Zm10.7.254a6.792,6.792,0,0,1-5.123-1.911A7.253,7.253,0,0,1,20.82-6.919a7.958,7.958,0,0,1,1.714-5.408,5.92,5.92,0,0,1,4.71-1.968,5.786,5.786,0,0,1,4.393,1.688A6.452,6.452,0,0,1,33.249-7.96v1.612H23.893A4.612,4.612,0,0,0,25-3.206a3.847,3.847,0,0,0,2.933,1.1,10.826,10.826,0,0,0,2.317-.235,12.145,12.145,0,0,0,2.3-.781V-.7a9.16,9.16,0,0,1-2.209.736A13.545,13.545,0,0,1,27.79.254Zm-.546-12.289a3,3,0,0,0-2.279.9,4.3,4.3,0,0,0-1.022,2.628h6.373a3.887,3.887,0,0,0-.838-2.634A2.866,2.866,0,0,0,27.244-12.035ZM45.424,0l-.6-1.955h-.1A5.752,5.752,0,0,1,42.682-.209a6.464,6.464,0,0,1-2.641.463A4.469,4.469,0,0,1,36.81-.863a4.18,4.18,0,0,1-1.162-3.161A3.712,3.712,0,0,1,37.261-7.3a9.3,9.3,0,0,1,4.913-1.206L44.6-8.582v-.749a2.839,2.839,0,0,0-.628-2.012,2.563,2.563,0,0,0-1.949-.667,6.738,6.738,0,0,0-2.069.317,15.616,15.616,0,0,0-1.9.749l-.965-2.133a10.384,10.384,0,0,1,2.5-.908,11.51,11.51,0,0,1,2.564-.311,6.074,6.074,0,0,1,4.043,1.168,4.573,4.573,0,0,1,1.365,3.669V0ZM40.98-2.031a3.7,3.7,0,0,0,2.609-.908,3.291,3.291,0,0,0,.984-2.545V-6.7l-1.8.076a6.168,6.168,0,0,0-3.066.7A2.141,2.141,0,0,0,38.746-4,1.877,1.877,0,0,0,39.3-2.545,2.4,2.4,0,0,0,40.98-2.031ZM56.456.254a4.891,4.891,0,0,1-4.1-1.9A8.559,8.559,0,0,1,50.883-7a8.587,8.587,0,0,1,1.492-5.376,4.937,4.937,0,0,1,4.132-1.923,4.841,4.841,0,0,1,4.215,2.044h.152a17.884,17.884,0,0,1-.216-2.387v-5.116h3V0H61.318L60.8-1.841h-.14A4.77,4.77,0,0,1,56.456.254Zm.8-2.412a3.247,3.247,0,0,0,2.679-1.035A5.447,5.447,0,0,0,60.8-6.551V-6.97a6.293,6.293,0,0,0-.863-3.771,3.2,3.2,0,0,0-2.7-1.117,2.744,2.744,0,0,0-2.425,1.276,6.539,6.539,0,0,0-.851,3.637,6.375,6.375,0,0,0,.825,3.561A2.786,2.786,0,0,0,57.256-2.158ZM74.052.254a6.792,6.792,0,0,1-5.123-1.911,7.253,7.253,0,0,1-1.847-5.262A7.958,7.958,0,0,1,68.8-12.327a5.92,5.92,0,0,1,4.71-1.968A5.786,5.786,0,0,1,77.9-12.606,6.452,6.452,0,0,1,79.511-7.96v1.612H70.154a4.612,4.612,0,0,0,1.1,3.142,3.847,3.847,0,0,0,2.933,1.1,10.826,10.826,0,0,0,2.317-.235,12.144,12.144,0,0,0,2.3-.781V-.7A9.16,9.16,0,0,1,76.6.038,13.545,13.545,0,0,1,74.052.254Zm-.546-12.289a3,3,0,0,0-2.279.9,4.3,4.3,0,0,0-1.022,2.628h6.373a3.887,3.887,0,0,0-.838-2.634A2.866,2.866,0,0,0,73.506-12.035Zm16.517-2.26a7.182,7.182,0,0,1,1.485.127l-.292,2.78a5.639,5.639,0,0,0-1.32-.152,3.821,3.821,0,0,0-2.9,1.168,4.222,4.222,0,0,0-1.111,3.034V0H82.9V-14.041h2.336l.394,2.476h.152A5.563,5.563,0,0,1,87.6-13.559,4.33,4.33,0,0,1,90.022-14.295ZM6.945,36H1.374V26.006H6.945v1.032H2.536v3.22H6.679v1.025H2.536v3.678H6.945Zm7.171,0V31.153a1.955,1.955,0,0,0-.417-1.367,1.7,1.7,0,0,0-1.306-.451,2.153,2.153,0,0,0-1.723.636,3.21,3.21,0,0,0-.547,2.1V36H8.989V28.508h.923l.185,1.025h.055a2.317,2.317,0,0,1,.978-.858,3.176,3.176,0,0,1,1.4-.3,2.846,2.846,0,0,1,2.037.653,2.778,2.778,0,0,1,.684,2.088V36ZM20,35.2a3.707,3.707,0,0,0,.581-.044,3.761,3.761,0,0,0,.444-.092v.868a2.074,2.074,0,0,1-.543.147,4.081,4.081,0,0,1-.646.058q-2.174,0-2.174-2.29V29.39H16.591v-.547l1.073-.472.479-1.6H18.8v1.736h2.174v.882H18.8V33.8a1.517,1.517,0,0,0,.321,1.039A1.118,1.118,0,0,0,20,35.2Zm5.688.937a3.442,3.442,0,0,1-2.622-1.012,3.917,3.917,0,0,1-.96-2.81A4.344,4.344,0,0,1,23,29.438a2.963,2.963,0,0,1,2.4-1.066,2.825,2.825,0,0,1,2.229.926,3.55,3.55,0,0,1,.82,2.444v.718H23.283a2.97,2.97,0,0,0,.667,2,2.305,2.305,0,0,0,1.781.684,6.035,6.035,0,0,0,2.393-.506v1.012a6.005,6.005,0,0,1-1.138.373A6.4,6.4,0,0,1,25.689,36.137Zm-.308-6.815a1.853,1.853,0,0,0-1.439.588,2.71,2.71,0,0,0-.632,1.627h3.917a2.5,2.5,0,0,0-.479-1.644A1.684,1.684,0,0,0,25.382,29.321Zm8.415-.95a4.44,4.44,0,0,1,.9.082l-.157,1.053a3.865,3.865,0,0,0-.82-.1,2,2,0,0,0-1.555.738,2.692,2.692,0,0,0-.646,1.839V36H30.379V28.508h.937l.13,1.388H31.5a3.293,3.293,0,0,1,1-1.128A2.262,2.262,0,0,1,33.8,28.371Zm10.767,5.585a1.877,1.877,0,0,1-.779,1.613,3.663,3.663,0,0,1-2.187.567,4.757,4.757,0,0,1-2.324-.472V34.612a5.621,5.621,0,0,0,1.159.431,4.839,4.839,0,0,0,1.193.157,2.705,2.705,0,0,0,1.367-.284.977.977,0,0,0,.1-1.613,5.968,5.968,0,0,0-1.48-.735,8.025,8.025,0,0,1-1.487-.68,2.031,2.031,0,0,1-.656-.66,1.72,1.72,0,0,1-.215-.882A1.681,1.681,0,0,1,40,28.9a3.472,3.472,0,0,1,2.044-.53,5.98,5.98,0,0,1,2.365.492l-.4.923a5.429,5.429,0,0,0-2.044-.465,2.352,2.352,0,0,0-1.217.253.782.782,0,0,0-.41.7.849.849,0,0,0,.154.513,1.518,1.518,0,0,0,.5.4,11.076,11.076,0,0,0,1.313.554,4.9,4.9,0,0,1,1.8.978A1.724,1.724,0,0,1,44.563,33.956Zm8.313-1.709a4.133,4.133,0,0,1-.923,2.861,3.25,3.25,0,0,1-2.55,1.029,3.377,3.377,0,0,1-1.784-.472,3.113,3.113,0,0,1-1.2-1.354,4.717,4.717,0,0,1-.424-2.064,4.127,4.127,0,0,1,.916-2.854,3.24,3.24,0,0,1,2.543-1.022,3.169,3.169,0,0,1,2.5,1.046A4.115,4.115,0,0,1,52.876,32.247Zm-5.708,0a3.556,3.556,0,0,0,.574,2.188,2.279,2.279,0,0,0,3.38,0,3.538,3.538,0,0,0,.578-2.191,3.481,3.481,0,0,0-.578-2.17,2.03,2.03,0,0,0-1.706-.742,2,2,0,0,0-1.682.731A3.52,3.52,0,0,0,47.168,32.247ZM64.415,36V31.126a2.023,2.023,0,0,0-.383-1.343,1.481,1.481,0,0,0-1.189-.448,1.92,1.92,0,0,0-1.565.608,2.891,2.891,0,0,0-.506,1.873V36H59.637V31.126a2.023,2.023,0,0,0-.383-1.343,1.49,1.49,0,0,0-1.2-.448,1.853,1.853,0,0,0-1.562.639,3.459,3.459,0,0,0-.5,2.1V36H54.865V28.508h.923l.185,1.025h.055a2.23,2.23,0,0,1,.906-.854,2.767,2.767,0,0,1,1.309-.308,2.226,2.226,0,0,1,2.3,1.271h.055a2.389,2.389,0,0,1,.971-.93,3.012,3.012,0,0,1,1.449-.342,2.537,2.537,0,0,1,1.9.653,2.921,2.921,0,0,1,.632,2.088V36Zm6.638.137a3.442,3.442,0,0,1-2.622-1.012,3.917,3.917,0,0,1-.96-2.81,4.344,4.344,0,0,1,.892-2.878,2.963,2.963,0,0,1,2.4-1.066,2.825,2.825,0,0,1,2.229.926,3.55,3.55,0,0,1,.82,2.444v.718H68.646a2.97,2.97,0,0,0,.667,2,2.305,2.305,0,0,0,1.781.684,6.035,6.035,0,0,0,2.393-.506v1.012a6.005,6.005,0,0,1-1.138.373A6.4,6.4,0,0,1,71.053,36.137Zm-.308-6.815a1.853,1.853,0,0,0-1.439.588,2.71,2.71,0,0,0-.632,1.627h3.917a2.5,2.5,0,0,0-.479-1.644A1.684,1.684,0,0,0,70.745,29.321Zm12.12,6.815a3.242,3.242,0,0,1-1.336-.27,2.513,2.513,0,0,1-1.015-.831h-.082a10.049,10.049,0,0,1,.082,1.244v3.083H79.379V28.508H80.3l.157,1.025h.055a2.635,2.635,0,0,1,1.019-.889,3.1,3.1,0,0,1,1.333-.273,2.769,2.769,0,0,1,2.3,1.019,4.484,4.484,0,0,1,.81,2.857,4.458,4.458,0,0,1-.824,2.868A2.774,2.774,0,0,1,82.865,36.137Zm-.164-6.8a2.011,2.011,0,0,0-1.661.636,3.271,3.271,0,0,0-.526,2.023v.253a3.749,3.749,0,0,0,.526,2.259,2,2,0,0,0,1.688.68A1.756,1.756,0,0,0,84.25,34.4a3.728,3.728,0,0,0,.55-2.167,3.588,3.588,0,0,0-.55-2.15A1.81,1.81,0,0,0,82.7,29.335ZM92.565,36l-.226-1.066h-.055a3.153,3.153,0,0,1-1.118.954,3.407,3.407,0,0,1-1.391.25,2.5,2.5,0,0,1-1.747-.574,2.094,2.094,0,0,1-.632-1.634q0-2.27,3.63-2.379l1.271-.041v-.465a1.9,1.9,0,0,0-.379-1.3,1.56,1.56,0,0,0-1.213-.42,4.944,4.944,0,0,0-2.119.574l-.349-.868a5.332,5.332,0,0,1,1.213-.472,5.255,5.255,0,0,1,1.323-.171,2.854,2.854,0,0,1,1.986.595,2.482,2.482,0,0,1,.646,1.907V36ZM90,35.2a2.3,2.3,0,0,0,1.665-.581,2.15,2.15,0,0,0,.6-1.627v-.677l-1.135.048a4.128,4.128,0,0,0-1.952.42,1.268,1.268,0,0,0-.6,1.159,1.169,1.169,0,0,0,.373.937A1.546,1.546,0,0,0,90,35.2Zm11.874-6.692v.718l-1.388.164a2.437,2.437,0,0,1,.492,1.5,2.215,2.215,0,0,1-.752,1.757,3.033,3.033,0,0,1-2.064.656,3.438,3.438,0,0,1-.629-.055,1.117,1.117,0,0,0-.725.964.49.49,0,0,0,.253.455,1.848,1.848,0,0,0,.868.147h1.326a2.97,2.97,0,0,1,1.87.513,1.781,1.781,0,0,1,.653,1.49,2.127,2.127,0,0,1-1,1.9,5.342,5.342,0,0,1-2.912.653,3.979,3.979,0,0,1-2.266-.547,1.766,1.766,0,0,1-.8-1.545,1.735,1.735,0,0,1,.438-1.183,2.228,2.228,0,0,1,1.23-.677,1.187,1.187,0,0,1-.482-.4,1.067,1.067,0,0,1-.195-.636,1.207,1.207,0,0,1,.219-.718,2.3,2.3,0,0,1,.69-.595,2.024,2.024,0,0,1-.947-.813,2.39,2.39,0,0,1-.366-1.312,2.424,2.424,0,0,1,.738-1.9,3.014,3.014,0,0,1,2.092-.667,3.8,3.8,0,0,1,1.06.137ZM95.9,37.258a1.017,1.017,0,0,0,.513.923,2.83,2.83,0,0,0,1.47.314A4.1,4.1,0,0,0,100,38.068a1.308,1.308,0,0,0,.687-1.159.917.917,0,0,0-.376-.844,2.92,2.92,0,0,0-1.415-.236h-1.36a1.792,1.792,0,0,0-1.2.369A1.319,1.319,0,0,0,95.9,37.258Zm.615-6.351a1.525,1.525,0,0,0,.444,1.189,1.774,1.774,0,0,0,1.237.4,1.447,1.447,0,0,0,1.661-1.613A1.489,1.489,0,0,0,98.178,29.2a1.665,1.665,0,0,0-1.23.431A1.734,1.734,0,0,0,96.517,30.907Zm10.063,5.229a3.442,3.442,0,0,1-2.622-1.012,3.917,3.917,0,0,1-.96-2.81,4.344,4.344,0,0,1,.892-2.878,2.963,2.963,0,0,1,2.4-1.066,2.825,2.825,0,0,1,2.229.926,3.55,3.55,0,0,1,.82,2.444v.718h-5.161a2.97,2.97,0,0,0,.667,2,2.305,2.305,0,0,0,1.781.684,6.035,6.035,0,0,0,2.393-.506v1.012a6.005,6.005,0,0,1-1.138.373A6.4,6.4,0,0,1,106.579,36.137Zm-.308-6.815a1.853,1.853,0,0,0-1.439.588,2.71,2.71,0,0,0-.632,1.627h3.917a2.5,2.5,0,0,0-.479-1.644A1.684,1.684,0,0,0,106.271,29.321ZM120,35h-.062a2.666,2.666,0,0,1-2.352,1.142,2.782,2.782,0,0,1-2.287-1,4.423,4.423,0,0,1-.817-2.857,4.5,4.5,0,0,1,.82-2.878,2.76,2.76,0,0,1,2.283-1.025,2.724,2.724,0,0,1,2.338,1.107h.089l-.048-.54-.027-.526V25.363h1.135V36h-.923Zm-2.27.191a2.066,2.066,0,0,0,1.685-.632,3.2,3.2,0,0,0,.523-2.041v-.239a3.76,3.76,0,0,0-.53-2.273,2.012,2.012,0,0,0-1.692-.68,1.737,1.737,0,0,0-1.528.776,3.858,3.858,0,0,0-.53,2.191,3.7,3.7,0,0,0,.526,2.167A1.783,1.783,0,0,0,117.735,35.187Zm8.914.95a3.442,3.442,0,0,1-2.622-1.012,3.917,3.917,0,0,1-.96-2.81,4.344,4.344,0,0,1,.892-2.878,2.963,2.963,0,0,1,2.4-1.066,2.825,2.825,0,0,1,2.229.926,3.55,3.55,0,0,1,.82,2.444v.718h-5.161a2.97,2.97,0,0,0,.667,2,2.305,2.305,0,0,0,1.781.684,6.035,6.035,0,0,0,2.393-.506v1.012a6.005,6.005,0,0,1-1.138.373A6.4,6.4,0,0,1,126.649,36.137Zm-.308-6.815a1.853,1.853,0,0,0-1.439.588,2.71,2.71,0,0,0-.632,1.627h3.917a2.5,2.5,0,0,0-.479-1.644A1.684,1.684,0,0,0,126.342,29.321Zm9.83,4.635a1.877,1.877,0,0,1-.779,1.613,3.663,3.663,0,0,1-2.187.567,4.757,4.757,0,0,1-2.324-.472V34.612a5.621,5.621,0,0,0,1.159.431,4.839,4.839,0,0,0,1.193.157,2.705,2.705,0,0,0,1.367-.284.977.977,0,0,0,.1-1.613,5.968,5.968,0,0,0-1.48-.735,8.025,8.025,0,0,1-1.487-.68,2.031,2.031,0,0,1-.656-.66,1.72,1.72,0,0,1-.215-.882,1.681,1.681,0,0,1,.745-1.446,3.472,3.472,0,0,1,2.044-.53,5.98,5.98,0,0,1,2.365.492l-.4.923a5.429,5.429,0,0,0-2.044-.465,2.352,2.352,0,0,0-1.217.253.782.782,0,0,0-.41.7.849.849,0,0,0,.154.513,1.518,1.518,0,0,0,.5.4,11.075,11.075,0,0,0,1.313.554,4.9,4.9,0,0,1,1.8.978A1.724,1.724,0,0,1,136.172,33.956Zm4.84,2.181a3.2,3.2,0,0,1-2.519-1A4.118,4.118,0,0,1,137.6,32.3a4.247,4.247,0,0,1,.906-2.905,3.261,3.261,0,0,1,2.581-1.025,5.121,5.121,0,0,1,1.08.116,3.558,3.558,0,0,1,.848.273l-.349.964a5.336,5.336,0,0,0-.82-.25,3.663,3.663,0,0,0-.786-.1q-2.283,0-2.283,2.912a3.468,3.468,0,0,0,.557,2.119,1.938,1.938,0,0,0,1.651.738,5.048,5.048,0,0,0,1.921-.4v1A4.094,4.094,0,0,1,141.012,36.137Zm7.089-7.766a4.44,4.44,0,0,1,.9.082l-.157,1.053a3.865,3.865,0,0,0-.82-.1,2,2,0,0,0-1.555.738,2.692,2.692,0,0,0-.646,1.839V36h-1.135V28.508h.937l.13,1.388h.055a3.294,3.294,0,0,1,1-1.128A2.262,2.262,0,0,1,148.1,28.371ZM151.532,36H150.4V28.508h1.135Zm-1.23-9.522a.754.754,0,0,1,.191-.571.709.709,0,0,1,.95,0,.74.74,0,0,1,.2.567.752.752,0,0,1-.2.571.694.694,0,0,1-.95,0A.768.768,0,0,1,150.3,26.478Zm7.123,9.659a3.242,3.242,0,0,1-1.336-.27,2.513,2.513,0,0,1-1.015-.831h-.082a10.049,10.049,0,0,1,.082,1.244v3.083h-1.135V28.508h.923l.157,1.025h.055a2.635,2.635,0,0,1,1.019-.889,3.1,3.1,0,0,1,1.333-.273,2.769,2.769,0,0,1,2.3,1.019,4.484,4.484,0,0,1,.81,2.857,4.458,4.458,0,0,1-.824,2.868A2.774,2.774,0,0,1,157.425,36.137Zm-.164-6.8a2.011,2.011,0,0,0-1.661.636,3.271,3.271,0,0,0-.526,2.023v.253a3.749,3.749,0,0,0,.526,2.259,2,2,0,0,0,1.688.68,1.756,1.756,0,0,0,1.521-.786,3.728,3.728,0,0,0,.55-2.167,3.588,3.588,0,0,0-.55-2.15A1.81,1.81,0,0,0,157.261,29.335Zm7.677,5.865a3.707,3.707,0,0,0,.581-.044,3.761,3.761,0,0,0,.444-.092v.868a2.074,2.074,0,0,1-.543.147,4.081,4.081,0,0,1-.646.058q-2.174,0-2.174-2.29V29.39h-1.073v-.547l1.073-.472.479-1.6h.656v1.736h2.174v.882h-2.174V33.8a1.517,1.517,0,0,0,.321,1.039A1.118,1.118,0,0,0,164.938,35.2Zm3.657.8H167.46V28.508h1.135Zm-1.23-9.522a.754.754,0,0,1,.191-.571.709.709,0,0,1,.95,0,.74.74,0,0,1,.2.567.752.752,0,0,1-.2.571.694.694,0,0,1-.95,0A.768.768,0,0,1,167.364,26.478Zm10.1,5.77a4.133,4.133,0,0,1-.923,2.861A3.25,3.25,0,0,1,174,36.137a3.377,3.377,0,0,1-1.784-.472,3.113,3.113,0,0,1-1.2-1.354,4.717,4.717,0,0,1-.424-2.064,4.127,4.127,0,0,1,.916-2.854,3.24,3.24,0,0,1,2.543-1.022,3.169,3.169,0,0,1,2.5,1.046A4.115,4.115,0,0,1,177.468,32.247Zm-5.708,0a3.556,3.556,0,0,0,.574,2.188,2.279,2.279,0,0,0,3.38,0,3.538,3.538,0,0,0,.578-2.191,3.481,3.481,0,0,0-.578-2.17,2.03,2.03,0,0,0-1.706-.742,2,2,0,0,0-1.682.731A3.52,3.52,0,0,0,171.76,32.247ZM184.584,36V31.153a1.955,1.955,0,0,0-.417-1.367,1.7,1.7,0,0,0-1.306-.451,2.153,2.153,0,0,0-1.723.636,3.21,3.21,0,0,0-.547,2.1V36h-1.135V28.508h.923l.185,1.025h.055a2.317,2.317,0,0,1,.978-.858,3.176,3.176,0,0,1,1.4-.3,2.846,2.846,0,0,1,2.037.653,2.778,2.778,0,0,1,.684,2.088V36Zm9.522-.8a3.707,3.707,0,0,0,.581-.044,3.761,3.761,0,0,0,.444-.092v.868a2.074,2.074,0,0,1-.543.147,4.081,4.081,0,0,1-.646.058q-2.174,0-2.174-2.29V29.39H190.7v-.547l1.073-.472.479-1.6h.656v1.736h2.174v.882H192.9V33.8a1.517,1.517,0,0,0,.321,1.039A1.118,1.118,0,0,0,194.106,35.2Zm5.688.937a3.442,3.442,0,0,1-2.622-1.012,3.917,3.917,0,0,1-.96-2.81,4.344,4.344,0,0,1,.892-2.878,2.963,2.963,0,0,1,2.4-1.066,2.825,2.825,0,0,1,2.229.926,3.55,3.55,0,0,1,.82,2.444v.718h-5.161a2.97,2.97,0,0,0,.667,2,2.305,2.305,0,0,0,1.781.684,6.035,6.035,0,0,0,2.393-.506v1.012a6.005,6.005,0,0,1-1.138.373A6.4,6.4,0,0,1,199.794,36.137Zm-.308-6.815a1.853,1.853,0,0,0-1.439.588,2.71,2.71,0,0,0-.632,1.627h3.917a2.5,2.5,0,0,0-.479-1.644A1.684,1.684,0,0,0,199.486,29.321Zm6.8,2.844-2.6-3.657h1.292l1.976,2.871,1.969-2.871H210.2l-2.6,3.657L210.335,36H209.05l-2.1-3.035L204.832,36h-1.285Zm7.95,3.035a3.707,3.707,0,0,0,.581-.044,3.761,3.761,0,0,0,.444-.092v.868a2.074,2.074,0,0,1-.543.147,4.081,4.081,0,0,1-.646.058q-2.174,0-2.174-2.29V29.39h-1.073v-.547l1.073-.472.479-1.6h.656v1.736h2.174v.882h-2.174V33.8a1.517,1.517,0,0,0,.321,1.039A1.118,1.118,0,0,0,214.238,35.2Zm11.286.8V31.153a1.955,1.955,0,0,0-.417-1.367,1.7,1.7,0,0,0-1.306-.451,2.139,2.139,0,0,0-1.726.643,3.255,3.255,0,0,0-.543,2.105V36H220.4V25.363h1.135v3.22a7.016,7.016,0,0,1-.055.964h.068a2.314,2.314,0,0,1,.954-.851,3.1,3.1,0,0,1,1.412-.311,2.891,2.891,0,0,1,2.061.653,2.749,2.749,0,0,1,.687,2.075V36Zm6.631.137a3.442,3.442,0,0,1-2.622-1.012,3.917,3.917,0,0,1-.96-2.81,4.344,4.344,0,0,1,.892-2.878,2.963,2.963,0,0,1,2.4-1.066,2.825,2.825,0,0,1,2.229.926,3.55,3.55,0,0,1,.82,2.444v.718h-5.161a2.97,2.97,0,0,0,.667,2,2.305,2.305,0,0,0,1.781.684,6.035,6.035,0,0,0,2.393-.506v1.012a6.005,6.005,0,0,1-1.138.373A6.4,6.4,0,0,1,232.155,36.137Zm-.308-6.815a1.853,1.853,0,0,0-1.439.588,2.71,2.71,0,0,0-.632,1.627h3.917a2.5,2.5,0,0,0-.479-1.644A1.684,1.684,0,0,0,231.848,29.321Zm8.415-.95a4.44,4.44,0,0,1,.9.082L241,29.506a3.865,3.865,0,0,0-.82-.1,2,2,0,0,0-1.555.738,2.692,2.692,0,0,0-.646,1.839V36h-1.135V28.508h.937l.13,1.388h.055a3.294,3.294,0,0,1,1-1.128A2.262,2.262,0,0,1,240.263,28.371Zm5.462,7.766a3.442,3.442,0,0,1-2.622-1.012,3.917,3.917,0,0,1-.96-2.81,4.344,4.344,0,0,1,.892-2.878,2.963,2.963,0,0,1,2.4-1.066,2.825,2.825,0,0,1,2.229.926,3.55,3.55,0,0,1,.82,2.444v.718h-5.161a2.97,2.97,0,0,0,.667,2,2.305,2.305,0,0,0,1.781.684,6.035,6.035,0,0,0,2.393-.506v1.012a6.005,6.005,0,0,1-1.138.373A6.4,6.4,0,0,1,245.725,36.137Zm-.308-6.815a1.853,1.853,0,0,0-1.439.588,2.71,2.71,0,0,0-.632,1.627h3.917a2.5,2.5,0,0,0-.479-1.644A1.684,1.684,0,0,0,245.417,29.321Zm4.833,5.954a1.018,1.018,0,0,1,.208-.694.756.756,0,0,1,.6-.236.809.809,0,0,1,.619.236.976.976,0,0,1,.222.694.959.959,0,0,1-.226.684.9.9,0,0,1-1.193.024A.936.936,0,0,1,250.25,35.275Z" transform="translate(48.032 134.75)"/>
    <path id="Path_342" data-name="Path 342" class="cls-11" d="M3.343,0H1.258V-9.994H6.986v1.736H3.343v2.577H6.733v1.729H3.343ZM8.688-9.618q0-1.019,1.135-1.019t1.135,1.019a.993.993,0,0,1-.284.755,1.192,1.192,0,0,1-.851.27Q8.688-8.593,8.688-9.618ZM10.862,0H8.777V-7.643h2.085Zm5.353-6.3a1.322,1.322,0,0,0-1.039.42,1.946,1.946,0,0,0-.431,1.193h2.926a1.738,1.738,0,0,0-.4-1.193A1.366,1.366,0,0,0,16.215-6.3ZM16.509.137A3.945,3.945,0,0,1,13.624-.882a3.857,3.857,0,0,1-1.039-2.885,4.242,4.242,0,0,1,.96-2.97A3.42,3.42,0,0,1,16.2-7.786a3.366,3.366,0,0,1,2.522.923,3.491,3.491,0,0,1,.9,2.55V-3.3H14.7a2.007,2.007,0,0,0,.526,1.388,1.852,1.852,0,0,0,1.381.5,5.732,5.732,0,0,0,1.306-.144A6.533,6.533,0,0,0,19.2-2.017V-.4A4.9,4.9,0,0,1,18.026,0,7.37,7.37,0,0,1,16.509.137ZM23.406,0H21.321V-10.637h2.085Zm4.607.137A2.482,2.482,0,0,1,25.9-.909a4.808,4.808,0,0,1-.769-2.9,4.813,4.813,0,0,1,.783-2.929,2.542,2.542,0,0,1,2.157-1.049,2.493,2.493,0,0,1,2.2,1.121h.068a8.524,8.524,0,0,1-.157-1.524v-2.447h2.092V0h-1.6l-.4-.991h-.089A2.386,2.386,0,0,1,28.014.137Zm.731-1.661a1.413,1.413,0,0,0,1.172-.465,2.7,2.7,0,0,0,.407-1.579v-.226a3.125,3.125,0,0,0-.379-1.764,1.409,1.409,0,0,0-1.234-.533,1.224,1.224,0,0,0-1.083.591,3.155,3.155,0,0,0-.386,1.719,2.99,2.99,0,0,0,.39,1.692A1.273,1.273,0,0,0,28.745-1.524ZM42.779,0H40.667V-5.783l.021-.95.034-1.039q-.526.526-.731.69l-1.148.923L37.823-7.431l3.22-2.563h1.736Zm3.008-.978a1.146,1.146,0,0,1,.308-.868,1.247,1.247,0,0,1,.9-.294,1.212,1.212,0,0,1,.878.3,1.143,1.143,0,0,1,.311.861,1.143,1.143,0,0,1-.314.851,1.19,1.19,0,0,1-.875.311,1.226,1.226,0,0,1-.889-.3A1.138,1.138,0,0,1,45.787-.978Zm0-5.646a1.146,1.146,0,0,1,.308-.868,1.247,1.247,0,0,1,.9-.294,1.212,1.212,0,0,1,.878.3,1.143,1.143,0,0,1,.311.861,1.131,1.131,0,0,1-.318.858,1.208,1.208,0,0,1-.872.3,1.234,1.234,0,0,1-.889-.3A1.136,1.136,0,0,1,45.787-6.624Z" transform="translate(48.032 239.571)"/>
    <path id="Path_393" data-name="Path 393" class="cls-3" d="M0,0H158V41H0Z" transform="translate(125.5 216.3)"/>
    <path id="Path_297" data-name="Path 297" class="cls-12" d="M283,240.8v40H126v-40H283m1-1H125v42H284v-42Z" transform="translate(0 -24)"/>
    <path id="Path_343" data-name="Path 343" class="cls-11" d="M3.343,0H1.258V-9.994H6.986v1.736H3.343v2.577H6.733v1.729H3.343ZM8.688-9.618q0-1.019,1.135-1.019t1.135,1.019a.993.993,0,0,1-.284.755,1.192,1.192,0,0,1-.851.27Q8.688-8.593,8.688-9.618ZM10.862,0H8.777V-7.643h2.085Zm5.353-6.3a1.322,1.322,0,0,0-1.039.42,1.946,1.946,0,0,0-.431,1.193h2.926a1.738,1.738,0,0,0-.4-1.193A1.366,1.366,0,0,0,16.215-6.3ZM16.509.137A3.945,3.945,0,0,1,13.624-.882a3.857,3.857,0,0,1-1.039-2.885,4.242,4.242,0,0,1,.96-2.97A3.42,3.42,0,0,1,16.2-7.786a3.366,3.366,0,0,1,2.522.923,3.491,3.491,0,0,1,.9,2.55V-3.3H14.7a2.007,2.007,0,0,0,.526,1.388,1.852,1.852,0,0,0,1.381.5,5.732,5.732,0,0,0,1.306-.144A6.533,6.533,0,0,0,19.2-2.017V-.4A4.9,4.9,0,0,1,18.026,0,7.37,7.37,0,0,1,16.509.137ZM23.406,0H21.321V-10.637h2.085Zm4.607.137A2.482,2.482,0,0,1,25.9-.909a4.808,4.808,0,0,1-.769-2.9,4.813,4.813,0,0,1,.783-2.929,2.542,2.542,0,0,1,2.157-1.049,2.493,2.493,0,0,1,2.2,1.121h.068a8.524,8.524,0,0,1-.157-1.524v-2.447h2.092V0h-1.6l-.4-.991h-.089A2.386,2.386,0,0,1,28.014.137Zm.731-1.661a1.413,1.413,0,0,0,1.172-.465,2.7,2.7,0,0,0,.407-1.579v-.226a3.125,3.125,0,0,0-.379-1.764,1.409,1.409,0,0,0-1.234-.533,1.224,1.224,0,0,0-1.083.591,3.155,3.155,0,0,0-.386,1.719,2.99,2.99,0,0,0,.39,1.692A1.273,1.273,0,0,0,28.745-1.524ZM44.543,0H37.557V-1.47l2.509-2.536q1.114-1.142,1.456-1.583a3.48,3.48,0,0,0,.492-.817,2.08,2.08,0,0,0,.15-.779,1.136,1.136,0,0,0-.332-.9,1.286,1.286,0,0,0-.885-.294,2.546,2.546,0,0,0-1.128.267,5.821,5.821,0,0,0-1.142.759l-1.148-1.36A7.492,7.492,0,0,1,38.753-9.6a4.492,4.492,0,0,1,1.06-.4,5.429,5.429,0,0,1,1.285-.14,3.805,3.805,0,0,1,1.654.342,2.639,2.639,0,0,1,1.114.957,2.542,2.542,0,0,1,.4,1.408,3.447,3.447,0,0,1-.243,1.3,4.974,4.974,0,0,1-.752,1.241,18.383,18.383,0,0,1-1.794,1.812l-1.285,1.21v.1h4.354Zm1.244-.978a1.146,1.146,0,0,1,.308-.868,1.247,1.247,0,0,1,.9-.294,1.212,1.212,0,0,1,.878.3,1.143,1.143,0,0,1,.311.861,1.143,1.143,0,0,1-.314.851,1.19,1.19,0,0,1-.875.311,1.226,1.226,0,0,1-.889-.3A1.138,1.138,0,0,1,45.787-.978Zm0-5.646a1.146,1.146,0,0,1,.308-.868,1.247,1.247,0,0,1,.9-.294,1.212,1.212,0,0,1,.878.3,1.143,1.143,0,0,1,.311.861,1.131,1.131,0,0,1-.318.858,1.208,1.208,0,0,1-.872.3,1.234,1.234,0,0,1-.889-.3A1.136,1.136,0,0,1,45.787-6.624Z" transform="translate(48.032 294.571)"/>
    <path id="Path_394" data-name="Path 394" class="cls-3" d="M0,0H90V41H0Z" transform="translate(125.5 271.3)"/>
    <path id="Path_298" data-name="Path 298" class="cls-12" d="M215,295.8v40H126v-40h89m1-1H125v42h91v-42Z" transform="translate(0 -24)"/>
    <path id="Path_344" data-name="Path 344" class="cls-11" d="M3.343,0H1.258V-9.994H6.986v1.736H3.343v2.577H6.733v1.729H3.343ZM8.688-9.618q0-1.019,1.135-1.019t1.135,1.019a.993.993,0,0,1-.284.755,1.192,1.192,0,0,1-.851.27Q8.688-8.593,8.688-9.618ZM10.862,0H8.777V-7.643h2.085Zm5.353-6.3a1.322,1.322,0,0,0-1.039.42,1.946,1.946,0,0,0-.431,1.193h2.926a1.738,1.738,0,0,0-.4-1.193A1.366,1.366,0,0,0,16.215-6.3ZM16.509.137A3.945,3.945,0,0,1,13.624-.882a3.857,3.857,0,0,1-1.039-2.885,4.242,4.242,0,0,1,.96-2.97A3.42,3.42,0,0,1,16.2-7.786a3.366,3.366,0,0,1,2.522.923,3.491,3.491,0,0,1,.9,2.55V-3.3H14.7a2.007,2.007,0,0,0,.526,1.388,1.852,1.852,0,0,0,1.381.5,5.732,5.732,0,0,0,1.306-.144A6.533,6.533,0,0,0,19.2-2.017V-.4A4.9,4.9,0,0,1,18.026,0,7.37,7.37,0,0,1,16.509.137ZM23.406,0H21.321V-10.637h2.085Zm4.607.137A2.482,2.482,0,0,1,25.9-.909a4.808,4.808,0,0,1-.769-2.9,4.813,4.813,0,0,1,.783-2.929,2.542,2.542,0,0,1,2.157-1.049,2.493,2.493,0,0,1,2.2,1.121h.068a8.524,8.524,0,0,1-.157-1.524v-2.447h2.092V0h-1.6l-.4-.991h-.089A2.386,2.386,0,0,1,28.014.137Zm.731-1.661a1.413,1.413,0,0,0,1.172-.465,2.7,2.7,0,0,0,.407-1.579v-.226a3.125,3.125,0,0,0-.379-1.764,1.409,1.409,0,0,0-1.234-.533,1.224,1.224,0,0,0-1.083.591,3.155,3.155,0,0,0-.386,1.719,2.99,2.99,0,0,0,.39,1.692A1.273,1.273,0,0,0,28.745-1.524ZM44.153-7.759a2.352,2.352,0,0,1-.567,1.593,2.941,2.941,0,0,1-1.593.9v.041a3.183,3.183,0,0,1,1.832.735,2.059,2.059,0,0,1,.622,1.576A2.67,2.67,0,0,1,43.4-.667a4.821,4.821,0,0,1-2.987.8A7.254,7.254,0,0,1,37.529-.4V-2.2a6.52,6.52,0,0,0,1.278.479,5.379,5.379,0,0,0,1.381.185,2.685,2.685,0,0,0,1.545-.355,1.3,1.3,0,0,0,.5-1.142,1.031,1.031,0,0,0-.574-1,4.248,4.248,0,0,0-1.832-.294h-.759v-1.62h.772a3.592,3.592,0,0,0,1.7-.3,1.1,1.1,0,0,0,.537-1.042q0-1.135-1.422-1.135a3.254,3.254,0,0,0-1,.164,4.892,4.892,0,0,0-1.131.567l-.978-1.456a5.432,5.432,0,0,1,3.261-.984,4.21,4.21,0,0,1,2.451.629A2.017,2.017,0,0,1,44.153-7.759ZM45.787-.978a1.146,1.146,0,0,1,.308-.868,1.247,1.247,0,0,1,.9-.294,1.212,1.212,0,0,1,.878.3,1.143,1.143,0,0,1,.311.861,1.143,1.143,0,0,1-.314.851,1.19,1.19,0,0,1-.875.311,1.226,1.226,0,0,1-.889-.3A1.138,1.138,0,0,1,45.787-.978Zm0-5.646a1.146,1.146,0,0,1,.308-.868,1.247,1.247,0,0,1,.9-.294,1.212,1.212,0,0,1,.878.3,1.143,1.143,0,0,1,.311.861,1.131,1.131,0,0,1-.318.858,1.208,1.208,0,0,1-.872.3,1.234,1.234,0,0,1-.889-.3A1.136,1.136,0,0,1,45.787-6.624Z" transform="translate(48.032 349.571)"/>
    <path id="Path_395" data-name="Path 395" class="cls-3" d="M0,0H158V41H0Z" transform="translate(125.5 326.3)"/>
    <path id="Path_299" data-name="Path 299" class="cls-12" d="M283,350.8v40H126v-40H283m1-1H125v42H284v-42Z" transform="translate(0 -24)"/>
  </g>
</svg>
