<svg xmlns="http://www.w3.org/2000/svg" xmlns:xlink="http://www.w3.org/1999/xlink" width="491" height="78" viewBox="0 0 491 78">
  <defs>
    <clipPath id="clip-well_warning">
      <rect width="491" height="78"/>
    </clipPath>
  </defs>
  <g id="well_warning" clip-path="url(#clip-well_warning)">
    <g id="Group_14592" data-name="Group 14592" transform="translate(-104.8 -800)">
      <g id="Group_11898" data-name="Group 11898" transform="translate(105 800)">
        <g id="Group_11892" data-name="Group 11892">
          <g id="Rectangle_3830" data-name="Rectangle 3830" transform="translate(0)" fill="#fff" stroke="#fbac0e" stroke-width="1">
            <rect width="490.8" height="78" rx="4" stroke="none"/>
            <rect x="0.5" y="0.5" width="489.8" height="77" rx="3.5" fill="none"/>
          </g>
          <text id="Make_sure_you_review_your_enrollment_form_for_accuracy_before_signing_and_sending_to_your_administrator." data-name="Make sure you review your enrollment form for accuracy before signing and sending to your administrator." transform="translate(69.8 20)" fill="#31313a" font-size="14" font-family="OpenSans, Open Sans"><tspan x="0" y="15">Make sure you review your enrollment form for accuracy </tspan><tspan x="0" y="34">before signing and sending to your administrator.</tspan></text>
          <path id="Rectangle_5239" data-name="Rectangle 5239" d="M4,0H50a0,0,0,0,1,0,0V78a0,0,0,0,1,0,0H4a4,4,0,0,1-4-4V4A4,4,0,0,1,4,0Z" transform="translate(-0.2)" fill="#fbac0e"/>
          <g id="Group_12689" data-name="Group 12689" transform="translate(-42.2 -25)">
            <path id="Path_8227" data-name="Path 8227" d="M23.889,20.441,13.061.6a1.217,1.217,0,0,0-2.1,0L.13,20.441a1.02,1.02,0,0,0,.421,1.382,1,1,0,0,0,.451.12H23.018a1.021,1.021,0,0,0,.871-1.5ZM11.049,7.51h1.8a.285.285,0,0,1,.3.269v.032l-.6,7.209a.3.3,0,0,1-.3.3h-.6a.3.3,0,0,1-.3-.3l-.6-7.209a.285.285,0,0,1,.269-.3ZM13.181,17.8a1.231,1.231,0,0,1-1.231,1.216h-.18a1.2,1.2,0,0,1-.991-.871,1.23,1.23,0,0,1,.931-1.472,1.169,1.169,0,0,1,.24-.03h.06a1.231,1.231,0,0,1,1.216,1.216Z" transform="translate(54.99 53.003)" fill="#fff"/>
            <rect id="Rectangle_6378" data-name="Rectangle 6378" width="24" height="24" transform="translate(55 52)" fill="none"/>
          </g>
        </g>
      </g>
    </g>
  </g>
</svg>
