<svg xmlns="http://www.w3.org/2000/svg" xmlns:xlink="http://www.w3.org/1999/xlink" width="490" height="59" viewBox="0 0 490 59">
  <defs>
    <clipPath id="clip-well_info">
      <rect width="490" height="59"/>
    </clipPath>
  </defs>
  <g id="well_info" clip-path="url(#clip-well_info)">
    <g id="Group_14595" data-name="Group 14595" transform="translate(-104.8 -800)">
      <g id="Group_11898" data-name="Group 11898" transform="translate(105 800)">
        <g id="Group_11892" data-name="Group 11892">
          <g id="Rectangle_3830" data-name="Rectangle 3830" transform="translate(-0.2)" fill="#fff" stroke="#2777d3" stroke-width="1">
            <rect width="490" height="59" rx="4" stroke="none"/>
            <rect x="0.5" y="0.5" width="489" height="58" rx="3.5" fill="none"/>
          </g>
          <text id="Employees_must_sign_their_own_enrollment_forms." data-name="Employees must sign their own enrollment forms." transform="translate(69.8 20)" fill="#31313a" font-size="14" font-family="SegoeUI, Segoe UI"><tspan x="0" y="15">Employees must sign their own enrollment forms.</tspan></text>
          <path id="Rectangle_5239" data-name="Rectangle 5239" d="M4,0H50a0,0,0,0,1,0,0V59a0,0,0,0,1,0,0H4a4,4,0,0,1-4-4V4A4,4,0,0,1,4,0Z" transform="translate(-0.2)" fill="#2777d3"/>
          <path id="Informative_icon" data-name="Informative icon" d="M1903,1135a12,12,0,1,1,8.485-3.514A11.922,11.922,0,0,1,1903,1135Zm-.709-15a.291.291,0,0,0-.291.291v10.419a.291.291,0,0,0,.291.291h1.919a.291.291,0,0,0,.291-.291V1120.29a.291.291,0,0,0-.291-.291Zm0-5a.291.291,0,0,0-.291.291v1.919a.291.291,0,0,0,.291.291h1.919a.291.291,0,0,0,.291-.291v-1.919a.291.291,0,0,0-.291-.291Z" transform="translate(-1878.199 -1093)" fill="#fff"/>
        </g>
      </g>
    </g>
  </g>
</svg>
