<svg xmlns="http://www.w3.org/2000/svg" xmlns:xlink="http://www.w3.org/1999/xlink" width="491" height="124" viewBox="0 0 491 124">
  <defs>
    <clipPath id="clip-well_rare">
      <rect width="491" height="124"/>
    </clipPath>
  </defs>
  <g id="well_rare" clip-path="url(#clip-well_rare)">
    <g id="Group_14598" data-name="Group 14598" transform="translate(1832 -984)">
      <g id="Rectangle_3830" data-name="Rectangle 3830" transform="translate(-1831.8 984)" fill="#fff" stroke="#d93911" stroke-width="1">
        <rect width="490" height="124" rx="4" stroke="none"/>
        <rect x="0.5" y="0.5" width="489" height="123" rx="3.5" fill="none"/>
      </g>
      <path id="Path_101140" data-name="Path 101140" d="M9.313-.4A7.388,7.388,0,0,1,6.109.2,5.4,5.4,0,0,1,2.055-1.32,5.54,5.54,0,0,1,.578-5.359a5.919,5.919,0,0,1,1.66-4.359,5.807,5.807,0,0,1,4.309-1.672,8.058,8.058,0,0,1,2.766.414v2.43A4.9,4.9,0,0,0,6.75-9.219,3.4,3.4,0,0,0,4.2-8.227a3.682,3.682,0,0,0-.969,2.688,3.611,3.611,0,0,0,.914,2.59,3.229,3.229,0,0,0,2.461.965,5.249,5.249,0,0,0,2.7-.719ZM17.68,0H15.344V-1.148h-.031A2.607,2.607,0,0,1,12.93.2,2.492,2.492,0,0,1,11.1-.465a2.366,2.366,0,0,1-.668-1.762q0-2.328,2.758-2.687L15.359-5.2q0-1.312-1.422-1.312a4.853,4.853,0,0,0-2.719.852V-7.523a6.116,6.116,0,0,1,1.41-.469,7.413,7.413,0,0,1,1.629-.2q3.422,0,3.422,3.414Zm-2.32-3.25v-.539L13.906-3.6q-1.2.156-1.2,1.086A.9.9,0,0,0,13-1.824a1.126,1.126,0,0,0,.793.27,1.462,1.462,0,0,0,1.133-.48A1.735,1.735,0,0,0,15.359-3.25Zm12,3.25H24.9V-4.445Q24.9-6.3,23.57-6.3a1.318,1.318,0,0,0-1.055.492,1.875,1.875,0,0,0-.414,1.25V0H19.633V-8H22.1v1.266h.031A2.829,2.829,0,0,1,24.7-8.2q2.656,0,2.656,3.3Zm9.68,0H34.578V-4.445q0-1.859-1.328-1.859a1.318,1.318,0,0,0-1.055.492,1.875,1.875,0,0,0-.414,1.25V0H29.313V-8h2.469v1.266h.031A2.829,2.829,0,0,1,34.383-8.2q2.656,0,2.656,3.3ZM42.8.2A4.3,4.3,0,0,1,39.66-.926a4.064,4.064,0,0,1-1.145-3.043A4.065,4.065,0,0,1,39.7-7.074,4.487,4.487,0,0,1,42.914-8.2a4.249,4.249,0,0,1,3.125,1.121,3.985,3.985,0,0,1,1.133,2.965A4.23,4.23,0,0,1,46-.961,4.348,4.348,0,0,1,42.8.2Zm.063-6.5a1.647,1.647,0,0,0-1.359.6A2.653,2.653,0,0,0,41.023-4q0,2.3,1.859,2.3,1.773,0,1.773-2.367Q44.656-6.3,42.867-6.3ZM53.609-.094A3.649,3.649,0,0,1,51.961.2q-2.609,0-2.609-2.711V-6.18h-1.3V-8h1.3V-9.727l2.461-.7V-8h1.8v1.82h-1.8v3.234q0,1.25.992,1.25a1.673,1.673,0,0,0,.8-.227Zm11.867-.2A4.881,4.881,0,0,1,63.063.2,4.083,4.083,0,0,1,60.078-.922,3.859,3.859,0,0,1,58.938-3.8,4.251,4.251,0,0,1,60.16-7.02,4.518,4.518,0,0,1,63.43-8.2a4.2,4.2,0,0,1,2.047.375v2.094A2.814,2.814,0,0,0,63.75-6.3a2.275,2.275,0,0,0-1.684.621,2.317,2.317,0,0,0-.621,1.715A2.28,2.28,0,0,0,62.039-2.3a2.182,2.182,0,0,0,1.633.605,3.258,3.258,0,0,0,1.8-.578ZM70.906.2A4.3,4.3,0,0,1,67.762-.926a4.064,4.064,0,0,1-1.145-3.043A4.065,4.065,0,0,1,67.8-7.074,4.487,4.487,0,0,1,71.016-8.2a4.249,4.249,0,0,1,3.125,1.121,3.985,3.985,0,0,1,1.133,2.965A4.23,4.23,0,0,1,74.105-.961,4.348,4.348,0,0,1,70.906.2Zm.063-6.5a1.647,1.647,0,0,0-1.359.6A2.653,2.653,0,0,0,69.125-4q0,2.3,1.859,2.3,1.773,0,1.773-2.367Q72.758-6.3,70.969-6.3ZM84.6,0H82.141V-4.445q0-1.859-1.328-1.859a1.318,1.318,0,0,0-1.055.492,1.875,1.875,0,0,0-.414,1.25V0H76.875V-8h2.469v1.266h.031A2.829,2.829,0,0,1,81.945-8.2Q84.6-8.2,84.6-4.9Zm7.172-9.953a2.494,2.494,0,0,0-.914-.187q-1.187,0-1.187,1.289V-8H91.5v1.82H89.672V0H87.211V-6.18H85.867V-8h1.344v-.992a2.88,2.88,0,0,1,.891-2.2,3.4,3.4,0,0,1,2.422-.836,4.253,4.253,0,0,1,1.25.156Zm2.164.688a1.442,1.442,0,0,1-1.023-.371,1.2,1.2,0,0,1-.4-.91,1.153,1.153,0,0,1,.4-.906,1.49,1.49,0,0,1,1.023-.352,1.486,1.486,0,0,1,1.027.352,1.158,1.158,0,0,1,.395.906,1.191,1.191,0,0,1-.395.922A1.466,1.466,0,0,1,93.938-9.266ZM95.156,0H92.688V-8h2.469Zm7.3-5.773a2.142,2.142,0,0,0-1.039-.242,1.5,1.5,0,0,0-1.258.59A2.573,2.573,0,0,0,99.7-3.82V0H97.234V-8H99.7v1.484h.031a2.136,2.136,0,0,1,2.109-1.625,1.59,1.59,0,0,1,.609.094ZM116.352,0h-2.461V-4.562q0-1.742-1.281-1.742a1.177,1.177,0,0,0-.992.523,2.151,2.151,0,0,0-.383,1.3V0h-2.469V-4.609q0-1.7-1.258-1.7a1.206,1.206,0,0,0-1.012.5,2.2,2.2,0,0,0-.379,1.359V0h-2.469V-8h2.469v1.25h.031a2.952,2.952,0,0,1,1.074-1.043,2.952,2.952,0,0,1,1.512-.4,2.3,2.3,0,0,1,2.32,1.492A2.959,2.959,0,0,1,113.742-8.2q2.609,0,2.609,3.219Zm13.555-3.3h-5.219q.125,1.742,2.2,1.742a4.286,4.286,0,0,0,2.32-.625V-.4A6.1,6.1,0,0,1,126.32.2a4.058,4.058,0,0,1-3.008-1.074,4.058,4.058,0,0,1-1.07-3A4.281,4.281,0,0,1,123.4-7.031,3.852,3.852,0,0,1,126.242-8.2a3.5,3.5,0,0,1,2.707,1.039,4,4,0,0,1,.957,2.82Zm-2.289-1.516q0-1.719-1.391-1.719a1.328,1.328,0,0,0-1.027.492,2.234,2.234,0,0,0-.527,1.227ZM133.844,0h-2.469V-11.844h2.469Zm9.266-3.3h-5.219q.125,1.742,2.2,1.742a4.286,4.286,0,0,0,2.32-.625V-.4A6.1,6.1,0,0,1,139.523.2a4.058,4.058,0,0,1-3.008-1.074,4.058,4.058,0,0,1-1.07-3A4.281,4.281,0,0,1,136.6-7.031,3.852,3.852,0,0,1,139.445-8.2a3.5,3.5,0,0,1,2.707,1.039,4,4,0,0,1,.957,2.82ZM140.82-4.812q0-1.719-1.391-1.719a1.328,1.328,0,0,0-1.027.492,2.234,2.234,0,0,0-.527,1.227Zm9.82,4.523A4.881,4.881,0,0,1,148.227.2a4.083,4.083,0,0,1-2.984-1.117A3.859,3.859,0,0,1,144.1-3.8a4.251,4.251,0,0,1,1.223-3.215,4.518,4.518,0,0,1,3.27-1.176,4.2,4.2,0,0,1,2.047.375v2.094a2.814,2.814,0,0,0-1.727-.578,2.275,2.275,0,0,0-1.684.621,2.317,2.317,0,0,0-.621,1.715A2.28,2.28,0,0,0,147.2-2.3a2.182,2.182,0,0,0,1.633.605,3.258,3.258,0,0,0,1.8-.578Zm6.453.2A3.649,3.649,0,0,1,155.445.2q-2.609,0-2.609-2.711V-6.18h-1.3V-8h1.3V-9.727l2.461-.7V-8h1.8v1.82h-1.8v3.234q0,1.25.992,1.25a1.673,1.673,0,0,0,.8-.227Zm2.641-9.172a1.442,1.442,0,0,1-1.023-.371,1.2,1.2,0,0,1-.4-.91,1.153,1.153,0,0,1,.4-.906,1.49,1.49,0,0,1,1.023-.352,1.486,1.486,0,0,1,1.027.352,1.158,1.158,0,0,1,.395.906,1.191,1.191,0,0,1-.395.922A1.466,1.466,0,0,1,159.734-9.266ZM160.953,0h-2.469V-8h2.469Zm5.891.2A4.3,4.3,0,0,1,163.7-.926a4.064,4.064,0,0,1-1.145-3.043,4.065,4.065,0,0,1,1.188-3.105A4.487,4.487,0,0,1,166.953-8.2a4.249,4.249,0,0,1,3.125,1.121,3.985,3.985,0,0,1,1.133,2.965,4.23,4.23,0,0,1-1.168,3.148A4.348,4.348,0,0,1,166.844.2Zm.063-6.5a1.647,1.647,0,0,0-1.359.6,2.653,2.653,0,0,0-.484,1.7q0,2.3,1.859,2.3,1.773,0,1.773-2.367Q168.7-6.3,166.906-6.3ZM180.539,0h-2.461V-4.445q0-1.859-1.328-1.859a1.318,1.318,0,0,0-1.055.492,1.875,1.875,0,0,0-.414,1.25V0h-2.469V-8h2.469v1.266h.031a2.829,2.829,0,0,1,2.57-1.461q2.656,0,2.656,3.3Zm1.43-.211v-2a5.256,5.256,0,0,0,1.215.547,4.028,4.028,0,0,0,1.145.18,2.455,2.455,0,0,0,1.035-.18.581.581,0,0,0,.379-.547.506.506,0,0,0-.172-.391,1.6,1.6,0,0,0-.441-.273,5.009,5.009,0,0,0-.59-.211q-.32-.094-.617-.211a5.914,5.914,0,0,1-.84-.387,2.427,2.427,0,0,1-.609-.48A1.889,1.889,0,0,1,182.1-4.8a2.525,2.525,0,0,1-.129-.852,2.192,2.192,0,0,1,.293-1.156,2.393,2.393,0,0,1,.781-.793,3.57,3.57,0,0,1,1.117-.453,5.825,5.825,0,0,1,1.309-.145,7.261,7.261,0,0,1,1.078.082,8.047,8.047,0,0,1,1.078.238v1.906a3.9,3.9,0,0,0-1-.41,4.235,4.235,0,0,0-1.051-.137,2.328,2.328,0,0,0-.457.043,1.505,1.505,0,0,0-.379.125.7.7,0,0,0-.258.211.486.486,0,0,0-.094.293.541.541,0,0,0,.141.375,1.221,1.221,0,0,0,.367.27,3.625,3.625,0,0,0,.5.2q.277.09.551.184a7.161,7.161,0,0,1,.891.375,2.848,2.848,0,0,1,.684.477,1.871,1.871,0,0,1,.438.641,2.277,2.277,0,0,1,.152.875A2.282,2.282,0,0,1,187.8-1.23a2.471,2.471,0,0,1-.82.82,3.72,3.72,0,0,1-1.18.461A6.54,6.54,0,0,1,184.414.2,7.149,7.149,0,0,1,181.969-.211Z" transform="translate(-1762 1021)" fill="#31313a"/>
      <path id="Path_101141" data-name="Path 101141" d="M7.082,6.236H4.252V15H3.1V6.236H.28V5.2h6.8ZM14.28,15H13.159V10.967q0-2.187-1.627-2.187a1.774,1.774,0,0,0-1.381.632,2.356,2.356,0,0,0-.561,1.624V15H8.47V4.637H9.591V9.162h.027a2.546,2.546,0,0,1,2.3-1.326q2.365,0,2.365,2.851Zm7.738-3.22H17.076a2.618,2.618,0,0,0,.629,1.8,2.168,2.168,0,0,0,1.654.636,3.439,3.439,0,0,0,2.174-.779v1.053a4.063,4.063,0,0,1-2.44.67,2.959,2.959,0,0,1-2.331-.954,3.9,3.9,0,0,1-.848-2.683,3.828,3.828,0,0,1,.926-2.663,2.97,2.97,0,0,1,2.3-1.029,2.632,2.632,0,0,1,2.126.889,3.705,3.705,0,0,1,.752,2.468Zm-1.148-.95A2.281,2.281,0,0,0,20.4,9.319a1.6,1.6,0,0,0-1.282-.54,1.811,1.811,0,0,0-1.347.567,2.575,2.575,0,0,0-.684,1.483ZM31.008,5.621a1.493,1.493,0,0,0-.745-.185q-1.176,0-1.176,1.483V8h1.641v.957H29.087V15H27.973V8.957h-1.2V8h1.2V6.865a2.358,2.358,0,0,1,.636-1.74,2.146,2.146,0,0,1,1.586-.639,2.2,2.2,0,0,1,.813.123Zm3.849,9.543a3.247,3.247,0,0,1-2.478-.981,3.633,3.633,0,0,1-.926-2.6,3.785,3.785,0,0,1,.964-2.755,3.465,3.465,0,0,1,2.6-.991,3.14,3.14,0,0,1,2.444.964,3.822,3.822,0,0,1,.878,2.673,3.761,3.761,0,0,1-.947,2.683A3.317,3.317,0,0,1,34.856,15.164Zm.082-6.385a2.132,2.132,0,0,0-1.709.735,3.018,3.018,0,0,0-.629,2.027,2.854,2.854,0,0,0,.636,1.962,2.161,2.161,0,0,0,1.7.718,2.049,2.049,0,0,0,1.671-.7,3.055,3.055,0,0,0,.584-2A3.108,3.108,0,0,0,36.61,9.49,2.04,2.04,0,0,0,34.938,8.779ZM41.255,15H40.134V4.637h1.121Zm3.391,0H43.524V4.637h1.121Zm5.2.164a3.247,3.247,0,0,1-2.478-.981,3.634,3.634,0,0,1-.926-2.6A3.785,3.785,0,0,1,47.4,8.827,3.465,3.465,0,0,1,50,7.836a3.14,3.14,0,0,1,2.444.964,3.822,3.822,0,0,1,.878,2.673,3.761,3.761,0,0,1-.947,2.683A3.317,3.317,0,0,1,49.841,15.164Zm.082-6.385a2.132,2.132,0,0,0-1.709.735,3.018,3.018,0,0,0-.629,2.027,2.854,2.854,0,0,0,.636,1.962,2.161,2.161,0,0,0,1.7.718,2.049,2.049,0,0,0,1.671-.7,3.055,3.055,0,0,0,.584-2,3.108,3.108,0,0,0-.584-2.023A2.04,2.04,0,0,0,49.923,8.779ZM63.937,8l-2.1,7H60.676L59.233,9.989a3.265,3.265,0,0,1-.109-.649H59.1a3.065,3.065,0,0,1-.144.636L57.388,15H56.267L54.147,8h1.176l1.449,5.264a3.171,3.171,0,0,1,.1.629h.055a2.942,2.942,0,0,1,.123-.643L58.659,8h1.025l1.449,5.277a3.767,3.767,0,0,1,.1.629h.055a2.909,2.909,0,0,1,.116-.629L62.829,8ZM65.81,6.223a.71.71,0,0,1-.513-.205.692.692,0,0,1-.212-.52.718.718,0,0,1,.725-.731.724.724,0,0,1,.523.208.73.73,0,0,1,0,1.036A.718.718,0,0,1,65.81,6.223ZM66.356,15H65.235V8h1.121Zm8.08,0H73.315V11.008q0-2.229-1.627-2.229a1.765,1.765,0,0,0-1.391.632,2.344,2.344,0,0,0-.55,1.6V15H68.626V8h1.121V9.162h.027a2.526,2.526,0,0,1,2.3-1.326,2.142,2.142,0,0,1,1.757.742,3.3,3.3,0,0,1,.608,2.143Zm8.087-.561q0,3.855-3.691,3.855a4.956,4.956,0,0,1-2.27-.492V16.682a4.661,4.661,0,0,0,2.256.656q2.584,0,2.584-2.748v-.766h-.027a2.832,2.832,0,0,1-4.508.407,3.73,3.73,0,0,1-.8-2.505,4.358,4.358,0,0,1,.858-2.837,2.866,2.866,0,0,1,2.348-1.053,2.282,2.282,0,0,1,2.1,1.135H81.4V8h1.121Zm-1.121-2.6V10.8a2,2,0,0,0-.564-1.429,1.857,1.857,0,0,0-1.4-.595,1.947,1.947,0,0,0-1.627.755,3.372,3.372,0,0,0-.588,2.116,2.894,2.894,0,0,0,.564,1.87,1.822,1.822,0,0,0,1.494.7,1.951,1.951,0,0,0,1.535-.67A2.5,2.5,0,0,0,81.4,11.835Zm7.8-5.612a.71.71,0,0,1-.513-.205.692.692,0,0,1-.212-.52.718.718,0,0,1,.725-.731.724.724,0,0,1,.523.208.73.73,0,0,1,0,1.036A.718.718,0,0,1,89.2,6.223ZM89.749,15H88.628V8h1.121Zm8.08,0H96.708V11.008q0-2.229-1.627-2.229a1.765,1.765,0,0,0-1.391.632,2.344,2.344,0,0,0-.55,1.6V15H92.019V8H93.14V9.162h.027a2.526,2.526,0,0,1,2.3-1.326,2.142,2.142,0,0,1,1.757.742,3.3,3.3,0,0,1,.608,2.143ZM103.4,5.621a1.493,1.493,0,0,0-.745-.185q-1.176,0-1.176,1.483V8h1.641v.957h-1.641V15h-1.114V8.957h-1.2V8h1.2V6.865A2.358,2.358,0,0,1,101,5.125a2.146,2.146,0,0,1,1.586-.639,2.2,2.2,0,0,1,.813.123Zm3.849,9.543a3.247,3.247,0,0,1-2.478-.981,3.633,3.633,0,0,1-.926-2.6,3.785,3.785,0,0,1,.964-2.755,3.465,3.465,0,0,1,2.6-.991,3.14,3.14,0,0,1,2.444.964,3.822,3.822,0,0,1,.878,2.673,3.761,3.761,0,0,1-.947,2.683A3.317,3.317,0,0,1,107.249,15.164Zm.082-6.385a2.132,2.132,0,0,0-1.709.735,3.018,3.018,0,0,0-.629,2.027,2.854,2.854,0,0,0,.636,1.962,2.161,2.161,0,0,0,1.7.718,2.049,2.049,0,0,0,1.671-.7,3.055,3.055,0,0,0,.584-2A3.108,3.108,0,0,0,109,9.49,2.04,2.04,0,0,0,107.331,8.779Zm8.846.355a1.371,1.371,0,0,0-.848-.226,1.431,1.431,0,0,0-1.2.677,3.129,3.129,0,0,0-.482,1.846V15h-1.121V8h1.121V9.442h.027a2.444,2.444,0,0,1,.731-1.152,1.668,1.668,0,0,1,1.1-.414,1.83,1.83,0,0,1,.67.1ZM127.333,15h-1.121V10.98a3.032,3.032,0,0,0-.359-1.682,1.361,1.361,0,0,0-1.207-.52,1.494,1.494,0,0,0-1.22.656,2.511,2.511,0,0,0-.5,1.572V15H121.8V10.844q0-2.064-1.593-2.064a1.475,1.475,0,0,0-1.217.619,2.557,2.557,0,0,0-.479,1.61V15h-1.121V8h1.121V9.107h.027a2.378,2.378,0,0,1,2.174-1.271A2.022,2.022,0,0,1,122.7,9.285a2.5,2.5,0,0,1,2.324-1.449q2.311,0,2.311,2.851Zm7.13,0h-1.121V13.906h-.027a2.347,2.347,0,0,1-2.153,1.258,2.3,2.3,0,0,1-1.637-.554,1.918,1.918,0,0,1-.591-1.47q0-1.962,2.311-2.283l2.1-.294q0-1.784-1.442-1.784a3.446,3.446,0,0,0-2.283.861V8.492A4.338,4.338,0,0,1,132,7.836q2.468,0,2.468,2.611Zm-1.121-3.541-1.688.232a2.741,2.741,0,0,0-1.176.386,1.114,1.114,0,0,0-.4.981,1.068,1.068,0,0,0,.366.837,1.413,1.413,0,0,0,.974.325,1.8,1.8,0,0,0,1.377-.584,2.088,2.088,0,0,0,.543-1.48Zm6.48,3.473a2.162,2.162,0,0,1-1.046.219q-1.839,0-1.839-2.051V8.957h-1.2V8h1.2V6.291l1.121-.362V8h1.764v.957h-1.764V12.9a1.635,1.635,0,0,0,.239,1,.955.955,0,0,0,.793.3,1.179,1.179,0,0,0,.731-.232Zm2.071-8.709a.71.71,0,0,1-.513-.205.692.692,0,0,1-.212-.52.718.718,0,0,1,.725-.731.724.724,0,0,1,.523.208.73.73,0,0,1,0,1.036A.718.718,0,0,1,141.894,6.223ZM142.44,15h-1.121V8h1.121Zm5.2.164a3.247,3.247,0,0,1-2.478-.981,3.634,3.634,0,0,1-.926-2.6,3.785,3.785,0,0,1,.964-2.755,3.465,3.465,0,0,1,2.6-.991,3.14,3.14,0,0,1,2.444.964,3.822,3.822,0,0,1,.878,2.673,3.761,3.761,0,0,1-.947,2.683A3.317,3.317,0,0,1,147.636,15.164Zm.082-6.385a2.132,2.132,0,0,0-1.709.735,3.018,3.018,0,0,0-.629,2.027,2.854,2.854,0,0,0,.636,1.962,2.161,2.161,0,0,0,1.7.718,2.049,2.049,0,0,0,1.671-.7,3.055,3.055,0,0,0,.584-2,3.108,3.108,0,0,0-.584-2.023A2.04,2.04,0,0,0,147.718,8.779ZM158.724,15H157.6V11.008q0-2.229-1.627-2.229a1.765,1.765,0,0,0-1.391.632,2.344,2.344,0,0,0-.55,1.6V15h-1.121V8h1.121V9.162h.027a2.526,2.526,0,0,1,2.3-1.326,2.142,2.142,0,0,1,1.757.742,3.3,3.3,0,0,1,.608,2.143Zm6.521-8.777a.71.71,0,0,1-.513-.205.692.692,0,0,1-.212-.52.718.718,0,0,1,.725-.731.724.724,0,0,1,.523.208.73.73,0,0,1,0,1.036A.718.718,0,0,1,165.245,6.223ZM165.792,15h-1.121V8h1.121Zm1.846-.253v-1.2a3.318,3.318,0,0,0,2.017.677q1.477,0,1.477-.984a.854.854,0,0,0-.126-.475,1.26,1.26,0,0,0-.342-.345,2.631,2.631,0,0,0-.506-.27q-.291-.12-.625-.25a8.056,8.056,0,0,1-.817-.373,2.468,2.468,0,0,1-.588-.424,1.577,1.577,0,0,1-.355-.537,1.9,1.9,0,0,1-.12-.7,1.673,1.673,0,0,1,.226-.872,2,2,0,0,1,.6-.636,2.805,2.805,0,0,1,.858-.386,3.805,3.805,0,0,1,.995-.13,4.016,4.016,0,0,1,1.627.314V9.285a3.171,3.171,0,0,0-1.777-.506,2.078,2.078,0,0,0-.567.072,1.389,1.389,0,0,0-.434.2.932.932,0,0,0-.28.311.819.819,0,0,0-.1.4.959.959,0,0,0,.1.458,1.008,1.008,0,0,0,.291.328,2.221,2.221,0,0,0,.465.26q.273.116.622.253a8.658,8.658,0,0,1,.834.366,2.86,2.86,0,0,1,.629.424,1.656,1.656,0,0,1,.4.543,1.753,1.753,0,0,1,.14.731,1.725,1.725,0,0,1-.229.9,1.963,1.963,0,0,1-.612.636,2.8,2.8,0,0,1-.882.376,4.354,4.354,0,0,1-1.046.123A3.971,3.971,0,0,1,167.638,14.747Zm13.85-5.612a1.371,1.371,0,0,0-.848-.226,1.431,1.431,0,0,0-1.2.677,3.129,3.129,0,0,0-.482,1.846V15h-1.121V8h1.121V9.442h.027a2.444,2.444,0,0,1,.731-1.152,1.668,1.668,0,0,1,1.1-.414,1.83,1.83,0,0,1,.67.1Zm6.843,2.646h-4.942a2.618,2.618,0,0,0,.629,1.8,2.168,2.168,0,0,0,1.654.636,3.439,3.439,0,0,0,2.174-.779v1.053a4.063,4.063,0,0,1-2.44.67,2.959,2.959,0,0,1-2.331-.954,3.9,3.9,0,0,1-.848-2.683,3.828,3.828,0,0,1,.926-2.663,2.97,2.97,0,0,1,2.3-1.029,2.632,2.632,0,0,1,2.126.889,3.705,3.705,0,0,1,.752,2.468Zm-1.148-.95a2.281,2.281,0,0,0-.468-1.511,1.6,1.6,0,0,0-1.282-.54,1.811,1.811,0,0,0-1.347.567,2.575,2.575,0,0,0-.684,1.483ZM196,18.22h-1.121V13.8h-.027a2.508,2.508,0,0,1-2.393,1.367,2.634,2.634,0,0,1-2.116-.94,3.834,3.834,0,0,1-.8-2.56,4.192,4.192,0,0,1,.875-2.786,2.912,2.912,0,0,1,2.352-1.042,2.207,2.207,0,0,1,2.078,1.135h.027V8H196Zm-1.121-6.371V10.83a2.037,2.037,0,0,0-.564-1.456,1.888,1.888,0,0,0-1.432-.595,1.925,1.925,0,0,0-1.6.749,3.341,3.341,0,0,0-.588,2.109,2.894,2.894,0,0,0,.567,1.9,1.811,1.811,0,0,0,1.463.687,1.972,1.972,0,0,0,1.569-.673A2.5,2.5,0,0,0,194.879,11.849ZM203.93,15h-1.121V13.893h-.027a2.3,2.3,0,0,1-2.16,1.271q-2.5,0-2.5-2.98V8h1.114v4.006q0,2.215,1.7,2.215a1.715,1.715,0,0,0,1.35-.6,2.315,2.315,0,0,0,.53-1.583V8h1.121Zm2.837-8.777a.71.71,0,0,1-.513-.205.692.692,0,0,1-.212-.52.718.718,0,0,1,.725-.731.724.724,0,0,1,.523.208.73.73,0,0,1,0,1.036A.718.718,0,0,1,206.767,6.223ZM207.313,15h-1.121V8h1.121Zm5.92-5.865a1.371,1.371,0,0,0-.848-.226,1.431,1.431,0,0,0-1.2.677,3.129,3.129,0,0,0-.482,1.846V15h-1.121V8H210.7V9.442h.027a2.444,2.444,0,0,1,.731-1.152,1.668,1.668,0,0,1,1.1-.414,1.83,1.83,0,0,1,.67.1Zm6.843,2.646h-4.942a2.618,2.618,0,0,0,.629,1.8,2.168,2.168,0,0,0,1.654.636,3.439,3.439,0,0,0,2.174-.779v1.053a4.063,4.063,0,0,1-2.44.67,2.959,2.959,0,0,1-2.331-.954,3.9,3.9,0,0,1-.848-2.683,3.828,3.828,0,0,1,.926-2.663,2.97,2.97,0,0,1,2.3-1.029,2.632,2.632,0,0,1,2.126.889,3.705,3.705,0,0,1,.752,2.468Zm-1.148-.95a2.281,2.281,0,0,0-.468-1.511,1.6,1.6,0,0,0-1.282-.54,1.811,1.811,0,0,0-1.347.567,2.575,2.575,0,0,0-.684,1.483ZM227.746,15h-1.121V13.811H226.6a2.588,2.588,0,0,1-2.406,1.354,2.615,2.615,0,0,1-2.109-.94,3.856,3.856,0,0,1-.79-2.56,4.2,4.2,0,0,1,.875-2.782A2.886,2.886,0,0,1,224.5,7.836a2.244,2.244,0,0,1,2.1,1.135h.027V4.637h1.121Zm-1.121-3.165V10.8a2,2,0,0,0-.561-1.436,1.88,1.88,0,0,0-1.422-.588,1.936,1.936,0,0,0-1.613.752,3.3,3.3,0,0,0-.588,2.078,2.964,2.964,0,0,0,.564,1.911,1.843,1.843,0,0,0,1.514.7,1.915,1.915,0,0,0,1.521-.677A2.521,2.521,0,0,0,226.625,11.835Zm10.473,3.1a2.162,2.162,0,0,1-1.046.219q-1.839,0-1.839-2.051V8.957h-1.2V8h1.2V6.291l1.121-.362V8H237.1v.957h-1.764V12.9a1.635,1.635,0,0,0,.239,1,.955.955,0,0,0,.793.3,1.179,1.179,0,0,0,.731-.232Zm4.423.232a3.247,3.247,0,0,1-2.478-.981,3.634,3.634,0,0,1-.926-2.6,3.785,3.785,0,0,1,.964-2.755,3.465,3.465,0,0,1,2.6-.991,3.14,3.14,0,0,1,2.444.964,3.822,3.822,0,0,1,.878,2.673,3.761,3.761,0,0,1-.947,2.683A3.317,3.317,0,0,1,241.521,15.164Zm.082-6.385a2.132,2.132,0,0,0-1.709.735,3.018,3.018,0,0,0-.629,2.027A2.854,2.854,0,0,0,239.9,13.5a2.161,2.161,0,0,0,1.7.718,2.049,2.049,0,0,0,1.671-.7,3.055,3.055,0,0,0,.584-2,3.108,3.108,0,0,0-.584-2.023A2.04,2.04,0,0,0,241.6,8.779Zm13.8,5.9a3.643,3.643,0,0,1-1.914.485,3.169,3.169,0,0,1-2.417-.974,3.53,3.53,0,0,1-.919-2.526,3.881,3.881,0,0,1,.991-2.779,3.468,3.468,0,0,1,2.646-1.049,3.682,3.682,0,0,1,1.627.342V9.326a2.85,2.85,0,0,0-1.668-.547,2.254,2.254,0,0,0-1.76.769,2.918,2.918,0,0,0-.687,2.02,2.779,2.779,0,0,0,.646,1.941,2.227,2.227,0,0,0,1.733.711,2.81,2.81,0,0,0,1.723-.608Zm4.621.485a3.247,3.247,0,0,1-2.478-.981,3.633,3.633,0,0,1-.926-2.6,3.785,3.785,0,0,1,.964-2.755,3.465,3.465,0,0,1,2.6-.991,3.14,3.14,0,0,1,2.444.964,3.822,3.822,0,0,1,.878,2.673,3.761,3.761,0,0,1-.947,2.683A3.317,3.317,0,0,1,260.025,15.164Zm.082-6.385a2.132,2.132,0,0,0-1.709.735,3.018,3.018,0,0,0-.629,2.027,2.854,2.854,0,0,0,.636,1.962,2.161,2.161,0,0,0,1.7.718,2.049,2.049,0,0,0,1.671-.7,3.055,3.055,0,0,0,.584-2,3.108,3.108,0,0,0-.584-2.023A2.04,2.04,0,0,0,260.107,8.779ZM271.113,15h-1.121V11.008q0-2.229-1.627-2.229a1.765,1.765,0,0,0-1.391.632,2.344,2.344,0,0,0-.55,1.6V15H265.3V8h1.121V9.162h.027a2.526,2.526,0,0,1,2.3-1.326,2.142,2.142,0,0,1,1.757.742,3.3,3.3,0,0,1,.608,2.143Zm5.571-9.379a1.493,1.493,0,0,0-.745-.185q-1.176,0-1.176,1.483V8H276.4v.957h-1.641V15h-1.114V8.957h-1.2V8h1.2V6.865a2.358,2.358,0,0,1,.636-1.74,2.146,2.146,0,0,1,1.586-.639,2.2,2.2,0,0,1,.813.123Zm1.5.6a.71.71,0,0,1-.513-.205.692.692,0,0,1-.212-.52.718.718,0,0,1,.725-.731.724.724,0,0,1,.523.208.73.73,0,0,1,0,1.036A.718.718,0,0,1,278.182,6.223ZM278.729,15h-1.121V8h1.121Zm5.92-5.865a1.371,1.371,0,0,0-.848-.226,1.431,1.431,0,0,0-1.2.677,3.129,3.129,0,0,0-.482,1.846V15H281V8h1.121V9.442h.027a2.444,2.444,0,0,1,.731-1.152,1.668,1.668,0,0,1,1.1-.414,1.83,1.83,0,0,1,.67.1ZM295.8,15h-1.121V10.98a3.032,3.032,0,0,0-.359-1.682,1.361,1.361,0,0,0-1.207-.52,1.494,1.494,0,0,0-1.22.656,2.511,2.511,0,0,0-.5,1.572V15h-1.121V10.844q0-2.064-1.593-2.064a1.475,1.475,0,0,0-1.217.619,2.557,2.557,0,0,0-.479,1.61V15h-1.121V8h1.121V9.107h.027a2.378,2.378,0,0,1,2.174-1.271,2.022,2.022,0,0,1,1.982,1.449,2.5,2.5,0,0,1,2.324-1.449q2.311,0,2.311,2.851ZM307.33,8l-3.22,8.121q-.861,2.174-2.42,2.174a2.565,2.565,0,0,1-.731-.089v-1a2.078,2.078,0,0,0,.663.123,1.374,1.374,0,0,0,1.271-1.012l.561-1.326L300.72,8h1.244l1.894,5.387q.034.1.144.533h.041q.034-.164.137-.52L306.168,8Zm4.129,7.164a3.247,3.247,0,0,1-2.478-.981,3.633,3.633,0,0,1-.926-2.6,3.785,3.785,0,0,1,.964-2.755,3.465,3.465,0,0,1,2.6-.991,3.14,3.14,0,0,1,2.444.964,3.822,3.822,0,0,1,.878,2.673A3.761,3.761,0,0,1,314,14.156,3.317,3.317,0,0,1,311.459,15.164Zm.082-6.385a2.132,2.132,0,0,0-1.709.735,3.018,3.018,0,0,0-.629,2.027,2.854,2.854,0,0,0,.636,1.962,2.161,2.161,0,0,0,1.7.718,2.049,2.049,0,0,0,1.671-.7,3.055,3.055,0,0,0,.584-2,3.108,3.108,0,0,0-.584-2.023A2.04,2.04,0,0,0,311.541,8.779ZM322.4,15h-1.121V13.893h-.027a2.3,2.3,0,0,1-2.16,1.271q-2.5,0-2.5-2.98V8H317.7v4.006q0,2.215,1.7,2.215a1.715,1.715,0,0,0,1.35-.6,2.315,2.315,0,0,0,.53-1.583V8H322.4Zm5.913-5.865a1.371,1.371,0,0,0-.848-.226,1.431,1.431,0,0,0-1.2.677,3.129,3.129,0,0,0-.482,1.846V15h-1.121V8h1.121V9.442h.027a2.444,2.444,0,0,1,.731-1.152,1.668,1.668,0,0,1,1.1-.414,1.83,1.83,0,0,1,.67.1Zm10.678,2.646h-4.942a2.618,2.618,0,0,0,.629,1.8,2.168,2.168,0,0,0,1.654.636,3.439,3.439,0,0,0,2.174-.779v1.053a4.063,4.063,0,0,1-2.44.67,2.959,2.959,0,0,1-2.331-.954,3.9,3.9,0,0,1-.848-2.683,3.828,3.828,0,0,1,.926-2.663,2.97,2.97,0,0,1,2.3-1.029,2.632,2.632,0,0,1,2.126.889,3.705,3.705,0,0,1,.752,2.468Zm-1.148-.95a2.281,2.281,0,0,0-.468-1.511,1.6,1.6,0,0,0-1.282-.54,1.811,1.811,0,0,0-1.347.567,2.575,2.575,0,0,0-.684,1.483ZM341.8,15h-1.121V4.637H341.8Zm7.9-3.22h-4.942a2.618,2.618,0,0,0,.629,1.8,2.168,2.168,0,0,0,1.654.636,3.439,3.439,0,0,0,2.174-.779v1.053a4.063,4.063,0,0,1-2.44.67,2.959,2.959,0,0,1-2.331-.954,3.9,3.9,0,0,1-.848-2.683,3.828,3.828,0,0,1,.926-2.663,2.97,2.97,0,0,1,2.3-1.029,2.632,2.632,0,0,1,2.126.889,3.705,3.705,0,0,1,.752,2.468Zm-1.148-.95a2.281,2.281,0,0,0-.468-1.511,1.6,1.6,0,0,0-1.282-.54,1.811,1.811,0,0,0-1.347.567,2.575,2.575,0,0,0-.684,1.483Zm7.615,3.849a3.643,3.643,0,0,1-1.914.485,3.169,3.169,0,0,1-2.417-.974,3.53,3.53,0,0,1-.919-2.526,3.881,3.881,0,0,1,.991-2.779,3.467,3.467,0,0,1,2.646-1.049,3.682,3.682,0,0,1,1.627.342V9.326a2.85,2.85,0,0,0-1.668-.547,2.254,2.254,0,0,0-1.76.769,2.918,2.918,0,0,0-.687,2.02,2.779,2.779,0,0,0,.646,1.941,2.227,2.227,0,0,0,1.733.711,2.81,2.81,0,0,0,1.723-.608Zm4.942.253a2.161,2.161,0,0,1-1.046.219q-1.839,0-1.839-2.051V8.957h-1.2V8h1.2V6.291l1.121-.362V8h1.764v.957h-1.764V12.9a1.635,1.635,0,0,0,.239,1,.955.955,0,0,0,.793.3,1.179,1.179,0,0,0,.731-.232Zm2.071-8.709a.71.71,0,0,1-.513-.205.692.692,0,0,1-.212-.52.718.718,0,0,1,.725-.731.724.724,0,0,1,.523.208.73.73,0,0,1,0,1.036A.718.718,0,0,1,363.18,6.223ZM363.727,15h-1.121V8h1.121Zm5.2.164a3.247,3.247,0,0,1-2.478-.981,3.633,3.633,0,0,1-.926-2.6,3.785,3.785,0,0,1,.964-2.755,3.465,3.465,0,0,1,2.6-.991,3.14,3.14,0,0,1,2.444.964,3.822,3.822,0,0,1,.878,2.673,3.761,3.761,0,0,1-.947,2.683A3.317,3.317,0,0,1,368.922,15.164ZM369,8.779a2.132,2.132,0,0,0-1.709.735,3.018,3.018,0,0,0-.629,2.027A2.854,2.854,0,0,0,367.3,13.5a2.161,2.161,0,0,0,1.7.718,2.049,2.049,0,0,0,1.671-.7,3.055,3.055,0,0,0,.584-2,3.108,3.108,0,0,0-.584-2.023A2.04,2.04,0,0,0,369,8.779ZM380.01,15h-1.121V11.008q0-2.229-1.627-2.229a1.765,1.765,0,0,0-1.391.632,2.344,2.344,0,0,0-.55,1.6V15H374.2V8h1.121V9.162h.027a2.526,2.526,0,0,1,2.3-1.326,2.142,2.142,0,0,1,1.757.742,3.3,3.3,0,0,1,.608,2.143Zm1.688-.253v-1.2a3.318,3.318,0,0,0,2.017.677q1.477,0,1.477-.984a.854.854,0,0,0-.126-.475,1.261,1.261,0,0,0-.342-.345,2.631,2.631,0,0,0-.506-.27q-.291-.12-.625-.25a8.056,8.056,0,0,1-.817-.373,2.468,2.468,0,0,1-.588-.424,1.577,1.577,0,0,1-.355-.537,1.9,1.9,0,0,1-.12-.7,1.673,1.673,0,0,1,.226-.872,2,2,0,0,1,.6-.636,2.805,2.805,0,0,1,.858-.386,3.805,3.805,0,0,1,.995-.13,4.016,4.016,0,0,1,1.627.314V9.285a3.171,3.171,0,0,0-1.777-.506,2.078,2.078,0,0,0-.567.072,1.389,1.389,0,0,0-.434.2.932.932,0,0,0-.28.311.819.819,0,0,0-.1.4.959.959,0,0,0,.1.458,1.008,1.008,0,0,0,.291.328,2.221,2.221,0,0,0,.465.26q.273.116.622.253a8.657,8.657,0,0,1,.834.366,2.861,2.861,0,0,1,.629.424,1.656,1.656,0,0,1,.4.543,1.753,1.753,0,0,1,.14.731,1.724,1.724,0,0,1-.229.9,1.963,1.963,0,0,1-.612.636,2.8,2.8,0,0,1-.882.376,4.354,4.354,0,0,1-1.046.123A3.971,3.971,0,0,1,381.7,14.747Zm6.754-5.38a.726.726,0,0,1-.537-.226.743.743,0,0,1-.222-.54.72.72,0,0,1,.222-.533.737.737,0,0,1,.537-.219.757.757,0,0,1,.547.219.715.715,0,0,1,.226.533.737.737,0,0,1-.226.54A.745.745,0,0,1,388.452,9.367Zm0,5.783a.726.726,0,0,1-.537-.226.743.743,0,0,1-.222-.54.754.754,0,0,1,.222-.543.72.72,0,0,1,.537-.229.739.739,0,0,1,.547.229.748.748,0,0,1,.226.543.737.737,0,0,1-.226.54A.745.745,0,0,1,388.452,15.15ZM23.892,30.541H20.159v-.882h3.732ZM35.089,34h-5.2V24.2H34.87v1.039H31.042V28.5h3.541v1.032H31.042v3.432h4.047Zm7.547,0H41.515V30.008q0-2.229-1.627-2.229a1.765,1.765,0,0,0-1.391.632,2.344,2.344,0,0,0-.55,1.6V34H36.825V27h1.121v1.162h.027a2.526,2.526,0,0,1,2.3-1.326,2.142,2.142,0,0,1,1.757.742,3.3,3.3,0,0,1,.608,2.143ZM48.4,28.135a1.371,1.371,0,0,0-.848-.226,1.431,1.431,0,0,0-1.2.677,3.129,3.129,0,0,0-.482,1.846V34H44.748V27h1.121v1.442H45.9a2.444,2.444,0,0,1,.731-1.152,1.668,1.668,0,0,1,1.1-.414,1.83,1.83,0,0,1,.67.1Zm4.143,6.029a3.247,3.247,0,0,1-2.478-.981,3.634,3.634,0,0,1-.926-2.6,3.785,3.785,0,0,1,.964-2.755,3.465,3.465,0,0,1,2.6-.991,3.14,3.14,0,0,1,2.444.964,3.822,3.822,0,0,1,.878,2.673,3.761,3.761,0,0,1-.947,2.683A3.318,3.318,0,0,1,52.541,34.164Zm.082-6.385a2.132,2.132,0,0,0-1.709.735,3.018,3.018,0,0,0-.629,2.027,2.854,2.854,0,0,0,.636,1.962,2.161,2.161,0,0,0,1.7.718,2.049,2.049,0,0,0,1.671-.7,3.055,3.055,0,0,0,.584-2,3.108,3.108,0,0,0-.584-2.023A2.04,2.04,0,0,0,52.623,27.779ZM58.939,34H57.818V23.637h1.121Zm3.391,0H61.209V23.637H62.33Zm12.209,0H73.418V29.98a3.032,3.032,0,0,0-.359-1.682,1.361,1.361,0,0,0-1.207-.52,1.494,1.494,0,0,0-1.22.656,2.511,2.511,0,0,0-.5,1.572V34H69.009V29.844q0-2.064-1.593-2.064A1.475,1.475,0,0,0,66.2,28.4a2.557,2.557,0,0,0-.479,1.61V34H64.6V27h1.121v1.107h.027a2.378,2.378,0,0,1,2.174-1.271A2.022,2.022,0,0,1,69.9,28.285a2.5,2.5,0,0,1,2.324-1.449q2.311,0,2.311,2.851Zm7.745-3.22H77.342a2.618,2.618,0,0,0,.629,1.8,2.168,2.168,0,0,0,1.654.636,3.439,3.439,0,0,0,2.174-.779v1.053a4.063,4.063,0,0,1-2.44.67,2.959,2.959,0,0,1-2.331-.954,3.9,3.9,0,0,1-.848-2.683,3.828,3.828,0,0,1,.926-2.663,2.97,2.97,0,0,1,2.3-1.029,2.632,2.632,0,0,1,2.126.889,3.705,3.705,0,0,1,.752,2.468Zm-1.148-.95a2.281,2.281,0,0,0-.468-1.511,1.6,1.6,0,0,0-1.282-.54,1.811,1.811,0,0,0-1.347.567,2.575,2.575,0,0,0-.684,1.483ZM89.79,34H88.669V30.008q0-2.229-1.627-2.229a1.765,1.765,0,0,0-1.391.632,2.344,2.344,0,0,0-.55,1.6V34H83.979V27H85.1v1.162h.027a2.526,2.526,0,0,1,2.3-1.326,2.142,2.142,0,0,1,1.757.742,3.3,3.3,0,0,1,.608,2.143Zm5.359-.068a2.161,2.161,0,0,1-1.046.219q-1.839,0-1.839-2.051V27.957h-1.2V27h1.2V25.291l1.121-.362V27h1.764v.957H93.386V31.9a1.635,1.635,0,0,0,.239,1,.955.955,0,0,0,.793.3,1.179,1.179,0,0,0,.731-.232Zm8.791-9.311a1.493,1.493,0,0,0-.745-.185q-1.176,0-1.176,1.483V27h1.641v.957H102.02V34h-1.114V27.957h-1.2V27h1.2V25.865a2.358,2.358,0,0,1,.636-1.74,2.146,2.146,0,0,1,1.586-.639,2.2,2.2,0,0,1,.813.123Zm3.849,9.543a3.247,3.247,0,0,1-2.478-.981,3.633,3.633,0,0,1-.926-2.6,3.785,3.785,0,0,1,.964-2.755,3.465,3.465,0,0,1,2.6-.991,3.14,3.14,0,0,1,2.444.964,3.822,3.822,0,0,1,.878,2.673,3.761,3.761,0,0,1-.947,2.683A3.318,3.318,0,0,1,107.789,34.164Zm.082-6.385a2.132,2.132,0,0,0-1.709.735,3.018,3.018,0,0,0-.629,2.027,2.854,2.854,0,0,0,.636,1.962,2.161,2.161,0,0,0,1.7.718,2.049,2.049,0,0,0,1.671-.7,3.055,3.055,0,0,0,.584-2,3.108,3.108,0,0,0-.584-2.023A2.04,2.04,0,0,0,107.871,27.779Zm8.846.355a1.371,1.371,0,0,0-.848-.226,1.431,1.431,0,0,0-1.2.677,3.129,3.129,0,0,0-.482,1.846V34h-1.121V27h1.121v1.442h.027a2.444,2.444,0,0,1,.731-1.152,1.668,1.668,0,0,1,1.1-.414,1.83,1.83,0,0,1,.67.1Zm4.628,5.612v-1.2a3.318,3.318,0,0,0,2.017.677q1.477,0,1.477-.984a.854.854,0,0,0-.126-.475,1.26,1.26,0,0,0-.342-.345,2.631,2.631,0,0,0-.506-.27q-.291-.12-.625-.25a8.056,8.056,0,0,1-.817-.373,2.468,2.468,0,0,1-.588-.424,1.577,1.577,0,0,1-.355-.537,1.9,1.9,0,0,1-.12-.7,1.673,1.673,0,0,1,.226-.872,2,2,0,0,1,.6-.636,2.805,2.805,0,0,1,.858-.386,3.805,3.805,0,0,1,.995-.13,4.016,4.016,0,0,1,1.627.314v1.135a3.171,3.171,0,0,0-1.777-.506,2.078,2.078,0,0,0-.567.072,1.389,1.389,0,0,0-.434.2.932.932,0,0,0-.28.311.819.819,0,0,0-.1.4.959.959,0,0,0,.1.458,1.008,1.008,0,0,0,.291.328,2.221,2.221,0,0,0,.465.26q.273.116.622.253a8.657,8.657,0,0,1,.834.366,2.86,2.86,0,0,1,.629.424,1.656,1.656,0,0,1,.4.543,1.753,1.753,0,0,1,.14.731,1.725,1.725,0,0,1-.229.9,1.963,1.963,0,0,1-.612.636,2.8,2.8,0,0,1-.882.376,4.354,4.354,0,0,1-1.046.123A3.971,3.971,0,0,1,121.345,33.747Zm6.938-8.524a.71.71,0,0,1-.513-.205.692.692,0,0,1-.212-.52.718.718,0,0,1,.725-.731.724.724,0,0,1,.523.208.73.73,0,0,1,0,1.036A.718.718,0,0,1,128.283,25.223ZM128.83,34h-1.121V27h1.121Zm8.244-.561q0,3.855-3.691,3.855a4.956,4.956,0,0,1-2.27-.492V35.682a4.661,4.661,0,0,0,2.256.656q2.584,0,2.584-2.748v-.766h-.027a2.832,2.832,0,0,1-4.508.407,3.73,3.73,0,0,1-.8-2.505,4.358,4.358,0,0,1,.858-2.837,2.866,2.866,0,0,1,2.348-1.053,2.282,2.282,0,0,1,2.1,1.135h.027V27h1.121Zm-1.121-2.6V29.8a2,2,0,0,0-.564-1.429,1.857,1.857,0,0,0-1.4-.595,1.947,1.947,0,0,0-1.627.755,3.372,3.372,0,0,0-.588,2.116,2.894,2.894,0,0,0,.564,1.87,1.822,1.822,0,0,0,1.494.7,1.951,1.951,0,0,0,1.535-.67A2.5,2.5,0,0,0,135.953,30.835Zm9.2,3.165h-1.121V30.008q0-2.229-1.627-2.229a1.765,1.765,0,0,0-1.391.632,2.344,2.344,0,0,0-.55,1.6V34h-1.121V27h1.121v1.162h.027a2.526,2.526,0,0,1,2.3-1.326,2.142,2.142,0,0,1,1.757.742,3.3,3.3,0,0,1,.608,2.143Zm7.123,0h-1.121V32.906h-.027a2.347,2.347,0,0,1-2.153,1.258,2.3,2.3,0,0,1-1.637-.554,1.918,1.918,0,0,1-.591-1.47q0-1.962,2.311-2.283l2.1-.294q0-1.784-1.442-1.784a3.446,3.446,0,0,0-2.283.861V27.492a4.338,4.338,0,0,1,2.379-.656q2.468,0,2.468,2.611Zm-1.121-3.541-1.688.232a2.741,2.741,0,0,0-1.176.386,1.114,1.114,0,0,0-.4.981,1.068,1.068,0,0,0,.366.837,1.413,1.413,0,0,0,.974.325,1.8,1.8,0,0,0,1.377-.584,2.088,2.088,0,0,0,.543-1.48Zm6.48,3.473a2.162,2.162,0,0,1-1.046.219q-1.839,0-1.839-2.051V27.957h-1.2V27h1.2V25.291l1.121-.362V27h1.764v.957h-1.764V31.9a1.635,1.635,0,0,0,.239,1,.955.955,0,0,0,.793.3,1.179,1.179,0,0,0,.731-.232Zm7.157.068h-1.121V32.893h-.027a2.3,2.3,0,0,1-2.16,1.271q-2.5,0-2.5-2.98V27H160.1v4.006q0,2.215,1.7,2.215a1.715,1.715,0,0,0,1.35-.6,2.315,2.315,0,0,0,.53-1.583V27h1.121Zm5.913-5.865a1.371,1.371,0,0,0-.848-.226,1.431,1.431,0,0,0-1.2.677,3.129,3.129,0,0,0-.482,1.846V34h-1.121V27h1.121v1.442h.027a2.444,2.444,0,0,1,.731-1.152,1.668,1.668,0,0,1,1.1-.414,1.83,1.83,0,0,1,.67.1Zm6.843,2.646h-4.942a2.618,2.618,0,0,0,.629,1.8,2.168,2.168,0,0,0,1.654.636,3.439,3.439,0,0,0,2.174-.779v1.053a4.063,4.063,0,0,1-2.44.67,2.959,2.959,0,0,1-2.331-.954,3.9,3.9,0,0,1-.848-2.683,3.828,3.828,0,0,1,.926-2.663,2.97,2.97,0,0,1,2.3-1.029,2.632,2.632,0,0,1,2.126.889,3.705,3.705,0,0,1,.752,2.468Zm-1.148-.95a2.281,2.281,0,0,0-.468-1.511,1.6,1.6,0,0,0-1.282-.54,1.811,1.811,0,0,0-1.347.567,2.575,2.575,0,0,0-.684,1.483ZM23.892,49.541H20.159v-.882h3.732Zm6,3.459V43.2H32.6q5.182,0,5.182,4.778a4.815,4.815,0,0,1-1.439,3.647A5.338,5.338,0,0,1,32.491,53Zm1.148-8.764v7.725H32.5a4.152,4.152,0,0,0,3-1.032A3.869,3.869,0,0,0,36.579,48q0-3.767-4.006-3.767ZM44.57,53H43.449V51.906h-.027a2.347,2.347,0,0,1-2.153,1.258,2.3,2.3,0,0,1-1.637-.554,1.918,1.918,0,0,1-.591-1.47q0-1.962,2.311-2.283l2.1-.294q0-1.784-1.442-1.784a3.446,3.446,0,0,0-2.283.861V46.492a4.338,4.338,0,0,1,2.379-.656q2.468,0,2.468,2.611Zm-1.121-3.541-1.688.232a2.741,2.741,0,0,0-1.176.386,1.114,1.114,0,0,0-.4.981,1.068,1.068,0,0,0,.366.837,1.413,1.413,0,0,0,.974.325,1.8,1.8,0,0,0,1.377-.584,2.088,2.088,0,0,0,.543-1.48Zm6.48,3.473a2.162,2.162,0,0,1-1.046.219q-1.839,0-1.839-2.051V46.957h-1.2V46h1.2V44.291l1.121-.362V46H49.93v.957H48.166V50.9a1.635,1.635,0,0,0,.239,1,.955.955,0,0,0,.793.3,1.179,1.179,0,0,0,.731-.232Zm7.123-3.151H52.11a2.618,2.618,0,0,0,.629,1.8,2.168,2.168,0,0,0,1.654.636,3.439,3.439,0,0,0,2.174-.779v1.053a4.063,4.063,0,0,1-2.44.67A2.959,2.959,0,0,1,51.8,52.21a3.9,3.9,0,0,1-.848-2.683,3.828,3.828,0,0,1,.926-2.663,2.97,2.97,0,0,1,2.3-1.029,2.632,2.632,0,0,1,2.126.889,3.705,3.705,0,0,1,.752,2.468ZM55.9,48.83a2.281,2.281,0,0,0-.468-1.511,1.6,1.6,0,0,0-1.282-.54,1.811,1.811,0,0,0-1.347.567,2.575,2.575,0,0,0-.684,1.483Zm9.6,4.334a3.247,3.247,0,0,1-2.478-.981,3.634,3.634,0,0,1-.926-2.6,3.785,3.785,0,0,1,.964-2.755,3.465,3.465,0,0,1,2.6-.991,3.14,3.14,0,0,1,2.444.964A3.822,3.822,0,0,1,69,49.473a3.761,3.761,0,0,1-.947,2.683A3.318,3.318,0,0,1,65.509,53.164Zm.082-6.385a2.132,2.132,0,0,0-1.709.735,3.018,3.018,0,0,0-.629,2.027,2.854,2.854,0,0,0,.636,1.962,2.161,2.161,0,0,0,1.7.718,2.049,2.049,0,0,0,1.671-.7,3.055,3.055,0,0,0,.584-2,3.108,3.108,0,0,0-.584-2.023A2.04,2.04,0,0,0,65.591,46.779Zm8.654-3.158a1.493,1.493,0,0,0-.745-.185q-1.176,0-1.176,1.483V46h1.641v.957H72.324V53H71.21V46.957h-1.2V46h1.2V44.865a2.358,2.358,0,0,1,.636-1.74,2.146,2.146,0,0,1,1.586-.639,2.2,2.2,0,0,1,.813.123Zm5.906,8.367h-.027V53H79V42.637h1.121V47.23h.027a2.651,2.651,0,0,1,2.42-1.395,2.566,2.566,0,0,1,2.109.94,3.881,3.881,0,0,1,.762,2.519,4.339,4.339,0,0,1-.854,2.813,2.845,2.845,0,0,1-2.338,1.056A2.3,2.3,0,0,1,80.151,51.988Zm-.027-2.823v.978a2.081,2.081,0,0,0,.564,1.473,2.012,2.012,0,0,0,3.028-.174,3.575,3.575,0,0,0,.578-2.167,2.822,2.822,0,0,0-.54-1.832,1.787,1.787,0,0,0-1.463-.663,1.986,1.986,0,0,0-1.572.68A2.5,2.5,0,0,0,80.124,49.165Zm7.684-4.942a.71.71,0,0,1-.513-.205.692.692,0,0,1-.212-.52.718.718,0,0,1,.725-.731.724.724,0,0,1,.523.208.73.73,0,0,1,0,1.036A.718.718,0,0,1,87.808,44.223ZM88.354,53H87.233V46h1.121Zm5.92-5.865a1.371,1.371,0,0,0-.848-.226,1.431,1.431,0,0,0-1.2.677,3.129,3.129,0,0,0-.482,1.846V53H90.624V46h1.121v1.442h.027a2.444,2.444,0,0,1,.731-1.152,1.668,1.668,0,0,1,1.1-.414,1.83,1.83,0,0,1,.67.1Zm4.464,5.8a2.161,2.161,0,0,1-1.046.219q-1.839,0-1.839-2.051V46.957h-1.2V46h1.2V44.291l1.121-.362V46h1.764v.957H96.975V50.9a1.635,1.635,0,0,0,.239,1,.955.955,0,0,0,.793.3,1.179,1.179,0,0,0,.731-.232Zm7.308.068h-1.121V48.967q0-2.187-1.627-2.187a1.774,1.774,0,0,0-1.381.632,2.356,2.356,0,0,0-.561,1.624V53h-1.121V42.637h1.121v4.525h.027a2.546,2.546,0,0,1,2.3-1.326q2.365,0,2.365,2.851Z" transform="translate(-1762 1031)" fill="#31313a"/>
      <path id="Rectangle_5239" data-name="Rectangle 5239" d="M4,0H50a0,0,0,0,1,0,0V123.8a0,0,0,0,1,0,0H4a4,4,0,0,1-4-4V4A4,4,0,0,1,4,0Z" transform="translate(-1832 984)" fill="#d93911"/>
      <path id="Path_8382" data-name="Path 8382" d="M10.717,3.4h2.717a.455.455,0,0,1,.455.455h0L12.98,14.679a.444.444,0,0,1-.444.444h-.909a.445.445,0,0,1-.455-.433v-.011l-.9-10.825a.445.445,0,0,1,.433-.455ZM13.965,18.89a1.84,1.84,0,0,1-1.851,1.829h-.26a1.873,1.873,0,0,1-1.5-1.321,1.84,1.84,0,0,1,1.765-2.349h0a1.851,1.851,0,0,1,1.83,1.83ZM16.974,0H7.026L0,7.026v9.949L7.026,24h9.949L24,16.974V7.026Z" transform="translate(-1819 1034)" fill="#fff"/>
    </g>
  </g>
</svg>
