<svg xmlns="http://www.w3.org/2000/svg" xmlns:xlink="http://www.w3.org/1999/xlink" width="490" height="59" viewBox="0 0 490 59">
  <defs>
    <clipPath id="clip-well_info">
      <rect width="490" height="59"/>
    </clipPath>
  </defs>
  <g id="well_info" clip-path="url(#clip-well_info)">
    <g id="Group_14595" data-name="Group 14595" transform="translate(-104.8 -800)">
      <g id="Group_11898" data-name="Group 11898" transform="translate(105 800)">
        <g id="Group_11892" data-name="Group 11892">
          <g id="Rectangle_3830" data-name="Rectangle 3830" transform="translate(-0.2)" fill="#fff" stroke="#2777d3" stroke-width="1">
            <rect width="490" height="59" rx="4" stroke="none"/>
            <rect x="0.5" y="0.5" width="489" height="58" rx="3.5" fill="none"/>
          </g>
          <path id="Path_101136" data-name="Path 101136" d="M6.48,15h-5.2V5.2H6.262V6.236H2.434V9.5H5.975v1.032H2.434v3.432H6.48Zm11.676,0H17.035V10.98A3.032,3.032,0,0,0,16.676,9.3a1.361,1.361,0,0,0-1.207-.52,1.494,1.494,0,0,0-1.22.656,2.511,2.511,0,0,0-.5,1.572V15H12.626V10.844q0-2.064-1.593-2.064A1.475,1.475,0,0,0,9.816,9.4a2.557,2.557,0,0,0-.479,1.61V15H8.217V8H9.338V9.107h.027a2.378,2.378,0,0,1,2.174-1.271,2.022,2.022,0,0,1,1.982,1.449,2.5,2.5,0,0,1,2.324-1.449q2.311,0,2.311,2.851Zm3.268-1.012H21.4V18.22H20.275V8H21.4V9.23h.027a2.651,2.651,0,0,1,2.42-1.395,2.563,2.563,0,0,1,2.112.94,3.893,3.893,0,0,1,.759,2.519,4.339,4.339,0,0,1-.854,2.813,2.845,2.845,0,0,1-2.338,1.056A2.342,2.342,0,0,1,21.424,13.988ZM21.4,11.165v.978a2.081,2.081,0,0,0,.564,1.473,2.012,2.012,0,0,0,3.028-.174,3.575,3.575,0,0,0,.578-2.167,2.822,2.822,0,0,0-.54-1.832,1.787,1.787,0,0,0-1.463-.663,1.986,1.986,0,0,0-1.572.68A2.5,2.5,0,0,0,21.4,11.165ZM29.627,15H28.506V4.637h1.121Zm5.2.164a3.247,3.247,0,0,1-2.478-.981,3.633,3.633,0,0,1-.926-2.6,3.785,3.785,0,0,1,.964-2.755,3.465,3.465,0,0,1,2.6-.991A3.14,3.14,0,0,1,37.43,8.8a3.822,3.822,0,0,1,.878,2.673,3.761,3.761,0,0,1-.947,2.683A3.317,3.317,0,0,1,34.822,15.164ZM34.9,8.779a2.132,2.132,0,0,0-1.709.735,3.018,3.018,0,0,0-.629,2.027A2.854,2.854,0,0,0,33.2,13.5a2.161,2.161,0,0,0,1.7.718,2.049,2.049,0,0,0,1.671-.7,3.055,3.055,0,0,0,.584-2,3.108,3.108,0,0,0-.584-2.023A2.04,2.04,0,0,0,34.9,8.779ZM45.671,8l-3.22,8.121q-.861,2.174-2.42,2.174a2.565,2.565,0,0,1-.731-.089v-1a2.078,2.078,0,0,0,.663.123,1.374,1.374,0,0,0,1.271-1.012l.561-1.326L39.061,8H40.3L42.2,13.387q.034.1.144.533h.041q.034-.164.137-.52L44.509,8ZM52.5,11.78H47.558a2.618,2.618,0,0,0,.629,1.8,2.168,2.168,0,0,0,1.654.636,3.439,3.439,0,0,0,2.174-.779v1.053a4.063,4.063,0,0,1-2.44.67,2.959,2.959,0,0,1-2.331-.954,3.9,3.9,0,0,1-.848-2.683,3.828,3.828,0,0,1,.926-2.663,2.97,2.97,0,0,1,2.3-1.029,2.632,2.632,0,0,1,2.126.889,3.705,3.705,0,0,1,.752,2.468Zm-1.148-.95a2.281,2.281,0,0,0-.468-1.511,1.6,1.6,0,0,0-1.282-.54,1.811,1.811,0,0,0-1.347.567,2.575,2.575,0,0,0-.684,1.483Zm8.47.95H54.879a2.618,2.618,0,0,0,.629,1.8,2.168,2.168,0,0,0,1.654.636,3.439,3.439,0,0,0,2.174-.779v1.053a4.063,4.063,0,0,1-2.44.67,2.959,2.959,0,0,1-2.331-.954,3.9,3.9,0,0,1-.848-2.683,3.828,3.828,0,0,1,.926-2.663,2.97,2.97,0,0,1,2.3-1.029,2.632,2.632,0,0,1,2.126.889,3.705,3.705,0,0,1,.752,2.468Zm-1.148-.95A2.281,2.281,0,0,0,58.2,9.319a1.6,1.6,0,0,0-1.282-.54,1.811,1.811,0,0,0-1.347.567,2.575,2.575,0,0,0-.684,1.483Zm2.42,3.917v-1.2a3.318,3.318,0,0,0,2.017.677q1.477,0,1.477-.984a.854.854,0,0,0-.126-.475,1.26,1.26,0,0,0-.342-.345,2.631,2.631,0,0,0-.506-.27q-.291-.12-.625-.25a8.056,8.056,0,0,1-.817-.373,2.468,2.468,0,0,1-.588-.424,1.577,1.577,0,0,1-.355-.537,1.9,1.9,0,0,1-.12-.7,1.673,1.673,0,0,1,.226-.872,2,2,0,0,1,.6-.636,2.805,2.805,0,0,1,.858-.386,3.805,3.805,0,0,1,.995-.13,4.016,4.016,0,0,1,1.627.314V9.285a3.171,3.171,0,0,0-1.777-.506,2.078,2.078,0,0,0-.567.072,1.389,1.389,0,0,0-.434.2.932.932,0,0,0-.28.311.819.819,0,0,0-.1.4.959.959,0,0,0,.1.458,1.008,1.008,0,0,0,.291.328,2.221,2.221,0,0,0,.465.26q.273.116.622.253a8.657,8.657,0,0,1,.834.366,2.86,2.86,0,0,1,.629.424,1.656,1.656,0,0,1,.4.543,1.753,1.753,0,0,1,.14.731,1.725,1.725,0,0,1-.229.9,1.963,1.963,0,0,1-.612.636,2.8,2.8,0,0,1-.882.376,4.354,4.354,0,0,1-1.046.123A3.971,3.971,0,0,1,61.093,14.747ZM81.231,15H80.11V10.98A3.032,3.032,0,0,0,79.751,9.3a1.361,1.361,0,0,0-1.207-.52,1.494,1.494,0,0,0-1.22.656,2.511,2.511,0,0,0-.5,1.572V15H75.7V10.844q0-2.064-1.593-2.064a1.475,1.475,0,0,0-1.217.619,2.557,2.557,0,0,0-.479,1.61V15H71.292V8h1.121V9.107h.027a2.378,2.378,0,0,1,2.174-1.271A2.022,2.022,0,0,1,76.6,9.285a2.5,2.5,0,0,1,2.324-1.449q2.311,0,2.311,2.851Zm7.779,0H87.89V13.893h-.027a2.3,2.3,0,0,1-2.16,1.271q-2.5,0-2.5-2.98V8h1.114v4.006q0,2.215,1.7,2.215a1.715,1.715,0,0,0,1.35-.6,2.315,2.315,0,0,0,.53-1.583V8h1.121Zm1.839-.253v-1.2a3.318,3.318,0,0,0,2.017.677q1.477,0,1.477-.984a.854.854,0,0,0-.126-.475,1.26,1.26,0,0,0-.342-.345,2.631,2.631,0,0,0-.506-.27q-.291-.12-.625-.25a8.056,8.056,0,0,1-.817-.373,2.468,2.468,0,0,1-.588-.424,1.577,1.577,0,0,1-.355-.537,1.9,1.9,0,0,1-.12-.7,1.673,1.673,0,0,1,.226-.872,2,2,0,0,1,.6-.636,2.805,2.805,0,0,1,.858-.386,3.805,3.805,0,0,1,.995-.13,4.016,4.016,0,0,1,1.627.314V9.285a3.171,3.171,0,0,0-1.777-.506,2.078,2.078,0,0,0-.567.072,1.389,1.389,0,0,0-.434.2.932.932,0,0,0-.28.311.819.819,0,0,0-.1.4.959.959,0,0,0,.1.458,1.008,1.008,0,0,0,.291.328,2.221,2.221,0,0,0,.465.26q.273.116.622.253a8.657,8.657,0,0,1,.834.366,2.86,2.86,0,0,1,.629.424,1.656,1.656,0,0,1,.4.543,1.753,1.753,0,0,1,.14.731,1.725,1.725,0,0,1-.229.9,1.963,1.963,0,0,1-.612.636,2.8,2.8,0,0,1-.882.376,4.354,4.354,0,0,1-1.046.123A3.971,3.971,0,0,1,90.85,14.747Zm9.611.185a2.161,2.161,0,0,1-1.046.219q-1.839,0-1.839-2.051V8.957h-1.2V8h1.2V6.291L98.7,5.929V8h1.764v.957H98.7V12.9a1.635,1.635,0,0,0,.239,1,.955.955,0,0,0,.793.3,1.179,1.179,0,0,0,.731-.232Zm4.908-.185v-1.2a3.318,3.318,0,0,0,2.017.677q1.477,0,1.477-.984a.854.854,0,0,0-.126-.475,1.26,1.26,0,0,0-.342-.345,2.631,2.631,0,0,0-.506-.27q-.291-.12-.625-.25a8.056,8.056,0,0,1-.817-.373,2.468,2.468,0,0,1-.588-.424,1.577,1.577,0,0,1-.355-.537,1.9,1.9,0,0,1-.12-.7,1.673,1.673,0,0,1,.226-.872,2,2,0,0,1,.6-.636,2.805,2.805,0,0,1,.858-.386,3.805,3.805,0,0,1,.995-.13,4.016,4.016,0,0,1,1.627.314V9.285a3.171,3.171,0,0,0-1.777-.506,2.078,2.078,0,0,0-.567.072,1.389,1.389,0,0,0-.434.2.932.932,0,0,0-.28.311.819.819,0,0,0-.1.4.959.959,0,0,0,.1.458,1.008,1.008,0,0,0,.291.328,2.221,2.221,0,0,0,.465.26q.273.116.622.253a8.657,8.657,0,0,1,.834.366,2.86,2.86,0,0,1,.629.424,1.656,1.656,0,0,1,.4.543,1.753,1.753,0,0,1,.14.731,1.725,1.725,0,0,1-.229.9,1.963,1.963,0,0,1-.612.636,2.8,2.8,0,0,1-.882.376,4.354,4.354,0,0,1-1.046.123A3.971,3.971,0,0,1,105.369,14.747Zm6.938-8.524a.71.71,0,0,1-.513-.205.692.692,0,0,1-.212-.52.718.718,0,0,1,.725-.731.724.724,0,0,1,.523.208.73.73,0,0,1,0,1.036A.718.718,0,0,1,112.308,6.223ZM112.854,15h-1.121V8h1.121Zm8.244-.561q0,3.855-3.691,3.855a4.956,4.956,0,0,1-2.27-.492V16.682a4.661,4.661,0,0,0,2.256.656q2.584,0,2.584-2.748v-.766h-.027a2.832,2.832,0,0,1-4.508.407,3.73,3.73,0,0,1-.8-2.505,4.358,4.358,0,0,1,.858-2.837,2.866,2.866,0,0,1,2.348-1.053,2.282,2.282,0,0,1,2.1,1.135h.027V8H121.1Zm-1.121-2.6V10.8a2,2,0,0,0-.564-1.429,1.857,1.857,0,0,0-1.4-.595,1.947,1.947,0,0,0-1.627.755,3.372,3.372,0,0,0-.588,2.116,2.894,2.894,0,0,0,.564,1.87,1.822,1.822,0,0,0,1.494.7,1.951,1.951,0,0,0,1.535-.67A2.5,2.5,0,0,0,119.978,11.835Zm9.2,3.165h-1.121V11.008q0-2.229-1.627-2.229a1.765,1.765,0,0,0-1.391.632,2.344,2.344,0,0,0-.55,1.6V15h-1.121V8h1.121V9.162h.027a2.526,2.526,0,0,1,2.3-1.326,2.142,2.142,0,0,1,1.757.742,3.3,3.3,0,0,1,.608,2.143Zm9.194-.068a2.162,2.162,0,0,1-1.046.219q-1.839,0-1.839-2.051V8.957h-1.2V8h1.2V6.291l1.121-.362V8h1.764v.957h-1.764V12.9a1.635,1.635,0,0,0,.239,1,.955.955,0,0,0,.793.3,1.179,1.179,0,0,0,.731-.232Zm7.308.068H144.56V10.967q0-2.187-1.627-2.187a1.774,1.774,0,0,0-1.381.632,2.356,2.356,0,0,0-.561,1.624V15H139.87V4.637h1.121V9.162h.027a2.546,2.546,0,0,1,2.3-1.326q2.365,0,2.365,2.851Zm7.738-3.22h-4.942a2.618,2.618,0,0,0,.629,1.8,2.168,2.168,0,0,0,1.654.636,3.439,3.439,0,0,0,2.174-.779v1.053a4.063,4.063,0,0,1-2.44.67,2.959,2.959,0,0,1-2.331-.954,3.9,3.9,0,0,1-.848-2.683,3.828,3.828,0,0,1,.926-2.663,2.97,2.97,0,0,1,2.3-1.029,2.632,2.632,0,0,1,2.126.889,3.705,3.705,0,0,1,.752,2.468Zm-1.148-.95a2.281,2.281,0,0,0-.468-1.511,1.6,1.6,0,0,0-1.282-.54,1.811,1.811,0,0,0-1.347.567,2.575,2.575,0,0,0-.684,1.483Zm3.418-4.607a.71.71,0,0,1-.513-.205.692.692,0,0,1-.212-.52.718.718,0,0,1,.725-.731.724.724,0,0,1,.523.208.73.73,0,0,1,0,1.036A.718.718,0,0,1,155.688,6.223ZM156.235,15h-1.121V8h1.121Zm5.92-5.865a1.371,1.371,0,0,0-.848-.226,1.431,1.431,0,0,0-1.2.677,3.129,3.129,0,0,0-.482,1.846V15H158.5V8h1.121V9.442h.027a2.444,2.444,0,0,1,.731-1.152,1.668,1.668,0,0,1,1.1-.414,1.83,1.83,0,0,1,.67.1Zm7.978,6.029a3.247,3.247,0,0,1-2.478-.981,3.634,3.634,0,0,1-.926-2.6,3.785,3.785,0,0,1,.964-2.755,3.465,3.465,0,0,1,2.6-.991,3.14,3.14,0,0,1,2.444.964,3.822,3.822,0,0,1,.878,2.673,3.761,3.761,0,0,1-.947,2.683A3.317,3.317,0,0,1,170.133,15.164Zm.082-6.385a2.132,2.132,0,0,0-1.709.735,3.018,3.018,0,0,0-.629,2.027,2.854,2.854,0,0,0,.636,1.962,2.161,2.161,0,0,0,1.7.718,2.049,2.049,0,0,0,1.671-.7,3.055,3.055,0,0,0,.584-2,3.108,3.108,0,0,0-.584-2.023A2.04,2.04,0,0,0,170.215,8.779ZM184.229,8l-2.1,7h-1.162l-1.442-5.011a3.266,3.266,0,0,1-.109-.649h-.027a3.065,3.065,0,0,1-.144.636L177.68,15h-1.121l-2.119-7h1.176l1.449,5.264a3.171,3.171,0,0,1,.1.629h.055a2.942,2.942,0,0,1,.123-.643L178.951,8h1.025l1.449,5.277a3.767,3.767,0,0,1,.1.629h.055a2.909,2.909,0,0,1,.116-.629L183.121,8Zm7.109,7h-1.121V11.008q0-2.229-1.627-2.229a1.765,1.765,0,0,0-1.391.632,2.344,2.344,0,0,0-.55,1.6V15h-1.121V8h1.121V9.162h.027a2.526,2.526,0,0,1,2.3-1.326,2.142,2.142,0,0,1,1.757.742,3.3,3.3,0,0,1,.608,2.143Zm11.573-3.22h-4.942a2.618,2.618,0,0,0,.629,1.8,2.168,2.168,0,0,0,1.654.636,3.439,3.439,0,0,0,2.174-.779v1.053a4.063,4.063,0,0,1-2.44.67,2.959,2.959,0,0,1-2.331-.954,3.9,3.9,0,0,1-.848-2.683,3.828,3.828,0,0,1,.926-2.663,2.97,2.97,0,0,1,2.3-1.029,2.632,2.632,0,0,1,2.126.889,3.705,3.705,0,0,1,.752,2.468Zm-1.148-.95a2.281,2.281,0,0,0-.468-1.511,1.6,1.6,0,0,0-1.282-.54,1.811,1.811,0,0,0-1.347.567,2.575,2.575,0,0,0-.684,1.483ZM210.417,15H209.3V11.008q0-2.229-1.627-2.229a1.765,1.765,0,0,0-1.391.632,2.344,2.344,0,0,0-.55,1.6V15h-1.121V8h1.121V9.162h.027a2.526,2.526,0,0,1,2.3-1.326,2.142,2.142,0,0,1,1.757.742,3.3,3.3,0,0,1,.608,2.143Zm5.763-5.865a1.371,1.371,0,0,0-.848-.226,1.431,1.431,0,0,0-1.2.677,3.129,3.129,0,0,0-.482,1.846V15h-1.121V8h1.121V9.442h.027a2.444,2.444,0,0,1,.731-1.152,1.668,1.668,0,0,1,1.1-.414,1.83,1.83,0,0,1,.67.1Zm4.143,6.029a3.247,3.247,0,0,1-2.478-.981,3.634,3.634,0,0,1-.926-2.6,3.785,3.785,0,0,1,.964-2.755,3.465,3.465,0,0,1,2.6-.991,3.14,3.14,0,0,1,2.444.964,3.822,3.822,0,0,1,.878,2.673,3.761,3.761,0,0,1-.947,2.683A3.317,3.317,0,0,1,220.322,15.164Zm.082-6.385a2.132,2.132,0,0,0-1.709.735,3.018,3.018,0,0,0-.629,2.027A2.854,2.854,0,0,0,218.7,13.5a2.161,2.161,0,0,0,1.7.718,2.049,2.049,0,0,0,1.671-.7,3.055,3.055,0,0,0,.584-2,3.108,3.108,0,0,0-.584-2.023A2.04,2.04,0,0,0,220.4,8.779ZM226.721,15H225.6V4.637h1.121Zm3.391,0H228.99V4.637h1.121Zm12.209,0H241.2V10.98A3.032,3.032,0,0,0,240.84,9.3a1.361,1.361,0,0,0-1.207-.52,1.494,1.494,0,0,0-1.22.656,2.511,2.511,0,0,0-.5,1.572V15H236.79V10.844q0-2.064-1.593-2.064a1.475,1.475,0,0,0-1.217.619,2.557,2.557,0,0,0-.479,1.61V15h-1.121V8H233.5V9.107h.027A2.378,2.378,0,0,1,235.7,7.836a2.022,2.022,0,0,1,1.982,1.449,2.5,2.5,0,0,1,2.324-1.449q2.311,0,2.311,2.851Zm7.745-3.22h-4.942a2.618,2.618,0,0,0,.629,1.8,2.168,2.168,0,0,0,1.654.636,3.439,3.439,0,0,0,2.174-.779v1.053a4.063,4.063,0,0,1-2.44.67,2.959,2.959,0,0,1-2.331-.954,3.9,3.9,0,0,1-.848-2.683,3.828,3.828,0,0,1,.926-2.663,2.97,2.97,0,0,1,2.3-1.029,2.632,2.632,0,0,1,2.126.889,3.705,3.705,0,0,1,.752,2.468Zm-1.148-.95a2.281,2.281,0,0,0-.468-1.511,1.6,1.6,0,0,0-1.282-.54,1.811,1.811,0,0,0-1.347.567,2.575,2.575,0,0,0-.684,1.483ZM257.571,15H256.45V11.008q0-2.229-1.627-2.229a1.765,1.765,0,0,0-1.391.632,2.344,2.344,0,0,0-.55,1.6V15h-1.121V8h1.121V9.162h.027a2.526,2.526,0,0,1,2.3-1.326,2.142,2.142,0,0,1,1.757.742,3.3,3.3,0,0,1,.608,2.143Zm5.359-.068a2.161,2.161,0,0,1-1.046.219q-1.839,0-1.839-2.051V8.957h-1.2V8h1.2V6.291l1.121-.362V8h1.764v.957h-1.764V12.9a1.635,1.635,0,0,0,.239,1,.955.955,0,0,0,.793.3,1.179,1.179,0,0,0,.731-.232Zm8.791-9.311a1.493,1.493,0,0,0-.745-.185q-1.176,0-1.176,1.483V8h1.641v.957H269.8V15h-1.114V8.957h-1.2V8h1.2V6.865a2.358,2.358,0,0,1,.636-1.74,2.146,2.146,0,0,1,1.586-.639,2.2,2.2,0,0,1,.813.123Zm3.849,9.543a3.247,3.247,0,0,1-2.478-.981,3.633,3.633,0,0,1-.926-2.6,3.785,3.785,0,0,1,.964-2.755,3.465,3.465,0,0,1,2.6-.991,3.14,3.14,0,0,1,2.444.964,3.822,3.822,0,0,1,.878,2.673,3.761,3.761,0,0,1-.947,2.683A3.317,3.317,0,0,1,275.57,15.164Zm.082-6.385a2.132,2.132,0,0,0-1.709.735,3.018,3.018,0,0,0-.629,2.027,2.854,2.854,0,0,0,.636,1.962,2.161,2.161,0,0,0,1.7.718,2.049,2.049,0,0,0,1.671-.7,3.055,3.055,0,0,0,.584-2,3.108,3.108,0,0,0-.584-2.023A2.04,2.04,0,0,0,275.652,8.779Zm8.846.355a1.371,1.371,0,0,0-.848-.226,1.431,1.431,0,0,0-1.2.677,3.129,3.129,0,0,0-.482,1.846V15h-1.121V8h1.121V9.442H282a2.444,2.444,0,0,1,.731-1.152,1.668,1.668,0,0,1,1.1-.414,1.83,1.83,0,0,1,.67.1ZM295.654,15h-1.121V10.98a3.032,3.032,0,0,0-.359-1.682,1.361,1.361,0,0,0-1.207-.52,1.494,1.494,0,0,0-1.22.656,2.511,2.511,0,0,0-.5,1.572V15h-1.121V10.844q0-2.064-1.593-2.064a1.475,1.475,0,0,0-1.217.619,2.557,2.557,0,0,0-.479,1.61V15h-1.121V8h1.121V9.107h.027a2.378,2.378,0,0,1,2.174-1.271,2.022,2.022,0,0,1,1.982,1.449,2.5,2.5,0,0,1,2.324-1.449q2.311,0,2.311,2.851Zm1.7-.253v-1.2a3.318,3.318,0,0,0,2.017.677q1.477,0,1.477-.984a.854.854,0,0,0-.126-.475,1.261,1.261,0,0,0-.342-.345,2.631,2.631,0,0,0-.506-.27q-.291-.12-.625-.25a8.056,8.056,0,0,1-.817-.373,2.468,2.468,0,0,1-.588-.424,1.577,1.577,0,0,1-.355-.537,1.9,1.9,0,0,1-.12-.7,1.673,1.673,0,0,1,.226-.872,2,2,0,0,1,.6-.636,2.805,2.805,0,0,1,.858-.386,3.805,3.805,0,0,1,.995-.13,4.016,4.016,0,0,1,1.627.314V9.285a3.171,3.171,0,0,0-1.777-.506,2.078,2.078,0,0,0-.567.072,1.389,1.389,0,0,0-.434.2.932.932,0,0,0-.28.311.819.819,0,0,0-.1.4.959.959,0,0,0,.1.458,1.008,1.008,0,0,0,.291.328,2.221,2.221,0,0,0,.465.26q.273.116.622.253a8.657,8.657,0,0,1,.834.366,2.861,2.861,0,0,1,.629.424,1.656,1.656,0,0,1,.4.543,1.753,1.753,0,0,1,.14.731,1.724,1.724,0,0,1-.229.9,1.963,1.963,0,0,1-.612.636,2.8,2.8,0,0,1-.882.376,4.354,4.354,0,0,1-1.046.123A3.971,3.971,0,0,1,297.35,14.747Zm6.754.4a.726.726,0,0,1-.537-.226.743.743,0,0,1-.222-.54.754.754,0,0,1,.222-.543.72.72,0,0,1,.537-.229.739.739,0,0,1,.547.229.748.748,0,0,1,.226.543.737.737,0,0,1-.226.54A.745.745,0,0,1,304.1,15.15Z" transform="translate(69.8 20)" fill="#31313a"/>
          <path id="Rectangle_5239" data-name="Rectangle 5239" d="M4,0H50a0,0,0,0,1,0,0V59a0,0,0,0,1,0,0H4a4,4,0,0,1-4-4V4A4,4,0,0,1,4,0Z" transform="translate(-0.2)" fill="#2777d3"/>
          <path id="Informative_icon" data-name="Informative icon" d="M1903,1135a12,12,0,1,1,8.485-3.514A11.922,11.922,0,0,1,1903,1135Zm-.709-15a.291.291,0,0,0-.291.291v10.419a.291.291,0,0,0,.291.291h1.919a.291.291,0,0,0,.291-.291V1120.29a.291.291,0,0,0-.291-.291Zm0-5a.291.291,0,0,0-.291.291v1.919a.291.291,0,0,0,.291.291h1.919a.291.291,0,0,0,.291-.291v-1.919a.291.291,0,0,0-.291-.291Z" transform="translate(-1878.199 -1093)" fill="#fff"/>
        </g>
      </g>
    </g>
  </g>
</svg>
