<svg xmlns="http://www.w3.org/2000/svg" xmlns:xlink="http://www.w3.org/1999/xlink" width="840" height="501" viewBox="0 0 840 501">
  <defs>
    <clipPath id="clip-well_dismissible_states">
      <rect width="840" height="501"/>
    </clipPath>
  </defs>
  <g id="well_dismissible_states" clip-path="url(#clip-well_dismissible_states)">
    <rect width="840" height="501" fill="#f9f9fa"/>
    <g id="Group_14611" data-name="Group 14611" transform="translate(-4)">
      <text id="flat_light" transform="translate(174 160)" fill="#d454a3" font-size="12" font-family="OpenSans, Open Sans"><tspan x="-40.857" y="0">Default</tspan></text>
      <text id="flat_light-2" data-name="flat_light" transform="translate(501 63)" fill="#d454a3" font-size="12" font-family="OpenSans, Open Sans"><tspan x="-63.311" y="0">Dismissible</tspan></text>
      <text id="flat_light-3" data-name="flat_light" transform="translate(174 417)" fill="#d454a3" font-size="12" font-family="OpenSans, Open Sans"><tspan x="-32.244" y="0">Focus</tspan></text>
      <text id="flat_light-4" data-name="flat_light" transform="translate(174 289)" fill="#d454a3" font-size="12" font-family="OpenSans, Open Sans"><tspan x="-33.744" y="0">Hover</tspan></text>
      <g id="Group_14608" data-name="Group 14608" transform="translate(224 373)">
        <g id="Group_11898" data-name="Group 11898">
          <g id="Group_11892" data-name="Group 11892">
            <g id="Rectangle_3830" data-name="Rectangle 3830" transform="translate(0)" fill="#fff" stroke="#2777d3" stroke-width="1">
              <rect width="490" height="78" rx="4" stroke="none"/>
              <rect x="0.5" y="0.5" width="489" height="77" rx="3.5" fill="none"/>
            </g>
            <text id="Please_edit_the_statement_details_to_not_match_another_carrier_statement" data-name="Please edit the statement details to not match another carrier statement" transform="translate(70 20)" fill="#31313a" font-size="14" font-family="OpenSans, Open Sans"><tspan x="0" y="15">Please edit the statement details to not match another </tspan><tspan x="0" y="34">carrier statement</tspan></text>
            <path id="Rectangle_5239" data-name="Rectangle 5239" d="M4,0H50a0,0,0,0,1,0,0V77.8a0,0,0,0,1,0,0H4a4,4,0,0,1-4-4V4A4,4,0,0,1,4,0Z" fill="#2777d3"/>
            <g id="Group_12973" data-name="Group 12973" transform="translate(13 27)">
              <g id="Group_11913" data-name="Group 11913">
                <circle id="Ellipse_6" data-name="Ellipse 6" cx="12" cy="12" r="12" fill="#fff"/>
              </g>
              <path id="Path_6649" data-name="Path 6649" d="M153,35.709V25.291a.29.29,0,0,1,.29-.291h1.919a.29.29,0,0,1,.29.291V35.709a.29.29,0,0,1-.29.291H153.29A.29.29,0,0,1,153,35.709Zm.29-13.209h1.919a.29.29,0,0,0,.29-.291V20.291a.29.29,0,0,0-.29-.291H153.29a.29.29,0,0,0-.29.291v1.919A.29.29,0,0,0,153.29,22.5Z" transform="translate(-142 -16)" fill="#2777d3"/>
            </g>
            <g id="Remove" transform="translate(450 4)">
              <g id="Group_11940" data-name="Group 11940">
                <rect id="Touch_target" data-name="Touch target" width="36" height="36" rx="18" fill="none" stroke="#2777d3" stroke-width="1"/>
                <path id="Path_6644" data-name="Path 6644" d="M13.905,12l4.673-4.673a.227.227,0,0,0,0-.318L16.99,5.422a.227.227,0,0,0-.318,0L12,10.095,7.327,5.422a.227.227,0,0,0-.318,0L5.422,7.01a.227.227,0,0,0,0,.318L10.095,12,5.422,16.673a.227.227,0,0,0,0,.318L7.01,18.578a.227.227,0,0,0,.318,0L12,13.905l4.673,4.673a.227.227,0,0,0,.318,0l1.588-1.588a.227.227,0,0,0,0-.318Z" transform="translate(6 6)" fill="#31313a"/>
              </g>
            </g>
          </g>
        </g>
      </g>
      <g id="Group_14609" data-name="Group 14609" transform="translate(224 245.327)">
        <g id="Group_11898-2" data-name="Group 11898">
          <g id="Group_11892-2" data-name="Group 11892">
            <g id="Rectangle_3830-2" data-name="Rectangle 3830" transform="translate(0 -0.327)" fill="#fff" stroke="#2777d3" stroke-width="1">
              <rect width="490" height="78" rx="4" stroke="none"/>
              <rect x="0.5" y="0.5" width="489" height="77" rx="3.5" fill="none"/>
            </g>
            <text id="Please_edit_the_statement_details_to_not_match_another_carrier_statement-2" data-name="Please edit the statement details to not match another carrier statement" transform="translate(70 19.673)" fill="#31313a" font-size="14" font-family="OpenSans, Open Sans"><tspan x="0" y="15">Please edit the statement details to not match another </tspan><tspan x="0" y="34">carrier statement</tspan></text>
            <path id="Rectangle_5239-2" data-name="Rectangle 5239" d="M4,0H50a0,0,0,0,1,0,0V77.8a0,0,0,0,1,0,0H4a4,4,0,0,1-4-4V4A4,4,0,0,1,4,0Z" fill="#2777d3"/>
            <g id="Group_12973-2" data-name="Group 12973" transform="translate(13 27)">
              <g id="Group_11913-2" data-name="Group 11913">
                <circle id="Ellipse_6-2" data-name="Ellipse 6" cx="12" cy="12" r="12" transform="translate(0 -0.327)" fill="#fff"/>
              </g>
              <path id="Path_6649-2" data-name="Path 6649" d="M153,35.709V25.291a.29.29,0,0,1,.29-.291h1.919a.29.29,0,0,1,.29.291V35.709a.29.29,0,0,1-.29.291H153.29A.29.29,0,0,1,153,35.709Zm.29-13.209h1.919a.29.29,0,0,0,.29-.291V20.291a.29.29,0,0,0-.29-.291H153.29a.29.29,0,0,0-.29.291v1.919A.29.29,0,0,0,153.29,22.5Z" transform="translate(-142 -16)" fill="#2777d3"/>
            </g>
            <g id="Remove-2" data-name="Remove" transform="translate(450 4)">
              <g id="Group_11940-2" data-name="Group 11940">
                <rect id="Touch_target-2" data-name="Touch target" width="36" height="36" rx="18" transform="translate(0 -0.327)" fill="#e6e6ea"/>
                <path id="Path_6644-2" data-name="Path 6644" d="M13.905,12l4.673-4.673a.227.227,0,0,0,0-.318L16.99,5.422a.227.227,0,0,0-.318,0L12,10.095,7.327,5.422a.227.227,0,0,0-.318,0L5.422,7.01a.227.227,0,0,0,0,.318L10.095,12,5.422,16.673a.227.227,0,0,0,0,.318L7.01,18.578a.227.227,0,0,0,.318,0L12,13.905l4.673,4.673a.227.227,0,0,0,.318,0l1.588-1.588a.227.227,0,0,0,0-.318Z" transform="translate(6 6)" fill="#31313a"/>
              </g>
            </g>
          </g>
        </g>
      </g>
      <g id="Group_14607" data-name="Group 14607" transform="translate(224 117)">
        <g id="Group_11898-3" data-name="Group 11898">
          <g id="Group_11892-3" data-name="Group 11892">
            <g id="Rectangle_3830-3" data-name="Rectangle 3830" transform="translate(0.2)" fill="#fff" stroke="#2777d3" stroke-width="1">
              <rect width="490.8" height="78" rx="4" stroke="none"/>
              <rect x="0.5" y="0.5" width="489.8" height="77" rx="3.5" fill="none"/>
            </g>
            <text id="Please_edit_the_statement_details_to_not_match_another_carrier_statement-3" data-name="Please edit the statement details to not match another carrier statement" transform="translate(70.6 20)" fill="#31313a" font-size="14" font-family="OpenSans, Open Sans"><tspan x="0" y="15">Please edit the statement details to not match another </tspan><tspan x="0" y="34">carrier statement</tspan></text>
            <path id="Rectangle_5239-3" data-name="Rectangle 5239" d="M4,0H50a0,0,0,0,1,0,0V77.8a0,0,0,0,1,0,0H4a4,4,0,0,1-4-4V4A4,4,0,0,1,4,0Z" fill="#2777d3"/>
            <g id="Group_12973-3" data-name="Group 12973" transform="translate(13 27)">
              <g id="Group_11913-3" data-name="Group 11913">
                <circle id="Ellipse_6-3" data-name="Ellipse 6" cx="12" cy="12" r="12" transform="translate(0 0.291)" fill="#fff"/>
              </g>
              <path id="Path_6649-3" data-name="Path 6649" d="M153,35.709V25.291a.29.29,0,0,1,.29-.291h1.919a.29.29,0,0,1,.29.291V35.709a.29.29,0,0,1-.29.291H153.29A.29.29,0,0,1,153,35.709Zm.29-13.209h1.919a.29.29,0,0,0,.29-.291V20.291a.29.29,0,0,0-.29-.291H153.29a.29.29,0,0,0-.29.291v1.919A.29.29,0,0,0,153.29,22.5Z" transform="translate(-142 -16)" fill="#2777d3"/>
            </g>
            <g id="Remove-3" data-name="Remove" transform="translate(451 4)">
              <g id="Group_11940-3" data-name="Group 11940">
                <rect id="Touch_target-3" data-name="Touch target" width="36" height="36" rx="18" transform="translate(0 0.291)" fill="none"/>
                <path id="Path_6644-3" data-name="Path 6644" d="M13.905,12l4.673-4.673a.227.227,0,0,0,0-.318L16.99,5.422a.227.227,0,0,0-.318,0L12,10.095,7.327,5.422a.227.227,0,0,0-.318,0L5.422,7.01a.227.227,0,0,0,0,.318L10.095,12,5.422,16.673a.227.227,0,0,0,0,.318L7.01,18.578a.227.227,0,0,0,.318,0L12,13.905l4.673,4.673a.227.227,0,0,0,.318,0l1.588-1.588a.227.227,0,0,0,0-.318Z" transform="translate(6 6)" fill="#31313a"/>
              </g>
            </g>
          </g>
        </g>
      </g>
    </g>
  </g>
</svg>
