<svg xmlns="http://www.w3.org/2000/svg" xmlns:xlink="http://www.w3.org/1999/xlink" width="491" height="78" viewBox="0 0 491 78">
  <defs>
    <clipPath id="clip-well_error">
      <rect width="491" height="78"/>
    </clipPath>
  </defs>
  <g id="well_error" clip-path="url(#clip-well_error)">
    <g id="Group_14593" data-name="Group 14593" transform="translate(-104.8 -800)">
      <g id="Group_11898" data-name="Group 11898" transform="translate(105 800)">
        <g id="Group_11892" data-name="Group 11892">
          <g id="Rectangle_3830" data-name="Rectangle 3830" transform="translate(0)" fill="#fff" stroke="#d93911" stroke-width="1">
            <rect width="490.8" height="78" rx="4" stroke="none"/>
            <rect x="0.5" y="0.5" width="489.8" height="77" rx="3.5" fill="none"/>
          </g>
          <path id="Rectangle_5239" data-name="Rectangle 5239" d="M4,0H50a0,0,0,0,1,0,0V78a0,0,0,0,1,0,0H4a4,4,0,0,1-4-4V4A4,4,0,0,1,4,0Z" transform="translate(-0.2)" fill="#d93911"/>
          <path id="Path_8382" data-name="Path 8382" d="M10.717,3.4h2.717a.455.455,0,0,1,.455.455h0L12.98,14.679a.444.444,0,0,1-.444.444h-.909a.445.445,0,0,1-.455-.433v-.011l-.9-10.825a.445.445,0,0,1,.433-.455ZM13.965,18.89a1.84,1.84,0,0,1-1.851,1.829h-.26a1.873,1.873,0,0,1-1.5-1.321,1.84,1.84,0,0,1,1.765-2.349h0a1.851,1.851,0,0,1,1.83,1.83ZM16.974,0H7.026L0,7.026v9.949L7.026,24h9.949L24,16.974V7.026Z" transform="translate(12.8 27)" fill="#fff"/>
          <text id="Please_edit_the_statement_details_to_not_match_another_carrier_statement." data-name="Please edit the statement details to not match another carrier statement." transform="translate(69.8 20)" fill="#31313a" font-size="14" font-family="SegoeUI, Segoe UI"><tspan x="0" y="15">Please edit the statement details to not match another carrier </tspan><tspan x="0" y="34">statement.</tspan></text>
        </g>
      </g>
    </g>
  </g>
</svg>
