<svg xmlns="http://www.w3.org/2000/svg" xmlns:xlink="http://www.w3.org/1999/xlink" width="627" height="234" viewBox="0 0 627 234">
  <defs>
    <clipPath id="clip-well_anatomy">
      <rect width="627" height="234"/>
    </clipPath>
  </defs>
  <g id="well_anatomy" clip-path="url(#clip-well_anatomy)">
    <rect width="627" height="234" fill="#fff"/>
    <g id="Group_11955" data-name="Group 11955" transform="translate(-36.8 -780)">
      <g id="Group_11898" data-name="Group 11898" transform="translate(105 800)">
        <g id="Group_11892" data-name="Group 11892">
          <g id="Rectangle_3830" data-name="Rectangle 3830" transform="translate(0)" fill="#fff" stroke="#2777d3" stroke-width="1">
            <rect width="490.8" height="134" rx="4" stroke="none"/>
            <rect x="0.5" y="0.5" width="489.8" height="133" rx="3.5" fill="none"/>
          </g>
          <text id="This_statement_has_already_been_entered" data-name="This statement has already been entered" transform="translate(70.4 37)" fill="#31313a" font-size="16" font-family="SegoeUI-Bold, Segoe UI" font-weight="700"><tspan x="0" y="0">This statement has already been entered</tspan></text>
          <text id="Please_edit_the_statement_details_to_not_match_another_carrier_statement" data-name="Please edit the statement details to not match another carrier statement" transform="translate(70.4 47)" fill="#31313a" font-size="14" font-family="SegoeUI, Segoe UI"><tspan x="0" y="15">Please edit the statement details to not match another carrier </tspan><tspan x="0" y="34">statement</tspan></text>
          <text id="View_details" data-name="View details" transform="translate(70.4 110)" fill="#2777d3" font-size="14" font-family="SegoeUI-Semibold, Segoe UI" font-weight="600" text-decoration="underline"><tspan x="0" y="0">View details</tspan></text>
          <path id="Rectangle_5239" data-name="Rectangle 5239" d="M4,0H50a0,0,0,0,1,0,0V133.8a0,0,0,0,1,0,0H4a4,4,0,0,1-4-4V4A4,4,0,0,1,4,0Z" transform="translate(-0.2)" fill="#2777d3"/>
          <g id="Group_12973" data-name="Group 12973" transform="translate(12.8 54)">
            <g id="Group_11913" data-name="Group 11913">
              <circle id="Ellipse_6" data-name="Ellipse 6" cx="12" cy="12" r="12" fill="#fff"/>
            </g>
            <path id="Path_6649" data-name="Path 6649" d="M153,35.709V25.291a.29.29,0,0,1,.29-.291h1.919a.29.29,0,0,1,.29.291V35.709a.29.29,0,0,1-.29.291H153.29A.29.29,0,0,1,153,35.709Zm.29-13.209h1.919a.29.29,0,0,0,.29-.291V20.291a.29.29,0,0,0-.29-.291H153.29a.29.29,0,0,0-.29.291v1.919A.29.29,0,0,0,153.29,22.5Z" transform="translate(-142 -16)" fill="#2777d3"/>
          </g>
          <g id="Remove" transform="translate(466.8 37)">
            <g id="Group_11940" data-name="Group 11940" transform="translate(-10 -28)">
              <rect id="Rectangle_5239-2" data-name="Rectangle 5239" width="24" height="24" fill="none"/>
              <path id="Path_6644" data-name="Path 6644" d="M13.905,12l4.673-4.673a.227.227,0,0,0,0-.318L16.99,5.422a.227.227,0,0,0-.318,0L12,10.095,7.327,5.422a.227.227,0,0,0-.318,0L5.422,7.01a.227.227,0,0,0,0,.318L10.095,12,5.422,16.673a.227.227,0,0,0,0,.318L7.01,18.578a.227.227,0,0,0,.318,0L12,13.905l4.673,4.673a.227.227,0,0,0,.318,0l1.588-1.588a.227.227,0,0,0,0-.318Z" transform="translate(0 0)" fill="#31313a"/>
            </g>
          </g>
        </g>
      </g>
    </g>
    <path id="Path_101642" data-name="Path 101642" d="M12,0A12,12,0,1,1,0,12,12,12,0,0,1,12,0Z" transform="translate(583 29)" fill="#c6318c"/>
    <path id="Path_101644" data-name="Path 101644" d="M0,0H1V33.97H0Z" transform="translate(549.825 42) rotate(-90)" fill="#c6318c"/>
    <text id="_5" data-name="5" transform="translate(591 46)" fill="#fff" font-size="14" font-family="SegoeUI-Bold, Segoe UI" font-weight="700"><tspan x="0" y="0">5</tspan></text>
    <path id="Path_101669" data-name="Path 101669" d="M0,0H1V25H0Z" transform="translate(93 165)" fill="#c6318c"/>
    <path id="Path_101670" data-name="Path 101670" d="M12,0A12,12,0,1,1,0,12,12,12,0,0,1,12,0Z" transform="translate(105 190) rotate(90)" fill="#c6318c"/>
    <path id="Path_101671" data-name="Path 101671" d="M0,0H1V49.263H0Z" transform="translate(117.263 164.5) rotate(90)" fill="#c6318c"/>
    <path id="Path_101672" data-name="Path 101672" d="M0,0H1V3H0Z" transform="translate(117 163.5)" fill="#c6318c"/>
    <path id="Path_101673" data-name="Path 101673" d="M0,0H1V3H0Z" transform="translate(68 163.5)" fill="#c6318c"/>
    <text id="_1" data-name="1" transform="translate(89 207)" fill="#fff" font-size="14" font-family="SegoeUI-Bold, Segoe UI" font-weight="700"><tspan x="0" y="0">1</tspan></text>
    <path id="Path_101674" data-name="Path 101674" d="M12,0A12,12,0,1,1,0,12,12,12,0,0,1,12,0Z" transform="translate(20 74)" fill="#c6318c"/>
    <path id="Path_101675" data-name="Path 101675" d="M0,0H1V32.2H0Z" transform="translate(43.796 87) rotate(-90)" fill="#c6318c"/>
    <text id="_3" data-name="3" transform="translate(28 91)" fill="#fff" font-size="14" font-family="SegoeUI-Bold, Segoe UI" font-weight="700"><tspan x="0" y="0">3</tspan></text>
    <text id="Please_edit_the_statement_details_to_not_match_another_carrier_statement-2" data-name="Please edit the statement details to not match another carrier statement" transform="translate(138.6 67)" fill="#31313a" font-size="14" font-family="SegoeUI, Segoe UI"><tspan x="0" y="15">Please edit the statement details to not match another carrier </tspan><tspan x="0" y="34">statement</tspan></text>
    <path id="Path_101676" data-name="Path 101676" d="M12,0A12,12,0,1,1,0,12,12,12,0,0,1,12,0Z" transform="translate(20 39)" fill="#c6318c"/>
    <path id="Path_101677" data-name="Path 101677" d="M0,0H1V89.8H0Z" transform="translate(43.796 52) rotate(-90)" fill="#c6318c"/>
    <text id="_4" data-name="4" transform="translate(28 56)" fill="#fff" font-size="14" font-family="SegoeUI-Bold, Segoe UI" font-weight="700"><tspan x="0" y="0">4</tspan></text>
    <path id="Path_101678" data-name="Path 101678" d="M12,0A12,12,0,1,1,0,12,12,12,0,0,1,12,0Z" transform="translate(20 113)" fill="#c6318c"/>
    <path id="Path_101679" data-name="Path 101679" d="M0,0H1V89.8H0Z" transform="translate(43.796 126) rotate(-90)" fill="#c6318c"/>
    <text id="_2" data-name="2" transform="translate(28 130)" fill="#fff" font-size="14" font-family="SegoeUI-Bold, Segoe UI" font-weight="700"><tspan x="0" y="0">2</tspan></text>
    <path id="Path_101680" data-name="Path 101680" d="M12,0A12,12,0,1,1,0,12,12,12,0,0,1,12,0Z" transform="translate(583 65)" fill="#c6318c"/>
    <path id="Path_101681" data-name="Path 101681" d="M0,0H1V60.93H0Z" transform="translate(522.863 78) rotate(-90)" fill="#c6318c"/>
    <text id="_6" data-name="6" transform="translate(591 82)" fill="#fff" font-size="14" font-family="SegoeUI-Bold, Segoe UI" font-weight="700"><tspan x="0" y="0">6</tspan></text>
  </g>
</svg>
