<svg xmlns="http://www.w3.org/2000/svg" xmlns:xlink="http://www.w3.org/1999/xlink" width="491" height="78" viewBox="0 0 491 78">
  <defs>
    <clipPath id="clip-well_error">
      <rect width="491" height="78"/>
    </clipPath>
  </defs>
  <g id="well_error" clip-path="url(#clip-well_error)">
    <g id="Group_14593" data-name="Group 14593" transform="translate(-104.8 -800)">
      <g id="Group_11898" data-name="Group 11898" transform="translate(105 800)">
        <g id="Group_11892" data-name="Group 11892">
          <g id="Rectangle_3830" data-name="Rectangle 3830" transform="translate(0)" fill="#fff" stroke="#d93911" stroke-width="1">
            <rect width="490.8" height="78" rx="4" stroke="none"/>
            <rect x="0.5" y="0.5" width="489.8" height="77" rx="3.5" fill="none"/>
          </g>
          <path id="Path_101132" data-name="Path 101132" d="M2.434,11.295V15H1.285V5.2H3.979a3.555,3.555,0,0,1,2.437.766,2.734,2.734,0,0,1,.865,2.16,2.971,2.971,0,0,1-.96,2.283,3.67,3.67,0,0,1-2.594.889Zm0-5.059v4.02h1.2a2.69,2.69,0,0,0,1.815-.543,1.924,1.924,0,0,0,.625-1.535q0-1.941-2.3-1.941ZM10.1,15H8.976V4.637H10.1Zm7.9-3.22H13.05a2.618,2.618,0,0,0,.629,1.8,2.168,2.168,0,0,0,1.654.636,3.439,3.439,0,0,0,2.174-.779v1.053a4.063,4.063,0,0,1-2.44.67,2.959,2.959,0,0,1-2.331-.954,3.9,3.9,0,0,1-.848-2.683,3.828,3.828,0,0,1,.926-2.663,2.97,2.97,0,0,1,2.3-1.029,2.632,2.632,0,0,1,2.126.889,3.705,3.705,0,0,1,.752,2.468Zm-1.148-.95a2.281,2.281,0,0,0-.468-1.511,1.6,1.6,0,0,0-1.282-.54,1.811,1.811,0,0,0-1.347.567,2.575,2.575,0,0,0-.684,1.483ZM24.7,15H23.577V13.906H23.55A2.347,2.347,0,0,1,21.4,15.164a2.3,2.3,0,0,1-1.637-.554,1.918,1.918,0,0,1-.591-1.47q0-1.962,2.311-2.283l2.1-.294q0-1.784-1.442-1.784a3.446,3.446,0,0,0-2.283.861V8.492a4.338,4.338,0,0,1,2.379-.656q2.468,0,2.468,2.611Zm-1.121-3.541-1.688.232a2.741,2.741,0,0,0-1.176.386,1.114,1.114,0,0,0-.4.981,1.068,1.068,0,0,0,.366.837,1.413,1.413,0,0,0,.974.325,1.8,1.8,0,0,0,1.377-.584,2.088,2.088,0,0,0,.543-1.48Zm2.81,3.288v-1.2a3.318,3.318,0,0,0,2.017.677q1.477,0,1.477-.984a.854.854,0,0,0-.126-.475,1.26,1.26,0,0,0-.342-.345,2.631,2.631,0,0,0-.506-.27q-.291-.12-.625-.25a8.056,8.056,0,0,1-.817-.373,2.468,2.468,0,0,1-.588-.424,1.577,1.577,0,0,1-.355-.537,1.9,1.9,0,0,1-.12-.7,1.673,1.673,0,0,1,.226-.872,2,2,0,0,1,.6-.636,2.805,2.805,0,0,1,.858-.386,3.805,3.805,0,0,1,.995-.13,4.016,4.016,0,0,1,1.627.314V9.285a3.171,3.171,0,0,0-1.777-.506,2.078,2.078,0,0,0-.567.072,1.389,1.389,0,0,0-.434.2.932.932,0,0,0-.28.311.819.819,0,0,0-.1.4.959.959,0,0,0,.1.458,1.008,1.008,0,0,0,.291.328,2.221,2.221,0,0,0,.465.26q.273.116.622.253a8.658,8.658,0,0,1,.834.366,2.86,2.86,0,0,1,.629.424,1.656,1.656,0,0,1,.4.543,1.753,1.753,0,0,1,.14.731,1.725,1.725,0,0,1-.229.9,1.963,1.963,0,0,1-.612.636,2.8,2.8,0,0,1-.882.376,4.354,4.354,0,0,1-1.046.123A3.971,3.971,0,0,1,26.387,14.747Zm11.99-2.967H33.435a2.618,2.618,0,0,0,.629,1.8,2.168,2.168,0,0,0,1.654.636,3.439,3.439,0,0,0,2.174-.779v1.053a4.063,4.063,0,0,1-2.44.67,2.959,2.959,0,0,1-2.331-.954,3.9,3.9,0,0,1-.848-2.683A3.828,3.828,0,0,1,33.2,8.865a2.97,2.97,0,0,1,2.3-1.029,2.632,2.632,0,0,1,2.126.889,3.705,3.705,0,0,1,.752,2.468Zm-1.148-.95a2.281,2.281,0,0,0-.468-1.511,1.6,1.6,0,0,0-1.282-.54,1.811,1.811,0,0,0-1.347.567,2.575,2.575,0,0,0-.684,1.483Zm12.3.95H44.591a2.618,2.618,0,0,0,.629,1.8,2.168,2.168,0,0,0,1.654.636,3.439,3.439,0,0,0,2.174-.779v1.053a4.063,4.063,0,0,1-2.44.67,2.959,2.959,0,0,1-2.331-.954,3.9,3.9,0,0,1-.848-2.683,3.828,3.828,0,0,1,.926-2.663,2.97,2.97,0,0,1,2.3-1.029,2.632,2.632,0,0,1,2.126.889,3.705,3.705,0,0,1,.752,2.468Zm-1.148-.95a2.281,2.281,0,0,0-.468-1.511,1.6,1.6,0,0,0-1.282-.54,1.811,1.811,0,0,0-1.347.567A2.575,2.575,0,0,0,44.6,10.83ZM57.2,15H56.082V13.811h-.027a2.588,2.588,0,0,1-2.406,1.354,2.615,2.615,0,0,1-2.109-.94,3.856,3.856,0,0,1-.79-2.56,4.2,4.2,0,0,1,.875-2.782,2.886,2.886,0,0,1,2.331-1.046,2.244,2.244,0,0,1,2.1,1.135h.027V4.637H57.2Zm-1.121-3.165V10.8a2,2,0,0,0-.561-1.436A1.88,1.88,0,0,0,54.1,8.779a1.936,1.936,0,0,0-1.613.752,3.3,3.3,0,0,0-.588,2.078,2.964,2.964,0,0,0,.564,1.911,1.843,1.843,0,0,0,1.514.7,1.915,1.915,0,0,0,1.521-.677A2.521,2.521,0,0,0,56.082,11.835Zm3.965-5.612a.71.71,0,0,1-.513-.205.692.692,0,0,1-.212-.52.718.718,0,0,1,.725-.731.724.724,0,0,1,.523.208.73.73,0,0,1,0,1.036A.718.718,0,0,1,60.047,6.223ZM60.594,15H59.473V8h1.121Zm5.517-.068a2.161,2.161,0,0,1-1.046.219q-1.839,0-1.839-2.051V8.957h-1.2V8h1.2V6.291l1.121-.362V8H66.11v.957H64.347V12.9a1.635,1.635,0,0,0,.239,1,.955.955,0,0,0,.793.3,1.179,1.179,0,0,0,.731-.232Zm8.579,0a2.161,2.161,0,0,1-1.046.219Q71.8,15.15,71.8,13.1V8.957H70.6V8h1.2V6.291l1.121-.362V8h1.764v.957H72.926V12.9a1.635,1.635,0,0,0,.239,1,.955.955,0,0,0,.793.3,1.179,1.179,0,0,0,.731-.232ZM82,15H80.876V10.967q0-2.187-1.627-2.187a1.774,1.774,0,0,0-1.381.632,2.356,2.356,0,0,0-.561,1.624V15H76.187V4.637h1.121V9.162h.027a2.546,2.546,0,0,1,2.3-1.326Q82,7.836,82,10.687Zm7.738-3.22H84.793a2.618,2.618,0,0,0,.629,1.8,2.168,2.168,0,0,0,1.654.636,3.439,3.439,0,0,0,2.174-.779v1.053a4.063,4.063,0,0,1-2.44.67,2.959,2.959,0,0,1-2.331-.954,3.9,3.9,0,0,1-.848-2.683,3.828,3.828,0,0,1,.926-2.663,2.97,2.97,0,0,1,2.3-1.029,2.632,2.632,0,0,1,2.126.889,3.705,3.705,0,0,1,.752,2.468Zm-1.148-.95a2.281,2.281,0,0,0-.468-1.511,1.6,1.6,0,0,0-1.282-.54,1.811,1.811,0,0,0-1.347.567,2.575,2.575,0,0,0-.684,1.483Zm6.255,3.917v-1.2a3.318,3.318,0,0,0,2.017.677q1.477,0,1.477-.984a.854.854,0,0,0-.126-.475,1.26,1.26,0,0,0-.342-.345,2.631,2.631,0,0,0-.506-.27q-.291-.12-.625-.25a8.056,8.056,0,0,1-.817-.373,2.468,2.468,0,0,1-.588-.424,1.577,1.577,0,0,1-.355-.537,1.9,1.9,0,0,1-.12-.7,1.673,1.673,0,0,1,.226-.872,2,2,0,0,1,.6-.636,2.805,2.805,0,0,1,.858-.386,3.805,3.805,0,0,1,.995-.13,4.016,4.016,0,0,1,1.627.314V9.285a3.171,3.171,0,0,0-1.777-.506,2.078,2.078,0,0,0-.567.072,1.389,1.389,0,0,0-.434.2.932.932,0,0,0-.28.311.819.819,0,0,0-.1.4.959.959,0,0,0,.1.458,1.008,1.008,0,0,0,.291.328,2.221,2.221,0,0,0,.465.26q.273.116.622.253a8.657,8.657,0,0,1,.834.366,2.86,2.86,0,0,1,.629.424,1.656,1.656,0,0,1,.4.543,1.753,1.753,0,0,1,.14.731,1.725,1.725,0,0,1-.229.9,1.963,1.963,0,0,1-.612.636,2.8,2.8,0,0,1-.882.376,4.354,4.354,0,0,1-1.046.123A3.971,3.971,0,0,1,94.842,14.747Zm9.611.185a2.161,2.161,0,0,1-1.046.219q-1.839,0-1.839-2.051V8.957h-1.2V8h1.2V6.291l1.121-.362V8h1.764v.957h-1.764V12.9a1.635,1.635,0,0,0,.239,1,.955.955,0,0,0,.793.3,1.179,1.179,0,0,0,.731-.232Zm6.508.068H109.84V13.906h-.027a2.347,2.347,0,0,1-2.153,1.258,2.3,2.3,0,0,1-1.637-.554,1.918,1.918,0,0,1-.591-1.47q0-1.962,2.311-2.283l2.1-.294q0-1.784-1.442-1.784a3.446,3.446,0,0,0-2.283.861V8.492a4.338,4.338,0,0,1,2.379-.656q2.468,0,2.468,2.611Zm-1.121-3.541-1.688.232a2.741,2.741,0,0,0-1.176.386,1.114,1.114,0,0,0-.4.981,1.068,1.068,0,0,0,.366.837,1.413,1.413,0,0,0,.974.325,1.8,1.8,0,0,0,1.377-.584,2.088,2.088,0,0,0,.543-1.48Zm6.48,3.473a2.161,2.161,0,0,1-1.046.219q-1.839,0-1.839-2.051V8.957h-1.2V8h1.2V6.291l1.121-.362V8h1.764v.957h-1.764V12.9a1.635,1.635,0,0,0,.239,1,.955.955,0,0,0,.793.3,1.179,1.179,0,0,0,.731-.232Zm7.123-3.151H118.5a2.618,2.618,0,0,0,.629,1.8,2.168,2.168,0,0,0,1.654.636,3.439,3.439,0,0,0,2.174-.779v1.053a4.063,4.063,0,0,1-2.44.67,2.959,2.959,0,0,1-2.331-.954,3.9,3.9,0,0,1-.848-2.683,3.828,3.828,0,0,1,.926-2.663,2.97,2.97,0,0,1,2.3-1.029,2.632,2.632,0,0,1,2.126.889,3.705,3.705,0,0,1,.752,2.468Zm-1.148-.95a2.281,2.281,0,0,0-.468-1.511,1.6,1.6,0,0,0-1.282-.54,1.811,1.811,0,0,0-1.347.567,2.575,2.575,0,0,0-.684,1.483ZM135.078,15h-1.121V10.98A3.032,3.032,0,0,0,133.6,9.3a1.361,1.361,0,0,0-1.207-.52,1.494,1.494,0,0,0-1.22.656,2.511,2.511,0,0,0-.5,1.572V15h-1.121V10.844q0-2.064-1.593-2.064a1.475,1.475,0,0,0-1.217.619,2.557,2.557,0,0,0-.479,1.61V15h-1.121V8h1.121V9.107h.027a2.378,2.378,0,0,1,2.174-1.271,2.022,2.022,0,0,1,1.982,1.449,2.5,2.5,0,0,1,2.324-1.449q2.311,0,2.311,2.851Zm7.745-3.22h-4.942a2.618,2.618,0,0,0,.629,1.8,2.168,2.168,0,0,0,1.654.636,3.439,3.439,0,0,0,2.174-.779v1.053a4.063,4.063,0,0,1-2.44.67,2.959,2.959,0,0,1-2.331-.954,3.9,3.9,0,0,1-.848-2.683,3.828,3.828,0,0,1,.926-2.663,2.97,2.97,0,0,1,2.3-1.029,2.632,2.632,0,0,1,2.126.889,3.705,3.705,0,0,1,.752,2.468Zm-1.148-.95a2.281,2.281,0,0,0-.468-1.511,1.6,1.6,0,0,0-1.282-.54,1.811,1.811,0,0,0-1.347.567,2.575,2.575,0,0,0-.684,1.483ZM150.329,15h-1.121V11.008q0-2.229-1.627-2.229a1.765,1.765,0,0,0-1.391.632,2.344,2.344,0,0,0-.55,1.6V15h-1.121V8h1.121V9.162h.027a2.526,2.526,0,0,1,2.3-1.326,2.142,2.142,0,0,1,1.757.742,3.3,3.3,0,0,1,.608,2.143Zm5.359-.068a2.162,2.162,0,0,1-1.046.219q-1.839,0-1.839-2.051V8.957h-1.2V8h1.2V6.291l1.121-.362V8h1.764v.957h-1.764V12.9a1.635,1.635,0,0,0,.239,1,.955.955,0,0,0,.793.3,1.179,1.179,0,0,0,.731-.232ZM167,15h-1.121V13.811h-.027a2.588,2.588,0,0,1-2.406,1.354,2.615,2.615,0,0,1-2.109-.94,3.856,3.856,0,0,1-.79-2.56,4.2,4.2,0,0,1,.875-2.782,2.886,2.886,0,0,1,2.331-1.046,2.244,2.244,0,0,1,2.1,1.135h.027V4.637H167Zm-1.121-3.165V10.8a2,2,0,0,0-.561-1.436,1.88,1.88,0,0,0-1.422-.588,1.936,1.936,0,0,0-1.613.752,3.3,3.3,0,0,0-.588,2.078,2.964,2.964,0,0,0,.564,1.911,1.843,1.843,0,0,0,1.514.7,1.915,1.915,0,0,0,1.521-.677A2.521,2.521,0,0,0,165.874,11.835Zm9.017-.055h-4.942a2.618,2.618,0,0,0,.629,1.8,2.168,2.168,0,0,0,1.654.636,3.439,3.439,0,0,0,2.174-.779v1.053a4.063,4.063,0,0,1-2.44.67,2.959,2.959,0,0,1-2.331-.954,3.9,3.9,0,0,1-.848-2.683,3.828,3.828,0,0,1,.926-2.663,2.97,2.97,0,0,1,2.3-1.029,2.632,2.632,0,0,1,2.126.889,3.705,3.705,0,0,1,.752,2.468Zm-1.148-.95a2.281,2.281,0,0,0-.468-1.511,1.6,1.6,0,0,0-1.282-.54,1.811,1.811,0,0,0-1.347.567,2.575,2.575,0,0,0-.684,1.483Zm6.091,4.1a2.162,2.162,0,0,1-1.046.219q-1.839,0-1.839-2.051V8.957h-1.2V8h1.2V6.291l1.121-.362V8h1.764v.957h-1.764V12.9a1.635,1.635,0,0,0,.239,1,.955.955,0,0,0,.793.3,1.179,1.179,0,0,0,.731-.232Zm6.508.068H185.22V13.906h-.027a2.347,2.347,0,0,1-2.153,1.258,2.3,2.3,0,0,1-1.637-.554,1.918,1.918,0,0,1-.591-1.47q0-1.962,2.311-2.283l2.1-.294q0-1.784-1.442-1.784a3.446,3.446,0,0,0-2.283.861V8.492a4.338,4.338,0,0,1,2.379-.656q2.468,0,2.468,2.611Zm-1.121-3.541-1.688.232a2.741,2.741,0,0,0-1.176.386,1.114,1.114,0,0,0-.4.981,1.068,1.068,0,0,0,.366.837,1.413,1.413,0,0,0,.974.325,1.8,1.8,0,0,0,1.377-.584,2.088,2.088,0,0,0,.543-1.48Zm3.808-5.236a.71.71,0,0,1-.513-.205.692.692,0,0,1-.212-.52.718.718,0,0,1,.725-.731.724.724,0,0,1,.523.208.73.73,0,0,1,0,1.036A.718.718,0,0,1,189.027,6.223ZM189.574,15h-1.121V8h1.121Zm3.391,0h-1.121V4.637h1.121Zm1.846-.253v-1.2a3.318,3.318,0,0,0,2.017.677q1.477,0,1.477-.984a.854.854,0,0,0-.126-.475,1.26,1.26,0,0,0-.342-.345,2.631,2.631,0,0,0-.506-.27q-.291-.12-.625-.25a8.056,8.056,0,0,1-.817-.373,2.468,2.468,0,0,1-.588-.424,1.577,1.577,0,0,1-.355-.537,1.9,1.9,0,0,1-.12-.7,1.673,1.673,0,0,1,.226-.872,2,2,0,0,1,.6-.636,2.805,2.805,0,0,1,.858-.386,3.805,3.805,0,0,1,.995-.13,4.016,4.016,0,0,1,1.627.314V9.285a3.171,3.171,0,0,0-1.777-.506,2.078,2.078,0,0,0-.567.072,1.389,1.389,0,0,0-.434.2.932.932,0,0,0-.28.311.819.819,0,0,0-.1.4.959.959,0,0,0,.1.458,1.008,1.008,0,0,0,.291.328,2.221,2.221,0,0,0,.465.26q.273.116.622.253a8.658,8.658,0,0,1,.834.366,2.86,2.86,0,0,1,.629.424,1.656,1.656,0,0,1,.4.543,1.753,1.753,0,0,1,.14.731,1.725,1.725,0,0,1-.229.9,1.963,1.963,0,0,1-.612.636,2.8,2.8,0,0,1-.882.376,4.354,4.354,0,0,1-1.046.123A3.971,3.971,0,0,1,194.811,14.747Zm13.446.185a2.162,2.162,0,0,1-1.046.219q-1.839,0-1.839-2.051V8.957h-1.2V8h1.2V6.291l1.121-.362V8h1.764v.957h-1.764V12.9a1.635,1.635,0,0,0,.239,1,.955.955,0,0,0,.793.3,1.179,1.179,0,0,0,.731-.232Zm4.423.232a3.247,3.247,0,0,1-2.478-.981,3.634,3.634,0,0,1-.926-2.6,3.785,3.785,0,0,1,.964-2.755,3.465,3.465,0,0,1,2.6-.991,3.14,3.14,0,0,1,2.444.964,3.822,3.822,0,0,1,.878,2.673,3.761,3.761,0,0,1-.947,2.683A3.317,3.317,0,0,1,212.68,15.164Zm.082-6.385a2.132,2.132,0,0,0-1.709.735,3.018,3.018,0,0,0-.629,2.027,2.854,2.854,0,0,0,.636,1.962,2.161,2.161,0,0,0,1.7.718,2.049,2.049,0,0,0,1.671-.7,3.055,3.055,0,0,0,.584-2,3.108,3.108,0,0,0-.584-2.023A2.04,2.04,0,0,0,212.762,8.779ZM227.6,15h-1.121V11.008q0-2.229-1.627-2.229a1.765,1.765,0,0,0-1.391.632,2.344,2.344,0,0,0-.55,1.6V15h-1.121V8h1.121V9.162h.027a2.526,2.526,0,0,1,2.3-1.326,2.142,2.142,0,0,1,1.757.742,3.3,3.3,0,0,1,.608,2.143Zm5.038.164a3.247,3.247,0,0,1-2.478-.981,3.634,3.634,0,0,1-.926-2.6,3.785,3.785,0,0,1,.964-2.755,3.465,3.465,0,0,1,2.6-.991,3.14,3.14,0,0,1,2.444.964,3.822,3.822,0,0,1,.878,2.673,3.761,3.761,0,0,1-.947,2.683A3.317,3.317,0,0,1,232.641,15.164Zm.082-6.385a2.132,2.132,0,0,0-1.709.735,3.018,3.018,0,0,0-.629,2.027,2.854,2.854,0,0,0,.636,1.962,2.161,2.161,0,0,0,1.7.718,2.049,2.049,0,0,0,1.671-.7,3.055,3.055,0,0,0,.584-2,3.108,3.108,0,0,0-.584-2.023A2.04,2.04,0,0,0,232.723,8.779Zm8.442,6.152a2.162,2.162,0,0,1-1.046.219q-1.839,0-1.839-2.051V8.957h-1.2V8h1.2V6.291l1.121-.362V8h1.764v.957H239.4V12.9a1.635,1.635,0,0,0,.239,1,.955.955,0,0,0,.793.3,1.179,1.179,0,0,0,.731-.232ZM256.437,15h-1.121V10.98a3.032,3.032,0,0,0-.359-1.682,1.361,1.361,0,0,0-1.207-.52,1.494,1.494,0,0,0-1.22.656,2.511,2.511,0,0,0-.5,1.572V15h-1.121V10.844q0-2.064-1.593-2.064A1.475,1.475,0,0,0,248.1,9.4a2.557,2.557,0,0,0-.479,1.61V15H246.5V8h1.121V9.107h.027a2.378,2.378,0,0,1,2.174-1.271A2.022,2.022,0,0,1,251.8,9.285a2.5,2.5,0,0,1,2.324-1.449q2.311,0,2.311,2.851Zm7.13,0h-1.121V13.906h-.027a2.347,2.347,0,0,1-2.153,1.258,2.3,2.3,0,0,1-1.637-.554,1.918,1.918,0,0,1-.591-1.47q0-1.962,2.311-2.283l2.1-.294q0-1.784-1.442-1.784a3.446,3.446,0,0,0-2.283.861V8.492a4.338,4.338,0,0,1,2.379-.656q2.468,0,2.468,2.611Zm-1.121-3.541-1.688.232a2.741,2.741,0,0,0-1.176.386,1.114,1.114,0,0,0-.4.981,1.068,1.068,0,0,0,.366.837,1.413,1.413,0,0,0,.974.325,1.8,1.8,0,0,0,1.377-.584,2.088,2.088,0,0,0,.543-1.48Zm6.48,3.473a2.161,2.161,0,0,1-1.046.219q-1.839,0-1.839-2.051V8.957h-1.2V8h1.2V6.291l1.121-.362V8h1.764v.957h-1.764V12.9a1.635,1.635,0,0,0,.239,1,.955.955,0,0,0,.793.3,1.179,1.179,0,0,0,.731-.232Zm6.269-.253a3.643,3.643,0,0,1-1.914.485,3.169,3.169,0,0,1-2.417-.974,3.53,3.53,0,0,1-.919-2.526,3.881,3.881,0,0,1,.991-2.779,3.467,3.467,0,0,1,2.646-1.049,3.682,3.682,0,0,1,1.627.342V9.326a2.85,2.85,0,0,0-1.668-.547,2.254,2.254,0,0,0-1.76.769,2.918,2.918,0,0,0-.687,2.02,2.779,2.779,0,0,0,.646,1.941,2.227,2.227,0,0,0,1.733.711,2.81,2.81,0,0,0,1.723-.608ZM282.7,15h-1.121V10.967q0-2.187-1.627-2.187a1.774,1.774,0,0,0-1.381.632,2.356,2.356,0,0,0-.561,1.624V15H276.89V4.637h1.121V9.162h.027a2.546,2.546,0,0,1,2.3-1.326q2.365,0,2.365,2.851Zm10.958,0h-1.121V13.906h-.027a2.347,2.347,0,0,1-2.153,1.258,2.3,2.3,0,0,1-1.637-.554,1.918,1.918,0,0,1-.591-1.47q0-1.962,2.311-2.283l2.1-.294q0-1.784-1.442-1.784a3.446,3.446,0,0,0-2.283.861V8.492a4.338,4.338,0,0,1,2.379-.656q2.468,0,2.468,2.611Zm-1.121-3.541-1.688.232a2.741,2.741,0,0,0-1.176.386,1.114,1.114,0,0,0-.4.981,1.068,1.068,0,0,0,.366.837,1.413,1.413,0,0,0,.974.325,1.8,1.8,0,0,0,1.377-.584,2.088,2.088,0,0,0,.543-1.48ZM301.581,15H300.46V11.008q0-2.229-1.627-2.229a1.765,1.765,0,0,0-1.391.632,2.344,2.344,0,0,0-.55,1.6V15h-1.121V8h1.121V9.162h.027a2.526,2.526,0,0,1,2.3-1.326,2.142,2.142,0,0,1,1.757.742,3.3,3.3,0,0,1,.608,2.143Zm5.038.164a3.247,3.247,0,0,1-2.478-.981,3.633,3.633,0,0,1-.926-2.6,3.785,3.785,0,0,1,.964-2.755,3.465,3.465,0,0,1,2.6-.991,3.14,3.14,0,0,1,2.444.964,3.822,3.822,0,0,1,.878,2.673,3.761,3.761,0,0,1-.947,2.683A3.317,3.317,0,0,1,306.619,15.164Zm.082-6.385a2.132,2.132,0,0,0-1.709.735,3.018,3.018,0,0,0-.629,2.027A2.854,2.854,0,0,0,305,13.5a2.161,2.161,0,0,0,1.7.718,2.049,2.049,0,0,0,1.671-.7,3.055,3.055,0,0,0,.584-2,3.108,3.108,0,0,0-.584-2.023A2.04,2.04,0,0,0,306.7,8.779Zm8.442,6.152a2.161,2.161,0,0,1-1.046.219q-1.839,0-1.839-2.051V8.957h-1.2V8h1.2V6.291l1.121-.362V8h1.764v.957H313.38V12.9a1.635,1.635,0,0,0,.239,1,.955.955,0,0,0,.793.3,1.179,1.179,0,0,0,.731-.232Zm7.308.068H321.33V10.967q0-2.187-1.627-2.187a1.774,1.774,0,0,0-1.381.632,2.356,2.356,0,0,0-.561,1.624V15h-1.121V4.637h1.121V9.162h.027a2.546,2.546,0,0,1,2.3-1.326q2.365,0,2.365,2.851Zm7.738-3.22h-4.942a2.618,2.618,0,0,0,.629,1.8,2.168,2.168,0,0,0,1.654.636,3.439,3.439,0,0,0,2.174-.779v1.053a4.063,4.063,0,0,1-2.44.67,2.959,2.959,0,0,1-2.331-.954,3.9,3.9,0,0,1-.848-2.683,3.828,3.828,0,0,1,.926-2.663,2.97,2.97,0,0,1,2.3-1.029,2.632,2.632,0,0,1,2.126.889,3.705,3.705,0,0,1,.752,2.468Zm-1.148-.95a2.281,2.281,0,0,0-.468-1.511,1.6,1.6,0,0,0-1.282-.54,1.811,1.811,0,0,0-1.347.567,2.575,2.575,0,0,0-.684,1.483Zm6.494-1.7a1.371,1.371,0,0,0-.848-.226,1.431,1.431,0,0,0-1.2.677,3.129,3.129,0,0,0-.482,1.846V15h-1.121V8h1.121V9.442h.027a2.444,2.444,0,0,1,.731-1.152,1.668,1.668,0,0,1,1.1-.414,1.83,1.83,0,0,1,.67.1Zm9.823,5.544a3.643,3.643,0,0,1-1.914.485,3.169,3.169,0,0,1-2.417-.974,3.53,3.53,0,0,1-.919-2.526,3.881,3.881,0,0,1,.991-2.779,3.467,3.467,0,0,1,2.646-1.049,3.682,3.682,0,0,1,1.627.342V9.326a2.85,2.85,0,0,0-1.668-.547,2.254,2.254,0,0,0-1.76.769,2.918,2.918,0,0,0-.687,2.02,2.779,2.779,0,0,0,.646,1.941,2.227,2.227,0,0,0,1.733.711,2.81,2.81,0,0,0,1.723-.608Zm6.706.321h-1.121V13.906h-.027a2.347,2.347,0,0,1-2.153,1.258,2.3,2.3,0,0,1-1.637-.554,1.918,1.918,0,0,1-.591-1.47q0-1.962,2.311-2.283l2.1-.294q0-1.784-1.442-1.784a3.446,3.446,0,0,0-2.283.861V8.492a4.338,4.338,0,0,1,2.379-.656q2.468,0,2.468,2.611Zm-1.121-3.541-1.688.232a2.741,2.741,0,0,0-1.176.386,1.114,1.114,0,0,0-.4.981,1.068,1.068,0,0,0,.366.837,1.413,1.413,0,0,0,.974.325,1.8,1.8,0,0,0,1.377-.584,2.088,2.088,0,0,0,.543-1.48Zm6.884-2.324a1.371,1.371,0,0,0-.848-.226,1.431,1.431,0,0,0-1.2.677,3.129,3.129,0,0,0-.482,1.846V15h-1.121V8H355.3V9.442h.027a2.444,2.444,0,0,1,.731-1.152,1.668,1.668,0,0,1,1.1-.414,1.83,1.83,0,0,1,.67.1Zm4.867,0a1.371,1.371,0,0,0-.848-.226,1.431,1.431,0,0,0-1.2.677,3.129,3.129,0,0,0-.482,1.846V15h-1.121V8h1.121V9.442h.027a2.444,2.444,0,0,1,.731-1.152,1.668,1.668,0,0,1,1.1-.414,1.83,1.83,0,0,1,.67.1Zm1.791-2.912a.71.71,0,0,1-.513-.205.692.692,0,0,1-.212-.52.718.718,0,0,1,.725-.731.724.724,0,0,1,.523.208.73.73,0,0,1,0,1.036A.718.718,0,0,1,364.485,6.223ZM365.032,15h-1.121V8h1.121Zm7.9-3.22h-4.942a2.618,2.618,0,0,0,.629,1.8,2.168,2.168,0,0,0,1.654.636,3.439,3.439,0,0,0,2.174-.779v1.053a4.063,4.063,0,0,1-2.44.67,2.959,2.959,0,0,1-2.331-.954,3.9,3.9,0,0,1-.848-2.683,3.828,3.828,0,0,1,.926-2.663,2.97,2.97,0,0,1,2.3-1.029,2.632,2.632,0,0,1,2.126.889,3.705,3.705,0,0,1,.752,2.468Zm-1.148-.95a2.281,2.281,0,0,0-.468-1.511,1.6,1.6,0,0,0-1.282-.54,1.811,1.811,0,0,0-1.347.567A2.575,2.575,0,0,0,368,10.83Zm6.494-1.7a1.371,1.371,0,0,0-.848-.226,1.431,1.431,0,0,0-1.2.677,3.129,3.129,0,0,0-.482,1.846V15h-1.121V8h1.121V9.442h.027a2.444,2.444,0,0,1,.731-1.152,1.668,1.668,0,0,1,1.1-.414,1.83,1.83,0,0,1,.67.1ZM.711,33.747v-1.2a3.318,3.318,0,0,0,2.017.677q1.477,0,1.477-.984a.854.854,0,0,0-.126-.475,1.26,1.26,0,0,0-.342-.345,2.631,2.631,0,0,0-.506-.27q-.291-.12-.625-.25a8.056,8.056,0,0,1-.817-.373A2.468,2.468,0,0,1,1.2,30.1a1.577,1.577,0,0,1-.355-.537,1.9,1.9,0,0,1-.12-.7,1.673,1.673,0,0,1,.226-.872,2,2,0,0,1,.6-.636,2.805,2.805,0,0,1,.858-.386,3.805,3.805,0,0,1,.995-.13,4.016,4.016,0,0,1,1.627.314v1.135a3.171,3.171,0,0,0-1.777-.506,2.078,2.078,0,0,0-.567.072,1.389,1.389,0,0,0-.434.2.932.932,0,0,0-.28.311.819.819,0,0,0-.1.4.959.959,0,0,0,.1.458,1.008,1.008,0,0,0,.291.328,2.221,2.221,0,0,0,.465.26q.273.116.622.253a8.658,8.658,0,0,1,.834.366,2.86,2.86,0,0,1,.629.424,1.656,1.656,0,0,1,.4.543,1.753,1.753,0,0,1,.14.731,1.725,1.725,0,0,1-.229.9,1.963,1.963,0,0,1-.612.636,2.8,2.8,0,0,1-.882.376,4.354,4.354,0,0,1-1.046.123A3.971,3.971,0,0,1,.711,33.747Zm9.611.185a2.162,2.162,0,0,1-1.046.219q-1.839,0-1.839-2.051V27.957h-1.2V27h1.2V25.291l1.121-.362V27h1.764v.957H8.559V31.9a1.635,1.635,0,0,0,.239,1,.955.955,0,0,0,.793.3,1.179,1.179,0,0,0,.731-.232ZM16.83,34H15.709V32.906h-.027a2.347,2.347,0,0,1-2.153,1.258,2.3,2.3,0,0,1-1.637-.554,1.918,1.918,0,0,1-.591-1.47q0-1.962,2.311-2.283l2.1-.294q0-1.784-1.442-1.784a3.446,3.446,0,0,0-2.283.861V27.492a4.338,4.338,0,0,1,2.379-.656q2.468,0,2.468,2.611Zm-1.121-3.541-1.688.232a2.741,2.741,0,0,0-1.176.386,1.114,1.114,0,0,0-.4.981,1.068,1.068,0,0,0,.366.837,1.413,1.413,0,0,0,.974.325,1.8,1.8,0,0,0,1.377-.584,2.088,2.088,0,0,0,.543-1.48Zm6.48,3.473a2.161,2.161,0,0,1-1.046.219Q19.3,34.15,19.3,32.1V27.957H18.1V27h1.2V25.291l1.121-.362V27h1.764v.957H20.426V31.9a1.635,1.635,0,0,0,.239,1,.955.955,0,0,0,.793.3,1.179,1.179,0,0,0,.731-.232Zm7.123-3.151H24.37a2.618,2.618,0,0,0,.629,1.8,2.168,2.168,0,0,0,1.654.636,3.439,3.439,0,0,0,2.174-.779v1.053a4.063,4.063,0,0,1-2.44.67,2.959,2.959,0,0,1-2.331-.954,3.9,3.9,0,0,1-.848-2.683,3.828,3.828,0,0,1,.926-2.663,2.97,2.97,0,0,1,2.3-1.029,2.632,2.632,0,0,1,2.126.889,3.705,3.705,0,0,1,.752,2.468Zm-1.148-.95a2.281,2.281,0,0,0-.468-1.511,1.6,1.6,0,0,0-1.282-.54,1.811,1.811,0,0,0-1.347.567,2.575,2.575,0,0,0-.684,1.483ZM40.947,34H39.826V29.98a3.032,3.032,0,0,0-.359-1.682,1.361,1.361,0,0,0-1.207-.52,1.494,1.494,0,0,0-1.22.656,2.511,2.511,0,0,0-.5,1.572V34H35.417V29.844q0-2.064-1.593-2.064a1.475,1.475,0,0,0-1.217.619,2.557,2.557,0,0,0-.479,1.61V34H31.008V27h1.121v1.107h.027a2.378,2.378,0,0,1,2.174-1.271,2.022,2.022,0,0,1,1.982,1.449,2.5,2.5,0,0,1,2.324-1.449q2.311,0,2.311,2.851Zm7.745-3.22H43.75a2.618,2.618,0,0,0,.629,1.8,2.168,2.168,0,0,0,1.654.636,3.439,3.439,0,0,0,2.174-.779v1.053a4.063,4.063,0,0,1-2.44.67,2.959,2.959,0,0,1-2.331-.954,3.9,3.9,0,0,1-.848-2.683,3.828,3.828,0,0,1,.926-2.663,2.97,2.97,0,0,1,2.3-1.029,2.632,2.632,0,0,1,2.126.889,3.705,3.705,0,0,1,.752,2.468Zm-1.148-.95a2.281,2.281,0,0,0-.468-1.511,1.6,1.6,0,0,0-1.282-.54,1.811,1.811,0,0,0-1.347.567,2.575,2.575,0,0,0-.684,1.483ZM56.2,34H55.077V30.008q0-2.229-1.627-2.229a1.765,1.765,0,0,0-1.391.632,2.344,2.344,0,0,0-.55,1.6V34H50.388V27h1.121v1.162h.027a2.526,2.526,0,0,1,2.3-1.326,2.142,2.142,0,0,1,1.757.742,3.3,3.3,0,0,1,.608,2.143Zm5.359-.068a2.162,2.162,0,0,1-1.046.219q-1.839,0-1.839-2.051V27.957h-1.2V27h1.2V25.291l1.121-.362V27h1.764v.957H59.794V31.9a1.635,1.635,0,0,0,.239,1,.955.955,0,0,0,.793.3,1.179,1.179,0,0,0,.731-.232Zm1.887.219a.726.726,0,0,1-.537-.226.742.742,0,0,1-.222-.54.754.754,0,0,1,.222-.543.72.72,0,0,1,.537-.229.739.739,0,0,1,.547.229.748.748,0,0,1,.226.543.737.737,0,0,1-.226.54A.745.745,0,0,1,63.444,34.15Z" transform="translate(69.8 20)" fill="#31313a"/>
          <path id="Rectangle_5239" data-name="Rectangle 5239" d="M4,0H50a0,0,0,0,1,0,0V78a0,0,0,0,1,0,0H4a4,4,0,0,1-4-4V4A4,4,0,0,1,4,0Z" transform="translate(-0.2)" fill="#d93911"/>
          <g id="Group_12689" data-name="Group 12689" transform="translate(-42.2 -25)">
            <path id="Path_8227" data-name="Path 8227" d="M23.889,20.441,13.061.6a1.217,1.217,0,0,0-2.1,0L.13,20.441a1.02,1.02,0,0,0,.421,1.382,1,1,0,0,0,.451.12H23.018a1.021,1.021,0,0,0,.871-1.5ZM11.049,7.51h1.8a.285.285,0,0,1,.3.269v.032l-.6,7.209a.3.3,0,0,1-.3.3h-.6a.3.3,0,0,1-.3-.3l-.6-7.209a.285.285,0,0,1,.269-.3ZM13.181,17.8a1.231,1.231,0,0,1-1.231,1.216h-.18a1.2,1.2,0,0,1-.991-.871,1.23,1.23,0,0,1,.931-1.472,1.169,1.169,0,0,1,.24-.03h.06a1.231,1.231,0,0,1,1.216,1.216Z" transform="translate(54.99 53.003)" fill="#fff"/>
            <rect id="Rectangle_6378" data-name="Rectangle 6378" width="24" height="24" transform="translate(55 52)" fill="none"/>
          </g>
        </g>
      </g>
    </g>
  </g>
</svg>
