<svg xmlns="http://www.w3.org/2000/svg" xmlns:xlink="http://www.w3.org/1999/xlink" width="490" height="78" viewBox="0 0 490 78">
  <defs>
    <clipPath id="clip-well_success">
      <rect width="490" height="78"/>
    </clipPath>
  </defs>
  <g id="well_success" clip-path="url(#clip-well_success)">
    <g id="Group_14594" data-name="Group 14594" transform="translate(-104.8 -800)">
      <g id="Group_11898" data-name="Group 11898" transform="translate(105 800)">
        <g id="Group_11892" data-name="Group 11892" transform="translate(-0.2)">
          <g id="Rectangle_3830" data-name="Rectangle 3830" transform="translate(0.2)" fill="#fff" stroke="#5fb53b" stroke-width="1">
            <rect width="489.8" height="78" rx="4" stroke="none"/>
            <rect x="0.5" y="0.5" width="488.8" height="77" rx="3.5" fill="none"/>
          </g>
          <text id="Well_done_You_ve_successfully_submitted_your_enrollment_forms." data-name="Well done! You&apos;ve successfully submitted your enrollment forms." transform="translate(70 20)" fill="#31313a" font-size="14" font-family="OpenSans, Open Sans"><tspan x="0" y="15">Well done! You&apos;ve successfully submitted your enrollment </tspan><tspan x="0" y="34">forms.</tspan></text>
          <path id="Rectangle_5239" data-name="Rectangle 5239" d="M4,0H50a0,0,0,0,1,0,0V78a0,0,0,0,1,0,0H4a4,4,0,0,1-4-4V4A4,4,0,0,1,4,0Z" fill="#5fb53b"/>
          <path id="Success_icon" data-name="Success icon" d="M12,24A12,12,0,0,1,3.515,3.515,12,12,0,0,1,20.486,20.485,11.921,11.921,0,0,1,12,24ZM6.563,11.6a.2.2,0,0,0-.143.06L5.275,12.808a.2.2,0,0,0-.059.144.2.2,0,0,0,.059.142l4.2,4.2a.2.2,0,0,0,.286,0l8.753-8.753a.2.2,0,0,0,0-.286L17.37,7.111a.2.2,0,0,0-.286,0L9.619,14.576,6.706,11.663A.2.2,0,0,0,6.563,11.6Z" transform="translate(13 27)" fill="#fff"/>
        </g>
      </g>
    </g>
  </g>
</svg>
