<svg xmlns="http://www.w3.org/2000/svg" xmlns:xlink="http://www.w3.org/1999/xlink" width="590" height="256" viewBox="0 0 590 256">
  <defs>
    <clipPath id="clip-path">
      <rect width="590" height="256" fill="none"/>
    </clipPath>
    <filter id="Rectangle_6368" x="0" y="0" width="590" height="258" filterUnits="userSpaceOnUse">
      <feOffset dy="15" input="SourceAlpha"/>
      <feGaussianBlur stdDeviation="15" result="blur"/>
      <feFlood flood-opacity="0.02"/>
      <feComposite operator="in" in2="blur"/>
      <feComposite in="SourceGraphic"/>
    </filter>
    <filter id="Rectangle_6365" x="40.5" y="26.5" width="509" height="177" filterUnits="userSpaceOnUse">
      <feOffset dy="1" input="SourceAlpha"/>
      <feGaussianBlur stdDeviation="1.5" result="blur-2"/>
      <feFlood flood-color="#c7590a" flood-opacity="0.161"/>
      <feComposite operator="in" in2="blur-2"/>
      <feComposite in="SourceGraphic"/>
    </filter>
  </defs>
  <g id="Component_104_2" data-name="Component 104 – 2" clip-path="url(#clip-path)">
    <g transform="matrix(1, 0, 0, 1, 0, 0)" filter="url(#Rectangle_6368)">
      <rect id="Rectangle_6368-2" data-name="Rectangle 6368" width="500" height="168" rx="4" transform="translate(45 30)" fill="none"/>
    </g>
    <g transform="matrix(1, 0, 0, 1, 0, 0)" filter="url(#Rectangle_6365)">
      <rect id="Rectangle_6365-2" data-name="Rectangle 6365" width="500" height="168" rx="4" transform="translate(45 30)" fill="#fff"/>
    </g>
    <path id="Rectangle_6366" data-name="Rectangle 6366" d="M4,0H496a4,4,0,0,1,4,4v6a0,0,0,0,1,0,0H0a0,0,0,0,1,0,0V4A4,4,0,0,1,4,0Z" transform="translate(45 30)" fill="#f58d42"/>
    <text id="Unsupported_browser" data-name="Unsupported browser" transform="translate(99 53)" fill="#31313a" font-size="16" font-family="SegoeUI-Semibold, Segoe UI" font-weight="600"><tspan x="0" y="17">Unsupported browser</tspan></text>
    <text id="BrokerageBuilder_probably_won_t_work_great_in_Internet_Explorer_11._For_the_best_user_experience_please_use_a_recent_version_of_major_browsers_like_Chrome_Firefox_and_Edge._Proceed_at_your_own_risk_" data-name="BrokerageBuilder probably won&apos;t work great in Internet Explorer 11. For the best user experience, please use a recent version of major browsers like Chrome, Firefox, and Edge.

Proceed at your own risk!" transform="translate(99 79)" fill="#31313a" font-size="14" font-family="SegoeUI, Segoe UI"><tspan x="0" y="15">BrokerageBuilder probably won&apos;t work great in Internet </tspan><tspan x="0" y="37.4">Explorer 11. For the best user experience, please use a recent </tspan><tspan x="0" y="59.8">version of major browsers like Chrome, Firefox, and Edge.</tspan><tspan x="0" y="82.2"></tspan><tspan x="0" y="104.6">Proceed at your own risk!</tspan></text>
    <g id="Remove" transform="translate(511 50)">
      <g id="Group_11940" data-name="Group 11940">
        <rect id="Rectangle_5239" data-name="Rectangle 5239" width="24" height="24" fill="none"/>
        <path id="Path_6644" data-name="Path 6644" d="M13.905,12l4.673-4.673a.227.227,0,0,0,0-.318L16.99,5.422a.227.227,0,0,0-.318,0L12,10.095,7.327,5.422a.227.227,0,0,0-.318,0L5.422,7.01a.227.227,0,0,0,0,.318L10.095,12,5.422,16.673a.227.227,0,0,0,0,.318L7.01,18.578a.227.227,0,0,0,.318,0L12,13.905l4.673,4.673a.227.227,0,0,0,.318,0l1.588-1.588a.227.227,0,0,0,0-.318Z" transform="translate(0 0)" fill="#31313a"/>
      </g>
    </g>
    <g id="Group_12689" data-name="Group 12689" transform="translate(0 -2)">
      <path id="Path_8227" data-name="Path 8227" d="M23.889,20.441,13.061.6a1.217,1.217,0,0,0-2.1,0L.13,20.441a1.02,1.02,0,0,0,.421,1.382,1,1,0,0,0,.451.12H23.018a1.021,1.021,0,0,0,.871-1.5ZM11.049,7.51h1.8a.285.285,0,0,1,.3.269v.032l-.6,7.209a.3.3,0,0,1-.3.3h-.6a.3.3,0,0,1-.3-.3l-.6-7.209a.285.285,0,0,1,.269-.3ZM13.181,17.8a1.231,1.231,0,0,1-1.231,1.216h-.18a1.2,1.2,0,0,1-.991-.871,1.23,1.23,0,0,1,.931-1.472,1.169,1.169,0,0,1,.24-.03h.06a1.231,1.231,0,0,1,1.216,1.216Z" transform="translate(54.99 53.003)" fill="#f58d42"/>
      <rect id="Rectangle_6378" data-name="Rectangle 6378" width="24" height="24" transform="translate(55 52)" fill="none"/>
    </g>
  </g>
</svg>
