<svg xmlns="http://www.w3.org/2000/svg" xmlns:xlink="http://www.w3.org/1999/xlink" width="900" height="81" viewBox="0 0 900 81">
  <defs>
    <clipPath id="clip-Breadcrumb_truncated_title">
      <rect width="900" height="81"/>
    </clipPath>
  </defs>
  <g id="Breadcrumb_truncated_title" data-name="Breadcrumb truncated title" clip-path="url(#clip-Breadcrumb_truncated_title)">
    <rect width="900" height="81" fill="#f4f4f6"/>
    <g id="Breadcrumbs_4" data-name="Breadcrumbs – 4" transform="translate(30 31)">
      <g id="Symbol_152_2" data-name="Symbol 152 – 2" transform="translate(-58 -110)">
        <text id="Breadcrumb_titles_will_truncat..." data-name="Breadcrumb titles will truncat..." transform="translate(74 125)" fill="#2777d3" font-size="14" font-family="SegoeUI, Segoe UI"><tspan x="0" y="0">Breadcrumb titles will truncat...</tspan></text>
        <g id="Group_8413" data-name="Group 8413" transform="translate(10 4)">
          <rect id="Rectangle_3875" data-name="Rectangle 3875" width="16" height="16" transform="translate(64 108) rotate(90)" fill="none"/>
          <path id="Path_5567" data-name="Path 5567" d="M382.3,13.533l-4.2-4.2,4.2-4.2a.644.644,0,0,0,0-.933h0a.644.644,0,0,0-.933,0l-4.2,4.2-.467.467a.644.644,0,0,0,0,.933l.467.467,4.2,4.2a.644.644,0,0,0,.933,0h0A.643.643,0,0,0,382.3,13.533Z" transform="translate(-323.5 106.667)" fill="#2777d3"/>
        </g>
      </g>
      <g id="Symbol_150" data-name="Symbol 150" transform="translate(151 -110)">
        <text id="Breadcrumb_2" data-name="Breadcrumb #2" transform="translate(74 125)" fill="#2777d3" font-size="14" font-family="SegoeUI, Segoe UI"><tspan x="0" y="0">Breadcrumb #2</tspan></text>
        <g id="Group_8413-2" data-name="Group 8413" transform="translate(10 4)">
          <rect id="Rectangle_3875-2" data-name="Rectangle 3875" width="16" height="16" transform="translate(64 108) rotate(90)" fill="none"/>
          <path id="Path_5567-2" data-name="Path 5567" d="M382.3,13.533l-4.2-4.2,4.2-4.2a.644.644,0,0,0,0-.933h0a.644.644,0,0,0-.933,0l-4.2,4.2-.467.467a.644.644,0,0,0,0,.933l.467.467,4.2,4.2a.644.644,0,0,0,.933,0h0A.643.643,0,0,0,382.3,13.533Z" transform="translate(-323.5 106.667)" fill="#2777d3"/>
        </g>
      </g>
      <g id="Symbol_151" data-name="Symbol 151" transform="translate(266 -110)">
        <g id="Group_8413-3" data-name="Group 8413" transform="translate(10 4)">
          <rect id="Rectangle_3875-3" data-name="Rectangle 3875" width="16" height="16" transform="translate(64 108) rotate(90)" fill="none"/>
          <path id="Path_5567-3" data-name="Path 5567" d="M382.3,13.533l-4.2-4.2,4.2-4.2a.644.644,0,0,0,0-.933h0a.644.644,0,0,0-.933,0l-4.2,4.2-.467.467a.644.644,0,0,0,0,.933l.467.467,4.2,4.2a.644.644,0,0,0,.933,0h0A.643.643,0,0,0,382.3,13.533Z" transform="translate(-323.5 106.667)" fill="#9494a4"/>
        </g>
        <text id="Page_title" data-name="Page title" transform="translate(74 125)" fill="#9494a4" font-size="14" font-family="SegoeUI, Segoe UI"><tspan x="0" y="0">Page title</tspan></text>
      </g>
    </g>
  </g>
</svg>
