<svg xmlns="http://www.w3.org/2000/svg" xmlns:xlink="http://www.w3.org/1999/xlink" viewBox="0 0 564 268">
  <defs>
    <style>
      .cls-1 {
        clip-path: url(#clip-tag_specs);
      }

      .cls-2 {
        fill: #fff;
      }

      .cls-3 {
        fill: #3d3d3d;
      }

      .cls-4 {
        fill: none;
      }

      .cls-5 {
        fill: #7a7a7a;
      }

      .cls-6 {
        fill: #eaeaea;
      }

      .cls-7 {
        fill: #5b5b5b;
        font-size: 14px;
        font-family: OpenSans, Open Sans;
      }

      .cls-8 {
        fill: #b2b2b2;
      }

      .cls-10, .cls-9 {
        stroke: none;
      }

      .cls-10 {
        fill: #dbdbdb;
      }
    </style>
    <clipPath id="clip-tag_specs">
      <rect width="564" height="268"/>
    </clipPath>
  </defs>
  <g id="tag_specs" class="cls-1">
    <g id="Path_6906" data-name="Path 6906" class="cls-2" transform="translate(132 109)">
      <path class="cls-9" d="M 296 70.5 L 4 70.5 C 2.070076942443848 70.5 0.5 68.92992401123047 0.5 67 L 0.5 4 C 0.5 2.070076942443848 2.070076942443848 0.5 4 0.5 L 296 0.5 C 297.929931640625 0.5 299.5 2.070076942443848 299.5 4 L 299.5 67 C 299.5 68.92992401123047 297.929931640625 70.5 296 70.5 Z"/>
      <path class="cls-10" d="M 296 70 C 297.6542053222656 70 299 68.65419006347656 299 67 L 299 4 C 299 2.345807790756226 297.6542053222656 1 296 1 L 4 1 C 2.345807790756226 1 1 2.345807790756226 1 4 L 1 67 C 1 68.65419006347656 2.345807790756226 70 4 70 L 296 70 M 296 71 L 4 71 C 1.790884613990784 71 0 69.20915222167969 0 67 L 0 4 C 0 1.790846109390259 1.790884613990784 0 4 0 L 296 0 C 298.2091674804688 0 300 1.790846109390259 300 4 L 300 67 C 300 69.20915222167969 298.2091674804688 71 296 71 Z"/>
    </g>
    <path id="Path_6907" data-name="Path 6907" class="cls-3" d="M7.082-2.714A2.515,2.515,0,0,1,6.118-.622,4.2,4.2,0,0,1,3.459.137,6.345,6.345,0,0,1,.684-.39V-1.935a7.543,7.543,0,0,0,1.453.506,6.159,6.159,0,0,0,1.432.185A2.278,2.278,0,0,0,5-1.613,1.2,1.2,0,0,0,5.462-2.6a1.242,1.242,0,0,0-.424-.95,6.381,6.381,0,0,0-1.75-.923A4.63,4.63,0,0,1,1.36-5.742,2.676,2.676,0,0,1,.8-7.451,2.393,2.393,0,0,1,1.688-9.42a3.686,3.686,0,0,1,2.386-.718,7.01,7.01,0,0,1,2.857.629l-.52,1.333a6.243,6.243,0,0,0-2.379-.561,1.826,1.826,0,0,0-1.2.345,1.134,1.134,0,0,0-.41.913,1.285,1.285,0,0,0,.164.667,1.676,1.676,0,0,0,.54.523,9.135,9.135,0,0,0,1.354.649,7.406,7.406,0,0,1,1.613.854,2.513,2.513,0,0,1,.752.9A2.694,2.694,0,0,1,7.082-2.714Zm4.58,1.552a3.907,3.907,0,0,0,1.176-.185v1.21a3.243,3.243,0,0,1-.687.195,4.733,4.733,0,0,1-.872.079Q9,.137,9-2.27V-6.344H7.964v-.711l1.107-.588.547-1.6h.991v1.682h2.153v1.217H10.609V-2.3a1.135,1.135,0,0,0,.291.858A1.059,1.059,0,0,0,11.662-1.162ZM19.079,0l-.321-1.053H18.7a3.1,3.1,0,0,1-1.1.94,3.481,3.481,0,0,1-1.422.25,2.406,2.406,0,0,1-1.74-.6,2.251,2.251,0,0,1-.625-1.7,2,2,0,0,1,.868-1.764,5.006,5.006,0,0,1,2.646-.649l1.306-.041v-.4A1.529,1.529,0,0,0,18.3-6.108a1.38,1.38,0,0,0-1.049-.359,3.628,3.628,0,0,0-1.114.171,8.409,8.409,0,0,0-1.025.4l-.52-1.148a5.591,5.591,0,0,1,1.347-.489A6.2,6.2,0,0,1,17.315-7.7a3.27,3.27,0,0,1,2.177.629,2.462,2.462,0,0,1,.735,1.976V0ZM16.687-1.094a1.99,1.99,0,0,0,1.4-.489,1.772,1.772,0,0,0,.53-1.371v-.656l-.971.041A3.321,3.321,0,0,0,16-3.189a1.153,1.153,0,0,0-.516,1.036,1.011,1.011,0,0,0,.3.783A1.292,1.292,0,0,0,16.687-1.094Zm8.6-.068a3.907,3.907,0,0,0,1.176-.185v1.21a3.243,3.243,0,0,1-.687.195A4.733,4.733,0,0,1,24.9.137Q22.62.137,22.62-2.27V-6.344H21.588v-.711L22.7-7.643l.547-1.6h.991v1.682h2.153v1.217H24.233V-2.3a1.135,1.135,0,0,0,.291.858A1.059,1.059,0,0,0,25.286-1.162Zm5.988,1.3A3.657,3.657,0,0,1,28.516-.892a3.906,3.906,0,0,1-.995-2.833,4.285,4.285,0,0,1,.923-2.912A3.188,3.188,0,0,1,30.98-7.7a3.116,3.116,0,0,1,2.365.909,3.474,3.474,0,0,1,.868,2.5v.868H29.176a2.483,2.483,0,0,0,.595,1.692,2.071,2.071,0,0,0,1.579.591A5.829,5.829,0,0,0,32.6-1.261a6.539,6.539,0,0,0,1.241-.42V-.376a4.932,4.932,0,0,1-1.189.4A7.294,7.294,0,0,1,31.274.137ZM30.98-6.48A1.614,1.614,0,0,0,29.753-6,2.313,2.313,0,0,0,29.2-4.58h3.432A2.093,2.093,0,0,0,32.184-6,1.543,1.543,0,0,0,30.98-6.48Z" transform="translate(132 101)"/>
    <g id="Group_7815" data-name="Group 7815" transform="translate(-418 -1589)">
      <rect id="Rectangle_3867" data-name="Rectangle 3867" class="cls-4" width="24" height="24" transform="translate(816 1707)"/>
      <path id="Path_5558" data-name="Path 5558" class="cls-5" d="M56,9.4l-3,3-3-3a.967.967,0,0,0-1.4,0h0a.967.967,0,0,0,0,1.4l3.7,3.7a.967.967,0,0,0,1.4,0l3.7-3.7a.967.967,0,0,0,0-1.4h0A.965.965,0,0,0,56,9.4Z" transform="translate(775 1707)"/>
    </g>
    <g id="Group_7811" data-name="Group 7811" transform="translate(-344 -365)">
      <rect id="Rectangle_4061" data-name="Rectangle 4061" class="cls-6" width="92" height="24" rx="2" transform="translate(491 483)"/>
      <text id="Alabama" class="cls-7" transform="translate(498 500)"><tspan x="0" y="0">Alabama</tspan></text>
      <g id="Group_9" data-name="Group 9" transform="translate(10)">
        <rect id="Rectangle_4600" data-name="Rectangle 4600" class="cls-4" width="18" height="18" transform="translate(550 486)"/>
        <path id="Path_5670" data-name="Path 5670" class="cls-8" d="M548.3,178.3h0a.967.967,0,0,1-1.4,0l-2.9-2.9-2.9,2.9a.967.967,0,0,1-1.4,0h0a.967.967,0,0,1,0-1.4l2.9-2.9-2.9-2.9a.967.967,0,0,1,0-1.4h0a.967.967,0,0,1,1.4,0l2.9,2.9,2.9-2.9a.967.967,0,0,1,1.4,0h0a.967.967,0,0,1,0,1.4l-2.9,2.9,2.9,2.9A.967.967,0,0,1,548.3,178.3Z" transform="translate(15 321)"/>
      </g>
    </g>
    <g id="Group_7813" data-name="Group 7813" transform="translate(-247 -365)">
      <rect id="Rectangle_4061-2" data-name="Rectangle 4061" class="cls-6" width="84" height="24" rx="2" transform="translate(491 483)"/>
      <text id="Arizona" class="cls-7" transform="translate(498 500)"><tspan x="0" y="0">Arizona</tspan></text>
      <g id="Group_9-2" data-name="Group 9" transform="translate(2)">
        <rect id="Rectangle_4600-2" data-name="Rectangle 4600" class="cls-4" width="18" height="18" transform="translate(550 486)"/>
        <path id="Path_5670-2" data-name="Path 5670" class="cls-8" d="M548.3,178.3h0a.967.967,0,0,1-1.4,0l-2.9-2.9-2.9,2.9a.967.967,0,0,1-1.4,0h0a.967.967,0,0,1,0-1.4l2.9-2.9-2.9-2.9a.967.967,0,0,1,0-1.4h0a.967.967,0,0,1,1.4,0l2.9,2.9,2.9-2.9a.967.967,0,0,1,1.4,0h0a.967.967,0,0,1,0,1.4l-2.9,2.9,2.9,2.9A.967.967,0,0,1,548.3,178.3Z" transform="translate(15 321)"/>
      </g>
    </g>
    <g id="Group_7812" data-name="Group 7812" transform="translate(-344 -336)">
      <rect id="Rectangle_4061-3" data-name="Rectangle 4061" class="cls-6" width="98" height="24" rx="2" transform="translate(491 483)"/>
      <text id="California" class="cls-7" transform="translate(498 500)"><tspan x="0" y="0">California</tspan></text>
      <g id="Group_9-3" data-name="Group 9" transform="translate(16)">
        <rect id="Rectangle_4600-3" data-name="Rectangle 4600" class="cls-4" width="18" height="18" transform="translate(550 486)"/>
        <path id="Path_5670-3" data-name="Path 5670" class="cls-8" d="M548.3,178.3h0a.967.967,0,0,1-1.4,0l-2.9-2.9-2.9,2.9a.967.967,0,0,1-1.4,0h0a.967.967,0,0,1,0-1.4l2.9-2.9-2.9-2.9a.967.967,0,0,1,0-1.4h0a.967.967,0,0,1,1.4,0l2.9,2.9,2.9-2.9a.967.967,0,0,1,1.4,0h0a.967.967,0,0,1,0,1.4l-2.9,2.9,2.9,2.9A.967.967,0,0,1,548.3,178.3Z" transform="translate(15 321)"/>
      </g>
    </g>
    <g id="Group_7814" data-name="Group 7814" transform="translate(-241 -336)">
      <rect id="Rectangle_4061-4" data-name="Rectangle 4061" class="cls-6" width="113" height="24" rx="2" transform="translate(491 483)"/>
      <text id="Connecticut" class="cls-7" transform="translate(498 500)"><tspan x="0" y="0">Connecticut</tspan></text>
      <g id="Group_9-4" data-name="Group 9" transform="translate(31)">
        <rect id="Rectangle_4600-4" data-name="Rectangle 4600" class="cls-4" width="18" height="18" transform="translate(550 486)"/>
        <path id="Path_5670-4" data-name="Path 5670" class="cls-8" d="M548.3,178.3h0a.967.967,0,0,1-1.4,0l-2.9-2.9-2.9,2.9a.967.967,0,0,1-1.4,0h0a.967.967,0,0,1,0-1.4l2.9-2.9-2.9-2.9a.967.967,0,0,1,0-1.4h0a.967.967,0,0,1,1.4,0l2.9,2.9,2.9-2.9a.967.967,0,0,1,1.4,0h0a.967.967,0,0,1,0,1.4l-2.9,2.9,2.9,2.9A.967.967,0,0,1,548.3,178.3Z" transform="translate(15 321)"/>
      </g>
    </g>
  </g>
</svg>
