<svg xmlns="http://www.w3.org/2000/svg" xmlns:xlink="http://www.w3.org/1999/xlink" width="480" height="200" viewBox="0 0 480 200"><defs><clipPath id="b"><rect width="480" height="200"/></clipPath></defs><g id="a" clip-path="url(#b)"><rect width="480" height="200" fill="#f4f4f6"/><g fill="none" stroke="#f4f4f6" stroke-width="1"><rect width="480" height="200" stroke="none"/><rect x="0.5" y="0.5" width="479" height="199" fill="none"/></g><rect width="480" height="46" fill="#fff"/><path d="M0,0H480V4H0Z" transform="translate(0 46)" fill="#2372c0"/><g transform="translate(0 -7)"><g transform="translate(-672 -227)"><rect width="36" height="36" rx="18" transform="translate(682 239)" fill="none"/></g><path d="M18.111,7.778H3.889A.889.889,0,0,1,3,6.889H3A.889.889,0,0,1,3.889,6H18.111A.889.889,0,0,1,19,6.889h0A.889.889,0,0,1,18.111,7.778ZM19,11.333h0a.889.889,0,0,0-.889-.889H3.889A.889.889,0,0,0,3,11.333H3a.889.889,0,0,0,.889.889H18.111A.889.889,0,0,0,19,11.333Zm0,4.444h0a.889.889,0,0,0-.889-.889H3.889A.889.889,0,0,0,3,15.778H3a.889.889,0,0,0,.889.889H18.111A.889.889,0,0,0,19,15.778Z" transform="translate(17 19)" fill="#2372c0"/></g><g transform="translate(105 -7)"><g transform="translate(-353 -227)"><rect width="36" height="36" rx="18" transform="translate(682 239)" fill="none"/></g><path d="M18.561,17.255l-3.775-3.78A6.621,6.621,0,1,0,13.475,14.8l3.772,3.767a.929.929,0,0,0,1.314-1.314ZM4.642,9.546a4.843,4.843,0,1,1,4.843,4.843A4.843,4.843,0,0,1,4.642,9.546Z" transform="translate(336.154 19.091)" fill="#2372c0"/></g><g transform="translate(60 -10)"><g transform="translate(-119.611 -32.669)"><path d="M340.587,52.669l-6.541,14.446L327.5,52.669h-2.616l9.16,20.259,9.167-20.259Z" fill="#8b8d8e"/><path d="M322.153,72.928h2.623L315.63,52.669h-1l-9.146,20.259h2.629l2.006-4.484h10.028Zm-10.965-6.865,3.938-8.684,3.938,8.684Z" fill="#8b8d8e"/><path d="M350.18,63.606h7.281V61.216H350.18V55.048H358.1l1.27-2.379H347.79V72.928h10.328l1.27-2.439H350.18Z" fill="#8b8d8e"/><path d="M303.177,52.669l-6.49,14.446-5.8-12.689-5.748,12.689-6.285-14.446h-3.9l-3.5,7.735,1.313,2.9,4.02-8.874,8.353,18.494,5.748-12.713,5.8,12.713,9.107-20.259Z" fill="#8b8d8e"/><path d="M245,70.511l11.6-17.834h-14.06l-1.085,2.373H252.21l-11.6,17.834h15.978l1.073-2.373Z" fill="#8b8d8e"/><path d="M265.319,52.669h-5.2l5.856,13-5.856,13h5.2l5.894-13Z" fill="#5FB53B"/></g></g><g transform="translate(0 -10)"><g transform="translate(-426 88)"><circle cx="15" cy="15" r="15" transform="translate(474 13)" fill="#d454a3"/><text transform="translate(484 33)" fill="#fff" font-size="16" font-family="SegoeUI-Bold, Segoe UI" font-weight="700"><tspan x="0" y="0">2</tspan></text></g><g transform="translate(-275 88)"><circle cx="15" cy="15" r="15" transform="translate(474 13)" fill="#d454a3"/><text transform="translate(484 33)" fill="#fff" font-size="16" font-family="SegoeUI-Bold, Segoe UI" font-weight="700"><tspan x="0" y="0">1</tspan></text></g><g transform="translate(-71 88)"><circle cx="15" cy="15" r="15" transform="translate(474 13)" fill="#d454a3"/><text transform="translate(484 33)" fill="#fff" font-size="16" font-family="SegoeUI-Bold, Segoe UI" font-weight="700"><tspan x="0" y="0">3</tspan></text></g><rect width="21" height="1" transform="translate(229 116)" fill="#d454a3"/><rect width="21" height="1" transform="translate(28 116)" fill="#d454a3"/><rect width="21" height="1" transform="translate(433 116)" fill="#d454a3"/><rect width="1" height="68" transform="translate(249 49)" fill="#d454a3"/><rect width="1" height="70" transform="translate(28 47)" fill="#d454a3"/><rect width="1" height="70" transform="translate(453 47)" fill="#d454a3"/></g></g></svg>