<svg xmlns="http://www.w3.org/2000/svg" xmlns:xlink="http://www.w3.org/1999/xlink" width="1024" height="200" viewBox="0 0 1024 200"><defs><clipPath id="b"><rect width="1024" height="200"/></clipPath></defs><g id="a" clip-path="url(#b)"><rect width="1024" height="200" fill="#f4f4f6"/><rect width="1024" height="60" fill="#fff"/><g transform="translate(-4.8)"><g transform="translate(254.8 9)" fill="#fff" stroke="#dbdbdb" stroke-width="1"><rect width="390" height="42" rx="2" stroke="none"/><rect x="0.5" y="0.5" width="389" height="41" rx="1.5" fill="none"/></g><text transform="translate(268.8 36)" fill="#c6c6c6" font-size="14" font-family="OpenSans, Open Sans"><tspan x="0" y="0">Search</tspan></text><path d="M303.8,258.3l-5-5a6.354,6.354,0,0,0,1.1-4.9,6.471,6.471,0,0,0-5.6-5.3,6.53,6.53,0,0,0-2,12.9,6.914,6.914,0,0,0,4.9-1.1l5,5a1.088,1.088,0,0,0,1.5,0A1.222,1.222,0,0,0,303.8,258.3Zm-14.7-9.5a4.458,4.458,0,0,1,3.7-3.7,4.57,4.57,0,0,1,5.2,5.2,4.458,4.458,0,0,1-3.7,3.7A4.609,4.609,0,0,1,289.1,248.8Z" transform="translate(327.8 -222.052)" fill="#5786bd"/><path d="M284.1,240h24v24h-24Z" transform="translate(327.8 -222)" fill="none"/><rect width="24" height="24" transform="translate(611.8 18)" fill="none"/><rect width="24" height="24" transform="translate(571.8 18)" fill="none"/></g><path d="M0,0H1024V10H0Z" transform="translate(0 60)" fill="#2372c0"/><rect width="13" height="13" transform="translate(142 41)" fill="none"/><rect width="13" height="13" transform="translate(142 6)" fill="none"/><g transform="translate(-316 3)"><circle cx="15" cy="15" r="15" transform="translate(474 13)" fill="#d454a3"/><text transform="translate(484 33)" fill="#fff" font-size="16" font-family="SegoeUI-Bold, Segoe UI" font-weight="700"><tspan x="0" y="0">1</tspan></text></g><g transform="translate(-71 2)"><circle cx="15" cy="15" r="15" transform="translate(474 13)" fill="#d454a3"/><text transform="translate(484 33)" fill="#fff" font-size="16" font-family="SegoeUI-Bold, Segoe UI" font-weight="700"><tspan x="0" y="0">3</tspan></text></g><g transform="translate(348 105)"><circle cx="15" cy="15" r="15" transform="translate(474 13)" fill="#d454a3"/><text transform="translate(484 33)" fill="#fff" font-size="16" font-family="SegoeUI-Bold, Segoe UI" font-weight="700"><tspan x="0" y="0">4</tspan></text></g><g transform="translate(458 105)"><circle cx="15" cy="15" r="15" transform="translate(474 13)" fill="#d454a3"/><text transform="translate(484 33)" fill="#fff" font-size="16" font-family="SegoeUI-Bold, Segoe UI" font-weight="700"><tspan x="0" y="0">5</tspan></text></g><g transform="translate(-263 86)"><circle cx="15" cy="15" r="15" transform="translate(474 13)" fill="#d454a3"/><text transform="translate(484 33)" fill="#fff" font-size="16" font-family="SegoeUI-Bold, Segoe UI" font-weight="700"><tspan x="0" y="0">2</tspan></text></g><rect width="21" height="1" transform="translate(241 114)" fill="#d454a3"/><rect width="21" height="1" transform="translate(852 133)" fill="#d454a3"/><rect width="21" height="1" transform="translate(962 133)" fill="#d454a3"/><rect width="1" height="49" transform="translate(261 66)" fill="#d454a3"/><rect width="1" height="82" transform="translate(872 52)" fill="#d454a3"/><rect width="1" height="82" transform="translate(982 52)" fill="#d454a3"/><path d="M284.1,240h24.865v24H284.1Z" transform="translate(662.564 -221)" fill="none"/><rect width="82" height="36" rx="18" transform="translate(840 12)" fill="none"/><text transform="translate(893.768 36)" fill="#1f5ea8" font-size="14" font-family="OpenSans-Semibold, Open Sans" font-weight="600"><tspan x="-16.758" y="0">Apps</tspan></text><path d="M172,94.5v3a.472.472,0,0,1-.5.5h-3a.472.472,0,0,1-.5-.5v-3a.472.472,0,0,1,.5-.5h3A.472.472,0,0,1,172,94.5Zm5.5-.5h-3a.472.472,0,0,0-.5.5v3a.472.472,0,0,0,.5.5h3a.472.472,0,0,0,.5-.5v-3A.472.472,0,0,0,177.5,94Zm-6,12h-3a.472.472,0,0,0-.5.5v3a.472.472,0,0,0,.5.5h3a.472.472,0,0,0,.5-.5v-3A.472.472,0,0,0,171.5,106Zm12-12h-3a.472.472,0,0,0-.5.5v3a.472.472,0,0,0,.5.5h3a.472.472,0,0,0,.5-.5v-3A.472.472,0,0,0,183.5,94Zm-12,6h-3a.472.472,0,0,0-.5.5v3a.472.472,0,0,0,.5.5h3a.472.472,0,0,0,.5-.5v-3A.472.472,0,0,0,171.5,100Zm6,0h-3a.472.472,0,0,0-.5.5v3a.472.472,0,0,0,.5.5h3a.472.472,0,0,0,.5-.5v-3A.472.472,0,0,0,177.5,100Zm0,6h-3a.472.472,0,0,0-.5.5v3a.472.472,0,0,0,.5.5h3a.472.472,0,0,0,.5-.5v-3A.472.472,0,0,0,177.5,106Zm6-6h-3a.472.472,0,0,0-.5.5v3a.472.472,0,0,0,.5.5h3a.472.472,0,0,0,.5-.5v-3A.472.472,0,0,0,183.5,100Zm0,6h-3a.472.472,0,0,0-.5.5v3a.472.472,0,0,0,.5.5h3a.472.472,0,0,0,.5-.5v-3A.472.472,0,0,0,183.5,106Z" transform="translate(685 -72)" fill="#2372c0"/><rect width="82" height="36" rx="18" transform="translate(932 12)" fill="none"/><text transform="translate(984.768 36)" fill="#1f5ea8" font-size="14" font-family="OpenSans-Semibold, Open Sans" font-weight="600"><tspan x="-19.742" y="0">Adam</tspan></text><g transform="translate(940 22)"><path d="M12.981,1.327a2.654,2.654,0,1,1-2.654,2.654,2.654,2.654,0,0,1,2.654-2.654m0-1.327a3.981,3.981,0,1,0,3.981,3.981A3.981,3.981,0,0,0,12.981,0Z" transform="translate(-2.231)" fill="#2372c0"/><path d="M10.75,21.327c3.048,0,4.065.765,4.366,1.1a.226.226,0,0,1,.057.146v2.955a.221.221,0,0,1-.221.221h-8.4a.221.221,0,0,1-.221-.221V22.574a.226.226,0,0,1,.057-.146c.3-.336,1.327-1.1,4.366-1.1m0-1.327c-4.423,0-5.471,1.544-5.693,2.052A.69.69,0,0,0,5,22.335v3.981a.761.761,0,0,0,.756.761h9.987a.765.765,0,0,0,.756-.756V22.34a.69.69,0,0,0-.057-.283C16.226,21.544,15.173,20,10.75,20Z" transform="translate(0 -11.154)" fill="#2372c0"/></g><g transform="translate(-220.611 -32.669)"><path d="M340.587,52.669l-6.541,14.446L327.5,52.669h-2.616l9.16,20.259,9.167-20.259Z" fill="#8b8d8e"/><path d="M322.153,72.928h2.623L315.63,52.669h-1l-9.146,20.259h2.629l2.006-4.484h10.028Zm-10.965-6.865,3.938-8.684,3.938,8.684Z" fill="#8b8d8e"/><path d="M350.18,63.606h7.281V61.216H350.18V55.048H358.1l1.27-2.379H347.79V72.928h10.328l1.27-2.439H350.18Z" fill="#8b8d8e"/><path d="M303.177,52.669l-6.49,14.446-5.8-12.689-5.748,12.689-6.285-14.446h-3.9l-3.5,7.735,1.313,2.9,4.02-8.874,8.353,18.494,5.748-12.713,5.8,12.713,9.107-20.259Z" fill="#8b8d8e"/><path d="M245,70.511l11.6-17.834h-14.06l-1.085,2.373H252.21l-11.6,17.834h15.978l1.073-2.373Z" fill="#8b8d8e"/><path d="M265.319,52.669h-5.2l5.856,13-5.856,13h5.2l5.894-13Z" fill="#5FB53B"/></g><g fill="none" stroke="#f4f4f6" stroke-width="1"><rect width="1024" height="200" stroke="none"/><rect x="0.5" y="0.5" width="1023" height="199" fill="none"/></g></g></svg>