<svg xmlns="http://www.w3.org/2000/svg" xmlns:xlink="http://www.w3.org/1999/xlink" width="840" height="523" viewBox="0 0 840 523">
  <defs>
    <clipPath id="clip-radiobutton_states_2">
      <rect width="840" height="523"/>
    </clipPath>
  </defs>
  <g id="radiobutton_states_2" clip-path="url(#clip-radiobutton_states_2)">
    <rect width="840" height="523" fill="#f9f9fa"/>
    <g id="Group_264163" data-name="Group 264163" transform="translate(14.266 -7.078)">
      <path id="Path_10334" data-name="Path 10334" d="M.734,0V-5.6H2.281q2.961,0,2.961,2.73A2.752,2.752,0,0,1,4.42-.787,3.05,3.05,0,0,1,2.219,0Zm.656-5.008V-.594h.836a2.372,2.372,0,0,0,1.715-.59,2.211,2.211,0,0,0,.613-1.672q0-2.152-2.289-2.152ZM9.473-1.84H6.648A1.5,1.5,0,0,0,7.008-.809a1.239,1.239,0,0,0,.945.363A1.965,1.965,0,0,0,9.2-.891v.6A2.322,2.322,0,0,1,7.8.094,1.691,1.691,0,0,1,6.469-.451a2.23,2.23,0,0,1-.484-1.533,2.187,2.187,0,0,1,.529-1.521,1.7,1.7,0,0,1,1.314-.588,1.5,1.5,0,0,1,1.215.508,2.117,2.117,0,0,1,.43,1.41Zm-.656-.543a1.3,1.3,0,0,0-.268-.863.912.912,0,0,0-.732-.309,1.035,1.035,0,0,0-.77.324,1.471,1.471,0,0,0-.391.848ZM13.3,0h-.641V-.625h-.016a1.341,1.341,0,0,1-1.23.719,1.315,1.315,0,0,1-.936-.316,1.1,1.1,0,0,1-.338-.84q0-1.121,1.32-1.3l1.2-.168q0-1.02-.824-1.02a1.969,1.969,0,0,0-1.3.492v-.656a2.479,2.479,0,0,1,1.359-.375q1.41,0,1.41,1.492Zm-.641-2.023-.965.133a1.567,1.567,0,0,0-.672.221.637.637,0,0,0-.227.561.611.611,0,0,0,.209.479.808.808,0,0,0,.557.186,1.028,1.028,0,0,0,.787-.334,1.193,1.193,0,0,0,.311-.846Zm4.574,1.84a2.082,2.082,0,0,1-1.094.277,1.811,1.811,0,0,1-1.381-.557,2.017,2.017,0,0,1-.525-1.443A2.218,2.218,0,0,1,14.8-3.494a1.981,1.981,0,0,1,1.512-.6,2.1,2.1,0,0,1,.93.2v.656a1.629,1.629,0,0,0-.953-.312,1.288,1.288,0,0,0-1.006.439,1.668,1.668,0,0,0-.393,1.154,1.588,1.588,0,0,0,.369,1.109,1.272,1.272,0,0,0,.99.406,1.606,1.606,0,0,0,.984-.348Zm2.824.145a1.235,1.235,0,0,1-.6.125q-1.051,0-1.051-1.172V-3.453h-.687V-4h.688v-.977l.641-.207V-4h1.008v.547H19.055V-1.2a.934.934,0,0,0,.137.574.546.546,0,0,0,.453.172.674.674,0,0,0,.418-.133Zm1.184-4.977a.406.406,0,0,1-.293-.117.4.4,0,0,1-.121-.3.4.4,0,0,1,.121-.3.4.4,0,0,1,.293-.119.414.414,0,0,1,.3.119.4.4,0,0,1,.123.3.4.4,0,0,1-.123.293A.41.41,0,0,1,21.246-5.016ZM21.559,0h-.641V-4h.641ZM26-4,24.406,0h-.629L22.262-4h.7L23.98-1.094a2.608,2.608,0,0,1,.141.559h.016a2.641,2.641,0,0,1,.125-.543L25.324-4Zm3.551,4H28.91V-.625h-.016a1.341,1.341,0,0,1-1.23.719,1.315,1.315,0,0,1-.936-.316,1.1,1.1,0,0,1-.338-.84q0-1.121,1.32-1.3l1.2-.168q0-1.02-.824-1.02a1.969,1.969,0,0,0-1.3.492v-.656a2.479,2.479,0,0,1,1.359-.375q1.41,0,1.41,1.492ZM28.91-2.023l-.965.133a1.566,1.566,0,0,0-.672.221.637.637,0,0,0-.227.561.611.611,0,0,0,.209.479.808.808,0,0,0,.557.186A1.028,1.028,0,0,0,28.6-.779a1.193,1.193,0,0,0,.311-.846Zm3.7,1.984a1.235,1.235,0,0,1-.6.125q-1.051,0-1.051-1.172V-3.453h-.687V-4h.688v-.977l.641-.207V-4h1.008v.547H31.605V-1.2a.934.934,0,0,0,.137.574.546.546,0,0,0,.453.172.674.674,0,0,0,.418-.133Zm4.07-1.8H33.859a1.5,1.5,0,0,0,.359,1.031,1.239,1.239,0,0,0,.945.363,1.965,1.965,0,0,0,1.242-.445v.6a2.322,2.322,0,0,1-1.395.383A1.691,1.691,0,0,1,33.68-.451,2.23,2.23,0,0,1,33.2-1.984a2.187,2.187,0,0,1,.529-1.521,1.7,1.7,0,0,1,1.314-.588,1.5,1.5,0,0,1,1.215.508,2.117,2.117,0,0,1,.43,1.41Zm-.656-.543a1.3,1.3,0,0,0-.268-.863.912.912,0,0,0-.732-.309,1.035,1.035,0,0,0-.77.324,1.471,1.471,0,0,0-.391.848ZM41.066,0h-.641V-.68H40.41a1.479,1.479,0,0,1-1.375.773A1.494,1.494,0,0,1,37.83-.443a2.2,2.2,0,0,1-.451-1.463,2.4,2.4,0,0,1,.5-1.59,1.649,1.649,0,0,1,1.332-.6,1.282,1.282,0,0,1,1.2.648h.016V-5.922h.641Zm-.641-1.809V-2.4a1.144,1.144,0,0,0-.32-.82,1.074,1.074,0,0,0-.812-.336,1.106,1.106,0,0,0-.922.43,1.883,1.883,0,0,0-.336,1.188,1.693,1.693,0,0,0,.322,1.092,1.053,1.053,0,0,0,.865.4,1.094,1.094,0,0,0,.869-.387A1.441,1.441,0,0,0,40.426-1.809Z" transform="translate(82 184)" fill="#c6318c"/>
      <path id="Path_10335" data-name="Path 10335" d="M5.07,0H4.344L3.75-1.57H1.375L.816,0H.086L2.234-5.6h.68ZM3.535-2.16,2.656-4.547a2.285,2.285,0,0,1-.086-.375H2.555a2.092,2.092,0,0,1-.09.375L1.594-2.16Zm5,1.977A2.082,2.082,0,0,1,7.441.094,1.811,1.811,0,0,1,6.061-.463a2.017,2.017,0,0,1-.525-1.443A2.218,2.218,0,0,1,6.1-3.494a1.981,1.981,0,0,1,1.512-.6,2.1,2.1,0,0,1,.93.2v.656a1.629,1.629,0,0,0-.953-.312,1.288,1.288,0,0,0-1.006.439,1.668,1.668,0,0,0-.393,1.154A1.588,1.588,0,0,0,6.561-.852a1.272,1.272,0,0,0,.99.406,1.606,1.606,0,0,0,.984-.348Zm2.824.145a1.235,1.235,0,0,1-.6.125q-1.051,0-1.051-1.172V-3.453H9.023V-4h.688v-.977l.641-.207V-4h1.008v.547H10.352V-1.2a.934.934,0,0,0,.137.574.546.546,0,0,0,.453.172.674.674,0,0,0,.418-.133Zm1.184-4.977a.406.406,0,0,1-.293-.117.4.4,0,0,1-.121-.3.4.4,0,0,1,.121-.3.4.4,0,0,1,.293-.119.414.414,0,0,1,.3.119.4.4,0,0,1,.123.3.4.4,0,0,1-.123.293A.41.41,0,0,1,12.543-5.016ZM12.855,0h-.641V-4h.641ZM17.3-4,15.7,0h-.629L13.559-4h.7l1.016,2.906a2.609,2.609,0,0,1,.141.559h.016a2.641,2.641,0,0,1,.125-.543L16.621-4Zm3.551,4h-.641V-.625h-.016a1.341,1.341,0,0,1-1.23.719,1.315,1.315,0,0,1-.936-.316,1.1,1.1,0,0,1-.338-.84q0-1.121,1.32-1.3l1.2-.168q0-1.02-.824-1.02a1.969,1.969,0,0,0-1.3.492v-.656a2.479,2.479,0,0,1,1.359-.375q1.41,0,1.41,1.492Zm-.641-2.023-.965.133a1.566,1.566,0,0,0-.672.221.637.637,0,0,0-.227.561.611.611,0,0,0,.209.479.808.808,0,0,0,.557.186A1.028,1.028,0,0,0,19.9-.779a1.193,1.193,0,0,0,.311-.846Zm3.7,1.984a1.235,1.235,0,0,1-.6.125q-1.051,0-1.051-1.172V-3.453h-.687V-4h.688v-.977l.641-.207V-4H23.91v.547H22.9V-1.2a.934.934,0,0,0,.137.574.546.546,0,0,0,.453.172.674.674,0,0,0,.418-.133Zm4.07-1.8H25.156a1.5,1.5,0,0,0,.359,1.031,1.239,1.239,0,0,0,.945.363A1.965,1.965,0,0,0,27.7-.891v.6a2.322,2.322,0,0,1-1.395.383,1.691,1.691,0,0,1-1.332-.545,2.23,2.23,0,0,1-.484-1.533,2.187,2.187,0,0,1,.529-1.521,1.7,1.7,0,0,1,1.314-.588,1.5,1.5,0,0,1,1.215.508,2.117,2.117,0,0,1,.43,1.41Zm-.656-.543a1.3,1.3,0,0,0-.268-.863.912.912,0,0,0-.732-.309,1.035,1.035,0,0,0-.77.324,1.471,1.471,0,0,0-.391.848ZM32.363,0h-.641V-.68h-.016a1.479,1.479,0,0,1-1.375.773,1.494,1.494,0,0,1-1.205-.537,2.2,2.2,0,0,1-.451-1.463,2.4,2.4,0,0,1,.5-1.59,1.649,1.649,0,0,1,1.332-.6,1.282,1.282,0,0,1,1.2.648h.016V-5.922h.641Zm-.641-1.809V-2.4a1.144,1.144,0,0,0-.32-.82,1.074,1.074,0,0,0-.812-.336,1.106,1.106,0,0,0-.922.43,1.883,1.883,0,0,0-.336,1.188,1.693,1.693,0,0,0,.322,1.092,1.053,1.053,0,0,0,.865.4,1.094,1.094,0,0,0,.869-.387A1.441,1.441,0,0,0,31.723-1.809Z" transform="translate(91 389)" fill="#c6318c"/>
      <path id="Path_10336" data-name="Path 10336" d="M5.25,0h-.8L1.563-4.465a1.866,1.866,0,0,1-.18-.352H1.359a5.767,5.767,0,0,1,.031.77V0H.734V-5.6h.852l2.8,4.395q.176.273.227.375h.016a5.926,5.926,0,0,1-.039-.824V-5.6H5.25ZM8.3.094A1.855,1.855,0,0,1,6.889-.467a2.076,2.076,0,0,1-.529-1.486A2.163,2.163,0,0,1,6.91-3.527,1.98,1.98,0,0,1,8.4-4.094a1.794,1.794,0,0,1,1.4.551,2.184,2.184,0,0,1,.5,1.527A2.149,2.149,0,0,1,9.756-.482,1.9,1.9,0,0,1,8.3.094Zm.047-3.648a1.219,1.219,0,0,0-.977.42,1.725,1.725,0,0,0-.359,1.158A1.631,1.631,0,0,0,7.379-.855a1.235,1.235,0,0,0,.973.41,1.171,1.171,0,0,0,.955-.4,1.746,1.746,0,0,0,.334-1.145,1.776,1.776,0,0,0-.334-1.156A1.166,1.166,0,0,0,8.352-3.555Zm5.055.2a.783.783,0,0,0-.484-.129.818.818,0,0,0-.686.387,1.788,1.788,0,0,0-.275,1.055V0H11.32V-4h.641v.824h.016a1.4,1.4,0,0,1,.418-.658.953.953,0,0,1,.629-.236,1.046,1.046,0,0,1,.383.055ZM19.781,0h-.641V-2.3a1.733,1.733,0,0,0-.205-.961.778.778,0,0,0-.689-.3.854.854,0,0,0-.7.375,1.435,1.435,0,0,0-.287.9V0h-.641V-2.375q0-1.18-.91-1.18a.843.843,0,0,0-.7.354,1.461,1.461,0,0,0-.273.92V0H14.1V-4h.641v.633h.016A1.359,1.359,0,0,1,16-4.094a1.158,1.158,0,0,1,.715.229,1.15,1.15,0,0,1,.418.6,1.427,1.427,0,0,1,1.328-.828q1.32,0,1.32,1.629Zm4.074,0h-.641V-.625H23.2a1.341,1.341,0,0,1-1.23.719,1.315,1.315,0,0,1-.936-.316,1.1,1.1,0,0,1-.338-.84q0-1.121,1.32-1.3l1.2-.168q0-1.02-.824-1.02a1.969,1.969,0,0,0-1.3.492v-.656a2.479,2.479,0,0,1,1.359-.375q1.41,0,1.41,1.492Zm-.641-2.023-.965.133a1.566,1.566,0,0,0-.672.221.637.637,0,0,0-.227.561.611.611,0,0,0,.209.479.808.808,0,0,0,.557.186A1.028,1.028,0,0,0,22.9-.779a1.193,1.193,0,0,0,.311-.846ZM25.7,0h-.641V-5.922H25.7Z" transform="translate(196 65)" fill="#c6318c"/>
      <path id="Path_10337" data-name="Path 10337" d="M4.945,0H4.289V-2.555h-2.9V0H.734V-5.6h.656v2.457h2.9V-5.6h.656ZM8,.094A1.855,1.855,0,0,1,6.584-.467a2.076,2.076,0,0,1-.529-1.486,2.163,2.163,0,0,1,.551-1.574,1.98,1.98,0,0,1,1.488-.566,1.794,1.794,0,0,1,1.4.551,2.184,2.184,0,0,1,.5,1.527A2.149,2.149,0,0,1,9.451-.482,1.9,1.9,0,0,1,8,.094Zm.047-3.648a1.219,1.219,0,0,0-.977.42,1.725,1.725,0,0,0-.359,1.158A1.631,1.631,0,0,0,7.074-.855a1.235,1.235,0,0,0,.973.41A1.171,1.171,0,0,0,9-.848a1.746,1.746,0,0,0,.334-1.145A1.776,1.776,0,0,0,9-3.148,1.166,1.166,0,0,0,8.047-3.555ZM14.16-4,12.566,0h-.629L10.422-4h.7l1.016,2.906a2.609,2.609,0,0,1,.141.559H12.3a2.641,2.641,0,0,1,.125-.543L13.484-4Zm3.9,2.16H15.238A1.5,1.5,0,0,0,15.6-.809a1.239,1.239,0,0,0,.945.363,1.965,1.965,0,0,0,1.242-.445v.6a2.322,2.322,0,0,1-1.395.383,1.691,1.691,0,0,1-1.332-.545,2.23,2.23,0,0,1-.484-1.533A2.187,2.187,0,0,1,15.1-3.506a1.7,1.7,0,0,1,1.314-.588,1.5,1.5,0,0,1,1.215.508,2.117,2.117,0,0,1,.43,1.41Zm-.656-.543a1.3,1.3,0,0,0-.268-.863.912.912,0,0,0-.732-.309,1.035,1.035,0,0,0-.77.324,1.471,1.471,0,0,0-.391.848Zm3.711-.969a.783.783,0,0,0-.484-.129.818.818,0,0,0-.686.387,1.788,1.788,0,0,0-.275,1.055V0h-.641V-4h.641v.824h.016a1.4,1.4,0,0,1,.418-.658.953.953,0,0,1,.629-.236,1.046,1.046,0,0,1,.383.055Z" transform="translate(348 65)" fill="#c6318c"/>
      <g id="Gallery_radio_button-Large-NEW" data-name="Gallery radio button-Large-NEW" transform="translate(144 89)">
        <g id="Rectangle_4479" data-name="Rectangle 4479" fill="#fff" stroke="#c6c6c6" stroke-width="1">
          <rect width="130" height="183" rx="6" stroke="none"/>
          <rect x="0.5" y="0.5" width="129" height="182" rx="5.5" fill="none"/>
        </g>
        <path id="Path_10356" data-name="Path 10356" d="M-26.035,0h-5.653V-9.994h5.653v1.381h-4.02v2.721h3.767v1.367h-3.767v3.138h4.02Zm8.36,0h-1.613V-4.662a2.114,2.114,0,0,0-.328-1.3,1.211,1.211,0,0,0-1.025-.427A1.564,1.564,0,0,0-22-5.78a3.549,3.549,0,0,0-.434,2.013V0h-1.606V-7.561h1.258l.226.991h.082a2.1,2.1,0,0,1,.913-.834A2.943,2.943,0,0,1-20.251-7.7a2.3,2.3,0,0,1,2.311,1.189h.109a2.3,2.3,0,0,1,.943-.875A2.994,2.994,0,0,1-15.494-7.7a2.539,2.539,0,0,1,1.972.684A3.027,3.027,0,0,1-12.9-4.929V0h-1.606V-4.662a2.1,2.1,0,0,0-.332-1.3,1.221,1.221,0,0,0-1.029-.427A1.6,1.6,0,0,0-17.24-5.8a3.013,3.013,0,0,0-.434,1.794ZM-6.826.137A2.648,2.648,0,0,1-9.054-.9h-.1q.1.957.1,1.162v3.1h-1.606V-7.561h1.3q.055.212.226,1.012h.082A2.517,2.517,0,0,1-6.8-7.7a2.624,2.624,0,0,1,2.2,1.025A4.623,4.623,0,0,1-3.8-3.794,4.627,4.627,0,0,1-4.607-.9,2.648,2.648,0,0,1-6.826.137Zm-.39-6.521a1.67,1.67,0,0,0-1.4.561,2.905,2.905,0,0,0-.441,1.791v.239a3.536,3.536,0,0,0,.438,2,1.627,1.627,0,0,0,1.429.619A1.45,1.45,0,0,0-5.9-1.859a3.53,3.53,0,0,0,.451-1.948A3.407,3.407,0,0,0-5.9-5.732,1.494,1.494,0,0,0-7.215-6.385ZM-.332,0H-1.938V-10.637H-.332Zm9-3.794A4.127,4.127,0,0,1,7.721-.9,3.4,3.4,0,0,1,5.076.137,3.625,3.625,0,0,1,3.2-.342,3.159,3.159,0,0,1,1.952-1.716a4.68,4.68,0,0,1-.437-2.078,4.1,4.1,0,0,1,.943-2.871A3.42,3.42,0,0,1,5.117-7.7a3.331,3.331,0,0,1,2.6,1.056A4.08,4.08,0,0,1,8.671-3.794Zm-5.5,0q0,2.618,1.935,2.618,1.914,0,1.914-2.618,0-2.591-1.928-2.591a1.644,1.644,0,0,0-1.466.67A3.409,3.409,0,0,0,3.168-3.794Zm6.2-3.767h1.75l1.538,4.286a8.133,8.133,0,0,1,.465,1.723h.055a7.185,7.185,0,0,1,.226-.913q.164-.537,1.736-5.1h1.736L13.641,1A3.067,3.067,0,0,1,10.7,3.363a4.626,4.626,0,0,1-1.039-.116V1.976a3.765,3.765,0,0,0,.827.082A1.694,1.694,0,0,0,12.124.711L12.4,0ZM21.325.137A3.657,3.657,0,0,1,18.566-.892a3.906,3.906,0,0,1-.995-2.833,4.285,4.285,0,0,1,.923-2.912A3.188,3.188,0,0,1,21.031-7.7a3.116,3.116,0,0,1,2.365.909,3.474,3.474,0,0,1,.868,2.5v.868H19.226a2.483,2.483,0,0,0,.595,1.692,2.071,2.071,0,0,0,1.579.591,5.829,5.829,0,0,0,1.248-.126,6.539,6.539,0,0,0,1.241-.42V-.376a4.932,4.932,0,0,1-1.189.4A7.294,7.294,0,0,1,21.325.137ZM21.031-6.48A1.614,1.614,0,0,0,19.8-6a2.313,2.313,0,0,0-.55,1.415h3.432A2.093,2.093,0,0,0,22.234-6,1.543,1.543,0,0,0,21.031-6.48ZM29.391.137A3.657,3.657,0,0,1,26.633-.892a3.906,3.906,0,0,1-.995-2.833,4.285,4.285,0,0,1,.923-2.912A3.188,3.188,0,0,1,29.1-7.7a3.116,3.116,0,0,1,2.365.909,3.474,3.474,0,0,1,.868,2.5v.868H27.292a2.483,2.483,0,0,0,.595,1.692,2.071,2.071,0,0,0,1.579.591,5.829,5.829,0,0,0,1.248-.126,6.539,6.539,0,0,0,1.241-.42V-.376a4.932,4.932,0,0,1-1.189.4A7.294,7.294,0,0,1,29.391.137ZM29.1-6.48A1.614,1.614,0,0,0,27.87-6a2.313,2.313,0,0,0-.55,1.415h3.432A2.093,2.093,0,0,0,30.3-6,1.543,1.543,0,0,0,29.1-6.48ZM-25.836,19h-1.641V14.5h-4.607V19h-1.634V9.006h1.634v4.088h4.607V9.006h1.641Zm7.191,0-.321-1.053h-.055a3.1,3.1,0,0,1-1.1.94,3.481,3.481,0,0,1-1.422.25,2.406,2.406,0,0,1-1.74-.6,2.251,2.251,0,0,1-.625-1.7,2,2,0,0,1,.868-1.764A5.006,5.006,0,0,1-20.4,14.42l1.306-.041v-.4a1.529,1.529,0,0,0-.338-1.083,1.38,1.38,0,0,0-1.049-.359,3.628,3.628,0,0,0-1.114.171,8.409,8.409,0,0,0-1.025.4l-.52-1.148a5.591,5.591,0,0,1,1.347-.489,6.2,6.2,0,0,1,1.381-.167,3.27,3.27,0,0,1,2.177.629,2.462,2.462,0,0,1,.735,1.976V19Zm-2.393-1.094a1.99,1.99,0,0,0,1.4-.489,1.772,1.772,0,0,0,.53-1.371v-.656l-.971.041a3.321,3.321,0,0,0-1.651.379,1.153,1.153,0,0,0-.516,1.036,1.011,1.011,0,0,0,.3.783A1.292,1.292,0,0,0-21.038,17.906ZM-8.6,19h-1.613V14.352a2.034,2.034,0,0,0-.352-1.306,1.361,1.361,0,0,0-1.118-.431,1.777,1.777,0,0,0-1.49.6,3.321,3.321,0,0,0-.472,2.017V19h-1.606V11.439H-14l.226.991h.082a2.237,2.237,0,0,1,.971-.834,3.253,3.253,0,0,1,1.395-.294q2.721,0,2.721,2.769Zm4.785.137a2.633,2.633,0,0,1-2.208-1.025,4.609,4.609,0,0,1-.793-2.878,4.624,4.624,0,0,1,.8-2.9A2.658,2.658,0,0,1-3.791,11.3a2.606,2.606,0,0,1,2.27,1.1h.082a9.63,9.63,0,0,1-.116-1.285V8.363H.058V19H-1.2l-.28-.991h-.075A2.568,2.568,0,0,1-3.818,19.137Zm.431-1.3a1.748,1.748,0,0,0,1.442-.557,2.933,2.933,0,0,0,.465-1.808v-.226a3.389,3.389,0,0,0-.465-2.03,1.724,1.724,0,0,0-1.456-.6,1.477,1.477,0,0,0-1.306.687,3.521,3.521,0,0,0-.458,1.958,3.433,3.433,0,0,0,.444,1.917A1.5,1.5,0,0,0-3.387,17.838Zm9.6-6.535a2.624,2.624,0,0,1,2.2,1.025,4.623,4.623,0,0,1,.79,2.878,4.638,4.638,0,0,1-.8,2.9A2.649,2.649,0,0,1,6.19,19.137,2.648,2.648,0,0,1,3.961,18.1H3.852l-.294.9h-1.2V8.363H3.961v2.529q0,.28-.027.834t-.041.7h.068A2.551,2.551,0,0,1,6.217,11.3ZM5.8,12.615a1.633,1.633,0,0,0-1.4.571A3.321,3.321,0,0,0,3.961,15.1v.109a3.536,3.536,0,0,0,.438,2,1.627,1.627,0,0,0,1.429.619,1.448,1.448,0,0,0,1.3-.677,3.59,3.59,0,0,0,.441-1.955Q7.564,12.615,5.8,12.615Zm11.983,2.591a4.127,4.127,0,0,1-.95,2.892,3.4,3.4,0,0,1-2.646,1.039,3.625,3.625,0,0,1-1.873-.479,3.159,3.159,0,0,1-1.251-1.374,4.68,4.68,0,0,1-.437-2.078,4.1,4.1,0,0,1,.943-2.871A3.42,3.42,0,0,1,14.229,11.3a3.331,3.331,0,0,1,2.6,1.056A4.08,4.08,0,0,1,17.784,15.206Zm-5.5,0q0,2.618,1.935,2.618,1.914,0,1.914-2.618,0-2.591-1.928-2.591a1.644,1.644,0,0,0-1.466.67A3.409,3.409,0,0,0,12.281,15.206Zm14.055,0a4.127,4.127,0,0,1-.95,2.892,3.4,3.4,0,0,1-2.646,1.039,3.625,3.625,0,0,1-1.873-.479,3.159,3.159,0,0,1-1.251-1.374,4.68,4.68,0,0,1-.437-2.078,4.1,4.1,0,0,1,.943-2.871A3.42,3.42,0,0,1,22.781,11.3a3.331,3.331,0,0,1,2.6,1.056A4.08,4.08,0,0,1,26.335,15.206Zm-5.5,0q0,2.618,1.935,2.618,1.914,0,1.914-2.618,0-2.591-1.928-2.591a1.644,1.644,0,0,0-1.466.67A3.409,3.409,0,0,0,20.833,15.206Zm8.9-.2.909-1.135,2.283-2.434h1.853l-3.042,3.247L34.969,19H33.083l-2.427-3.315-.882.725V19H28.181V8.363h1.593v5.188l-.082,1.456Z" transform="translate(65 130)" fill="#3d3d3d"/>
        <g id="Group_7827" data-name="Group 7827" transform="translate(-78 -116)">
          <rect id="Rectangle_4483" data-name="Rectangle 4483" width="70" height="70" rx="4" transform="translate(108 146)" fill="none" opacity="0.5"/>
          <g id="Shadow_1_" transform="translate(120 153.054)">
            <path id="Path_5743" data-name="Path 5743" d="M3.5,0H44.736a1.859,1.859,0,0,1,1.889,1.889h0V53.721a2,2,0,0,1-1.971,1.971H3.5" transform="translate(-0.625)" fill="#e04a39"/>
            <path id="Path_5744" data-name="Path 5744" d="M6.654,0H1.807A1.823,1.823,0,0,0,0,1.807H0V53.886a1.823,1.823,0,0,0,1.807,1.807H6.654" fill="#cc4434"/>
            <rect id="Rectangle_4122" data-name="Rectangle 4122" width="41.646" height="9.939" transform="translate(4.354 43.864)" fill="#cb4333"/>
            <path id="Path_5745" data-name="Path 5745" d="M7.275,55.1H47.2v7.311H7.275a.561.561,0,0,1-.575-.575V55.593A.549.549,0,0,1,7.275,55.1Z" transform="translate(-1.196 -9.839)" fill="#f1f2f2"/>
            <path id="Path_5746" data-name="Path 5746" d="M27.893,30.125H22.8V21.5h5.093v1.889H25.1V24.7h2.546v1.889H25.1v1.643h2.793Z" transform="translate(-4.071 -3.839)" fill="#fff"/>
            <path id="Path_5747" data-name="Path 5747" d="M35.893,30.125H30.8V21.5h5.093v1.889H33.1V24.7h2.546v1.889H33.1v1.643h2.793Z" transform="translate(-5.5 -3.839)" fill="#fff"/>
          </g>
        </g>
      </g>
      <g id="Gallery_radio_button-Large-NEW-2" data-name="Gallery radio button-Large-NEW" transform="translate(144 294)">
        <g id="Rectangle_4479-2" data-name="Rectangle 4479" fill="#d0e2f6" stroke="#2777d3" stroke-width="2">
          <rect width="130" height="183" rx="6" stroke="none"/>
          <rect x="1" y="1" width="128" height="181" rx="5" fill="none"/>
        </g>
        <path id="Path_10357" data-name="Path 10357" d="M-26.035,0h-5.653V-9.994h5.653v1.381h-4.02v2.721h3.767v1.367h-3.767v3.138h4.02Zm8.36,0h-1.613V-4.662a2.114,2.114,0,0,0-.328-1.3,1.211,1.211,0,0,0-1.025-.427A1.564,1.564,0,0,0-22-5.78a3.549,3.549,0,0,0-.434,2.013V0h-1.606V-7.561h1.258l.226.991h.082a2.1,2.1,0,0,1,.913-.834A2.943,2.943,0,0,1-20.251-7.7a2.3,2.3,0,0,1,2.311,1.189h.109a2.3,2.3,0,0,1,.943-.875A2.994,2.994,0,0,1-15.494-7.7a2.539,2.539,0,0,1,1.972.684A3.027,3.027,0,0,1-12.9-4.929V0h-1.606V-4.662a2.1,2.1,0,0,0-.332-1.3,1.221,1.221,0,0,0-1.029-.427A1.6,1.6,0,0,0-17.24-5.8a3.013,3.013,0,0,0-.434,1.794ZM-6.826.137A2.648,2.648,0,0,1-9.054-.9h-.1q.1.957.1,1.162v3.1h-1.606V-7.561h1.3q.055.212.226,1.012h.082A2.517,2.517,0,0,1-6.8-7.7a2.624,2.624,0,0,1,2.2,1.025A4.623,4.623,0,0,1-3.8-3.794,4.627,4.627,0,0,1-4.607-.9,2.648,2.648,0,0,1-6.826.137Zm-.39-6.521a1.67,1.67,0,0,0-1.4.561,2.905,2.905,0,0,0-.441,1.791v.239a3.536,3.536,0,0,0,.438,2,1.627,1.627,0,0,0,1.429.619A1.45,1.45,0,0,0-5.9-1.859a3.53,3.53,0,0,0,.451-1.948A3.407,3.407,0,0,0-5.9-5.732,1.494,1.494,0,0,0-7.215-6.385ZM-.332,0H-1.938V-10.637H-.332Zm9-3.794A4.127,4.127,0,0,1,7.721-.9,3.4,3.4,0,0,1,5.076.137,3.625,3.625,0,0,1,3.2-.342,3.159,3.159,0,0,1,1.952-1.716a4.68,4.68,0,0,1-.437-2.078,4.1,4.1,0,0,1,.943-2.871A3.42,3.42,0,0,1,5.117-7.7a3.331,3.331,0,0,1,2.6,1.056A4.08,4.08,0,0,1,8.671-3.794Zm-5.5,0q0,2.618,1.935,2.618,1.914,0,1.914-2.618,0-2.591-1.928-2.591a1.644,1.644,0,0,0-1.466.67A3.409,3.409,0,0,0,3.168-3.794Zm6.2-3.767h1.75l1.538,4.286a8.133,8.133,0,0,1,.465,1.723h.055a7.185,7.185,0,0,1,.226-.913q.164-.537,1.736-5.1h1.736L13.641,1A3.067,3.067,0,0,1,10.7,3.363a4.626,4.626,0,0,1-1.039-.116V1.976a3.765,3.765,0,0,0,.827.082A1.694,1.694,0,0,0,12.124.711L12.4,0ZM21.325.137A3.657,3.657,0,0,1,18.566-.892a3.906,3.906,0,0,1-.995-2.833,4.285,4.285,0,0,1,.923-2.912A3.188,3.188,0,0,1,21.031-7.7a3.116,3.116,0,0,1,2.365.909,3.474,3.474,0,0,1,.868,2.5v.868H19.226a2.483,2.483,0,0,0,.595,1.692,2.071,2.071,0,0,0,1.579.591,5.829,5.829,0,0,0,1.248-.126,6.539,6.539,0,0,0,1.241-.42V-.376a4.932,4.932,0,0,1-1.189.4A7.294,7.294,0,0,1,21.325.137ZM21.031-6.48A1.614,1.614,0,0,0,19.8-6a2.313,2.313,0,0,0-.55,1.415h3.432A2.093,2.093,0,0,0,22.234-6,1.543,1.543,0,0,0,21.031-6.48ZM29.391.137A3.657,3.657,0,0,1,26.633-.892a3.906,3.906,0,0,1-.995-2.833,4.285,4.285,0,0,1,.923-2.912A3.188,3.188,0,0,1,29.1-7.7a3.116,3.116,0,0,1,2.365.909,3.474,3.474,0,0,1,.868,2.5v.868H27.292a2.483,2.483,0,0,0,.595,1.692,2.071,2.071,0,0,0,1.579.591,5.829,5.829,0,0,0,1.248-.126,6.539,6.539,0,0,0,1.241-.42V-.376a4.932,4.932,0,0,1-1.189.4A7.294,7.294,0,0,1,29.391.137ZM29.1-6.48A1.614,1.614,0,0,0,27.87-6a2.313,2.313,0,0,0-.55,1.415h3.432A2.093,2.093,0,0,0,30.3-6,1.543,1.543,0,0,0,29.1-6.48ZM-25.836,19h-1.641V14.5h-4.607V19h-1.634V9.006h1.634v4.088h4.607V9.006h1.641Zm7.191,0-.321-1.053h-.055a3.1,3.1,0,0,1-1.1.94,3.481,3.481,0,0,1-1.422.25,2.406,2.406,0,0,1-1.74-.6,2.251,2.251,0,0,1-.625-1.7,2,2,0,0,1,.868-1.764A5.006,5.006,0,0,1-20.4,14.42l1.306-.041v-.4a1.529,1.529,0,0,0-.338-1.083,1.38,1.38,0,0,0-1.049-.359,3.628,3.628,0,0,0-1.114.171,8.409,8.409,0,0,0-1.025.4l-.52-1.148a5.591,5.591,0,0,1,1.347-.489,6.2,6.2,0,0,1,1.381-.167,3.27,3.27,0,0,1,2.177.629,2.462,2.462,0,0,1,.735,1.976V19Zm-2.393-1.094a1.99,1.99,0,0,0,1.4-.489,1.772,1.772,0,0,0,.53-1.371v-.656l-.971.041a3.321,3.321,0,0,0-1.651.379,1.153,1.153,0,0,0-.516,1.036,1.011,1.011,0,0,0,.3.783A1.292,1.292,0,0,0-21.038,17.906ZM-8.6,19h-1.613V14.352a2.034,2.034,0,0,0-.352-1.306,1.361,1.361,0,0,0-1.118-.431,1.777,1.777,0,0,0-1.49.6,3.321,3.321,0,0,0-.472,2.017V19h-1.606V11.439H-14l.226.991h.082a2.237,2.237,0,0,1,.971-.834,3.253,3.253,0,0,1,1.395-.294q2.721,0,2.721,2.769Zm4.785.137a2.633,2.633,0,0,1-2.208-1.025,4.609,4.609,0,0,1-.793-2.878,4.624,4.624,0,0,1,.8-2.9A2.658,2.658,0,0,1-3.791,11.3a2.606,2.606,0,0,1,2.27,1.1h.082a9.63,9.63,0,0,1-.116-1.285V8.363H.058V19H-1.2l-.28-.991h-.075A2.568,2.568,0,0,1-3.818,19.137Zm.431-1.3a1.748,1.748,0,0,0,1.442-.557,2.933,2.933,0,0,0,.465-1.808v-.226a3.389,3.389,0,0,0-.465-2.03,1.724,1.724,0,0,0-1.456-.6,1.477,1.477,0,0,0-1.306.687,3.521,3.521,0,0,0-.458,1.958,3.433,3.433,0,0,0,.444,1.917A1.5,1.5,0,0,0-3.387,17.838Zm9.6-6.535a2.624,2.624,0,0,1,2.2,1.025,4.623,4.623,0,0,1,.79,2.878,4.638,4.638,0,0,1-.8,2.9A2.649,2.649,0,0,1,6.19,19.137,2.648,2.648,0,0,1,3.961,18.1H3.852l-.294.9h-1.2V8.363H3.961v2.529q0,.28-.027.834t-.041.7h.068A2.551,2.551,0,0,1,6.217,11.3ZM5.8,12.615a1.633,1.633,0,0,0-1.4.571A3.321,3.321,0,0,0,3.961,15.1v.109a3.536,3.536,0,0,0,.438,2,1.627,1.627,0,0,0,1.429.619,1.448,1.448,0,0,0,1.3-.677,3.59,3.59,0,0,0,.441-1.955Q7.564,12.615,5.8,12.615Zm11.983,2.591a4.127,4.127,0,0,1-.95,2.892,3.4,3.4,0,0,1-2.646,1.039,3.625,3.625,0,0,1-1.873-.479,3.159,3.159,0,0,1-1.251-1.374,4.68,4.68,0,0,1-.437-2.078,4.1,4.1,0,0,1,.943-2.871A3.42,3.42,0,0,1,14.229,11.3a3.331,3.331,0,0,1,2.6,1.056A4.08,4.08,0,0,1,17.784,15.206Zm-5.5,0q0,2.618,1.935,2.618,1.914,0,1.914-2.618,0-2.591-1.928-2.591a1.644,1.644,0,0,0-1.466.67A3.409,3.409,0,0,0,12.281,15.206Zm14.055,0a4.127,4.127,0,0,1-.95,2.892,3.4,3.4,0,0,1-2.646,1.039,3.625,3.625,0,0,1-1.873-.479,3.159,3.159,0,0,1-1.251-1.374,4.68,4.68,0,0,1-.437-2.078,4.1,4.1,0,0,1,.943-2.871A3.42,3.42,0,0,1,22.781,11.3a3.331,3.331,0,0,1,2.6,1.056A4.08,4.08,0,0,1,26.335,15.206Zm-5.5,0q0,2.618,1.935,2.618,1.914,0,1.914-2.618,0-2.591-1.928-2.591a1.644,1.644,0,0,0-1.466.67A3.409,3.409,0,0,0,20.833,15.206Zm8.9-.2.909-1.135,2.283-2.434h1.853l-3.042,3.247L34.969,19H33.083l-2.427-3.315-.882.725V19H28.181V8.363h1.593v5.188l-.082,1.456Z" transform="translate(65 130)" fill="#3d3d3d"/>
        <g id="Group_7827-2" data-name="Group 7827" transform="translate(-78 -116)">
          <rect id="Rectangle_4483-2" data-name="Rectangle 4483" width="70" height="70" rx="4" transform="translate(108 146)" fill="none" opacity="0.5"/>
          <g id="Shadow_1_2" data-name="Shadow_1_" transform="translate(120 153.054)">
            <path id="Path_5743-2" data-name="Path 5743" d="M3.5,0H44.736a1.859,1.859,0,0,1,1.889,1.889h0V53.721a2,2,0,0,1-1.971,1.971H3.5" transform="translate(-0.625)" fill="#e04a39"/>
            <path id="Path_5744-2" data-name="Path 5744" d="M6.654,0H1.807A1.823,1.823,0,0,0,0,1.807H0V53.886a1.823,1.823,0,0,0,1.807,1.807H6.654" fill="#cc4434"/>
            <rect id="Rectangle_4122-2" data-name="Rectangle 4122" width="41.646" height="9.939" transform="translate(4.354 43.864)" fill="#cb4333"/>
            <path id="Path_5745-2" data-name="Path 5745" d="M7.275,55.1H47.2v7.311H7.275a.561.561,0,0,1-.575-.575V55.593A.549.549,0,0,1,7.275,55.1Z" transform="translate(-1.196 -9.839)" fill="#f1f2f2"/>
            <path id="Path_5746-2" data-name="Path 5746" d="M27.893,30.125H22.8V21.5h5.093v1.889H25.1V24.7h2.546v1.889H25.1v1.643h2.793Z" transform="translate(-4.071 -3.839)" fill="#fff"/>
            <path id="Path_5747-2" data-name="Path 5747" d="M35.893,30.125H30.8V21.5h5.093v1.889H33.1V24.7h2.546v1.889H33.1v1.643h2.793Z" transform="translate(-5.5 -3.839)" fill="#fff"/>
          </g>
        </g>
        <g id="Radio_Selected" data-name="Radio Selected" transform="translate(5 5)">
          <path id="Path_6085" data-name="Path 6085" d="M37,43.2a9.6,9.6,0,1,1-9.6,9.6A9.628,9.628,0,0,1,37,43.2m0-2.4a12,12,0,1,0,12,12,12.035,12.035,0,0,0-12-12Zm7.2,12A7.2,7.2,0,1,0,37,60,7.221,7.221,0,0,0,44.2,52.8Z" transform="translate(-25 -40.8)" fill="#2777d3"/>
        </g>
      </g>
      <g id="Group_264161" data-name="Group 264161" transform="translate(216 -175)">
        <g id="Gallery_radio_button-Large-NEW-3" data-name="Gallery radio button-Large-NEW" transform="translate(78 264)">
          <g id="Rectangle_4479-3" data-name="Rectangle 4479" fill="#fff" stroke="#606071" stroke-width="1">
            <rect width="130" height="183" rx="6" stroke="none"/>
            <rect x="0.5" y="0.5" width="129" height="182" rx="5.5" fill="none"/>
          </g>
          <path id="Path_10358" data-name="Path 10358" d="M-26.035,0h-5.653V-9.994h5.653v1.381h-4.02v2.721h3.767v1.367h-3.767v3.138h4.02Zm8.36,0h-1.613V-4.662a2.114,2.114,0,0,0-.328-1.3,1.211,1.211,0,0,0-1.025-.427A1.564,1.564,0,0,0-22-5.78a3.549,3.549,0,0,0-.434,2.013V0h-1.606V-7.561h1.258l.226.991h.082a2.1,2.1,0,0,1,.913-.834A2.943,2.943,0,0,1-20.251-7.7a2.3,2.3,0,0,1,2.311,1.189h.109a2.3,2.3,0,0,1,.943-.875A2.994,2.994,0,0,1-15.494-7.7a2.539,2.539,0,0,1,1.972.684A3.027,3.027,0,0,1-12.9-4.929V0h-1.606V-4.662a2.1,2.1,0,0,0-.332-1.3,1.221,1.221,0,0,0-1.029-.427A1.6,1.6,0,0,0-17.24-5.8a3.013,3.013,0,0,0-.434,1.794ZM-6.826.137A2.648,2.648,0,0,1-9.054-.9h-.1q.1.957.1,1.162v3.1h-1.606V-7.561h1.3q.055.212.226,1.012h.082A2.517,2.517,0,0,1-6.8-7.7a2.624,2.624,0,0,1,2.2,1.025A4.623,4.623,0,0,1-3.8-3.794,4.627,4.627,0,0,1-4.607-.9,2.648,2.648,0,0,1-6.826.137Zm-.39-6.521a1.67,1.67,0,0,0-1.4.561,2.905,2.905,0,0,0-.441,1.791v.239a3.536,3.536,0,0,0,.438,2,1.627,1.627,0,0,0,1.429.619A1.45,1.45,0,0,0-5.9-1.859a3.53,3.53,0,0,0,.451-1.948A3.407,3.407,0,0,0-5.9-5.732,1.494,1.494,0,0,0-7.215-6.385ZM-.332,0H-1.938V-10.637H-.332Zm9-3.794A4.127,4.127,0,0,1,7.721-.9,3.4,3.4,0,0,1,5.076.137,3.625,3.625,0,0,1,3.2-.342,3.159,3.159,0,0,1,1.952-1.716a4.68,4.68,0,0,1-.437-2.078,4.1,4.1,0,0,1,.943-2.871A3.42,3.42,0,0,1,5.117-7.7a3.331,3.331,0,0,1,2.6,1.056A4.08,4.08,0,0,1,8.671-3.794Zm-5.5,0q0,2.618,1.935,2.618,1.914,0,1.914-2.618,0-2.591-1.928-2.591a1.644,1.644,0,0,0-1.466.67A3.409,3.409,0,0,0,3.168-3.794Zm6.2-3.767h1.75l1.538,4.286a8.133,8.133,0,0,1,.465,1.723h.055a7.185,7.185,0,0,1,.226-.913q.164-.537,1.736-5.1h1.736L13.641,1A3.067,3.067,0,0,1,10.7,3.363a4.626,4.626,0,0,1-1.039-.116V1.976a3.765,3.765,0,0,0,.827.082A1.694,1.694,0,0,0,12.124.711L12.4,0ZM21.325.137A3.657,3.657,0,0,1,18.566-.892a3.906,3.906,0,0,1-.995-2.833,4.285,4.285,0,0,1,.923-2.912A3.188,3.188,0,0,1,21.031-7.7a3.116,3.116,0,0,1,2.365.909,3.474,3.474,0,0,1,.868,2.5v.868H19.226a2.483,2.483,0,0,0,.595,1.692,2.071,2.071,0,0,0,1.579.591,5.829,5.829,0,0,0,1.248-.126,6.539,6.539,0,0,0,1.241-.42V-.376a4.932,4.932,0,0,1-1.189.4A7.294,7.294,0,0,1,21.325.137ZM21.031-6.48A1.614,1.614,0,0,0,19.8-6a2.313,2.313,0,0,0-.55,1.415h3.432A2.093,2.093,0,0,0,22.234-6,1.543,1.543,0,0,0,21.031-6.48ZM29.391.137A3.657,3.657,0,0,1,26.633-.892a3.906,3.906,0,0,1-.995-2.833,4.285,4.285,0,0,1,.923-2.912A3.188,3.188,0,0,1,29.1-7.7a3.116,3.116,0,0,1,2.365.909,3.474,3.474,0,0,1,.868,2.5v.868H27.292a2.483,2.483,0,0,0,.595,1.692,2.071,2.071,0,0,0,1.579.591,5.829,5.829,0,0,0,1.248-.126,6.539,6.539,0,0,0,1.241-.42V-.376a4.932,4.932,0,0,1-1.189.4A7.294,7.294,0,0,1,29.391.137ZM29.1-6.48A1.614,1.614,0,0,0,27.87-6a2.313,2.313,0,0,0-.55,1.415h3.432A2.093,2.093,0,0,0,30.3-6,1.543,1.543,0,0,0,29.1-6.48ZM-25.836,19h-1.641V14.5h-4.607V19h-1.634V9.006h1.634v4.088h4.607V9.006h1.641Zm7.191,0-.321-1.053h-.055a3.1,3.1,0,0,1-1.1.94,3.481,3.481,0,0,1-1.422.25,2.406,2.406,0,0,1-1.74-.6,2.251,2.251,0,0,1-.625-1.7,2,2,0,0,1,.868-1.764A5.006,5.006,0,0,1-20.4,14.42l1.306-.041v-.4a1.529,1.529,0,0,0-.338-1.083,1.38,1.38,0,0,0-1.049-.359,3.628,3.628,0,0,0-1.114.171,8.409,8.409,0,0,0-1.025.4l-.52-1.148a5.591,5.591,0,0,1,1.347-.489,6.2,6.2,0,0,1,1.381-.167,3.27,3.27,0,0,1,2.177.629,2.462,2.462,0,0,1,.735,1.976V19Zm-2.393-1.094a1.99,1.99,0,0,0,1.4-.489,1.772,1.772,0,0,0,.53-1.371v-.656l-.971.041a3.321,3.321,0,0,0-1.651.379,1.153,1.153,0,0,0-.516,1.036,1.011,1.011,0,0,0,.3.783A1.292,1.292,0,0,0-21.038,17.906ZM-8.6,19h-1.613V14.352a2.034,2.034,0,0,0-.352-1.306,1.361,1.361,0,0,0-1.118-.431,1.777,1.777,0,0,0-1.49.6,3.321,3.321,0,0,0-.472,2.017V19h-1.606V11.439H-14l.226.991h.082a2.237,2.237,0,0,1,.971-.834,3.253,3.253,0,0,1,1.395-.294q2.721,0,2.721,2.769Zm4.785.137a2.633,2.633,0,0,1-2.208-1.025,4.609,4.609,0,0,1-.793-2.878,4.624,4.624,0,0,1,.8-2.9A2.658,2.658,0,0,1-3.791,11.3a2.606,2.606,0,0,1,2.27,1.1h.082a9.63,9.63,0,0,1-.116-1.285V8.363H.058V19H-1.2l-.28-.991h-.075A2.568,2.568,0,0,1-3.818,19.137Zm.431-1.3a1.748,1.748,0,0,0,1.442-.557,2.933,2.933,0,0,0,.465-1.808v-.226a3.389,3.389,0,0,0-.465-2.03,1.724,1.724,0,0,0-1.456-.6,1.477,1.477,0,0,0-1.306.687,3.521,3.521,0,0,0-.458,1.958,3.433,3.433,0,0,0,.444,1.917A1.5,1.5,0,0,0-3.387,17.838Zm9.6-6.535a2.624,2.624,0,0,1,2.2,1.025,4.623,4.623,0,0,1,.79,2.878,4.638,4.638,0,0,1-.8,2.9A2.649,2.649,0,0,1,6.19,19.137,2.648,2.648,0,0,1,3.961,18.1H3.852l-.294.9h-1.2V8.363H3.961v2.529q0,.28-.027.834t-.041.7h.068A2.551,2.551,0,0,1,6.217,11.3ZM5.8,12.615a1.633,1.633,0,0,0-1.4.571A3.321,3.321,0,0,0,3.961,15.1v.109a3.536,3.536,0,0,0,.438,2,1.627,1.627,0,0,0,1.429.619,1.448,1.448,0,0,0,1.3-.677,3.59,3.59,0,0,0,.441-1.955Q7.564,12.615,5.8,12.615Zm11.983,2.591a4.127,4.127,0,0,1-.95,2.892,3.4,3.4,0,0,1-2.646,1.039,3.625,3.625,0,0,1-1.873-.479,3.159,3.159,0,0,1-1.251-1.374,4.68,4.68,0,0,1-.437-2.078,4.1,4.1,0,0,1,.943-2.871A3.42,3.42,0,0,1,14.229,11.3a3.331,3.331,0,0,1,2.6,1.056A4.08,4.08,0,0,1,17.784,15.206Zm-5.5,0q0,2.618,1.935,2.618,1.914,0,1.914-2.618,0-2.591-1.928-2.591a1.644,1.644,0,0,0-1.466.67A3.409,3.409,0,0,0,12.281,15.206Zm14.055,0a4.127,4.127,0,0,1-.95,2.892,3.4,3.4,0,0,1-2.646,1.039,3.625,3.625,0,0,1-1.873-.479,3.159,3.159,0,0,1-1.251-1.374,4.68,4.68,0,0,1-.437-2.078,4.1,4.1,0,0,1,.943-2.871A3.42,3.42,0,0,1,22.781,11.3a3.331,3.331,0,0,1,2.6,1.056A4.08,4.08,0,0,1,26.335,15.206Zm-5.5,0q0,2.618,1.935,2.618,1.914,0,1.914-2.618,0-2.591-1.928-2.591a1.644,1.644,0,0,0-1.466.67A3.409,3.409,0,0,0,20.833,15.206Zm8.9-.2.909-1.135,2.283-2.434h1.853l-3.042,3.247L34.969,19H33.083l-2.427-3.315-.882.725V19H28.181V8.363h1.593v5.188l-.082,1.456Z" transform="translate(65 130)" fill="#3d3d3d"/>
          <g id="Group_7827-3" data-name="Group 7827" transform="translate(-78 -116)">
            <rect id="Rectangle_4483-3" data-name="Rectangle 4483" width="70" height="70" rx="4" transform="translate(108 146)" fill="none" opacity="0.5"/>
            <g id="Shadow_1_3" data-name="Shadow_1_" transform="translate(120 153.054)">
              <path id="Path_5743-3" data-name="Path 5743" d="M3.5,0H44.736a1.859,1.859,0,0,1,1.889,1.889h0V53.721a2,2,0,0,1-1.971,1.971H3.5" transform="translate(-0.625)" fill="#e04a39"/>
              <path id="Path_5744-3" data-name="Path 5744" d="M6.654,0H1.807A1.823,1.823,0,0,0,0,1.807H0V53.886a1.823,1.823,0,0,0,1.807,1.807H6.654" fill="#cc4434"/>
              <rect id="Rectangle_4122-3" data-name="Rectangle 4122" width="41.646" height="9.939" transform="translate(4.354 43.864)" fill="#cb4333"/>
              <path id="Path_5745-3" data-name="Path 5745" d="M7.275,55.1H47.2v7.311H7.275a.561.561,0,0,1-.575-.575V55.593A.549.549,0,0,1,7.275,55.1Z" transform="translate(-1.196 -9.839)" fill="#f1f2f2"/>
              <path id="Path_5746-3" data-name="Path 5746" d="M27.893,30.125H22.8V21.5h5.093v1.889H25.1V24.7h2.546v1.889H25.1v1.643h2.793Z" transform="translate(-4.071 -3.839)" fill="#fff"/>
              <path id="Path_5747-3" data-name="Path 5747" d="M35.893,30.125H30.8V21.5h5.093v1.889H33.1V24.7h2.546v1.889H33.1v1.643h2.793Z" transform="translate(-5.5 -3.839)" fill="#fff"/>
            </g>
          </g>
          <g id="Radio_Unselected" data-name="Radio Unselected" transform="translate(5 5)">
            <path id="Path_5843" data-name="Path 5843" d="M12,43.2a9.6,9.6,0,1,1-9.6,9.6A9.628,9.628,0,0,1,12,43.2m0-2.4a12,12,0,1,0,12,12,12.035,12.035,0,0,0-12-12Z" transform="translate(0 -40.8)" fill="#9494a4"/>
          </g>
        </g>
        <g id="Group_15324" data-name="Group 15324" transform="translate(-11818 -726)">
          <g id="noun_Pointer_44803" transform="translate(11911 1005)">
            <g id="Group_15298" data-name="Group 15298" transform="translate(0 0)" opacity="0.9">
              <path id="Path_10321" data-name="Path 10321" d="M26.5,27.034a8.04,8.04,0,0,1-7.962-7.224.347.347,0,0,1-.037-.156V14.783a1.94,1.94,0,0,1,1.9-1.97,1.854,1.854,0,0,1,1.143.395V5.385a1.906,1.906,0,1,1,3.81,0v5.468a1.854,1.854,0,0,1,1.143-.395,1.91,1.91,0,0,1,1.775,1.257,1.863,1.863,0,0,1,1.272-.5,1.919,1.919,0,0,1,1.837,1.449,1.86,1.86,0,0,1,1.211-.45,1.94,1.94,0,0,1,1.9,1.97v5.031a.375.375,0,0,1,0,.051A8.045,8.045,0,0,1,26.5,27.034Z" transform="translate(-18.501 -3.415)" fill="#fff"/>
            </g>
          </g>
          <g id="noun_Pointer_44803-2" data-name="noun_Pointer_44803" transform="translate(11911 1005)">
            <g id="Group_15298-2" data-name="Group 15298" transform="translate(0 0)" opacity="0.9">
              <path id="Path_10321-2" data-name="Path 10321" d="M26.5,27.034a8.04,8.04,0,0,1-7.962-7.224.347.347,0,0,1-.037-.156V14.783a1.94,1.94,0,0,1,1.9-1.97,1.854,1.854,0,0,1,1.143.395V5.385a1.906,1.906,0,1,1,3.81,0v5.468a1.854,1.854,0,0,1,1.143-.395,1.91,1.91,0,0,1,1.775,1.257,1.863,1.863,0,0,1,1.272-.5,1.919,1.919,0,0,1,1.837,1.449,1.86,1.86,0,0,1,1.211-.45,1.94,1.94,0,0,1,1.9,1.97v5.031a.375.375,0,0,1,0,.051A8.045,8.045,0,0,1,26.5,27.034Zm-7.238-7.51a.339.339,0,0,1,.024.1,7.238,7.238,0,0,0,14.45-.424q0-.016,0-.033V14.178a1.145,1.145,0,1,0-2.286,0,.381.381,0,0,1-.762,0v-1a1.145,1.145,0,1,0-2.286,0,.381.381,0,1,1-.762,0v-.752a1.145,1.145,0,1,0-2.286,0,.381.381,0,1,1-.762,0V5.385a1.145,1.145,0,1,0-2.286,0V18.21a.381.381,0,1,1-.762,0V14.783a1.145,1.145,0,1,0-2.286,0v4.741Z" transform="translate(-18.501 -3.415)"/>
            </g>
          </g>
        </g>
      </g>
      <g id="Group_264162" data-name="Group 264162" transform="translate(66 30)">
        <g id="Gallery_radio_button-Large-NEW-4" data-name="Gallery radio button-Large-NEW" transform="translate(228 264)">
          <g id="Rectangle_4479-4" data-name="Rectangle 4479" fill="#d0e2f6" stroke="#2777d3" stroke-width="2">
            <rect width="130" height="183" rx="6" stroke="none"/>
            <rect x="1" y="1" width="128" height="181" rx="5" fill="none"/>
          </g>
          <path id="Path_10363" data-name="Path 10363" d="M-26.035,0h-5.653V-9.994h5.653v1.381h-4.02v2.721h3.767v1.367h-3.767v3.138h4.02Zm8.36,0h-1.613V-4.662a2.114,2.114,0,0,0-.328-1.3,1.211,1.211,0,0,0-1.025-.427A1.564,1.564,0,0,0-22-5.78a3.549,3.549,0,0,0-.434,2.013V0h-1.606V-7.561h1.258l.226.991h.082a2.1,2.1,0,0,1,.913-.834A2.943,2.943,0,0,1-20.251-7.7a2.3,2.3,0,0,1,2.311,1.189h.109a2.3,2.3,0,0,1,.943-.875A2.994,2.994,0,0,1-15.494-7.7a2.539,2.539,0,0,1,1.972.684A3.027,3.027,0,0,1-12.9-4.929V0h-1.606V-4.662a2.1,2.1,0,0,0-.332-1.3,1.221,1.221,0,0,0-1.029-.427A1.6,1.6,0,0,0-17.24-5.8a3.013,3.013,0,0,0-.434,1.794ZM-6.826.137A2.648,2.648,0,0,1-9.054-.9h-.1q.1.957.1,1.162v3.1h-1.606V-7.561h1.3q.055.212.226,1.012h.082A2.517,2.517,0,0,1-6.8-7.7a2.624,2.624,0,0,1,2.2,1.025A4.623,4.623,0,0,1-3.8-3.794,4.627,4.627,0,0,1-4.607-.9,2.648,2.648,0,0,1-6.826.137Zm-.39-6.521a1.67,1.67,0,0,0-1.4.561,2.905,2.905,0,0,0-.441,1.791v.239a3.536,3.536,0,0,0,.438,2,1.627,1.627,0,0,0,1.429.619A1.45,1.45,0,0,0-5.9-1.859a3.53,3.53,0,0,0,.451-1.948A3.407,3.407,0,0,0-5.9-5.732,1.494,1.494,0,0,0-7.215-6.385ZM-.332,0H-1.938V-10.637H-.332Zm9-3.794A4.127,4.127,0,0,1,7.721-.9,3.4,3.4,0,0,1,5.076.137,3.625,3.625,0,0,1,3.2-.342,3.159,3.159,0,0,1,1.952-1.716a4.68,4.68,0,0,1-.437-2.078,4.1,4.1,0,0,1,.943-2.871A3.42,3.42,0,0,1,5.117-7.7a3.331,3.331,0,0,1,2.6,1.056A4.08,4.08,0,0,1,8.671-3.794Zm-5.5,0q0,2.618,1.935,2.618,1.914,0,1.914-2.618,0-2.591-1.928-2.591a1.644,1.644,0,0,0-1.466.67A3.409,3.409,0,0,0,3.168-3.794Zm6.2-3.767h1.75l1.538,4.286a8.133,8.133,0,0,1,.465,1.723h.055a7.185,7.185,0,0,1,.226-.913q.164-.537,1.736-5.1h1.736L13.641,1A3.067,3.067,0,0,1,10.7,3.363a4.626,4.626,0,0,1-1.039-.116V1.976a3.765,3.765,0,0,0,.827.082A1.694,1.694,0,0,0,12.124.711L12.4,0ZM21.325.137A3.657,3.657,0,0,1,18.566-.892a3.906,3.906,0,0,1-.995-2.833,4.285,4.285,0,0,1,.923-2.912A3.188,3.188,0,0,1,21.031-7.7a3.116,3.116,0,0,1,2.365.909,3.474,3.474,0,0,1,.868,2.5v.868H19.226a2.483,2.483,0,0,0,.595,1.692,2.071,2.071,0,0,0,1.579.591,5.829,5.829,0,0,0,1.248-.126,6.539,6.539,0,0,0,1.241-.42V-.376a4.932,4.932,0,0,1-1.189.4A7.294,7.294,0,0,1,21.325.137ZM21.031-6.48A1.614,1.614,0,0,0,19.8-6a2.313,2.313,0,0,0-.55,1.415h3.432A2.093,2.093,0,0,0,22.234-6,1.543,1.543,0,0,0,21.031-6.48ZM29.391.137A3.657,3.657,0,0,1,26.633-.892a3.906,3.906,0,0,1-.995-2.833,4.285,4.285,0,0,1,.923-2.912A3.188,3.188,0,0,1,29.1-7.7a3.116,3.116,0,0,1,2.365.909,3.474,3.474,0,0,1,.868,2.5v.868H27.292a2.483,2.483,0,0,0,.595,1.692,2.071,2.071,0,0,0,1.579.591,5.829,5.829,0,0,0,1.248-.126,6.539,6.539,0,0,0,1.241-.42V-.376a4.932,4.932,0,0,1-1.189.4A7.294,7.294,0,0,1,29.391.137ZM29.1-6.48A1.614,1.614,0,0,0,27.87-6a2.313,2.313,0,0,0-.55,1.415h3.432A2.093,2.093,0,0,0,30.3-6,1.543,1.543,0,0,0,29.1-6.48ZM-25.836,19h-1.641V14.5h-4.607V19h-1.634V9.006h1.634v4.088h4.607V9.006h1.641Zm7.191,0-.321-1.053h-.055a3.1,3.1,0,0,1-1.1.94,3.481,3.481,0,0,1-1.422.25,2.406,2.406,0,0,1-1.74-.6,2.251,2.251,0,0,1-.625-1.7,2,2,0,0,1,.868-1.764A5.006,5.006,0,0,1-20.4,14.42l1.306-.041v-.4a1.529,1.529,0,0,0-.338-1.083,1.38,1.38,0,0,0-1.049-.359,3.628,3.628,0,0,0-1.114.171,8.409,8.409,0,0,0-1.025.4l-.52-1.148a5.591,5.591,0,0,1,1.347-.489,6.2,6.2,0,0,1,1.381-.167,3.27,3.27,0,0,1,2.177.629,2.462,2.462,0,0,1,.735,1.976V19Zm-2.393-1.094a1.99,1.99,0,0,0,1.4-.489,1.772,1.772,0,0,0,.53-1.371v-.656l-.971.041a3.321,3.321,0,0,0-1.651.379,1.153,1.153,0,0,0-.516,1.036,1.011,1.011,0,0,0,.3.783A1.292,1.292,0,0,0-21.038,17.906ZM-8.6,19h-1.613V14.352a2.034,2.034,0,0,0-.352-1.306,1.361,1.361,0,0,0-1.118-.431,1.777,1.777,0,0,0-1.49.6,3.321,3.321,0,0,0-.472,2.017V19h-1.606V11.439H-14l.226.991h.082a2.237,2.237,0,0,1,.971-.834,3.253,3.253,0,0,1,1.395-.294q2.721,0,2.721,2.769Zm4.785.137a2.633,2.633,0,0,1-2.208-1.025,4.609,4.609,0,0,1-.793-2.878,4.624,4.624,0,0,1,.8-2.9A2.658,2.658,0,0,1-3.791,11.3a2.606,2.606,0,0,1,2.27,1.1h.082a9.63,9.63,0,0,1-.116-1.285V8.363H.058V19H-1.2l-.28-.991h-.075A2.568,2.568,0,0,1-3.818,19.137Zm.431-1.3a1.748,1.748,0,0,0,1.442-.557,2.933,2.933,0,0,0,.465-1.808v-.226a3.389,3.389,0,0,0-.465-2.03,1.724,1.724,0,0,0-1.456-.6,1.477,1.477,0,0,0-1.306.687,3.521,3.521,0,0,0-.458,1.958,3.433,3.433,0,0,0,.444,1.917A1.5,1.5,0,0,0-3.387,17.838Zm9.6-6.535a2.624,2.624,0,0,1,2.2,1.025,4.623,4.623,0,0,1,.79,2.878,4.638,4.638,0,0,1-.8,2.9A2.649,2.649,0,0,1,6.19,19.137,2.648,2.648,0,0,1,3.961,18.1H3.852l-.294.9h-1.2V8.363H3.961v2.529q0,.28-.027.834t-.041.7h.068A2.551,2.551,0,0,1,6.217,11.3ZM5.8,12.615a1.633,1.633,0,0,0-1.4.571A3.321,3.321,0,0,0,3.961,15.1v.109a3.536,3.536,0,0,0,.438,2,1.627,1.627,0,0,0,1.429.619,1.448,1.448,0,0,0,1.3-.677,3.59,3.59,0,0,0,.441-1.955Q7.564,12.615,5.8,12.615Zm11.983,2.591a4.127,4.127,0,0,1-.95,2.892,3.4,3.4,0,0,1-2.646,1.039,3.625,3.625,0,0,1-1.873-.479,3.159,3.159,0,0,1-1.251-1.374,4.68,4.68,0,0,1-.437-2.078,4.1,4.1,0,0,1,.943-2.871A3.42,3.42,0,0,1,14.229,11.3a3.331,3.331,0,0,1,2.6,1.056A4.08,4.08,0,0,1,17.784,15.206Zm-5.5,0q0,2.618,1.935,2.618,1.914,0,1.914-2.618,0-2.591-1.928-2.591a1.644,1.644,0,0,0-1.466.67A3.409,3.409,0,0,0,12.281,15.206Zm14.055,0a4.127,4.127,0,0,1-.95,2.892,3.4,3.4,0,0,1-2.646,1.039,3.625,3.625,0,0,1-1.873-.479,3.159,3.159,0,0,1-1.251-1.374,4.68,4.68,0,0,1-.437-2.078,4.1,4.1,0,0,1,.943-2.871A3.42,3.42,0,0,1,22.781,11.3a3.331,3.331,0,0,1,2.6,1.056A4.08,4.08,0,0,1,26.335,15.206Zm-5.5,0q0,2.618,1.935,2.618,1.914,0,1.914-2.618,0-2.591-1.928-2.591a1.644,1.644,0,0,0-1.466.67A3.409,3.409,0,0,0,20.833,15.206Zm8.9-.2.909-1.135,2.283-2.434h1.853l-3.042,3.247L34.969,19H33.083l-2.427-3.315-.882.725V19H28.181V8.363h1.593v5.188l-.082,1.456Z" transform="translate(65 130)" fill="#3d3d3d"/>
          <g id="Group_7827-4" data-name="Group 7827" transform="translate(-78 -116)">
            <rect id="Rectangle_4483-4" data-name="Rectangle 4483" width="70" height="70" rx="4" transform="translate(108 146)" fill="none" opacity="0.5"/>
            <g id="Shadow_1_4" data-name="Shadow_1_" transform="translate(120 153.054)">
              <path id="Path_5743-4" data-name="Path 5743" d="M3.5,0H44.736a1.859,1.859,0,0,1,1.889,1.889h0V53.721a2,2,0,0,1-1.971,1.971H3.5" transform="translate(-0.625)" fill="#e04a39"/>
              <path id="Path_5744-4" data-name="Path 5744" d="M6.654,0H1.807A1.823,1.823,0,0,0,0,1.807H0V53.886a1.823,1.823,0,0,0,1.807,1.807H6.654" fill="#cc4434"/>
              <rect id="Rectangle_4122-4" data-name="Rectangle 4122" width="41.646" height="9.939" transform="translate(4.354 43.864)" fill="#cb4333"/>
              <path id="Path_5745-4" data-name="Path 5745" d="M7.275,55.1H47.2v7.311H7.275a.561.561,0,0,1-.575-.575V55.593A.549.549,0,0,1,7.275,55.1Z" transform="translate(-1.196 -9.839)" fill="#f1f2f2"/>
              <path id="Path_5746-4" data-name="Path 5746" d="M27.893,30.125H22.8V21.5h5.093v1.889H25.1V24.7h2.546v1.889H25.1v1.643h2.793Z" transform="translate(-4.071 -3.839)" fill="#fff"/>
              <path id="Path_5747-4" data-name="Path 5747" d="M35.893,30.125H30.8V21.5h5.093v1.889H33.1V24.7h2.546v1.889H33.1v1.643h2.793Z" transform="translate(-5.5 -3.839)" fill="#fff"/>
            </g>
          </g>
          <g id="Radio_Selected-2" data-name="Radio Selected" transform="translate(5 5)">
            <path id="Path_6085-2" data-name="Path 6085" d="M37,43.2a9.6,9.6,0,1,1-9.6,9.6A9.628,9.628,0,0,1,37,43.2m0-2.4a12,12,0,1,0,12,12,12.035,12.035,0,0,0-12-12Zm7.2,12A7.2,7.2,0,1,0,37,60,7.221,7.221,0,0,0,44.2,52.8Z" transform="translate(-25 -40.8)" fill="#4e92df"/>
          </g>
        </g>
        <g id="Group_264145" data-name="Group 264145" transform="translate(-11668 -726)">
          <g id="noun_Pointer_44803-3" data-name="noun_Pointer_44803" transform="translate(11911 1005)">
            <g id="Group_15298-3" data-name="Group 15298" transform="translate(0 0)" opacity="0.9">
              <path id="Path_10321-3" data-name="Path 10321" d="M26.5,27.034a8.04,8.04,0,0,1-7.962-7.224.347.347,0,0,1-.037-.156V14.783a1.94,1.94,0,0,1,1.9-1.97,1.854,1.854,0,0,1,1.143.395V5.385a1.906,1.906,0,1,1,3.81,0v5.468a1.854,1.854,0,0,1,1.143-.395,1.91,1.91,0,0,1,1.775,1.257,1.863,1.863,0,0,1,1.272-.5,1.919,1.919,0,0,1,1.837,1.449,1.86,1.86,0,0,1,1.211-.45,1.94,1.94,0,0,1,1.9,1.97v5.031a.375.375,0,0,1,0,.051A8.045,8.045,0,0,1,26.5,27.034Z" transform="translate(-18.501 -3.415)" fill="#fff"/>
            </g>
          </g>
          <g id="noun_Pointer_44803-4" data-name="noun_Pointer_44803" transform="translate(11911 1005)">
            <g id="Group_15298-4" data-name="Group 15298" transform="translate(0 0)" opacity="0.9">
              <path id="Path_10321-4" data-name="Path 10321" d="M26.5,27.034a8.04,8.04,0,0,1-7.962-7.224.347.347,0,0,1-.037-.156V14.783a1.94,1.94,0,0,1,1.9-1.97,1.854,1.854,0,0,1,1.143.395V5.385a1.906,1.906,0,1,1,3.81,0v5.468a1.854,1.854,0,0,1,1.143-.395,1.91,1.91,0,0,1,1.775,1.257,1.863,1.863,0,0,1,1.272-.5,1.919,1.919,0,0,1,1.837,1.449,1.86,1.86,0,0,1,1.211-.45,1.94,1.94,0,0,1,1.9,1.97v5.031a.375.375,0,0,1,0,.051A8.045,8.045,0,0,1,26.5,27.034Zm-7.238-7.51a.339.339,0,0,1,.024.1,7.238,7.238,0,0,0,14.45-.424q0-.016,0-.033V14.178a1.145,1.145,0,1,0-2.286,0,.381.381,0,0,1-.762,0v-1a1.145,1.145,0,1,0-2.286,0,.381.381,0,1,1-.762,0v-.752a1.145,1.145,0,1,0-2.286,0,.381.381,0,1,1-.762,0V5.385a1.145,1.145,0,1,0-2.286,0V18.21a.381.381,0,1,1-.762,0V14.783a1.145,1.145,0,1,0-2.286,0v4.741Z" transform="translate(-18.501 -3.415)"/>
            </g>
          </g>
        </g>
      </g>
      <path id="Path_10338" data-name="Path 10338" d="M3.578-5.008H1.391V-3.07H3.414v.59H1.391V0H.734V-5.6H3.578ZM6.227.094A1.855,1.855,0,0,1,4.811-.467a2.076,2.076,0,0,1-.529-1.486,2.163,2.163,0,0,1,.551-1.574A1.98,1.98,0,0,1,6.32-4.094a1.794,1.794,0,0,1,1.4.551,2.184,2.184,0,0,1,.5,1.527A2.149,2.149,0,0,1,7.678-.482,1.9,1.9,0,0,1,6.227.094Zm.047-3.648a1.219,1.219,0,0,0-.977.42,1.725,1.725,0,0,0-.359,1.158A1.631,1.631,0,0,0,5.3-.855a1.235,1.235,0,0,0,.973.41,1.171,1.171,0,0,0,.955-.4,1.746,1.746,0,0,0,.334-1.145,1.776,1.776,0,0,0-.334-1.156A1.166,1.166,0,0,0,6.273-3.555Zm5.7,3.371a2.082,2.082,0,0,1-1.094.277A1.811,1.811,0,0,1,9.494-.463a2.017,2.017,0,0,1-.525-1.443,2.218,2.218,0,0,1,.566-1.588,1.981,1.981,0,0,1,1.512-.6,2.1,2.1,0,0,1,.93.2v.656a1.629,1.629,0,0,0-.953-.312,1.288,1.288,0,0,0-1.006.439,1.668,1.668,0,0,0-.393,1.154A1.588,1.588,0,0,0,9.994-.852a1.272,1.272,0,0,0,.99.406,1.606,1.606,0,0,0,.984-.348Zm4.2.184h-.641V-.633h-.016a1.316,1.316,0,0,1-1.234.727q-1.43,0-1.43-1.7V-4h.637v2.289q0,1.266.969,1.266a.98.98,0,0,0,.771-.346,1.323,1.323,0,0,0,.3-.9V-4h.641Zm1.051-.145V-.832a1.9,1.9,0,0,0,1.152.387q.844,0,.844-.562a.488.488,0,0,0-.072-.271.72.72,0,0,0-.2-.2,1.5,1.5,0,0,0-.289-.154Q18.5-1.7,18.3-1.773a4.6,4.6,0,0,1-.467-.213,1.41,1.41,0,0,1-.336-.242.9.9,0,0,1-.2-.307,1.085,1.085,0,0,1-.068-.4.956.956,0,0,1,.129-.5A1.143,1.143,0,0,1,17.7-3.8a1.6,1.6,0,0,1,.49-.221,2.175,2.175,0,0,1,.568-.074,2.3,2.3,0,0,1,.93.18v.648a1.812,1.812,0,0,0-1.016-.289,1.187,1.187,0,0,0-.324.041A.794.794,0,0,0,18.1-3.4a.532.532,0,0,0-.16.178.468.468,0,0,0-.057.229.548.548,0,0,0,.057.262.576.576,0,0,0,.166.188,1.269,1.269,0,0,0,.266.148q.156.066.355.145a4.947,4.947,0,0,1,.477.209,1.635,1.635,0,0,1,.359.242.946.946,0,0,1,.229.311,1,1,0,0,1,.08.418.985.985,0,0,1-.131.516,1.122,1.122,0,0,1-.35.363,1.6,1.6,0,0,1-.5.215,2.488,2.488,0,0,1-.6.07A2.269,2.269,0,0,1,17.223-.145Zm6.852-1.7H21.25a1.5,1.5,0,0,0,.359,1.031,1.239,1.239,0,0,0,.945.363A1.965,1.965,0,0,0,23.8-.891v.6A2.322,2.322,0,0,1,22.4.094,1.691,1.691,0,0,1,21.07-.451a2.23,2.23,0,0,1-.484-1.533,2.187,2.187,0,0,1,.529-1.521,1.7,1.7,0,0,1,1.314-.588,1.5,1.5,0,0,1,1.215.508,2.117,2.117,0,0,1,.43,1.41Zm-.656-.543a1.3,1.3,0,0,0-.268-.863.912.912,0,0,0-.732-.309,1.035,1.035,0,0,0-.77.324,1.471,1.471,0,0,0-.391.848ZM28.457,0h-.641V-.68H27.8a1.479,1.479,0,0,1-1.375.773,1.494,1.494,0,0,1-1.205-.537,2.2,2.2,0,0,1-.451-1.463,2.4,2.4,0,0,1,.5-1.59,1.649,1.649,0,0,1,1.332-.6,1.282,1.282,0,0,1,1.2.648h.016V-5.922h.641Zm-.641-1.809V-2.4a1.144,1.144,0,0,0-.32-.82,1.074,1.074,0,0,0-.812-.336,1.106,1.106,0,0,0-.922.43,1.883,1.883,0,0,0-.336,1.188,1.693,1.693,0,0,0,.322,1.092,1.053,1.053,0,0,0,.865.4,1.094,1.094,0,0,0,.869-.387A1.441,1.441,0,0,0,27.816-1.809Z" transform="translate(497 65)" fill="#c6318c"/>
      <path id="Path_10339" data-name="Path 10339" d="M.734,0V-5.6H2.281q2.961,0,2.961,2.73A2.752,2.752,0,0,1,4.42-.787,3.05,3.05,0,0,1,2.219,0Zm.656-5.008V-.594h.836a2.372,2.372,0,0,0,1.715-.59,2.211,2.211,0,0,0,.613-1.672q0-2.152-2.289-2.152Zm5.2-.008a.406.406,0,0,1-.293-.117.4.4,0,0,1-.121-.3.4.4,0,0,1,.121-.3.4.4,0,0,1,.293-.119.414.414,0,0,1,.3.119.4.4,0,0,1,.123.3.4.4,0,0,1-.123.293A.41.41,0,0,1,6.586-5.016ZM6.9,0H6.258V-4H6.9ZM7.953-.145V-.832a1.9,1.9,0,0,0,1.152.387q.844,0,.844-.562a.488.488,0,0,0-.072-.271.72.72,0,0,0-.2-.2,1.5,1.5,0,0,0-.289-.154q-.166-.068-.357-.143a4.6,4.6,0,0,1-.467-.213,1.41,1.41,0,0,1-.336-.242.9.9,0,0,1-.2-.307,1.085,1.085,0,0,1-.068-.4.956.956,0,0,1,.129-.5A1.143,1.143,0,0,1,8.434-3.8a1.6,1.6,0,0,1,.49-.221,2.175,2.175,0,0,1,.568-.074,2.3,2.3,0,0,1,.93.18v.648a1.812,1.812,0,0,0-1.016-.289,1.187,1.187,0,0,0-.324.041.794.794,0,0,0-.248.115.532.532,0,0,0-.16.178.468.468,0,0,0-.057.229.548.548,0,0,0,.057.262.576.576,0,0,0,.166.188,1.269,1.269,0,0,0,.266.148q.156.066.355.145a4.947,4.947,0,0,1,.477.209A1.634,1.634,0,0,1,10.3-1.8a.946.946,0,0,1,.229.311,1,1,0,0,1,.08.418.985.985,0,0,1-.131.516,1.122,1.122,0,0,1-.35.363,1.6,1.6,0,0,1-.5.215,2.488,2.488,0,0,1-.6.07A2.269,2.269,0,0,1,7.953-.145Zm6.5.145h-.641V-.625H13.8a1.341,1.341,0,0,1-1.23.719,1.315,1.315,0,0,1-.936-.316,1.1,1.1,0,0,1-.338-.84q0-1.121,1.32-1.3l1.2-.168q0-1.02-.824-1.02a1.969,1.969,0,0,0-1.3.492v-.656a2.479,2.479,0,0,1,1.359-.375q1.41,0,1.41,1.492Zm-.641-2.023-.965.133a1.567,1.567,0,0,0-.672.221.637.637,0,0,0-.227.561.611.611,0,0,0,.209.479.808.808,0,0,0,.557.186A1.028,1.028,0,0,0,13.5-.779a1.193,1.193,0,0,0,.311-.846Zm2.5,1.445H16.3V0H15.66V-5.922H16.3V-3.3h.016a1.515,1.515,0,0,1,1.383-.8,1.466,1.466,0,0,1,1.205.537,2.218,2.218,0,0,1,.436,1.439A2.479,2.479,0,0,1,18.852-.51a1.626,1.626,0,0,1-1.336.6A1.316,1.316,0,0,1,16.316-.578ZM16.3-2.191v.559a1.189,1.189,0,0,0,.322.842,1.07,1.07,0,0,0,.818.346,1.072,1.072,0,0,0,.912-.445,2.043,2.043,0,0,0,.33-1.238,1.613,1.613,0,0,0-.309-1.047,1.021,1.021,0,0,0-.836-.379,1.135,1.135,0,0,0-.9.389A1.427,1.427,0,0,0,16.3-2.191ZM21,0h-.641V-5.922H21Zm4.512-1.84H22.691a1.5,1.5,0,0,0,.359,1.031A1.239,1.239,0,0,0,24-.445a1.965,1.965,0,0,0,1.242-.445v.6a2.322,2.322,0,0,1-1.395.383,1.691,1.691,0,0,1-1.332-.545,2.23,2.23,0,0,1-.484-1.533,2.187,2.187,0,0,1,.529-1.521,1.7,1.7,0,0,1,1.314-.588,1.5,1.5,0,0,1,1.215.508,2.117,2.117,0,0,1,.43,1.41Zm-.656-.543a1.3,1.3,0,0,0-.268-.863.912.912,0,0,0-.732-.309,1.035,1.035,0,0,0-.77.324,1.471,1.471,0,0,0-.391.848ZM29.9,0h-.641V-.68h-.016a1.479,1.479,0,0,1-1.375.773,1.494,1.494,0,0,1-1.205-.537,2.2,2.2,0,0,1-.451-1.463,2.4,2.4,0,0,1,.5-1.59,1.649,1.649,0,0,1,1.332-.6,1.282,1.282,0,0,1,1.2.648h.016V-5.922H29.9Zm-.641-1.809V-2.4a1.144,1.144,0,0,0-.32-.82,1.074,1.074,0,0,0-.812-.336,1.106,1.106,0,0,0-.922.43,1.883,1.883,0,0,0-.336,1.188,1.693,1.693,0,0,0,.322,1.092,1.053,1.053,0,0,0,.865.4,1.094,1.094,0,0,0,.869-.387A1.441,1.441,0,0,0,29.258-1.809Z" transform="translate(647 65)" fill="#c6318c"/>
      <g id="Gallery_radio_button-Large-NEW-5" data-name="Gallery radio button-Large-NEW" transform="translate(444 87)">
        <g id="Rectangle_4479-5" data-name="Rectangle 4479" transform="translate(2 2)" fill="#fff" stroke="#c6c6c6" stroke-width="1">
          <rect width="130" height="183" rx="6" stroke="none"/>
          <rect x="0.5" y="0.5" width="129" height="182" rx="5.5" fill="none"/>
        </g>
        <path id="Path_10359" data-name="Path 10359" d="M-26.035,0h-5.653V-9.994h5.653v1.381h-4.02v2.721h3.767v1.367h-3.767v3.138h4.02Zm8.36,0h-1.613V-4.662a2.114,2.114,0,0,0-.328-1.3,1.211,1.211,0,0,0-1.025-.427A1.564,1.564,0,0,0-22-5.78a3.549,3.549,0,0,0-.434,2.013V0h-1.606V-7.561h1.258l.226.991h.082a2.1,2.1,0,0,1,.913-.834A2.943,2.943,0,0,1-20.251-7.7a2.3,2.3,0,0,1,2.311,1.189h.109a2.3,2.3,0,0,1,.943-.875A2.994,2.994,0,0,1-15.494-7.7a2.539,2.539,0,0,1,1.972.684A3.027,3.027,0,0,1-12.9-4.929V0h-1.606V-4.662a2.1,2.1,0,0,0-.332-1.3,1.221,1.221,0,0,0-1.029-.427A1.6,1.6,0,0,0-17.24-5.8a3.013,3.013,0,0,0-.434,1.794ZM-6.826.137A2.648,2.648,0,0,1-9.054-.9h-.1q.1.957.1,1.162v3.1h-1.606V-7.561h1.3q.055.212.226,1.012h.082A2.517,2.517,0,0,1-6.8-7.7a2.624,2.624,0,0,1,2.2,1.025A4.623,4.623,0,0,1-3.8-3.794,4.627,4.627,0,0,1-4.607-.9,2.648,2.648,0,0,1-6.826.137Zm-.39-6.521a1.67,1.67,0,0,0-1.4.561,2.905,2.905,0,0,0-.441,1.791v.239a3.536,3.536,0,0,0,.438,2,1.627,1.627,0,0,0,1.429.619A1.45,1.45,0,0,0-5.9-1.859a3.53,3.53,0,0,0,.451-1.948A3.407,3.407,0,0,0-5.9-5.732,1.494,1.494,0,0,0-7.215-6.385ZM-.332,0H-1.938V-10.637H-.332Zm9-3.794A4.127,4.127,0,0,1,7.721-.9,3.4,3.4,0,0,1,5.076.137,3.625,3.625,0,0,1,3.2-.342,3.159,3.159,0,0,1,1.952-1.716a4.68,4.68,0,0,1-.437-2.078,4.1,4.1,0,0,1,.943-2.871A3.42,3.42,0,0,1,5.117-7.7a3.331,3.331,0,0,1,2.6,1.056A4.08,4.08,0,0,1,8.671-3.794Zm-5.5,0q0,2.618,1.935,2.618,1.914,0,1.914-2.618,0-2.591-1.928-2.591a1.644,1.644,0,0,0-1.466.67A3.409,3.409,0,0,0,3.168-3.794Zm6.2-3.767h1.75l1.538,4.286a8.133,8.133,0,0,1,.465,1.723h.055a7.185,7.185,0,0,1,.226-.913q.164-.537,1.736-5.1h1.736L13.641,1A3.067,3.067,0,0,1,10.7,3.363a4.626,4.626,0,0,1-1.039-.116V1.976a3.765,3.765,0,0,0,.827.082A1.694,1.694,0,0,0,12.124.711L12.4,0ZM21.325.137A3.657,3.657,0,0,1,18.566-.892a3.906,3.906,0,0,1-.995-2.833,4.285,4.285,0,0,1,.923-2.912A3.188,3.188,0,0,1,21.031-7.7a3.116,3.116,0,0,1,2.365.909,3.474,3.474,0,0,1,.868,2.5v.868H19.226a2.483,2.483,0,0,0,.595,1.692,2.071,2.071,0,0,0,1.579.591,5.829,5.829,0,0,0,1.248-.126,6.539,6.539,0,0,0,1.241-.42V-.376a4.932,4.932,0,0,1-1.189.4A7.294,7.294,0,0,1,21.325.137ZM21.031-6.48A1.614,1.614,0,0,0,19.8-6a2.313,2.313,0,0,0-.55,1.415h3.432A2.093,2.093,0,0,0,22.234-6,1.543,1.543,0,0,0,21.031-6.48ZM29.391.137A3.657,3.657,0,0,1,26.633-.892a3.906,3.906,0,0,1-.995-2.833,4.285,4.285,0,0,1,.923-2.912A3.188,3.188,0,0,1,29.1-7.7a3.116,3.116,0,0,1,2.365.909,3.474,3.474,0,0,1,.868,2.5v.868H27.292a2.483,2.483,0,0,0,.595,1.692,2.071,2.071,0,0,0,1.579.591,5.829,5.829,0,0,0,1.248-.126,6.539,6.539,0,0,0,1.241-.42V-.376a4.932,4.932,0,0,1-1.189.4A7.294,7.294,0,0,1,29.391.137ZM29.1-6.48A1.614,1.614,0,0,0,27.87-6a2.313,2.313,0,0,0-.55,1.415h3.432A2.093,2.093,0,0,0,30.3-6,1.543,1.543,0,0,0,29.1-6.48ZM-25.836,19h-1.641V14.5h-4.607V19h-1.634V9.006h1.634v4.088h4.607V9.006h1.641Zm7.191,0-.321-1.053h-.055a3.1,3.1,0,0,1-1.1.94,3.481,3.481,0,0,1-1.422.25,2.406,2.406,0,0,1-1.74-.6,2.251,2.251,0,0,1-.625-1.7,2,2,0,0,1,.868-1.764A5.006,5.006,0,0,1-20.4,14.42l1.306-.041v-.4a1.529,1.529,0,0,0-.338-1.083,1.38,1.38,0,0,0-1.049-.359,3.628,3.628,0,0,0-1.114.171,8.409,8.409,0,0,0-1.025.4l-.52-1.148a5.591,5.591,0,0,1,1.347-.489,6.2,6.2,0,0,1,1.381-.167,3.27,3.27,0,0,1,2.177.629,2.462,2.462,0,0,1,.735,1.976V19Zm-2.393-1.094a1.99,1.99,0,0,0,1.4-.489,1.772,1.772,0,0,0,.53-1.371v-.656l-.971.041a3.321,3.321,0,0,0-1.651.379,1.153,1.153,0,0,0-.516,1.036,1.011,1.011,0,0,0,.3.783A1.292,1.292,0,0,0-21.038,17.906ZM-8.6,19h-1.613V14.352a2.034,2.034,0,0,0-.352-1.306,1.361,1.361,0,0,0-1.118-.431,1.777,1.777,0,0,0-1.49.6,3.321,3.321,0,0,0-.472,2.017V19h-1.606V11.439H-14l.226.991h.082a2.237,2.237,0,0,1,.971-.834,3.253,3.253,0,0,1,1.395-.294q2.721,0,2.721,2.769Zm4.785.137a2.633,2.633,0,0,1-2.208-1.025,4.609,4.609,0,0,1-.793-2.878,4.624,4.624,0,0,1,.8-2.9A2.658,2.658,0,0,1-3.791,11.3a2.606,2.606,0,0,1,2.27,1.1h.082a9.63,9.63,0,0,1-.116-1.285V8.363H.058V19H-1.2l-.28-.991h-.075A2.568,2.568,0,0,1-3.818,19.137Zm.431-1.3a1.748,1.748,0,0,0,1.442-.557,2.933,2.933,0,0,0,.465-1.808v-.226a3.389,3.389,0,0,0-.465-2.03,1.724,1.724,0,0,0-1.456-.6,1.477,1.477,0,0,0-1.306.687,3.521,3.521,0,0,0-.458,1.958,3.433,3.433,0,0,0,.444,1.917A1.5,1.5,0,0,0-3.387,17.838Zm9.6-6.535a2.624,2.624,0,0,1,2.2,1.025,4.623,4.623,0,0,1,.79,2.878,4.638,4.638,0,0,1-.8,2.9A2.649,2.649,0,0,1,6.19,19.137,2.648,2.648,0,0,1,3.961,18.1H3.852l-.294.9h-1.2V8.363H3.961v2.529q0,.28-.027.834t-.041.7h.068A2.551,2.551,0,0,1,6.217,11.3ZM5.8,12.615a1.633,1.633,0,0,0-1.4.571A3.321,3.321,0,0,0,3.961,15.1v.109a3.536,3.536,0,0,0,.438,2,1.627,1.627,0,0,0,1.429.619,1.448,1.448,0,0,0,1.3-.677,3.59,3.59,0,0,0,.441-1.955Q7.564,12.615,5.8,12.615Zm11.983,2.591a4.127,4.127,0,0,1-.95,2.892,3.4,3.4,0,0,1-2.646,1.039,3.625,3.625,0,0,1-1.873-.479,3.159,3.159,0,0,1-1.251-1.374,4.68,4.68,0,0,1-.437-2.078,4.1,4.1,0,0,1,.943-2.871A3.42,3.42,0,0,1,14.229,11.3a3.331,3.331,0,0,1,2.6,1.056A4.08,4.08,0,0,1,17.784,15.206Zm-5.5,0q0,2.618,1.935,2.618,1.914,0,1.914-2.618,0-2.591-1.928-2.591a1.644,1.644,0,0,0-1.466.67A3.409,3.409,0,0,0,12.281,15.206Zm14.055,0a4.127,4.127,0,0,1-.95,2.892,3.4,3.4,0,0,1-2.646,1.039,3.625,3.625,0,0,1-1.873-.479,3.159,3.159,0,0,1-1.251-1.374,4.68,4.68,0,0,1-.437-2.078,4.1,4.1,0,0,1,.943-2.871A3.42,3.42,0,0,1,22.781,11.3a3.331,3.331,0,0,1,2.6,1.056A4.08,4.08,0,0,1,26.335,15.206Zm-5.5,0q0,2.618,1.935,2.618,1.914,0,1.914-2.618,0-2.591-1.928-2.591a1.644,1.644,0,0,0-1.466.67A3.409,3.409,0,0,0,20.833,15.206Zm8.9-.2.909-1.135,2.283-2.434h1.853l-3.042,3.247L34.969,19H33.083l-2.427-3.315-.882.725V19H28.181V8.363h1.593v5.188l-.082,1.456Z" transform="translate(67 132)" fill="#3d3d3d"/>
        <g id="Group_7827-5" data-name="Group 7827" transform="translate(-76 -114)">
          <rect id="Rectangle_4483-5" data-name="Rectangle 4483" width="70" height="70" rx="4" transform="translate(108 146)" fill="none" opacity="0.5"/>
          <g id="Shadow_1_5" data-name="Shadow_1_" transform="translate(120 153.054)">
            <path id="Path_5743-5" data-name="Path 5743" d="M3.5,0H44.736a1.859,1.859,0,0,1,1.889,1.889h0V53.721a2,2,0,0,1-1.971,1.971H3.5" transform="translate(-0.625)" fill="#e04a39"/>
            <path id="Path_5744-5" data-name="Path 5744" d="M6.654,0H1.807A1.823,1.823,0,0,0,0,1.807H0V53.886a1.823,1.823,0,0,0,1.807,1.807H6.654" fill="#cc4434"/>
            <rect id="Rectangle_4122-5" data-name="Rectangle 4122" width="41.646" height="9.939" transform="translate(4.354 43.864)" fill="#cb4333"/>
            <path id="Path_5745-5" data-name="Path 5745" d="M7.275,55.1H47.2v7.311H7.275a.561.561,0,0,1-.575-.575V55.593A.549.549,0,0,1,7.275,55.1Z" transform="translate(-1.196 -9.839)" fill="#f1f2f2"/>
            <path id="Path_5746-5" data-name="Path 5746" d="M27.893,30.125H22.8V21.5h5.093v1.889H25.1V24.7h2.546v1.889H25.1v1.643h2.793Z" transform="translate(-4.071 -3.839)" fill="#fff"/>
            <path id="Path_5747-5" data-name="Path 5747" d="M35.893,30.125H30.8V21.5h5.093v1.889H33.1V24.7h2.546v1.889H33.1v1.643h2.793Z" transform="translate(-5.5 -3.839)" fill="#fff"/>
          </g>
        </g>
        <g id="Rectangle_8160" data-name="Rectangle 8160" fill="none" stroke="#2777d3" stroke-width="1">
          <rect width="134" height="187" rx="7" stroke="none"/>
          <rect x="0.5" y="0.5" width="133" height="186" rx="6.5" fill="none"/>
        </g>
      </g>
      <g id="Gallery_radio_button-Large-NEW-6" data-name="Gallery radio button-Large-NEW" transform="translate(444 292)">
        <g id="Rectangle_4479-6" data-name="Rectangle 4479" transform="translate(2 2)" fill="#d0e2f6" stroke="#2777d3" stroke-width="2">
          <rect width="130" height="183" rx="6" stroke="none"/>
          <rect x="1" y="1" width="128" height="181" rx="5" fill="none"/>
        </g>
        <path id="Path_10362" data-name="Path 10362" d="M-26.035,0h-5.653V-9.994h5.653v1.381h-4.02v2.721h3.767v1.367h-3.767v3.138h4.02Zm8.36,0h-1.613V-4.662a2.114,2.114,0,0,0-.328-1.3,1.211,1.211,0,0,0-1.025-.427A1.564,1.564,0,0,0-22-5.78a3.549,3.549,0,0,0-.434,2.013V0h-1.606V-7.561h1.258l.226.991h.082a2.1,2.1,0,0,1,.913-.834A2.943,2.943,0,0,1-20.251-7.7a2.3,2.3,0,0,1,2.311,1.189h.109a2.3,2.3,0,0,1,.943-.875A2.994,2.994,0,0,1-15.494-7.7a2.539,2.539,0,0,1,1.972.684A3.027,3.027,0,0,1-12.9-4.929V0h-1.606V-4.662a2.1,2.1,0,0,0-.332-1.3,1.221,1.221,0,0,0-1.029-.427A1.6,1.6,0,0,0-17.24-5.8a3.013,3.013,0,0,0-.434,1.794ZM-6.826.137A2.648,2.648,0,0,1-9.054-.9h-.1q.1.957.1,1.162v3.1h-1.606V-7.561h1.3q.055.212.226,1.012h.082A2.517,2.517,0,0,1-6.8-7.7a2.624,2.624,0,0,1,2.2,1.025A4.623,4.623,0,0,1-3.8-3.794,4.627,4.627,0,0,1-4.607-.9,2.648,2.648,0,0,1-6.826.137Zm-.39-6.521a1.67,1.67,0,0,0-1.4.561,2.905,2.905,0,0,0-.441,1.791v.239a3.536,3.536,0,0,0,.438,2,1.627,1.627,0,0,0,1.429.619A1.45,1.45,0,0,0-5.9-1.859a3.53,3.53,0,0,0,.451-1.948A3.407,3.407,0,0,0-5.9-5.732,1.494,1.494,0,0,0-7.215-6.385ZM-.332,0H-1.938V-10.637H-.332Zm9-3.794A4.127,4.127,0,0,1,7.721-.9,3.4,3.4,0,0,1,5.076.137,3.625,3.625,0,0,1,3.2-.342,3.159,3.159,0,0,1,1.952-1.716a4.68,4.68,0,0,1-.437-2.078,4.1,4.1,0,0,1,.943-2.871A3.42,3.42,0,0,1,5.117-7.7a3.331,3.331,0,0,1,2.6,1.056A4.08,4.08,0,0,1,8.671-3.794Zm-5.5,0q0,2.618,1.935,2.618,1.914,0,1.914-2.618,0-2.591-1.928-2.591a1.644,1.644,0,0,0-1.466.67A3.409,3.409,0,0,0,3.168-3.794Zm6.2-3.767h1.75l1.538,4.286a8.133,8.133,0,0,1,.465,1.723h.055a7.185,7.185,0,0,1,.226-.913q.164-.537,1.736-5.1h1.736L13.641,1A3.067,3.067,0,0,1,10.7,3.363a4.626,4.626,0,0,1-1.039-.116V1.976a3.765,3.765,0,0,0,.827.082A1.694,1.694,0,0,0,12.124.711L12.4,0ZM21.325.137A3.657,3.657,0,0,1,18.566-.892a3.906,3.906,0,0,1-.995-2.833,4.285,4.285,0,0,1,.923-2.912A3.188,3.188,0,0,1,21.031-7.7a3.116,3.116,0,0,1,2.365.909,3.474,3.474,0,0,1,.868,2.5v.868H19.226a2.483,2.483,0,0,0,.595,1.692,2.071,2.071,0,0,0,1.579.591,5.829,5.829,0,0,0,1.248-.126,6.539,6.539,0,0,0,1.241-.42V-.376a4.932,4.932,0,0,1-1.189.4A7.294,7.294,0,0,1,21.325.137ZM21.031-6.48A1.614,1.614,0,0,0,19.8-6a2.313,2.313,0,0,0-.55,1.415h3.432A2.093,2.093,0,0,0,22.234-6,1.543,1.543,0,0,0,21.031-6.48ZM29.391.137A3.657,3.657,0,0,1,26.633-.892a3.906,3.906,0,0,1-.995-2.833,4.285,4.285,0,0,1,.923-2.912A3.188,3.188,0,0,1,29.1-7.7a3.116,3.116,0,0,1,2.365.909,3.474,3.474,0,0,1,.868,2.5v.868H27.292a2.483,2.483,0,0,0,.595,1.692,2.071,2.071,0,0,0,1.579.591,5.829,5.829,0,0,0,1.248-.126,6.539,6.539,0,0,0,1.241-.42V-.376a4.932,4.932,0,0,1-1.189.4A7.294,7.294,0,0,1,29.391.137ZM29.1-6.48A1.614,1.614,0,0,0,27.87-6a2.313,2.313,0,0,0-.55,1.415h3.432A2.093,2.093,0,0,0,30.3-6,1.543,1.543,0,0,0,29.1-6.48ZM-25.836,19h-1.641V14.5h-4.607V19h-1.634V9.006h1.634v4.088h4.607V9.006h1.641Zm7.191,0-.321-1.053h-.055a3.1,3.1,0,0,1-1.1.94,3.481,3.481,0,0,1-1.422.25,2.406,2.406,0,0,1-1.74-.6,2.251,2.251,0,0,1-.625-1.7,2,2,0,0,1,.868-1.764A5.006,5.006,0,0,1-20.4,14.42l1.306-.041v-.4a1.529,1.529,0,0,0-.338-1.083,1.38,1.38,0,0,0-1.049-.359,3.628,3.628,0,0,0-1.114.171,8.409,8.409,0,0,0-1.025.4l-.52-1.148a5.591,5.591,0,0,1,1.347-.489,6.2,6.2,0,0,1,1.381-.167,3.27,3.27,0,0,1,2.177.629,2.462,2.462,0,0,1,.735,1.976V19Zm-2.393-1.094a1.99,1.99,0,0,0,1.4-.489,1.772,1.772,0,0,0,.53-1.371v-.656l-.971.041a3.321,3.321,0,0,0-1.651.379,1.153,1.153,0,0,0-.516,1.036,1.011,1.011,0,0,0,.3.783A1.292,1.292,0,0,0-21.038,17.906ZM-8.6,19h-1.613V14.352a2.034,2.034,0,0,0-.352-1.306,1.361,1.361,0,0,0-1.118-.431,1.777,1.777,0,0,0-1.49.6,3.321,3.321,0,0,0-.472,2.017V19h-1.606V11.439H-14l.226.991h.082a2.237,2.237,0,0,1,.971-.834,3.253,3.253,0,0,1,1.395-.294q2.721,0,2.721,2.769Zm4.785.137a2.633,2.633,0,0,1-2.208-1.025,4.609,4.609,0,0,1-.793-2.878,4.624,4.624,0,0,1,.8-2.9A2.658,2.658,0,0,1-3.791,11.3a2.606,2.606,0,0,1,2.27,1.1h.082a9.63,9.63,0,0,1-.116-1.285V8.363H.058V19H-1.2l-.28-.991h-.075A2.568,2.568,0,0,1-3.818,19.137Zm.431-1.3a1.748,1.748,0,0,0,1.442-.557,2.933,2.933,0,0,0,.465-1.808v-.226a3.389,3.389,0,0,0-.465-2.03,1.724,1.724,0,0,0-1.456-.6,1.477,1.477,0,0,0-1.306.687,3.521,3.521,0,0,0-.458,1.958,3.433,3.433,0,0,0,.444,1.917A1.5,1.5,0,0,0-3.387,17.838Zm9.6-6.535a2.624,2.624,0,0,1,2.2,1.025,4.623,4.623,0,0,1,.79,2.878,4.638,4.638,0,0,1-.8,2.9A2.649,2.649,0,0,1,6.19,19.137,2.648,2.648,0,0,1,3.961,18.1H3.852l-.294.9h-1.2V8.363H3.961v2.529q0,.28-.027.834t-.041.7h.068A2.551,2.551,0,0,1,6.217,11.3ZM5.8,12.615a1.633,1.633,0,0,0-1.4.571A3.321,3.321,0,0,0,3.961,15.1v.109a3.536,3.536,0,0,0,.438,2,1.627,1.627,0,0,0,1.429.619,1.448,1.448,0,0,0,1.3-.677,3.59,3.59,0,0,0,.441-1.955Q7.564,12.615,5.8,12.615Zm11.983,2.591a4.127,4.127,0,0,1-.95,2.892,3.4,3.4,0,0,1-2.646,1.039,3.625,3.625,0,0,1-1.873-.479,3.159,3.159,0,0,1-1.251-1.374,4.68,4.68,0,0,1-.437-2.078,4.1,4.1,0,0,1,.943-2.871A3.42,3.42,0,0,1,14.229,11.3a3.331,3.331,0,0,1,2.6,1.056A4.08,4.08,0,0,1,17.784,15.206Zm-5.5,0q0,2.618,1.935,2.618,1.914,0,1.914-2.618,0-2.591-1.928-2.591a1.644,1.644,0,0,0-1.466.67A3.409,3.409,0,0,0,12.281,15.206Zm14.055,0a4.127,4.127,0,0,1-.95,2.892,3.4,3.4,0,0,1-2.646,1.039,3.625,3.625,0,0,1-1.873-.479,3.159,3.159,0,0,1-1.251-1.374,4.68,4.68,0,0,1-.437-2.078,4.1,4.1,0,0,1,.943-2.871A3.42,3.42,0,0,1,22.781,11.3a3.331,3.331,0,0,1,2.6,1.056A4.08,4.08,0,0,1,26.335,15.206Zm-5.5,0q0,2.618,1.935,2.618,1.914,0,1.914-2.618,0-2.591-1.928-2.591a1.644,1.644,0,0,0-1.466.67A3.409,3.409,0,0,0,20.833,15.206Zm8.9-.2.909-1.135,2.283-2.434h1.853l-3.042,3.247L34.969,19H33.083l-2.427-3.315-.882.725V19H28.181V8.363h1.593v5.188l-.082,1.456Z" transform="translate(67 132)" fill="#3d3d3d"/>
        <g id="Group_7827-6" data-name="Group 7827" transform="translate(-76 -114)">
          <rect id="Rectangle_4483-6" data-name="Rectangle 4483" width="70" height="70" rx="4" transform="translate(108 146)" fill="none" opacity="0.5"/>
          <g id="Shadow_1_6" data-name="Shadow_1_" transform="translate(120 153.054)">
            <path id="Path_5743-6" data-name="Path 5743" d="M3.5,0H44.736a1.859,1.859,0,0,1,1.889,1.889h0V53.721a2,2,0,0,1-1.971,1.971H3.5" transform="translate(-0.625)" fill="#e04a39"/>
            <path id="Path_5744-6" data-name="Path 5744" d="M6.654,0H1.807A1.823,1.823,0,0,0,0,1.807H0V53.886a1.823,1.823,0,0,0,1.807,1.807H6.654" fill="#cc4434"/>
            <rect id="Rectangle_4122-6" data-name="Rectangle 4122" width="41.646" height="9.939" transform="translate(4.354 43.864)" fill="#cb4333"/>
            <path id="Path_5745-6" data-name="Path 5745" d="M7.275,55.1H47.2v7.311H7.275a.561.561,0,0,1-.575-.575V55.593A.549.549,0,0,1,7.275,55.1Z" transform="translate(-1.196 -9.839)" fill="#f1f2f2"/>
            <path id="Path_5746-6" data-name="Path 5746" d="M27.893,30.125H22.8V21.5h5.093v1.889H25.1V24.7h2.546v1.889H25.1v1.643h2.793Z" transform="translate(-4.071 -3.839)" fill="#fff"/>
            <path id="Path_5747-6" data-name="Path 5747" d="M35.893,30.125H30.8V21.5h5.093v1.889H33.1V24.7h2.546v1.889H33.1v1.643h2.793Z" transform="translate(-5.5 -3.839)" fill="#fff"/>
          </g>
        </g>
        <g id="Radio_Selected-3" data-name="Radio Selected" transform="translate(7 7)">
          <path id="Path_6085-3" data-name="Path 6085" d="M37,43.2a9.6,9.6,0,1,1-9.6,9.6A9.628,9.628,0,0,1,37,43.2m0-2.4a12,12,0,1,0,12,12,12.035,12.035,0,0,0-12-12Zm7.2,12A7.2,7.2,0,1,0,37,60,7.221,7.221,0,0,0,44.2,52.8Z" transform="translate(-25 -40.8)" fill="#2777d3"/>
        </g>
        <g id="Rectangle_8161" data-name="Rectangle 8161" fill="none" stroke="#2777d3" stroke-width="1">
          <rect width="134" height="187" rx="7" stroke="none"/>
          <rect x="0.5" y="0.5" width="133" height="186" rx="6.5" fill="none"/>
        </g>
      </g>
      <g id="Gallery_radio_button-Large-NEW-7" data-name="Gallery radio button-Large-NEW" transform="translate(598 294)">
        <g id="Rectangle_4479-7" data-name="Rectangle 4479" fill="#d0e2f6" stroke="#a5c7ee" stroke-width="2">
          <rect width="130" height="183" rx="6" stroke="none"/>
          <rect x="1" y="1" width="128" height="181" rx="5" fill="none"/>
        </g>
        <path id="Path_10361" data-name="Path 10361" d="M-26.035,0h-5.653V-9.994h5.653v1.381h-4.02v2.721h3.767v1.367h-3.767v3.138h4.02Zm8.36,0h-1.613V-4.662a2.114,2.114,0,0,0-.328-1.3,1.211,1.211,0,0,0-1.025-.427A1.564,1.564,0,0,0-22-5.78a3.549,3.549,0,0,0-.434,2.013V0h-1.606V-7.561h1.258l.226.991h.082a2.1,2.1,0,0,1,.913-.834A2.943,2.943,0,0,1-20.251-7.7a2.3,2.3,0,0,1,2.311,1.189h.109a2.3,2.3,0,0,1,.943-.875A2.994,2.994,0,0,1-15.494-7.7a2.539,2.539,0,0,1,1.972.684A3.027,3.027,0,0,1-12.9-4.929V0h-1.606V-4.662a2.1,2.1,0,0,0-.332-1.3,1.221,1.221,0,0,0-1.029-.427A1.6,1.6,0,0,0-17.24-5.8a3.013,3.013,0,0,0-.434,1.794ZM-6.826.137A2.648,2.648,0,0,1-9.054-.9h-.1q.1.957.1,1.162v3.1h-1.606V-7.561h1.3q.055.212.226,1.012h.082A2.517,2.517,0,0,1-6.8-7.7a2.624,2.624,0,0,1,2.2,1.025A4.623,4.623,0,0,1-3.8-3.794,4.627,4.627,0,0,1-4.607-.9,2.648,2.648,0,0,1-6.826.137Zm-.39-6.521a1.67,1.67,0,0,0-1.4.561,2.905,2.905,0,0,0-.441,1.791v.239a3.536,3.536,0,0,0,.438,2,1.627,1.627,0,0,0,1.429.619A1.45,1.45,0,0,0-5.9-1.859a3.53,3.53,0,0,0,.451-1.948A3.407,3.407,0,0,0-5.9-5.732,1.494,1.494,0,0,0-7.215-6.385ZM-.332,0H-1.938V-10.637H-.332Zm9-3.794A4.127,4.127,0,0,1,7.721-.9,3.4,3.4,0,0,1,5.076.137,3.625,3.625,0,0,1,3.2-.342,3.159,3.159,0,0,1,1.952-1.716a4.68,4.68,0,0,1-.437-2.078,4.1,4.1,0,0,1,.943-2.871A3.42,3.42,0,0,1,5.117-7.7a3.331,3.331,0,0,1,2.6,1.056A4.08,4.08,0,0,1,8.671-3.794Zm-5.5,0q0,2.618,1.935,2.618,1.914,0,1.914-2.618,0-2.591-1.928-2.591a1.644,1.644,0,0,0-1.466.67A3.409,3.409,0,0,0,3.168-3.794Zm6.2-3.767h1.75l1.538,4.286a8.133,8.133,0,0,1,.465,1.723h.055a7.185,7.185,0,0,1,.226-.913q.164-.537,1.736-5.1h1.736L13.641,1A3.067,3.067,0,0,1,10.7,3.363a4.626,4.626,0,0,1-1.039-.116V1.976a3.765,3.765,0,0,0,.827.082A1.694,1.694,0,0,0,12.124.711L12.4,0ZM21.325.137A3.657,3.657,0,0,1,18.566-.892a3.906,3.906,0,0,1-.995-2.833,4.285,4.285,0,0,1,.923-2.912A3.188,3.188,0,0,1,21.031-7.7a3.116,3.116,0,0,1,2.365.909,3.474,3.474,0,0,1,.868,2.5v.868H19.226a2.483,2.483,0,0,0,.595,1.692,2.071,2.071,0,0,0,1.579.591,5.829,5.829,0,0,0,1.248-.126,6.539,6.539,0,0,0,1.241-.42V-.376a4.932,4.932,0,0,1-1.189.4A7.294,7.294,0,0,1,21.325.137ZM21.031-6.48A1.614,1.614,0,0,0,19.8-6a2.313,2.313,0,0,0-.55,1.415h3.432A2.093,2.093,0,0,0,22.234-6,1.543,1.543,0,0,0,21.031-6.48ZM29.391.137A3.657,3.657,0,0,1,26.633-.892a3.906,3.906,0,0,1-.995-2.833,4.285,4.285,0,0,1,.923-2.912A3.188,3.188,0,0,1,29.1-7.7a3.116,3.116,0,0,1,2.365.909,3.474,3.474,0,0,1,.868,2.5v.868H27.292a2.483,2.483,0,0,0,.595,1.692,2.071,2.071,0,0,0,1.579.591,5.829,5.829,0,0,0,1.248-.126,6.539,6.539,0,0,0,1.241-.42V-.376a4.932,4.932,0,0,1-1.189.4A7.294,7.294,0,0,1,29.391.137ZM29.1-6.48A1.614,1.614,0,0,0,27.87-6a2.313,2.313,0,0,0-.55,1.415h3.432A2.093,2.093,0,0,0,30.3-6,1.543,1.543,0,0,0,29.1-6.48ZM-25.836,19h-1.641V14.5h-4.607V19h-1.634V9.006h1.634v4.088h4.607V9.006h1.641Zm7.191,0-.321-1.053h-.055a3.1,3.1,0,0,1-1.1.94,3.481,3.481,0,0,1-1.422.25,2.406,2.406,0,0,1-1.74-.6,2.251,2.251,0,0,1-.625-1.7,2,2,0,0,1,.868-1.764A5.006,5.006,0,0,1-20.4,14.42l1.306-.041v-.4a1.529,1.529,0,0,0-.338-1.083,1.38,1.38,0,0,0-1.049-.359,3.628,3.628,0,0,0-1.114.171,8.409,8.409,0,0,0-1.025.4l-.52-1.148a5.591,5.591,0,0,1,1.347-.489,6.2,6.2,0,0,1,1.381-.167,3.27,3.27,0,0,1,2.177.629,2.462,2.462,0,0,1,.735,1.976V19Zm-2.393-1.094a1.99,1.99,0,0,0,1.4-.489,1.772,1.772,0,0,0,.53-1.371v-.656l-.971.041a3.321,3.321,0,0,0-1.651.379,1.153,1.153,0,0,0-.516,1.036,1.011,1.011,0,0,0,.3.783A1.292,1.292,0,0,0-21.038,17.906ZM-8.6,19h-1.613V14.352a2.034,2.034,0,0,0-.352-1.306,1.361,1.361,0,0,0-1.118-.431,1.777,1.777,0,0,0-1.49.6,3.321,3.321,0,0,0-.472,2.017V19h-1.606V11.439H-14l.226.991h.082a2.237,2.237,0,0,1,.971-.834,3.253,3.253,0,0,1,1.395-.294q2.721,0,2.721,2.769Zm4.785.137a2.633,2.633,0,0,1-2.208-1.025,4.609,4.609,0,0,1-.793-2.878,4.624,4.624,0,0,1,.8-2.9A2.658,2.658,0,0,1-3.791,11.3a2.606,2.606,0,0,1,2.27,1.1h.082a9.63,9.63,0,0,1-.116-1.285V8.363H.058V19H-1.2l-.28-.991h-.075A2.568,2.568,0,0,1-3.818,19.137Zm.431-1.3a1.748,1.748,0,0,0,1.442-.557,2.933,2.933,0,0,0,.465-1.808v-.226a3.389,3.389,0,0,0-.465-2.03,1.724,1.724,0,0,0-1.456-.6,1.477,1.477,0,0,0-1.306.687,3.521,3.521,0,0,0-.458,1.958,3.433,3.433,0,0,0,.444,1.917A1.5,1.5,0,0,0-3.387,17.838Zm9.6-6.535a2.624,2.624,0,0,1,2.2,1.025,4.623,4.623,0,0,1,.79,2.878,4.638,4.638,0,0,1-.8,2.9A2.649,2.649,0,0,1,6.19,19.137,2.648,2.648,0,0,1,3.961,18.1H3.852l-.294.9h-1.2V8.363H3.961v2.529q0,.28-.027.834t-.041.7h.068A2.551,2.551,0,0,1,6.217,11.3ZM5.8,12.615a1.633,1.633,0,0,0-1.4.571A3.321,3.321,0,0,0,3.961,15.1v.109a3.536,3.536,0,0,0,.438,2,1.627,1.627,0,0,0,1.429.619,1.448,1.448,0,0,0,1.3-.677,3.59,3.59,0,0,0,.441-1.955Q7.564,12.615,5.8,12.615Zm11.983,2.591a4.127,4.127,0,0,1-.95,2.892,3.4,3.4,0,0,1-2.646,1.039,3.625,3.625,0,0,1-1.873-.479,3.159,3.159,0,0,1-1.251-1.374,4.68,4.68,0,0,1-.437-2.078,4.1,4.1,0,0,1,.943-2.871A3.42,3.42,0,0,1,14.229,11.3a3.331,3.331,0,0,1,2.6,1.056A4.08,4.08,0,0,1,17.784,15.206Zm-5.5,0q0,2.618,1.935,2.618,1.914,0,1.914-2.618,0-2.591-1.928-2.591a1.644,1.644,0,0,0-1.466.67A3.409,3.409,0,0,0,12.281,15.206Zm14.055,0a4.127,4.127,0,0,1-.95,2.892,3.4,3.4,0,0,1-2.646,1.039,3.625,3.625,0,0,1-1.873-.479,3.159,3.159,0,0,1-1.251-1.374,4.68,4.68,0,0,1-.437-2.078,4.1,4.1,0,0,1,.943-2.871A3.42,3.42,0,0,1,22.781,11.3a3.331,3.331,0,0,1,2.6,1.056A4.08,4.08,0,0,1,26.335,15.206Zm-5.5,0q0,2.618,1.935,2.618,1.914,0,1.914-2.618,0-2.591-1.928-2.591a1.644,1.644,0,0,0-1.466.67A3.409,3.409,0,0,0,20.833,15.206Zm8.9-.2.909-1.135,2.283-2.434h1.853l-3.042,3.247L34.969,19H33.083l-2.427-3.315-.882.725V19H28.181V8.363h1.593v5.188l-.082,1.456Z" transform="translate(65 130)" fill="#afafbb"/>
        <g id="Group_7827-7" data-name="Group 7827" transform="translate(-78 -116)" opacity="0.5">
          <rect id="Rectangle_4483-7" data-name="Rectangle 4483" width="70" height="70" rx="4" transform="translate(108 146)" fill="none" opacity="0.5"/>
          <g id="Shadow_1_7" data-name="Shadow_1_" transform="translate(120 153.054)">
            <path id="Path_5743-7" data-name="Path 5743" d="M3.5,0H44.736a1.859,1.859,0,0,1,1.889,1.889h0V53.721a2,2,0,0,1-1.971,1.971H3.5" transform="translate(-0.625)" fill="#e04a39"/>
            <path id="Path_5744-7" data-name="Path 5744" d="M6.654,0H1.807A1.823,1.823,0,0,0,0,1.807H0V53.886a1.823,1.823,0,0,0,1.807,1.807H6.654" fill="#cc4434"/>
            <rect id="Rectangle_4122-7" data-name="Rectangle 4122" width="41.646" height="9.939" transform="translate(4.354 43.864)" fill="#cb4333"/>
            <path id="Path_5745-7" data-name="Path 5745" d="M7.275,55.1H47.2v7.311H7.275a.561.561,0,0,1-.575-.575V55.593A.549.549,0,0,1,7.275,55.1Z" transform="translate(-1.196 -9.839)" fill="#f1f2f2"/>
            <path id="Path_5746-7" data-name="Path 5746" d="M27.893,30.125H22.8V21.5h5.093v1.889H25.1V24.7h2.546v1.889H25.1v1.643h2.793Z" transform="translate(-4.071 -3.839)" fill="#fff"/>
            <path id="Path_5747-7" data-name="Path 5747" d="M35.893,30.125H30.8V21.5h5.093v1.889H33.1V24.7h2.546v1.889H33.1v1.643h2.793Z" transform="translate(-5.5 -3.839)" fill="#fff"/>
          </g>
        </g>
        <g id="Radio_Selected-4" data-name="Radio Selected" transform="translate(5 5)">
          <path id="Path_6085-4" data-name="Path 6085" d="M37,43.2a9.6,9.6,0,1,1-9.6,9.6A9.628,9.628,0,0,1,37,43.2m0-2.4a12,12,0,1,0,12,12,12.035,12.035,0,0,0-12-12Zm7.2,12A7.2,7.2,0,1,0,37,60,7.221,7.221,0,0,0,44.2,52.8Z" transform="translate(-25 -40.8)" fill="#a5c7ee"/>
        </g>
      </g>
      <g id="Gallery_radio_button-Large-NEW-8" data-name="Gallery radio button-Large-NEW" transform="translate(598 89)">
        <g id="Rectangle_4479-8" data-name="Rectangle 4479" fill="#e6e6ea" stroke="#e6e6ea" stroke-width="1">
          <rect width="130" height="183" rx="6" stroke="none"/>
          <rect x="0.5" y="0.5" width="129" height="182" rx="5.5" fill="none"/>
        </g>
        <path id="Path_10360" data-name="Path 10360" d="M-26.035,0h-5.653V-9.994h5.653v1.381h-4.02v2.721h3.767v1.367h-3.767v3.138h4.02Zm8.36,0h-1.613V-4.662a2.114,2.114,0,0,0-.328-1.3,1.211,1.211,0,0,0-1.025-.427A1.564,1.564,0,0,0-22-5.78a3.549,3.549,0,0,0-.434,2.013V0h-1.606V-7.561h1.258l.226.991h.082a2.1,2.1,0,0,1,.913-.834A2.943,2.943,0,0,1-20.251-7.7a2.3,2.3,0,0,1,2.311,1.189h.109a2.3,2.3,0,0,1,.943-.875A2.994,2.994,0,0,1-15.494-7.7a2.539,2.539,0,0,1,1.972.684A3.027,3.027,0,0,1-12.9-4.929V0h-1.606V-4.662a2.1,2.1,0,0,0-.332-1.3,1.221,1.221,0,0,0-1.029-.427A1.6,1.6,0,0,0-17.24-5.8a3.013,3.013,0,0,0-.434,1.794ZM-6.826.137A2.648,2.648,0,0,1-9.054-.9h-.1q.1.957.1,1.162v3.1h-1.606V-7.561h1.3q.055.212.226,1.012h.082A2.517,2.517,0,0,1-6.8-7.7a2.624,2.624,0,0,1,2.2,1.025A4.623,4.623,0,0,1-3.8-3.794,4.627,4.627,0,0,1-4.607-.9,2.648,2.648,0,0,1-6.826.137Zm-.39-6.521a1.67,1.67,0,0,0-1.4.561,2.905,2.905,0,0,0-.441,1.791v.239a3.536,3.536,0,0,0,.438,2,1.627,1.627,0,0,0,1.429.619A1.45,1.45,0,0,0-5.9-1.859a3.53,3.53,0,0,0,.451-1.948A3.407,3.407,0,0,0-5.9-5.732,1.494,1.494,0,0,0-7.215-6.385ZM-.332,0H-1.938V-10.637H-.332Zm9-3.794A4.127,4.127,0,0,1,7.721-.9,3.4,3.4,0,0,1,5.076.137,3.625,3.625,0,0,1,3.2-.342,3.159,3.159,0,0,1,1.952-1.716a4.68,4.68,0,0,1-.437-2.078,4.1,4.1,0,0,1,.943-2.871A3.42,3.42,0,0,1,5.117-7.7a3.331,3.331,0,0,1,2.6,1.056A4.08,4.08,0,0,1,8.671-3.794Zm-5.5,0q0,2.618,1.935,2.618,1.914,0,1.914-2.618,0-2.591-1.928-2.591a1.644,1.644,0,0,0-1.466.67A3.409,3.409,0,0,0,3.168-3.794Zm6.2-3.767h1.75l1.538,4.286a8.133,8.133,0,0,1,.465,1.723h.055a7.185,7.185,0,0,1,.226-.913q.164-.537,1.736-5.1h1.736L13.641,1A3.067,3.067,0,0,1,10.7,3.363a4.626,4.626,0,0,1-1.039-.116V1.976a3.765,3.765,0,0,0,.827.082A1.694,1.694,0,0,0,12.124.711L12.4,0ZM21.325.137A3.657,3.657,0,0,1,18.566-.892a3.906,3.906,0,0,1-.995-2.833,4.285,4.285,0,0,1,.923-2.912A3.188,3.188,0,0,1,21.031-7.7a3.116,3.116,0,0,1,2.365.909,3.474,3.474,0,0,1,.868,2.5v.868H19.226a2.483,2.483,0,0,0,.595,1.692,2.071,2.071,0,0,0,1.579.591,5.829,5.829,0,0,0,1.248-.126,6.539,6.539,0,0,0,1.241-.42V-.376a4.932,4.932,0,0,1-1.189.4A7.294,7.294,0,0,1,21.325.137ZM21.031-6.48A1.614,1.614,0,0,0,19.8-6a2.313,2.313,0,0,0-.55,1.415h3.432A2.093,2.093,0,0,0,22.234-6,1.543,1.543,0,0,0,21.031-6.48ZM29.391.137A3.657,3.657,0,0,1,26.633-.892a3.906,3.906,0,0,1-.995-2.833,4.285,4.285,0,0,1,.923-2.912A3.188,3.188,0,0,1,29.1-7.7a3.116,3.116,0,0,1,2.365.909,3.474,3.474,0,0,1,.868,2.5v.868H27.292a2.483,2.483,0,0,0,.595,1.692,2.071,2.071,0,0,0,1.579.591,5.829,5.829,0,0,0,1.248-.126,6.539,6.539,0,0,0,1.241-.42V-.376a4.932,4.932,0,0,1-1.189.4A7.294,7.294,0,0,1,29.391.137ZM29.1-6.48A1.614,1.614,0,0,0,27.87-6a2.313,2.313,0,0,0-.55,1.415h3.432A2.093,2.093,0,0,0,30.3-6,1.543,1.543,0,0,0,29.1-6.48ZM-25.836,19h-1.641V14.5h-4.607V19h-1.634V9.006h1.634v4.088h4.607V9.006h1.641Zm7.191,0-.321-1.053h-.055a3.1,3.1,0,0,1-1.1.94,3.481,3.481,0,0,1-1.422.25,2.406,2.406,0,0,1-1.74-.6,2.251,2.251,0,0,1-.625-1.7,2,2,0,0,1,.868-1.764A5.006,5.006,0,0,1-20.4,14.42l1.306-.041v-.4a1.529,1.529,0,0,0-.338-1.083,1.38,1.38,0,0,0-1.049-.359,3.628,3.628,0,0,0-1.114.171,8.409,8.409,0,0,0-1.025.4l-.52-1.148a5.591,5.591,0,0,1,1.347-.489,6.2,6.2,0,0,1,1.381-.167,3.27,3.27,0,0,1,2.177.629,2.462,2.462,0,0,1,.735,1.976V19Zm-2.393-1.094a1.99,1.99,0,0,0,1.4-.489,1.772,1.772,0,0,0,.53-1.371v-.656l-.971.041a3.321,3.321,0,0,0-1.651.379,1.153,1.153,0,0,0-.516,1.036,1.011,1.011,0,0,0,.3.783A1.292,1.292,0,0,0-21.038,17.906ZM-8.6,19h-1.613V14.352a2.034,2.034,0,0,0-.352-1.306,1.361,1.361,0,0,0-1.118-.431,1.777,1.777,0,0,0-1.49.6,3.321,3.321,0,0,0-.472,2.017V19h-1.606V11.439H-14l.226.991h.082a2.237,2.237,0,0,1,.971-.834,3.253,3.253,0,0,1,1.395-.294q2.721,0,2.721,2.769Zm4.785.137a2.633,2.633,0,0,1-2.208-1.025,4.609,4.609,0,0,1-.793-2.878,4.624,4.624,0,0,1,.8-2.9A2.658,2.658,0,0,1-3.791,11.3a2.606,2.606,0,0,1,2.27,1.1h.082a9.63,9.63,0,0,1-.116-1.285V8.363H.058V19H-1.2l-.28-.991h-.075A2.568,2.568,0,0,1-3.818,19.137Zm.431-1.3a1.748,1.748,0,0,0,1.442-.557,2.933,2.933,0,0,0,.465-1.808v-.226a3.389,3.389,0,0,0-.465-2.03,1.724,1.724,0,0,0-1.456-.6,1.477,1.477,0,0,0-1.306.687,3.521,3.521,0,0,0-.458,1.958,3.433,3.433,0,0,0,.444,1.917A1.5,1.5,0,0,0-3.387,17.838Zm9.6-6.535a2.624,2.624,0,0,1,2.2,1.025,4.623,4.623,0,0,1,.79,2.878,4.638,4.638,0,0,1-.8,2.9A2.649,2.649,0,0,1,6.19,19.137,2.648,2.648,0,0,1,3.961,18.1H3.852l-.294.9h-1.2V8.363H3.961v2.529q0,.28-.027.834t-.041.7h.068A2.551,2.551,0,0,1,6.217,11.3ZM5.8,12.615a1.633,1.633,0,0,0-1.4.571A3.321,3.321,0,0,0,3.961,15.1v.109a3.536,3.536,0,0,0,.438,2,1.627,1.627,0,0,0,1.429.619,1.448,1.448,0,0,0,1.3-.677,3.59,3.59,0,0,0,.441-1.955Q7.564,12.615,5.8,12.615Zm11.983,2.591a4.127,4.127,0,0,1-.95,2.892,3.4,3.4,0,0,1-2.646,1.039,3.625,3.625,0,0,1-1.873-.479,3.159,3.159,0,0,1-1.251-1.374,4.68,4.68,0,0,1-.437-2.078,4.1,4.1,0,0,1,.943-2.871A3.42,3.42,0,0,1,14.229,11.3a3.331,3.331,0,0,1,2.6,1.056A4.08,4.08,0,0,1,17.784,15.206Zm-5.5,0q0,2.618,1.935,2.618,1.914,0,1.914-2.618,0-2.591-1.928-2.591a1.644,1.644,0,0,0-1.466.67A3.409,3.409,0,0,0,12.281,15.206Zm14.055,0a4.127,4.127,0,0,1-.95,2.892,3.4,3.4,0,0,1-2.646,1.039,3.625,3.625,0,0,1-1.873-.479,3.159,3.159,0,0,1-1.251-1.374,4.68,4.68,0,0,1-.437-2.078,4.1,4.1,0,0,1,.943-2.871A3.42,3.42,0,0,1,22.781,11.3a3.331,3.331,0,0,1,2.6,1.056A4.08,4.08,0,0,1,26.335,15.206Zm-5.5,0q0,2.618,1.935,2.618,1.914,0,1.914-2.618,0-2.591-1.928-2.591a1.644,1.644,0,0,0-1.466.67A3.409,3.409,0,0,0,20.833,15.206Zm8.9-.2.909-1.135,2.283-2.434h1.853l-3.042,3.247L34.969,19H33.083l-2.427-3.315-.882.725V19H28.181V8.363h1.593v5.188l-.082,1.456Z" transform="translate(65 130)" fill="#afafbb"/>
        <g id="Group_7827-8" data-name="Group 7827" transform="translate(-78 -116)">
          <rect id="Rectangle_4483-8" data-name="Rectangle 4483" width="70" height="70" rx="4" transform="translate(108 146)" fill="none" opacity="0.5"/>
          <g id="Shadow_1_8" data-name="Shadow_1_" transform="translate(120 153.054)" opacity="0.5">
            <path id="Path_5743-8" data-name="Path 5743" d="M3.5,0H44.736a1.859,1.859,0,0,1,1.889,1.889h0V53.721a2,2,0,0,1-1.971,1.971H3.5" transform="translate(-0.625)" fill="#e04a39"/>
            <path id="Path_5744-8" data-name="Path 5744" d="M6.654,0H1.807A1.823,1.823,0,0,0,0,1.807H0V53.886a1.823,1.823,0,0,0,1.807,1.807H6.654" fill="#cc4434"/>
            <rect id="Rectangle_4122-8" data-name="Rectangle 4122" width="41.646" height="9.939" transform="translate(4.354 43.864)" fill="#cb4333"/>
            <path id="Path_5745-8" data-name="Path 5745" d="M7.275,55.1H47.2v7.311H7.275a.561.561,0,0,1-.575-.575V55.593A.549.549,0,0,1,7.275,55.1Z" transform="translate(-1.196 -9.839)" fill="#f1f2f2"/>
            <path id="Path_5746-8" data-name="Path 5746" d="M27.893,30.125H22.8V21.5h5.093v1.889H25.1V24.7h2.546v1.889H25.1v1.643h2.793Z" transform="translate(-4.071 -3.839)" fill="#fff"/>
            <path id="Path_5747-8" data-name="Path 5747" d="M35.893,30.125H30.8V21.5h5.093v1.889H33.1V24.7h2.546v1.889H33.1v1.643h2.793Z" transform="translate(-5.5 -3.839)" fill="#fff"/>
          </g>
        </g>
      </g>
    </g>
  </g>
</svg>
