<svg xmlns="http://www.w3.org/2000/svg" xmlns:xlink="http://www.w3.org/1999/xlink" width="840" height="523" viewBox="0 0 840 523">
  <defs>
    <clipPath id="clip-path">
      <rect width="24" height="24" fill="none"/>
    </clipPath>
    <clipPath id="clip-radiobutton_states_1">
      <rect width="840" height="523"/>
    </clipPath>
  </defs>
  <g id="radiobutton_states_1" clip-path="url(#clip-radiobutton_states_1)">
    <rect width="840" height="523" fill="#f9f9fa"/>
    <path id="Path_10322" data-name="Path 10322" d="M.734,0V-5.6H2.281q2.961,0,2.961,2.73A2.752,2.752,0,0,1,4.42-.787,3.05,3.05,0,0,1,2.219,0Zm.656-5.008V-.594h.836a2.372,2.372,0,0,0,1.715-.59,2.211,2.211,0,0,0,.613-1.672q0-2.152-2.289-2.152ZM9.473-1.84H6.648A1.5,1.5,0,0,0,7.008-.809a1.239,1.239,0,0,0,.945.363A1.965,1.965,0,0,0,9.2-.891v.6A2.322,2.322,0,0,1,7.8.094,1.691,1.691,0,0,1,6.469-.451a2.23,2.23,0,0,1-.484-1.533,2.187,2.187,0,0,1,.529-1.521,1.7,1.7,0,0,1,1.314-.588,1.5,1.5,0,0,1,1.215.508,2.117,2.117,0,0,1,.43,1.41Zm-.656-.543a1.3,1.3,0,0,0-.268-.863.912.912,0,0,0-.732-.309,1.035,1.035,0,0,0-.77.324,1.471,1.471,0,0,0-.391.848ZM13.3,0h-.641V-.625h-.016a1.341,1.341,0,0,1-1.23.719,1.315,1.315,0,0,1-.936-.316,1.1,1.1,0,0,1-.338-.84q0-1.121,1.32-1.3l1.2-.168q0-1.02-.824-1.02a1.969,1.969,0,0,0-1.3.492v-.656a2.479,2.479,0,0,1,1.359-.375q1.41,0,1.41,1.492Zm-.641-2.023-.965.133a1.567,1.567,0,0,0-.672.221.637.637,0,0,0-.227.561.611.611,0,0,0,.209.479.808.808,0,0,0,.557.186,1.028,1.028,0,0,0,.787-.334,1.193,1.193,0,0,0,.311-.846Zm4.574,1.84a2.082,2.082,0,0,1-1.094.277,1.811,1.811,0,0,1-1.381-.557,2.017,2.017,0,0,1-.525-1.443A2.218,2.218,0,0,1,14.8-3.494a1.981,1.981,0,0,1,1.512-.6,2.1,2.1,0,0,1,.93.2v.656a1.629,1.629,0,0,0-.953-.312,1.288,1.288,0,0,0-1.006.439,1.668,1.668,0,0,0-.393,1.154,1.588,1.588,0,0,0,.369,1.109,1.272,1.272,0,0,0,.99.406,1.606,1.606,0,0,0,.984-.348Zm2.824.145a1.235,1.235,0,0,1-.6.125q-1.051,0-1.051-1.172V-3.453h-.687V-4h.688v-.977l.641-.207V-4h1.008v.547H19.055V-1.2a.934.934,0,0,0,.137.574.546.546,0,0,0,.453.172.674.674,0,0,0,.418-.133Zm1.184-4.977a.406.406,0,0,1-.293-.117.4.4,0,0,1-.121-.3.4.4,0,0,1,.121-.3.4.4,0,0,1,.293-.119.414.414,0,0,1,.3.119.4.4,0,0,1,.123.3.4.4,0,0,1-.123.293A.41.41,0,0,1,21.246-5.016ZM21.559,0h-.641V-4h.641ZM26-4,24.406,0h-.629L22.262-4h.7L23.98-1.094a2.608,2.608,0,0,1,.141.559h.016a2.641,2.641,0,0,1,.125-.543L25.324-4Zm3.551,4H28.91V-.625h-.016a1.341,1.341,0,0,1-1.23.719,1.315,1.315,0,0,1-.936-.316,1.1,1.1,0,0,1-.338-.84q0-1.121,1.32-1.3l1.2-.168q0-1.02-.824-1.02a1.969,1.969,0,0,0-1.3.492v-.656a2.479,2.479,0,0,1,1.359-.375q1.41,0,1.41,1.492ZM28.91-2.023l-.965.133a1.566,1.566,0,0,0-.672.221.637.637,0,0,0-.227.561.611.611,0,0,0,.209.479.808.808,0,0,0,.557.186A1.028,1.028,0,0,0,28.6-.779a1.193,1.193,0,0,0,.311-.846Zm3.7,1.984a1.235,1.235,0,0,1-.6.125q-1.051,0-1.051-1.172V-3.453h-.687V-4h.688v-.977l.641-.207V-4h1.008v.547H31.605V-1.2a.934.934,0,0,0,.137.574.546.546,0,0,0,.453.172.674.674,0,0,0,.418-.133Zm4.07-1.8H33.859a1.5,1.5,0,0,0,.359,1.031,1.239,1.239,0,0,0,.945.363,1.965,1.965,0,0,0,1.242-.445v.6a2.322,2.322,0,0,1-1.395.383A1.691,1.691,0,0,1,33.68-.451,2.23,2.23,0,0,1,33.2-1.984a2.187,2.187,0,0,1,.529-1.521,1.7,1.7,0,0,1,1.314-.588,1.5,1.5,0,0,1,1.215.508,2.117,2.117,0,0,1,.43,1.41Zm-.656-.543a1.3,1.3,0,0,0-.268-.863.912.912,0,0,0-.732-.309,1.035,1.035,0,0,0-.77.324,1.471,1.471,0,0,0-.391.848ZM41.066,0h-.641V-.68H40.41a1.479,1.479,0,0,1-1.375.773A1.494,1.494,0,0,1,37.83-.443a2.2,2.2,0,0,1-.451-1.463,2.4,2.4,0,0,1,.5-1.59,1.649,1.649,0,0,1,1.332-.6,1.282,1.282,0,0,1,1.2.648h.016V-5.922h.641Zm-.641-1.809V-2.4a1.144,1.144,0,0,0-.32-.82,1.074,1.074,0,0,0-.812-.336,1.106,1.106,0,0,0-.922.43,1.883,1.883,0,0,0-.336,1.188,1.693,1.693,0,0,0,.322,1.092,1.053,1.053,0,0,0,.865.4,1.094,1.094,0,0,0,.869-.387A1.441,1.441,0,0,0,40.426-1.809Z" transform="translate(127 59)" fill="#c6318c"/>
    <path id="Path_10323" data-name="Path 10323" d="M5.07,0H4.344L3.75-1.57H1.375L.816,0H.086L2.234-5.6h.68ZM3.535-2.16,2.656-4.547a2.285,2.285,0,0,1-.086-.375H2.555a2.092,2.092,0,0,1-.09.375L1.594-2.16Zm5,1.977A2.082,2.082,0,0,1,7.441.094,1.811,1.811,0,0,1,6.061-.463a2.017,2.017,0,0,1-.525-1.443A2.218,2.218,0,0,1,6.1-3.494a1.981,1.981,0,0,1,1.512-.6,2.1,2.1,0,0,1,.93.2v.656a1.629,1.629,0,0,0-.953-.312,1.288,1.288,0,0,0-1.006.439,1.668,1.668,0,0,0-.393,1.154A1.588,1.588,0,0,0,6.561-.852a1.272,1.272,0,0,0,.99.406,1.606,1.606,0,0,0,.984-.348Zm2.824.145a1.235,1.235,0,0,1-.6.125q-1.051,0-1.051-1.172V-3.453H9.023V-4h.688v-.977l.641-.207V-4h1.008v.547H10.352V-1.2a.934.934,0,0,0,.137.574.546.546,0,0,0,.453.172.674.674,0,0,0,.418-.133Zm1.184-4.977a.406.406,0,0,1-.293-.117.4.4,0,0,1-.121-.3.4.4,0,0,1,.121-.3.4.4,0,0,1,.293-.119.414.414,0,0,1,.3.119.4.4,0,0,1,.123.3.4.4,0,0,1-.123.293A.41.41,0,0,1,12.543-5.016ZM12.855,0h-.641V-4h.641ZM17.3-4,15.7,0h-.629L13.559-4h.7l1.016,2.906a2.609,2.609,0,0,1,.141.559h.016a2.641,2.641,0,0,1,.125-.543L16.621-4Zm3.551,4h-.641V-.625h-.016a1.341,1.341,0,0,1-1.23.719,1.315,1.315,0,0,1-.936-.316,1.1,1.1,0,0,1-.338-.84q0-1.121,1.32-1.3l1.2-.168q0-1.02-.824-1.02a1.969,1.969,0,0,0-1.3.492v-.656a2.479,2.479,0,0,1,1.359-.375q1.41,0,1.41,1.492Zm-.641-2.023-.965.133a1.566,1.566,0,0,0-.672.221.637.637,0,0,0-.227.561.611.611,0,0,0,.209.479.808.808,0,0,0,.557.186A1.028,1.028,0,0,0,19.9-.779a1.193,1.193,0,0,0,.311-.846Zm3.7,1.984a1.235,1.235,0,0,1-.6.125q-1.051,0-1.051-1.172V-3.453h-.687V-4h.688v-.977l.641-.207V-4H23.91v.547H22.9V-1.2a.934.934,0,0,0,.137.574.546.546,0,0,0,.453.172.674.674,0,0,0,.418-.133Zm4.07-1.8H25.156a1.5,1.5,0,0,0,.359,1.031,1.239,1.239,0,0,0,.945.363A1.965,1.965,0,0,0,27.7-.891v.6a2.322,2.322,0,0,1-1.395.383,1.691,1.691,0,0,1-1.332-.545,2.23,2.23,0,0,1-.484-1.533,2.187,2.187,0,0,1,.529-1.521,1.7,1.7,0,0,1,1.314-.588,1.5,1.5,0,0,1,1.215.508,2.117,2.117,0,0,1,.43,1.41Zm-.656-.543a1.3,1.3,0,0,0-.268-.863.912.912,0,0,0-.732-.309,1.035,1.035,0,0,0-.77.324,1.471,1.471,0,0,0-.391.848ZM32.363,0h-.641V-.68h-.016a1.479,1.479,0,0,1-1.375.773,1.494,1.494,0,0,1-1.205-.537,2.2,2.2,0,0,1-.451-1.463,2.4,2.4,0,0,1,.5-1.59,1.649,1.649,0,0,1,1.332-.6,1.282,1.282,0,0,1,1.2.648h.016V-5.922h.641Zm-.641-1.809V-2.4a1.144,1.144,0,0,0-.32-.82,1.074,1.074,0,0,0-.812-.336,1.106,1.106,0,0,0-.922.43,1.883,1.883,0,0,0-.336,1.188,1.693,1.693,0,0,0,.322,1.092,1.053,1.053,0,0,0,.865.4,1.094,1.094,0,0,0,.869-.387A1.441,1.441,0,0,0,31.723-1.809Z" transform="translate(246 59)" fill="#c6318c"/>
    <path id="Path_10332" data-name="Path 10332" d="M.734,0V-5.6H2.281q2.961,0,2.961,2.73A2.752,2.752,0,0,1,4.42-.787,3.05,3.05,0,0,1,2.219,0Zm.656-5.008V-.594h.836a2.372,2.372,0,0,0,1.715-.59,2.211,2.211,0,0,0,.613-1.672q0-2.152-2.289-2.152ZM9.473-1.84H6.648A1.5,1.5,0,0,0,7.008-.809a1.239,1.239,0,0,0,.945.363A1.965,1.965,0,0,0,9.2-.891v.6A2.322,2.322,0,0,1,7.8.094,1.691,1.691,0,0,1,6.469-.451a2.23,2.23,0,0,1-.484-1.533,2.187,2.187,0,0,1,.529-1.521,1.7,1.7,0,0,1,1.314-.588,1.5,1.5,0,0,1,1.215.508,2.117,2.117,0,0,1,.43,1.41Zm-.656-.543a1.3,1.3,0,0,0-.268-.863.912.912,0,0,0-.732-.309,1.035,1.035,0,0,0-.77.324,1.471,1.471,0,0,0-.391.848ZM13.3,0h-.641V-.625h-.016a1.341,1.341,0,0,1-1.23.719,1.315,1.315,0,0,1-.936-.316,1.1,1.1,0,0,1-.338-.84q0-1.121,1.32-1.3l1.2-.168q0-1.02-.824-1.02a1.969,1.969,0,0,0-1.3.492v-.656a2.479,2.479,0,0,1,1.359-.375q1.41,0,1.41,1.492Zm-.641-2.023-.965.133a1.567,1.567,0,0,0-.672.221.637.637,0,0,0-.227.561.611.611,0,0,0,.209.479.808.808,0,0,0,.557.186,1.028,1.028,0,0,0,.787-.334,1.193,1.193,0,0,0,.311-.846Zm4.574,1.84a2.082,2.082,0,0,1-1.094.277,1.811,1.811,0,0,1-1.381-.557,2.017,2.017,0,0,1-.525-1.443A2.218,2.218,0,0,1,14.8-3.494a1.981,1.981,0,0,1,1.512-.6,2.1,2.1,0,0,1,.93.2v.656a1.629,1.629,0,0,0-.953-.312,1.288,1.288,0,0,0-1.006.439,1.668,1.668,0,0,0-.393,1.154,1.588,1.588,0,0,0,.369,1.109,1.272,1.272,0,0,0,.99.406,1.606,1.606,0,0,0,.984-.348Zm2.824.145a1.235,1.235,0,0,1-.6.125q-1.051,0-1.051-1.172V-3.453h-.687V-4h.688v-.977l.641-.207V-4h1.008v.547H19.055V-1.2a.934.934,0,0,0,.137.574.546.546,0,0,0,.453.172.674.674,0,0,0,.418-.133Zm1.184-4.977a.406.406,0,0,1-.293-.117.4.4,0,0,1-.121-.3.4.4,0,0,1,.121-.3.4.4,0,0,1,.293-.119.414.414,0,0,1,.3.119.4.4,0,0,1,.123.3.4.4,0,0,1-.123.293A.41.41,0,0,1,21.246-5.016ZM21.559,0h-.641V-4h.641ZM26-4,24.406,0h-.629L22.262-4h.7L23.98-1.094a2.608,2.608,0,0,1,.141.559h.016a2.641,2.641,0,0,1,.125-.543L25.324-4Zm3.551,4H28.91V-.625h-.016a1.341,1.341,0,0,1-1.23.719,1.315,1.315,0,0,1-.936-.316,1.1,1.1,0,0,1-.338-.84q0-1.121,1.32-1.3l1.2-.168q0-1.02-.824-1.02a1.969,1.969,0,0,0-1.3.492v-.656a2.479,2.479,0,0,1,1.359-.375q1.41,0,1.41,1.492ZM28.91-2.023l-.965.133a1.566,1.566,0,0,0-.672.221.637.637,0,0,0-.227.561.611.611,0,0,0,.209.479.808.808,0,0,0,.557.186A1.028,1.028,0,0,0,28.6-.779a1.193,1.193,0,0,0,.311-.846Zm3.7,1.984a1.235,1.235,0,0,1-.6.125q-1.051,0-1.051-1.172V-3.453h-.687V-4h.688v-.977l.641-.207V-4h1.008v.547H31.605V-1.2a.934.934,0,0,0,.137.574.546.546,0,0,0,.453.172.674.674,0,0,0,.418-.133Zm4.07-1.8H33.859a1.5,1.5,0,0,0,.359,1.031,1.239,1.239,0,0,0,.945.363,1.965,1.965,0,0,0,1.242-.445v.6a2.322,2.322,0,0,1-1.395.383A1.691,1.691,0,0,1,33.68-.451,2.23,2.23,0,0,1,33.2-1.984a2.187,2.187,0,0,1,.529-1.521,1.7,1.7,0,0,1,1.314-.588,1.5,1.5,0,0,1,1.215.508,2.117,2.117,0,0,1,.43,1.41Zm-.656-.543a1.3,1.3,0,0,0-.268-.863.912.912,0,0,0-.732-.309,1.035,1.035,0,0,0-.77.324,1.471,1.471,0,0,0-.391.848ZM41.066,0h-.641V-.68H40.41a1.479,1.479,0,0,1-1.375.773A1.494,1.494,0,0,1,37.83-.443a2.2,2.2,0,0,1-.451-1.463,2.4,2.4,0,0,1,.5-1.59,1.649,1.649,0,0,1,1.332-.6,1.282,1.282,0,0,1,1.2.648h.016V-5.922h.641Zm-.641-1.809V-2.4a1.144,1.144,0,0,0-.32-.82,1.074,1.074,0,0,0-.812-.336,1.106,1.106,0,0,0-.922.43,1.883,1.883,0,0,0-.336,1.188,1.693,1.693,0,0,0,.322,1.092,1.053,1.053,0,0,0,.865.4,1.094,1.094,0,0,0,.869-.387A1.441,1.441,0,0,0,40.426-1.809Z" transform="translate(526 59)" fill="#c6318c"/>
    <path id="Path_10333" data-name="Path 10333" d="M5.07,0H4.344L3.75-1.57H1.375L.816,0H.086L2.234-5.6h.68ZM3.535-2.16,2.656-4.547a2.285,2.285,0,0,1-.086-.375H2.555a2.092,2.092,0,0,1-.09.375L1.594-2.16Zm5,1.977A2.082,2.082,0,0,1,7.441.094,1.811,1.811,0,0,1,6.061-.463a2.017,2.017,0,0,1-.525-1.443A2.218,2.218,0,0,1,6.1-3.494a1.981,1.981,0,0,1,1.512-.6,2.1,2.1,0,0,1,.93.2v.656a1.629,1.629,0,0,0-.953-.312,1.288,1.288,0,0,0-1.006.439,1.668,1.668,0,0,0-.393,1.154A1.588,1.588,0,0,0,6.561-.852a1.272,1.272,0,0,0,.99.406,1.606,1.606,0,0,0,.984-.348Zm2.824.145a1.235,1.235,0,0,1-.6.125q-1.051,0-1.051-1.172V-3.453H9.023V-4h.688v-.977l.641-.207V-4h1.008v.547H10.352V-1.2a.934.934,0,0,0,.137.574.546.546,0,0,0,.453.172.674.674,0,0,0,.418-.133Zm1.184-4.977a.406.406,0,0,1-.293-.117.4.4,0,0,1-.121-.3.4.4,0,0,1,.121-.3.4.4,0,0,1,.293-.119.414.414,0,0,1,.3.119.4.4,0,0,1,.123.3.4.4,0,0,1-.123.293A.41.41,0,0,1,12.543-5.016ZM12.855,0h-.641V-4h.641ZM17.3-4,15.7,0h-.629L13.559-4h.7l1.016,2.906a2.609,2.609,0,0,1,.141.559h.016a2.641,2.641,0,0,1,.125-.543L16.621-4Zm3.551,4h-.641V-.625h-.016a1.341,1.341,0,0,1-1.23.719,1.315,1.315,0,0,1-.936-.316,1.1,1.1,0,0,1-.338-.84q0-1.121,1.32-1.3l1.2-.168q0-1.02-.824-1.02a1.969,1.969,0,0,0-1.3.492v-.656a2.479,2.479,0,0,1,1.359-.375q1.41,0,1.41,1.492Zm-.641-2.023-.965.133a1.566,1.566,0,0,0-.672.221.637.637,0,0,0-.227.561.611.611,0,0,0,.209.479.808.808,0,0,0,.557.186A1.028,1.028,0,0,0,19.9-.779a1.193,1.193,0,0,0,.311-.846Zm3.7,1.984a1.235,1.235,0,0,1-.6.125q-1.051,0-1.051-1.172V-3.453h-.687V-4h.688v-.977l.641-.207V-4H23.91v.547H22.9V-1.2a.934.934,0,0,0,.137.574.546.546,0,0,0,.453.172.674.674,0,0,0,.418-.133Zm4.07-1.8H25.156a1.5,1.5,0,0,0,.359,1.031,1.239,1.239,0,0,0,.945.363A1.965,1.965,0,0,0,27.7-.891v.6a2.322,2.322,0,0,1-1.395.383,1.691,1.691,0,0,1-1.332-.545,2.23,2.23,0,0,1-.484-1.533,2.187,2.187,0,0,1,.529-1.521,1.7,1.7,0,0,1,1.314-.588,1.5,1.5,0,0,1,1.215.508,2.117,2.117,0,0,1,.43,1.41Zm-.656-.543a1.3,1.3,0,0,0-.268-.863.912.912,0,0,0-.732-.309,1.035,1.035,0,0,0-.77.324,1.471,1.471,0,0,0-.391.848ZM32.363,0h-.641V-.68h-.016a1.479,1.479,0,0,1-1.375.773,1.494,1.494,0,0,1-1.205-.537,2.2,2.2,0,0,1-.451-1.463,2.4,2.4,0,0,1,.5-1.59,1.649,1.649,0,0,1,1.332-.6,1.282,1.282,0,0,1,1.2.648h.016V-5.922h.641Zm-.641-1.809V-2.4a1.144,1.144,0,0,0-.32-.82,1.074,1.074,0,0,0-.812-.336,1.106,1.106,0,0,0-.922.43,1.883,1.883,0,0,0-.336,1.188,1.693,1.693,0,0,0,.322,1.092,1.053,1.053,0,0,0,.865.4,1.094,1.094,0,0,0,.869-.387A1.441,1.441,0,0,0,31.723-1.809Z" transform="translate(707 59)" fill="#c6318c"/>
    <path id="Path_10324" data-name="Path 10324" d="M5.25,0h-.8L1.563-4.465a1.866,1.866,0,0,1-.18-.352H1.359a5.767,5.767,0,0,1,.031.77V0H.734V-5.6h.852l2.8,4.395q.176.273.227.375h.016a5.926,5.926,0,0,1-.039-.824V-5.6H5.25ZM8.3.094A1.855,1.855,0,0,1,6.889-.467a2.076,2.076,0,0,1-.529-1.486A2.163,2.163,0,0,1,6.91-3.527,1.98,1.98,0,0,1,8.4-4.094a1.794,1.794,0,0,1,1.4.551,2.184,2.184,0,0,1,.5,1.527A2.149,2.149,0,0,1,9.756-.482,1.9,1.9,0,0,1,8.3.094Zm.047-3.648a1.219,1.219,0,0,0-.977.42,1.725,1.725,0,0,0-.359,1.158A1.631,1.631,0,0,0,7.379-.855a1.235,1.235,0,0,0,.973.41,1.171,1.171,0,0,0,.955-.4,1.746,1.746,0,0,0,.334-1.145,1.776,1.776,0,0,0-.334-1.156A1.166,1.166,0,0,0,8.352-3.555Zm5.055.2a.783.783,0,0,0-.484-.129.818.818,0,0,0-.686.387,1.788,1.788,0,0,0-.275,1.055V0H11.32V-4h.641v.824h.016a1.4,1.4,0,0,1,.418-.658.953.953,0,0,1,.629-.236,1.046,1.046,0,0,1,.383.055ZM19.781,0h-.641V-2.3a1.733,1.733,0,0,0-.205-.961.778.778,0,0,0-.689-.3.854.854,0,0,0-.7.375,1.435,1.435,0,0,0-.287.9V0h-.641V-2.375q0-1.18-.91-1.18a.843.843,0,0,0-.7.354,1.461,1.461,0,0,0-.273.92V0H14.1V-4h.641v.633h.016A1.359,1.359,0,0,1,16-4.094a1.158,1.158,0,0,1,.715.229,1.15,1.15,0,0,1,.418.6,1.427,1.427,0,0,1,1.328-.828q1.32,0,1.32,1.629Zm4.074,0h-.641V-.625H23.2a1.341,1.341,0,0,1-1.23.719,1.315,1.315,0,0,1-.936-.316,1.1,1.1,0,0,1-.338-.84q0-1.121,1.32-1.3l1.2-.168q0-1.02-.824-1.02a1.969,1.969,0,0,0-1.3.492v-.656a2.479,2.479,0,0,1,1.359-.375q1.41,0,1.41,1.492Zm-.641-2.023-.965.133a1.566,1.566,0,0,0-.672.221.637.637,0,0,0-.227.561.611.611,0,0,0,.209.479.808.808,0,0,0,.557.186A1.028,1.028,0,0,0,22.9-.779a1.193,1.193,0,0,0,.311-.846ZM25.7,0h-.641V-5.922H25.7Z" transform="translate(60 116)" fill="#c6318c"/>
    <path id="Path_10325" data-name="Path 10325" d="M4.945,0H4.289V-2.555h-2.9V0H.734V-5.6h.656v2.457h2.9V-5.6h.656ZM8,.094A1.855,1.855,0,0,1,6.584-.467a2.076,2.076,0,0,1-.529-1.486,2.163,2.163,0,0,1,.551-1.574,1.98,1.98,0,0,1,1.488-.566,1.794,1.794,0,0,1,1.4.551,2.184,2.184,0,0,1,.5,1.527A2.149,2.149,0,0,1,9.451-.482,1.9,1.9,0,0,1,8,.094Zm.047-3.648a1.219,1.219,0,0,0-.977.42,1.725,1.725,0,0,0-.359,1.158A1.631,1.631,0,0,0,7.074-.855a1.235,1.235,0,0,0,.973.41A1.171,1.171,0,0,0,9-.848a1.746,1.746,0,0,0,.334-1.145A1.776,1.776,0,0,0,9-3.148,1.166,1.166,0,0,0,8.047-3.555ZM14.16-4,12.566,0h-.629L10.422-4h.7l1.016,2.906a2.609,2.609,0,0,1,.141.559H12.3a2.641,2.641,0,0,1,.125-.543L13.484-4Zm3.9,2.16H15.238A1.5,1.5,0,0,0,15.6-.809a1.239,1.239,0,0,0,.945.363,1.965,1.965,0,0,0,1.242-.445v.6a2.322,2.322,0,0,1-1.395.383,1.691,1.691,0,0,1-1.332-.545,2.23,2.23,0,0,1-.484-1.533A2.187,2.187,0,0,1,15.1-3.506a1.7,1.7,0,0,1,1.314-.588,1.5,1.5,0,0,1,1.215.508,2.117,2.117,0,0,1,.43,1.41Zm-.656-.543a1.3,1.3,0,0,0-.268-.863.912.912,0,0,0-.732-.309,1.035,1.035,0,0,0-.77.324,1.471,1.471,0,0,0-.391.848Zm3.711-.969a.783.783,0,0,0-.484-.129.818.818,0,0,0-.686.387,1.788,1.788,0,0,0-.275,1.055V0h-.641V-4h.641v.824h.016a1.4,1.4,0,0,1,.418-.658.953.953,0,0,1,.629-.236,1.046,1.046,0,0,1,.383.055Z" transform="translate(65 217)" fill="#c6318c"/>
    <path id="Path_10326" data-name="Path 10326" d="M3.578-5.008H1.391V-3.07H3.414v.59H1.391V0H.734V-5.6H3.578ZM6.227.094A1.855,1.855,0,0,1,4.811-.467a2.076,2.076,0,0,1-.529-1.486,2.163,2.163,0,0,1,.551-1.574A1.98,1.98,0,0,1,6.32-4.094a1.794,1.794,0,0,1,1.4.551,2.184,2.184,0,0,1,.5,1.527A2.149,2.149,0,0,1,7.678-.482,1.9,1.9,0,0,1,6.227.094Zm.047-3.648a1.219,1.219,0,0,0-.977.42,1.725,1.725,0,0,0-.359,1.158A1.631,1.631,0,0,0,5.3-.855a1.235,1.235,0,0,0,.973.41,1.171,1.171,0,0,0,.955-.4,1.746,1.746,0,0,0,.334-1.145,1.776,1.776,0,0,0-.334-1.156A1.166,1.166,0,0,0,6.273-3.555Zm5.7,3.371a2.082,2.082,0,0,1-1.094.277A1.811,1.811,0,0,1,9.494-.463a2.017,2.017,0,0,1-.525-1.443,2.218,2.218,0,0,1,.566-1.588,1.981,1.981,0,0,1,1.512-.6,2.1,2.1,0,0,1,.93.2v.656a1.629,1.629,0,0,0-.953-.312,1.288,1.288,0,0,0-1.006.439,1.668,1.668,0,0,0-.393,1.154A1.588,1.588,0,0,0,9.994-.852a1.272,1.272,0,0,0,.99.406,1.606,1.606,0,0,0,.984-.348Zm4.2.184h-.641V-.633h-.016a1.316,1.316,0,0,1-1.234.727q-1.43,0-1.43-1.7V-4h.637v2.289q0,1.266.969,1.266a.98.98,0,0,0,.771-.346,1.323,1.323,0,0,0,.3-.9V-4h.641Zm1.051-.145V-.832a1.9,1.9,0,0,0,1.152.387q.844,0,.844-.562a.488.488,0,0,0-.072-.271.72.72,0,0,0-.2-.2,1.5,1.5,0,0,0-.289-.154Q18.5-1.7,18.3-1.773a4.6,4.6,0,0,1-.467-.213,1.41,1.41,0,0,1-.336-.242.9.9,0,0,1-.2-.307,1.085,1.085,0,0,1-.068-.4.956.956,0,0,1,.129-.5A1.143,1.143,0,0,1,17.7-3.8a1.6,1.6,0,0,1,.49-.221,2.175,2.175,0,0,1,.568-.074,2.3,2.3,0,0,1,.93.18v.648a1.812,1.812,0,0,0-1.016-.289,1.187,1.187,0,0,0-.324.041A.794.794,0,0,0,18.1-3.4a.532.532,0,0,0-.16.178.468.468,0,0,0-.057.229.548.548,0,0,0,.057.262.576.576,0,0,0,.166.188,1.269,1.269,0,0,0,.266.148q.156.066.355.145a4.947,4.947,0,0,1,.477.209,1.635,1.635,0,0,1,.359.242.946.946,0,0,1,.229.311,1,1,0,0,1,.08.418.985.985,0,0,1-.131.516,1.122,1.122,0,0,1-.35.363,1.6,1.6,0,0,1-.5.215,2.488,2.488,0,0,1-.6.07A2.269,2.269,0,0,1,17.223-.145Zm6.852-1.7H21.25a1.5,1.5,0,0,0,.359,1.031,1.239,1.239,0,0,0,.945.363A1.965,1.965,0,0,0,23.8-.891v.6A2.322,2.322,0,0,1,22.4.094,1.691,1.691,0,0,1,21.07-.451a2.23,2.23,0,0,1-.484-1.533,2.187,2.187,0,0,1,.529-1.521,1.7,1.7,0,0,1,1.314-.588,1.5,1.5,0,0,1,1.215.508,2.117,2.117,0,0,1,.43,1.41Zm-.656-.543a1.3,1.3,0,0,0-.268-.863.912.912,0,0,0-.732-.309,1.035,1.035,0,0,0-.77.324,1.471,1.471,0,0,0-.391.848ZM28.457,0h-.641V-.68H27.8a1.479,1.479,0,0,1-1.375.773,1.494,1.494,0,0,1-1.205-.537,2.2,2.2,0,0,1-.451-1.463,2.4,2.4,0,0,1,.5-1.59,1.649,1.649,0,0,1,1.332-.6,1.282,1.282,0,0,1,1.2.648h.016V-5.922h.641Zm-.641-1.809V-2.4a1.144,1.144,0,0,0-.32-.82,1.074,1.074,0,0,0-.812-.336,1.106,1.106,0,0,0-.922.43,1.883,1.883,0,0,0-.336,1.188,1.693,1.693,0,0,0,.322,1.092,1.053,1.053,0,0,0,.865.4,1.094,1.094,0,0,0,.869-.387A1.441,1.441,0,0,0,27.816-1.809Z" transform="translate(57 320)" fill="#c6318c"/>
    <path id="Path_10327" data-name="Path 10327" d="M.734,0V-5.6H2.281q2.961,0,2.961,2.73A2.752,2.752,0,0,1,4.42-.787,3.05,3.05,0,0,1,2.219,0Zm.656-5.008V-.594h.836a2.372,2.372,0,0,0,1.715-.59,2.211,2.211,0,0,0,.613-1.672q0-2.152-2.289-2.152Zm5.2-.008a.406.406,0,0,1-.293-.117.4.4,0,0,1-.121-.3.4.4,0,0,1,.121-.3.4.4,0,0,1,.293-.119.414.414,0,0,1,.3.119.4.4,0,0,1,.123.3.4.4,0,0,1-.123.293A.41.41,0,0,1,6.586-5.016ZM6.9,0H6.258V-4H6.9ZM7.953-.145V-.832a1.9,1.9,0,0,0,1.152.387q.844,0,.844-.562a.488.488,0,0,0-.072-.271.72.72,0,0,0-.2-.2,1.5,1.5,0,0,0-.289-.154q-.166-.068-.357-.143a4.6,4.6,0,0,1-.467-.213,1.41,1.41,0,0,1-.336-.242.9.9,0,0,1-.2-.307,1.085,1.085,0,0,1-.068-.4.956.956,0,0,1,.129-.5A1.143,1.143,0,0,1,8.434-3.8a1.6,1.6,0,0,1,.49-.221,2.175,2.175,0,0,1,.568-.074,2.3,2.3,0,0,1,.93.18v.648a1.812,1.812,0,0,0-1.016-.289,1.187,1.187,0,0,0-.324.041.794.794,0,0,0-.248.115.532.532,0,0,0-.16.178.468.468,0,0,0-.057.229.548.548,0,0,0,.057.262.576.576,0,0,0,.166.188,1.269,1.269,0,0,0,.266.148q.156.066.355.145a4.947,4.947,0,0,1,.477.209A1.634,1.634,0,0,1,10.3-1.8a.946.946,0,0,1,.229.311,1,1,0,0,1,.08.418.985.985,0,0,1-.131.516,1.122,1.122,0,0,1-.35.363,1.6,1.6,0,0,1-.5.215,2.488,2.488,0,0,1-.6.07A2.269,2.269,0,0,1,7.953-.145Zm6.5.145h-.641V-.625H13.8a1.341,1.341,0,0,1-1.23.719,1.315,1.315,0,0,1-.936-.316,1.1,1.1,0,0,1-.338-.84q0-1.121,1.32-1.3l1.2-.168q0-1.02-.824-1.02a1.969,1.969,0,0,0-1.3.492v-.656a2.479,2.479,0,0,1,1.359-.375q1.41,0,1.41,1.492Zm-.641-2.023-.965.133a1.567,1.567,0,0,0-.672.221.637.637,0,0,0-.227.561.611.611,0,0,0,.209.479.808.808,0,0,0,.557.186A1.028,1.028,0,0,0,13.5-.779a1.193,1.193,0,0,0,.311-.846Zm2.5,1.445H16.3V0H15.66V-5.922H16.3V-3.3h.016a1.515,1.515,0,0,1,1.383-.8,1.466,1.466,0,0,1,1.205.537,2.218,2.218,0,0,1,.436,1.439A2.479,2.479,0,0,1,18.852-.51a1.626,1.626,0,0,1-1.336.6A1.316,1.316,0,0,1,16.316-.578ZM16.3-2.191v.559a1.189,1.189,0,0,0,.322.842,1.07,1.07,0,0,0,.818.346,1.072,1.072,0,0,0,.912-.445,2.043,2.043,0,0,0,.33-1.238,1.613,1.613,0,0,0-.309-1.047,1.021,1.021,0,0,0-.836-.379,1.135,1.135,0,0,0-.9.389A1.427,1.427,0,0,0,16.3-2.191ZM21,0h-.641V-5.922H21Zm4.512-1.84H22.691a1.5,1.5,0,0,0,.359,1.031A1.239,1.239,0,0,0,24-.445a1.965,1.965,0,0,0,1.242-.445v.6a2.322,2.322,0,0,1-1.395.383,1.691,1.691,0,0,1-1.332-.545,2.23,2.23,0,0,1-.484-1.533,2.187,2.187,0,0,1,.529-1.521,1.7,1.7,0,0,1,1.314-.588,1.5,1.5,0,0,1,1.215.508,2.117,2.117,0,0,1,.43,1.41Zm-.656-.543a1.3,1.3,0,0,0-.268-.863.912.912,0,0,0-.732-.309,1.035,1.035,0,0,0-.77.324,1.471,1.471,0,0,0-.391.848ZM29.9,0h-.641V-.68h-.016a1.479,1.479,0,0,1-1.375.773,1.494,1.494,0,0,1-1.205-.537,2.2,2.2,0,0,1-.451-1.463,2.4,2.4,0,0,1,.5-1.59,1.649,1.649,0,0,1,1.332-.6,1.282,1.282,0,0,1,1.2.648h.016V-5.922H29.9Zm-.641-1.809V-2.4a1.144,1.144,0,0,0-.32-.82,1.074,1.074,0,0,0-.812-.336,1.106,1.106,0,0,0-.922.43,1.883,1.883,0,0,0-.336,1.188,1.693,1.693,0,0,0,.322,1.092,1.053,1.053,0,0,0,.865.4,1.094,1.094,0,0,0,.869-.387A1.441,1.441,0,0,0,29.258-1.809Z" transform="translate(55 421)" fill="#c6318c"/>
    <g id="Radio_button" data-name="Radio button" transform="translate(117 100)">
      <path id="Path_10340" data-name="Path 10340" d="M6.371,0H1.285V-9.8H2.434v8.764H6.371Zm6.364,0H11.614V-1.094h-.027A2.347,2.347,0,0,1,9.434.164,2.3,2.3,0,0,1,7.8-.39a1.918,1.918,0,0,1-.591-1.47q0-1.962,2.311-2.283l2.1-.294q0-1.784-1.442-1.784a3.446,3.446,0,0,0-2.283.861V-6.508a4.338,4.338,0,0,1,2.379-.656q2.468,0,2.468,2.611ZM11.614-3.541l-1.688.232a2.741,2.741,0,0,0-1.176.386,1.114,1.114,0,0,0-.4.981,1.068,1.068,0,0,0,.366.837,1.413,1.413,0,0,0,.974.325,1.8,1.8,0,0,0,1.377-.584,2.088,2.088,0,0,0,.543-1.48ZM16-1.012h-.027V0H14.848V-10.363h1.121V-5.77H16a2.651,2.651,0,0,1,2.42-1.395,2.566,2.566,0,0,1,2.109.94,3.881,3.881,0,0,1,.762,2.519,4.339,4.339,0,0,1-.854,2.813A2.845,2.845,0,0,1,18.095.164,2.3,2.3,0,0,1,16-1.012Zm-.027-2.823v.978a2.081,2.081,0,0,0,.564,1.473,1.873,1.873,0,0,0,1.432.6,1.876,1.876,0,0,0,1.6-.779,3.575,3.575,0,0,0,.578-2.167,2.822,2.822,0,0,0-.54-1.832,1.787,1.787,0,0,0-1.463-.663,1.986,1.986,0,0,0-1.572.68A2.5,2.5,0,0,0,15.969-3.835ZM28.7-3.22H23.762a2.618,2.618,0,0,0,.629,1.8,2.168,2.168,0,0,0,1.654.636,3.439,3.439,0,0,0,2.174-.779V-.506a4.063,4.063,0,0,1-2.44.67A2.959,2.959,0,0,1,23.447-.79,3.9,3.9,0,0,1,22.6-3.473a3.828,3.828,0,0,1,.926-2.663,2.97,2.97,0,0,1,2.3-1.029,2.632,2.632,0,0,1,2.126.889A3.705,3.705,0,0,1,28.7-3.808Zm-1.148-.95a2.281,2.281,0,0,0-.468-1.511,1.6,1.6,0,0,0-1.282-.54,1.811,1.811,0,0,0-1.347.567,2.575,2.575,0,0,0-.684,1.483ZM31.521,0H30.4V-10.363h1.121Z" transform="translate(29 17)" fill="#1a1a1e" stroke="rgba(0,0,0,0)" stroke-width="1"/>
      <path id="Path_10240" data-name="Path 10240" d="M12,43.2a9.6,9.6,0,1,1-9.6,9.6A9.628,9.628,0,0,1,12,43.2m0-2.4a12,12,0,1,0,12,12,12.035,12.035,0,0,0-12-12Z" transform="translate(0 -40.8)" fill="#9494a4"/>
    </g>
    <g id="Radio_button-2" data-name="Radio button" transform="translate(231 100)">
      <path id="Path_6085" data-name="Path 6085" d="M37,43.2a9.6,9.6,0,1,1-9.6,9.6A9.628,9.628,0,0,1,37,43.2m0-2.4a12,12,0,1,0,12,12,12.035,12.035,0,0,0-12-12Zm7.2,12A7.2,7.2,0,1,0,37,60,7.221,7.221,0,0,0,44.2,52.8Z" transform="translate(-25 -40.8)" fill="#2777d3"/>
      <path id="Path_10344" data-name="Path 10344" d="M6.371,0H1.285V-9.8H2.434v8.764H6.371Zm6.364,0H11.614V-1.094h-.027A2.347,2.347,0,0,1,9.434.164,2.3,2.3,0,0,1,7.8-.39a1.918,1.918,0,0,1-.591-1.47q0-1.962,2.311-2.283l2.1-.294q0-1.784-1.442-1.784a3.446,3.446,0,0,0-2.283.861V-6.508a4.338,4.338,0,0,1,2.379-.656q2.468,0,2.468,2.611ZM11.614-3.541l-1.688.232a2.741,2.741,0,0,0-1.176.386,1.114,1.114,0,0,0-.4.981,1.068,1.068,0,0,0,.366.837,1.413,1.413,0,0,0,.974.325,1.8,1.8,0,0,0,1.377-.584,2.088,2.088,0,0,0,.543-1.48ZM16-1.012h-.027V0H14.848V-10.363h1.121V-5.77H16a2.651,2.651,0,0,1,2.42-1.395,2.566,2.566,0,0,1,2.109.94,3.881,3.881,0,0,1,.762,2.519,4.339,4.339,0,0,1-.854,2.813A2.845,2.845,0,0,1,18.095.164,2.3,2.3,0,0,1,16-1.012Zm-.027-2.823v.978a2.081,2.081,0,0,0,.564,1.473,1.873,1.873,0,0,0,1.432.6,1.876,1.876,0,0,0,1.6-.779,3.575,3.575,0,0,0,.578-2.167,2.822,2.822,0,0,0-.54-1.832,1.787,1.787,0,0,0-1.463-.663,1.986,1.986,0,0,0-1.572.68A2.5,2.5,0,0,0,15.969-3.835ZM28.7-3.22H23.762a2.618,2.618,0,0,0,.629,1.8,2.168,2.168,0,0,0,1.654.636,3.439,3.439,0,0,0,2.174-.779V-.506a4.063,4.063,0,0,1-2.44.67A2.959,2.959,0,0,1,23.447-.79,3.9,3.9,0,0,1,22.6-3.473a3.828,3.828,0,0,1,.926-2.663,2.97,2.97,0,0,1,2.3-1.029,2.632,2.632,0,0,1,2.126.889A3.705,3.705,0,0,1,28.7-3.808Zm-1.148-.95a2.281,2.281,0,0,0-.468-1.511,1.6,1.6,0,0,0-1.282-.54,1.811,1.811,0,0,0-1.347.567,2.575,2.575,0,0,0-.684,1.483ZM31.521,0H30.4V-10.363h1.121Z" transform="translate(29 17)" fill="#1a1a1e" stroke="rgba(0,0,0,0)" stroke-width="1"/>
    </g>
    <g id="Radio_button-3" data-name="Radio button" transform="translate(117 406)">
      <path id="Path_10343" data-name="Path 10343" d="M6.371,0H1.285V-9.8H2.434v8.764H6.371Zm6.364,0H11.614V-1.094h-.027A2.347,2.347,0,0,1,9.434.164,2.3,2.3,0,0,1,7.8-.39a1.918,1.918,0,0,1-.591-1.47q0-1.962,2.311-2.283l2.1-.294q0-1.784-1.442-1.784a3.446,3.446,0,0,0-2.283.861V-6.508a4.338,4.338,0,0,1,2.379-.656q2.468,0,2.468,2.611ZM11.614-3.541l-1.688.232a2.741,2.741,0,0,0-1.176.386,1.114,1.114,0,0,0-.4.981,1.068,1.068,0,0,0,.366.837,1.413,1.413,0,0,0,.974.325,1.8,1.8,0,0,0,1.377-.584,2.088,2.088,0,0,0,.543-1.48ZM16-1.012h-.027V0H14.848V-10.363h1.121V-5.77H16a2.651,2.651,0,0,1,2.42-1.395,2.566,2.566,0,0,1,2.109.94,3.881,3.881,0,0,1,.762,2.519,4.339,4.339,0,0,1-.854,2.813A2.845,2.845,0,0,1,18.095.164,2.3,2.3,0,0,1,16-1.012Zm-.027-2.823v.978a2.081,2.081,0,0,0,.564,1.473,1.873,1.873,0,0,0,1.432.6,1.876,1.876,0,0,0,1.6-.779,3.575,3.575,0,0,0,.578-2.167,2.822,2.822,0,0,0-.54-1.832,1.787,1.787,0,0,0-1.463-.663,1.986,1.986,0,0,0-1.572.68A2.5,2.5,0,0,0,15.969-3.835ZM28.7-3.22H23.762a2.618,2.618,0,0,0,.629,1.8,2.168,2.168,0,0,0,1.654.636,3.439,3.439,0,0,0,2.174-.779V-.506a4.063,4.063,0,0,1-2.44.67A2.959,2.959,0,0,1,23.447-.79,3.9,3.9,0,0,1,22.6-3.473a3.828,3.828,0,0,1,.926-2.663,2.97,2.97,0,0,1,2.3-1.029,2.632,2.632,0,0,1,2.126.889A3.705,3.705,0,0,1,28.7-3.808Zm-1.148-.95a2.281,2.281,0,0,0-.468-1.511,1.6,1.6,0,0,0-1.282-.54,1.811,1.811,0,0,0-1.347.567,2.575,2.575,0,0,0-.684,1.483ZM31.521,0H30.4V-10.363h1.121Z" transform="translate(29 17)" fill="#afafbb" stroke="rgba(0,0,0,0)" stroke-width="1"/>
      <path id="Path_10240-2" data-name="Path 10240" d="M12,43.2a9.6,9.6,0,1,1-9.6,9.6A9.628,9.628,0,0,1,12,43.2m0-2.4a12,12,0,1,0,12,12,12.035,12.035,0,0,0-12-12Z" transform="translate(0 -40.8)" fill="#e6e6ea"/>
    </g>
    <g id="Radio_button-4" data-name="Radio button" transform="translate(116 302)">
      <path id="Path_10342" data-name="Path 10342" d="M6.371,0H1.285V-9.8H2.434v8.764H6.371Zm6.364,0H11.614V-1.094h-.027A2.347,2.347,0,0,1,9.434.164,2.3,2.3,0,0,1,7.8-.39a1.918,1.918,0,0,1-.591-1.47q0-1.962,2.311-2.283l2.1-.294q0-1.784-1.442-1.784a3.446,3.446,0,0,0-2.283.861V-6.508a4.338,4.338,0,0,1,2.379-.656q2.468,0,2.468,2.611ZM11.614-3.541l-1.688.232a2.741,2.741,0,0,0-1.176.386,1.114,1.114,0,0,0-.4.981,1.068,1.068,0,0,0,.366.837,1.413,1.413,0,0,0,.974.325,1.8,1.8,0,0,0,1.377-.584,2.088,2.088,0,0,0,.543-1.48ZM16-1.012h-.027V0H14.848V-10.363h1.121V-5.77H16a2.651,2.651,0,0,1,2.42-1.395,2.566,2.566,0,0,1,2.109.94,3.881,3.881,0,0,1,.762,2.519,4.339,4.339,0,0,1-.854,2.813A2.845,2.845,0,0,1,18.095.164,2.3,2.3,0,0,1,16-1.012Zm-.027-2.823v.978a2.081,2.081,0,0,0,.564,1.473,1.873,1.873,0,0,0,1.432.6,1.876,1.876,0,0,0,1.6-.779,3.575,3.575,0,0,0,.578-2.167,2.822,2.822,0,0,0-.54-1.832,1.787,1.787,0,0,0-1.463-.663,1.986,1.986,0,0,0-1.572.68A2.5,2.5,0,0,0,15.969-3.835ZM28.7-3.22H23.762a2.618,2.618,0,0,0,.629,1.8,2.168,2.168,0,0,0,1.654.636,3.439,3.439,0,0,0,2.174-.779V-.506a4.063,4.063,0,0,1-2.44.67A2.959,2.959,0,0,1,23.447-.79,3.9,3.9,0,0,1,22.6-3.473a3.828,3.828,0,0,1,.926-2.663,2.97,2.97,0,0,1,2.3-1.029,2.632,2.632,0,0,1,2.126.889A3.705,3.705,0,0,1,28.7-3.808Zm-1.148-.95a2.281,2.281,0,0,0-.468-1.511,1.6,1.6,0,0,0-1.282-.54,1.811,1.811,0,0,0-1.347.567,2.575,2.575,0,0,0-.684,1.483ZM31.521,0H30.4V-10.363h1.121Z" transform="translate(31 19)" fill="#1a1a1e" stroke="rgba(0,0,0,0)" stroke-width="1"/>
      <g id="Group_14782" data-name="Group 14782" transform="translate(-5889 -2006)">
        <g id="Radio_Unselected" data-name="Radio Unselected" transform="translate(5891 2008)" clip-path="url(#clip-path)">
          <path id="Path_5843" data-name="Path 5843" d="M12,43.2a9.6,9.6,0,1,1-9.6,9.6A9.628,9.628,0,0,1,12,43.2m0-2.4a12,12,0,1,0,12,12,12.035,12.035,0,0,0-12-12Z" transform="translate(0 -40.8)" fill="#9494a4"/>
        </g>
        <g id="Rectangle_8140" data-name="Rectangle 8140" transform="translate(5889 2006)" fill="none" stroke="#2777d3" stroke-width="1">
          <rect width="28" height="28" rx="5" stroke="none"/>
          <rect x="0.5" y="0.5" width="27" height="27" rx="4.5" fill="none"/>
        </g>
      </g>
    </g>
    <g id="Radio_button-5" data-name="Radio button" transform="translate(230 302)">
      <path id="Path_6085-2" data-name="Path 6085" d="M37,43.2a9.6,9.6,0,1,1-9.6,9.6A9.628,9.628,0,0,1,37,43.2m0-2.4a12,12,0,1,0,12,12,12.035,12.035,0,0,0-12-12Zm7.2,12A7.2,7.2,0,1,0,37,60,7.221,7.221,0,0,0,44.2,52.8Z" transform="translate(-23 -38.8)" fill="#2777d3"/>
      <path id="Path_10346" data-name="Path 10346" d="M6.371,0H1.285V-9.8H2.434v8.764H6.371Zm6.364,0H11.614V-1.094h-.027A2.347,2.347,0,0,1,9.434.164,2.3,2.3,0,0,1,7.8-.39a1.918,1.918,0,0,1-.591-1.47q0-1.962,2.311-2.283l2.1-.294q0-1.784-1.442-1.784a3.446,3.446,0,0,0-2.283.861V-6.508a4.338,4.338,0,0,1,2.379-.656q2.468,0,2.468,2.611ZM11.614-3.541l-1.688.232a2.741,2.741,0,0,0-1.176.386,1.114,1.114,0,0,0-.4.981,1.068,1.068,0,0,0,.366.837,1.413,1.413,0,0,0,.974.325,1.8,1.8,0,0,0,1.377-.584,2.088,2.088,0,0,0,.543-1.48ZM16-1.012h-.027V0H14.848V-10.363h1.121V-5.77H16a2.651,2.651,0,0,1,2.42-1.395,2.566,2.566,0,0,1,2.109.94,3.881,3.881,0,0,1,.762,2.519,4.339,4.339,0,0,1-.854,2.813A2.845,2.845,0,0,1,18.095.164,2.3,2.3,0,0,1,16-1.012Zm-.027-2.823v.978a2.081,2.081,0,0,0,.564,1.473,1.873,1.873,0,0,0,1.432.6,1.876,1.876,0,0,0,1.6-.779,3.575,3.575,0,0,0,.578-2.167,2.822,2.822,0,0,0-.54-1.832,1.787,1.787,0,0,0-1.463-.663,1.986,1.986,0,0,0-1.572.68A2.5,2.5,0,0,0,15.969-3.835ZM28.7-3.22H23.762a2.618,2.618,0,0,0,.629,1.8,2.168,2.168,0,0,0,1.654.636,3.439,3.439,0,0,0,2.174-.779V-.506a4.063,4.063,0,0,1-2.44.67A2.959,2.959,0,0,1,23.447-.79,3.9,3.9,0,0,1,22.6-3.473a3.828,3.828,0,0,1,.926-2.663,2.97,2.97,0,0,1,2.3-1.029,2.632,2.632,0,0,1,2.126.889A3.705,3.705,0,0,1,28.7-3.808Zm-1.148-.95a2.281,2.281,0,0,0-.468-1.511,1.6,1.6,0,0,0-1.282-.54,1.811,1.811,0,0,0-1.347.567,2.575,2.575,0,0,0-.684,1.483ZM31.521,0H30.4V-10.363h1.121Z" transform="translate(31 19)" fill="#1a1a1e" stroke="rgba(0,0,0,0)" stroke-width="1"/>
      <g id="Rectangle_8141" data-name="Rectangle 8141" fill="none" stroke="#2777d3" stroke-width="1">
        <rect width="28" height="28" rx="5" stroke="none"/>
        <rect x="0.5" y="0.5" width="27" height="27" rx="4.5" fill="none"/>
      </g>
    </g>
    <g id="Radio_button-6" data-name="Radio button" transform="translate(231 202)">
      <path id="Path_6085-3" data-name="Path 6085" d="M37,43.2a9.6,9.6,0,1,1-9.6,9.6A9.628,9.628,0,0,1,37,43.2m0-2.4a12,12,0,1,0,12,12,12.035,12.035,0,0,0-12-12Zm7.2,12A7.2,7.2,0,1,0,37,60,7.221,7.221,0,0,0,44.2,52.8Z" transform="translate(-25 -40.8)" fill="#4e92df"/>
      <path id="Path_10345" data-name="Path 10345" d="M6.371,0H1.285V-9.8H2.434v8.764H6.371Zm6.364,0H11.614V-1.094h-.027A2.347,2.347,0,0,1,9.434.164,2.3,2.3,0,0,1,7.8-.39a1.918,1.918,0,0,1-.591-1.47q0-1.962,2.311-2.283l2.1-.294q0-1.784-1.442-1.784a3.446,3.446,0,0,0-2.283.861V-6.508a4.338,4.338,0,0,1,2.379-.656q2.468,0,2.468,2.611ZM11.614-3.541l-1.688.232a2.741,2.741,0,0,0-1.176.386,1.114,1.114,0,0,0-.4.981,1.068,1.068,0,0,0,.366.837,1.413,1.413,0,0,0,.974.325,1.8,1.8,0,0,0,1.377-.584,2.088,2.088,0,0,0,.543-1.48ZM16-1.012h-.027V0H14.848V-10.363h1.121V-5.77H16a2.651,2.651,0,0,1,2.42-1.395,2.566,2.566,0,0,1,2.109.94,3.881,3.881,0,0,1,.762,2.519,4.339,4.339,0,0,1-.854,2.813A2.845,2.845,0,0,1,18.095.164,2.3,2.3,0,0,1,16-1.012Zm-.027-2.823v.978a2.081,2.081,0,0,0,.564,1.473,1.873,1.873,0,0,0,1.432.6,1.876,1.876,0,0,0,1.6-.779,3.575,3.575,0,0,0,.578-2.167,2.822,2.822,0,0,0-.54-1.832,1.787,1.787,0,0,0-1.463-.663,1.986,1.986,0,0,0-1.572.68A2.5,2.5,0,0,0,15.969-3.835ZM28.7-3.22H23.762a2.618,2.618,0,0,0,.629,1.8,2.168,2.168,0,0,0,1.654.636,3.439,3.439,0,0,0,2.174-.779V-.506a4.063,4.063,0,0,1-2.44.67A2.959,2.959,0,0,1,23.447-.79,3.9,3.9,0,0,1,22.6-3.473a3.828,3.828,0,0,1,.926-2.663,2.97,2.97,0,0,1,2.3-1.029,2.632,2.632,0,0,1,2.126.889A3.705,3.705,0,0,1,28.7-3.808Zm-1.148-.95a2.281,2.281,0,0,0-.468-1.511,1.6,1.6,0,0,0-1.282-.54,1.811,1.811,0,0,0-1.347.567,2.575,2.575,0,0,0-.684,1.483ZM31.521,0H30.4V-10.363h1.121Z" transform="translate(29 17)" fill="#1a1a1e" stroke="rgba(0,0,0,0)" stroke-width="1"/>
    </g>
    <g id="Radio_button-7" data-name="Radio button" transform="translate(117 202)">
      <path id="Path_10341" data-name="Path 10341" d="M6.371,0H1.285V-9.8H2.434v8.764H6.371Zm6.364,0H11.614V-1.094h-.027A2.347,2.347,0,0,1,9.434.164,2.3,2.3,0,0,1,7.8-.39a1.918,1.918,0,0,1-.591-1.47q0-1.962,2.311-2.283l2.1-.294q0-1.784-1.442-1.784a3.446,3.446,0,0,0-2.283.861V-6.508a4.338,4.338,0,0,1,2.379-.656q2.468,0,2.468,2.611ZM11.614-3.541l-1.688.232a2.741,2.741,0,0,0-1.176.386,1.114,1.114,0,0,0-.4.981,1.068,1.068,0,0,0,.366.837,1.413,1.413,0,0,0,.974.325,1.8,1.8,0,0,0,1.377-.584,2.088,2.088,0,0,0,.543-1.48ZM16-1.012h-.027V0H14.848V-10.363h1.121V-5.77H16a2.651,2.651,0,0,1,2.42-1.395,2.566,2.566,0,0,1,2.109.94,3.881,3.881,0,0,1,.762,2.519,4.339,4.339,0,0,1-.854,2.813A2.845,2.845,0,0,1,18.095.164,2.3,2.3,0,0,1,16-1.012Zm-.027-2.823v.978a2.081,2.081,0,0,0,.564,1.473,1.873,1.873,0,0,0,1.432.6,1.876,1.876,0,0,0,1.6-.779,3.575,3.575,0,0,0,.578-2.167,2.822,2.822,0,0,0-.54-1.832,1.787,1.787,0,0,0-1.463-.663,1.986,1.986,0,0,0-1.572.68A2.5,2.5,0,0,0,15.969-3.835ZM28.7-3.22H23.762a2.618,2.618,0,0,0,.629,1.8,2.168,2.168,0,0,0,1.654.636,3.439,3.439,0,0,0,2.174-.779V-.506a4.063,4.063,0,0,1-2.44.67A2.959,2.959,0,0,1,23.447-.79,3.9,3.9,0,0,1,22.6-3.473a3.828,3.828,0,0,1,.926-2.663,2.97,2.97,0,0,1,2.3-1.029,2.632,2.632,0,0,1,2.126.889A3.705,3.705,0,0,1,28.7-3.808Zm-1.148-.95a2.281,2.281,0,0,0-.468-1.511,1.6,1.6,0,0,0-1.282-.54,1.811,1.811,0,0,0-1.347.567,2.575,2.575,0,0,0-.684,1.483ZM31.521,0H30.4V-10.363h1.121Z" transform="translate(29 17)" fill="#1a1a1e" stroke="rgba(0,0,0,0)" stroke-width="1"/>
      <path id="Path_10281" data-name="Path 10281" d="M12,43.2a9.6,9.6,0,1,1-9.6,9.6A9.628,9.628,0,0,1,12,43.2m0-2.4a12,12,0,1,0,12,12,12.035,12.035,0,0,0-12-12Z" transform="translate(0 -40.8)" fill="#606071"/>
    </g>
    <g id="Radio_button-8" data-name="Radio button" transform="translate(231 406)">
      <path id="Path_10347" data-name="Path 10347" d="M6.371,0H1.285V-9.8H2.434v8.764H6.371Zm6.364,0H11.614V-1.094h-.027A2.347,2.347,0,0,1,9.434.164,2.3,2.3,0,0,1,7.8-.39a1.918,1.918,0,0,1-.591-1.47q0-1.962,2.311-2.283l2.1-.294q0-1.784-1.442-1.784a3.446,3.446,0,0,0-2.283.861V-6.508a4.338,4.338,0,0,1,2.379-.656q2.468,0,2.468,2.611ZM11.614-3.541l-1.688.232a2.741,2.741,0,0,0-1.176.386,1.114,1.114,0,0,0-.4.981,1.068,1.068,0,0,0,.366.837,1.413,1.413,0,0,0,.974.325,1.8,1.8,0,0,0,1.377-.584,2.088,2.088,0,0,0,.543-1.48ZM16-1.012h-.027V0H14.848V-10.363h1.121V-5.77H16a2.651,2.651,0,0,1,2.42-1.395,2.566,2.566,0,0,1,2.109.94,3.881,3.881,0,0,1,.762,2.519,4.339,4.339,0,0,1-.854,2.813A2.845,2.845,0,0,1,18.095.164,2.3,2.3,0,0,1,16-1.012Zm-.027-2.823v.978a2.081,2.081,0,0,0,.564,1.473,1.873,1.873,0,0,0,1.432.6,1.876,1.876,0,0,0,1.6-.779,3.575,3.575,0,0,0,.578-2.167,2.822,2.822,0,0,0-.54-1.832,1.787,1.787,0,0,0-1.463-.663,1.986,1.986,0,0,0-1.572.68A2.5,2.5,0,0,0,15.969-3.835ZM28.7-3.22H23.762a2.618,2.618,0,0,0,.629,1.8,2.168,2.168,0,0,0,1.654.636,3.439,3.439,0,0,0,2.174-.779V-.506a4.063,4.063,0,0,1-2.44.67A2.959,2.959,0,0,1,23.447-.79,3.9,3.9,0,0,1,22.6-3.473a3.828,3.828,0,0,1,.926-2.663,2.97,2.97,0,0,1,2.3-1.029,2.632,2.632,0,0,1,2.126.889A3.705,3.705,0,0,1,28.7-3.808Zm-1.148-.95a2.281,2.281,0,0,0-.468-1.511,1.6,1.6,0,0,0-1.282-.54,1.811,1.811,0,0,0-1.347.567,2.575,2.575,0,0,0-.684,1.483ZM31.521,0H30.4V-10.363h1.121Z" transform="translate(29 17)" fill="#afafbb" stroke="rgba(0,0,0,0)" stroke-width="1"/>
      <path id="Path_10241" data-name="Path 10241" d="M37,43.2a9.6,9.6,0,1,1-9.6,9.6A9.628,9.628,0,0,1,37,43.2m0-2.4a12,12,0,1,0,12,12,12.035,12.035,0,0,0-12-12Zm7.2,12A7.2,7.2,0,1,0,37,60,7.221,7.221,0,0,0,44.2,52.8Z" transform="translate(-25 -40.8)" fill="#d0e2f6"/>
    </g>
    <g id="Group_15324" data-name="Group 15324" transform="translate(-11784 -803)">
      <g id="noun_Pointer_44803" transform="translate(11911 1005)">
        <g id="Group_15298" data-name="Group 15298" transform="translate(0 0)" opacity="0.9">
          <path id="Path_10321" data-name="Path 10321" d="M26.5,27.034a8.04,8.04,0,0,1-7.962-7.224.347.347,0,0,1-.037-.156V14.783a1.94,1.94,0,0,1,1.9-1.97,1.854,1.854,0,0,1,1.143.395V5.385a1.906,1.906,0,1,1,3.81,0v5.468a1.854,1.854,0,0,1,1.143-.395,1.91,1.91,0,0,1,1.775,1.257,1.863,1.863,0,0,1,1.272-.5,1.919,1.919,0,0,1,1.837,1.449,1.86,1.86,0,0,1,1.211-.45,1.94,1.94,0,0,1,1.9,1.97v5.031a.375.375,0,0,1,0,.051A8.045,8.045,0,0,1,26.5,27.034Z" transform="translate(-18.501 -3.415)" fill="#fff"/>
        </g>
      </g>
      <g id="noun_Pointer_44803-2" data-name="noun_Pointer_44803" transform="translate(11911 1005)">
        <g id="Group_15298-2" data-name="Group 15298" transform="translate(0 0)" opacity="0.9">
          <path id="Path_10321-2" data-name="Path 10321" d="M26.5,27.034a8.04,8.04,0,0,1-7.962-7.224.347.347,0,0,1-.037-.156V14.783a1.94,1.94,0,0,1,1.9-1.97,1.854,1.854,0,0,1,1.143.395V5.385a1.906,1.906,0,1,1,3.81,0v5.468a1.854,1.854,0,0,1,1.143-.395,1.91,1.91,0,0,1,1.775,1.257,1.863,1.863,0,0,1,1.272-.5,1.919,1.919,0,0,1,1.837,1.449,1.86,1.86,0,0,1,1.211-.45,1.94,1.94,0,0,1,1.9,1.97v5.031a.375.375,0,0,1,0,.051A8.045,8.045,0,0,1,26.5,27.034Zm-7.238-7.51a.339.339,0,0,1,.024.1,7.238,7.238,0,0,0,14.45-.424q0-.016,0-.033V14.178a1.145,1.145,0,1,0-2.286,0,.381.381,0,0,1-.762,0v-1a1.145,1.145,0,1,0-2.286,0,.381.381,0,1,1-.762,0v-.752a1.145,1.145,0,1,0-2.286,0,.381.381,0,1,1-.762,0V5.385a1.145,1.145,0,1,0-2.286,0V18.21a.381.381,0,1,1-.762,0V14.783a1.145,1.145,0,1,0-2.286,0v4.741Z" transform="translate(-18.501 -3.415)"/>
        </g>
      </g>
    </g>
    <g id="Group_264146" data-name="Group 264146" transform="translate(-11670 -803)">
      <g id="noun_Pointer_44803-3" data-name="noun_Pointer_44803" transform="translate(11911 1005)">
        <g id="Group_15298-3" data-name="Group 15298" transform="translate(0 0)" opacity="0.9">
          <path id="Path_10321-3" data-name="Path 10321" d="M26.5,27.034a8.04,8.04,0,0,1-7.962-7.224.347.347,0,0,1-.037-.156V14.783a1.94,1.94,0,0,1,1.9-1.97,1.854,1.854,0,0,1,1.143.395V5.385a1.906,1.906,0,1,1,3.81,0v5.468a1.854,1.854,0,0,1,1.143-.395,1.91,1.91,0,0,1,1.775,1.257,1.863,1.863,0,0,1,1.272-.5,1.919,1.919,0,0,1,1.837,1.449,1.86,1.86,0,0,1,1.211-.45,1.94,1.94,0,0,1,1.9,1.97v5.031a.375.375,0,0,1,0,.051A8.045,8.045,0,0,1,26.5,27.034Z" transform="translate(-18.501 -3.415)" fill="#fff"/>
        </g>
      </g>
      <g id="noun_Pointer_44803-4" data-name="noun_Pointer_44803" transform="translate(11911 1005)">
        <g id="Group_15298-4" data-name="Group 15298" transform="translate(0 0)" opacity="0.9">
          <path id="Path_10321-4" data-name="Path 10321" d="M26.5,27.034a8.04,8.04,0,0,1-7.962-7.224.347.347,0,0,1-.037-.156V14.783a1.94,1.94,0,0,1,1.9-1.97,1.854,1.854,0,0,1,1.143.395V5.385a1.906,1.906,0,1,1,3.81,0v5.468a1.854,1.854,0,0,1,1.143-.395,1.91,1.91,0,0,1,1.775,1.257,1.863,1.863,0,0,1,1.272-.5,1.919,1.919,0,0,1,1.837,1.449,1.86,1.86,0,0,1,1.211-.45,1.94,1.94,0,0,1,1.9,1.97v5.031a.375.375,0,0,1,0,.051A8.045,8.045,0,0,1,26.5,27.034Zm-7.238-7.51a.339.339,0,0,1,.024.1,7.238,7.238,0,0,0,14.45-.424q0-.016,0-.033V14.178a1.145,1.145,0,1,0-2.286,0,.381.381,0,0,1-.762,0v-1a1.145,1.145,0,1,0-2.286,0,.381.381,0,1,1-.762,0v-.752a1.145,1.145,0,1,0-2.286,0,.381.381,0,1,1-.762,0V5.385a1.145,1.145,0,1,0-2.286,0V18.21a.381.381,0,1,1-.762,0V14.783a1.145,1.145,0,1,0-2.286,0v4.741Z" transform="translate(-18.501 -3.415)"/>
        </g>
      </g>
    </g>
    <path id="Path_10331" data-name="Path 10331" d="M5.25,0h-.8L1.563-4.465a1.866,1.866,0,0,1-.18-.352H1.359a5.767,5.767,0,0,1,.031.77V0H.734V-5.6h.852l2.8,4.395q.176.273.227.375h.016a5.926,5.926,0,0,1-.039-.824V-5.6H5.25ZM8.3.094A1.855,1.855,0,0,1,6.889-.467a2.076,2.076,0,0,1-.529-1.486A2.163,2.163,0,0,1,6.91-3.527,1.98,1.98,0,0,1,8.4-4.094a1.794,1.794,0,0,1,1.4.551,2.184,2.184,0,0,1,.5,1.527A2.149,2.149,0,0,1,9.756-.482,1.9,1.9,0,0,1,8.3.094Zm.047-3.648a1.219,1.219,0,0,0-.977.42,1.725,1.725,0,0,0-.359,1.158A1.631,1.631,0,0,0,7.379-.855a1.235,1.235,0,0,0,.973.41,1.171,1.171,0,0,0,.955-.4,1.746,1.746,0,0,0,.334-1.145,1.776,1.776,0,0,0-.334-1.156A1.166,1.166,0,0,0,8.352-3.555Zm5.055.2a.783.783,0,0,0-.484-.129.818.818,0,0,0-.686.387,1.788,1.788,0,0,0-.275,1.055V0H11.32V-4h.641v.824h.016a1.4,1.4,0,0,1,.418-.658.953.953,0,0,1,.629-.236,1.046,1.046,0,0,1,.383.055ZM19.781,0h-.641V-2.3a1.733,1.733,0,0,0-.205-.961.778.778,0,0,0-.689-.3.854.854,0,0,0-.7.375,1.435,1.435,0,0,0-.287.9V0h-.641V-2.375q0-1.18-.91-1.18a.843.843,0,0,0-.7.354,1.461,1.461,0,0,0-.273.92V0H14.1V-4h.641v.633h.016A1.359,1.359,0,0,1,16-4.094a1.158,1.158,0,0,1,.715.229,1.15,1.15,0,0,1,.418.6,1.427,1.427,0,0,1,1.328-.828q1.32,0,1.32,1.629Zm4.074,0h-.641V-.625H23.2a1.341,1.341,0,0,1-1.23.719,1.315,1.315,0,0,1-.936-.316,1.1,1.1,0,0,1-.338-.84q0-1.121,1.32-1.3l1.2-.168q0-1.02-.824-1.02a1.969,1.969,0,0,0-1.3.492v-.656a2.479,2.479,0,0,1,1.359-.375q1.41,0,1.41,1.492Zm-.641-2.023-.965.133a1.566,1.566,0,0,0-.672.221.637.637,0,0,0-.227.561.611.611,0,0,0,.209.479.808.808,0,0,0,.557.186A1.028,1.028,0,0,0,22.9-.779a1.193,1.193,0,0,0,.311-.846ZM25.7,0h-.641V-5.922H25.7Z" transform="translate(428 116)" fill="#c6318c"/>
    <path id="Path_10330" data-name="Path 10330" d="M4.945,0H4.289V-2.555h-2.9V0H.734V-5.6h.656v2.457h2.9V-5.6h.656ZM8,.094A1.855,1.855,0,0,1,6.584-.467a2.076,2.076,0,0,1-.529-1.486,2.163,2.163,0,0,1,.551-1.574,1.98,1.98,0,0,1,1.488-.566,1.794,1.794,0,0,1,1.4.551,2.184,2.184,0,0,1,.5,1.527A2.149,2.149,0,0,1,9.451-.482,1.9,1.9,0,0,1,8,.094Zm.047-3.648a1.219,1.219,0,0,0-.977.42,1.725,1.725,0,0,0-.359,1.158A1.631,1.631,0,0,0,7.074-.855a1.235,1.235,0,0,0,.973.41A1.171,1.171,0,0,0,9-.848a1.746,1.746,0,0,0,.334-1.145A1.776,1.776,0,0,0,9-3.148,1.166,1.166,0,0,0,8.047-3.555ZM14.16-4,12.566,0h-.629L10.422-4h.7l1.016,2.906a2.609,2.609,0,0,1,.141.559H12.3a2.641,2.641,0,0,1,.125-.543L13.484-4Zm3.9,2.16H15.238A1.5,1.5,0,0,0,15.6-.809a1.239,1.239,0,0,0,.945.363,1.965,1.965,0,0,0,1.242-.445v.6a2.322,2.322,0,0,1-1.395.383,1.691,1.691,0,0,1-1.332-.545,2.23,2.23,0,0,1-.484-1.533A2.187,2.187,0,0,1,15.1-3.506a1.7,1.7,0,0,1,1.314-.588,1.5,1.5,0,0,1,1.215.508,2.117,2.117,0,0,1,.43,1.41Zm-.656-.543a1.3,1.3,0,0,0-.268-.863.912.912,0,0,0-.732-.309,1.035,1.035,0,0,0-.77.324,1.471,1.471,0,0,0-.391.848Zm3.711-.969a.783.783,0,0,0-.484-.129.818.818,0,0,0-.686.387,1.788,1.788,0,0,0-.275,1.055V0h-.641V-4h.641v.824h.016a1.4,1.4,0,0,1,.418-.658.953.953,0,0,1,.629-.236,1.046,1.046,0,0,1,.383.055Z" transform="translate(433 217)" fill="#c6318c"/>
    <path id="Path_10329" data-name="Path 10329" d="M3.578-5.008H1.391V-3.07H3.414v.59H1.391V0H.734V-5.6H3.578ZM6.227.094A1.855,1.855,0,0,1,4.811-.467a2.076,2.076,0,0,1-.529-1.486,2.163,2.163,0,0,1,.551-1.574A1.98,1.98,0,0,1,6.32-4.094a1.794,1.794,0,0,1,1.4.551,2.184,2.184,0,0,1,.5,1.527A2.149,2.149,0,0,1,7.678-.482,1.9,1.9,0,0,1,6.227.094Zm.047-3.648a1.219,1.219,0,0,0-.977.42,1.725,1.725,0,0,0-.359,1.158A1.631,1.631,0,0,0,5.3-.855a1.235,1.235,0,0,0,.973.41,1.171,1.171,0,0,0,.955-.4,1.746,1.746,0,0,0,.334-1.145,1.776,1.776,0,0,0-.334-1.156A1.166,1.166,0,0,0,6.273-3.555Zm5.7,3.371a2.082,2.082,0,0,1-1.094.277A1.811,1.811,0,0,1,9.494-.463a2.017,2.017,0,0,1-.525-1.443,2.218,2.218,0,0,1,.566-1.588,1.981,1.981,0,0,1,1.512-.6,2.1,2.1,0,0,1,.93.2v.656a1.629,1.629,0,0,0-.953-.312,1.288,1.288,0,0,0-1.006.439,1.668,1.668,0,0,0-.393,1.154A1.588,1.588,0,0,0,9.994-.852a1.272,1.272,0,0,0,.99.406,1.606,1.606,0,0,0,.984-.348Zm4.2.184h-.641V-.633h-.016a1.316,1.316,0,0,1-1.234.727q-1.43,0-1.43-1.7V-4h.637v2.289q0,1.266.969,1.266a.98.98,0,0,0,.771-.346,1.323,1.323,0,0,0,.3-.9V-4h.641Zm1.051-.145V-.832a1.9,1.9,0,0,0,1.152.387q.844,0,.844-.562a.488.488,0,0,0-.072-.271.72.72,0,0,0-.2-.2,1.5,1.5,0,0,0-.289-.154Q18.5-1.7,18.3-1.773a4.6,4.6,0,0,1-.467-.213,1.41,1.41,0,0,1-.336-.242.9.9,0,0,1-.2-.307,1.085,1.085,0,0,1-.068-.4.956.956,0,0,1,.129-.5A1.143,1.143,0,0,1,17.7-3.8a1.6,1.6,0,0,1,.49-.221,2.175,2.175,0,0,1,.568-.074,2.3,2.3,0,0,1,.93.18v.648a1.812,1.812,0,0,0-1.016-.289,1.187,1.187,0,0,0-.324.041A.794.794,0,0,0,18.1-3.4a.532.532,0,0,0-.16.178.468.468,0,0,0-.057.229.548.548,0,0,0,.057.262.576.576,0,0,0,.166.188,1.269,1.269,0,0,0,.266.148q.156.066.355.145a4.947,4.947,0,0,1,.477.209,1.635,1.635,0,0,1,.359.242.946.946,0,0,1,.229.311,1,1,0,0,1,.08.418.985.985,0,0,1-.131.516,1.122,1.122,0,0,1-.35.363,1.6,1.6,0,0,1-.5.215,2.488,2.488,0,0,1-.6.07A2.269,2.269,0,0,1,17.223-.145Zm6.852-1.7H21.25a1.5,1.5,0,0,0,.359,1.031,1.239,1.239,0,0,0,.945.363A1.965,1.965,0,0,0,23.8-.891v.6A2.322,2.322,0,0,1,22.4.094,1.691,1.691,0,0,1,21.07-.451a2.23,2.23,0,0,1-.484-1.533,2.187,2.187,0,0,1,.529-1.521,1.7,1.7,0,0,1,1.314-.588,1.5,1.5,0,0,1,1.215.508,2.117,2.117,0,0,1,.43,1.41Zm-.656-.543a1.3,1.3,0,0,0-.268-.863.912.912,0,0,0-.732-.309,1.035,1.035,0,0,0-.77.324,1.471,1.471,0,0,0-.391.848ZM28.457,0h-.641V-.68H27.8a1.479,1.479,0,0,1-1.375.773,1.494,1.494,0,0,1-1.205-.537,2.2,2.2,0,0,1-.451-1.463,2.4,2.4,0,0,1,.5-1.59,1.649,1.649,0,0,1,1.332-.6,1.282,1.282,0,0,1,1.2.648h.016V-5.922h.641Zm-.641-1.809V-2.4a1.144,1.144,0,0,0-.32-.82,1.074,1.074,0,0,0-.812-.336,1.106,1.106,0,0,0-.922.43,1.883,1.883,0,0,0-.336,1.188,1.693,1.693,0,0,0,.322,1.092,1.053,1.053,0,0,0,.865.4,1.094,1.094,0,0,0,.869-.387A1.441,1.441,0,0,0,27.816-1.809Z" transform="translate(425 320)" fill="#c6318c"/>
    <path id="Path_10328" data-name="Path 10328" d="M.734,0V-5.6H2.281q2.961,0,2.961,2.73A2.752,2.752,0,0,1,4.42-.787,3.05,3.05,0,0,1,2.219,0Zm.656-5.008V-.594h.836a2.372,2.372,0,0,0,1.715-.59,2.211,2.211,0,0,0,.613-1.672q0-2.152-2.289-2.152Zm5.2-.008a.406.406,0,0,1-.293-.117.4.4,0,0,1-.121-.3.4.4,0,0,1,.121-.3.4.4,0,0,1,.293-.119.414.414,0,0,1,.3.119.4.4,0,0,1,.123.3.4.4,0,0,1-.123.293A.41.41,0,0,1,6.586-5.016ZM6.9,0H6.258V-4H6.9ZM7.953-.145V-.832a1.9,1.9,0,0,0,1.152.387q.844,0,.844-.562a.488.488,0,0,0-.072-.271.72.72,0,0,0-.2-.2,1.5,1.5,0,0,0-.289-.154q-.166-.068-.357-.143a4.6,4.6,0,0,1-.467-.213,1.41,1.41,0,0,1-.336-.242.9.9,0,0,1-.2-.307,1.085,1.085,0,0,1-.068-.4.956.956,0,0,1,.129-.5A1.143,1.143,0,0,1,8.434-3.8a1.6,1.6,0,0,1,.49-.221,2.175,2.175,0,0,1,.568-.074,2.3,2.3,0,0,1,.93.18v.648a1.812,1.812,0,0,0-1.016-.289,1.187,1.187,0,0,0-.324.041.794.794,0,0,0-.248.115.532.532,0,0,0-.16.178.468.468,0,0,0-.057.229.548.548,0,0,0,.057.262.576.576,0,0,0,.166.188,1.269,1.269,0,0,0,.266.148q.156.066.355.145a4.947,4.947,0,0,1,.477.209A1.634,1.634,0,0,1,10.3-1.8a.946.946,0,0,1,.229.311,1,1,0,0,1,.08.418.985.985,0,0,1-.131.516,1.122,1.122,0,0,1-.35.363,1.6,1.6,0,0,1-.5.215,2.488,2.488,0,0,1-.6.07A2.269,2.269,0,0,1,7.953-.145Zm6.5.145h-.641V-.625H13.8a1.341,1.341,0,0,1-1.23.719,1.315,1.315,0,0,1-.936-.316,1.1,1.1,0,0,1-.338-.84q0-1.121,1.32-1.3l1.2-.168q0-1.02-.824-1.02a1.969,1.969,0,0,0-1.3.492v-.656a2.479,2.479,0,0,1,1.359-.375q1.41,0,1.41,1.492Zm-.641-2.023-.965.133a1.567,1.567,0,0,0-.672.221.637.637,0,0,0-.227.561.611.611,0,0,0,.209.479.808.808,0,0,0,.557.186A1.028,1.028,0,0,0,13.5-.779a1.193,1.193,0,0,0,.311-.846Zm2.5,1.445H16.3V0H15.66V-5.922H16.3V-3.3h.016a1.515,1.515,0,0,1,1.383-.8,1.466,1.466,0,0,1,1.205.537,2.218,2.218,0,0,1,.436,1.439A2.479,2.479,0,0,1,18.852-.51a1.626,1.626,0,0,1-1.336.6A1.316,1.316,0,0,1,16.316-.578ZM16.3-2.191v.559a1.189,1.189,0,0,0,.322.842,1.07,1.07,0,0,0,.818.346,1.072,1.072,0,0,0,.912-.445,2.043,2.043,0,0,0,.33-1.238,1.613,1.613,0,0,0-.309-1.047,1.021,1.021,0,0,0-.836-.379,1.135,1.135,0,0,0-.9.389A1.427,1.427,0,0,0,16.3-2.191ZM21,0h-.641V-5.922H21Zm4.512-1.84H22.691a1.5,1.5,0,0,0,.359,1.031A1.239,1.239,0,0,0,24-.445a1.965,1.965,0,0,0,1.242-.445v.6a2.322,2.322,0,0,1-1.395.383,1.691,1.691,0,0,1-1.332-.545,2.23,2.23,0,0,1-.484-1.533,2.187,2.187,0,0,1,.529-1.521,1.7,1.7,0,0,1,1.314-.588,1.5,1.5,0,0,1,1.215.508,2.117,2.117,0,0,1,.43,1.41Zm-.656-.543a1.3,1.3,0,0,0-.268-.863.912.912,0,0,0-.732-.309,1.035,1.035,0,0,0-.77.324,1.471,1.471,0,0,0-.391.848ZM29.9,0h-.641V-.68h-.016a1.479,1.479,0,0,1-1.375.773,1.494,1.494,0,0,1-1.205-.537,2.2,2.2,0,0,1-.451-1.463,2.4,2.4,0,0,1,.5-1.59,1.649,1.649,0,0,1,1.332-.6,1.282,1.282,0,0,1,1.2.648h.016V-5.922H29.9Zm-.641-1.809V-2.4a1.144,1.144,0,0,0-.32-.82,1.074,1.074,0,0,0-.812-.336,1.106,1.106,0,0,0-.922.43,1.883,1.883,0,0,0-.336,1.188,1.693,1.693,0,0,0,.322,1.092,1.053,1.053,0,0,0,.865.4,1.094,1.094,0,0,0,.869-.387A1.441,1.441,0,0,0,29.258-1.809Z" transform="translate(423 421)" fill="#c6318c"/>
    <g id="Group_14648" data-name="Group 14648" transform="translate(526 6)">
      <g id="Path_8839" data-name="Path 8839" transform="translate(136 85)" fill="#d0e2f6">
        <path d="M 121 41 L 4 41 C 2.345799922943115 41 1 39.65420150756836 1 38 L 1 4 C 1 2.345799922943115 2.345799922943115 1 4 1 L 121 1 L 121 41 Z" stroke="none"/>
        <path d="M 4 2 C 2.897201538085938 2 2 2.897201538085938 2 4 L 2 38 C 2 39.10279846191406 2.897201538085938 40 4 40 L 120 40 L 120 2 L 4 2 M 4 0 L 122 0 L 122 42 L 4 42 C 1.790863037109375 42 0 40.20913314819336 0 38 L 0 4 C 0 1.790851593017578 1.790863037109375 0 4 0 Z" stroke="none" fill="#2777d3"/>
      </g>
      <path id="Path_10352" data-name="Path 10352" d="M9.153-9.994v6.467a3.835,3.835,0,0,1-.475,1.938A3.166,3.166,0,0,1,7.3-.311a4.775,4.775,0,0,1-2.15.448A4.022,4.022,0,0,1,2.263-.848,3.563,3.563,0,0,1,1.23-3.555V-9.994H2.871v6.323a2.527,2.527,0,0,0,.574,1.825,2.367,2.367,0,0,0,1.764.588q2.311,0,2.311-2.427v-6.31Zm7.465,7.841a1.978,1.978,0,0,1-.807,1.7A3.863,3.863,0,0,1,13.5.137a5.458,5.458,0,0,1-2.427-.458V-1.709a5.958,5.958,0,0,0,2.481.615q1.483,0,1.483-.9a.709.709,0,0,0-.164-.479,1.942,1.942,0,0,0-.54-.4,9.293,9.293,0,0,0-1.046-.465,4.838,4.838,0,0,1-1.767-1.012,1.872,1.872,0,0,1-.461-1.312,1.724,1.724,0,0,1,.783-1.507A3.714,3.714,0,0,1,13.973-7.7a6.031,6.031,0,0,1,2.522.54l-.52,1.21a5.61,5.61,0,0,0-2.058-.506q-1.271,0-1.271.725a.729.729,0,0,0,.332.6,7.291,7.291,0,0,0,1.446.677,6.609,6.609,0,0,1,1.36.663,1.982,1.982,0,0,1,.629.694A2.008,2.008,0,0,1,16.618-2.153ZM21.656.137A3.657,3.657,0,0,1,18.9-.892,3.906,3.906,0,0,1,17.9-3.726a4.285,4.285,0,0,1,.923-2.912A3.188,3.188,0,0,1,21.362-7.7a3.116,3.116,0,0,1,2.365.909,3.474,3.474,0,0,1,.868,2.5v.868H19.558a2.483,2.483,0,0,0,.595,1.692,2.071,2.071,0,0,0,1.579.591,5.829,5.829,0,0,0,1.248-.126,6.539,6.539,0,0,0,1.241-.42V-.376a4.932,4.932,0,0,1-1.189.4A7.294,7.294,0,0,1,21.656.137ZM21.362-6.48A1.614,1.614,0,0,0,20.135-6a2.313,2.313,0,0,0-.55,1.415h3.432A2.093,2.093,0,0,0,22.565-6,1.543,1.543,0,0,0,21.362-6.48ZM30.256-7.7a3.867,3.867,0,0,1,.8.068l-.157,1.5a3.036,3.036,0,0,0-.711-.082,2.057,2.057,0,0,0-1.562.629,2.273,2.273,0,0,0-.6,1.634V0H26.421V-7.561h1.258l.212,1.333h.082A3,3,0,0,1,28.954-7.3,2.332,2.332,0,0,1,30.256-7.7ZM40.277,0H38.671V-6.453q0-1.155.055-1.832-.157.164-.386.362T36.8-6.665L36-7.684l2.939-2.311h1.34Z" transform="translate(190 112)" fill="#3d3d3d"/>
      <g id="Group_7824" data-name="Group 7824" transform="translate(3 -167)">
        <rect id="Rectangle_3945" data-name="Rectangle 3945" width="24" height="24" transform="translate(158 261)" fill="none"/>
        <path id="Path_5647" data-name="Path 5647" d="M171.5,169.5A4.5,4.5,0,1,1,176,174,4.481,4.481,0,0,1,171.5,169.5Zm12.7,9.8a9.969,9.969,0,0,0-16.4,0,.984.984,0,0,0,.3,1.4,15.063,15.063,0,0,0,16,0A.958.958,0,0,0,184.2,179.3Z" transform="translate(-6 99)" fill="#2777d3"/>
      </g>
    </g>
    <g id="Group_14649" data-name="Group 14649" transform="translate(528 94)">
      <g id="Path_8860" data-name="Path 8860" transform="translate(134 303)" fill="#d0e2f6">
        <path d="M 121 41 L 4 41 C 2.345799922943115 41 1 39.65420150756836 1 38 L 1 4 C 1 2.345799922943115 2.345799922943115 1 4 1 L 121 1 L 121 41 Z" stroke="none"/>
        <path d="M 4 2 C 2.897201538085938 2 2 2.897201538085938 2 4 L 2 38 C 2 39.10279846191406 2.897201538085938 40 4 40 L 120 40 L 120 2 L 4 2 M 4 0 L 122 0 L 122 42 L 4 42 C 1.790863037109375 42 0 40.20913314819336 0 38 L 0 4 C 0 1.790851593017578 1.790863037109375 0 4 0 Z" stroke="none" fill="#a5c7ee"/>
      </g>
      <path id="Path_10355" data-name="Path 10355" d="M9.153-9.994v6.467a3.835,3.835,0,0,1-.475,1.938A3.166,3.166,0,0,1,7.3-.311a4.775,4.775,0,0,1-2.15.448A4.022,4.022,0,0,1,2.263-.848,3.563,3.563,0,0,1,1.23-3.555V-9.994H2.871v6.323a2.527,2.527,0,0,0,.574,1.825,2.367,2.367,0,0,0,1.764.588q2.311,0,2.311-2.427v-6.31Zm7.465,7.841a1.978,1.978,0,0,1-.807,1.7A3.863,3.863,0,0,1,13.5.137a5.458,5.458,0,0,1-2.427-.458V-1.709a5.958,5.958,0,0,0,2.481.615q1.483,0,1.483-.9a.709.709,0,0,0-.164-.479,1.942,1.942,0,0,0-.54-.4,9.293,9.293,0,0,0-1.046-.465,4.838,4.838,0,0,1-1.767-1.012,1.872,1.872,0,0,1-.461-1.312,1.724,1.724,0,0,1,.783-1.507A3.714,3.714,0,0,1,13.973-7.7a6.031,6.031,0,0,1,2.522.54l-.52,1.21a5.61,5.61,0,0,0-2.058-.506q-1.271,0-1.271.725a.729.729,0,0,0,.332.6,7.291,7.291,0,0,0,1.446.677,6.609,6.609,0,0,1,1.36.663,1.982,1.982,0,0,1,.629.694A2.008,2.008,0,0,1,16.618-2.153ZM21.656.137A3.657,3.657,0,0,1,18.9-.892,3.906,3.906,0,0,1,17.9-3.726a4.285,4.285,0,0,1,.923-2.912A3.188,3.188,0,0,1,21.362-7.7a3.116,3.116,0,0,1,2.365.909,3.474,3.474,0,0,1,.868,2.5v.868H19.558a2.483,2.483,0,0,0,.595,1.692,2.071,2.071,0,0,0,1.579.591,5.829,5.829,0,0,0,1.248-.126,6.539,6.539,0,0,0,1.241-.42V-.376a4.932,4.932,0,0,1-1.189.4A7.294,7.294,0,0,1,21.656.137ZM21.362-6.48A1.614,1.614,0,0,0,20.135-6a2.313,2.313,0,0,0-.55,1.415h3.432A2.093,2.093,0,0,0,22.565-6,1.543,1.543,0,0,0,21.362-6.48ZM30.256-7.7a3.867,3.867,0,0,1,.8.068l-.157,1.5a3.036,3.036,0,0,0-.711-.082,2.057,2.057,0,0,0-1.562.629,2.273,2.273,0,0,0-.6,1.634V0H26.421V-7.561h1.258l.212,1.333h.082A3,3,0,0,1,28.954-7.3,2.332,2.332,0,0,1,30.256-7.7ZM40.277,0H38.671V-6.453q0-1.155.055-1.832-.157.164-.386.362T36.8-6.665L36-7.684l2.939-2.311h1.34Z" transform="translate(188 330)" fill="#afafbb"/>
      <g id="Group_14639" data-name="Group 14639" transform="translate(1 51)">
        <rect id="Rectangle_3945-2" data-name="Rectangle 3945" width="24" height="24" transform="translate(158 261)" fill="none"/>
        <path id="Path_5647-2" data-name="Path 5647" d="M171.5,169.5A4.5,4.5,0,1,1,176,174,4.481,4.481,0,0,1,171.5,169.5Zm12.7,9.8a9.969,9.969,0,0,0-16.4,0,.984.984,0,0,0,.3,1.4,15.063,15.063,0,0,0,16,0A.958.958,0,0,0,184.2,179.3Z" transform="translate(-6 99)" fill="#a5c7ee"/>
      </g>
    </g>
    <g id="Group_14650" data-name="Group 14650" transform="translate(208 6)">
      <g id="Rectangle_4686" data-name="Rectangle 4686" transform="translate(278 85)" fill="#fff" stroke="#c6c6c6" stroke-width="1">
        <path d="M4,0H122a0,0,0,0,1,0,0V42a0,0,0,0,1,0,0H4a4,4,0,0,1-4-4V4A4,4,0,0,1,4,0Z" stroke="none"/>
        <path d="M4,.5H121a.5.5,0,0,1,.5.5V41a.5.5,0,0,1-.5.5H4A3.5,3.5,0,0,1,.5,38V4A3.5,3.5,0,0,1,4,.5Z" fill="none"/>
      </g>
      <path id="Path_10348" data-name="Path 10348" d="M9.153-9.994v6.467a3.835,3.835,0,0,1-.475,1.938A3.166,3.166,0,0,1,7.3-.311a4.775,4.775,0,0,1-2.15.448A4.022,4.022,0,0,1,2.263-.848,3.563,3.563,0,0,1,1.23-3.555V-9.994H2.871v6.323a2.527,2.527,0,0,0,.574,1.825,2.367,2.367,0,0,0,1.764.588q2.311,0,2.311-2.427v-6.31Zm7.465,7.841a1.978,1.978,0,0,1-.807,1.7A3.863,3.863,0,0,1,13.5.137a5.458,5.458,0,0,1-2.427-.458V-1.709a5.958,5.958,0,0,0,2.481.615q1.483,0,1.483-.9a.709.709,0,0,0-.164-.479,1.942,1.942,0,0,0-.54-.4,9.293,9.293,0,0,0-1.046-.465,4.838,4.838,0,0,1-1.767-1.012,1.872,1.872,0,0,1-.461-1.312,1.724,1.724,0,0,1,.783-1.507A3.714,3.714,0,0,1,13.973-7.7a6.031,6.031,0,0,1,2.522.54l-.52,1.21a5.61,5.61,0,0,0-2.058-.506q-1.271,0-1.271.725a.729.729,0,0,0,.332.6,7.291,7.291,0,0,0,1.446.677,6.609,6.609,0,0,1,1.36.663,1.982,1.982,0,0,1,.629.694A2.008,2.008,0,0,1,16.618-2.153ZM21.656.137A3.657,3.657,0,0,1,18.9-.892,3.906,3.906,0,0,1,17.9-3.726a4.285,4.285,0,0,1,.923-2.912A3.188,3.188,0,0,1,21.362-7.7a3.116,3.116,0,0,1,2.365.909,3.474,3.474,0,0,1,.868,2.5v.868H19.558a2.483,2.483,0,0,0,.595,1.692,2.071,2.071,0,0,0,1.579.591,5.829,5.829,0,0,0,1.248-.126,6.539,6.539,0,0,0,1.241-.42V-.376a4.932,4.932,0,0,1-1.189.4A7.294,7.294,0,0,1,21.656.137ZM21.362-6.48A1.614,1.614,0,0,0,20.135-6a2.313,2.313,0,0,0-.55,1.415h3.432A2.093,2.093,0,0,0,22.565-6,1.543,1.543,0,0,0,21.362-6.48ZM30.256-7.7a3.867,3.867,0,0,1,.8.068l-.157,1.5a3.036,3.036,0,0,0-.711-.082,2.057,2.057,0,0,0-1.562.629,2.273,2.273,0,0,0-.6,1.634V0H26.421V-7.561h1.258l.212,1.333h.082A3,3,0,0,1,28.954-7.3,2.332,2.332,0,0,1,30.256-7.7Zm11.7,0a2.315,2.315,0,0,1-.554,1.583,2.787,2.787,0,0,1-1.559.851v.055a3.017,3.017,0,0,1,1.8.749,2.141,2.141,0,0,1,.6,1.589A2.641,2.641,0,0,1,41.234-.646a4.673,4.673,0,0,1-2.9.783,6.527,6.527,0,0,1-2.8-.54V-1.832a6.4,6.4,0,0,0,1.347.485,5.847,5.847,0,0,0,1.367.171,2.883,2.883,0,0,0,1.736-.431,1.558,1.558,0,0,0,.574-1.333,1.269,1.269,0,0,0-.636-1.176,4.06,4.06,0,0,0-2-.376h-.868V-5.8h.882q2.393,0,2.393-1.654a1.22,1.22,0,0,0-.417-.991,1.878,1.878,0,0,0-1.23-.349,3.726,3.726,0,0,0-1.094.161A5.178,5.178,0,0,0,36.347-8l-.786-1.121a5.24,5.24,0,0,1,3.192-1.012,3.8,3.8,0,0,1,2.358.649A2.131,2.131,0,0,1,41.959-7.7Z" transform="translate(332 112)" fill="#5b5b5b"/>
      <g id="Group_7826" data-name="Group 7826" transform="translate(145 -167)">
        <rect id="Rectangle_3945-3" data-name="Rectangle 3945" width="24" height="24" transform="translate(158 261)" fill="none"/>
        <path id="Path_5647-3" data-name="Path 5647" d="M171.5,169.5A4.5,4.5,0,1,1,176,174,4.481,4.481,0,0,1,171.5,169.5Zm12.7,9.8a9.969,9.969,0,0,0-16.4,0,.984.984,0,0,0,.3,1.4,15.063,15.063,0,0,0,16,0A.958.958,0,0,0,184.2,179.3Z" transform="translate(-6 99)" fill="#5b5b5b"/>
      </g>
    </g>
    <g id="Group_14651" data-name="Group 14651" transform="translate(210 94)">
      <g id="Rectangle_8117" data-name="Rectangle 8117" transform="translate(276 303)" fill="#e6e6ea" stroke="#e6e6ea" stroke-width="1">
        <path d="M4,0H122a0,0,0,0,1,0,0V42a0,0,0,0,1,0,0H4a4,4,0,0,1-4-4V4A4,4,0,0,1,4,0Z" stroke="none"/>
        <path d="M4,.5H121a.5.5,0,0,1,.5.5V41a.5.5,0,0,1-.5.5H4A3.5,3.5,0,0,1,.5,38V4A3.5,3.5,0,0,1,4,.5Z" fill="none"/>
      </g>
      <path id="Path_10351" data-name="Path 10351" d="M9.153-9.994v6.467a3.835,3.835,0,0,1-.475,1.938A3.166,3.166,0,0,1,7.3-.311a4.775,4.775,0,0,1-2.15.448A4.022,4.022,0,0,1,2.263-.848,3.563,3.563,0,0,1,1.23-3.555V-9.994H2.871v6.323a2.527,2.527,0,0,0,.574,1.825,2.367,2.367,0,0,0,1.764.588q2.311,0,2.311-2.427v-6.31Zm7.465,7.841a1.978,1.978,0,0,1-.807,1.7A3.863,3.863,0,0,1,13.5.137a5.458,5.458,0,0,1-2.427-.458V-1.709a5.958,5.958,0,0,0,2.481.615q1.483,0,1.483-.9a.709.709,0,0,0-.164-.479,1.942,1.942,0,0,0-.54-.4,9.293,9.293,0,0,0-1.046-.465,4.838,4.838,0,0,1-1.767-1.012,1.872,1.872,0,0,1-.461-1.312,1.724,1.724,0,0,1,.783-1.507A3.714,3.714,0,0,1,13.973-7.7a6.031,6.031,0,0,1,2.522.54l-.52,1.21a5.61,5.61,0,0,0-2.058-.506q-1.271,0-1.271.725a.729.729,0,0,0,.332.6,7.291,7.291,0,0,0,1.446.677,6.609,6.609,0,0,1,1.36.663,1.982,1.982,0,0,1,.629.694A2.008,2.008,0,0,1,16.618-2.153ZM21.656.137A3.657,3.657,0,0,1,18.9-.892,3.906,3.906,0,0,1,17.9-3.726a4.285,4.285,0,0,1,.923-2.912A3.188,3.188,0,0,1,21.362-7.7a3.116,3.116,0,0,1,2.365.909,3.474,3.474,0,0,1,.868,2.5v.868H19.558a2.483,2.483,0,0,0,.595,1.692,2.071,2.071,0,0,0,1.579.591,5.829,5.829,0,0,0,1.248-.126,6.539,6.539,0,0,0,1.241-.42V-.376a4.932,4.932,0,0,1-1.189.4A7.294,7.294,0,0,1,21.656.137ZM21.362-6.48A1.614,1.614,0,0,0,20.135-6a2.313,2.313,0,0,0-.55,1.415h3.432A2.093,2.093,0,0,0,22.565-6,1.543,1.543,0,0,0,21.362-6.48ZM30.256-7.7a3.867,3.867,0,0,1,.8.068l-.157,1.5a3.036,3.036,0,0,0-.711-.082,2.057,2.057,0,0,0-1.562.629,2.273,2.273,0,0,0-.6,1.634V0H26.421V-7.561h1.258l.212,1.333h.082A3,3,0,0,1,28.954-7.3,2.332,2.332,0,0,1,30.256-7.7Zm11.7,0a2.315,2.315,0,0,1-.554,1.583,2.787,2.787,0,0,1-1.559.851v.055a3.017,3.017,0,0,1,1.8.749,2.141,2.141,0,0,1,.6,1.589A2.641,2.641,0,0,1,41.234-.646a4.673,4.673,0,0,1-2.9.783,6.527,6.527,0,0,1-2.8-.54V-1.832a6.4,6.4,0,0,0,1.347.485,5.847,5.847,0,0,0,1.367.171,2.883,2.883,0,0,0,1.736-.431,1.558,1.558,0,0,0,.574-1.333,1.269,1.269,0,0,0-.636-1.176,4.06,4.06,0,0,0-2-.376h-.868V-5.8h.882q2.393,0,2.393-1.654a1.22,1.22,0,0,0-.417-.991,1.878,1.878,0,0,0-1.23-.349,3.726,3.726,0,0,0-1.094.161A5.178,5.178,0,0,0,36.347-8l-.786-1.121a5.24,5.24,0,0,1,3.192-1.012,3.8,3.8,0,0,1,2.358.649A2.131,2.131,0,0,1,41.959-7.7Z" transform="translate(330 330)" fill="#afafbb"/>
      <g id="Group_14638" data-name="Group 14638" transform="translate(143 51)">
        <rect id="Rectangle_3945-4" data-name="Rectangle 3945" width="24" height="24" transform="translate(158 261)" fill="none"/>
        <path id="Path_5647-4" data-name="Path 5647" d="M171.5,169.5A4.5,4.5,0,1,1,176,174,4.481,4.481,0,0,1,171.5,169.5Zm12.7,9.8a9.969,9.969,0,0,0-16.4,0,.984.984,0,0,0,.3,1.4,15.063,15.063,0,0,0,16,0A.958.958,0,0,0,184.2,179.3Z" transform="translate(-6 99)" fill="#afafbb"/>
      </g>
    </g>
    <g id="Group_264156" data-name="Group 264156" transform="translate(376 14)">
      <g id="Group_264147" data-name="Group 264147" transform="translate(-168 22)">
        <g id="Rectangle_8115" data-name="Rectangle 8115" transform="translate(278 157)" fill="#fff" stroke="#606071" stroke-width="1">
          <path d="M4,0H122a0,0,0,0,1,0,0V42a0,0,0,0,1,0,0H4a4,4,0,0,1-4-4V4A4,4,0,0,1,4,0Z" stroke="none"/>
          <path d="M4,.5H121a.5.5,0,0,1,.5.5V41a.5.5,0,0,1-.5.5H4A3.5,3.5,0,0,1,.5,38V4A3.5,3.5,0,0,1,4,.5Z" fill="none"/>
        </g>
        <path id="Path_10349" data-name="Path 10349" d="M9.153-9.994v6.467a3.835,3.835,0,0,1-.475,1.938A3.166,3.166,0,0,1,7.3-.311a4.775,4.775,0,0,1-2.15.448A4.022,4.022,0,0,1,2.263-.848,3.563,3.563,0,0,1,1.23-3.555V-9.994H2.871v6.323a2.527,2.527,0,0,0,.574,1.825,2.367,2.367,0,0,0,1.764.588q2.311,0,2.311-2.427v-6.31Zm7.465,7.841a1.978,1.978,0,0,1-.807,1.7A3.863,3.863,0,0,1,13.5.137a5.458,5.458,0,0,1-2.427-.458V-1.709a5.958,5.958,0,0,0,2.481.615q1.483,0,1.483-.9a.709.709,0,0,0-.164-.479,1.942,1.942,0,0,0-.54-.4,9.293,9.293,0,0,0-1.046-.465,4.838,4.838,0,0,1-1.767-1.012,1.872,1.872,0,0,1-.461-1.312,1.724,1.724,0,0,1,.783-1.507A3.714,3.714,0,0,1,13.973-7.7a6.031,6.031,0,0,1,2.522.54l-.52,1.21a5.61,5.61,0,0,0-2.058-.506q-1.271,0-1.271.725a.729.729,0,0,0,.332.6,7.291,7.291,0,0,0,1.446.677,6.609,6.609,0,0,1,1.36.663,1.982,1.982,0,0,1,.629.694A2.008,2.008,0,0,1,16.618-2.153ZM21.656.137A3.657,3.657,0,0,1,18.9-.892,3.906,3.906,0,0,1,17.9-3.726a4.285,4.285,0,0,1,.923-2.912A3.188,3.188,0,0,1,21.362-7.7a3.116,3.116,0,0,1,2.365.909,3.474,3.474,0,0,1,.868,2.5v.868H19.558a2.483,2.483,0,0,0,.595,1.692,2.071,2.071,0,0,0,1.579.591,5.829,5.829,0,0,0,1.248-.126,6.539,6.539,0,0,0,1.241-.42V-.376a4.932,4.932,0,0,1-1.189.4A7.294,7.294,0,0,1,21.656.137ZM21.362-6.48A1.614,1.614,0,0,0,20.135-6a2.313,2.313,0,0,0-.55,1.415h3.432A2.093,2.093,0,0,0,22.565-6,1.543,1.543,0,0,0,21.362-6.48ZM30.256-7.7a3.867,3.867,0,0,1,.8.068l-.157,1.5a3.036,3.036,0,0,0-.711-.082,2.057,2.057,0,0,0-1.562.629,2.273,2.273,0,0,0-.6,1.634V0H26.421V-7.561h1.258l.212,1.333h.082A3,3,0,0,1,28.954-7.3,2.332,2.332,0,0,1,30.256-7.7Zm11.7,0a2.315,2.315,0,0,1-.554,1.583,2.787,2.787,0,0,1-1.559.851v.055a3.017,3.017,0,0,1,1.8.749,2.141,2.141,0,0,1,.6,1.589A2.641,2.641,0,0,1,41.234-.646a4.673,4.673,0,0,1-2.9.783,6.527,6.527,0,0,1-2.8-.54V-1.832a6.4,6.4,0,0,0,1.347.485,5.847,5.847,0,0,0,1.367.171,2.883,2.883,0,0,0,1.736-.431,1.558,1.558,0,0,0,.574-1.333,1.269,1.269,0,0,0-.636-1.176,4.06,4.06,0,0,0-2-.376h-.868V-5.8h.882q2.393,0,2.393-1.654a1.22,1.22,0,0,0-.417-.991,1.878,1.878,0,0,0-1.23-.349,3.726,3.726,0,0,0-1.094.161A5.178,5.178,0,0,0,36.347-8l-.786-1.121a5.24,5.24,0,0,1,3.192-1.012,3.8,3.8,0,0,1,2.358.649A2.131,2.131,0,0,1,41.959-7.7Z" transform="translate(332 184)" fill="#5b5b5b"/>
        <g id="Group_14635" data-name="Group 14635" transform="translate(145 -95)">
          <rect id="Rectangle_3945-5" data-name="Rectangle 3945" width="24" height="24" transform="translate(158 261)" fill="none"/>
          <path id="Path_5647-5" data-name="Path 5647" d="M171.5,169.5A4.5,4.5,0,1,1,176,174,4.481,4.481,0,0,1,171.5,169.5Zm12.7,9.8a9.969,9.969,0,0,0-16.4,0,.984.984,0,0,0,.3,1.4,15.063,15.063,0,0,0,16,0A.958.958,0,0,0,184.2,179.3Z" transform="translate(-6 99)" fill="#5b5b5b"/>
        </g>
      </g>
      <g id="Group_264149" data-name="Group 264149" transform="translate(-11700 -813)">
        <g id="noun_Pointer_44803-5" data-name="noun_Pointer_44803" transform="translate(11911 1005)">
          <g id="Group_15298-5" data-name="Group 15298" transform="translate(0 0)" opacity="0.9">
            <path id="Path_10321-5" data-name="Path 10321" d="M26.5,27.034a8.04,8.04,0,0,1-7.962-7.224.347.347,0,0,1-.037-.156V14.783a1.94,1.94,0,0,1,1.9-1.97,1.854,1.854,0,0,1,1.143.395V5.385a1.906,1.906,0,1,1,3.81,0v5.468a1.854,1.854,0,0,1,1.143-.395,1.91,1.91,0,0,1,1.775,1.257,1.863,1.863,0,0,1,1.272-.5,1.919,1.919,0,0,1,1.837,1.449,1.86,1.86,0,0,1,1.211-.45,1.94,1.94,0,0,1,1.9,1.97v5.031a.375.375,0,0,1,0,.051A8.045,8.045,0,0,1,26.5,27.034Z" transform="translate(-18.501 -3.415)" fill="#fff"/>
          </g>
        </g>
        <g id="noun_Pointer_44803-6" data-name="noun_Pointer_44803" transform="translate(11911 1005)">
          <g id="Group_15298-6" data-name="Group 15298" transform="translate(0 0)" opacity="0.9">
            <path id="Path_10321-6" data-name="Path 10321" d="M26.5,27.034a8.04,8.04,0,0,1-7.962-7.224.347.347,0,0,1-.037-.156V14.783a1.94,1.94,0,0,1,1.9-1.97,1.854,1.854,0,0,1,1.143.395V5.385a1.906,1.906,0,1,1,3.81,0v5.468a1.854,1.854,0,0,1,1.143-.395,1.91,1.91,0,0,1,1.775,1.257,1.863,1.863,0,0,1,1.272-.5,1.919,1.919,0,0,1,1.837,1.449,1.86,1.86,0,0,1,1.211-.45,1.94,1.94,0,0,1,1.9,1.97v5.031a.375.375,0,0,1,0,.051A8.045,8.045,0,0,1,26.5,27.034Zm-7.238-7.51a.339.339,0,0,1,.024.1,7.238,7.238,0,0,0,14.45-.424q0-.016,0-.033V14.178a1.145,1.145,0,1,0-2.286,0,.381.381,0,0,1-.762,0v-1a1.145,1.145,0,1,0-2.286,0,.381.381,0,1,1-.762,0v-.752a1.145,1.145,0,1,0-2.286,0,.381.381,0,1,1-.762,0V5.385a1.145,1.145,0,1,0-2.286,0V18.21a.381.381,0,1,1-.762,0V14.783a1.145,1.145,0,1,0-2.286,0v4.741Z" transform="translate(-18.501 -3.415)"/>
          </g>
        </g>
      </g>
    </g>
    <g id="Group_264155" data-name="Group 264155" transform="translate(384 14)">
      <g id="Group_264148" data-name="Group 264148" transform="translate(142 22)">
        <g id="Path_8856" data-name="Path 8856" transform="translate(136 157)" fill="#d0e2f6">
          <path d="M 121 41 L 4 41 C 2.345799922943115 41 1 39.65420150756836 1 38 L 1 4 C 1 2.345799922943115 2.345799922943115 1 4 1 L 121 1 L 121 41 Z" stroke="none"/>
          <path d="M 4 2 C 2.897201538085938 2 2 2.897201538085938 2 4 L 2 38 C 2 39.10279846191406 2.897201538085938 40 4 40 L 120 40 L 120 2 L 4 2 M 4 0 L 122 0 L 122 42 L 4 42 C 1.790863037109375 42 0 40.20913314819336 0 38 L 0 4 C 0 1.790851593017578 1.790863037109375 0 4 0 Z" stroke="none" fill="#2777d3"/>
        </g>
        <path id="Path_10353" data-name="Path 10353" d="M9.153-9.994v6.467a3.835,3.835,0,0,1-.475,1.938A3.166,3.166,0,0,1,7.3-.311a4.775,4.775,0,0,1-2.15.448A4.022,4.022,0,0,1,2.263-.848,3.563,3.563,0,0,1,1.23-3.555V-9.994H2.871v6.323a2.527,2.527,0,0,0,.574,1.825,2.367,2.367,0,0,0,1.764.588q2.311,0,2.311-2.427v-6.31Zm7.465,7.841a1.978,1.978,0,0,1-.807,1.7A3.863,3.863,0,0,1,13.5.137a5.458,5.458,0,0,1-2.427-.458V-1.709a5.958,5.958,0,0,0,2.481.615q1.483,0,1.483-.9a.709.709,0,0,0-.164-.479,1.942,1.942,0,0,0-.54-.4,9.293,9.293,0,0,0-1.046-.465,4.838,4.838,0,0,1-1.767-1.012,1.872,1.872,0,0,1-.461-1.312,1.724,1.724,0,0,1,.783-1.507A3.714,3.714,0,0,1,13.973-7.7a6.031,6.031,0,0,1,2.522.54l-.52,1.21a5.61,5.61,0,0,0-2.058-.506q-1.271,0-1.271.725a.729.729,0,0,0,.332.6,7.291,7.291,0,0,0,1.446.677,6.609,6.609,0,0,1,1.36.663,1.982,1.982,0,0,1,.629.694A2.008,2.008,0,0,1,16.618-2.153ZM21.656.137A3.657,3.657,0,0,1,18.9-.892,3.906,3.906,0,0,1,17.9-3.726a4.285,4.285,0,0,1,.923-2.912A3.188,3.188,0,0,1,21.362-7.7a3.116,3.116,0,0,1,2.365.909,3.474,3.474,0,0,1,.868,2.5v.868H19.558a2.483,2.483,0,0,0,.595,1.692,2.071,2.071,0,0,0,1.579.591,5.829,5.829,0,0,0,1.248-.126,6.539,6.539,0,0,0,1.241-.42V-.376a4.932,4.932,0,0,1-1.189.4A7.294,7.294,0,0,1,21.656.137ZM21.362-6.48A1.614,1.614,0,0,0,20.135-6a2.313,2.313,0,0,0-.55,1.415h3.432A2.093,2.093,0,0,0,22.565-6,1.543,1.543,0,0,0,21.362-6.48ZM30.256-7.7a3.867,3.867,0,0,1,.8.068l-.157,1.5a3.036,3.036,0,0,0-.711-.082,2.057,2.057,0,0,0-1.562.629,2.273,2.273,0,0,0-.6,1.634V0H26.421V-7.561h1.258l.212,1.333h.082A3,3,0,0,1,28.954-7.3,2.332,2.332,0,0,1,30.256-7.7ZM40.277,0H38.671V-6.453q0-1.155.055-1.832-.157.164-.386.362T36.8-6.665L36-7.684l2.939-2.311h1.34Z" transform="translate(190 184)" fill="#3d3d3d"/>
        <g id="Group_14634" data-name="Group 14634" transform="translate(3 -95)">
          <rect id="Rectangle_3945-6" data-name="Rectangle 3945" width="24" height="24" transform="translate(158 261)" fill="none"/>
          <path id="Path_5647-6" data-name="Path 5647" d="M171.5,169.5A4.5,4.5,0,1,1,176,174,4.481,4.481,0,0,1,171.5,169.5Zm12.7,9.8a9.969,9.969,0,0,0-16.4,0,.984.984,0,0,0,.3,1.4,15.063,15.063,0,0,0,16,0A.958.958,0,0,0,184.2,179.3Z" transform="translate(-6 99)" fill="#4e92df"/>
        </g>
      </g>
      <g id="Group_264150" data-name="Group 264150" transform="translate(-11532 -813)">
        <g id="noun_Pointer_44803-7" data-name="noun_Pointer_44803" transform="translate(11911 1005)">
          <g id="Group_15298-7" data-name="Group 15298" transform="translate(0 0)" opacity="0.9">
            <path id="Path_10321-7" data-name="Path 10321" d="M26.5,27.034a8.04,8.04,0,0,1-7.962-7.224.347.347,0,0,1-.037-.156V14.783a1.94,1.94,0,0,1,1.9-1.97,1.854,1.854,0,0,1,1.143.395V5.385a1.906,1.906,0,1,1,3.81,0v5.468a1.854,1.854,0,0,1,1.143-.395,1.91,1.91,0,0,1,1.775,1.257,1.863,1.863,0,0,1,1.272-.5,1.919,1.919,0,0,1,1.837,1.449,1.86,1.86,0,0,1,1.211-.45,1.94,1.94,0,0,1,1.9,1.97v5.031a.375.375,0,0,1,0,.051A8.045,8.045,0,0,1,26.5,27.034Z" transform="translate(-18.501 -3.415)" fill="#fff"/>
          </g>
        </g>
        <g id="noun_Pointer_44803-8" data-name="noun_Pointer_44803" transform="translate(11911 1005)">
          <g id="Group_15298-8" data-name="Group 15298" transform="translate(0 0)" opacity="0.9">
            <path id="Path_10321-8" data-name="Path 10321" d="M26.5,27.034a8.04,8.04,0,0,1-7.962-7.224.347.347,0,0,1-.037-.156V14.783a1.94,1.94,0,0,1,1.9-1.97,1.854,1.854,0,0,1,1.143.395V5.385a1.906,1.906,0,1,1,3.81,0v5.468a1.854,1.854,0,0,1,1.143-.395,1.91,1.91,0,0,1,1.775,1.257,1.863,1.863,0,0,1,1.272-.5,1.919,1.919,0,0,1,1.837,1.449,1.86,1.86,0,0,1,1.211-.45,1.94,1.94,0,0,1,1.9,1.97v5.031a.375.375,0,0,1,0,.051A8.045,8.045,0,0,1,26.5,27.034Zm-7.238-7.51a.339.339,0,0,1,.024.1,7.238,7.238,0,0,0,14.45-.424q0-.016,0-.033V14.178a1.145,1.145,0,1,0-2.286,0,.381.381,0,0,1-.762,0v-1a1.145,1.145,0,1,0-2.286,0,.381.381,0,1,1-.762,0v-.752a1.145,1.145,0,1,0-2.286,0,.381.381,0,1,1-.762,0V5.385a1.145,1.145,0,1,0-2.286,0V18.21a.381.381,0,1,1-.762,0V14.783a1.145,1.145,0,1,0-2.286,0v4.741Z" transform="translate(-18.501 -3.415)"/>
          </g>
        </g>
      </g>
    </g>
    <g id="Group_264152" data-name="Group 264152" transform="translate(526 66)">
      <g id="Path_8857" data-name="Path 8857" transform="translate(136 229)" fill="#d0e2f6">
        <path d="M 121 41 L 4 41 C 2.345799922943115 41 1 39.65420150756836 1 38 L 1 4 C 1 2.345799922943115 2.345799922943115 1 4 1 L 121 1 L 121 41 Z" stroke="none"/>
        <path d="M 4 2 C 2.897201538085938 2 2 2.897201538085938 2 4 L 2 38 C 2 39.10279846191406 2.897201538085938 40 4 40 L 120 40 L 120 2 L 4 2 M 4 0 L 122 0 L 122 42 L 4 42 C 1.790863037109375 42 0 40.20913314819336 0 38 L 0 4 C 0 1.790851593017578 1.790863037109375 0 4 0 Z" stroke="none" fill="#2777d3"/>
      </g>
      <path id="Path_10354" data-name="Path 10354" d="M9.153-9.994v6.467a3.835,3.835,0,0,1-.475,1.938A3.166,3.166,0,0,1,7.3-.311a4.775,4.775,0,0,1-2.15.448A4.022,4.022,0,0,1,2.263-.848,3.563,3.563,0,0,1,1.23-3.555V-9.994H2.871v6.323a2.527,2.527,0,0,0,.574,1.825,2.367,2.367,0,0,0,1.764.588q2.311,0,2.311-2.427v-6.31Zm7.465,7.841a1.978,1.978,0,0,1-.807,1.7A3.863,3.863,0,0,1,13.5.137a5.458,5.458,0,0,1-2.427-.458V-1.709a5.958,5.958,0,0,0,2.481.615q1.483,0,1.483-.9a.709.709,0,0,0-.164-.479,1.942,1.942,0,0,0-.54-.4,9.293,9.293,0,0,0-1.046-.465,4.838,4.838,0,0,1-1.767-1.012,1.872,1.872,0,0,1-.461-1.312,1.724,1.724,0,0,1,.783-1.507A3.714,3.714,0,0,1,13.973-7.7a6.031,6.031,0,0,1,2.522.54l-.52,1.21a5.61,5.61,0,0,0-2.058-.506q-1.271,0-1.271.725a.729.729,0,0,0,.332.6,7.291,7.291,0,0,0,1.446.677,6.609,6.609,0,0,1,1.36.663,1.982,1.982,0,0,1,.629.694A2.008,2.008,0,0,1,16.618-2.153ZM21.656.137A3.657,3.657,0,0,1,18.9-.892,3.906,3.906,0,0,1,17.9-3.726a4.285,4.285,0,0,1,.923-2.912A3.188,3.188,0,0,1,21.362-7.7a3.116,3.116,0,0,1,2.365.909,3.474,3.474,0,0,1,.868,2.5v.868H19.558a2.483,2.483,0,0,0,.595,1.692,2.071,2.071,0,0,0,1.579.591,5.829,5.829,0,0,0,1.248-.126,6.539,6.539,0,0,0,1.241-.42V-.376a4.932,4.932,0,0,1-1.189.4A7.294,7.294,0,0,1,21.656.137ZM21.362-6.48A1.614,1.614,0,0,0,20.135-6a2.313,2.313,0,0,0-.55,1.415h3.432A2.093,2.093,0,0,0,22.565-6,1.543,1.543,0,0,0,21.362-6.48ZM30.256-7.7a3.867,3.867,0,0,1,.8.068l-.157,1.5a3.036,3.036,0,0,0-.711-.082,2.057,2.057,0,0,0-1.562.629,2.273,2.273,0,0,0-.6,1.634V0H26.421V-7.561h1.258l.212,1.333h.082A3,3,0,0,1,28.954-7.3,2.332,2.332,0,0,1,30.256-7.7ZM40.277,0H38.671V-6.453q0-1.155.055-1.832-.157.164-.386.362T36.8-6.665L36-7.684l2.939-2.311h1.34Z" transform="translate(190 256)" fill="#3d3d3d"/>
      <g id="Group_14636" data-name="Group 14636" transform="translate(3 -23)">
        <rect id="Rectangle_3945-7" data-name="Rectangle 3945" width="24" height="24" transform="translate(158 261)" fill="none"/>
        <path id="Path_5647-7" data-name="Path 5647" d="M171.5,169.5A4.5,4.5,0,1,1,176,174,4.481,4.481,0,0,1,171.5,169.5Zm12.7,9.8a9.969,9.969,0,0,0-16.4,0,.984.984,0,0,0,.3,1.4,15.063,15.063,0,0,0,16,0A.958.958,0,0,0,184.2,179.3Z" transform="translate(-6 99)" fill="#2777d3"/>
      </g>
      <g id="Rectangle_8136" data-name="Rectangle 8136" transform="translate(139 232)" fill="none" stroke="#2777d3" stroke-width="1">
        <path d="M2,0H116a0,0,0,0,1,0,0V36a0,0,0,0,1,0,0H2a2,2,0,0,1-2-2V2A2,2,0,0,1,2,0Z" stroke="none"/>
        <path d="M2,.5H115a.5.5,0,0,1,.5.5V35a.5.5,0,0,1-.5.5H2A1.5,1.5,0,0,1,.5,34V2A1.5,1.5,0,0,1,2,.5Z" fill="none"/>
      </g>
    </g>
    <g id="Group_264151" data-name="Group 264151" transform="translate(208 66)">
      <g id="Rectangle_8116" data-name="Rectangle 8116" transform="translate(278 229)" fill="#fff" stroke="#c6c6c6" stroke-width="1">
        <path d="M4,0H122a0,0,0,0,1,0,0V42a0,0,0,0,1,0,0H4a4,4,0,0,1-4-4V4A4,4,0,0,1,4,0Z" stroke="none"/>
        <path d="M4,.5H121a.5.5,0,0,1,.5.5V41a.5.5,0,0,1-.5.5H4A3.5,3.5,0,0,1,.5,38V4A3.5,3.5,0,0,1,4,.5Z" fill="none"/>
      </g>
      <path id="Path_10350" data-name="Path 10350" d="M9.153-9.994v6.467a3.835,3.835,0,0,1-.475,1.938A3.166,3.166,0,0,1,7.3-.311a4.775,4.775,0,0,1-2.15.448A4.022,4.022,0,0,1,2.263-.848,3.563,3.563,0,0,1,1.23-3.555V-9.994H2.871v6.323a2.527,2.527,0,0,0,.574,1.825,2.367,2.367,0,0,0,1.764.588q2.311,0,2.311-2.427v-6.31Zm7.465,7.841a1.978,1.978,0,0,1-.807,1.7A3.863,3.863,0,0,1,13.5.137a5.458,5.458,0,0,1-2.427-.458V-1.709a5.958,5.958,0,0,0,2.481.615q1.483,0,1.483-.9a.709.709,0,0,0-.164-.479,1.942,1.942,0,0,0-.54-.4,9.293,9.293,0,0,0-1.046-.465,4.838,4.838,0,0,1-1.767-1.012,1.872,1.872,0,0,1-.461-1.312,1.724,1.724,0,0,1,.783-1.507A3.714,3.714,0,0,1,13.973-7.7a6.031,6.031,0,0,1,2.522.54l-.52,1.21a5.61,5.61,0,0,0-2.058-.506q-1.271,0-1.271.725a.729.729,0,0,0,.332.6,7.291,7.291,0,0,0,1.446.677,6.609,6.609,0,0,1,1.36.663,1.982,1.982,0,0,1,.629.694A2.008,2.008,0,0,1,16.618-2.153ZM21.656.137A3.657,3.657,0,0,1,18.9-.892,3.906,3.906,0,0,1,17.9-3.726a4.285,4.285,0,0,1,.923-2.912A3.188,3.188,0,0,1,21.362-7.7a3.116,3.116,0,0,1,2.365.909,3.474,3.474,0,0,1,.868,2.5v.868H19.558a2.483,2.483,0,0,0,.595,1.692,2.071,2.071,0,0,0,1.579.591,5.829,5.829,0,0,0,1.248-.126,6.539,6.539,0,0,0,1.241-.42V-.376a4.932,4.932,0,0,1-1.189.4A7.294,7.294,0,0,1,21.656.137ZM21.362-6.48A1.614,1.614,0,0,0,20.135-6a2.313,2.313,0,0,0-.55,1.415h3.432A2.093,2.093,0,0,0,22.565-6,1.543,1.543,0,0,0,21.362-6.48ZM30.256-7.7a3.867,3.867,0,0,1,.8.068l-.157,1.5a3.036,3.036,0,0,0-.711-.082,2.057,2.057,0,0,0-1.562.629,2.273,2.273,0,0,0-.6,1.634V0H26.421V-7.561h1.258l.212,1.333h.082A3,3,0,0,1,28.954-7.3,2.332,2.332,0,0,1,30.256-7.7Zm11.7,0a2.315,2.315,0,0,1-.554,1.583,2.787,2.787,0,0,1-1.559.851v.055a3.017,3.017,0,0,1,1.8.749,2.141,2.141,0,0,1,.6,1.589A2.641,2.641,0,0,1,41.234-.646a4.673,4.673,0,0,1-2.9.783,6.527,6.527,0,0,1-2.8-.54V-1.832a6.4,6.4,0,0,0,1.347.485,5.847,5.847,0,0,0,1.367.171,2.883,2.883,0,0,0,1.736-.431,1.558,1.558,0,0,0,.574-1.333,1.269,1.269,0,0,0-.636-1.176,4.06,4.06,0,0,0-2-.376h-.868V-5.8h.882q2.393,0,2.393-1.654a1.22,1.22,0,0,0-.417-.991,1.878,1.878,0,0,0-1.23-.349,3.726,3.726,0,0,0-1.094.161A5.178,5.178,0,0,0,36.347-8l-.786-1.121a5.24,5.24,0,0,1,3.192-1.012,3.8,3.8,0,0,1,2.358.649A2.131,2.131,0,0,1,41.959-7.7Z" transform="translate(332 256)" fill="#5b5b5b"/>
      <g id="Group_14637" data-name="Group 14637" transform="translate(145 -23)">
        <rect id="Rectangle_3945-8" data-name="Rectangle 3945" width="24" height="24" transform="translate(158 261)" fill="none"/>
        <path id="Path_5647-8" data-name="Path 5647" d="M171.5,169.5A4.5,4.5,0,1,1,176,174,4.481,4.481,0,0,1,171.5,169.5Zm12.7,9.8a9.969,9.969,0,0,0-16.4,0,.984.984,0,0,0,.3,1.4,15.063,15.063,0,0,0,16,0A.958.958,0,0,0,184.2,179.3Z" transform="translate(-6 99)" fill="#5b5b5b"/>
      </g>
      <g id="Rectangle_8135" data-name="Rectangle 8135" transform="translate(280 231)" fill="none" stroke="#2777d3" stroke-width="1">
        <path d="M3,0H118a0,0,0,0,1,0,0V38a0,0,0,0,1,0,0H3a3,3,0,0,1-3-3V3A3,3,0,0,1,3,0Z" stroke="none"/>
        <path d="M3,.5H117a.5.5,0,0,1,.5.5V37a.5.5,0,0,1-.5.5H3A2.5,2.5,0,0,1,.5,35V3A2.5,2.5,0,0,1,3,.5Z" fill="none"/>
      </g>
    </g>
    <rect id="Rectangle_8223" data-name="Rectangle 8223" width="20" height="523" transform="translate(348)" fill="#fff"/>
  </g>
</svg>
