<svg xmlns="http://www.w3.org/2000/svg" xmlns:xlink="http://www.w3.org/1999/xlink" width="136" height="36" viewBox="0 0 136 36">
  <defs>
    <clipPath id="clip-path">
      <rect width="36" height="36" fill="none"/>
    </clipPath>
  </defs>
  <g id="Group_13274" data-name="Group 13274" transform="translate(-579 -82)">
    <g id="Icon_Primary_-_Normal" data-name="Icon Primary - Normal" transform="translate(579 82)" clip-path="url(#clip-path)">
      <rect id="Rectangle_3993" data-name="Rectangle 3993" width="36" height="36" rx="18" fill="#2777d3"/>
      <path id="Path_6618" data-name="Path 6618" d="M18.142,3.975a3.131,3.131,0,0,0-4.429,0L4.2,13.486a1.342,1.342,0,0,0-.373.716l-.764,4.331a.447.447,0,0,0,.518.518l4.331-.764a1.342,1.342,0,0,0,.716-.373L18.141,8.4a3.131,3.131,0,0,0,0-4.428ZM5.527,14.846a.224.224,0,0,0,0,.317l2.068,2.069a.224.224,0,0,1-.115.377l-2.159.381a.895.895,0,0,1-1.037-1.037l.431-2.443a.447.447,0,0,1,.124-.239L14.346,4.76a2.227,2.227,0,0,1,1.89-.626Z" transform="translate(6.941 6.942)" fill="#fff"/>
    </g>
    <g id="Icon_Secondary_-_Normal" data-name="Icon Secondary - Normal" transform="translate(629 82)">
      <path id="Path_6627" data-name="Path 6627" d="M18.142,3.975a3.131,3.131,0,0,0-4.429,0L4.2,13.486a1.342,1.342,0,0,0-.373.716l-.764,4.331a.447.447,0,0,0,.518.518l4.331-.764a1.342,1.342,0,0,0,.716-.373L18.141,8.4a3.131,3.131,0,0,0,0-4.428ZM5.527,14.846a.224.224,0,0,0,0,.317l2.068,2.069a.224.224,0,0,1-.115.377l-2.159.381a.895.895,0,0,1-1.037-1.037l.431-2.443a.447.447,0,0,1,.124-.239L14.346,4.76a2.227,2.227,0,0,1,1.89-.626Z" transform="translate(6.941 6.942)" fill="#2777d3"/>
      <g id="Path_9712" data-name="Path 9712" fill="none">
        <path d="M18,0A18,18,0,1,1,0,18,18,18,0,0,1,18,0Z" stroke="none"/>
        <path d="M 18 1 C 13.45912933349609 1 9.190059661865234 2.768310546875 5.979179382324219 5.979179382324219 C 2.768310546875 9.190059661865234 1 13.45912933349609 1 18 C 1 22.54087066650391 2.768310546875 26.80994033813477 5.979179382324219 30.02082061767578 C 9.190059661865234 33.231689453125 13.45912933349609 35 18 35 C 22.54087066650391 35 26.80994033813477 33.231689453125 30.02082061767578 30.02082061767578 C 33.231689453125 26.80994033813477 35 22.54087066650391 35 18 C 35 13.45912933349609 33.231689453125 9.190059661865234 30.02082061767578 5.979179382324219 C 26.80994033813477 2.768310546875 22.54087066650391 1 18 1 M 18 0 C 27.94112968444824 0 36 8.058870315551758 36 18 C 36 27.94112968444824 27.94112968444824 36 18 36 C 8.058870315551758 36 0 27.94112968444824 0 18 C 0 8.058870315551758 8.058870315551758 0 18 0 Z" stroke="none" fill="#cbcbd2"/>
      </g>
    </g>
    <g id="Icon_Link_-_Normal" data-name="Icon Link - Normal" transform="translate(679 82)">
      <path id="Path_6634" data-name="Path 6634" d="M18.142,3.975a3.131,3.131,0,0,0-4.429,0L4.2,13.486a1.342,1.342,0,0,0-.373.716l-.764,4.331a.447.447,0,0,0,.518.518l4.331-.764a1.342,1.342,0,0,0,.716-.373L18.141,8.4a3.131,3.131,0,0,0,0-4.428ZM5.527,14.846a.224.224,0,0,0,0,.317l2.068,2.069a.224.224,0,0,1-.115.377l-2.159.381a.895.895,0,0,1-1.037-1.037l.431-2.443a.447.447,0,0,1,.124-.239L14.346,4.76a2.227,2.227,0,0,1,1.89-.626Z" transform="translate(6.941 6.942)" fill="#2777d3"/>
      <rect id="Rectangle_5240" data-name="Rectangle 5240" width="36" height="36" rx="18" fill="none"/>
    </g>
  </g>
</svg>
