<svg xmlns="http://www.w3.org/2000/svg" xmlns:xlink="http://www.w3.org/1999/xlink" width="286" height="140" viewBox="0 0 286 140">
  <defs>
    <clipPath id="clip-button_group_-_anatomy">
      <rect width="286" height="140"/>
    </clipPath>
  </defs>
  <g id="button_group_-_anatomy" data-name="button group - anatomy" clip-path="url(#clip-button_group_-_anatomy)">
    <rect width="286" height="140" fill="#fff"/>
    <g id="Group_264423" data-name="Group 264423" transform="translate(-1 60)">
      <g id="Primary_Button" data-name="Primary Button" transform="translate(87 24)">
        <g id="Rectangle_3990" data-name="Rectangle 3990" fill="none" stroke="#cbcbd2" stroke-width="1">
          <path d="M18,0H57a0,0,0,0,1,0,0V36a0,0,0,0,1,0,0H18A18,18,0,0,1,0,18v0A18,18,0,0,1,18,0Z" stroke="none"/>
          <path d="M18,.5H56.027A.473.473,0,0,1,56.5.973V35.027a.473.473,0,0,1-.473.473H18A17.5,17.5,0,0,1,.5,18v0A17.5,17.5,0,0,1,18,.5Z" fill="none"/>
        </g>
        <text id="Post" transform="translate(15 23)" fill="#2777d3" font-size="14" font-family="SegoeUI-Semibold, Segoe UI" font-weight="600"><tspan x="0" y="0">Post</tspan></text>
      </g>
      <g id="Primary_Button-2" data-name="Primary Button" transform="translate(143 24)">
        <g id="Rectangle_3990-2" data-name="Rectangle 3990" fill="none" stroke="#cbcbd2" stroke-width="1">
          <rect width="54" height="36" stroke="none"/>
          <rect x="0.5" y="0.5" width="53" height="35" fill="none"/>
        </g>
        <text id="Edit" transform="translate(15 23)" fill="#2777d3" font-size="14" font-family="SegoeUI-Semibold, Segoe UI" font-weight="600"><tspan x="0" y="0">Edit</tspan></text>
      </g>
      <g id="Primary_Button-3" data-name="Primary Button" transform="translate(196 24)">
        <g id="Rectangle_3990-3" data-name="Rectangle 3990" fill="none" stroke="#cbcbd2" stroke-width="1">
          <path d="M0,0H53A18,18,0,0,1,71,18v0A18,18,0,0,1,53,36H0a0,0,0,0,1,0,0V0A0,0,0,0,1,0,0Z" stroke="none"/>
          <path d="M.973.5H53A17.5,17.5,0,0,1,70.5,18v0A17.5,17.5,0,0,1,53,35.5H.973A.473.473,0,0,1,.5,35.027V.973A.473.473,0,0,1,.973.5Z" fill="none"/>
        </g>
        <text id="Delete" transform="translate(15 23)" fill="#2777d3" font-size="14" font-family="SegoeUI-Semibold, Segoe UI" font-weight="600"><tspan x="0" y="0">Delete</tspan></text>
      </g>
    </g>
    <path id="Path_101602" data-name="Path 101602" d="M12,0A12,12,0,1,1,0,12,12,12,0,0,1,12,0Z" transform="translate(19 90)" fill="#c6318c"/>
    <path id="Path_101617" data-name="Path 101617" d="M-2.365-10.021V0H-4.519V-7.588a2.579,2.579,0,0,1-.42.3,4.34,4.34,0,0,1-.516.253,4.608,4.608,0,0,1-.567.191,4.144,4.144,0,0,1-.581.113V-8.552a8.982,8.982,0,0,0,1.586-.629,9.025,9.025,0,0,0,1.347-.841Z" transform="translate(35 107)" fill="#fff"/>
    <path id="Path_101601" data-name="Path 101601" d="M0,0H1V50.718H0Z" transform="translate(42 102) rotate(-90)" fill="#c6318c"/>
    <path id="Path_101608" data-name="Path 101608" d="M12,0A12,12,0,1,1,0,12,12,12,0,0,1,12,0Z" transform="translate(130 24)" fill="#c6318c"/>
    <path id="Path_101624" data-name="Path 101624" d="M-5.12-1.791H-.964V0H-7.485V-.738a3.436,3.436,0,0,1,.253-1.35A4.48,4.48,0,0,1-6.6-3.162,5.514,5.514,0,0,1-5.759-4q.455-.366.865-.66.431-.308.755-.588a4.3,4.3,0,0,0,.547-.557,2.118,2.118,0,0,0,.332-.561,1.667,1.667,0,0,0,.109-.6,1.216,1.216,0,0,0-.355-.95,1.58,1.58,0,0,0-1.087-.321,3.651,3.651,0,0,0-2.42,1v-1.9a5.2,5.2,0,0,1,2.885-.827,4.26,4.26,0,0,1,1.336.195,2.827,2.827,0,0,1,1,.557,2.376,2.376,0,0,1,.625.878A2.964,2.964,0,0,1-.95-7.185a3.248,3.248,0,0,1-.208,1.2,3.7,3.7,0,0,1-.554.957,5.023,5.023,0,0,1-.8.79q-.451.359-.937.694-.328.232-.632.461a6,6,0,0,0-.537.451,2.449,2.449,0,0,0-.369.434A.749.749,0,0,0-5.12-1.791Z" transform="translate(146.485 41)" fill="#fff"/>
    <path id="Path_101607" data-name="Path 101607" d="M0,0H1V43H0Z" transform="translate(142 47)" fill="#c6318c"/>
  </g>
</svg>
