<svg xmlns="http://www.w3.org/2000/svg" xmlns:xlink="http://www.w3.org/1999/xlink" width="224" height="76" viewBox="0 0 224 76">
  <defs>
    <clipPath id="clip-button_group_-_primary">
      <rect width="224" height="76"/>
    </clipPath>
  </defs>
  <g id="button_group_-_primary" data-name="button group - primary" clip-path="url(#clip-button_group_-_primary)">
    <rect width="224" height="76" fill="#fff"/>
    <g id="Primary_Button" data-name="Primary Button" transform="translate(133 20)">
      <path id="Rectangle_3990" data-name="Rectangle 3990" d="M0,0H53A18,18,0,0,1,71,18v0A18,18,0,0,1,53,36H0a0,0,0,0,1,0,0V0A0,0,0,0,1,0,0Z" fill="#2777d3"/>
      <text id="Delete" transform="translate(15 23)" fill="#fff" font-size="14" font-family="SegoeUI-Semibold, Segoe UI" font-weight="600"><tspan x="0" y="0">Delete</tspan></text>
    </g>
    <g id="Primary_Button-2" data-name="Primary Button" transform="translate(20 20)">
      <path id="Rectangle_3990-2" data-name="Rectangle 3990" d="M18,0H57a0,0,0,0,1,0,0V36a0,0,0,0,1,0,0H18A18,18,0,0,1,0,18v0A18,18,0,0,1,18,0Z" fill="#2777d3"/>
      <text id="Post" transform="translate(15 23)" fill="#fff" font-size="14" font-family="SegoeUI-Semibold, Segoe UI" font-weight="600"><tspan x="0" y="0">Post</tspan></text>
    </g>
    <g id="Primary_Button-3" data-name="Primary Button" transform="translate(78 20)">
      <rect id="Rectangle_3990-3" data-name="Rectangle 3990" width="54" height="36" fill="#2777d3"/>
      <text id="Edit" transform="translate(15 23)" fill="#fff" font-size="14" font-family="SegoeUI-Semibold, Segoe UI" font-weight="600"><tspan x="0" y="0">Edit</tspan></text>
    </g>
  </g>
</svg>
