<svg xmlns="http://www.w3.org/2000/svg" xmlns:xlink="http://www.w3.org/1999/xlink" width="356" height="255" viewBox="0 0 356 255">
  <defs>
    <filter id="Path_101586" x="91.5" y="113.5" width="249" height="127" filterUnits="userSpaceOnUse">
      <feOffset dy="1" input="SourceAlpha"/>
      <feGaussianBlur stdDeviation="1.5" result="blur"/>
      <feFlood flood-opacity="0.161"/>
      <feComposite operator="in" in2="blur"/>
      <feComposite in="SourceGraphic"/>
    </filter>
    <clipPath id="clip-button_dropdown_anatomy_2">
      <rect width="356" height="255"/>
    </clipPath>
  </defs>
  <g id="button_dropdown_anatomy_2" clip-path="url(#clip-button_dropdown_anatomy_2)">
    <rect width="356" height="255" fill="#fff"/>
    <path id="Path_101612" data-name="Path 101612" d="M12,0A12,12,0,1,1,0,12,12,12,0,0,1,12,0Z" transform="translate(232 87)" fill="#c6318c"/>
    <path id="Path_101629" data-name="Path 101629" d="M-7.253-.321V-2.2a3.794,3.794,0,0,0,2.3.718,2.068,2.068,0,0,0,1.289-.355,1.18,1.18,0,0,0,.461-.991,1.127,1.127,0,0,0-.571-1.012A2.957,2.957,0,0,0-5.346-4.2h-.909V-5.852h.841q1.914,0,1.914-1.271,0-1.2-1.47-1.2a3.351,3.351,0,0,0-1.914.636V-9.447a5.286,5.286,0,0,1,2.406-.52,3.631,3.631,0,0,1,2.341.677A2.154,2.154,0,0,1-1.3-7.533,2.284,2.284,0,0,1-3.247-5.127v.034a2.649,2.649,0,0,1,1.641.755A2.13,2.13,0,0,1-1-2.8a2.63,2.63,0,0,1-1,2.174,4.345,4.345,0,0,1-2.775.8A5.364,5.364,0,0,1-7.253-.321Z" transform="translate(248 104)" fill="#fff"/>
    <path id="Path_101608" data-name="Path 101608" d="M12,0A12,12,0,1,1,0,12,12,12,0,0,1,12,0Z" transform="translate(123 20)" fill="#c6318c"/>
    <path id="Path_101624" data-name="Path 101624" d="M-5.12-1.791H-.964V0H-7.485V-.738a3.436,3.436,0,0,1,.253-1.35A4.48,4.48,0,0,1-6.6-3.162,5.514,5.514,0,0,1-5.759-4q.455-.366.865-.66.431-.308.755-.588a4.3,4.3,0,0,0,.547-.557,2.118,2.118,0,0,0,.332-.561,1.667,1.667,0,0,0,.109-.6,1.216,1.216,0,0,0-.355-.95,1.58,1.58,0,0,0-1.087-.321,3.651,3.651,0,0,0-2.42,1v-1.9a5.2,5.2,0,0,1,2.885-.827,4.26,4.26,0,0,1,1.336.195,2.827,2.827,0,0,1,1,.557,2.376,2.376,0,0,1,.625.878A2.964,2.964,0,0,1-.95-7.185a3.248,3.248,0,0,1-.208,1.2,3.7,3.7,0,0,1-.554.957,5.023,5.023,0,0,1-.8.79q-.451.359-.937.694-.328.232-.632.461a6,6,0,0,0-.537.451,2.449,2.449,0,0,0-.369.434A.749.749,0,0,0-5.12-1.791Z" transform="translate(139 37)" fill="#fff"/>
    <path id="Path_101602" data-name="Path 101602" d="M12,0A12,12,0,1,1,0,12,12,12,0,0,1,12,0Z" transform="translate(20 87)" fill="#c6318c"/>
    <path id="Path_101623" data-name="Path 101623" d="M-2.365-10.021V0H-4.519V-7.588a2.579,2.579,0,0,1-.42.3,4.34,4.34,0,0,1-.516.253,4.608,4.608,0,0,1-.567.191,4.144,4.144,0,0,1-.581.113V-8.552a8.982,8.982,0,0,0,1.586-.629,9.025,9.025,0,0,0,1.347-.841Z" transform="translate(36 104)" fill="#fff"/>
    <path id="Path_101603" data-name="Path 101603" d="M0,0H1V43H0Z" transform="translate(43 141.5) rotate(-90)" fill="#c6318c"/>
    <path id="Path_101601" data-name="Path 101601" d="M0,0H1V43H0Z" transform="translate(43 99.5) rotate(-90)" fill="#c6318c"/>
    <g transform="matrix(1, 0, 0, 1, 0, 0)" filter="url(#Path_101586)">
      <path id="Path_101586-2" data-name="Path 101586" d="M0,0H240V118H0Z" transform="translate(96 117)" fill="#fff"/>
    </g>
    <path id="Path_101587" data-name="Path 101587" d="M0,0H240V36H0Z" transform="translate(96 123)" fill="#fff"/>
    <path id="Path_101588" data-name="Path 101588" d="M6.48,0h-5.2V-9.8H6.262v1.039H2.434V-5.5H5.975v1.032H2.434v3.432H6.48Zm7.711,0H13.07V-1.189h-.027A2.588,2.588,0,0,1,10.637.164a2.615,2.615,0,0,1-2.109-.94,3.856,3.856,0,0,1-.79-2.56,4.2,4.2,0,0,1,.875-2.782,2.886,2.886,0,0,1,2.331-1.046,2.244,2.244,0,0,1,2.1,1.135h.027v-4.334h1.121ZM13.07-3.165V-4.2a2,2,0,0,0-.561-1.436,1.88,1.88,0,0,0-1.422-.588,1.936,1.936,0,0,0-1.613.752,3.3,3.3,0,0,0-.588,2.078A2.964,2.964,0,0,0,9.451-1.48a1.843,1.843,0,0,0,1.514.7,1.915,1.915,0,0,0,1.521-.677A2.521,2.521,0,0,0,13.07-3.165Zm3.965-5.612a.71.71,0,0,1-.513-.205.692.692,0,0,1-.212-.52.7.7,0,0,1,.212-.523.7.7,0,0,1,.513-.208.724.724,0,0,1,.523.208.7.7,0,0,1,.215.523.693.693,0,0,1-.215.513A.718.718,0,0,1,17.035-8.777ZM17.582,0H16.461V-7h1.121ZM23.1-.068A2.161,2.161,0,0,1,22.053.15Q20.214.15,20.214-1.9V-6.043h-1.2V-7h1.2V-8.709l1.121-.362V-7H23.1v.957H21.335V-2.1a1.635,1.635,0,0,0,.239,1,.955.955,0,0,0,.793.3,1.179,1.179,0,0,0,.731-.232Z" transform="translate(111 145)" fill="#494955"/>
    <path id="Path_101591" data-name="Path 101591" d="M0,0H240V36H0Z" transform="translate(96 159)" fill="#fff"/>
    <path id="Path_101592" data-name="Path 101592" d="M1.285,0V-9.8H3.992q5.182,0,5.182,4.778A4.815,4.815,0,0,1,7.735-1.377,5.338,5.338,0,0,1,3.883,0ZM2.434-8.764v7.725H3.9a4.152,4.152,0,0,0,3-1.032A3.869,3.869,0,0,0,7.971-5q0-3.767-4.006-3.767ZM16.577-3.22H11.635a2.618,2.618,0,0,0,.629,1.8,2.168,2.168,0,0,0,1.654.636,3.439,3.439,0,0,0,2.174-.779V-.506a4.063,4.063,0,0,1-2.44.67A2.959,2.959,0,0,1,11.32-.79a3.9,3.9,0,0,1-.848-2.683A3.828,3.828,0,0,1,11.4-6.135a2.97,2.97,0,0,1,2.3-1.029,2.632,2.632,0,0,1,2.126.889,3.705,3.705,0,0,1,.752,2.468Zm-1.148-.95a2.281,2.281,0,0,0-.468-1.511,1.6,1.6,0,0,0-1.282-.54,1.811,1.811,0,0,0-1.347.567,2.575,2.575,0,0,0-.684,1.483ZM19.394,0H18.272V-10.363h1.121Zm7.9-3.22H22.347a2.618,2.618,0,0,0,.629,1.8,2.168,2.168,0,0,0,1.654.636A3.439,3.439,0,0,0,26.8-1.559V-.506a4.063,4.063,0,0,1-2.44.67A2.959,2.959,0,0,1,22.032-.79a3.9,3.9,0,0,1-.848-2.683,3.828,3.828,0,0,1,.926-2.663,2.97,2.97,0,0,1,2.3-1.029,2.632,2.632,0,0,1,2.126.889,3.705,3.705,0,0,1,.752,2.468Zm-1.148-.95a2.281,2.281,0,0,0-.468-1.511,1.6,1.6,0,0,0-1.282-.54,1.811,1.811,0,0,0-1.347.567A2.575,2.575,0,0,0,22.36-4.17Zm6.091,4.1A2.161,2.161,0,0,1,31.186.15Q29.347.15,29.347-1.9V-6.043h-1.2V-7h1.2V-8.709l1.121-.362V-7h1.764v.957H30.468V-2.1a1.635,1.635,0,0,0,.239,1,.955.955,0,0,0,.793.3,1.179,1.179,0,0,0,.731-.232ZM39.354-3.22H34.412a2.618,2.618,0,0,0,.629,1.8A2.168,2.168,0,0,0,36.7-.779a3.439,3.439,0,0,0,2.174-.779V-.506a4.063,4.063,0,0,1-2.44.67A2.959,2.959,0,0,1,34.1-.79a3.9,3.9,0,0,1-.848-2.683,3.828,3.828,0,0,1,.926-2.663,2.97,2.97,0,0,1,2.3-1.029,2.632,2.632,0,0,1,2.126.889,3.705,3.705,0,0,1,.752,2.468Zm-1.148-.95a2.281,2.281,0,0,0-.468-1.511,1.6,1.6,0,0,0-1.282-.54,1.811,1.811,0,0,0-1.347.567,2.575,2.575,0,0,0-.684,1.483Z" transform="translate(111 181)" fill="#494955"/>
    <path id="Path_101593" data-name="Path 101593" d="M0,0H24V24H0Z" transform="translate(119 85) rotate(90)" fill="none"/>
    <path id="Path_101604" data-name="Path 101604" d="M12,0A12,12,0,1,1,0,12,12,12,0,0,1,12,0Z" transform="translate(20 129)" fill="#c6318c"/>
    <path id="Path_101605" data-name="Path 101605" d="M0,0H1V59.29H0Z" transform="translate(43 179.5) rotate(-90)" fill="#c6318c"/>
    <path id="Path_101606" data-name="Path 101606" d="M12,0A12,12,0,1,1,0,12,12,12,0,0,1,12,0Z" transform="translate(20 167)" fill="#c6318c"/>
    <path id="Path_101625" data-name="Path 101625" d="M18,0H75.934a18,18,0,0,1,0,36H18A18,18,0,0,1,18,0Z" transform="translate(96 81)" fill="#2777d3"/>
    <path id="Path_101626" data-name="Path 101626" d="M-11.351,0h-1.784l-.882-2.5h-3.855L-18.72,0H-20.5l3.671-9.8h1.832Zm-3.1-3.821-1.36-3.91a4.632,4.632,0,0,1-.13-.615h-.027a4,4,0,0,1-.137.615l-1.347,3.91Zm9.276,3.5A3.911,3.911,0,0,1-7.161.164,3.369,3.369,0,0,1-9.676-.81a3.451,3.451,0,0,1-.957-2.526A3.8,3.8,0,0,1-9.6-6.115,3.678,3.678,0,0,1-6.853-7.164a4.016,4.016,0,0,1,1.688.335v1.477A2.557,2.557,0,0,0-6.723-5.9a2.166,2.166,0,0,0-1.647.68,2.487,2.487,0,0,0-.643,1.781,2.371,2.371,0,0,0,.6,1.716,2.148,2.148,0,0,0,1.624.629A2.537,2.537,0,0,0-5.171-1.7ZM.092-.075A2.748,2.748,0,0,1-1.131.157Q-3.168.157-3.168-1.8V-5.756H-4.337V-7h1.169V-8.62l1.586-.451V-7H.092v1.244H-1.583v3.5a1.379,1.379,0,0,0,.226.889A.936.936,0,0,0-.6-1.1a1.09,1.09,0,0,0,.7-.232ZM2.259-8.47a.953.953,0,0,1-.667-.253.832.832,0,0,1-.277-.643.854.854,0,0,1,.277-.649.939.939,0,0,1,.667-.26.969.969,0,0,1,.684.26.849.849,0,0,1,.28.649.837.837,0,0,1-.28.632A.962.962,0,0,1,2.259-8.47ZM3.045,0H1.459V-7H3.045ZM8.22.164A3.47,3.47,0,0,1,5.633-.817a3.544,3.544,0,0,1-.967-2.6A3.687,3.687,0,0,1,5.674-6.173a3.708,3.708,0,0,1,2.717-.991,3.358,3.358,0,0,1,2.557.964,3.723,3.723,0,0,1,.916,2.673,3.669,3.669,0,0,1-.988,2.683A3.548,3.548,0,0,1,8.22.164ZM8.3-5.9a1.81,1.81,0,0,0-1.47.649,2.719,2.719,0,0,0-.54,1.791,2.561,2.561,0,0,0,.547,1.733A1.837,1.837,0,0,0,8.3-1.094a1.743,1.743,0,0,0,1.439-.622,2.754,2.754,0,0,0,.5-1.771,2.8,2.8,0,0,0-.5-1.784A1.734,1.734,0,0,0,8.3-5.9ZM19.711,0H18.125V-3.944q0-1.962-1.388-1.962a1.515,1.515,0,0,0-1.2.543,2.016,2.016,0,0,0-.472,1.371V0H13.477V-7H15.07v1.162H15.1a2.5,2.5,0,0,1,2.27-1.326,2.114,2.114,0,0,1,1.743.742,3.33,3.33,0,0,1,.6,2.143Z" transform="translate(133 104)" fill="#fff"/>
    <path id="Path_7189" data-name="Path 7189" d="M15.036,9.421,12,12.457,8.964,9.421a1,1,0,0,0-1.414,0h0a1,1,0,0,0,0,1.414l3.743,3.743a1,1,0,0,0,1.414,0l3.743-3.743a1,1,0,0,0,0-1.414h0A1,1,0,0,0,15.036,9.421Z" transform="translate(158 88)" fill="#fff"/>
    <path id="Path_101627" data-name="Path 101627" d="M-1.545-9.8v6.18H-.369V-2.01H-1.545V0H-3.514V-2.01H-7.786V-3.7q.567-.636,1.176-1.391t1.176-1.555q.567-.8,1.056-1.61A16.138,16.138,0,0,0-3.548-9.8Zm-4.307,6.18h2.338V-7.048q-.239.444-.52.9t-.588.9q-.308.441-.622.854T-5.852-3.623Z" transform="translate(36 146)" fill="#fff"/>
    <path id="Path_101607" data-name="Path 101607" d="M0,0H1V43H0Z" transform="translate(134.5 43)" fill="#c6318c"/>
    <path id="Path_101590" data-name="Path 101590" d="M8.873,0H7.6L6.563-2.748H2.406L1.429,0H.15L3.91-9.8H5.1ZM6.187-3.78,4.648-7.957a4,4,0,0,1-.15-.656H4.471a3.661,3.661,0,0,1-.157.656L2.789-3.78Zm7.629-2.085a1.371,1.371,0,0,0-.848-.226,1.431,1.431,0,0,0-1.2.677,3.129,3.129,0,0,0-.482,1.846V0H10.165V-7h1.121v1.442h.027a2.444,2.444,0,0,1,.731-1.152,1.668,1.668,0,0,1,1.1-.414,1.83,1.83,0,0,1,.67.1ZM19.8-.321A3.643,3.643,0,0,1,17.89.164,3.169,3.169,0,0,1,15.473-.81a3.53,3.53,0,0,1-.919-2.526,3.881,3.881,0,0,1,.991-2.779A3.467,3.467,0,0,1,18.19-7.164a3.682,3.682,0,0,1,1.627.342v1.148a2.85,2.85,0,0,0-1.668-.547,2.254,2.254,0,0,0-1.76.769,2.918,2.918,0,0,0-.687,2.02,2.779,2.779,0,0,0,.646,1.941,2.227,2.227,0,0,0,1.733.711A2.81,2.81,0,0,0,19.8-1.388ZM27.31,0H26.188V-4.033q0-2.188-1.627-2.187a1.774,1.774,0,0,0-1.381.632,2.356,2.356,0,0,0-.561,1.624V0H21.5V-10.363H22.62v4.525h.027a2.546,2.546,0,0,1,2.3-1.326q2.365,0,2.365,2.851ZM30-8.777a.71.71,0,0,1-.513-.205.692.692,0,0,1-.212-.52.7.7,0,0,1,.212-.523A.7.7,0,0,1,30-10.233a.724.724,0,0,1,.523.208.7.7,0,0,1,.215.523.693.693,0,0,1-.215.513A.718.718,0,0,1,30-8.777ZM30.543,0H29.422V-7h1.121Zm7.772-7L35.526,0h-1.1L31.773-7H33l1.777,5.086a4.565,4.565,0,0,1,.246.978h.027a4.622,4.622,0,0,1,.219-.95L37.133-7Zm6.829,3.78H40.2a2.618,2.618,0,0,0,.629,1.8,2.168,2.168,0,0,0,1.654.636,3.439,3.439,0,0,0,2.174-.779V-.506a4.063,4.063,0,0,1-2.44.67A2.959,2.959,0,0,1,39.888-.79a3.9,3.9,0,0,1-.848-2.683,3.828,3.828,0,0,1,.926-2.663,2.97,2.97,0,0,1,2.3-1.029,2.632,2.632,0,0,1,2.126.889,3.705,3.705,0,0,1,.752,2.468ZM44-4.17a2.281,2.281,0,0,0-.468-1.511,1.6,1.6,0,0,0-1.282-.54,1.811,1.811,0,0,0-1.347.567,2.575,2.575,0,0,0-.684,1.483Z" transform="translate(111 217)" fill="#494955"/>
    <path id="Path_101589" data-name="Path 101589" d="M0,0H240V36H0Z" transform="translate(96 195)" fill="#fff"/>
    <path id="Path_101628" data-name="Path 101628" d="M-7.082-.253V-2.1a4.03,4.03,0,0,0,2.14.615A2.01,2.01,0,0,0-3.606-1.89a1.369,1.369,0,0,0,.482-1.1q0-1.456-2.058-1.456a15.236,15.236,0,0,0-1.75.116L-6.562-9.8h5.188v1.764H-4.915l-.137,1.962q.526-.041.909-.041a3.343,3.343,0,0,1,2.365.793A2.769,2.769,0,0,1-.923-3.192,3.148,3.148,0,0,1-1.941-.769,3.914,3.914,0,0,1-4.7.171,5.91,5.91,0,0,1-7.082-.253Z" transform="translate(36 184)" fill="#fff"/>
    <path id="Path_101613" data-name="Path 101613" d="M0,0H1V52.6H0Z" transform="translate(180.4 99.5) rotate(-90)" fill="#c6318c"/>
    <path id="Path_101590-2" data-name="Path 101590" d="M8.873,0H7.6L6.563-2.748H2.406L1.429,0H.15L3.91-9.8H5.1ZM6.187-3.78,4.648-7.957a4,4,0,0,1-.15-.656H4.471a3.661,3.661,0,0,1-.157.656L2.789-3.78Zm7.629-2.085a1.371,1.371,0,0,0-.848-.226,1.431,1.431,0,0,0-1.2.677,3.129,3.129,0,0,0-.482,1.846V0H10.165V-7h1.121v1.442h.027a2.444,2.444,0,0,1,.731-1.152,1.668,1.668,0,0,1,1.1-.414,1.83,1.83,0,0,1,.67.1ZM19.8-.321A3.643,3.643,0,0,1,17.89.164,3.169,3.169,0,0,1,15.473-.81a3.53,3.53,0,0,1-.919-2.526,3.881,3.881,0,0,1,.991-2.779A3.467,3.467,0,0,1,18.19-7.164a3.682,3.682,0,0,1,1.627.342v1.148a2.85,2.85,0,0,0-1.668-.547,2.254,2.254,0,0,0-1.76.769,2.918,2.918,0,0,0-.687,2.02,2.779,2.779,0,0,0,.646,1.941,2.227,2.227,0,0,0,1.733.711A2.81,2.81,0,0,0,19.8-1.388ZM27.31,0H26.188V-4.033q0-2.188-1.627-2.187a1.774,1.774,0,0,0-1.381.632,2.356,2.356,0,0,0-.561,1.624V0H21.5V-10.363H22.62v4.525h.027a2.546,2.546,0,0,1,2.3-1.326q2.365,0,2.365,2.851ZM30-8.777a.71.71,0,0,1-.513-.205.692.692,0,0,1-.212-.52.7.7,0,0,1,.212-.523A.7.7,0,0,1,30-10.233a.724.724,0,0,1,.523.208.7.7,0,0,1,.215.523.693.693,0,0,1-.215.513A.718.718,0,0,1,30-8.777ZM30.543,0H29.422V-7h1.121Zm7.772-7L35.526,0h-1.1L31.773-7H33l1.777,5.086a4.565,4.565,0,0,1,.246.978h.027a4.622,4.622,0,0,1,.219-.95L37.133-7Zm6.829,3.78H40.2a2.618,2.618,0,0,0,.629,1.8,2.168,2.168,0,0,0,1.654.636,3.439,3.439,0,0,0,2.174-.779V-.506a4.063,4.063,0,0,1-2.44.67A2.959,2.959,0,0,1,39.888-.79a3.9,3.9,0,0,1-.848-2.683,3.828,3.828,0,0,1,.926-2.663,2.97,2.97,0,0,1,2.3-1.029,2.632,2.632,0,0,1,2.126.889,3.705,3.705,0,0,1,.752,2.468ZM44-4.17a2.281,2.281,0,0,0-.468-1.511,1.6,1.6,0,0,0-1.282-.54,1.811,1.811,0,0,0-1.347.567,2.575,2.575,0,0,0-.684,1.483Z" transform="translate(111 218.363)" fill="#494955"/>
  </g>
</svg>
