<svg xmlns="http://www.w3.org/2000/svg" xmlns:xlink="http://www.w3.org/1999/xlink" width="289" height="196" viewBox="0 0 289 196">
  <defs>
    <filter id="Path_101671" x="15.5" y="55.5" width="249" height="127" filterUnits="userSpaceOnUse">
      <feOffset dy="1" input="SourceAlpha"/>
      <feGaussianBlur stdDeviation="1.5" result="blur"/>
      <feFlood flood-opacity="0.161"/>
      <feComposite operator="in" in2="blur"/>
      <feComposite in="SourceGraphic"/>
    </filter>
    <clipPath id="clip-button_dropdown">
      <rect width="289" height="196"/>
    </clipPath>
  </defs>
  <g id="button_dropdown" clip-path="url(#clip-button_dropdown)">
    <rect width="289" height="196" fill="#fff"/>
    <g transform="matrix(1, 0, 0, 1, 0, 0)" filter="url(#Path_101671)">
      <path id="Path_101671-2" data-name="Path 101671" d="M0,0H240V118H0Z" transform="translate(20 59)" fill="#fff"/>
    </g>
    <path id="Path_101672" data-name="Path 101672" d="M0,0H240V36H0Z" transform="translate(20 137)" fill="#fff"/>
    <path id="Path_101673" data-name="Path 101673" d="M1.285,0V-9.8H3.992q5.182,0,5.182,4.778A4.815,4.815,0,0,1,7.735-1.377,5.338,5.338,0,0,1,3.883,0ZM2.434-8.764v7.725H3.9a4.152,4.152,0,0,0,3-1.032A3.869,3.869,0,0,0,7.971-5q0-3.767-4.006-3.767ZM16.577-3.22H11.635a2.618,2.618,0,0,0,.629,1.8,2.168,2.168,0,0,0,1.654.636,3.439,3.439,0,0,0,2.174-.779V-.506a4.063,4.063,0,0,1-2.44.67A2.959,2.959,0,0,1,11.32-.79a3.9,3.9,0,0,1-.848-2.683A3.828,3.828,0,0,1,11.4-6.135a2.97,2.97,0,0,1,2.3-1.029,2.632,2.632,0,0,1,2.126.889,3.705,3.705,0,0,1,.752,2.468Zm-1.148-.95a2.281,2.281,0,0,0-.468-1.511,1.6,1.6,0,0,0-1.282-.54,1.811,1.811,0,0,0-1.347.567,2.575,2.575,0,0,0-.684,1.483ZM19.394,0H18.272V-10.363h1.121Zm7.9-3.22H22.347a2.618,2.618,0,0,0,.629,1.8,2.168,2.168,0,0,0,1.654.636A3.439,3.439,0,0,0,26.8-1.559V-.506a4.063,4.063,0,0,1-2.44.67A2.959,2.959,0,0,1,22.032-.79a3.9,3.9,0,0,1-.848-2.683,3.828,3.828,0,0,1,.926-2.663,2.97,2.97,0,0,1,2.3-1.029,2.632,2.632,0,0,1,2.126.889,3.705,3.705,0,0,1,.752,2.468Zm-1.148-.95a2.281,2.281,0,0,0-.468-1.511,1.6,1.6,0,0,0-1.282-.54,1.811,1.811,0,0,0-1.347.567A2.575,2.575,0,0,0,22.36-4.17Zm6.091,4.1A2.161,2.161,0,0,1,31.186.15Q29.347.15,29.347-1.9V-6.043h-1.2V-7h1.2V-8.709l1.121-.362V-7h1.764v.957H30.468V-2.1a1.635,1.635,0,0,0,.239,1,.955.955,0,0,0,.793.3,1.179,1.179,0,0,0,.731-.232ZM39.354-3.22H34.412a2.618,2.618,0,0,0,.629,1.8A2.168,2.168,0,0,0,36.7-.779a3.439,3.439,0,0,0,2.174-.779V-.506a4.063,4.063,0,0,1-2.44.67A2.959,2.959,0,0,1,34.1-.79a3.9,3.9,0,0,1-.848-2.683,3.828,3.828,0,0,1,.926-2.663,2.97,2.97,0,0,1,2.3-1.029,2.632,2.632,0,0,1,2.126.889,3.705,3.705,0,0,1,.752,2.468Zm-1.148-.95a2.281,2.281,0,0,0-.468-1.511,1.6,1.6,0,0,0-1.282-.54,1.811,1.811,0,0,0-1.347.567,2.575,2.575,0,0,0-.684,1.483Z" transform="translate(35 159)" fill="#494955"/>
    <path id="Path_101674" data-name="Path 101674" d="M0,0H240V36H0Z" transform="translate(20 65)" fill="#fff"/>
    <path id="Path_101675" data-name="Path 101675" d="M8.313,0H6.945L5.3-2.748A5.985,5.985,0,0,0,4.867-3.4a2.494,2.494,0,0,0-.434-.441,1.5,1.5,0,0,0-.479-.25,1.968,1.968,0,0,0-.578-.079H2.434V0H1.285V-9.8H4.211A4.17,4.17,0,0,1,5.4-9.642a2.654,2.654,0,0,1,.943.489,2.271,2.271,0,0,1,.625.817,2.709,2.709,0,0,1,.226,1.145,2.757,2.757,0,0,1-.154.94,2.455,2.455,0,0,1-.437.762,2.652,2.652,0,0,1-.684.571,3.49,3.49,0,0,1-.9.366v.027a2.068,2.068,0,0,1,.427.25,2.351,2.351,0,0,1,.345.332,4.391,4.391,0,0,1,.325.434q.161.243.359.564ZM2.434-8.764v3.555H3.992a2.364,2.364,0,0,0,.8-.13,1.844,1.844,0,0,0,.632-.373,1.689,1.689,0,0,0,.417-.595,1.991,1.991,0,0,0,.15-.79,1.537,1.537,0,0,0-.509-1.227,2.188,2.188,0,0,0-1.473-.441ZM14.725-3.22H9.782a2.618,2.618,0,0,0,.629,1.8,2.168,2.168,0,0,0,1.654.636,3.439,3.439,0,0,0,2.174-.779V-.506a4.063,4.063,0,0,1-2.44.67A2.959,2.959,0,0,1,9.468-.79,3.9,3.9,0,0,1,8.62-3.473a3.828,3.828,0,0,1,.926-2.663,2.97,2.97,0,0,1,2.3-1.029,2.632,2.632,0,0,1,2.126.889,3.705,3.705,0,0,1,.752,2.468Zm-1.148-.95a2.281,2.281,0,0,0-.468-1.511,1.6,1.6,0,0,0-1.282-.54,1.811,1.811,0,0,0-1.347.567A2.575,2.575,0,0,0,9.8-4.17ZM21.923-7,19.134,0h-1.1L15.381-7h1.23l1.777,5.086a4.565,4.565,0,0,1,.246.978h.027a4.622,4.622,0,0,1,.219-.95L20.74-7ZM23.7-8.777a.71.71,0,0,1-.513-.205.692.692,0,0,1-.212-.52.7.7,0,0,1,.212-.523.7.7,0,0,1,.513-.208.724.724,0,0,1,.523.208.7.7,0,0,1,.215.523.693.693,0,0,1-.215.513A.718.718,0,0,1,23.7-8.777ZM24.247,0H23.126V-7h1.121Zm7.9-3.22H27.2a2.618,2.618,0,0,0,.629,1.8,2.168,2.168,0,0,0,1.654.636,3.439,3.439,0,0,0,2.174-.779V-.506a4.063,4.063,0,0,1-2.44.67A2.959,2.959,0,0,1,26.886-.79a3.9,3.9,0,0,1-.848-2.683,3.828,3.828,0,0,1,.926-2.663,2.97,2.97,0,0,1,2.3-1.029,2.632,2.632,0,0,1,2.126.889,3.705,3.705,0,0,1,.752,2.468Zm-1.148-.95a2.281,2.281,0,0,0-.468-1.511,1.6,1.6,0,0,0-1.282-.54,1.811,1.811,0,0,0-1.347.567,2.575,2.575,0,0,0-.684,1.483ZM42.656-7l-2.1,7H39.4L37.953-5.011a3.265,3.265,0,0,1-.109-.649h-.027a3.066,3.066,0,0,1-.144.636L36.107,0H34.986L32.867-7h1.176l1.449,5.264a3.171,3.171,0,0,1,.1.629h.055a2.942,2.942,0,0,1,.123-.643L37.379-7H38.4l1.449,5.277a3.767,3.767,0,0,1,.1.629h.055a2.909,2.909,0,0,1,.116-.629L41.549-7Z" transform="translate(36 87)" fill="#494955"/>
    <path id="Path_101676" data-name="Path 101676" d="M0,0H240V36H0Z" transform="translate(20 101)" fill="#fff"/>
    <path id="Path_101677" data-name="Path 101677" d="M11.279,0H10.138V-6.576q0-.779.1-1.907h-.027a6.1,6.1,0,0,1-.294.95L6.563,0H6L2.659-7.479a5.859,5.859,0,0,1-.294-1H2.338q.055.588.055,1.921V0H1.285V-9.8H2.8L5.811-2.967a8.753,8.753,0,0,1,.451,1.176H6.3q.294-.807.472-1.2L9.844-9.8h1.436Zm7.438,0H17.6V-1.094h-.027A2.347,2.347,0,0,1,15.415.164,2.3,2.3,0,0,1,13.778-.39a1.918,1.918,0,0,1-.591-1.47q0-1.962,2.311-2.283l2.1-.294q0-1.784-1.442-1.784a3.446,3.446,0,0,0-2.283.861V-6.508a4.338,4.338,0,0,1,2.379-.656q2.468,0,2.468,2.611ZM17.6-3.541l-1.688.232a2.741,2.741,0,0,0-1.176.386,1.114,1.114,0,0,0-.4.981A1.068,1.068,0,0,0,14.7-1.1a1.413,1.413,0,0,0,.974.325,1.8,1.8,0,0,0,1.377-.584,2.088,2.088,0,0,0,.543-1.48Zm6.884-2.324a1.371,1.371,0,0,0-.848-.226,1.431,1.431,0,0,0-1.2.677,3.129,3.129,0,0,0-.482,1.846V0H20.829V-7H21.95v1.442h.027a2.444,2.444,0,0,1,.731-1.152,1.668,1.668,0,0,1,1.1-.414,1.83,1.83,0,0,1,.67.1ZM31.507,0H29.935l-3.09-3.363h-.027V0H25.7V-10.363h1.121v6.569h.027L29.784-7h1.47L28.007-3.623Zm4.56-.253v-1.2a3.318,3.318,0,0,0,2.017.677q1.477,0,1.477-.984a.854.854,0,0,0-.126-.475,1.26,1.26,0,0,0-.342-.345,2.631,2.631,0,0,0-.506-.27q-.291-.12-.625-.25a8.056,8.056,0,0,1-.817-.373,2.468,2.468,0,0,1-.588-.424,1.577,1.577,0,0,1-.355-.537,1.9,1.9,0,0,1-.12-.7,1.673,1.673,0,0,1,.226-.872,2,2,0,0,1,.6-.636,2.805,2.805,0,0,1,.858-.386,3.805,3.805,0,0,1,.995-.13,4.016,4.016,0,0,1,1.627.314v1.135a3.171,3.171,0,0,0-1.777-.506,2.078,2.078,0,0,0-.567.072,1.389,1.389,0,0,0-.434.2.932.932,0,0,0-.28.311.819.819,0,0,0-.1.4.959.959,0,0,0,.1.458,1.008,1.008,0,0,0,.291.328,2.221,2.221,0,0,0,.465.26q.273.116.622.253a8.658,8.658,0,0,1,.834.366,2.86,2.86,0,0,1,.629.424,1.656,1.656,0,0,1,.4.543,1.753,1.753,0,0,1,.14.731,1.725,1.725,0,0,1-.229.9,1.963,1.963,0,0,1-.612.636,2.8,2.8,0,0,1-.882.376,4.354,4.354,0,0,1-1.046.123A3.971,3.971,0,0,1,36.066-.253Zm9.29.417a3.247,3.247,0,0,1-2.478-.981,3.634,3.634,0,0,1-.926-2.6,3.785,3.785,0,0,1,.964-2.755,3.465,3.465,0,0,1,2.6-.991,3.14,3.14,0,0,1,2.444.964,3.822,3.822,0,0,1,.878,2.673A3.761,3.761,0,0,1,47.9-.844,3.317,3.317,0,0,1,45.356.164Zm.082-6.385a2.132,2.132,0,0,0-1.709.735A3.018,3.018,0,0,0,43.1-3.459,2.854,2.854,0,0,0,43.736-1.5a2.161,2.161,0,0,0,1.7.718,2.049,2.049,0,0,0,1.671-.7,3.055,3.055,0,0,0,.584-2A3.108,3.108,0,0,0,47.11-5.51,2.04,2.04,0,0,0,45.438-6.221ZM51.755,0H50.634V-10.363h1.121ZM60,0H58.878V-1.189h-.027A2.588,2.588,0,0,1,56.444.164a2.615,2.615,0,0,1-2.109-.94,3.856,3.856,0,0,1-.79-2.56,4.2,4.2,0,0,1,.875-2.782,2.886,2.886,0,0,1,2.331-1.046,2.244,2.244,0,0,1,2.1,1.135h.027v-4.334H60ZM58.878-3.165V-4.2a2,2,0,0,0-.561-1.436A1.88,1.88,0,0,0,56.9-6.221a1.936,1.936,0,0,0-1.613.752,3.3,3.3,0,0,0-.588,2.078,2.964,2.964,0,0,0,.564,1.911,1.843,1.843,0,0,0,1.514.7,1.915,1.915,0,0,0,1.521-.677A2.521,2.521,0,0,0,58.878-3.165Z" transform="translate(35 123)" fill="#494955"/>
    <path id="Path_101678" data-name="Path 101678" d="M.5,0h3A.5.5,0,0,1,4,.5v3a.5.5,0,0,1-.5.5H.5A.5.5,0,0,1,0,3.5V.5A.5.5,0,0,1,.5,0Z" transform="translate(51 38) rotate(90)" fill="#2777d3"/>
    <path id="Path_101679" data-name="Path 101679" d="M.5,0h3A.5.5,0,0,1,4,.5v3a.5.5,0,0,1-.5.5H.5A.5.5,0,0,1,0,3.5V.5A.5.5,0,0,1,.5,0Z" transform="translate(42 38) rotate(90)" fill="#2777d3"/>
    <path id="Path_101680" data-name="Path 101680" d="M.5,0h3A.5.5,0,0,1,4,.5v3a.5.5,0,0,1-.5.5H.5A.5.5,0,0,1,0,3.5V.5A.5.5,0,0,1,.5,0Z" transform="translate(33 38) rotate(90)" fill="#2777d3"/>
    <path id="Path_101681" data-name="Path 101681" d="M0,0H24V24H0Z" transform="translate(52 28) rotate(90)" fill="none"/>
    <g id="Path_101682" data-name="Path 101682" transform="translate(20 20)" fill="none">
      <path d="M20,0A20,20,0,1,1,0,20,20,20,0,0,1,20,0Z" stroke="none"/>
      <path d="M 20 1 C 17.4345703125 1 14.94642066955566 1.502220153808594 12.60465049743652 2.492698669433594 C 10.34226036071777 3.449611663818359 8.310220718383789 4.819721221923828 6.564968109130859 6.564968109130859 C 4.819721221923828 8.310220718383789 3.449611663818359 10.34226036071777 2.492698669433594 12.60465049743652 C 1.502220153808594 14.94642066955566 1 17.4345703125 1 20 C 1 22.5654296875 1.502220153808594 25.05358123779297 2.492698669433594 27.39535140991211 C 3.449611663818359 29.65773963928223 4.819721221923828 31.68978118896484 6.564968109130859 33.43502807617188 C 8.310220718383789 35.18027877807617 10.34226036071777 36.55038833618164 12.60465049743652 37.50730133056641 C 14.94642066955566 38.49777984619141 17.4345703125 39 20 39 C 22.5654296875 39 25.05358123779297 38.49777984619141 27.39535140991211 37.50730133056641 C 29.65773963928223 36.55038833618164 31.68978118896484 35.18027877807617 33.43502807617188 33.43502807617188 C 35.18027877807617 31.68978118896484 36.55038833618164 29.65773963928223 37.50730133056641 27.39535140991211 C 38.49777984619141 25.05358123779297 39 22.5654296875 39 20 C 39 17.4345703125 38.49777984619141 14.94642066955566 37.50730133056641 12.60465049743652 C 36.55038833618164 10.34226036071777 35.18027877807617 8.310220718383789 33.43502807617188 6.564968109130859 C 31.68978118896484 4.819721221923828 29.65773963928223 3.449611663818359 27.39535140991211 2.492698669433594 C 25.05358123779297 1.502220153808594 22.5654296875 1 20 1 M 20 0 C 31.04570007324219 0 40 8.954299926757813 40 20 C 40 31.04570007324219 31.04570007324219 40 20 40 C 8.954299926757813 40 0 31.04570007324219 0 20 C 0 8.954299926757813 8.954299926757813 0 20 0 Z" stroke="none" fill="#2777d3"/>
    </g>
  </g>
</svg>
