<svg xmlns="http://www.w3.org/2000/svg" xmlns:xlink="http://www.w3.org/1999/xlink" width="800" height="250" viewBox="0 0 800 250">
  <defs>
    <clipPath id="clip-path">
      <rect width="36" height="36" fill="none"/>
    </clipPath>
    <clipPath id="clip-Anatomy">
      <rect width="800" height="250"/>
    </clipPath>
  </defs>
  <g id="Anatomy" clip-path="url(#clip-Anatomy)">
    <rect width="800" height="250" fill="#f4f4f6"/>
    <rect id="Rectangle_5388" data-name="Rectangle 5388" width="13" height="13" transform="translate(142 41)" fill="none"/>
    <path id="Path_5700" data-name="Path 5700" d="M0,0H250V189H0Z" transform="translate(0 61)" fill="#fff"/>
    <g id="Rectangle_2" data-name="Rectangle 2" transform="translate(250 9)" fill="#fff" stroke="#dbdbdb" stroke-width="1">
      <rect width="390" height="42" rx="2" stroke="none"/>
      <rect x="0.5" y="0.5" width="389" height="41" rx="1.5" fill="none"/>
    </g>
    <path id="Path_9393" data-name="Path 9393" d="M7.014-2.659A2.451,2.451,0,0,1,6.057-.6a4.15,4.15,0,0,1-2.6.738A6.506,6.506,0,0,1,.725-.321V-1.442a7.2,7.2,0,0,0,1.34.41A7.049,7.049,0,0,0,3.5-.882a2.9,2.9,0,0,0,1.75-.441A1.447,1.447,0,0,0,5.838-2.55,1.575,1.575,0,0,0,5.629-3.4a1.937,1.937,0,0,0-.7-.612,9.755,9.755,0,0,0-1.487-.636A4.746,4.746,0,0,1,1.453-5.831a2.611,2.611,0,0,1-.6-1.784,2.219,2.219,0,0,1,.868-1.839,3.608,3.608,0,0,1,2.3-.684,6.769,6.769,0,0,1,2.741.547L6.4-8.579A6.2,6.2,0,0,0,3.992-9.1a2.329,2.329,0,0,0-1.442.4,1.307,1.307,0,0,0-.52,1.1,1.687,1.687,0,0,0,.191.851,1.8,1.8,0,0,0,.646.608,8.026,8.026,0,0,0,1.391.612,5.507,5.507,0,0,1,2.164,1.2A2.366,2.366,0,0,1,7.014-2.659Zm5.038,2.8A3.442,3.442,0,0,1,9.43-.875a3.917,3.917,0,0,1-.96-2.81,4.344,4.344,0,0,1,.892-2.878,2.963,2.963,0,0,1,2.4-1.066,2.825,2.825,0,0,1,2.229.926,3.55,3.55,0,0,1,.82,2.444v.718H9.646a2.97,2.97,0,0,0,.667,2,2.305,2.305,0,0,0,1.781.684,6.035,6.035,0,0,0,2.393-.506V-.349a6.005,6.005,0,0,1-1.138.373A6.4,6.4,0,0,1,12.052.137Zm-.308-6.815a1.853,1.853,0,0,0-1.439.588,2.71,2.71,0,0,0-.632,1.627H13.59a2.5,2.5,0,0,0-.479-1.644A1.684,1.684,0,0,0,11.744-6.679ZM21.349,0l-.226-1.066h-.055a3.153,3.153,0,0,1-1.118.954,3.407,3.407,0,0,1-1.391.25,2.5,2.5,0,0,1-1.747-.574,2.094,2.094,0,0,1-.632-1.634q0-2.27,3.63-2.379l1.271-.041v-.465a1.9,1.9,0,0,0-.379-1.3,1.56,1.56,0,0,0-1.213-.42A4.944,4.944,0,0,0,17.37-6.1l-.349-.868a5.332,5.332,0,0,1,1.213-.472,5.255,5.255,0,0,1,1.323-.171,2.854,2.854,0,0,1,1.986.595,2.482,2.482,0,0,1,.646,1.907V0ZM18.785-.8a2.3,2.3,0,0,0,1.665-.581,2.15,2.15,0,0,0,.6-1.627v-.677l-1.135.048a4.128,4.128,0,0,0-1.952.42,1.268,1.268,0,0,0-.6,1.159,1.169,1.169,0,0,0,.373.937A1.546,1.546,0,0,0,18.785-.8Zm9.16-6.829a4.44,4.44,0,0,1,.9.082l-.157,1.053a3.865,3.865,0,0,0-.82-.1,2,2,0,0,0-1.555.738,2.692,2.692,0,0,0-.646,1.839V0H24.527V-7.492h.937l.13,1.388h.055a3.293,3.293,0,0,1,1-1.128A2.262,2.262,0,0,1,27.945-7.629ZM33.236.137a3.2,3.2,0,0,1-2.519-1A4.118,4.118,0,0,1,29.825-3.7,4.247,4.247,0,0,1,30.731-6.6a3.261,3.261,0,0,1,2.581-1.025,5.121,5.121,0,0,1,1.08.116,3.558,3.558,0,0,1,.848.273l-.349.964a5.336,5.336,0,0,0-.82-.25,3.663,3.663,0,0,0-.786-.1Q31-6.624,31-3.712a3.468,3.468,0,0,0,.557,2.119,1.938,1.938,0,0,0,1.651.738,5.048,5.048,0,0,0,1.921-.4v1A4.094,4.094,0,0,1,33.236.137ZM42.034,0V-4.847a1.955,1.955,0,0,0-.417-1.367,1.7,1.7,0,0,0-1.306-.451,2.139,2.139,0,0,0-1.726.643,3.255,3.255,0,0,0-.543,2.105V0H36.907V-10.637h1.135v3.22a7.016,7.016,0,0,1-.055.964h.068a2.314,2.314,0,0,1,.954-.851,3.1,3.1,0,0,1,1.412-.311,2.891,2.891,0,0,1,2.061.653,2.749,2.749,0,0,1,.687,2.075V0Z" transform="translate(264 36)" fill="#c6c6c6"/>
    <g id="Group_12269" data-name="Group 12269" transform="translate(-42)">
      <rect id="Rectangle_6102" data-name="Rectangle 6102" width="184" height="60" transform="translate(42)" fill="none"/>
      <g id="Group_12267" data-name="Group 12267" transform="translate(99 20)">
        <g id="Group_6" data-name="Group 6">
          <path id="Path_467" data-name="Path 467" d="M440.678,0l-6.233,13.788L428.193,0H425.7l8.745,19.322L443.19,0Z" transform="translate(-345.294)" fill="#8b8d8e"/>
          <path id="Path_468" data-name="Path 468" d="M343.6,19.322h2.512L337.39,0h-.963L327.7,19.322h2.512l1.908-4.269H341.7ZM333.14,12.787,336.9,4.5l3.759,8.292Z" transform="translate(-265.804)" fill="#8b8d8e"/>
          <path id="Path_469" data-name="Path 469" d="M543.685,10.426h6.951V8.16h-6.951V2.267h7.555L552.45,0H541.4V19.322h9.859L552.468,17h-8.783Z" transform="translate(-439.14)" fill="#8b8d8e"/>
          <path id="Path_470" data-name="Path 470" d="M186.078,0l-6.2,13.788L174.348,1.681l-5.5,12.107L162.864,0h-3.721L155.8,7.385l1.247,2.758,3.834-8.462,7.971,17.641,5.5-12.126,5.534,12.126L188.571,0Z" transform="translate(-126.372)" fill="#8b8d8e"/>
          <path id="Path_471" data-name="Path 471" d="M4.193,17.018,15.262,0H1.851L.812,2.267H11.068L0,19.285H15.243l1.02-2.267Z" fill="#8b8d8e"/>
        </g>
        <path id="Path_472" data-name="Path 472" d="M103.468,0H98.5l5.591,12.409L98.5,24.8h4.968L109.1,12.409Z" transform="translate(-79.895)" fill="#5fb53b"/>
      </g>
      <g id="Group_12268" data-name="Group 12268" transform="translate(-1562)">
        <g id="Icon_Link_-_Hover" data-name="Icon Link - Hover" transform="translate(1614 12)" clip-path="url(#clip-path)">
          <rect id="Rectangle_5756" data-name="Rectangle 5756" width="36" height="36" rx="18" fill="none"/>
        </g>
        <path id="Path_8220" data-name="Path 8220" d="M172,94.5v3a.472.472,0,0,1-.5.5h-3a.472.472,0,0,1-.5-.5v-3a.472.472,0,0,1,.5-.5h3A.472.472,0,0,1,172,94.5Zm5.5-.5h-3a.472.472,0,0,0-.5.5v3a.472.472,0,0,0,.5.5h3a.472.472,0,0,0,.5-.5v-3A.472.472,0,0,0,177.5,94Zm-6,12h-3a.472.472,0,0,0-.5.5v3a.472.472,0,0,0,.5.5h3a.472.472,0,0,0,.5-.5v-3A.472.472,0,0,0,171.5,106Zm12-12h-3a.472.472,0,0,0-.5.5v3a.472.472,0,0,0,.5.5h3a.472.472,0,0,0,.5-.5v-3A.472.472,0,0,0,183.5,94Zm-12,6h-3a.472.472,0,0,0-.5.5v3a.472.472,0,0,0,.5.5h3a.472.472,0,0,0,.5-.5v-3A.472.472,0,0,0,171.5,100Zm6,0h-3a.472.472,0,0,0-.5.5v3a.472.472,0,0,0,.5.5h3a.472.472,0,0,0,.5-.5v-3A.472.472,0,0,0,177.5,100Zm0,6h-3a.472.472,0,0,0-.5.5v3a.472.472,0,0,0,.5.5h3a.472.472,0,0,0,.5-.5v-3A.472.472,0,0,0,177.5,106Zm6-6h-3a.472.472,0,0,0-.5.5v3a.472.472,0,0,0,.5.5h3a.472.472,0,0,0,.5-.5v-3A.472.472,0,0,0,183.5,100Zm0,6h-3a.472.472,0,0,0-.5.5v3a.472.472,0,0,0,.5.5h3a.472.472,0,0,0,.5-.5v-3A.472.472,0,0,0,183.5,106Z" transform="translate(1456 -72)" fill="#78788c"/>
      </g>
    </g>
    <g id="ZUI_Sidenav" data-name="ZUI Sidenav" transform="translate(0 142)">
      <g id="Group_12266" data-name="Group 12266">
        <rect id="Rectangle_6084" data-name="Rectangle 6084" width="60" height="50" fill="none" opacity="0.3"/>
        <rect id="Rectangle_6094" data-name="Rectangle 6094" width="20" height="20" transform="translate(20 15)" fill="none"/>
        <g id="Group_12271" data-name="Group 12271">
          <rect id="Rectangle_6083" data-name="Rectangle 6083" width="250" height="50" fill="none"/>
          <path id="Path_9394" data-name="Path 9394" d="M8.654,0H7.506V-4.471H2.434V0H1.285V-9.8H2.434v4.3H7.506V-9.8H8.654ZM14,.164a3.247,3.247,0,0,1-2.478-.981,3.634,3.634,0,0,1-.926-2.6,3.785,3.785,0,0,1,.964-2.755,3.465,3.465,0,0,1,2.6-.991,3.14,3.14,0,0,1,2.444.964,3.822,3.822,0,0,1,.878,2.673A3.761,3.761,0,0,1,16.54-.844,3.317,3.317,0,0,1,14,.164Zm.082-6.385a2.132,2.132,0,0,0-1.709.735,3.018,3.018,0,0,0-.629,2.027A2.854,2.854,0,0,0,12.38-1.5a2.161,2.161,0,0,0,1.7.718,2.049,2.049,0,0,0,1.671-.7,3.055,3.055,0,0,0,.584-2,3.108,3.108,0,0,0-.584-2.023A2.04,2.04,0,0,0,14.082-6.221ZM29.217,0H28.1V-4.02A3.032,3.032,0,0,0,27.737-5.7a1.361,1.361,0,0,0-1.207-.52,1.494,1.494,0,0,0-1.22.656,2.511,2.511,0,0,0-.5,1.572V0H23.687V-4.156q0-2.064-1.593-2.064a1.475,1.475,0,0,0-1.217.619,2.557,2.557,0,0,0-.479,1.61V0H19.277V-7H20.4v1.107h.027A2.378,2.378,0,0,1,22.6-7.164a2.027,2.027,0,0,1,1.251.4,2.012,2.012,0,0,1,.731,1.049,2.5,2.5,0,0,1,2.324-1.449q2.311,0,2.311,2.851Zm7.745-3.22H32.02a2.618,2.618,0,0,0,.629,1.8A2.168,2.168,0,0,0,34.3-.779a3.439,3.439,0,0,0,2.174-.779V-.506a4.063,4.063,0,0,1-2.44.67A2.959,2.959,0,0,1,31.705-.79a3.9,3.9,0,0,1-.848-2.683,3.828,3.828,0,0,1,.926-2.663,2.97,2.97,0,0,1,2.3-1.029,2.632,2.632,0,0,1,2.126.889,3.705,3.705,0,0,1,.752,2.468Zm-1.148-.95a2.281,2.281,0,0,0-.468-1.511,1.6,1.6,0,0,0-1.282-.54,1.811,1.811,0,0,0-1.347.567,2.575,2.575,0,0,0-.684,1.483Z" transform="translate(60 31)" fill="#31313a"/>
          <path id="zui-nav-home" d="M20,10.6H17.5v8.142a.833.833,0,0,1-.833.833H12V14.1H8v5.5H3.333a.833.833,0,0,1-.833-.833V10.6H0L10,.6Z" transform="translate(20 15.4)" fill="#31313a"/>
        </g>
        <rect id="Rectangle_6095" data-name="Rectangle 6095" width="20" height="20" transform="translate(20 65)" fill="none"/>
        <g id="Group_12272" data-name="Group 12272" transform="translate(0 50)">
          <rect id="Rectangle_6093" data-name="Rectangle 6093" width="250" height="50" fill="none"/>
          <rect id="Rectangle_7437" data-name="Rectangle 7437" width="60" height="50" fill="none"/>
          <path id="Path_9395" data-name="Path 9395" d="M6.48,0h-5.2V-9.8H6.262v1.039H2.434V-5.5H5.975v1.032H2.434v3.432H6.48ZM18.156,0H17.035V-4.02A3.032,3.032,0,0,0,16.676-5.7a1.361,1.361,0,0,0-1.207-.52,1.494,1.494,0,0,0-1.22.656,2.511,2.511,0,0,0-.5,1.572V0H12.626V-4.156q0-2.064-1.593-2.064A1.475,1.475,0,0,0,9.816-5.6a2.557,2.557,0,0,0-.479,1.61V0H8.217V-7H9.338v1.107h.027a2.378,2.378,0,0,1,2.174-1.271,2.027,2.027,0,0,1,1.251.4,2.012,2.012,0,0,1,.731,1.049,2.5,2.5,0,0,1,2.324-1.449q2.311,0,2.311,2.851Zm3.268-1.012H21.4V3.22H20.275V-7H21.4v1.23h.027a2.651,2.651,0,0,1,2.42-1.395,2.563,2.563,0,0,1,2.112.94,3.893,3.893,0,0,1,.759,2.519A4.339,4.339,0,0,1,25.86-.892,2.845,2.845,0,0,1,23.522.164,2.342,2.342,0,0,1,21.424-1.012ZM21.4-3.835v.978a2.081,2.081,0,0,0,.564,1.473,1.873,1.873,0,0,0,1.432.6,1.876,1.876,0,0,0,1.6-.779,3.575,3.575,0,0,0,.578-2.167,2.822,2.822,0,0,0-.54-1.832,1.787,1.787,0,0,0-1.463-.663,1.986,1.986,0,0,0-1.572.68A2.5,2.5,0,0,0,21.4-3.835ZM29.627,0H28.506V-10.363h1.121Zm5.2.164a3.247,3.247,0,0,1-2.478-.981,3.633,3.633,0,0,1-.926-2.6,3.785,3.785,0,0,1,.964-2.755,3.465,3.465,0,0,1,2.6-.991A3.14,3.14,0,0,1,37.43-6.2a3.822,3.822,0,0,1,.878,2.673,3.761,3.761,0,0,1-.947,2.683A3.317,3.317,0,0,1,34.822.164ZM34.9-6.221a2.132,2.132,0,0,0-1.709.735,3.018,3.018,0,0,0-.629,2.027A2.854,2.854,0,0,0,33.2-1.5a2.161,2.161,0,0,0,1.7.718,2.049,2.049,0,0,0,1.671-.7,3.055,3.055,0,0,0,.584-2,3.108,3.108,0,0,0-.584-2.023A2.04,2.04,0,0,0,34.9-6.221ZM45.671-7l-3.22,8.121q-.861,2.174-2.42,2.174a2.565,2.565,0,0,1-.731-.089v-1a2.078,2.078,0,0,0,.663.123,1.374,1.374,0,0,0,1.271-1.012l.561-1.326L39.061-7H40.3L42.2-1.613q.034.1.144.533h.041q.034-.164.137-.52L44.509-7ZM52.5-3.22H47.558a2.618,2.618,0,0,0,.629,1.8,2.168,2.168,0,0,0,1.654.636,3.439,3.439,0,0,0,2.174-.779V-.506a4.063,4.063,0,0,1-2.44.67A2.959,2.959,0,0,1,47.243-.79,3.9,3.9,0,0,1,46.4-3.473a3.828,3.828,0,0,1,.926-2.663,2.97,2.97,0,0,1,2.3-1.029,2.632,2.632,0,0,1,2.126.889A3.705,3.705,0,0,1,52.5-3.808Zm-1.148-.95a2.281,2.281,0,0,0-.468-1.511,1.6,1.6,0,0,0-1.282-.54,1.811,1.811,0,0,0-1.347.567,2.575,2.575,0,0,0-.684,1.483Zm8.47.95H54.879a2.618,2.618,0,0,0,.629,1.8,2.168,2.168,0,0,0,1.654.636,3.439,3.439,0,0,0,2.174-.779V-.506a4.063,4.063,0,0,1-2.44.67A2.959,2.959,0,0,1,54.564-.79a3.9,3.9,0,0,1-.848-2.683,3.828,3.828,0,0,1,.926-2.663,2.97,2.97,0,0,1,2.3-1.029,2.632,2.632,0,0,1,2.126.889,3.705,3.705,0,0,1,.752,2.468Zm-1.148-.95A2.281,2.281,0,0,0,58.2-5.681a1.6,1.6,0,0,0-1.282-.54,1.811,1.811,0,0,0-1.347.567,2.575,2.575,0,0,0-.684,1.483ZM75.291,0H74.17V-4.02A3.032,3.032,0,0,0,73.811-5.7a1.361,1.361,0,0,0-1.207-.52,1.494,1.494,0,0,0-1.22.656,2.511,2.511,0,0,0-.5,1.572V0H69.761V-4.156q0-2.064-1.593-2.064a1.475,1.475,0,0,0-1.217.619,2.557,2.557,0,0,0-.479,1.61V0H65.352V-7h1.121v1.107H66.5a2.378,2.378,0,0,1,2.174-1.271,2.027,2.027,0,0,1,1.251.4,2.012,2.012,0,0,1,.731,1.049A2.5,2.5,0,0,1,72.98-7.164q2.311,0,2.311,2.851Zm7.13,0H81.3V-1.094h-.027A2.347,2.347,0,0,1,79.119.164,2.3,2.3,0,0,1,77.482-.39a1.918,1.918,0,0,1-.591-1.47q0-1.962,2.311-2.283l2.1-.294q0-1.784-1.442-1.784a3.446,3.446,0,0,0-2.283.861V-6.508a4.338,4.338,0,0,1,2.379-.656q2.468,0,2.468,2.611ZM81.3-3.541l-1.688.232a2.741,2.741,0,0,0-1.176.386,1.114,1.114,0,0,0-.4.981A1.068,1.068,0,0,0,78.4-1.1a1.413,1.413,0,0,0,.974.325,1.8,1.8,0,0,0,1.377-.584,2.088,2.088,0,0,0,.543-1.48ZM90.344,0H89.223V-3.992q0-2.229-1.627-2.229a1.765,1.765,0,0,0-1.391.632,2.344,2.344,0,0,0-.55,1.6V0H84.533V-7h1.121v1.162h.027a2.526,2.526,0,0,1,2.3-1.326,2.142,2.142,0,0,1,1.757.742,3.3,3.3,0,0,1,.608,2.143Zm7.123,0H96.346V-1.094h-.027A2.347,2.347,0,0,1,94.165.164,2.3,2.3,0,0,1,92.528-.39a1.918,1.918,0,0,1-.591-1.47q0-1.962,2.311-2.283l2.1-.294q0-1.784-1.442-1.784a3.446,3.446,0,0,0-2.283.861V-6.508A4.338,4.338,0,0,1,95-7.164q2.468,0,2.468,2.611ZM96.346-3.541l-1.688.232a2.741,2.741,0,0,0-1.176.386,1.114,1.114,0,0,0-.4.981,1.068,1.068,0,0,0,.366.837,1.413,1.413,0,0,0,.974.325A1.8,1.8,0,0,0,95.8-1.364a2.088,2.088,0,0,0,.543-1.48Zm9.208,2.98q0,3.855-3.691,3.855a4.956,4.956,0,0,1-2.27-.492V1.682a4.661,4.661,0,0,0,2.256.656q2.584,0,2.584-2.748v-.766h-.027A2.622,2.622,0,0,1,102,.164a2.628,2.628,0,0,1-2.1-.933,3.73,3.73,0,0,1-.8-2.505,4.358,4.358,0,0,1,.858-2.837,2.866,2.866,0,0,1,2.348-1.053,2.282,2.282,0,0,1,2.1,1.135h.027V-7h1.121Zm-1.121-2.6V-4.2a2,2,0,0,0-.564-1.429,1.857,1.857,0,0,0-1.4-.595,1.947,1.947,0,0,0-1.627.755,3.372,3.372,0,0,0-.588,2.116,2.894,2.894,0,0,0,.564,1.87,1.822,1.822,0,0,0,1.494.7,1.951,1.951,0,0,0,1.535-.67A2.5,2.5,0,0,0,104.433-3.165Zm9.017-.055h-4.942a2.618,2.618,0,0,0,.629,1.8,2.168,2.168,0,0,0,1.654.636,3.439,3.439,0,0,0,2.174-.779V-.506a4.063,4.063,0,0,1-2.44.67,2.959,2.959,0,0,1-2.331-.954,3.9,3.9,0,0,1-.848-2.683,3.828,3.828,0,0,1,.926-2.663,2.97,2.97,0,0,1,2.3-1.029,2.632,2.632,0,0,1,2.126.889,3.705,3.705,0,0,1,.752,2.468ZM112.3-4.17a2.281,2.281,0,0,0-.468-1.511,1.6,1.6,0,0,0-1.282-.54,1.811,1.811,0,0,0-1.347.567,2.575,2.575,0,0,0-.684,1.483ZM125.084,0h-1.121V-4.02A3.032,3.032,0,0,0,123.6-5.7a1.361,1.361,0,0,0-1.207-.52,1.494,1.494,0,0,0-1.22.656,2.511,2.511,0,0,0-.5,1.572V0h-1.121V-4.156q0-2.064-1.593-2.064a1.475,1.475,0,0,0-1.217.619,2.557,2.557,0,0,0-.479,1.61V0h-1.121V-7h1.121v1.107h.027a2.378,2.378,0,0,1,2.174-1.271,2.027,2.027,0,0,1,1.251.4,2.012,2.012,0,0,1,.731,1.049,2.5,2.5,0,0,1,2.324-1.449q2.311,0,2.311,2.851Zm7.745-3.22h-4.942a2.618,2.618,0,0,0,.629,1.8,2.168,2.168,0,0,0,1.654.636,3.439,3.439,0,0,0,2.174-.779V-.506a4.063,4.063,0,0,1-2.44.67,2.959,2.959,0,0,1-2.331-.954,3.9,3.9,0,0,1-.848-2.683,3.828,3.828,0,0,1,.926-2.663,2.97,2.97,0,0,1,2.3-1.029,2.632,2.632,0,0,1,2.126.889,3.705,3.705,0,0,1,.752,2.468Zm-1.148-.95a2.281,2.281,0,0,0-.468-1.511,1.6,1.6,0,0,0-1.282-.54,1.811,1.811,0,0,0-1.347.567A2.575,2.575,0,0,0,127.9-4.17ZM140.335,0h-1.121V-3.992q0-2.229-1.627-2.229a1.765,1.765,0,0,0-1.391.632,2.344,2.344,0,0,0-.55,1.6V0h-1.121V-7h1.121v1.162h.027a2.526,2.526,0,0,1,2.3-1.326,2.142,2.142,0,0,1,1.757.742,3.3,3.3,0,0,1,.608,2.143Zm5.359-.068a2.162,2.162,0,0,1-1.046.219Q142.81.15,142.81-1.9V-6.043h-1.2V-7h1.2V-8.709l1.121-.362V-7h1.764v.957h-1.764V-2.1a1.635,1.635,0,0,0,.239,1,.955.955,0,0,0,.793.3,1.179,1.179,0,0,0,.731-.232Z" transform="translate(60 31)" fill="#31313a"/>
          <g id="Manage_Users" data-name="Manage Users" transform="translate(20 15)">
            <g id="Group_13534" data-name="Group 13534">
              <g id="Group_13533" data-name="Group 13533" transform="translate(3.1)">
                <circle id="Ellipse_2055" data-name="Ellipse 2055" cx="5" cy="5" r="5" transform="translate(1.9)" fill="#31313a"/>
                <path id="Path_9377" data-name="Path 9377" d="M11.9,19.9H8a2,2,0,0,1,.7-1.3l.5-.3a1.9,1.9,0,0,1,1.9.3A2,2,0,0,1,11.9,19.9Z" transform="translate(-3.1)" fill="#31313a"/>
                <path id="Path_9378" data-name="Path 9378" d="M16.9,14.1V20H14.4a5.1,5.1,0,0,0-.1-.8l.7-.4a.5.5,0,0,0,.1-.7l-.9-1.6a.5.5,0,0,0-.6-.2l-.7.4a4.5,4.5,0,0,0-1.5-.9V15a.5.5,0,0,0-.5-.5H9.1a.5.5,0,0,0-.5.5v.8a4.3,4.3,0,0,0-1.5.9l-.7-.4a.5.5,0,0,0-.6.1h0L4.9,18a.5.5,0,0,0,.2.6l.7.4a4.5,4.5,0,0,0-.1.8H3.1V14.1a7.1,7.1,0,0,1,3.6-2,12.8,12.8,0,0,1,3.3-.4,12.6,12.6,0,0,1,3.3.4,7.1,7.1,0,0,1,3.6,2Z" transform="translate(-3.1)" fill="#31313a"/>
              </g>
              <rect id="Rectangle_7435" data-name="Rectangle 7435" width="20" height="20" fill="none"/>
            </g>
          </g>
        </g>
      </g>
    </g>
    <path id="Path_9389" data-name="Path 9389" d="M7.348-8.4,4.236,0H3.152L.105-8.4H1.2L3.527-1.74A3.956,3.956,0,0,1,3.7-1h.023a3.65,3.65,0,0,1,.193-.756L6.287-8.4Zm1.57.879A.609.609,0,0,1,8.479-7.7.593.593,0,0,1,8.3-8.145a.6.6,0,0,1,.182-.448.6.6,0,0,1,.439-.179.621.621,0,0,1,.448.179.6.6,0,0,1,.185.448.594.594,0,0,1-.185.439A.615.615,0,0,1,8.918-7.523ZM9.387,0H8.426V-6h.961Zm6.768-2.76H11.918a2.244,2.244,0,0,0,.539,1.547,1.858,1.858,0,0,0,1.418.545,2.948,2.948,0,0,0,1.863-.668v.9a3.482,3.482,0,0,1-2.092.574,2.536,2.536,0,0,1-2-.817,3.346,3.346,0,0,1-.727-2.3,3.281,3.281,0,0,1,.794-2.282,2.546,2.546,0,0,1,1.972-.882,2.256,2.256,0,0,1,1.822.762,3.176,3.176,0,0,1,.645,2.115Zm-.984-.814a1.955,1.955,0,0,0-.4-1.295,1.368,1.368,0,0,0-1.1-.463,1.552,1.552,0,0,0-1.154.486,2.207,2.207,0,0,0-.586,1.271ZM25.166-6l-1.8,6h-1L21.135-4.295a2.8,2.8,0,0,1-.094-.557h-.023a2.628,2.628,0,0,1-.123.545L19.553,0h-.961L16.775-6h1.008l1.242,4.512a2.718,2.718,0,0,1,.082.539h.047A2.521,2.521,0,0,1,19.26-1.5L20.643-6h.879l1.242,4.523a3.229,3.229,0,0,1,.088.539H22.9a2.493,2.493,0,0,1,.1-.539L24.217-6Zm1.605-1.523a.609.609,0,0,1-.439-.176.593.593,0,0,1-.182-.445.6.6,0,0,1,.182-.448.6.6,0,0,1,.439-.179.621.621,0,0,1,.448.179.6.6,0,0,1,.185.448.594.594,0,0,1-.185.439A.615.615,0,0,1,26.771-7.523ZM27.24,0h-.961V-6h.961Zm6.926,0h-.961V-3.422q0-1.91-1.395-1.91a1.513,1.513,0,0,0-1.192.542,2.009,2.009,0,0,0-.472,1.368V0h-.961V-6h.961v1h.023a2.166,2.166,0,0,1,1.969-1.137,1.836,1.836,0,0,1,1.506.636,2.832,2.832,0,0,1,.521,1.837ZM41.1-.48q0,3.3-3.164,3.3A4.248,4.248,0,0,1,35.988,2.4V1.441A4,4,0,0,0,37.922,2q2.215,0,2.215-2.355v-.656h-.023A2.247,2.247,0,0,1,38.051.141a2.252,2.252,0,0,1-1.8-.8,3.2,3.2,0,0,1-.683-2.147A3.735,3.735,0,0,1,36.3-5.238a2.457,2.457,0,0,1,2.013-.9,1.956,1.956,0,0,1,1.8.973h.023V-6H41.1Zm-.961-2.232V-3.6a1.717,1.717,0,0,0-.483-1.225,1.591,1.591,0,0,0-1.2-.51,1.669,1.669,0,0,0-1.395.647,2.89,2.89,0,0,0-.5,1.813,2.481,2.481,0,0,0,.483,1.6,1.562,1.562,0,0,0,1.28.6,1.673,1.673,0,0,0,1.315-.574A2.14,2.14,0,0,0,40.137-2.713ZM50.625,0h-.961V-.937h-.023A2.012,2.012,0,0,1,47.795.141a1.973,1.973,0,0,1-1.4-.475,1.644,1.644,0,0,1-.507-1.26q0-1.682,1.98-1.957l1.8-.252q0-1.529-1.236-1.529a2.954,2.954,0,0,0-1.957.738v-.984a3.718,3.718,0,0,1,2.039-.562q2.115,0,2.115,2.238Zm-.961-3.035-1.447.2a2.35,2.35,0,0,0-1.008.331.955.955,0,0,0-.34.841.916.916,0,0,0,.313.718,1.211,1.211,0,0,0,.835.278,1.542,1.542,0,0,0,1.181-.5,1.79,1.79,0,0,0,.466-1.269ZM52.072-.217V-1.248a2.844,2.844,0,0,0,1.729.58q1.266,0,1.266-.844a.732.732,0,0,0-.108-.407,1.08,1.08,0,0,0-.293-.3,2.255,2.255,0,0,0-.434-.231q-.249-.1-.536-.214a6.9,6.9,0,0,1-.7-.319,2.115,2.115,0,0,1-.5-.363,1.352,1.352,0,0,1-.3-.46,1.627,1.627,0,0,1-.1-.6,1.434,1.434,0,0,1,.193-.747,1.715,1.715,0,0,1,.516-.545,2.4,2.4,0,0,1,.735-.331,3.262,3.262,0,0,1,.853-.111,3.442,3.442,0,0,1,1.395.27V-4.9a2.718,2.718,0,0,0-1.523-.434,1.781,1.781,0,0,0-.486.062,1.191,1.191,0,0,0-.372.173.8.8,0,0,0-.24.267.7.7,0,0,0-.085.343.822.822,0,0,0,.085.393.864.864,0,0,0,.249.281,1.9,1.9,0,0,0,.4.223q.234.1.533.217a7.421,7.421,0,0,1,.715.313,2.452,2.452,0,0,1,.539.363,1.42,1.42,0,0,1,.343.466,1.5,1.5,0,0,1,.12.627,1.478,1.478,0,0,1-.2.773,1.682,1.682,0,0,1-.524.545,2.4,2.4,0,0,1-.756.322,3.732,3.732,0,0,1-.9.105A3.4,3.4,0,0,1,52.072-.217Zm5.789-4.611a.622.622,0,0,1-.46-.193.636.636,0,0,1-.19-.463.617.617,0,0,1,.19-.457.632.632,0,0,1,.46-.187.649.649,0,0,1,.469.188.612.612,0,0,1,.193.457.632.632,0,0,1-.193.463A.638.638,0,0,1,57.861-4.828Zm0,4.957a.622.622,0,0,1-.46-.193.636.636,0,0,1-.19-.463.646.646,0,0,1,.19-.466.617.617,0,0,1,.46-.2.634.634,0,0,1,.469.2.641.641,0,0,1,.193.466.632.632,0,0,1-.193.463A.638.638,0,0,1,57.861.129ZM9.263,22.4H7.479L6.6,19.9H2.741l-.848,2.5H.116l3.671-9.8H5.619Zm-3.1-3.821-1.36-3.91a4.632,4.632,0,0,1-.13-.615H4.648a4,4,0,0,1-.137.615l-1.347,3.91ZM10.609,22.4V12.6h3.11a3.675,3.675,0,0,1,2.252.622,1.934,1.934,0,0,1,.831,1.62,2.313,2.313,0,0,1-.472,1.449,2.545,2.545,0,0,1-1.306.875v.027a2.558,2.558,0,0,1,1.617.749,2.28,2.28,0,0,1,.6,1.644,2.469,2.469,0,0,1-.991,2.037,3.924,3.924,0,0,1-2.5.779Zm1.62-8.5v2.789h1.053a2.022,2.022,0,0,0,1.33-.4,1.388,1.388,0,0,0,.482-1.131q0-1.258-1.682-1.258Zm0,4.095v3.1h1.388a2.11,2.11,0,0,0,1.4-.42,1.438,1.438,0,0,0,.5-1.159Q15.518,18,13.405,18ZM25.9,21.99a5.943,5.943,0,0,1-2.755.574,4.5,4.5,0,0,1-3.418-1.347,4.907,4.907,0,0,1-1.285-3.534,5.146,5.146,0,0,1,1.446-3.8,4.946,4.946,0,0,1,3.654-1.449,5.988,5.988,0,0,1,2.358.4V14.45a4.208,4.208,0,0,0-2.187-.588,3.433,3.433,0,0,0-2.581,1.019,3.742,3.742,0,0,0-.988,2.721,3.568,3.568,0,0,0,.923,2.581,3.212,3.212,0,0,0,2.427.96,4.345,4.345,0,0,0,2.406-.656Zm12.544,0a5.943,5.943,0,0,1-2.755.574,4.5,4.5,0,0,1-3.418-1.347,4.907,4.907,0,0,1-1.285-3.534,5.146,5.146,0,0,1,1.446-3.8,4.946,4.946,0,0,1,3.654-1.449,5.988,5.988,0,0,1,2.358.4V14.45a4.208,4.208,0,0,0-2.187-.588,3.433,3.433,0,0,0-2.581,1.019,3.742,3.742,0,0,0-.988,2.721,3.568,3.568,0,0,0,.923,2.581,3.212,3.212,0,0,0,2.427.96,4.345,4.345,0,0,0,2.406-.656Zm4.785.574a3.47,3.47,0,0,1-2.587-.981,3.544,3.544,0,0,1-.967-2.6A3.456,3.456,0,0,1,43.4,15.236a3.358,3.358,0,0,1,2.557.964,3.723,3.723,0,0,1,.916,2.673,3.669,3.669,0,0,1-.988,2.683A3.548,3.548,0,0,1,43.23,22.564Zm.075-6.063a1.81,1.81,0,0,0-1.47.649,2.719,2.719,0,0,0-.54,1.791,2.561,2.561,0,0,0,.547,1.733,1.837,1.837,0,0,0,1.463.632,1.743,1.743,0,0,0,1.439-.622,2.754,2.754,0,0,0,.5-1.771,2.8,2.8,0,0,0-.5-1.784A1.734,1.734,0,0,0,43.306,16.5Zm15.647,5.9H57.367V18.586a3.091,3.091,0,0,0-.311-1.593,1.144,1.144,0,0,0-1.049-.492,1.265,1.265,0,0,0-1.056.622,2.538,2.538,0,0,0-.434,1.49V22.4H52.924V18.456q0-1.955-1.381-1.955a1.246,1.246,0,0,0-1.056.588,2.592,2.592,0,0,0-.414,1.524V22.4H48.487v-7h1.586v1.107H50.1a2.425,2.425,0,0,1,2.208-1.271,2.082,2.082,0,0,1,1.268.4,1.992,1.992,0,0,1,.742,1.049,2.5,2.5,0,0,1,2.324-1.449q2.311,0,2.311,2.851ZM62.5,21.368h-.027V25.62H60.888V15.4h1.586v1.23H62.5a2.6,2.6,0,0,1,2.379-1.395,2.506,2.506,0,0,1,2.078.937,3.928,3.928,0,0,1,.745,2.516,4.361,4.361,0,0,1-.841,2.8,2.781,2.781,0,0,1-2.3,1.053A2.294,2.294,0,0,1,62.5,21.368Zm-.041-2.762v.868a1.852,1.852,0,0,0,.489,1.3,1.725,1.725,0,0,0,2.625-.154,3.2,3.2,0,0,0,.5-1.917,2.52,2.52,0,0,0-.468-1.617A1.539,1.539,0,0,0,64.34,16.5a1.709,1.709,0,0,0-1.364.6A2.228,2.228,0,0,0,62.46,18.606ZM74.532,22.4H72.994V21.306h-.027a2.316,2.316,0,0,1-2.126,1.258A2.239,2.239,0,0,1,69.224,22a1.961,1.961,0,0,1-.584-1.483q0-1.982,2.283-2.311L73,17.916q0-1.5-1.422-1.5a3.378,3.378,0,0,0-2.256.861V15.892a4.919,4.919,0,0,1,2.557-.656,2.326,2.326,0,0,1,2.652,2.611ZM73,18.962l-1.47.205A2.33,2.33,0,0,0,70.5,19.5a.969.969,0,0,0-.345.851.932.932,0,0,0,.318.728,1.231,1.231,0,0,0,.851.284,1.57,1.57,0,0,0,1.2-.509A1.806,1.806,0,0,0,73,19.57ZM82.7,22.4H81.115V18.456q0-1.962-1.388-1.962a1.515,1.515,0,0,0-1.2.543,2.016,2.016,0,0,0-.472,1.371V22.4H76.467v-7H78.06v1.162h.027a2.5,2.5,0,0,1,2.27-1.326,2.114,2.114,0,0,1,1.743.742,3.331,3.331,0,0,1,.6,2.143Zm8-7-3.158,8.121q-.984,2.174-2.762,2.174a3.311,3.311,0,0,1-.834-.089V24.287a2.218,2.218,0,0,0,.684.123,1.411,1.411,0,0,0,1.326-.875l.472-1.148L83.645,15.4H85.4l1.668,5.086q.027.1.123.506h.034q.034-.157.123-.492l1.75-5.1Z" transform="translate(20 98)" fill="#31313a"/>
    <path id="Path_9390" data-name="Path 9390" d="M.709-.34V-1.5a2.253,2.253,0,0,0,.478.316,3.869,3.869,0,0,0,.586.237A4.664,4.664,0,0,0,2.391-.8a3.447,3.447,0,0,0,.574.053,2.249,2.249,0,0,0,1.356-.337,1.14,1.14,0,0,0,.448-.97,1.139,1.139,0,0,0-.149-.592,1.683,1.683,0,0,0-.413-.46,4.1,4.1,0,0,0-.624-.4q-.36-.19-.776-.4-.439-.223-.82-.451a3.555,3.555,0,0,1-.662-.5,2.1,2.1,0,0,1-.442-.624A1.932,1.932,0,0,1,.721-6.3a1.922,1.922,0,0,1,.252-1A2.161,2.161,0,0,1,1.635-8a3,3,0,0,1,.935-.41,4.279,4.279,0,0,1,1.069-.135,4.1,4.1,0,0,1,1.811.3v1.107a3.282,3.282,0,0,0-1.91-.516,3.142,3.142,0,0,0-.645.067,1.821,1.821,0,0,0-.574.22,1.272,1.272,0,0,0-.41.393,1.042,1.042,0,0,0-.158.586,1.206,1.206,0,0,0,.12.557,1.364,1.364,0,0,0,.354.428,3.531,3.531,0,0,0,.571.375q.337.182.776.4t.855.469a3.91,3.91,0,0,1,.709.545,2.422,2.422,0,0,1,.483.662,1.861,1.861,0,0,1,.179.832,2.11,2.11,0,0,1-.243,1.052,2,2,0,0,1-.656.7,2.866,2.866,0,0,1-.952.39,5.215,5.215,0,0,1-1.137.12A4.632,4.632,0,0,1,2.32.108q-.293-.032-.6-.094a4.877,4.877,0,0,1-.577-.152A1.8,1.8,0,0,1,.709-.34ZM14.73-6l-1.8,6h-1L10.7-4.295a2.8,2.8,0,0,1-.094-.557h-.023a2.628,2.628,0,0,1-.123.545L9.117,0H8.156L6.34-6H7.348L8.59-1.488a2.718,2.718,0,0,1,.082.539h.047A2.521,2.521,0,0,1,8.824-1.5L10.207-6h.879l1.242,4.523a3.229,3.229,0,0,1,.088.539h.047a2.493,2.493,0,0,1,.1-.539L13.781-6Zm1.605-1.523A.609.609,0,0,1,15.9-7.7a.593.593,0,0,1-.182-.445.6.6,0,0,1,.182-.448.6.6,0,0,1,.439-.179.621.621,0,0,1,.448.179.6.6,0,0,1,.185.448.594.594,0,0,1-.185.439A.615.615,0,0,1,16.336-7.523ZM16.8,0h-.961V-6H16.8Zm4.729-.059a1.853,1.853,0,0,1-.9.188q-1.576,0-1.576-1.758V-5.18H18.029V-6h1.031V-7.465l.961-.311V-6h1.512v.82H20.021V-1.8a1.4,1.4,0,0,0,.205.861.818.818,0,0,0,.68.258,1.01,1.01,0,0,0,.627-.2Zm5.373-.217a3.122,3.122,0,0,1-1.641.416,2.716,2.716,0,0,1-2.071-.835,3.026,3.026,0,0,1-.788-2.165,3.326,3.326,0,0,1,.85-2.382,2.972,2.972,0,0,1,2.268-.9,3.156,3.156,0,0,1,1.395.293v.984a2.443,2.443,0,0,0-1.43-.469,1.932,1.932,0,0,0-1.509.659,2.5,2.5,0,0,0-.589,1.731,2.382,2.382,0,0,0,.554,1.664,1.909,1.909,0,0,0,1.485.609,2.408,2.408,0,0,0,1.477-.521ZM33.34,0h-.961V-3.457q0-1.875-1.395-1.875A1.52,1.52,0,0,0,29.8-4.79,2.02,2.02,0,0,0,29.32-3.4V0h-.961V-8.883h.961V-5h.023a2.182,2.182,0,0,1,1.969-1.137q2.027,0,2.027,2.443Z" transform="translate(196 121)" fill="#2777d3"/>
    <line id="Line_4" data-name="Line 4" x1="250" transform="translate(0.5 140)" fill="none" stroke="#e6e6ea" stroke-width="1"/>
    <rect id="Rectangle_5295" data-name="Rectangle 5295" width="1" height="961" transform="translate(250 61)" fill="#e6e6ea"/>
    <path id="Path_6682" data-name="Path 6682" d="M0,0H800V10H0Z" transform="translate(0 60)" fill="#2777d3"/>
    <g id="Switch" transform="translate(213 93)">
      <g id="Group_13544" data-name="Group 13544" transform="translate(-7.5 -8)">
        <rect id="Rectangle_7451" data-name="Rectangle 7451" width="2.1" height="1.75" transform="translate(0 2.7)" fill="#2777d3"/>
        <path id="Path_9387" data-name="Path 9387" d="M11.9,0,10.5,1.4l1.3,1.3H4.1V4.4h7.7L10.5,5.7l1.4,1.5,3.6-3.6Z" transform="translate(-0.5)" fill="#2777d3"/>
        <rect id="Rectangle_7452" data-name="Rectangle 7452" width="2.1" height="1.75" transform="translate(12.9 11.6)" fill="#2777d3"/>
        <path id="Path_9388" data-name="Path 9388" d="M.5,12.4,4.1,16l1.4-1.4L4.2,13.3h7.7V11.6H4.2l1.3-1.3L4.1,8.8Z" transform="translate(-0.5)" fill="#2777d3"/>
      </g>
    </g>
    <circle id="Ellipse_2056" data-name="Ellipse 2056" cx="12" cy="12" r="12" transform="translate(125 106)" fill="#c6318c"/>
    <circle id="Ellipse_2057" data-name="Ellipse 2057" cx="12" cy="12" r="12" transform="translate(255 94)" fill="#c6318c"/>
    <line id="Line_5" data-name="Line 5" x1="14" transform="translate(111.5 118.5)" fill="none" stroke="#c6318c" stroke-width="1"/>
    <line id="Line_6" data-name="Line 6" x1="27" transform="translate(230.5 106.5)" fill="none" stroke="#c6318c" stroke-width="1"/>
    <path id="Path_9391" data-name="Path 9391" d="M4.949,0H3.828V-8.47a2.6,2.6,0,0,1-.379.3,6.184,6.184,0,0,1-.561.332q-.311.164-.656.308a4.769,4.769,0,0,1-.673.226V-8.442a6.517,6.517,0,0,0,.783-.277q.414-.174.813-.39T3.91-9.56a6,6,0,0,0,.615-.461h.424Z" transform="translate(133 123)" fill="#fff"/>
    <path id="Path_9392" data-name="Path 9392" d="M5.277-7.232a2.027,2.027,0,0,0-.14-.786,1.557,1.557,0,0,0-.383-.557,1.568,1.568,0,0,0-.571-.332,2.235,2.235,0,0,0-.711-.109,2.352,2.352,0,0,0-.643.089,3.124,3.124,0,0,0-.612.246,3.764,3.764,0,0,0-.574.376,4.148,4.148,0,0,0-.516.485v-1.2a3.352,3.352,0,0,1,1.056-.7,3.719,3.719,0,0,1,1.425-.243,3.441,3.441,0,0,1,1.114.174,2.555,2.555,0,0,1,.889.509,2.354,2.354,0,0,1,.591.827,2.79,2.79,0,0,1,.215,1.128,3.868,3.868,0,0,1-.133,1.053,3.256,3.256,0,0,1-.4.889,4.288,4.288,0,0,1-.68.8,9.635,9.635,0,0,1-.964.779q-.69.492-1.138.841a5.031,5.031,0,0,0-.711.653,1.894,1.894,0,0,0-.369.608,2.127,2.127,0,0,0-.106.7H6.795V0H.745V-.485A4.045,4.045,0,0,1,.882-1.593,2.876,2.876,0,0,1,1.333-2.5a5.046,5.046,0,0,1,.824-.861q.509-.431,1.248-.971A7.887,7.887,0,0,0,4.3-5.065a3.8,3.8,0,0,0,.578-.7,2.5,2.5,0,0,0,.311-.708A3.051,3.051,0,0,0,5.277-7.232Z" transform="translate(263 111)" fill="#fff"/>
  </g>
</svg>
