<svg xmlns="http://www.w3.org/2000/svg" xmlns:xlink="http://www.w3.org/1999/xlink" width="800" height="195" viewBox="0 0 800 195">
  <defs>
    <clipPath id="clip-path">
      <rect width="36" height="36" fill="none"/>
    </clipPath>
    <clipPath id="clip-Best_practices">
      <rect width="800" height="195"/>
    </clipPath>
  </defs>
  <g id="Best_practices" data-name="Best practices" clip-path="url(#clip-Best_practices)">
    <rect width="800" height="195" fill="#f4f4f6"/>
    <rect id="Rectangle_5388" data-name="Rectangle 5388" width="13" height="13" transform="translate(142 41)" fill="none"/>
    <path id="Path_5700" data-name="Path 5700" d="M0,0H250V134H0Z" transform="translate(0 61)" fill="#fff"/>
    <g id="Rectangle_2" data-name="Rectangle 2" transform="translate(250 9)" fill="#fff" stroke="#dbdbdb" stroke-width="1">
      <rect width="390" height="42" rx="2" stroke="none"/>
      <rect x="0.5" y="0.5" width="389" height="41" rx="1.5" fill="none"/>
    </g>
    <path id="Path_9414" data-name="Path 9414" d="M7.014-2.659A2.451,2.451,0,0,1,6.057-.6a4.15,4.15,0,0,1-2.6.738A6.506,6.506,0,0,1,.725-.321V-1.442a7.2,7.2,0,0,0,1.34.41A7.049,7.049,0,0,0,3.5-.882a2.9,2.9,0,0,0,1.75-.441A1.447,1.447,0,0,0,5.838-2.55,1.575,1.575,0,0,0,5.629-3.4a1.937,1.937,0,0,0-.7-.612,9.755,9.755,0,0,0-1.487-.636A4.746,4.746,0,0,1,1.453-5.831a2.611,2.611,0,0,1-.6-1.784,2.219,2.219,0,0,1,.868-1.839,3.608,3.608,0,0,1,2.3-.684,6.769,6.769,0,0,1,2.741.547L6.4-8.579A6.2,6.2,0,0,0,3.992-9.1a2.329,2.329,0,0,0-1.442.4,1.307,1.307,0,0,0-.52,1.1,1.687,1.687,0,0,0,.191.851,1.8,1.8,0,0,0,.646.608,8.026,8.026,0,0,0,1.391.612,5.507,5.507,0,0,1,2.164,1.2A2.366,2.366,0,0,1,7.014-2.659Zm5.038,2.8A3.442,3.442,0,0,1,9.43-.875a3.917,3.917,0,0,1-.96-2.81,4.344,4.344,0,0,1,.892-2.878,2.963,2.963,0,0,1,2.4-1.066,2.825,2.825,0,0,1,2.229.926,3.55,3.55,0,0,1,.82,2.444v.718H9.646a2.97,2.97,0,0,0,.667,2,2.305,2.305,0,0,0,1.781.684,6.035,6.035,0,0,0,2.393-.506V-.349a6.005,6.005,0,0,1-1.138.373A6.4,6.4,0,0,1,12.052.137Zm-.308-6.815a1.853,1.853,0,0,0-1.439.588,2.71,2.71,0,0,0-.632,1.627H13.59a2.5,2.5,0,0,0-.479-1.644A1.684,1.684,0,0,0,11.744-6.679ZM21.349,0l-.226-1.066h-.055a3.153,3.153,0,0,1-1.118.954,3.407,3.407,0,0,1-1.391.25,2.5,2.5,0,0,1-1.747-.574,2.094,2.094,0,0,1-.632-1.634q0-2.27,3.63-2.379l1.271-.041v-.465a1.9,1.9,0,0,0-.379-1.3,1.56,1.56,0,0,0-1.213-.42A4.944,4.944,0,0,0,17.37-6.1l-.349-.868a5.332,5.332,0,0,1,1.213-.472,5.255,5.255,0,0,1,1.323-.171,2.854,2.854,0,0,1,1.986.595,2.482,2.482,0,0,1,.646,1.907V0ZM18.785-.8a2.3,2.3,0,0,0,1.665-.581,2.15,2.15,0,0,0,.6-1.627v-.677l-1.135.048a4.128,4.128,0,0,0-1.952.42,1.268,1.268,0,0,0-.6,1.159,1.169,1.169,0,0,0,.373.937A1.546,1.546,0,0,0,18.785-.8Zm9.16-6.829a4.44,4.44,0,0,1,.9.082l-.157,1.053a3.865,3.865,0,0,0-.82-.1,2,2,0,0,0-1.555.738,2.692,2.692,0,0,0-.646,1.839V0H24.527V-7.492h.937l.13,1.388h.055a3.293,3.293,0,0,1,1-1.128A2.262,2.262,0,0,1,27.945-7.629ZM33.236.137a3.2,3.2,0,0,1-2.519-1A4.118,4.118,0,0,1,29.825-3.7,4.247,4.247,0,0,1,30.731-6.6a3.261,3.261,0,0,1,2.581-1.025,5.121,5.121,0,0,1,1.08.116,3.558,3.558,0,0,1,.848.273l-.349.964a5.336,5.336,0,0,0-.82-.25,3.663,3.663,0,0,0-.786-.1Q31-6.624,31-3.712a3.468,3.468,0,0,0,.557,2.119,1.938,1.938,0,0,0,1.651.738,5.048,5.048,0,0,0,1.921-.4v1A4.094,4.094,0,0,1,33.236.137ZM42.034,0V-4.847a1.955,1.955,0,0,0-.417-1.367,1.7,1.7,0,0,0-1.306-.451,2.139,2.139,0,0,0-1.726.643,3.255,3.255,0,0,0-.543,2.105V0H36.907V-10.637h1.135v3.22a7.016,7.016,0,0,1-.055.964h.068a2.314,2.314,0,0,1,.954-.851,3.1,3.1,0,0,1,1.412-.311,2.891,2.891,0,0,1,2.061.653,2.749,2.749,0,0,1,.687,2.075V0Z" transform="translate(264 36)" fill="#c6c6c6"/>
    <g id="Group_12269" data-name="Group 12269" transform="translate(-42)">
      <rect id="Rectangle_6102" data-name="Rectangle 6102" width="184" height="60" transform="translate(42)" fill="none"/>
      <g id="Group_12267" data-name="Group 12267" transform="translate(99 20)">
        <g id="Group_6" data-name="Group 6">
          <path id="Path_467" data-name="Path 467" d="M440.678,0l-6.233,13.788L428.193,0H425.7l8.745,19.322L443.19,0Z" transform="translate(-345.294)" fill="#8b8d8e"/>
          <path id="Path_468" data-name="Path 468" d="M343.6,19.322h2.512L337.39,0h-.963L327.7,19.322h2.512l1.908-4.269H341.7ZM333.14,12.787,336.9,4.5l3.759,8.292Z" transform="translate(-265.804)" fill="#8b8d8e"/>
          <path id="Path_469" data-name="Path 469" d="M543.685,10.426h6.951V8.16h-6.951V2.267h7.555L552.45,0H541.4V19.322h9.859L552.468,17h-8.783Z" transform="translate(-439.14)" fill="#8b8d8e"/>
          <path id="Path_470" data-name="Path 470" d="M186.078,0l-6.2,13.788L174.348,1.681l-5.5,12.107L162.864,0h-3.721L155.8,7.385l1.247,2.758,3.834-8.462,7.971,17.641,5.5-12.126,5.534,12.126L188.571,0Z" transform="translate(-126.372)" fill="#8b8d8e"/>
          <path id="Path_471" data-name="Path 471" d="M4.193,17.018,15.262,0H1.851L.812,2.267H11.068L0,19.285H15.243l1.02-2.267Z" fill="#8b8d8e"/>
        </g>
        <path id="Path_472" data-name="Path 472" d="M103.468,0H98.5l5.591,12.409L98.5,24.8h4.968L109.1,12.409Z" transform="translate(-79.895)" fill="#5fb53b"/>
      </g>
      <g id="Group_12268" data-name="Group 12268" transform="translate(-1562)">
        <g id="Icon_Link_-_Hover" data-name="Icon Link - Hover" transform="translate(1614 12)" clip-path="url(#clip-path)">
          <rect id="Rectangle_5756" data-name="Rectangle 5756" width="36" height="36" rx="18" fill="none"/>
        </g>
        <path id="Path_8220" data-name="Path 8220" d="M172,94.5v3a.472.472,0,0,1-.5.5h-3a.472.472,0,0,1-.5-.5v-3a.472.472,0,0,1,.5-.5h3A.472.472,0,0,1,172,94.5Zm5.5-.5h-3a.472.472,0,0,0-.5.5v3a.472.472,0,0,0,.5.5h3a.472.472,0,0,0,.5-.5v-3A.472.472,0,0,0,177.5,94Zm-6,12h-3a.472.472,0,0,0-.5.5v3a.472.472,0,0,0,.5.5h3a.472.472,0,0,0,.5-.5v-3A.472.472,0,0,0,171.5,106Zm12-12h-3a.472.472,0,0,0-.5.5v3a.472.472,0,0,0,.5.5h3a.472.472,0,0,0,.5-.5v-3A.472.472,0,0,0,183.5,94Zm-12,6h-3a.472.472,0,0,0-.5.5v3a.472.472,0,0,0,.5.5h3a.472.472,0,0,0,.5-.5v-3A.472.472,0,0,0,171.5,100Zm6,0h-3a.472.472,0,0,0-.5.5v3a.472.472,0,0,0,.5.5h3a.472.472,0,0,0,.5-.5v-3A.472.472,0,0,0,177.5,100Zm0,6h-3a.472.472,0,0,0-.5.5v3a.472.472,0,0,0,.5.5h3a.472.472,0,0,0,.5-.5v-3A.472.472,0,0,0,177.5,106Zm6-6h-3a.472.472,0,0,0-.5.5v3a.472.472,0,0,0,.5.5h3a.472.472,0,0,0,.5-.5v-3A.472.472,0,0,0,183.5,100Zm0,6h-3a.472.472,0,0,0-.5.5v3a.472.472,0,0,0,.5.5h3a.472.472,0,0,0,.5-.5v-3A.472.472,0,0,0,183.5,106Z" transform="translate(1456 -72)" fill="#78788c"/>
      </g>
    </g>
    <g id="ZUI_Sidenav" data-name="ZUI Sidenav" transform="translate(0 142)">
      <g id="Group_12266" data-name="Group 12266">
        <rect id="Rectangle_6084" data-name="Rectangle 6084" width="60" height="50" fill="none" opacity="0.3"/>
        <rect id="Rectangle_6094" data-name="Rectangle 6094" width="20" height="20" transform="translate(20 15)" fill="none"/>
        <g id="Group_12271" data-name="Group 12271">
          <rect id="Rectangle_6083" data-name="Rectangle 6083" width="250" height="50" fill="none"/>
          <path id="Path_9417" data-name="Path 9417" d="M8.654,0H7.506V-4.471H2.434V0H1.285V-9.8H2.434v4.3H7.506V-9.8H8.654ZM14,.164a3.247,3.247,0,0,1-2.478-.981,3.634,3.634,0,0,1-.926-2.6,3.785,3.785,0,0,1,.964-2.755,3.465,3.465,0,0,1,2.6-.991,3.14,3.14,0,0,1,2.444.964,3.822,3.822,0,0,1,.878,2.673A3.761,3.761,0,0,1,16.54-.844,3.317,3.317,0,0,1,14,.164Zm.082-6.385a2.132,2.132,0,0,0-1.709.735,3.018,3.018,0,0,0-.629,2.027A2.854,2.854,0,0,0,12.38-1.5a2.161,2.161,0,0,0,1.7.718,2.049,2.049,0,0,0,1.671-.7,3.055,3.055,0,0,0,.584-2,3.108,3.108,0,0,0-.584-2.023A2.04,2.04,0,0,0,14.082-6.221ZM29.217,0H28.1V-4.02A3.032,3.032,0,0,0,27.737-5.7a1.361,1.361,0,0,0-1.207-.52,1.494,1.494,0,0,0-1.22.656,2.511,2.511,0,0,0-.5,1.572V0H23.687V-4.156q0-2.064-1.593-2.064a1.475,1.475,0,0,0-1.217.619,2.557,2.557,0,0,0-.479,1.61V0H19.277V-7H20.4v1.107h.027A2.378,2.378,0,0,1,22.6-7.164a2.027,2.027,0,0,1,1.251.4,2.012,2.012,0,0,1,.731,1.049,2.5,2.5,0,0,1,2.324-1.449q2.311,0,2.311,2.851Zm7.745-3.22H32.02a2.618,2.618,0,0,0,.629,1.8A2.168,2.168,0,0,0,34.3-.779a3.439,3.439,0,0,0,2.174-.779V-.506a4.063,4.063,0,0,1-2.44.67A2.959,2.959,0,0,1,31.705-.79a3.9,3.9,0,0,1-.848-2.683,3.828,3.828,0,0,1,.926-2.663,2.97,2.97,0,0,1,2.3-1.029,2.632,2.632,0,0,1,2.126.889,3.705,3.705,0,0,1,.752,2.468Zm-1.148-.95a2.281,2.281,0,0,0-.468-1.511,1.6,1.6,0,0,0-1.282-.54,1.811,1.811,0,0,0-1.347.567,2.575,2.575,0,0,0-.684,1.483Z" transform="translate(60 31)" fill="#31313a"/>
          <path id="zui-nav-home" d="M20,10.6H17.5v8.142a.833.833,0,0,1-.833.833H12V14.1H8v5.5H3.333a.833.833,0,0,1-.833-.833V10.6H0L10,.6Z" transform="translate(20 15.4)" fill="#31313a"/>
        </g>
      </g>
    </g>
    <path id="Path_9412" data-name="Path 9412" d="M7.348-8.4,4.236,0H3.152L.105-8.4H1.2L3.527-1.74A3.956,3.956,0,0,1,3.7-1h.023a3.65,3.65,0,0,1,.193-.756L6.287-8.4Zm1.57.879A.609.609,0,0,1,8.479-7.7.593.593,0,0,1,8.3-8.145a.6.6,0,0,1,.182-.448.6.6,0,0,1,.439-.179.621.621,0,0,1,.448.179.6.6,0,0,1,.185.448.594.594,0,0,1-.185.439A.615.615,0,0,1,8.918-7.523ZM9.387,0H8.426V-6h.961Zm6.768-2.76H11.918a2.244,2.244,0,0,0,.539,1.547,1.858,1.858,0,0,0,1.418.545,2.948,2.948,0,0,0,1.863-.668v.9a3.482,3.482,0,0,1-2.092.574,2.536,2.536,0,0,1-2-.817,3.346,3.346,0,0,1-.727-2.3,3.281,3.281,0,0,1,.794-2.282,2.546,2.546,0,0,1,1.972-.882,2.256,2.256,0,0,1,1.822.762,3.176,3.176,0,0,1,.645,2.115Zm-.984-.814a1.955,1.955,0,0,0-.4-1.295,1.368,1.368,0,0,0-1.1-.463,1.552,1.552,0,0,0-1.154.486,2.207,2.207,0,0,0-.586,1.271ZM25.166-6l-1.8,6h-1L21.135-4.295a2.8,2.8,0,0,1-.094-.557h-.023a2.628,2.628,0,0,1-.123.545L19.553,0h-.961L16.775-6h1.008l1.242,4.512a2.718,2.718,0,0,1,.082.539h.047A2.521,2.521,0,0,1,19.26-1.5L20.643-6h.879l1.242,4.523a3.229,3.229,0,0,1,.088.539H22.9a2.493,2.493,0,0,1,.1-.539L24.217-6Zm1.605-1.523a.609.609,0,0,1-.439-.176.593.593,0,0,1-.182-.445.6.6,0,0,1,.182-.448.6.6,0,0,1,.439-.179.621.621,0,0,1,.448.179.6.6,0,0,1,.185.448.594.594,0,0,1-.185.439A.615.615,0,0,1,26.771-7.523ZM27.24,0h-.961V-6h.961Zm6.926,0h-.961V-3.422q0-1.91-1.395-1.91a1.513,1.513,0,0,0-1.192.542,2.009,2.009,0,0,0-.472,1.368V0h-.961V-6h.961v1h.023a2.166,2.166,0,0,1,1.969-1.137,1.836,1.836,0,0,1,1.506.636,2.832,2.832,0,0,1,.521,1.837ZM41.1-.48q0,3.3-3.164,3.3A4.248,4.248,0,0,1,35.988,2.4V1.441A4,4,0,0,0,37.922,2q2.215,0,2.215-2.355v-.656h-.023A2.247,2.247,0,0,1,38.051.141a2.252,2.252,0,0,1-1.8-.8,3.2,3.2,0,0,1-.683-2.147A3.735,3.735,0,0,1,36.3-5.238a2.457,2.457,0,0,1,2.013-.9,1.956,1.956,0,0,1,1.8.973h.023V-6H41.1Zm-.961-2.232V-3.6a1.717,1.717,0,0,0-.483-1.225,1.591,1.591,0,0,0-1.2-.51,1.669,1.669,0,0,0-1.395.647,2.89,2.89,0,0,0-.5,1.813,2.481,2.481,0,0,0,.483,1.6,1.562,1.562,0,0,0,1.28.6,1.673,1.673,0,0,0,1.315-.574A2.14,2.14,0,0,0,40.137-2.713ZM50.625,0h-.961V-.937h-.023A2.012,2.012,0,0,1,47.795.141a1.973,1.973,0,0,1-1.4-.475,1.644,1.644,0,0,1-.507-1.26q0-1.682,1.98-1.957l1.8-.252q0-1.529-1.236-1.529a2.954,2.954,0,0,0-1.957.738v-.984a3.718,3.718,0,0,1,2.039-.562q2.115,0,2.115,2.238Zm-.961-3.035-1.447.2a2.35,2.35,0,0,0-1.008.331.955.955,0,0,0-.34.841.916.916,0,0,0,.313.718,1.211,1.211,0,0,0,.835.278,1.542,1.542,0,0,0,1.181-.5,1.79,1.79,0,0,0,.466-1.269ZM52.072-.217V-1.248a2.844,2.844,0,0,0,1.729.58q1.266,0,1.266-.844a.732.732,0,0,0-.108-.407,1.08,1.08,0,0,0-.293-.3,2.255,2.255,0,0,0-.434-.231q-.249-.1-.536-.214a6.9,6.9,0,0,1-.7-.319,2.115,2.115,0,0,1-.5-.363,1.352,1.352,0,0,1-.3-.46,1.627,1.627,0,0,1-.1-.6,1.434,1.434,0,0,1,.193-.747,1.715,1.715,0,0,1,.516-.545,2.4,2.4,0,0,1,.735-.331,3.262,3.262,0,0,1,.853-.111,3.442,3.442,0,0,1,1.395.27V-4.9a2.718,2.718,0,0,0-1.523-.434,1.781,1.781,0,0,0-.486.062,1.191,1.191,0,0,0-.372.173.8.8,0,0,0-.24.267.7.7,0,0,0-.085.343.822.822,0,0,0,.085.393.864.864,0,0,0,.249.281,1.9,1.9,0,0,0,.4.223q.234.1.533.217a7.421,7.421,0,0,1,.715.313,2.452,2.452,0,0,1,.539.363,1.42,1.42,0,0,1,.343.466,1.5,1.5,0,0,1,.12.627,1.478,1.478,0,0,1-.2.773,1.682,1.682,0,0,1-.524.545,2.4,2.4,0,0,1-.756.322,3.732,3.732,0,0,1-.9.105A3.4,3.4,0,0,1,52.072-.217Zm5.789-4.611a.622.622,0,0,1-.46-.193.636.636,0,0,1-.19-.463.617.617,0,0,1,.19-.457.632.632,0,0,1,.46-.187.649.649,0,0,1,.469.188.612.612,0,0,1,.193.457.632.632,0,0,1-.193.463A.638.638,0,0,1,57.861-4.828Zm0,4.957a.622.622,0,0,1-.46-.193.636.636,0,0,1-.19-.463.646.646,0,0,1,.19-.466.617.617,0,0,1,.46-.2.634.634,0,0,1,.469.2.641.641,0,0,1,.193.466.632.632,0,0,1-.193.463A.638.638,0,0,1,57.861.129ZM9.263,22.4H7.479L6.6,19.9H2.741l-.848,2.5H.116l3.671-9.8H5.619Zm-3.1-3.821-1.36-3.91a4.632,4.632,0,0,1-.13-.615H4.648a4,4,0,0,1-.137.615l-1.347,3.91ZM10.609,22.4V12.6h3.11a3.675,3.675,0,0,1,2.252.622,1.934,1.934,0,0,1,.831,1.62,2.313,2.313,0,0,1-.472,1.449,2.545,2.545,0,0,1-1.306.875v.027a2.558,2.558,0,0,1,1.617.749,2.28,2.28,0,0,1,.6,1.644,2.469,2.469,0,0,1-.991,2.037,3.924,3.924,0,0,1-2.5.779Zm1.62-8.5v2.789h1.053a2.022,2.022,0,0,0,1.33-.4,1.388,1.388,0,0,0,.482-1.131q0-1.258-1.682-1.258Zm0,4.095v3.1h1.388a2.11,2.11,0,0,0,1.4-.42,1.438,1.438,0,0,0,.5-1.159Q15.518,18,13.405,18ZM25.9,21.99a5.943,5.943,0,0,1-2.755.574,4.5,4.5,0,0,1-3.418-1.347,4.907,4.907,0,0,1-1.285-3.534,5.146,5.146,0,0,1,1.446-3.8,4.946,4.946,0,0,1,3.654-1.449,5.988,5.988,0,0,1,2.358.4V14.45a4.208,4.208,0,0,0-2.187-.588,3.433,3.433,0,0,0-2.581,1.019,3.742,3.742,0,0,0-.988,2.721,3.568,3.568,0,0,0,.923,2.581,3.212,3.212,0,0,0,2.427.96,4.345,4.345,0,0,0,2.406-.656Zm12.544,0a5.943,5.943,0,0,1-2.755.574,4.5,4.5,0,0,1-3.418-1.347,4.907,4.907,0,0,1-1.285-3.534,5.146,5.146,0,0,1,1.446-3.8,4.946,4.946,0,0,1,3.654-1.449,5.988,5.988,0,0,1,2.358.4V14.45a4.208,4.208,0,0,0-2.187-.588,3.433,3.433,0,0,0-2.581,1.019,3.742,3.742,0,0,0-.988,2.721,3.568,3.568,0,0,0,.923,2.581,3.212,3.212,0,0,0,2.427.96,4.345,4.345,0,0,0,2.406-.656Zm4.785.574a3.47,3.47,0,0,1-2.587-.981,3.544,3.544,0,0,1-.967-2.6A3.456,3.456,0,0,1,43.4,15.236a3.358,3.358,0,0,1,2.557.964,3.723,3.723,0,0,1,.916,2.673,3.669,3.669,0,0,1-.988,2.683A3.548,3.548,0,0,1,43.23,22.564Zm.075-6.063a1.81,1.81,0,0,0-1.47.649,2.719,2.719,0,0,0-.54,1.791,2.561,2.561,0,0,0,.547,1.733,1.837,1.837,0,0,0,1.463.632,1.743,1.743,0,0,0,1.439-.622,2.754,2.754,0,0,0,.5-1.771,2.8,2.8,0,0,0-.5-1.784A1.734,1.734,0,0,0,43.306,16.5Zm15.647,5.9H57.367V18.586a3.091,3.091,0,0,0-.311-1.593,1.144,1.144,0,0,0-1.049-.492,1.265,1.265,0,0,0-1.056.622,2.538,2.538,0,0,0-.434,1.49V22.4H52.924V18.456q0-1.955-1.381-1.955a1.246,1.246,0,0,0-1.056.588,2.592,2.592,0,0,0-.414,1.524V22.4H48.487v-7h1.586v1.107H50.1a2.425,2.425,0,0,1,2.208-1.271,2.082,2.082,0,0,1,1.268.4,1.992,1.992,0,0,1,.742,1.049,2.5,2.5,0,0,1,2.324-1.449q2.311,0,2.311,2.851ZM62.5,21.368h-.027V25.62H60.888V15.4h1.586v1.23H62.5a2.6,2.6,0,0,1,2.379-1.395,2.506,2.506,0,0,1,2.078.937,3.928,3.928,0,0,1,.745,2.516,4.361,4.361,0,0,1-.841,2.8,2.781,2.781,0,0,1-2.3,1.053A2.294,2.294,0,0,1,62.5,21.368Zm-.041-2.762v.868a1.852,1.852,0,0,0,.489,1.3,1.725,1.725,0,0,0,2.625-.154,3.2,3.2,0,0,0,.5-1.917,2.52,2.52,0,0,0-.468-1.617A1.539,1.539,0,0,0,64.34,16.5a1.709,1.709,0,0,0-1.364.6A2.228,2.228,0,0,0,62.46,18.606ZM74.532,22.4H72.994V21.306h-.027a2.316,2.316,0,0,1-2.126,1.258A2.239,2.239,0,0,1,69.224,22a1.961,1.961,0,0,1-.584-1.483q0-1.982,2.283-2.311L73,17.916q0-1.5-1.422-1.5a3.378,3.378,0,0,0-2.256.861V15.892a4.919,4.919,0,0,1,2.557-.656,2.326,2.326,0,0,1,2.652,2.611ZM73,18.962l-1.47.205A2.33,2.33,0,0,0,70.5,19.5a.969.969,0,0,0-.345.851.932.932,0,0,0,.318.728,1.231,1.231,0,0,0,.851.284,1.57,1.57,0,0,0,1.2-.509A1.806,1.806,0,0,0,73,19.57ZM82.7,22.4H81.115V18.456q0-1.962-1.388-1.962a1.515,1.515,0,0,0-1.2.543,2.016,2.016,0,0,0-.472,1.371V22.4H76.467v-7H78.06v1.162h.027a2.5,2.5,0,0,1,2.27-1.326,2.114,2.114,0,0,1,1.743.742,3.331,3.331,0,0,1,.6,2.143Zm8-7-3.158,8.121q-.984,2.174-2.762,2.174a3.311,3.311,0,0,1-.834-.089V24.287a2.218,2.218,0,0,0,.684.123,1.411,1.411,0,0,0,1.326-.875l.472-1.148L83.645,15.4H85.4l1.668,5.086q.027.1.123.506h.034q.034-.157.123-.492l1.75-5.1Z" transform="translate(20 98)" fill="#31313a"/>
    <path id="Path_9413" data-name="Path 9413" d="M.709-.34V-1.5a2.253,2.253,0,0,0,.478.316,3.869,3.869,0,0,0,.586.237A4.664,4.664,0,0,0,2.391-.8a3.447,3.447,0,0,0,.574.053,2.249,2.249,0,0,0,1.356-.337,1.14,1.14,0,0,0,.448-.97,1.139,1.139,0,0,0-.149-.592,1.683,1.683,0,0,0-.413-.46,4.1,4.1,0,0,0-.624-.4q-.36-.19-.776-.4-.439-.223-.82-.451a3.555,3.555,0,0,1-.662-.5,2.1,2.1,0,0,1-.442-.624A1.932,1.932,0,0,1,.721-6.3a1.922,1.922,0,0,1,.252-1A2.161,2.161,0,0,1,1.635-8a3,3,0,0,1,.935-.41,4.279,4.279,0,0,1,1.069-.135,4.1,4.1,0,0,1,1.811.3v1.107a3.282,3.282,0,0,0-1.91-.516,3.142,3.142,0,0,0-.645.067,1.821,1.821,0,0,0-.574.22,1.272,1.272,0,0,0-.41.393,1.042,1.042,0,0,0-.158.586,1.206,1.206,0,0,0,.12.557,1.364,1.364,0,0,0,.354.428,3.531,3.531,0,0,0,.571.375q.337.182.776.4t.855.469a3.91,3.91,0,0,1,.709.545,2.422,2.422,0,0,1,.483.662,1.861,1.861,0,0,1,.179.832,2.11,2.11,0,0,1-.243,1.052,2,2,0,0,1-.656.7,2.866,2.866,0,0,1-.952.39,5.215,5.215,0,0,1-1.137.12A4.632,4.632,0,0,1,2.32.108q-.293-.032-.6-.094a4.877,4.877,0,0,1-.577-.152A1.8,1.8,0,0,1,.709-.34ZM14.73-6l-1.8,6h-1L10.7-4.295a2.8,2.8,0,0,1-.094-.557h-.023a2.628,2.628,0,0,1-.123.545L9.117,0H8.156L6.34-6H7.348L8.59-1.488a2.718,2.718,0,0,1,.082.539h.047A2.521,2.521,0,0,1,8.824-1.5L10.207-6h.879l1.242,4.523a3.229,3.229,0,0,1,.088.539h.047a2.493,2.493,0,0,1,.1-.539L13.781-6Zm1.605-1.523A.609.609,0,0,1,15.9-7.7a.593.593,0,0,1-.182-.445.6.6,0,0,1,.182-.448.6.6,0,0,1,.439-.179.621.621,0,0,1,.448.179.6.6,0,0,1,.185.448.594.594,0,0,1-.185.439A.615.615,0,0,1,16.336-7.523ZM16.8,0h-.961V-6H16.8Zm4.729-.059a1.853,1.853,0,0,1-.9.188q-1.576,0-1.576-1.758V-5.18H18.029V-6h1.031V-7.465l.961-.311V-6h1.512v.82H20.021V-1.8a1.4,1.4,0,0,0,.205.861.818.818,0,0,0,.68.258,1.01,1.01,0,0,0,.627-.2Zm5.373-.217a3.122,3.122,0,0,1-1.641.416,2.716,2.716,0,0,1-2.071-.835,3.026,3.026,0,0,1-.788-2.165,3.326,3.326,0,0,1,.85-2.382,2.972,2.972,0,0,1,2.268-.9,3.156,3.156,0,0,1,1.395.293v.984a2.443,2.443,0,0,0-1.43-.469,1.932,1.932,0,0,0-1.509.659,2.5,2.5,0,0,0-.589,1.731,2.382,2.382,0,0,0,.554,1.664,1.909,1.909,0,0,0,1.485.609,2.408,2.408,0,0,0,1.477-.521ZM33.34,0h-.961V-3.457q0-1.875-1.395-1.875A1.52,1.52,0,0,0,29.8-4.79,2.02,2.02,0,0,0,29.32-3.4V0h-.961V-8.883h.961V-5h.023a2.182,2.182,0,0,1,1.969-1.137q2.027,0,2.027,2.443Z" transform="translate(196 121)" fill="#2777d3"/>
    <line id="Line_4" data-name="Line 4" x1="250" transform="translate(0.5 140)" fill="none" stroke="#e6e6ea" stroke-width="1"/>
    <rect id="Rectangle_5295" data-name="Rectangle 5295" width="1" height="134" transform="translate(250 61)" fill="#e6e6ea"/>
    <path id="Path_6682" data-name="Path 6682" d="M0,0H800V10H0Z" transform="translate(0 60)" fill="#2777d3"/>
    <g id="Switch" transform="translate(213 93)">
      <g id="Group_13544" data-name="Group 13544" transform="translate(-7.5 -8)">
        <rect id="Rectangle_7451" data-name="Rectangle 7451" width="2.1" height="1.75" transform="translate(0 2.7)" fill="#2777d3"/>
        <path id="Path_9387" data-name="Path 9387" d="M11.9,0,10.5,1.4l1.3,1.3H4.1V4.4h7.7L10.5,5.7l1.4,1.5,3.6-3.6Z" transform="translate(-0.5)" fill="#2777d3"/>
        <rect id="Rectangle_7452" data-name="Rectangle 7452" width="2.1" height="1.75" transform="translate(12.9 11.6)" fill="#2777d3"/>
        <path id="Path_9388" data-name="Path 9388" d="M.5,12.4,4.1,16l1.4-1.4L4.2,13.3h7.7V11.6H4.2l1.3-1.3L4.1,8.8Z" transform="translate(-0.5)" fill="#2777d3"/>
      </g>
    </g>
    <path id="Path_9415" data-name="Path 9415" d="M12.467,0H2.247V-18.205h9.813v2.564H5.269v5.154h6.259v2.552H5.269v5.383h7.2ZM34.811,0H31.865V-7.084a5.741,5.741,0,0,0-.578-2.958,2.125,2.125,0,0,0-1.949-.914A2.348,2.348,0,0,0,27.377-9.8a4.714,4.714,0,0,0-.806,2.768V0H23.613V-7.325q0-3.631-2.564-3.631a2.313,2.313,0,0,0-1.961,1.092,4.814,4.814,0,0,0-.768,2.831V0H15.374V-13h2.945v2.057h.051a4.5,4.5,0,0,1,4.1-2.361,3.866,3.866,0,0,1,2.355.743A3.7,3.7,0,0,1,26.2-10.613,4.639,4.639,0,0,1,30.52-13.3q4.291,0,4.291,5.294ZM41.4-1.917h-.051v7.9H38.4V-13h2.945v2.285H41.4a4.827,4.827,0,0,1,4.418-2.59,4.654,4.654,0,0,1,3.859,1.739,7.3,7.3,0,0,1,1.384,4.672A8.1,8.1,0,0,1,49.5-1.688,5.165,5.165,0,0,1,45.233.267,4.26,4.26,0,0,1,41.4-1.917Zm-.076-5.129v1.612a3.44,3.44,0,0,0,.908,2.412,2.989,2.989,0,0,0,2.3.99,3.01,3.01,0,0,0,2.571-1.276,5.938,5.938,0,0,0,.933-3.561,4.679,4.679,0,0,0-.87-3,2.858,2.858,0,0,0-2.355-1.085,3.173,3.173,0,0,0-2.533,1.117A4.138,4.138,0,0,0,41.323-7.046ZM57.027,0H54.069V-19.246h2.958Zm9.6.3A6.444,6.444,0,0,1,61.82-1.517a6.581,6.581,0,0,1-1.8-4.831A6.848,6.848,0,0,1,61.9-11.464,6.886,6.886,0,0,1,66.942-13.3a6.237,6.237,0,0,1,4.748,1.79,6.915,6.915,0,0,1,1.7,4.964,6.813,6.813,0,0,1-1.834,4.983A6.589,6.589,0,0,1,66.625.3Zm.14-11.261A3.362,3.362,0,0,0,64.035-9.75a5.05,5.05,0,0,0-1,3.326,4.756,4.756,0,0,0,1.016,3.218,3.411,3.411,0,0,0,2.717,1.174,3.237,3.237,0,0,0,2.672-1.155,5.114,5.114,0,0,0,.933-3.288,5.191,5.191,0,0,0-.933-3.313A3.221,3.221,0,0,0,66.765-10.956ZM87.648-13,81.783,2.082q-1.828,4.037-5.129,4.037a6.15,6.15,0,0,1-1.549-.165V3.5a4.119,4.119,0,0,0,1.27.229,2.62,2.62,0,0,0,2.463-1.625l.876-2.133L74.547-13H77.81l3.1,9.445q.051.178.229.939H81.2q.063-.292.229-.914L84.678-13ZM100.42-5.7H91.559a3.746,3.746,0,0,0,1.111,2.78,4.133,4.133,0,0,0,2.914.978A6.425,6.425,0,0,0,99.4-3.187V-.812A8.73,8.73,0,0,1,94.707.3a5.815,5.815,0,0,1-4.5-1.771,7.084,7.084,0,0,1-1.631-4.983,6.927,6.927,0,0,1,1.8-4.945A5.876,5.876,0,0,1,94.834-13.3a5.124,5.124,0,0,1,4.126,1.714,7.116,7.116,0,0,1,1.46,4.761ZM97.576-7.782a3.8,3.8,0,0,0-.749-2.469,2.5,2.5,0,0,0-2.031-.882,2.858,2.858,0,0,0-2.152.927,4.234,4.234,0,0,0-1.085,2.425ZM114.232-5.7h-8.861a3.746,3.746,0,0,0,1.111,2.78,4.133,4.133,0,0,0,2.914.978,6.425,6.425,0,0,0,3.821-1.244V-.812A8.73,8.73,0,0,1,108.52.3a5.815,5.815,0,0,1-4.5-1.771,7.084,7.084,0,0,1-1.631-4.983,6.927,6.927,0,0,1,1.8-4.945,5.876,5.876,0,0,1,4.462-1.911,5.124,5.124,0,0,1,4.126,1.714,7.116,7.116,0,0,1,1.46,4.761Zm-2.844-2.082a3.8,3.8,0,0,0-.749-2.469,2.5,2.5,0,0,0-2.031-.882,2.858,2.858,0,0,0-2.152.927,4.234,4.234,0,0,0-1.085,2.425ZM143.622,0h-2.945V-7.084a5.741,5.741,0,0,0-.578-2.958,2.125,2.125,0,0,0-1.949-.914A2.348,2.348,0,0,0,136.189-9.8a4.714,4.714,0,0,0-.806,2.768V0h-2.958V-7.325q0-3.631-2.564-3.631A2.313,2.313,0,0,0,127.9-9.864a4.814,4.814,0,0,0-.768,2.831V0h-2.945V-13h2.945v2.057h.051a4.5,4.5,0,0,1,4.1-2.361,3.866,3.866,0,0,1,2.355.743,3.7,3.7,0,0,1,1.377,1.949,4.639,4.639,0,0,1,4.316-2.691q4.291,0,4.291,5.294Zm13.571,0h-2.856V-2.031h-.051A4.3,4.3,0,0,1,150.338.3a4.159,4.159,0,0,1-3-1.041,3.641,3.641,0,0,1-1.085-2.755q0-3.682,4.24-4.291l3.859-.546q0-2.78-2.641-2.78a6.273,6.273,0,0,0-4.189,1.6v-2.577a9.136,9.136,0,0,1,4.748-1.219q4.926,0,4.926,4.85ZM154.35-6.386,151.62-6a4.326,4.326,0,0,0-1.911.616,1.8,1.8,0,0,0-.641,1.581,1.73,1.73,0,0,0,.59,1.352,2.286,2.286,0,0,0,1.581.527,2.916,2.916,0,0,0,2.228-.946,3.353,3.353,0,0,0,.882-2.38ZM172.364,0h-2.945V-7.325q0-3.644-2.577-3.644a2.814,2.814,0,0,0-2.222,1.009,3.744,3.744,0,0,0-.876,2.545V0h-2.958V-13h2.958v2.158h.051A4.633,4.633,0,0,1,168.01-13.3a3.925,3.925,0,0,1,3.237,1.377,6.185,6.185,0,0,1,1.117,3.98Zm13.571,0h-2.856V-2.031h-.051A4.3,4.3,0,0,1,179.08.3a4.159,4.159,0,0,1-3-1.041,3.641,3.641,0,0,1-1.085-2.755q0-3.682,4.24-4.291l3.859-.546q0-2.78-2.641-2.78a6.273,6.273,0,0,0-4.189,1.6v-2.577A9.136,9.136,0,0,1,181.01-13.3q4.926,0,4.926,4.85Zm-2.844-6.386L180.362-6a4.326,4.326,0,0,0-1.911.616,1.8,1.8,0,0,0-.641,1.581,1.73,1.73,0,0,0,.59,1.352,2.286,2.286,0,0,0,1.581.527,2.916,2.916,0,0,0,2.228-.946,3.353,3.353,0,0,0,.882-2.38ZM201.36-1.041q0,7.16-7.2,7.16a10.721,10.721,0,0,1-4.431-.851V2.577a8.2,8.2,0,0,0,4.05,1.219q4.634,0,4.634-4.558V-2.184h-.051A4.769,4.769,0,0,1,193.972.3a4.751,4.751,0,0,1-3.828-1.733,7.007,7.007,0,0,1-1.454-4.653,8.207,8.207,0,0,1,1.562-5.269,5.192,5.192,0,0,1,4.291-1.955,4.136,4.136,0,0,1,3.821,2.107h.051V-13h2.945Zm-2.92-4.913V-7.643a3.308,3.308,0,0,0-.908-2.342,2.974,2.974,0,0,0-2.266-.971,3.114,3.114,0,0,0-2.622,1.238,5.585,5.585,0,0,0-.946,3.459,4.808,4.808,0,0,0,.908,3.066,2.914,2.914,0,0,0,2.406,1.149,3.122,3.122,0,0,0,2.476-1.1A4.138,4.138,0,0,0,198.44-5.954ZM216.2-5.7H207.34a3.746,3.746,0,0,0,1.111,2.78,4.133,4.133,0,0,0,2.914.978,6.425,6.425,0,0,0,3.821-1.244V-.812A8.73,8.73,0,0,1,210.488.3a5.815,5.815,0,0,1-4.5-1.771,7.084,7.084,0,0,1-1.631-4.983,6.927,6.927,0,0,1,1.8-4.945,5.876,5.876,0,0,1,4.462-1.911,5.124,5.124,0,0,1,4.126,1.714A7.116,7.116,0,0,1,216.2-6.83Zm-2.844-2.082a3.8,3.8,0,0,0-.749-2.469,2.5,2.5,0,0,0-2.031-.882,2.858,2.858,0,0,0-2.152.927,4.234,4.234,0,0,0-1.085,2.425ZM238.443,0H235.5V-7.084a5.741,5.741,0,0,0-.578-2.958,2.125,2.125,0,0,0-1.949-.914A2.348,2.348,0,0,0,231.01-9.8a4.714,4.714,0,0,0-.806,2.768V0h-2.958V-7.325q0-3.631-2.564-3.631a2.313,2.313,0,0,0-1.961,1.092,4.814,4.814,0,0,0-.768,2.831V0h-2.945V-13h2.945v2.057H222a4.5,4.5,0,0,1,4.1-2.361,3.866,3.866,0,0,1,2.355.743,3.7,3.7,0,0,1,1.377,1.949,4.639,4.639,0,0,1,4.316-2.691q4.291,0,4.291,5.294Zm14.6-5.7h-8.861a3.746,3.746,0,0,0,1.111,2.78,4.133,4.133,0,0,0,2.914.978,6.425,6.425,0,0,0,3.821-1.244V-.812A8.73,8.73,0,0,1,247.33.3a5.815,5.815,0,0,1-4.5-1.771A7.084,7.084,0,0,1,241.2-6.449a6.927,6.927,0,0,1,1.8-4.945,5.876,5.876,0,0,1,4.462-1.911,5.124,5.124,0,0,1,4.126,1.714,7.116,7.116,0,0,1,1.46,4.761ZM250.2-7.782a3.8,3.8,0,0,0-.749-2.469,2.5,2.5,0,0,0-2.031-.882,2.858,2.858,0,0,0-2.152.927,4.234,4.234,0,0,0-1.085,2.425ZM267.427,0h-2.945V-7.325q0-3.644-2.577-3.644a2.814,2.814,0,0,0-2.222,1.009,3.744,3.744,0,0,0-.876,2.545V0h-2.958V-13h2.958v2.158h.051a4.633,4.633,0,0,1,4.215-2.463,3.925,3.925,0,0,1,3.237,1.377,6.185,6.185,0,0,1,1.117,3.98Zm10.448-.14A5.1,5.1,0,0,1,275.6.292q-3.783,0-3.783-3.631v-7.351h-2.171V-13h2.171v-3.009l2.945-.838V-13h3.11v2.311h-3.11v6.5a2.561,2.561,0,0,0,.419,1.65,1.739,1.739,0,0,0,1.4.5,2.025,2.025,0,0,0,1.295-.432ZM294.4-6.018h-6.932V-8.188H294.4ZM320.442,0h-3.313l-1.638-4.634h-7.16L306.757,0h-3.3l6.817-18.205h3.4Zm-5.751-7.1-2.526-7.262a8.6,8.6,0,0,1-.241-1.143h-.051a7.43,7.43,0,0,1-.254,1.143l-2.5,7.262ZM322.943,0V-18.205h5.776A6.826,6.826,0,0,1,332.9-17.05a3.591,3.591,0,0,1,1.542,3.009,4.3,4.3,0,0,1-.876,2.691,4.726,4.726,0,0,1-2.425,1.625v.051a4.751,4.751,0,0,1,3,1.39,4.234,4.234,0,0,1,1.124,3.053,4.585,4.585,0,0,1-1.841,3.783A7.288,7.288,0,0,1,328.783,0Zm3.009-15.78v5.18h1.955a3.755,3.755,0,0,0,2.469-.743,2.577,2.577,0,0,0,.9-2.1q0-2.336-3.123-2.336Zm0,7.6v5.764h2.577a3.919,3.919,0,0,0,2.609-.781,2.671,2.671,0,0,0,.92-2.152q0-2.831-3.923-2.831ZM351.343-.762A11.037,11.037,0,0,1,346.227.3a8.366,8.366,0,0,1-6.348-2.5,9.113,9.113,0,0,1-2.387-6.563,9.557,9.557,0,0,1,2.685-7.059,9.186,9.186,0,0,1,6.786-2.691,11.121,11.121,0,0,1,4.38.749v3a7.816,7.816,0,0,0-4.062-1.092,6.376,6.376,0,0,0-4.792,1.892,6.949,6.949,0,0,0-1.834,5.053,6.627,6.627,0,0,0,1.714,4.792,5.965,5.965,0,0,0,4.507,1.784,8.069,8.069,0,0,0,4.469-1.219Zm23.3,0A11.037,11.037,0,0,1,369.522.3a8.366,8.366,0,0,1-6.348-2.5,9.113,9.113,0,0,1-2.387-6.563,9.557,9.557,0,0,1,2.685-7.059,9.186,9.186,0,0,1,6.786-2.691,11.121,11.121,0,0,1,4.38.749v3a7.816,7.816,0,0,0-4.062-1.092,6.376,6.376,0,0,0-4.792,1.892,6.949,6.949,0,0,0-1.834,5.053,6.627,6.627,0,0,0,1.714,4.792,5.965,5.965,0,0,0,4.507,1.784,8.069,8.069,0,0,0,4.469-1.219ZM383.525.3a6.444,6.444,0,0,1-4.805-1.822,6.581,6.581,0,0,1-1.8-4.831,6.848,6.848,0,0,1,1.873-5.116,6.886,6.886,0,0,1,5.046-1.841,6.237,6.237,0,0,1,4.748,1.79,6.915,6.915,0,0,1,1.7,4.964,6.813,6.813,0,0,1-1.834,4.983A6.589,6.589,0,0,1,383.525.3Zm.14-11.261a3.362,3.362,0,0,0-2.729,1.206,5.05,5.05,0,0,0-1,3.326,4.756,4.756,0,0,0,1.016,3.218,3.411,3.411,0,0,0,2.717,1.174,3.236,3.236,0,0,0,2.672-1.155,5.114,5.114,0,0,0,.933-3.288,5.191,5.191,0,0,0-.933-3.313A3.221,3.221,0,0,0,383.665-10.956ZM412.725,0h-2.945V-7.084a5.741,5.741,0,0,0-.578-2.958,2.125,2.125,0,0,0-1.949-.914A2.349,2.349,0,0,0,405.292-9.8a4.714,4.714,0,0,0-.806,2.768V0h-2.958V-7.325q0-3.631-2.564-3.631A2.313,2.313,0,0,0,397-9.864a4.814,4.814,0,0,0-.768,2.831V0h-2.945V-13h2.945v2.057h.051a4.5,4.5,0,0,1,4.1-2.361,3.866,3.866,0,0,1,2.355.743,3.7,3.7,0,0,1,1.377,1.949,4.639,4.639,0,0,1,4.316-2.691q4.291,0,4.291,5.294Zm6.589-1.917h-.051v7.9h-2.945V-13h2.945v2.285h.051a4.827,4.827,0,0,1,4.418-2.59,4.654,4.654,0,0,1,3.859,1.739,7.3,7.3,0,0,1,1.384,4.672,8.1,8.1,0,0,1-1.562,5.205A5.165,5.165,0,0,1,423.147.267,4.26,4.26,0,0,1,419.313-1.917Zm-.076-5.129v1.612a3.44,3.44,0,0,0,.908,2.412,2.989,2.989,0,0,0,2.3.99,3.01,3.01,0,0,0,2.571-1.276,5.938,5.938,0,0,0,.933-3.561,4.679,4.679,0,0,0-.87-3,2.858,2.858,0,0,0-2.355-1.085A3.173,3.173,0,0,0,420.2-9.839,4.138,4.138,0,0,0,419.237-7.046ZM441.657,0H438.8V-2.031h-.051A4.3,4.3,0,0,1,434.8.3a4.159,4.159,0,0,1-3-1.041,3.641,3.641,0,0,1-1.085-2.755q0-3.682,4.24-4.291l3.859-.546q0-2.78-2.641-2.78a6.273,6.273,0,0,0-4.189,1.6v-2.577a9.136,9.136,0,0,1,4.748-1.219q4.926,0,4.926,4.85Zm-2.844-6.386L436.084-6a4.326,4.326,0,0,0-1.911.616,1.8,1.8,0,0,0-.641,1.581,1.73,1.73,0,0,0,.59,1.352,2.286,2.286,0,0,0,1.581.527,2.917,2.917,0,0,0,2.228-.946,3.353,3.353,0,0,0,.882-2.38ZM456.828,0h-2.945V-7.325q0-3.644-2.577-3.644a2.814,2.814,0,0,0-2.222,1.009,3.744,3.744,0,0,0-.876,2.545V0H445.25V-13h2.958v2.158h.051a4.633,4.633,0,0,1,4.215-2.463,3.925,3.925,0,0,1,3.237,1.377,6.185,6.185,0,0,1,1.117,3.98Zm14.854-13L465.816,2.082q-1.828,4.037-5.129,4.037a6.15,6.15,0,0,1-1.549-.165V3.5a4.119,4.119,0,0,0,1.27.229,2.62,2.62,0,0,0,2.463-1.625l.876-2.133L458.58-13h3.263l3.1,9.445q.051.178.229.939h.063q.063-.292.229-.914L468.711-13Z" transform="translate(281 128)" fill="#31313a"/>
    <path id="Path_9416" data-name="Path 9416" d="M7.082-8.764H4.252V0H3.1V-8.764H.28V-9.8h6.8ZM10.028.164A3.247,3.247,0,0,1,7.55-.817a3.633,3.633,0,0,1-.926-2.6,3.785,3.785,0,0,1,.964-2.755,3.465,3.465,0,0,1,2.6-.991,3.14,3.14,0,0,1,2.444.964,3.822,3.822,0,0,1,.878,2.673,3.761,3.761,0,0,1-.947,2.683A3.317,3.317,0,0,1,10.028.164Zm.082-6.385A2.132,2.132,0,0,0,8.4-5.486a3.018,3.018,0,0,0-.629,2.027A2.854,2.854,0,0,0,8.408-1.5a2.161,2.161,0,0,0,1.7.718,2.049,2.049,0,0,0,1.671-.7,3.055,3.055,0,0,0,.584-2,3.108,3.108,0,0,0-.584-2.023A2.04,2.04,0,0,0,10.11-6.221ZM24.644-7,21.854,0h-1.1L18.1-7h1.23l1.777,5.086a4.565,4.565,0,0,1,.246.978h.027a4.622,4.622,0,0,1,.219-.95L23.461-7Zm1.777-1.777a.71.71,0,0,1-.513-.205A.692.692,0,0,1,25.7-9.5a.7.7,0,0,1,.212-.523.7.7,0,0,1,.513-.208.724.724,0,0,1,.523.208.7.7,0,0,1,.215.523.693.693,0,0,1-.215.513A.718.718,0,0,1,26.421-8.777ZM26.968,0H25.847V-7h1.121Zm7.9-3.22H29.921a2.618,2.618,0,0,0,.629,1.8A2.168,2.168,0,0,0,32.2-.779a3.439,3.439,0,0,0,2.174-.779V-.506a4.063,4.063,0,0,1-2.44.67A2.959,2.959,0,0,1,29.606-.79a3.9,3.9,0,0,1-.848-2.683,3.828,3.828,0,0,1,.926-2.663,2.97,2.97,0,0,1,2.3-1.029,2.632,2.632,0,0,1,2.126.889,3.705,3.705,0,0,1,.752,2.468Zm-1.148-.95a2.281,2.281,0,0,0-.468-1.511,1.6,1.6,0,0,0-1.282-.54,1.811,1.811,0,0,0-1.347.567,2.575,2.575,0,0,0-.684,1.483ZM45.377-7l-2.1,7H42.116L40.674-5.011a3.265,3.265,0,0,1-.109-.649h-.027a3.066,3.066,0,0,1-.144.636L38.828,0H37.707L35.588-7h1.176l1.449,5.264a3.171,3.171,0,0,1,.1.629h.055a2.942,2.942,0,0,1,.123-.643L40.1-7h1.025l1.449,5.277a3.767,3.767,0,0,1,.1.629h.055a2.909,2.909,0,0,1,.116-.629L44.27-7ZM53.437.164a3.247,3.247,0,0,1-2.478-.981,3.634,3.634,0,0,1-.926-2.6A3.785,3.785,0,0,1,51-6.173a3.465,3.465,0,0,1,2.6-.991,3.14,3.14,0,0,1,2.444.964,3.822,3.822,0,0,1,.878,2.673,3.761,3.761,0,0,1-.947,2.683A3.317,3.317,0,0,1,53.437.164Zm.082-6.385a2.132,2.132,0,0,0-1.709.735,3.018,3.018,0,0,0-.629,2.027A2.854,2.854,0,0,0,51.816-1.5a2.161,2.161,0,0,0,1.7.718,2.049,2.049,0,0,0,1.671-.7,3.055,3.055,0,0,0,.584-2A3.108,3.108,0,0,0,55.19-5.51,2.04,2.04,0,0,0,53.519-6.221Zm8.846.355a1.371,1.371,0,0,0-.848-.226,1.431,1.431,0,0,0-1.2.677,3.129,3.129,0,0,0-.482,1.846V0H58.714V-7h1.121v1.442h.027a2.444,2.444,0,0,1,.731-1.152,1.668,1.668,0,0,1,1.1-.414,1.83,1.83,0,0,1,.67.1ZM73.042-3.22H68.1a2.618,2.618,0,0,0,.629,1.8,2.168,2.168,0,0,0,1.654.636,3.439,3.439,0,0,0,2.174-.779V-.506a4.063,4.063,0,0,1-2.44.67A2.959,2.959,0,0,1,67.785-.79a3.9,3.9,0,0,1-.848-2.683,3.828,3.828,0,0,1,.926-2.663,2.97,2.97,0,0,1,2.3-1.029,2.632,2.632,0,0,1,2.126.889,3.705,3.705,0,0,1,.752,2.468Zm-1.148-.95a2.281,2.281,0,0,0-.468-1.511,1.6,1.6,0,0,0-1.282-.54,1.811,1.811,0,0,0-1.347.567,2.575,2.575,0,0,0-.684,1.483ZM80.712,0H79.591V-1.189h-.027A2.588,2.588,0,0,1,77.157.164a2.615,2.615,0,0,1-2.109-.94,3.856,3.856,0,0,1-.79-2.56,4.2,4.2,0,0,1,.875-2.782,2.886,2.886,0,0,1,2.331-1.046,2.244,2.244,0,0,1,2.1,1.135h.027v-4.334h1.121ZM79.591-3.165V-4.2a2,2,0,0,0-.561-1.436,1.88,1.88,0,0,0-1.422-.588A1.936,1.936,0,0,0,76-5.469a3.3,3.3,0,0,0-.588,2.078,2.964,2.964,0,0,0,.564,1.911,1.843,1.843,0,0,0,1.514.7,1.915,1.915,0,0,0,1.521-.677A2.521,2.521,0,0,0,79.591-3.165Zm3.965-5.612a.71.71,0,0,1-.513-.205.692.692,0,0,1-.212-.52.7.7,0,0,1,.212-.523.7.7,0,0,1,.513-.208.724.724,0,0,1,.523.208.7.7,0,0,1,.215.523.693.693,0,0,1-.215.513A.718.718,0,0,1,83.556-8.777ZM84.1,0H82.981V-7H84.1Zm5.517-.068A2.161,2.161,0,0,1,88.573.15Q86.734.15,86.734-1.9V-6.043h-1.2V-7h1.2V-8.709l1.121-.362V-7h1.764v.957H87.855V-2.1a1.635,1.635,0,0,0,.239,1,.955.955,0,0,0,.793.3,1.179,1.179,0,0,0,.731-.232ZM99.962,0H98.841V-1.094h-.027A2.347,2.347,0,0,1,96.66.164,2.3,2.3,0,0,1,95.023-.39a1.918,1.918,0,0,1-.591-1.47q0-1.962,2.311-2.283l2.1-.294q0-1.784-1.442-1.784a3.446,3.446,0,0,0-2.283.861V-6.508a4.338,4.338,0,0,1,2.379-.656q2.468,0,2.468,2.611ZM98.841-3.541l-1.688.232a2.741,2.741,0,0,0-1.176.386,1.114,1.114,0,0,0-.4.981,1.068,1.068,0,0,0,.366.837,1.413,1.413,0,0,0,.974.325A1.8,1.8,0,0,0,98.3-1.364a2.088,2.088,0,0,0,.543-1.48ZM107.885,0h-1.121V-3.992q0-2.229-1.627-2.229a1.765,1.765,0,0,0-1.391.632,2.344,2.344,0,0,0-.55,1.6V0h-1.121V-7H103.2v1.162h.027a2.526,2.526,0,0,1,2.3-1.326,2.142,2.142,0,0,1,1.757.742,3.3,3.3,0,0,1,.608,2.143Zm11.573-3.22h-4.942a2.618,2.618,0,0,0,.629,1.8,2.168,2.168,0,0,0,1.654.636,3.439,3.439,0,0,0,2.174-.779V-.506a4.063,4.063,0,0,1-2.44.67A2.959,2.959,0,0,1,114.2-.79a3.9,3.9,0,0,1-.848-2.683,3.828,3.828,0,0,1,.926-2.663,2.97,2.97,0,0,1,2.3-1.029,2.632,2.632,0,0,1,2.126.889,3.705,3.705,0,0,1,.752,2.468Zm-1.148-.95a2.281,2.281,0,0,0-.468-1.511,1.6,1.6,0,0,0-1.282-.54,1.811,1.811,0,0,0-1.347.567,2.575,2.575,0,0,0-.684,1.483ZM131.093,0h-1.121V-4.02a3.032,3.032,0,0,0-.359-1.682,1.361,1.361,0,0,0-1.207-.52,1.494,1.494,0,0,0-1.22.656,2.511,2.511,0,0,0-.5,1.572V0h-1.121V-4.156q0-2.064-1.593-2.064a1.475,1.475,0,0,0-1.217.619,2.557,2.557,0,0,0-.479,1.61V0h-1.121V-7h1.121v1.107h.027a2.378,2.378,0,0,1,2.174-1.271,2.027,2.027,0,0,1,1.251.4,2.012,2.012,0,0,1,.731,1.049,2.5,2.5,0,0,1,2.324-1.449q2.311,0,2.311,2.851Zm3.268-1.012h-.027V3.22h-1.121V-7h1.121v1.23h.027a2.651,2.651,0,0,1,2.42-1.395,2.563,2.563,0,0,1,2.112.94,3.893,3.893,0,0,1,.759,2.519A4.339,4.339,0,0,1,138.8-.892,2.845,2.845,0,0,1,136.459.164,2.342,2.342,0,0,1,134.36-1.012Zm-.027-2.823v.978a2.081,2.081,0,0,0,.564,1.473,1.873,1.873,0,0,0,1.432.6,1.876,1.876,0,0,0,1.6-.779,3.575,3.575,0,0,0,.578-2.167,2.822,2.822,0,0,0-.54-1.832,1.787,1.787,0,0,0-1.463-.663,1.986,1.986,0,0,0-1.572.68A2.5,2.5,0,0,0,134.333-3.835ZM142.563,0h-1.121V-10.363h1.121Zm5.2.164a3.247,3.247,0,0,1-2.478-.981,3.634,3.634,0,0,1-.926-2.6,3.785,3.785,0,0,1,.964-2.755,3.465,3.465,0,0,1,2.6-.991,3.14,3.14,0,0,1,2.444.964,3.822,3.822,0,0,1,.878,2.673A3.761,3.761,0,0,1,150.3-.844,3.317,3.317,0,0,1,147.759.164Zm.082-6.385a2.132,2.132,0,0,0-1.709.735,3.018,3.018,0,0,0-.629,2.027,2.854,2.854,0,0,0,.636,1.962,2.161,2.161,0,0,0,1.7.718,2.049,2.049,0,0,0,1.671-.7,3.055,3.055,0,0,0,.584-2,3.108,3.108,0,0,0-.584-2.023A2.04,2.04,0,0,0,147.841-6.221ZM158.607-7l-3.22,8.121q-.861,2.174-2.42,2.174a2.565,2.565,0,0,1-.731-.089v-1a2.078,2.078,0,0,0,.663.123,1.374,1.374,0,0,0,1.271-1.012l.561-1.326L152-7h1.244l1.894,5.387q.034.1.144.533h.041q.034-.164.137-.52L157.445-7Zm6.829,3.78h-4.942a2.618,2.618,0,0,0,.629,1.8,2.168,2.168,0,0,0,1.654.636,3.439,3.439,0,0,0,2.174-.779V-.506a4.063,4.063,0,0,1-2.44.67A2.959,2.959,0,0,1,160.18-.79a3.9,3.9,0,0,1-.848-2.683,3.828,3.828,0,0,1,.926-2.663,2.97,2.97,0,0,1,2.3-1.029,2.632,2.632,0,0,1,2.126.889,3.705,3.705,0,0,1,.752,2.468Zm-1.148-.95a2.281,2.281,0,0,0-.468-1.511,1.6,1.6,0,0,0-1.282-.54,1.811,1.811,0,0,0-1.347.567,2.575,2.575,0,0,0-.684,1.483Zm8.47.95h-4.942a2.618,2.618,0,0,0,.629,1.8,2.168,2.168,0,0,0,1.654.636,3.439,3.439,0,0,0,2.174-.779V-.506a4.063,4.063,0,0,1-2.44.67A2.959,2.959,0,0,1,167.5-.79a3.9,3.9,0,0,1-.848-2.683,3.828,3.828,0,0,1,.926-2.663,2.97,2.97,0,0,1,2.3-1.029,2.632,2.632,0,0,1,2.126.889,3.705,3.705,0,0,1,.752,2.468Zm-1.148-.95a2.281,2.281,0,0,0-.468-1.511,1.6,1.6,0,0,0-1.282-.54,1.811,1.811,0,0,0-1.347.567,2.575,2.575,0,0,0-.684,1.483Zm3.869,2.611L174.385,1.8h-.8l.8-3.363ZM180.9-.253v-1.2a3.318,3.318,0,0,0,2.017.677q1.477,0,1.477-.984a.854.854,0,0,0-.126-.475,1.26,1.26,0,0,0-.342-.345,2.631,2.631,0,0,0-.506-.27q-.291-.12-.625-.25a8.056,8.056,0,0,1-.817-.373,2.468,2.468,0,0,1-.588-.424,1.577,1.577,0,0,1-.355-.537,1.9,1.9,0,0,1-.12-.7,1.673,1.673,0,0,1,.226-.872,2,2,0,0,1,.6-.636,2.805,2.805,0,0,1,.858-.386,3.805,3.805,0,0,1,.995-.13,4.016,4.016,0,0,1,1.627.314v1.135a3.171,3.171,0,0,0-1.777-.506,2.078,2.078,0,0,0-.567.072,1.389,1.389,0,0,0-.434.2.932.932,0,0,0-.28.311.819.819,0,0,0-.1.4.959.959,0,0,0,.1.458,1.008,1.008,0,0,0,.291.328,2.221,2.221,0,0,0,.465.26q.273.116.622.253a8.658,8.658,0,0,1,.834.366,2.86,2.86,0,0,1,.629.424,1.656,1.656,0,0,1,.4.543,1.753,1.753,0,0,1,.14.731,1.725,1.725,0,0,1-.229.9,1.963,1.963,0,0,1-.612.636,2.8,2.8,0,0,1-.882.376,4.354,4.354,0,0,1-1.046.123A3.971,3.971,0,0,1,180.9-.253ZM192.89-3.22h-4.942a2.618,2.618,0,0,0,.629,1.8,2.168,2.168,0,0,0,1.654.636,3.439,3.439,0,0,0,2.174-.779V-.506a4.063,4.063,0,0,1-2.44.67,2.959,2.959,0,0,1-2.331-.954,3.9,3.9,0,0,1-.848-2.683,3.828,3.828,0,0,1,.926-2.663,2.97,2.97,0,0,1,2.3-1.029,2.632,2.632,0,0,1,2.126.889,3.705,3.705,0,0,1,.752,2.468Zm-1.148-.95a2.281,2.281,0,0,0-.468-1.511,1.6,1.6,0,0,0-1.282-.54,1.811,1.811,0,0,0-1.347.567,2.575,2.575,0,0,0-.684,1.483ZM195.706,0h-1.121V-10.363h1.121Zm7.9-3.22h-4.942a2.618,2.618,0,0,0,.629,1.8,2.168,2.168,0,0,0,1.654.636,3.439,3.439,0,0,0,2.174-.779V-.506a4.063,4.063,0,0,1-2.44.67,2.959,2.959,0,0,1-2.331-.954,3.9,3.9,0,0,1-.848-2.683,3.828,3.828,0,0,1,.926-2.663,2.97,2.97,0,0,1,2.3-1.029,2.632,2.632,0,0,1,2.126.889,3.705,3.705,0,0,1,.752,2.468Zm-1.148-.95a2.281,2.281,0,0,0-.468-1.511,1.6,1.6,0,0,0-1.282-.54,1.811,1.811,0,0,0-1.347.567,2.575,2.575,0,0,0-.684,1.483Zm7.615,3.849a3.643,3.643,0,0,1-1.914.485,3.169,3.169,0,0,1-2.417-.974,3.53,3.53,0,0,1-.919-2.526,3.881,3.881,0,0,1,.991-2.779,3.468,3.468,0,0,1,2.646-1.049,3.682,3.682,0,0,1,1.627.342v1.148a2.85,2.85,0,0,0-1.668-.547,2.254,2.254,0,0,0-1.76.769,2.918,2.918,0,0,0-.687,2.02,2.779,2.779,0,0,0,.646,1.941,2.227,2.227,0,0,0,1.733.711,2.81,2.81,0,0,0,1.723-.608Zm4.942.253a2.162,2.162,0,0,1-1.046.219q-1.839,0-1.839-2.051V-6.043h-1.2V-7h1.2V-8.709l1.121-.362V-7h1.764v.957h-1.764V-2.1a1.635,1.635,0,0,0,.239,1,.955.955,0,0,0,.793.3,1.179,1.179,0,0,0,.731-.232ZM230.959,0h-1.613V-6.344q0-.779.1-1.907h-.027a6.588,6.588,0,0,1-.267.923L226.222,0H225.1l-2.933-7.273a6.85,6.85,0,0,1-.26-.978h-.027q.055.588.055,1.921V0h-1.5V-9.8h2.29L225.3-3.274a9.654,9.654,0,0,1,.383,1.121h.034q.253-.772.41-1.148l2.625-6.5h2.208Zm7.608,0h-1.538V-1.094H237A2.316,2.316,0,0,1,234.876.164,2.239,2.239,0,0,1,233.259-.4a1.961,1.961,0,0,1-.584-1.483q0-1.982,2.283-2.311l2.078-.294q0-1.5-1.422-1.5a3.378,3.378,0,0,0-2.256.861V-6.508a4.919,4.919,0,0,1,2.557-.656,2.326,2.326,0,0,1,2.652,2.611Zm-1.531-3.438-1.47.205a2.33,2.33,0,0,0-1.029.332.969.969,0,0,0-.345.851.932.932,0,0,0,.318.728,1.231,1.231,0,0,0,.851.284,1.57,1.57,0,0,0,1.2-.509,1.806,1.806,0,0,0,.475-1.282ZM246.736,0H245.15V-3.944q0-1.962-1.388-1.962a1.515,1.515,0,0,0-1.2.543,2.016,2.016,0,0,0-.472,1.371V0H240.5V-7h1.593v1.162h.027a2.5,2.5,0,0,1,2.27-1.326,2.114,2.114,0,0,1,1.743.742,3.33,3.33,0,0,1,.6,2.143Zm7.308,0h-1.538V-1.094h-.027A2.316,2.316,0,0,1,250.353.164,2.239,2.239,0,0,1,248.736-.4a1.961,1.961,0,0,1-.584-1.483q0-1.982,2.283-2.311l2.078-.294q0-1.5-1.422-1.5a3.378,3.378,0,0,0-2.256.861V-6.508a4.919,4.919,0,0,1,2.557-.656,2.326,2.326,0,0,1,2.652,2.611Zm-1.531-3.438-1.47.205a2.33,2.33,0,0,0-1.029.332.969.969,0,0,0-.345.851.932.932,0,0,0,.318.728,1.231,1.231,0,0,0,.851.284,1.57,1.57,0,0,0,1.2-.509,1.806,1.806,0,0,0,.475-1.282ZM262.35-.561q0,3.855-3.876,3.855a5.773,5.773,0,0,1-2.386-.458V1.388a4.415,4.415,0,0,0,2.181.656,2.187,2.187,0,0,0,2.5-2.454v-.766h-.027a2.568,2.568,0,0,1-2.365,1.34,2.558,2.558,0,0,1-2.061-.933,3.773,3.773,0,0,1-.783-2.505,4.419,4.419,0,0,1,.841-2.837,2.8,2.8,0,0,1,2.311-1.053,2.227,2.227,0,0,1,2.058,1.135h.027V-7h1.586Zm-1.572-2.646v-.909a1.781,1.781,0,0,0-.489-1.261,1.6,1.6,0,0,0-1.22-.523,1.677,1.677,0,0,0-1.412.667,3.008,3.008,0,0,0-.509,1.863,2.589,2.589,0,0,0,.489,1.651,1.569,1.569,0,0,0,1.3.619,1.681,1.681,0,0,0,1.333-.591A2.228,2.228,0,0,0,260.777-3.206Zm9.563.137h-4.771a2.017,2.017,0,0,0,.6,1.5,2.225,2.225,0,0,0,1.569.526,3.459,3.459,0,0,0,2.058-.67V-.437a4.7,4.7,0,0,1-2.529.6,3.131,3.131,0,0,1-2.423-.954,3.814,3.814,0,0,1-.878-2.683,3.73,3.73,0,0,1,.967-2.663,3.164,3.164,0,0,1,2.4-1.029,2.759,2.759,0,0,1,2.222.923,3.832,3.832,0,0,1,.786,2.563ZM268.81-4.19a2.044,2.044,0,0,0-.4-1.33A1.348,1.348,0,0,0,267.313-6a1.539,1.539,0,0,0-1.159.5,2.28,2.28,0,0,0-.584,1.306ZM272.344.15a.726.726,0,0,1-.537-.226.743.743,0,0,1-.222-.54.754.754,0,0,1,.222-.543.72.72,0,0,1,.537-.229.739.739,0,0,1,.547.229.748.748,0,0,1,.226.543.737.737,0,0,1-.226.54A.745.745,0,0,1,272.344.15Zm12.428-8.914h-2.83V0h-1.148V-8.764H277.97V-9.8h6.8ZM287.718.164a3.247,3.247,0,0,1-2.478-.981,3.633,3.633,0,0,1-.926-2.6,3.785,3.785,0,0,1,.964-2.755,3.465,3.465,0,0,1,2.6-.991,3.14,3.14,0,0,1,2.444.964,3.822,3.822,0,0,1,.878,2.673,3.761,3.761,0,0,1-.947,2.683A3.317,3.317,0,0,1,287.718.164Zm.082-6.385a2.132,2.132,0,0,0-1.709.735,3.018,3.018,0,0,0-.629,2.027A2.854,2.854,0,0,0,286.1-1.5a2.161,2.161,0,0,0,1.7.718,2.049,2.049,0,0,0,1.671-.7,3.055,3.055,0,0,0,.584-2,3.108,3.108,0,0,0-.584-2.023A2.04,2.04,0,0,0,287.8-6.221Zm13.8,5.9a3.643,3.643,0,0,1-1.914.485,3.169,3.169,0,0,1-2.417-.974,3.53,3.53,0,0,1-.919-2.526,3.881,3.881,0,0,1,.991-2.779,3.467,3.467,0,0,1,2.646-1.049,3.682,3.682,0,0,1,1.627.342v1.148a2.85,2.85,0,0,0-1.668-.547,2.254,2.254,0,0,0-1.76.769,2.918,2.918,0,0,0-.687,2.02,2.779,2.779,0,0,0,.646,1.941,2.227,2.227,0,0,0,1.733.711,2.81,2.81,0,0,0,1.723-.608Zm5.346-5.544a1.371,1.371,0,0,0-.848-.226,1.431,1.431,0,0,0-1.2.677,3.129,3.129,0,0,0-.482,1.846V0H303.3V-7h1.121v1.442h.027a2.444,2.444,0,0,1,.731-1.152,1.668,1.668,0,0,1,1.1-.414,1.83,1.83,0,0,1,.67.1ZM313.79-3.22h-4.942a2.618,2.618,0,0,0,.629,1.8,2.168,2.168,0,0,0,1.654.636,3.439,3.439,0,0,0,2.174-.779V-.506a4.063,4.063,0,0,1-2.44.67,2.959,2.959,0,0,1-2.331-.954,3.9,3.9,0,0,1-.848-2.683,3.828,3.828,0,0,1,.926-2.663,2.97,2.97,0,0,1,2.3-1.029,2.632,2.632,0,0,1,2.126.889,3.705,3.705,0,0,1,.752,2.468Zm-1.148-.95a2.281,2.281,0,0,0-.468-1.511,1.6,1.6,0,0,0-1.282-.54,1.811,1.811,0,0,0-1.347.567,2.575,2.575,0,0,0-.684,1.483ZM320.5,0h-1.121V-1.094h-.027A2.347,2.347,0,0,1,317.194.164a2.3,2.3,0,0,1-1.637-.554,1.918,1.918,0,0,1-.591-1.47q0-1.962,2.311-2.283l2.1-.294q0-1.784-1.442-1.784a3.446,3.446,0,0,0-2.283.861V-6.508a4.338,4.338,0,0,1,2.379-.656q2.468,0,2.468,2.611Zm-1.121-3.541-1.688.232a2.741,2.741,0,0,0-1.176.386,1.114,1.114,0,0,0-.4.981,1.068,1.068,0,0,0,.366.837,1.413,1.413,0,0,0,.974.325,1.8,1.8,0,0,0,1.377-.584,2.088,2.088,0,0,0,.543-1.48Zm6.48,3.473A2.161,2.161,0,0,1,324.81.15q-1.839,0-1.839-2.051V-6.043h-1.2V-7h1.2V-8.709l1.121-.362V-7h1.764v.957h-1.764V-2.1a1.635,1.635,0,0,0,.239,1,.955.955,0,0,0,.793.3,1.179,1.179,0,0,0,.731-.232Zm7.123-3.151h-4.942a2.618,2.618,0,0,0,.629,1.8,2.168,2.168,0,0,0,1.654.636,3.439,3.439,0,0,0,2.174-.779V-.506a4.063,4.063,0,0,1-2.44.67,2.959,2.959,0,0,1-2.331-.954,3.9,3.9,0,0,1-.848-2.683,3.828,3.828,0,0,1,.926-2.663,2.97,2.97,0,0,1,2.3-1.029,2.632,2.632,0,0,1,2.126.889,3.705,3.705,0,0,1,.752,2.468Zm-1.148-.95a2.281,2.281,0,0,0-.468-1.511,1.6,1.6,0,0,0-1.282-.54,1.811,1.811,0,0,0-1.347.567,2.575,2.575,0,0,0-.684,1.483ZM343.52,0H342.4V-1.094h-.027A2.347,2.347,0,0,1,340.218.164a2.3,2.3,0,0,1-1.637-.554,1.918,1.918,0,0,1-.591-1.47q0-1.962,2.311-2.283l2.1-.294q0-1.784-1.442-1.784a3.446,3.446,0,0,0-2.283.861V-6.508a4.338,4.338,0,0,1,2.379-.656q2.468,0,2.468,2.611ZM342.4-3.541l-1.688.232a2.741,2.741,0,0,0-1.176.386,1.114,1.114,0,0,0-.4.981,1.068,1.068,0,0,0,.366.837,1.413,1.413,0,0,0,.974.325,1.8,1.8,0,0,0,1.377-.584,2.088,2.088,0,0,0,.543-1.48ZM351.442,0h-1.121V-3.992q0-2.229-1.627-2.229a1.765,1.765,0,0,0-1.391.632,2.344,2.344,0,0,0-.55,1.6V0h-1.121V-7h1.121v1.162h.027a2.526,2.526,0,0,1,2.3-1.326,2.142,2.142,0,0,1,1.757.742,3.3,3.3,0,0,1,.608,2.143Zm11.573-3.22h-4.942a2.618,2.618,0,0,0,.629,1.8,2.168,2.168,0,0,0,1.654.636,3.439,3.439,0,0,0,2.174-.779V-.506a4.063,4.063,0,0,1-2.44.67,2.959,2.959,0,0,1-2.331-.954,3.9,3.9,0,0,1-.848-2.683,3.828,3.828,0,0,1,.926-2.663,2.97,2.97,0,0,1,2.3-1.029,2.632,2.632,0,0,1,2.126.889,3.705,3.705,0,0,1,.752,2.468Zm-1.148-.95a2.281,2.281,0,0,0-.468-1.511,1.6,1.6,0,0,0-1.282-.54,1.811,1.811,0,0,0-1.347.567,2.575,2.575,0,0,0-.684,1.483ZM374.65,0h-1.121V-4.02A3.032,3.032,0,0,0,373.17-5.7a1.361,1.361,0,0,0-1.207-.52,1.494,1.494,0,0,0-1.22.656,2.511,2.511,0,0,0-.5,1.572V0H369.12V-4.156q0-2.064-1.593-2.064a1.475,1.475,0,0,0-1.217.619,2.557,2.557,0,0,0-.479,1.61V0h-1.121V-7h1.121v1.107h.027a2.378,2.378,0,0,1,2.174-1.271,2.027,2.027,0,0,1,1.251.4,2.012,2.012,0,0,1,.731,1.049,2.5,2.5,0,0,1,2.324-1.449q2.311,0,2.311,2.851Zm3.268-1.012h-.027V3.22H376.77V-7h1.121v1.23h.027a2.651,2.651,0,0,1,2.42-1.395,2.563,2.563,0,0,1,2.112.94,3.893,3.893,0,0,1,.759,2.519,4.339,4.339,0,0,1-.854,2.813A2.845,2.845,0,0,1,380.017.164,2.342,2.342,0,0,1,377.918-1.012Zm-.027-2.823v.978a2.081,2.081,0,0,0,.564,1.473,1.873,1.873,0,0,0,1.432.6,1.876,1.876,0,0,0,1.6-.779,3.575,3.575,0,0,0,.578-2.167,2.822,2.822,0,0,0-.54-1.832,1.787,1.787,0,0,0-1.463-.663,1.986,1.986,0,0,0-1.572.68A2.5,2.5,0,0,0,377.891-3.835ZM386.121,0H385V-10.363h1.121Zm5.2.164a3.247,3.247,0,0,1-2.478-.981,3.633,3.633,0,0,1-.926-2.6,3.785,3.785,0,0,1,.964-2.755,3.465,3.465,0,0,1,2.6-.991,3.14,3.14,0,0,1,2.444.964,3.822,3.822,0,0,1,.878,2.673,3.761,3.761,0,0,1-.947,2.683A3.317,3.317,0,0,1,391.316.164Zm.082-6.385a2.132,2.132,0,0,0-1.709.735,3.018,3.018,0,0,0-.629,2.027A2.854,2.854,0,0,0,389.7-1.5a2.161,2.161,0,0,0,1.7.718,2.049,2.049,0,0,0,1.671-.7,3.055,3.055,0,0,0,.584-2,3.108,3.108,0,0,0-.584-2.023A2.04,2.04,0,0,0,391.4-6.221ZM402.165-7l-3.22,8.121q-.861,2.174-2.42,2.174a2.565,2.565,0,0,1-.731-.089v-1a2.078,2.078,0,0,0,.663.123,1.374,1.374,0,0,0,1.271-1.012l.561-1.326L395.555-7H396.8l1.894,5.387q.034.1.144.533h.041q.034-.164.137-.52L401-7Zm6.829,3.78h-4.942a2.618,2.618,0,0,0,.629,1.8,2.168,2.168,0,0,0,1.654.636,3.439,3.439,0,0,0,2.174-.779V-.506a4.063,4.063,0,0,1-2.44.67,2.959,2.959,0,0,1-2.331-.954,3.9,3.9,0,0,1-.848-2.683,3.828,3.828,0,0,1,.926-2.663,2.97,2.97,0,0,1,2.3-1.029,2.632,2.632,0,0,1,2.126.889,3.705,3.705,0,0,1,.752,2.468Zm-1.148-.95a2.281,2.281,0,0,0-.468-1.511,1.6,1.6,0,0,0-1.282-.54,1.811,1.811,0,0,0-1.347.567,2.575,2.575,0,0,0-.684,1.483Zm8.47.95h-4.942a2.618,2.618,0,0,0,.629,1.8,2.168,2.168,0,0,0,1.654.636,3.439,3.439,0,0,0,2.174-.779V-.506a4.063,4.063,0,0,1-2.44.67,2.959,2.959,0,0,1-2.331-.954,3.9,3.9,0,0,1-.848-2.683,3.828,3.828,0,0,1,.926-2.663,2.97,2.97,0,0,1,2.3-1.029,2.632,2.632,0,0,1,2.126.889,3.705,3.705,0,0,1,.752,2.468Zm-1.148-.95a2.281,2.281,0,0,0-.468-1.511,1.6,1.6,0,0,0-1.282-.54,1.811,1.811,0,0,0-1.347.567,2.575,2.575,0,0,0-.684,1.483ZM427.82-.561q0,3.855-3.691,3.855a4.956,4.956,0,0,1-2.27-.492V1.682a4.661,4.661,0,0,0,2.256.656q2.584,0,2.584-2.748v-.766h-.027a2.622,2.622,0,0,1-2.406,1.34,2.628,2.628,0,0,1-2.1-.933,3.73,3.73,0,0,1-.8-2.505,4.358,4.358,0,0,1,.858-2.837,2.866,2.866,0,0,1,2.348-1.053,2.282,2.282,0,0,1,2.1,1.135h.027V-7h1.121Zm-1.121-2.6V-4.2a2,2,0,0,0-.564-1.429,1.857,1.857,0,0,0-1.4-.595,1.947,1.947,0,0,0-1.627.755,3.372,3.372,0,0,0-.588,2.116,2.894,2.894,0,0,0,.564,1.87,1.822,1.822,0,0,0,1.494.7,1.951,1.951,0,0,0,1.535-.67A2.5,2.5,0,0,0,426.7-3.165Zm7.041-2.7a1.371,1.371,0,0,0-.848-.226,1.431,1.431,0,0,0-1.2.677,3.129,3.129,0,0,0-.482,1.846V0H430.09V-7h1.121v1.442h.027a2.444,2.444,0,0,1,.731-1.152,1.668,1.668,0,0,1,1.1-.414,1.83,1.83,0,0,1,.67.1ZM437.883.164A3.247,3.247,0,0,1,435.4-.817a3.633,3.633,0,0,1-.926-2.6,3.785,3.785,0,0,1,.964-2.755,3.465,3.465,0,0,1,2.6-.991,3.14,3.14,0,0,1,2.444.964,3.822,3.822,0,0,1,.878,2.673,3.761,3.761,0,0,1-.947,2.683A3.317,3.317,0,0,1,437.883.164Zm.082-6.385a2.132,2.132,0,0,0-1.709.735,3.018,3.018,0,0,0-.629,2.027,2.854,2.854,0,0,0,.636,1.962,2.161,2.161,0,0,0,1.7.718,2.049,2.049,0,0,0,1.671-.7,3.055,3.055,0,0,0,.584-2,3.108,3.108,0,0,0-.584-2.023A2.04,2.04,0,0,0,437.965-6.221ZM448.82,0H447.7V-1.107h-.027a2.3,2.3,0,0,1-2.16,1.271q-2.5,0-2.5-2.98V-7h1.114v4.006q0,2.215,1.7,2.215a1.715,1.715,0,0,0,1.35-.6,2.315,2.315,0,0,0,.53-1.583V-7h1.121Zm3.411-1.012H452.2V3.22h-1.121V-7H452.2v1.23h.027a2.651,2.651,0,0,1,2.42-1.395,2.563,2.563,0,0,1,2.112.94,3.893,3.893,0,0,1,.759,2.519,4.339,4.339,0,0,1-.854,2.813A2.845,2.845,0,0,1,454.33.164,2.342,2.342,0,0,1,452.231-1.012ZM452.2-3.835v.978a2.081,2.081,0,0,0,.564,1.473,1.873,1.873,0,0,0,1.432.6,1.876,1.876,0,0,0,1.6-.779,3.575,3.575,0,0,0,.578-2.167,2.822,2.822,0,0,0-.54-1.832,1.787,1.787,0,0,0-1.463-.663,1.986,1.986,0,0,0-1.572.68A2.5,2.5,0,0,0,452.2-3.835ZM5.906,18.679a3.643,3.643,0,0,1-1.914.485,3.169,3.169,0,0,1-2.417-.974,3.53,3.53,0,0,1-.919-2.526,3.881,3.881,0,0,1,.991-2.779,3.467,3.467,0,0,1,2.646-1.049,3.682,3.682,0,0,1,1.627.342v1.148a2.85,2.85,0,0,0-1.668-.547,2.254,2.254,0,0,0-1.76.769,2.918,2.918,0,0,0-.687,2.02,2.779,2.779,0,0,0,.646,1.941,2.227,2.227,0,0,0,1.733.711,2.81,2.81,0,0,0,1.723-.608ZM8.723,19H7.6V8.637H8.723Zm2.844-8.777a.71.71,0,0,1-.513-.205.692.692,0,0,1-.212-.52.718.718,0,0,1,.725-.731.724.724,0,0,1,.523.208.73.73,0,0,1,0,1.036A.718.718,0,0,1,11.566,10.223ZM12.113,19H10.992V12h1.121Zm7.041-.321a3.643,3.643,0,0,1-1.914.485,3.169,3.169,0,0,1-2.417-.974,3.53,3.53,0,0,1-.919-2.526,3.881,3.881,0,0,1,.991-2.779,3.467,3.467,0,0,1,2.646-1.049,3.682,3.682,0,0,1,1.627.342v1.148a2.85,2.85,0,0,0-1.668-.547,2.254,2.254,0,0,0-1.76.769,2.918,2.918,0,0,0-.687,2.02A2.779,2.779,0,0,0,15.7,17.51a2.227,2.227,0,0,0,1.733.711,2.81,2.81,0,0,0,1.723-.608ZM26.66,19H25.088L22,15.637h-.027V19H20.85V8.637h1.121v6.569H22L24.938,12h1.47L23.16,15.377Zm13.111,0H37.987l-.882-2.5H33.25L32.4,19H30.625L34.3,9.2h1.832Zm-3.1-3.821-1.36-3.91a4.632,4.632,0,0,1-.13-.615h-.027a4,4,0,0,1-.137.615l-1.347,3.91ZM47.3,19H45.719V17.811h-.027a2.737,2.737,0,0,1-4.426.414,3.9,3.9,0,0,1-.776-2.56,4.251,4.251,0,0,1,.858-2.782,2.808,2.808,0,0,1,2.287-1.046,2.19,2.19,0,0,1,2.058,1.135h.027V8.637H47.3Zm-1.565-3.2v-.916a1.785,1.785,0,0,0-.485-1.265,1.619,1.619,0,0,0-1.237-.52,1.666,1.666,0,0,0-1.4.663,2.955,2.955,0,0,0-.509,1.839,2.648,2.648,0,0,0,.489,1.685,1.59,1.59,0,0,0,1.316.619,1.646,1.646,0,0,0,1.319-.6A2.253,2.253,0,0,0,45.739,15.8Zm10,3.2H54.154V17.811h-.027a2.737,2.737,0,0,1-4.426.414,3.9,3.9,0,0,1-.776-2.56,4.251,4.251,0,0,1,.858-2.782,2.808,2.808,0,0,1,2.287-1.046,2.19,2.19,0,0,1,2.058,1.135h.027V8.637H55.74Zm-1.565-3.2v-.916a1.785,1.785,0,0,0-.485-1.265,1.619,1.619,0,0,0-1.237-.52,1.666,1.666,0,0,0-1.4.663,2.955,2.955,0,0,0-.509,1.839,2.648,2.648,0,0,0,.489,1.685,1.59,1.59,0,0,0,1.316.619,1.646,1.646,0,0,0,1.319-.6A2.253,2.253,0,0,0,54.175,15.8Zm13.412.13H62.815a2.017,2.017,0,0,0,.6,1.5,2.225,2.225,0,0,0,1.569.526,3.459,3.459,0,0,0,2.058-.67v1.278a4.7,4.7,0,0,1-2.529.6,3.131,3.131,0,0,1-2.423-.954,3.814,3.814,0,0,1-.878-2.683,3.73,3.73,0,0,1,.967-2.663,3.164,3.164,0,0,1,2.4-1.029,2.759,2.759,0,0,1,2.222.923,3.832,3.832,0,0,1,.786,2.563ZM66.056,14.81a2.044,2.044,0,0,0-.4-1.33A1.348,1.348,0,0,0,64.559,13a1.539,1.539,0,0,0-1.159.5,2.28,2.28,0,0,0-.584,1.306ZM79.563,19H77.978V15.186a3.091,3.091,0,0,0-.311-1.593,1.144,1.144,0,0,0-1.049-.492,1.265,1.265,0,0,0-1.056.622,2.538,2.538,0,0,0-.434,1.49V19H73.534V15.056q0-1.955-1.381-1.955a1.246,1.246,0,0,0-1.056.588,2.592,2.592,0,0,0-.414,1.524V19H69.1V12h1.586v1.107h.027a2.425,2.425,0,0,1,2.208-1.271,2.082,2.082,0,0,1,1.268.4,1.992,1.992,0,0,1,.742,1.049,2.5,2.5,0,0,1,2.324-1.449q2.311,0,2.311,2.851Zm3.548-1.032h-.027V22.22H81.5V12h1.586v1.23h.027a2.6,2.6,0,0,1,2.379-1.395,2.506,2.506,0,0,1,2.078.937,3.928,3.928,0,0,1,.745,2.516,4.361,4.361,0,0,1-.841,2.8,2.781,2.781,0,0,1-2.3,1.053A2.294,2.294,0,0,1,83.111,17.968Zm-.041-2.762v.868a1.852,1.852,0,0,0,.489,1.3,1.725,1.725,0,0,0,2.625-.154,3.2,3.2,0,0,0,.5-1.917,2.52,2.52,0,0,0-.468-1.617A1.539,1.539,0,0,0,84.95,13.1a1.709,1.709,0,0,0-1.364.6A2.228,2.228,0,0,0,83.07,15.206ZM91.526,19H89.934V8.637h1.593Zm5.168.164a3.47,3.47,0,0,1-2.587-.981,3.544,3.544,0,0,1-.967-2.6,3.687,3.687,0,0,1,1.008-2.755,3.708,3.708,0,0,1,2.717-.991,3.358,3.358,0,0,1,2.557.964,3.723,3.723,0,0,1,.916,2.673,3.669,3.669,0,0,1-.988,2.683A3.548,3.548,0,0,1,96.694,19.164ZM96.77,13.1a1.81,1.81,0,0,0-1.47.649,2.719,2.719,0,0,0-.54,1.791,2.561,2.561,0,0,0,.547,1.733,1.837,1.837,0,0,0,1.463.632,1.743,1.743,0,0,0,1.439-.622,2.754,2.754,0,0,0,.5-1.771,2.8,2.8,0,0,0-.5-1.784A1.734,1.734,0,0,0,96.77,13.1ZM108.015,12l-3.158,8.121q-.984,2.174-2.762,2.174a3.311,3.311,0,0,1-.834-.089V20.887a2.218,2.218,0,0,0,.684.123,1.411,1.411,0,0,0,1.326-.875l.472-1.148L100.96,12h1.757l1.668,5.086q.027.1.123.506h.034q.034-.157.123-.492l1.75-5.1Zm6.877,3.931H110.12a2.017,2.017,0,0,0,.6,1.5,2.225,2.225,0,0,0,1.569.526,3.459,3.459,0,0,0,2.058-.67v1.278a4.7,4.7,0,0,1-2.529.6,3.131,3.131,0,0,1-2.423-.954,3.814,3.814,0,0,1-.878-2.683,3.73,3.73,0,0,1,.967-2.663,3.164,3.164,0,0,1,2.4-1.029,2.759,2.759,0,0,1,2.222.923,3.832,3.832,0,0,1,.786,2.563ZM113.36,14.81a2.044,2.044,0,0,0-.4-1.33A1.348,1.348,0,0,0,111.863,13a1.539,1.539,0,0,0-1.159.5,2.28,2.28,0,0,0-.584,1.306Zm8.969,1.121h-4.771a2.017,2.017,0,0,0,.6,1.5,2.225,2.225,0,0,0,1.569.526,3.459,3.459,0,0,0,2.058-.67v1.278a4.7,4.7,0,0,1-2.529.6,3.131,3.131,0,0,1-2.423-.954,3.814,3.814,0,0,1-.878-2.683,3.73,3.73,0,0,1,.967-2.663,3.164,3.164,0,0,1,2.4-1.029,2.759,2.759,0,0,1,2.222.923,3.832,3.832,0,0,1,.786,2.563ZM120.8,14.81a2.044,2.044,0,0,0-.4-1.33A1.348,1.348,0,0,0,119.3,13a1.539,1.539,0,0,0-1.159.5,2.28,2.28,0,0,0-.584,1.306Zm3.7,4.341a.981.981,0,0,1-.7-.27.856.856,0,0,1-.287-.646.874.874,0,0,1,.287-.656.974.974,0,0,1,.7-.273.994.994,0,0,1,.708.273.87.87,0,0,1,.291.656.852.852,0,0,1-.291.646A1,1,0,0,1,124.5,19.15Z" transform="translate(281 165)" fill="#31313a"/>
  </g>
</svg>
