<svg xmlns="http://www.w3.org/2000/svg" xmlns:xlink="http://www.w3.org/1999/xlink" viewBox="0 0 602.7 451.85"><defs><clipPath id="a"><rect x="477.17" y="120.04" width="77.27" height="113.25" style="fill:none"/></clipPath></defs><title>Asset 1</title><path d="M485.45,2.67a98.58,98.58,0,0,0-68.32,8.47l-.31.16c-17.36,9-34.78,18-50.77,29.25C347.32,53.71,330.49,70,309.74,79.61,276.52,95.06,238,91.68,201.54,88l-67.89-6.9C107.36,78.39,79.42,76,55.78,87.83c-13.23,6.63-24.11,17.35-32.58,29.49-33.9,48.53-28.1,116.78.94,168.37S101.59,375,151.41,407c25.78,16.54,52.76,32.16,82.5,39.51,32.39,8,66.4,5.81,99.5,1.58,30.69-3.92,61.63-9.7,89.38-23.38,45.93-22.65,78.29-64.19,106.77-107.5,8.4-12.77,17.16-25.3,26.05-37.73,10.25-14.34,27.48-43.73,41.5-93.87,12.12-43.35,4.5-90.2-22.38-126.33C549.6,25.49,515.13,9.8,485.45,2.67Z" style="fill:#f2f1f3"/><circle cx="217.56" cy="68.05" r="6.89" style="fill:none;stroke:#f2f1f3;stroke-miterlimit:10"/><circle cx="235.69" cy="73.92" r="3.57" style="fill:none;stroke:#f2f1f3;stroke-miterlimit:10"/><circle cx="73.31" cy="392.24" r="5.11" style="fill:none;stroke:#f2f1f3;stroke-miterlimit:10"/><circle cx="563.27" cy="321.84" r="8.94" style="fill:none;stroke:#f2f1f3;stroke-miterlimit:10"/><circle cx="564.8" cy="298.86" r="3.32" style="fill:none;stroke:#f2f1f3;stroke-miterlimit:10"/><rect x="159.91" y="151.3" width="6.27" height="141.17" rx="3.14" style="fill:#494955"/><path d="M125.44,204.92c3,2.64,2.34,8.9,4.92,11.73s9,2.92,11.23,6c2.42,3.27.54,9.28,2.49,12.48,2.17,3.56,8.34,4.65,10,7.9,2,3.94-.89,9.59.37,12.71,2.7,6.72,11.84,7.39,8,11.79s-5.68-4.58-12.69-6.42c-3.26-.86-8.5,2.69-12.66,1.23-3.43-1.21-5.28-7.2-9.08-8.91-3.42-1.53-9.14,1.09-12.69-.91-3.31-1.86-4-8.08-7.33-10.39s-9.26-.77-12.26-3.41-2.35-8.9-4.92-11.73c-2.7-3-9-2.92-11.23-6-2.42-3.27-.54-9.28-2.49-12.48-2.17-3.56-8.34-4.64-10-7.9-2-3.94.89-9.58-.36-12.71-2.71-6.72-11.84-7.39-8-11.79s5.69,4.58,12.7,6.42c3.25.86,8.49-2.69,12.65-1.23,3.43,1.21,5.28,7.2,9.09,8.9,3.41,1.54,9.14-1.08,12.68.91,3.32,1.87,4,8.08,7.33,10.39C116.32,203.7,122.44,202.27,125.44,204.92Z" style="fill:#5fb446"/><path d="M75.7,191.2s8.79,2,18.74,19.44c9,15.29,49.87,37.29,52.83,43.8" style="fill:none;stroke:#231f20;stroke-linecap:round;stroke-miterlimit:10;stroke-width:2px;opacity:0.2"/><path d="M139.66,134.57c2.94,2.77,2.57,8.4,4.86,11.4,2.51,3.27,8,4.41,9.78,7.61,2.13,3.8.22,9.15,1.52,12.31,2.68,6.55,11.05,7.47,7,11.74s-5.42-4-12.11-6.35c-3.23-1.12-8.47,1.09-12.37-.82-3.3-1.63-4.74-7-8.15-9.33-3.13-2.12-8.72-1.44-11.66-4.22s-2.56-8.4-4.85-11.4c-2.49-3.28-8-4.42-9.76-7.62-2.13-3.79-.21-9.15-1.5-12.31-2.68-6.54-11-7.46-7-11.72s5.41,4,12.1,6.35c3.22,1.11,8.46-1.1,12.36.82,3.29,1.62,4.72,7,8.13,9.32C131.13,132.47,136.72,131.79,139.66,134.57Z" style="fill:#5fb446"/><path d="M108.32,126.91s14.89,10.52,19.1,18.17,23,19.7,23,19.7" style="fill:none;stroke:#231f20;stroke-linecap:round;stroke-miterlimit:10;stroke-width:2px;opacity:0.2"/><path d="M187.2,146.53c-1.48,1.57-4.47,1.37-6.07,2.59s-2.34,4.24-4,5.2c-2,1.13-4.86.12-6.54.81-3.49,1.42-4,5.88-6.24,3.73s2.14-2.88,3.37-6.44c.6-1.72-.58-4.51.44-6.58.86-1.76,3.73-2.53,5-4.34,1.13-1.66.77-4.64,2.25-6.2s4.46-1.36,6.06-2.58,2.35-4.23,4.05-5.19c2-1.13,4.87-.11,6.54-.8,3.49-1.42,4-5.87,6.24-3.72s-2.14,2.87-3.38,6.43c-.59,1.71.59,4.5-.43,6.57-.87,1.76-3.73,2.52-5,4.33C188.31,142,188.68,145,187.2,146.53Z" style="fill:#5fb446"/><path d="M191.27,129.87s-5.6,7.92-9.66,10.15-10.48,12.26-10.48,12.26" style="fill:none;stroke:#231f20;stroke-linecap:round;stroke-miterlimit:10;stroke-width:2px;opacity:0.2"/><path d="M189.7,244.37c-1.63,1.73-4.95,1.52-6.72,2.87-1.93,1.47-2.6,4.7-4.49,5.76-2.24,1.26-5.4.13-7.26.9-3.86,1.58-4.4,6.52-6.92,4.14s2.38-3.2,3.75-7.15c.66-1.9-.65-5,.48-7.29,1-1.95,4.14-2.8,5.5-4.81,1.25-1.84.85-5.14,2.49-6.87s4.95-1.51,6.72-2.86c1.93-1.47,2.61-4.69,4.5-5.76,2.23-1.25,5.39-.12,7.25-.88,3.86-1.58,4.4-6.51,6.92-4.13s-2.38,3.19-3.75,7.13c-.66,1.9.65,5-.48,7.29-1,1.94-4.14,2.78-5.5,4.79C190.94,239.34,191.34,242.64,189.7,244.37Z" style="fill:#5fb446"/><path d="M194.22,225.89s-6.21,8.78-10.71,11.26-11.62,13.59-11.62,13.59" style="fill:none;stroke:#231f20;stroke-linecap:round;stroke-miterlimit:10;stroke-width:2px;opacity:0.2"/><path d="M146.83,184.22c1.88,1.77,1.64,5.37,3.11,7.29,1.6,2.09,5.09,2.82,6.24,4.86,1.37,2.43.15,5.85,1,7.87,1.71,4.19,7.06,4.78,4.48,7.5s-3.46-2.58-7.74-4.06c-2.06-.71-5.41.7-7.91-.52-2.11-1-3-4.48-5.21-6-2-1.36-5.57-.92-7.45-2.7s-1.64-5.37-3.1-7.29c-1.6-2.09-5.09-2.82-6.24-4.87-1.36-2.42-.13-5.85-1-7.86-1.71-4.19-7.06-4.78-4.48-7.5s3.46,2.58,7.73,4.06c2.06.71,5.41-.7,7.9.52,2.11,1,3,4.49,5.2,6C141.38,182.88,145,182.44,146.83,184.22Z" style="fill:#5fb446"/><path d="M126.8,179.32s9.51,6.73,12.21,11.62,14.72,12.59,14.72,12.59" style="fill:none;stroke:#231f20;stroke-linecap:round;stroke-miterlimit:10;stroke-width:2px;opacity:0.2"/><path d="M193.51,176c-3.4,3.74-11.09,4-13.65,8-2.81,4.31.08,11.56-1.86,15.72-2.3,4.91-9.62,7.37-10.94,11.42-2.73,8.41-4.13,8,1.29,12.89s4.85,3.58,13,.07c3.91-1.69,5.66-9.21,10.34-12,3.95-2.33,11.44-.14,15.46-3.33,3.69-2.93,3.23-10.61,6.62-14.35s11.09-4,13.65-7.95c2.81-4.31-.09-11.56,1.86-15.72,2.3-4.91,9.62-7.37,10.94-11.42,2.73-8.4,4.13-8-1.29-12.89s-4.85-3.58-13-.06c-3.9,1.69-5.66,9.21-10.33,12-3.95,2.33-11.44.13-15.47,3.33C196.45,164.6,196.91,172.28,193.51,176Z" style="fill:#5fb446"/><path d="M231.24,156.58s-22.13,18-27.76,30.49c-2.13,4.7-23,24.71-28.19,28.54" style="fill:none;stroke:#231f20;stroke-linecap:round;stroke-miterlimit:10;stroke-width:2px;opacity:0.2"/><path d="M208.08,341.6a52.48,52.48,0,0,1-5-28.24h0l.56-5.2.24-2.15.55-5.2.23-2.16.56-5.2.39-3.67c0-.1,0-.2,0-.3,0-2.87-4-5.21-9-5.23H129c-5,.16-8.76,2.62-8.48,5.48l.4,3.67.55,5.2.23,2.16.57,5.19.23,2.16.55,5.2.27,2.5a52.12,52.12,0,0,1-4.5,26.72,36,36,0,0,0-3.14,14.68c0,22.75,21.49,41.2,48,41.2s48-18.45,48-41.2A36,36,0,0,0,208.08,341.6Z" style="fill:#e6e6ea"/><polygon points="205.2 293.45 204.64 298.63 121.46 298.63 120.9 293.45 205.2 293.45" style="fill:#f26522"/><polygon points="204.41 300.8 203.86 305.98 122.25 305.98 121.69 300.8 204.41 300.8" style="fill:#f26522"/><polygon points="203.62 308.14 203.06 313.32 123.04 313.32 122.48 308.14 203.62 308.14" style="fill:#f26522"/><path d="M337.29,233.29v158a8.38,8.38,0,0,0,8.38,8.38h0a8.38,8.38,0,0,0,8.37-8.38V257.2H528V391.34a8.38,8.38,0,0,0,8.37,8.38h0a8.38,8.38,0,0,0,8.38-8.38v-158Z" style="fill:#e6e6ea;fill-rule:evenodd"/><g style="opacity:0.05"><path d="M541.76,236.29v155a5.38,5.38,0,1,1-10.75,0V254.2H351V391.34a5.38,5.38,0,1,1-10.75,0v-155H541.76m3-3H337.29v158a8.38,8.38,0,1,0,16.75,0V257.2H528V391.34a8.38,8.38,0,0,0,8.37,8.38h0a8.38,8.38,0,0,0,8.38-8.38v-158Z"/></g><path d="M500.35,150.66a8.85,8.85,0,1,1-8.84-8.85,8.84,8.84,0,0,1,8.84,8.85Z" style="fill:#fef2d8"/><path d="M511,214.18l-4.09,2.3-4.09-2.3V211.3a3.15,3.15,0,0,1,3.16-3.15h1.86A3.16,3.16,0,0,1,511,211.3Z" style="fill:#5a5a5a"/><path d="M518.38,223.84,511.64,219l30.83-38.84,6.74,4.8Z" style="fill:#afafbb"/><polyline points="516.98 141.2 549.98 175.38 543.47 181.57 510.87 147.82" style="fill:#afafbb"/><path d="M530.64,231.91a17.73,17.73,0,0,0-17.74-17.73h-12a17.73,17.73,0,0,0-17.73,17.73,1.37,1.37,0,0,0,1.37,1.38h44.75a1.38,1.38,0,0,0,1.38-1.38Z" style="fill:#9494a4"/><g style="clip-path:url(#a)"><path d="M512.9,214.18H506a17.73,17.73,0,0,1,17.73,17.73,1.38,1.38,0,0,1-1.38,1.38h6.9a1.38,1.38,0,0,0,1.38-1.38,17.73,17.73,0,0,0-17.74-17.73Z" style="fill:#79788c;opacity:0.2"/></g><path d="M554.42,182.59a9.22,9.22,0,1,1-9.22-9.22,9.22,9.22,0,0,1,9.22,9.22Z" style="fill:#e6e6ea"/><path d="M548.19,182.59a3,3,0,1,1-3-3,3,3,0,0,1,3,3Z" style="fill:#f4f4f6"/><path d="M507.83,155.31a1.73,1.73,0,0,1-1.22-.5l-5.87-5.87a1.73,1.73,0,0,1,2.44-2.44l5.87,5.87a1.73,1.73,0,0,1,0,2.44,1.75,1.75,0,0,1-1.22.5Z" style="fill:#e7b821"/><g style="clip-path:url(#a)"><path d="M495.42,142.58a1.72,1.72,0,0,1-1.22-.5l-5.87-5.87a1.73,1.73,0,1,1,2.44-2.44l5.86,5.87a1.72,1.72,0,0,1-1.21,2.94Z" style="fill:#e7b821"/><path d="M514.85,127.11a16.24,16.24,0,0,0-23,0l-.25.25A24.78,24.78,0,0,1,479.1,134l-.09,0a2.34,2.34,0,0,0-1.13,3.94L504,164.08a2.35,2.35,0,0,0,4-1.12.29.29,0,0,1,0-.09A25,25,0,0,1,514,151c.21-.23-.5-4.69-.5-4.69,3.14-.06,4.74-.58,5.48-3.09a16.24,16.24,0,0,0-4.09-16.1Z" style="fill:#9494a4"/></g><path d="M514.85,127.11a16.24,16.24,0,0,0-15.07-4.35,16.23,16.23,0,0,1,7.89,27.31l-.25.25a24.53,24.53,0,0,0-6.22,10.93l2.83,2.83a2.35,2.35,0,0,0,4-1.12.29.29,0,0,1,0-.09,24.8,24.8,0,0,1,6.6-12.55l.25-.25a16.24,16.24,0,0,0,0-23Z" style="fill:#79788c;opacity:0.2"/><path d="M536,182.59a9.22,9.22,0,1,1,9.22,9.22,9.22,9.22,0,0,1-9.22-9.22Z" style="fill:none;stroke:#afafbb;stroke-linejoin:round;stroke-width:2px"/><path d="M352.91,153.62v64.46l56.24,3.8,55.69-3.8V153.62a6.11,6.11,0,0,0-6.1-6.1H359A6.11,6.11,0,0,0,352.91,153.62Z" style="fill:#cacad2"/><path d="M348.41,218.08v9.11a6.11,6.11,0,0,0,6.11,6.1H463.23a6.11,6.11,0,0,0,6.1-6.1v-9.11H348.41Z" style="fill:#afafbb"/><path d="M349.14,218.08v6.41a6.1,6.1,0,0,0,6.1,6.1H464a6.09,6.09,0,0,0,5.37-3.2,6.11,6.11,0,0,1-6.1,5.9H354.52a6.11,6.11,0,0,1-6.11-6.1v-9.11Z" style="fill:#9494a4"/><path d="M425.62,218.08H392.13a7.59,7.59,0,0,0,7.59,7.59H418A7.59,7.59,0,0,0,425.62,218.08Z" style="fill:#494955"/><g style="opacity:0.200000002980232"><path d="M425.6,218.68c0-.2,0-.4,0-.6h.23C425.78,218.28,425.69,218.48,425.6,218.68Z" style="fill:#010101"/></g><rect x="362.04" y="157.07" width="93.67" height="51.1" style="fill:#e6e6ea"/><polygon points="416.3 208.17 362.04 208.17 362.04 157.07 394.25 157.07 416.3 208.17" style="fill:#e6e6ea"/><path d="M359,147.52h31.1l30.46,70.56H352.91V153.62A6.11,6.11,0,0,1,359,147.52Z" style="fill:#1a1a1d;opacity:0.02"/><rect x="333.61" y="233.29" width="213.19" height="23.91" rx="5.53" style="fill:#606072"/><polyline points="486.93 146.96 345.14 232.73 513.14 232.73 496.8 156.51" style="fill:#fef2d8;opacity:0.2"/><rect x="288.88" y="293.97" width="7.79" height="72.36" style="fill:#31323b"/><rect x="259.81" y="361.77" width="62.92" height="5.5" style="fill:#31323b"/><path d="M259.81,366.34h6.8a0,0,0,0,1,0,0v2.48a3.4,3.4,0,0,1-3.4,3.4h0a3.4,3.4,0,0,1-3.4-3.4v-2.48a0,0,0,0,1,0,0Z" style="fill:#31323b"/><path d="M413.33,262.53c0,12.38-6.63,51.65-12.32,83.38-1.6,8.93-3.13,17.27-4.41,24.23-2,10.59-3.36,18-3.62,19.61-1,6.3-11.81,8-12.44,0-.34-4.32-.78-12.28-1.14-21.69-.29-7.69-.53-16.37-.61-24.82-.13-11.47,0-22.53.75-30.21s1.47-15.14,2.23-21.83c.06-.54.19-4,.25-4.53-9.19,16.59-23,42.6-41.29,72.17q-2.84,4.58-5.81,9.36L323.41,363q1.15-3.81,2.28-7.43,12-38.83,20-55.67c9.91-21,19.21-39,23.12-45.36l0,0c6.16-9.92,16.85-6.44,22.49-.41C399.52,249.1,413.34,255.45,413.33,262.53Z" style="fill:#fbc8a4;fill-rule:evenodd"/><path d="M315.92,366.34h6.8a0,0,0,0,1,0,0v2.48a3.4,3.4,0,0,1-3.4,3.4h0a3.4,3.4,0,0,1-3.4-3.4v-2.48a0,0,0,0,1,0,0Z" style="fill:#31323b"/><g style="opacity:0.1"><path d="M391.66,266.83c-1.76,4.81-5.1,12.27-9.2,20.9l.18-1.61c-9.19,16.59-22.36,39.68-40.65,69.25-.54-.12-1.65-.28-2.16-.46-5.89-2.14-6.57-.26-12.47-2.4a5.5,5.5,0,0,1-1-.47q12-38.84,20-55.67c9.91-21,19.21-39,23.12-45.36a.08.08,0,0,0,0,0C380.33,251.75,394,260.48,391.66,266.83Z" style="fill:#010101;fill-rule:evenodd"/></g><g style="opacity:0.1"><path d="M391.83,266.69c-1.76,4.81-5.1,12.27-9.2,20.9l.18-1.61c-9.19,16.59-22.36,39.68-40.65,69.25-.54-.12-1.65-.28-2.16-.46-5.89-2.14-6.57-.26-12.47-2.4a5.5,5.5,0,0,1-1-.47q12-38.83,20-55.67c9.91-21,19.21-39,23.12-45.36l0,0C380.5,251.61,394.15,260.34,391.83,266.69Z" style="fill:#010101;fill-rule:evenodd"/></g><ellipse cx="277.06" cy="291.14" rx="43.22" ry="7.57" style="fill:#4a4a56"/><polygon points="233.84 280.83 233.84 291.41 320.28 291.41 320.28 280.04 233.84 280.83" style="fill:#4a4a56;fill-rule:evenodd"/><ellipse cx="277.06" cy="281.25" rx="43.22" ry="7.57" style="fill:#cacad1"/><path d="M321.62,353c18.09-42.86,14.37-42.18,32.46-85,.18-.44-1.31-2-1-2.33,8.48-9,35.38,4.16,32.19,12.88-6.28,17.2-32.78,68.22-42.09,85.93-1.75,3.32-6.22,3.42-9.74,2.15-5.89-2.14-1-.17-6.9-2.31C322.51,362.83,320,357,321.62,353Z" style="fill:#a6c6e9;fill-rule:evenodd"/><g style="opacity:0.36"><g style="opacity:0.1"><path d="M361.58,262.61v3h0c7.66,0,17.08,5,20.08,9.28.43.61,1.11,1.77.8,2.6-6.62,18.12-36.09,74.46-41.93,85.57-.45.86-1.45,1.29-2.95,1.29a9.35,9.35,0,0,1-3.1-.57,22.41,22.41,0,0,0-4-1.29c-.15,0-.72-.22-2.93-1a6.39,6.39,0,0,1-3.19-7.3c9.09-21.53,12.76-32.3,16.31-42.72s7.15-21,16.15-42.32a3.26,3.26,0,0,0,0-2.57,10.79,10.79,0,0,1,4.75-.95v-3m0,0c-3.43,0-6.48.89-8.49,3-.32.35,1.17,1.89,1,2.33-18.09,42.85-14.37,42.17-32.46,85-1.67,3.95.89,9.83,4.93,11.29,5.89,2.14,1,.17,6.9,2.31a12.45,12.45,0,0,0,4.13.75c2.33,0,4.51-.81,5.61-2.9,9.31-17.71,35.8-68.73,42.09-85.94,2.43-6.65-12.65-15.9-23.7-15.9Z" style="fill:#010101"/></g></g><g style="opacity:0.2"><path d="M321.62,353c18.09-42.86,14.37-42.18,32.46-85,.18-.44-1.31-2-1-2.33,8.48-9,35.38,4.16,32.19,12.88-6.28,17.2-32.78,68.22-42.09,85.93-1.75,3.32-6.22,3.42-9.74,2.15-5.89-2.14-1-.17-6.9-2.31C322.51,362.83,320,357,321.62,353Z" style="fill:#010101;fill-rule:evenodd"/></g><rect x="269.49" y="291.41" width="10.45" height="98.93" style="fill:#4a4a56"/><rect x="236.97" y="385.39" width="83.71" height="7.32" style="fill:#4a4a56"/><path d="M237,391.46H246a0,0,0,0,1,0,0v3.3a4.53,4.53,0,0,1-4.53,4.53h0a4.53,4.53,0,0,1-4.53-4.53v-3.3A0,0,0,0,1,237,391.46Z" style="fill:#4a4a56"/><path d="M311.62,391.46h9.05a0,0,0,0,1,0,0v3.3a4.53,4.53,0,0,1-4.53,4.53h0a4.53,4.53,0,0,1-4.53-4.53v-3.3A0,0,0,0,1,311.62,391.46Z" style="fill:#4a4a56"/><path d="M401,345.91c-6,33.4-7.63,41.74-4.41,24.23l-17.2-2.06c.66,17.31-.29,8.43-.61-24.82Z" style="fill:#010101;fill-rule:evenodd;opacity:0.1"/><path d="M403.12,252.66c-20-5.73-71-15.57-91.5-19.3v-.07H246.75a37.73,37.73,0,0,0,.26,10.23c3,28.45,14.82,44.7,41.71,44.7,20.79,0,90.57-9.71,92.3-8.81,1.1.56-4.85,51.35-8.39,101.43-.3,4.25,4.06,6.94,8.32,6.93,6.4,0,6.4,2,12.8,2,3.62,0,5.7-3.78,6.26-7.35,2.75-17.6,17.09-90.14,17.09-112.69C417.1,262.41,413.33,255.58,403.12,252.66Z" style="fill:#a6c6e9;fill-rule:evenodd"/><path d="M267.51,237.53s-11.14,35.58,37,49.2c0,0-36.15,8.64-46.55-11.3a49.71,49.71,0,0,1-9.72-33.72Z" style="fill:#1a1a1e;opacity:0.05"/><g style="opacity:0.05"><path d="M311,236.29l.12,0c17.13,3.12,70.64,13.35,91.22,19.24,7.72,2.21,11.8,7.11,11.8,14.17,0,16.84-8.38,63.43-13.39,91.26-1.67,9.32-3,16.68-3.67,21-.3,1.93-1.43,4.81-3.31,4.81a15.62,15.62,0,0,1-5.49-.86,21.42,21.42,0,0,0-7.3-1.13,6.46,6.46,0,0,1-4.58-1.74,2.52,2.52,0,0,1-.74-2c1.78-25.11,4.19-50.75,6-69.46.87-9.32,1.63-17.37,2.09-23,.76-9.34.87-10.77-1.28-11.88a4.15,4.15,0,0,0-2-.39c-2.73,0-11.69,1-27.29,2.83-22,2.55-52.15,6-64.39,6-23.7,0-35.64-13-38.72-42v-.08l0-.09a35.2,35.2,0,0,1-.43-6.74H311m.66-3H246.75a37.73,37.73,0,0,0,.26,10.23c3,28.45,14.82,44.7,41.71,44.7,19.87,0,84.51-8.87,91.68-8.87a1.82,1.82,0,0,1,.62.06c1.1.56-4.85,51.35-8.39,101.43-.3,4.25,4.06,6.93,8.31,6.93h0c6.37,0,6.39,2,12.76,2h0c3.62,0,5.7-3.78,6.26-7.35,2.75-17.6,17.09-90.14,17.09-112.69,0-7.31-3.77-14.14-14-17.06-20-5.73-71-15.57-91.5-19.3v-.07Z" style="fill:#010101"/></g><ellipse cx="313.19" cy="92.3" rx="28.01" ry="22.2" transform="translate(204.45 400.17) rotate(-86.97)" style="fill:#fbc8a4"/><path d="M332.88,107.33c-3.74,7.39-10.22,12.43-17.75,12.85a49.84,49.84,0,0,1-6.06-3.54l.26,2.94,2.43,27.84-25.5-1.35,9.93-36.71,1-3.75a33.55,33.55,0,0,1-5.79-11.25c0-.49-.07-1-.08-1.51A31.4,31.4,0,0,1,298,72.21c10.4-6.42,28.37-.51,32.44,8.15C333.36,86.68,334.1,98,332.88,107.33Z" style="fill:#fbc8a4;fill-rule:evenodd"/><path d="M332.57,107.54a27.37,27.37,0,0,1-4.27,6.2,20,20,0,0,1-13.47,6.65l-.59,0a17.6,17.6,0,0,1-5.19-.22,23.36,23.36,0,0,1-13.7-10c-2.66-4.2-3.86-10-4.24-15.68,0-.49-.06-1-.08-1.51a31.4,31.4,0,0,1,6.61-20.64,21.62,21.62,0,0,1,9.64-6.92,18.31,18.31,0,0,1,5.48-1c12.41-.34,22.8,11.91,23.21,27.36A32.81,32.81,0,0,1,332.57,107.54Z" style="fill:#010101;fill-rule:evenodd;opacity:0.03"/><path d="M332.88,107.34a27.3,27.3,0,0,1-4.27,6.19,16.62,16.62,0,0,1-8,2.71,3.39,3.39,0,0,1-.55,0,15.4,15.4,0,0,1-4.84-.61c-4.91-1.37-9.2-5-12.18-10.17a33.53,33.53,0,0,1-4.37-15c0-.49-.07-1-.07-1.51-.17-8.06,2.23-15.43,6.22-20.66a23.31,23.31,0,0,1,2.77-3.06,18.31,18.31,0,0,1,5.48-1c12.41-.33,22.8,11.92,23.21,27.36A32.88,32.88,0,0,1,332.88,107.34Z" style="fill:#fbc8a4;fill-rule:evenodd"/><path d="M367.21,200.06l36.24-15.92a85.63,85.63,0,0,1,18.39-14.42c1.76-.56,6.79-.16,3.57,4.55s-8.41,9.23-7.12,10.88,5-.18,6.49,2.51q1.47,2.67-18.86,6.41l-27.14,20.81Zm-146.49,4.38,20.49,4.07q-30.92,57.6-33.15,61.06c-2.93,4.51-.93,12.3.4,17.54a1.82,1.82,0,0,1-2,2.26c-4.59-.85-4.85-7.8-12.79-5.82-8.4,2.08-13.78,6.18-21.61-1-1-.89-1.67-3.66,1.61-5.09,8.19-3.54,20.27-10.18,22.23-12.76Q199.88,259.38,220.72,204.44Z" style="fill:#fbc8a4;fill-rule:evenodd"/><path d="M400.37,201.28c-15.08,16.32-44.62,29.72-63.18,28.36a21.85,21.85,0,0,1-9.8-2.77c-24.6-14.86-32.06-66.62-31.48-97.54a12.9,12.9,0,0,0,10.13,4.9,12.73,12.73,0,0,0,4.46-.8l.11.15c15.1,20.24,23.19,54.57,34.43,59.77,11.87,5.5,28,2.06,48-5.12C400.34,190,402.92,194.24,400.37,201.28Z" style="fill:#f26522;fill-rule:evenodd"/><path d="M400.37,201.41c-15.08,16.32-44.62,29.72-63.18,28.36a21.85,21.85,0,0,1-9.8-2.77c-24.6-14.86-32.06-66.62-31.48-97.54a12.9,12.9,0,0,0,10.13,4.9,12.73,12.73,0,0,0,4.46-.8l.11.15C325.71,154,333.8,188.28,345,193.48c11.87,5.5,28,2.06,48-5.12C400.34,190.17,402.92,194.37,400.37,201.41Z" style="fill:#010101;fill-rule:evenodd;opacity:0.2"/><g style="opacity:0.1"><path d="M298.9,135.55a16,16,0,0,0,7.14,1.68,15.51,15.51,0,0,0,3.27-.34c6.11,8.69,11.17,20,15.65,29.94,6.5,14.48,11.64,25.92,18.82,29.24a34.7,34.7,0,0,0,14.91,3c8.87,0,19.54-2.37,34.51-7.69,2.4.72,4,1.73,4.66,3s.62,3-.12,5.32c-13.88,14.7-40.22,27-57.86,27-.85,0-1.68,0-2.47-.08a19,19,0,0,1-8.47-2.35c-21.58-13-29.56-58-30-88.75m-3-6.22c-.58,30.92,6.88,82.68,31.48,97.54a21.85,21.85,0,0,0,9.8,2.77c.87.06,1.77.09,2.69.09,18.61,0,46.12-12.9,60.49-28.45,2.55-7,0-11.24-7.3-13.05-13.17,4.73-24.67,7.83-34.38,7.83A32.07,32.07,0,0,1,345,193.35c-11.24-5.2-19.33-39.53-34.43-59.77l-.11-.15a12.73,12.73,0,0,1-4.46.8,12.9,12.9,0,0,1-10.13-4.9Z" style="fill:#010101"/></g><path d="M332.42,237.44c-5.78,0-9.31-.2-17.26-.44-14.49-.46-32.72-1.1-55.11-1.1,3.37-45.33,8.85-78.67,24.46-106.81.4-.73.81-1.45,1.23-2.17l9.79,2a.65.65,0,0,0,0-.13l.05.07,0,.07h0v0a3.91,3.91,0,0,0,.3.41,12.9,12.9,0,0,0,10.13,4.9,12.73,12.73,0,0,0,4.46-.8l.1,0c0,.06,0,.12,0,.18,2.42,38,17.71,68,23.16,95.46,0,.18.08.39.12.6C334.49,232.4,335.67,237.44,332.42,237.44Z" style="fill:#f4f4f6;fill-rule:evenodd"/><g style="opacity:0.03"><path d="M286.76,129.16l7.49,1.51.12.23h.24A14.86,14.86,0,0,0,306,136.23a15.6,15.6,0,0,0,2.74-.25c1.81,23.25,8.36,43.76,14.17,61.92,3.53,11,6.87,21.5,8.87,31.57,0,.17.07.35.11.54v.05l0,.21c.62,2.84.79,4.58.5,5.17h-.06c-4.09,0-7.11-.1-11.29-.25l-5.9-.19-3.19-.1c-13.41-.43-30-1-49.83-1,3.31-43.37,8.6-76,24.06-103.85l.49-.89m-1-2.24c-.42.72-.83,1.44-1.23,2.17-15.61,28.14-21.09,61.48-24.46,106.81,22.39,0,40.62.64,55.11,1.1,7.95.24,11.48.44,17.26.44,3.25,0,2.07-5,1.47-7.8,0-.21-.08-.42-.12-.6-5.45-27.47-20.74-57.49-23.16-95.46,0-.06,0-.12,0-.18l-.1,0a12.73,12.73,0,0,1-4.46.8,12.9,12.9,0,0,1-10.13-4.9,3.91,3.91,0,0,1-.3-.41v0h0l0-.07-.05-.07a.65.65,0,0,1,0,.13l-9.79-2Z"/></g><path d="M315.16,237a88.81,88.81,0,0,1-.9,10.1s0,.07,0,.1a51.21,51.21,0,0,1-2.88,11.2c-33.08,9.56-35.45,6.18-68.91-1.93A170.6,170.6,0,0,1,246,232.13c.67-3.19,1.42-6.39,2.23-9.61,1.25-5,2.63-10,4.08-15.15-4.28,7.72-8.7,14.88-13.08,21.46-7.53,11.32-14.93,20.94-21.32,28.75-3.43,4.21-6.57,7.89-9.27,11-7.72,2.67-13.42.2-13.42-4.24q2-12.39,5-23.9a.13.13,0,0,1,0-.06C213.58,190,240.94,153.53,283.56,128c.64-.38,12,.88,12,.88q8.73,30.36,13.66,54.52h0q3,14.54,4.48,26.78A172.52,172.52,0,0,1,315.16,237Z" style="fill:#f26522;fill-rule:evenodd"/><g style="opacity:0.1"><path d="M284.51,130.94c1.74,0,5.88.42,8.7.72,5.52,19.35,9.89,36.85,13,52.05h0l.07.3c1.94,9.54,3.44,18.47,4.44,26.55a171.13,171.13,0,0,1,1.47,26.32,89.71,89.71,0,0,1-.84,9.58v0l0,.26a51.12,51.12,0,0,1-2.2,9.18c-13.45,3.84-21.16,5.28-28.12,5.28-7.58,0-14.47-1.76-25.87-4.67-2.83-.72-6-1.52-9.45-2.38a171.45,171.45,0,0,1,3.29-21.41c.63-3,1.35-6.11,2.2-9.5,1.08-4.28,2.33-8.93,4.06-15.07l7-24.85-12.52,22.58c-3.94,7.12-8.3,14.27-13,21.26-6.39,9.6-13.31,18.93-21.15,28.51-3.17,3.89-6.12,7.36-8.67,10.35a15.41,15.41,0,0,1-4.29.69c-2.11,0-4.24-.67-4.4-2.16,1.31-8,3-15.88,4.94-23.31l.1-.38v0c13-48.8,39.56-84.76,81.25-109.91m-.19-3a2.28,2.28,0,0,0-.76.07c-42.62,25.52-70,62-83.29,112.41a.13.13,0,0,0,0,.06q-3.06,11.52-5,23.9c0,3.18,2.92,5.34,7.41,5.34a18.51,18.51,0,0,0,6-1.1c2.7-3.15,5.84-6.83,9.27-11,6.39-7.81,13.79-17.43,21.32-28.75,4.38-6.58,8.8-13.74,13.08-21.46-1.45,5.14-2.83,10.17-4.08,15.15-.81,3.22-1.56,6.42-2.23,9.61a170.6,170.6,0,0,0-3.54,24.34c19.17,4.64,28.13,7.74,38.51,7.74,7.74,0,16.27-1.73,30.4-5.81a51.21,51.21,0,0,0,2.88-11.2s0-.07,0-.1a88.81,88.81,0,0,0,.9-10.1,172.52,172.52,0,0,0-1.49-26.8q-1.51-12.25-4.48-26.78h0q-4.9-24.15-13.66-54.52s-8.55-.95-11.21-.95Z"/></g><path d="M333.37,80s-21.64-2.68-33.23,11.66c0,0,2.42-10.32,12.17-14.84,0,0-18.45,7.56-20.4,24.25,0,0-7.77-2.52-.64-21,5.17-13.39,19.67-23.79,33.94-17.94.43.17.86.36,1.3.57,17.4,8.14,13.05,29.82,8.59,38.92A61.5,61.5,0,0,0,333.37,80Z" style="fill:#19191d;fill-rule:evenodd"/><path d="M290.29,93.46s-8.39-25.31,8.59-29.8A16.49,16.49,0,0,0,307.25,58c2.74-3.34,8.44-6.54,20.05-3.09,0,0,22.88,8.6,11.13,24,0,0-35.54-5.45-44,5.89Z" style="fill:#19191d;fill-rule:evenodd"/><path d="M309.19,183.42h0l-23.26-33.12,9.3-9-10.72-12.2-.95-1.08-1.63-1.86,3.55.71c.14-.08.32,0,.26.06l9.79,2a.65.65,0,0,0,0-.13,1.8,1.8,0,0,0-.06-.22,1,1,0,0,1,.11.29.09.09,0,0,1,0,.06,4.56,4.56,0,0,1,.18.52c.11.35.22.72.33,1.09l.8,2.68c.1.31.19.63.28,1l.39,1.33c.13.46.27.92.41,1.39,1.5,5.18,3.24,11.42,5,18.11.23.93.47,1.87.71,2.82.85,3.39,1.69,6.87,2.48,10.37.14.64.29,1.28.43,1.93,1,4.48,1.9,9,2.66,13.34Z" style="fill:#f26522;fill-rule:evenodd"/><path d="M309.32,183.42h0l-25.88-34.88,11.92-7.24-10.72-12.2-.95-1.08-1.63-1.86,3.55.71.26.06,9.79,2h.07v0c0,.16.09.32.14.49.11.35.22.72.33,1.09.34,1.12.71,2.34,1.08,3.64l.39,1.33c.13.46.27.92.41,1.39,1.5,5.18,3.24,11.42,5,18.11.23.93.47,1.87.71,2.82.85,3.39,1.69,6.87,2.48,10.37.14.64.29,1.28.43,1.93,1,4.48,1.9,9,2.66,13.34Z" style="fill:#010101;fill-rule:evenodd;opacity:0.1"/><path d="M321.22,181.05l3.29-35.84-9.28-5,4.28-6.72-8.91-.06S309.47,145.43,321.22,181.05Z" style="fill:#f26522;fill-rule:evenodd"/><path d="M321.35,181.05l3.29-35.84-9.28-5,4.28-6.72-8.91-.06S309.6,145.43,321.35,181.05Z" style="fill:#010101;fill-rule:evenodd;opacity:0.15"/><path d="M439.38,402H373.07c-.36-2.07-.62-3.89-.81-5.46a37,37,0,0,1-.24-3.82c0-1.75.65-4.37,2-7.89a1.56,1.56,0,0,1,.06-.15,2.35,2.35,0,0,1,2.14-1.36,2.43,2.43,0,0,1,1,.21q4.62,2.1,7.24,2.1c2.14,0,4.94-.8,8.37-2.4l2-4.81v0a1.16,1.16,0,0,1,1.55-.6l30.83,13.75c2.44.36,5.53.77,9.24,1.22a3.89,3.89,0,0,1,3.76,3.77A14.38,14.38,0,0,1,439.38,402Z" style="fill:#31313a;fill-rule:evenodd"/><path d="M439.38,402H373.07c-.36-2.07-.62-3.89-.81-5.46h67.9A14.38,14.38,0,0,1,439.38,402Z" style="fill:#606072;fill-rule:evenodd"/><path d="M367.07,402.71l-56-35.45c.79-1.95,1.55-3.62,2.23-5.05a36.4,36.4,0,0,1,1.83-3.36c.94-1.48,2.89-3.34,5.89-5.61l.13-.1a2.38,2.38,0,0,1,2.54,0,2.66,2.66,0,0,1,.71.71c1.85,2.82,3.51,4.71,5,5.65,1.81,1.14,4.6,2,8.36,2.44l4.25-3h0a1.16,1.16,0,0,1,1.63.32l18.71,28.1c1.87,1.61,4.26,3.61,7.15,6a3.89,3.89,0,0,1,1.17,5.2A14.36,14.36,0,0,1,367.07,402.71Z" style="fill:#31313a;fill-rule:evenodd"/><path d="M367.07,402.71l-56-35.45c.79-1.95,1.55-3.62,2.23-5.05l57.38,36.3A14.36,14.36,0,0,1,367.07,402.71Z" style="fill:#606072;fill-rule:evenodd"/></svg>