<svg xmlns="http://www.w3.org/2000/svg" viewBox="0 0 159.82 132.23"><title>phone interview</title><path d="M149.82,14.38a41.31,41.31,0,0,0-64,1.72,7.62,7.62,0,0,1-9.25,2.19A48.27,48.27,0,1,0,36,105.92a45.84,45.84,0,0,0,5.77,2.23,37.72,37.72,0,0,1,16.87,11l.25.28a39.22,39.22,0,0,0,67.84-31.95,6.06,6.06,0,0,1,4.13-6.64,41.38,41.38,0,0,0,19-66.42Z" style="fill:#f0f0f2"/><path d="M79.8,13.52a4.4,4.4,0,1,0-4.39-4.4h0A4.39,4.39,0,0,0,79.8,13.52Zm0-8.13a3.74,3.74,0,1,1-3.73,3.73h0A3.73,3.73,0,0,1,79.8,5.39Z" style="fill:#f0f0f2"/><path d="M73.68,5.06a2.37,2.37,0,1,0-2.37-2.37,2.37,2.37,0,0,0,2.37,2.37Zm0-4.06A1.7,1.7,0,1,1,72,2.69,1.7,1.7,0,0,1,73.68,1Z" style="fill:#f0f0f2"/><path d="M136.36,86.42a4.4,4.4,0,1,0,4.4,4.4A4.39,4.39,0,0,0,136.36,86.42Zm0,8.13a3.74,3.74,0,1,1,3.73-3.74h0a3.74,3.74,0,0,1-3.73,3.74Z" style="fill:#f0f0f2"/><path d="M4.39,82.46a4.39,4.39,0,1,0,4.4,4.39,4.39,4.39,0,0,0-4.4-4.39Zm0,8.12a3.74,3.74,0,1,1,3.74-3.73h0A3.74,3.74,0,0,1,4.39,90.58Z" style="fill:#f0f0f2"/><path d="M140.85,81.53a2.37,2.37,0,1,0,2.37,2.37,2.36,2.36,0,0,0-2.37-2.37Zm0,4.07a1.7,1.7,0,1,1,1.7-1.7h0a1.7,1.7,0,0,1-1.7,1.7Z" style="fill:#f0f0f2"/><path d="M154.18,11.48a2.37,2.37,0,1,0-2.36-2.36,2.36,2.36,0,0,0,2.36,2.36Zm0-4.06a1.7,1.7,0,1,1-1.69,1.7h0a1.7,1.7,0,0,1,1.69-1.7Z" style="fill:#f0f0f2"/><path d="M46.36,111.6A2.37,2.37,0,1,0,48.73,114a2.37,2.37,0,0,0-2.37-2.37Zm0,4.06a1.7,1.7,0,1,1,1.7-1.7h0a1.71,1.71,0,0,1-1.7,1.7Z" style="fill:#f0f0f2"/><rect x="39.15" y="10.39" width="66" height="115" rx="6" style="fill:#fff"/><circle cx="72.15" cy="118.39" r="4" style="fill:#dfe0e5"/><rect x="39.15" y="22.39" width="66" height="86" rx="2" style="fill:#dfe0e5"/><path d="M82.15,16.39h-16a1,1,0,0,1,0-2h16a1,1,0,0,1,0,2Z" style="fill:#9393a3"/><circle cx="62.27" cy="15.39" r="1" style="fill:#9393a3"/><path d="M105.15,59.39V41.85L39.49,107.51a2,2,0,0,0,1.66.88h15Z" style="fill:#fff"/><polygon points="39.15 99.52 105.15 33.52 105.15 26.45 39.15 92.45 39.15 99.52" style="fill:#fff"/><path d="M99.15,8.39h-54a8,8,0,0,0-8,8v103a8,8,0,0,0,8,8h54a8,8,0,0,0,8-8v-103A8,8,0,0,0,99.15,8.39Zm-60,8a6,6,0,0,1,6-6h54a6,6,0,0,1,6,6v4.54a4,4,0,0,0-2-.54h-62a4,4,0,0,0-2,.54Zm0,8a2,2,0,0,1,2-2h62a2,2,0,0,1,2,2v82a2,2,0,0,1-2,2h-62a2,2,0,0,1-2-2Zm66,95a6,6,0,0,1-6,6h-54a6,6,0,0,1-6-6v-9.54a4,4,0,0,0,2,.54h62a4,4,0,0,0,2-.54Z" style="fill:#9393a3"/><path d="M72.15,114.39a4,4,0,1,1-4,4,4,4,0,0,1,4-4m0-2a6,6,0,1,0,6,6,6,6,0,0,0-6-6Z" style="fill:#9393a3"/><rect x="95.15" y="50.39" width="46" height="63" transform="translate(24.13 -26.85) rotate(14.43)" style="fill:#3b75ba"/><g style="opacity:0.30000000000000004"><path d="M104.44,46.87l42.61,11-15.2,59.08L89.24,106l15.2-59.08m-.72-1.22-.25,1L88.27,105.7l-.25,1,1,.25,42.61,11,1,.25.25-1L148,58.08l.25-1-1-.25-42.61-11-1-.25Z"/></g><path d="M123.26,63.28a7.71,7.71,0,0,0-4,0l.41,1.94a6.32,6.32,0,0,1,2.88-.08,2,2,0,0,1,1,.54.92.92,0,0,1,.17.87,1.41,1.41,0,0,1-.47.76A5.29,5.29,0,0,1,122,68a4.29,4.29,0,0,0-1.48.89,2.62,2.62,0,0,0-.66,1.22l-.15.58,2.07.54.13-.47a1.35,1.35,0,0,1,.39-.71,4.55,4.55,0,0,1,1.17-.6,5.73,5.73,0,0,0,1.85-1,2.88,2.88,0,0,0,.78-1.39,2.65,2.65,0,0,0-.42-2.32A4.07,4.07,0,0,0,123.26,63.28Z" style="fill:#fff;opacity:0.5"/><path d="M120.44,72.33a1.51,1.51,0,0,0-1.11.07,1.63,1.63,0,0,0-.51,2,1.52,1.52,0,0,0,.93.61,1.45,1.45,0,0,0,1.1-.1,1.35,1.35,0,0,0,.61-.88,1.38,1.38,0,0,0-.1-1.09A1.45,1.45,0,0,0,120.44,72.33Z" style="fill:#fff;opacity:0.5"/><path d="M104.44,46.87,89.24,106l42.61,11,15.2-59.08Zm22.85,63.7-31-8,1-3.88,31,8Zm2-7.75-31-8,1-3.87,31,8Zm2-7.74-31-8,1-3.87,31,8ZM118.75,81.53a17.68,17.68,0,0,1-6.46-3.13l-6.61-.23,1.93-5.7a11.44,11.44,0,0,1-.63-7.39c1.79-7,10-10.86,18.25-8.73S138.79,65.85,137,72.8,127,83.66,118.75,81.53Z" style="fill:#fff;opacity:0.5"/></svg>