<svg xmlns="http://www.w3.org/2000/svg" viewBox="0 0 159.82 133.23"><title>FMLA</title><path d="M149.82,14.38a41.31,41.31,0,0,0-64,1.72,7.62,7.62,0,0,1-9.25,2.19A48.27,48.27,0,1,0,36,105.92a45.84,45.84,0,0,0,5.77,2.23,37.72,37.72,0,0,1,16.87,11l.25.28a39.22,39.22,0,0,0,67.84-31.95,6.06,6.06,0,0,1,4.13-6.64,41.38,41.38,0,0,0,19-66.42Z" style="fill:#f0f0f2"/><path d="M79.8,13.52a4.4,4.4,0,1,0-4.39-4.4h0A4.39,4.39,0,0,0,79.8,13.52Zm0-8.13a3.74,3.74,0,1,1-3.73,3.73h0A3.73,3.73,0,0,1,79.8,5.39Z" style="fill:#f0f0f2"/><path d="M73.68,5.06a2.37,2.37,0,1,0-2.37-2.37,2.37,2.37,0,0,0,2.37,2.37Zm0-4.06A1.7,1.7,0,1,1,72,2.69,1.7,1.7,0,0,1,73.68,1Z" style="fill:#f0f0f2"/><path d="M136.36,86.42a4.4,4.4,0,1,0,4.4,4.4A4.39,4.39,0,0,0,136.36,86.42Zm0,8.13a3.74,3.74,0,1,1,3.73-3.74h0a3.74,3.74,0,0,1-3.73,3.74Z" style="fill:#f0f0f2"/><path d="M4.39,82.46a4.39,4.39,0,1,0,4.4,4.39,4.39,4.39,0,0,0-4.4-4.39Zm0,8.12a3.74,3.74,0,1,1,3.74-3.73h0A3.74,3.74,0,0,1,4.39,90.58Z" style="fill:#f0f0f2"/><path d="M140.85,81.53a2.37,2.37,0,1,0,2.37,2.37,2.36,2.36,0,0,0-2.37-2.37Zm0,4.07a1.7,1.7,0,1,1,1.7-1.7h0a1.7,1.7,0,0,1-1.7,1.7Z" style="fill:#f0f0f2"/><path d="M154.18,11.48a2.37,2.37,0,1,0-2.36-2.36,2.36,2.36,0,0,0,2.36,2.36Zm0-4.06a1.7,1.7,0,1,1-1.69,1.7h0a1.7,1.7,0,0,1,1.69-1.7Z" style="fill:#f0f0f2"/><path d="M46.36,111.6A2.37,2.37,0,1,0,48.73,114a2.37,2.37,0,0,0-2.37-2.37Zm0,4.06a1.7,1.7,0,1,1,1.7-1.7h0a1.71,1.71,0,0,1-1.7,1.7Z" style="fill:#f0f0f2"/><path d="M75.2,27.65l-.93,6.82s5.56,7-4.47,10c0,0-1.88,7.89-6.32,10.81l.6,6.19L85,69.73l4.9,4.08,2.49,9.11V96.81l-.25,20s.6,2.32-8,1.94-62.42-.35-62.42-.35-2.63.08-2.28-4.94S18.3,82.88,20.15,77,30.9,68.18,30.9,68.18l14.31-5.51,2.86-1.24V56.1L47.62,55l-3.09-2.75-3.4-7.92.52-16.41,20.93-5.67Z" style="fill:#fff"/><path d="M45.79,30.75s11.75-.61,18.46-5.33L69,31.09,70.2,33l3.58.67.61.67V23.52S73.79,12,58.06,8.77c0,0-14.53-.81-19,10.54S37.51,34,37.51,34,43.41,30.57,45.79,30.75Z" style="fill:#dfe0e5"/><path d="M47.74,30.27a21.13,21.13,0,0,1-4.29-16.44s-6.73,5-6.73,13.43c0,6.72,1.4,8.36,1.4,8.36h8.41Z" style="fill:#bebec6"/><path d="M59.94,57.12c-7.65-1.57-12-8.32-12-16.44l-.38-9.42c-1,.34-4.28-.51-4.9-.17C40.51,32.28,40.73,33,40.73,33l-2.66.92h0a2.6,2.6,0,0,0-.56.06,3.54,3.54,0,0,0-2.74,3.54v1.22a3.53,3.53,0,0,0,2.68,3.51c.33.07,1.52,1.27,1.82,1.24.83-.06,2.17-.64,2.32.17,1.42,7.85,6.77,13.78,15,13.78A16.15,16.15,0,0,0,59.94,57.12Z" style="fill:#dfe0e5"/><path d="M70.2,64.71,64.45,76.23,57,70.94l7-8.63ZM55.89,69.86l-7.1-8.76V56.39l1.22.49A15.75,15.75,0,0,0,55.92,58a14.6,14.6,0,0,0,5.83-1.21L63,56.25v4.87ZM75.48,38.4a4.59,4.59,0,0,1-1.59,3.48A4.8,4.8,0,0,1,71.55,43l-1,.17V33.68l1,.16a4.62,4.62,0,0,1,3.93,4.57ZM40.92,43.13l-1-.16A4.64,4.64,0,0,1,36,38.41a4.82,4.82,0,0,1,3.88-4.47l1.08-.24ZM41,31.65l-.15.59-.6.07a7.45,7.45,0,0,0-1.4.31l-1.16.4V27.7a18.06,18.06,0,1,1,36.11-.24v5.41l-1.14-.35a6.58,6.58,0,0,0-1.31-.25l-.81-.07v-.81c0-1,0-1-2.89-4.08-.57-.61-1.26-1.34-2.07-2.22a2.07,2.07,0,0,0-2.63-.32,32.74,32.74,0,0,1-19.8,5.33A2.07,2.07,0,0,0,41,31.65ZM42.46,43.4V31.61l.93.05a34.44,34.44,0,0,0,20.13-5.43l.62-.4.5.54,2,2.2c1.16,1.23,1.8,1.91,2.1,2.28l.2.24V43.4a13.26,13.26,0,0,1-26.52,0Zm5.72,32.24-.84.6L41.59,64.71l6.19-2.4,7,8.64L53.25,72l-5.07,3.61Zm3.19-.38,4.52-3.21,4.53,3.21-2,3H53.36Zm-2.75,34,5-29.42h4.59l5,29.42-7.28,8ZM92.26,94.56a.77.77,0,0,0-.77.77v20.48a1.79,1.79,0,0,1-1.79,1.79H79.94V103.78a.81.81,0,0,0-.62-.8.78.78,0,0,0-.91.61.77.77,0,0,0,0,.15V117.6H57.63l6.53-7.18a2.09,2.09,0,0,0,.5-1.66l-5-29.55,2-3.06,1,.7a2.51,2.51,0,0,0,1.62.69,2,2,0,0,0,1.8-1.11l5.57-11.16,12.65,4.9a12.5,12.5,0,0,1,3.11,2.07.78.78,0,0,0,1.1-.06l0,0h0a.77.77,0,0,0-.09-1.06,14.12,14.12,0,0,0-3.58-2.35L64.53,60.86V55.19l.34-.27a14.49,14.49,0,0,0,5.53-9.6l.09-.71.72,0a6.29,6.29,0,0,0,3.69-1.51,6.13,6.13,0,0,0,.64-8.65h0l-.21-.25V28a19.6,19.6,0,0,0-39.2-.5v6.81l-.22.25a5.73,5.73,0,0,0-1.48,3.84,6.06,6.06,0,0,0,2.13,4.64,6.26,6.26,0,0,0,3.68,1.51l.72,0,.09.71a14.51,14.51,0,0,0,5.84,9.83l.37.27v5.44L27,68.73a13.82,13.82,0,0,0-8.18,12.65v34.43a3.33,3.33,0,0,0,3.33,3.33H37.85a.78.78,0,0,0,.77-.77.44.44,0,0,0,0-.16.79.79,0,0,0-.79-.61h-4.4V84.21A.77.77,0,0,0,31.88,84a.76.76,0,0,0,0,.15V117.6H22.1a1.79,1.79,0,0,1-1.79-1.79V81.38a12.41,12.41,0,0,1,7.2-11.21h0l12.61-4.89,5.57,11.16a2,2,0,0,0,1.8,1.11,2.48,2.48,0,0,0,1.63-.69l1-.69,2,3-5,29.56a2.08,2.08,0,0,0,.5,1.65l6.53,7.18H45.55a.78.78,0,0,0,0,1.55H89.7A3.36,3.36,0,0,0,93,115.81V95.33a.78.78,0,0,0-.77-.77Z" style="fill:#9393a3"/><rect x="36.71" y="117.6" width="9.13" height="1.53" style="fill:#9393a3"/><path d="M91.48,103.7c0-.15-.17-14.56-.08-21.89.09-7.94-5.1-10.63-6.69-11.27-3-1.19-5-2.15-5-2.15L80.44,67a40.27,40.27,0,0,0,4.87,2.08c1.85.74,7.7,3.74,7.6,12.79-.09,7.31.1,21.9.1,22Z" style="fill:#9393a3"/><rect x="78.4" y="82.44" width="1.53" height="24.05" rx="0.77" style="fill:#9393a3"/><rect x="90.18" y="10.8" width="37.19" height="74.55" rx="18.6" style="fill:#dfe0e5;stroke:#9393a3;stroke-miterlimit:10;stroke-width:1.5px"/><path d="M102,22.88s-4.08-8.43-2-9.62a25.22,25.22,0,0,0-8.26,8.09L90,28.16V67.82l11.92-5.71,1.19-4.42V54Z" style="fill:#bebec6"/><rect x="90.18" y="10.8" width="37.19" height="74.55" rx="18.6" style="fill:none;stroke:#9393a3;stroke-miterlimit:10;stroke-width:1.5px"/><polygon points="103.21 54.28 109.08 55.31 114.36 54.11 114.36 59.65 116.57 63.39 135.63 70.28 139.8 73.01 140.31 79.82 140.31 114.2 140.06 118.2 135.8 118.88 79.21 118.28 76.65 117.35 76.31 114.03 76.48 75.48 77.67 72.41 81.08 69.94 98.87 63.73 102.61 61.09 103.72 58.37 103.21 54.28" style="fill:#fff"/><path d="M122.94,64.81c-1.73-.6-6.43-2.49-7.43-4.11s-.88-5.25-.75-6.51l.09-.83H103.12v0h-1l.09.83c.13,1.26.26,4.88-.75,6.51s-5.7,3.52-7.43,4.11l-1.33.45,15.82,12.09,15.7-12.13ZM108.47,75.44,95.85,65.79c2.05-.8,5.82-2.46,6.93-4.26s1.11-5.1,1-6.63h9.41c-.09,1.54-.1,4.77,1,6.58s4.87,3.47,6.93,4.27Z" style="fill:#9393a3"/><line x1="108.37" y1="77.25" x2="108.48" y2="77.33" style="fill:#9393a3"/><path d="M141.18,116.31a2.94,2.94,0,0,1-2.93,2.93h0l-28.87-.06h-1.81l-28.88.06a2.94,2.94,0,0,1-2.94-2.93c0-6.22,0-37.37.07-40,.07-3.36,2-5.76,5.72-7.14C85,67.89,94.8,64.61,94.9,64.58L95.37,66c-.1,0-9.92,3.3-13.32,4.56-3.13,1.16-4.68,3-4.74,5.76s-.07,33.77-.07,40a1.43,1.43,0,0,0,1.44,1.43l28.88-.06h1.81l28.87.06h0a1.43,1.43,0,0,0,1.43-1.43c0-6.22,0-37.35-.06-40s-1.61-4.6-4.75-5.76C131.48,69.3,121.65,66,121.55,66l.48-1.42c.1,0,9.94,3.31,13.36,4.57,3.73,1.38,5.65,3.78,5.73,7.14C141.17,78.94,141.18,110.09,141.18,116.31Z" style="fill:#9393a3"/><polygon points="95.04 31.14 94.87 26.45 97.33 22.88 100.99 23.14 108.23 27.05 116.65 30.03 122.87 30.11 123.12 32.33 126.87 33.94 128.14 36.33 128.14 38.54 126.78 40.92 124.06 42.63 122.87 42.45 120.23 49.18 115.55 53.43 113.84 54.63 109.08 55.31 102.44 53.6 96.57 48.84 94.78 43.31 95.04 31.14" style="fill:#fff"/><polygon points="94.69 32.33 90.87 34.03 89.84 38.28 91.55 41.35 94.87 42.63 94.69 32.33" style="fill:#dfe0e5"/><path d="M101.67,24.41V36c0,6.72,3.49,18.29,10,18.29a12.7,12.7,0,0,1-5.79.34l-3.4-1-5-3.91-2.64-6.38L95,27.48l1.27-3.58,3.07-1.28,2.29.43v1.36Z" style="fill:#dfe0e5"/><path d="M123.53,31.74V30.51l-.06-.6c-.18-.46-.57-.48-1-.48h-.08A29.7,29.7,0,0,1,109.9,27,59.68,59.68,0,0,1,104,23.81c-2.07-1.23-3.34-2-5-1.85-3.06.21-5,3.44-5,8.24v1.56a5.77,5.77,0,0,0,.17,11.43,14.79,14.79,0,0,0,29.23,0,5.77,5.77,0,0,0,.18-11.47ZM90.38,37.46A4.43,4.43,0,0,1,94,33.12v7.8q0,.45,0,.9A4.44,4.44,0,0,1,90.38,37.46ZM122,40.92a13.29,13.29,0,0,1-26.58,0V30.2c0-3.95,1.43-6.59,3.64-6.74h.21c1.12,0,2.14.6,3.92,1.65a60.48,60.48,0,0,0,6.06,3.22A31,31,0,0,0,122,30.93Zm1.47.93q0-.47,0-.93V33.09a4.43,4.43,0,0,1,0,8.76Z" style="fill:#9393a3"/><line x1="89.42" y1="86.28" x2="89.42" y2="117.86" style="fill:none;stroke:#9393a3;stroke-linecap:round;stroke-miterlimit:10;stroke-width:1.5px"/><line x1="128.06" y1="86.28" x2="128.06" y2="117.86" style="fill:none;stroke:#9393a3;stroke-linecap:round;stroke-miterlimit:10;stroke-width:1.5px"/><path d="M82.91,89.5h0c-10.23,0-16.59,2.63-16.59-5.6V64.54c0-12.23,6.36-19.6,16.59-19.6h0c10.23,0,16.6,7.37,16.6,19.6V83.9C99.51,92.13,93.14,89.5,82.91,89.5Z" style="fill:#dfe0e5;stroke:#9393a3;stroke-miterlimit:10;stroke-width:1.5px"/><path d="M76.15,60s-4-10.84-1.89-12a13.2,13.2,0,0,0-6.33,8.5l-1.78,7.74.76,23.26,2.3,2.14,6.09.25,2-2V86.18Z" style="fill:#bebec6"/><path d="M82.91,89.5h0c-10.23,0-16.59,2.63-16.59-5.6V63.54c0-12.23,6.36-18.6,16.59-18.6h0c10.23,0,16.6,6.37,16.6,18.6V82.9C99.51,91.13,93.14,89.5,82.91,89.5Z" style="fill:none;stroke:#9393a3;stroke-miterlimit:10;stroke-width:1.5px"/><polygon points="77.34 81.43 83.21 82.46 88.48 81.26 88.48 86.8 90.7 90.54 103.76 95.43 107.93 100.16 108.44 106.97 108.44 121.35 108.19 125.35 103.93 126.03 59.34 125.43 56.78 124.5 56.44 121.18 56.61 102.63 57.8 99.56 61.21 96.09 73 90.88 76.74 88.24 77.85 85.52 77.34 81.43" style="fill:#fff"/><path d="M97.07,92c-1.73-.6-6.43-2.49-7.43-4.11s-.88-5.25-.75-6.51l.09-.83H77.25v0h-1l.09.83c.13,1.26.26,4.88-.75,6.51S69.93,91.41,68.2,92l-.87.71,3.32,2.63a19.72,19.72,0,0,0,24-.06l3.53-2.57ZM70.63,93.44l-.65-.5c2-.8,5.82-2.46,6.93-4.26s1.11-5.1,1-6.63h9.41c-.09,1.54-.1,4.77,1,6.58s4.87,3.47,6.93,4.27l-.72.55A19.71,19.71,0,0,1,70.63,93.44Z" style="fill:#9393a3"/><line x1="82.5" y1="104.4" x2="82.61" y2="104.48" style="fill:#9393a3"/><path d="M109.31,123.46a2.94,2.94,0,0,1-2.93,2.93h0l-22.87-.06H81.69l-22.88.06a2.94,2.94,0,0,1-2.94-2.93c0-6.22,0-17.37.07-20,.07-3.36,1-6.76,4.72-8.14C64.08,94,68.93,91.76,69,91.73l.47,1.42c-.1,0-4.92,2.3-8.32,3.56-3.13,1.16-3.68,4-3.74,6.76s-.07,13.77-.07,20a1.43,1.43,0,0,0,1.44,1.43l22.88-.06H83.5l22.87.06h0a1.43,1.43,0,0,0,1.43-1.43c0-6.22,0-17.35-.06-20s-.61-5.6-3.75-6.76c-3.39-1.26-8.22-3.52-8.32-3.56l.48-1.42c.1,0,4.94,2.31,8.36,3.57,3.73,1.38,4.65,4.78,4.73,8.14C109.3,106.09,109.31,117.24,109.31,123.46Z" style="fill:#9393a3"/><polygon points="71.17 65.28 71 60.6 73.46 57.03 75.12 57.28 82.36 61.2 90.78 64.18 95 64.26 95.25 65.48 99 67.09 100.27 69.48 100.27 71.69 98.91 74.07 96.19 75.78 95 75.6 93.31 80.38 89.68 82.58 87.97 83.78 83.21 84.46 76.57 82.75 72.7 77.99 70.91 76.46 71.17 65.28" style="fill:#fff"/><polygon points="70.83 65.48 67 67.18 65.97 71.43 67.68 74.5 71 75.78 70.83 65.48" style="fill:#dfe0e5"/><path d="M75.8,58.56V69.14c0,6.72,3.49,14.29,10,14.29a12.7,12.7,0,0,1-5.79.34l-3.4-1-3.21-2.21-2.45-4.08.26-14.83.18-4.34,2.16-.52,2.29.43v1.36Z" style="fill:#dfe0e5"/><path d="M95.66,64.89v-.23l-.06-.6c-.18-.46-.57-.48-1-.48H94.5A19.91,19.91,0,0,1,84,61.11,59.68,59.68,0,0,1,78.11,58c-2.07-1.23-3.34-2-5-1.85-3.06.21-3,3.44-3,8.24v.56a5.77,5.77,0,0,0,.17,11.43c.92,4,5.23,8.52,12.62,8.52s11.75-3.55,12.61-8.5a5.77,5.77,0,0,0,.18-11.47ZM66.51,70.61a4.43,4.43,0,0,1,3.57-4.34v7.8q0,.45,0,.9A4.44,4.44,0,0,1,66.51,70.61Zm27.65,3.46c.08,5.1-4,9.29-11.29,9.29s-10.83-5-11.29-9.29V64.35c0-3.95-.57-6.59,1.64-6.74h.21c1.12,0,2.14.6,3.92,1.65a60.48,60.48,0,0,0,6.06,3.22,21,21,0,0,0,10.75,2.61Zm1.47.93q0-.47,0-.93V66.24a4.43,4.43,0,0,1,0,8.76Z" style="fill:#9393a3"/><line x1="67.55" y1="109.43" x2="67.55" y2="125.01" style="fill:none;stroke:#9393a3;stroke-linecap:round;stroke-miterlimit:10;stroke-width:1.5px"/><line x1="98.19" y1="109.43" x2="98.19" y2="125.01" style="fill:none;stroke:#9393a3;stroke-linecap:round;stroke-miterlimit:10;stroke-width:1.5px"/><path d="M108,115.18s-1,1.09-6,1.09c-4,0-3.83-1.09-3.83-1.09" style="fill:none;stroke:#9393a3;stroke-linecap:round;stroke-miterlimit:10;stroke-width:1.5px"/><path d="M67.22,115.22s0,1.08-5,1.08c-4,0-4.83-1.08-4.83-1.08" style="fill:none;stroke:#9393a3;stroke-linecap:round;stroke-miterlimit:10;stroke-width:1.5px"/><path d="M153.05,79.32l-8.2-3.72,1.24-2.73a2,2,0,0,0-1-2.65l-4.68-2.12a5,5,0,0,0-8.85-4L126.87,62a2,2,0,0,0-2.64,1L123,65.7,114.79,62a2,2,0,0,0-2.65,1l-22.7,50.09a2,2,0,0,0,1,2.65l38.26,17.34a2,2,0,0,0,2.64-1L154,82A2,2,0,0,0,153.05,79.32ZM135,68.33a1.19,1.19,0,0,1-.57-1.6,1.18,1.18,0,1,1,2.15,1A1.2,1.2,0,0,1,135,68.33Z" style="fill:#3b75ba"/><g style="opacity:0.30000000000000004"><path d="M153.05,79.32l-8.2-3.72,1.24-2.73a2,2,0,0,0-1-2.65l-4.68-2.12a5,5,0,0,0-8.85-4L126.87,62a2,2,0,0,0-2.64,1L123,65.7,114.79,62a2,2,0,0,0-2.65,1l-22.7,50.09a2,2,0,0,0,1,2.65l38.26,17.34a2,2,0,0,0,2.64-1L154,82A2,2,0,0,0,153.05,79.32Zm-10.27.83,4.1,1.86a.49.49,0,0,1,.25.66l-19.81,43.72a.48.48,0,0,1-.66.25l-31-14a.5.5,0,0,1-.25-.66l19.81-43.72a.49.49,0,0,1,.66-.25l5,2.27a2,2,0,0,0,1,2.65l18.22,8.25A2,2,0,0,0,142.78,80.15ZM125.14,63.38a1,1,0,0,1,1.32-.5L131.14,65a1,1,0,0,0,1.22-.31l.14-.17a3.93,3.93,0,0,1,7,3.15l0,.23A1,1,0,0,0,140,69l4.68,2.12a1,1,0,0,1,.5,1.33l-3.31,7.28a1,1,0,0,1-1.32.5L122.33,72a1,1,0,0,1-.49-1.33Zm5.29,68.27a1,1,0,0,1-1.32.49L91.76,115.22c-.5-.22-1.63-1.23-1.41-1.73l22.7-50.1a1,1,0,0,1,1.33-.5l8.2,3.72-1.24,2.73-5-2.27a1.5,1.5,0,0,0-2,.75L94.53,111.54a1.49,1.49,0,0,0,.75,2l31,14a1.49,1.49,0,0,0,2-.74L148,83.09a1.5,1.5,0,0,0-.74-2l-4.1-1.86,1.24-2.73,8.19,3.72a1,1,0,0,1,.5,1.32Z"/></g><g style="opacity:0.30000000000000004"><path d="M137.55,67.9a2.37,2.37,0,0,0,.09-1.06,2.16,2.16,0,0,0-3.32-1.5,2.56,2.56,0,0,0-.73.77,1.86,1.86,0,0,0-.1.2,2.18,2.18,0,1,0,4,1.8C137.49,68,137.52,68,137.55,67.9Zm-2.58.43a1.19,1.19,0,0,1-.57-1.6,1,1,0,0,1,.11-.2,1.17,1.17,0,0,1,2.12,1c0,.08,0,.15-.08.22A1.2,1.2,0,0,1,135,68.33Z"/></g><path d="M146.88,82l-4.1-1.86a2,2,0,0,1-2.64,1L121.92,72.9a2,2,0,0,1-1-2.65l-5-2.27a.51.51,0,0,0-.66.25L95.44,112a.5.5,0,0,0,.25.66l31,14a.49.49,0,0,0,.66-.25l19.81-43.72A.49.49,0,0,0,146.88,82Zm-12.62.87.75.34-.53,5.57-.66-.3.16-1.75L132.27,86l-1.18,1.29-.65-.29Zm-4-1.82-1.94,4.31,2.06.93-.24.52-2.68-1.21,2.17-4.83Zm-6.18-2.78.8.36-.23,2.71c-.07.68-.14,1.28-.25,1.84h0c.35-.43.76-.88,1.25-1.4l1.91-1.94.79.35-1.87,5-.61-.28.83-2.17c.27-.69.59-1.52.87-2.12h0c-.42.49-.89,1-1.44,1.56l-1.9,2-.48-.21.26-2.65c.08-.79.16-1.5.29-2.13h0c-.28.6-.68,1.39-1,2.09l-1.06,2-.6-.26Zm-14.71,24.59-3.57,2.23-.72-1.89a.52.52,0,0,1,.3-.65.5.5,0,0,1,.64.29l.28.76,2.55-1.59a.5.5,0,0,1,.52.85Zm3.6-7.94-3.58,2.23-.71-1.89a.5.5,0,0,1,.29-.65.52.52,0,0,1,.65.3l.28.75,2.54-1.59a.51.51,0,0,1,.69.16A.49.49,0,0,1,112.94,94.93Zm3.3-7.28-3.57,2.23L112,88a.5.5,0,0,1,.94-.35l.28.75,2.54-1.58a.5.5,0,1,1,.53.85Zm3.68-8.05-1,2.18-.62-.28,2.17-4.82,2.6,1.17-.23.52-2-.89-.72,1.6,1.83.83-.24.51Zm6.14,33.83-14.57-6.6a1.5,1.5,0,1,1,1.23-2.73l14.58,6.6a1.5,1.5,0,0,1-1.24,2.73Zm5.58-8.68a1.5,1.5,0,0,1-2,.75l-14.58-6.61a1.5,1.5,0,0,1-.75-2h0a1.49,1.49,0,0,1,2-.75l14.57,6.6a1.5,1.5,0,0,1,.75,2Zm3.3-7.29a1.49,1.49,0,0,1-2,.75L118.38,91.6a1.49,1.49,0,0,1-.74-2h0a1.5,1.5,0,0,1,2-.75l14.58,6.61a1.5,1.5,0,0,1,.74,2Z" style="fill:#fff"/><path d="M134.23,84.59c0-.36.09-.68.14-1h0c-.2.25-.41.51-.64.76l-1.1,1.19,1.46.65Z" style="fill:#fff"/><path d="M109.34,102.87l-3.57,2.23-.72-1.89a.52.52,0,0,1,.3-.65.5.5,0,0,1,.64.29l.28.76,2.55-1.59a.5.5,0,0,1,.52.85Z" style="opacity:0.30000000000000004"/><path d="M112.94,94.93l-3.58,2.23-.71-1.89a.5.5,0,0,1,.29-.65.52.52,0,0,1,.65.3l.28.75,2.54-1.59a.51.51,0,0,1,.69.16A.49.49,0,0,1,112.94,94.93Z" style="opacity:0.30000000000000004"/><path d="M116.24,87.65l-3.57,2.23L112,88a.5.5,0,0,1,.94-.35l.28.75,2.54-1.58a.5.5,0,1,1,.53.85Z" style="opacity:0.30000000000000004"/><polygon points="130.23 81.06 128.29 85.37 130.35 86.3 130.11 86.82 127.43 85.61 129.6 80.78 130.23 81.06" style="opacity:0.30000000000000004"/><path d="M124.05,78.28l.8.36-.23,2.71c-.07.68-.14,1.28-.25,1.84h0c.35-.43.76-.88,1.25-1.4l1.91-1.94.79.35-1.87,5-.61-.28.83-2.17c.27-.69.59-1.52.87-2.12h0c-.42.49-.89,1-1.44,1.56l-1.9,2-.48-.21.26-2.65c.08-.79.16-1.5.29-2.13h0c-.28.6-.68,1.39-1,2.09l-1.06,2-.6-.26Z" style="opacity:0.30000000000000004"/><polygon points="119.92 79.6 118.94 81.78 118.31 81.5 120.48 76.68 123.08 77.85 122.85 78.37 120.87 77.48 120.15 79.08 121.98 79.91 121.74 80.42 119.92 79.6" style="opacity:0.30000000000000004"/><path d="M135,83.22l-.75-.34L130.44,87l.65.29L132.27,86l1.71.77-.16,1.75.66.3Zm-2.39,2.32,1.1-1.19c.23-.25.44-.51.64-.76h0c-.05.31-.11.63-.14,1l-.15,1.6Z" style="opacity:0.30000000000000004"/><g style="opacity:0.5"><path d="M144.68,71.13,140,69a1,1,0,0,1-.57-1.11l0-.23a3.93,3.93,0,0,0-7-3.15l-.14.17a1,1,0,0,1-1.22.31l-4.68-2.12a1,1,0,0,0-1.32.5l-3.3,7.28a1,1,0,0,0,.49,1.33l18.22,8.25a1,1,0,0,0,1.32-.5l3.31-7.28A1,1,0,0,0,144.68,71.13Zm-10.13-1.88a2.22,2.22,0,0,1-1.06-2.94,1.86,1.86,0,0,1,.1-.2,2.56,2.56,0,0,1,.73-.77,2.16,2.16,0,0,1,3.32,1.5,2.37,2.37,0,0,1-.09,1.06c0,.08-.06.14-.09.21A2.22,2.22,0,0,1,134.55,69.25Z" style="fill:#fff"/></g></svg>