<svg xmlns="http://www.w3.org/2000/svg" xmlns:xlink="http://www.w3.org/1999/xlink" viewBox="0 0 564 535">
  <defs>
    <style>
      .cls-1 {
        clip-path: url(#clip-multiselect_grouping_specs);
      }

      .cls-2, .cls-6 {
        fill: #fff;
      }

      .cls-3 {
        fill: #3d3d3d;
      }

      .cls-4 {
        fill: none;
      }

      .cls-5 {
        fill: #7a7a7a;
      }

      .cls-7 {
        fill: #5b5b5b;
      }

      .cls-8 {
        fill: #c6c6c6;
      }

      .cls-9 {
        fill: #999;
      }

      .cls-10, .cls-11 {
        stroke: none;
      }

      .cls-11 {
        fill: #50a7ed;
      }

      .cls-12 {
        filter: url(#Path_7058);
      }
    </style>
    <filter id="Path_7058" x="123" y="126" width="318" height="321" filterUnits="userSpaceOnUse">
      <feOffset dy="3" input="SourceAlpha"/>
      <feGaussianBlur stdDeviation="3" result="blur"/>
      <feFlood flood-opacity="0.161"/>
      <feComposite operator="in" in2="blur"/>
      <feComposite in="SourceGraphic"/>
    </filter>
    <clipPath id="clip-multiselect_grouping_specs">
      <rect width="564" height="535"/>
    </clipPath>
  </defs>
  <g id="multiselect_grouping_specs" class="cls-1">
    <g id="Path_7056" data-name="Path 7056" class="cls-2" transform="translate(132 90)">
      <path class="cls-10" d="M 296 41 L 4 41 C 2.345807790756226 41 1 39.65419387817383 1 38 L 1 4 C 1 2.345807790756226 2.345807790756226 1 4 1 L 296 1 C 297.6542053222656 1 299 2.345807790756226 299 4 L 299 38 C 299 39.65419387817383 297.6542053222656 41 296 41 Z"/>
      <path class="cls-11" d="M 296 40 C 297.1028137207031 40 298 39.10280609130859 298 38 L 298 4 C 298 2.897192239761353 297.1028137207031 2 296 2 L 4 2 C 2.897192239761353 2 2 2.897192239761353 2 4 L 2 38 C 2 39.10280609130859 2.897192239761353 40 4 40 L 296 40 M 296 42 L 4 42 C 1.790884613990784 42 0 40.20915222167969 0 38 L 0 4 C 0 1.790846109390259 1.790884613990784 0 4 0 L 296 0 C 298.2091674804688 0 300 1.790846109390259 300 4 L 300 38 C 300 40.20915222167969 298.2091674804688 42 296 42 Z"/>
    </g>
    <path id="Path_7057" data-name="Path 7057" class="cls-3" d="M7.082-2.714A2.515,2.515,0,0,1,6.118-.622,4.2,4.2,0,0,1,3.459.137,6.345,6.345,0,0,1,.684-.39V-1.935a7.543,7.543,0,0,0,1.453.506,6.159,6.159,0,0,0,1.432.185A2.278,2.278,0,0,0,5-1.613,1.2,1.2,0,0,0,5.462-2.6a1.242,1.242,0,0,0-.424-.95,6.381,6.381,0,0,0-1.75-.923A4.63,4.63,0,0,1,1.36-5.742,2.676,2.676,0,0,1,.8-7.451,2.393,2.393,0,0,1,1.688-9.42a3.686,3.686,0,0,1,2.386-.718,7.01,7.01,0,0,1,2.857.629l-.52,1.333a6.243,6.243,0,0,0-2.379-.561,1.826,1.826,0,0,0-1.2.345,1.134,1.134,0,0,0-.41.913,1.285,1.285,0,0,0,.164.667,1.676,1.676,0,0,0,.54.523,9.135,9.135,0,0,0,1.354.649,7.406,7.406,0,0,1,1.613.854,2.513,2.513,0,0,1,.752.9A2.694,2.694,0,0,1,7.082-2.714Zm4.58,1.552a3.907,3.907,0,0,0,1.176-.185v1.21a3.243,3.243,0,0,1-.687.195,4.733,4.733,0,0,1-.872.079Q9,.137,9-2.27V-6.344H7.964v-.711l1.107-.588.547-1.6h.991v1.682h2.153v1.217H10.609V-2.3a1.135,1.135,0,0,0,.291.858A1.059,1.059,0,0,0,11.662-1.162ZM19.079,0l-.321-1.053H18.7a3.1,3.1,0,0,1-1.1.94,3.481,3.481,0,0,1-1.422.25,2.406,2.406,0,0,1-1.74-.6,2.251,2.251,0,0,1-.625-1.7,2,2,0,0,1,.868-1.764,5.006,5.006,0,0,1,2.646-.649l1.306-.041v-.4A1.529,1.529,0,0,0,18.3-6.108a1.38,1.38,0,0,0-1.049-.359,3.628,3.628,0,0,0-1.114.171,8.409,8.409,0,0,0-1.025.4l-.52-1.148a5.591,5.591,0,0,1,1.347-.489A6.2,6.2,0,0,1,17.315-7.7a3.27,3.27,0,0,1,2.177.629,2.462,2.462,0,0,1,.735,1.976V0ZM16.687-1.094a1.99,1.99,0,0,0,1.4-.489,1.772,1.772,0,0,0,.53-1.371v-.656l-.971.041A3.321,3.321,0,0,0,16-3.189a1.153,1.153,0,0,0-.516,1.036,1.011,1.011,0,0,0,.3.783A1.292,1.292,0,0,0,16.687-1.094Zm8.6-.068a3.907,3.907,0,0,0,1.176-.185v1.21a3.243,3.243,0,0,1-.687.195A4.733,4.733,0,0,1,24.9.137Q22.62.137,22.62-2.27V-6.344H21.588v-.711L22.7-7.643l.547-1.6h.991v1.682h2.153v1.217H24.233V-2.3a1.135,1.135,0,0,0,.291.858A1.059,1.059,0,0,0,25.286-1.162Zm5.988,1.3A3.657,3.657,0,0,1,28.516-.892a3.906,3.906,0,0,1-.995-2.833,4.285,4.285,0,0,1,.923-2.912A3.188,3.188,0,0,1,30.98-7.7a3.116,3.116,0,0,1,2.365.909,3.474,3.474,0,0,1,.868,2.5v.868H29.176a2.483,2.483,0,0,0,.595,1.692,2.071,2.071,0,0,0,1.579.591A5.829,5.829,0,0,0,32.6-1.261a6.539,6.539,0,0,0,1.241-.42V-.376a4.932,4.932,0,0,1-1.189.4A7.294,7.294,0,0,1,31.274.137ZM30.98-6.48A1.614,1.614,0,0,0,29.753-6,2.313,2.313,0,0,0,29.2-4.58h3.432A2.093,2.093,0,0,0,32.184-6,1.543,1.543,0,0,0,30.98-6.48Z" transform="translate(132 82)"/>
    <g id="Group_7971" data-name="Group 7971" transform="translate(-419 -1608)">
      <rect id="Rectangle_3867" data-name="Rectangle 3867" class="cls-4" width="24" height="24" transform="translate(816 1707)"/>
      <path id="Path_5558" data-name="Path 5558" class="cls-5" d="M56,9.4l-3,3-3-3a.967.967,0,0,0-1.4,0h0a.967.967,0,0,0,0,1.4l3.7,3.7a.967.967,0,0,0,1.4,0l3.7-3.7a.967.967,0,0,0,0-1.4h0A.965.965,0,0,0,56,9.4Z" transform="translate(881 1730.9) rotate(180)"/>
    </g>
    <g class="cls-12" transform="matrix(1, 0, 0, 1, 0, 0)">
      <path id="Path_7058-2" data-name="Path 7058" class="cls-6" d="M4,0H296a4,4,0,0,1,4,4V299a4,4,0,0,1-4,4H4a4,4,0,0,1-4-4V4A4,4,0,0,1,4,0Z" transform="translate(132 132)"/>
    </g>
    <path id="Path_7059" data-name="Path 7059" class="cls-4" d="M0,0H300V36H0Z" transform="translate(132 178)"/>
    <path id="Path_7060" data-name="Path 7060" class="cls-4" d="M0,0H300V36H0Z" transform="translate(132 250)"/>
    <path id="Path_7061" data-name="Path 7061" class="cls-4" d="M0,0H300V36H0Z" transform="translate(132 322)"/>
    <path id="Path_7062" data-name="Path 7062" class="cls-4" d="M0,0H300V36H0Z" transform="translate(132 399)"/>
    <path id="Path_7063" data-name="Path 7063" class="cls-4" d="M0,0H300V36H0Z" transform="translate(132 214)"/>
    <path id="Path_7064" data-name="Path 7064" class="cls-4" d="M0,0H300V36H0Z" transform="translate(132 286)"/>
    <path id="Path_7065" data-name="Path 7065" class="cls-7" d="M9.181,0H7.854L2.393-8.388H2.338q.109,1.477.109,2.707V0H1.374V-9.994H2.687L8.135-1.641h.055q-.014-.185-.062-1.186T8.094-4.259V-9.994H9.181Zm5.742.137A3.442,3.442,0,0,1,12.3-.875a3.917,3.917,0,0,1-.96-2.81,4.344,4.344,0,0,1,.892-2.878,2.963,2.963,0,0,1,2.4-1.066,2.825,2.825,0,0,1,2.229.926,3.55,3.55,0,0,1,.82,2.444v.718H12.517a2.97,2.97,0,0,0,.667,2,2.305,2.305,0,0,0,1.781.684,6.035,6.035,0,0,0,2.393-.506V-.349a6.005,6.005,0,0,1-1.138.373A6.4,6.4,0,0,1,14.923.137Zm-.308-6.815a1.853,1.853,0,0,0-1.439.588,2.71,2.71,0,0,0-.632,1.627h3.917a2.5,2.5,0,0,0-.479-1.644A1.684,1.684,0,0,0,14.615-6.679ZM21.253,0,18.409-7.492h1.217l1.613,4.443a21.031,21.031,0,0,1,.643,2.023h.055a15.284,15.284,0,0,1,.475-1.5q.4-1.138,1.794-4.966h1.217L22.579,0Zm9.98,0-.226-1.066h-.055a3.153,3.153,0,0,1-1.118.954,3.407,3.407,0,0,1-1.391.25A2.5,2.5,0,0,1,26.7-.437a2.094,2.094,0,0,1-.632-1.634q0-2.27,3.63-2.379l1.271-.041v-.465a1.9,1.9,0,0,0-.379-1.3,1.56,1.56,0,0,0-1.213-.42,4.944,4.944,0,0,0-2.119.574l-.349-.868a5.332,5.332,0,0,1,1.213-.472,5.255,5.255,0,0,1,1.323-.171,2.854,2.854,0,0,1,1.986.595,2.482,2.482,0,0,1,.646,1.907V0ZM28.67-.8a2.3,2.3,0,0,0,1.665-.581,2.15,2.15,0,0,0,.6-1.627v-.677L29.8-3.637a4.128,4.128,0,0,0-1.952.42,1.268,1.268,0,0,0-.6,1.159,1.169,1.169,0,0,0,.373.937A1.546,1.546,0,0,0,28.67-.8ZM39.512-1H39.45A2.666,2.666,0,0,1,37.1.137a2.782,2.782,0,0,1-2.287-1A4.423,4.423,0,0,1,34-3.726a4.5,4.5,0,0,1,.82-2.878A2.76,2.76,0,0,1,37.1-7.629a2.724,2.724,0,0,1,2.338,1.107h.089l-.048-.54-.027-.526v-3.049h1.135V0h-.923Zm-2.27.191a2.066,2.066,0,0,0,1.685-.632,3.2,3.2,0,0,0,.523-2.041v-.239A3.76,3.76,0,0,0,38.92-6a2.012,2.012,0,0,0-1.692-.68A1.737,1.737,0,0,0,35.7-5.9a3.858,3.858,0,0,0-.53,2.191A3.7,3.7,0,0,0,35.7-1.545,1.783,1.783,0,0,0,37.242-.813ZM47.6,0l-.226-1.066h-.055A3.153,3.153,0,0,1,46.2-.113a3.407,3.407,0,0,1-1.391.25,2.5,2.5,0,0,1-1.747-.574,2.094,2.094,0,0,1-.632-1.634q0-2.27,3.63-2.379l1.271-.041v-.465a1.9,1.9,0,0,0-.379-1.3,1.56,1.56,0,0,0-1.213-.42A4.944,4.944,0,0,0,43.62-6.1l-.349-.868a5.332,5.332,0,0,1,1.213-.472,5.255,5.255,0,0,1,1.323-.171,2.854,2.854,0,0,1,1.986.595,2.482,2.482,0,0,1,.646,1.907V0ZM45.035-.8A2.3,2.3,0,0,0,46.7-1.381a2.15,2.15,0,0,0,.6-1.627v-.677l-1.135.048a4.128,4.128,0,0,0-1.952.42,1.268,1.268,0,0,0-.6,1.159,1.169,1.169,0,0,0,.373.937A1.546,1.546,0,0,0,45.035-.8Z" transform="translate(182 272)"/>
    <path id="Path_7066" data-name="Path 7066" class="cls-7" d="M5.653-9.1A3.268,3.268,0,0,0,3.052-8,4.426,4.426,0,0,0,2.1-5a4.514,4.514,0,0,0,.919,3.032A3.268,3.268,0,0,0,5.64-.9a8.951,8.951,0,0,0,2.386-.376V-.253a7.347,7.347,0,0,1-2.563.39A4.337,4.337,0,0,1,2.054-1.2a5.518,5.518,0,0,1-1.2-3.808,6.01,6.01,0,0,1,.578-2.707A4.147,4.147,0,0,1,3.1-9.509a5.049,5.049,0,0,1,2.567-.629,6.194,6.194,0,0,1,2.748.574l-.492,1A5.3,5.3,0,0,0,5.653-9.1ZM14.643,0l-.226-1.066h-.055a3.153,3.153,0,0,1-1.118.954,3.407,3.407,0,0,1-1.391.25,2.5,2.5,0,0,1-1.747-.574,2.094,2.094,0,0,1-.632-1.634q0-2.27,3.63-2.379l1.271-.041v-.465A1.9,1.9,0,0,0,14-6.258a1.56,1.56,0,0,0-1.213-.42,4.944,4.944,0,0,0-2.119.574l-.349-.868a5.332,5.332,0,0,1,1.213-.472,5.255,5.255,0,0,1,1.323-.171,2.854,2.854,0,0,1,1.986.595,2.482,2.482,0,0,1,.646,1.907V0ZM12.079-.8a2.3,2.3,0,0,0,1.665-.581,2.15,2.15,0,0,0,.6-1.627v-.677l-1.135.048a4.128,4.128,0,0,0-1.952.42,1.268,1.268,0,0,0-.6,1.159,1.169,1.169,0,0,0,.373.937A1.546,1.546,0,0,0,12.079-.8Zm6.877.8H17.821V-10.637h1.135ZM22.5,0H21.362V-7.492H22.5Zm-1.23-9.522a.754.754,0,0,1,.191-.571.669.669,0,0,1,.479-.181.669.669,0,0,1,.472.185.74.74,0,0,1,.2.567.752.752,0,0,1-.2.571.662.662,0,0,1-.472.188.655.655,0,0,1-.479-.188A.768.768,0,0,1,21.267-9.522ZM28.28-6.61H26.373V0H25.238V-6.61H23.9v-.513l1.34-.41V-7.95q0-2.762,2.413-2.762a4.966,4.966,0,0,1,1.395.239l-.294.909a3.754,3.754,0,0,0-1.121-.212,1.092,1.092,0,0,0-.95.427,2.384,2.384,0,0,0-.308,1.371v.485H28.28Zm7.834,2.857a4.133,4.133,0,0,1-.923,2.861A3.25,3.25,0,0,1,32.642.137a3.377,3.377,0,0,1-1.784-.472,3.113,3.113,0,0,1-1.2-1.354,4.717,4.717,0,0,1-.424-2.064,4.127,4.127,0,0,1,.916-2.854,3.24,3.24,0,0,1,2.543-1.022,3.169,3.169,0,0,1,2.5,1.046A4.115,4.115,0,0,1,36.114-3.753Zm-5.708,0a3.556,3.556,0,0,0,.574,2.188,1.993,1.993,0,0,0,1.688.752,2.006,2.006,0,0,0,1.692-.749,3.538,3.538,0,0,0,.578-2.191,3.481,3.481,0,0,0-.578-2.17,2.03,2.03,0,0,0-1.706-.742,2,2,0,0,0-1.682.731A3.52,3.52,0,0,0,30.406-3.753ZM41.521-7.629a4.44,4.44,0,0,1,.9.082L42.26-6.494a3.865,3.865,0,0,0-.82-.1,2,2,0,0,0-1.555.738,2.692,2.692,0,0,0-.646,1.839V0H38.1V-7.492h.937L39.17-6.1h.055a3.293,3.293,0,0,1,1-1.128A2.262,2.262,0,0,1,41.521-7.629ZM48.945,0V-4.847a1.955,1.955,0,0,0-.417-1.367,1.7,1.7,0,0,0-1.306-.451,2.153,2.153,0,0,0-1.723.636,3.21,3.21,0,0,0-.547,2.1V0H43.818V-7.492h.923l.185,1.025h.055a2.317,2.317,0,0,1,.978-.858,3.176,3.176,0,0,1,1.4-.3,2.846,2.846,0,0,1,2.037.653,2.778,2.778,0,0,1,.684,2.088V0Zm4.6,0H52.411V-7.492h1.135Zm-1.23-9.522a.754.754,0,0,1,.191-.571.669.669,0,0,1,.479-.181.669.669,0,0,1,.472.185.74.74,0,0,1,.2.567.752.752,0,0,1-.2.571.662.662,0,0,1-.472.188.655.655,0,0,1-.479-.188A.768.768,0,0,1,52.315-9.522ZM60.56,0l-.226-1.066h-.055a3.153,3.153,0,0,1-1.118.954,3.407,3.407,0,0,1-1.391.25,2.5,2.5,0,0,1-1.747-.574,2.094,2.094,0,0,1-.632-1.634q0-2.27,3.63-2.379l1.271-.041v-.465a1.9,1.9,0,0,0-.379-1.3,1.56,1.56,0,0,0-1.213-.42,4.944,4.944,0,0,0-2.119.574l-.349-.868a5.332,5.332,0,0,1,1.213-.472,5.255,5.255,0,0,1,1.323-.171,2.854,2.854,0,0,1,1.986.595A2.482,2.482,0,0,1,61.4-5.113V0ZM58-.8a2.3,2.3,0,0,0,1.665-.581,2.15,2.15,0,0,0,.6-1.627v-.677l-1.135.048a4.128,4.128,0,0,0-1.952.42,1.268,1.268,0,0,0-.6,1.159,1.169,1.169,0,0,0,.373.937A1.546,1.546,0,0,0,58-.8Z" transform="translate(182 200)"/>
    <path id="Path_7067" data-name="Path 7067" class="cls-7" d="M10.049-5.011A5.5,5.5,0,0,1,8.835-1.237,4.266,4.266,0,0,1,5.462.137a4.32,4.32,0,0,1-3.408-1.35,5.547,5.547,0,0,1-1.2-3.811,5.477,5.477,0,0,1,1.2-3.784,4.35,4.35,0,0,1,3.418-1.343A4.257,4.257,0,0,1,8.839-8.784,5.5,5.5,0,0,1,10.049-5.011Zm-7.964,0a4.743,4.743,0,0,0,.865,3.08A3.068,3.068,0,0,0,5.462-.882,3.039,3.039,0,0,0,7.971-1.928a4.809,4.809,0,0,0,.848-3.083A4.771,4.771,0,0,0,7.974-8.07a3.025,3.025,0,0,0-2.5-1.042A3.084,3.084,0,0,0,2.95-8.063,4.7,4.7,0,0,0,2.085-5.011ZM15.524-7.629a4.44,4.44,0,0,1,.9.082l-.157,1.053a3.865,3.865,0,0,0-.82-.1,2,2,0,0,0-1.555.738,2.692,2.692,0,0,0-.646,1.839V0H12.106V-7.492h.937l.13,1.388h.055a3.293,3.293,0,0,1,1-1.128A2.262,2.262,0,0,1,15.524-7.629ZM20.986.137A3.442,3.442,0,0,1,18.365-.875a3.917,3.917,0,0,1-.96-2.81A4.344,4.344,0,0,1,18.3-6.562a2.963,2.963,0,0,1,2.4-1.066,2.825,2.825,0,0,1,2.229.926,3.55,3.55,0,0,1,.82,2.444v.718H18.58a2.97,2.97,0,0,0,.667,2,2.305,2.305,0,0,0,1.781.684A6.035,6.035,0,0,0,23.42-1.36V-.349a6.005,6.005,0,0,1-1.138.373A6.4,6.4,0,0,1,20.986.137Zm-.308-6.815a1.853,1.853,0,0,0-1.439.588,2.71,2.71,0,0,0-.632,1.627h3.917a2.5,2.5,0,0,0-.479-1.644A1.684,1.684,0,0,0,20.679-6.679Zm11.129-.813v.718L30.42-6.61a2.385,2.385,0,0,1,.342.625,2.387,2.387,0,0,1,.15.872,2.215,2.215,0,0,1-.752,1.757A3.033,3.033,0,0,1,28.1-2.7a3.438,3.438,0,0,1-.629-.055,1.117,1.117,0,0,0-.725.964A.49.49,0,0,0,27-1.336a1.848,1.848,0,0,0,.868.147h1.326a2.97,2.97,0,0,1,1.87.513,1.781,1.781,0,0,1,.653,1.49,2.127,2.127,0,0,1-1,1.9,5.342,5.342,0,0,1-2.912.653,3.979,3.979,0,0,1-2.266-.547,1.766,1.766,0,0,1-.8-1.545A1.735,1.735,0,0,1,25.177.089a2.228,2.228,0,0,1,1.23-.677,1.187,1.187,0,0,1-.482-.4,1.067,1.067,0,0,1-.195-.636,1.207,1.207,0,0,1,.219-.718,2.3,2.3,0,0,1,.69-.595,2.024,2.024,0,0,1-.947-.813,2.39,2.39,0,0,1-.366-1.312,2.424,2.424,0,0,1,.738-1.9,3.014,3.014,0,0,1,2.092-.667,3.8,3.8,0,0,1,1.06.137Zm-5.975,8.75a1.017,1.017,0,0,0,.513.923,2.83,2.83,0,0,0,1.47.314,4.1,4.1,0,0,0,2.116-.427A1.308,1.308,0,0,0,30.618.909a.917.917,0,0,0-.376-.844,2.92,2.92,0,0,0-1.415-.236h-1.36a1.792,1.792,0,0,0-1.2.369A1.319,1.319,0,0,0,25.833,1.258Zm.615-6.351A1.525,1.525,0,0,0,26.893-3.9a1.774,1.774,0,0,0,1.237.4,1.447,1.447,0,0,0,1.661-1.613A1.489,1.489,0,0,0,28.109-6.8a1.665,1.665,0,0,0-1.23.431A1.734,1.734,0,0,0,26.448-5.093Zm13.364,1.34A4.133,4.133,0,0,1,38.89-.892,3.25,3.25,0,0,1,36.34.137a3.377,3.377,0,0,1-1.784-.472,3.113,3.113,0,0,1-1.2-1.354,4.717,4.717,0,0,1-.424-2.064,4.127,4.127,0,0,1,.916-2.854,3.24,3.24,0,0,1,2.543-1.022,3.169,3.169,0,0,1,2.5,1.046A4.115,4.115,0,0,1,39.813-3.753Zm-5.708,0a3.556,3.556,0,0,0,.574,2.188,1.993,1.993,0,0,0,1.688.752,2.006,2.006,0,0,0,1.692-.749,3.538,3.538,0,0,0,.578-2.191,3.481,3.481,0,0,0-.578-2.17,2.03,2.03,0,0,0-1.706-.742,2,2,0,0,0-1.682.731A3.52,3.52,0,0,0,34.1-3.753ZM46.929,0V-4.847a1.955,1.955,0,0,0-.417-1.367,1.7,1.7,0,0,0-1.306-.451,2.153,2.153,0,0,0-1.723.636,3.21,3.21,0,0,0-.547,2.1V0H41.8V-7.492h.923l.185,1.025h.055a2.317,2.317,0,0,1,.978-.858,3.176,3.176,0,0,1,1.4-.3,2.846,2.846,0,0,1,2.037.653,2.778,2.778,0,0,1,.684,2.088V0Z" transform="translate(182 308)"/>
    <path id="Path_7068" data-name="Path 7068" class="cls-7" d="M1.374,0V-9.994H2.536V0Zm8.832-1h-.062A2.666,2.666,0,0,1,7.793.137a2.782,2.782,0,0,1-2.287-1,4.423,4.423,0,0,1-.817-2.857A4.5,4.5,0,0,1,5.51-6.6,2.76,2.76,0,0,1,7.793-7.629a2.724,2.724,0,0,1,2.338,1.107h.089l-.048-.54-.027-.526v-3.049h1.135V0h-.923Zm-2.27.191a2.066,2.066,0,0,0,1.685-.632,3.2,3.2,0,0,0,.523-2.041v-.239A3.76,3.76,0,0,0,9.615-6a2.012,2.012,0,0,0-1.692-.68A1.737,1.737,0,0,0,6.4-5.9a3.858,3.858,0,0,0-.53,2.191,3.7,3.7,0,0,0,.526,2.167A1.783,1.783,0,0,0,7.937-.813ZM18.293,0l-.226-1.066h-.055A3.153,3.153,0,0,1,16.9-.113,3.407,3.407,0,0,1,15.5.137a2.5,2.5,0,0,1-1.747-.574,2.094,2.094,0,0,1-.632-1.634q0-2.27,3.63-2.379l1.271-.041v-.465a1.9,1.9,0,0,0-.379-1.3,1.56,1.56,0,0,0-1.213-.42,4.944,4.944,0,0,0-2.119.574l-.349-.868a5.332,5.332,0,0,1,1.213-.472A5.255,5.255,0,0,1,16.5-7.615a2.854,2.854,0,0,1,1.986.595,2.482,2.482,0,0,1,.646,1.907V0ZM15.729-.8a2.3,2.3,0,0,0,1.665-.581A2.15,2.15,0,0,0,18-3.008v-.677l-1.135.048a4.128,4.128,0,0,0-1.952.42,1.268,1.268,0,0,0-.6,1.159,1.169,1.169,0,0,0,.373.937A1.546,1.546,0,0,0,15.729-.8ZM26.6,0V-4.847a1.955,1.955,0,0,0-.417-1.367,1.7,1.7,0,0,0-1.306-.451,2.139,2.139,0,0,0-1.726.643,3.255,3.255,0,0,0-.543,2.105V0H21.472V-10.637h1.135v3.22a7.015,7.015,0,0,1-.055.964h.068a2.314,2.314,0,0,1,.954-.851,3.1,3.1,0,0,1,1.412-.311,2.891,2.891,0,0,1,2.061.653,2.749,2.749,0,0,1,.687,2.075V0Zm9.933-3.753a4.133,4.133,0,0,1-.923,2.861A3.25,3.25,0,0,1,33.059.137a3.377,3.377,0,0,1-1.784-.472,3.113,3.113,0,0,1-1.2-1.354,4.717,4.717,0,0,1-.424-2.064,4.127,4.127,0,0,1,.916-2.854,3.24,3.24,0,0,1,2.543-1.022,3.169,3.169,0,0,1,2.5,1.046A4.115,4.115,0,0,1,36.531-3.753Zm-5.708,0A3.556,3.556,0,0,0,31.4-1.565a1.993,1.993,0,0,0,1.688.752,2.006,2.006,0,0,0,1.692-.749,3.538,3.538,0,0,0,.578-2.191,3.481,3.481,0,0,0-.578-2.17,2.03,2.03,0,0,0-1.706-.742,2,2,0,0,0-1.682.731A3.52,3.52,0,0,0,30.823-3.753Z" transform="translate(182 236)"/>
    <path id="Path_7069" data-name="Path 7069" class="cls-7" d="M10.1,0H8.948L6.932-6.692q-.144-.444-.321-1.121a6.539,6.539,0,0,1-.185-.813,15.567,15.567,0,0,1-.479,1.976L3.992,0H2.844L.185-9.994h1.23L2.994-3.821A22.958,22.958,0,0,1,3.473-1.47,16.983,16.983,0,0,1,4.02-3.917L5.811-9.994h1.23l1.88,6.132A18.641,18.641,0,0,1,9.475-1.47a20.5,20.5,0,0,1,.492-2.365l1.572-6.159h1.23Zm8.675,0-.226-1.066h-.055a3.153,3.153,0,0,1-1.118.954,3.407,3.407,0,0,1-1.391.25,2.5,2.5,0,0,1-1.747-.574A2.094,2.094,0,0,1,13.6-2.071q0-2.27,3.63-2.379L18.5-4.491v-.465a1.9,1.9,0,0,0-.379-1.3,1.56,1.56,0,0,0-1.213-.42,4.944,4.944,0,0,0-2.119.574l-.349-.868a5.332,5.332,0,0,1,1.213-.472,5.255,5.255,0,0,1,1.323-.171,2.854,2.854,0,0,1,1.986.595,2.482,2.482,0,0,1,.646,1.907V0ZM16.208-.8a2.3,2.3,0,0,0,1.665-.581,2.15,2.15,0,0,0,.6-1.627v-.677l-1.135.048a4.128,4.128,0,0,0-1.952.42,1.268,1.268,0,0,0-.6,1.159,1.169,1.169,0,0,0,.373.937A1.546,1.546,0,0,0,16.208-.8ZM26.783-2.044A1.877,1.877,0,0,1,26-.431a3.663,3.663,0,0,1-2.187.567,4.757,4.757,0,0,1-2.324-.472V-1.388a5.621,5.621,0,0,0,1.159.431A4.839,4.839,0,0,0,23.844-.8a2.705,2.705,0,0,0,1.367-.284.938.938,0,0,0,.479-.865A.939.939,0,0,0,25.31-2.7a5.968,5.968,0,0,0-1.48-.735,8.025,8.025,0,0,1-1.487-.68,2.031,2.031,0,0,1-.656-.66,1.72,1.72,0,0,1-.215-.882A1.681,1.681,0,0,1,22.217-7.1a3.472,3.472,0,0,1,2.044-.53,5.98,5.98,0,0,1,2.365.492l-.4.923a5.429,5.429,0,0,0-2.044-.465,2.352,2.352,0,0,0-1.217.253.782.782,0,0,0-.41.7.849.849,0,0,0,.154.513,1.518,1.518,0,0,0,.5.4,11.076,11.076,0,0,0,1.313.554,4.9,4.9,0,0,1,1.8.978A1.724,1.724,0,0,1,26.783-2.044ZM33.756,0V-4.847a1.955,1.955,0,0,0-.417-1.367,1.7,1.7,0,0,0-1.306-.451,2.139,2.139,0,0,0-1.726.643,3.255,3.255,0,0,0-.543,2.105V0H28.629V-10.637h1.135v3.22a7.015,7.015,0,0,1-.055.964h.068a2.314,2.314,0,0,1,.954-.851,3.1,3.1,0,0,1,1.412-.311,2.891,2.891,0,0,1,2.061.653,2.749,2.749,0,0,1,.687,2.075V0Zm4.6,0H37.222V-7.492h1.135Zm-1.23-9.522a.754.754,0,0,1,.191-.571.669.669,0,0,1,.479-.181.669.669,0,0,1,.472.185.74.74,0,0,1,.2.567.752.752,0,0,1-.2.571.662.662,0,0,1-.472.188.655.655,0,0,1-.479-.188A.768.768,0,0,1,37.126-9.522ZM45.89,0V-4.847a1.955,1.955,0,0,0-.417-1.367,1.7,1.7,0,0,0-1.306-.451,2.153,2.153,0,0,0-1.723.636,3.21,3.21,0,0,0-.547,2.1V0H40.763V-7.492h.923l.185,1.025h.055a2.317,2.317,0,0,1,.978-.858,3.176,3.176,0,0,1,1.4-.3,2.846,2.846,0,0,1,2.037.653,2.778,2.778,0,0,1,.684,2.088V0Zm9.6-7.492v.718L54.1-6.61a2.385,2.385,0,0,1,.342.625,2.386,2.386,0,0,1,.15.872,2.215,2.215,0,0,1-.752,1.757,3.033,3.033,0,0,1-2.064.656,3.438,3.438,0,0,1-.629-.055,1.117,1.117,0,0,0-.725.964.49.49,0,0,0,.253.455,1.848,1.848,0,0,0,.868.147h1.326a2.97,2.97,0,0,1,1.87.513,1.781,1.781,0,0,1,.653,1.49,2.127,2.127,0,0,1-1,1.9,5.342,5.342,0,0,1-2.912.653,3.979,3.979,0,0,1-2.266-.547,1.766,1.766,0,0,1-.8-1.545A1.735,1.735,0,0,1,48.856.089a2.228,2.228,0,0,1,1.23-.677,1.187,1.187,0,0,1-.482-.4,1.067,1.067,0,0,1-.195-.636,1.207,1.207,0,0,1,.219-.718,2.3,2.3,0,0,1,.69-.595,2.024,2.024,0,0,1-.947-.813,2.39,2.39,0,0,1-.366-1.312,2.424,2.424,0,0,1,.738-1.9,3.014,3.014,0,0,1,2.092-.667,3.8,3.8,0,0,1,1.06.137Zm-5.975,8.75a1.017,1.017,0,0,0,.513.923A2.83,2.83,0,0,0,51.5,2.5a4.1,4.1,0,0,0,2.116-.427A1.308,1.308,0,0,0,54.3.909a.917.917,0,0,0-.376-.844,2.92,2.92,0,0,0-1.415-.236h-1.36a1.792,1.792,0,0,0-1.2.369A1.319,1.319,0,0,0,49.513,1.258Zm.615-6.351A1.525,1.525,0,0,0,50.572-3.9a1.774,1.774,0,0,0,1.237.4,1.447,1.447,0,0,0,1.661-1.613A1.489,1.489,0,0,0,51.789-6.8a1.665,1.665,0,0,0-1.23.431A1.734,1.734,0,0,0,50.128-5.093ZM59.445-.8a3.707,3.707,0,0,0,.581-.044,3.761,3.761,0,0,0,.444-.092v.868a2.074,2.074,0,0,1-.543.147,4.081,4.081,0,0,1-.646.058q-2.174,0-2.174-2.29V-6.61H56.034v-.547l1.073-.472.479-1.6h.656v1.736h2.174v.882H58.242V-2.2a1.517,1.517,0,0,0,.321,1.039A1.118,1.118,0,0,0,59.445-.8Zm8.989-2.953a4.133,4.133,0,0,1-.923,2.861A3.25,3.25,0,0,1,64.962.137a3.377,3.377,0,0,1-1.784-.472,3.113,3.113,0,0,1-1.2-1.354,4.717,4.717,0,0,1-.424-2.064,4.127,4.127,0,0,1,.916-2.854A3.24,3.24,0,0,1,65.01-7.629a3.169,3.169,0,0,1,2.5,1.046A4.115,4.115,0,0,1,68.435-3.753Zm-5.708,0A3.556,3.556,0,0,0,63.3-1.565a1.993,1.993,0,0,0,1.688.752,2.006,2.006,0,0,0,1.692-.749,3.538,3.538,0,0,0,.578-2.191,3.481,3.481,0,0,0-.578-2.17,2.03,2.03,0,0,0-1.706-.742,2,2,0,0,0-1.682.731A3.52,3.52,0,0,0,62.727-3.753ZM75.551,0V-4.847a1.955,1.955,0,0,0-.417-1.367,1.7,1.7,0,0,0-1.306-.451,2.153,2.153,0,0,0-1.723.636,3.21,3.21,0,0,0-.547,2.1V0H70.424V-7.492h.923l.185,1.025h.055a2.317,2.317,0,0,1,.978-.858,3.176,3.176,0,0,1,1.4-.3A2.846,2.846,0,0,1,76-6.976a2.778,2.778,0,0,1,.684,2.088V0Z" transform="translate(182 344)"/>
    <path id="Path_7070" data-name="Path 7070" class="cls-8" d="M4.705,0,2.643-6.721H2.59Q2.7-4.67,2.7-3.984V0H1.078V-8.566H3.551L5.578-2.016h.035l2.15-6.551h2.473V0H8.543V-4.055q0-.287.009-.662t.079-1.992H8.578L6.369,0ZM20.168-4.295a4.648,4.648,0,0,1-1.055,3.27A3.91,3.91,0,0,1,16.09.117a3.91,3.91,0,0,1-3.023-1.143,4.667,4.667,0,0,1-1.055-3.281,4.6,4.6,0,0,1,1.058-3.267A3.955,3.955,0,0,1,16.1-8.7a3.9,3.9,0,0,1,3.021,1.137A4.66,4.66,0,0,1,20.168-4.295Zm-6.252,0a3.578,3.578,0,0,0,.545,2.162,1.907,1.907,0,0,0,1.629.727q2.174,0,2.174-2.889T16.1-7.189a1.92,1.92,0,0,0-1.635.729A3.563,3.563,0,0,0,13.916-4.295Zm15-4.271v5.543a3.2,3.2,0,0,1-.425,1.664,2.765,2.765,0,0,1-1.228,1.1,4.39,4.39,0,0,1-1.9.381A3.635,3.635,0,0,1,22.8-.729a3,3,0,0,1-.914-2.317v-5.52H23.7v5.244a2.2,2.2,0,0,0,.4,1.453,1.656,1.656,0,0,0,1.318.463A1.619,1.619,0,0,0,26.7-1.872a2.208,2.208,0,0,0,.4-1.462V-8.566ZM38.613,0H36.3L32.578-6.48h-.053q.111,1.717.111,2.449V0H31.014V-8.566H33.3L37.025-2.15h.041q-.088-1.67-.088-2.361V-8.566h1.635Zm5.461,0H42.258V-7.055H39.932V-8.566H46.4v1.512H44.074Zm8.889,0-.621-2.039H49.219L48.6,0H46.641l3.023-8.6h2.221L54.92,0ZM51.908-3.562q-.861-2.771-.97-3.135t-.155-.574q-.193.75-1.107,3.709ZM56,0V-8.566h1.816V0ZM67.57,0H65.262L61.535-6.48h-.053q.111,1.717.111,2.449V0H59.971V-8.566h2.291L65.982-2.15h.041q-.088-1.67-.088-2.361V-8.566H67.57Z" transform="translate(182 391)"/>
    <path id="Path_7071" data-name="Path 7071" class="cls-7" d="M7.656,0,6.412-3.179H2.406L1.176,0H0L3.951-10.035h.978L8.859,0ZM6.05-4.225l-1.162-3.1q-.226-.588-.465-1.442a12.952,12.952,0,0,1-.431,1.442l-1.176,3.1Zm7.431-3.4a4.44,4.44,0,0,1,.9.082l-.157,1.053a3.865,3.865,0,0,0-.82-.1,2,2,0,0,0-1.555.738A2.692,2.692,0,0,0,11.2-4.02V0H10.063V-7.492H11l.13,1.388h.055a3.293,3.293,0,0,1,1-1.128A2.262,2.262,0,0,1,13.48-7.629ZM16.912,0H15.777V-7.492h1.135Zm-1.23-9.522a.754.754,0,0,1,.191-.571.669.669,0,0,1,.479-.181.669.669,0,0,1,.472.185.74.74,0,0,1,.2.567.752.752,0,0,1-.2.571.662.662,0,0,1-.472.188.655.655,0,0,1-.479-.188A.768.768,0,0,1,15.682-9.522ZM24.11,0H18.676V-.772L22.764-6.61H18.929v-.882h5.079v.882L19.975-.882H24.11Zm8.224-3.753a4.133,4.133,0,0,1-.923,2.861A3.25,3.25,0,0,1,28.861.137a3.377,3.377,0,0,1-1.784-.472,3.113,3.113,0,0,1-1.2-1.354,4.717,4.717,0,0,1-.424-2.064,4.127,4.127,0,0,1,.916-2.854,3.24,3.24,0,0,1,2.543-1.022,3.169,3.169,0,0,1,2.5,1.046A4.115,4.115,0,0,1,32.334-3.753Zm-5.708,0A3.556,3.556,0,0,0,27.2-1.565a1.993,1.993,0,0,0,1.688.752,2.006,2.006,0,0,0,1.692-.749,3.538,3.538,0,0,0,.578-2.191,3.481,3.481,0,0,0-.578-2.17,2.03,2.03,0,0,0-1.706-.742,2,2,0,0,0-1.682.731A3.52,3.52,0,0,0,26.626-3.753ZM39.45,0V-4.847a1.955,1.955,0,0,0-.417-1.367,1.7,1.7,0,0,0-1.306-.451A2.153,2.153,0,0,0,36-6.029a3.21,3.21,0,0,0-.547,2.1V0H34.323V-7.492h.923l.185,1.025h.055a2.317,2.317,0,0,1,.978-.858,3.176,3.176,0,0,1,1.4-.3,2.846,2.846,0,0,1,2.037.653,2.778,2.778,0,0,1,.684,2.088V0Zm8.073,0L47.3-1.066h-.055a3.153,3.153,0,0,1-1.118.954,3.407,3.407,0,0,1-1.391.25,2.5,2.5,0,0,1-1.747-.574,2.094,2.094,0,0,1-.632-1.634q0-2.27,3.63-2.379l1.271-.041v-.465a1.9,1.9,0,0,0-.379-1.3,1.56,1.56,0,0,0-1.213-.42,4.944,4.944,0,0,0-2.119.574L43.2-6.973a5.332,5.332,0,0,1,1.213-.472,5.255,5.255,0,0,1,1.323-.171,2.854,2.854,0,0,1,1.986.595,2.482,2.482,0,0,1,.646,1.907V0ZM44.96-.8a2.3,2.3,0,0,0,1.665-.581,2.15,2.15,0,0,0,.6-1.627v-.677l-1.135.048a4.128,4.128,0,0,0-1.952.42,1.268,1.268,0,0,0-.6,1.159,1.169,1.169,0,0,0,.373.937A1.546,1.546,0,0,0,44.96-.8Z" transform="translate(182 421)"/>
    <path id="Path_7072" data-name="Path 7072" class="cls-8" d="M2.5,0A2.5,2.5,0,0,1,5,2.5v95a2.5,2.5,0,0,1-5,0V2.5A2.5,2.5,0,0,1,2.5,0Z" transform="translate(422 137)"/>
    <path id="Path_7073" data-name="Path 7073" class="cls-8" d="M2.895-4.535h.6a1.99,1.99,0,0,0,1.254-.331,1.159,1.159,0,0,0,.416-.964,1.188,1.188,0,0,0-.349-.943,1.634,1.634,0,0,0-1.093-.3H2.895ZM7-5.895a2.618,2.618,0,0,1-.864,2.115,3.7,3.7,0,0,1-2.458.732H2.895V0H1.078V-8.566H3.814a3.64,3.64,0,0,1,2.37.671A2.446,2.446,0,0,1,7-5.895ZM13.857,0l-.621-2.039H10.113L9.492,0H7.535l3.023-8.6h2.221L15.814,0ZM12.8-3.562q-.861-2.771-.97-3.135t-.155-.574q-.193.75-1.107,3.709Zm7.729-3.615a1.851,1.851,0,0,0-1.588.771,3.585,3.585,0,0,0-.562,2.147q0,2.865,2.15,2.865a6.8,6.8,0,0,0,2.186-.451V-.322a6.069,6.069,0,0,1-2.355.439A3.592,3.592,0,0,1,17.5-1.017a4.8,4.8,0,0,1-.99-3.255A5.315,5.315,0,0,1,17-6.612a3.515,3.515,0,0,1,1.4-1.541,4.134,4.134,0,0,1,2.136-.536,5.764,5.764,0,0,1,2.508.6l-.586,1.477a9.7,9.7,0,0,0-.967-.4A2.884,2.884,0,0,0,20.531-7.178ZM24.539,0V-8.566h1.816V0ZM30.3,0H28.512V-8.566h4.91v1.488H30.3v2.209h2.906v1.482H30.3Zm4.8,0V-8.566h1.816V0Zm7.611-7.178a1.851,1.851,0,0,0-1.588.771,3.585,3.585,0,0,0-.562,2.147q0,2.865,2.15,2.865a6.8,6.8,0,0,0,2.186-.451V-.322a6.069,6.069,0,0,1-2.355.439A3.592,3.592,0,0,1,39.68-1.017a4.8,4.8,0,0,1-.99-3.255,5.315,5.315,0,0,1,.486-2.341,3.515,3.515,0,0,1,1.4-1.541,4.134,4.134,0,0,1,2.136-.536,5.764,5.764,0,0,1,2.508.6l-.586,1.477a9.7,9.7,0,0,0-.967-.4A2.884,2.884,0,0,0,42.709-7.178Z" transform="translate(182 170)"/>
    <path id="Path_7074" data-name="Path 7074" class="cls-4" d="M0,0H24V24H0Z" transform="translate(147 220)"/>
    <path id="Path_7075" data-name="Path 7075" class="cls-4" d="M0,0H24V24H0Z" transform="translate(147 184)"/>
    <path id="Path_7076" data-name="Path 7076" class="cls-4" d="M0,0H24V24H0Z" transform="translate(147 256)"/>
    <path id="Path_7077" data-name="Path 7077" class="cls-4" d="M0,0H24V24H0Z" transform="translate(147 292)"/>
    <path id="Path_7048" data-name="Path 7048" class="cls-4" d="M0,0H24V24H0Z" transform="translate(147 328)"/>
    <path id="Path_7049" data-name="Path 7049" class="cls-4" d="M0,0H24V24H0Z" transform="translate(147 405)"/>
    <path id="Path_7050" data-name="Path 7050" class="cls-9" d="M17.5,2a.472.472,0,0,1,.5.5v15a.472.472,0,0,1-.5.5H2.5a.472.472,0,0,1-.5-.5V2.5A.472.472,0,0,1,2.5,2h15m0-2H2.5A2.476,2.476,0,0,0,0,2.5v15A2.476,2.476,0,0,0,2.5,20h15A2.476,2.476,0,0,0,20,17.5V2.5A2.476,2.476,0,0,0,17.5,0Z" transform="translate(149 222)"/>
    <path id="Path_7051" data-name="Path 7051" class="cls-9" d="M17.5,2a.472.472,0,0,1,.5.5v15a.472.472,0,0,1-.5.5H2.5a.472.472,0,0,1-.5-.5V2.5A.472.472,0,0,1,2.5,2h15m0-2H2.5A2.476,2.476,0,0,0,0,2.5v15A2.476,2.476,0,0,0,2.5,20h15A2.476,2.476,0,0,0,20,17.5V2.5A2.476,2.476,0,0,0,17.5,0Z" transform="translate(149 186)"/>
    <path id="Path_7052" data-name="Path 7052" class="cls-9" d="M17.5,2a.472.472,0,0,1,.5.5v15a.472.472,0,0,1-.5.5H2.5a.472.472,0,0,1-.5-.5V2.5A.472.472,0,0,1,2.5,2h15m0-2H2.5A2.476,2.476,0,0,0,0,2.5v15A2.476,2.476,0,0,0,2.5,20h15A2.476,2.476,0,0,0,20,17.5V2.5A2.476,2.476,0,0,0,17.5,0Z" transform="translate(149 258)"/>
    <path id="Path_7053" data-name="Path 7053" class="cls-9" d="M17.5,2a.472.472,0,0,1,.5.5v15a.472.472,0,0,1-.5.5H2.5a.472.472,0,0,1-.5-.5V2.5A.472.472,0,0,1,2.5,2h15m0-2H2.5A2.476,2.476,0,0,0,0,2.5v15A2.476,2.476,0,0,0,2.5,20h15A2.476,2.476,0,0,0,20,17.5V2.5A2.476,2.476,0,0,0,17.5,0Z" transform="translate(149 294)"/>
    <path id="Path_7054" data-name="Path 7054" class="cls-9" d="M17.5,2a.472.472,0,0,1,.5.5v15a.472.472,0,0,1-.5.5H2.5a.472.472,0,0,1-.5-.5V2.5A.472.472,0,0,1,2.5,2h15m0-2H2.5A2.476,2.476,0,0,0,0,2.5v15A2.476,2.476,0,0,0,2.5,20h15A2.476,2.476,0,0,0,20,17.5V2.5A2.476,2.476,0,0,0,17.5,0Z" transform="translate(149 330)"/>
    <path id="Path_7055" data-name="Path 7055" class="cls-9" d="M17.5,2a.472.472,0,0,1,.5.5v15a.472.472,0,0,1-.5.5H2.5a.472.472,0,0,1-.5-.5V2.5A.472.472,0,0,1,2.5,2h15m0-2H2.5A2.476,2.476,0,0,0,0,2.5v15A2.476,2.476,0,0,0,2.5,20h15A2.476,2.476,0,0,0,20,17.5V2.5A2.476,2.476,0,0,0,17.5,0Z" transform="translate(149 407)"/>
    <path id="Path_7078" data-name="Path 7078" class="cls-3" d="M0,0H1V18H0Z" transform="translate(147 102)"/>
  </g>
</svg>
