<svg xmlns="http://www.w3.org/2000/svg" xmlns:xlink="http://www.w3.org/1999/xlink" width="1024" height="600" viewBox="0 0 1024 600"><defs><clipPath id="b"><rect width="1024" height="600"/></clipPath></defs><g id="a" clip-path="url(#b)"><rect width="1024" height="600" fill="#f4f4f6"/><rect width="250" height="530" transform="translate(0 70)" fill="#fff"/><rect width="1" height="530" transform="translate(249 70)" fill="#e6e6ea"/><rect width="1024" height="60" fill="#fff"/><rect width="1024" height="10" transform="translate(0 60)" fill="#1f5ea8"/><g transform="translate(-220.611 -32.669)"><path d="M340.587,52.669l-6.541,14.446L327.5,52.669h-2.616l9.16,20.259,9.167-20.259Z" fill="#8b8d8e"/><path d="M322.153,72.928h2.623L315.63,52.669h-1l-9.146,20.259h2.629l2.006-4.484h10.028Zm-10.965-6.865,3.938-8.684,3.938,8.684Z" fill="#8b8d8e"/><path d="M350.18,63.606h7.281V61.216H350.18V55.048H358.1l1.27-2.379H347.79V72.928h10.328l1.27-2.439H350.18Z" fill="#8b8d8e"/><path d="M303.177,52.669l-6.49,14.446-5.8-12.689-5.748,12.689-6.285-14.446h-3.9l-3.5,7.735,1.313,2.9,4.02-8.874,8.353,18.494,5.748-12.713,5.8,12.713,9.107-20.259Z" fill="#8b8d8e"/><path d="M245,70.511l11.6-17.834h-14.06l-1.085,2.373H252.21l-11.6,17.834h15.978l1.073-2.373Z" fill="#8b8d8e"/><path d="M265.319,52.669h-5.2l5.856,13-5.856,13h5.2l5.894-13Z" fill="#5FB53B"/></g><path d="M0,0,775,1" transform="translate(249.5 549)" fill="#e6e6ea" stroke="#eaeaea" stroke-width="1"/><g transform="translate(-45 165)"><text transform="translate(632 402)" fill="#5786bd" font-size="10" font-family="OpenSans, Open Sans"><tspan x="0" y="11" xml:space="preserve">               </tspan></text><text transform="translate(340 415)" fill="#7a7a7a" font-size="12" font-family="OpenSans, Open Sans"><tspan x="0" y="0">© 2003 - 2018 Zywave, Inc. All rights reserved.</tspan></text><text transform="translate(739 415)" fill="#5786bd" font-size="12" font-family="OpenSans, Open Sans"><tspan x="0" y="0">Privacy Statement</tspan></text><text transform="translate(850 415)" fill="#5786bd" font-size="12" font-family="OpenSans, Open Sans"><tspan x="0" y="0">DMCA</tspan></text><text transform="translate(895 415)" fill="#5786bd" font-size="12" font-family="SegoeUI, Segoe UI"><tspan x="0" y="0">Cookie Usage</tspan></text><text transform="translate(981 415)" fill="#5786bd" font-size="12" font-family="OpenSans, Open Sans"><tspan x="0" y="0">Contact</tspan></text><text transform="translate(606 415)" fill="#5786bd" font-size="12" font-family="OpenSans, Open Sans"><tspan x="0" y="0">Terms and Conditions</tspan></text></g><g fill="none" stroke="#f4f4f6" stroke-width="1"><rect width="1024" height="600" stroke="none"/><rect x="0.5" y="0.5" width="1023" height="599" fill="none"/></g></g></svg>