<svg xmlns="http://www.w3.org/2000/svg" xmlns:xlink="http://www.w3.org/1999/xlink" width="1024" height="800" viewBox="0 0 1024 800">
  <defs>
    <filter id="Rectangle_5362" x="59.5" y="218.5" width="209" height="185" filterUnits="userSpaceOnUse">
      <feOffset dx="3" dy="3" input="SourceAlpha"/>
      <feGaussianBlur stdDeviation="1.5" result="blur"/>
      <feFlood flood-opacity="0.161"/>
      <feComposite operator="in" in2="blur"/>
      <feComposite in="SourceGraphic"/>
    </filter>
    <clipPath id="clip-sidenav-anatomy--desktop-collapsed">
      <rect width="1024" height="800"/>
    </clipPath>
  </defs>
  <g id="sidenav-anatomy--desktop-collapsed" clip-path="url(#clip-sidenav-anatomy--desktop-collapsed)">
    <rect width="1024" height="800" fill="#f9f9fa"/>
    <path id="Path_5700" data-name="Path 5700" d="M0,0H60V735H0V0Z" transform="translate(0 65)" fill="#fff"/>
    <rect id="Rectangle_4697" data-name="Rectangle 4697" width="60" height="50" transform="translate(0 65)" fill="none"/>
    <rect id="Rectangle_5301" data-name="Rectangle 5301" width="60" height="50" transform="translate(0 65)" fill="none" opacity="0.3"/>
    <rect id="Rectangle_5294" data-name="Rectangle 5294" width="60" height="50" transform="translate(0 215)" fill="#f7f7f7"/>
    <rect id="Rectangle_5325" data-name="Rectangle 5325" width="60" height="50" transform="translate(0 265)" fill="none"/>
    <rect id="Rectangle_5363" data-name="Rectangle 5363" width="60" height="50" transform="translate(0 165)" fill="none"/>
    <rect id="Rectangle_5335" data-name="Rectangle 5335" width="60" height="50" transform="translate(0 315)" fill="none"/>
    <rect id="Rectangle_5338" data-name="Rectangle 5338" width="60" height="50" transform="translate(0 365)" fill="none"/>
    <rect id="Rectangle_3681" data-name="Rectangle 3681" width="60" height="50" transform="translate(0 115)" fill="none"/>
    <rect id="Rectangle_5289" data-name="Rectangle 5289" width="60" height="50" transform="translate(0 750)" fill="none"/>
    <rect id="Rectangle_5290" data-name="Rectangle 5290" width="60" height="1" transform="translate(0 755)" fill="#e6e6ea"/>
    <rect id="Rectangle_5295" data-name="Rectangle 5295" width="1" height="730" transform="translate(60 70)" fill="#e6e6ea"/>
    <rect id="Rectangle_5317" data-name="Rectangle 5317" width="20" height="20" transform="translate(20 80)" fill="none"/>
    <path id="zui-nav-home" d="M20,10.6H17.5v8.142a.833.833,0,0,1-.833.833H12V14.1H8v5.5H3.333a.833.833,0,0,1-.833-.833V10.6H0L10,.6Z" transform="translate(20 80.4)" fill="#31313a"/>
    <rect id="Rectangle_5319" data-name="Rectangle 5319" width="20" height="20" transform="translate(20 130)" fill="none"/>
    <g id="Accounts" transform="translate(30 140.375)">
      <g id="Group_8145" data-name="Group 8145" transform="translate(-10 -9.375)">
        <circle id="Ellipse_6" data-name="Ellipse 6" cx="3.167" cy="3.167" r="3.167" transform="translate(6.833)" fill="#31313a"/>
        <path id="Path_5793" data-name="Path 5793" d="M14.55,11.615v8.75H8.3v-8.75a3.5,3.5,0,0,1,6.25,0Z" transform="translate(-1.383 -1.615)" fill="#31313a"/>
        <circle id="Ellipse_7" data-name="Ellipse 7" cx="2.833" cy="2.833" r="2.833" transform="translate(14.333 0.583)" fill="#31313a"/>
        <path id="Path_5794" data-name="Path 5794" d="M22.883,11.237v7.833H17.3V11.237a3.046,3.046,0,0,1,5.583,0Z" transform="translate(-2.883 -1.571)" fill="#31313a"/>
        <circle id="Ellipse_8" data-name="Ellipse 8" cx="2.833" cy="2.833" r="2.833" transform="translate(0 0.583)" fill="#31313a"/>
        <path id="Path_5795" data-name="Path 5795" d="M5.667,11.249v7.833H0V11.249a3.167,3.167,0,0,1,1.417-1.5A3.083,3.083,0,0,1,2.75,9.5a3.083,3.083,0,0,1,1.417.25,3.167,3.167,0,0,1,1.5,1.5Z" transform="translate(0 -1.582)" fill="#31313a"/>
      </g>
    </g>
    <rect id="Rectangle_5320" data-name="Rectangle 5320" width="20" height="20" transform="translate(20 180)" fill="none"/>
    <g id="Proposal" transform="translate(30.333 190)">
      <path id="Path_5802" data-name="Path 5802" d="M14.667.833V19.167a.833.833,0,0,1-.833.833h-5V18.083c1.75-.333,3.25-1.333,3.25-3.25s-2.25-3.5-4.333-4.083S5,9.667,5,8.75s.917-1.667,2.5-1.667S9.75,7.833,9.833,9h2A3.667,3.667,0,0,0,8.917,5.5v-2H6v2c-1.75.417-3.25,1.583-3.25,3.333S4.5,12,7.083,12.667s2.75,1.333,2.75,2.25-.417,1.667-2.5,1.667-2.667-.833-2.75-1.917H2.667a3.753,3.753,0,0,0,3.417,3.5V20H.833A.833.833,0,0,1,0,19.167V.833A.833.833,0,0,1,.833,0h13A.833.833,0,0,1,14.667.833Z" transform="translate(-7.333 -10)" fill="#31313a"/>
    </g>
    <rect id="Rectangle_5320-2" data-name="Rectangle 5320" width="20" height="20" transform="translate(20 230)" fill="none"/>
    <g id="Toolbox" transform="translate(30 240.248)">
      <path id="Toolbox-2" data-name="Toolbox" d="M19.162,2.416H13.747V.833A.833.833,0,0,0,12.914,0H7.082a.833.833,0,0,0-.833.833V2.5H.833A.833.833,0,0,0,0,3.333v13.08a.833.833,0,0,0,.833.833H2v.916a.25.25,0,0,0,.25.25h1.5a.25.25,0,0,0,.25-.25v-.833H16v.916a.25.25,0,0,0,.25.25h1.5a.25.25,0,0,0,.25-.25v-.916h1.166A.833.833,0,0,0,20,16.5V3.333a.833.833,0,0,0-.75-.916ZM7.5,1.25h5V2.416h-5ZM18,11.414H2v-1H18Zm0-4.5H2v-1H18Z" transform="translate(-10 -9.248)" fill="#2372c0"/>
    </g>
    <g id="Group_8156" data-name="Group 8156" transform="translate(15002 1927)">
      <rect id="Rectangle_5333" data-name="Rectangle 5333" width="20" height="20" transform="translate(-14982 -1647)" fill="none"/>
      <g id="BellNotifications" transform="translate(-14971 -1635.444)">
        <path id="Path_5825" data-name="Path 5825" d="M19.038,16.923a.952.952,0,0,0-.952-.952h0a.692.692,0,0,1-.692-.692h0V9.221a7.875,7.875,0,0,0-6.231-7.7V1.346a1.731,1.731,0,0,0-3.375,0,1.3,1.3,0,0,0,0,.173A8.048,8.048,0,0,0,1.558,9.394v5.8a.692.692,0,0,1-.692.692h0A.952.952,0,0,0,0,16.837H0v1.3H7.875v.519a1.731,1.731,0,0,0,3.375,0v-.519h7.788Z" transform="translate(-11 -11.556)"/>
      </g>
    </g>
    <g transform="matrix(1, 0, 0, 1, 0, 0)" filter="url(#Rectangle_5362)">
      <rect id="Rectangle_5362-2" data-name="Rectangle 5362" width="200" height="176" transform="translate(61 220)" fill="#f7f7f7"/>
    </g>
    <g id="Group_8155" data-name="Group 8155" transform="translate(15085 1872)">
      <rect id="Rectangle_5334" data-name="Rectangle 5334" width="20" height="20" transform="translate(-15065 -1542)" fill="none"/>
      <g id="GearSettings" transform="translate(-15053.409 -1530)">
        <path id="Path_5826" data-name="Path 5826" d="M18.784,12.583l-1.25-.75A7.667,7.667,0,0,0,17.784,10a8.167,8.167,0,0,0-.25-1.75l1.333-.75A.833.833,0,0,0,19.2,6.333h0L17.534,3.5a.917.917,0,0,0-1.167-.333l-1.25.75a7.917,7.917,0,0,0-2.833-1.583V.833A.833.833,0,0,0,11.451,0H8.117a.833.833,0,0,0-.833.833v1.5a8,8,0,0,0-2.917,1.5l-1.25-.75a.833.833,0,0,0-1.167.25h0L.284,6.167A.833.833,0,0,0,.451,7.333h0l1.25.75a7.833,7.833,0,0,0,0,3.583L.451,12.5a.833.833,0,0,0-.333,1.167h0L1.784,16.5a.833.833,0,0,0,1.167.333h.083L4.367,16a8,8,0,0,0,2.75,1.583v1.583A.833.833,0,0,0,7.951,20h3.333a.833.833,0,0,0,.833-.833V17.583a7.75,7.75,0,0,0,2.667-1.5l1.333.833a.833.833,0,0,0,1.167-.25h.083l1.75-2.833a.833.833,0,0,0-.25-1.167Zm-11.583.5A4,4,0,0,1,5.7,10.5a4.083,4.083,0,0,1,0-.583,4.917,4.917,0,0,1,0-.5A4,4,0,0,1,7.117,6.833L8.2,6.167a3.917,3.917,0,0,1,1.417-.25,3.833,3.833,0,0,1,1.5.25L12.2,6.75a3.917,3.917,0,0,1,1.5,2.667,4.084,4.084,0,0,1,0,.5,3.5,3.5,0,0,1,0,.583,4.083,4.083,0,0,1-2.667,3.167l-1.333.25-1.333-.25a4,4,0,0,1-1.25-.583Z" transform="translate(-11.591 -12)"/>
      </g>
    </g>
    <g id="Group_8157" data-name="Group 8157" transform="translate(15059 2020)">
      <rect id="Rectangle_5332" data-name="Rectangle 5332" width="20" height="20" transform="translate(-15039 -1640)" fill="none"/>
      <g id="HelpTraining" transform="translate(-15027.187 -1628.003)">
        <path id="Path_5824" data-name="Path 5824" d="M11.942.5A9.085,9.085,0,0,0,6.024.5a8.919,8.919,0,0,0-2.417,1.25l-.583.5-.333.333A9,9,0,0,0,9.025,18h.5l-.417,1.667A.25.25,0,0,0,9.275,20h.083a10.28,10.28,0,0,0,8.669-10V9A9,9,0,0,0,11.942.5ZM9.108,15.916a1.25,1.25,0,1,1,1.25-1.25h0A1.25,1.25,0,0,1,9.108,15.916Zm2.667-6.752-1.084.917c-.667.5-.667.5-.667,1.334H8.108A3,3,0,0,1,9.442,8.581l.917-.834a2.167,2.167,0,0,0,.25-2.251,1.584,1.584,0,0,0-1.584-1c-1.75,0-1.917,1.917-1.917,2.167l-2-.167a4.057,4.057,0,0,1,4-4,3.584,3.584,0,0,1,3.417,2.251,4.084,4.084,0,0,1-.75,4.418Z" transform="translate(-10.814 -11.997)"/>
      </g>
    </g>
    <g id="Chevron-left" transform="translate(30 780) rotate(180)">
      <g id="Group_8160" data-name="Group 8160" transform="translate(-10 -10)">
        <rect id="Rectangle_5352" data-name="Rectangle 5352" width="20" height="20" fill="none"/>
        <path id="Path_5827" data-name="Path 5827" d="M18.35,18.75l-1.2,1.2a.25.25,0,0,1-.4,0L12,15.2a.25.25,0,0,1,0-.4l4.75-4.7a.25.25,0,0,1,.4,0l1.2,1.2a.25.25,0,0,1,0,.4L15,15l3.4,3.35a.25.25,0,0,1-.05.4Z" transform="translate(-5.95 -5)" fill="#2f2f2f"/>
      </g>
    </g>
    <rect id="Rectangle_5364" data-name="Rectangle 5364" width="200" height="1" transform="translate(61 269)" fill="#e6e6ea"/>
    <text id="Toolbox-3" data-name="Toolbox" transform="translate(81 251)" fill="#3d3d3d" font-size="14" font-family="SegoeUI-Bold, Segoe UI" font-weight="700"><tspan x="0" y="0">Toolbox</tspan></text>
    <text id="OHSA_Log" data-name="OHSA Log" transform="translate(81 297)" fill="#3d3d3d" font-size="14" font-family="SegoeUI, Segoe UI"><tspan x="0" y="0">OHSA Log</tspan></text>
    <text id="ACA_Reporting" data-name="ACA Reporting" transform="translate(81 381)" fill="#2372c0" font-size="14" font-family="SegoeUI-Bold, Segoe UI" font-weight="700"><tspan x="0" y="0">ACA Reporting</tspan></text>
    <rect id="Rectangle_5357" data-name="Rectangle 5357" width="200" height="50" transform="translate(61 220)" fill="none"/>
    <rect id="Rectangle_5358" data-name="Rectangle 5358" width="200" height="42" transform="translate(61 270)" fill="none"/>
    <rect id="Rectangle_5359" data-name="Rectangle 5359" width="200" height="42" transform="translate(61 312)" fill="#e6e6ea"/>
    <rect id="Rectangle_5360" data-name="Rectangle 5360" width="200" height="42" transform="translate(61 354)" fill="none"/>
    <text id="Handbook_Builder" data-name="Handbook Builder" transform="translate(81 339)" fill="#3d3d3d" font-size="14" font-family="SegoeUI, Segoe UI"><tspan x="0" y="0">Handbook Builder</tspan></text>
    <g id="Group_8108" data-name="Group 8108" transform="translate(-149 217)">
      <circle id="Ellipse_1" data-name="Ellipse 1" cx="15" cy="15" r="15" transform="translate(474 13)" fill="#d454a3"/>
      <text id="_1" data-name="1" transform="translate(484 33)" fill="#fff" font-size="16" font-family="SegoeUI-Bold, Segoe UI" font-weight="700"><tspan x="0" y="0">1</tspan></text>
    </g>
    <g id="Group_8185" data-name="Group 8185" transform="translate(-149 305)">
      <circle id="Ellipse_1-2" data-name="Ellipse 1" cx="15" cy="15" r="15" transform="translate(474 13)" fill="#d454a3"/>
      <text id="_2" data-name="2" transform="translate(484 33)" fill="#fff" font-size="16" font-family="SegoeUI-Bold, Segoe UI" font-weight="700"><tspan x="0" y="0">2</tspan></text>
    </g>
    <rect id="Rectangle_4064" data-name="Rectangle 4064" width="79" height="1" transform="translate(246 245)" fill="#d454a3"/>
    <rect id="Rectangle_5411" data-name="Rectangle 5411" width="50" height="1" transform="translate(275 333)" fill="#d454a3"/>
    <rect id="Rectangle_4076" data-name="Rectangle 4076" width="1" height="127" transform="translate(275 269)" fill="#d454a3"/>
    <rect id="Rectangle_5412" data-name="Rectangle 5412" width="5" height="1" transform="translate(273 269)" fill="#d454a3"/>
    <rect id="Rectangle_5413" data-name="Rectangle 5413" width="5" height="1" transform="translate(273 395)" fill="#d454a3"/>
    <g id="Group_8186" data-name="Group 8186" transform="translate(-343 747)">
      <circle id="Ellipse_1-3" data-name="Ellipse 1" cx="15" cy="15" r="15" transform="translate(474 13)" fill="#d454a3"/>
      <text id="_1-2" data-name="1" transform="translate(484 33)" fill="#fff" font-size="16" font-family="SegoeUI-Bold, Segoe UI" font-weight="700"><tspan x="0" y="0">1</tspan></text>
    </g>
    <rect id="Rectangle_5414" data-name="Rectangle 5414" width="79" height="1" transform="translate(52 775)" fill="#d454a3"/>
    <g id="Group_13269" data-name="Group 13269" transform="translate(0 60)">
      <path id="Path_5690" data-name="Path 5690" d="M0,0H1024V5H0Z" fill="#2777d3"/>
    </g>
    <g id="Group_13268" data-name="Group 13268">
      <rect id="Rectangle_1" data-name="Rectangle 1" width="1024" height="60" fill="#fff"/>
      <g id="Group_12278" data-name="Group 12278" transform="translate(816)">
        <rect id="Rectangle_5392" data-name="Rectangle 5392" width="208" height="60" fill="none"/>
        <g id="Group_8927" data-name="Group 8927" transform="translate(72 14)">
          <text id="Adam_Gilson" data-name="Adam Gilson" transform="translate(81 15)" fill="#494955" font-size="14" font-family="SegoeUI-Semibold, Segoe UI" font-weight="600"><tspan x="-81.033" y="0">Adam Gilson</tspan></text>
        </g>
        <circle id="Ellipse_402" data-name="Ellipse 402" cx="18" cy="18" r="18" transform="translate(162 13)" fill="#78788c"/>
        <text id="Willis_Insurance_-_Nashville" data-name="Willis Insurance - Nashville" transform="translate(153 45)" fill="#494955" font-size="12" font-family="SegoeUI, Segoe UI"><tspan x="-141.047" y="0">Willis Insurance - Nashville</tspan></text>
        <text id="AG" transform="translate(171 36)" fill="#fff" font-size="14" font-family="SegoeUI-Semibold, Segoe UI" font-weight="600"><tspan x="0" y="0">AG</tspan></text>
      </g>
      <g id="Group_12989" data-name="Group 12989">
        <rect id="Rectangle_6530" data-name="Rectangle 6530" width="198" height="60" fill="none"/>
        <g id="Group_72" data-name="Group 72" transform="translate(57 20)">
          <g id="Group_6" data-name="Group 6">
            <path id="Path_467" data-name="Path 467" d="M440.678,0l-6.233,13.788L428.193,0H425.7l8.745,19.322L443.19,0Z" transform="translate(-345.294)" fill="#8b8d8e"/>
            <path id="Path_468" data-name="Path 468" d="M343.6,19.322h2.512L337.39,0h-.963L327.7,19.322h2.512l1.908-4.269H341.7ZM333.14,12.787,336.9,4.5l3.759,8.292Z" transform="translate(-265.804)" fill="#8b8d8e"/>
            <path id="Path_469" data-name="Path 469" d="M543.685,10.426h6.951V8.16h-6.951V2.267h7.555L552.45,0H541.4V19.322h9.859L552.468,17h-8.783Z" transform="translate(-439.14)" fill="#8b8d8e"/>
            <path id="Path_470" data-name="Path 470" d="M186.078,0l-6.2,13.788L174.348,1.681l-5.5,12.107L162.864,0h-3.721L155.8,7.385l1.247,2.758,3.834-8.462,7.971,17.641,5.5-12.126,5.534,12.126L188.571,0Z" transform="translate(-126.372)" fill="#8b8d8e"/>
            <path id="Path_471" data-name="Path 471" d="M4.193,17.018,15.262,0H1.851L.812,2.267H11.068L0,19.285H15.243l1.02-2.267Z" fill="#8b8d8e"/>
          </g>
          <path id="Path_472" data-name="Path 472" d="M103.468,0H98.5l5.591,12.409L98.5,24.8h4.968L109.1,12.409Z" transform="translate(-79.895)" fill="#5fb53b"/>
        </g>
        <g id="Group_12812" data-name="Group 12812" transform="translate(10 12)">
          <g id="Icon_Link_-_Hover" data-name="Icon Link - Hover">
            <rect id="Rectangle_5756" data-name="Rectangle 5756" width="36" height="36" rx="18" fill="none"/>
          </g>
          <path id="Path_8220" data-name="Path 8220" d="M172,94.5v3a.472.472,0,0,1-.5.5h-3a.472.472,0,0,1-.5-.5v-3a.472.472,0,0,1,.5-.5h3A.472.472,0,0,1,172,94.5Zm5.5-.5h-3a.472.472,0,0,0-.5.5v3a.472.472,0,0,0,.5.5h3a.472.472,0,0,0,.5-.5v-3A.472.472,0,0,0,177.5,94Zm-6,12h-3a.472.472,0,0,0-.5.5v3a.472.472,0,0,0,.5.5h3a.472.472,0,0,0,.5-.5v-3A.472.472,0,0,0,171.5,106Zm12-12h-3a.472.472,0,0,0-.5.5v3a.472.472,0,0,0,.5.5h3a.472.472,0,0,0,.5-.5v-3A.472.472,0,0,0,183.5,94Zm-12,6h-3a.472.472,0,0,0-.5.5v3a.472.472,0,0,0,.5.5h3a.472.472,0,0,0,.5-.5v-3A.472.472,0,0,0,171.5,100Zm6,0h-3a.472.472,0,0,0-.5.5v3a.472.472,0,0,0,.5.5h3a.472.472,0,0,0,.5-.5v-3A.472.472,0,0,0,177.5,100Zm0,6h-3a.472.472,0,0,0-.5.5v3a.472.472,0,0,0,.5.5h3a.472.472,0,0,0,.5-.5v-3A.472.472,0,0,0,177.5,106Zm6-6h-3a.472.472,0,0,0-.5.5v3a.472.472,0,0,0,.5.5h3a.472.472,0,0,0,.5-.5v-3A.472.472,0,0,0,183.5,100Zm0,6h-3a.472.472,0,0,0-.5.5v3a.472.472,0,0,0,.5.5h3a.472.472,0,0,0,.5-.5v-3A.472.472,0,0,0,183.5,106Z" transform="translate(-158 -84)" fill="#78788c"/>
        </g>
      </g>
    </g>
  </g>
</svg>
