<svg xmlns="http://www.w3.org/2000/svg" xmlns:xlink="http://www.w3.org/1999/xlink" width="731" height="116" viewBox="0 0 731 116">
  <defs>
    <filter id="Rectangle_3883" x="2" y="29" width="705" height="1030" filterUnits="userSpaceOnUse">
      <feOffset dy="8" input="SourceAlpha"/>
      <feGaussianBlur stdDeviation="5" result="blur"/>
      <feFlood flood-opacity="0.4"/>
      <feComposite operator="in" in2="blur"/>
      <feComposite in="SourceGraphic"/>
    </filter>
    <filter id="Rectangle_3882" x="-28" y="-3" width="765" height="1090" filterUnits="userSpaceOnUse">
      <feOffset dy="6" input="SourceAlpha"/>
      <feGaussianBlur stdDeviation="15" result="blur-2"/>
      <feFlood flood-opacity="0.122"/>
      <feComposite operator="in" in2="blur-2"/>
      <feComposite in="SourceGraphic"/>
    </filter>
    <filter id="Rectangle_3880" x="11" y="36" width="687" height="1022" filterUnits="userSpaceOnUse">
      <feOffset dy="16" input="SourceAlpha"/>
      <feGaussianBlur stdDeviation="2" result="blur-3"/>
      <feFlood flood-opacity="0.141"/>
      <feComposite operator="in" in2="blur-3"/>
      <feComposite in="SourceGraphic"/>
    </filter>
    <clipPath id="clip-dialog_Padding_Viewport">
      <rect width="731" height="116"/>
    </clipPath>
  </defs>
  <g id="dialog_Padding_Viewport" clip-path="url(#clip-dialog_Padding_Viewport)">
    <rect width="731" height="116" fill="rgba(0,0,0,0.6)"/>
    <g id="Group_7689" data-name="Group 7689" transform="translate(-309 -649)">
      <g transform="matrix(1, 0, 0, 1, 309, 649)" filter="url(#Rectangle_3883)">
        <rect id="Rectangle_3883-2" data-name="Rectangle 3883" width="675" height="1000" transform="translate(17 36)" fill="#fff"/>
      </g>
      <g transform="matrix(1, 0, 0, 1, 309, 649)" filter="url(#Rectangle_3882)">
        <rect id="Rectangle_3882-2" data-name="Rectangle 3882" width="675" height="1000" transform="translate(17 36)" fill="#fff"/>
      </g>
      <g transform="matrix(1, 0, 0, 1, 309, 649)" filter="url(#Rectangle_3880)">
        <rect id="Rectangle_3880-2" data-name="Rectangle 3880" width="675" height="1000" transform="translate(17 36)" fill="#fff"/>
      </g>
    </g>
    <rect id="Rectangle_3856" data-name="Rectangle 3856" width="450" height="37.5" transform="translate(17 64)" fill="none"/>
    <rect id="Rectangle_3864" data-name="Rectangle 3864" width="615" height="940" transform="translate(47 66)" fill="#fff"/>
    <text id="Headline_Title" data-name="Headline Title" transform="translate(47.3 94)" fill="#3d3d3d" font-size="26" font-family="OpenSans-Semibold, Open Sans" font-weight="600"><tspan x="0" y="0">Headline Title</tspan></text>
    <g id="Group_7686" data-name="Group 7686" transform="translate(40)">
      <rect id="Rectangle_3872" data-name="Rectangle 3872" width="1" height="36" transform="translate(540)" fill="#ff00bc"/>
      <rect id="Rectangle_3873" data-name="Rectangle 3873" width="5" height="1" transform="translate(538)" fill="#ff00bc"/>
      <rect id="Rectangle_3871" data-name="Rectangle 3871" width="5" height="1" transform="translate(538 35)" fill="#ff00bc"/>
      <text id="_36px" data-name="36px" transform="translate(552.3 21.5)" fill="#ff00bc" font-size="14" font-family="OpenSans, Open Sans"><tspan x="0" y="0">36px</tspan></text>
    </g>
    <rect id="Rectangle_3872-2" data-name="Rectangle 3872" width="1" height="1000" transform="translate(678 36)" fill="#ff00bc"/>
    <rect id="Rectangle_3873-2" data-name="Rectangle 3873" width="5" height="1" transform="translate(676 36)" fill="#ff00bc"/>
    <path id="Path_5553" data-name="Path 5553" d="M752.445,29.521a2,2,0,0,1-2.823,2.824l-4.572-4.571-4.571,4.571a2,2,0,0,1-2.824-2.824l4.572-4.571-4.572-4.571a2,2,0,0,1,2.824-2.824l4.571,4.571,4.572-4.571a2,2,0,0,1,2.823,2.824l-4.571,4.571Z" transform="translate(-36.05 -3.95)" fill="#fff"/>
  </g>
</svg>
