<svg xmlns="http://www.w3.org/2000/svg" xmlns:xlink="http://www.w3.org/1999/xlink" width="579" height="545" viewBox="0 0 579 545">
  <defs>
    <filter id="Rectangle_3883" x="28" y="127" width="505" height="380" filterUnits="userSpaceOnUse">
      <feOffset dy="8" input="SourceAlpha"/>
      <feGaussianBlur stdDeviation="5" result="blur"/>
      <feFlood flood-opacity="0.4"/>
      <feComposite operator="in" in2="blur"/>
      <feComposite in="SourceGraphic"/>
    </filter>
    <filter id="Rectangle_3882" x="-2" y="95" width="565" height="440" filterUnits="userSpaceOnUse">
      <feOffset dy="6" input="SourceAlpha"/>
      <feGaussianBlur stdDeviation="15" result="blur-2"/>
      <feFlood flood-opacity="0.122"/>
      <feComposite operator="in" in2="blur-2"/>
      <feComposite in="SourceGraphic"/>
    </filter>
    <filter id="Rectangle_3880" x="37" y="134" width="487" height="372" filterUnits="userSpaceOnUse">
      <feOffset dy="16" input="SourceAlpha"/>
      <feGaussianBlur stdDeviation="2" result="blur-3"/>
      <feFlood flood-opacity="0.141"/>
      <feComposite operator="in" in2="blur-3"/>
      <feComposite in="SourceGraphic"/>
    </filter>
    <clipPath id="clip-dialog_Small">
      <rect width="579" height="545"/>
    </clipPath>
  </defs>
  <g id="dialog_Small" clip-path="url(#clip-dialog_Small)">
    <rect width="579" height="545" fill="#fff"/>
    <g id="Group_7710" data-name="Group 7710" transform="translate(-359 -108)">
      <g id="Group_7690" data-name="Group 7690" transform="translate(0 107)">
        <g transform="matrix(1, 0, 0, 1, 359, 1)" filter="url(#Rectangle_3883)">
          <rect id="Rectangle_3883-2" data-name="Rectangle 3883" width="475" height="350" transform="translate(43 134)" fill="#f7b6e6"/>
        </g>
        <g transform="matrix(1, 0, 0, 1, 359, 1)" filter="url(#Rectangle_3882)">
          <rect id="Rectangle_3882-2" data-name="Rectangle 3882" width="475" height="350" transform="translate(43 134)" fill="#f7b6e6"/>
        </g>
        <g transform="matrix(1, 0, 0, 1, 359, 1)" filter="url(#Rectangle_3880)">
          <rect id="Rectangle_3880-2" data-name="Rectangle 3880" width="475" height="350" transform="translate(43 134)" fill="#f7b6e6"/>
        </g>
      </g>
      <g id="Group_7683" data-name="Group 7683" transform="translate(78 108)">
        <circle id="Ellipse_1" data-name="Ellipse 1" cx="21" cy="21" r="21" transform="translate(795 100)" fill="#dfdfdf" opacity="0.34"/>
        <path id="Path_5553" data-name="Path 5553" d="M752.445,29.521a2,2,0,0,1-2.823,2.824l-4.572-4.571-4.571,4.571a2,2,0,0,1-2.824-2.824l4.572-4.571-4.572-4.571a2,2,0,0,1,2.824-2.824l4.571,4.571,4.572-4.571a2,2,0,0,1,2.823,2.824l-4.571,4.571Z" transform="translate(70.95 96.05)" fill="#fff"/>
      </g>
      <rect id="Rectangle_3864" data-name="Rectangle 3864" width="415" height="290" transform="translate(432 272)" fill="#fff"/>
      <text id="Headline_Title" data-name="Headline Title" transform="translate(432.3 300)" fill="#3d3d3d" font-size="26" font-family="OpenSans-Semibold, Open Sans" font-weight="600"><tspan x="0" y="0">Headline Title</tspan></text>
      <rect id="Rectangle_3878" data-name="Rectangle 3878" width="415" height="173" transform="translate(432 323)" fill="#fcf8e5"/>
      <rect id="Rectangle_3877" data-name="Rectangle 3877" width="415" height="66" transform="translate(432 496)" fill="#f9eeb9"/>
      <text id="Lorem_ipsum_dolor_sit_amet_consectetuer_adipiscing_elit._Aenean_commodo_ligula_eget_dolor._Aenean_massa._Cum_sociis_natoque_penatibus_et_magnis_dis_parturient_montes_" data-name="Lorem ipsum dolor sit amet, consectetuer adipiscing elit. Aenean commodo ligula eget dolor.  Aenean massa. Cum sociis natoque penatibus et magnis dis parturient montes," transform="translate(432.3 323)" fill="#707070" font-size="14" font-family="OpenSans, Open Sans"><tspan x="0" y="15">Lorem ipsum dolor sit amet, consectetuer adipiscing elit. </tspan><tspan x="0" y="34" xml:space="preserve">Aenean commodo ligula eget dolor.  Aenean massa. Cum sociis </tspan><tspan x="0" y="53">natoque penatibus et magnis dis parturient montes,</tspan></text>
      <rect id="Rectangle_3865" data-name="Rectangle 3865" width="1" height="15" transform="translate(591.3 308)" fill="#ff00bc"/>
      <rect id="Rectangle_3866" data-name="Rectangle 3866" width="1" height="30" transform="translate(762.3 496)" fill="#ff00bc"/>
      <rect id="Rectangle_3867" data-name="Rectangle 3867" width="5" height="1" transform="translate(760.3 496)" fill="#ff00bc"/>
      <rect id="Rectangle_3868" data-name="Rectangle 3868" width="5" height="1" transform="translate(760.3 525)" fill="#ff00bc"/>
      <text id="_30px" data-name="30px" transform="translate(719.3 517)" fill="#ff00bc" font-size="14" font-family="OpenSans, Open Sans"><tspan x="0" y="0">30px</tspan></text>
      <rect id="Rectangle_3869" data-name="Rectangle 3869" width="5" height="1" transform="translate(589.3 308)" fill="#ff00bc"/>
      <rect id="Rectangle_3870" data-name="Rectangle 3870" width="5" height="1" transform="translate(589.3 322)" fill="#ff00bc"/>
      <text id="_15px" data-name="15px" transform="translate(596.3 321)" fill="#ff00bc" font-size="14" font-family="OpenSans, Open Sans"><tspan x="0" y="0">15px</tspan></text>
      <g id="Group_7676" data-name="Group 7676" transform="translate(-106.7 107)">
        <rect id="Rectangle_3872" data-name="Rectangle 3872" width="1" height="30" transform="translate(548 135)" fill="#ff00bc"/>
        <rect id="Rectangle_3873" data-name="Rectangle 3873" width="5" height="1" transform="translate(546 135)" fill="#ff00bc"/>
        <rect id="Rectangle_3871" data-name="Rectangle 3871" width="5" height="1" transform="translate(546 164)" fill="#ff00bc"/>
        <text id="_30px-2" data-name="30px" transform="translate(555 156)" fill="#ff00bc" font-size="14" font-family="OpenSans, Open Sans"><tspan x="0" y="0">30px</tspan></text>
      </g>
      <g id="Group_7677" data-name="Group 7677" transform="translate(617.3 -47) rotate(90)">
        <rect id="Rectangle_3872-2" data-name="Rectangle 3872" width="1" height="30" transform="translate(331 185)" fill="#ff00bc"/>
        <rect id="Rectangle_3873-2" data-name="Rectangle 3873" width="5" height="1" transform="translate(329 185)" fill="#ff00bc"/>
        <rect id="Rectangle_3871-2" data-name="Rectangle 3871" width="5" height="1" transform="translate(329 214)" fill="#ff00bc"/>
      </g>
      <text id="_30px-3" data-name="30px" transform="translate(401.3 308)" fill="#ff00bc" font-size="14" font-family="OpenSans, Open Sans"><tspan x="0" y="0">30px</tspan></text>
      <g id="Group_7706" data-name="Group 7706" transform="translate(0 10)">
        <rect id="Rectangle_3873-3" data-name="Rectangle 3873" width="5" height="1" transform="translate(877 146) rotate(90)" fill="#ff00bc"/>
        <rect id="Rectangle_3871-3" data-name="Rectangle 3871" width="5" height="1" transform="translate(403 146) rotate(90)" fill="#ff00bc"/>
        <text id="_475px" data-name="475px" transform="translate(620 171)" fill="#ff00bc" font-size="14" font-family="OpenSans, Open Sans"><tspan x="0" y="0">475px</tspan></text>
        <rect id="Rectangle_3893" data-name="Rectangle 3893" width="475" height="1" transform="translate(402 148)" fill="#ff00bc"/>
      </g>
      <g id="Group_7708" data-name="Group 7708" transform="translate(10 47)">
        <g id="Group_7681" data-name="Group 7681" transform="translate(78.3 -85)">
          <g id="Group_7675" data-name="Group 7675" transform="translate(80.2 164.4)">
            <rect id="Rectangle_3897" data-name="Rectangle 3897" width="60" height="36" rx="18" transform="translate(618.5 399.6)" fill="#1f5ea8"/>
            <text id="Save" transform="translate(633.831 423.574)" fill="#fff" font-size="14" font-family="OpenSans, Open Sans"><tspan x="0" y="0">Save</tspan></text>
          </g>
        </g>
        <g id="Group_7707" data-name="Group 7707" transform="translate(-6.7 -85)">
          <g id="Group_7675-2" data-name="Group 7675" transform="translate(80.2 164.4)">
            <rect id="Rectangle_3897-2" data-name="Rectangle 3897" width="73" height="36" rx="18" transform="translate(618.5 399.6)" fill="none"/>
            <text id="Cancel" transform="translate(633.831 423.574)" fill="#1f5ea8" font-size="14" font-family="OpenSans, Open Sans"><tspan x="0" y="0">Cancel</tspan></text>
          </g>
        </g>
      </g>
    </g>
  </g>
</svg>
