<svg xmlns="http://www.w3.org/2000/svg" viewBox="0 0 159.61 132.23"><title>compliance calendar</title><path d="M149.63,14.38A41.22,41.22,0,0,0,91.45,10a41.92,41.92,0,0,0-5.79,6.12,7.59,7.59,0,0,1-9.23,2.19A48.26,48.26,0,0,0,36,105.92a46.3,46.3,0,0,0,5.76,2.23,37.69,37.69,0,0,1,16.86,11l.25.28a39.17,39.17,0,0,0,67.75-31.95,6.06,6.06,0,0,1,4.13-6.64,41.41,41.41,0,0,0,18.93-66.42Z" style="fill:#f0f0f2"/><path d="M79.7,13.52a4.4,4.4,0,1,0-4.39-4.4h0A4.4,4.4,0,0,0,79.7,13.52Zm0-8.13A3.74,3.74,0,1,1,76,9.12h0A3.73,3.73,0,0,1,79.7,5.39Z" style="fill:#f0f0f2"/><path d="M73.58,5.06a2.37,2.37,0,1,0-2.36-2.37,2.37,2.37,0,0,0,2.36,2.37Zm0-4.06a1.7,1.7,0,1,1-1.69,1.69A1.7,1.7,0,0,1,73.58,1Z" style="fill:#f0f0f2"/><path d="M136.19,86.42a4.4,4.4,0,1,0,4.39,4.4A4.39,4.39,0,0,0,136.19,86.42Zm0,8.13a3.74,3.74,0,1,1,3.73-3.74h0a3.74,3.74,0,0,1-3.73,3.74Z" style="fill:#f0f0f2"/><path d="M4.39,82.46a4.39,4.39,0,1,0,4.39,4.39,4.38,4.38,0,0,0-4.39-4.39Zm0,8.12a3.74,3.74,0,1,1,3.73-3.73h0A3.73,3.73,0,0,1,4.39,90.58Z" style="fill:#f0f0f2"/><path d="M140.67,81.53A2.37,2.37,0,1,0,143,83.9a2.37,2.37,0,0,0-2.36-2.37Zm0,4.07a1.7,1.7,0,1,1,1.7-1.7h0a1.7,1.7,0,0,1-1.7,1.7Z" style="fill:#f0f0f2"/><path d="M154,11.48a2.37,2.37,0,1,0-2.37-2.36A2.36,2.36,0,0,0,154,11.48Zm0-4.06a1.7,1.7,0,1,1-1.7,1.7h0a1.7,1.7,0,0,1,1.7-1.7Z" style="fill:#f0f0f2"/><path d="M46.31,111.6A2.37,2.37,0,1,0,48.67,114a2.37,2.37,0,0,0-2.36-2.37Zm0,4.06A1.7,1.7,0,1,1,48,114h0a1.71,1.71,0,0,1-1.69,1.7Z" style="fill:#f0f0f2"/><rect x="35.61" y="13.43" width="80" height="110" style="fill:#fff"/><path d="M115.61,13.43v110h-80v-110h80m0-2h-80a2,2,0,0,0-2,2v110a2,2,0,0,0,2,2h80a2,2,0,0,0,2-2v-110a2,2,0,0,0-2-2Z" style="fill:#9393a3"/><rect x="45.11" y="55.43" width="11.5" height="11.5" rx="1.5" style="fill:#dfe0e5"/><path d="M55.11,56.43a.5.5,0,0,1,.5.5v8.5a.5.5,0,0,1-.5.5h-8.5a.5.5,0,0,1-.5-.5v-8.5a.5.5,0,0,1,.5-.5h8.5m0-2h-8.5a2.51,2.51,0,0,0-2.5,2.5v8.5a2.51,2.51,0,0,0,2.5,2.5h8.5a2.5,2.5,0,0,0,2.5-2.5v-8.5a2.5,2.5,0,0,0-2.5-2.5Z" style="fill:#9393a3"/><rect x="62.11" y="54.93" width="44" height="12" rx="0.5" style="fill:#bebec6;stroke:#9393a3;stroke-miterlimit:10;stroke-width:2px"/><rect x="62.11" y="75.93" width="44" height="12" rx="0.5" style="fill:#bebec6;stroke:#9393a3;stroke-miterlimit:10;stroke-width:2px"/><rect x="62.11" y="96.93" width="44" height="12" rx="0.5" style="fill:#bebec6;stroke:#9393a3;stroke-miterlimit:10;stroke-width:2px"/><polygon points="38.61 120.43 38.61 13.43 35.61 13.43 35.61 123.43 115.61 123.43 115.61 120.43 38.61 120.43" style="fill:#dfe0e5"/><path d="M88.53,27.34v8.1a.45.45,0,0,1-.45.45h-7.3a.11.11,0,0,0-.12.11v7.31a.45.45,0,0,1-.45.44H72.12a.45.45,0,0,1-.45-.44V36a.11.11,0,0,0-.11-.11H64.25a.45.45,0,0,1-.45-.45v-8.1a.45.45,0,0,1,.45-.45h7.31a.11.11,0,0,0,.11-.11V19.47a.45.45,0,0,1,.45-.45h8.09a.45.45,0,0,1,.45.45v7.31a.11.11,0,0,0,.12.11h7.3A.45.45,0,0,1,88.53,27.34Z" style="fill:#dfe0e5"/><path d="M71.67,27.68v-1H64.33a.5.5,0,0,0-.53.45v.67h7.74A.12.12,0,0,0,71.67,27.68Z" style="fill:#fff"/><path d="M79.54,35.79v7.74h.67a.49.49,0,0,0,.45-.52V35.66h-1A.12.12,0,0,0,79.54,35.79Z" style="fill:#fff"/><path d="M88.08,26.67h-7.3a.12.12,0,0,1-.12-.12v-7.3a.45.45,0,0,0-.45-.45H72.12a.45.45,0,0,0-.45.45v.67h7.42a.45.45,0,0,1,.45.45v7.31a.11.11,0,0,0,.11.11H87a.45.45,0,0,1,.45.45v7.42h.67a.45.45,0,0,0,.45-.45V27.12A.45.45,0,0,0,88.08,26.67Z" style="fill:#fff"/><path d="M72.57,42.18V34.87a.11.11,0,0,0-.11-.11H65.15a.45.45,0,0,1-.45-.45V26.89h-.45a.45.45,0,0,0-.45.45v8.1a.45.45,0,0,0,.45.45h7.31a.11.11,0,0,1,.11.11v7.31a.45.45,0,0,0,.45.44h8.09a.45.45,0,0,0,.45-.44v-.68H73A.45.45,0,0,1,72.57,42.18Z" style="fill:#bebec6"/><path d="M72.57,26.76V19h-.45a.5.5,0,0,0-.45.53v7.34h.79A.12.12,0,0,0,72.57,26.76Z" style="fill:#bebec6"/><path d="M80.66,34.87v1H88a.48.48,0,0,0,.5-.45v-.68H80.79A.12.12,0,0,0,80.66,34.87Z" style="fill:#bebec6"/><path d="M80.21,19a.45.45,0,0,1,.45.45v7.31a.11.11,0,0,0,.12.11h7.3a.45.45,0,0,1,.45.45v8.1a.45.45,0,0,1-.45.45h-7.3a.11.11,0,0,0-.12.11v7.31a.45.45,0,0,1-.45.44H72.12a.45.45,0,0,1-.45-.44V36a.11.11,0,0,0-.11-.11H64.25a.45.45,0,0,1-.45-.45v-8.1a.45.45,0,0,1,.45-.45h7.31a.11.11,0,0,0,.11-.11V19.47a.45.45,0,0,1,.45-.45h8.09m0-2H72.12a2.45,2.45,0,0,0-2.45,2.45v5.42H64.25a2.45,2.45,0,0,0-2.45,2.45v8.1a2.45,2.45,0,0,0,2.45,2.45h5.42v5.42a2.45,2.45,0,0,0,2.45,2.44h8.09a2.44,2.44,0,0,0,2.45-2.44V37.89h5.42a2.45,2.45,0,0,0,2.45-2.45v-8.1a2.45,2.45,0,0,0-2.45-2.45H82.66V19.47A2.45,2.45,0,0,0,80.21,17Z" style="fill:#9393a3"/><path d="M55.11,56.43h-8.5a.5.5,0,0,0-.5.5v.5h8a.5.5,0,0,1,.5.5v8h.5a.5.5,0,0,0,.5-.5v-8.5A.5.5,0,0,0,55.11,56.43Z" style="fill:#fff"/><path d="M47.61,64.93a.5.5,0,0,1-.5-.5v-8h-.5a.5.5,0,0,0-.5.5v8.5a.5.5,0,0,0,.5.5h8.5a.5.5,0,0,0,.5-.5v-.5Z" style="fill:#bebec6"/><rect x="45.11" y="75.43" width="11.5" height="11.5" rx="1.5" style="fill:#dfe0e5"/><path d="M55.11,76.43a.5.5,0,0,1,.5.5v8.5a.5.5,0,0,1-.5.5h-8.5a.5.5,0,0,1-.5-.5v-8.5a.5.5,0,0,1,.5-.5h8.5m0-2h-8.5a2.51,2.51,0,0,0-2.5,2.5v8.5a2.51,2.51,0,0,0,2.5,2.5h8.5a2.5,2.5,0,0,0,2.5-2.5v-8.5a2.5,2.5,0,0,0-2.5-2.5Z" style="fill:#9393a3"/><path d="M55.11,76.43h-8.5a.5.5,0,0,0-.5.5v.5h8a.5.5,0,0,1,.5.5v8h.5a.5.5,0,0,0,.5-.5v-8.5A.5.5,0,0,0,55.11,76.43Z" style="fill:#fff"/><path d="M47.61,84.93a.5.5,0,0,1-.5-.5v-8h-.5a.5.5,0,0,0-.5.5v8.5a.5.5,0,0,0,.5.5h8.5a.5.5,0,0,0,.5-.5v-.5Z" style="fill:#bebec6"/><rect x="45.11" y="96.43" width="11.5" height="11.5" rx="1.5" style="fill:#dfe0e5"/><path d="M55.11,97.43a.5.5,0,0,1,.5.5v8.5a.5.5,0,0,1-.5.5h-8.5a.5.5,0,0,1-.5-.5v-8.5a.5.5,0,0,1,.5-.5h8.5m0-2h-8.5a2.51,2.51,0,0,0-2.5,2.5v8.5a2.51,2.51,0,0,0,2.5,2.5h8.5a2.5,2.5,0,0,0,2.5-2.5v-8.5a2.5,2.5,0,0,0-2.5-2.5Z" style="fill:#9393a3"/><path d="M55.11,97.43h-8.5a.5.5,0,0,0-.5.5v.5h8a.5.5,0,0,1,.5.5v8h.5a.5.5,0,0,0,.5-.5v-8.5A.5.5,0,0,0,55.11,97.43Z" style="fill:#fff"/><path d="M47.61,105.93a.5.5,0,0,1-.5-.5v-8h-.5a.5.5,0,0,0-.5.5v8.5a.5.5,0,0,0,.5.5h8.5a.5.5,0,0,0,.5-.5v-.5Z" style="fill:#bebec6"/><path d="M144.25,69.62l-9,51.22a2,2,0,0,1-2.32,1.62l-51.22-9a2,2,0,0,1-1.62-2.32l9-51.22a2,2,0,0,1,2.32-1.62l12.8,2.24.52-3a2,2,0,0,1,3.94.69l-.52,2.95,17.73,3.11.52-3a2,2,0,0,1,2.31-1.62,2,2,0,0,1,1.29.82,2,2,0,0,1,.34,1.49l-.52,3,12.8,2.24A2,2,0,0,1,144.25,69.62Z" style="fill:#3b75ba"/><path d="M87.31,75.88l-5.69,32.51a1,1,0,0,0,.81,1.16l51.22,9a1,1,0,0,0,1.16-.81L140.5,85.2Zm19.54,29.5a8.55,8.55,0,0,1-5.49.49,12.89,12.89,0,0,1-4.9-1.83l.56-3.16a11.2,11.2,0,0,0,2.09,1.24,9.58,9.58,0,0,0,2.37.75,4.85,4.85,0,0,0,2.82-.15,2.35,2.35,0,0,0,1.23-1.85,1.83,1.83,0,0,0-.71-1.93,7.6,7.6,0,0,0-3.12-1.08l-1.33-.23.5-2.85,1.35.24a6.35,6.35,0,0,0,3.08,0,2,2,0,0,0,1.26-1.66c.23-1.33-.48-2.14-2.15-2.43a5.7,5.7,0,0,0-1.8,0,8.52,8.52,0,0,0-2.16.64l-1.27-2.85a9.73,9.73,0,0,1,6-.73,7.5,7.5,0,0,1,4.11,1.86,3.61,3.61,0,0,1,1,3.35,4.19,4.19,0,0,1-1.49,2.62,5.26,5.26,0,0,1-3.07,1.09V97a5.68,5.68,0,0,1,3,1.85,3.65,3.65,0,0,1,.6,3A4.72,4.72,0,0,1,106.85,105.38Zm12.72,3.44-3.7-.65L117.65,98l.32-1.66.38-1.81c-.72.5-1.22.83-1.49,1l-2.3,1.27-1.4-2.54,6.44-3.51,3.05.53Z" style="fill:#fff;opacity:0.5"/><g style="opacity:0.30000000000000004"><path d="M110.35,93.17a4.19,4.19,0,0,1-1.49,2.62,5.26,5.26,0,0,1-3.07,1.09V97a5.68,5.68,0,0,1,3,1.85,3.65,3.65,0,0,1,.6,3,4.72,4.72,0,0,1-2.52,3.62,8.55,8.55,0,0,1-5.49.49,12.89,12.89,0,0,1-4.9-1.83l.56-3.16a11.2,11.2,0,0,0,2.09,1.24,9.58,9.58,0,0,0,2.37.75,4.85,4.85,0,0,0,2.82-.15,2.35,2.35,0,0,0,1.23-1.85,1.83,1.83,0,0,0-.71-1.93,7.6,7.6,0,0,0-3.12-1.08l-1.33-.23.5-2.85,1.35.24a6.35,6.35,0,0,0,3.08,0,2,2,0,0,0,1.26-1.66c.23-1.33-.48-2.14-2.15-2.43a5.7,5.7,0,0,0-1.8,0,8.52,8.52,0,0,0-2.16.64l-1.27-2.85a9.73,9.73,0,0,1,6-.73,7.5,7.5,0,0,1,4.11,1.86A3.61,3.61,0,0,1,110.35,93.17Z"/><path d="M119.57,108.82l-3.7-.65L117.65,98l.32-1.66.38-1.81c-.72.5-1.22.83-1.49,1l-2.3,1.27-1.4-2.54,6.44-3.51,3.05.53Z"/></g><path d="M143.26,69.44l-8.45,48.27a1,1,0,0,1-1.16.81l-51.22-9a1,1,0,0,1-.81-1.16l8.46-48.27a1,1,0,0,1,1.15-.81L104,61.56l-.69,3.94a2,2,0,0,0,3.94.69l.69-3.94,17.73,3.1L125,69.29A2,2,0,1,0,129,70l.69-3.94,12.8,2.25A1,1,0,0,1,143.26,69.44Z" style="fill:none"/><path d="M102.36,65.32a3,3,0,1,0,5.91,1,3,3,0,0,0-.6-2.36l-.38,2.19a2,2,0,0,1-3.94-.69l.38-2.19A3,3,0,0,0,102.36,65.32Z" style="fill:#fff;opacity:0.5"/><path d="M124,69.12a3,3,0,1,0,5.31-1.33L129,70a2,2,0,1,1-3.94-.69l.38-2.19A3,3,0,0,0,124,69.12Z" style="fill:#fff;opacity:0.5"/><path d="M142.62,67.3l-12.8-2.24.52-3a2,2,0,0,0-.34-1.49,2,2,0,0,0-1.29-.82,2,2,0,0,0-2.31,1.62l-.52,3-17.73-3.11.52-2.95a2,2,0,1,0-3.94-.69l-.52,3-12.8-2.24A2,2,0,0,0,89.09,60l-9,51.22a2,2,0,0,0,1.62,2.32l51.22,9a2,2,0,0,0,2.32-1.62l9-51.22A2,2,0,0,0,142.62,67.3Zm-7.81,50.41a1,1,0,0,1-1.16.81l-51.22-9a1,1,0,0,1-.81-1.16l8.46-48.27a1,1,0,0,1,1.15-.81L104,61.56l-.69,3.94a2,2,0,0,0,3.94.69l.69-3.94,17.73,3.1L125,69.29A2,2,0,1,0,129,70l.69-3.94,12.8,2.25a1,1,0,0,1,.81,1.15Z" style="opacity:0.30000000000000004"/></svg>