<svg xmlns="http://www.w3.org/2000/svg" xmlns:xlink="http://www.w3.org/1999/xlink" width="480" height="800" viewBox="0 0 480 800">
  <defs>
    <clipPath id="clip-sidenav-anatomy--mobile-behavior">
      <rect width="480" height="800"/>
    </clipPath>
  </defs>
  <g id="sidenav-anatomy--mobile-behavior" clip-path="url(#clip-sidenav-anatomy--mobile-behavior)">
    <rect width="480" height="800" fill="#f4f4f6"/>
    <g id="Group_8093" data-name="Group 8093">
      <rect id="Rectangle_1" data-name="Rectangle 1" width="480" height="56" fill="#fff"/>
      <g id="Group_72" data-name="Group 72" transform="translate(183 18)">
        <g id="Group_6" data-name="Group 6">
          <path id="Path_467" data-name="Path 467" d="M440.678,0l-6.233,13.788L428.193,0H425.7l8.745,19.322L443.19,0Z" transform="translate(-345.294)" fill="#8b8d8e"/>
          <path id="Path_468" data-name="Path 468" d="M343.6,19.322h2.512L337.39,0h-.963L327.7,19.322h2.512l1.908-4.269H341.7ZM333.14,12.787,336.9,4.5l3.759,8.292Z" transform="translate(-265.804)" fill="#8b8d8e"/>
          <path id="Path_469" data-name="Path 469" d="M543.685,10.426h6.951V8.16h-6.951V2.267h7.555L552.45,0H541.4V19.322h9.859L552.468,17h-8.783Z" transform="translate(-439.14)" fill="#8b8d8e"/>
          <path id="Path_470" data-name="Path 470" d="M186.078,0l-6.2,13.788L174.348,1.681l-5.5,12.107L162.864,0h-3.721L155.8,7.385l1.247,2.758,3.834-8.462,7.971,17.641,5.5-12.126,5.534,12.126L188.571,0Z" transform="translate(-126.372)" fill="#8b8d8e"/>
          <path id="Path_471" data-name="Path 471" d="M4.193,17.018,15.262,0H1.851L.812,2.267H11.068L0,19.285H15.243l1.02-2.267Z" fill="#8b8d8e"/>
        </g>
        <path id="Path_472" data-name="Path 472" d="M103.468,0H98.5l5.591,12.409L98.5,24.8h4.968L109.1,12.409Z" transform="translate(-79.895)" fill="#739600"/>
      </g>
      <g id="Group_8091" data-name="Group 8091" transform="translate(-11 1)">
        <ellipse id="Ellipse_2" data-name="Ellipse 2" cx="18" cy="17.5" rx="18" ry="17.5" transform="translate(22 12)" fill="none"/>
        <g id="Group_7747" data-name="Group 7747" transform="translate(16 6)">
          <rect id="Rectangle_4038" data-name="Rectangle 4038" width="16" height="2" transform="translate(16 18)" fill="#5786bd"/>
          <rect id="Rectangle_4039" data-name="Rectangle 4039" width="16" height="2" transform="translate(16 23)" fill="#5786bd"/>
          <rect id="Rectangle_4040" data-name="Rectangle 4040" width="16" height="2" transform="translate(16 28)" fill="#5786bd"/>
        </g>
      </g>
      <path id="Path_5695" data-name="Path 5695" d="M0,0H480V4H0Z" transform="translate(0 56)" fill="#1f5ea8"/>
      <circle id="Ellipse_402" data-name="Ellipse 402" cx="18" cy="18" r="18" transform="translate(432 10)" fill="#78788c"/>
      <text id="AG" transform="translate(441 34)" fill="#fff" font-size="14" font-family="SegoeUI-Semibold, Segoe UI" font-weight="600"><tspan x="0" y="0">AG</tspan></text>
    </g>
    <g id="Group_8091-2" data-name="Group 8091" transform="translate(-12)">
      <ellipse id="Ellipse_2-2" data-name="Ellipse 2" cx="18" cy="17.5" rx="18" ry="17.5" transform="translate(22 12)" fill="none"/>
      <g id="Group_7747-2" data-name="Group 7747" transform="translate(16 6)">
        <rect id="Rectangle_4038-2" data-name="Rectangle 4038" width="16" height="2" transform="translate(16 18)" fill="#5786bd"/>
        <rect id="Rectangle_4039-2" data-name="Rectangle 4039" width="16" height="2" transform="translate(16 23)" fill="#5786bd"/>
        <rect id="Rectangle_4040-2" data-name="Rectangle 4040" width="16" height="2" transform="translate(16 28)" fill="#5786bd"/>
      </g>
    </g>
    <rect id="Rectangle_5403" data-name="Rectangle 5403" width="480" height="800" fill="rgba(0,0,0,0.5)"/>
    <g id="Group_8109" data-name="Group 8109" transform="translate(-59.611 -32.669)">
      <g id="Group_8108" data-name="Group 8108">
        <path id="Path_5691" data-name="Path 5691" d="M340.587,52.669l-6.541,14.446L327.5,52.669h-2.616l9.16,20.259,9.167-20.259Z" fill="#8b8d8e"/>
        <path id="Path_5692" data-name="Path 5692" d="M322.153,72.928h2.623L315.63,52.669h-1l-9.146,20.259h2.629l2.006-4.484h10.028Zm-10.965-6.865,3.938-8.684,3.938,8.684Z" fill="#8b8d8e"/>
        <path id="Path_5693" data-name="Path 5693" d="M350.18,63.606h7.281V61.216H350.18V55.048H358.1l1.27-2.379H347.79V72.928h10.328l1.27-2.439H350.18Z" fill="#8b8d8e"/>
        <path id="Path_5694" data-name="Path 5694" d="M303.177,52.669l-6.49,14.446-5.8-12.689-5.748,12.689-6.285-14.446h-3.9l-3.5,7.735,1.313,2.9,4.02-8.874,8.353,18.494,5.748-12.713,5.8,12.713,9.107-20.259Z" fill="#8b8d8e"/>
        <path id="Path_5695-2" data-name="Path 5695" d="M245,70.511l11.6-17.834h-14.06l-1.085,2.373H252.21l-11.6,17.834h15.978l1.073-2.373Z" fill="#8b8d8e"/>
      </g>
      <path id="Path_5696" data-name="Path 5696" d="M265.319,52.669h-5.2l5.856,13-5.856,13h5.2l5.894-13Z" fill="#739600"/>
    </g>
    <path id="Path_5829" data-name="Path 5829" d="M0,0H360V800H0V0Z" fill="#fff"/>
    <rect id="Rectangle_5371" data-name="Rectangle 5371" width="360" height="50" fill="none"/>
    <rect id="Rectangle_5372" data-name="Rectangle 5372" width="60" height="50" fill="none" opacity="0.3"/>
    <rect id="Rectangle_5374" data-name="Rectangle 5374" width="360" height="50" transform="translate(0 150)" fill="none"/>
    <rect id="Rectangle_5402" data-name="Rectangle 5402" width="360" height="50" transform="translate(0 100)" fill="none"/>
    <rect id="Rectangle_5375" data-name="Rectangle 5375" width="360" height="42" transform="translate(0 200)" fill="none"/>
    <rect id="Rectangle_5376" data-name="Rectangle 5376" width="360" height="42" transform="translate(0 242)" fill="none"/>
    <rect id="Rectangle_5377" data-name="Rectangle 5377" width="360" height="42" transform="translate(0 284)" fill="none"/>
    <rect id="Rectangle_5378" data-name="Rectangle 5378" width="360" height="50" transform="translate(0 326)" fill="none"/>
    <rect id="Rectangle_5379" data-name="Rectangle 5379" width="360" height="50" transform="translate(0 376)" fill="none"/>
    <rect id="Rectangle_5380" data-name="Rectangle 5380" width="360" height="50" transform="translate(0 426)" fill="none"/>
    <rect id="Rectangle_5404" data-name="Rectangle 5404" width="360" height="50" transform="translate(0 476)" fill="none"/>
    <text id="Home" transform="translate(60 31)" fill="#3d3d3d" font-size="14" font-family="SegoeUI, Segoe UI"><tspan x="0" y="0">Home</tspan></text>
    <rect id="Rectangle_5381" data-name="Rectangle 5381" width="360" height="50" transform="translate(0 50)" fill="none"/>
    <text id="Accounts" transform="translate(60 81)" font-size="14" font-family="SegoeUI, Segoe UI"><tspan x="0" y="0">Accounts</tspan></text>
    <text id="Proposals" transform="translate(60 131)" fill="#3d3d3d" font-size="14" font-family="SegoeUI, Segoe UI"><tspan x="0" y="0">Proposals</tspan></text>
    <text id="Toolbox" transform="translate(60 181)" fill="#3d3d3d" font-size="14" font-family="SegoeUI, Segoe UI"><tspan x="0" y="0">Toolbox</tspan></text>
    <text id="OHSA_Log" data-name="OHSA Log" transform="translate(70 227)" fill="#3d3d3d" font-size="14" font-family="SegoeUI, Segoe UI"><tspan x="0" y="0">OHSA Log</tspan></text>
    <text id="Handbook_Builder" data-name="Handbook Builder" transform="translate(70 269)" fill="#3d3d3d" font-size="14" font-family="SegoeUI, Segoe UI"><tspan x="0" y="0">Handbook Builder</tspan></text>
    <text id="ACA_Reporting" data-name="ACA Reporting" transform="translate(70 311)" fill="#3d3d3d" font-size="14" font-family="SegoeUI, Segoe UI"><tspan x="0" y="0">ACA Reporting</tspan></text>
    <text id="Notifications" transform="translate(60 357)" fill="#3d3d3d" font-size="14" font-family="SegoeUI, Segoe UI"><tspan x="0" y="0">Notifications</tspan></text>
    <text id="Settings" transform="translate(60 407)" fill="#3d3d3d" font-size="14" font-family="SegoeUI, Segoe UI"><tspan x="0" y="0">Settings</tspan></text>
    <text id="Help_and_Training" data-name="Help and Training" transform="translate(60 457)" fill="#3d3d3d" font-size="14" font-family="SegoeUI, Segoe UI"><tspan x="0" y="0">Help and Training</tspan></text>
    <rect id="Rectangle_5384" data-name="Rectangle 5384" width="1" height="800" transform="translate(360)" fill="#e6e6ea"/>
    <rect id="Rectangle_5385" data-name="Rectangle 5385" width="20" height="20" transform="translate(20 15)" fill="none"/>
    <path id="zui-nav-home" d="M20,10.6H17.5v8.142a.833.833,0,0,1-.833.833H12V14.1H8v5.5H3.333a.833.833,0,0,1-.833-.833V10.6H0L10,.6Z" transform="translate(20 15.4)" fill="#31313a"/>
    <rect id="Rectangle_5386" data-name="Rectangle 5386" width="20" height="20" transform="translate(20 65)" fill="none"/>
    <g id="Accounts-2" data-name="Accounts" transform="translate(30 75.375)">
      <g id="Group_8145" data-name="Group 8145" transform="translate(-10 -9.375)">
        <circle id="Ellipse_6" data-name="Ellipse 6" cx="3.167" cy="3.167" r="3.167" transform="translate(6.833)" fill="#31313a"/>
        <path id="Path_5793" data-name="Path 5793" d="M14.55,11.615v8.75H8.3v-8.75a3.5,3.5,0,0,1,6.25,0Z" transform="translate(-1.383 -1.615)" fill="#31313a"/>
        <circle id="Ellipse_7" data-name="Ellipse 7" cx="2.833" cy="2.833" r="2.833" transform="translate(14.333 0.583)" fill="#31313a"/>
        <path id="Path_5794" data-name="Path 5794" d="M22.883,11.237v7.833H17.3V11.237a3.046,3.046,0,0,1,5.583,0Z" transform="translate(-2.883 -1.571)" fill="#31313a"/>
        <circle id="Ellipse_8" data-name="Ellipse 8" cx="2.833" cy="2.833" r="2.833" transform="translate(0 0.583)" fill="#31313a"/>
        <path id="Path_5795" data-name="Path 5795" d="M5.667,11.249v7.833H0V11.249a3.167,3.167,0,0,1,1.417-1.5A3.083,3.083,0,0,1,2.75,9.5a3.083,3.083,0,0,1,1.417.25,3.167,3.167,0,0,1,1.5,1.5Z" transform="translate(0 -1.582)" fill="#31313a"/>
      </g>
    </g>
    <rect id="Rectangle_5387" data-name="Rectangle 5387" width="20" height="20" transform="translate(20 115)" fill="none"/>
    <g id="Proposal" transform="translate(30.333 125)">
      <path id="Path_5802" data-name="Path 5802" d="M14.667.833V19.167a.833.833,0,0,1-.833.833h-5V18.083c1.75-.333,3.25-1.333,3.25-3.25s-2.25-3.5-4.333-4.083S5,9.667,5,8.75s.917-1.667,2.5-1.667S9.75,7.833,9.833,9h2A3.667,3.667,0,0,0,8.917,5.5v-2H6v2c-1.75.417-3.25,1.583-3.25,3.333S4.5,12,7.083,12.667s2.75,1.333,2.75,2.25-.417,1.667-2.5,1.667-2.667-.833-2.75-1.917H2.667a3.753,3.753,0,0,0,3.417,3.5V20H.833A.833.833,0,0,1,0,19.167V.833A.833.833,0,0,1,.833,0h13A.833.833,0,0,1,14.667.833Z" transform="translate(-7.333 -10)" fill="#31313a"/>
    </g>
    <rect id="Rectangle_5388" data-name="Rectangle 5388" width="20" height="20" transform="translate(20 165)" fill="none"/>
    <g id="Toolbox-2" data-name="Toolbox" transform="translate(30 175.248)">
      <path id="Toolbox-3" data-name="Toolbox" d="M19.162,2.416H13.747V.833A.833.833,0,0,0,12.914,0H7.082a.833.833,0,0,0-.833.833V2.5H.833A.833.833,0,0,0,0,3.333v13.08a.833.833,0,0,0,.833.833H2v.916a.25.25,0,0,0,.25.25h1.5a.25.25,0,0,0,.25-.25v-.833H16v.916a.25.25,0,0,0,.25.25h1.5a.25.25,0,0,0,.25-.25v-.916h1.166A.833.833,0,0,0,20,16.5V3.333a.833.833,0,0,0-.75-.916ZM7.5,1.25h5V2.416h-5ZM18,11.414H2v-1H18Zm0-4.5H2v-1H18Z" transform="translate(-10 -9.248)" fill="#31313a"/>
    </g>
    <g id="Chevron-down" transform="translate(340 125)">
      <g id="Group_8144" data-name="Group 8144" transform="translate(-10 -10)">
        <rect id="Rectangle_5318" data-name="Rectangle 5318" width="20" height="20" fill="none"/>
        <path id="Path_5792" data-name="Path 5792" d="M18.75,15.072l1.2,1.2a.25.25,0,0,1,0,.4l-4.75,4.75a.25.25,0,0,1-.4,0l-4.7-4.75a.25.25,0,0,1,0-.4l1.2-1.2a.25.25,0,0,1,.4,0l3.3,3.35,3.35-3.4a.25.25,0,0,1,.4.05Z" transform="translate(-5 -7.472)" fill="#31313a"/>
      </g>
    </g>
    <g id="Chevron-down-2" data-name="Chevron-down" transform="translate(340 175) rotate(180)">
      <g id="Group_8144-2" data-name="Group 8144" transform="translate(-10 -10)">
        <rect id="Rectangle_5318-2" data-name="Rectangle 5318" width="20" height="20" fill="none"/>
        <path id="Path_5792-2" data-name="Path 5792" d="M18.75,15.072l1.2,1.2a.25.25,0,0,1,0,.4l-4.75,4.75a.25.25,0,0,1-.4,0l-4.7-4.75a.25.25,0,0,1,0-.4l1.2-1.2a.25.25,0,0,1,.4,0l3.3,3.35,3.35-3.4a.25.25,0,0,1,.4.05Z" transform="translate(-5 -7.472)" fill="#31313a"/>
      </g>
    </g>
    <g id="Group_8165" data-name="Group 8165" transform="translate(15002 1988)">
      <rect id="Rectangle_5333" data-name="Rectangle 5333" width="20" height="20" transform="translate(-14982 -1647)" fill="none"/>
      <g id="BellNotifications" transform="translate(-14971 -1635.444)">
        <path id="Path_5825" data-name="Path 5825" d="M19.038,16.923a.952.952,0,0,0-.952-.952h0a.692.692,0,0,1-.692-.692h0V9.221a7.875,7.875,0,0,0-6.231-7.7V1.346a1.731,1.731,0,0,0-3.375,0,1.3,1.3,0,0,0,0,.173A8.048,8.048,0,0,0,1.558,9.394v5.8a.692.692,0,0,1-.692.692h0A.952.952,0,0,0,0,16.837H0v1.3H7.875v.519a1.731,1.731,0,0,0,3.375,0v-.519h7.788Z" transform="translate(-11 -11.556)"/>
      </g>
    </g>
    <g id="Group_8166" data-name="Group 8166" transform="translate(15085 1933)">
      <rect id="Rectangle_5334" data-name="Rectangle 5334" width="20" height="20" transform="translate(-15065 -1542)" fill="none"/>
      <g id="GearSettings" transform="translate(-15053.409 -1530)">
        <path id="Path_5826" data-name="Path 5826" d="M18.784,12.583l-1.25-.75A7.667,7.667,0,0,0,17.784,10a8.167,8.167,0,0,0-.25-1.75l1.333-.75A.833.833,0,0,0,19.2,6.333h0L17.534,3.5a.917.917,0,0,0-1.167-.333l-1.25.75a7.917,7.917,0,0,0-2.833-1.583V.833A.833.833,0,0,0,11.451,0H8.117a.833.833,0,0,0-.833.833v1.5a8,8,0,0,0-2.917,1.5l-1.25-.75a.833.833,0,0,0-1.167.25h0L.284,6.167A.833.833,0,0,0,.451,7.333h0l1.25.75a7.833,7.833,0,0,0,0,3.583L.451,12.5a.833.833,0,0,0-.333,1.167h0L1.784,16.5a.833.833,0,0,0,1.167.333h.083L4.367,16a8,8,0,0,0,2.75,1.583v1.583A.833.833,0,0,0,7.951,20h3.333a.833.833,0,0,0,.833-.833V17.583a7.75,7.75,0,0,0,2.667-1.5l1.333.833a.833.833,0,0,0,1.167-.25h.083l1.75-2.833a.833.833,0,0,0-.25-1.167Zm-11.583.5A4,4,0,0,1,5.7,10.5a4.083,4.083,0,0,1,0-.583,4.917,4.917,0,0,1,0-.5A4,4,0,0,1,7.117,6.833L8.2,6.167a3.917,3.917,0,0,1,1.417-.25,3.833,3.833,0,0,1,1.5.25L12.2,6.75a3.917,3.917,0,0,1,1.5,2.667,4.084,4.084,0,0,1,0,.5,3.5,3.5,0,0,1,0,.583,4.083,4.083,0,0,1-2.667,3.167l-1.333.25-1.333-.25a4,4,0,0,1-1.25-.583Z" transform="translate(-11.591 -12)"/>
      </g>
    </g>
    <g id="Group_8167" data-name="Group 8167" transform="translate(15059 2081)">
      <rect id="Rectangle_5332" data-name="Rectangle 5332" width="20" height="20" transform="translate(-15039 -1640)" fill="none"/>
      <g id="HelpTraining" transform="translate(-15027.187 -1628.003)">
        <path id="Path_5824" data-name="Path 5824" d="M11.942.5A9.085,9.085,0,0,0,6.024.5a8.919,8.919,0,0,0-2.417,1.25l-.583.5-.333.333A9,9,0,0,0,9.025,18h.5l-.417,1.667A.25.25,0,0,0,9.275,20h.083a10.28,10.28,0,0,0,8.669-10V9A9,9,0,0,0,11.942.5ZM9.108,15.916a1.25,1.25,0,1,1,1.25-1.25h0A1.25,1.25,0,0,1,9.108,15.916Zm2.667-6.752-1.084.917c-.667.5-.667.5-.667,1.334H8.108A3,3,0,0,1,9.442,8.581l.917-.834a2.167,2.167,0,0,0,.25-2.251,1.584,1.584,0,0,0-1.584-1c-1.75,0-1.917,1.917-1.917,2.167l-2-.167a4.057,4.057,0,0,1,4-4,3.584,3.584,0,0,1,3.417,2.251,4.084,4.084,0,0,1-.75,4.418Z" transform="translate(-10.814 -11.997)"/>
      </g>
    </g>
    <g id="Rectangle_4103" data-name="Rectangle 4103" fill="none" stroke="#f4f4f6" stroke-width="1">
      <rect width="480" height="800" stroke="none"/>
      <rect x="0.5" y="0.5" width="479" height="799" fill="none"/>
    </g>
  </g>
</svg>
