<svg xmlns="http://www.w3.org/2000/svg" xmlns:xlink="http://www.w3.org/1999/xlink" width="300" height="42" viewBox="0 0 300 42">
  <defs>
    <clipPath id="clip-path">
      <rect width="226" height="42" fill="none"/>
    </clipPath>
    <clipPath id="clip-text-input_primary-action">
      <rect width="300" height="42"/>
    </clipPath>
  </defs>
  <g id="text-input_primary-action" clip-path="url(#clip-text-input_primary-action)">
    <rect width="300" height="42" fill="#fff"/>
    <g id="Group_13011" data-name="Group 13011">
      <g id="Input-_no_label" data-name="Input- no label" clip-path="url(#clip-path)">
        <g id="Rectangle_288" data-name="Rectangle 288" fill="#fff" stroke="#cbcbd2" stroke-width="1">
          <path d="M4,0H226a0,0,0,0,1,0,0V42a0,0,0,0,1,0,0H4a4,4,0,0,1-4-4V4A4,4,0,0,1,4,0Z" stroke="none"/>
          <path d="M4,.5H225a.5.5,0,0,1,.5.5V41a.5.5,0,0,1-.5.5H4A3.5,3.5,0,0,1,.5,38V4A3.5,3.5,0,0,1,4,.5Z" fill="none"/>
        </g>
      </g>
      <g id="Primary_Button_-_Normal" data-name="Primary Button - Normal" transform="translate(226)">
        <path id="Path_8229" data-name="Path 8229" d="M0,0H69.934a4,4,0,0,1,4,4V38a4,4,0,0,1-4,4H0Z" fill="#2777d3"/>
        <text id="Search" transform="translate(37 27)" fill="#fff" font-size="14" font-family="SegoeUI-Semibold, Segoe UI" font-weight="600"><tspan x="-21.079" y="0">Search</tspan></text>
      </g>
    </g>
  </g>
</svg>
