<svg xmlns="http://www.w3.org/2000/svg" xmlns:xlink="http://www.w3.org/1999/xlink" width="686" height="463" viewBox="0 0 686 463">
  <defs>
    <clipPath id="clip-galleryradio_states_small">
      <rect width="686" height="463"/>
    </clipPath>
  </defs>
  <g id="galleryradio_states_small" clip-path="url(#clip-galleryradio_states_small)">
    <rect width="686" height="463" fill="#f9f9fa"/>
    <text id="Deactivated" transform="translate(20 148)" fill="#c6318c" font-size="8" font-family="SegoeUI, Segoe UI"><tspan x="0" y="0">Deactivated</tspan></text>
    <text id="Activated" transform="translate(29 353)" fill="#c6318c" font-size="8" font-family="SegoeUI, Segoe UI"><tspan x="0" y="0">Activated</tspan></text>
    <text id="Normal" transform="translate(134 29)" fill="#c6318c" font-size="8" font-family="SegoeUI, Segoe UI"><tspan x="0" y="0">Normal</tspan></text>
    <text id="Hover" transform="translate(286 29)" fill="#c6318c" font-size="8" font-family="SegoeUI, Segoe UI"><tspan x="0" y="0">Hover</tspan></text>
    <g id="Gallery_radio_button-Large-NEW" data-name="Gallery radio button-Large-NEW" transform="translate(82 53)">
      <g id="Rectangle_4479" data-name="Rectangle 4479" fill="#fff" stroke="#c6c6c6" stroke-width="1">
        <rect width="130" height="183" rx="6" stroke="none"/>
        <rect x="0.5" y="0.5" width="129" height="182" rx="5.5" fill="none"/>
      </g>
      <text id="Employee_Handbook" data-name="Employee
Handbook" transform="translate(65 130)" fill="#3d3d3d" font-size="14" font-family="OpenSans-Semibold, Open Sans" font-weight="600"><tspan x="-33.007" y="0">Employee</tspan><tspan x="-35.038" y="19">Handbook</tspan></text>
      <g id="Group_7827" data-name="Group 7827" transform="translate(-78 -116)">
        <rect id="Rectangle_4483" data-name="Rectangle 4483" width="70" height="70" rx="4" transform="translate(108 146)" fill="none" opacity="0.5"/>
        <g id="Shadow_1_" transform="translate(120 153.054)">
          <path id="Path_5743" data-name="Path 5743" d="M3.5,0H44.736a1.859,1.859,0,0,1,1.889,1.889h0V53.721a2,2,0,0,1-1.971,1.971H3.5" transform="translate(-0.625)" fill="#e04a39"/>
          <path id="Path_5744" data-name="Path 5744" d="M6.654,0H1.807A1.823,1.823,0,0,0,0,1.807H0V53.886a1.823,1.823,0,0,0,1.807,1.807H6.654" fill="#cc4434"/>
          <rect id="Rectangle_4122" data-name="Rectangle 4122" width="41.646" height="9.939" transform="translate(4.354 43.864)" fill="#cb4333"/>
          <path id="Path_5745" data-name="Path 5745" d="M7.275,55.1H47.2v7.311H7.275a.561.561,0,0,1-.575-.575V55.593A.549.549,0,0,1,7.275,55.1Z" transform="translate(-1.196 -9.839)" fill="#f1f2f2"/>
          <path id="Path_5746" data-name="Path 5746" d="M27.893,30.125H22.8V21.5h5.093v1.889H25.1V24.7h2.546v1.889H25.1v1.643h2.793Z" transform="translate(-4.071 -3.839)" fill="#fff"/>
          <path id="Path_5747" data-name="Path 5747" d="M35.893,30.125H30.8V21.5h5.093v1.889H33.1V24.7h2.546v1.889H33.1v1.643h2.793Z" transform="translate(-5.5 -3.839)" fill="#fff"/>
        </g>
      </g>
    </g>
    <g id="Gallery_radio_button-Large-NEW-2" data-name="Gallery radio button-Large-NEW" transform="translate(82 258)">
      <g id="Rectangle_4479-2" data-name="Rectangle 4479" fill="#d0e2f6" stroke="#2777d3" stroke-width="2">
        <rect width="130" height="183" rx="6" stroke="none"/>
        <rect x="1" y="1" width="128" height="181" rx="5" fill="none"/>
      </g>
      <text id="Employee_Handbook-2" data-name="Employee
Handbook" transform="translate(65 130)" fill="#3d3d3d" font-size="14" font-family="OpenSans-Semibold, Open Sans" font-weight="600"><tspan x="-33.007" y="0">Employee</tspan><tspan x="-35.038" y="19">Handbook</tspan></text>
      <g id="Group_7827-2" data-name="Group 7827" transform="translate(-78 -116)">
        <rect id="Rectangle_4483-2" data-name="Rectangle 4483" width="70" height="70" rx="4" transform="translate(108 146)" fill="none" opacity="0.5"/>
        <g id="Shadow_1_2" data-name="Shadow_1_" transform="translate(120 153.054)">
          <path id="Path_5743-2" data-name="Path 5743" d="M3.5,0H44.736a1.859,1.859,0,0,1,1.889,1.889h0V53.721a2,2,0,0,1-1.971,1.971H3.5" transform="translate(-0.625)" fill="#e04a39"/>
          <path id="Path_5744-2" data-name="Path 5744" d="M6.654,0H1.807A1.823,1.823,0,0,0,0,1.807H0V53.886a1.823,1.823,0,0,0,1.807,1.807H6.654" fill="#cc4434"/>
          <rect id="Rectangle_4122-2" data-name="Rectangle 4122" width="41.646" height="9.939" transform="translate(4.354 43.864)" fill="#cb4333"/>
          <path id="Path_5745-2" data-name="Path 5745" d="M7.275,55.1H47.2v7.311H7.275a.561.561,0,0,1-.575-.575V55.593A.549.549,0,0,1,7.275,55.1Z" transform="translate(-1.196 -9.839)" fill="#f1f2f2"/>
          <path id="Path_5746-2" data-name="Path 5746" d="M27.893,30.125H22.8V21.5h5.093v1.889H25.1V24.7h2.546v1.889H25.1v1.643h2.793Z" transform="translate(-4.071 -3.839)" fill="#fff"/>
          <path id="Path_5747-2" data-name="Path 5747" d="M35.893,30.125H30.8V21.5h5.093v1.889H33.1V24.7h2.546v1.889H33.1v1.643h2.793Z" transform="translate(-5.5 -3.839)" fill="#fff"/>
        </g>
      </g>
      <g id="Radio_Selected" data-name="Radio Selected" transform="translate(5 5)">
        <path id="Path_6085" data-name="Path 6085" d="M37,43.2a9.6,9.6,0,1,1-9.6,9.6A9.628,9.628,0,0,1,37,43.2m0-2.4a12,12,0,1,0,12,12,12.035,12.035,0,0,0-12-12Zm7.2,12A7.2,7.2,0,1,0,37,60,7.221,7.221,0,0,0,44.2,52.8Z" transform="translate(-25 -40.8)" fill="#2777d3"/>
      </g>
    </g>
    <g id="Group_264161" data-name="Group 264161" transform="translate(154 -211)">
      <g id="Gallery_radio_button-Large-NEW-3" data-name="Gallery radio button-Large-NEW" transform="translate(78 264)">
        <g id="Rectangle_4479-3" data-name="Rectangle 4479" fill="#fff" stroke="#606071" stroke-width="1">
          <rect width="130" height="183" rx="6" stroke="none"/>
          <rect x="0.5" y="0.5" width="129" height="182" rx="5.5" fill="none"/>
        </g>
        <text id="Employee_Handbook-3" data-name="Employee
Handbook" transform="translate(65 130)" fill="#3d3d3d" font-size="14" font-family="OpenSans-Semibold, Open Sans" font-weight="600"><tspan x="-33.007" y="0">Employee</tspan><tspan x="-35.038" y="19">Handbook</tspan></text>
        <g id="Group_7827-3" data-name="Group 7827" transform="translate(-78 -116)">
          <rect id="Rectangle_4483-3" data-name="Rectangle 4483" width="70" height="70" rx="4" transform="translate(108 146)" fill="none" opacity="0.5"/>
          <g id="Shadow_1_3" data-name="Shadow_1_" transform="translate(120 153.054)">
            <path id="Path_5743-3" data-name="Path 5743" d="M3.5,0H44.736a1.859,1.859,0,0,1,1.889,1.889h0V53.721a2,2,0,0,1-1.971,1.971H3.5" transform="translate(-0.625)" fill="#e04a39"/>
            <path id="Path_5744-3" data-name="Path 5744" d="M6.654,0H1.807A1.823,1.823,0,0,0,0,1.807H0V53.886a1.823,1.823,0,0,0,1.807,1.807H6.654" fill="#cc4434"/>
            <rect id="Rectangle_4122-3" data-name="Rectangle 4122" width="41.646" height="9.939" transform="translate(4.354 43.864)" fill="#cb4333"/>
            <path id="Path_5745-3" data-name="Path 5745" d="M7.275,55.1H47.2v7.311H7.275a.561.561,0,0,1-.575-.575V55.593A.549.549,0,0,1,7.275,55.1Z" transform="translate(-1.196 -9.839)" fill="#f1f2f2"/>
            <path id="Path_5746-3" data-name="Path 5746" d="M27.893,30.125H22.8V21.5h5.093v1.889H25.1V24.7h2.546v1.889H25.1v1.643h2.793Z" transform="translate(-4.071 -3.839)" fill="#fff"/>
            <path id="Path_5747-3" data-name="Path 5747" d="M35.893,30.125H30.8V21.5h5.093v1.889H33.1V24.7h2.546v1.889H33.1v1.643h2.793Z" transform="translate(-5.5 -3.839)" fill="#fff"/>
          </g>
        </g>
        <g id="Radio_Unselected" data-name="Radio Unselected" transform="translate(5 5)">
          <path id="Path_5843" data-name="Path 5843" d="M12,43.2a9.6,9.6,0,1,1-9.6,9.6A9.628,9.628,0,0,1,12,43.2m0-2.4a12,12,0,1,0,12,12,12.035,12.035,0,0,0-12-12Z" transform="translate(0 -40.8)" fill="#9494a4"/>
        </g>
      </g>
      <g id="Group_15324" data-name="Group 15324" transform="translate(-11818 -726)">
        <g id="noun_Pointer_44803" transform="translate(11911 1005)">
          <g id="Group_15298" data-name="Group 15298" transform="translate(0 0)" opacity="0.9">
            <path id="Path_10321" data-name="Path 10321" d="M26.5,27.034a8.04,8.04,0,0,1-7.962-7.224.347.347,0,0,1-.037-.156V14.783a1.94,1.94,0,0,1,1.9-1.97,1.854,1.854,0,0,1,1.143.395V5.385a1.906,1.906,0,1,1,3.81,0v5.468a1.854,1.854,0,0,1,1.143-.395,1.91,1.91,0,0,1,1.775,1.257,1.863,1.863,0,0,1,1.272-.5,1.919,1.919,0,0,1,1.837,1.449,1.86,1.86,0,0,1,1.211-.45,1.94,1.94,0,0,1,1.9,1.97v5.031a.375.375,0,0,1,0,.051A8.045,8.045,0,0,1,26.5,27.034Z" transform="translate(-18.501 -3.415)" fill="#fff"/>
          </g>
        </g>
        <g id="noun_Pointer_44803-2" data-name="noun_Pointer_44803" transform="translate(11911 1005)">
          <g id="Group_15298-2" data-name="Group 15298" transform="translate(0 0)" opacity="0.9">
            <path id="Path_10321-2" data-name="Path 10321" d="M26.5,27.034a8.04,8.04,0,0,1-7.962-7.224.347.347,0,0,1-.037-.156V14.783a1.94,1.94,0,0,1,1.9-1.97,1.854,1.854,0,0,1,1.143.395V5.385a1.906,1.906,0,1,1,3.81,0v5.468a1.854,1.854,0,0,1,1.143-.395,1.91,1.91,0,0,1,1.775,1.257,1.863,1.863,0,0,1,1.272-.5,1.919,1.919,0,0,1,1.837,1.449,1.86,1.86,0,0,1,1.211-.45,1.94,1.94,0,0,1,1.9,1.97v5.031a.375.375,0,0,1,0,.051A8.045,8.045,0,0,1,26.5,27.034Zm-7.238-7.51a.339.339,0,0,1,.024.1,7.238,7.238,0,0,0,14.45-.424q0-.016,0-.033V14.178a1.145,1.145,0,1,0-2.286,0,.381.381,0,0,1-.762,0v-1a1.145,1.145,0,1,0-2.286,0,.381.381,0,1,1-.762,0v-.752a1.145,1.145,0,1,0-2.286,0,.381.381,0,1,1-.762,0V5.385a1.145,1.145,0,1,0-2.286,0V18.21a.381.381,0,1,1-.762,0V14.783a1.145,1.145,0,1,0-2.286,0v4.741Z" transform="translate(-18.501 -3.415)"/>
          </g>
        </g>
      </g>
    </g>
    <g id="Group_264162" data-name="Group 264162" transform="translate(4 -6)">
      <g id="Gallery_radio_button-Large-NEW-4" data-name="Gallery radio button-Large-NEW" transform="translate(228 264)">
        <g id="Rectangle_4479-4" data-name="Rectangle 4479" fill="#d0e2f6" stroke="#2777d3" stroke-width="2">
          <rect width="130" height="183" rx="6" stroke="none"/>
          <rect x="1" y="1" width="128" height="181" rx="5" fill="none"/>
        </g>
        <text id="Employee_Handbook-4" data-name="Employee
Handbook" transform="translate(65 130)" fill="#3d3d3d" font-size="14" font-family="OpenSans-Semibold, Open Sans" font-weight="600"><tspan x="-33.007" y="0">Employee</tspan><tspan x="-35.038" y="19">Handbook</tspan></text>
        <g id="Group_7827-4" data-name="Group 7827" transform="translate(-78 -116)">
          <rect id="Rectangle_4483-4" data-name="Rectangle 4483" width="70" height="70" rx="4" transform="translate(108 146)" fill="none" opacity="0.5"/>
          <g id="Shadow_1_4" data-name="Shadow_1_" transform="translate(120 153.054)">
            <path id="Path_5743-4" data-name="Path 5743" d="M3.5,0H44.736a1.859,1.859,0,0,1,1.889,1.889h0V53.721a2,2,0,0,1-1.971,1.971H3.5" transform="translate(-0.625)" fill="#e04a39"/>
            <path id="Path_5744-4" data-name="Path 5744" d="M6.654,0H1.807A1.823,1.823,0,0,0,0,1.807H0V53.886a1.823,1.823,0,0,0,1.807,1.807H6.654" fill="#cc4434"/>
            <rect id="Rectangle_4122-4" data-name="Rectangle 4122" width="41.646" height="9.939" transform="translate(4.354 43.864)" fill="#cb4333"/>
            <path id="Path_5745-4" data-name="Path 5745" d="M7.275,55.1H47.2v7.311H7.275a.561.561,0,0,1-.575-.575V55.593A.549.549,0,0,1,7.275,55.1Z" transform="translate(-1.196 -9.839)" fill="#f1f2f2"/>
            <path id="Path_5746-4" data-name="Path 5746" d="M27.893,30.125H22.8V21.5h5.093v1.889H25.1V24.7h2.546v1.889H25.1v1.643h2.793Z" transform="translate(-4.071 -3.839)" fill="#fff"/>
            <path id="Path_5747-4" data-name="Path 5747" d="M35.893,30.125H30.8V21.5h5.093v1.889H33.1V24.7h2.546v1.889H33.1v1.643h2.793Z" transform="translate(-5.5 -3.839)" fill="#fff"/>
          </g>
        </g>
        <g id="Radio_Selected-2" data-name="Radio Selected" transform="translate(5 5)">
          <path id="Path_6085-2" data-name="Path 6085" d="M37,43.2a9.6,9.6,0,1,1-9.6,9.6A9.628,9.628,0,0,1,37,43.2m0-2.4a12,12,0,1,0,12,12,12.035,12.035,0,0,0-12-12Zm7.2,12A7.2,7.2,0,1,0,37,60,7.221,7.221,0,0,0,44.2,52.8Z" transform="translate(-25 -40.8)" fill="#4e92df"/>
        </g>
      </g>
      <g id="Group_264145" data-name="Group 264145" transform="translate(-11668 -726)">
        <g id="noun_Pointer_44803-3" data-name="noun_Pointer_44803" transform="translate(11911 1005)">
          <g id="Group_15298-3" data-name="Group 15298" transform="translate(0 0)" opacity="0.9">
            <path id="Path_10321-3" data-name="Path 10321" d="M26.5,27.034a8.04,8.04,0,0,1-7.962-7.224.347.347,0,0,1-.037-.156V14.783a1.94,1.94,0,0,1,1.9-1.97,1.854,1.854,0,0,1,1.143.395V5.385a1.906,1.906,0,1,1,3.81,0v5.468a1.854,1.854,0,0,1,1.143-.395,1.91,1.91,0,0,1,1.775,1.257,1.863,1.863,0,0,1,1.272-.5,1.919,1.919,0,0,1,1.837,1.449,1.86,1.86,0,0,1,1.211-.45,1.94,1.94,0,0,1,1.9,1.97v5.031a.375.375,0,0,1,0,.051A8.045,8.045,0,0,1,26.5,27.034Z" transform="translate(-18.501 -3.415)" fill="#fff"/>
          </g>
        </g>
        <g id="noun_Pointer_44803-4" data-name="noun_Pointer_44803" transform="translate(11911 1005)">
          <g id="Group_15298-4" data-name="Group 15298" transform="translate(0 0)" opacity="0.9">
            <path id="Path_10321-4" data-name="Path 10321" d="M26.5,27.034a8.04,8.04,0,0,1-7.962-7.224.347.347,0,0,1-.037-.156V14.783a1.94,1.94,0,0,1,1.9-1.97,1.854,1.854,0,0,1,1.143.395V5.385a1.906,1.906,0,1,1,3.81,0v5.468a1.854,1.854,0,0,1,1.143-.395,1.91,1.91,0,0,1,1.775,1.257,1.863,1.863,0,0,1,1.272-.5,1.919,1.919,0,0,1,1.837,1.449,1.86,1.86,0,0,1,1.211-.45,1.94,1.94,0,0,1,1.9,1.97v5.031a.375.375,0,0,1,0,.051A8.045,8.045,0,0,1,26.5,27.034Zm-7.238-7.51a.339.339,0,0,1,.024.1,7.238,7.238,0,0,0,14.45-.424q0-.016,0-.033V14.178a1.145,1.145,0,1,0-2.286,0,.381.381,0,0,1-.762,0v-1a1.145,1.145,0,1,0-2.286,0,.381.381,0,1,1-.762,0v-.752a1.145,1.145,0,1,0-2.286,0,.381.381,0,1,1-.762,0V5.385a1.145,1.145,0,1,0-2.286,0V18.21a.381.381,0,1,1-.762,0V14.783a1.145,1.145,0,1,0-2.286,0v4.741Z" transform="translate(-18.501 -3.415)"/>
          </g>
        </g>
      </g>
    </g>
    <text id="Focused" transform="translate(435 29)" fill="#c6318c" font-size="8" font-family="SegoeUI, Segoe UI"><tspan x="0" y="0">Focused</tspan></text>
    <text id="Disabled" transform="translate(585 29)" fill="#c6318c" font-size="8" font-family="SegoeUI, Segoe UI"><tspan x="0" y="0">Disabled</tspan></text>
    <g id="Gallery_radio_button-Large-NEW-5" data-name="Gallery radio button-Large-NEW" transform="translate(382 51)">
      <g id="Rectangle_4479-5" data-name="Rectangle 4479" transform="translate(2 2)" fill="#fff" stroke="#c6c6c6" stroke-width="1">
        <rect width="130" height="183" rx="6" stroke="none"/>
        <rect x="0.5" y="0.5" width="129" height="182" rx="5.5" fill="none"/>
      </g>
      <text id="Employee_Handbook-5" data-name="Employee
Handbook" transform="translate(67 132)" fill="#3d3d3d" font-size="14" font-family="OpenSans-Semibold, Open Sans" font-weight="600"><tspan x="-33.007" y="0">Employee</tspan><tspan x="-35.038" y="19">Handbook</tspan></text>
      <g id="Group_7827-5" data-name="Group 7827" transform="translate(-76 -114)">
        <rect id="Rectangle_4483-5" data-name="Rectangle 4483" width="70" height="70" rx="4" transform="translate(108 146)" fill="none" opacity="0.5"/>
        <g id="Shadow_1_5" data-name="Shadow_1_" transform="translate(120 153.054)">
          <path id="Path_5743-5" data-name="Path 5743" d="M3.5,0H44.736a1.859,1.859,0,0,1,1.889,1.889h0V53.721a2,2,0,0,1-1.971,1.971H3.5" transform="translate(-0.625)" fill="#e04a39"/>
          <path id="Path_5744-5" data-name="Path 5744" d="M6.654,0H1.807A1.823,1.823,0,0,0,0,1.807H0V53.886a1.823,1.823,0,0,0,1.807,1.807H6.654" fill="#cc4434"/>
          <rect id="Rectangle_4122-5" data-name="Rectangle 4122" width="41.646" height="9.939" transform="translate(4.354 43.864)" fill="#cb4333"/>
          <path id="Path_5745-5" data-name="Path 5745" d="M7.275,55.1H47.2v7.311H7.275a.561.561,0,0,1-.575-.575V55.593A.549.549,0,0,1,7.275,55.1Z" transform="translate(-1.196 -9.839)" fill="#f1f2f2"/>
          <path id="Path_5746-5" data-name="Path 5746" d="M27.893,30.125H22.8V21.5h5.093v1.889H25.1V24.7h2.546v1.889H25.1v1.643h2.793Z" transform="translate(-4.071 -3.839)" fill="#fff"/>
          <path id="Path_5747-5" data-name="Path 5747" d="M35.893,30.125H30.8V21.5h5.093v1.889H33.1V24.7h2.546v1.889H33.1v1.643h2.793Z" transform="translate(-5.5 -3.839)" fill="#fff"/>
        </g>
      </g>
      <g id="Rectangle_8160" data-name="Rectangle 8160" fill="none" stroke="#2777d3" stroke-width="1">
        <rect width="134" height="187" rx="7" stroke="none"/>
        <rect x="0.5" y="0.5" width="133" height="186" rx="6.5" fill="none"/>
      </g>
    </g>
    <g id="Gallery_radio_button-Large-NEW-6" data-name="Gallery radio button-Large-NEW" transform="translate(382 256)">
      <g id="Rectangle_4479-6" data-name="Rectangle 4479" transform="translate(2 2)" fill="#d0e2f6" stroke="#2777d3" stroke-width="2">
        <rect width="130" height="183" rx="6" stroke="none"/>
        <rect x="1" y="1" width="128" height="181" rx="5" fill="none"/>
      </g>
      <text id="Employee_Handbook-6" data-name="Employee
Handbook" transform="translate(67 132)" fill="#3d3d3d" font-size="14" font-family="OpenSans-Semibold, Open Sans" font-weight="600"><tspan x="-33.007" y="0">Employee</tspan><tspan x="-35.038" y="19">Handbook</tspan></text>
      <g id="Group_7827-6" data-name="Group 7827" transform="translate(-76 -114)">
        <rect id="Rectangle_4483-6" data-name="Rectangle 4483" width="70" height="70" rx="4" transform="translate(108 146)" fill="none" opacity="0.5"/>
        <g id="Shadow_1_6" data-name="Shadow_1_" transform="translate(120 153.054)">
          <path id="Path_5743-6" data-name="Path 5743" d="M3.5,0H44.736a1.859,1.859,0,0,1,1.889,1.889h0V53.721a2,2,0,0,1-1.971,1.971H3.5" transform="translate(-0.625)" fill="#e04a39"/>
          <path id="Path_5744-6" data-name="Path 5744" d="M6.654,0H1.807A1.823,1.823,0,0,0,0,1.807H0V53.886a1.823,1.823,0,0,0,1.807,1.807H6.654" fill="#cc4434"/>
          <rect id="Rectangle_4122-6" data-name="Rectangle 4122" width="41.646" height="9.939" transform="translate(4.354 43.864)" fill="#cb4333"/>
          <path id="Path_5745-6" data-name="Path 5745" d="M7.275,55.1H47.2v7.311H7.275a.561.561,0,0,1-.575-.575V55.593A.549.549,0,0,1,7.275,55.1Z" transform="translate(-1.196 -9.839)" fill="#f1f2f2"/>
          <path id="Path_5746-6" data-name="Path 5746" d="M27.893,30.125H22.8V21.5h5.093v1.889H25.1V24.7h2.546v1.889H25.1v1.643h2.793Z" transform="translate(-4.071 -3.839)" fill="#fff"/>
          <path id="Path_5747-6" data-name="Path 5747" d="M35.893,30.125H30.8V21.5h5.093v1.889H33.1V24.7h2.546v1.889H33.1v1.643h2.793Z" transform="translate(-5.5 -3.839)" fill="#fff"/>
        </g>
      </g>
      <g id="Radio_Selected-3" data-name="Radio Selected" transform="translate(7 7)">
        <path id="Path_6085-3" data-name="Path 6085" d="M37,43.2a9.6,9.6,0,1,1-9.6,9.6A9.628,9.628,0,0,1,37,43.2m0-2.4a12,12,0,1,0,12,12,12.035,12.035,0,0,0-12-12Zm7.2,12A7.2,7.2,0,1,0,37,60,7.221,7.221,0,0,0,44.2,52.8Z" transform="translate(-25 -40.8)" fill="#2777d3"/>
      </g>
      <g id="Rectangle_8161" data-name="Rectangle 8161" fill="none" stroke="#2777d3" stroke-width="1">
        <rect width="134" height="187" rx="7" stroke="none"/>
        <rect x="0.5" y="0.5" width="133" height="186" rx="6.5" fill="none"/>
      </g>
    </g>
    <g id="Gallery_radio_button-Large-NEW-7" data-name="Gallery radio button-Large-NEW" transform="translate(536 258)">
      <g id="Rectangle_4479-7" data-name="Rectangle 4479" fill="#d0e2f6" stroke="#a5c7ee" stroke-width="2">
        <rect width="130" height="183" rx="6" stroke="none"/>
        <rect x="1" y="1" width="128" height="181" rx="5" fill="none"/>
      </g>
      <text id="Employee_Handbook-7" data-name="Employee
Handbook" transform="translate(65 130)" fill="#afafbb" font-size="14" font-family="OpenSans-Semibold, Open Sans" font-weight="600"><tspan x="-33.007" y="0">Employee</tspan><tspan x="-35.038" y="19">Handbook</tspan></text>
      <g id="Group_7827-7" data-name="Group 7827" transform="translate(-78 -116)" opacity="0.5">
        <rect id="Rectangle_4483-7" data-name="Rectangle 4483" width="70" height="70" rx="4" transform="translate(108 146)" fill="none" opacity="0.5"/>
        <g id="Shadow_1_7" data-name="Shadow_1_" transform="translate(120 153.054)">
          <path id="Path_5743-7" data-name="Path 5743" d="M3.5,0H44.736a1.859,1.859,0,0,1,1.889,1.889h0V53.721a2,2,0,0,1-1.971,1.971H3.5" transform="translate(-0.625)" fill="#e04a39"/>
          <path id="Path_5744-7" data-name="Path 5744" d="M6.654,0H1.807A1.823,1.823,0,0,0,0,1.807H0V53.886a1.823,1.823,0,0,0,1.807,1.807H6.654" fill="#cc4434"/>
          <rect id="Rectangle_4122-7" data-name="Rectangle 4122" width="41.646" height="9.939" transform="translate(4.354 43.864)" fill="#cb4333"/>
          <path id="Path_5745-7" data-name="Path 5745" d="M7.275,55.1H47.2v7.311H7.275a.561.561,0,0,1-.575-.575V55.593A.549.549,0,0,1,7.275,55.1Z" transform="translate(-1.196 -9.839)" fill="#f1f2f2"/>
          <path id="Path_5746-7" data-name="Path 5746" d="M27.893,30.125H22.8V21.5h5.093v1.889H25.1V24.7h2.546v1.889H25.1v1.643h2.793Z" transform="translate(-4.071 -3.839)" fill="#fff"/>
          <path id="Path_5747-7" data-name="Path 5747" d="M35.893,30.125H30.8V21.5h5.093v1.889H33.1V24.7h2.546v1.889H33.1v1.643h2.793Z" transform="translate(-5.5 -3.839)" fill="#fff"/>
        </g>
      </g>
      <g id="Radio_Selected-4" data-name="Radio Selected" transform="translate(5 5)">
        <path id="Path_6085-4" data-name="Path 6085" d="M37,43.2a9.6,9.6,0,1,1-9.6,9.6A9.628,9.628,0,0,1,37,43.2m0-2.4a12,12,0,1,0,12,12,12.035,12.035,0,0,0-12-12Zm7.2,12A7.2,7.2,0,1,0,37,60,7.221,7.221,0,0,0,44.2,52.8Z" transform="translate(-25 -40.8)" fill="#a5c7ee"/>
      </g>
    </g>
    <g id="Gallery_radio_button-Large-NEW-8" data-name="Gallery radio button-Large-NEW" transform="translate(536 53)">
      <g id="Rectangle_4479-8" data-name="Rectangle 4479" fill="#e6e6ea" stroke="#e6e6ea" stroke-width="1">
        <rect width="130" height="183" rx="6" stroke="none"/>
        <rect x="0.5" y="0.5" width="129" height="182" rx="5.5" fill="none"/>
      </g>
      <text id="Employee_Handbook-8" data-name="Employee
Handbook" transform="translate(65 130)" fill="#afafbb" font-size="14" font-family="OpenSans-Semibold, Open Sans" font-weight="600"><tspan x="-33.007" y="0">Employee</tspan><tspan x="-35.038" y="19">Handbook</tspan></text>
      <g id="Group_7827-8" data-name="Group 7827" transform="translate(-78 -116)">
        <rect id="Rectangle_4483-8" data-name="Rectangle 4483" width="70" height="70" rx="4" transform="translate(108 146)" fill="none" opacity="0.5"/>
        <g id="Shadow_1_8" data-name="Shadow_1_" transform="translate(120 153.054)" opacity="0.5">
          <path id="Path_5743-8" data-name="Path 5743" d="M3.5,0H44.736a1.859,1.859,0,0,1,1.889,1.889h0V53.721a2,2,0,0,1-1.971,1.971H3.5" transform="translate(-0.625)" fill="#e04a39"/>
          <path id="Path_5744-8" data-name="Path 5744" d="M6.654,0H1.807A1.823,1.823,0,0,0,0,1.807H0V53.886a1.823,1.823,0,0,0,1.807,1.807H6.654" fill="#cc4434"/>
          <rect id="Rectangle_4122-8" data-name="Rectangle 4122" width="41.646" height="9.939" transform="translate(4.354 43.864)" fill="#cb4333"/>
          <path id="Path_5745-8" data-name="Path 5745" d="M7.275,55.1H47.2v7.311H7.275a.561.561,0,0,1-.575-.575V55.593A.549.549,0,0,1,7.275,55.1Z" transform="translate(-1.196 -9.839)" fill="#f1f2f2"/>
          <path id="Path_5746-8" data-name="Path 5746" d="M27.893,30.125H22.8V21.5h5.093v1.889H25.1V24.7h2.546v1.889H25.1v1.643h2.793Z" transform="translate(-4.071 -3.839)" fill="#fff"/>
          <path id="Path_5747-8" data-name="Path 5747" d="M35.893,30.125H30.8V21.5h5.093v1.889H33.1V24.7h2.546v1.889H33.1v1.643h2.793Z" transform="translate(-5.5 -3.839)" fill="#fff"/>
        </g>
      </g>
    </g>
  </g>
</svg>
