<svg xmlns="http://www.w3.org/2000/svg" xmlns:xlink="http://www.w3.org/1999/xlink" width="370" height="283" viewBox="0 0 370 283">
  <defs>
    <clipPath id="clip-inlineradio">
      <rect width="370" height="283"/>
    </clipPath>
  </defs>
  <g id="inlineradio" clip-path="url(#clip-inlineradio)">
    <rect width="370" height="283" fill="#f9f9fa"/>
    <g id="Group_14612" data-name="Group 14612" transform="translate(17 -83)">
      <g id="Rectangle_8094" data-name="Rectangle 8094" transform="translate(168 204)" fill="#fff" stroke="#c6c6c6" stroke-width="1">
        <path d="M0,0H118a4,4,0,0,1,4,4V38a4,4,0,0,1-4,4H0a0,0,0,0,1,0,0V0A0,0,0,0,1,0,0Z" stroke="none"/>
        <path d="M1,.5H118A3.5,3.5,0,0,1,121.5,4V38a3.5,3.5,0,0,1-3.5,3.5H1A.5.5,0,0,1,.5,41V1A.5.5,0,0,1,1,.5Z" fill="none"/>
      </g>
      <g id="Path_8855" data-name="Path 8855" transform="translate(46 204)" fill="#d0e2f6">
        <path d="M 121 41 L 4 41 C 2.345799922943115 41 1 39.65420150756836 1 38 L 1 4 C 1 2.345799922943115 2.345799922943115 1 4 1 L 121 1 L 121 41 Z" stroke="none"/>
        <path d="M 4 2 C 2.897201538085938 2 2 2.897201538085938 2 4 L 2 38 C 2 39.10279846191406 2.897201538085938 40 4 40 L 120 40 L 120 2 L 4 2 M 4 0 L 122 0 L 122 42 L 4 42 C 1.790863037109375 42 0 40.20913314819336 0 38 L 0 4 C 0 1.790851593017578 1.790863037109375 0 4 0 Z" stroke="none" fill="#2777d3"/>
      </g>
      <path id="Path_10366" data-name="Path 10366" d="M9.153-9.994v6.467a3.835,3.835,0,0,1-.475,1.938A3.166,3.166,0,0,1,7.3-.311a4.775,4.775,0,0,1-2.15.448A4.022,4.022,0,0,1,2.263-.848,3.563,3.563,0,0,1,1.23-3.555V-9.994H2.871v6.323a2.527,2.527,0,0,0,.574,1.825,2.367,2.367,0,0,0,1.764.588q2.311,0,2.311-2.427v-6.31Zm7.465,7.841a1.978,1.978,0,0,1-.807,1.7A3.863,3.863,0,0,1,13.5.137a5.458,5.458,0,0,1-2.427-.458V-1.709a5.958,5.958,0,0,0,2.481.615q1.483,0,1.483-.9a.709.709,0,0,0-.164-.479,1.942,1.942,0,0,0-.54-.4,9.293,9.293,0,0,0-1.046-.465,4.838,4.838,0,0,1-1.767-1.012,1.872,1.872,0,0,1-.461-1.312,1.724,1.724,0,0,1,.783-1.507A3.714,3.714,0,0,1,13.973-7.7a6.031,6.031,0,0,1,2.522.54l-.52,1.21a5.61,5.61,0,0,0-2.058-.506q-1.271,0-1.271.725a.729.729,0,0,0,.332.6,7.291,7.291,0,0,0,1.446.677,6.609,6.609,0,0,1,1.36.663,1.982,1.982,0,0,1,.629.694A2.008,2.008,0,0,1,16.618-2.153ZM21.656.137A3.657,3.657,0,0,1,18.9-.892,3.906,3.906,0,0,1,17.9-3.726a4.285,4.285,0,0,1,.923-2.912A3.188,3.188,0,0,1,21.362-7.7a3.116,3.116,0,0,1,2.365.909,3.474,3.474,0,0,1,.868,2.5v.868H19.558a2.483,2.483,0,0,0,.595,1.692,2.071,2.071,0,0,0,1.579.591,5.829,5.829,0,0,0,1.248-.126,6.539,6.539,0,0,0,1.241-.42V-.376a4.932,4.932,0,0,1-1.189.4A7.294,7.294,0,0,1,21.656.137ZM21.362-6.48A1.614,1.614,0,0,0,20.135-6a2.313,2.313,0,0,0-.55,1.415h3.432A2.093,2.093,0,0,0,22.565-6,1.543,1.543,0,0,0,21.362-6.48ZM30.256-7.7a3.867,3.867,0,0,1,.8.068l-.157,1.5a3.036,3.036,0,0,0-.711-.082,2.057,2.057,0,0,0-1.562.629,2.273,2.273,0,0,0-.6,1.634V0H26.421V-7.561h1.258l.212,1.333h.082A3,3,0,0,1,28.954-7.3,2.332,2.332,0,0,1,30.256-7.7ZM40.277,0H38.671V-6.453q0-1.155.055-1.832-.157.164-.386.362T36.8-6.665L36-7.684l2.939-2.311h1.34Z" transform="translate(100 231)" fill="#3d3d3d"/>
      <path id="Path_10367" data-name="Path 10367" d="M9.153-9.994v6.467a3.835,3.835,0,0,1-.475,1.938A3.166,3.166,0,0,1,7.3-.311a4.775,4.775,0,0,1-2.15.448A4.022,4.022,0,0,1,2.263-.848,3.563,3.563,0,0,1,1.23-3.555V-9.994H2.871v6.323a2.527,2.527,0,0,0,.574,1.825,2.367,2.367,0,0,0,1.764.588q2.311,0,2.311-2.427v-6.31Zm7.465,7.841a1.978,1.978,0,0,1-.807,1.7A3.863,3.863,0,0,1,13.5.137a5.458,5.458,0,0,1-2.427-.458V-1.709a5.958,5.958,0,0,0,2.481.615q1.483,0,1.483-.9a.709.709,0,0,0-.164-.479,1.942,1.942,0,0,0-.54-.4,9.293,9.293,0,0,0-1.046-.465,4.838,4.838,0,0,1-1.767-1.012,1.872,1.872,0,0,1-.461-1.312,1.724,1.724,0,0,1,.783-1.507A3.714,3.714,0,0,1,13.973-7.7a6.031,6.031,0,0,1,2.522.54l-.52,1.21a5.61,5.61,0,0,0-2.058-.506q-1.271,0-1.271.725a.729.729,0,0,0,.332.6,7.291,7.291,0,0,0,1.446.677,6.609,6.609,0,0,1,1.36.663,1.982,1.982,0,0,1,.629.694A2.008,2.008,0,0,1,16.618-2.153ZM21.656.137A3.657,3.657,0,0,1,18.9-.892,3.906,3.906,0,0,1,17.9-3.726a4.285,4.285,0,0,1,.923-2.912A3.188,3.188,0,0,1,21.362-7.7a3.116,3.116,0,0,1,2.365.909,3.474,3.474,0,0,1,.868,2.5v.868H19.558a2.483,2.483,0,0,0,.595,1.692,2.071,2.071,0,0,0,1.579.591,5.829,5.829,0,0,0,1.248-.126,6.539,6.539,0,0,0,1.241-.42V-.376a4.932,4.932,0,0,1-1.189.4A7.294,7.294,0,0,1,21.656.137ZM21.362-6.48A1.614,1.614,0,0,0,20.135-6a2.313,2.313,0,0,0-.55,1.415h3.432A2.093,2.093,0,0,0,22.565-6,1.543,1.543,0,0,0,21.362-6.48ZM30.256-7.7a3.867,3.867,0,0,1,.8.068l-.157,1.5a3.036,3.036,0,0,0-.711-.082,2.057,2.057,0,0,0-1.562.629,2.273,2.273,0,0,0-.6,1.634V0H26.421V-7.561h1.258l.212,1.333h.082A3,3,0,0,1,28.954-7.3,2.332,2.332,0,0,1,30.256-7.7ZM42.335,0H35.561V-1.217l2.577-2.591a21.921,21.921,0,0,0,1.514-1.658,3.958,3.958,0,0,0,.543-.919,2.479,2.479,0,0,0,.171-.923,1.407,1.407,0,0,0-.407-1.066,1.559,1.559,0,0,0-1.125-.39,3,3,0,0,0-1.111.212,5.2,5.2,0,0,0-1.241.766l-.868-1.06a5.6,5.6,0,0,1,1.62-1,4.743,4.743,0,0,1,1.675-.294,3.3,3.3,0,0,1,2.235.728,2.459,2.459,0,0,1,.841,1.958,3.437,3.437,0,0,1-.243,1.285A5.223,5.223,0,0,1,41-4.912a17.028,17.028,0,0,1-1.671,1.747L37.591-1.483v.068h4.744Z" transform="translate(222 231)" fill="#5b5b5b"/>
      <g id="Group_14610" data-name="Group 14610" transform="translate(-87 -48)">
        <rect id="Rectangle_3945" data-name="Rectangle 3945" width="24" height="24" transform="translate(158 261)" fill="none"/>
        <path id="Path_5647" data-name="Path 5647" d="M171.5,169.5A4.5,4.5,0,1,1,176,174,4.481,4.481,0,0,1,171.5,169.5Zm12.7,9.8a9.969,9.969,0,0,0-16.4,0,.984.984,0,0,0,.3,1.4,15.063,15.063,0,0,0,16,0A.958.958,0,0,0,184.2,179.3Z" transform="translate(-6 99)" fill="#2777d3"/>
      </g>
      <g id="Group_14611" data-name="Group 14611" transform="translate(35 -48)">
        <rect id="Rectangle_3945-2" data-name="Rectangle 3945" width="24" height="24" transform="translate(158 261)" fill="none"/>
        <path id="Path_5647-2" data-name="Path 5647" d="M171.5,169.5A4.5,4.5,0,1,1,176,174,4.481,4.481,0,0,1,171.5,169.5Zm12.7,9.8a9.969,9.969,0,0,0-16.4,0,.984.984,0,0,0,.3,1.4,15.063,15.063,0,0,0,16,0A.958.958,0,0,0,184.2,179.3Z" transform="translate(-6 99)" fill="#5b5b5b"/>
      </g>
    </g>
  </g>
</svg>
