<svg xmlns="http://www.w3.org/2000/svg" xmlns:xlink="http://www.w3.org/1999/xlink" width="275" height="183" viewBox="0 0 275 183">
  <defs>
    <clipPath id="clip-standardradio_large">
      <rect width="275" height="183"/>
    </clipPath>
  </defs>
  <g id="standardradio_large" clip-path="url(#clip-standardradio_large)">
    <g id="Group_264144" data-name="Group 264144" transform="translate(33 -51)">
      <g id="Radio_button" data-name="Radio button" transform="translate(74 149)">
        <path id="Path_6085" data-name="Path 6085" d="M37,43.2a9.6,9.6,0,1,1-9.6,9.6A9.628,9.628,0,0,1,37,43.2m0-2.4a12,12,0,1,0,12,12,12.035,12.035,0,0,0-12-12Zm7.2,12A7.2,7.2,0,1,0,37,60,7.221,7.221,0,0,0,44.2,52.8Z" transform="translate(-25 -40.8)" fill="#2777d3"/>
        <text id="Label" transform="translate(29 17)" fill="#1a1a1e" stroke="rgba(0,0,0,0)" stroke-width="1" font-size="14" font-family="SegoeUI, Segoe UI"><tspan x="0" y="0">Label</tspan></text>
      </g>
      <g id="Radio_button-2" data-name="Radio button" transform="translate(74 113)">
        <text id="Label-2" data-name="Label" transform="translate(29 17)" fill="#1a1a1e" stroke="rgba(0,0,0,0)" stroke-width="1" font-size="14" font-family="SegoeUI, Segoe UI"><tspan x="0" y="0">Label</tspan></text>
        <path id="Path_10240" data-name="Path 10240" d="M12,43.2a9.6,9.6,0,1,1-9.6,9.6A9.628,9.628,0,0,1,12,43.2m0-2.4a12,12,0,1,0,12,12,12.035,12.035,0,0,0-12-12Z" transform="translate(0 -40.8)" fill="#9494a4"/>
      </g>
    </g>
  </g>
</svg>
