<svg xmlns="http://www.w3.org/2000/svg" xmlns:xlink="http://www.w3.org/1999/xlink" width="275" height="42" viewBox="0 0 275 42">
  <defs>
    <clipPath id="clip-file-selector--browse">
      <rect width="275" height="42"/>
    </clipPath>
  </defs>
  <g id="file-selector--browse" clip-path="url(#clip-file-selector--browse)">
    <rect width="275" height="42" fill="#fff"/>
    <g id="Group_13273" data-name="Group 13273" transform="translate(-473 -503)">
      <g id="Input-_no_label" data-name="Input- no label" transform="translate(546 503)">
        <g id="Rectangle_288" data-name="Rectangle 288" fill="#fff" stroke="#cbcbd2" stroke-width="1">
          <path d="M0,0H198a4,4,0,0,1,4,4V38a4,4,0,0,1-4,4H0a0,0,0,0,1,0,0V0A0,0,0,0,1,0,0Z" stroke="none"/>
          <path d="M1,.5H198A3.5,3.5,0,0,1,201.5,4V38a3.5,3.5,0,0,1-3.5,3.5H1A.5.5,0,0,1,.5,41V1A.5.5,0,0,1,1,.5Z" fill="none"/>
        </g>
      </g>
      <g id="Primary_Button_-_Normal" data-name="Primary Button - Normal" transform="translate(473 503)">
        <g id="Path_8229" data-name="Path 8229" transform="translate(73.934 42) rotate(180)" fill="#f4f4f6">
          <path d="M 69.93359375 41.5 L 0.4999968707561493 41.5 L 0.4999968707561493 0.5 L 69.93359375 0.5 C 71.86351013183594 0.5 73.43359375 2.070090055465698 73.43359375 4 L 73.43359375 38 C 73.43359375 39.92990875244141 71.86351013183594 41.5 69.93359375 41.5 Z" stroke="none"/>
          <path d="M 1 1 L 1 41 L 69.93359375 41 C 71.58780670166016 41 72.93359375 39.65420913696289 72.93359375 38 L 72.93359375 4 C 72.93359375 2.345790863037109 71.58780670166016 1 69.93359375 1 L 1 1 M 0 0 L 69.93359375 0 C 72.14273071289063 0 73.93359375 1.790859222412109 73.93359375 4 L 73.93359375 38 C 73.93359375 40.20914077758789 72.14273071289063 42 69.93359375 42 L 0 42 L 0 0 Z" stroke="none" fill="#cbcbd2"/>
        </g>
        <text id="Browse" transform="translate(37 27)" fill="#494955" font-size="14" font-family="SegoeUI-Semibold, Segoe UI" font-weight="600"><tspan x="-22.969" y="0">Browse</tspan></text>
      </g>
    </g>
  </g>
</svg>
