<svg xmlns="http://www.w3.org/2000/svg" xmlns:xlink="http://www.w3.org/1999/xlink" width="900" height="447" viewBox="0 0 900 447">
  <defs>
    <clipPath id="clip-path">
      <rect width="300" height="42" fill="none"/>
    </clipPath>
    <clipPath id="clip-file-selector--example">
      <rect width="900" height="447"/>
    </clipPath>
  </defs>
  <g id="file-selector--example" clip-path="url(#clip-file-selector--example)">
    <rect width="900" height="447" fill="#f4f4f6"/>
    <text id="Census" transform="translate(274 195)" fill="#31313a" font-size="14" font-family="SegoeUI-Semibold, Segoe UI" font-weight="600"><tspan x="-44.543" y="0">Census</tspan></text>
    <g id="Input-_no_label" data-name="Input- no label" transform="translate(314 44)" clip-path="url(#clip-path)">
      <g id="Rectangle_288" data-name="Rectangle 288" fill="#fff" stroke="#cbcbd2" stroke-width="1">
        <rect width="300" height="42" rx="4" stroke="none"/>
        <rect x="0.5" y="0.5" width="299" height="41" rx="3.5" fill="none"/>
      </g>
    </g>
    <text id="Account_Name" data-name="Account Name" transform="translate(274 71)" fill="#31313a" font-size="14" font-family="SegoeUI-Semibold, Segoe UI" font-weight="600"><tspan x="-94.056" y="0">Account Name</tspan></text>
    <g id="Input-_no_label-2" data-name="Input- no label" transform="translate(314 106)" clip-path="url(#clip-path)">
      <g id="Rectangle_288-2" data-name="Rectangle 288" fill="#fff" stroke="#cbcbd2" stroke-width="1">
        <rect width="300" height="42" rx="4" stroke="none"/>
        <rect x="0.5" y="0.5" width="299" height="41" rx="3.5" fill="none"/>
      </g>
    </g>
    <text id="SIC_Code" data-name="SIC Code" transform="translate(274 133)" fill="#31313a" font-size="14" font-family="SegoeUI-Semibold, Segoe UI" font-weight="600"><tspan x="-57.176" y="0">SIC Code</tspan></text>
    <g id="Input-_no_label-3" data-name="Input- no label" transform="translate(314 292)">
      <g id="Rectangle_288-3" data-name="Rectangle 288" fill="#fff" stroke="#cbcbd2" stroke-width="1">
        <rect width="189" height="42" rx="4" stroke="none"/>
        <rect x="0.5" y="0.5" width="188" height="41" rx="3.5" fill="none"/>
      </g>
    </g>
    <text id="Zip" transform="translate(274 319)" fill="#31313a" font-size="14" font-family="SegoeUI-Semibold, Segoe UI" font-weight="600"><tspan x="-20.31" y="0">Zip</tspan></text>
    <g id="Primary_Button_-_Normal" data-name="Primary Button - Normal" transform="translate(314 364)">
      <rect id="Rectangle_3990" data-name="Rectangle 3990" width="73.934" height="36" rx="18" fill="#2777d3"/>
      <text id="Save" transform="translate(37 23)" fill="#fff" font-size="14" font-family="SegoeUI-Semibold, Segoe UI" font-weight="600"><tspan x="-14.68" y="0">Save</tspan></text>
    </g>
    <g id="Secondary_Button_-_Normal" data-name="Secondary Button - Normal" transform="translate(398 364)">
      <rect id="Rectangle_3991" data-name="Rectangle 3991" width="73.934" height="36" rx="18" fill="none"/>
      <text id="Cancel" transform="translate(37 23)" fill="#2777d3" font-size="14" font-family="SegoeUI-Semibold, Segoe UI" font-weight="600"><tspan x="-20.925" y="0">Cancel</tspan></text>
    </g>
    <text id="State" transform="translate(274 257)" fill="#31313a" font-size="14" font-family="SegoeUI-Semibold, Segoe UI" font-weight="600"><tspan x="-31.999" y="0">State</tspan></text>
    <g id="Dropdown_Input_-_Unselected" data-name="Dropdown Input - Unselected" transform="translate(314 230)">
      <g id="Rectangle_288-4" data-name="Rectangle 288" fill="#fff" stroke="#cbcbd2" stroke-width="1">
        <rect width="213" height="42" rx="4" stroke="none"/>
        <rect x="0.5" y="0.5" width="212" height="41" rx="3.5" fill="none"/>
      </g>
      <g id="Group_7793" data-name="Group 7793" transform="translate(-637 -1698)">
        <rect id="Rectangle_3867" data-name="Rectangle 3867" width="24" height="24" transform="translate(816 1707)" fill="none"/>
        <path id="Path_5558" data-name="Path 5558" d="M56,9.4l-3,3-3-3a.967.967,0,0,0-1.4,0h0a.967.967,0,0,0,0,1.4l3.7,3.7a.967.967,0,0,0,1.4,0l3.7-3.7a.967.967,0,0,0,0-1.4h0A.965.965,0,0,0,56,9.4Z" transform="translate(775 1707)" fill="#9494a4"/>
      </g>
    </g>
    <g id="Group_13281" data-name="Group 13281">
      <g id="Input-_no_label-4" data-name="Input- no label" transform="translate(314 168)">
        <g id="Rectangle_288-5" data-name="Rectangle 288" fill="#fff" stroke="#cbcbd2" stroke-width="1" stroke-dasharray="2 2">
          <rect width="275" height="42" stroke="none"/>
          <rect x="0.5" y="0.5" width="274" height="41" fill="none"/>
        </g>
      </g>
      <g id="Group_13280" data-name="Group 13280" transform="translate(-685 -1153)">
        <g id="Group_13275" data-name="Group 13275" transform="translate(1046 1333)">
          <text id="click_to_upload" data-name="click to upload" transform="translate(157 15)" fill="#4e92df" font-size="14" font-family="SegoeUI, Segoe UI"><tspan x="-45.203" y="0">click to upload</tspan></text>
          <text id="Drop_files_here_or_" data-name="Drop files here or " transform="translate(56 15)" fill="#78788c" font-size="14" font-family="SegoeUI, Segoe UI"><tspan x="-55.692" y="0">Drop files here or </tspan></text>
        </g>
        <g id="Group_13271" data-name="Group 13271" transform="translate(1026 1335)">
          <g id="Group_13270" data-name="Group 13270">
            <path id="Path_8849" data-name="Path 8849" d="M1.1,4.9H2a.2.2,0,0,0,.2-.2V1.3H13.8V4.7a.2.2,0,0,0,.2.2h.9a.2.2,0,0,0,.2-.2V.7a.7.7,0,0,0-.7-.7H1.6A.7.7,0,0,0,.9.7v4A.2.2,0,0,0,1.1,4.9Z" fill="#78788c"/>
            <path id="Path_8850" data-name="Path 8850" d="M8.2,4.1H7.8L4.3,7.8a.2.2,0,0,0,0,.3l.9,1h.3L7.1,7.5v8.3a.2.2,0,0,0,.2.2H8.7a.2.2,0,0,0,.2-.2V7.5l1.6,1.7h.3l.9-1a.2.2,0,0,0,0-.3Z" fill="#78788c"/>
          </g>
          <rect id="Rectangle_6837" data-name="Rectangle 6837" width="16" height="16" fill="none"/>
        </g>
      </g>
    </g>
  </g>
</svg>
