<svg xmlns="http://www.w3.org/2000/svg" xmlns:xlink="http://www.w3.org/1999/xlink" viewBox="2181 1257 564 465">
  <defs>
    <style>
      .cls-1 {
        clip-path: url(#clip-empty_state_doV2_1);
      }

      .cls-2 {
        fill: #f4f4f4;
      }

      .cls-3 {
        fill: #3d3d3d;
      }

      .cls-4 {
        fill: #5b5b5b;
      }

      .cls-4, .cls-9 {
        stroke: rgba(0,0,0,0);
      }

      .cls-5 {
        fill: #242424;
      }

      .cls-6, .cls-9 {
        fill: #fff;
      }

      .cls-7 {
        fill: none;
        stroke: #fff;
        stroke-width: 3px;
      }

      .cls-8 {
        fill: #5FB53B;
      }
    </style>
    <clipPath id="clip-empty_state_doV2_1">
      <rect x="2181" y="1257" width="564" height="465"/>
    </clipPath>
  </defs>
  <g id="empty_state_doV2_1" data-name="empty_state_doV2 – 1" class="cls-1">
    <rect class="cls-6" x="2181" y="1257" width="564" height="465"/>
    <path id="Path_40" data-name="Path 40" class="cls-2" d="M0,0H563.5V462.5H0Z" transform="translate(2182 1259)"/>
    <path id="Path_41" data-name="Path 41" class="cls-3" d="M0,0H564V60H0Z" transform="translate(2181 1257)"/>
    <path id="Path_42" data-name="Path 42" class="cls-4" d="M2.552,0V-18.561H4.71V-1.955H12.9V0ZM27.739-6.97a7.676,7.676,0,0,1-1.714,5.313A6.036,6.036,0,0,1,21.29.254a6.272,6.272,0,0,1-3.313-.876,5.781,5.781,0,0,1-2.234-2.514,8.76,8.76,0,0,1-.787-3.834,7.664,7.664,0,0,1,1.7-5.3,6.016,6.016,0,0,1,4.723-1.9,5.886,5.886,0,0,1,4.64,1.942A7.643,7.643,0,0,1,27.739-6.97Zm-10.6,0a6.6,6.6,0,0,0,1.066,4.063,3.7,3.7,0,0,0,3.136,1.4A3.726,3.726,0,0,0,24.483-2.9,6.571,6.571,0,0,0,25.556-6.97,6.465,6.465,0,0,0,24.483-11a3.769,3.769,0,0,0-3.167-1.377,3.709,3.709,0,0,0-3.123,1.358A6.537,6.537,0,0,0,17.139-6.97Zm26.3,0a7.676,7.676,0,0,1-1.714,5.313A6.036,6.036,0,0,1,36.994.254a6.272,6.272,0,0,1-3.313-.876,5.781,5.781,0,0,1-2.234-2.514,8.76,8.76,0,0,1-.787-3.834,7.664,7.664,0,0,1,1.7-5.3,6.016,6.016,0,0,1,4.723-1.9,5.886,5.886,0,0,1,4.64,1.942A7.643,7.643,0,0,1,43.443-6.97Zm-10.6,0a6.6,6.6,0,0,0,1.066,4.063,3.7,3.7,0,0,0,3.136,1.4A3.726,3.726,0,0,0,40.187-2.9,6.571,6.571,0,0,0,41.26-6.97,6.465,6.465,0,0,0,40.187-11a3.769,3.769,0,0,0-3.167-1.377A3.709,3.709,0,0,0,33.9-11.02,6.537,6.537,0,0,0,32.843-6.97ZM49.22-7.122a24.783,24.783,0,0,1,1.663-2.031l4.494-4.761h2.5L52.241-7.985,58.271,0H55.72L50.807-6.576,49.22-5.205V0H47.138V-19.754H49.22V-9.28q0,.7-.1,2.158ZM69.761-3.8a3.485,3.485,0,0,1-1.447,3A6.8,6.8,0,0,1,64.251.254a8.834,8.834,0,0,1-4.316-.876V-2.577a10.438,10.438,0,0,0,2.152.8,8.986,8.986,0,0,0,2.215.292,5.024,5.024,0,0,0,2.539-.527,1.742,1.742,0,0,0,.889-1.606,1.743,1.743,0,0,0-.7-1.39,11.083,11.083,0,0,0-2.749-1.365,14.9,14.9,0,0,1-2.761-1.263A3.772,3.772,0,0,1,60.3-8.861a3.2,3.2,0,0,1-.4-1.638,3.122,3.122,0,0,1,1.384-2.685,6.448,6.448,0,0,1,3.8-.984,11.107,11.107,0,0,1,4.393.914L68.72-11.54a10.083,10.083,0,0,0-3.8-.863,4.367,4.367,0,0,0-2.26.47,1.452,1.452,0,0,0-.762,1.295,1.577,1.577,0,0,0,.286.952,2.819,2.819,0,0,0,.92.749,20.569,20.569,0,0,0,2.438,1.028,9.106,9.106,0,0,1,3.345,1.815A3.2,3.2,0,0,1,69.761-3.8ZM82.05,0H79.942V-19.754H82.05Zm6.576,0H86.519V-13.914h2.107ZM86.341-17.685a1.4,1.4,0,0,1,.355-1.06,1.242,1.242,0,0,1,.889-.336,1.242,1.242,0,0,1,.876.343,1.374,1.374,0,0,1,.368,1.054,1.4,1.4,0,0,1-.368,1.06,1.229,1.229,0,0,1-.876.349,1.217,1.217,0,0,1-.889-.349A1.426,1.426,0,0,1,86.341-17.685ZM95.177-7.122A24.783,24.783,0,0,1,96.84-9.153l4.494-4.761h2.5L98.2-7.985,104.229,0h-2.552L96.764-6.576,95.177-5.205V0H93.095V-19.754h2.082V-9.28q0,.7-.1,2.158ZM112.62.254a6.393,6.393,0,0,1-4.869-1.879,7.274,7.274,0,0,1-1.784-5.218,8.067,8.067,0,0,1,1.657-5.345,5.5,5.5,0,0,1,4.45-1.98,5.247,5.247,0,0,1,4.139,1.72,6.593,6.593,0,0,1,1.523,4.539v1.333h-9.585a5.516,5.516,0,0,0,1.238,3.72,4.281,4.281,0,0,0,3.307,1.27,11.207,11.207,0,0,0,4.443-.939V-.647a11.152,11.152,0,0,1-2.114.692A11.879,11.879,0,0,1,112.62.254ZM112.049-12.4a3.441,3.441,0,0,0-2.672,1.092A5.033,5.033,0,0,0,108.2-8.29h7.274a4.633,4.633,0,0,0-.889-3.053A3.128,3.128,0,0,0,112.049-12.4Zm13.825-1.511h2.26l3.047,7.935a30.18,30.18,0,0,1,1.244,3.923h.1q.165-.647.692-2.215t3.447-9.642h2.26L132.945,1.93a7.9,7.9,0,0,1-2.076,3.333,4.414,4.414,0,0,1-2.914.984,8.478,8.478,0,0,1-1.9-.216V4.342a7.346,7.346,0,0,0,1.562.152,3.219,3.219,0,0,0,3.1-2.437l.774-1.98Zm27.32,6.944a7.676,7.676,0,0,1-1.714,5.313A6.036,6.036,0,0,1,146.745.254a6.272,6.272,0,0,1-3.313-.876A5.781,5.781,0,0,1,141.2-3.136a8.76,8.76,0,0,1-.787-3.834,7.664,7.664,0,0,1,1.7-5.3,6.016,6.016,0,0,1,4.723-1.9,5.886,5.886,0,0,1,4.64,1.942A7.643,7.643,0,0,1,153.194-6.97Zm-10.6,0a6.6,6.6,0,0,0,1.066,4.063,3.7,3.7,0,0,0,3.136,1.4,3.726,3.726,0,0,0,3.142-1.39,6.571,6.571,0,0,0,1.073-4.069A6.465,6.465,0,0,0,149.938-11a3.769,3.769,0,0,0-3.167-1.377,3.709,3.709,0,0,0-3.123,1.358A6.537,6.537,0,0,0,142.594-6.97Zm16.275-6.944v9.026a3.631,3.631,0,0,0,.774,2.539,3.155,3.155,0,0,0,2.425.838A3.956,3.956,0,0,0,165.261-2.7a6.02,6.02,0,0,0,1.009-3.9v-7.312h2.107V0h-1.739l-.3-1.866h-.114a4.2,4.2,0,0,1-1.8,1.574A6.038,6.038,0,0,1,161.8.254,5.319,5.319,0,0,1,158-.952a5.134,5.134,0,0,1-1.263-3.859v-9.1Zm30.2,12.048h-.114A4.952,4.952,0,0,1,184.59.254a5.166,5.166,0,0,1-4.247-1.866,8.214,8.214,0,0,1-1.517-5.307,8.353,8.353,0,0,1,1.523-5.345,5.126,5.126,0,0,1,4.24-1.9,5.06,5.06,0,0,1,4.342,2.057h.165l-.089-1-.051-.978v-5.662h2.107V0h-1.714Zm-4.215.355a3.837,3.837,0,0,0,3.129-1.174,5.934,5.934,0,0,0,.971-3.79v-.444a6.982,6.982,0,0,0-.984-4.221,3.736,3.736,0,0,0-3.142-1.263,3.226,3.226,0,0,0-2.837,1.441,7.165,7.165,0,0,0-.984,4.069,6.869,6.869,0,0,0,.978,4.024A3.311,3.311,0,0,0,184.856-1.511ZM207.543-6.97a7.676,7.676,0,0,1-1.714,5.313A6.036,6.036,0,0,1,201.094.254a6.272,6.272,0,0,1-3.313-.876,5.781,5.781,0,0,1-2.234-2.514,8.76,8.76,0,0,1-.787-3.834,7.664,7.664,0,0,1,1.7-5.3,6.016,6.016,0,0,1,4.723-1.9,5.886,5.886,0,0,1,4.64,1.942A7.643,7.643,0,0,1,207.543-6.97Zm-10.6,0a6.6,6.6,0,0,0,1.066,4.063,3.7,3.7,0,0,0,3.136,1.4,3.726,3.726,0,0,0,3.142-1.39,6.571,6.571,0,0,0,1.073-4.069A6.465,6.465,0,0,0,204.287-11a3.769,3.769,0,0,0-3.167-1.377A3.709,3.709,0,0,0,198-11.02,6.537,6.537,0,0,0,196.942-6.97ZM220.759,0V-9a3.631,3.631,0,0,0-.774-2.539,3.155,3.155,0,0,0-2.425-.838,4,4,0,0,0-3.2,1.181,5.961,5.961,0,0,0-1.016,3.9V0h-2.107V-13.914h1.714l.343,1.9h.1a4.3,4.3,0,0,1,1.815-1.593,5.9,5.9,0,0,1,2.6-.565,5.285,5.285,0,0,1,3.783,1.212,5.16,5.16,0,0,1,1.27,3.878V0Zm8.252-18.561-.508,6.7H227.17l-.521-6.7Zm8.43,17.075a6.884,6.884,0,0,0,1.079-.083,6.985,6.985,0,0,0,.825-.171V-.127a3.852,3.852,0,0,1-1.009.273,7.579,7.579,0,0,1-1.2.108Q233.1.254,233.1-4v-8.277h-1.993v-1.016l1.993-.876.889-2.971h1.219v3.225h4.037v1.638h-4.037v8.188a2.817,2.817,0,0,0,.6,1.93A2.076,2.076,0,0,0,237.44-1.485ZM258.4,0V-9a3.632,3.632,0,0,0-.774-2.539,3.155,3.155,0,0,0-2.425-.838A3.973,3.973,0,0,0,252-11.185a6.044,6.044,0,0,0-1.009,3.91V0h-2.107V-19.754h2.107v5.979a13.029,13.029,0,0,1-.1,1.79h.127a4.3,4.3,0,0,1,1.771-1.581,5.758,5.758,0,0,1,2.622-.578,5.369,5.369,0,0,1,3.828,1.212,5.106,5.106,0,0,1,1.276,3.853V0Zm14.993,0-.419-1.98h-.1A5.855,5.855,0,0,1,270.8-.209a6.327,6.327,0,0,1-2.583.463A4.647,4.647,0,0,1,264.97-.812,3.89,3.89,0,0,1,263.8-3.847q0-4.215,6.741-4.418l2.361-.076V-9.2a3.528,3.528,0,0,0-.7-2.418,2.9,2.9,0,0,0-2.253-.781A9.182,9.182,0,0,0,266-11.337l-.647-1.612a9.9,9.9,0,0,1,2.253-.876,9.76,9.76,0,0,1,2.457-.317,5.3,5.3,0,0,1,3.688,1.1,4.61,4.61,0,0,1,1.2,3.542V0Zm-4.761-1.485a4.277,4.277,0,0,0,3.091-1.079,3.992,3.992,0,0,0,1.124-3.021V-6.843l-2.107.089a7.665,7.665,0,0,0-3.625.781A2.354,2.354,0,0,0,266-3.821a2.171,2.171,0,0,0,.692,1.739A2.872,2.872,0,0,0,268.633-1.485ZM282.344,0l-5.281-13.914h2.26l3,8.252A39.058,39.058,0,0,1,283.512-1.9h.1a28.387,28.387,0,0,1,.882-2.787q.743-2.114,3.333-9.223h2.26L284.807,0ZM298.2.254a6.393,6.393,0,0,1-4.869-1.879,7.274,7.274,0,0,1-1.784-5.218,8.067,8.067,0,0,1,1.657-5.345,5.5,5.5,0,0,1,4.45-1.98,5.247,5.247,0,0,1,4.139,1.72,6.593,6.593,0,0,1,1.523,4.539v1.333h-9.585a5.516,5.516,0,0,0,1.238,3.72,4.281,4.281,0,0,0,3.307,1.27,11.207,11.207,0,0,0,4.443-.939V-.647a11.152,11.152,0,0,1-2.114.692A11.879,11.879,0,0,1,298.2.254ZM297.629-12.4a3.441,3.441,0,0,0-2.672,1.092,5.033,5.033,0,0,0-1.174,3.021h7.274a4.634,4.634,0,0,0-.889-3.053A3.128,3.128,0,0,0,297.629-12.4ZM322.22,0,321.8-1.98h-.1a5.855,5.855,0,0,1-2.076,1.771,6.327,6.327,0,0,1-2.583.463A4.647,4.647,0,0,1,313.8-.812a3.89,3.89,0,0,1-1.174-3.034q0-4.215,6.741-4.418l2.361-.076V-9.2a3.528,3.528,0,0,0-.7-2.418,2.9,2.9,0,0,0-2.253-.781,9.182,9.182,0,0,0-3.936,1.066l-.647-1.612a9.9,9.9,0,0,1,2.253-.876,9.76,9.76,0,0,1,2.457-.317,5.3,5.3,0,0,1,3.688,1.1,4.61,4.61,0,0,1,1.2,3.542V0Zm-4.761-1.485a4.277,4.277,0,0,0,3.091-1.079,3.992,3.992,0,0,0,1.124-3.021V-6.843l-2.107.089a7.665,7.665,0,0,0-3.625.781,2.354,2.354,0,0,0-1.111,2.152,2.171,2.171,0,0,0,.692,1.739A2.872,2.872,0,0,0,317.459-1.485ZM337.645,0V-9a3.632,3.632,0,0,0-.774-2.539,3.155,3.155,0,0,0-2.425-.838,4,4,0,0,0-3.2,1.181,5.961,5.961,0,0,0-1.016,3.9V0h-2.107V-13.914h1.714l.343,1.9h.1A4.3,4.3,0,0,1,332.1-13.6a5.9,5.9,0,0,1,2.6-.565,5.285,5.285,0,0,1,3.783,1.212,5.16,5.16,0,0,1,1.27,3.878V0Zm4.228-13.914h2.26l3.047,7.935a30.18,30.18,0,0,1,1.244,3.923h.1q.165-.647.692-2.215t3.447-9.642h2.26L348.943,1.93a7.9,7.9,0,0,1-2.076,3.333,4.414,4.414,0,0,1-2.914.984,8.478,8.478,0,0,1-1.9-.216V4.342a7.346,7.346,0,0,0,1.562.152,3.219,3.219,0,0,0,3.1-2.437l.774-1.98ZM7.795,36.254a5.938,5.938,0,0,1-4.678-1.86A7.648,7.648,0,0,1,1.46,29.132a7.887,7.887,0,0,1,1.682-5.4,6.057,6.057,0,0,1,4.792-1.9,9.51,9.51,0,0,1,2.006.216,6.608,6.608,0,0,1,1.574.508l-.647,1.79a9.909,9.909,0,0,0-1.523-.463,6.8,6.8,0,0,0-1.46-.184q-4.24,0-4.24,5.408a6.44,6.44,0,0,0,1.035,3.936,3.6,3.6,0,0,0,3.066,1.371,9.374,9.374,0,0,0,3.567-.749V35.53A7.6,7.6,0,0,1,7.795,36.254ZM23.169,36l-.419-1.98h-.1a5.855,5.855,0,0,1-2.076,1.771,6.327,6.327,0,0,1-2.583.463,4.647,4.647,0,0,1-3.244-1.066,3.89,3.89,0,0,1-1.174-3.034q0-4.215,6.741-4.418l2.361-.076V26.8a3.528,3.528,0,0,0-.7-2.418,2.9,2.9,0,0,0-2.253-.781,9.182,9.182,0,0,0-3.936,1.066l-.647-1.612a9.9,9.9,0,0,1,2.253-.876,9.76,9.76,0,0,1,2.457-.317,5.3,5.3,0,0,1,3.688,1.1,4.61,4.61,0,0,1,1.2,3.542V36Zm-4.761-1.485A4.277,4.277,0,0,0,21.5,33.436a3.992,3.992,0,0,0,1.124-3.021V29.157l-2.107.089a7.665,7.665,0,0,0-3.625.781,2.354,2.354,0,0,0-1.111,2.152,2.171,2.171,0,0,0,.692,1.739A2.872,2.872,0,0,0,18.408,34.515ZM46.808,36V26.948a3.757,3.757,0,0,0-.711-2.495,2.75,2.75,0,0,0-2.209-.832,3.566,3.566,0,0,0-2.907,1.13,5.37,5.37,0,0,0-.939,3.479V36H37.934V26.948a3.757,3.757,0,0,0-.711-2.495A2.767,2.767,0,0,0,35,23.622a3.441,3.441,0,0,0-2.9,1.187,6.424,6.424,0,0,0-.92,3.891V36H29.072V22.086h1.714l.343,1.9h.1A4.142,4.142,0,0,1,32.913,22.4a5.139,5.139,0,0,1,2.431-.571q3.263,0,4.266,2.361h.1a4.437,4.437,0,0,1,1.8-1.727,5.594,5.594,0,0,1,2.691-.635,4.712,4.712,0,0,1,3.536,1.212,5.424,5.424,0,0,1,1.174,3.878V36Zm12.924.254a6.021,6.021,0,0,1-2.482-.5,4.668,4.668,0,0,1-1.885-1.542h-.152a18.663,18.663,0,0,1,.152,2.311v5.726H53.257V22.086h1.714l.292,1.9h.1a4.894,4.894,0,0,1,1.892-1.65,5.75,5.75,0,0,1,2.476-.508A5.143,5.143,0,0,1,64,23.724a8.328,8.328,0,0,1,1.5,5.307,8.279,8.279,0,0,1-1.53,5.326A5.152,5.152,0,0,1,59.731,36.254Zm-.3-12.632A3.735,3.735,0,0,0,56.342,24.8a6.075,6.075,0,0,0-.978,3.758v.47a6.963,6.963,0,0,0,.978,4.2,3.718,3.718,0,0,0,3.136,1.263,3.261,3.261,0,0,0,2.825-1.46A6.923,6.923,0,0,0,63.324,29,6.663,6.663,0,0,0,62.3,25.012,3.361,3.361,0,0,0,59.427,23.622ZM77.746,36l-.419-1.98h-.1a5.855,5.855,0,0,1-2.076,1.771,6.327,6.327,0,0,1-2.583.463,4.647,4.647,0,0,1-3.244-1.066,3.89,3.89,0,0,1-1.174-3.034q0-4.215,6.741-4.418l2.361-.076V26.8a3.528,3.528,0,0,0-.7-2.418,2.9,2.9,0,0,0-2.253-.781,9.182,9.182,0,0,0-3.936,1.066l-.647-1.612a9.9,9.9,0,0,1,2.253-.876,9.76,9.76,0,0,1,2.457-.317,5.3,5.3,0,0,1,3.688,1.1,4.61,4.61,0,0,1,1.2,3.542V36Zm-4.761-1.485a4.277,4.277,0,0,0,3.091-1.079A3.992,3.992,0,0,0,77.2,30.414V29.157l-2.107.089a7.665,7.665,0,0,0-3.625.781,2.354,2.354,0,0,0-1.111,2.152,2.171,2.171,0,0,0,.692,1.739A2.872,2.872,0,0,0,72.985,34.515ZM85.757,36H83.649V22.086h2.107ZM83.472,18.315a1.4,1.4,0,0,1,.355-1.06,1.316,1.316,0,0,1,1.765.006,1.374,1.374,0,0,1,.368,1.054,1.4,1.4,0,0,1-.368,1.06,1.289,1.289,0,0,1-1.765,0A1.426,1.426,0,0,1,83.472,18.315Zm18.142,3.771v1.333l-2.577.3a4.526,4.526,0,0,1,.914,2.78,4.113,4.113,0,0,1-1.4,3.263,5.633,5.633,0,0,1-3.834,1.219,6.385,6.385,0,0,1-1.168-.1,2.074,2.074,0,0,0-1.346,1.79.909.909,0,0,0,.47.844,3.431,3.431,0,0,0,1.612.273h2.463a5.515,5.515,0,0,1,3.472.952,3.308,3.308,0,0,1,1.212,2.768,3.951,3.951,0,0,1-1.854,3.523,9.92,9.92,0,0,1-5.408,1.212,7.389,7.389,0,0,1-4.208-1.016,3.279,3.279,0,0,1-1.479-2.869,3.222,3.222,0,0,1,.813-2.2,4.137,4.137,0,0,1,2.285-1.257,2.2,2.2,0,0,1-.9-.749,1.982,1.982,0,0,1-.362-1.181,2.241,2.241,0,0,1,.406-1.333,4.271,4.271,0,0,1,1.282-1.1,3.758,3.758,0,0,1-1.758-1.511,4.439,4.439,0,0,1-.679-2.437,4.5,4.5,0,0,1,1.371-3.523,5.6,5.6,0,0,1,3.885-1.238,7.064,7.064,0,0,1,1.968.254Zm-11.1,16.25a1.888,1.888,0,0,0,.952,1.714,5.255,5.255,0,0,0,2.729.584,7.616,7.616,0,0,0,3.929-.793A2.429,2.429,0,0,0,99.4,37.688a1.7,1.7,0,0,0-.7-1.568,5.423,5.423,0,0,0-2.628-.438H93.552a3.328,3.328,0,0,0-2.234.686A2.45,2.45,0,0,0,90.518,38.336ZM91.66,26.542a2.833,2.833,0,0,0,.825,2.209,3.3,3.3,0,0,0,2.3.749q3.085,0,3.085-3,0-3.136-3.123-3.136a3.092,3.092,0,0,0-2.285.8A3.221,3.221,0,0,0,91.66,26.542ZM113.991,36V27a3.632,3.632,0,0,0-.774-2.539,3.155,3.155,0,0,0-2.425-.838,4,4,0,0,0-3.2,1.181,5.961,5.961,0,0,0-1.016,3.9V36H104.47V22.086h1.714l.343,1.9h.1a4.3,4.3,0,0,1,1.815-1.593,5.9,5.9,0,0,1,2.6-.565,5.285,5.285,0,0,1,3.783,1.212,5.16,5.16,0,0,1,1.27,3.878V36ZM129.4,32.2a3.485,3.485,0,0,1-1.447,3,6.8,6.8,0,0,1-4.062,1.054,8.834,8.834,0,0,1-4.316-.876V33.423a10.438,10.438,0,0,0,2.152.8,8.986,8.986,0,0,0,2.215.292,5.024,5.024,0,0,0,2.539-.527,1.814,1.814,0,0,0,.184-3,11.083,11.083,0,0,0-2.749-1.365,14.9,14.9,0,0,1-2.761-1.263,3.772,3.772,0,0,1-1.219-1.225,3.2,3.2,0,0,1-.4-1.638,3.122,3.122,0,0,1,1.384-2.685,6.448,6.448,0,0,1,3.8-.984,11.107,11.107,0,0,1,4.393.914l-.749,1.714a10.083,10.083,0,0,0-3.8-.863,4.367,4.367,0,0,0-2.26.47,1.452,1.452,0,0,0-.762,1.295,1.577,1.577,0,0,0,.286.952,2.819,2.819,0,0,0,.92.749,20.569,20.569,0,0,0,2.438,1.028,9.106,9.106,0,0,1,3.345,1.815A3.2,3.2,0,0,1,129.4,32.2Zm19.157,0a3.485,3.485,0,0,1-1.447,3,6.8,6.8,0,0,1-4.062,1.054,8.834,8.834,0,0,1-4.316-.876V33.423a10.439,10.439,0,0,0,2.152.8,8.986,8.986,0,0,0,2.215.292,5.024,5.024,0,0,0,2.539-.527,1.814,1.814,0,0,0,.184-3,11.083,11.083,0,0,0-2.749-1.365,14.9,14.9,0,0,1-2.761-1.263,3.772,3.772,0,0,1-1.219-1.225,3.2,3.2,0,0,1-.4-1.638,3.122,3.122,0,0,1,1.384-2.685,6.448,6.448,0,0,1,3.8-.984,11.107,11.107,0,0,1,4.393.914l-.749,1.714a10.083,10.083,0,0,0-3.8-.863,4.367,4.367,0,0,0-2.26.47,1.452,1.452,0,0,0-.762,1.295,1.577,1.577,0,0,0,.286.952,2.819,2.819,0,0,0,.92.749,20.568,20.568,0,0,0,2.438,1.028,9.106,9.106,0,0,1,3.345,1.815A3.2,3.2,0,0,1,148.561,32.2Zm9.306,4.05A6.393,6.393,0,0,1,153,34.375a7.274,7.274,0,0,1-1.784-5.218,8.067,8.067,0,0,1,1.657-5.345,5.5,5.5,0,0,1,4.45-1.98,5.247,5.247,0,0,1,4.139,1.72,6.593,6.593,0,0,1,1.523,4.539v1.333H153.4a5.515,5.515,0,0,0,1.238,3.72,4.281,4.281,0,0,0,3.307,1.27,11.207,11.207,0,0,0,4.443-.939v1.879a11.153,11.153,0,0,1-2.114.692A11.879,11.879,0,0,1,157.866,36.254ZM157.295,23.6a3.441,3.441,0,0,0-2.672,1.092,5.033,5.033,0,0,0-1.174,3.021h7.274a4.633,4.633,0,0,0-.889-3.053A3.128,3.128,0,0,0,157.295,23.6Zm13.774,10.918a6.884,6.884,0,0,0,1.079-.083,6.985,6.985,0,0,0,.825-.171v1.612a3.852,3.852,0,0,1-1.009.273,7.579,7.579,0,0,1-1.2.108q-4.037,0-4.037-4.253V23.724h-1.993V22.708l1.993-.876.889-2.971h1.219v3.225h4.037v1.638h-4.037v8.188a2.817,2.817,0,0,0,.6,1.93A2.076,2.076,0,0,0,171.069,34.515Zm13.419-12.429v9.026a3.631,3.631,0,0,0,.774,2.539,3.155,3.155,0,0,0,2.425.838A3.956,3.956,0,0,0,190.88,33.3a6.02,6.02,0,0,0,1.009-3.9V22.086H194V36h-1.739l-.3-1.866h-.114a4.2,4.2,0,0,1-1.8,1.574,6.038,6.038,0,0,1-2.622.546,5.319,5.319,0,0,1-3.8-1.206,5.134,5.134,0,0,1-1.263-3.859v-9.1ZM204.94,36.254a6.022,6.022,0,0,1-2.482-.5,4.668,4.668,0,0,1-1.885-1.542h-.152a18.663,18.663,0,0,1,.152,2.311v5.726h-2.107V22.086h1.714l.292,1.9h.1a4.894,4.894,0,0,1,1.892-1.65,5.75,5.75,0,0,1,2.476-.508,5.143,5.143,0,0,1,4.272,1.892,8.328,8.328,0,0,1,1.5,5.307,8.279,8.279,0,0,1-1.53,5.326A5.152,5.152,0,0,1,204.94,36.254Zm-.3-12.632a3.735,3.735,0,0,0-3.085,1.181,6.075,6.075,0,0,0-.978,3.758v.47a6.963,6.963,0,0,0,.978,4.2,3.718,3.718,0,0,0,3.136,1.263,3.261,3.261,0,0,0,2.825-1.46A6.923,6.923,0,0,0,208.533,29a6.663,6.663,0,0,0-1.022-3.993A3.361,3.361,0,0,0,204.636,23.622Zm14.308-1.536h2.26l3.047,7.935a30.18,30.18,0,0,1,1.244,3.923h.1q.165-.647.692-2.215t3.447-9.642h2.26L226.015,37.93a7.9,7.9,0,0,1-2.076,3.333,4.414,4.414,0,0,1-2.914.984,8.478,8.478,0,0,1-1.9-.216V40.342a7.346,7.346,0,0,0,1.562.152,3.219,3.219,0,0,0,3.1-2.437l.774-1.98Zm21.188,14.168a6.393,6.393,0,0,1-4.869-1.879,7.274,7.274,0,0,1-1.784-5.218,8.067,8.067,0,0,1,1.657-5.345,5.5,5.5,0,0,1,4.45-1.98,5.247,5.247,0,0,1,4.139,1.72,6.593,6.593,0,0,1,1.523,4.539v1.333h-9.585a5.515,5.515,0,0,0,1.238,3.72,4.281,4.281,0,0,0,3.307,1.27,11.207,11.207,0,0,0,4.443-.939v1.879a11.153,11.153,0,0,1-2.114.692A11.879,11.879,0,0,1,240.132,36.254ZM239.561,23.6a3.441,3.441,0,0,0-2.672,1.092,5.033,5.033,0,0,0-1.174,3.021h7.274a4.633,4.633,0,0,0-.889-3.053A3.128,3.128,0,0,0,239.561,23.6Zm13.774,10.918a6.884,6.884,0,0,0,1.079-.083,6.985,6.985,0,0,0,.825-.171v1.612a3.852,3.852,0,0,1-1.009.273,7.579,7.579,0,0,1-1.2.108q-4.037,0-4.037-4.253V23.724H247V22.708l1.993-.876.889-2.971H251.1v3.225h4.037v1.638H251.1v8.188a2.817,2.817,0,0,0,.6,1.93A2.076,2.076,0,0,0,253.335,34.515Zm4.38.14a1.891,1.891,0,0,1,.387-1.289,1.4,1.4,0,0,1,1.111-.438,1.5,1.5,0,0,1,1.149.438,1.813,1.813,0,0,1,.413,1.289,1.781,1.781,0,0,1-.419,1.27,1.666,1.666,0,0,1-2.215.044A1.738,1.738,0,0,1,257.715,34.654ZM8.281,92,3.438,79.344H3.359q.137,1.5.137,3.574V92H1.963V77.723h2.5L8.984,89.5h.078l4.561-11.777H16.1V92h-1.66V82.8q0-1.582.137-3.437H14.5L9.619,92Zm18.076,0-.322-1.523h-.078a4.5,4.5,0,0,1-1.6,1.362,4.867,4.867,0,0,1-1.987.356,3.575,3.575,0,0,1-2.5-.82,2.992,2.992,0,0,1-.9-2.334q0-3.242,5.186-3.4l1.816-.059V84.92a2.714,2.714,0,0,0-.542-1.86,2.229,2.229,0,0,0-1.733-.6,7.063,7.063,0,0,0-3.027.82l-.5-1.24a7.617,7.617,0,0,1,1.733-.674,7.508,7.508,0,0,1,1.89-.244,4.077,4.077,0,0,1,2.837.85,3.546,3.546,0,0,1,.923,2.725V92ZM22.7,90.857a3.29,3.29,0,0,0,2.378-.83,3.071,3.071,0,0,0,.864-2.324v-.967l-1.621.068a5.9,5.9,0,0,0-2.788.6,1.811,1.811,0,0,0-.854,1.655,1.67,1.67,0,0,0,.532,1.338A2.209,2.209,0,0,0,22.7,90.857Zm9.8-4.336a19.064,19.064,0,0,1,1.279-1.562L37.236,81.3H39.16l-4.336,4.561L39.463,92H37.5l-3.779-5.059L32.5,88v4H30.9V76.8h1.6v8.057q0,.537-.078,1.66ZM45.918,92.2a4.918,4.918,0,0,1-3.745-1.445A5.6,5.6,0,0,1,40.8,86.736a6.205,6.205,0,0,1,1.274-4.111A4.233,4.233,0,0,1,45.5,81.1a4.036,4.036,0,0,1,3.184,1.323,5.072,5.072,0,0,1,1.172,3.491v1.025H42.48a4.243,4.243,0,0,0,.952,2.861,3.293,3.293,0,0,0,2.544.977,8.621,8.621,0,0,0,3.418-.723V91.5a8.579,8.579,0,0,1-1.626.532A9.138,9.138,0,0,1,45.918,92.2Zm-.439-9.736a2.647,2.647,0,0,0-2.056.84,3.871,3.871,0,0,0-.9,2.324h5.6a3.564,3.564,0,0,0-.684-2.349A2.406,2.406,0,0,0,45.479,82.459ZM62.09,92.2a4.568,4.568,0,0,1-3.6-1.431,5.883,5.883,0,0,1-1.274-4.048,6.067,6.067,0,0,1,1.294-4.15A4.659,4.659,0,0,1,62.2,81.1a7.315,7.315,0,0,1,1.543.166,5.083,5.083,0,0,1,1.211.391l-.5,1.377a7.622,7.622,0,0,0-1.172-.356,5.232,5.232,0,0,0-1.123-.142q-3.262,0-3.262,4.16a4.954,4.954,0,0,0,.8,3.027,2.769,2.769,0,0,0,2.358,1.055,7.211,7.211,0,0,0,2.744-.576v1.436A5.849,5.849,0,0,1,62.09,92.2Zm6.865-.2H67.334V76.8h1.621Zm5.059,0H72.393V81.3h1.621ZM72.256,78.4a1.077,1.077,0,0,1,.273-.815,1.012,1.012,0,0,1,1.357,0,1.057,1.057,0,0,1,.283.811,1.074,1.074,0,0,1-.283.815.992.992,0,0,1-1.357,0A1.1,1.1,0,0,1,72.256,78.4Zm9.717,13.8a4.917,4.917,0,0,1-3.745-1.445,5.6,5.6,0,0,1-1.372-4.014,6.205,6.205,0,0,1,1.274-4.111A4.233,4.233,0,0,1,81.553,81.1a4.036,4.036,0,0,1,3.184,1.323,5.072,5.072,0,0,1,1.172,3.491v1.025H78.535a4.243,4.243,0,0,0,.952,2.861,3.293,3.293,0,0,0,2.544.977,8.621,8.621,0,0,0,3.418-.723V91.5a8.578,8.578,0,0,1-1.626.532A9.138,9.138,0,0,1,81.973,92.2Zm-.439-9.736a2.647,2.647,0,0,0-2.056.84,3.871,3.871,0,0,0-.9,2.324h5.6a3.564,3.564,0,0,0-.684-2.349A2.406,2.406,0,0,0,81.533,82.459ZM96,92V85.076a2.793,2.793,0,0,0-.6-1.953,2.427,2.427,0,0,0-1.865-.645,3.076,3.076,0,0,0-2.461.908,4.585,4.585,0,0,0-.781,3V92H88.672V81.3H89.99l.264,1.465h.078a3.31,3.31,0,0,1,1.4-1.226,4.537,4.537,0,0,1,2-.435,4.065,4.065,0,0,1,2.91.933,3.969,3.969,0,0,1,.977,2.983V92Zm8.408-1.143a5.3,5.3,0,0,0,.83-.063,5.374,5.374,0,0,0,.635-.132V91.9a2.963,2.963,0,0,1-.776.21,5.831,5.831,0,0,1-.923.083q-3.105,0-3.105-3.271V82.557H99.531v-.781l1.533-.674.684-2.285h.938V81.3h3.105v1.26h-3.105v6.3a2.167,2.167,0,0,0,.459,1.484A1.6,1.6,0,0,0,104.4,90.857Zm18.037-4.219a5.9,5.9,0,0,1-1.318,4.087,4.643,4.643,0,0,1-3.643,1.47,4.824,4.824,0,0,1-2.549-.674,4.447,4.447,0,0,1-1.719-1.934,6.739,6.739,0,0,1-.605-2.949,5.9,5.9,0,0,1,1.309-4.077,4.628,4.628,0,0,1,3.633-1.46,4.528,4.528,0,0,1,3.569,1.494A5.879,5.879,0,0,1,122.441,86.639Zm-8.154,0a5.08,5.08,0,0,0,.82,3.125,3.256,3.256,0,0,0,4.829,0,5.054,5.054,0,0,0,.825-3.13,4.973,4.973,0,0,0-.825-3.1,2.9,2.9,0,0,0-2.437-1.06,2.853,2.853,0,0,0-2.4,1.045A5.029,5.029,0,0,0,114.287,86.639Zm12.52-5.342V88.24a2.793,2.793,0,0,0,.6,1.953,2.427,2.427,0,0,0,1.865.645,3.043,3.043,0,0,0,2.456-.918,4.631,4.631,0,0,0,.776-3V81.3h1.621V92h-1.338l-.234-1.436h-.088a3.231,3.231,0,0,1-1.382,1.211,4.644,4.644,0,0,1-2.017.42,4.091,4.091,0,0,1-2.925-.928,3.949,3.949,0,0,1-.972-2.969v-7Zm14.209,9.561a5.3,5.3,0,0,0,.83-.063,5.374,5.374,0,0,0,.635-.132V91.9a2.963,2.963,0,0,1-.776.21,5.831,5.831,0,0,1-.923.083q-3.105,0-3.105-3.271V82.557h-1.533v-.781l1.533-.674.684-2.285h.938V81.3H142.4v1.26H139.3v6.3a2.167,2.167,0,0,0,.459,1.484A1.6,1.6,0,0,0,141.016,90.857ZM149.5,81.1a6.343,6.343,0,0,1,1.279.117l-.225,1.5a5.522,5.522,0,0,0-1.172-.146,2.853,2.853,0,0,0-2.222,1.055,3.846,3.846,0,0,0-.923,2.627V92h-1.621V81.3h1.338l.186,1.982h.078a4.7,4.7,0,0,1,1.436-1.611A3.232,3.232,0,0,1,149.5,81.1ZM157.3,92.2a4.918,4.918,0,0,1-3.745-1.445,5.6,5.6,0,0,1-1.372-4.014,6.205,6.205,0,0,1,1.274-4.111,4.233,4.233,0,0,1,3.423-1.523,4.036,4.036,0,0,1,3.184,1.323,5.072,5.072,0,0,1,1.172,3.491v1.025h-7.373a4.243,4.243,0,0,0,.952,2.861,3.293,3.293,0,0,0,2.544.977,8.621,8.621,0,0,0,3.418-.723V91.5a8.579,8.579,0,0,1-1.626.532A9.138,9.138,0,0,1,157.3,92.2Zm-.439-9.736a2.647,2.647,0,0,0-2.056.84,3.871,3.871,0,0,0-.9,2.324h5.6a3.564,3.564,0,0,0-.684-2.349A2.406,2.406,0,0,0,156.865,82.459ZM170.586,92l-.322-1.523h-.078a4.5,4.5,0,0,1-1.6,1.362,4.867,4.867,0,0,1-1.987.356,3.575,3.575,0,0,1-2.5-.82,2.992,2.992,0,0,1-.9-2.334q0-3.242,5.186-3.4l1.816-.059V84.92a2.714,2.714,0,0,0-.542-1.86,2.229,2.229,0,0,0-1.733-.6,7.063,7.063,0,0,0-3.027.82l-.5-1.24a7.617,7.617,0,0,1,1.733-.674,7.508,7.508,0,0,1,1.89-.244,4.077,4.077,0,0,1,2.837.85,3.546,3.546,0,0,1,.923,2.725V92Zm-3.662-1.143a3.29,3.29,0,0,0,2.378-.83,3.071,3.071,0,0,0,.864-2.324v-.967l-1.621.068a5.9,5.9,0,0,0-2.788.6,1.811,1.811,0,0,0-.854,1.655,1.67,1.67,0,0,0,.532,1.338A2.209,2.209,0,0,0,166.924,90.857ZM179.4,92.2a4.568,4.568,0,0,1-3.6-1.431,5.883,5.883,0,0,1-1.274-4.048,6.067,6.067,0,0,1,1.294-4.15,4.659,4.659,0,0,1,3.687-1.465,7.315,7.315,0,0,1,1.543.166,5.083,5.083,0,0,1,1.211.391l-.5,1.377a7.623,7.623,0,0,0-1.172-.356,5.232,5.232,0,0,0-1.123-.142q-3.262,0-3.262,4.16a4.954,4.954,0,0,0,.8,3.027,2.769,2.769,0,0,0,2.358,1.055,7.211,7.211,0,0,0,2.744-.576v1.436A5.849,5.849,0,0,1,179.4,92.2Zm12.568-.2V85.076a2.793,2.793,0,0,0-.6-1.953,2.427,2.427,0,0,0-1.865-.645,3.056,3.056,0,0,0-2.466.918,4.649,4.649,0,0,0-.776,3.008V92h-1.621V76.8h1.621v4.6a10.023,10.023,0,0,1-.078,1.377h.1a3.306,3.306,0,0,1,1.362-1.216,4.429,4.429,0,0,1,2.017-.444,4.13,4.13,0,0,1,2.944.933,3.928,3.928,0,0,1,.981,2.964V92Zm14.668.2A4.918,4.918,0,0,1,202.9,90.75a5.6,5.6,0,0,1-1.372-4.014,6.205,6.205,0,0,1,1.274-4.111,4.233,4.233,0,0,1,3.423-1.523,4.036,4.036,0,0,1,3.184,1.323,5.072,5.072,0,0,1,1.172,3.491v1.025H203.2a4.243,4.243,0,0,0,.952,2.861,3.293,3.293,0,0,0,2.544.977,8.621,8.621,0,0,0,3.418-.723V91.5a8.579,8.579,0,0,1-1.626.532A9.138,9.138,0,0,1,206.641,92.2Zm-.439-9.736a2.647,2.647,0,0,0-2.056.84,3.871,3.871,0,0,0-.9,2.324h5.6a3.564,3.564,0,0,0-.684-2.349A2.406,2.406,0,0,0,206.2,82.459ZM219.922,92l-.322-1.523h-.078a4.5,4.5,0,0,1-1.6,1.362,4.867,4.867,0,0,1-1.987.356,3.575,3.575,0,0,1-2.5-.82,2.992,2.992,0,0,1-.9-2.334q0-3.242,5.186-3.4l1.816-.059V84.92A2.714,2.714,0,0,0,219,83.06a2.229,2.229,0,0,0-1.733-.6,7.063,7.063,0,0,0-3.027.82l-.5-1.24a7.617,7.617,0,0,1,1.733-.674,7.508,7.508,0,0,1,1.89-.244,4.077,4.077,0,0,1,2.837.85,3.546,3.546,0,0,1,.923,2.725V92Zm-3.662-1.143a3.29,3.29,0,0,0,2.378-.83A3.071,3.071,0,0,0,219.5,87.7v-.967l-1.621.068a5.9,5.9,0,0,0-2.788.6,1.811,1.811,0,0,0-.854,1.655,1.67,1.67,0,0,0,.532,1.338A2.209,2.209,0,0,0,216.26,90.857Zm15.107-1.777a2.681,2.681,0,0,1-1.113,2.3,5.233,5.233,0,0,1-3.125.811,6.8,6.8,0,0,1-3.32-.674v-1.5a8.03,8.03,0,0,0,1.655.615,6.912,6.912,0,0,0,1.7.225,3.865,3.865,0,0,0,1.953-.405,1.4,1.4,0,0,0,.142-2.3,8.526,8.526,0,0,0-2.114-1.05,11.465,11.465,0,0,1-2.124-.972,2.9,2.9,0,0,1-.937-.942,2.458,2.458,0,0,1-.308-1.26,2.4,2.4,0,0,1,1.064-2.065,4.96,4.96,0,0,1,2.92-.757,8.544,8.544,0,0,1,3.379.7l-.576,1.318a7.756,7.756,0,0,0-2.92-.664,3.359,3.359,0,0,0-1.738.361,1.117,1.117,0,0,0-.586,1,1.213,1.213,0,0,0,.22.732,2.168,2.168,0,0,0,.708.576,15.822,15.822,0,0,0,1.875.791,7,7,0,0,1,2.573,1.4A2.463,2.463,0,0,1,231.367,89.08ZM232.3,81.3h1.738l2.344,6.1a23.215,23.215,0,0,1,.957,3.018h.078q.127-.5.532-1.7t2.651-7.417h1.738l-4.6,12.188a6.08,6.08,0,0,1-1.6,2.563,3.4,3.4,0,0,1-2.241.757,6.521,6.521,0,0,1-1.465-.166v-1.3a5.651,5.651,0,0,0,1.2.117,2.476,2.476,0,0,0,2.383-1.875l.6-1.523Zm21.953-.176a3.979,3.979,0,0,1,3.276,1.44,7.713,7.713,0,0,1-.01,8.174,3.963,3.963,0,0,1-3.267,1.46,4.632,4.632,0,0,1-1.909-.386,3.59,3.59,0,0,1-1.45-1.187h-.117L250.439,92h-1.162V76.8H250.9V80.5q0,1.24-.078,2.227h.078A3.848,3.848,0,0,1,254.258,81.121Zm-.234,1.357a2.83,2.83,0,0,0-2.393.952,5.371,5.371,0,0,0-.732,3.208,5.356,5.356,0,0,0,.752,3.228,2.86,2.86,0,0,0,2.412.972,2.5,2.5,0,0,0,2.227-1.089,5.6,5.6,0,0,0,.732-3.13,5.378,5.378,0,0,0-.732-3.115A2.6,2.6,0,0,0,254.023,82.479Zm5.811-1.182h1.738l2.344,6.1a23.215,23.215,0,0,1,.957,3.018h.078q.127-.5.532-1.7t2.651-7.417h1.738l-4.6,12.188a6.08,6.08,0,0,1-1.6,2.563,3.4,3.4,0,0,1-2.241.757,6.522,6.522,0,0,1-1.465-.166v-1.3a5.65,5.65,0,0,0,1.2.117,2.476,2.476,0,0,0,2.383-1.875l.6-1.523Zm23.877,7.783a2.681,2.681,0,0,1-1.113,2.3,5.233,5.233,0,0,1-3.125.811,6.8,6.8,0,0,1-3.32-.674v-1.5a8.029,8.029,0,0,0,1.655.615,6.912,6.912,0,0,0,1.7.225,3.865,3.865,0,0,0,1.953-.405,1.4,1.4,0,0,0,.142-2.3,8.525,8.525,0,0,0-2.114-1.05,11.465,11.465,0,0,1-2.124-.972,2.9,2.9,0,0,1-.937-.942,2.458,2.458,0,0,1-.308-1.26,2.4,2.4,0,0,1,1.064-2.065,4.96,4.96,0,0,1,2.92-.757,8.543,8.543,0,0,1,3.379.7l-.576,1.318a7.756,7.756,0,0,0-2.92-.664,3.359,3.359,0,0,0-1.738.361,1.117,1.117,0,0,0-.586,1,1.213,1.213,0,0,0,.22.732,2.168,2.168,0,0,0,.708.576,15.825,15.825,0,0,0,1.875.791,7,7,0,0,1,2.573,1.4A2.463,2.463,0,0,1,283.711,89.08Zm7.158,3.115a4.917,4.917,0,0,1-3.745-1.445,5.6,5.6,0,0,1-1.372-4.014,6.205,6.205,0,0,1,1.274-4.111,4.233,4.233,0,0,1,3.423-1.523,4.036,4.036,0,0,1,3.184,1.323,5.072,5.072,0,0,1,1.172,3.491v1.025h-7.373a4.243,4.243,0,0,0,.952,2.861,3.293,3.293,0,0,0,2.544.977,8.621,8.621,0,0,0,3.418-.723V91.5a8.578,8.578,0,0,1-1.626.532A9.138,9.138,0,0,1,290.869,92.2Zm-.439-9.736a2.647,2.647,0,0,0-2.056.84,3.871,3.871,0,0,0-.9,2.324h5.6a3.564,3.564,0,0,0-.684-2.349A2.406,2.406,0,0,0,290.43,82.459Zm10.6,8.4a5.3,5.3,0,0,0,.83-.063,5.374,5.374,0,0,0,.635-.132V91.9a2.963,2.963,0,0,1-.776.21,5.831,5.831,0,0,1-.923.083q-3.105,0-3.105-3.271V82.557h-1.533v-.781l1.533-.674.684-2.285h.938V81.3h3.105v1.26h-3.105v6.3a2.167,2.167,0,0,0,.459,1.484A1.6,1.6,0,0,0,301.025,90.857Zm7.061,0a5.3,5.3,0,0,0,.83-.063,5.374,5.374,0,0,0,.635-.132V91.9a2.963,2.963,0,0,1-.776.21,5.831,5.831,0,0,1-.923.083q-3.105,0-3.105-3.271V82.557h-1.533v-.781l1.533-.674.684-2.285h.938V81.3h3.105v1.26h-3.105v6.3a2.167,2.167,0,0,0,.459,1.484A1.6,1.6,0,0,0,308.086,90.857ZM313.311,92h-1.621V81.3h1.621Zm-1.758-13.6a1.077,1.077,0,0,1,.273-.815,1.012,1.012,0,0,1,1.357,0,1.057,1.057,0,0,1,.283.811,1.074,1.074,0,0,1-.283.815.992.992,0,0,1-1.357,0A1.1,1.1,0,0,1,311.553,78.4ZM324.072,92V85.076a2.794,2.794,0,0,0-.6-1.953,2.427,2.427,0,0,0-1.865-.645,3.076,3.076,0,0,0-2.461.908,4.585,4.585,0,0,0-.781,3V92h-1.621V81.3h1.318l.264,1.465h.078a3.31,3.31,0,0,1,1.4-1.226,4.537,4.537,0,0,1,2-.435,4.065,4.065,0,0,1,2.91.933,3.969,3.969,0,0,1,.977,2.983V92Zm13.711-10.7v1.025l-1.982.234a3.481,3.481,0,0,1,.7,2.139,3.164,3.164,0,0,1-1.074,2.51,4.333,4.333,0,0,1-2.949.938,4.911,4.911,0,0,1-.9-.078,1.6,1.6,0,0,0-1.035,1.377.7.7,0,0,0,.361.649,2.639,2.639,0,0,0,1.24.21h1.895a4.242,4.242,0,0,1,2.671.732,2.545,2.545,0,0,1,.933,2.129,3.039,3.039,0,0,1-1.426,2.71,7.631,7.631,0,0,1-4.16.933,5.684,5.684,0,0,1-3.237-.781,2.522,2.522,0,0,1-1.138-2.207,2.479,2.479,0,0,1,.625-1.689,3.182,3.182,0,0,1,1.758-.967,1.7,1.7,0,0,1-.688-.576,1.525,1.525,0,0,1-.278-.908,1.724,1.724,0,0,1,.313-1.025,3.286,3.286,0,0,1,.986-.85,2.891,2.891,0,0,1-1.353-1.162,3.415,3.415,0,0,1-.522-1.875,3.463,3.463,0,0,1,1.055-2.71,4.306,4.306,0,0,1,2.988-.952,5.434,5.434,0,0,1,1.514.2Zm-8.535,12.5a1.453,1.453,0,0,0,.732,1.318,4.042,4.042,0,0,0,2.1.449,5.859,5.859,0,0,0,3.022-.61,1.869,1.869,0,0,0,.981-1.655,1.31,1.31,0,0,0-.537-1.206,4.172,4.172,0,0,0-2.021-.337h-1.943a2.56,2.56,0,0,0-1.719.527A1.884,1.884,0,0,0,329.248,93.8Zm.879-9.072a2.179,2.179,0,0,0,.635,1.7,2.535,2.535,0,0,0,1.768.576,2.068,2.068,0,0,0,2.373-2.3,2.128,2.128,0,0,0-2.4-2.412,2.378,2.378,0,0,0-1.758.615A2.478,2.478,0,0,0,330.127,84.725ZM346.7,81.3V88.24a2.794,2.794,0,0,0,.6,1.953,2.427,2.427,0,0,0,1.865.645,3.043,3.043,0,0,0,2.456-.918,4.631,4.631,0,0,0,.776-3V81.3h1.621V92h-1.338l-.234-1.436h-.088a3.231,3.231,0,0,1-1.382,1.211,4.644,4.644,0,0,1-2.017.42,4.091,4.091,0,0,1-2.925-.928,3.949,3.949,0,0,1-.972-2.969v-7Zm15.732,10.9a4.632,4.632,0,0,1-1.909-.386,3.59,3.59,0,0,1-1.45-1.187h-.117a14.356,14.356,0,0,1,.117,1.777v4.4h-1.621V81.3h1.318l.225,1.465h.078a3.765,3.765,0,0,1,1.455-1.27,4.423,4.423,0,0,1,1.9-.391,3.956,3.956,0,0,1,3.286,1.455,7.749,7.749,0,0,1-.02,8.179A3.963,3.963,0,0,1,362.432,92.2Zm-.234-9.717a2.873,2.873,0,0,0-2.373.908,4.673,4.673,0,0,0-.752,2.891v.361a5.356,5.356,0,0,0,.752,3.228,2.86,2.86,0,0,0,2.412.972,2.508,2.508,0,0,0,2.173-1.123,5.325,5.325,0,0,0,.786-3.1,5.126,5.126,0,0,0-.786-3.071A2.586,2.586,0,0,0,362.2,82.479ZM8.3,119l-.322-1.523H7.9a4.5,4.5,0,0,1-1.6,1.362,4.867,4.867,0,0,1-1.987.356,3.575,3.575,0,0,1-2.5-.82,2.992,2.992,0,0,1-.9-2.334q0-3.242,5.186-3.4l1.816-.059v-.664a2.714,2.714,0,0,0-.542-1.86,2.229,2.229,0,0,0-1.733-.6,7.063,7.063,0,0,0-3.027.82l-.5-1.24a7.617,7.617,0,0,1,1.733-.674,7.508,7.508,0,0,1,1.89-.244,4.077,4.077,0,0,1,2.837.85A3.546,3.546,0,0,1,9.5,111.7V119Zm-3.662-1.143a3.29,3.29,0,0,0,2.378-.83,3.071,3.071,0,0,0,.864-2.324v-.967L6.26,113.8a5.9,5.9,0,0,0-2.788.6,1.811,1.811,0,0,0-.854,1.655,1.67,1.67,0,0,0,.532,1.338A2.209,2.209,0,0,0,4.639,117.857ZM22.314,119.2a4.568,4.568,0,0,1-3.6-1.431,5.883,5.883,0,0,1-1.274-4.048,6.067,6.067,0,0,1,1.294-4.15,4.659,4.659,0,0,1,3.687-1.465,7.315,7.315,0,0,1,1.543.166,5.083,5.083,0,0,1,1.211.391l-.5,1.377a7.622,7.622,0,0,0-1.172-.356,5.232,5.232,0,0,0-1.123-.142q-3.262,0-3.262,4.16a4.954,4.954,0,0,0,.8,3.027,2.769,2.769,0,0,0,2.358,1.055,7.211,7.211,0,0,0,2.744-.576v1.436A5.849,5.849,0,0,1,22.314,119.2Zm11.826-.2-.322-1.523H33.74a4.5,4.5,0,0,1-1.6,1.362,4.867,4.867,0,0,1-1.987.356,3.575,3.575,0,0,1-2.5-.82,2.992,2.992,0,0,1-.9-2.334q0-3.242,5.186-3.4l1.816-.059v-.664a2.714,2.714,0,0,0-.542-1.86,2.229,2.229,0,0,0-1.733-.6,7.063,7.063,0,0,0-3.027.82l-.5-1.24a7.617,7.617,0,0,1,1.733-.674,7.508,7.508,0,0,1,1.89-.244,4.077,4.077,0,0,1,2.837.85,3.546,3.546,0,0,1,.923,2.725V119Zm-3.662-1.143a3.29,3.29,0,0,0,2.378-.83,3.071,3.071,0,0,0,.864-2.324v-.967L32.1,113.8a5.9,5.9,0,0,0-2.788.6,1.811,1.811,0,0,0-.854,1.655,1.67,1.67,0,0,0,.532,1.338A2.209,2.209,0,0,0,30.479,117.857ZM52.324,119v-6.963a2.89,2.89,0,0,0-.547-1.919,2.115,2.115,0,0,0-1.7-.64,2.743,2.743,0,0,0-2.236.869,4.131,4.131,0,0,0-.723,2.676V119H45.5v-6.963a2.89,2.89,0,0,0-.547-1.919,2.128,2.128,0,0,0-1.709-.64,2.647,2.647,0,0,0-2.231.913,4.942,4.942,0,0,0-.708,2.993V119H38.682V108.3H40l.264,1.465h.078a3.186,3.186,0,0,1,1.294-1.221,3.953,3.953,0,0,1,1.87-.439q2.51,0,3.281,1.816h.078a3.413,3.413,0,0,1,1.387-1.328,4.3,4.3,0,0,1,2.07-.488,3.624,3.624,0,0,1,2.72.933,4.172,4.172,0,0,1,.9,2.983V119Zm9.941.2a4.632,4.632,0,0,1-1.909-.386,3.59,3.59,0,0,1-1.45-1.187h-.117a14.356,14.356,0,0,1,.117,1.777v4.4H57.285V108.3H58.6l.225,1.465h.078a3.765,3.765,0,0,1,1.455-1.27,4.423,4.423,0,0,1,1.9-.391,3.956,3.956,0,0,1,3.286,1.455,7.749,7.749,0,0,1-.02,8.179A3.963,3.963,0,0,1,62.266,119.2Zm-.234-9.717a2.873,2.873,0,0,0-2.373.908,4.673,4.673,0,0,0-.752,2.891v.361a5.356,5.356,0,0,0,.752,3.228,2.86,2.86,0,0,0,2.412.972,2.508,2.508,0,0,0,2.173-1.123,5.325,5.325,0,0,0,.786-3.1,5.126,5.126,0,0,0-.786-3.071A2.586,2.586,0,0,0,62.031,109.479ZM76.123,119l-.322-1.523h-.078a4.5,4.5,0,0,1-1.6,1.362,4.867,4.867,0,0,1-1.987.356,3.575,3.575,0,0,1-2.5-.82,2.992,2.992,0,0,1-.9-2.334q0-3.242,5.186-3.4l1.816-.059v-.664a2.714,2.714,0,0,0-.542-1.86,2.229,2.229,0,0,0-1.733-.6,7.063,7.063,0,0,0-3.027.82l-.5-1.24a7.617,7.617,0,0,1,1.733-.674,7.508,7.508,0,0,1,1.89-.244,4.077,4.077,0,0,1,2.837.85,3.546,3.546,0,0,1,.923,2.725V119Zm-3.662-1.143a3.29,3.29,0,0,0,2.378-.83A3.071,3.071,0,0,0,75.7,114.7v-.967l-1.621.068a5.9,5.9,0,0,0-2.788.6,1.811,1.811,0,0,0-.854,1.655,1.67,1.67,0,0,0,.532,1.338A2.209,2.209,0,0,0,72.461,117.857ZM82.285,119H80.664V108.3h1.621Zm-1.758-13.6a1.077,1.077,0,0,1,.273-.815,1.012,1.012,0,0,1,1.357,0,1.057,1.057,0,0,1,.283.811,1.074,1.074,0,0,1-.283.815.992.992,0,0,1-1.357,0A1.1,1.1,0,0,1,80.527,105.4Zm13.955,2.9v1.025l-1.982.234a3.481,3.481,0,0,1,.7,2.139,3.164,3.164,0,0,1-1.074,2.51,4.333,4.333,0,0,1-2.949.938,4.911,4.911,0,0,1-.9-.078,1.6,1.6,0,0,0-1.035,1.377.7.7,0,0,0,.361.649,2.639,2.639,0,0,0,1.24.21h1.895a4.242,4.242,0,0,1,2.671.732,2.545,2.545,0,0,1,.933,2.129,3.039,3.039,0,0,1-1.426,2.71,7.631,7.631,0,0,1-4.16.933,5.684,5.684,0,0,1-3.237-.781,2.522,2.522,0,0,1-1.138-2.207,2.479,2.479,0,0,1,.625-1.689,3.182,3.182,0,0,1,1.758-.967,1.7,1.7,0,0,1-.688-.576,1.525,1.525,0,0,1-.278-.908,1.724,1.724,0,0,1,.313-1.025,3.286,3.286,0,0,1,.986-.85,2.891,2.891,0,0,1-1.353-1.162,3.415,3.415,0,0,1-.522-1.875,3.463,3.463,0,0,1,1.055-2.71,4.306,4.306,0,0,1,2.988-.952,5.434,5.434,0,0,1,1.514.2Zm-8.535,12.5a1.453,1.453,0,0,0,.732,1.318,4.042,4.042,0,0,0,2.1.449,5.859,5.859,0,0,0,3.022-.61,1.869,1.869,0,0,0,.981-1.655,1.31,1.31,0,0,0-.537-1.206,4.172,4.172,0,0,0-2.021-.337H88.281a2.56,2.56,0,0,0-1.719.527A1.884,1.884,0,0,0,85.947,120.8Zm.879-9.072a2.179,2.179,0,0,0,.635,1.7,2.535,2.535,0,0,0,1.768.576,2.068,2.068,0,0,0,2.373-2.3,2.128,2.128,0,0,0-2.4-2.412,2.378,2.378,0,0,0-1.758.615A2.478,2.478,0,0,0,86.826,111.725ZM104,119v-6.924a2.793,2.793,0,0,0-.6-1.953,2.427,2.427,0,0,0-1.865-.645,3.076,3.076,0,0,0-2.461.908,4.585,4.585,0,0,0-.781,3V119H96.68V108.3H98l.264,1.465h.078a3.31,3.31,0,0,1,1.4-1.226,4.537,4.537,0,0,1,2-.435,4.065,4.065,0,0,1,2.91.933,3.969,3.969,0,0,1,.977,2.983V119Zm4.717-1.035a1.455,1.455,0,0,1,.3-.991,1.08,1.08,0,0,1,.854-.337,1.155,1.155,0,0,1,.884.337,1.4,1.4,0,0,1,.317.991,1.37,1.37,0,0,1-.322.977,1.281,1.281,0,0,1-1.7.034A1.337,1.337,0,0,1,108.721,117.965Z" transform="translate(2249 1421)"/>
    <g id="Group_19" data-name="Group 19" transform="translate(2276.8 1257)">
      <circle id="Ellipse_1" data-name="Ellipse 1" class="cls-5" cx="20" cy="20" r="20" transform="translate(166.2 10)"/>
      <g id="Group_4" data-name="Group 4" transform="translate(176.635 22.077)">
        <path id="Path_3" data-name="Path 3" class="cls-6" d="M2.946,11.978,10.746,0H1.309L.545,1.579H7.8L0,13.557H10.746l.709-1.579Z"/>
        <path id="Path_4" data-name="Path 4" class="cls-6" d="M27.491,0H24l3.928,8.711L24,17.423h3.491l3.982-8.711Z" transform="translate(-10.908)"/>
      </g>
    </g>
    <g id="Group_20" data-name="Group 20" transform="translate(2199 1264.5)">
      <line id="Line_1" data-name="Line 1" class="cls-7" x2="20.154" transform="translate(9.5 15.5)"/>
      <line id="Line_2" data-name="Line 2" class="cls-7" x2="20.154" transform="translate(9.5 22.925)"/>
      <line id="Line_3" data-name="Line 3" class="cls-7" x2="20.154" transform="translate(9.5 30.35)"/>
    </g>
    <path id="Path_7" data-name="Path 7" class="cls-8" d="M77,0H229a24,24,0,0,1,0,48H77A24,24,0,0,1,77,0Z" transform="translate(2196 1582)"/>
    <path id="Path_43" data-name="Path 43" class="cls-9" d="M8.016-3.039A2.8,2.8,0,0,1,6.922-.687,4.743,4.743,0,0,1,3.953.156,7.436,7.436,0,0,1,.828-.367V-1.648a8.227,8.227,0,0,0,1.531.469A8.056,8.056,0,0,0,4-1.008a3.31,3.31,0,0,0,2-.5,1.654,1.654,0,0,0,.672-1.4,1.8,1.8,0,0,0-.238-.973,2.214,2.214,0,0,0-.8-.7,11.148,11.148,0,0,0-1.7-.727A5.424,5.424,0,0,1,1.66-6.664,2.984,2.984,0,0,1,.977-8.7a2.536,2.536,0,0,1,.992-2.1,4.123,4.123,0,0,1,2.625-.781,7.736,7.736,0,0,1,3.133.625L7.313-9.8a7.08,7.08,0,0,0-2.75-.594,2.661,2.661,0,0,0-1.648.453A1.493,1.493,0,0,0,2.32-8.687a1.928,1.928,0,0,0,.219.973,2.06,2.06,0,0,0,.738.7,9.173,9.173,0,0,0,1.59.7A6.294,6.294,0,0,1,7.34-4.945,2.7,2.7,0,0,1,8.016-3.039Zm5.758,3.2a3.934,3.934,0,0,1-3-1.156,4.476,4.476,0,0,1-1.1-3.211A4.964,4.964,0,0,1,10.7-7.5a3.387,3.387,0,0,1,2.738-1.219A3.229,3.229,0,0,1,15.984-7.66a4.057,4.057,0,0,1,.938,2.793v.82h-5.9a3.394,3.394,0,0,0,.762,2.289,2.634,2.634,0,0,0,2.035.781,6.9,6.9,0,0,0,2.734-.578V-.4a6.863,6.863,0,0,1-1.3.426A7.31,7.31,0,0,1,13.773.156Zm-.352-7.789a2.118,2.118,0,0,0-1.645.672A3.1,3.1,0,0,0,11.055-5.1h4.477a2.851,2.851,0,0,0-.547-1.879A1.925,1.925,0,0,0,13.422-7.633ZM21.9-.914a4.236,4.236,0,0,0,.664-.051,4.3,4.3,0,0,0,.508-.105v.992a2.371,2.371,0,0,1-.621.168,4.664,4.664,0,0,1-.738.066q-2.484,0-2.484-2.617V-7.555H18V-8.18l1.227-.539.547-1.828h.75v1.984h2.484v1.008H20.523v5.039a1.734,1.734,0,0,0,.367,1.188A1.278,1.278,0,0,0,21.9-.914Zm8.258-7.648v5.555a2.235,2.235,0,0,0,.477,1.563,1.941,1.941,0,0,0,1.492.516,2.435,2.435,0,0,0,1.965-.734,3.7,3.7,0,0,0,.621-2.4v-4.5h1.3V0h-1.07L34.75-1.148h-.07a2.585,2.585,0,0,1-1.105.969,3.716,3.716,0,0,1-1.613.336,3.273,3.273,0,0,1-2.34-.742,3.159,3.159,0,0,1-.777-2.375v-5.6ZM42.742.156a3.706,3.706,0,0,1-1.527-.309,2.872,2.872,0,0,1-1.16-.949h-.094A11.485,11.485,0,0,1,40.055.32V3.844h-1.3V-8.562h1.055l.18,1.172h.063a3.012,3.012,0,0,1,1.164-1.016,3.539,3.539,0,0,1,1.523-.312,3.165,3.165,0,0,1,2.629,1.164A5.125,5.125,0,0,1,46.3-4.289a5.1,5.1,0,0,1-.941,3.277A3.17,3.17,0,0,1,42.742.156Zm-.187-7.773a2.3,2.3,0,0,0-1.9.727,3.739,3.739,0,0,0-.6,2.313v.289a4.285,4.285,0,0,0,.6,2.582,2.288,2.288,0,0,0,1.93.777,2.007,2.007,0,0,0,1.738-.9A4.26,4.26,0,0,0,44.953-4.3a4.1,4.1,0,0,0-.629-2.457A2.069,2.069,0,0,0,42.555-7.617ZM57.984,0l-.258-1.219h-.062a3.6,3.6,0,0,1-1.277,1.09A3.893,3.893,0,0,1,54.8.156a2.86,2.86,0,0,1-2-.656,2.394,2.394,0,0,1-.723-1.867q0-2.594,4.148-2.719l1.453-.047v-.531a2.171,2.171,0,0,0-.434-1.488,1.783,1.783,0,0,0-1.387-.48,5.65,5.65,0,0,0-2.422.656l-.4-.992a6.094,6.094,0,0,1,1.387-.539,6.006,6.006,0,0,1,1.512-.2,3.262,3.262,0,0,1,2.27.68,2.837,2.837,0,0,1,.738,2.18V0Zm-2.93-.914a2.632,2.632,0,0,0,1.9-.664,2.457,2.457,0,0,0,.691-1.859v-.773l-1.3.055a4.717,4.717,0,0,0-2.23.48,1.449,1.449,0,0,0-.684,1.324,1.336,1.336,0,0,0,.426,1.07A1.767,1.767,0,0,0,55.055-.914ZM69.2.156A3.654,3.654,0,0,1,66.316-.988,4.707,4.707,0,0,1,65.3-4.227a4.853,4.853,0,0,1,1.035-3.32,3.727,3.727,0,0,1,2.949-1.172,5.852,5.852,0,0,1,1.234.133,4.066,4.066,0,0,1,.969.313l-.4,1.1a6.1,6.1,0,0,0-.937-.285,4.186,4.186,0,0,0-.9-.113q-2.609,0-2.609,3.328a3.963,3.963,0,0,0,.637,2.422,2.215,2.215,0,0,0,1.887.844,5.769,5.769,0,0,0,2.2-.461V-.289A4.679,4.679,0,0,1,69.2.156ZM78.656,0,78.4-1.219h-.062a3.6,3.6,0,0,1-1.277,1.09,3.893,3.893,0,0,1-1.59.285,2.86,2.86,0,0,1-2-.656,2.394,2.394,0,0,1-.723-1.867q0-2.594,4.148-2.719l1.453-.047v-.531a2.171,2.171,0,0,0-.434-1.488,1.783,1.783,0,0,0-1.387-.48,5.65,5.65,0,0,0-2.422.656l-.4-.992A6.094,6.094,0,0,1,75.1-8.508a6.006,6.006,0,0,1,1.512-.2,3.262,3.262,0,0,1,2.27.68,2.837,2.837,0,0,1,.738,2.18V0Zm-2.93-.914a2.632,2.632,0,0,0,1.9-.664,2.457,2.457,0,0,0,.691-1.859v-.773l-1.3.055a4.717,4.717,0,0,0-2.23.48,1.449,1.449,0,0,0-.684,1.324,1.336,1.336,0,0,0,.426,1.07A1.767,1.767,0,0,0,75.727-.914ZM93.2,0V-5.57a2.312,2.312,0,0,0-.437-1.535,1.692,1.692,0,0,0-1.359-.512,2.195,2.195,0,0,0-1.789.7,3.3,3.3,0,0,0-.578,2.141V0h-1.3V-5.57A2.312,2.312,0,0,0,87.3-7.105a1.7,1.7,0,0,0-1.367-.512,2.118,2.118,0,0,0-1.785.73,3.953,3.953,0,0,0-.566,2.395V0h-1.3V-8.562h1.055l.211,1.172h.063a2.549,2.549,0,0,1,1.035-.977,3.162,3.162,0,0,1,1.5-.352,2.544,2.544,0,0,1,2.625,1.453h.063a2.73,2.73,0,0,1,1.109-1.062A3.442,3.442,0,0,1,91.6-8.719a2.9,2.9,0,0,1,2.176.746A3.338,3.338,0,0,1,94.5-5.586V0Zm7.953.156a3.706,3.706,0,0,1-1.527-.309,2.872,2.872,0,0,1-1.16-.949h-.094A11.485,11.485,0,0,1,98.469.32V3.844h-1.3V-8.562h1.055l.18,1.172h.063a3.012,3.012,0,0,1,1.164-1.016,3.539,3.539,0,0,1,1.523-.312,3.165,3.165,0,0,1,2.629,1.164,5.125,5.125,0,0,1,.926,3.266,5.1,5.1,0,0,1-.941,3.277A3.17,3.17,0,0,1,101.156.156Zm-.187-7.773a2.3,2.3,0,0,0-1.9.727,3.739,3.739,0,0,0-.6,2.313v.289a4.285,4.285,0,0,0,.6,2.582A2.288,2.288,0,0,0,101-.93a2.007,2.007,0,0,0,1.738-.9,4.26,4.26,0,0,0,.629-2.477,4.1,4.1,0,0,0-.629-2.457A2.069,2.069,0,0,0,100.969-7.617ZM112.242,0l-.258-1.219h-.062a3.6,3.6,0,0,1-1.277,1.09,3.893,3.893,0,0,1-1.59.285,2.86,2.86,0,0,1-2-.656,2.394,2.394,0,0,1-.723-1.867q0-2.594,4.148-2.719l1.453-.047v-.531a2.171,2.171,0,0,0-.434-1.488,1.783,1.783,0,0,0-1.387-.48,5.65,5.65,0,0,0-2.422.656l-.4-.992a6.094,6.094,0,0,1,1.387-.539,6.006,6.006,0,0,1,1.512-.2,3.262,3.262,0,0,1,2.27.68,2.837,2.837,0,0,1,.738,2.18V0Zm-2.93-.914a2.632,2.632,0,0,0,1.9-.664,2.457,2.457,0,0,0,.691-1.859v-.773l-1.3.055a4.717,4.717,0,0,0-2.23.48,1.449,1.449,0,0,0-.684,1.324,1.336,1.336,0,0,0,.426,1.07A1.767,1.767,0,0,0,109.313-.914ZM117.172,0h-1.3V-8.562h1.3Zm-1.406-10.883a.861.861,0,0,1,.219-.652.764.764,0,0,1,.547-.207.764.764,0,0,1,.539.211.846.846,0,0,1,.227.648.859.859,0,0,1-.227.652.757.757,0,0,1-.539.215.749.749,0,0,1-.547-.215A.877.877,0,0,1,115.766-10.883Zm11.164,2.32v.82l-1.586.188a2.726,2.726,0,0,1,.391.715,2.727,2.727,0,0,1,.172,1,2.531,2.531,0,0,1-.859,2.008,3.467,3.467,0,0,1-2.359.75,3.929,3.929,0,0,1-.719-.062,1.276,1.276,0,0,0-.828,1.1.56.56,0,0,0,.289.52,2.112,2.112,0,0,0,.992.168h1.516a3.394,3.394,0,0,1,2.137.586,2.036,2.036,0,0,1,.746,1.7A2.431,2.431,0,0,1,125.68,3.1a6.1,6.1,0,0,1-3.328.746,4.547,4.547,0,0,1-2.59-.625,2.018,2.018,0,0,1-.91-1.766,1.983,1.983,0,0,1,.5-1.352,2.546,2.546,0,0,1,1.406-.773,1.357,1.357,0,0,1-.551-.461,1.22,1.22,0,0,1-.223-.727,1.379,1.379,0,0,1,.25-.82,2.628,2.628,0,0,1,.789-.68,2.313,2.313,0,0,1-1.082-.93,2.732,2.732,0,0,1-.418-1.5,2.771,2.771,0,0,1,.844-2.168,3.445,3.445,0,0,1,2.391-.762,4.347,4.347,0,0,1,1.211.156Zm-6.828,10a1.162,1.162,0,0,0,.586,1.055,3.234,3.234,0,0,0,1.68.359,4.687,4.687,0,0,0,2.418-.488,1.5,1.5,0,0,0,.785-1.324,1.048,1.048,0,0,0-.43-.965,3.337,3.337,0,0,0-1.617-.27h-1.555a2.048,2.048,0,0,0-1.375.422A1.507,1.507,0,0,0,120.1,1.438Zm.7-7.258a1.743,1.743,0,0,0,.508,1.359A2.028,2.028,0,0,0,122.727-4a1.654,1.654,0,0,0,1.9-1.844,1.7,1.7,0,0,0-1.922-1.93,1.9,1.9,0,0,0-1.406.492A1.982,1.982,0,0,0,120.8-5.82ZM134.547,0V-5.539A2.235,2.235,0,0,0,134.07-7.1a1.941,1.941,0,0,0-1.492-.516,2.461,2.461,0,0,0-1.969.727,3.668,3.668,0,0,0-.625,2.4V0h-1.3V-8.562h1.055l.211,1.172h.063a2.648,2.648,0,0,1,1.117-.98,3.63,3.63,0,0,1,1.6-.348,3.252,3.252,0,0,1,2.328.746,3.175,3.175,0,0,1,.781,2.387V0Z" transform="translate(2280 1612)"/>
  </g>
</svg>
