<svg xmlns="http://www.w3.org/2000/svg" xmlns:xlink="http://www.w3.org/1999/xlink" viewBox="2181 23 564 384">
  <defs>
    <style>
      .cls-1 {
        clip-path: url(#clip-general-instruction_do_1);
      }

      .cls-2 {
        fill: #f4f4f4;
      }

      .cls-3 {
        fill: #5b5b5b;
        stroke: rgba(0,0,0,0);
      }

      .cls-4 {
        fill: #3d3d3d;
      }

      .cls-5 {
        fill: #242424;
      }

      .cls-6 {
        fill: #fff;
      }

      .cls-7 {
        fill: none;
        stroke: #fff;
        stroke-width: 3px;
      }
    </style>
    <clipPath id="clip-general-instruction_do_1">
      <rect x="2181" y="23" width="564" height="384"/>
    </clipPath>
  </defs>
  <g id="general-instruction_do_1" data-name="general-instruction_do – 1" class="cls-1">
    <path id="Path_11" data-name="Path 11" class="cls-2" d="M0,0H563.5V385.5H0Z" transform="translate(2182 24)"/>
    <path id="Path_14" data-name="Path 14" class="cls-3" d="M9.922,0H1.963V-14.277H9.922V-12.8h-6.3v4.6H9.541v1.465H3.623v5.254h6.3Zm5.5-5.479L11.7-10.7h1.846l2.822,4.1,2.813-4.1h1.826L17.285-5.479,21.2,0H19.365l-3-4.336L13.34,0H11.5ZM28.3.2A4.632,4.632,0,0,1,26.392-.19a3.59,3.59,0,0,1-1.45-1.187h-.117A14.356,14.356,0,0,1,24.941.4V4.8H23.32V-10.7h1.318l.225,1.465h.078a3.765,3.765,0,0,1,1.455-1.27,4.423,4.423,0,0,1,1.9-.391,3.956,3.956,0,0,1,3.286,1.455,6.406,6.406,0,0,1,1.157,4.082,6.369,6.369,0,0,1-1.177,4.1A3.963,3.963,0,0,1,28.3.2Zm-.234-9.717a2.873,2.873,0,0,0-2.373.908,4.673,4.673,0,0,0-.752,2.891v.361a5.356,5.356,0,0,0,.752,3.228,2.86,2.86,0,0,0,2.412.972,2.508,2.508,0,0,0,2.173-1.123,5.325,5.325,0,0,0,.786-3.1,5.126,5.126,0,0,0-.786-3.071A2.586,2.586,0,0,0,28.066-9.521ZM37.2,0H35.576V-15.2H37.2ZM49.873-5.361a5.9,5.9,0,0,1-1.318,4.087A4.643,4.643,0,0,1,44.912.2a4.824,4.824,0,0,1-2.549-.674,4.447,4.447,0,0,1-1.719-1.934,6.739,6.739,0,0,1-.605-2.949,5.9,5.9,0,0,1,1.309-4.077A4.628,4.628,0,0,1,44.98-10.9,4.528,4.528,0,0,1,48.55-9.4,5.879,5.879,0,0,1,49.873-5.361Zm-8.154,0a5.08,5.08,0,0,0,.82,3.125,2.847,2.847,0,0,0,2.412,1.074,2.866,2.866,0,0,0,2.417-1.069,5.054,5.054,0,0,0,.825-3.13,4.973,4.973,0,0,0-.825-3.1,2.9,2.9,0,0,0-2.437-1.06,2.853,2.853,0,0,0-2.4,1.045A5.029,5.029,0,0,0,41.719-5.361ZM57.6-10.9a6.343,6.343,0,0,1,1.279.117l-.225,1.5a5.522,5.522,0,0,0-1.172-.146,2.853,2.853,0,0,0-2.222,1.055,3.846,3.846,0,0,0-.923,2.627V0H52.715V-10.7h1.338l.186,1.982h.078a4.7,4.7,0,0,1,1.436-1.611A3.232,3.232,0,0,1,57.6-10.9ZM65.4.2A4.917,4.917,0,0,1,61.655-1.25a5.6,5.6,0,0,1-1.372-4.014,6.205,6.205,0,0,1,1.274-4.111A4.233,4.233,0,0,1,64.98-10.9a4.036,4.036,0,0,1,3.184,1.323,5.072,5.072,0,0,1,1.172,3.491v1.025H61.963A4.243,4.243,0,0,0,62.915-2.2a3.293,3.293,0,0,0,2.544.977,8.621,8.621,0,0,0,3.418-.723V-.5a8.579,8.579,0,0,1-1.626.532A9.138,9.138,0,0,1,65.4.2Zm-.439-9.736a2.647,2.647,0,0,0-2.056.84A3.871,3.871,0,0,0,62-6.377h5.6a3.564,3.564,0,0,0-.684-2.349A2.406,2.406,0,0,0,64.961-9.541Zm15.791,8.4a5.3,5.3,0,0,0,.83-.063,5.373,5.373,0,0,0,.635-.132V-.1a2.963,2.963,0,0,1-.776.21A5.83,5.83,0,0,1,80.518.2q-3.105,0-3.105-3.271V-9.443H75.879v-.781l1.533-.674.684-2.285h.938v2.48h3.105v1.26H79.033v6.3a2.167,2.167,0,0,0,.459,1.484A1.6,1.6,0,0,0,80.752-1.143ZM91.68,0V-6.924a2.793,2.793,0,0,0-.6-1.953,2.427,2.427,0,0,0-1.865-.645,3.056,3.056,0,0,0-2.466.918A4.649,4.649,0,0,0,85.977-5.6V0H84.355V-15.2h1.621v4.6A10.022,10.022,0,0,1,85.9-9.219H86a3.306,3.306,0,0,1,1.362-1.216,4.429,4.429,0,0,1,2.017-.444,4.13,4.13,0,0,1,2.944.933A3.928,3.928,0,0,1,93.3-6.982V0Zm9.473.2A4.917,4.917,0,0,1,97.407-1.25a5.6,5.6,0,0,1-1.372-4.014A6.205,6.205,0,0,1,97.31-9.375a4.233,4.233,0,0,1,3.423-1.523,4.036,4.036,0,0,1,3.184,1.323,5.072,5.072,0,0,1,1.172,3.491v1.025H97.715A4.243,4.243,0,0,0,98.667-2.2a3.293,3.293,0,0,0,2.544.977,8.621,8.621,0,0,0,3.418-.723V-.5A8.579,8.579,0,0,1,103,.034,9.138,9.138,0,0,1,101.152.2Zm-.439-9.736a2.647,2.647,0,0,0-2.056.84,3.871,3.871,0,0,0-.9,2.324h5.6a3.564,3.564,0,0,0-.684-2.349A2.406,2.406,0,0,0,100.713-9.541Zm17.314-1.338a3.979,3.979,0,0,1,3.276,1.44,6.323,6.323,0,0,1,1.167,4.077,6.369,6.369,0,0,1-1.177,4.1A3.963,3.963,0,0,1,118.027.2a4.632,4.632,0,0,1-1.909-.386,3.59,3.59,0,0,1-1.45-1.187h-.117L114.209,0h-1.162V-15.2h1.621V-11.5q0,1.24-.078,2.227h.078A3.848,3.848,0,0,1,118.027-10.879Zm-.234,1.357a2.83,2.83,0,0,0-2.393.952,5.371,5.371,0,0,0-.732,3.208,5.356,5.356,0,0,0,.752,3.228,2.86,2.86,0,0,0,2.412.972,2.5,2.5,0,0,0,2.227-1.089,5.6,5.6,0,0,0,.732-3.13,5.378,5.378,0,0,0-.732-3.115A2.6,2.6,0,0,0,117.793-9.521ZM129.824.2a4.917,4.917,0,0,1-3.745-1.445,5.6,5.6,0,0,1-1.372-4.014,6.205,6.205,0,0,1,1.274-4.111A4.233,4.233,0,0,1,129.4-10.9a4.036,4.036,0,0,1,3.184,1.323,5.072,5.072,0,0,1,1.172,3.491v1.025h-7.373a4.243,4.243,0,0,0,.952,2.861,3.293,3.293,0,0,0,2.544.977,8.621,8.621,0,0,0,3.418-.723V-.5a8.579,8.579,0,0,1-1.626.532A9.138,9.138,0,0,1,129.824.2Zm-.439-9.736a2.647,2.647,0,0,0-2.056.84,3.871,3.871,0,0,0-.9,2.324h5.6a3.564,3.564,0,0,0-.684-2.349A2.406,2.406,0,0,0,129.385-9.541ZM143.848,0V-6.924a2.793,2.793,0,0,0-.6-1.953,2.427,2.427,0,0,0-1.865-.645,3.076,3.076,0,0,0-2.461.908,4.585,4.585,0,0,0-.781,3V0h-1.621V-10.7h1.318l.264,1.465h.078a3.31,3.31,0,0,1,1.4-1.226,4.537,4.537,0,0,1,2-.435,4.065,4.065,0,0,1,2.91.933,3.969,3.969,0,0,1,.977,2.983V0Zm9.473.2a4.917,4.917,0,0,1-3.745-1.445A5.6,5.6,0,0,1,148.2-5.264a6.205,6.205,0,0,1,1.274-4.111A4.233,4.233,0,0,1,152.9-10.9a4.036,4.036,0,0,1,3.184,1.323,5.072,5.072,0,0,1,1.172,3.491v1.025h-7.373a4.243,4.243,0,0,0,.952,2.861,3.293,3.293,0,0,0,2.544.977,8.621,8.621,0,0,0,3.418-.723V-.5a8.579,8.579,0,0,1-1.626.532A9.138,9.138,0,0,1,153.32.2Zm-.439-9.736a2.647,2.647,0,0,0-2.056.84,3.871,3.871,0,0,0-.9,2.324h5.6a3.564,3.564,0,0,0-.684-2.349A2.406,2.406,0,0,0,152.881-9.541Zm11.963.1h-2.725V0H160.5V-9.443h-1.914v-.732l1.914-.586v-.6q0-3.945,3.447-3.945a7.094,7.094,0,0,1,1.992.342l-.42,1.3a5.363,5.363,0,0,0-1.6-.3,1.56,1.56,0,0,0-1.357.61,3.406,3.406,0,0,0-.439,1.958v.693h2.725ZM168.418,0H166.8V-10.7h1.621ZM166.66-13.6a1.077,1.077,0,0,1,.273-.815.956.956,0,0,1,.684-.259.955.955,0,0,1,.674.264,1.057,1.057,0,0,1,.283.811,1.074,1.074,0,0,1-.283.815.946.946,0,0,1-.674.269.936.936,0,0,1-.684-.269A1.1,1.1,0,0,1,166.66-13.6Zm8.652,12.461a5.3,5.3,0,0,0,.83-.063,5.373,5.373,0,0,0,.635-.132V-.1a2.963,2.963,0,0,1-.776.21,5.83,5.83,0,0,1-.923.083q-3.105,0-3.105-3.271V-9.443h-1.533v-.781l1.533-.674.684-2.285h.938v2.48H176.7v1.26h-3.105v6.3a2.167,2.167,0,0,0,.459,1.484A1.6,1.6,0,0,0,175.313-1.143ZM185.82-2.92a2.681,2.681,0,0,1-1.113,2.3A5.233,5.233,0,0,1,181.582.2a6.8,6.8,0,0,1-3.32-.674v-1.5a8.03,8.03,0,0,0,1.655.615,6.912,6.912,0,0,0,1.7.225,3.864,3.864,0,0,0,1.953-.405,1.34,1.34,0,0,0,.684-1.235,1.341,1.341,0,0,0-.542-1.069A8.526,8.526,0,0,0,181.6-4.9a11.465,11.465,0,0,1-2.124-.972,2.9,2.9,0,0,1-.937-.942,2.458,2.458,0,0,1-.308-1.26,2.4,2.4,0,0,1,1.064-2.065,4.96,4.96,0,0,1,2.92-.757,8.544,8.544,0,0,1,3.379.7l-.576,1.318a7.756,7.756,0,0,0-2.92-.664,3.359,3.359,0,0,0-1.738.361,1.117,1.117,0,0,0-.586,1,1.213,1.213,0,0,0,.22.732,2.168,2.168,0,0,0,.708.576,15.821,15.821,0,0,0,1.875.791,7,7,0,0,1,2.573,1.4A2.463,2.463,0,0,1,185.82-2.92Zm17.07-2.441a5.9,5.9,0,0,1-1.318,4.087A4.643,4.643,0,0,1,197.93.2a4.824,4.824,0,0,1-2.549-.674,4.447,4.447,0,0,1-1.719-1.934,6.739,6.739,0,0,1-.605-2.949,5.9,5.9,0,0,1,1.309-4.077A4.628,4.628,0,0,1,198-10.9,4.528,4.528,0,0,1,201.567-9.4,5.879,5.879,0,0,1,202.891-5.361Zm-8.154,0a5.08,5.08,0,0,0,.82,3.125,2.847,2.847,0,0,0,2.412,1.074,2.866,2.866,0,0,0,2.417-1.069,5.054,5.054,0,0,0,.825-3.13,4.973,4.973,0,0,0-.825-3.1,2.9,2.9,0,0,0-2.437-1.06,2.853,2.853,0,0,0-2.4,1.045A5.029,5.029,0,0,0,194.736-5.361Zm15.82-4.082h-2.725V0h-1.621V-9.443H204.3v-.732l1.914-.586v-.6q0-3.945,3.447-3.945a7.094,7.094,0,0,1,1.992.342l-.42,1.3a5.363,5.363,0,0,0-1.6-.3,1.56,1.56,0,0,0-1.357.61,3.406,3.406,0,0,0-.439,1.958v.693h2.725Zm7.393-4.834h4.033a7.61,7.61,0,0,1,4.111.85,3,3,0,0,1,1.27,2.686,3.1,3.1,0,0,1-.708,2.095,3.408,3.408,0,0,1-2.065,1.069v.1q3.252.557,3.252,3.418a3.671,3.671,0,0,1-1.294,2.988A5.508,5.508,0,0,1,222.93,0h-4.98Zm1.66,6.113h2.734a4.451,4.451,0,0,0,2.529-.552,2.13,2.13,0,0,0,.771-1.86,1.883,1.883,0,0,0-.859-1.733,5.37,5.37,0,0,0-2.734-.532h-2.441Zm0,1.406v5.342h2.979a4.242,4.242,0,0,0,2.6-.669,2.47,2.47,0,0,0,.874-2.095,2.218,2.218,0,0,0-.894-1.953,4.776,4.776,0,0,0-2.72-.625ZM235.547-10.9a6.343,6.343,0,0,1,1.279.117l-.225,1.5a5.522,5.522,0,0,0-1.172-.146,2.853,2.853,0,0,0-2.222,1.055,3.846,3.846,0,0,0-.923,2.627V0h-1.621V-10.7H232l.186,1.982h.078a4.705,4.705,0,0,1,1.436-1.611A3.232,3.232,0,0,1,235.547-10.9Zm12.52,5.537a5.9,5.9,0,0,1-1.318,4.087A4.643,4.643,0,0,1,243.105.2a4.824,4.824,0,0,1-2.549-.674,4.447,4.447,0,0,1-1.719-1.934,6.739,6.739,0,0,1-.605-2.949,5.9,5.9,0,0,1,1.309-4.077,4.628,4.628,0,0,1,3.633-1.46A4.528,4.528,0,0,1,246.743-9.4,5.879,5.879,0,0,1,248.066-5.361Zm-8.154,0a5.08,5.08,0,0,0,.82,3.125,2.847,2.847,0,0,0,2.412,1.074,2.866,2.866,0,0,0,2.417-1.069,5.054,5.054,0,0,0,.825-3.13,4.973,4.973,0,0,0-.825-3.1,2.9,2.9,0,0,0-2.437-1.06,2.853,2.853,0,0,0-2.4,1.045A5.029,5.029,0,0,0,239.912-5.361Zm12.6-.117a19.064,19.064,0,0,1,1.279-1.562l3.457-3.662h1.924l-4.336,4.561L259.473,0H257.51L253.73-5.059,252.51-4V0h-1.6V-15.2h1.6v8.057q0,.537-.078,1.66ZM265.928.2a4.917,4.917,0,0,1-3.745-1.445,5.6,5.6,0,0,1-1.372-4.014,6.205,6.205,0,0,1,1.274-4.111,4.233,4.233,0,0,1,3.423-1.523,4.036,4.036,0,0,1,3.184,1.323,5.072,5.072,0,0,1,1.172,3.491v1.025H262.49a4.243,4.243,0,0,0,.952,2.861,3.293,3.293,0,0,0,2.544.977,8.621,8.621,0,0,0,3.418-.723V-.5a8.578,8.578,0,0,1-1.626.532A9.138,9.138,0,0,1,265.928.2Zm-.439-9.736a2.647,2.647,0,0,0-2.056.84,3.871,3.871,0,0,0-.9,2.324h5.6a3.564,3.564,0,0,0-.684-2.349A2.406,2.406,0,0,0,265.488-9.541ZM277.51-10.9a6.343,6.343,0,0,1,1.279.117l-.225,1.5a5.522,5.522,0,0,0-1.172-.146,2.853,2.853,0,0,0-2.222,1.055,3.846,3.846,0,0,0-.923,2.627V0h-1.621V-10.7h1.338l.186,1.982h.078a4.7,4.7,0,0,1,1.436-1.611A3.232,3.232,0,0,1,277.51-10.9Zm8.721-3.379h4.033a7.61,7.61,0,0,1,4.111.85,3,3,0,0,1,1.27,2.686,3.1,3.1,0,0,1-.708,2.095,3.408,3.408,0,0,1-2.065,1.069v.1q3.252.557,3.252,3.418a3.671,3.671,0,0,1-1.294,2.988A5.508,5.508,0,0,1,291.211,0h-4.98Zm1.66,6.113h2.734a4.451,4.451,0,0,0,2.529-.552,2.13,2.13,0,0,0,.771-1.86,1.883,1.883,0,0,0-.859-1.733,5.37,5.37,0,0,0-2.734-.532h-2.441Zm0,1.406v5.342h2.979a4.242,4.242,0,0,0,2.6-.669,2.47,2.47,0,0,0,.874-2.095,2.218,2.218,0,0,0-.894-1.953,4.776,4.776,0,0,0-2.72-.625ZM303.828-10.9a6.343,6.343,0,0,1,1.279.117l-.225,1.5a5.522,5.522,0,0,0-1.172-.146,2.853,2.853,0,0,0-2.222,1.055,3.846,3.846,0,0,0-.923,2.627V0h-1.621V-10.7h1.338l.186,1.982h.078a4.7,4.7,0,0,1,1.436-1.611A3.232,3.232,0,0,1,303.828-10.9ZM308.73,0h-1.621V-10.7h1.621Zm-1.758-13.6a1.077,1.077,0,0,1,.273-.815.956.956,0,0,1,.684-.259.955.955,0,0,1,.674.264,1.057,1.057,0,0,1,.283.811,1.074,1.074,0,0,1-.283.815.946.946,0,0,1-.674.269.936.936,0,0,1-.684-.269A1.1,1.1,0,0,1,306.973-13.6ZM316.689.2a4.917,4.917,0,0,1-3.745-1.445,5.6,5.6,0,0,1-1.372-4.014,6.205,6.205,0,0,1,1.274-4.111A4.233,4.233,0,0,1,316.27-10.9a4.036,4.036,0,0,1,3.184,1.323,5.072,5.072,0,0,1,1.172,3.491v1.025h-7.373A4.243,4.243,0,0,0,314.2-2.2a3.293,3.293,0,0,0,2.544.977,8.621,8.621,0,0,0,3.418-.723V-.5a8.578,8.578,0,0,1-1.626.532A9.138,9.138,0,0,1,316.689.2Zm-.439-9.736a2.647,2.647,0,0,0-2.056.84,3.871,3.871,0,0,0-.9,2.324h5.6a3.564,3.564,0,0,0-.684-2.349A2.406,2.406,0,0,0,316.25-9.541Zm11.963.1h-2.725V0h-1.621V-9.443h-1.914v-.732l1.914-.586v-.6q0-3.945,3.447-3.945a7.094,7.094,0,0,1,1.992.342l-.42,1.3a5.363,5.363,0,0,0-1.6-.3,1.56,1.56,0,0,0-1.357.61,3.406,3.406,0,0,0-.439,1.958v.693h2.725ZM334.443.2a4.568,4.568,0,0,1-3.6-1.431,5.883,5.883,0,0,1-1.274-4.048,6.067,6.067,0,0,1,1.294-4.15,4.659,4.659,0,0,1,3.687-1.465,7.316,7.316,0,0,1,1.543.166,5.083,5.083,0,0,1,1.211.391l-.5,1.377a7.622,7.622,0,0,0-1.172-.356,5.232,5.232,0,0,0-1.123-.142q-3.262,0-3.262,4.16a4.954,4.954,0,0,0,.8,3.027A2.769,2.769,0,0,0,334.4-1.221a7.211,7.211,0,0,0,2.744-.576V-.361A5.849,5.849,0,0,1,334.443.2ZM346.27,0l-.322-1.523h-.078a4.5,4.5,0,0,1-1.6,1.362A4.867,4.867,0,0,1,342.285.2a3.575,3.575,0,0,1-2.5-.82,2.992,2.992,0,0,1-.9-2.334q0-3.242,5.186-3.4l1.816-.059V-7.08a2.714,2.714,0,0,0-.542-1.86,2.229,2.229,0,0,0-1.733-.6,7.063,7.063,0,0,0-3.027.82l-.5-1.24a7.617,7.617,0,0,1,1.733-.674,7.508,7.508,0,0,1,1.89-.244,4.077,4.077,0,0,1,2.837.85,3.546,3.546,0,0,1,.923,2.725V0Zm-3.662-1.143a3.29,3.29,0,0,0,2.378-.83A3.071,3.071,0,0,0,345.85-4.3v-.967l-1.621.068a5.9,5.9,0,0,0-2.788.6,1.811,1.811,0,0,0-.854,1.655,1.67,1.67,0,0,0,.532,1.338A2.209,2.209,0,0,0,342.607-1.143ZM357.715-2.92a2.681,2.681,0,0,1-1.113,2.3A5.233,5.233,0,0,1,353.477.2a6.8,6.8,0,0,1-3.32-.674v-1.5a8.029,8.029,0,0,0,1.655.615,6.912,6.912,0,0,0,1.7.225,3.864,3.864,0,0,0,1.953-.405,1.34,1.34,0,0,0,.684-1.235,1.341,1.341,0,0,0-.542-1.069A8.525,8.525,0,0,0,353.5-4.9a11.465,11.465,0,0,1-2.124-.972,2.9,2.9,0,0,1-.937-.942,2.458,2.458,0,0,1-.308-1.26,2.4,2.4,0,0,1,1.064-2.065,4.96,4.96,0,0,1,2.92-.757,8.543,8.543,0,0,1,3.379.7l-.576,1.318a7.756,7.756,0,0,0-2.92-.664,3.359,3.359,0,0,0-1.738.361,1.117,1.117,0,0,0-.586,1,1.213,1.213,0,0,0,.22.732,2.168,2.168,0,0,0,.708.576,15.824,15.824,0,0,0,1.875.791,7,7,0,0,1,2.573,1.4A2.463,2.463,0,0,1,357.715-2.92ZM364.873.2a4.917,4.917,0,0,1-3.745-1.445,5.6,5.6,0,0,1-1.372-4.014,6.205,6.205,0,0,1,1.274-4.111,4.233,4.233,0,0,1,3.423-1.523,4.036,4.036,0,0,1,3.184,1.323,5.072,5.072,0,0,1,1.172,3.491v1.025h-7.373a4.243,4.243,0,0,0,.952,2.861,3.293,3.293,0,0,0,2.544.977,8.621,8.621,0,0,0,3.418-.723V-.5a8.578,8.578,0,0,1-1.626.532A9.138,9.138,0,0,1,364.873.2Zm-.439-9.736a2.647,2.647,0,0,0-2.056.84,3.871,3.871,0,0,0-.9,2.324h5.6a3.564,3.564,0,0,0-.684-2.349A2.406,2.406,0,0,0,364.434-9.541ZM383.35,0l-.322-1.523h-.078a4.5,4.5,0,0,1-1.6,1.362A4.867,4.867,0,0,1,379.365.2a3.575,3.575,0,0,1-2.5-.82,2.992,2.992,0,0,1-.9-2.334q0-3.242,5.186-3.4l1.816-.059V-7.08a2.714,2.714,0,0,0-.542-1.86,2.229,2.229,0,0,0-1.733-.6,7.063,7.063,0,0,0-3.027.82l-.5-1.24a7.617,7.617,0,0,1,1.733-.674,7.508,7.508,0,0,1,1.89-.244,4.077,4.077,0,0,1,2.837.85,3.546,3.546,0,0,1,.923,2.725V0Zm-3.662-1.143a3.29,3.29,0,0,0,2.378-.83A3.071,3.071,0,0,0,382.93-4.3v-.967l-1.621.068a5.9,5.9,0,0,0-2.788.6,1.811,1.811,0,0,0-.854,1.655A1.67,1.67,0,0,0,378.2-1.6,2.209,2.209,0,0,0,379.688-1.143ZM395.215,0V-6.924a2.794,2.794,0,0,0-.6-1.953,2.427,2.427,0,0,0-1.865-.645,3.076,3.076,0,0,0-2.461.908,4.585,4.585,0,0,0-.781,3V0h-1.621V-10.7h1.318l.264,1.465h.078a3.31,3.31,0,0,1,1.4-1.226,4.537,4.537,0,0,1,2-.435,4.065,4.065,0,0,1,2.91.933,3.969,3.969,0,0,1,.977,2.983V0Zm12.236-1.436h-.088A3.809,3.809,0,0,1,404,.2a3.974,3.974,0,0,1-3.267-1.436,6.319,6.319,0,0,1-1.167-4.082,6.426,6.426,0,0,1,1.172-4.111A3.943,3.943,0,0,1,404-10.9a3.892,3.892,0,0,1,3.34,1.582h.127l-.068-.771-.039-.752V-15.2h1.621V0h-1.318Zm-3.242.273a2.951,2.951,0,0,0,2.407-.9,4.565,4.565,0,0,0,.747-2.915v-.342a5.371,5.371,0,0,0-.757-3.247,2.874,2.874,0,0,0-2.417-.972,2.481,2.481,0,0,0-2.183,1.108,5.511,5.511,0,0,0-.757,3.13,5.284,5.284,0,0,0,.752,3.1A2.547,2.547,0,0,0,404.209-1.162ZM3.34,27H1.719V11.8H3.34Zm7.959.2A4.917,4.917,0,0,1,7.554,25.75a5.6,5.6,0,0,1-1.372-4.014,6.205,6.205,0,0,1,1.274-4.111A4.233,4.233,0,0,1,10.879,16.1a4.036,4.036,0,0,1,3.184,1.323,5.072,5.072,0,0,1,1.172,3.491v1.025H7.861A4.243,4.243,0,0,0,8.813,24.8a3.293,3.293,0,0,0,2.544.977,8.621,8.621,0,0,0,3.418-.723V26.5a8.579,8.579,0,0,1-1.626.532A9.138,9.138,0,0,1,11.3,27.2Zm-.439-9.736A2.647,2.647,0,0,0,8.8,18.3a3.871,3.871,0,0,0-.9,2.324h5.6a3.564,3.564,0,0,0-.684-2.349A2.406,2.406,0,0,0,10.859,17.459ZM24.58,27l-.322-1.523H24.18a4.5,4.5,0,0,1-1.6,1.362A4.867,4.867,0,0,1,20.6,27.2a3.575,3.575,0,0,1-2.5-.82,2.992,2.992,0,0,1-.9-2.334q0-3.242,5.186-3.4l1.816-.059V19.92a2.714,2.714,0,0,0-.542-1.86,2.229,2.229,0,0,0-1.733-.6,7.063,7.063,0,0,0-3.027.82l-.5-1.24a7.618,7.618,0,0,1,1.733-.674,7.508,7.508,0,0,1,1.89-.244,4.077,4.077,0,0,1,2.837.85,3.546,3.546,0,0,1,.923,2.725V27Zm-3.662-1.143a3.29,3.29,0,0,0,2.378-.83A3.071,3.071,0,0,0,24.16,22.7v-.967l-1.621.068a5.9,5.9,0,0,0-2.788.6,1.811,1.811,0,0,0-.854,1.655,1.67,1.67,0,0,0,.532,1.338A2.209,2.209,0,0,0,20.918,25.857ZM34,16.1a6.343,6.343,0,0,1,1.279.117l-.225,1.5a5.522,5.522,0,0,0-1.172-.146,2.853,2.853,0,0,0-2.222,1.055,3.846,3.846,0,0,0-.923,2.627V27H29.121V16.3h1.338l.186,1.982h.078a4.7,4.7,0,0,1,1.436-1.611A3.232,3.232,0,0,1,34,16.1ZM44.609,27V20.076a2.793,2.793,0,0,0-.6-1.953,2.427,2.427,0,0,0-1.865-.645,3.076,3.076,0,0,0-2.461.908,4.585,4.585,0,0,0-.781,3V27H37.285V16.3H38.6l.264,1.465h.078a3.31,3.31,0,0,1,1.4-1.226,4.537,4.537,0,0,1,2-.435,4.065,4.065,0,0,1,2.91.933,3.969,3.969,0,0,1,.977,2.983V27ZM62.08,27V20.076a2.793,2.793,0,0,0-.6-1.953,2.427,2.427,0,0,0-1.865-.645,3.056,3.056,0,0,0-2.466.918,4.649,4.649,0,0,0-.776,3.008V27H54.756V11.8h1.621v4.6a10.022,10.022,0,0,1-.078,1.377h.1a3.306,3.306,0,0,1,1.362-1.216,4.429,4.429,0,0,1,2.017-.444,4.13,4.13,0,0,1,2.944.933,3.928,3.928,0,0,1,.981,2.964V27ZM76.27,21.639a5.9,5.9,0,0,1-1.318,4.087,4.643,4.643,0,0,1-3.643,1.47,4.824,4.824,0,0,1-2.549-.674,4.447,4.447,0,0,1-1.719-1.934,6.739,6.739,0,0,1-.605-2.949,5.9,5.9,0,0,1,1.309-4.077,4.628,4.628,0,0,1,3.633-1.46A4.528,4.528,0,0,1,74.946,17.6,5.879,5.879,0,0,1,76.27,21.639Zm-8.154,0a5.08,5.08,0,0,0,.82,3.125,3.256,3.256,0,0,0,4.829,0,5.054,5.054,0,0,0,.825-3.13,4.973,4.973,0,0,0-.825-3.1,2.9,2.9,0,0,0-2.437-1.06,2.853,2.853,0,0,0-2.4,1.045A5.029,5.029,0,0,0,68.115,21.639ZM87.852,27l-1.963-6.279Q85.7,20.145,85.2,18.1h-.078q-.391,1.709-.684,2.637L82.412,27H80.537l-2.92-10.7h1.7q1.035,4.033,1.577,6.143a24.888,24.888,0,0,1,.62,2.842h.078q.107-.557.347-1.44t.415-1.4L84.316,16.3h1.758l1.914,6.143a20.732,20.732,0,0,1,.742,2.822h.078a10.351,10.351,0,0,1,.21-1.084q.171-.732,2.036-7.881h1.68L89.775,27Zm15.469-1.143a5.3,5.3,0,0,0,.83-.063,5.373,5.373,0,0,0,.635-.132V26.9a2.963,2.963,0,0,1-.776.21,5.83,5.83,0,0,1-.923.083q-3.105,0-3.105-3.271V17.557H98.447v-.781L99.98,16.1l.684-2.285h.938V16.3h3.105v1.26H101.6v6.3a2.167,2.167,0,0,0,.459,1.484A1.6,1.6,0,0,0,103.32,25.857Zm12.842-4.219a5.9,5.9,0,0,1-1.318,4.087A4.643,4.643,0,0,1,111.2,27.2a4.824,4.824,0,0,1-2.549-.674,4.447,4.447,0,0,1-1.719-1.934,6.739,6.739,0,0,1-.605-2.949,5.9,5.9,0,0,1,1.309-4.077,4.628,4.628,0,0,1,3.633-1.46,4.528,4.528,0,0,1,3.569,1.494A5.879,5.879,0,0,1,116.162,21.639Zm-8.154,0a5.08,5.08,0,0,0,.82,3.125,3.256,3.256,0,0,0,4.829,0,5.054,5.054,0,0,0,.825-3.13,4.973,4.973,0,0,0-.825-3.1,2.9,2.9,0,0,0-2.437-1.06,2.853,2.853,0,0,0-2.4,1.045A5.029,5.029,0,0,0,108.008,21.639ZM132.959,16.3v1.025l-1.982.234a3.481,3.481,0,0,1,.7,2.139,3.164,3.164,0,0,1-1.074,2.51,4.333,4.333,0,0,1-2.949.938,4.911,4.911,0,0,1-.9-.078,1.6,1.6,0,0,0-1.035,1.377.7.7,0,0,0,.361.649,2.639,2.639,0,0,0,1.24.21h1.895a4.242,4.242,0,0,1,2.671.732,2.545,2.545,0,0,1,.933,2.129,3.039,3.039,0,0,1-1.426,2.71,7.631,7.631,0,0,1-4.16.933A5.684,5.684,0,0,1,124,31.023a2.522,2.522,0,0,1-1.138-2.207,2.479,2.479,0,0,1,.625-1.689,3.182,3.182,0,0,1,1.758-.967,1.7,1.7,0,0,1-.688-.576,1.525,1.525,0,0,1-.278-.908,1.724,1.724,0,0,1,.313-1.025,3.286,3.286,0,0,1,.986-.85,2.891,2.891,0,0,1-1.353-1.162,3.415,3.415,0,0,1-.522-1.875,3.463,3.463,0,0,1,1.055-2.71,4.306,4.306,0,0,1,2.988-.952,5.434,5.434,0,0,1,1.514.2Zm-8.535,12.5a1.453,1.453,0,0,0,.732,1.318,4.042,4.042,0,0,0,2.1.449,5.859,5.859,0,0,0,3.022-.61,1.869,1.869,0,0,0,.981-1.655,1.31,1.31,0,0,0-.537-1.206,4.172,4.172,0,0,0-2.021-.337h-1.943a2.56,2.56,0,0,0-1.719.527A1.884,1.884,0,0,0,124.424,28.8Zm.879-9.072a2.179,2.179,0,0,0,.635,1.7,2.535,2.535,0,0,0,1.768.576,2.068,2.068,0,0,0,2.373-2.3,2.128,2.128,0,0,0-2.4-2.412,2.378,2.378,0,0,0-1.758.615A2.478,2.478,0,0,0,125.3,19.725ZM139.678,27.2a4.918,4.918,0,0,1-3.745-1.445,5.6,5.6,0,0,1-1.372-4.014,6.205,6.205,0,0,1,1.274-4.111,4.233,4.233,0,0,1,3.423-1.523,4.036,4.036,0,0,1,3.184,1.323,5.072,5.072,0,0,1,1.172,3.491v1.025H136.24a4.243,4.243,0,0,0,.952,2.861,3.293,3.293,0,0,0,2.544.977,8.621,8.621,0,0,0,3.418-.723V26.5a8.579,8.579,0,0,1-1.626.532A9.138,9.138,0,0,1,139.678,27.2Zm-.439-9.736a2.647,2.647,0,0,0-2.056.84,3.871,3.871,0,0,0-.9,2.324h5.6a3.564,3.564,0,0,0-.684-2.349A2.406,2.406,0,0,0,139.238,17.459Zm10.6,8.4a5.3,5.3,0,0,0,.83-.063,5.374,5.374,0,0,0,.635-.132V26.9a2.963,2.963,0,0,1-.776.21,5.83,5.83,0,0,1-.923.083q-3.105,0-3.105-3.271V17.557h-1.533v-.781l1.533-.674.684-2.285h.938V16.3h3.105v1.26h-3.105v6.3a2.167,2.167,0,0,0,.459,1.484A1.6,1.6,0,0,0,149.834,25.857Zm15.7-1.777a2.681,2.681,0,0,1-1.113,2.3,5.233,5.233,0,0,1-3.125.811,6.8,6.8,0,0,1-3.32-.674v-1.5a8.03,8.03,0,0,0,1.655.615,6.912,6.912,0,0,0,1.7.225,3.864,3.864,0,0,0,1.953-.405,1.4,1.4,0,0,0,.142-2.3,8.526,8.526,0,0,0-2.114-1.05,11.465,11.465,0,0,1-2.124-.972,2.9,2.9,0,0,1-.937-.942,2.458,2.458,0,0,1-.308-1.26,2.4,2.4,0,0,1,1.064-2.065,4.96,4.96,0,0,1,2.92-.757,8.544,8.544,0,0,1,3.379.7l-.576,1.318a7.756,7.756,0,0,0-2.92-.664,3.359,3.359,0,0,0-1.738.361,1.117,1.117,0,0,0-.586,1,1.213,1.213,0,0,0,.22.732,2.168,2.168,0,0,0,.708.576,15.822,15.822,0,0,0,1.875.791,7,7,0,0,1,2.573,1.4A2.463,2.463,0,0,1,165.537,24.08Zm6.094,1.777a5.3,5.3,0,0,0,.83-.063,5.374,5.374,0,0,0,.635-.132V26.9a2.963,2.963,0,0,1-.776.21,5.83,5.83,0,0,1-.923.083q-3.105,0-3.105-3.271V17.557h-1.533v-.781l1.533-.674.684-2.285h.938V16.3h3.105v1.26h-3.105v6.3a2.167,2.167,0,0,0,.459,1.484A1.6,1.6,0,0,0,171.631,25.857ZM181.816,27l-.322-1.523h-.078a4.5,4.5,0,0,1-1.6,1.362,4.867,4.867,0,0,1-1.987.356,3.575,3.575,0,0,1-2.5-.82,2.992,2.992,0,0,1-.9-2.334q0-3.242,5.186-3.4l1.816-.059V19.92a2.714,2.714,0,0,0-.542-1.86,2.229,2.229,0,0,0-1.733-.6,7.063,7.063,0,0,0-3.027.82l-.5-1.24a7.618,7.618,0,0,1,1.733-.674,7.507,7.507,0,0,1,1.89-.244,4.077,4.077,0,0,1,2.837.85,3.546,3.546,0,0,1,.923,2.725V27Zm-3.662-1.143a3.29,3.29,0,0,0,2.378-.83A3.071,3.071,0,0,0,181.4,22.7v-.967l-1.621.068a5.9,5.9,0,0,0-2.788.6,1.811,1.811,0,0,0-.854,1.655,1.67,1.67,0,0,0,.532,1.338A2.209,2.209,0,0,0,178.154,25.857ZM191.24,16.1a6.343,6.343,0,0,1,1.279.117l-.225,1.5a5.522,5.522,0,0,0-1.172-.146,2.853,2.853,0,0,0-2.222,1.055,3.846,3.846,0,0,0-.923,2.627V27h-1.621V16.3H187.7l.186,1.982h.078a4.705,4.705,0,0,1,1.436-1.611A3.232,3.232,0,0,1,191.24,16.1Zm6.738,9.756a5.3,5.3,0,0,0,.83-.063,5.374,5.374,0,0,0,.635-.132V26.9a2.963,2.963,0,0,1-.776.21,5.83,5.83,0,0,1-.923.083q-3.105,0-3.105-3.271V17.557h-1.533v-.781l1.533-.674.684-2.285h.938V16.3h3.105v1.26H196.26v6.3a2.167,2.167,0,0,0,.459,1.484A1.6,1.6,0,0,0,197.979,25.857ZM206.1,27.2a4.918,4.918,0,0,1-3.745-1.445,5.6,5.6,0,0,1-1.372-4.014,6.205,6.205,0,0,1,1.274-4.111,4.233,4.233,0,0,1,3.423-1.523,4.036,4.036,0,0,1,3.184,1.323,5.072,5.072,0,0,1,1.172,3.491v1.025h-7.373a4.243,4.243,0,0,0,.952,2.861,3.293,3.293,0,0,0,2.544.977,8.621,8.621,0,0,0,3.418-.723V26.5a8.579,8.579,0,0,1-1.626.532A9.138,9.138,0,0,1,206.1,27.2Zm-.439-9.736a2.647,2.647,0,0,0-2.056.84,3.871,3.871,0,0,0-.9,2.324h5.6a3.564,3.564,0,0,0-.684-2.349A2.406,2.406,0,0,0,205.664,17.459Zm14.424,8.105H220a3.809,3.809,0,0,1-3.359,1.631,3.974,3.974,0,0,1-3.267-1.436,6.319,6.319,0,0,1-1.167-4.082,6.426,6.426,0,0,1,1.172-4.111,3.943,3.943,0,0,1,3.262-1.465,3.892,3.892,0,0,1,3.34,1.582h.127l-.068-.771L220,16.16V11.8h1.621V27H220.3Zm-3.242.273a2.951,2.951,0,0,0,2.407-.9A4.565,4.565,0,0,0,220,22.02v-.342a5.371,5.371,0,0,0-.757-3.247,2.874,2.874,0,0,0-2.417-.972,2.481,2.481,0,0,0-2.183,1.108,5.511,5.511,0,0,0-.757,3.13,5.284,5.284,0,0,0,.752,3.1A2.547,2.547,0,0,0,216.846,25.838ZM238.994,27l-1.963-6.279q-.186-.576-.693-2.617h-.078q-.391,1.709-.684,2.637L233.555,27H231.68l-2.92-10.7h1.7q1.035,4.033,1.577,6.143a24.886,24.886,0,0,1,.62,2.842h.078q.107-.557.347-1.44t.415-1.4l1.963-6.143h1.758l1.914,6.143a20.732,20.732,0,0,1,.742,2.822h.078a10.351,10.351,0,0,1,.21-1.084q.171-.732,2.036-7.881h1.68L240.918,27Zm8.438,0h-1.621V16.3h1.621Zm-1.758-13.6a1.077,1.077,0,0,1,.273-.815,1.012,1.012,0,0,1,1.357,0,1.057,1.057,0,0,1,.283.811,1.074,1.074,0,0,1-.283.815.992.992,0,0,1-1.357,0A1.1,1.1,0,0,1,245.674,13.4Zm8.652,12.461a5.3,5.3,0,0,0,.83-.063,5.374,5.374,0,0,0,.635-.132V26.9a2.963,2.963,0,0,1-.776.21,5.83,5.83,0,0,1-.923.083q-3.105,0-3.105-3.271V17.557h-1.533v-.781l1.533-.674.684-2.285h.938V16.3h3.105v1.26h-3.105v6.3a2.167,2.167,0,0,0,.459,1.484A1.6,1.6,0,0,0,254.326,25.857ZM265.254,27V20.076a2.794,2.794,0,0,0-.6-1.953,2.427,2.427,0,0,0-1.865-.645,3.056,3.056,0,0,0-2.466.918,4.649,4.649,0,0,0-.776,3.008V27H257.93V11.8h1.621v4.6a10.02,10.02,0,0,1-.078,1.377h.1a3.306,3.306,0,0,1,1.362-1.216,4.429,4.429,0,0,1,2.017-.444,4.13,4.13,0,0,1,2.944.933,3.928,3.928,0,0,1,.981,2.964V27ZM273.7,16.3h1.738l2.344,6.1a23.216,23.216,0,0,1,.957,3.018h.078q.127-.5.532-1.7T282,16.3h1.738l-4.6,12.188a6.08,6.08,0,0,1-1.6,2.563,3.4,3.4,0,0,1-2.241.757,6.522,6.522,0,0,1-1.465-.166v-1.3a5.65,5.65,0,0,0,1.2.117,2.476,2.476,0,0,0,2.383-1.875l.6-1.523Zm21.016,5.342a5.9,5.9,0,0,1-1.318,4.087,4.643,4.643,0,0,1-3.643,1.47,4.824,4.824,0,0,1-2.549-.674,4.447,4.447,0,0,1-1.719-1.934,6.739,6.739,0,0,1-.605-2.949,5.9,5.9,0,0,1,1.309-4.077,4.628,4.628,0,0,1,3.633-1.46,4.528,4.528,0,0,1,3.569,1.494A5.879,5.879,0,0,1,294.717,21.639Zm-8.154,0a5.08,5.08,0,0,0,.82,3.125,3.256,3.256,0,0,0,4.829,0,5.054,5.054,0,0,0,.825-3.13,4.973,4.973,0,0,0-.825-3.1,2.9,2.9,0,0,0-2.437-1.06,2.853,2.853,0,0,0-2.4,1.045A5.029,5.029,0,0,0,286.563,21.639Zm12.52-5.342V23.24a2.794,2.794,0,0,0,.6,1.953,2.427,2.427,0,0,0,1.865.645A3.043,3.043,0,0,0,304,24.92a4.631,4.631,0,0,0,.776-3V16.3H306.4V27h-1.338l-.234-1.436h-.088a3.231,3.231,0,0,1-1.382,1.211,4.644,4.644,0,0,1-2.017.42,4.091,4.091,0,0,1-2.925-.928,3.949,3.949,0,0,1-.972-2.969v-7Zm15.635-.2a6.343,6.343,0,0,1,1.279.117l-.225,1.5a5.522,5.522,0,0,0-1.172-.146,2.853,2.853,0,0,0-2.222,1.055,3.846,3.846,0,0,0-.923,2.627V27h-1.621V16.3h1.338l.186,1.982h.078a4.7,4.7,0,0,1,1.436-1.611A3.232,3.232,0,0,1,314.717,16.1ZM327.471,27.2a4.568,4.568,0,0,1-3.6-1.431,5.883,5.883,0,0,1-1.274-4.048,6.067,6.067,0,0,1,1.294-4.15,4.659,4.659,0,0,1,3.687-1.465,7.315,7.315,0,0,1,1.543.166,5.083,5.083,0,0,1,1.211.391l-.5,1.377a7.622,7.622,0,0,0-1.172-.356,5.232,5.232,0,0,0-1.123-.142q-3.262,0-3.262,4.16a4.954,4.954,0,0,0,.8,3.027,2.769,2.769,0,0,0,2.358,1.055,7.211,7.211,0,0,0,2.744-.576v1.436A5.849,5.849,0,0,1,327.471,27.2Zm6.865-.2h-1.621V11.8h1.621Zm5.059,0h-1.621V16.3h1.621Zm-1.758-13.6a1.077,1.077,0,0,1,.273-.815,1.012,1.012,0,0,1,1.357,0,1.057,1.057,0,0,1,.283.811,1.074,1.074,0,0,1-.283.815.992.992,0,0,1-1.357,0A1.1,1.1,0,0,1,337.637,13.4Zm9.717,13.8a4.917,4.917,0,0,1-3.745-1.445,5.6,5.6,0,0,1-1.372-4.014,6.205,6.205,0,0,1,1.274-4.111,4.233,4.233,0,0,1,3.423-1.523,4.036,4.036,0,0,1,3.184,1.323,5.072,5.072,0,0,1,1.172,3.491v1.025h-7.373a4.243,4.243,0,0,0,.952,2.861,3.293,3.293,0,0,0,2.544.977,8.621,8.621,0,0,0,3.418-.723V26.5a8.578,8.578,0,0,1-1.626.532A9.138,9.138,0,0,1,347.354,27.2Zm-.439-9.736a2.647,2.647,0,0,0-2.056.84,3.871,3.871,0,0,0-.9,2.324h5.6a3.564,3.564,0,0,0-.684-2.349A2.406,2.406,0,0,0,346.914,17.459ZM361.377,27V20.076a2.794,2.794,0,0,0-.6-1.953,2.427,2.427,0,0,0-1.865-.645,3.076,3.076,0,0,0-2.461.908,4.585,4.585,0,0,0-.781,3V27h-1.621V16.3h1.318l.264,1.465h.078a3.31,3.31,0,0,1,1.4-1.226,4.537,4.537,0,0,1,2-.435,4.065,4.065,0,0,1,2.91.933A3.969,3.969,0,0,1,363,20.018V27Zm8.408-1.143a5.3,5.3,0,0,0,.83-.063,5.373,5.373,0,0,0,.635-.132V26.9a2.963,2.963,0,0,1-.776.21,5.83,5.83,0,0,1-.923.083q-3.105,0-3.105-3.271V17.557h-1.533v-.781l1.533-.674.684-2.285h.938V16.3h3.105v1.26h-3.105v6.3a2.167,2.167,0,0,0,.459,1.484A1.6,1.6,0,0,0,369.785,25.857ZM6,54.2a4.568,4.568,0,0,1-3.6-1.431,5.883,5.883,0,0,1-1.274-4.048,6.067,6.067,0,0,1,1.294-4.15A4.659,4.659,0,0,1,6.1,43.1a7.316,7.316,0,0,1,1.543.166,5.083,5.083,0,0,1,1.211.391l-.5,1.377a7.622,7.622,0,0,0-1.172-.356,5.232,5.232,0,0,0-1.123-.142Q2.8,44.537,2.8,48.7a4.954,4.954,0,0,0,.8,3.027,2.769,2.769,0,0,0,2.358,1.055A7.211,7.211,0,0,0,8.7,52.2v1.436A5.849,5.849,0,0,1,6,54.2Zm14.482-5.557a5.9,5.9,0,0,1-1.318,4.087,4.643,4.643,0,0,1-3.643,1.47,4.824,4.824,0,0,1-2.549-.674,4.447,4.447,0,0,1-1.719-1.934,6.739,6.739,0,0,1-.605-2.949,5.9,5.9,0,0,1,1.309-4.077,4.628,4.628,0,0,1,3.633-1.46A4.528,4.528,0,0,1,19.155,44.6,5.879,5.879,0,0,1,20.479,48.639Zm-8.154,0a5.08,5.08,0,0,0,.82,3.125,2.847,2.847,0,0,0,2.412,1.074,2.866,2.866,0,0,0,2.417-1.069,5.054,5.054,0,0,0,.825-3.13,4.973,4.973,0,0,0-.825-3.1,2.9,2.9,0,0,0-2.437-1.06,2.853,2.853,0,0,0-2.4,1.045A5.029,5.029,0,0,0,12.324,48.639ZM36.963,54V47.037a2.89,2.89,0,0,0-.547-1.919,2.115,2.115,0,0,0-1.7-.64,2.743,2.743,0,0,0-2.236.869,4.131,4.131,0,0,0-.723,2.676V54H30.137V47.037a2.89,2.89,0,0,0-.547-1.919,2.128,2.128,0,0,0-1.709-.64,2.647,2.647,0,0,0-2.231.913,4.942,4.942,0,0,0-.708,2.993V54H23.32V43.3h1.318l.264,1.465h.078a3.186,3.186,0,0,1,1.294-1.221,3.953,3.953,0,0,1,1.87-.439q2.51,0,3.281,1.816H31.5a3.413,3.413,0,0,1,1.387-1.328,4.3,4.3,0,0,1,2.07-.488,3.624,3.624,0,0,1,2.72.933,4.172,4.172,0,0,1,.9,2.983V54Zm18.6,0V47.037a2.89,2.89,0,0,0-.547-1.919,2.115,2.115,0,0,0-1.7-.64,2.743,2.743,0,0,0-2.236.869,4.131,4.131,0,0,0-.723,2.676V54H48.74V47.037a2.89,2.89,0,0,0-.547-1.919,2.128,2.128,0,0,0-1.709-.64,2.647,2.647,0,0,0-2.231.913,4.942,4.942,0,0,0-.708,2.993V54H41.924V43.3h1.318l.264,1.465h.078a3.186,3.186,0,0,1,1.294-1.221,3.953,3.953,0,0,1,1.87-.439q2.51,0,3.281,1.816h.078a3.413,3.413,0,0,1,1.387-1.328,4.3,4.3,0,0,1,2.07-.488,3.624,3.624,0,0,1,2.72.933,4.172,4.172,0,0,1,.9,2.983V54Zm6.484-10.7V50.24a2.793,2.793,0,0,0,.6,1.953,2.427,2.427,0,0,0,1.865.645,3.043,3.043,0,0,0,2.456-.918,4.631,4.631,0,0,0,.776-3V43.3h1.621V54H68.027l-.234-1.436h-.088a3.231,3.231,0,0,1-1.382,1.211,4.644,4.644,0,0,1-2.017.42,4.091,4.091,0,0,1-2.925-.928A3.949,3.949,0,0,1,60.41,50.3v-7ZM80.127,54V47.076a2.793,2.793,0,0,0-.6-1.953,2.427,2.427,0,0,0-1.865-.645,3.076,3.076,0,0,0-2.461.908,4.585,4.585,0,0,0-.781,3V54H72.8V43.3h1.318l.264,1.465h.078a3.31,3.31,0,0,1,1.4-1.226,4.537,4.537,0,0,1,2-.435,4.065,4.065,0,0,1,2.91.933,3.969,3.969,0,0,1,.977,2.983V54ZM86.7,54H85.078V43.3H86.7ZM84.941,40.4a1.077,1.077,0,0,1,.273-.815,1.012,1.012,0,0,1,1.357,0,1.057,1.057,0,0,1,.283.811,1.074,1.074,0,0,1-.283.815.992.992,0,0,1-1.357,0A1.1,1.1,0,0,1,84.941,40.4Zm9.473,13.8a4.568,4.568,0,0,1-3.6-1.431,5.883,5.883,0,0,1-1.274-4.048,6.067,6.067,0,0,1,1.294-4.15A4.659,4.659,0,0,1,94.521,43.1a7.316,7.316,0,0,1,1.543.166,5.083,5.083,0,0,1,1.211.391l-.5,1.377a7.622,7.622,0,0,0-1.172-.356,5.232,5.232,0,0,0-1.123-.142q-3.262,0-3.262,4.16a4.954,4.954,0,0,0,.8,3.027,2.769,2.769,0,0,0,2.358,1.055,7.211,7.211,0,0,0,2.744-.576v1.436A5.849,5.849,0,0,1,94.414,54.2ZM106.24,54l-.322-1.523h-.078a4.5,4.5,0,0,1-1.6,1.362,4.867,4.867,0,0,1-1.987.356,3.575,3.575,0,0,1-2.5-.82,2.992,2.992,0,0,1-.9-2.334q0-3.242,5.186-3.4l1.816-.059V46.92a2.714,2.714,0,0,0-.542-1.86,2.229,2.229,0,0,0-1.733-.6,7.063,7.063,0,0,0-3.027.82l-.5-1.24a7.618,7.618,0,0,1,1.733-.674,7.507,7.507,0,0,1,1.89-.244,4.077,4.077,0,0,1,2.837.85,3.546,3.546,0,0,1,.923,2.725V54Zm-3.662-1.143a3.29,3.29,0,0,0,2.378-.83,3.071,3.071,0,0,0,.864-2.324v-.967L104.2,48.8a5.9,5.9,0,0,0-2.788.6,1.811,1.811,0,0,0-.854,1.655,1.67,1.67,0,0,0,.532,1.338A2.209,2.209,0,0,0,102.578,52.857Zm11.66,0a5.3,5.3,0,0,0,.83-.063,5.372,5.372,0,0,0,.635-.132V53.9a2.963,2.963,0,0,1-.776.21A5.83,5.83,0,0,1,114,54.2q-3.105,0-3.105-3.271V44.557h-1.533v-.781L110.9,43.1l.684-2.285h.938V43.3h3.105v1.26H112.52v6.3a2.167,2.167,0,0,0,.459,1.484A1.6,1.6,0,0,0,114.238,52.857ZM119.463,54h-1.621V43.3h1.621Zm-1.758-13.6a1.077,1.077,0,0,1,.273-.815,1.012,1.012,0,0,1,1.357,0,1.057,1.057,0,0,1,.283.811,1.074,1.074,0,0,1-.283.815.992.992,0,0,1-1.357,0A1.1,1.1,0,0,1,117.705,40.4Zm14.434,8.242a5.9,5.9,0,0,1-1.318,4.087,4.643,4.643,0,0,1-3.643,1.47,4.824,4.824,0,0,1-2.549-.674,4.447,4.447,0,0,1-1.719-1.934,6.739,6.739,0,0,1-.605-2.949,5.9,5.9,0,0,1,1.309-4.077,4.628,4.628,0,0,1,3.633-1.46,4.528,4.528,0,0,1,3.569,1.494A5.879,5.879,0,0,1,132.139,48.639Zm-8.154,0a5.08,5.08,0,0,0,.82,3.125,3.256,3.256,0,0,0,4.829,0,5.054,5.054,0,0,0,.825-3.13,4.973,4.973,0,0,0-.825-3.1,2.9,2.9,0,0,0-2.437-1.06,2.853,2.853,0,0,0-2.4,1.045A5.029,5.029,0,0,0,123.984,48.639ZM142.3,54V47.076a2.793,2.793,0,0,0-.6-1.953,2.427,2.427,0,0,0-1.865-.645,3.076,3.076,0,0,0-2.461.908,4.585,4.585,0,0,0-.781,3V54H134.98V43.3H136.3l.264,1.465h.078a3.31,3.31,0,0,1,1.4-1.226,4.537,4.537,0,0,1,2-.435,4.065,4.065,0,0,1,2.91.933,3.969,3.969,0,0,1,.977,2.983V54Zm11.855-2.92a2.681,2.681,0,0,1-1.113,2.3,5.233,5.233,0,0,1-3.125.811,6.8,6.8,0,0,1-3.32-.674v-1.5a8.03,8.03,0,0,0,1.655.615,6.912,6.912,0,0,0,1.7.225,3.864,3.864,0,0,0,1.953-.405,1.4,1.4,0,0,0,.142-2.3,8.526,8.526,0,0,0-2.114-1.05,11.465,11.465,0,0,1-2.124-.972,2.9,2.9,0,0,1-.937-.942,2.458,2.458,0,0,1-.308-1.26,2.4,2.4,0,0,1,1.064-2.065,4.96,4.96,0,0,1,2.92-.757,8.544,8.544,0,0,1,3.379.7l-.576,1.318a7.756,7.756,0,0,0-2.92-.664,3.359,3.359,0,0,0-1.738.361,1.117,1.117,0,0,0-.586,1,1.213,1.213,0,0,0,.22.732,2.168,2.168,0,0,0,.708.576,15.821,15.821,0,0,0,1.875.791,7,7,0,0,1,2.573,1.4A2.463,2.463,0,0,1,154.16,51.08Zm12.813-7.959a3.979,3.979,0,0,1,3.276,1.44,6.322,6.322,0,0,1,1.167,4.077,6.369,6.369,0,0,1-1.177,4.1,3.963,3.963,0,0,1-3.267,1.46,4.632,4.632,0,0,1-1.909-.386,3.59,3.59,0,0,1-1.45-1.187H163.5L163.154,54h-1.162V38.8h1.621V42.5q0,1.24-.078,2.227h.078A3.848,3.848,0,0,1,166.973,43.121Zm-.234,1.357a2.83,2.83,0,0,0-2.393.952,5.371,5.371,0,0,0-.732,3.208,5.356,5.356,0,0,0,.752,3.228,2.86,2.86,0,0,0,2.412.972A2.5,2.5,0,0,0,169,51.749a5.6,5.6,0,0,0,.732-3.13A5.378,5.378,0,0,0,169,45.5,2.6,2.6,0,0,0,166.738,44.479Zm5.811-1.182h1.738l2.344,6.1a23.216,23.216,0,0,1,.957,3.018h.078q.127-.5.532-1.7T180.85,43.3h1.738l-4.6,12.188a6.08,6.08,0,0,1-1.6,2.563,3.4,3.4,0,0,1-2.241.757,6.522,6.522,0,0,1-1.465-.166v-1.3a5.651,5.651,0,0,0,1.2.117,2.476,2.476,0,0,0,2.383-1.875l.6-1.523Zm20.43,9.561a5.3,5.3,0,0,0,.83-.063,5.373,5.373,0,0,0,.635-.132V53.9a2.963,2.963,0,0,1-.776.21,5.83,5.83,0,0,1-.923.083q-3.105,0-3.105-3.271V44.557h-1.533v-.781l1.533-.674.684-2.285h.938V43.3h3.105v1.26H191.26v6.3a2.167,2.167,0,0,0,.459,1.484A1.6,1.6,0,0,0,192.979,52.857ZM203.164,54l-.322-1.523h-.078a4.5,4.5,0,0,1-1.6,1.362,4.867,4.867,0,0,1-1.987.356,3.575,3.575,0,0,1-2.5-.82,2.992,2.992,0,0,1-.9-2.334q0-3.242,5.186-3.4l1.816-.059V46.92a2.714,2.714,0,0,0-.542-1.86,2.229,2.229,0,0,0-1.733-.6,7.063,7.063,0,0,0-3.027.82l-.5-1.24a7.618,7.618,0,0,1,1.733-.674,7.507,7.507,0,0,1,1.89-.244,4.077,4.077,0,0,1,2.837.85,3.546,3.546,0,0,1,.923,2.725V54ZM199.5,52.857a3.29,3.29,0,0,0,2.378-.83,3.071,3.071,0,0,0,.864-2.324v-.967l-1.621.068a5.9,5.9,0,0,0-2.788.6,1.811,1.811,0,0,0-.854,1.655,1.67,1.67,0,0,0,.532,1.338A2.209,2.209,0,0,0,199.5,52.857Zm9.8-4.336a19.064,19.064,0,0,1,1.279-1.562l3.457-3.662h1.924l-4.336,4.561L216.27,54h-1.963l-3.779-5.059L209.307,50v4h-1.6V38.8h1.6v8.057q0,.537-.078,1.66ZM219.824,54H218.2V43.3h1.621Zm-1.758-13.6a1.077,1.077,0,0,1,.273-.815,1.012,1.012,0,0,1,1.357,0,1.057,1.057,0,0,1,.283.811,1.074,1.074,0,0,1-.283.815.992.992,0,0,1-1.357,0A1.1,1.1,0,0,1,218.066,40.4ZM230.586,54V47.076a2.793,2.793,0,0,0-.6-1.953,2.427,2.427,0,0,0-1.865-.645,3.076,3.076,0,0,0-2.461.908,4.585,4.585,0,0,0-.781,3V54h-1.621V43.3h1.318l.264,1.465h.078a3.31,3.31,0,0,1,1.4-1.226,4.537,4.537,0,0,1,2-.435,4.065,4.065,0,0,1,2.91.933,3.969,3.969,0,0,1,.977,2.983V54ZM244.3,43.3v1.025l-1.982.234a3.481,3.481,0,0,1,.7,2.139,3.164,3.164,0,0,1-1.074,2.51,4.333,4.333,0,0,1-2.949.938,4.911,4.911,0,0,1-.9-.078,1.6,1.6,0,0,0-1.035,1.377.7.7,0,0,0,.361.649,2.64,2.64,0,0,0,1.24.21h1.895a4.242,4.242,0,0,1,2.671.732,2.545,2.545,0,0,1,.933,2.129,3.039,3.039,0,0,1-1.426,2.71,7.631,7.631,0,0,1-4.16.933,5.684,5.684,0,0,1-3.237-.781,2.522,2.522,0,0,1-1.138-2.207,2.479,2.479,0,0,1,.625-1.689,3.182,3.182,0,0,1,1.758-.967,1.7,1.7,0,0,1-.688-.576,1.525,1.525,0,0,1-.278-.908,1.724,1.724,0,0,1,.313-1.025,3.285,3.285,0,0,1,.986-.85,2.891,2.891,0,0,1-1.353-1.162,3.415,3.415,0,0,1-.522-1.875,3.463,3.463,0,0,1,1.055-2.71,4.306,4.306,0,0,1,2.988-.952,5.434,5.434,0,0,1,1.514.2Zm-8.535,12.5a1.453,1.453,0,0,0,.732,1.318,4.042,4.042,0,0,0,2.1.449,5.859,5.859,0,0,0,3.022-.61A1.869,1.869,0,0,0,242.6,55.3a1.31,1.31,0,0,0-.537-1.206,4.172,4.172,0,0,0-2.021-.337H238.1a2.56,2.56,0,0,0-1.719.527A1.884,1.884,0,0,0,235.762,55.8Zm.879-9.072a2.179,2.179,0,0,0,.635,1.7,2.535,2.535,0,0,0,1.768.576,2.068,2.068,0,0,0,2.373-2.3,2.128,2.128,0,0,0-2.4-2.412,2.378,2.378,0,0,0-1.758.615A2.478,2.478,0,0,0,236.641,46.725ZM258.271,54l-.322-1.523h-.078a4.5,4.5,0,0,1-1.6,1.362,4.867,4.867,0,0,1-1.987.356,3.575,3.575,0,0,1-2.5-.82,2.992,2.992,0,0,1-.9-2.334q0-3.242,5.186-3.4l1.816-.059V46.92a2.714,2.714,0,0,0-.542-1.86,2.229,2.229,0,0,0-1.733-.6,7.063,7.063,0,0,0-3.027.82l-.5-1.24a7.618,7.618,0,0,1,1.733-.674,7.507,7.507,0,0,1,1.89-.244,4.077,4.077,0,0,1,2.837.85,3.546,3.546,0,0,1,.923,2.725V54Zm-3.662-1.143a3.29,3.29,0,0,0,2.378-.83,3.071,3.071,0,0,0,.864-2.324v-.967l-1.621.068a5.9,5.9,0,0,0-2.788.6,1.811,1.811,0,0,0-.854,1.655,1.67,1.67,0,0,0,.532,1.338A2.209,2.209,0,0,0,254.609,52.857Zm16.855,0a5.3,5.3,0,0,0,.83-.063,5.372,5.372,0,0,0,.635-.132V53.9a2.963,2.963,0,0,1-.776.21,5.83,5.83,0,0,1-.923.083q-3.105,0-3.105-3.271V44.557h-1.533v-.781l1.533-.674.684-2.285h.938V43.3h3.105v1.26h-3.105v6.3a2.167,2.167,0,0,0,.459,1.484A1.6,1.6,0,0,0,271.465,52.857Zm12.842-4.219a5.9,5.9,0,0,1-1.318,4.087,4.643,4.643,0,0,1-3.643,1.47,4.824,4.824,0,0,1-2.549-.674,4.447,4.447,0,0,1-1.719-1.934,6.739,6.739,0,0,1-.605-2.949,5.9,5.9,0,0,1,1.309-4.077,4.628,4.628,0,0,1,3.633-1.46,4.528,4.528,0,0,1,3.569,1.494A5.879,5.879,0,0,1,284.307,48.639Zm-8.154,0a5.08,5.08,0,0,0,.82,3.125,3.256,3.256,0,0,0,4.829,0,5.054,5.054,0,0,0,.825-3.13,4.973,4.973,0,0,0-.825-3.1,2.9,2.9,0,0,0-2.437-1.06,2.853,2.853,0,0,0-2.4,1.045A5.029,5.029,0,0,0,276.152,48.639Zm12.52-5.342V50.24a2.794,2.794,0,0,0,.6,1.953,2.427,2.427,0,0,0,1.865.645,3.043,3.043,0,0,0,2.456-.918,4.631,4.631,0,0,0,.776-3V43.3h1.621V54h-1.338l-.234-1.436h-.088a3.231,3.231,0,0,1-1.382,1.211,4.644,4.644,0,0,1-2.017.42A4.091,4.091,0,0,1,288,53.268a3.949,3.949,0,0,1-.972-2.969v-7Zm15.635-.2a6.343,6.343,0,0,1,1.279.117l-.225,1.5a5.522,5.522,0,0,0-1.172-.146,2.853,2.853,0,0,0-2.222,1.055,3.846,3.846,0,0,0-.923,2.627V54h-1.621V43.3h1.338l.186,1.982h.078a4.7,4.7,0,0,1,1.436-1.611A3.232,3.232,0,0,1,304.307,43.1Zm4.98,8.574.146.225q-.254.977-.732,2.271t-1,2.407h-1.221q.264-1.016.581-2.51t.444-2.393ZM326.426,54l-1.963-6.279q-.186-.576-.693-2.617h-.078q-.391,1.709-.684,2.637L320.986,54h-1.875l-2.92-10.7h1.7q1.035,4.033,1.577,6.143a24.89,24.89,0,0,1,.62,2.842h.078q.107-.557.347-1.44t.415-1.4l1.963-6.143h1.758l1.914,6.143a20.732,20.732,0,0,1,.742,2.822h.078a10.351,10.351,0,0,1,.21-1.084q.171-.732,2.036-7.881h1.68L328.35,54Zm13.4,0-.322-1.523h-.078a4.5,4.5,0,0,1-1.6,1.362,4.867,4.867,0,0,1-1.987.356,3.575,3.575,0,0,1-2.5-.82,2.992,2.992,0,0,1-.9-2.334q0-3.242,5.186-3.4l1.816-.059V46.92a2.714,2.714,0,0,0-.542-1.86,2.229,2.229,0,0,0-1.733-.6,7.063,7.063,0,0,0-3.027.82l-.5-1.24a7.618,7.618,0,0,1,1.733-.674,7.508,7.508,0,0,1,1.89-.244,4.077,4.077,0,0,1,2.837.85,3.546,3.546,0,0,1,.923,2.725V54Zm-3.662-1.143a3.29,3.29,0,0,0,2.378-.83A3.071,3.071,0,0,0,339.4,49.7v-.967l-1.621.068a5.9,5.9,0,0,0-2.788.6,1.811,1.811,0,0,0-.854,1.655,1.67,1.67,0,0,0,.532,1.338A2.209,2.209,0,0,0,336.162,52.857Zm11.66,0a5.3,5.3,0,0,0,.83-.063,5.372,5.372,0,0,0,.635-.132V53.9a2.963,2.963,0,0,1-.776.21,5.83,5.83,0,0,1-.923.083q-3.105,0-3.105-3.271V44.557h-1.533v-.781l1.533-.674.684-2.285h.938V43.3h3.105v1.26H346.1v6.3a2.167,2.167,0,0,0,.459,1.484A1.6,1.6,0,0,0,347.822,52.857ZM355.7,54.2a4.568,4.568,0,0,1-3.6-1.431,5.883,5.883,0,0,1-1.274-4.048,6.067,6.067,0,0,1,1.294-4.15,4.659,4.659,0,0,1,3.687-1.465,7.316,7.316,0,0,1,1.543.166,5.083,5.083,0,0,1,1.211.391l-.5,1.377a7.622,7.622,0,0,0-1.172-.356,5.232,5.232,0,0,0-1.123-.142q-3.262,0-3.262,4.16a4.954,4.954,0,0,0,.8,3.027,2.769,2.769,0,0,0,2.358,1.055,7.211,7.211,0,0,0,2.744-.576v1.436A5.849,5.849,0,0,1,355.7,54.2Zm12.568-.2V47.076a2.794,2.794,0,0,0-.6-1.953,2.427,2.427,0,0,0-1.865-.645,3.056,3.056,0,0,0-2.466.918,4.649,4.649,0,0,0-.776,3.008V54h-1.621V38.8h1.621v4.6a10.02,10.02,0,0,1-.078,1.377h.1a3.306,3.306,0,0,1,1.362-1.216,4.429,4.429,0,0,1,2.017-.444,4.13,4.13,0,0,1,2.944.933,3.928,3.928,0,0,1,.981,2.964V54Zm6.572,0h-1.621V43.3h1.621Zm-1.758-13.6a1.077,1.077,0,0,1,.273-.815,1.012,1.012,0,0,1,1.357,0A1.057,1.057,0,0,1,375,40.4a1.074,1.074,0,0,1-.283.815.992.992,0,0,1-1.357,0A1.1,1.1,0,0,1,373.086,40.4ZM385.605,54V47.076a2.794,2.794,0,0,0-.6-1.953,2.427,2.427,0,0,0-1.865-.645,3.076,3.076,0,0,0-2.461.908,4.585,4.585,0,0,0-.781,3V54h-1.621V43.3H379.6l.264,1.465h.078a3.31,3.31,0,0,1,1.4-1.226,4.537,4.537,0,0,1,2-.435,4.065,4.065,0,0,1,2.91.933,3.969,3.969,0,0,1,.977,2.983V54Zm13.711-10.7v1.025l-1.982.234a3.481,3.481,0,0,1,.7,2.139,3.164,3.164,0,0,1-1.074,2.51,4.333,4.333,0,0,1-2.949.938,4.911,4.911,0,0,1-.9-.078,1.6,1.6,0,0,0-1.035,1.377.7.7,0,0,0,.361.649,2.639,2.639,0,0,0,1.24.21h1.895a4.242,4.242,0,0,1,2.671.732,2.545,2.545,0,0,1,.933,2.129,3.039,3.039,0,0,1-1.426,2.71,7.631,7.631,0,0,1-4.16.933,5.684,5.684,0,0,1-3.237-.781,2.522,2.522,0,0,1-1.138-2.207,2.479,2.479,0,0,1,.625-1.689,3.182,3.182,0,0,1,1.758-.967,1.7,1.7,0,0,1-.688-.576,1.525,1.525,0,0,1-.278-.908,1.724,1.724,0,0,1,.313-1.025,3.286,3.286,0,0,1,.986-.85,2.891,2.891,0,0,1-1.353-1.162,3.415,3.415,0,0,1-.522-1.875,3.463,3.463,0,0,1,1.055-2.71A4.306,4.306,0,0,1,394.1,43.1a5.434,5.434,0,0,1,1.514.2Zm-8.535,12.5a1.453,1.453,0,0,0,.732,1.318,4.042,4.042,0,0,0,2.1.449,5.859,5.859,0,0,0,3.022-.61,1.869,1.869,0,0,0,.981-1.655,1.31,1.31,0,0,0-.537-1.206,4.172,4.172,0,0,0-2.021-.337h-1.943a2.56,2.56,0,0,0-1.719.527A1.884,1.884,0,0,0,390.781,55.8Zm.879-9.072a2.179,2.179,0,0,0,.635,1.7,2.535,2.535,0,0,0,1.768.576,2.068,2.068,0,0,0,2.373-2.3,2.128,2.128,0,0,0-2.4-2.412,2.378,2.378,0,0,0-1.758.615A2.478,2.478,0,0,0,391.66,46.725ZM4.063,81,0,70.3H1.738l2.3,6.348a30.044,30.044,0,0,1,.918,2.891h.078a21.834,21.834,0,0,1,.679-2.144q.571-1.626,2.563-7.095H10.02L5.957,81Zm9.3,0H11.738V70.3h1.621ZM11.6,67.4a1.077,1.077,0,0,1,.273-.815,1.012,1.012,0,0,1,1.357,0,1.057,1.057,0,0,1,.283.811,1.074,1.074,0,0,1-.283.815.992.992,0,0,1-1.357,0A1.1,1.1,0,0,1,11.6,67.4Zm12.48,12.168h-.088A3.809,3.809,0,0,1,20.635,81.2a3.974,3.974,0,0,1-3.267-1.436A6.319,6.319,0,0,1,16.2,75.678a6.426,6.426,0,0,1,1.172-4.111A3.943,3.943,0,0,1,20.635,70.1a3.892,3.892,0,0,1,3.34,1.582H24.1l-.068-.771-.039-.752V65.8h1.621V81H24.3Zm-3.242.273a2.951,2.951,0,0,0,2.407-.9,4.565,4.565,0,0,0,.747-2.915v-.342a5.371,5.371,0,0,0-.757-3.247,2.874,2.874,0,0,0-2.417-.972,2.481,2.481,0,0,0-2.183,1.108,5.511,5.511,0,0,0-.757,3.13,5.284,5.284,0,0,0,.752,3.1A2.547,2.547,0,0,0,20.84,79.838ZM33.574,81.2a4.917,4.917,0,0,1-3.745-1.445,5.6,5.6,0,0,1-1.372-4.014,6.205,6.205,0,0,1,1.274-4.111A4.233,4.233,0,0,1,33.154,70.1a4.036,4.036,0,0,1,3.184,1.323,5.072,5.072,0,0,1,1.172,3.491v1.025H30.137a4.243,4.243,0,0,0,.952,2.861,3.293,3.293,0,0,0,2.544.977,8.621,8.621,0,0,0,3.418-.723V80.5a8.579,8.579,0,0,1-1.626.532A9.138,9.138,0,0,1,33.574,81.2Zm-.439-9.736a2.647,2.647,0,0,0-2.056.84,3.871,3.871,0,0,0-.9,2.324h5.6a3.564,3.564,0,0,0-.684-2.349A2.406,2.406,0,0,0,33.135,71.459Zm16.377,4.18a5.9,5.9,0,0,1-1.318,4.087,4.643,4.643,0,0,1-3.643,1.47A4.824,4.824,0,0,1,42,80.521a4.447,4.447,0,0,1-1.719-1.934,6.739,6.739,0,0,1-.605-2.949,5.9,5.9,0,0,1,1.309-4.077,4.628,4.628,0,0,1,3.633-1.46A4.528,4.528,0,0,1,48.188,71.6,5.879,5.879,0,0,1,49.512,75.639Zm-8.154,0a5.08,5.08,0,0,0,.82,3.125,3.256,3.256,0,0,0,4.829,0,5.054,5.054,0,0,0,.825-3.13,4.973,4.973,0,0,0-.825-3.1,2.9,2.9,0,0,0-2.437-1.06,2.853,2.853,0,0,0-2.4,1.045A5.029,5.029,0,0,0,41.357,75.639Zm17.9,2.441a2.681,2.681,0,0,1-1.113,2.3,5.233,5.233,0,0,1-3.125.811,6.8,6.8,0,0,1-3.32-.674v-1.5a8.03,8.03,0,0,0,1.655.615,6.912,6.912,0,0,0,1.7.225,3.865,3.865,0,0,0,1.953-.405,1.4,1.4,0,0,0,.142-2.3,8.526,8.526,0,0,0-2.114-1.05,11.465,11.465,0,0,1-2.124-.972,2.9,2.9,0,0,1-.937-.942,2.458,2.458,0,0,1-.308-1.26,2.4,2.4,0,0,1,1.064-2.065,4.96,4.96,0,0,1,2.92-.757,8.544,8.544,0,0,1,3.379.7l-.576,1.318a7.756,7.756,0,0,0-2.92-.664,3.359,3.359,0,0,0-1.738.361,1.117,1.117,0,0,0-.586,1,1.213,1.213,0,0,0,.22.732,2.168,2.168,0,0,0,.708.576,15.823,15.823,0,0,0,1.875.791,7,7,0,0,1,2.573,1.4A2.463,2.463,0,0,1,59.258,78.08Zm4.336.6.146.225q-.254.977-.732,2.271t-1,2.407H60.791q.264-1.016.581-2.51t.444-2.393ZM81.23,75.639a5.9,5.9,0,0,1-1.318,4.087A4.643,4.643,0,0,1,76.27,81.2a4.824,4.824,0,0,1-2.549-.674A4.447,4.447,0,0,1,72,78.588a6.739,6.739,0,0,1-.605-2.949,5.9,5.9,0,0,1,1.309-4.077,4.628,4.628,0,0,1,3.633-1.46A4.528,4.528,0,0,1,79.907,71.6,5.879,5.879,0,0,1,81.23,75.639Zm-8.154,0a5.08,5.08,0,0,0,.82,3.125,3.256,3.256,0,0,0,4.829,0,5.054,5.054,0,0,0,.825-3.13,4.973,4.973,0,0,0-.825-3.1,2.9,2.9,0,0,0-2.437-1.06,2.853,2.853,0,0,0-2.4,1.045A5.029,5.029,0,0,0,73.076,75.639ZM88.955,70.1a6.343,6.343,0,0,1,1.279.117l-.225,1.5a5.522,5.522,0,0,0-1.172-.146,2.853,2.853,0,0,0-2.222,1.055,3.846,3.846,0,0,0-.923,2.627V81H84.072V70.3H85.41l.186,1.982h.078a4.7,4.7,0,0,1,1.436-1.611A3.232,3.232,0,0,1,88.955,70.1Zm15.762,9.463h-.088A3.809,3.809,0,0,1,101.27,81.2,3.974,3.974,0,0,1,98,79.76a6.319,6.319,0,0,1-1.167-4.082,6.426,6.426,0,0,1,1.172-4.111A3.943,3.943,0,0,1,101.27,70.1a3.892,3.892,0,0,1,3.34,1.582h.127l-.068-.771-.039-.752V65.8h1.621V81h-1.318Zm-3.242.273a2.951,2.951,0,0,0,2.407-.9,4.565,4.565,0,0,0,.747-2.915v-.342a5.371,5.371,0,0,0-.757-3.247,2.874,2.874,0,0,0-2.417-.972,2.481,2.481,0,0,0-2.183,1.108,5.511,5.511,0,0,0-.757,3.13,5.284,5.284,0,0,0,.752,3.1A2.547,2.547,0,0,0,101.475,79.838Zm17.451-4.2a5.9,5.9,0,0,1-1.318,4.087,4.643,4.643,0,0,1-3.643,1.47,4.824,4.824,0,0,1-2.549-.674,4.447,4.447,0,0,1-1.719-1.934,6.739,6.739,0,0,1-.605-2.949,5.9,5.9,0,0,1,1.309-4.077,4.628,4.628,0,0,1,3.633-1.46A4.528,4.528,0,0,1,117.6,71.6,5.879,5.879,0,0,1,118.926,75.639Zm-8.154,0a5.08,5.08,0,0,0,.82,3.125,3.256,3.256,0,0,0,4.829,0,5.054,5.054,0,0,0,.825-3.13,4.973,4.973,0,0,0-.825-3.1,2.9,2.9,0,0,0-2.437-1.06,2.853,2.853,0,0,0-2.4,1.045A5.029,5.029,0,0,0,110.771,75.639ZM130.508,81l-1.963-6.279q-.186-.576-.693-2.617h-.078q-.391,1.709-.684,2.637L125.068,81h-1.875l-2.92-10.7h1.7q1.035,4.033,1.577,6.143a24.888,24.888,0,0,1,.62,2.842h.078q.107-.557.347-1.44t.415-1.4l1.963-6.143h1.758l1.914,6.143a20.732,20.732,0,0,1,.742,2.822h.078a10.351,10.351,0,0,1,.21-1.084q.171-.732,2.036-7.881h1.68L132.432,81Zm14.141,0V74.076a2.793,2.793,0,0,0-.6-1.953,2.427,2.427,0,0,0-1.865-.645,3.076,3.076,0,0,0-2.461.908,4.585,4.585,0,0,0-.781,3V81h-1.621V70.3h1.318l.264,1.465h.078a3.31,3.31,0,0,1,1.4-1.226,4.537,4.537,0,0,1,2-.435,4.065,4.065,0,0,1,2.91.933,3.969,3.969,0,0,1,.977,2.983V81Zm6.572,0H149.6V65.8h1.621ZM163.9,75.639a5.9,5.9,0,0,1-1.318,4.087,4.643,4.643,0,0,1-3.643,1.47,4.824,4.824,0,0,1-2.549-.674,4.447,4.447,0,0,1-1.719-1.934,6.739,6.739,0,0,1-.605-2.949,5.9,5.9,0,0,1,1.309-4.077A4.628,4.628,0,0,1,159,70.1a4.528,4.528,0,0,1,3.569,1.494A5.879,5.879,0,0,1,163.9,75.639Zm-8.154,0a5.08,5.08,0,0,0,.82,3.125,3.256,3.256,0,0,0,4.829,0,5.054,5.054,0,0,0,.825-3.13,4.973,4.973,0,0,0-.825-3.1,2.9,2.9,0,0,0-2.437-1.06,2.853,2.853,0,0,0-2.4,1.045A5.029,5.029,0,0,0,155.742,75.639ZM173.32,81,173,79.477h-.078a4.5,4.5,0,0,1-1.6,1.362,4.867,4.867,0,0,1-1.987.356,3.575,3.575,0,0,1-2.5-.82,2.992,2.992,0,0,1-.9-2.334q0-3.242,5.186-3.4l1.816-.059V73.92a2.714,2.714,0,0,0-.542-1.86,2.229,2.229,0,0,0-1.733-.6,7.063,7.063,0,0,0-3.027.82l-.5-1.24a7.617,7.617,0,0,1,1.733-.674,7.508,7.508,0,0,1,1.89-.244,4.077,4.077,0,0,1,2.837.85,3.546,3.546,0,0,1,.923,2.725V81Zm-3.662-1.143a3.29,3.29,0,0,0,2.378-.83A3.071,3.071,0,0,0,172.9,76.7v-.967l-1.621.068a5.9,5.9,0,0,0-2.788.6,1.811,1.811,0,0,0-.854,1.655,1.67,1.67,0,0,0,.532,1.338A2.209,2.209,0,0,0,169.658,79.857Zm15.488-.293h-.088A3.809,3.809,0,0,1,181.7,81.2a3.974,3.974,0,0,1-3.267-1.436,6.319,6.319,0,0,1-1.167-4.082,6.426,6.426,0,0,1,1.172-4.111A3.943,3.943,0,0,1,181.7,70.1a3.892,3.892,0,0,1,3.34,1.582h.127l-.068-.771-.039-.752V65.8h1.621V81h-1.318Zm-3.242.273a2.951,2.951,0,0,0,2.407-.9,4.565,4.565,0,0,0,.747-2.915v-.342a5.371,5.371,0,0,0-.757-3.247,2.874,2.874,0,0,0-2.417-.972,2.481,2.481,0,0,0-2.183,1.108,5.511,5.511,0,0,0-.757,3.13,5.284,5.284,0,0,0,.752,3.1A2.547,2.547,0,0,0,181.9,79.838ZM191.738,81h-1.621V70.3h1.621ZM189.98,67.4a1.077,1.077,0,0,1,.273-.815,1.012,1.012,0,0,1,1.357,0,1.057,1.057,0,0,1,.283.811,1.074,1.074,0,0,1-.283.815.992.992,0,0,1-1.357,0A1.1,1.1,0,0,1,189.98,67.4ZM202.5,81V74.076a2.793,2.793,0,0,0-.6-1.953,2.427,2.427,0,0,0-1.865-.645,3.076,3.076,0,0,0-2.461.908,4.585,4.585,0,0,0-.781,3V81h-1.621V70.3h1.318l.264,1.465h.078a3.31,3.31,0,0,1,1.4-1.226,4.537,4.537,0,0,1,2-.435,4.065,4.065,0,0,1,2.91.933,3.969,3.969,0,0,1,.977,2.983V81Zm13.711-10.7v1.025l-1.982.234a3.481,3.481,0,0,1,.7,2.139,3.164,3.164,0,0,1-1.074,2.51,4.333,4.333,0,0,1-2.949.938,4.911,4.911,0,0,1-.9-.078,1.6,1.6,0,0,0-1.035,1.377.7.7,0,0,0,.361.649,2.639,2.639,0,0,0,1.24.21h1.895a4.242,4.242,0,0,1,2.671.732,2.545,2.545,0,0,1,.933,2.129,3.039,3.039,0,0,1-1.426,2.71,7.631,7.631,0,0,1-4.16.933,5.684,5.684,0,0,1-3.237-.781,2.522,2.522,0,0,1-1.138-2.207,2.479,2.479,0,0,1,.625-1.689,3.182,3.182,0,0,1,1.758-.967,1.7,1.7,0,0,1-.688-.576,1.525,1.525,0,0,1-.278-.908,1.724,1.724,0,0,1,.313-1.025,3.285,3.285,0,0,1,.986-.85,2.891,2.891,0,0,1-1.353-1.162,3.415,3.415,0,0,1-.522-1.875,3.463,3.463,0,0,1,1.055-2.71A4.306,4.306,0,0,1,211,70.1a5.434,5.434,0,0,1,1.514.2Zm-8.535,12.5a1.453,1.453,0,0,0,.732,1.318,4.042,4.042,0,0,0,2.1.449,5.859,5.859,0,0,0,3.022-.61,1.869,1.869,0,0,0,.981-1.655,1.31,1.31,0,0,0-.537-1.206,4.172,4.172,0,0,0-2.021-.337H210.01a2.56,2.56,0,0,0-1.719.527A1.884,1.884,0,0,0,207.676,82.8Zm.879-9.072a2.179,2.179,0,0,0,.635,1.7,2.535,2.535,0,0,0,1.768.576,2.068,2.068,0,0,0,2.373-2.3,2.128,2.128,0,0,0-2.4-2.412,2.378,2.378,0,0,0-1.758.615A2.478,2.478,0,0,0,208.555,73.725ZM230.928,81V74.076a2.793,2.793,0,0,0-.6-1.953,2.427,2.427,0,0,0-1.865-.645A3.056,3.056,0,0,0,226,72.4a4.649,4.649,0,0,0-.776,3.008V81H223.6V65.8h1.621v4.6a10.023,10.023,0,0,1-.078,1.377h.1a3.306,3.306,0,0,1,1.362-1.216,4.429,4.429,0,0,1,2.017-.444,4.13,4.13,0,0,1,2.944.933,3.928,3.928,0,0,1,.981,2.964V81Zm9.473.2a4.918,4.918,0,0,1-3.745-1.445,5.6,5.6,0,0,1-1.372-4.014,6.205,6.205,0,0,1,1.274-4.111A4.233,4.233,0,0,1,239.98,70.1a4.036,4.036,0,0,1,3.184,1.323,5.072,5.072,0,0,1,1.172,3.491v1.025h-7.373a4.243,4.243,0,0,0,.952,2.861,3.293,3.293,0,0,0,2.544.977,8.621,8.621,0,0,0,3.418-.723V80.5a8.579,8.579,0,0,1-1.626.532A9.138,9.138,0,0,1,240.4,81.2Zm-.439-9.736a2.647,2.647,0,0,0-2.056.84,3.871,3.871,0,0,0-.9,2.324h5.6a3.564,3.564,0,0,0-.684-2.349A2.406,2.406,0,0,0,239.961,71.459ZM248.721,81H247.1V65.8h1.621Zm8.418.2a4.632,4.632,0,0,1-1.909-.386,3.59,3.59,0,0,1-1.45-1.187h-.117a14.356,14.356,0,0,1,.117,1.777v4.4h-1.621V70.3h1.318l.225,1.465h.078a3.765,3.765,0,0,1,1.455-1.27,4.423,4.423,0,0,1,1.9-.391,3.956,3.956,0,0,1,3.286,1.455,6.406,6.406,0,0,1,1.157,4.082,6.369,6.369,0,0,1-1.177,4.1A3.963,3.963,0,0,1,257.139,81.2Zm-.234-9.717a2.873,2.873,0,0,0-2.373.908,4.673,4.673,0,0,0-.752,2.891v.361a5.356,5.356,0,0,0,.752,3.228,2.86,2.86,0,0,0,2.412.972,2.508,2.508,0,0,0,2.173-1.123,5.325,5.325,0,0,0,.786-3.1,5.126,5.126,0,0,0-.786-3.071A2.586,2.586,0,0,0,256.9,71.479Zm12.334.078h-2.725V81h-1.621V71.557h-1.914v-.732l1.914-.586v-.6q0-3.945,3.447-3.945a7.094,7.094,0,0,1,1.992.342l-.42,1.3a5.363,5.363,0,0,0-1.6-.3,1.56,1.56,0,0,0-1.357.61,3.406,3.406,0,0,0-.439,1.958V70.3h2.725Zm3.477-1.26V77.24a2.794,2.794,0,0,0,.6,1.953,2.427,2.427,0,0,0,1.865.645,3.043,3.043,0,0,0,2.456-.918,4.631,4.631,0,0,0,.776-3V70.3h1.621V81h-1.338l-.234-1.436h-.088a3.231,3.231,0,0,1-1.382,1.211,4.644,4.644,0,0,1-2.017.42,4.091,4.091,0,0,1-2.925-.928,3.949,3.949,0,0,1-.972-2.969v-7ZM285.088,81h-1.621V65.8h1.621ZM298.6,70.1a6.343,6.343,0,0,1,1.279.117l-.225,1.5a5.522,5.522,0,0,0-1.172-.146,2.853,2.853,0,0,0-2.222,1.055,3.846,3.846,0,0,0-.923,2.627V81h-1.621V70.3h1.338l.186,1.982h.078a4.7,4.7,0,0,1,1.436-1.611A3.232,3.232,0,0,1,298.6,70.1Zm7.8,11.094a4.917,4.917,0,0,1-3.745-1.445,5.6,5.6,0,0,1-1.372-4.014,6.205,6.205,0,0,1,1.274-4.111,4.233,4.233,0,0,1,3.423-1.523,4.036,4.036,0,0,1,3.184,1.323,5.072,5.072,0,0,1,1.172,3.491v1.025h-7.373a4.243,4.243,0,0,0,.952,2.861,3.293,3.293,0,0,0,2.544.977,8.621,8.621,0,0,0,3.418-.723V80.5a8.578,8.578,0,0,1-1.626.532A9.138,9.138,0,0,1,306.406,81.2Zm-.439-9.736a2.647,2.647,0,0,0-2.056.84,3.871,3.871,0,0,0-.9,2.324h5.6a3.564,3.564,0,0,0-.684-2.349A2.406,2.406,0,0,0,305.967,71.459ZM320.01,78.08a2.681,2.681,0,0,1-1.113,2.3,5.233,5.233,0,0,1-3.125.811,6.8,6.8,0,0,1-3.32-.674v-1.5a8.029,8.029,0,0,0,1.655.615,6.912,6.912,0,0,0,1.7.225,3.865,3.865,0,0,0,1.953-.405,1.4,1.4,0,0,0,.142-2.3,8.525,8.525,0,0,0-2.114-1.05,11.465,11.465,0,0,1-2.124-.972,2.9,2.9,0,0,1-.937-.942,2.458,2.458,0,0,1-.308-1.26,2.4,2.4,0,0,1,1.064-2.065,4.96,4.96,0,0,1,2.92-.757,8.543,8.543,0,0,1,3.379.7l-.576,1.318a7.756,7.756,0,0,0-2.92-.664,3.359,3.359,0,0,0-1.738.361,1.117,1.117,0,0,0-.586,1,1.213,1.213,0,0,0,.22.732,2.168,2.168,0,0,0,.708.576,15.825,15.825,0,0,0,1.875.791,7,7,0,0,1,2.573,1.4A2.463,2.463,0,0,1,320.01,78.08Zm11.875-2.441a5.9,5.9,0,0,1-1.318,4.087,4.643,4.643,0,0,1-3.643,1.47,4.824,4.824,0,0,1-2.549-.674,4.447,4.447,0,0,1-1.719-1.934,6.739,6.739,0,0,1-.605-2.949,5.9,5.9,0,0,1,1.309-4.077,4.628,4.628,0,0,1,3.633-1.46,4.528,4.528,0,0,1,3.569,1.494A5.879,5.879,0,0,1,331.885,75.639Zm-8.154,0a5.08,5.08,0,0,0,.82,3.125,3.256,3.256,0,0,0,4.829,0,5.054,5.054,0,0,0,.825-3.13,4.973,4.973,0,0,0-.825-3.1,2.9,2.9,0,0,0-2.437-1.06,2.853,2.853,0,0,0-2.4,1.045A5.029,5.029,0,0,0,323.73,75.639ZM336.25,70.3V77.24a2.794,2.794,0,0,0,.6,1.953,2.427,2.427,0,0,0,1.865.645,3.043,3.043,0,0,0,2.456-.918,4.631,4.631,0,0,0,.776-3V70.3h1.621V81h-1.338l-.234-1.436H341.9a3.231,3.231,0,0,1-1.382,1.211,4.644,4.644,0,0,1-2.017.42,4.091,4.091,0,0,1-2.925-.928,3.949,3.949,0,0,1-.972-2.969v-7Zm15.635-.2a6.343,6.343,0,0,1,1.279.117l-.225,1.5a5.522,5.522,0,0,0-1.172-.146,2.853,2.853,0,0,0-2.222,1.055,3.846,3.846,0,0,0-.923,2.627V81H347V70.3h1.338l.186,1.982h.078a4.7,4.7,0,0,1,1.436-1.611A3.232,3.232,0,0,1,351.885,70.1ZM359.443,81.2a4.568,4.568,0,0,1-3.6-1.431,5.883,5.883,0,0,1-1.274-4.048,6.067,6.067,0,0,1,1.294-4.15,4.659,4.659,0,0,1,3.687-1.465,7.315,7.315,0,0,1,1.543.166,5.083,5.083,0,0,1,1.211.391l-.5,1.377a7.622,7.622,0,0,0-1.172-.356,5.232,5.232,0,0,0-1.123-.142q-3.262,0-3.262,4.16a4.954,4.954,0,0,0,.8,3.027,2.769,2.769,0,0,0,2.358,1.055,7.211,7.211,0,0,0,2.744-.576v1.436A5.849,5.849,0,0,1,359.443,81.2Zm9.766,0a4.917,4.917,0,0,1-3.745-1.445,5.6,5.6,0,0,1-1.372-4.014,6.205,6.205,0,0,1,1.274-4.111,4.233,4.233,0,0,1,3.423-1.523,4.036,4.036,0,0,1,3.184,1.323,5.072,5.072,0,0,1,1.172,3.491v1.025h-7.373a4.243,4.243,0,0,0,.952,2.861,3.293,3.293,0,0,0,2.544.977,8.621,8.621,0,0,0,3.418-.723V80.5a8.578,8.578,0,0,1-1.626.532A9.138,9.138,0,0,1,369.209,81.2Zm-.439-9.736a2.647,2.647,0,0,0-2.056.84,3.871,3.871,0,0,0-.9,2.324h5.6a3.564,3.564,0,0,0-.684-2.349A2.406,2.406,0,0,0,368.77,71.459Zm14.043,6.621a2.681,2.681,0,0,1-1.113,2.3,5.233,5.233,0,0,1-3.125.811,6.8,6.8,0,0,1-3.32-.674v-1.5a8.029,8.029,0,0,0,1.655.615,6.912,6.912,0,0,0,1.7.225,3.865,3.865,0,0,0,1.953-.405,1.4,1.4,0,0,0,.142-2.3,8.525,8.525,0,0,0-2.114-1.05,11.465,11.465,0,0,1-2.124-.972,2.9,2.9,0,0,1-.937-.942,2.458,2.458,0,0,1-.308-1.26,2.4,2.4,0,0,1,1.064-2.065,4.96,4.96,0,0,1,2.92-.757,8.543,8.543,0,0,1,3.379.7l-.576,1.318a7.756,7.756,0,0,0-2.92-.664,3.359,3.359,0,0,0-1.738.361,1.117,1.117,0,0,0-.586,1,1.213,1.213,0,0,0,.22.732,2.168,2.168,0,0,0,.708.576,15.825,15.825,0,0,0,1.875.791,7,7,0,0,1,2.573,1.4A2.463,2.463,0,0,1,382.813,78.08Zm2.4,1.885a1.455,1.455,0,0,1,.3-.991,1.08,1.08,0,0,1,.854-.337,1.155,1.155,0,0,1,.884.337,1.4,1.4,0,0,1,.317.991,1.37,1.37,0,0,1-.322.977,1.281,1.281,0,0,1-1.7.034A1.337,1.337,0,0,1,385.215,79.965Z" transform="translate(2242 225)"/>
    <path id="Path_13" data-name="Path 13" class="cls-3" d="M23.078,0H20.453L15.844-15.3q-.328-1.016-.734-2.562a14.945,14.945,0,0,1-.422-1.859A35.582,35.582,0,0,1,13.594-15.2L9.125,0H6.5L.422-22.844H3.234L6.844-8.734A52.474,52.474,0,0,1,7.938-3.359a38.818,38.818,0,0,1,1.25-5.594l4.094-13.891h2.813l4.3,14.016a42.607,42.607,0,0,1,1.266,5.469,46.848,46.848,0,0,1,1.125-5.406l3.594-14.078h2.813ZM39.609.313A7.868,7.868,0,0,1,33.617-2a8.952,8.952,0,0,1-2.2-6.422A9.928,9.928,0,0,1,33.461-15a6.773,6.773,0,0,1,5.477-2.437,6.458,6.458,0,0,1,5.094,2.117,8.114,8.114,0,0,1,1.875,5.586v1.641h-11.8a6.788,6.788,0,0,0,1.523,4.578A5.269,5.269,0,0,0,39.7-1.953a13.793,13.793,0,0,0,5.469-1.156V-.8a13.726,13.726,0,0,1-2.6.852A14.62,14.62,0,0,1,39.609.313Zm-.7-15.578a4.236,4.236,0,0,0-3.289,1.344A6.194,6.194,0,0,0,34.172-10.2h8.953a5.7,5.7,0,0,0-1.094-3.758A3.85,3.85,0,0,0,38.906-15.266ZM52.922,0H50.328V-24.312h2.594ZM65.266.313a7.309,7.309,0,0,1-5.758-2.289,9.413,9.413,0,0,1-2.039-6.477,9.707,9.707,0,0,1,2.07-6.641,7.454,7.454,0,0,1,5.9-2.344,11.7,11.7,0,0,1,2.469.266,8.133,8.133,0,0,1,1.938.625l-.8,2.2a12.2,12.2,0,0,0-1.875-.57,8.372,8.372,0,0,0-1.8-.227q-5.219,0-5.219,6.656A7.926,7.926,0,0,0,61.43-3.641,4.43,4.43,0,0,0,65.2-1.953a11.537,11.537,0,0,0,4.391-.922v2.3A9.358,9.358,0,0,1,65.266.313ZM88.438-8.578a9.447,9.447,0,0,1-2.109,6.539A7.429,7.429,0,0,1,80.5.313,7.719,7.719,0,0,1,76.422-.766a7.116,7.116,0,0,1-2.75-3.094A10.782,10.782,0,0,1,72.7-8.578,9.432,9.432,0,0,1,74.8-15.1a7.4,7.4,0,0,1,5.813-2.336,7.244,7.244,0,0,1,5.711,2.391A9.406,9.406,0,0,1,88.438-8.578Zm-13.047,0a8.129,8.129,0,0,0,1.313,5,4.556,4.556,0,0,0,3.859,1.719A4.586,4.586,0,0,0,84.43-3.57a8.087,8.087,0,0,0,1.32-5.008,7.957,7.957,0,0,0-1.32-4.961,4.639,4.639,0,0,0-3.9-1.7,4.565,4.565,0,0,0-3.844,1.672A8.046,8.046,0,0,0,75.391-8.578ZM114.813,0V-11.141a4.624,4.624,0,0,0-.875-3.07,3.384,3.384,0,0,0-2.719-1.023,4.389,4.389,0,0,0-3.578,1.391,6.609,6.609,0,0,0-1.156,4.281V0h-2.594V-11.141a4.624,4.624,0,0,0-.875-3.07,3.405,3.405,0,0,0-2.734-1.023,4.235,4.235,0,0,0-3.57,1.461q-1.133,1.461-1.133,4.789V0H92.984V-17.125h2.109l.422,2.344h.125a5.1,5.1,0,0,1,2.07-1.953,6.325,6.325,0,0,1,2.992-.7q4.016,0,5.25,2.906h.125a5.461,5.461,0,0,1,2.219-2.125,6.885,6.885,0,0,1,3.313-.781,5.8,5.8,0,0,1,4.352,1.492q1.445,1.492,1.445,4.773V0Zm15.172.313A7.868,7.868,0,0,1,123.992-2a8.952,8.952,0,0,1-2.2-6.422A9.928,9.928,0,0,1,123.836-15a6.773,6.773,0,0,1,5.477-2.437,6.458,6.458,0,0,1,5.094,2.117,8.114,8.114,0,0,1,1.875,5.586v1.641h-11.8a6.788,6.788,0,0,0,1.523,4.578,5.269,5.269,0,0,0,4.07,1.563,13.793,13.793,0,0,0,5.469-1.156V-.8a13.726,13.726,0,0,1-2.6.852A14.62,14.62,0,0,1,129.984.313Zm-.7-15.578a4.236,4.236,0,0,0-3.289,1.344,6.194,6.194,0,0,0-1.445,3.719H133.5a5.7,5.7,0,0,0-1.094-3.758A3.85,3.85,0,0,0,129.281-15.266ZM154.547-1.828a8.473,8.473,0,0,0,1.328-.1,8.6,8.6,0,0,0,1.016-.211V-.156a4.741,4.741,0,0,1-1.242.336,9.328,9.328,0,0,1-1.477.133q-4.969,0-4.969-5.234V-15.109H146.75v-1.25l2.453-1.078,1.094-3.656h1.5v3.969h4.969v2.016H151.8V-5.031a3.467,3.467,0,0,0,.734,2.375A2.556,2.556,0,0,0,154.547-1.828Zm20.547-6.75a9.447,9.447,0,0,1-2.109,6.539A7.429,7.429,0,0,1,167.156.313a7.719,7.719,0,0,1-4.078-1.078,7.116,7.116,0,0,1-2.75-3.094,10.782,10.782,0,0,1-.969-4.719,9.432,9.432,0,0,1,2.094-6.523,7.4,7.4,0,0,1,5.813-2.336,7.244,7.244,0,0,1,5.711,2.391A9.406,9.406,0,0,1,175.094-8.578Zm-13.047,0a8.129,8.129,0,0,0,1.313,5,4.556,4.556,0,0,0,3.859,1.719,4.586,4.586,0,0,0,3.867-1.711,8.087,8.087,0,0,0,1.32-5.008,7.957,7.957,0,0,0-1.32-4.961,4.639,4.639,0,0,0-3.9-1.7,4.565,4.565,0,0,0-3.844,1.672A8.046,8.046,0,0,0,162.047-8.578Zm26.3-14.266H194.8q4.547,0,6.578,1.359a4.8,4.8,0,0,1,2.031,4.3,4.965,4.965,0,0,1-1.133,3.352,5.453,5.453,0,0,1-3.3,1.711v.156q5.2.891,5.2,5.469a5.873,5.873,0,0,1-2.07,4.781A8.812,8.812,0,0,1,196.313,0h-7.969ZM191-13.062h4.375a7.122,7.122,0,0,0,4.047-.883,3.408,3.408,0,0,0,1.234-2.977,3.012,3.012,0,0,0-1.375-2.773,8.592,8.592,0,0,0-4.375-.852H191Zm0,2.25v8.547h4.766a6.788,6.788,0,0,0,4.164-1.07,3.952,3.952,0,0,0,1.4-3.352,3.549,3.549,0,0,0-1.43-3.125,7.641,7.641,0,0,0-4.352-1Zm25.5-6.625a10.149,10.149,0,0,1,2.047.188l-.359,2.406a8.835,8.835,0,0,0-1.875-.234,4.564,4.564,0,0,0-3.555,1.688,6.153,6.153,0,0,0-1.477,4.2V0h-2.594V-17.125h2.141l.3,3.172h.125a7.528,7.528,0,0,1,2.3-2.578A5.171,5.171,0,0,1,216.5-17.437Zm20.031,8.859a9.447,9.447,0,0,1-2.109,6.539A7.429,7.429,0,0,1,228.594.313a7.719,7.719,0,0,1-4.078-1.078,7.116,7.116,0,0,1-2.75-3.094,10.782,10.782,0,0,1-.969-4.719,9.432,9.432,0,0,1,2.094-6.523,7.4,7.4,0,0,1,5.813-2.336,7.244,7.244,0,0,1,5.711,2.391A9.406,9.406,0,0,1,236.531-8.578Zm-13.047,0a8.129,8.129,0,0,0,1.313,5,4.556,4.556,0,0,0,3.859,1.719,4.586,4.586,0,0,0,3.867-1.711,8.087,8.087,0,0,0,1.32-5.008,7.957,7.957,0,0,0-1.32-4.961,4.639,4.639,0,0,0-3.9-1.7,4.565,4.565,0,0,0-3.844,1.672A8.046,8.046,0,0,0,223.484-8.578Zm20.156-.187a30.5,30.5,0,0,1,2.047-2.5l5.531-5.859H254.3l-6.937,7.3L254.781,0h-3.141l-6.047-8.094-1.953,1.688V0h-2.562V-24.312h2.563v12.891q0,.859-.125,2.656ZM265.109.313A7.868,7.868,0,0,1,259.117-2a8.952,8.952,0,0,1-2.2-6.422A9.928,9.928,0,0,1,258.961-15a6.773,6.773,0,0,1,5.477-2.437,6.458,6.458,0,0,1,5.094,2.117,8.114,8.114,0,0,1,1.875,5.586v1.641h-11.8a6.788,6.788,0,0,0,1.523,4.578,5.269,5.269,0,0,0,4.07,1.563,13.793,13.793,0,0,0,5.469-1.156V-.8a13.726,13.726,0,0,1-2.6.852A14.62,14.62,0,0,1,265.109.313Zm-.7-15.578a4.236,4.236,0,0,0-3.289,1.344,6.194,6.194,0,0,0-1.445,3.719h8.953a5.7,5.7,0,0,0-1.094-3.758A3.85,3.85,0,0,0,264.406-15.266Zm19.234-2.172a10.149,10.149,0,0,1,2.047.188l-.359,2.406a8.835,8.835,0,0,0-1.875-.234,4.564,4.564,0,0,0-3.555,1.688,6.153,6.153,0,0,0-1.477,4.2V0h-2.594V-17.125h2.141l.3,3.172h.125a7.528,7.528,0,0,1,2.3-2.578A5.171,5.171,0,0,1,283.641-17.437Zm13.953-5.406h6.453q4.547,0,6.578,1.359a4.8,4.8,0,0,1,2.031,4.3,4.965,4.965,0,0,1-1.133,3.352,5.454,5.454,0,0,1-3.3,1.711v.156q5.2.891,5.2,5.469a5.873,5.873,0,0,1-2.07,4.781A8.812,8.812,0,0,1,305.563,0h-7.969Zm2.656,9.781h4.375a7.122,7.122,0,0,0,4.047-.883,3.408,3.408,0,0,0,1.234-2.977,3.012,3.012,0,0,0-1.375-2.773,8.592,8.592,0,0,0-4.375-.852H300.25Zm0,2.25v8.547h4.766a6.788,6.788,0,0,0,4.164-1.07,3.952,3.952,0,0,0,1.4-3.352,3.549,3.549,0,0,0-1.43-3.125,7.641,7.641,0,0,0-4.352-1Zm25.5-6.625a10.149,10.149,0,0,1,2.047.188l-.359,2.406a8.835,8.835,0,0,0-1.875-.234,4.564,4.564,0,0,0-3.555,1.688,6.153,6.153,0,0,0-1.477,4.2V0h-2.594V-17.125h2.141l.3,3.172h.125a7.528,7.528,0,0,1,2.3-2.578A5.171,5.171,0,0,1,325.75-17.437ZM333.594,0H331V-17.125h2.594Zm-2.812-21.766a1.723,1.723,0,0,1,.438-1.3,1.529,1.529,0,0,1,1.094-.414,1.528,1.528,0,0,1,1.078.422,1.691,1.691,0,0,1,.453,1.3,1.718,1.718,0,0,1-.453,1.3,1.513,1.513,0,0,1-1.078.43,1.5,1.5,0,0,1-1.094-.43A1.755,1.755,0,0,1,330.781-21.766ZM346.328.313A7.868,7.868,0,0,1,340.336-2a8.952,8.952,0,0,1-2.2-6.422A9.928,9.928,0,0,1,340.18-15a6.773,6.773,0,0,1,5.477-2.437,6.458,6.458,0,0,1,5.094,2.117,8.114,8.114,0,0,1,1.875,5.586v1.641h-11.8a6.788,6.788,0,0,0,1.523,4.578,5.269,5.269,0,0,0,4.07,1.563,13.793,13.793,0,0,0,5.469-1.156V-.8a13.726,13.726,0,0,1-2.6.852A14.62,14.62,0,0,1,346.328.313Zm-.7-15.578a4.236,4.236,0,0,0-3.289,1.344,6.194,6.194,0,0,0-1.445,3.719h8.953a5.7,5.7,0,0,0-1.094-3.758A3.85,3.85,0,0,0,345.625-15.266Zm19.141.156h-4.359V0h-2.594V-15.109H354.75v-1.172l3.063-.937v-.953q0-6.312,5.516-6.312a11.35,11.35,0,0,1,3.188.547l-.672,2.078a8.58,8.58,0,0,0-2.562-.484,2.5,2.5,0,0,0-2.172.977,5.45,5.45,0,0,0-.7,3.133v1.109h4.359ZM374.734.313a7.309,7.309,0,0,1-5.758-2.289,9.413,9.413,0,0,1-2.039-6.477,9.707,9.707,0,0,1,2.07-6.641,7.454,7.454,0,0,1,5.9-2.344,11.7,11.7,0,0,1,2.469.266,8.133,8.133,0,0,1,1.938.625l-.8,2.2a12.2,12.2,0,0,0-1.875-.57,8.372,8.372,0,0,0-1.8-.227q-5.219,0-5.219,6.656A7.926,7.926,0,0,0,370.9-3.641a4.431,4.431,0,0,0,3.773,1.688,11.537,11.537,0,0,0,4.391-.922v2.3A9.358,9.358,0,0,1,374.734.313ZM393.656,0l-.516-2.437h-.125a7.206,7.206,0,0,1-2.555,2.18,7.787,7.787,0,0,1-3.18.57A5.72,5.72,0,0,1,383.289-1a4.787,4.787,0,0,1-1.445-3.734q0-5.188,8.3-5.437l2.906-.094v-1.062a4.342,4.342,0,0,0-.867-2.977,3.567,3.567,0,0,0-2.773-.961,11.3,11.3,0,0,0-4.844,1.313l-.8-1.984a12.188,12.188,0,0,1,2.773-1.078,12.012,12.012,0,0,1,3.023-.391,6.523,6.523,0,0,1,4.539,1.359,5.674,5.674,0,0,1,1.477,4.359V0ZM387.8-1.828a5.265,5.265,0,0,0,3.8-1.328,4.913,4.913,0,0,0,1.383-3.719V-8.422l-2.594.109a9.434,9.434,0,0,0-4.461.961A2.9,2.9,0,0,0,384.563-4.7a2.672,2.672,0,0,0,.852,2.141A3.535,3.535,0,0,0,387.8-1.828Zm24.172-2.844a4.29,4.29,0,0,1-1.781,3.688,8.373,8.373,0,0,1-5,1.3,10.872,10.872,0,0,1-5.312-1.078V-3.172a12.847,12.847,0,0,0,2.648.984,11.06,11.06,0,0,0,2.727.359,6.183,6.183,0,0,0,3.125-.648,2.144,2.144,0,0,0,1.094-1.977,2.145,2.145,0,0,0-.867-1.711,13.641,13.641,0,0,0-3.383-1.68,18.344,18.344,0,0,1-3.4-1.555,4.642,4.642,0,0,1-1.5-1.508,3.932,3.932,0,0,1-.492-2.016,3.842,3.842,0,0,1,1.7-3.3,7.936,7.936,0,0,1,4.672-1.211,13.67,13.67,0,0,1,5.406,1.125l-.922,2.109a12.41,12.41,0,0,0-4.672-1.062,5.375,5.375,0,0,0-2.781.578,1.788,1.788,0,0,0-.937,1.594,1.941,1.941,0,0,0,.352,1.172,3.469,3.469,0,0,0,1.133.922,25.317,25.317,0,0,0,3,1.266A11.207,11.207,0,0,1,410.9-7.5,3.94,3.94,0,0,1,411.969-4.672ZM423.422.313A7.868,7.868,0,0,1,417.43-2a8.952,8.952,0,0,1-2.2-6.422A9.928,9.928,0,0,1,417.273-15a6.773,6.773,0,0,1,5.477-2.437,6.458,6.458,0,0,1,5.094,2.117,8.114,8.114,0,0,1,1.875,5.586v1.641h-11.8a6.788,6.788,0,0,0,1.523,4.578,5.269,5.269,0,0,0,4.07,1.563,13.793,13.793,0,0,0,5.469-1.156V-.8a13.726,13.726,0,0,1-2.6.852A14.62,14.62,0,0,1,423.422.313Zm-.7-15.578a4.236,4.236,0,0,0-3.289,1.344,6.194,6.194,0,0,0-1.445,3.719h8.953a5.7,5.7,0,0,0-1.094-3.758A3.85,3.85,0,0,0,422.719-15.266Z" transform="translate(2242 179)"/>
    <path id="Path_12" data-name="Path 12" class="cls-4" d="M0,0H564V60H0Z" transform="translate(2181 22)"/>
    <g id="Group_15" data-name="Group 15" transform="translate(2276.8 22)">
      <circle id="Ellipse_1" data-name="Ellipse 1" class="cls-5" cx="20" cy="20" r="20" transform="translate(166.2 10)"/>
      <g id="Group_4" data-name="Group 4" transform="translate(176.635 22.077)">
        <path id="Path_3" data-name="Path 3" class="cls-6" d="M2.946,11.978,10.746,0H1.309L.545,1.579H7.8L0,13.557H10.746l.709-1.579Z"/>
        <path id="Path_4" data-name="Path 4" class="cls-6" d="M27.491,0H24l3.928,8.711L24,17.423h3.491l3.982-8.711Z" transform="translate(-10.908)"/>
      </g>
    </g>
    <g id="Group_14" data-name="Group 14" transform="translate(2199 29.5)">
      <line id="Line_1" data-name="Line 1" class="cls-7" x2="20.154" transform="translate(9.5 15.5)"/>
      <line id="Line_2" data-name="Line 2" class="cls-7" x2="20.154" transform="translate(9.5 22.925)"/>
      <line id="Line_3" data-name="Line 3" class="cls-7" x2="20.154" transform="translate(9.5 30.35)"/>
    </g>
  </g>
</svg>
